<?xml version="1.0" encoding="utf-8" standalone="no"?>
<!DOCTYPE svg PUBLIC "-//W3C//DTD SVG 1.1//EN"
  "http://www.w3.org/Graphics/SVG/1.1/DTD/svg11.dtd">
<svg xmlns:xlink="http://www.w3.org/1999/xlink" width="900pt" height="600pt" viewBox="0 0 900 600" xmlns="http://www.w3.org/2000/svg" version="1.1">
 <metadata>
  <rdf:RDF xmlns:dc="http://purl.org/dc/elements/1.1/" xmlns:cc="http://creativecommons.org/ns#" xmlns:rdf="http://www.w3.org/1999/02/22-rdf-syntax-ns#">
   <cc:Work>
    <dc:type rdf:resource="http://purl.org/dc/dcmitype/StillImage"/>
    <dc:date>2023-11-29T23:47:30.975859</dc:date>
    <dc:format>image/svg+xml</dc:format>
    <dc:creator>
     <cc:Agent>
      <dc:title>Matplotlib v3.7.1, https://matplotlib.org/</dc:title>
     </cc:Agent>
    </dc:creator>
   </cc:Work>
  </rdf:RDF>
 </metadata>
 <defs>
  <style type="text/css">*{stroke-linejoin: round; stroke-linecap: butt}</style>
 </defs>
 <g id="figure_1">
  <g id="patch_1">
   <path d="M 0 600 
L 900 600 
L 900 0 
L 0 0 
z
" style="fill: #ffffff"/>
  </g>
  <g id="axes_1">
   <g id="patch_2">
    <path d="M 109.64 515.56 
L 802.89 515.56 
L 802.89 52.8 
L 109.64 52.8 
z
" style="fill: #ffffff"/>
   </g>
   <g id="matplotlib.axis_1">
    <g id="xtick_1">
     <g id="line2d_1">
      <defs>
       <path id="meb7fbffaf5" d="M 0 0 
L 0 3.5 
" style="stroke: #000000; stroke-width: 0.8"/>
      </defs>
      <g>
       <use xlink:href="#meb7fbffaf5" x="157.957424" y="515.56" style="stroke: #000000; stroke-width: 0.8"/>
      </g>
     </g>
     <g id="text_1">
      <!-- 2020 -->
      <g transform="translate(124.872424 542.315938) scale(0.26 -0.26)">
       <defs>
        <path id="DejaVuSans-32" d="M 1228 531 
L 3431 531 
L 3431 0 
L 469 0 
L 469 531 
Q 828 903 1448 1529 
Q 2069 2156 2228 2338 
Q 2531 2678 2651 2914 
Q 2772 3150 2772 3378 
Q 2772 3750 2511 3984 
Q 2250 4219 1831 4219 
Q 1534 4219 1204 4116 
Q 875 4013 500 3803 
L 500 4441 
Q 881 4594 1212 4672 
Q 1544 4750 1819 4750 
Q 2544 4750 2975 4387 
Q 3406 4025 3406 3419 
Q 3406 3131 3298 2873 
Q 3191 2616 2906 2266 
Q 2828 2175 2409 1742 
Q 1991 1309 1228 531 
z
" transform="scale(0.015625)"/>
        <path id="DejaVuSans-30" d="M 2034 4250 
Q 1547 4250 1301 3770 
Q 1056 3291 1056 2328 
Q 1056 1369 1301 889 
Q 1547 409 2034 409 
Q 2525 409 2770 889 
Q 3016 1369 3016 2328 
Q 3016 3291 2770 3770 
Q 2525 4250 2034 4250 
z
M 2034 4750 
Q 2819 4750 3233 4129 
Q 3647 3509 3647 2328 
Q 3647 1150 3233 529 
Q 2819 -91 2034 -91 
Q 1250 -91 836 529 
Q 422 1150 422 2328 
Q 422 3509 836 4129 
Q 1250 4750 2034 4750 
z
" transform="scale(0.015625)"/>
       </defs>
       <use xlink:href="#DejaVuSans-32"/>
       <use xlink:href="#DejaVuSans-30" x="63.623047"/>
       <use xlink:href="#DejaVuSans-32" x="127.246094"/>
       <use xlink:href="#DejaVuSans-30" x="190.869141"/>
      </g>
     </g>
    </g>
    <g id="xtick_2">
     <g id="line2d_2">
      <g>
       <use xlink:href="#meb7fbffaf5" x="326.01803" y="515.56" style="stroke: #000000; stroke-width: 0.8"/>
      </g>
     </g>
     <g id="text_2">
      <!-- 2100 -->
      <g transform="translate(292.93303 542.315938) scale(0.26 -0.26)">
       <defs>
        <path id="DejaVuSans-31" d="M 794 531 
L 1825 531 
L 1825 4091 
L 703 3866 
L 703 4441 
L 1819 4666 
L 2450 4666 
L 2450 531 
L 3481 531 
L 3481 0 
L 794 0 
L 794 531 
z
" transform="scale(0.015625)"/>
       </defs>
       <use xlink:href="#DejaVuSans-32"/>
       <use xlink:href="#DejaVuSans-31" x="63.623047"/>
       <use xlink:href="#DejaVuSans-30" x="127.246094"/>
       <use xlink:href="#DejaVuSans-30" x="190.869141"/>
      </g>
     </g>
    </g>
    <g id="xtick_3">
     <g id="line2d_3">
      <g>
       <use xlink:href="#meb7fbffaf5" x="536.093788" y="515.56" style="stroke: #000000; stroke-width: 0.8"/>
      </g>
     </g>
     <g id="text_3">
      <!-- 2200 -->
      <g transform="translate(503.008788 542.315938) scale(0.26 -0.26)">
       <use xlink:href="#DejaVuSans-32"/>
       <use xlink:href="#DejaVuSans-32" x="63.623047"/>
       <use xlink:href="#DejaVuSans-30" x="127.246094"/>
       <use xlink:href="#DejaVuSans-30" x="190.869141"/>
      </g>
     </g>
    </g>
    <g id="xtick_4">
     <g id="line2d_4">
      <g>
       <use xlink:href="#meb7fbffaf5" x="746.169545" y="515.56" style="stroke: #000000; stroke-width: 0.8"/>
      </g>
     </g>
     <g id="text_4">
      <!-- 2300 -->
      <g transform="translate(713.084545 542.315938) scale(0.26 -0.26)">
       <defs>
        <path id="DejaVuSans-33" d="M 2597 2516 
Q 3050 2419 3304 2112 
Q 3559 1806 3559 1356 
Q 3559 666 3084 287 
Q 2609 -91 1734 -91 
Q 1441 -91 1130 -33 
Q 819 25 488 141 
L 488 750 
Q 750 597 1062 519 
Q 1375 441 1716 441 
Q 2309 441 2620 675 
Q 2931 909 2931 1356 
Q 2931 1769 2642 2001 
Q 2353 2234 1838 2234 
L 1294 2234 
L 1294 2753 
L 1863 2753 
Q 2328 2753 2575 2939 
Q 2822 3125 2822 3475 
Q 2822 3834 2567 4026 
Q 2313 4219 1838 4219 
Q 1578 4219 1281 4162 
Q 984 4106 628 3988 
L 628 4550 
Q 988 4650 1302 4700 
Q 1616 4750 1894 4750 
Q 2613 4750 3031 4423 
Q 3450 4097 3450 3541 
Q 3450 3153 3228 2886 
Q 3006 2619 2597 2516 
z
" transform="scale(0.015625)"/>
       </defs>
       <use xlink:href="#DejaVuSans-32"/>
       <use xlink:href="#DejaVuSans-33" x="63.623047"/>
       <use xlink:href="#DejaVuSans-30" x="127.246094"/>
       <use xlink:href="#DejaVuSans-30" x="190.869141"/>
      </g>
     </g>
    </g>
    <g id="text_5">
     <!-- Year -->
     <g transform="translate(428.995313 568.439687) scale(0.22 -0.22)">
      <defs>
       <path id="DejaVuSans-Bold-59" d="M -63 4666 
L 1253 4666 
L 2316 3003 
L 3378 4666 
L 4697 4666 
L 2919 1966 
L 2919 0 
L 1716 0 
L 1716 1966 
L -63 4666 
z
" transform="scale(0.015625)"/>
       <path id="DejaVuSans-Bold-65" d="M 4031 1759 
L 4031 1441 
L 1416 1441 
Q 1456 1047 1700 850 
Q 1944 653 2381 653 
Q 2734 653 3104 758 
Q 3475 863 3866 1075 
L 3866 213 
Q 3469 63 3072 -14 
Q 2675 -91 2278 -91 
Q 1328 -91 801 392 
Q 275 875 275 1747 
Q 275 2603 792 3093 
Q 1309 3584 2216 3584 
Q 3041 3584 3536 3087 
Q 4031 2591 4031 1759 
z
M 2881 2131 
Q 2881 2450 2695 2645 
Q 2509 2841 2209 2841 
Q 1884 2841 1681 2658 
Q 1478 2475 1428 2131 
L 2881 2131 
z
" transform="scale(0.015625)"/>
       <path id="DejaVuSans-Bold-61" d="M 2106 1575 
Q 1756 1575 1579 1456 
Q 1403 1338 1403 1106 
Q 1403 894 1545 773 
Q 1688 653 1941 653 
Q 2256 653 2472 879 
Q 2688 1106 2688 1447 
L 2688 1575 
L 2106 1575 
z
M 3816 1997 
L 3816 0 
L 2688 0 
L 2688 519 
Q 2463 200 2181 54 
Q 1900 -91 1497 -91 
Q 953 -91 614 226 
Q 275 544 275 1050 
Q 275 1666 698 1953 
Q 1122 2241 2028 2241 
L 2688 2241 
L 2688 2328 
Q 2688 2594 2478 2717 
Q 2269 2841 1825 2841 
Q 1466 2841 1156 2769 
Q 847 2697 581 2553 
L 581 3406 
Q 941 3494 1303 3539 
Q 1666 3584 2028 3584 
Q 2975 3584 3395 3211 
Q 3816 2838 3816 1997 
z
" transform="scale(0.015625)"/>
       <path id="DejaVuSans-Bold-72" d="M 3138 2547 
Q 2991 2616 2845 2648 
Q 2700 2681 2553 2681 
Q 2122 2681 1889 2404 
Q 1656 2128 1656 1613 
L 1656 0 
L 538 0 
L 538 3500 
L 1656 3500 
L 1656 2925 
Q 1872 3269 2151 3426 
Q 2431 3584 2822 3584 
Q 2878 3584 2943 3579 
Q 3009 3575 3134 3559 
L 3138 2547 
z
" transform="scale(0.015625)"/>
      </defs>
      <use xlink:href="#DejaVuSans-Bold-59"/>
      <use xlink:href="#DejaVuSans-Bold-65" x="63.287109"/>
      <use xlink:href="#DejaVuSans-Bold-61" x="131.109375"/>
      <use xlink:href="#DejaVuSans-Bold-72" x="198.589844"/>
     </g>
    </g>
   </g>
   <g id="matplotlib.axis_2">
    <g id="ytick_1">
     <g id="line2d_5">
      <defs>
       <path id="m5654d0bd2e" d="M 0 0 
L -3.5 0 
" style="stroke: #000000; stroke-width: 0.8"/>
      </defs>
      <g>
       <use xlink:href="#m5654d0bd2e" x="109.64" y="515.56" style="stroke: #000000; stroke-width: 0.8"/>
      </g>
     </g>
     <g id="text_6">
      <!-- 0 -->
      <g transform="translate(86.0975 525.437969) scale(0.26 -0.26)">
       <use xlink:href="#DejaVuSans-30"/>
      </g>
     </g>
    </g>
    <g id="ytick_2">
     <g id="line2d_6">
      <g>
       <use xlink:href="#m5654d0bd2e" x="109.64" y="441.5184" style="stroke: #000000; stroke-width: 0.8"/>
      </g>
     </g>
     <g id="text_7">
      <!-- 20 -->
      <g transform="translate(69.555 451.396369) scale(0.26 -0.26)">
       <use xlink:href="#DejaVuSans-32"/>
       <use xlink:href="#DejaVuSans-30" x="63.623047"/>
      </g>
     </g>
    </g>
    <g id="ytick_3">
     <g id="line2d_7">
      <g>
       <use xlink:href="#m5654d0bd2e" x="109.64" y="367.4768" style="stroke: #000000; stroke-width: 0.8"/>
      </g>
     </g>
     <g id="text_8">
      <!-- 40 -->
      <g transform="translate(69.555 377.354769) scale(0.26 -0.26)">
       <defs>
        <path id="DejaVuSans-34" d="M 2419 4116 
L 825 1625 
L 2419 1625 
L 2419 4116 
z
M 2253 4666 
L 3047 4666 
L 3047 1625 
L 3713 1625 
L 3713 1100 
L 3047 1100 
L 3047 0 
L 2419 0 
L 2419 1100 
L 313 1100 
L 313 1709 
L 2253 4666 
z
" transform="scale(0.015625)"/>
       </defs>
       <use xlink:href="#DejaVuSans-34"/>
       <use xlink:href="#DejaVuSans-30" x="63.623047"/>
      </g>
     </g>
    </g>
    <g id="ytick_4">
     <g id="line2d_8">
      <g>
       <use xlink:href="#m5654d0bd2e" x="109.64" y="293.4352" style="stroke: #000000; stroke-width: 0.8"/>
      </g>
     </g>
     <g id="text_9">
      <!-- 60 -->
      <g transform="translate(69.555 303.313169) scale(0.26 -0.26)">
       <defs>
        <path id="DejaVuSans-36" d="M 2113 2584 
Q 1688 2584 1439 2293 
Q 1191 2003 1191 1497 
Q 1191 994 1439 701 
Q 1688 409 2113 409 
Q 2538 409 2786 701 
Q 3034 994 3034 1497 
Q 3034 2003 2786 2293 
Q 2538 2584 2113 2584 
z
M 3366 4563 
L 3366 3988 
Q 3128 4100 2886 4159 
Q 2644 4219 2406 4219 
Q 1781 4219 1451 3797 
Q 1122 3375 1075 2522 
Q 1259 2794 1537 2939 
Q 1816 3084 2150 3084 
Q 2853 3084 3261 2657 
Q 3669 2231 3669 1497 
Q 3669 778 3244 343 
Q 2819 -91 2113 -91 
Q 1303 -91 875 529 
Q 447 1150 447 2328 
Q 447 3434 972 4092 
Q 1497 4750 2381 4750 
Q 2619 4750 2861 4703 
Q 3103 4656 3366 4563 
z
" transform="scale(0.015625)"/>
       </defs>
       <use xlink:href="#DejaVuSans-36"/>
       <use xlink:href="#DejaVuSans-30" x="63.623047"/>
      </g>
     </g>
    </g>
    <g id="ytick_5">
     <g id="line2d_9">
      <g>
       <use xlink:href="#m5654d0bd2e" x="109.64" y="219.3936" style="stroke: #000000; stroke-width: 0.8"/>
      </g>
     </g>
     <g id="text_10">
      <!-- 80 -->
      <g transform="translate(69.555 229.271569) scale(0.26 -0.26)">
       <defs>
        <path id="DejaVuSans-38" d="M 2034 2216 
Q 1584 2216 1326 1975 
Q 1069 1734 1069 1313 
Q 1069 891 1326 650 
Q 1584 409 2034 409 
Q 2484 409 2743 651 
Q 3003 894 3003 1313 
Q 3003 1734 2745 1975 
Q 2488 2216 2034 2216 
z
M 1403 2484 
Q 997 2584 770 2862 
Q 544 3141 544 3541 
Q 544 4100 942 4425 
Q 1341 4750 2034 4750 
Q 2731 4750 3128 4425 
Q 3525 4100 3525 3541 
Q 3525 3141 3298 2862 
Q 3072 2584 2669 2484 
Q 3125 2378 3379 2068 
Q 3634 1759 3634 1313 
Q 3634 634 3220 271 
Q 2806 -91 2034 -91 
Q 1263 -91 848 271 
Q 434 634 434 1313 
Q 434 1759 690 2068 
Q 947 2378 1403 2484 
z
M 1172 3481 
Q 1172 3119 1398 2916 
Q 1625 2713 2034 2713 
Q 2441 2713 2670 2916 
Q 2900 3119 2900 3481 
Q 2900 3844 2670 4047 
Q 2441 4250 2034 4250 
Q 1625 4250 1398 4047 
Q 1172 3844 1172 3481 
z
" transform="scale(0.015625)"/>
       </defs>
       <use xlink:href="#DejaVuSans-38"/>
       <use xlink:href="#DejaVuSans-30" x="63.623047"/>
      </g>
     </g>
    </g>
    <g id="ytick_6">
     <g id="line2d_10">
      <g>
       <use xlink:href="#m5654d0bd2e" x="109.64" y="145.352" style="stroke: #000000; stroke-width: 0.8"/>
      </g>
     </g>
     <g id="text_11">
      <!-- 100 -->
      <g transform="translate(53.0125 155.229969) scale(0.26 -0.26)">
       <use xlink:href="#DejaVuSans-31"/>
       <use xlink:href="#DejaVuSans-30" x="63.623047"/>
       <use xlink:href="#DejaVuSans-30" x="127.246094"/>
      </g>
     </g>
    </g>
    <g id="ytick_7">
     <g id="line2d_11">
      <g>
       <use xlink:href="#m5654d0bd2e" x="109.64" y="71.3104" style="stroke: #000000; stroke-width: 0.8"/>
      </g>
     </g>
     <g id="text_12">
      <!-- 120 -->
      <g transform="translate(53.0125 81.188369) scale(0.26 -0.26)">
       <use xlink:href="#DejaVuSans-31"/>
       <use xlink:href="#DejaVuSans-32" x="63.623047"/>
       <use xlink:href="#DejaVuSans-30" x="127.246094"/>
      </g>
     </g>
    </g>
    <g id="text_13">
     <!-- % of Remaining Ice -->
     <g transform="translate(44.265313 403.000625) rotate(-90) scale(0.22 -0.22)">
      <defs>
       <path id="DejaVuSans-Bold-25" d="M 4959 1925 
Q 4738 1925 4616 1733 
Q 4494 1541 4494 1184 
Q 4494 825 4614 633 
Q 4734 441 4959 441 
Q 5184 441 5303 633 
Q 5422 825 5422 1184 
Q 5422 1541 5301 1733 
Q 5181 1925 4959 1925 
z
M 4959 2450 
Q 5541 2450 5875 2112 
Q 6209 1775 6209 1184 
Q 6209 594 5875 251 
Q 5541 -91 4959 -91 
Q 4378 -91 4042 251 
Q 3706 594 3706 1184 
Q 3706 1772 4042 2111 
Q 4378 2450 4959 2450 
z
M 2094 -91 
L 1403 -91 
L 4319 4750 
L 5013 4750 
L 2094 -91 
z
M 1453 4750 
Q 2034 4750 2367 4411 
Q 2700 4072 2700 3481 
Q 2700 2891 2367 2550 
Q 2034 2209 1453 2209 
Q 872 2209 539 2550 
Q 206 2891 206 3481 
Q 206 4072 539 4411 
Q 872 4750 1453 4750 
z
M 1453 4225 
Q 1228 4225 1106 4031 
Q 984 3838 984 3481 
Q 984 3122 1106 2926 
Q 1228 2731 1453 2731 
Q 1678 2731 1798 2926 
Q 1919 3122 1919 3481 
Q 1919 3838 1797 4031 
Q 1675 4225 1453 4225 
z
" transform="scale(0.015625)"/>
       <path id="DejaVuSans-Bold-20" transform="scale(0.015625)"/>
       <path id="DejaVuSans-Bold-6f" d="M 2203 2784 
Q 1831 2784 1636 2517 
Q 1441 2250 1441 1747 
Q 1441 1244 1636 976 
Q 1831 709 2203 709 
Q 2569 709 2762 976 
Q 2956 1244 2956 1747 
Q 2956 2250 2762 2517 
Q 2569 2784 2203 2784 
z
M 2203 3584 
Q 3106 3584 3614 3096 
Q 4122 2609 4122 1747 
Q 4122 884 3614 396 
Q 3106 -91 2203 -91 
Q 1297 -91 786 396 
Q 275 884 275 1747 
Q 275 2609 786 3096 
Q 1297 3584 2203 3584 
z
" transform="scale(0.015625)"/>
       <path id="DejaVuSans-Bold-66" d="M 2841 4863 
L 2841 4128 
L 2222 4128 
Q 1984 4128 1890 4042 
Q 1797 3956 1797 3744 
L 1797 3500 
L 2753 3500 
L 2753 2700 
L 1797 2700 
L 1797 0 
L 678 0 
L 678 2700 
L 122 2700 
L 122 3500 
L 678 3500 
L 678 3744 
Q 678 4316 997 4589 
Q 1316 4863 1984 4863 
L 2841 4863 
z
" transform="scale(0.015625)"/>
       <path id="DejaVuSans-Bold-52" d="M 2297 2597 
Q 2675 2597 2839 2737 
Q 3003 2878 3003 3200 
Q 3003 3519 2839 3656 
Q 2675 3794 2297 3794 
L 1791 3794 
L 1791 2597 
L 2297 2597 
z
M 1791 1766 
L 1791 0 
L 588 0 
L 588 4666 
L 2425 4666 
Q 3347 4666 3776 4356 
Q 4206 4047 4206 3378 
Q 4206 2916 3982 2619 
Q 3759 2322 3309 2181 
Q 3556 2125 3751 1926 
Q 3947 1728 4147 1325 
L 4800 0 
L 3519 0 
L 2950 1159 
Q 2778 1509 2601 1637 
Q 2425 1766 2131 1766 
L 1791 1766 
z
" transform="scale(0.015625)"/>
       <path id="DejaVuSans-Bold-6d" d="M 3781 2919 
Q 3994 3244 4286 3414 
Q 4578 3584 4928 3584 
Q 5531 3584 5847 3212 
Q 6163 2841 6163 2131 
L 6163 0 
L 5038 0 
L 5038 1825 
Q 5041 1866 5042 1909 
Q 5044 1953 5044 2034 
Q 5044 2406 4934 2573 
Q 4825 2741 4581 2741 
Q 4263 2741 4089 2478 
Q 3916 2216 3909 1719 
L 3909 0 
L 2784 0 
L 2784 1825 
Q 2784 2406 2684 2573 
Q 2584 2741 2328 2741 
Q 2006 2741 1831 2477 
Q 1656 2213 1656 1722 
L 1656 0 
L 531 0 
L 531 3500 
L 1656 3500 
L 1656 2988 
Q 1863 3284 2130 3434 
Q 2397 3584 2719 3584 
Q 3081 3584 3359 3409 
Q 3638 3234 3781 2919 
z
" transform="scale(0.015625)"/>
       <path id="DejaVuSans-Bold-69" d="M 538 3500 
L 1656 3500 
L 1656 0 
L 538 0 
L 538 3500 
z
M 538 4863 
L 1656 4863 
L 1656 3950 
L 538 3950 
L 538 4863 
z
" transform="scale(0.015625)"/>
       <path id="DejaVuSans-Bold-6e" d="M 4056 2131 
L 4056 0 
L 2931 0 
L 2931 347 
L 2931 1631 
Q 2931 2084 2911 2256 
Q 2891 2428 2841 2509 
Q 2775 2619 2662 2680 
Q 2550 2741 2406 2741 
Q 2056 2741 1856 2470 
Q 1656 2200 1656 1722 
L 1656 0 
L 538 0 
L 538 3500 
L 1656 3500 
L 1656 2988 
Q 1909 3294 2193 3439 
Q 2478 3584 2822 3584 
Q 3428 3584 3742 3212 
Q 4056 2841 4056 2131 
z
" transform="scale(0.015625)"/>
       <path id="DejaVuSans-Bold-67" d="M 2919 594 
Q 2688 288 2409 144 
Q 2131 0 1766 0 
Q 1125 0 706 504 
Q 288 1009 288 1791 
Q 288 2575 706 3076 
Q 1125 3578 1766 3578 
Q 2131 3578 2409 3434 
Q 2688 3291 2919 2981 
L 2919 3500 
L 4044 3500 
L 4044 353 
Q 4044 -491 3511 -936 
Q 2978 -1381 1966 -1381 
Q 1638 -1381 1331 -1331 
Q 1025 -1281 716 -1178 
L 716 -306 
Q 1009 -475 1290 -558 
Q 1572 -641 1856 -641 
Q 2406 -641 2662 -400 
Q 2919 -159 2919 353 
L 2919 594 
z
M 2181 2772 
Q 1834 2772 1640 2515 
Q 1447 2259 1447 1791 
Q 1447 1309 1634 1061 
Q 1822 813 2181 813 
Q 2531 813 2725 1069 
Q 2919 1325 2919 1791 
Q 2919 2259 2725 2515 
Q 2531 2772 2181 2772 
z
" transform="scale(0.015625)"/>
       <path id="DejaVuSans-Bold-49" d="M 588 4666 
L 1791 4666 
L 1791 0 
L 588 0 
L 588 4666 
z
" transform="scale(0.015625)"/>
       <path id="DejaVuSans-Bold-63" d="M 3366 3391 
L 3366 2478 
Q 3138 2634 2908 2709 
Q 2678 2784 2431 2784 
Q 1963 2784 1702 2511 
Q 1441 2238 1441 1747 
Q 1441 1256 1702 982 
Q 1963 709 2431 709 
Q 2694 709 2930 787 
Q 3166 866 3366 1019 
L 3366 103 
Q 3103 6 2833 -42 
Q 2563 -91 2291 -91 
Q 1344 -91 809 395 
Q 275 881 275 1747 
Q 275 2613 809 3098 
Q 1344 3584 2291 3584 
Q 2566 3584 2833 3536 
Q 3100 3488 3366 3391 
z
" transform="scale(0.015625)"/>
      </defs>
      <use xlink:href="#DejaVuSans-Bold-25"/>
      <use xlink:href="#DejaVuSans-Bold-20" x="100.195312"/>
      <use xlink:href="#DejaVuSans-Bold-6f" x="135.009766"/>
      <use xlink:href="#DejaVuSans-Bold-66" x="203.710938"/>
      <use xlink:href="#DejaVuSans-Bold-20" x="247.216797"/>
      <use xlink:href="#DejaVuSans-Bold-52" x="282.03125"/>
      <use xlink:href="#DejaVuSans-Bold-65" x="359.033203"/>
      <use xlink:href="#DejaVuSans-Bold-6d" x="426.855469"/>
      <use xlink:href="#DejaVuSans-Bold-61" x="531.054688"/>
      <use xlink:href="#DejaVuSans-Bold-69" x="598.535156"/>
      <use xlink:href="#DejaVuSans-Bold-6e" x="632.8125"/>
      <use xlink:href="#DejaVuSans-Bold-69" x="704.003906"/>
      <use xlink:href="#DejaVuSans-Bold-6e" x="738.28125"/>
      <use xlink:href="#DejaVuSans-Bold-67" x="809.472656"/>
      <use xlink:href="#DejaVuSans-Bold-20" x="881.054688"/>
      <use xlink:href="#DejaVuSans-Bold-49" x="915.869141"/>
      <use xlink:href="#DejaVuSans-Bold-63" x="953.076172"/>
      <use xlink:href="#DejaVuSans-Bold-65" x="1012.353516"/>
     </g>
    </g>
   </g>
   <g id="line2d_12">
    <path d="M 157.957424 145.352 
L 178.965 151.40404 
L 195.771061 156.859713 
L 218.879394 164.898352 
L 229.383182 169.103356 
L 239.88697 173.737243 
L 260.894545 183.463964 
L 273.499091 189.389635 
L 281.902121 193.466603 
L 311.312727 207.440497 
L 328.118788 215.309241 
L 368.033182 234.561039 
L 382.738485 241.482264 
L 393.242273 246.475009 
L 399.544545 249.266188 
L 416.350606 256.583392 
L 443.660455 268.565294 
L 477.272576 283.105258 
L 491.977879 289.210159 
L 504.582424 293.919998 
L 517.18697 298.304859 
L 552.899848 310.111539 
L 573.907424 316.558933 
L 582.310455 318.904901 
L 594.915 322.312415 
L 605.418788 325.327751 
L 628.527121 332.027436 
L 653.736212 338.785644 
L 662.139242 340.825855 
L 676.844545 344.023827 
L 685.247576 345.606451 
L 727.262727 352.984568 
L 744.068788 354.501004 
L 746.169545 354.648283 
L 746.169545 354.648283 
" clip-path="url(#p527096d5b4)" style="fill: none; stroke: #f66200; stroke-opacity: 0.3; stroke-width: 2; stroke-linecap: square"/>
   </g>
   <g id="line2d_13">
    <path d="M 115.942273 136.743284 
L 118.04303 137.021106 
L 120.143788 137.30939 
L 122.244545 137.612563 
L 124.345303 137.949613 
L 126.446061 138.234528 
L 128.546818 138.541122 
L 130.647576 138.873595 
L 132.748333 139.179284 
L 134.849091 139.476259 
L 136.949848 139.765727 
L 139.050606 140.27502 
L 141.151364 140.794778 
L 143.252121 141.331873 
L 145.352879 141.911163 
L 147.453636 142.475944 
L 149.554394 143.046876 
L 151.655152 143.6201 
L 153.755909 144.218725 
L 155.856667 144.787781 
L 157.957424 145.352 
" clip-path="url(#p527096d5b4)" style="fill: none; stroke: #000000; stroke-opacity: 0.3; stroke-width: 2; stroke-linecap: square"/>
   </g>
   <g id="line2d_14">
    <path d="M 157.957424 145.352 
L 172.662727 148.69426 
L 183.166515 151.175195 
L 191.569545 153.358873 
L 195.771061 154.476642 
L 204.174091 157.288966 
L 220.980152 163.370479 
L 237.786212 170.281602 
L 248.29 174.105331 
L 258.793788 177.837494 
L 269.297576 181.655549 
L 281.902121 186.32166 
L 288.204394 188.818477 
L 300.808939 194.167477 
L 315.514242 200.014657 
L 321.816515 202.634411 
L 332.320303 206.691856 
L 355.428636 215.650153 
L 389.040758 228.275724 
L 399.544545 232.370414 
L 426.854394 241.896444 
L 435.257424 244.722959 
L 454.164242 251.530613 
L 462.567273 254.469093 
L 468.869545 256.700161 
L 477.272576 259.369223 
L 496.179394 265.003273 
L 502.481667 267.088186 
L 521.388485 272.973767 
L 538.194545 278.880034 
L 546.597576 281.700994 
L 550.799091 283.28779 
L 563.403636 288.277114 
L 586.51197 296.737379 
L 592.814242 298.783685 
L 601.217273 301.312312 
L 609.620303 303.563679 
L 615.922576 305.369149 
L 622.224848 306.977719 
L 632.728636 309.962101 
L 647.433939 314.40229 
L 651.635455 315.599346 
L 662.139242 318.354474 
L 689.449091 326.164133 
L 706.255152 331.205547 
L 710.456667 332.34132 
L 718.859697 334.393068 
L 727.262727 336.299254 
L 746.169545 338.460114 
L 746.169545 338.460114 
" clip-path="url(#p527096d5b4)" style="fill: none; stroke: #822900; stroke-opacity: 0.3; stroke-width: 2; stroke-linecap: square"/>
   </g>
   <g id="line2d_15">
    <path d="M 115.942273 137.09498 
L 118.04303 137.375096 
L 120.143788 137.657083 
L 122.244545 137.960348 
L 124.345303 138.303997 
L 126.446061 138.585985 
L 128.546818 138.884363 
L 130.647576 139.203206 
L 132.748333 139.502615 
L 134.849091 139.793906 
L 136.949848 140.065301 
L 139.050606 140.563341 
L 141.151364 141.063811 
L 143.252121 141.591868 
L 145.352879 142.117602 
L 147.453636 142.624552 
L 149.554394 143.152893 
L 151.655152 143.691494 
L 153.755909 144.259177 
L 155.856667 144.806709 
L 157.957424 145.352 
" clip-path="url(#p527096d5b4)" style="fill: none; stroke: #000000; stroke-opacity: 0.3; stroke-width: 2; stroke-linecap: square"/>
   </g>
   <g id="line2d_16">
    <path d="M 157.957424 145.352 
L 166.360455 147.745147 
L 178.965 151.344853 
L 197.871818 157.418831 
L 208.375606 161.275518 
L 223.080909 167.509916 
L 233.584697 172.47415 
L 246.189242 178.818228 
L 256.69303 184.407748 
L 265.096061 189.087781 
L 273.499091 193.545964 
L 281.902121 197.972759 
L 288.204394 201.395367 
L 317.615 217.82764 
L 328.118788 223.871935 
L 349.126364 235.782184 
L 361.730909 242.864332 
L 380.637727 253.552033 
L 391.141515 259.744295 
L 403.746061 267.127422 
L 424.753636 278.599767 
L 431.055909 281.884369 
L 456.265 294.313912 
L 479.373333 304.920455 
L 491.977879 310.435787 
L 500.380909 313.91814 
L 512.985455 318.951522 
L 523.489242 322.99199 
L 529.791515 325.509606 
L 542.396061 330.758552 
L 573.907424 343.636763 
L 594.915 351.551193 
L 603.31803 354.32467 
L 622.224848 360.184002 
L 636.930152 364.511581 
L 653.736212 369.371053 
L 691.549848 379.512432 
L 708.355909 383.7002 
L 727.262727 388.017909 
L 739.867273 389.494632 
L 746.169545 390.096895 
L 746.169545 390.096895 
" clip-path="url(#p527096d5b4)" style="fill: none; stroke: #f76800; stroke-opacity: 0.3; stroke-width: 2; stroke-linecap: square"/>
   </g>
   <g id="line2d_17">
    <path d="M 115.942273 135.854135 
L 118.04303 136.189053 
L 120.143788 136.552388 
L 122.244545 136.938163 
L 124.345303 137.333737 
L 126.446061 137.652867 
L 128.546818 137.949264 
L 130.647576 138.258009 
L 132.748333 138.554331 
L 134.849091 138.843079 
L 136.949848 139.109216 
L 139.050606 139.608855 
L 141.151364 140.163153 
L 143.252121 140.7349 
L 145.352879 141.322327 
L 147.453636 141.972257 
L 149.554394 142.64449 
L 151.655152 143.337352 
L 153.755909 144.056119 
L 155.856667 144.72088 
L 157.957424 145.352 
" clip-path="url(#p527096d5b4)" style="fill: none; stroke: #000000; stroke-opacity: 0.3; stroke-width: 2; stroke-linecap: square"/>
   </g>
   <g id="line2d_18">
    <path d="M 157.957424 145.352 
L 162.158939 147.268123 
L 166.360455 149.379842 
L 172.662727 153.03162 
L 176.864242 155.851521 
L 181.065758 159.145939 
L 187.36803 164.641343 
L 191.569545 168.431427 
L 197.871818 174.547684 
L 206.274848 183.19459 
L 210.476364 187.747472 
L 214.677879 192.622018 
L 233.584697 215.044513 
L 237.786212 220.340048 
L 244.088485 228.691083 
L 256.69303 245.608395 
L 262.995303 253.972104 
L 290.305152 290.648101 
L 298.708182 301.283425 
L 302.909697 306.364313 
L 311.312727 316.158043 
L 317.615 323.040719 
L 321.816515 327.484215 
L 330.219545 335.673809 
L 336.521818 341.52464 
L 347.025606 351.124221 
L 353.327879 356.345256 
L 359.630152 361.351948 
L 372.234697 370.821517 
L 382.738485 378.328287 
L 393.242273 385.659248 
L 399.544545 390.024095 
L 418.451364 403.023936 
L 424.753636 407.22853 
L 447.86197 422.290328 
L 458.365758 428.426948 
L 470.970303 435.564167 
L 477.272576 438.88921 
L 483.574848 442.024444 
L 489.877121 444.918847 
L 496.179394 447.57647 
L 502.481667 449.946284 
L 517.18697 455.075583 
L 536.093788 461.345119 
L 548.698333 465.694716 
L 571.806667 473.456813 
L 582.310455 476.552971 
L 594.915 479.998762 
L 603.31803 482.037174 
L 613.821818 484.235519 
L 630.627879 487.386787 
L 645.333182 489.664765 
L 655.83697 491.114731 
L 666.340758 492.399003 
L 687.348333 494.731315 
L 714.658182 497.5136 
L 727.262727 498.531578 
L 746.169545 499.185802 
L 746.169545 499.185802 
" clip-path="url(#p527096d5b4)" style="fill: none; stroke: #662b00; stroke-opacity: 0.3; stroke-width: 2; stroke-linecap: square"/>
   </g>
   <g id="line2d_19">
    <path d="M 115.942273 135.213691 
L 118.04303 135.496018 
L 120.143788 135.800329 
L 122.244545 136.12629 
L 124.345303 136.484549 
L 126.446061 136.771066 
L 128.546818 137.047345 
L 130.647576 137.346047 
L 132.748333 137.64886 
L 134.849091 137.933933 
L 136.949848 138.214163 
L 139.050606 138.714533 
L 141.151364 139.216432 
L 143.252121 139.780309 
L 145.352879 140.408771 
L 147.453636 141.11843 
L 149.554394 141.920488 
L 151.655152 142.711197 
L 153.755909 143.565609 
L 155.856667 144.447485 
L 157.957424 145.352 
" clip-path="url(#p527096d5b4)" style="fill: none; stroke: #000000; stroke-opacity: 0.3; stroke-width: 2; stroke-linecap: square"/>
   </g>
   <g id="line2d_20">
    <path d="M 157.957424 145.352 
L 164.259697 147.072912 
L 172.662727 149.268722 
L 178.965 151.152512 
L 185.267273 153.359529 
L 199.972576 158.854533 
L 206.274848 161.230414 
L 210.476364 163.051028 
L 225.181667 169.741642 
L 233.584697 173.911558 
L 239.88697 177.349637 
L 252.491515 184.439745 
L 258.793788 187.927514 
L 275.599848 198.36002 
L 292.405909 208.957424 
L 305.010455 217.468208 
L 311.312727 221.613874 
L 315.514242 224.3312 
L 321.816515 228.105967 
L 328.118788 232.183852 
L 344.924848 243.580934 
L 355.428636 250.47667 
L 365.932424 257.503837 
L 378.53697 265.307118 
L 384.839242 269.115995 
L 395.34303 276.073842 
L 407.947576 284.233925 
L 412.149091 287.104666 
L 418.451364 291.165641 
L 422.652879 293.726628 
L 426.854394 296.286188 
L 462.567273 316.709261 
L 479.373333 326.585821 
L 494.078636 334.679795 
L 506.683182 341.266573 
L 515.086212 345.405152 
L 525.59 350.09023 
L 529.791515 351.706121 
L 542.396061 356.11887 
L 548.698333 358.266536 
L 555.000606 360.288831 
L 561.302879 362.486322 
L 571.806667 366.142993 
L 584.411212 370.469103 
L 594.915 374.135697 
L 605.418788 377.775104 
L 611.721061 380.004859 
L 622.224848 383.912438 
L 630.627879 386.572123 
L 636.930152 388.43902 
L 651.635455 392.448518 
L 660.038485 394.508037 
L 668.441515 396.642122 
L 683.146818 400.390516 
L 691.549848 402.340879 
L 704.154394 405.011303 
L 725.16197 409.346907 
L 727.262727 409.78016 
L 739.867273 411.017202 
L 746.169545 411.832286 
L 746.169545 411.832286 
" clip-path="url(#p527096d5b4)" style="fill: none; stroke: #b32700; stroke-opacity: 0.3; stroke-width: 2; stroke-linecap: square"/>
   </g>
   <g id="line2d_21">
    <path d="M 115.942273 137.076088 
L 118.04303 137.368336 
L 120.143788 137.662457 
L 122.244545 137.976395 
L 124.345303 138.341751 
L 126.446061 138.63756 
L 128.546818 138.921217 
L 130.647576 139.225226 
L 132.748333 139.50643 
L 134.849091 139.778124 
L 136.949848 140.032041 
L 139.050606 140.522096 
L 141.151364 140.996055 
L 143.252121 141.479404 
L 145.352879 141.934045 
L 147.453636 142.420328 
L 149.554394 142.931045 
L 151.655152 143.528722 
L 153.755909 144.14257 
L 155.856667 144.742089 
L 157.957424 145.352 
" clip-path="url(#p527096d5b4)" style="fill: none; stroke: #000000; stroke-opacity: 0.3; stroke-width: 2; stroke-linecap: square"/>
   </g>
   <g id="line2d_22">
    <path d="M 157.957424 145.352 
L 178.965 150.683169 
L 189.468788 154.049437 
L 193.670303 155.678452 
L 197.871818 157.377218 
L 220.980152 166.087634 
L 227.282424 168.274544 
L 233.584697 170.474617 
L 248.29 175.149613 
L 284.002879 187.108761 
L 290.305152 189.328677 
L 305.010455 193.975088 
L 313.413485 196.473822 
L 330.219545 200.880176 
L 347.025606 205.204481 
L 357.529394 207.830163 
L 378.53697 212.593183 
L 389.040758 215.09052 
L 403.746061 218.354361 
L 428.955152 224.004687 
L 435.257424 225.367287 
L 456.265 230.065958 
L 464.66803 231.756046 
L 483.574848 235.227981 
L 491.977879 236.600871 
L 533.99303 242.28553 
L 557.101364 245.344654 
L 573.907424 247.632096 
L 584.411212 248.569538 
L 605.418788 250.228427 
L 613.821818 251.091617 
L 620.124091 251.900055 
L 639.030909 254.414035 
L 649.534697 255.6671 
L 670.542273 257.968973 
L 697.852121 261.481362 
L 708.355909 262.700245 
L 733.565 264.575535 
L 741.96803 264.887566 
L 746.169545 265.045764 
L 746.169545 265.045764 
" clip-path="url(#p527096d5b4)" style="fill: none; stroke: #70b8ff; stroke-opacity: 0.3; stroke-width: 2; stroke-linecap: square"/>
   </g>
   <g id="line2d_23">
    <path d="M 115.942273 137.01048 
L 118.04303 137.294391 
L 120.143788 137.586306 
L 122.244545 137.913589 
L 124.345303 138.269478 
L 126.446061 138.570386 
L 128.546818 138.869692 
L 130.647576 139.182891 
L 132.748333 139.481134 
L 134.849091 139.78081 
L 136.949848 140.068714 
L 139.050606 140.574287 
L 141.151364 141.095342 
L 143.252121 141.604148 
L 145.352879 142.123806 
L 147.453636 142.655935 
L 149.554394 143.195901 
L 151.655152 143.727736 
L 153.755909 144.253238 
L 155.856667 144.792395 
L 157.957424 145.352 
" clip-path="url(#p527096d5b4)" style="fill: none; stroke: #000000; stroke-opacity: 0.3; stroke-width: 2; stroke-linecap: square"/>
   </g>
   <g id="line2d_24">
    <path d="M 157.957424 145.352 
L 162.158939 146.716736 
L 172.662727 150.431998 
L 178.965 152.752348 
L 187.36803 155.938963 
L 204.174091 162.275654 
L 214.677879 165.955642 
L 229.383182 171.693257 
L 254.592273 181.217142 
L 265.096061 184.948567 
L 275.599848 189.478502 
L 294.506667 198.596042 
L 307.111212 204.827571 
L 326.01803 213.526797 
L 332.320303 216.671284 
L 336.521818 218.7647 
L 342.824091 222.024284 
L 349.126364 225.282839 
L 357.529394 229.434518 
L 365.932424 233.255282 
L 370.133939 234.971871 
L 378.53697 238.078687 
L 397.443788 244.746786 
L 414.249848 250.429859 
L 441.559697 260.134436 
L 445.761212 261.624815 
L 454.164242 264.808744 
L 477.272576 272.596742 
L 487.776364 275.870222 
L 506.683182 281.366647 
L 519.287727 285.230292 
L 531.892273 288.737748 
L 542.396061 291.277977 
L 550.799091 293.074933 
L 561.302879 295.255255 
L 571.806667 297.683665 
L 580.209697 299.797067 
L 607.519545 306.014371 
L 618.023333 308.568867 
L 641.131667 313.798362 
L 649.534697 315.313225 
L 664.24 317.689345 
L 681.046061 320.442371 
L 712.557424 325.113823 
L 723.061212 326.67702 
L 727.262727 327.412723 
L 735.665758 328.13095 
L 746.169545 328.950788 
L 746.169545 328.950788 
" clip-path="url(#p527096d5b4)" style="fill: none; stroke: #fb7800; stroke-opacity: 0.3; stroke-width: 2; stroke-linecap: square"/>
   </g>
   <g id="line2d_25">
    <path d="M 115.942273 136.629483 
L 118.04303 136.898591 
L 120.143788 137.168866 
L 122.244545 137.479296 
L 124.345303 137.833514 
L 126.446061 138.137151 
L 128.546818 138.433704 
L 130.647576 138.763239 
L 132.748333 139.065212 
L 134.849091 139.351901 
L 136.949848 139.621252 
L 139.050606 140.10978 
L 141.151364 140.596598 
L 143.252121 141.109232 
L 145.352879 141.636831 
L 147.453636 142.17926 
L 149.554394 142.778023 
L 151.655152 143.404708 
L 153.755909 144.03904 
L 155.856667 144.688401 
L 157.957424 145.352 
" clip-path="url(#p527096d5b4)" style="fill: none; stroke: #000000; stroke-opacity: 0.3; stroke-width: 2; stroke-linecap: square"/>
   </g>
   <g id="line2d_26">
    <path d="M 157.957424 145.352 
L 170.56197 150.305751 
L 178.965 154.093003 
L 191.569545 160.638538 
L 204.174091 167.417083 
L 218.879394 175.709268 
L 225.181667 179.704723 
L 229.383182 182.588669 
L 233.584697 185.738431 
L 237.786212 189.134732 
L 244.088485 194.41352 
L 250.390758 199.945431 
L 269.297576 217.022007 
L 273.499091 220.52356 
L 279.801364 225.284758 
L 286.103636 229.995202 
L 292.405909 235.190679 
L 317.615 257.016738 
L 334.421061 272.086577 
L 342.824091 278.695195 
L 349.126364 283.468508 
L 353.327879 286.520088 
L 357.529394 289.389421 
L 361.730909 292.048562 
L 368.033182 295.677212 
L 374.335455 298.987624 
L 391.141515 307.596743 
L 397.443788 310.802029 
L 407.947576 316.601192 
L 414.249848 320.092634 
L 424.753636 325.552749 
L 431.055909 328.761231 
L 439.458939 332.617335 
L 445.761212 335.092281 
L 466.768788 343.25762 
L 475.171818 346.237143 
L 500.380909 354.887004 
L 519.287727 361.179839 
L 546.597576 370.467615 
L 557.101364 373.676447 
L 571.806667 377.66334 
L 588.612727 381.69439 
L 594.915 382.879837 
L 605.418788 384.642539 
L 620.124091 386.65111 
L 649.534697 390.449642 
L 666.340758 392.898011 
L 697.852121 397.663881 
L 727.262727 401.450167 
L 741.96803 402.399057 
L 746.169545 402.667282 
L 746.169545 402.667282 
" clip-path="url(#p527096d5b4)" style="fill: none; stroke: #fb7900; stroke-opacity: 0.3; stroke-width: 2; stroke-linecap: square"/>
   </g>
   <g id="line2d_27">
    <path d="M 115.942273 135.467218 
L 118.04303 135.706702 
L 120.143788 135.967517 
L 122.244545 136.277048 
L 124.345303 136.63959 
L 126.446061 136.938323 
L 128.546818 137.243155 
L 130.647576 137.561133 
L 132.748333 137.866463 
L 134.849091 138.16343 
L 136.949848 138.454816 
L 139.050606 138.958876 
L 141.151364 139.507723 
L 143.252121 140.134935 
L 145.352879 140.783856 
L 147.453636 141.437274 
L 149.554394 142.163393 
L 151.655152 142.93001 
L 153.755909 143.738671 
L 155.856667 144.544294 
L 157.957424 145.352 
" clip-path="url(#p527096d5b4)" style="fill: none; stroke: #000000; stroke-opacity: 0.3; stroke-width: 2; stroke-linecap: square"/>
   </g>
   <g id="line2d_28">
    <path d="M 157.957424 145.352 
L 168.461212 147.750891 
L 172.662727 148.438325 
L 176.864242 148.990549 
L 181.065758 150.033784 
L 185.267273 151.375206 
L 191.569545 153.769131 
L 199.972576 157.232945 
L 206.274848 160.056104 
L 212.577121 162.995565 
L 216.778636 165.057405 
L 220.980152 167.121845 
L 225.181667 169.246611 
L 229.383182 171.33912 
L 237.786212 175.9855 
L 241.987727 178.635389 
L 260.894545 191.353315 
L 267.196818 195.658621 
L 275.599848 201.414915 
L 284.002879 207.110636 
L 315.514242 229.220679 
L 321.816515 233.980518 
L 326.01803 237.276168 
L 336.521818 245.217455 
L 340.723333 248.267725 
L 344.924848 251.386084 
L 351.227121 256.037169 
L 353.327879 257.673978 
L 357.529394 261.164384 
L 361.730909 264.494262 
L 363.831667 266.048919 
L 370.133939 270.08642 
L 393.242273 284.359039 
L 397.443788 286.519311 
L 403.746061 289.523811 
L 407.947576 291.583765 
L 414.249848 295.20297 
L 422.652879 300.107176 
L 449.962727 314.691469 
L 454.164242 316.559095 
L 479.373333 326.566172 
L 496.179394 332.778996 
L 500.380909 334.453372 
L 515.086212 339.543154 
L 523.489242 342.110156 
L 529.791515 344.145726 
L 536.093788 346.032059 
L 546.597576 348.919162 
L 550.799091 350.137488 
L 567.605152 354.631931 
L 592.814242 360.6234 
L 599.116515 362.301819 
L 615.922576 366.349301 
L 624.325606 368.561567 
L 636.930152 371.361782 
L 643.232424 372.683802 
L 660.038485 376.152937 
L 666.340758 377.40944 
L 681.046061 380.442533 
L 714.658182 387.653849 
L 727.262727 390.024117 
L 739.867273 391.057264 
L 746.169545 391.529551 
L 746.169545 391.529551 
" clip-path="url(#p527096d5b4)" style="fill: none; stroke: #e34500; stroke-opacity: 0.3; stroke-width: 2; stroke-linecap: square"/>
   </g>
   <g id="line2d_29">
    <path d="M 115.942273 137.209976 
L 118.04303 137.531896 
L 120.143788 137.82064 
L 122.244545 138.117182 
L 124.345303 138.401194 
L 126.446061 138.683916 
L 128.546818 138.987524 
L 130.647576 139.275712 
L 132.748333 139.583656 
L 134.849091 139.876259 
L 136.949848 140.164782 
L 139.050606 140.674923 
L 141.151364 141.208868 
L 143.252121 141.755669 
L 145.352879 142.25404 
L 147.453636 142.735325 
L 149.554394 143.234669 
L 151.655152 143.765141 
L 153.755909 144.303183 
L 155.856667 144.839678 
L 157.957424 145.352 
" clip-path="url(#p527096d5b4)" style="fill: none; stroke: #000000; stroke-opacity: 0.3; stroke-width: 2; stroke-linecap: square"/>
   </g>
   <g id="line2d_30">
    <path d="M 157.957424 145.352 
L 202.073333 160.111213 
L 212.577121 163.462762 
L 216.778636 164.772123 
L 220.980152 166.266546 
L 225.181667 167.823377 
L 239.88697 172.728191 
L 246.189242 174.824483 
L 254.592273 177.49819 
L 275.599848 184.315129 
L 286.103636 187.613633 
L 305.010455 193.869811 
L 323.917273 199.360546 
L 334.421061 201.834933 
L 340.723333 203.312465 
L 344.924848 204.372983 
L 355.428636 207.316453 
L 361.730909 209.160369 
L 378.53697 214.359915 
L 384.839242 216.136633 
L 407.947576 222.43029 
L 424.753636 226.582816 
L 439.458939 229.437682 
L 447.86197 230.831433 
L 454.164242 232.07897 
L 462.567273 233.87091 
L 498.280152 241.519535 
L 504.582424 242.680401 
L 515.086212 244.242311 
L 521.388485 245.108962 
L 531.892273 246.384916 
L 538.194545 247.169681 
L 544.496818 248.121268 
L 561.302879 251.229149 
L 569.705909 252.748569 
L 582.310455 254.989213 
L 594.915 256.601632 
L 611.721061 258.143956 
L 662.139242 261.624539 
L 672.64303 262.05939 
L 678.945303 262.482273 
L 716.758939 265.161364 
L 725.16197 265.601372 
L 729.363485 265.755601 
L 746.169545 266.141198 
L 746.169545 266.141198 
" clip-path="url(#p527096d5b4)" style="fill: none; stroke: #f76800; stroke-opacity: 0.3; stroke-width: 2; stroke-linecap: square"/>
   </g>
   <g id="line2d_31">
    <path d="M 115.942273 135.307274 
L 118.04303 135.641992 
L 120.143788 135.999724 
L 122.244545 136.390025 
L 124.345303 136.849669 
L 126.446061 137.192699 
L 128.546818 137.526938 
L 130.647576 137.895558 
L 132.748333 138.230804 
L 134.849091 138.544074 
L 136.949848 138.820037 
L 139.050606 139.302289 
L 141.151364 139.817933 
L 143.252121 140.366393 
L 145.352879 140.977379 
L 147.453636 141.578342 
L 149.554394 142.275331 
L 151.655152 142.991212 
L 153.755909 143.797589 
L 155.856667 144.574882 
L 157.957424 145.352 
" clip-path="url(#p527096d5b4)" style="fill: none; stroke: #000000; stroke-opacity: 0.3; stroke-width: 2; stroke-linecap: square"/>
   </g>
   <g id="line2d_32">
    <path d="M 157.957424 145.352 
L 164.259697 147.206355 
L 168.461212 147.976406 
L 172.662727 148.738671 
L 176.864242 149.264334 
L 181.065758 150.317134 
L 187.36803 152.213553 
L 193.670303 154.578727 
L 199.972576 157.217251 
L 206.274848 159.995543 
L 214.677879 164.087199 
L 223.080909 168.505238 
L 229.383182 171.597639 
L 239.88697 176.480219 
L 246.189242 179.399193 
L 254.592273 183.342838 
L 260.894545 186.070567 
L 267.196818 188.8239 
L 277.700606 193.594667 
L 286.103636 197.096856 
L 294.506667 200.565759 
L 298.708182 202.40014 
L 305.010455 205.418744 
L 313.413485 209.357127 
L 323.917273 214.107814 
L 342.824091 223.159724 
L 349.126364 225.724638 
L 365.932424 232.755487 
L 391.141515 243.254748 
L 410.048333 250.86931 
L 420.552121 254.819363 
L 426.854394 257.078158 
L 441.559697 262.546044 
L 449.962727 265.42861 
L 481.474091 276.046716 
L 500.380909 281.736456 
L 510.884697 284.415323 
L 521.388485 287.093234 
L 546.597576 293.853392 
L 552.899848 295.677187 
L 561.302879 297.600228 
L 571.806667 299.742419 
L 578.108939 301.080438 
L 588.612727 302.897221 
L 607.519545 306.252728 
L 615.922576 307.678615 
L 624.325606 309.043005 
L 634.829394 310.710099 
L 643.232424 311.855776 
L 651.635455 312.78852 
L 657.937727 313.536465 
L 666.340758 314.743289 
L 674.743788 316.062149 
L 695.751364 319.170537 
L 704.154394 320.276172 
L 714.658182 321.434355 
L 727.262727 322.757263 
L 737.766515 323.434915 
L 746.169545 324.074365 
L 746.169545 324.074365 
" clip-path="url(#p527096d5b4)" style="fill: none; stroke: #9d2800; stroke-opacity: 0.3; stroke-width: 2; stroke-linecap: square"/>
   </g>
   <g id="line2d_33">
    <path d="M 115.942273 136.690892 
L 118.04303 137.024391 
L 120.143788 137.380822 
L 122.244545 137.769702 
L 124.345303 138.104201 
L 126.446061 138.392445 
L 128.546818 138.667144 
L 130.647576 138.945814 
L 132.748333 139.217723 
L 134.849091 139.488701 
L 136.949848 139.743578 
L 139.050606 140.238334 
L 141.151364 140.752405 
L 143.252121 141.29868 
L 145.352879 141.852073 
L 147.453636 142.408166 
L 149.554394 142.967012 
L 151.655152 143.545613 
L 153.755909 144.139457 
L 155.856667 144.745334 
L 157.957424 145.352 
" clip-path="url(#p527096d5b4)" style="fill: none; stroke: #000000; stroke-opacity: 0.3; stroke-width: 2; stroke-linecap: square"/>
   </g>
   <g id="line2d_34">
    <path d="M 157.957424 145.352 
L 164.259697 147.164242 
L 168.461212 148.019546 
L 174.763485 150.00999 
L 178.965 151.567968 
L 185.267273 154.306934 
L 189.468788 156.338395 
L 191.569545 157.450128 
L 225.181667 173.173242 
L 235.685455 178.511155 
L 250.390758 186.117138 
L 267.196818 194.91961 
L 275.599848 198.90765 
L 286.103636 204.049805 
L 302.909697 212.167996 
L 319.715758 219.885397 
L 336.521818 226.830865 
L 342.824091 229.434216 
L 351.227121 232.682917 
L 378.53697 243.127348 
L 397.443788 249.981884 
L 416.350606 256.835146 
L 439.458939 264.781278 
L 445.761212 266.683575 
L 466.768788 272.745891 
L 485.675606 277.566301 
L 498.280152 281.219017 
L 506.683182 283.548405 
L 525.59 288.906092 
L 561.302879 298.135932 
L 590.713485 305.544566 
L 607.519545 308.197699 
L 632.728636 312.013672 
L 639.030909 312.939909 
L 664.24 317.02212 
L 674.743788 318.46617 
L 687.348333 319.621444 
L 695.751364 320.145228 
L 704.154394 320.711042 
L 718.859697 322.02063 
L 727.262727 323.166808 
L 733.565 323.609768 
L 746.169545 324.561531 
L 746.169545 324.561531 
" clip-path="url(#p527096d5b4)" style="fill: none; stroke: #c12a00; stroke-opacity: 0.3; stroke-width: 2; stroke-linecap: square"/>
   </g>
   <g id="line2d_35">
    <path d="M 115.942273 136.565558 
L 118.04303 136.899168 
L 120.143788 137.255716 
L 122.244545 137.644725 
L 124.345303 138.058755 
L 126.446061 138.312077 
L 128.546818 138.607595 
L 130.647576 138.892607 
L 132.748333 139.162719 
L 134.849091 139.452185 
L 136.949848 139.752793 
L 139.050606 140.266677 
L 141.151364 140.794304 
L 143.252121 141.350408 
L 145.352879 141.909212 
L 147.453636 142.432353 
L 149.554394 142.963721 
L 151.655152 143.551983 
L 153.755909 144.157324 
L 155.856667 144.751805 
L 157.957424 145.352 
" clip-path="url(#p527096d5b4)" style="fill: none; stroke: #000000; stroke-opacity: 0.3; stroke-width: 2; stroke-linecap: square"/>
   </g>
   <g id="line2d_36">
    <path d="M 157.957424 145.352 
L 172.662727 150.295672 
L 185.267273 154.745302 
L 189.468788 156.192145 
L 204.174091 161.595611 
L 214.677879 165.979747 
L 220.980152 168.635602 
L 227.282424 171.600041 
L 256.69303 185.985145 
L 265.096061 190.29013 
L 279.801364 197.385148 
L 286.103636 200.654193 
L 292.405909 204.043846 
L 302.909697 209.248817 
L 309.21197 212.250495 
L 319.715758 216.986089 
L 326.01803 219.524987 
L 349.126364 227.609404 
L 386.94 242.516347 
L 399.544545 247.052116 
L 414.249848 252.338293 
L 428.955152 257.205008 
L 437.358182 259.946576 
L 443.660455 261.851542 
L 456.265 265.529637 
L 468.869545 269.619029 
L 498.280152 278.107122 
L 523.489242 284.641032 
L 531.892273 286.839024 
L 559.202121 293.535945 
L 567.605152 295.378713 
L 611.721061 304.736105 
L 620.124091 306.508059 
L 645.333182 311.400819 
L 668.441515 315.136315 
L 672.64303 315.564971 
L 678.945303 316.179915 
L 695.751364 317.8796 
L 706.255152 318.531089 
L 727.262727 320.275669 
L 735.665758 320.510139 
L 746.169545 321.117655 
L 746.169545 321.117655 
" clip-path="url(#p527096d5b4)" style="fill: none; stroke: #fa7500; stroke-opacity: 0.3; stroke-width: 2; stroke-linecap: square"/>
   </g>
   <g id="line2d_37">
    <path d="M 115.942273 135.197686 
L 118.04303 135.532499 
L 120.143788 135.890334 
L 122.244545 136.280748 
L 124.345303 136.740524 
L 126.446061 137.083654 
L 128.546818 137.417989 
L 130.647576 137.786715 
L 132.748333 138.122058 
L 134.849091 138.435419 
L 136.949848 138.711461 
L 139.050606 139.193852 
L 141.151364 139.737596 
L 143.252121 140.307912 
L 145.352879 140.942441 
L 147.453636 141.606363 
L 149.554394 142.360272 
L 151.655152 143.126496 
L 153.755909 143.897165 
L 155.856667 144.632868 
L 157.957424 145.352 
" clip-path="url(#p527096d5b4)" style="fill: none; stroke: #000000; stroke-opacity: 0.3; stroke-width: 2; stroke-linecap: square"/>
   </g>
   <g id="line2d_38">
    <path d="M 157.957424 145.352 
L 164.259697 147.387474 
L 168.461212 148.437429 
L 176.864242 151.055954 
L 187.36803 154.97984 
L 193.670303 157.523763 
L 218.879394 166.979046 
L 225.181667 169.082928 
L 239.88697 174.749868 
L 248.29 178.306431 
L 254.592273 181.157672 
L 260.894545 183.796367 
L 265.096061 185.611001 
L 269.297576 187.198505 
L 284.002879 192.232911 
L 288.204394 193.401225 
L 296.607424 195.402356 
L 302.909697 196.916963 
L 315.514242 200.059641 
L 321.816515 201.231281 
L 330.219545 202.601622 
L 344.924848 204.173069 
L 351.227121 204.552199 
L 357.529394 204.954645 
L 372.234697 206.253016 
L 376.436212 206.816405 
L 384.839242 207.608591 
L 393.242273 208.355758 
L 397.443788 208.755641 
L 410.048333 209.414663 
L 424.753636 209.90658 
L 447.86197 209.989944 
L 454.164242 209.835693 
L 462.567273 209.52974 
L 475.171818 209.238172 
L 491.977879 208.506664 
L 504.582424 208.216786 
L 533.99303 206.979524 
L 548.698333 205.877051 
L 555.000606 205.602742 
L 561.302879 205.278096 
L 565.504394 205.091456 
L 573.907424 204.863592 
L 580.209697 204.751671 
L 592.814242 204.577807 
L 603.31803 203.811685 
L 609.620303 203.220353 
L 624.325606 201.426918 
L 643.232424 198.687826 
L 649.534697 198.119843 
L 657.937727 197.719508 
L 664.24 197.551109 
L 672.64303 197.473243 
L 681.046061 197.567738 
L 689.449091 197.756219 
L 695.751364 197.630955 
L 704.154394 197.191897 
L 710.456667 196.654083 
L 718.859697 195.695977 
L 731.464242 194.239449 
L 746.169545 193.016971 
L 746.169545 193.016971 
" clip-path="url(#p527096d5b4)" style="fill: none; stroke: #fd9b00; stroke-opacity: 0.3; stroke-width: 2; stroke-linecap: square"/>
   </g>
   <g id="line2d_39">
    <path d="M 115.942273 135.975859 
L 118.04303 136.309988 
L 120.143788 136.667091 
L 122.244545 137.056705 
L 124.345303 137.515541 
L 126.446061 137.857968 
L 128.546818 138.19162 
L 130.647576 138.539872 
L 132.748333 138.793906 
L 134.849091 139.057774 
L 136.949848 139.357976 
L 139.050606 139.841888 
L 141.151364 140.378771 
L 143.252121 140.91942 
L 145.352879 141.478416 
L 147.453636 142.042049 
L 149.554394 142.643072 
L 151.655152 143.280603 
L 153.755909 143.957611 
L 155.856667 144.638835 
L 157.957424 145.352 
" clip-path="url(#p527096d5b4)" style="fill: none; stroke: #000000; stroke-opacity: 0.3; stroke-width: 2; stroke-linecap: square"/>
   </g>
   <g id="line2d_40">
    <path d="M 764.551174 324.410313 
L 774.004583 324.410313 
L 774.004583 217.847704 
L 764.551174 217.847704 
L 764.551174 324.410313 
" clip-path="url(#p527096d5b4)" style="fill: none; stroke: #92b9c1; stroke-width: 2; stroke-linecap: square"/>
   </g>
   <g id="line2d_41">
    <path d="M 769.277879 324.410313 
L 769.277879 364.25767 
" clip-path="url(#p527096d5b4)" style="fill: none; stroke: #92b9c1; stroke-linecap: square"/>
   </g>
   <g id="line2d_42">
    <path d="M 769.277879 217.847704 
L 769.277879 136.660671 
" clip-path="url(#p527096d5b4)" style="fill: none; stroke: #92b9c1; stroke-linecap: square"/>
   </g>
   <g id="line2d_43">
    <path d="M 766.914527 364.25767 
L 771.641231 364.25767 
" clip-path="url(#p527096d5b4)" style="fill: none; stroke: #92b9c1; stroke-linecap: square"/>
   </g>
   <g id="line2d_44">
    <path d="M 766.914527 136.660671 
L 771.641231 136.660671 
" clip-path="url(#p527096d5b4)" style="fill: none; stroke: #92b9c1; stroke-linecap: square"/>
   </g>
   <g id="line2d_45">
    <path d="M 777.15572 365.699067 
L 786.609129 365.699067 
L 786.609129 265.912263 
L 777.15572 265.912263 
L 777.15572 365.699067 
" clip-path="url(#p527096d5b4)" style="fill: none; stroke: #ff8f00; stroke-width: 2; stroke-linecap: square"/>
   </g>
   <g id="line2d_46">
    <path d="M 781.882424 365.699067 
L 781.882424 414.916288 
" clip-path="url(#p527096d5b4)" style="fill: none; stroke: #ff8f00; stroke-linecap: square"/>
   </g>
   <g id="line2d_47">
    <path d="M 781.882424 265.912263 
L 781.882424 185.972613 
" clip-path="url(#p527096d5b4)" style="fill: none; stroke: #ff8f00; stroke-linecap: square"/>
   </g>
   <g id="line2d_48">
    <path d="M 779.519072 414.916288 
L 784.245777 414.916288 
" clip-path="url(#p527096d5b4)" style="fill: none; stroke: #ff8f00; stroke-linecap: square"/>
   </g>
   <g id="line2d_49">
    <path d="M 779.519072 185.972613 
L 784.245777 185.972613 
" clip-path="url(#p527096d5b4)" style="fill: none; stroke: #ff8f00; stroke-linecap: square"/>
   </g>
   <g id="line2d_50">
    <path d="M 789.760265 456.639854 
L 799.213674 456.639854 
L 799.213674 365.610481 
L 789.760265 365.610481 
L 789.760265 456.639854 
" clip-path="url(#p527096d5b4)" style="fill: none; stroke: #662b00; stroke-width: 2; stroke-linecap: square"/>
   </g>
   <g id="line2d_51">
    <path d="M 794.48697 456.639854 
L 794.48697 501.946723 
" clip-path="url(#p527096d5b4)" style="fill: none; stroke: #662b00; stroke-linecap: square"/>
   </g>
   <g id="line2d_52">
    <path d="M 794.48697 365.610481 
L 794.48697 289.289981 
" clip-path="url(#p527096d5b4)" style="fill: none; stroke: #662b00; stroke-linecap: square"/>
   </g>
   <g id="line2d_53">
    <path d="M 792.123617 501.946723 
L 796.850322 501.946723 
" clip-path="url(#p527096d5b4)" style="fill: none; stroke: #662b00; stroke-linecap: square"/>
   </g>
   <g id="line2d_54">
    <path d="M 792.123617 289.289981 
L 796.850322 289.289981 
" clip-path="url(#p527096d5b4)" style="fill: none; stroke: #662b00; stroke-linecap: square"/>
   </g>
   <g id="line2d_55">
    <path d="M 764.551174 272.843149 
L 774.004583 272.843149 
" clip-path="url(#p527096d5b4)" style="fill: none; stroke: #92b9c1; stroke-width: 4; stroke-linecap: square"/>
   </g>
   <g id="line2d_56">
    <path d="M 777.15572 318.419756 
L 786.609129 318.419756 
" clip-path="url(#p527096d5b4)" style="fill: none; stroke: #ff8f00; stroke-width: 4; stroke-linecap: square"/>
   </g>
   <g id="line2d_57">
    <path d="M 789.760265 422.632663 
L 799.213674 422.632663 
" clip-path="url(#p527096d5b4)" style="fill: none; stroke: #662b00; stroke-width: 4; stroke-linecap: square"/>
   </g>
   <g id="patch_3">
    <path d="M 109.64 515.56 
L 109.64 52.8 
" style="fill: none; stroke: #000000; stroke-width: 0.8; stroke-linejoin: miter; stroke-linecap: square"/>
   </g>
   <g id="patch_4">
    <path d="M 109.64 515.56 
L 802.89 515.56 
" style="fill: none; stroke: #000000; stroke-width: 0.8; stroke-linejoin: miter; stroke-linecap: square"/>
   </g>
   <g id="text_14">
    <!-- +1.5C -->
    <g style="fill: #92b9c1" transform="translate(802.89 277.810024) scale(0.18 -0.18)">
     <defs>
      <path id="DejaVuSans-Bold-2b" d="M 3053 4013 
L 3053 2375 
L 4684 2375 
L 4684 1638 
L 3053 1638 
L 3053 0 
L 2309 0 
L 2309 1638 
L 678 1638 
L 678 2375 
L 2309 2375 
L 2309 4013 
L 3053 4013 
z
" transform="scale(0.015625)"/>
      <path id="DejaVuSans-Bold-31" d="M 750 831 
L 1813 831 
L 1813 3847 
L 722 3622 
L 722 4441 
L 1806 4666 
L 2950 4666 
L 2950 831 
L 4013 831 
L 4013 0 
L 750 0 
L 750 831 
z
" transform="scale(0.015625)"/>
      <path id="DejaVuSans-Bold-2e" d="M 653 1209 
L 1778 1209 
L 1778 0 
L 653 0 
L 653 1209 
z
" transform="scale(0.015625)"/>
      <path id="DejaVuSans-Bold-35" d="M 678 4666 
L 3669 4666 
L 3669 3781 
L 1638 3781 
L 1638 3059 
Q 1775 3097 1914 3117 
Q 2053 3138 2203 3138 
Q 3056 3138 3531 2711 
Q 4006 2284 4006 1522 
Q 4006 766 3489 337 
Q 2972 -91 2053 -91 
Q 1656 -91 1267 -14 
Q 878 63 494 219 
L 494 1166 
Q 875 947 1217 837 
Q 1559 728 1863 728 
Q 2300 728 2551 942 
Q 2803 1156 2803 1522 
Q 2803 1891 2551 2103 
Q 2300 2316 1863 2316 
Q 1603 2316 1309 2248 
Q 1016 2181 678 2041 
L 678 4666 
z
" transform="scale(0.015625)"/>
      <path id="DejaVuSans-Bold-b0" d="M 1600 4288 
Q 1375 4288 1219 4131 
Q 1063 3975 1063 3750 
Q 1063 3525 1217 3372 
Q 1372 3219 1600 3219 
Q 1825 3219 1981 3373 
Q 2138 3528 2138 3750 
Q 2138 3975 1980 4131 
Q 1822 4288 1600 4288 
z
M 1600 4794 
Q 1806 4794 1997 4714 
Q 2188 4634 2338 4488 
Q 2484 4338 2561 4150 
Q 2638 3963 2638 3750 
Q 2638 3541 2561 3352 
Q 2484 3163 2344 3022 
Q 2194 2872 2000 2792 
Q 1806 2713 1594 2713 
Q 1153 2713 854 3011 
Q 556 3309 556 3750 
Q 556 4191 857 4492 
Q 1159 4794 1600 4794 
z
" transform="scale(0.015625)"/>
      <path id="DejaVuSans-Bold-43" d="M 4288 256 
Q 3956 84 3597 -3 
Q 3238 -91 2847 -91 
Q 1681 -91 1000 561 
Q 319 1213 319 2328 
Q 319 3447 1000 4098 
Q 1681 4750 2847 4750 
Q 3238 4750 3597 4662 
Q 3956 4575 4288 4403 
L 4288 3438 
Q 3953 3666 3628 3772 
Q 3303 3878 2944 3878 
Q 2300 3878 1931 3465 
Q 1563 3053 1563 2328 
Q 1563 1606 1931 1193 
Q 2300 781 2944 781 
Q 3303 781 3628 887 
Q 3953 994 4288 1222 
L 4288 256 
z
" transform="scale(0.015625)"/>
     </defs>
     <use xlink:href="#DejaVuSans-Bold-2b"/>
     <use xlink:href="#DejaVuSans-Bold-31" x="83.789062"/>
     <use xlink:href="#DejaVuSans-Bold-2e" x="153.369141"/>
     <use xlink:href="#DejaVuSans-Bold-35" x="191.357422"/>
     <use xlink:href="#DejaVuSans-Bold-b0" x="260.9375"/>
     <use xlink:href="#DejaVuSans-Bold-43" x="310.9375"/>
    </g>
   </g>
   <g id="text_15">
    <!-- +2.0C -->
    <g style="fill: #ff8f00" transform="translate(802.89 323.386631) scale(0.18 -0.18)">
     <defs>
      <path id="DejaVuSans-Bold-32" d="M 1844 884 
L 3897 884 
L 3897 0 
L 506 0 
L 506 884 
L 2209 2388 
Q 2438 2594 2547 2791 
Q 2656 2988 2656 3200 
Q 2656 3528 2436 3728 
Q 2216 3928 1850 3928 
Q 1569 3928 1234 3808 
Q 900 3688 519 3450 
L 519 4475 
Q 925 4609 1322 4679 
Q 1719 4750 2100 4750 
Q 2938 4750 3402 4381 
Q 3866 4013 3866 3353 
Q 3866 2972 3669 2642 
Q 3472 2313 2841 1759 
L 1844 884 
z
" transform="scale(0.015625)"/>
      <path id="DejaVuSans-Bold-30" d="M 2944 2338 
Q 2944 3213 2780 3570 
Q 2616 3928 2228 3928 
Q 1841 3928 1675 3570 
Q 1509 3213 1509 2338 
Q 1509 1453 1675 1090 
Q 1841 728 2228 728 
Q 2613 728 2778 1090 
Q 2944 1453 2944 2338 
z
M 4147 2328 
Q 4147 1169 3647 539 
Q 3147 -91 2228 -91 
Q 1306 -91 806 539 
Q 306 1169 306 2328 
Q 306 3491 806 4120 
Q 1306 4750 2228 4750 
Q 3147 4750 3647 4120 
Q 4147 3491 4147 2328 
z
" transform="scale(0.015625)"/>
     </defs>
     <use xlink:href="#DejaVuSans-Bold-2b"/>
     <use xlink:href="#DejaVuSans-Bold-32" x="83.789062"/>
     <use xlink:href="#DejaVuSans-Bold-2e" x="153.369141"/>
     <use xlink:href="#DejaVuSans-Bold-30" x="191.357422"/>
     <use xlink:href="#DejaVuSans-Bold-b0" x="260.9375"/>
     <use xlink:href="#DejaVuSans-Bold-43" x="310.9375"/>
    </g>
   </g>
   <g id="text_16">
    <!-- +3.0C -->
    <g style="fill: #662b00" transform="translate(802.89 427.599538) scale(0.18 -0.18)">
     <defs>
      <path id="DejaVuSans-Bold-33" d="M 2981 2516 
Q 3453 2394 3698 2092 
Q 3944 1791 3944 1325 
Q 3944 631 3412 270 
Q 2881 -91 1863 -91 
Q 1503 -91 1142 -33 
Q 781 25 428 141 
L 428 1069 
Q 766 900 1098 814 
Q 1431 728 1753 728 
Q 2231 728 2486 893 
Q 2741 1059 2741 1369 
Q 2741 1688 2480 1852 
Q 2219 2016 1709 2016 
L 1228 2016 
L 1228 2791 
L 1734 2791 
Q 2188 2791 2409 2933 
Q 2631 3075 2631 3366 
Q 2631 3634 2415 3781 
Q 2200 3928 1806 3928 
Q 1516 3928 1219 3862 
Q 922 3797 628 3669 
L 628 4550 
Q 984 4650 1334 4700 
Q 1684 4750 2022 4750 
Q 2931 4750 3382 4451 
Q 3834 4153 3834 3553 
Q 3834 3144 3618 2883 
Q 3403 2622 2981 2516 
z
" transform="scale(0.015625)"/>
     </defs>
     <use xlink:href="#DejaVuSans-Bold-2b"/>
     <use xlink:href="#DejaVuSans-Bold-33" x="83.789062"/>
     <use xlink:href="#DejaVuSans-Bold-2e" x="153.369141"/>
     <use xlink:href="#DejaVuSans-Bold-30" x="191.357422"/>
     <use xlink:href="#DejaVuSans-Bold-b0" x="260.9375"/>
     <use xlink:href="#DejaVuSans-Bold-43" x="310.9375"/>
    </g>
   </g>
   <g id="text_17">
    <!-- Glaciers of Arctic Canada (North) -->
    <g transform="translate(232.6375 46.8) scale(0.24 -0.24)">
     <defs>
      <path id="DejaVuSans-Bold-47" d="M 4781 347 
Q 4331 128 3847 18 
Q 3363 -91 2847 -91 
Q 1681 -91 1000 561 
Q 319 1213 319 2328 
Q 319 3456 1012 4103 
Q 1706 4750 2913 4750 
Q 3378 4750 3804 4662 
Q 4231 4575 4609 4403 
L 4609 3438 
Q 4219 3659 3833 3768 
Q 3447 3878 3059 3878 
Q 2341 3878 1952 3476 
Q 1563 3075 1563 2328 
Q 1563 1588 1938 1184 
Q 2313 781 3003 781 
Q 3191 781 3352 804 
Q 3513 828 3641 878 
L 3641 1784 
L 2906 1784 
L 2906 2591 
L 4781 2591 
L 4781 347 
z
" transform="scale(0.015625)"/>
      <path id="DejaVuSans-Bold-6c" d="M 538 4863 
L 1656 4863 
L 1656 0 
L 538 0 
L 538 4863 
z
" transform="scale(0.015625)"/>
      <path id="DejaVuSans-Bold-73" d="M 3272 3391 
L 3272 2541 
Q 2913 2691 2578 2766 
Q 2244 2841 1947 2841 
Q 1628 2841 1473 2761 
Q 1319 2681 1319 2516 
Q 1319 2381 1436 2309 
Q 1553 2238 1856 2203 
L 2053 2175 
Q 2913 2066 3209 1816 
Q 3506 1566 3506 1031 
Q 3506 472 3093 190 
Q 2681 -91 1863 -91 
Q 1516 -91 1145 -36 
Q 775 19 384 128 
L 384 978 
Q 719 816 1070 734 
Q 1422 653 1784 653 
Q 2113 653 2278 743 
Q 2444 834 2444 1013 
Q 2444 1163 2330 1236 
Q 2216 1309 1875 1350 
L 1678 1375 
Q 931 1469 631 1722 
Q 331 1975 331 2491 
Q 331 3047 712 3315 
Q 1094 3584 1881 3584 
Q 2191 3584 2531 3537 
Q 2872 3491 3272 3391 
z
" transform="scale(0.015625)"/>
      <path id="DejaVuSans-Bold-41" d="M 3419 850 
L 1538 850 
L 1241 0 
L 31 0 
L 1759 4666 
L 3194 4666 
L 4922 0 
L 3713 0 
L 3419 850 
z
M 1838 1716 
L 3116 1716 
L 2478 3572 
L 1838 1716 
z
" transform="scale(0.015625)"/>
      <path id="DejaVuSans-Bold-74" d="M 1759 4494 
L 1759 3500 
L 2913 3500 
L 2913 2700 
L 1759 2700 
L 1759 1216 
Q 1759 972 1856 886 
Q 1953 800 2241 800 
L 2816 800 
L 2816 0 
L 1856 0 
Q 1194 0 917 276 
Q 641 553 641 1216 
L 641 2700 
L 84 2700 
L 84 3500 
L 641 3500 
L 641 4494 
L 1759 4494 
z
" transform="scale(0.015625)"/>
      <path id="DejaVuSans-Bold-64" d="M 2919 2988 
L 2919 4863 
L 4044 4863 
L 4044 0 
L 2919 0 
L 2919 506 
Q 2688 197 2409 53 
Q 2131 -91 1766 -91 
Q 1119 -91 703 423 
Q 288 938 288 1747 
Q 288 2556 703 3070 
Q 1119 3584 1766 3584 
Q 2128 3584 2408 3439 
Q 2688 3294 2919 2988 
z
M 2181 722 
Q 2541 722 2730 984 
Q 2919 1247 2919 1747 
Q 2919 2247 2730 2509 
Q 2541 2772 2181 2772 
Q 1825 2772 1636 2509 
Q 1447 2247 1447 1747 
Q 1447 1247 1636 984 
Q 1825 722 2181 722 
z
" transform="scale(0.015625)"/>
      <path id="DejaVuSans-Bold-28" d="M 2413 -844 
L 1484 -844 
Q 1006 -72 778 623 
Q 550 1319 550 2003 
Q 550 2688 779 3389 
Q 1009 4091 1484 4856 
L 2413 4856 
Q 2013 4116 1813 3408 
Q 1613 2700 1613 2009 
Q 1613 1319 1811 609 
Q 2009 -100 2413 -844 
z
" transform="scale(0.015625)"/>
      <path id="DejaVuSans-Bold-4e" d="M 588 4666 
L 1931 4666 
L 3628 1466 
L 3628 4666 
L 4769 4666 
L 4769 0 
L 3425 0 
L 1728 3200 
L 1728 0 
L 588 0 
L 588 4666 
z
" transform="scale(0.015625)"/>
      <path id="DejaVuSans-Bold-68" d="M 4056 2131 
L 4056 0 
L 2931 0 
L 2931 347 
L 2931 1625 
Q 2931 2084 2911 2256 
Q 2891 2428 2841 2509 
Q 2775 2619 2662 2680 
Q 2550 2741 2406 2741 
Q 2056 2741 1856 2470 
Q 1656 2200 1656 1722 
L 1656 0 
L 538 0 
L 538 4863 
L 1656 4863 
L 1656 2988 
Q 1909 3294 2193 3439 
Q 2478 3584 2822 3584 
Q 3428 3584 3742 3212 
Q 4056 2841 4056 2131 
z
" transform="scale(0.015625)"/>
      <path id="DejaVuSans-Bold-29" d="M 513 -844 
Q 913 -100 1113 609 
Q 1313 1319 1313 2009 
Q 1313 2700 1113 3408 
Q 913 4116 513 4856 
L 1441 4856 
Q 1916 4091 2145 3389 
Q 2375 2688 2375 2003 
Q 2375 1319 2147 623 
Q 1919 -72 1441 -844 
L 513 -844 
z
" transform="scale(0.015625)"/>
     </defs>
     <use xlink:href="#DejaVuSans-Bold-47"/>
     <use xlink:href="#DejaVuSans-Bold-6c" x="82.080078"/>
     <use xlink:href="#DejaVuSans-Bold-61" x="116.357422"/>
     <use xlink:href="#DejaVuSans-Bold-63" x="183.837891"/>
     <use xlink:href="#DejaVuSans-Bold-69" x="243.115234"/>
     <use xlink:href="#DejaVuSans-Bold-65" x="277.392578"/>
     <use xlink:href="#DejaVuSans-Bold-72" x="345.214844"/>
     <use xlink:href="#DejaVuSans-Bold-73" x="394.53125"/>
     <use xlink:href="#DejaVuSans-Bold-20" x="454.052734"/>
     <use xlink:href="#DejaVuSans-Bold-6f" x="488.867188"/>
     <use xlink:href="#DejaVuSans-Bold-66" x="557.568359"/>
     <use xlink:href="#DejaVuSans-Bold-20" x="601.074219"/>
     <use xlink:href="#DejaVuSans-Bold-41" x="635.888672"/>
     <use xlink:href="#DejaVuSans-Bold-72" x="713.28125"/>
     <use xlink:href="#DejaVuSans-Bold-63" x="762.597656"/>
     <use xlink:href="#DejaVuSans-Bold-74" x="821.875"/>
     <use xlink:href="#DejaVuSans-Bold-69" x="869.677734"/>
     <use xlink:href="#DejaVuSans-Bold-63" x="903.955078"/>
     <use xlink:href="#DejaVuSans-Bold-20" x="963.232422"/>
     <use xlink:href="#DejaVuSans-Bold-43" x="998.046875"/>
     <use xlink:href="#DejaVuSans-Bold-61" x="1071.435547"/>
     <use xlink:href="#DejaVuSans-Bold-6e" x="1138.916016"/>
     <use xlink:href="#DejaVuSans-Bold-61" x="1210.107422"/>
     <use xlink:href="#DejaVuSans-Bold-64" x="1277.587891"/>
     <use xlink:href="#DejaVuSans-Bold-61" x="1349.169922"/>
     <use xlink:href="#DejaVuSans-Bold-20" x="1416.650391"/>
     <use xlink:href="#DejaVuSans-Bold-28" x="1451.464844"/>
     <use xlink:href="#DejaVuSans-Bold-4e" x="1497.167969"/>
     <use xlink:href="#DejaVuSans-Bold-6f" x="1580.859375"/>
     <use xlink:href="#DejaVuSans-Bold-72" x="1649.560547"/>
     <use xlink:href="#DejaVuSans-Bold-74" x="1698.876953"/>
     <use xlink:href="#DejaVuSans-Bold-68" x="1746.679688"/>
     <use xlink:href="#DejaVuSans-Bold-29" x="1817.871094"/>
    </g>
   </g>
   <g id="LineCollection_1">
    <path d="M 322.866894 201.554169 
L 329.169167 201.554169 
" clip-path="url(#p527096d5b4)" style="fill: none; stroke: #70b8ff; stroke-opacity: 0.5; stroke-width: 3"/>
   </g>
   <g id="LineCollection_2">
    <path d="M 322.866894 203.252378 
L 329.169167 203.252378 
" clip-path="url(#p527096d5b4)" style="fill: none; stroke: #92b9c1; stroke-opacity: 0.5; stroke-width: 3"/>
   </g>
   <g id="LineCollection_3">
    <path d="M 322.866894 204.925375 
L 329.169167 204.925375 
" clip-path="url(#p527096d5b4)" style="fill: none; stroke: #c0ba6a; stroke-opacity: 0.5; stroke-width: 3"/>
   </g>
   <g id="LineCollection_4">
    <path d="M 322.866894 206.590362 
L 329.169167 206.590362 
" clip-path="url(#p527096d5b4)" style="fill: none; stroke: #efbb14; stroke-opacity: 0.5; stroke-width: 3"/>
   </g>
   <g id="LineCollection_5">
    <path d="M 322.866894 208.258941 
L 329.169167 208.258941 
" clip-path="url(#p527096d5b4)" style="fill: none; stroke: #fbaf00; stroke-opacity: 0.5; stroke-width: 3"/>
   </g>
   <g id="LineCollection_6">
    <path d="M 322.866894 209.93417 
L 329.169167 209.93417 
" clip-path="url(#p527096d5b4)" style="fill: none; stroke: #fd9f00; stroke-opacity: 0.5; stroke-width: 3"/>
   </g>
   <g id="LineCollection_7">
    <path d="M 322.866894 211.620567 
L 329.169167 211.620567 
" clip-path="url(#p527096d5b4)" style="fill: none; stroke: #ff8f00; stroke-opacity: 0.5; stroke-width: 3"/>
   </g>
   <g id="LineCollection_8">
    <path d="M 322.866894 213.309004 
L 329.169167 213.309004 
" clip-path="url(#p527096d5b4)" style="fill: none; stroke: #fb7c00; stroke-opacity: 0.5; stroke-width: 3"/>
   </g>
   <g id="LineCollection_9">
    <path d="M 322.866894 215.030582 
L 329.169167 215.030582 
" clip-path="url(#p527096d5b4)" style="fill: none; stroke: #f76800; stroke-opacity: 0.5; stroke-width: 3"/>
   </g>
   <g id="LineCollection_10">
    <path d="M 322.866894 216.829622 
L 329.169167 216.829622 
" clip-path="url(#p527096d5b4)" style="fill: none; stroke: #f35400; stroke-opacity: 0.5; stroke-width: 3"/>
   </g>
   <g id="LineCollection_11">
    <path d="M 322.866894 218.709636 
L 329.169167 218.709636 
" clip-path="url(#p527096d5b4)" style="fill: none; stroke: #e34500; stroke-opacity: 0.5; stroke-width: 3"/>
   </g>
   <g id="LineCollection_12">
    <path d="M 322.866894 220.650556 
L 329.169167 220.650556 
" clip-path="url(#p527096d5b4)" style="fill: none; stroke: #d13600; stroke-opacity: 0.5; stroke-width: 3"/>
   </g>
   <g id="LineCollection_13">
    <path d="M 322.866894 222.623962 
L 329.169167 222.623962 
" clip-path="url(#p527096d5b4)" style="fill: none; stroke: #bf2800; stroke-opacity: 0.5; stroke-width: 3"/>
   </g>
   <g id="LineCollection_14">
    <path d="M 322.866894 224.602593 
L 329.169167 224.602593 
" clip-path="url(#p527096d5b4)" style="fill: none; stroke: #a32700; stroke-opacity: 0.5; stroke-width: 3"/>
   </g>
   <g id="LineCollection_15">
    <path d="M 322.866894 226.564664 
L 329.169167 226.564664 
" clip-path="url(#p527096d5b4)" style="fill: none; stroke: #852900; stroke-opacity: 0.5; stroke-width: 3"/>
   </g>
   <g id="LineCollection_16">
    <path d="M 322.866894 228.494921 
L 329.169167 228.494921 
" clip-path="url(#p527096d5b4)" style="fill: none; stroke: #682b00; stroke-opacity: 0.5; stroke-width: 3"/>
   </g>
   <g id="LineCollection_17">
    <path d="M 751.421439 264.860235 
L 757.723712 264.860235 
" clip-path="url(#p527096d5b4)" style="fill: none; stroke: #70b8ff; stroke-opacity: 0.5; stroke-width: 3"/>
   </g>
   <g id="LineCollection_18">
    <path d="M 751.421439 272.843149 
L 757.723712 272.843149 
" clip-path="url(#p527096d5b4)" style="fill: none; stroke: #92b9c1; stroke-opacity: 0.5; stroke-width: 3"/>
   </g>
   <g id="LineCollection_19">
    <path d="M 751.421439 280.826902 
L 757.723712 280.826902 
" clip-path="url(#p527096d5b4)" style="fill: none; stroke: #c0ba6a; stroke-opacity: 0.5; stroke-width: 3"/>
   </g>
   <g id="LineCollection_20">
    <path d="M 751.421439 288.968045 
L 757.723712 288.968045 
" clip-path="url(#p527096d5b4)" style="fill: none; stroke: #efbb14; stroke-opacity: 0.5; stroke-width: 3"/>
   </g>
   <g id="LineCollection_21">
    <path d="M 751.421439 297.832114 
L 757.723712 297.832114 
" clip-path="url(#p527096d5b4)" style="fill: none; stroke: #fbaf00; stroke-opacity: 0.5; stroke-width: 3"/>
   </g>
   <g id="LineCollection_22">
    <path d="M 751.421439 307.677452 
L 757.723712 307.677452 
" clip-path="url(#p527096d5b4)" style="fill: none; stroke: #fd9f00; stroke-opacity: 0.5; stroke-width: 3"/>
   </g>
   <g id="LineCollection_23">
    <path d="M 751.421439 318.419756 
L 757.723712 318.419756 
" clip-path="url(#p527096d5b4)" style="fill: none; stroke: #ff8f00; stroke-opacity: 0.5; stroke-width: 3"/>
   </g>
   <g id="LineCollection_24">
    <path d="M 751.421439 329.78862 
L 757.723712 329.78862 
" clip-path="url(#p527096d5b4)" style="fill: none; stroke: #fb7c00; stroke-opacity: 0.5; stroke-width: 3"/>
   </g>
   <g id="LineCollection_25">
    <path d="M 751.421439 341.454849 
L 757.723712 341.454849 
" clip-path="url(#p527096d5b4)" style="fill: none; stroke: #f76800; stroke-opacity: 0.5; stroke-width: 3"/>
   </g>
   <g id="LineCollection_26">
    <path d="M 751.421439 353.114521 
L 757.723712 353.114521 
" clip-path="url(#p527096d5b4)" style="fill: none; stroke: #f35400; stroke-opacity: 0.5; stroke-width: 3"/>
   </g>
   <g id="LineCollection_27">
    <path d="M 751.421439 364.529879 
L 757.723712 364.529879 
" clip-path="url(#p527096d5b4)" style="fill: none; stroke: #e34500; stroke-opacity: 0.5; stroke-width: 3"/>
   </g>
   <g id="LineCollection_28">
    <path d="M 751.421439 375.538477 
L 757.723712 375.538477 
" clip-path="url(#p527096d5b4)" style="fill: none; stroke: #d13600; stroke-opacity: 0.5; stroke-width: 3"/>
   </g>
   <g id="LineCollection_29">
    <path d="M 751.421439 386.044675 
L 757.723712 386.044675 
" clip-path="url(#p527096d5b4)" style="fill: none; stroke: #bf2800; stroke-opacity: 0.5; stroke-width: 3"/>
   </g>
   <g id="LineCollection_30">
    <path d="M 751.421439 396.004444 
L 757.723712 396.004444 
" clip-path="url(#p527096d5b4)" style="fill: none; stroke: #a32700; stroke-opacity: 0.5; stroke-width: 3"/>
   </g>
   <g id="LineCollection_31">
    <path d="M 751.421439 405.409877 
L 757.723712 405.409877 
" clip-path="url(#p527096d5b4)" style="fill: none; stroke: #852900; stroke-opacity: 0.5; stroke-width: 3"/>
   </g>
   <g id="LineCollection_32">
    <path d="M 751.421439 414.276296 
L 757.723712 414.276296 
" clip-path="url(#p527096d5b4)" style="fill: none; stroke: #682b00; stroke-opacity: 0.5; stroke-width: 3"/>
   </g>
   <g id="LineCollection_33">
    <path d="M 319.715758 203.252378 
L 332.320303 203.252378 
" clip-path="url(#p527096d5b4)" style="fill: none; stroke: #92b9c1; stroke-width: 8"/>
   </g>
   <g id="LineCollection_34">
    <path d="M 319.715758 211.620567 
L 332.320303 211.620567 
" clip-path="url(#p527096d5b4)" style="fill: none; stroke: #ff8f00; stroke-width: 8"/>
   </g>
   <g id="LineCollection_35">
    <path d="M 319.715758 230.383909 
L 332.320303 230.383909 
" clip-path="url(#p527096d5b4)" style="fill: none; stroke: #662b00; stroke-width: 8"/>
   </g>
   <g id="LineCollection_36">
    <path d="M 748.270303 272.843149 
L 760.874848 272.843149 
" clip-path="url(#p527096d5b4)" style="fill: none; stroke: #92b9c1; stroke-width: 8"/>
   </g>
   <g id="LineCollection_37">
    <path d="M 748.270303 318.419756 
L 760.874848 318.419756 
" clip-path="url(#p527096d5b4)" style="fill: none; stroke: #ff8f00; stroke-width: 8"/>
   </g>
   <g id="LineCollection_38">
    <path d="M 748.270303 422.632663 
L 760.874848 422.632663 
" clip-path="url(#p527096d5b4)" style="fill: none; stroke: #662b00; stroke-width: 8"/>
   </g>
  </g>
 </g>
 <defs>
  <clipPath id="p527096d5b4">
   <rect x="109.64" y="52.8" width="693.25" height="462.76"/>
  </clipPath>
 </defs>
</svg>
