<?xml version="1.0" encoding="utf-8" standalone="no"?>
<!DOCTYPE svg PUBLIC "-//W3C//DTD SVG 1.1//EN"
  "http://www.w3.org/Graphics/SVG/1.1/DTD/svg11.dtd">
<svg xmlns:xlink="http://www.w3.org/1999/xlink" width="900pt" height="600pt" viewBox="0 0 900 600" xmlns="http://www.w3.org/2000/svg" version="1.1">
 <metadata>
  <rdf:RDF xmlns:dc="http://purl.org/dc/elements/1.1/" xmlns:cc="http://creativecommons.org/ns#" xmlns:rdf="http://www.w3.org/1999/02/22-rdf-syntax-ns#">
   <cc:Work>
    <dc:type rdf:resource="http://purl.org/dc/dcmitype/StillImage"/>
    <dc:date>2023-11-29T23:47:29.450447</dc:date>
    <dc:format>image/svg+xml</dc:format>
    <dc:creator>
     <cc:Agent>
      <dc:title>Matplotlib v3.7.1, https://matplotlib.org/</dc:title>
     </cc:Agent>
    </dc:creator>
   </cc:Work>
  </rdf:RDF>
 </metadata>
 <defs>
  <style type="text/css">*{stroke-linejoin: round; stroke-linecap: butt}</style>
 </defs>
 <g id="figure_1">
  <g id="patch_1">
   <path d="M 0 600 
L 900 600 
L 900 0 
L 0 0 
z
" style="fill: #ffffff"/>
  </g>
  <g id="axes_1">
   <g id="patch_2">
    <path d="M 109.64 515.56 
L 802.89 515.56 
L 802.89 52.8 
L 109.64 52.8 
z
" style="fill: #ffffff"/>
   </g>
   <g id="matplotlib.axis_1">
    <g id="xtick_1">
     <g id="line2d_1">
      <defs>
       <path id="m9770ddc738" d="M 0 0 
L 0 3.5 
" style="stroke: #000000; stroke-width: 0.8"/>
      </defs>
      <g>
       <use xlink:href="#m9770ddc738" x="157.957424" y="515.56" style="stroke: #000000; stroke-width: 0.8"/>
      </g>
     </g>
     <g id="text_1">
      <!-- 2020 -->
      <g transform="translate(124.872424 542.315938) scale(0.26 -0.26)">
       <defs>
        <path id="DejaVuSans-32" d="M 1228 531 
L 3431 531 
L 3431 0 
L 469 0 
L 469 531 
Q 828 903 1448 1529 
Q 2069 2156 2228 2338 
Q 2531 2678 2651 2914 
Q 2772 3150 2772 3378 
Q 2772 3750 2511 3984 
Q 2250 4219 1831 4219 
Q 1534 4219 1204 4116 
Q 875 4013 500 3803 
L 500 4441 
Q 881 4594 1212 4672 
Q 1544 4750 1819 4750 
Q 2544 4750 2975 4387 
Q 3406 4025 3406 3419 
Q 3406 3131 3298 2873 
Q 3191 2616 2906 2266 
Q 2828 2175 2409 1742 
Q 1991 1309 1228 531 
z
" transform="scale(0.015625)"/>
        <path id="DejaVuSans-30" d="M 2034 4250 
Q 1547 4250 1301 3770 
Q 1056 3291 1056 2328 
Q 1056 1369 1301 889 
Q 1547 409 2034 409 
Q 2525 409 2770 889 
Q 3016 1369 3016 2328 
Q 3016 3291 2770 3770 
Q 2525 4250 2034 4250 
z
M 2034 4750 
Q 2819 4750 3233 4129 
Q 3647 3509 3647 2328 
Q 3647 1150 3233 529 
Q 2819 -91 2034 -91 
Q 1250 -91 836 529 
Q 422 1150 422 2328 
Q 422 3509 836 4129 
Q 1250 4750 2034 4750 
z
" transform="scale(0.015625)"/>
       </defs>
       <use xlink:href="#DejaVuSans-32"/>
       <use xlink:href="#DejaVuSans-30" x="63.623047"/>
       <use xlink:href="#DejaVuSans-32" x="127.246094"/>
       <use xlink:href="#DejaVuSans-30" x="190.869141"/>
      </g>
     </g>
    </g>
    <g id="xtick_2">
     <g id="line2d_2">
      <g>
       <use xlink:href="#m9770ddc738" x="326.01803" y="515.56" style="stroke: #000000; stroke-width: 0.8"/>
      </g>
     </g>
     <g id="text_2">
      <!-- 2100 -->
      <g transform="translate(292.93303 542.315938) scale(0.26 -0.26)">
       <defs>
        <path id="DejaVuSans-31" d="M 794 531 
L 1825 531 
L 1825 4091 
L 703 3866 
L 703 4441 
L 1819 4666 
L 2450 4666 
L 2450 531 
L 3481 531 
L 3481 0 
L 794 0 
L 794 531 
z
" transform="scale(0.015625)"/>
       </defs>
       <use xlink:href="#DejaVuSans-32"/>
       <use xlink:href="#DejaVuSans-31" x="63.623047"/>
       <use xlink:href="#DejaVuSans-30" x="127.246094"/>
       <use xlink:href="#DejaVuSans-30" x="190.869141"/>
      </g>
     </g>
    </g>
    <g id="xtick_3">
     <g id="line2d_3">
      <g>
       <use xlink:href="#m9770ddc738" x="536.093788" y="515.56" style="stroke: #000000; stroke-width: 0.8"/>
      </g>
     </g>
     <g id="text_3">
      <!-- 2200 -->
      <g transform="translate(503.008788 542.315938) scale(0.26 -0.26)">
       <use xlink:href="#DejaVuSans-32"/>
       <use xlink:href="#DejaVuSans-32" x="63.623047"/>
       <use xlink:href="#DejaVuSans-30" x="127.246094"/>
       <use xlink:href="#DejaVuSans-30" x="190.869141"/>
      </g>
     </g>
    </g>
    <g id="xtick_4">
     <g id="line2d_4">
      <g>
       <use xlink:href="#m9770ddc738" x="746.169545" y="515.56" style="stroke: #000000; stroke-width: 0.8"/>
      </g>
     </g>
     <g id="text_4">
      <!-- 2300 -->
      <g transform="translate(713.084545 542.315938) scale(0.26 -0.26)">
       <defs>
        <path id="DejaVuSans-33" d="M 2597 2516 
Q 3050 2419 3304 2112 
Q 3559 1806 3559 1356 
Q 3559 666 3084 287 
Q 2609 -91 1734 -91 
Q 1441 -91 1130 -33 
Q 819 25 488 141 
L 488 750 
Q 750 597 1062 519 
Q 1375 441 1716 441 
Q 2309 441 2620 675 
Q 2931 909 2931 1356 
Q 2931 1769 2642 2001 
Q 2353 2234 1838 2234 
L 1294 2234 
L 1294 2753 
L 1863 2753 
Q 2328 2753 2575 2939 
Q 2822 3125 2822 3475 
Q 2822 3834 2567 4026 
Q 2313 4219 1838 4219 
Q 1578 4219 1281 4162 
Q 984 4106 628 3988 
L 628 4550 
Q 988 4650 1302 4700 
Q 1616 4750 1894 4750 
Q 2613 4750 3031 4423 
Q 3450 4097 3450 3541 
Q 3450 3153 3228 2886 
Q 3006 2619 2597 2516 
z
" transform="scale(0.015625)"/>
       </defs>
       <use xlink:href="#DejaVuSans-32"/>
       <use xlink:href="#DejaVuSans-33" x="63.623047"/>
       <use xlink:href="#DejaVuSans-30" x="127.246094"/>
       <use xlink:href="#DejaVuSans-30" x="190.869141"/>
      </g>
     </g>
    </g>
    <g id="text_5">
     <!-- Year -->
     <g transform="translate(428.995313 568.439687) scale(0.22 -0.22)">
      <defs>
       <path id="DejaVuSans-Bold-59" d="M -63 4666 
L 1253 4666 
L 2316 3003 
L 3378 4666 
L 4697 4666 
L 2919 1966 
L 2919 0 
L 1716 0 
L 1716 1966 
L -63 4666 
z
" transform="scale(0.015625)"/>
       <path id="DejaVuSans-Bold-65" d="M 4031 1759 
L 4031 1441 
L 1416 1441 
Q 1456 1047 1700 850 
Q 1944 653 2381 653 
Q 2734 653 3104 758 
Q 3475 863 3866 1075 
L 3866 213 
Q 3469 63 3072 -14 
Q 2675 -91 2278 -91 
Q 1328 -91 801 392 
Q 275 875 275 1747 
Q 275 2603 792 3093 
Q 1309 3584 2216 3584 
Q 3041 3584 3536 3087 
Q 4031 2591 4031 1759 
z
M 2881 2131 
Q 2881 2450 2695 2645 
Q 2509 2841 2209 2841 
Q 1884 2841 1681 2658 
Q 1478 2475 1428 2131 
L 2881 2131 
z
" transform="scale(0.015625)"/>
       <path id="DejaVuSans-Bold-61" d="M 2106 1575 
Q 1756 1575 1579 1456 
Q 1403 1338 1403 1106 
Q 1403 894 1545 773 
Q 1688 653 1941 653 
Q 2256 653 2472 879 
Q 2688 1106 2688 1447 
L 2688 1575 
L 2106 1575 
z
M 3816 1997 
L 3816 0 
L 2688 0 
L 2688 519 
Q 2463 200 2181 54 
Q 1900 -91 1497 -91 
Q 953 -91 614 226 
Q 275 544 275 1050 
Q 275 1666 698 1953 
Q 1122 2241 2028 2241 
L 2688 2241 
L 2688 2328 
Q 2688 2594 2478 2717 
Q 2269 2841 1825 2841 
Q 1466 2841 1156 2769 
Q 847 2697 581 2553 
L 581 3406 
Q 941 3494 1303 3539 
Q 1666 3584 2028 3584 
Q 2975 3584 3395 3211 
Q 3816 2838 3816 1997 
z
" transform="scale(0.015625)"/>
       <path id="DejaVuSans-Bold-72" d="M 3138 2547 
Q 2991 2616 2845 2648 
Q 2700 2681 2553 2681 
Q 2122 2681 1889 2404 
Q 1656 2128 1656 1613 
L 1656 0 
L 538 0 
L 538 3500 
L 1656 3500 
L 1656 2925 
Q 1872 3269 2151 3426 
Q 2431 3584 2822 3584 
Q 2878 3584 2943 3579 
Q 3009 3575 3134 3559 
L 3138 2547 
z
" transform="scale(0.015625)"/>
      </defs>
      <use xlink:href="#DejaVuSans-Bold-59"/>
      <use xlink:href="#DejaVuSans-Bold-65" x="63.287109"/>
      <use xlink:href="#DejaVuSans-Bold-61" x="131.109375"/>
      <use xlink:href="#DejaVuSans-Bold-72" x="198.589844"/>
     </g>
    </g>
   </g>
   <g id="matplotlib.axis_2">
    <g id="ytick_1">
     <g id="line2d_5">
      <defs>
       <path id="m2c3ac5cdfd" d="M 0 0 
L -3.5 0 
" style="stroke: #000000; stroke-width: 0.8"/>
      </defs>
      <g>
       <use xlink:href="#m2c3ac5cdfd" x="109.64" y="515.56" style="stroke: #000000; stroke-width: 0.8"/>
      </g>
     </g>
     <g id="text_6">
      <!-- 0 -->
      <g transform="translate(86.0975 525.437969) scale(0.26 -0.26)">
       <use xlink:href="#DejaVuSans-30"/>
      </g>
     </g>
    </g>
    <g id="ytick_2">
     <g id="line2d_6">
      <g>
       <use xlink:href="#m2c3ac5cdfd" x="109.64" y="441.5184" style="stroke: #000000; stroke-width: 0.8"/>
      </g>
     </g>
     <g id="text_7">
      <!-- 20 -->
      <g transform="translate(69.555 451.396369) scale(0.26 -0.26)">
       <use xlink:href="#DejaVuSans-32"/>
       <use xlink:href="#DejaVuSans-30" x="63.623047"/>
      </g>
     </g>
    </g>
    <g id="ytick_3">
     <g id="line2d_7">
      <g>
       <use xlink:href="#m2c3ac5cdfd" x="109.64" y="367.4768" style="stroke: #000000; stroke-width: 0.8"/>
      </g>
     </g>
     <g id="text_8">
      <!-- 40 -->
      <g transform="translate(69.555 377.354769) scale(0.26 -0.26)">
       <defs>
        <path id="DejaVuSans-34" d="M 2419 4116 
L 825 1625 
L 2419 1625 
L 2419 4116 
z
M 2253 4666 
L 3047 4666 
L 3047 1625 
L 3713 1625 
L 3713 1100 
L 3047 1100 
L 3047 0 
L 2419 0 
L 2419 1100 
L 313 1100 
L 313 1709 
L 2253 4666 
z
" transform="scale(0.015625)"/>
       </defs>
       <use xlink:href="#DejaVuSans-34"/>
       <use xlink:href="#DejaVuSans-30" x="63.623047"/>
      </g>
     </g>
    </g>
    <g id="ytick_4">
     <g id="line2d_8">
      <g>
       <use xlink:href="#m2c3ac5cdfd" x="109.64" y="293.4352" style="stroke: #000000; stroke-width: 0.8"/>
      </g>
     </g>
     <g id="text_9">
      <!-- 60 -->
      <g transform="translate(69.555 303.313169) scale(0.26 -0.26)">
       <defs>
        <path id="DejaVuSans-36" d="M 2113 2584 
Q 1688 2584 1439 2293 
Q 1191 2003 1191 1497 
Q 1191 994 1439 701 
Q 1688 409 2113 409 
Q 2538 409 2786 701 
Q 3034 994 3034 1497 
Q 3034 2003 2786 2293 
Q 2538 2584 2113 2584 
z
M 3366 4563 
L 3366 3988 
Q 3128 4100 2886 4159 
Q 2644 4219 2406 4219 
Q 1781 4219 1451 3797 
Q 1122 3375 1075 2522 
Q 1259 2794 1537 2939 
Q 1816 3084 2150 3084 
Q 2853 3084 3261 2657 
Q 3669 2231 3669 1497 
Q 3669 778 3244 343 
Q 2819 -91 2113 -91 
Q 1303 -91 875 529 
Q 447 1150 447 2328 
Q 447 3434 972 4092 
Q 1497 4750 2381 4750 
Q 2619 4750 2861 4703 
Q 3103 4656 3366 4563 
z
" transform="scale(0.015625)"/>
       </defs>
       <use xlink:href="#DejaVuSans-36"/>
       <use xlink:href="#DejaVuSans-30" x="63.623047"/>
      </g>
     </g>
    </g>
    <g id="ytick_5">
     <g id="line2d_9">
      <g>
       <use xlink:href="#m2c3ac5cdfd" x="109.64" y="219.3936" style="stroke: #000000; stroke-width: 0.8"/>
      </g>
     </g>
     <g id="text_10">
      <!-- 80 -->
      <g transform="translate(69.555 229.271569) scale(0.26 -0.26)">
       <defs>
        <path id="DejaVuSans-38" d="M 2034 2216 
Q 1584 2216 1326 1975 
Q 1069 1734 1069 1313 
Q 1069 891 1326 650 
Q 1584 409 2034 409 
Q 2484 409 2743 651 
Q 3003 894 3003 1313 
Q 3003 1734 2745 1975 
Q 2488 2216 2034 2216 
z
M 1403 2484 
Q 997 2584 770 2862 
Q 544 3141 544 3541 
Q 544 4100 942 4425 
Q 1341 4750 2034 4750 
Q 2731 4750 3128 4425 
Q 3525 4100 3525 3541 
Q 3525 3141 3298 2862 
Q 3072 2584 2669 2484 
Q 3125 2378 3379 2068 
Q 3634 1759 3634 1313 
Q 3634 634 3220 271 
Q 2806 -91 2034 -91 
Q 1263 -91 848 271 
Q 434 634 434 1313 
Q 434 1759 690 2068 
Q 947 2378 1403 2484 
z
M 1172 3481 
Q 1172 3119 1398 2916 
Q 1625 2713 2034 2713 
Q 2441 2713 2670 2916 
Q 2900 3119 2900 3481 
Q 2900 3844 2670 4047 
Q 2441 4250 2034 4250 
Q 1625 4250 1398 4047 
Q 1172 3844 1172 3481 
z
" transform="scale(0.015625)"/>
       </defs>
       <use xlink:href="#DejaVuSans-38"/>
       <use xlink:href="#DejaVuSans-30" x="63.623047"/>
      </g>
     </g>
    </g>
    <g id="ytick_6">
     <g id="line2d_10">
      <g>
       <use xlink:href="#m2c3ac5cdfd" x="109.64" y="145.352" style="stroke: #000000; stroke-width: 0.8"/>
      </g>
     </g>
     <g id="text_11">
      <!-- 100 -->
      <g transform="translate(53.0125 155.229969) scale(0.26 -0.26)">
       <use xlink:href="#DejaVuSans-31"/>
       <use xlink:href="#DejaVuSans-30" x="63.623047"/>
       <use xlink:href="#DejaVuSans-30" x="127.246094"/>
      </g>
     </g>
    </g>
    <g id="ytick_7">
     <g id="line2d_11">
      <g>
       <use xlink:href="#m2c3ac5cdfd" x="109.64" y="71.3104" style="stroke: #000000; stroke-width: 0.8"/>
      </g>
     </g>
     <g id="text_12">
      <!-- 120 -->
      <g transform="translate(53.0125 81.188369) scale(0.26 -0.26)">
       <use xlink:href="#DejaVuSans-31"/>
       <use xlink:href="#DejaVuSans-32" x="63.623047"/>
       <use xlink:href="#DejaVuSans-30" x="127.246094"/>
      </g>
     </g>
    </g>
    <g id="text_13">
     <!-- % of Remaining Ice -->
     <g transform="translate(44.265313 403.000625) rotate(-90) scale(0.22 -0.22)">
      <defs>
       <path id="DejaVuSans-Bold-25" d="M 4959 1925 
Q 4738 1925 4616 1733 
Q 4494 1541 4494 1184 
Q 4494 825 4614 633 
Q 4734 441 4959 441 
Q 5184 441 5303 633 
Q 5422 825 5422 1184 
Q 5422 1541 5301 1733 
Q 5181 1925 4959 1925 
z
M 4959 2450 
Q 5541 2450 5875 2112 
Q 6209 1775 6209 1184 
Q 6209 594 5875 251 
Q 5541 -91 4959 -91 
Q 4378 -91 4042 251 
Q 3706 594 3706 1184 
Q 3706 1772 4042 2111 
Q 4378 2450 4959 2450 
z
M 2094 -91 
L 1403 -91 
L 4319 4750 
L 5013 4750 
L 2094 -91 
z
M 1453 4750 
Q 2034 4750 2367 4411 
Q 2700 4072 2700 3481 
Q 2700 2891 2367 2550 
Q 2034 2209 1453 2209 
Q 872 2209 539 2550 
Q 206 2891 206 3481 
Q 206 4072 539 4411 
Q 872 4750 1453 4750 
z
M 1453 4225 
Q 1228 4225 1106 4031 
Q 984 3838 984 3481 
Q 984 3122 1106 2926 
Q 1228 2731 1453 2731 
Q 1678 2731 1798 2926 
Q 1919 3122 1919 3481 
Q 1919 3838 1797 4031 
Q 1675 4225 1453 4225 
z
" transform="scale(0.015625)"/>
       <path id="DejaVuSans-Bold-20" transform="scale(0.015625)"/>
       <path id="DejaVuSans-Bold-6f" d="M 2203 2784 
Q 1831 2784 1636 2517 
Q 1441 2250 1441 1747 
Q 1441 1244 1636 976 
Q 1831 709 2203 709 
Q 2569 709 2762 976 
Q 2956 1244 2956 1747 
Q 2956 2250 2762 2517 
Q 2569 2784 2203 2784 
z
M 2203 3584 
Q 3106 3584 3614 3096 
Q 4122 2609 4122 1747 
Q 4122 884 3614 396 
Q 3106 -91 2203 -91 
Q 1297 -91 786 396 
Q 275 884 275 1747 
Q 275 2609 786 3096 
Q 1297 3584 2203 3584 
z
" transform="scale(0.015625)"/>
       <path id="DejaVuSans-Bold-66" d="M 2841 4863 
L 2841 4128 
L 2222 4128 
Q 1984 4128 1890 4042 
Q 1797 3956 1797 3744 
L 1797 3500 
L 2753 3500 
L 2753 2700 
L 1797 2700 
L 1797 0 
L 678 0 
L 678 2700 
L 122 2700 
L 122 3500 
L 678 3500 
L 678 3744 
Q 678 4316 997 4589 
Q 1316 4863 1984 4863 
L 2841 4863 
z
" transform="scale(0.015625)"/>
       <path id="DejaVuSans-Bold-52" d="M 2297 2597 
Q 2675 2597 2839 2737 
Q 3003 2878 3003 3200 
Q 3003 3519 2839 3656 
Q 2675 3794 2297 3794 
L 1791 3794 
L 1791 2597 
L 2297 2597 
z
M 1791 1766 
L 1791 0 
L 588 0 
L 588 4666 
L 2425 4666 
Q 3347 4666 3776 4356 
Q 4206 4047 4206 3378 
Q 4206 2916 3982 2619 
Q 3759 2322 3309 2181 
Q 3556 2125 3751 1926 
Q 3947 1728 4147 1325 
L 4800 0 
L 3519 0 
L 2950 1159 
Q 2778 1509 2601 1637 
Q 2425 1766 2131 1766 
L 1791 1766 
z
" transform="scale(0.015625)"/>
       <path id="DejaVuSans-Bold-6d" d="M 3781 2919 
Q 3994 3244 4286 3414 
Q 4578 3584 4928 3584 
Q 5531 3584 5847 3212 
Q 6163 2841 6163 2131 
L 6163 0 
L 5038 0 
L 5038 1825 
Q 5041 1866 5042 1909 
Q 5044 1953 5044 2034 
Q 5044 2406 4934 2573 
Q 4825 2741 4581 2741 
Q 4263 2741 4089 2478 
Q 3916 2216 3909 1719 
L 3909 0 
L 2784 0 
L 2784 1825 
Q 2784 2406 2684 2573 
Q 2584 2741 2328 2741 
Q 2006 2741 1831 2477 
Q 1656 2213 1656 1722 
L 1656 0 
L 531 0 
L 531 3500 
L 1656 3500 
L 1656 2988 
Q 1863 3284 2130 3434 
Q 2397 3584 2719 3584 
Q 3081 3584 3359 3409 
Q 3638 3234 3781 2919 
z
" transform="scale(0.015625)"/>
       <path id="DejaVuSans-Bold-69" d="M 538 3500 
L 1656 3500 
L 1656 0 
L 538 0 
L 538 3500 
z
M 538 4863 
L 1656 4863 
L 1656 3950 
L 538 3950 
L 538 4863 
z
" transform="scale(0.015625)"/>
       <path id="DejaVuSans-Bold-6e" d="M 4056 2131 
L 4056 0 
L 2931 0 
L 2931 347 
L 2931 1631 
Q 2931 2084 2911 2256 
Q 2891 2428 2841 2509 
Q 2775 2619 2662 2680 
Q 2550 2741 2406 2741 
Q 2056 2741 1856 2470 
Q 1656 2200 1656 1722 
L 1656 0 
L 538 0 
L 538 3500 
L 1656 3500 
L 1656 2988 
Q 1909 3294 2193 3439 
Q 2478 3584 2822 3584 
Q 3428 3584 3742 3212 
Q 4056 2841 4056 2131 
z
" transform="scale(0.015625)"/>
       <path id="DejaVuSans-Bold-67" d="M 2919 594 
Q 2688 288 2409 144 
Q 2131 0 1766 0 
Q 1125 0 706 504 
Q 288 1009 288 1791 
Q 288 2575 706 3076 
Q 1125 3578 1766 3578 
Q 2131 3578 2409 3434 
Q 2688 3291 2919 2981 
L 2919 3500 
L 4044 3500 
L 4044 353 
Q 4044 -491 3511 -936 
Q 2978 -1381 1966 -1381 
Q 1638 -1381 1331 -1331 
Q 1025 -1281 716 -1178 
L 716 -306 
Q 1009 -475 1290 -558 
Q 1572 -641 1856 -641 
Q 2406 -641 2662 -400 
Q 2919 -159 2919 353 
L 2919 594 
z
M 2181 2772 
Q 1834 2772 1640 2515 
Q 1447 2259 1447 1791 
Q 1447 1309 1634 1061 
Q 1822 813 2181 813 
Q 2531 813 2725 1069 
Q 2919 1325 2919 1791 
Q 2919 2259 2725 2515 
Q 2531 2772 2181 2772 
z
" transform="scale(0.015625)"/>
       <path id="DejaVuSans-Bold-49" d="M 588 4666 
L 1791 4666 
L 1791 0 
L 588 0 
L 588 4666 
z
" transform="scale(0.015625)"/>
       <path id="DejaVuSans-Bold-63" d="M 3366 3391 
L 3366 2478 
Q 3138 2634 2908 2709 
Q 2678 2784 2431 2784 
Q 1963 2784 1702 2511 
Q 1441 2238 1441 1747 
Q 1441 1256 1702 982 
Q 1963 709 2431 709 
Q 2694 709 2930 787 
Q 3166 866 3366 1019 
L 3366 103 
Q 3103 6 2833 -42 
Q 2563 -91 2291 -91 
Q 1344 -91 809 395 
Q 275 881 275 1747 
Q 275 2613 809 3098 
Q 1344 3584 2291 3584 
Q 2566 3584 2833 3536 
Q 3100 3488 3366 3391 
z
" transform="scale(0.015625)"/>
      </defs>
      <use xlink:href="#DejaVuSans-Bold-25"/>
      <use xlink:href="#DejaVuSans-Bold-20" x="100.195312"/>
      <use xlink:href="#DejaVuSans-Bold-6f" x="135.009766"/>
      <use xlink:href="#DejaVuSans-Bold-66" x="203.710938"/>
      <use xlink:href="#DejaVuSans-Bold-20" x="247.216797"/>
      <use xlink:href="#DejaVuSans-Bold-52" x="282.03125"/>
      <use xlink:href="#DejaVuSans-Bold-65" x="359.033203"/>
      <use xlink:href="#DejaVuSans-Bold-6d" x="426.855469"/>
      <use xlink:href="#DejaVuSans-Bold-61" x="531.054688"/>
      <use xlink:href="#DejaVuSans-Bold-69" x="598.535156"/>
      <use xlink:href="#DejaVuSans-Bold-6e" x="632.8125"/>
      <use xlink:href="#DejaVuSans-Bold-69" x="704.003906"/>
      <use xlink:href="#DejaVuSans-Bold-6e" x="738.28125"/>
      <use xlink:href="#DejaVuSans-Bold-67" x="809.472656"/>
      <use xlink:href="#DejaVuSans-Bold-20" x="881.054688"/>
      <use xlink:href="#DejaVuSans-Bold-49" x="915.869141"/>
      <use xlink:href="#DejaVuSans-Bold-63" x="953.076172"/>
      <use xlink:href="#DejaVuSans-Bold-65" x="1012.353516"/>
     </g>
    </g>
   </g>
   <g id="line2d_12">
    <path d="M 157.957424 145.352 
L 166.360455 150.094398 
L 174.763485 155.151367 
L 181.065758 159.146201 
L 195.771061 168.870856 
L 227.282424 190.291721 
L 250.390758 206.312145 
L 267.196818 217.424887 
L 277.700606 224.021312 
L 288.204394 230.314125 
L 302.909697 238.864411 
L 330.219545 253.859681 
L 340.723333 259.444245 
L 374.335455 276.639887 
L 389.040758 283.837536 
L 397.443788 287.700167 
L 405.846818 291.339481 
L 454.164242 311.021875 
L 464.66803 315.055726 
L 475.171818 318.817469 
L 487.776364 323.05733 
L 498.280152 326.321735 
L 512.985455 330.589385 
L 523.489242 333.473122 
L 552.899848 341.144322 
L 620.124091 356.997722 
L 641.131667 361.545765 
L 666.340758 366.714168 
L 683.146818 369.924189 
L 695.751364 372.0535 
L 710.456667 374.299688 
L 727.262727 376.724647 
L 746.169545 378.122674 
L 746.169545 378.122674 
" clip-path="url(#p393ca2d0c3)" style="fill: none; stroke: #f66200; stroke-opacity: 0.3; stroke-width: 2; stroke-linecap: square"/>
   </g>
   <g id="line2d_13">
    <path d="M 115.942273 131.004501 
L 118.04303 131.402189 
L 120.143788 131.819708 
L 122.244545 132.243827 
L 124.345303 132.674583 
L 126.446061 133.116766 
L 128.546818 133.5644 
L 130.647576 134.016624 
L 132.748333 134.477704 
L 134.849091 134.947013 
L 136.949848 135.413665 
L 139.050606 136.283359 
L 141.151364 137.182343 
L 143.252121 138.113702 
L 145.352879 139.075558 
L 147.453636 140.057457 
L 149.554394 141.052973 
L 151.655152 142.090288 
L 153.755909 143.149858 
L 155.856667 144.227921 
L 157.957424 145.352 
" clip-path="url(#p393ca2d0c3)" style="fill: none; stroke: #000000; stroke-opacity: 0.3; stroke-width: 2; stroke-linecap: square"/>
   </g>
   <g id="line2d_14">
    <path d="M 157.957424 145.352 
L 166.360455 149.654322 
L 172.662727 153.156556 
L 181.065758 158.142659 
L 189.468788 163.388753 
L 195.771061 167.546873 
L 204.174091 173.444445 
L 214.677879 181.260742 
L 223.080909 187.854732 
L 239.88697 201.440784 
L 250.390758 209.724486 
L 258.793788 216.078495 
L 267.196818 222.126177 
L 279.801364 230.868795 
L 311.312727 252.356995 
L 323.917273 260.527804 
L 336.521818 268.361001 
L 355.428636 279.761566 
L 368.033182 286.859257 
L 376.436212 291.33062 
L 403.746061 305.30739 
L 426.854394 316.76894 
L 437.358182 321.598033 
L 445.761212 325.262078 
L 454.164242 328.721678 
L 475.171818 337.04234 
L 502.481667 347.462273 
L 552.899848 366.081743 
L 565.504394 370.830094 
L 582.310455 376.853115 
L 590.713485 379.641382 
L 605.418788 384.033918 
L 618.023333 387.50277 
L 653.736212 396.636224 
L 670.542273 400.711868 
L 712.557424 410.79587 
L 727.262727 414.001613 
L 746.169545 415.977009 
L 746.169545 415.977009 
" clip-path="url(#p393ca2d0c3)" style="fill: none; stroke: #822900; stroke-opacity: 0.3; stroke-width: 2; stroke-linecap: square"/>
   </g>
   <g id="line2d_15">
    <path d="M 115.942273 131.28087 
L 118.04303 131.691234 
L 120.143788 132.100916 
L 122.244545 132.526321 
L 124.345303 132.95757 
L 126.446061 133.395573 
L 128.546818 133.826568 
L 130.647576 134.260599 
L 132.748333 134.706684 
L 134.849091 135.159585 
L 136.949848 135.612774 
L 139.050606 136.479944 
L 141.151364 137.375955 
L 143.252121 138.307997 
L 145.352879 139.255082 
L 147.453636 140.221746 
L 149.554394 141.204305 
L 151.655152 142.21091 
L 153.755909 143.232617 
L 155.856667 144.2774 
L 157.957424 145.352 
" clip-path="url(#p393ca2d0c3)" style="fill: none; stroke: #000000; stroke-opacity: 0.3; stroke-width: 2; stroke-linecap: square"/>
   </g>
   <g id="line2d_16">
    <path d="M 157.957424 145.352 
L 166.360455 149.892737 
L 172.662727 153.568764 
L 178.965 157.527642 
L 185.267273 161.7606 
L 193.670303 167.851227 
L 199.972576 172.743447 
L 208.375606 179.650955 
L 223.080909 192.403512 
L 233.584697 201.42936 
L 248.29 213.762075 
L 269.297576 230.865046 
L 279.801364 239.309308 
L 298.708182 253.952043 
L 313.413485 264.987375 
L 330.219545 277.218977 
L 342.824091 285.983202 
L 355.428636 294.314396 
L 368.033182 302.276137 
L 380.637727 310.018695 
L 391.141515 316.26252 
L 401.645303 322.085302 
L 407.947576 325.301628 
L 416.350606 329.338467 
L 424.753636 333.030345 
L 437.358182 338.208223 
L 449.962727 343.110676 
L 464.66803 348.683352 
L 479.373333 353.940764 
L 489.877121 357.477768 
L 500.380909 360.818059 
L 521.388485 367.173996 
L 544.496818 373.983062 
L 561.302879 378.46009 
L 571.806667 381.077963 
L 584.411212 383.96744 
L 605.418788 388.534029 
L 653.736212 398.386215 
L 676.844545 402.820223 
L 689.449091 405.059994 
L 729.363485 411.57502 
L 744.068788 412.826502 
L 746.169545 412.975812 
L 746.169545 412.975812 
" clip-path="url(#p393ca2d0c3)" style="fill: none; stroke: #f76800; stroke-opacity: 0.3; stroke-width: 2; stroke-linecap: square"/>
   </g>
   <g id="line2d_17">
    <path d="M 115.942273 131.051746 
L 118.04303 131.484172 
L 120.143788 131.930736 
L 122.244545 132.382988 
L 124.345303 132.831701 
L 126.446061 133.267167 
L 128.546818 133.688774 
L 130.647576 134.111739 
L 132.748333 134.550969 
L 134.849091 135.001941 
L 136.949848 135.451092 
L 139.050606 136.314647 
L 141.151364 137.225521 
L 143.252121 138.153111 
L 145.352879 139.10329 
L 147.453636 140.08835 
L 149.554394 141.106573 
L 151.655152 142.150696 
L 153.755909 143.215159 
L 155.856667 144.272459 
L 157.957424 145.352 
" clip-path="url(#p393ca2d0c3)" style="fill: none; stroke: #000000; stroke-opacity: 0.3; stroke-width: 2; stroke-linecap: square"/>
   </g>
   <g id="line2d_18">
    <path d="M 157.957424 145.352 
L 162.158939 147.938911 
L 166.360455 150.792991 
L 170.56197 153.929711 
L 174.763485 157.338216 
L 178.965 161.010353 
L 183.166515 164.906836 
L 189.468788 171.105716 
L 195.771061 177.719323 
L 202.073333 184.713975 
L 208.375606 191.995051 
L 214.677879 199.531486 
L 225.181667 212.616143 
L 241.987727 234.248109 
L 258.793788 256.250299 
L 277.700606 280.201332 
L 286.103636 290.683108 
L 294.506667 300.758423 
L 302.909697 310.426642 
L 311.312727 319.765364 
L 317.615 326.385398 
L 323.917273 332.7306 
L 330.219545 338.780355 
L 340.723333 348.332276 
L 347.025606 353.84723 
L 353.327879 359.069225 
L 361.730909 365.708793 
L 368.033182 370.482388 
L 376.436212 376.562662 
L 384.839242 382.300668 
L 393.242273 387.815198 
L 399.544545 391.818475 
L 407.947576 396.898666 
L 418.451364 403.038048 
L 426.854394 407.714029 
L 437.358182 413.264587 
L 445.761212 417.524121 
L 454.164242 421.511555 
L 464.66803 426.334175 
L 477.272576 431.777818 
L 487.776364 436.092768 
L 498.280152 440.147327 
L 510.884697 444.661297 
L 519.287727 447.495681 
L 531.892273 451.464295 
L 546.597576 455.870189 
L 567.605152 461.859582 
L 578.108939 464.727494 
L 590.713485 467.978993 
L 601.217273 470.473222 
L 611.721061 472.744605 
L 622.224848 474.822315 
L 632.728636 476.68749 
L 645.333182 478.63427 
L 662.139242 480.914909 
L 678.945303 482.939699 
L 702.053636 485.468443 
L 718.859697 487.148611 
L 729.363485 488.048814 
L 746.169545 488.820557 
L 746.169545 488.820557 
" clip-path="url(#p393ca2d0c3)" style="fill: none; stroke: #662b00; stroke-opacity: 0.3; stroke-width: 2; stroke-linecap: square"/>
   </g>
   <g id="line2d_19">
    <path d="M 115.942273 130.611827 
L 118.04303 131.044495 
L 120.143788 131.48523 
L 122.244545 131.918839 
L 124.345303 132.345884 
L 126.446061 132.773341 
L 128.546818 133.189969 
L 130.647576 133.613076 
L 132.748333 134.05397 
L 134.849091 134.508838 
L 136.949848 134.968276 
L 139.050606 135.839694 
L 141.151364 136.73842 
L 143.252121 137.661592 
L 145.352879 138.621251 
L 147.453636 139.631722 
L 149.554394 140.692166 
L 151.655152 141.794557 
L 153.755909 142.946872 
L 155.856667 144.127081 
L 157.957424 145.352 
" clip-path="url(#p393ca2d0c3)" style="fill: none; stroke: #000000; stroke-opacity: 0.3; stroke-width: 2; stroke-linecap: square"/>
   </g>
   <g id="line2d_20">
    <path d="M 157.957424 145.352 
L 168.461212 150.474667 
L 178.965 155.978228 
L 187.36803 160.687 
L 197.871818 166.914241 
L 206.274848 172.224195 
L 212.577121 176.409982 
L 223.080909 183.787347 
L 231.483939 189.943677 
L 241.987727 197.970738 
L 252.491515 206.281122 
L 258.793788 211.450311 
L 271.398333 222.240395 
L 281.902121 231.558093 
L 290.305152 239.25861 
L 311.312727 259.074459 
L 323.917273 270.956078 
L 334.421061 280.548884 
L 353.327879 296.992969 
L 384.839242 323.62164 
L 393.242273 330.426968 
L 403.746061 338.730878 
L 412.149091 345.100433 
L 420.552121 351.183701 
L 428.955152 356.99896 
L 437.358182 362.52576 
L 447.86197 369.079501 
L 458.365758 375.392016 
L 473.071061 384.010498 
L 481.474091 388.81487 
L 491.977879 394.484202 
L 502.481667 399.75482 
L 508.783939 402.625058 
L 517.18697 406.210445 
L 527.690758 410.381568 
L 540.295303 414.953328 
L 555.000606 420.044944 
L 567.605152 424.203795 
L 592.814242 432.104007 
L 611.721061 437.699627 
L 622.224848 440.662541 
L 634.829394 443.946622 
L 645.333182 446.475806 
L 655.83697 448.792274 
L 668.441515 451.344683 
L 687.348333 454.962516 
L 704.154394 457.917787 
L 723.061212 461.066267 
L 727.262727 461.729529 
L 746.169545 463.245986 
L 746.169545 463.245986 
" clip-path="url(#p393ca2d0c3)" style="fill: none; stroke: #b32700; stroke-opacity: 0.3; stroke-width: 2; stroke-linecap: square"/>
   </g>
   <g id="line2d_21">
    <path d="M 115.942273 131.856584 
L 118.04303 132.283185 
L 120.143788 132.706077 
L 122.244545 133.131951 
L 124.345303 133.557988 
L 126.446061 133.989803 
L 128.546818 134.406346 
L 130.647576 134.821023 
L 132.748333 135.251101 
L 134.849091 135.699251 
L 136.949848 136.140834 
L 139.050606 137.008081 
L 141.151364 137.894093 
L 143.252121 138.781546 
L 145.352879 139.66873 
L 147.453636 140.569426 
L 149.554394 141.487257 
L 151.655152 142.446739 
L 153.755909 143.41009 
L 155.856667 144.368343 
L 157.957424 145.352 
" clip-path="url(#p393ca2d0c3)" style="fill: none; stroke: #000000; stroke-opacity: 0.3; stroke-width: 2; stroke-linecap: square"/>
   </g>
   <g id="line2d_22">
    <path d="M 157.957424 145.352 
L 166.360455 149.875968 
L 174.763485 154.702127 
L 181.065758 158.540173 
L 191.569545 165.216671 
L 206.274848 174.916764 
L 218.879394 182.866576 
L 229.383182 188.90946 
L 233.584697 191.21555 
L 241.987727 195.513829 
L 252.491515 200.62927 
L 269.297576 208.413024 
L 279.801364 212.891393 
L 286.103636 215.343706 
L 294.506667 218.402364 
L 305.010455 221.902237 
L 319.715758 226.594466 
L 328.118788 229.27355 
L 347.025606 235.327572 
L 355.428636 237.821566 
L 363.831667 240.086718 
L 378.53697 243.762282 
L 391.141515 246.72961 
L 407.947576 250.516051 
L 420.552121 253.070799 
L 428.955152 254.612377 
L 452.063485 258.304558 
L 470.970303 261.045913 
L 481.474091 262.514481 
L 498.280152 264.494746 
L 515.086212 266.228653 
L 533.99303 267.867246 
L 576.008182 270.924771 
L 584.411212 271.371775 
L 605.418788 272.139937 
L 622.224848 272.833826 
L 653.736212 274.36053 
L 668.441515 274.879391 
L 685.247576 275.64308 
L 710.456667 276.574545 
L 723.061212 276.92181 
L 729.363485 277.092828 
L 744.068788 277.318064 
L 746.169545 277.355105 
L 746.169545 277.355105 
" clip-path="url(#p393ca2d0c3)" style="fill: none; stroke: #70b8ff; stroke-opacity: 0.3; stroke-width: 2; stroke-linecap: square"/>
   </g>
   <g id="line2d_23">
    <path d="M 115.942273 131.199135 
L 118.04303 131.611296 
L 120.143788 132.040595 
L 122.244545 132.474804 
L 124.345303 132.91353 
L 126.446061 133.357673 
L 128.546818 133.795958 
L 130.647576 134.236247 
L 132.748333 134.688351 
L 134.849091 135.152123 
L 136.949848 135.610611 
L 139.050606 136.476971 
L 141.151364 137.372304 
L 143.252121 138.299527 
L 145.352879 139.242946 
L 147.453636 140.208129 
L 149.554394 141.18011 
L 151.655152 142.179072 
L 153.755909 143.201071 
L 155.856667 144.248769 
L 157.957424 145.352 
" clip-path="url(#p393ca2d0c3)" style="fill: none; stroke: #000000; stroke-opacity: 0.3; stroke-width: 2; stroke-linecap: square"/>
   </g>
   <g id="line2d_24">
    <path d="M 157.957424 145.352 
L 164.259697 148.906897 
L 170.56197 152.750424 
L 176.864242 156.919352 
L 191.569545 167.208529 
L 206.274848 177.959894 
L 231.483939 196.268102 
L 241.987727 203.732299 
L 248.29 208.086442 
L 254.592273 212.197102 
L 260.894545 215.999555 
L 271.398333 222.024461 
L 279.801364 226.666818 
L 315.514242 245.210102 
L 328.118788 251.569024 
L 344.924848 259.785138 
L 353.327879 263.668594 
L 361.730909 267.324237 
L 372.234697 271.575499 
L 378.53697 273.925066 
L 393.242273 278.98164 
L 403.746061 282.368417 
L 414.249848 285.522316 
L 439.458939 292.823414 
L 458.365758 297.991137 
L 466.768788 300.118926 
L 481.474091 303.550982 
L 496.179394 306.799918 
L 529.791515 313.830065 
L 548.698333 317.358354 
L 578.108939 322.359221 
L 588.612727 323.886492 
L 601.217273 325.426092 
L 613.821818 326.830747 
L 639.030909 329.223489 
L 649.534697 329.960232 
L 676.844545 331.726528 
L 693.650606 332.954819 
L 718.859697 334.517669 
L 729.363485 335.042855 
L 746.169545 335.565029 
L 746.169545 335.565029 
" clip-path="url(#p393ca2d0c3)" style="fill: none; stroke: #fb7800; stroke-opacity: 0.3; stroke-width: 2; stroke-linecap: square"/>
   </g>
   <g id="line2d_25">
    <path d="M 115.942273 130.915477 
L 118.04303 131.327876 
L 120.143788 131.739216 
L 122.244545 132.178473 
L 124.345303 132.631632 
L 126.446061 133.08434 
L 128.546818 133.523596 
L 130.647576 133.965392 
L 132.748333 134.41087 
L 134.849091 134.866909 
L 136.949848 135.319632 
L 139.050606 136.182861 
L 141.151364 137.087664 
L 143.252121 138.032342 
L 145.352879 139.007756 
L 147.453636 140.023932 
L 149.554394 141.05538 
L 151.655152 142.104816 
L 153.755909 143.17092 
L 155.856667 144.240197 
L 157.957424 145.352 
" clip-path="url(#p393ca2d0c3)" style="fill: none; stroke: #000000; stroke-opacity: 0.3; stroke-width: 2; stroke-linecap: square"/>
   </g>
   <g id="line2d_26">
    <path d="M 157.957424 145.352 
L 164.259697 149.387514 
L 168.461212 152.304936 
L 174.763485 157.049981 
L 178.965 160.381152 
L 185.267273 165.671731 
L 195.771061 175.101511 
L 206.274848 184.694237 
L 223.080909 200.290105 
L 246.189242 222.374982 
L 256.69303 232.430819 
L 267.196818 242.180322 
L 273.499091 247.667265 
L 279.801364 252.814941 
L 290.305152 261.058187 
L 298.708182 267.47317 
L 307.111212 273.703617 
L 332.320303 291.692043 
L 340.723333 297.233132 
L 349.126364 302.55885 
L 355.428636 306.389825 
L 363.831667 311.159713 
L 370.133939 314.534616 
L 380.637727 319.807551 
L 389.040758 323.853453 
L 416.350606 336.540149 
L 431.055909 343.0984 
L 439.458939 346.612104 
L 447.86197 349.803817 
L 458.365758 353.66844 
L 466.768788 356.504294 
L 473.071061 358.470785 
L 481.474091 360.907437 
L 494.078636 364.346721 
L 521.388485 371.096009 
L 536.093788 374.683035 
L 546.597576 377.013503 
L 557.101364 379.12602 
L 567.605152 381.006881 
L 597.015758 385.843292 
L 613.821818 388.365595 
L 622.224848 389.461197 
L 632.728636 390.631175 
L 647.433939 392.020947 
L 668.441515 393.977425 
L 693.650606 396.494849 
L 718.859697 398.819069 
L 727.262727 399.729276 
L 739.867273 400.462845 
L 746.169545 400.872523 
L 746.169545 400.872523 
" clip-path="url(#p393ca2d0c3)" style="fill: none; stroke: #fb7900; stroke-opacity: 0.3; stroke-width: 2; stroke-linecap: square"/>
   </g>
   <g id="line2d_27">
    <path d="M 115.942273 130.300096 
L 118.04303 130.690988 
L 120.143788 131.097445 
L 122.244545 131.526953 
L 124.345303 131.963802 
L 126.446061 132.413109 
L 128.546818 132.84992 
L 130.647576 133.28551 
L 132.748333 133.73187 
L 134.849091 134.191448 
L 136.949848 134.65352 
L 139.050606 135.520131 
L 141.151364 136.446082 
L 143.252121 137.4178 
L 145.352879 138.422527 
L 147.453636 139.456107 
L 149.554394 140.535007 
L 151.655152 141.670504 
L 153.755909 142.855924 
L 155.856667 144.079241 
L 157.957424 145.352 
" clip-path="url(#p393ca2d0c3)" style="fill: none; stroke: #000000; stroke-opacity: 0.3; stroke-width: 2; stroke-linecap: square"/>
   </g>
   <g id="line2d_28">
    <path d="M 157.957424 145.352 
L 170.56197 152.85773 
L 178.965 158.221848 
L 183.166515 161.342742 
L 187.36803 164.689333 
L 197.871818 173.410376 
L 202.073333 176.984199 
L 220.980152 192.117241 
L 229.383182 198.546983 
L 254.592273 217.376555 
L 267.196818 226.262797 
L 277.700606 233.35665 
L 286.103636 238.823919 
L 300.808939 248.182816 
L 319.715758 260.404984 
L 338.622576 272.43627 
L 347.025606 277.386837 
L 363.831667 286.953612 
L 372.234697 291.155283 
L 384.839242 297.173489 
L 395.34303 301.823968 
L 403.746061 305.127756 
L 412.149091 308.396503 
L 420.552121 311.727844 
L 428.955152 314.91004 
L 447.86197 321.818158 
L 454.164242 323.939891 
L 477.272576 331.014153 
L 491.977879 335.03446 
L 510.884697 340.03526 
L 536.093788 346.244357 
L 563.403636 352.63251 
L 586.51197 357.729786 
L 609.620303 362.191015 
L 628.527121 365.614934 
L 651.635455 369.514891 
L 697.852121 377.31268 
L 723.061212 381.695922 
L 727.262727 382.44489 
L 746.169545 384.031099 
L 746.169545 384.031099 
" clip-path="url(#p393ca2d0c3)" style="fill: none; stroke: #e34500; stroke-opacity: 0.3; stroke-width: 2; stroke-linecap: square"/>
   </g>
   <g id="line2d_29">
    <path d="M 115.942273 130.685379 
L 118.04303 130.99886 
L 120.143788 131.320279 
L 122.244545 131.71323 
L 124.345303 132.152216 
L 126.446061 132.59922 
L 128.546818 133.038551 
L 130.647576 133.486325 
L 132.748333 133.995896 
L 134.849091 134.512082 
L 136.949848 135.020383 
L 139.050606 135.862698 
L 141.151364 136.749316 
L 143.252121 137.67083 
L 145.352879 138.633192 
L 147.453636 139.632113 
L 149.554394 140.688947 
L 151.655152 141.798287 
L 153.755909 142.952976 
L 155.856667 144.148215 
L 157.957424 145.352 
" clip-path="url(#p393ca2d0c3)" style="fill: none; stroke: #000000; stroke-opacity: 0.3; stroke-width: 2; stroke-linecap: square"/>
   </g>
   <g id="line2d_30">
    <path d="M 157.957424 145.352 
L 170.56197 152.545983 
L 174.763485 155.169023 
L 185.267273 162.15767 
L 191.569545 166.444651 
L 208.375606 177.918261 
L 216.778636 183.381872 
L 229.383182 191.455132 
L 267.196818 213.945455 
L 275.599848 219.05232 
L 286.103636 225.181482 
L 294.506667 229.766499 
L 300.808939 233.014815 
L 309.21197 237.083634 
L 321.816515 242.8422 
L 330.219545 246.36492 
L 340.723333 250.537623 
L 357.529394 257.01855 
L 395.34303 271.324019 
L 403.746061 274.35319 
L 414.249848 277.887744 
L 424.753636 281.078931 
L 433.156667 283.295423 
L 439.458939 284.739816 
L 466.768788 290.722537 
L 483.574848 294.663424 
L 517.18697 302.722991 
L 536.093788 307.004763 
L 565.504394 313.598164 
L 580.209697 316.583347 
L 592.814242 318.988897 
L 615.922576 322.986603 
L 645.333182 328.048553 
L 657.937727 330.14568 
L 670.542273 331.992024 
L 685.247576 333.840103 
L 702.053636 335.993546 
L 727.262727 339.440737 
L 746.169545 340.754693 
L 746.169545 340.754693 
" clip-path="url(#p393ca2d0c3)" style="fill: none; stroke: #f76800; stroke-opacity: 0.3; stroke-width: 2; stroke-linecap: square"/>
   </g>
   <g id="line2d_31">
    <path d="M 115.942273 131.096425 
L 118.04303 131.429663 
L 120.143788 131.771457 
L 122.244545 132.143565 
L 124.345303 132.557305 
L 126.446061 132.982747 
L 128.546818 133.406699 
L 130.647576 133.835108 
L 132.748333 134.319695 
L 134.849091 134.829787 
L 136.949848 135.325837 
L 139.050606 136.146123 
L 141.151364 136.999162 
L 143.252121 137.906633 
L 145.352879 138.870834 
L 147.453636 139.849343 
L 149.554394 140.868451 
L 151.655152 141.932594 
L 153.755909 143.029652 
L 155.856667 144.17329 
L 157.957424 145.352 
" clip-path="url(#p393ca2d0c3)" style="fill: none; stroke: #000000; stroke-opacity: 0.3; stroke-width: 2; stroke-linecap: square"/>
   </g>
   <g id="line2d_32">
    <path d="M 157.957424 145.352 
L 164.259697 148.76242 
L 168.461212 151.179298 
L 174.763485 155.11775 
L 178.965 157.94083 
L 185.267273 162.496866 
L 189.468788 165.716751 
L 195.771061 170.843856 
L 202.073333 176.265652 
L 208.375606 181.91566 
L 216.778636 189.694456 
L 225.181667 196.799072 
L 235.685455 205.311061 
L 241.987727 210.248021 
L 248.29 214.964205 
L 256.69303 220.919552 
L 271.398333 230.803949 
L 281.902121 237.567167 
L 298.708182 248.004909 
L 309.21197 254.830751 
L 336.521818 271.952867 
L 342.824091 275.548082 
L 359.630152 284.670986 
L 368.033182 289.070083 
L 386.94 298.587733 
L 397.443788 303.525481 
L 403.746061 306.247992 
L 414.249848 310.453365 
L 422.652879 313.563634 
L 435.257424 317.959706 
L 449.962727 322.773572 
L 460.466515 325.92225 
L 475.171818 330.129825 
L 485.675606 332.891511 
L 500.380909 336.562294 
L 521.388485 341.597224 
L 557.101364 350.494116 
L 569.705909 353.173217 
L 580.209697 355.202822 
L 594.915 357.77335 
L 611.721061 360.670835 
L 626.426364 363.09696 
L 655.83697 367.786448 
L 668.441515 370.002663 
L 695.751364 374.845375 
L 716.758939 378.051734 
L 727.262727 379.464718 
L 746.169545 380.806656 
L 746.169545 380.806656 
" clip-path="url(#p393ca2d0c3)" style="fill: none; stroke: #9d2800; stroke-opacity: 0.3; stroke-width: 2; stroke-linecap: square"/>
   </g>
   <g id="line2d_33">
    <path d="M 115.942273 131.802498 
L 118.04303 132.103858 
L 120.143788 132.423994 
L 122.244545 132.791611 
L 124.345303 133.209729 
L 126.446061 133.632924 
L 128.546818 134.052318 
L 130.647576 134.479657 
L 132.748333 134.970805 
L 134.849091 135.465904 
L 136.949848 135.95462 
L 139.050606 136.760289 
L 141.151364 137.588491 
L 143.252121 138.467671 
L 145.352879 139.374599 
L 147.453636 140.302382 
L 149.554394 141.250665 
L 151.655152 142.240825 
L 153.755909 143.251239 
L 155.856667 144.282009 
L 157.957424 145.352 
" clip-path="url(#p393ca2d0c3)" style="fill: none; stroke: #000000; stroke-opacity: 0.3; stroke-width: 2; stroke-linecap: square"/>
   </g>
   <g id="line2d_34">
    <path d="M 157.957424 145.352 
L 164.259697 149.802238 
L 170.56197 154.638582 
L 174.763485 158.05906 
L 181.065758 163.481902 
L 187.36803 169.220342 
L 191.569545 173.191723 
L 197.871818 179.689084 
L 212.577121 195.430303 
L 227.282424 211.111853 
L 233.584697 217.203391 
L 241.987727 224.904295 
L 248.29 230.396325 
L 256.69303 237.426224 
L 262.995303 242.369121 
L 269.297576 246.944364 
L 281.902121 255.66624 
L 298.708182 266.999341 
L 307.111212 272.249356 
L 315.514242 277.241122 
L 321.816515 280.736207 
L 330.219545 285.121552 
L 340.723333 290.270171 
L 349.126364 294.017468 
L 357.529394 297.425443 
L 368.033182 301.354075 
L 378.53697 304.966895 
L 393.242273 309.673776 
L 405.846818 313.479058 
L 416.350606 316.439819 
L 426.854394 319.187804 
L 437.358182 321.786799 
L 447.86197 324.138126 
L 462.567273 327.14667 
L 475.171818 329.422934 
L 510.884697 335.388758 
L 594.915 348.613512 
L 607.519545 350.356797 
L 620.124091 351.885456 
L 630.627879 352.964635 
L 645.333182 354.464688 
L 685.247576 358.884986 
L 702.053636 360.310791 
L 729.363485 362.518149 
L 746.169545 363.241233 
L 746.169545 363.241233 
" clip-path="url(#p393ca2d0c3)" style="fill: none; stroke: #c12a00; stroke-opacity: 0.3; stroke-width: 2; stroke-linecap: square"/>
   </g>
   <g id="line2d_35">
    <path d="M 115.942273 130.091318 
L 118.04303 130.398035 
L 120.143788 130.715938 
L 122.244545 131.084123 
L 124.345303 131.486462 
L 126.446061 131.905805 
L 128.546818 132.334682 
L 130.647576 132.773701 
L 132.748333 133.262141 
L 134.849091 133.763605 
L 136.949848 134.256538 
L 139.050606 135.073504 
L 141.151364 135.944009 
L 143.252121 136.887521 
L 145.352879 137.895432 
L 147.453636 138.94043 
L 149.554394 140.067065 
L 151.655152 141.281663 
L 153.755909 142.583316 
L 155.856667 143.943541 
L 157.957424 145.352 
" clip-path="url(#p393ca2d0c3)" style="fill: none; stroke: #000000; stroke-opacity: 0.3; stroke-width: 2; stroke-linecap: square"/>
   </g>
   <g id="line2d_36">
    <path d="M 157.957424 145.352 
L 164.259697 148.722195 
L 168.461212 151.166283 
L 172.662727 153.87039 
L 178.965 158.177292 
L 193.670303 169.050138 
L 199.972576 173.942206 
L 218.879394 189.1175 
L 237.786212 203.870076 
L 244.088485 208.607712 
L 267.196818 225.404575 
L 277.700606 232.743729 
L 292.405909 242.549492 
L 300.808939 247.81111 
L 307.111212 251.559162 
L 313.413485 255.087653 
L 321.816515 259.549017 
L 328.118788 262.668782 
L 336.521818 266.616452 
L 344.924848 270.359549 
L 355.428636 274.836708 
L 363.831667 278.136424 
L 374.335455 282.118469 
L 384.839242 285.870733 
L 393.242273 288.707737 
L 407.947576 293.399177 
L 416.350606 295.848205 
L 431.055909 299.823882 
L 443.660455 302.986131 
L 477.272576 310.987918 
L 489.877121 313.640619 
L 500.380909 315.673325 
L 521.388485 319.670058 
L 555.000606 326.47257 
L 565.504394 328.291195 
L 586.51197 331.490338 
L 603.31803 333.905034 
L 628.527121 337.762385 
L 639.030909 339.236349 
L 647.433939 340.23944 
L 668.441515 342.353019 
L 685.247576 343.916394 
L 704.154394 345.725302 
L 729.363485 348.10567 
L 746.169545 348.959474 
L 746.169545 348.959474 
" clip-path="url(#p393ca2d0c3)" style="fill: none; stroke: #fa7500; stroke-opacity: 0.3; stroke-width: 2; stroke-linecap: square"/>
   </g>
   <g id="line2d_37">
    <path d="M 115.942273 131.71354 
L 118.04303 132.03951 
L 120.143788 132.375495 
L 122.244545 132.750346 
L 124.345303 133.170942 
L 126.446061 133.616901 
L 128.546818 134.056596 
L 130.647576 134.49904 
L 132.748333 134.993718 
L 134.849091 135.513885 
L 136.949848 136.016863 
L 139.050606 136.784726 
L 141.151364 137.593241 
L 143.252121 138.441929 
L 145.352879 139.310501 
L 147.453636 140.203101 
L 149.554394 141.155093 
L 151.655152 142.164405 
L 153.755909 143.194556 
L 155.856667 144.254685 
L 157.957424 145.352 
" clip-path="url(#p393ca2d0c3)" style="fill: none; stroke: #000000; stroke-opacity: 0.3; stroke-width: 2; stroke-linecap: square"/>
   </g>
   <g id="line2d_38">
    <path d="M 157.957424 145.352 
L 164.259697 149.199306 
L 170.56197 153.294844 
L 176.864242 157.783504 
L 185.267273 164.183034 
L 197.871818 173.974076 
L 214.677879 186.952337 
L 223.080909 193.235442 
L 233.584697 200.793643 
L 248.29 211.061192 
L 254.592273 215.297038 
L 262.995303 220.553195 
L 271.398333 225.566264 
L 277.700606 229.109986 
L 286.103636 233.601661 
L 296.607424 238.862265 
L 305.010455 242.849854 
L 311.312727 245.625697 
L 317.615 248.201386 
L 323.917273 250.522003 
L 328.118788 251.910269 
L 334.421061 253.759676 
L 342.824091 255.994633 
L 351.227121 257.989101 
L 365.932424 261.156113 
L 382.738485 264.37654 
L 393.242273 266.125644 
L 401.645303 267.341489 
L 416.350606 269.20212 
L 426.854394 270.399538 
L 441.559697 271.849434 
L 458.365758 273.201324 
L 483.574848 275.19103 
L 515.086212 277.906993 
L 533.99303 279.473813 
L 550.799091 280.813795 
L 571.806667 282.640315 
L 599.116515 284.944413 
L 613.821818 285.73986 
L 647.433939 283.912624 
L 674.743788 283.006001 
L 693.650606 282.03535 
L 706.255152 280.923456 
L 725.16197 279.063403 
L 729.363485 278.748599 
L 744.068788 278.042228 
L 746.169545 277.957188 
L 746.169545 277.957188 
" clip-path="url(#p393ca2d0c3)" style="fill: none; stroke: #fd9b00; stroke-opacity: 0.3; stroke-width: 2; stroke-linecap: square"/>
   </g>
   <g id="line2d_39">
    <path d="M 115.942273 131.471307 
L 118.04303 131.755611 
L 120.143788 132.049744 
L 122.244545 132.378991 
L 124.345303 132.74489 
L 126.446061 133.13204 
L 128.546818 133.521963 
L 130.647576 133.914514 
L 132.748333 134.352104 
L 134.849091 134.813122 
L 136.949848 135.268376 
L 139.050606 136.042103 
L 141.151364 136.88911 
L 143.252121 137.774003 
L 145.352879 138.710936 
L 147.453636 139.665234 
L 149.554394 140.709155 
L 151.655152 141.81493 
L 153.755909 142.96527 
L 155.856667 144.143231 
L 157.957424 145.352 
" clip-path="url(#p393ca2d0c3)" style="fill: none; stroke: #000000; stroke-opacity: 0.3; stroke-width: 2; stroke-linecap: square"/>
   </g>
   <g id="line2d_40">
    <path d="M 764.551174 319.882105 
L 774.004583 319.882105 
L 774.004583 255.742025 
L 764.551174 255.742025 
L 764.551174 319.882105 
" clip-path="url(#p393ca2d0c3)" style="fill: none; stroke: #92b9c1; stroke-width: 2; stroke-linecap: square"/>
   </g>
   <g id="line2d_41">
    <path d="M 769.277879 319.882105 
L 769.277879 386.595889 
" clip-path="url(#p393ca2d0c3)" style="fill: none; stroke: #92b9c1; stroke-linecap: square"/>
   </g>
   <g id="line2d_42">
    <path d="M 769.277879 255.742025 
L 769.277879 187.4193 
" clip-path="url(#p393ca2d0c3)" style="fill: none; stroke: #92b9c1; stroke-linecap: square"/>
   </g>
   <g id="line2d_43">
    <path d="M 766.914527 386.595889 
L 771.641231 386.595889 
" clip-path="url(#p393ca2d0c3)" style="fill: none; stroke: #92b9c1; stroke-linecap: square"/>
   </g>
   <g id="line2d_44">
    <path d="M 766.914527 187.4193 
L 771.641231 187.4193 
" clip-path="url(#p393ca2d0c3)" style="fill: none; stroke: #92b9c1; stroke-linecap: square"/>
   </g>
   <g id="line2d_45">
    <path d="M 777.15572 373.666981 
L 786.609129 373.666981 
L 786.609129 308.885794 
L 777.15572 308.885794 
L 777.15572 373.666981 
" clip-path="url(#p393ca2d0c3)" style="fill: none; stroke: #ff8f00; stroke-width: 2; stroke-linecap: square"/>
   </g>
   <g id="line2d_46">
    <path d="M 781.882424 373.666981 
L 781.882424 422.597727 
" clip-path="url(#p393ca2d0c3)" style="fill: none; stroke: #ff8f00; stroke-linecap: square"/>
   </g>
   <g id="line2d_47">
    <path d="M 781.882424 308.885794 
L 781.882424 256.781257 
" clip-path="url(#p393ca2d0c3)" style="fill: none; stroke: #ff8f00; stroke-linecap: square"/>
   </g>
   <g id="line2d_48">
    <path d="M 779.519072 422.597727 
L 784.245777 422.597727 
" clip-path="url(#p393ca2d0c3)" style="fill: none; stroke: #ff8f00; stroke-linecap: square"/>
   </g>
   <g id="line2d_49">
    <path d="M 779.519072 256.781257 
L 784.245777 256.781257 
" clip-path="url(#p393ca2d0c3)" style="fill: none; stroke: #ff8f00; stroke-linecap: square"/>
   </g>
   <g id="line2d_50">
    <path d="M 789.760265 475.916411 
L 799.213674 475.916411 
L 799.213674 404.458691 
L 789.760265 404.458691 
L 789.760265 475.916411 
" clip-path="url(#p393ca2d0c3)" style="fill: none; stroke: #662b00; stroke-width: 2; stroke-linecap: square"/>
   </g>
   <g id="line2d_51">
    <path d="M 794.48697 475.916411 
L 794.48697 492.885351 
" clip-path="url(#p393ca2d0c3)" style="fill: none; stroke: #662b00; stroke-linecap: square"/>
   </g>
   <g id="line2d_52">
    <path d="M 794.48697 404.458691 
L 794.48697 356.044224 
" clip-path="url(#p393ca2d0c3)" style="fill: none; stroke: #662b00; stroke-linecap: square"/>
   </g>
   <g id="line2d_53">
    <path d="M 792.123617 492.885351 
L 796.850322 492.885351 
" clip-path="url(#p393ca2d0c3)" style="fill: none; stroke: #662b00; stroke-linecap: square"/>
   </g>
   <g id="line2d_54">
    <path d="M 792.123617 356.044224 
L 796.850322 356.044224 
" clip-path="url(#p393ca2d0c3)" style="fill: none; stroke: #662b00; stroke-linecap: square"/>
   </g>
   <g id="line2d_55">
    <path d="M 764.551174 270.067661 
L 774.004583 270.067661 
" clip-path="url(#p393ca2d0c3)" style="fill: none; stroke: #92b9c1; stroke-width: 4; stroke-linecap: square"/>
   </g>
   <g id="line2d_56">
    <path d="M 777.15572 333.45232 
L 786.609129 333.45232 
" clip-path="url(#p393ca2d0c3)" style="fill: none; stroke: #ff8f00; stroke-width: 4; stroke-linecap: square"/>
   </g>
   <g id="line2d_57">
    <path d="M 789.760265 439.189748 
L 799.213674 439.189748 
" clip-path="url(#p393ca2d0c3)" style="fill: none; stroke: #662b00; stroke-width: 4; stroke-linecap: square"/>
   </g>
   <g id="patch_3">
    <path d="M 109.64 515.56 
L 109.64 52.8 
" style="fill: none; stroke: #000000; stroke-width: 0.8; stroke-linejoin: miter; stroke-linecap: square"/>
   </g>
   <g id="patch_4">
    <path d="M 109.64 515.56 
L 802.89 515.56 
" style="fill: none; stroke: #000000; stroke-width: 0.8; stroke-linejoin: miter; stroke-linecap: square"/>
   </g>
   <g id="text_14">
    <!-- +1.5C -->
    <g style="fill: #92b9c1" transform="translate(802.89 275.034536) scale(0.18 -0.18)">
     <defs>
      <path id="DejaVuSans-Bold-2b" d="M 3053 4013 
L 3053 2375 
L 4684 2375 
L 4684 1638 
L 3053 1638 
L 3053 0 
L 2309 0 
L 2309 1638 
L 678 1638 
L 678 2375 
L 2309 2375 
L 2309 4013 
L 3053 4013 
z
" transform="scale(0.015625)"/>
      <path id="DejaVuSans-Bold-31" d="M 750 831 
L 1813 831 
L 1813 3847 
L 722 3622 
L 722 4441 
L 1806 4666 
L 2950 4666 
L 2950 831 
L 4013 831 
L 4013 0 
L 750 0 
L 750 831 
z
" transform="scale(0.015625)"/>
      <path id="DejaVuSans-Bold-2e" d="M 653 1209 
L 1778 1209 
L 1778 0 
L 653 0 
L 653 1209 
z
" transform="scale(0.015625)"/>
      <path id="DejaVuSans-Bold-35" d="M 678 4666 
L 3669 4666 
L 3669 3781 
L 1638 3781 
L 1638 3059 
Q 1775 3097 1914 3117 
Q 2053 3138 2203 3138 
Q 3056 3138 3531 2711 
Q 4006 2284 4006 1522 
Q 4006 766 3489 337 
Q 2972 -91 2053 -91 
Q 1656 -91 1267 -14 
Q 878 63 494 219 
L 494 1166 
Q 875 947 1217 837 
Q 1559 728 1863 728 
Q 2300 728 2551 942 
Q 2803 1156 2803 1522 
Q 2803 1891 2551 2103 
Q 2300 2316 1863 2316 
Q 1603 2316 1309 2248 
Q 1016 2181 678 2041 
L 678 4666 
z
" transform="scale(0.015625)"/>
      <path id="DejaVuSans-Bold-b0" d="M 1600 4288 
Q 1375 4288 1219 4131 
Q 1063 3975 1063 3750 
Q 1063 3525 1217 3372 
Q 1372 3219 1600 3219 
Q 1825 3219 1981 3373 
Q 2138 3528 2138 3750 
Q 2138 3975 1980 4131 
Q 1822 4288 1600 4288 
z
M 1600 4794 
Q 1806 4794 1997 4714 
Q 2188 4634 2338 4488 
Q 2484 4338 2561 4150 
Q 2638 3963 2638 3750 
Q 2638 3541 2561 3352 
Q 2484 3163 2344 3022 
Q 2194 2872 2000 2792 
Q 1806 2713 1594 2713 
Q 1153 2713 854 3011 
Q 556 3309 556 3750 
Q 556 4191 857 4492 
Q 1159 4794 1600 4794 
z
" transform="scale(0.015625)"/>
      <path id="DejaVuSans-Bold-43" d="M 4288 256 
Q 3956 84 3597 -3 
Q 3238 -91 2847 -91 
Q 1681 -91 1000 561 
Q 319 1213 319 2328 
Q 319 3447 1000 4098 
Q 1681 4750 2847 4750 
Q 3238 4750 3597 4662 
Q 3956 4575 4288 4403 
L 4288 3438 
Q 3953 3666 3628 3772 
Q 3303 3878 2944 3878 
Q 2300 3878 1931 3465 
Q 1563 3053 1563 2328 
Q 1563 1606 1931 1193 
Q 2300 781 2944 781 
Q 3303 781 3628 887 
Q 3953 994 4288 1222 
L 4288 256 
z
" transform="scale(0.015625)"/>
     </defs>
     <use xlink:href="#DejaVuSans-Bold-2b"/>
     <use xlink:href="#DejaVuSans-Bold-31" x="83.789062"/>
     <use xlink:href="#DejaVuSans-Bold-2e" x="153.369141"/>
     <use xlink:href="#DejaVuSans-Bold-35" x="191.357422"/>
     <use xlink:href="#DejaVuSans-Bold-b0" x="260.9375"/>
     <use xlink:href="#DejaVuSans-Bold-43" x="310.9375"/>
    </g>
   </g>
   <g id="text_15">
    <!-- +2.0C -->
    <g style="fill: #ff8f00" transform="translate(802.89 338.419195) scale(0.18 -0.18)">
     <defs>
      <path id="DejaVuSans-Bold-32" d="M 1844 884 
L 3897 884 
L 3897 0 
L 506 0 
L 506 884 
L 2209 2388 
Q 2438 2594 2547 2791 
Q 2656 2988 2656 3200 
Q 2656 3528 2436 3728 
Q 2216 3928 1850 3928 
Q 1569 3928 1234 3808 
Q 900 3688 519 3450 
L 519 4475 
Q 925 4609 1322 4679 
Q 1719 4750 2100 4750 
Q 2938 4750 3402 4381 
Q 3866 4013 3866 3353 
Q 3866 2972 3669 2642 
Q 3472 2313 2841 1759 
L 1844 884 
z
" transform="scale(0.015625)"/>
      <path id="DejaVuSans-Bold-30" d="M 2944 2338 
Q 2944 3213 2780 3570 
Q 2616 3928 2228 3928 
Q 1841 3928 1675 3570 
Q 1509 3213 1509 2338 
Q 1509 1453 1675 1090 
Q 1841 728 2228 728 
Q 2613 728 2778 1090 
Q 2944 1453 2944 2338 
z
M 4147 2328 
Q 4147 1169 3647 539 
Q 3147 -91 2228 -91 
Q 1306 -91 806 539 
Q 306 1169 306 2328 
Q 306 3491 806 4120 
Q 1306 4750 2228 4750 
Q 3147 4750 3647 4120 
Q 4147 3491 4147 2328 
z
" transform="scale(0.015625)"/>
     </defs>
     <use xlink:href="#DejaVuSans-Bold-2b"/>
     <use xlink:href="#DejaVuSans-Bold-32" x="83.789062"/>
     <use xlink:href="#DejaVuSans-Bold-2e" x="153.369141"/>
     <use xlink:href="#DejaVuSans-Bold-30" x="191.357422"/>
     <use xlink:href="#DejaVuSans-Bold-b0" x="260.9375"/>
     <use xlink:href="#DejaVuSans-Bold-43" x="310.9375"/>
    </g>
   </g>
   <g id="text_16">
    <!-- +3.0C -->
    <g style="fill: #662b00" transform="translate(802.89 444.156623) scale(0.18 -0.18)">
     <defs>
      <path id="DejaVuSans-Bold-33" d="M 2981 2516 
Q 3453 2394 3698 2092 
Q 3944 1791 3944 1325 
Q 3944 631 3412 270 
Q 2881 -91 1863 -91 
Q 1503 -91 1142 -33 
Q 781 25 428 141 
L 428 1069 
Q 766 900 1098 814 
Q 1431 728 1753 728 
Q 2231 728 2486 893 
Q 2741 1059 2741 1369 
Q 2741 1688 2480 1852 
Q 2219 2016 1709 2016 
L 1228 2016 
L 1228 2791 
L 1734 2791 
Q 2188 2791 2409 2933 
Q 2631 3075 2631 3366 
Q 2631 3634 2415 3781 
Q 2200 3928 1806 3928 
Q 1516 3928 1219 3862 
Q 922 3797 628 3669 
L 628 4550 
Q 984 4650 1334 4700 
Q 1684 4750 2022 4750 
Q 2931 4750 3382 4451 
Q 3834 4153 3834 3553 
Q 3834 3144 3618 2883 
Q 3403 2622 2981 2516 
z
" transform="scale(0.015625)"/>
     </defs>
     <use xlink:href="#DejaVuSans-Bold-2b"/>
     <use xlink:href="#DejaVuSans-Bold-33" x="83.789062"/>
     <use xlink:href="#DejaVuSans-Bold-2e" x="153.369141"/>
     <use xlink:href="#DejaVuSans-Bold-30" x="191.357422"/>
     <use xlink:href="#DejaVuSans-Bold-b0" x="260.9375"/>
     <use xlink:href="#DejaVuSans-Bold-43" x="310.9375"/>
    </g>
   </g>
   <g id="text_17">
    <!-- Glaciers globally -->
    <g transform="translate(343.915 46.8) scale(0.24 -0.24)">
     <defs>
      <path id="DejaVuSans-Bold-47" d="M 4781 347 
Q 4331 128 3847 18 
Q 3363 -91 2847 -91 
Q 1681 -91 1000 561 
Q 319 1213 319 2328 
Q 319 3456 1012 4103 
Q 1706 4750 2913 4750 
Q 3378 4750 3804 4662 
Q 4231 4575 4609 4403 
L 4609 3438 
Q 4219 3659 3833 3768 
Q 3447 3878 3059 3878 
Q 2341 3878 1952 3476 
Q 1563 3075 1563 2328 
Q 1563 1588 1938 1184 
Q 2313 781 3003 781 
Q 3191 781 3352 804 
Q 3513 828 3641 878 
L 3641 1784 
L 2906 1784 
L 2906 2591 
L 4781 2591 
L 4781 347 
z
" transform="scale(0.015625)"/>
      <path id="DejaVuSans-Bold-6c" d="M 538 4863 
L 1656 4863 
L 1656 0 
L 538 0 
L 538 4863 
z
" transform="scale(0.015625)"/>
      <path id="DejaVuSans-Bold-73" d="M 3272 3391 
L 3272 2541 
Q 2913 2691 2578 2766 
Q 2244 2841 1947 2841 
Q 1628 2841 1473 2761 
Q 1319 2681 1319 2516 
Q 1319 2381 1436 2309 
Q 1553 2238 1856 2203 
L 2053 2175 
Q 2913 2066 3209 1816 
Q 3506 1566 3506 1031 
Q 3506 472 3093 190 
Q 2681 -91 1863 -91 
Q 1516 -91 1145 -36 
Q 775 19 384 128 
L 384 978 
Q 719 816 1070 734 
Q 1422 653 1784 653 
Q 2113 653 2278 743 
Q 2444 834 2444 1013 
Q 2444 1163 2330 1236 
Q 2216 1309 1875 1350 
L 1678 1375 
Q 931 1469 631 1722 
Q 331 1975 331 2491 
Q 331 3047 712 3315 
Q 1094 3584 1881 3584 
Q 2191 3584 2531 3537 
Q 2872 3491 3272 3391 
z
" transform="scale(0.015625)"/>
      <path id="DejaVuSans-Bold-62" d="M 2400 722 
Q 2759 722 2948 984 
Q 3138 1247 3138 1747 
Q 3138 2247 2948 2509 
Q 2759 2772 2400 2772 
Q 2041 2772 1848 2508 
Q 1656 2244 1656 1747 
Q 1656 1250 1848 986 
Q 2041 722 2400 722 
z
M 1656 2988 
Q 1888 3294 2169 3439 
Q 2450 3584 2816 3584 
Q 3463 3584 3878 3070 
Q 4294 2556 4294 1747 
Q 4294 938 3878 423 
Q 3463 -91 2816 -91 
Q 2450 -91 2169 54 
Q 1888 200 1656 506 
L 1656 0 
L 538 0 
L 538 4863 
L 1656 4863 
L 1656 2988 
z
" transform="scale(0.015625)"/>
      <path id="DejaVuSans-Bold-79" d="M 78 3500 
L 1197 3500 
L 2138 1125 
L 2938 3500 
L 4056 3500 
L 2584 -331 
Q 2363 -916 2067 -1148 
Q 1772 -1381 1288 -1381 
L 641 -1381 
L 641 -647 
L 991 -647 
Q 1275 -647 1404 -556 
Q 1534 -466 1606 -231 
L 1638 -134 
L 78 3500 
z
" transform="scale(0.015625)"/>
     </defs>
     <use xlink:href="#DejaVuSans-Bold-47"/>
     <use xlink:href="#DejaVuSans-Bold-6c" x="82.080078"/>
     <use xlink:href="#DejaVuSans-Bold-61" x="116.357422"/>
     <use xlink:href="#DejaVuSans-Bold-63" x="183.837891"/>
     <use xlink:href="#DejaVuSans-Bold-69" x="243.115234"/>
     <use xlink:href="#DejaVuSans-Bold-65" x="277.392578"/>
     <use xlink:href="#DejaVuSans-Bold-72" x="345.214844"/>
     <use xlink:href="#DejaVuSans-Bold-73" x="394.53125"/>
     <use xlink:href="#DejaVuSans-Bold-20" x="454.052734"/>
     <use xlink:href="#DejaVuSans-Bold-67" x="488.867188"/>
     <use xlink:href="#DejaVuSans-Bold-6c" x="560.449219"/>
     <use xlink:href="#DejaVuSans-Bold-6f" x="594.726562"/>
     <use xlink:href="#DejaVuSans-Bold-62" x="663.427734"/>
     <use xlink:href="#DejaVuSans-Bold-61" x="735.009766"/>
     <use xlink:href="#DejaVuSans-Bold-6c" x="802.490234"/>
     <use xlink:href="#DejaVuSans-Bold-6c" x="836.767578"/>
     <use xlink:href="#DejaVuSans-Bold-79" x="871.044922"/>
    </g>
   </g>
   <g id="LineCollection_1">
    <path d="M 322.866894 230.515589 
L 329.169167 230.515589 
" clip-path="url(#p393ca2d0c3)" style="fill: none; stroke: #70b8ff; stroke-opacity: 0.5; stroke-width: 3"/>
   </g>
   <g id="LineCollection_2">
    <path d="M 322.866894 233.927113 
L 329.169167 233.927113 
" clip-path="url(#p393ca2d0c3)" style="fill: none; stroke: #92b9c1; stroke-opacity: 0.5; stroke-width: 3"/>
   </g>
   <g id="LineCollection_3">
    <path d="M 322.866894 237.405963 
L 329.169167 237.405963 
" clip-path="url(#p393ca2d0c3)" style="fill: none; stroke: #c0ba6a; stroke-opacity: 0.5; stroke-width: 3"/>
   </g>
   <g id="LineCollection_4">
    <path d="M 322.866894 240.972861 
L 329.169167 240.972861 
" clip-path="url(#p393ca2d0c3)" style="fill: none; stroke: #efbb14; stroke-opacity: 0.5; stroke-width: 3"/>
   </g>
   <g id="LineCollection_5">
    <path d="M 322.866894 244.61324 
L 329.169167 244.61324 
" clip-path="url(#p393ca2d0c3)" style="fill: none; stroke: #fbaf00; stroke-opacity: 0.5; stroke-width: 3"/>
   </g>
   <g id="LineCollection_6">
    <path d="M 322.866894 248.294914 
L 329.169167 248.294914 
" clip-path="url(#p393ca2d0c3)" style="fill: none; stroke: #fd9f00; stroke-opacity: 0.5; stroke-width: 3"/>
   </g>
   <g id="LineCollection_7">
    <path d="M 322.866894 251.981573 
L 329.169167 251.981573 
" clip-path="url(#p393ca2d0c3)" style="fill: none; stroke: #ff8f00; stroke-opacity: 0.5; stroke-width: 3"/>
   </g>
   <g id="LineCollection_8">
    <path d="M 322.866894 255.641284 
L 329.169167 255.641284 
" clip-path="url(#p393ca2d0c3)" style="fill: none; stroke: #fb7c00; stroke-opacity: 0.5; stroke-width: 3"/>
   </g>
   <g id="LineCollection_9">
    <path d="M 322.866894 259.250357 
L 329.169167 259.250357 
" clip-path="url(#p393ca2d0c3)" style="fill: none; stroke: #f76800; stroke-opacity: 0.5; stroke-width: 3"/>
   </g>
   <g id="LineCollection_10">
    <path d="M 322.866894 262.793893 
L 329.169167 262.793893 
" clip-path="url(#p393ca2d0c3)" style="fill: none; stroke: #f35400; stroke-opacity: 0.5; stroke-width: 3"/>
   </g>
   <g id="LineCollection_11">
    <path d="M 322.866894 266.264523 
L 329.169167 266.264523 
" clip-path="url(#p393ca2d0c3)" style="fill: none; stroke: #e34500; stroke-opacity: 0.5; stroke-width: 3"/>
   </g>
   <g id="LineCollection_12">
    <path d="M 322.866894 269.660514 
L 329.169167 269.660514 
" clip-path="url(#p393ca2d0c3)" style="fill: none; stroke: #d13600; stroke-opacity: 0.5; stroke-width: 3"/>
   </g>
   <g id="LineCollection_13">
    <path d="M 322.866894 272.983904 
L 329.169167 272.983904 
" clip-path="url(#p393ca2d0c3)" style="fill: none; stroke: #bf2800; stroke-opacity: 0.5; stroke-width: 3"/>
   </g>
   <g id="LineCollection_14">
    <path d="M 322.866894 276.23899 
L 329.169167 276.23899 
" clip-path="url(#p393ca2d0c3)" style="fill: none; stroke: #a32700; stroke-opacity: 0.5; stroke-width: 3"/>
   </g>
   <g id="LineCollection_15">
    <path d="M 322.866894 279.431205 
L 329.169167 279.431205 
" clip-path="url(#p393ca2d0c3)" style="fill: none; stroke: #852900; stroke-opacity: 0.5; stroke-width: 3"/>
   </g>
   <g id="LineCollection_16">
    <path d="M 322.866894 282.566365 
L 329.169167 282.566365 
" clip-path="url(#p393ca2d0c3)" style="fill: none; stroke: #682b00; stroke-opacity: 0.5; stroke-width: 3"/>
   </g>
   <g id="LineCollection_17">
    <path d="M 751.421439 255.957565 
L 757.723712 255.957565 
" clip-path="url(#p393ca2d0c3)" style="fill: none; stroke: #70b8ff; stroke-opacity: 0.5; stroke-width: 3"/>
   </g>
   <g id="LineCollection_18">
    <path d="M 751.421439 270.067661 
L 757.723712 270.067661 
" clip-path="url(#p393ca2d0c3)" style="fill: none; stroke: #92b9c1; stroke-opacity: 0.5; stroke-width: 3"/>
   </g>
   <g id="LineCollection_19">
    <path d="M 751.421439 284.470056 
L 757.723712 284.470056 
" clip-path="url(#p393ca2d0c3)" style="fill: none; stroke: #c0ba6a; stroke-opacity: 0.5; stroke-width: 3"/>
   </g>
   <g id="LineCollection_20">
    <path d="M 751.421439 298.432016 
L 757.723712 298.432016 
" clip-path="url(#p393ca2d0c3)" style="fill: none; stroke: #efbb14; stroke-opacity: 0.5; stroke-width: 3"/>
   </g>
   <g id="LineCollection_21">
    <path d="M 751.421439 311.411948 
L 757.723712 311.411948 
" clip-path="url(#p393ca2d0c3)" style="fill: none; stroke: #fbaf00; stroke-opacity: 0.5; stroke-width: 3"/>
   </g>
   <g id="LineCollection_22">
    <path d="M 751.421439 323.052986 
L 757.723712 323.052986 
" clip-path="url(#p393ca2d0c3)" style="fill: none; stroke: #fd9f00; stroke-opacity: 0.5; stroke-width: 3"/>
   </g>
   <g id="LineCollection_23">
    <path d="M 751.421439 333.45232 
L 757.723712 333.45232 
" clip-path="url(#p393ca2d0c3)" style="fill: none; stroke: #ff8f00; stroke-opacity: 0.5; stroke-width: 3"/>
   </g>
   <g id="LineCollection_24">
    <path d="M 751.421439 343.013647 
L 757.723712 343.013647 
" clip-path="url(#p393ca2d0c3)" style="fill: none; stroke: #fb7c00; stroke-opacity: 0.5; stroke-width: 3"/>
   </g>
   <g id="LineCollection_25">
    <path d="M 751.421439 352.174895 
L 757.723712 352.174895 
" clip-path="url(#p393ca2d0c3)" style="fill: none; stroke: #f76800; stroke-opacity: 0.5; stroke-width: 3"/>
   </g>
   <g id="LineCollection_26">
    <path d="M 751.421439 361.397774 
L 757.723712 361.397774 
" clip-path="url(#p393ca2d0c3)" style="fill: none; stroke: #f35400; stroke-opacity: 0.5; stroke-width: 3"/>
   </g>
   <g id="LineCollection_27">
    <path d="M 751.421439 371.027208 
L 757.723712 371.027208 
" clip-path="url(#p393ca2d0c3)" style="fill: none; stroke: #e34500; stroke-opacity: 0.5; stroke-width: 3"/>
   </g>
   <g id="LineCollection_28">
    <path d="M 751.421439 381.199161 
L 757.723712 381.199161 
" clip-path="url(#p393ca2d0c3)" style="fill: none; stroke: #d13600; stroke-opacity: 0.5; stroke-width: 3"/>
   </g>
   <g id="LineCollection_29">
    <path d="M 751.421439 391.945531 
L 757.723712 391.945531 
" clip-path="url(#p393ca2d0c3)" style="fill: none; stroke: #bf2800; stroke-opacity: 0.5; stroke-width: 3"/>
   </g>
   <g id="LineCollection_30">
    <path d="M 751.421439 403.220849 
L 757.723712 403.220849 
" clip-path="url(#p393ca2d0c3)" style="fill: none; stroke: #a32700; stroke-opacity: 0.5; stroke-width: 3"/>
   </g>
   <g id="LineCollection_31">
    <path d="M 751.421439 414.919345 
L 757.723712 414.919345 
" clip-path="url(#p393ca2d0c3)" style="fill: none; stroke: #852900; stroke-opacity: 0.5; stroke-width: 3"/>
   </g>
   <g id="LineCollection_32">
    <path d="M 751.421439 426.924124 
L 757.723712 426.924124 
" clip-path="url(#p393ca2d0c3)" style="fill: none; stroke: #682b00; stroke-opacity: 0.5; stroke-width: 3"/>
   </g>
   <g id="LineCollection_33">
    <path d="M 319.715758 233.927113 
L 332.320303 233.927113 
" clip-path="url(#p393ca2d0c3)" style="fill: none; stroke: #92b9c1; stroke-width: 8"/>
   </g>
   <g id="LineCollection_34">
    <path d="M 319.715758 251.981573 
L 332.320303 251.981573 
" clip-path="url(#p393ca2d0c3)" style="fill: none; stroke: #ff8f00; stroke-width: 8"/>
   </g>
   <g id="LineCollection_35">
    <path d="M 319.715758 285.650174 
L 332.320303 285.650174 
" clip-path="url(#p393ca2d0c3)" style="fill: none; stroke: #662b00; stroke-width: 8"/>
   </g>
   <g id="LineCollection_36">
    <path d="M 748.270303 270.067661 
L 760.874848 270.067661 
" clip-path="url(#p393ca2d0c3)" style="fill: none; stroke: #92b9c1; stroke-width: 8"/>
   </g>
   <g id="LineCollection_37">
    <path d="M 748.270303 333.45232 
L 760.874848 333.45232 
" clip-path="url(#p393ca2d0c3)" style="fill: none; stroke: #ff8f00; stroke-width: 8"/>
   </g>
   <g id="LineCollection_38">
    <path d="M 748.270303 439.189748 
L 760.874848 439.189748 
" clip-path="url(#p393ca2d0c3)" style="fill: none; stroke: #662b00; stroke-width: 8"/>
   </g>
  </g>
 </g>
 <defs>
  <clipPath id="p393ca2d0c3">
   <rect x="109.64" y="52.8" width="693.25" height="462.76"/>
  </clipPath>
 </defs>
</svg>
