<?xml version="1.0" encoding="utf-8" standalone="no"?>
<!DOCTYPE svg PUBLIC "-//W3C//DTD SVG 1.1//EN"
  "http://www.w3.org/Graphics/SVG/1.1/DTD/svg11.dtd">
<svg xmlns:xlink="http://www.w3.org/1999/xlink" width="900pt" height="600pt" viewBox="0 0 900 600" xmlns="http://www.w3.org/2000/svg" version="1.1">
 <metadata>
  <rdf:RDF xmlns:dc="http://purl.org/dc/elements/1.1/" xmlns:cc="http://creativecommons.org/ns#" xmlns:rdf="http://www.w3.org/1999/02/22-rdf-syntax-ns#">
   <cc:Work>
    <dc:type rdf:resource="http://purl.org/dc/dcmitype/StillImage"/>
    <dc:date>2023-11-29T23:51:22.305448</dc:date>
    <dc:format>image/svg+xml</dc:format>
    <dc:creator>
     <cc:Agent>
      <dc:title>Matplotlib v3.7.1, https://matplotlib.org/</dc:title>
     </cc:Agent>
    </dc:creator>
   </cc:Work>
  </rdf:RDF>
 </metadata>
 <defs>
  <style type="text/css">*{stroke-linejoin: round; stroke-linecap: butt}</style>
 </defs>
 <g id="figure_1">
  <g id="patch_1">
   <path d="M 0 600 
L 900 600 
L 900 0 
L 0 0 
z
" style="fill: #ffffff"/>
  </g>
  <g id="axes_1">
   <g id="patch_2">
    <path d="M 109.64 515.56 
L 802.89 515.56 
L 802.89 52.8 
L 109.64 52.8 
z
" style="fill: #ffffff"/>
   </g>
   <g id="matplotlib.axis_1">
    <g id="xtick_1">
     <g id="line2d_1">
      <defs>
       <path id="m1d1c02bc5b" d="M 0 0 
L 0 3.5 
" style="stroke: #000000; stroke-width: 0.8"/>
      </defs>
      <g>
       <use xlink:href="#m1d1c02bc5b" x="157.957424" y="515.56" style="stroke: #000000; stroke-width: 0.8"/>
      </g>
     </g>
     <g id="text_1">
      <!-- 2020 -->
      <g transform="translate(124.872424 542.315938) scale(0.26 -0.26)">
       <defs>
        <path id="DejaVuSans-32" d="M 1228 531 
L 3431 531 
L 3431 0 
L 469 0 
L 469 531 
Q 828 903 1448 1529 
Q 2069 2156 2228 2338 
Q 2531 2678 2651 2914 
Q 2772 3150 2772 3378 
Q 2772 3750 2511 3984 
Q 2250 4219 1831 4219 
Q 1534 4219 1204 4116 
Q 875 4013 500 3803 
L 500 4441 
Q 881 4594 1212 4672 
Q 1544 4750 1819 4750 
Q 2544 4750 2975 4387 
Q 3406 4025 3406 3419 
Q 3406 3131 3298 2873 
Q 3191 2616 2906 2266 
Q 2828 2175 2409 1742 
Q 1991 1309 1228 531 
z
" transform="scale(0.015625)"/>
        <path id="DejaVuSans-30" d="M 2034 4250 
Q 1547 4250 1301 3770 
Q 1056 3291 1056 2328 
Q 1056 1369 1301 889 
Q 1547 409 2034 409 
Q 2525 409 2770 889 
Q 3016 1369 3016 2328 
Q 3016 3291 2770 3770 
Q 2525 4250 2034 4250 
z
M 2034 4750 
Q 2819 4750 3233 4129 
Q 3647 3509 3647 2328 
Q 3647 1150 3233 529 
Q 2819 -91 2034 -91 
Q 1250 -91 836 529 
Q 422 1150 422 2328 
Q 422 3509 836 4129 
Q 1250 4750 2034 4750 
z
" transform="scale(0.015625)"/>
       </defs>
       <use xlink:href="#DejaVuSans-32"/>
       <use xlink:href="#DejaVuSans-30" x="63.623047"/>
       <use xlink:href="#DejaVuSans-32" x="127.246094"/>
       <use xlink:href="#DejaVuSans-30" x="190.869141"/>
      </g>
     </g>
    </g>
    <g id="xtick_2">
     <g id="line2d_2">
      <g>
       <use xlink:href="#m1d1c02bc5b" x="326.01803" y="515.56" style="stroke: #000000; stroke-width: 0.8"/>
      </g>
     </g>
     <g id="text_2">
      <!-- 2100 -->
      <g transform="translate(292.93303 542.315938) scale(0.26 -0.26)">
       <defs>
        <path id="DejaVuSans-31" d="M 794 531 
L 1825 531 
L 1825 4091 
L 703 3866 
L 703 4441 
L 1819 4666 
L 2450 4666 
L 2450 531 
L 3481 531 
L 3481 0 
L 794 0 
L 794 531 
z
" transform="scale(0.015625)"/>
       </defs>
       <use xlink:href="#DejaVuSans-32"/>
       <use xlink:href="#DejaVuSans-31" x="63.623047"/>
       <use xlink:href="#DejaVuSans-30" x="127.246094"/>
       <use xlink:href="#DejaVuSans-30" x="190.869141"/>
      </g>
     </g>
    </g>
    <g id="xtick_3">
     <g id="line2d_3">
      <g>
       <use xlink:href="#m1d1c02bc5b" x="536.093788" y="515.56" style="stroke: #000000; stroke-width: 0.8"/>
      </g>
     </g>
     <g id="text_3">
      <!-- 2200 -->
      <g transform="translate(503.008788 542.315938) scale(0.26 -0.26)">
       <use xlink:href="#DejaVuSans-32"/>
       <use xlink:href="#DejaVuSans-32" x="63.623047"/>
       <use xlink:href="#DejaVuSans-30" x="127.246094"/>
       <use xlink:href="#DejaVuSans-30" x="190.869141"/>
      </g>
     </g>
    </g>
    <g id="xtick_4">
     <g id="line2d_4">
      <g>
       <use xlink:href="#m1d1c02bc5b" x="746.169545" y="515.56" style="stroke: #000000; stroke-width: 0.8"/>
      </g>
     </g>
     <g id="text_4">
      <!-- 2300 -->
      <g transform="translate(713.084545 542.315938) scale(0.26 -0.26)">
       <defs>
        <path id="DejaVuSans-33" d="M 2597 2516 
Q 3050 2419 3304 2112 
Q 3559 1806 3559 1356 
Q 3559 666 3084 287 
Q 2609 -91 1734 -91 
Q 1441 -91 1130 -33 
Q 819 25 488 141 
L 488 750 
Q 750 597 1062 519 
Q 1375 441 1716 441 
Q 2309 441 2620 675 
Q 2931 909 2931 1356 
Q 2931 1769 2642 2001 
Q 2353 2234 1838 2234 
L 1294 2234 
L 1294 2753 
L 1863 2753 
Q 2328 2753 2575 2939 
Q 2822 3125 2822 3475 
Q 2822 3834 2567 4026 
Q 2313 4219 1838 4219 
Q 1578 4219 1281 4162 
Q 984 4106 628 3988 
L 628 4550 
Q 988 4650 1302 4700 
Q 1616 4750 1894 4750 
Q 2613 4750 3031 4423 
Q 3450 4097 3450 3541 
Q 3450 3153 3228 2886 
Q 3006 2619 2597 2516 
z
" transform="scale(0.015625)"/>
       </defs>
       <use xlink:href="#DejaVuSans-32"/>
       <use xlink:href="#DejaVuSans-33" x="63.623047"/>
       <use xlink:href="#DejaVuSans-30" x="127.246094"/>
       <use xlink:href="#DejaVuSans-30" x="190.869141"/>
      </g>
     </g>
    </g>
    <g id="text_5">
     <!-- Year -->
     <g transform="translate(428.995313 568.439687) scale(0.22 -0.22)">
      <defs>
       <path id="DejaVuSans-Bold-59" d="M -63 4666 
L 1253 4666 
L 2316 3003 
L 3378 4666 
L 4697 4666 
L 2919 1966 
L 2919 0 
L 1716 0 
L 1716 1966 
L -63 4666 
z
" transform="scale(0.015625)"/>
       <path id="DejaVuSans-Bold-65" d="M 4031 1759 
L 4031 1441 
L 1416 1441 
Q 1456 1047 1700 850 
Q 1944 653 2381 653 
Q 2734 653 3104 758 
Q 3475 863 3866 1075 
L 3866 213 
Q 3469 63 3072 -14 
Q 2675 -91 2278 -91 
Q 1328 -91 801 392 
Q 275 875 275 1747 
Q 275 2603 792 3093 
Q 1309 3584 2216 3584 
Q 3041 3584 3536 3087 
Q 4031 2591 4031 1759 
z
M 2881 2131 
Q 2881 2450 2695 2645 
Q 2509 2841 2209 2841 
Q 1884 2841 1681 2658 
Q 1478 2475 1428 2131 
L 2881 2131 
z
" transform="scale(0.015625)"/>
       <path id="DejaVuSans-Bold-61" d="M 2106 1575 
Q 1756 1575 1579 1456 
Q 1403 1338 1403 1106 
Q 1403 894 1545 773 
Q 1688 653 1941 653 
Q 2256 653 2472 879 
Q 2688 1106 2688 1447 
L 2688 1575 
L 2106 1575 
z
M 3816 1997 
L 3816 0 
L 2688 0 
L 2688 519 
Q 2463 200 2181 54 
Q 1900 -91 1497 -91 
Q 953 -91 614 226 
Q 275 544 275 1050 
Q 275 1666 698 1953 
Q 1122 2241 2028 2241 
L 2688 2241 
L 2688 2328 
Q 2688 2594 2478 2717 
Q 2269 2841 1825 2841 
Q 1466 2841 1156 2769 
Q 847 2697 581 2553 
L 581 3406 
Q 941 3494 1303 3539 
Q 1666 3584 2028 3584 
Q 2975 3584 3395 3211 
Q 3816 2838 3816 1997 
z
" transform="scale(0.015625)"/>
       <path id="DejaVuSans-Bold-72" d="M 3138 2547 
Q 2991 2616 2845 2648 
Q 2700 2681 2553 2681 
Q 2122 2681 1889 2404 
Q 1656 2128 1656 1613 
L 1656 0 
L 538 0 
L 538 3500 
L 1656 3500 
L 1656 2925 
Q 1872 3269 2151 3426 
Q 2431 3584 2822 3584 
Q 2878 3584 2943 3579 
Q 3009 3575 3134 3559 
L 3138 2547 
z
" transform="scale(0.015625)"/>
      </defs>
      <use xlink:href="#DejaVuSans-Bold-59"/>
      <use xlink:href="#DejaVuSans-Bold-65" x="63.287109"/>
      <use xlink:href="#DejaVuSans-Bold-61" x="131.109375"/>
      <use xlink:href="#DejaVuSans-Bold-72" x="198.589844"/>
     </g>
    </g>
   </g>
   <g id="matplotlib.axis_2">
    <g id="ytick_1">
     <g id="line2d_5">
      <defs>
       <path id="m8e8e69c21b" d="M 0 0 
L -3.5 0 
" style="stroke: #000000; stroke-width: 0.8"/>
      </defs>
      <g>
       <use xlink:href="#m8e8e69c21b" x="109.64" y="515.56" style="stroke: #000000; stroke-width: 0.8"/>
      </g>
     </g>
     <g id="text_6">
      <!-- 0 -->
      <g transform="translate(86.0975 525.437969) scale(0.26 -0.26)">
       <use xlink:href="#DejaVuSans-30"/>
      </g>
     </g>
    </g>
    <g id="ytick_2">
     <g id="line2d_6">
      <g>
       <use xlink:href="#m8e8e69c21b" x="109.64" y="441.5184" style="stroke: #000000; stroke-width: 0.8"/>
      </g>
     </g>
     <g id="text_7">
      <!-- 20 -->
      <g transform="translate(69.555 451.396369) scale(0.26 -0.26)">
       <use xlink:href="#DejaVuSans-32"/>
       <use xlink:href="#DejaVuSans-30" x="63.623047"/>
      </g>
     </g>
    </g>
    <g id="ytick_3">
     <g id="line2d_7">
      <g>
       <use xlink:href="#m8e8e69c21b" x="109.64" y="367.4768" style="stroke: #000000; stroke-width: 0.8"/>
      </g>
     </g>
     <g id="text_8">
      <!-- 40 -->
      <g transform="translate(69.555 377.354769) scale(0.26 -0.26)">
       <defs>
        <path id="DejaVuSans-34" d="M 2419 4116 
L 825 1625 
L 2419 1625 
L 2419 4116 
z
M 2253 4666 
L 3047 4666 
L 3047 1625 
L 3713 1625 
L 3713 1100 
L 3047 1100 
L 3047 0 
L 2419 0 
L 2419 1100 
L 313 1100 
L 313 1709 
L 2253 4666 
z
" transform="scale(0.015625)"/>
       </defs>
       <use xlink:href="#DejaVuSans-34"/>
       <use xlink:href="#DejaVuSans-30" x="63.623047"/>
      </g>
     </g>
    </g>
    <g id="ytick_4">
     <g id="line2d_8">
      <g>
       <use xlink:href="#m8e8e69c21b" x="109.64" y="293.4352" style="stroke: #000000; stroke-width: 0.8"/>
      </g>
     </g>
     <g id="text_9">
      <!-- 60 -->
      <g transform="translate(69.555 303.313169) scale(0.26 -0.26)">
       <defs>
        <path id="DejaVuSans-36" d="M 2113 2584 
Q 1688 2584 1439 2293 
Q 1191 2003 1191 1497 
Q 1191 994 1439 701 
Q 1688 409 2113 409 
Q 2538 409 2786 701 
Q 3034 994 3034 1497 
Q 3034 2003 2786 2293 
Q 2538 2584 2113 2584 
z
M 3366 4563 
L 3366 3988 
Q 3128 4100 2886 4159 
Q 2644 4219 2406 4219 
Q 1781 4219 1451 3797 
Q 1122 3375 1075 2522 
Q 1259 2794 1537 2939 
Q 1816 3084 2150 3084 
Q 2853 3084 3261 2657 
Q 3669 2231 3669 1497 
Q 3669 778 3244 343 
Q 2819 -91 2113 -91 
Q 1303 -91 875 529 
Q 447 1150 447 2328 
Q 447 3434 972 4092 
Q 1497 4750 2381 4750 
Q 2619 4750 2861 4703 
Q 3103 4656 3366 4563 
z
" transform="scale(0.015625)"/>
       </defs>
       <use xlink:href="#DejaVuSans-36"/>
       <use xlink:href="#DejaVuSans-30" x="63.623047"/>
      </g>
     </g>
    </g>
    <g id="ytick_5">
     <g id="line2d_9">
      <g>
       <use xlink:href="#m8e8e69c21b" x="109.64" y="219.3936" style="stroke: #000000; stroke-width: 0.8"/>
      </g>
     </g>
     <g id="text_10">
      <!-- 80 -->
      <g transform="translate(69.555 229.271569) scale(0.26 -0.26)">
       <defs>
        <path id="DejaVuSans-38" d="M 2034 2216 
Q 1584 2216 1326 1975 
Q 1069 1734 1069 1313 
Q 1069 891 1326 650 
Q 1584 409 2034 409 
Q 2484 409 2743 651 
Q 3003 894 3003 1313 
Q 3003 1734 2745 1975 
Q 2488 2216 2034 2216 
z
M 1403 2484 
Q 997 2584 770 2862 
Q 544 3141 544 3541 
Q 544 4100 942 4425 
Q 1341 4750 2034 4750 
Q 2731 4750 3128 4425 
Q 3525 4100 3525 3541 
Q 3525 3141 3298 2862 
Q 3072 2584 2669 2484 
Q 3125 2378 3379 2068 
Q 3634 1759 3634 1313 
Q 3634 634 3220 271 
Q 2806 -91 2034 -91 
Q 1263 -91 848 271 
Q 434 634 434 1313 
Q 434 1759 690 2068 
Q 947 2378 1403 2484 
z
M 1172 3481 
Q 1172 3119 1398 2916 
Q 1625 2713 2034 2713 
Q 2441 2713 2670 2916 
Q 2900 3119 2900 3481 
Q 2900 3844 2670 4047 
Q 2441 4250 2034 4250 
Q 1625 4250 1398 4047 
Q 1172 3844 1172 3481 
z
" transform="scale(0.015625)"/>
       </defs>
       <use xlink:href="#DejaVuSans-38"/>
       <use xlink:href="#DejaVuSans-30" x="63.623047"/>
      </g>
     </g>
    </g>
    <g id="ytick_6">
     <g id="line2d_10">
      <g>
       <use xlink:href="#m8e8e69c21b" x="109.64" y="145.352" style="stroke: #000000; stroke-width: 0.8"/>
      </g>
     </g>
     <g id="text_11">
      <!-- 100 -->
      <g transform="translate(53.0125 155.229969) scale(0.26 -0.26)">
       <use xlink:href="#DejaVuSans-31"/>
       <use xlink:href="#DejaVuSans-30" x="63.623047"/>
       <use xlink:href="#DejaVuSans-30" x="127.246094"/>
      </g>
     </g>
    </g>
    <g id="ytick_7">
     <g id="line2d_11">
      <g>
       <use xlink:href="#m8e8e69c21b" x="109.64" y="71.3104" style="stroke: #000000; stroke-width: 0.8"/>
      </g>
     </g>
     <g id="text_12">
      <!-- 120 -->
      <g transform="translate(53.0125 81.188369) scale(0.26 -0.26)">
       <use xlink:href="#DejaVuSans-31"/>
       <use xlink:href="#DejaVuSans-32" x="63.623047"/>
       <use xlink:href="#DejaVuSans-30" x="127.246094"/>
      </g>
     </g>
    </g>
    <g id="text_13">
     <!-- % of Remaining Ice -->
     <g transform="translate(44.265313 403.000625) rotate(-90) scale(0.22 -0.22)">
      <defs>
       <path id="DejaVuSans-Bold-25" d="M 4959 1925 
Q 4738 1925 4616 1733 
Q 4494 1541 4494 1184 
Q 4494 825 4614 633 
Q 4734 441 4959 441 
Q 5184 441 5303 633 
Q 5422 825 5422 1184 
Q 5422 1541 5301 1733 
Q 5181 1925 4959 1925 
z
M 4959 2450 
Q 5541 2450 5875 2112 
Q 6209 1775 6209 1184 
Q 6209 594 5875 251 
Q 5541 -91 4959 -91 
Q 4378 -91 4042 251 
Q 3706 594 3706 1184 
Q 3706 1772 4042 2111 
Q 4378 2450 4959 2450 
z
M 2094 -91 
L 1403 -91 
L 4319 4750 
L 5013 4750 
L 2094 -91 
z
M 1453 4750 
Q 2034 4750 2367 4411 
Q 2700 4072 2700 3481 
Q 2700 2891 2367 2550 
Q 2034 2209 1453 2209 
Q 872 2209 539 2550 
Q 206 2891 206 3481 
Q 206 4072 539 4411 
Q 872 4750 1453 4750 
z
M 1453 4225 
Q 1228 4225 1106 4031 
Q 984 3838 984 3481 
Q 984 3122 1106 2926 
Q 1228 2731 1453 2731 
Q 1678 2731 1798 2926 
Q 1919 3122 1919 3481 
Q 1919 3838 1797 4031 
Q 1675 4225 1453 4225 
z
" transform="scale(0.015625)"/>
       <path id="DejaVuSans-Bold-20" transform="scale(0.015625)"/>
       <path id="DejaVuSans-Bold-6f" d="M 2203 2784 
Q 1831 2784 1636 2517 
Q 1441 2250 1441 1747 
Q 1441 1244 1636 976 
Q 1831 709 2203 709 
Q 2569 709 2762 976 
Q 2956 1244 2956 1747 
Q 2956 2250 2762 2517 
Q 2569 2784 2203 2784 
z
M 2203 3584 
Q 3106 3584 3614 3096 
Q 4122 2609 4122 1747 
Q 4122 884 3614 396 
Q 3106 -91 2203 -91 
Q 1297 -91 786 396 
Q 275 884 275 1747 
Q 275 2609 786 3096 
Q 1297 3584 2203 3584 
z
" transform="scale(0.015625)"/>
       <path id="DejaVuSans-Bold-66" d="M 2841 4863 
L 2841 4128 
L 2222 4128 
Q 1984 4128 1890 4042 
Q 1797 3956 1797 3744 
L 1797 3500 
L 2753 3500 
L 2753 2700 
L 1797 2700 
L 1797 0 
L 678 0 
L 678 2700 
L 122 2700 
L 122 3500 
L 678 3500 
L 678 3744 
Q 678 4316 997 4589 
Q 1316 4863 1984 4863 
L 2841 4863 
z
" transform="scale(0.015625)"/>
       <path id="DejaVuSans-Bold-52" d="M 2297 2597 
Q 2675 2597 2839 2737 
Q 3003 2878 3003 3200 
Q 3003 3519 2839 3656 
Q 2675 3794 2297 3794 
L 1791 3794 
L 1791 2597 
L 2297 2597 
z
M 1791 1766 
L 1791 0 
L 588 0 
L 588 4666 
L 2425 4666 
Q 3347 4666 3776 4356 
Q 4206 4047 4206 3378 
Q 4206 2916 3982 2619 
Q 3759 2322 3309 2181 
Q 3556 2125 3751 1926 
Q 3947 1728 4147 1325 
L 4800 0 
L 3519 0 
L 2950 1159 
Q 2778 1509 2601 1637 
Q 2425 1766 2131 1766 
L 1791 1766 
z
" transform="scale(0.015625)"/>
       <path id="DejaVuSans-Bold-6d" d="M 3781 2919 
Q 3994 3244 4286 3414 
Q 4578 3584 4928 3584 
Q 5531 3584 5847 3212 
Q 6163 2841 6163 2131 
L 6163 0 
L 5038 0 
L 5038 1825 
Q 5041 1866 5042 1909 
Q 5044 1953 5044 2034 
Q 5044 2406 4934 2573 
Q 4825 2741 4581 2741 
Q 4263 2741 4089 2478 
Q 3916 2216 3909 1719 
L 3909 0 
L 2784 0 
L 2784 1825 
Q 2784 2406 2684 2573 
Q 2584 2741 2328 2741 
Q 2006 2741 1831 2477 
Q 1656 2213 1656 1722 
L 1656 0 
L 531 0 
L 531 3500 
L 1656 3500 
L 1656 2988 
Q 1863 3284 2130 3434 
Q 2397 3584 2719 3584 
Q 3081 3584 3359 3409 
Q 3638 3234 3781 2919 
z
" transform="scale(0.015625)"/>
       <path id="DejaVuSans-Bold-69" d="M 538 3500 
L 1656 3500 
L 1656 0 
L 538 0 
L 538 3500 
z
M 538 4863 
L 1656 4863 
L 1656 3950 
L 538 3950 
L 538 4863 
z
" transform="scale(0.015625)"/>
       <path id="DejaVuSans-Bold-6e" d="M 4056 2131 
L 4056 0 
L 2931 0 
L 2931 347 
L 2931 1631 
Q 2931 2084 2911 2256 
Q 2891 2428 2841 2509 
Q 2775 2619 2662 2680 
Q 2550 2741 2406 2741 
Q 2056 2741 1856 2470 
Q 1656 2200 1656 1722 
L 1656 0 
L 538 0 
L 538 3500 
L 1656 3500 
L 1656 2988 
Q 1909 3294 2193 3439 
Q 2478 3584 2822 3584 
Q 3428 3584 3742 3212 
Q 4056 2841 4056 2131 
z
" transform="scale(0.015625)"/>
       <path id="DejaVuSans-Bold-67" d="M 2919 594 
Q 2688 288 2409 144 
Q 2131 0 1766 0 
Q 1125 0 706 504 
Q 288 1009 288 1791 
Q 288 2575 706 3076 
Q 1125 3578 1766 3578 
Q 2131 3578 2409 3434 
Q 2688 3291 2919 2981 
L 2919 3500 
L 4044 3500 
L 4044 353 
Q 4044 -491 3511 -936 
Q 2978 -1381 1966 -1381 
Q 1638 -1381 1331 -1331 
Q 1025 -1281 716 -1178 
L 716 -306 
Q 1009 -475 1290 -558 
Q 1572 -641 1856 -641 
Q 2406 -641 2662 -400 
Q 2919 -159 2919 353 
L 2919 594 
z
M 2181 2772 
Q 1834 2772 1640 2515 
Q 1447 2259 1447 1791 
Q 1447 1309 1634 1061 
Q 1822 813 2181 813 
Q 2531 813 2725 1069 
Q 2919 1325 2919 1791 
Q 2919 2259 2725 2515 
Q 2531 2772 2181 2772 
z
" transform="scale(0.015625)"/>
       <path id="DejaVuSans-Bold-49" d="M 588 4666 
L 1791 4666 
L 1791 0 
L 588 0 
L 588 4666 
z
" transform="scale(0.015625)"/>
       <path id="DejaVuSans-Bold-63" d="M 3366 3391 
L 3366 2478 
Q 3138 2634 2908 2709 
Q 2678 2784 2431 2784 
Q 1963 2784 1702 2511 
Q 1441 2238 1441 1747 
Q 1441 1256 1702 982 
Q 1963 709 2431 709 
Q 2694 709 2930 787 
Q 3166 866 3366 1019 
L 3366 103 
Q 3103 6 2833 -42 
Q 2563 -91 2291 -91 
Q 1344 -91 809 395 
Q 275 881 275 1747 
Q 275 2613 809 3098 
Q 1344 3584 2291 3584 
Q 2566 3584 2833 3536 
Q 3100 3488 3366 3391 
z
" transform="scale(0.015625)"/>
      </defs>
      <use xlink:href="#DejaVuSans-Bold-25"/>
      <use xlink:href="#DejaVuSans-Bold-20" x="100.195312"/>
      <use xlink:href="#DejaVuSans-Bold-6f" x="135.009766"/>
      <use xlink:href="#DejaVuSans-Bold-66" x="203.710938"/>
      <use xlink:href="#DejaVuSans-Bold-20" x="247.216797"/>
      <use xlink:href="#DejaVuSans-Bold-52" x="282.03125"/>
      <use xlink:href="#DejaVuSans-Bold-65" x="359.033203"/>
      <use xlink:href="#DejaVuSans-Bold-6d" x="426.855469"/>
      <use xlink:href="#DejaVuSans-Bold-61" x="531.054688"/>
      <use xlink:href="#DejaVuSans-Bold-69" x="598.535156"/>
      <use xlink:href="#DejaVuSans-Bold-6e" x="632.8125"/>
      <use xlink:href="#DejaVuSans-Bold-69" x="704.003906"/>
      <use xlink:href="#DejaVuSans-Bold-6e" x="738.28125"/>
      <use xlink:href="#DejaVuSans-Bold-67" x="809.472656"/>
      <use xlink:href="#DejaVuSans-Bold-20" x="881.054688"/>
      <use xlink:href="#DejaVuSans-Bold-49" x="915.869141"/>
      <use xlink:href="#DejaVuSans-Bold-63" x="953.076172"/>
      <use xlink:href="#DejaVuSans-Bold-65" x="1012.353516"/>
     </g>
    </g>
   </g>
   <g id="line2d_12">
    <path d="M 157.957424 145.352 
L 162.158939 155.567871 
L 166.360455 166.566416 
L 170.56197 178.33312 
L 174.763485 189.228253 
L 178.965 200.757257 
L 185.267273 219.027331 
L 195.771061 248.184227 
L 199.972576 259.100865 
L 208.375606 279.662233 
L 216.778636 297.898567 
L 218.879394 302.161774 
L 223.080909 311.105338 
L 237.786212 342.323285 
L 241.987727 350.743953 
L 248.29 364.349386 
L 252.491515 372.512599 
L 254.592273 376.416455 
L 258.793788 383.476182 
L 260.894545 386.814264 
L 265.096061 392.532709 
L 269.297576 397.620513 
L 273.499091 402.169969 
L 284.002879 412.304557 
L 288.204394 415.573419 
L 290.305152 416.918152 
L 296.607424 421.256693 
L 302.909697 425.337899 
L 315.514242 432.778322 
L 319.715758 434.7501 
L 323.917273 436.517044 
L 336.521818 441.258375 
L 342.824091 444.095078 
L 351.227121 448.148268 
L 355.428636 449.870506 
L 361.730909 451.903853 
L 368.033182 453.661705 
L 372.234697 454.996657 
L 376.436212 455.983851 
L 384.839242 457.841936 
L 389.040758 458.38653 
L 405.846818 460.368524 
L 410.048333 461.006793 
L 416.350606 461.696665 
L 420.552121 462.151347 
L 422.652879 462.360472 
L 424.753636 462.431968 
L 428.955152 462.883493 
L 435.257424 463.713963 
L 441.559697 465.060243 
L 452.063485 467.657312 
L 456.265 468.923991 
L 464.66803 471.661622 
L 466.768788 472.444884 
L 477.272576 475.617748 
L 481.474091 476.588755 
L 489.877121 478.277703 
L 496.179394 479.16952 
L 508.783939 480.250231 
L 510.884697 480.366817 
L 521.388485 480.440437 
L 531.892273 480.949105 
L 550.799091 482.414967 
L 555.000606 482.876639 
L 561.302879 483.639498 
L 569.705909 484.408722 
L 578.108939 484.948746 
L 584.411212 485.175624 
L 601.217273 486.135652 
L 622.224848 487.383597 
L 634.829394 488.172152 
L 641.131667 488.601505 
L 657.937727 490.128781 
L 674.743788 491.872703 
L 678.945303 492.293927 
L 685.247576 492.606247 
L 699.952879 492.809095 
L 710.456667 492.592412 
L 723.061212 492.157712 
L 733.565 492.242508 
L 739.867273 492.26695 
L 746.169545 492.455197 
L 746.169545 492.455197 
" clip-path="url(#p59786a6a0a)" style="fill: none; stroke: #f35a00; stroke-opacity: 0.3; stroke-width: 2; stroke-linecap: square"/>
   </g>
   <g id="line2d_13">
    <path d="M 115.942273 81.195548 
L 118.04303 82.782286 
L 120.143788 84.420267 
L 122.244545 85.993407 
L 124.345303 87.473808 
L 126.446061 89.217134 
L 128.546818 91.173964 
L 130.647576 93.540355 
L 132.748333 95.989543 
L 134.849091 98.338387 
L 136.949848 100.627024 
L 139.050606 104.585847 
L 141.151364 108.547264 
L 143.252121 112.810228 
L 145.352879 117.169214 
L 147.453636 121.633079 
L 149.554394 125.955945 
L 151.655152 130.531464 
L 153.755909 135.15621 
L 155.856667 140.195977 
L 157.957424 145.352 
" clip-path="url(#p59786a6a0a)" style="fill: none; stroke: #000000; stroke-opacity: 0.3; stroke-width: 2; stroke-linecap: square"/>
   </g>
   <g id="line2d_14">
    <path d="M 157.957424 145.352 
L 172.662727 177.343028 
L 178.965 192.033087 
L 185.267273 207.293274 
L 187.36803 212.570965 
L 191.569545 224.205953 
L 193.670303 230.323677 
L 197.871818 243.834456 
L 202.073333 257.590232 
L 206.274848 272.380646 
L 216.778636 310.886123 
L 220.980152 325.523222 
L 225.181667 340.064159 
L 229.383182 353.834302 
L 233.584697 366.810322 
L 239.88697 385.140104 
L 244.088485 396.718448 
L 248.29 407.143685 
L 252.491515 416.928053 
L 256.69303 426.141561 
L 260.894545 434.989597 
L 262.995303 439.214815 
L 267.196818 446.886267 
L 269.297576 450.432562 
L 273.499091 456.840592 
L 277.700606 462.930219 
L 281.902121 468.323595 
L 286.103636 473.104472 
L 288.204394 475.390735 
L 292.405909 479.484191 
L 296.607424 482.844059 
L 300.808939 485.81878 
L 305.010455 488.399176 
L 311.312727 491.739587 
L 315.514242 493.717269 
L 319.715758 495.509746 
L 323.917273 497.110244 
L 330.219545 499.248285 
L 338.622576 501.687128 
L 342.824091 502.765843 
L 353.327879 505.132023 
L 359.630152 506.346896 
L 368.033182 507.636469 
L 374.335455 508.390679 
L 384.839242 509.293179 
L 397.443788 510.077148 
L 424.753636 511.366234 
L 443.660455 511.905774 
L 475.171818 512.342224 
L 512.985455 512.661816 
L 599.116515 513.568097 
L 676.844545 513.930206 
L 708.355909 513.958594 
L 746.169545 514.130831 
L 746.169545 514.130831 
" clip-path="url(#p59786a6a0a)" style="fill: none; stroke: #ca1809; stroke-opacity: 0.3; stroke-width: 2; stroke-linecap: square"/>
   </g>
   <g id="line2d_15">
    <path d="M 115.942273 85.880377 
L 118.04303 87.26101 
L 120.143788 88.586412 
L 122.244545 89.842779 
L 124.345303 91.357737 
L 126.446061 93.027374 
L 128.546818 94.763248 
L 130.647576 96.620332 
L 132.748333 98.567194 
L 134.849091 100.647269 
L 136.949848 102.852318 
L 139.050606 106.766084 
L 141.151364 110.950705 
L 143.252121 115.369378 
L 145.352879 119.811163 
L 147.453636 124.125684 
L 149.554394 128.373103 
L 151.655152 132.63253 
L 153.755909 136.661317 
L 155.856667 141.010051 
L 157.957424 145.352 
" clip-path="url(#p59786a6a0a)" style="fill: none; stroke: #000000; stroke-opacity: 0.3; stroke-width: 2; stroke-linecap: square"/>
   </g>
   <g id="line2d_16">
    <path d="M 157.957424 145.352 
L 160.058182 150.271817 
L 164.259697 161.151253 
L 168.461212 172.882769 
L 174.763485 191.087277 
L 181.065758 210.911939 
L 189.468788 239.197594 
L 195.771061 261.036596 
L 204.174091 291.120151 
L 208.375606 306.608918 
L 216.778636 335.618362 
L 220.980152 349.152954 
L 225.181667 361.983255 
L 229.383182 373.879794 
L 233.584697 384.821435 
L 239.88697 400.267308 
L 241.987727 404.981569 
L 244.088485 409.267842 
L 246.189242 413.291059 
L 250.390758 420.525515 
L 254.592273 427.150165 
L 256.69303 430.171471 
L 260.894545 435.495882 
L 269.297576 445.485514 
L 275.599848 452.426752 
L 279.801364 456.753297 
L 288.204394 464.901048 
L 292.405909 468.675295 
L 300.808939 475.827827 
L 305.010455 479.086265 
L 309.21197 481.875554 
L 313.413485 484.507463 
L 317.615 486.755735 
L 323.917273 489.727984 
L 328.118788 491.526239 
L 334.421061 493.84308 
L 338.622576 495.242488 
L 342.824091 496.526615 
L 349.126364 498.120692 
L 353.327879 499.036504 
L 365.932424 501.517415 
L 372.234697 502.605168 
L 384.839242 504.456114 
L 391.141515 505.169433 
L 397.443788 505.675706 
L 405.846818 506.101288 
L 412.149091 506.182997 
L 426.854394 506.142856 
L 445.761212 506.049763 
L 456.265 506.255222 
L 477.272576 506.942742 
L 487.776364 507.230068 
L 512.985455 507.642985 
L 527.690758 507.633064 
L 546.597576 507.878304 
L 555.000606 508.030087 
L 565.504394 508.45248 
L 576.008182 508.648793 
L 605.418788 508.988911 
L 624.325606 508.816654 
L 649.534697 508.610811 
L 664.24 508.954793 
L 678.945303 509.340721 
L 689.449091 509.431991 
L 746.169545 509.714646 
L 746.169545 509.714646 
" clip-path="url(#p59786a6a0a)" style="fill: none; stroke: #f36200; stroke-opacity: 0.3; stroke-width: 2; stroke-linecap: square"/>
   </g>
   <g id="line2d_17">
    <path d="M 115.942273 87.639394 
L 118.04303 88.936566 
L 120.143788 90.230857 
L 122.244545 91.302943 
L 124.345303 92.55717 
L 126.446061 94.006738 
L 128.546818 95.628559 
L 130.647576 97.483145 
L 132.748333 99.33858 
L 134.849091 101.338802 
L 136.949848 103.382828 
L 139.050606 107.1809 
L 141.151364 110.80497 
L 143.252121 114.773254 
L 145.352879 118.836756 
L 147.453636 123.186445 
L 149.554394 127.33034 
L 151.655152 131.719418 
L 153.755909 135.868957 
L 155.856667 140.497851 
L 157.957424 145.352 
" clip-path="url(#p59786a6a0a)" style="fill: none; stroke: #000000; stroke-opacity: 0.3; stroke-width: 2; stroke-linecap: square"/>
   </g>
   <g id="line2d_18">
    <path d="M 157.957424 145.352 
L 160.058182 149.779752 
L 162.158939 154.674256 
L 166.360455 165.402843 
L 170.56197 177.050721 
L 172.662727 182.98281 
L 181.065758 208.559596 
L 193.670303 248.108621 
L 197.871818 262.710932 
L 208.375606 299.205344 
L 214.677879 320.55643 
L 220.980152 340.026615 
L 223.080909 346.608582 
L 235.685455 383.426603 
L 239.88697 394.784337 
L 244.088485 405.536123 
L 246.189242 410.62716 
L 252.491515 424.062234 
L 256.69303 432.055462 
L 260.894545 439.848396 
L 262.995303 443.475984 
L 267.196818 450.160658 
L 275.599848 462.848272 
L 279.801364 468.376852 
L 284.002879 473.430597 
L 288.204394 478.017947 
L 290.305152 480.212818 
L 292.405909 482.238982 
L 296.607424 485.865984 
L 300.808939 489.209747 
L 305.010455 492.136714 
L 309.21197 494.812914 
L 311.312727 496.006908 
L 315.514242 498.024292 
L 319.715758 499.849525 
L 323.917273 501.451731 
L 328.118788 502.796732 
L 334.421061 504.522725 
L 340.723333 506.023666 
L 347.025606 507.161918 
L 351.227121 507.709449 
L 361.730909 508.706006 
L 368.033182 509.014998 
L 382.738485 509.484552 
L 393.242273 509.841206 
L 403.746061 510.223757 
L 422.652879 510.672273 
L 500.380909 511.894733 
L 519.287727 512.203837 
L 548.698333 512.426844 
L 578.108939 512.507111 
L 601.217273 512.738577 
L 624.325606 512.945772 
L 655.83697 512.967581 
L 691.549848 512.969252 
L 712.557424 513.174184 
L 731.464242 513.358858 
L 746.169545 513.418662 
L 746.169545 513.418662 
" clip-path="url(#p59786a6a0a)" style="fill: none; stroke: #c21010; stroke-opacity: 0.3; stroke-width: 2; stroke-linecap: square"/>
   </g>
   <g id="line2d_19">
    <path d="M 115.942273 83.489685 
L 118.04303 85.633568 
L 120.143788 87.708266 
L 122.244545 89.381841 
L 124.345303 90.941676 
L 126.446061 92.553638 
L 128.546818 94.350145 
L 130.647576 96.30344 
L 132.748333 98.230171 
L 134.849091 100.271896 
L 136.949848 102.388805 
L 139.050606 106.32471 
L 141.151364 110.500498 
L 143.252121 114.848486 
L 145.352879 119.263547 
L 147.453636 123.666424 
L 149.554394 127.950926 
L 151.655152 132.508663 
L 153.755909 136.716541 
L 155.856667 140.923291 
L 157.957424 145.352 
" clip-path="url(#p59786a6a0a)" style="fill: none; stroke: #000000; stroke-opacity: 0.3; stroke-width: 2; stroke-linecap: square"/>
   </g>
   <g id="line2d_20">
    <path d="M 157.957424 145.352 
L 160.058182 149.236041 
L 162.158939 153.492296 
L 166.360455 163.024722 
L 170.56197 173.172019 
L 178.965 194.250432 
L 183.166515 205.559323 
L 191.569545 229.337708 
L 195.771061 241.620671 
L 204.174091 268.418927 
L 208.375606 280.973884 
L 214.677879 298.653412 
L 218.879394 309.870426 
L 223.080909 320.361628 
L 227.282424 329.90495 
L 235.685455 348.458785 
L 239.88697 356.82327 
L 246.189242 368.920582 
L 250.390758 376.647517 
L 262.995303 400.395876 
L 269.297576 411.099804 
L 273.499091 418.032681 
L 277.700606 424.864621 
L 281.902121 431.775426 
L 288.204394 441.709916 
L 292.405909 447.818719 
L 296.607424 453.151143 
L 300.808939 458.214782 
L 305.010455 462.947238 
L 311.312727 469.705054 
L 315.514242 473.678188 
L 319.715758 477.189565 
L 323.917273 480.237925 
L 326.01803 481.543491 
L 330.219545 483.799878 
L 334.421061 485.835865 
L 338.622576 487.665043 
L 353.327879 493.324166 
L 359.630152 495.633576 
L 368.033182 498.327427 
L 376.436212 500.828859 
L 382.738485 502.528156 
L 389.040758 503.962216 
L 397.443788 505.674787 
L 407.947576 507.477246 
L 418.451364 508.969111 
L 426.854394 509.936164 
L 433.156667 510.523553 
L 443.660455 511.180516 
L 456.265 511.739977 
L 473.071061 512.266842 
L 496.179394 512.677943 
L 573.907424 513.636261 
L 620.124091 513.64195 
L 655.83697 513.603853 
L 746.169545 513.695279 
L 746.169545 513.695279 
" clip-path="url(#p59786a6a0a)" style="fill: none; stroke: #d72700; stroke-opacity: 0.3; stroke-width: 2; stroke-linecap: square"/>
   </g>
   <g id="line2d_21">
    <path d="M 115.942273 88.824748 
L 118.04303 90.746614 
L 120.143788 92.398665 
L 122.244545 93.865819 
L 124.345303 95.406783 
L 126.446061 97.124124 
L 128.546818 98.695205 
L 130.647576 100.442619 
L 132.748333 102.317259 
L 134.849091 104.25759 
L 136.949848 106.237624 
L 139.050606 110.157295 
L 141.151364 114.162755 
L 143.252121 118.16746 
L 145.352879 122.032881 
L 147.453636 125.929696 
L 149.554394 129.936021 
L 151.655152 134.060249 
L 153.755909 138.050906 
L 155.856667 141.608126 
L 157.957424 145.352 
" clip-path="url(#p59786a6a0a)" style="fill: none; stroke: #000000; stroke-opacity: 0.3; stroke-width: 2; stroke-linecap: square"/>
   </g>
   <g id="line2d_22">
    <path d="M 157.957424 145.352 
L 162.158939 157.471735 
L 172.662727 190.345711 
L 176.864242 204.397312 
L 183.166515 225.553842 
L 187.36803 238.961015 
L 197.871818 271.088201 
L 212.577121 315.283148 
L 216.778636 327.436191 
L 220.980152 339.476845 
L 225.181667 350.667817 
L 229.383182 361.594932 
L 233.584697 372.966707 
L 246.189242 405.711653 
L 254.592273 426.54885 
L 258.793788 436.257119 
L 262.995303 445.218892 
L 271.398333 462.451674 
L 273.499091 466.304255 
L 277.700606 473.303068 
L 281.902121 479.58207 
L 286.103636 485.093571 
L 288.204394 487.554792 
L 292.405909 491.900428 
L 296.607424 495.80549 
L 300.808939 499.134196 
L 305.010455 501.920024 
L 309.21197 504.267068 
L 313.413485 506.109929 
L 317.615 507.687537 
L 321.816515 508.986133 
L 326.01803 510.023281 
L 330.219545 510.850813 
L 334.421061 511.510023 
L 340.723333 512.224179 
L 347.025606 512.744638 
L 355.428636 513.219737 
L 368.033182 513.667073 
L 384.839242 513.984719 
L 420.552121 514.336254 
L 491.977879 514.500467 
L 561.302879 514.728414 
L 632.728636 514.831046 
L 746.169545 515.013564 
L 746.169545 515.013564 
" clip-path="url(#p59786a6a0a)" style="fill: none; stroke: #9b002e; stroke-opacity: 0.3; stroke-width: 2; stroke-linecap: square"/>
   </g>
   <g id="line2d_23">
    <path d="M 115.942273 78.666167 
L 118.04303 80.208524 
L 120.143788 81.716911 
L 122.244545 83.014599 
L 124.345303 84.514282 
L 126.446061 86.093626 
L 128.546818 87.891678 
L 130.647576 89.885352 
L 132.748333 91.809451 
L 134.849091 93.613864 
L 136.949848 95.581552 
L 139.050606 99.595381 
L 141.151364 103.903094 
L 143.252121 108.538571 
L 145.352879 113.146025 
L 147.453636 117.991423 
L 149.554394 122.958939 
L 151.655152 128.069322 
L 153.755909 133.65185 
L 155.856667 139.439317 
L 157.957424 145.352 
" clip-path="url(#p59786a6a0a)" style="fill: none; stroke: #000000; stroke-opacity: 0.3; stroke-width: 2; stroke-linecap: square"/>
   </g>
   <g id="line2d_24">
    <path d="M 157.957424 145.352 
L 170.56197 179.625997 
L 172.662727 184.944407 
L 176.864242 196.323621 
L 183.166515 214.448082 
L 191.569545 236.846242 
L 195.771061 248.122062 
L 199.972576 258.896652 
L 210.476364 284.871396 
L 214.677879 294.718786 
L 218.879394 303.853422 
L 227.282424 319.788732 
L 229.383182 323.911781 
L 233.584697 331.403152 
L 235.685455 335.050401 
L 239.88697 341.585845 
L 244.088485 347.87412 
L 250.390758 356.480024 
L 254.592273 362.106154 
L 260.894545 369.677105 
L 265.096061 374.502488 
L 267.196818 376.879435 
L 269.297576 379.031089 
L 273.499091 382.730815 
L 275.599848 384.476076 
L 284.002879 390.731182 
L 288.204394 393.504089 
L 292.405909 396.179869 
L 298.708182 399.73873 
L 302.909697 402.235462 
L 307.111212 404.761698 
L 309.21197 405.859759 
L 315.514242 408.658826 
L 319.715758 410.410942 
L 323.917273 411.77982 
L 328.118788 412.801884 
L 332.320303 413.975789 
L 342.824091 416.459432 
L 347.025606 417.020857 
L 359.630152 417.924761 
L 363.831667 418.249903 
L 372.234697 418.765217 
L 386.94 419.517481 
L 393.242273 420.662028 
L 399.544545 421.715432 
L 407.947576 422.689493 
L 412.149091 422.993501 
L 414.249848 423.211422 
L 418.451364 423.360634 
L 422.652879 423.125873 
L 426.854394 422.755014 
L 428.955152 422.353423 
L 445.761212 417.813981 
L 447.86197 417.245002 
L 456.265 415.503496 
L 460.466515 414.640671 
L 464.66803 414.082011 
L 470.970303 413.623249 
L 479.373333 413.54783 
L 483.574848 413.708865 
L 489.877121 413.659524 
L 496.179394 413.364821 
L 498.280152 413.311908 
L 500.380909 413.378814 
L 502.481667 413.325757 
L 506.683182 412.99125 
L 508.783939 412.664981 
L 523.489242 408.861538 
L 525.59 408.186865 
L 536.093788 404.14584 
L 540.295303 402.24371 
L 546.597576 398.863293 
L 550.799091 396.960877 
L 555.000606 395.690277 
L 557.101364 395.333511 
L 563.403636 393.971586 
L 565.504394 393.655538 
L 567.605152 393.460795 
L 578.108939 393.209456 
L 582.310455 393.504543 
L 584.411212 393.886973 
L 588.612727 394.916919 
L 592.814242 395.572983 
L 597.015758 395.796001 
L 601.217273 395.600044 
L 605.418788 394.988198 
L 607.519545 394.555014 
L 611.721061 393.372645 
L 615.922576 391.917074 
L 624.325606 389.082722 
L 630.627879 386.164627 
L 634.829394 384.092837 
L 643.232424 380.652268 
L 645.333182 380.099102 
L 647.433939 379.428479 
L 649.534697 378.546972 
L 653.736212 376.961103 
L 660.038485 374.60493 
L 668.441515 370.793169 
L 672.64303 369.152106 
L 676.844545 367.906695 
L 687.348333 364.674697 
L 689.449091 364.359379 
L 697.852121 364.754403 
L 702.053636 364.870421 
L 706.255152 365.477247 
L 710.456667 365.815821 
L 720.960455 366.423584 
L 725.16197 367.013316 
L 729.363485 367.283191 
L 731.464242 367.258783 
L 735.665758 366.78623 
L 739.867273 366.550418 
L 744.068788 366.469892 
L 746.169545 366.264026 
L 746.169545 366.264026 
" clip-path="url(#p59786a6a0a)" style="fill: none; stroke: #70b8ff; stroke-opacity: 0.3; stroke-width: 2; stroke-linecap: square"/>
   </g>
   <g id="line2d_25">
    <path d="M 115.942273 76.855686 
L 118.04303 78.527617 
L 120.143788 80.371767 
L 122.244545 81.88194 
L 124.345303 83.491749 
L 126.446061 85.519223 
L 128.546818 87.665241 
L 130.647576 90.18608 
L 132.748333 92.533194 
L 134.849091 94.742613 
L 136.949848 96.909407 
L 139.050606 100.981258 
L 141.151364 105.303176 
L 143.252121 109.909883 
L 145.352879 114.586231 
L 147.453636 119.60137 
L 149.554394 124.119567 
L 151.655152 128.867918 
L 153.755909 134.047851 
L 155.856667 139.570904 
L 157.957424 145.352 
" clip-path="url(#p59786a6a0a)" style="fill: none; stroke: #000000; stroke-opacity: 0.3; stroke-width: 2; stroke-linecap: square"/>
   </g>
   <g id="line2d_26">
    <path d="M 157.957424 145.352 
L 162.158939 157.541688 
L 166.360455 170.170283 
L 168.461212 177.010344 
L 172.662727 191.991208 
L 183.166515 230.714944 
L 187.36803 247.04212 
L 197.871818 286.142632 
L 206.274848 315.440609 
L 210.476364 328.838133 
L 214.677879 340.414962 
L 218.879394 351.256739 
L 223.080909 361.316556 
L 225.181667 365.682667 
L 227.282424 369.57114 
L 229.383182 373.104394 
L 239.88697 389.56498 
L 241.987727 392.526672 
L 246.189242 397.774457 
L 250.390758 402.729425 
L 254.592273 406.979705 
L 258.793788 410.752316 
L 265.096061 416.039151 
L 273.499091 422.39751 
L 277.700606 425.286317 
L 284.002879 429.208385 
L 288.204394 431.613769 
L 294.506667 435.088419 
L 302.909697 440.005304 
L 319.715758 449.424464 
L 323.917273 451.429151 
L 328.118788 453.135112 
L 332.320303 454.546364 
L 336.521818 455.796766 
L 340.723333 456.711961 
L 342.824091 457.116333 
L 347.025606 457.634119 
L 355.428636 457.927632 
L 361.730909 457.974708 
L 382.738485 457.191458 
L 389.040758 457.232509 
L 395.34303 457.449958 
L 405.846818 457.586958 
L 416.350606 457.164238 
L 428.955152 456.226438 
L 439.458939 455.549009 
L 445.761212 454.901214 
L 449.962727 454.497485 
L 462.567273 453.824871 
L 466.768788 453.759699 
L 470.970303 453.682907 
L 496.179394 452.164663 
L 500.380909 451.945736 
L 504.582424 451.778854 
L 515.086212 451.031477 
L 519.287727 451.088318 
L 523.489242 451.258967 
L 538.194545 451.536892 
L 542.396061 451.650585 
L 546.597576 451.728094 
L 550.799091 451.943263 
L 557.101364 451.920943 
L 563.403636 451.584433 
L 571.806667 451.643069 
L 588.612727 451.981801 
L 592.814242 451.963652 
L 597.015758 452.194061 
L 601.217273 452.237711 
L 605.418788 452.179413 
L 613.821818 451.641197 
L 620.124091 451.209701 
L 624.325606 451.040689 
L 628.527121 451.067355 
L 630.627879 451.049148 
L 634.829394 451.209798 
L 639.030909 451.189025 
L 641.131667 451.090809 
L 651.635455 451.261332 
L 655.83697 451.098562 
L 660.038485 450.980128 
L 666.340758 450.444199 
L 674.743788 449.247075 
L 681.046061 447.824415 
L 685.247576 447.141217 
L 693.650606 445.555089 
L 699.952879 444.862881 
L 702.053636 444.620088 
L 706.255152 444.317738 
L 716.758939 443.407524 
L 718.859697 443.105405 
L 723.061212 442.677904 
L 727.262727 442.089474 
L 739.867273 441.587783 
L 746.169545 440.875195 
L 746.169545 440.875195 
" clip-path="url(#p59786a6a0a)" style="fill: none; stroke: #f57600; stroke-opacity: 0.3; stroke-width: 2; stroke-linecap: square"/>
   </g>
   <g id="line2d_27">
    <path d="M 115.942273 84.73065 
L 118.04303 86.069679 
L 120.143788 87.136339 
L 122.244545 88.307694 
L 124.345303 89.678313 
L 126.446061 91.183547 
L 128.546818 92.776671 
L 130.647576 94.354983 
L 132.748333 95.973592 
L 134.849091 97.749656 
L 136.949848 99.771131 
L 139.050606 103.619351 
L 141.151364 107.544284 
L 143.252121 111.621391 
L 145.352879 116.070387 
L 147.453636 120.828352 
L 149.554394 125.324389 
L 151.655152 129.914227 
L 153.755909 134.763332 
L 155.856667 139.694005 
L 157.957424 145.352 
" clip-path="url(#p59786a6a0a)" style="fill: none; stroke: #000000; stroke-opacity: 0.3; stroke-width: 2; stroke-linecap: square"/>
   </g>
   <g id="line2d_28">
    <path d="M 157.957424 145.352 
L 164.259697 164.012267 
L 168.461212 177.693811 
L 172.662727 192.337852 
L 181.065758 223.201212 
L 185.267273 239.137925 
L 193.670303 272.909965 
L 197.871818 289.167961 
L 202.073333 304.00302 
L 210.476364 332.584248 
L 214.677879 345.576613 
L 218.879394 357.808428 
L 223.080909 369.102384 
L 227.282424 379.612075 
L 231.483939 389.035684 
L 235.685455 397.460247 
L 239.88697 405.494525 
L 244.088485 413.206804 
L 248.29 420.504581 
L 254.592273 430.351269 
L 260.894545 439.695968 
L 265.096061 445.58738 
L 267.196818 448.312404 
L 273.499091 455.753207 
L 277.700606 460.332954 
L 281.902121 464.503914 
L 286.103636 468.084179 
L 288.204394 469.729794 
L 290.305152 471.212161 
L 292.405909 472.547983 
L 296.607424 474.85802 
L 300.808939 476.771075 
L 302.909697 477.628975 
L 307.111212 478.98384 
L 311.312727 480.145908 
L 317.615 481.552887 
L 330.219545 483.903234 
L 340.723333 485.959112 
L 347.025606 487.318845 
L 365.932424 490.984538 
L 380.637727 493.523609 
L 393.242273 495.027357 
L 401.645303 495.856704 
L 405.846818 496.063072 
L 420.552121 496.32259 
L 443.660455 496.596394 
L 447.86197 496.856598 
L 454.164242 497.228567 
L 468.869545 497.851869 
L 477.272576 497.910332 
L 487.776364 497.752494 
L 506.683182 497.319637 
L 538.194545 497.191889 
L 550.799091 496.65867 
L 559.202121 496.096078 
L 565.504394 495.718507 
L 590.713485 494.293912 
L 603.31803 493.593398 
L 609.620303 493.065211 
L 618.023333 492.387725 
L 645.333182 490.336454 
L 657.937727 489.645426 
L 664.24 489.187489 
L 670.542273 488.758015 
L 683.146818 487.584368 
L 687.348333 487.039508 
L 693.650606 486.196725 
L 710.456667 484.579684 
L 727.262727 483.508782 
L 735.665758 483.455905 
L 744.068788 483.330685 
L 746.169545 483.323019 
L 746.169545 483.323019 
" clip-path="url(#p59786a6a0a)" style="fill: none; stroke: #f57600; stroke-opacity: 0.3; stroke-width: 2; stroke-linecap: square"/>
   </g>
   <g id="line2d_29">
    <path d="M 115.942273 84.606938 
L 118.04303 86.046229 
L 120.143788 87.634267 
L 122.244545 89.076902 
L 124.345303 90.391039 
L 126.446061 92.155286 
L 128.546818 93.828896 
L 130.647576 95.421989 
L 132.748333 96.964785 
L 134.849091 98.745125 
L 136.949848 100.749337 
L 139.050606 104.608584 
L 141.151364 108.795671 
L 143.252121 112.821722 
L 145.352879 116.698805 
L 147.453636 120.880863 
L 149.554394 125.260598 
L 151.655152 129.731005 
L 153.755909 134.435771 
L 155.856667 139.566647 
L 157.957424 145.352 
" clip-path="url(#p59786a6a0a)" style="fill: none; stroke: #000000; stroke-opacity: 0.3; stroke-width: 2; stroke-linecap: square"/>
   </g>
   <g id="line2d_30">
    <path d="M 157.957424 145.352 
L 162.158939 154.606932 
L 166.360455 164.5 
L 170.56197 173.715673 
L 172.662727 178.159353 
L 178.965 192.716773 
L 181.065758 197.797884 
L 183.166515 203.228011 
L 185.267273 209.071628 
L 189.468788 221.922822 
L 193.670303 235.59573 
L 197.871818 250.612194 
L 202.073333 265.934521 
L 206.274848 280.875337 
L 210.476364 296.977827 
L 223.080909 346.647663 
L 227.282424 361.828475 
L 233.584697 383.328451 
L 235.685455 390.069915 
L 239.88697 402.477644 
L 248.29 425.695196 
L 252.491515 436.245137 
L 256.69303 445.991065 
L 260.894545 454.766658 
L 265.096061 462.939263 
L 269.297576 470.27661 
L 271.398333 473.657369 
L 275.599848 479.916365 
L 277.700606 482.834657 
L 281.902121 488.042785 
L 284.002879 490.430564 
L 286.103636 492.648644 
L 290.305152 496.448153 
L 294.506667 499.650711 
L 298.708182 502.414748 
L 302.909697 504.82921 
L 307.111212 506.893724 
L 311.312727 508.546906 
L 315.514242 509.876269 
L 319.715758 510.896768 
L 326.01803 512.042675 
L 332.320303 512.934936 
L 338.622576 513.579433 
L 344.924848 514.033564 
L 353.327879 514.432124 
L 365.932424 514.799512 
L 384.839242 515.09404 
L 412.149091 515.260901 
L 519.287727 515.51887 
L 733.565 515.546134 
L 746.169545 515.546219 
L 746.169545 515.546219 
" clip-path="url(#p59786a6a0a)" style="fill: none; stroke: #2b084d; stroke-opacity: 0.3; stroke-width: 2; stroke-linecap: square"/>
   </g>
   <g id="line2d_31">
    <path d="M 115.942273 85.916796 
L 118.04303 87.643658 
L 120.143788 89.432095 
L 122.244545 90.959146 
L 124.345303 92.499415 
L 126.446061 94.286871 
L 128.546818 96.203689 
L 130.647576 98.186636 
L 132.748333 100.162808 
L 134.849091 102.328044 
L 136.949848 104.455633 
L 139.050606 108.373561 
L 141.151364 112.390909 
L 143.252121 116.597534 
L 145.352879 120.487788 
L 147.453636 124.360555 
L 149.554394 128.229016 
L 151.655152 132.372164 
L 153.755909 136.614447 
L 155.856667 140.951022 
L 157.957424 145.352 
" clip-path="url(#p59786a6a0a)" style="fill: none; stroke: #000000; stroke-opacity: 0.3; stroke-width: 2; stroke-linecap: square"/>
   </g>
   <g id="line2d_32">
    <path d="M 157.957424 145.352 
L 162.158939 161.757516 
L 164.259697 170.416839 
L 168.461212 189.236536 
L 172.662727 208.578653 
L 176.864242 228.428415 
L 187.36803 281.271382 
L 193.670303 309.571928 
L 197.871818 326.55955 
L 202.073333 342.406502 
L 206.274848 357.91426 
L 208.375606 365.178686 
L 212.577121 378.556116 
L 216.778636 390.774116 
L 218.879394 396.561632 
L 225.181667 412.586069 
L 229.383182 422.915768 
L 233.584697 432.485047 
L 241.987727 449.877203 
L 246.189242 457.66078 
L 250.390758 464.792025 
L 254.592273 471.629062 
L 258.793788 477.878966 
L 262.995303 483.659681 
L 267.196818 488.724531 
L 269.297576 490.945012 
L 273.499091 494.894353 
L 277.700606 498.292097 
L 281.902121 501.201551 
L 286.103636 503.734906 
L 290.305152 505.878555 
L 294.506667 507.749565 
L 298.708182 509.248515 
L 302.909697 510.47495 
L 307.111212 511.419611 
L 311.312727 512.199268 
L 317.615 513.077977 
L 323.917273 513.676669 
L 332.320303 514.154007 
L 344.924848 514.550475 
L 361.730909 514.820923 
L 393.242273 515.072271 
L 447.86197 515.312139 
L 597.015758 515.507523 
L 746.169545 515.527661 
L 746.169545 515.527661 
" clip-path="url(#p59786a6a0a)" style="fill: none; stroke: #4b0260; stroke-opacity: 0.3; stroke-width: 2; stroke-linecap: square"/>
   </g>
   <g id="line2d_33">
    <path d="M 115.942273 73.083877 
L 118.04303 74.64609 
L 120.143788 76.176657 
L 122.244545 77.432592 
L 124.345303 78.565505 
L 126.446061 79.952806 
L 128.546818 81.74226 
L 130.647576 83.720454 
L 132.748333 85.799274 
L 134.849091 88.011804 
L 136.949848 90.041123 
L 139.050606 94.109523 
L 141.151364 98.165872 
L 143.252121 102.062463 
L 145.352879 106.393325 
L 147.453636 111.891008 
L 149.554394 117.44122 
L 151.655152 123.808953 
L 153.755909 130.587104 
L 155.856667 137.672686 
L 157.957424 145.352 
" clip-path="url(#p59786a6a0a)" style="fill: none; stroke: #000000; stroke-opacity: 0.3; stroke-width: 2; stroke-linecap: square"/>
   </g>
   <g id="line2d_34">
    <path d="M 157.957424 145.352 
L 162.158939 154.378507 
L 166.360455 163.121221 
L 174.763485 181.227516 
L 181.065758 195.95271 
L 189.468788 216.195712 
L 199.972576 243.927524 
L 204.174091 256.367477 
L 208.375606 269.857604 
L 218.879394 302.294124 
L 225.181667 321.690786 
L 229.383182 333.511972 
L 233.584697 344.493391 
L 237.786212 355.274723 
L 244.088485 371.143533 
L 250.390758 387.337718 
L 254.592273 397.880003 
L 260.894545 411.998674 
L 265.096061 420.789478 
L 271.398333 433.461146 
L 277.700606 445.100421 
L 281.902121 452.22114 
L 286.103636 458.855815 
L 290.305152 464.823681 
L 294.506667 470.377751 
L 298.708182 475.435263 
L 302.909697 479.909547 
L 307.111212 484.138974 
L 313.413485 489.941313 
L 317.615 493.436756 
L 321.816515 496.611984 
L 326.01803 499.307991 
L 330.219545 501.625486 
L 334.421061 503.651379 
L 340.723333 506.223541 
L 344.924848 507.635662 
L 349.126364 508.834607 
L 353.327879 509.849701 
L 359.630152 511.084939 
L 365.932424 512.040852 
L 372.234697 512.822245 
L 378.53697 513.3821 
L 386.94 513.88493 
L 399.544545 514.403143 
L 418.451364 514.881596 
L 435.257424 515.068395 
L 475.171818 515.221386 
L 622.224848 515.48818 
L 746.169545 515.525011 
L 746.169545 515.525011 
" clip-path="url(#p59786a6a0a)" style="fill: none; stroke: #4f0162; stroke-opacity: 0.3; stroke-width: 2; stroke-linecap: square"/>
   </g>
   <g id="line2d_35">
    <path d="M 115.942273 77.076279 
L 118.04303 78.992955 
L 120.143788 80.935522 
L 122.244545 82.500001 
L 124.345303 84.150339 
L 126.446061 86.136229 
L 128.546818 88.347863 
L 130.647576 90.687088 
L 132.748333 93.030421 
L 134.849091 95.353412 
L 136.949848 97.571278 
L 139.050606 101.67589 
L 141.151364 105.973325 
L 143.252121 110.638994 
L 145.352879 115.542469 
L 147.453636 120.512353 
L 149.554394 125.143808 
L 151.655152 129.948099 
L 153.755909 134.92001 
L 155.856667 140.255257 
L 157.957424 145.352 
" clip-path="url(#p59786a6a0a)" style="fill: none; stroke: #000000; stroke-opacity: 0.3; stroke-width: 2; stroke-linecap: square"/>
   </g>
   <g id="line2d_36">
    <path d="M 157.957424 145.352 
L 164.259697 170.220174 
L 189.468788 274.341672 
L 191.569545 282.248295 
L 197.871818 304.069395 
L 202.073333 318.990334 
L 208.375606 340.757403 
L 212.577121 354.17391 
L 216.778636 366.510466 
L 220.980152 377.874552 
L 225.181667 388.240007 
L 229.383182 397.654334 
L 233.584697 406.412483 
L 237.786212 414.676143 
L 241.987727 422.40378 
L 244.088485 426.113276 
L 248.29 432.854356 
L 252.491515 438.777289 
L 256.69303 444.172254 
L 260.894545 448.974878 
L 265.096061 453.257732 
L 269.297576 457.038313 
L 273.499091 460.515461 
L 279.801364 465.171246 
L 284.002879 467.806413 
L 290.305152 471.49035 
L 296.607424 474.949738 
L 300.808939 477.136605 
L 307.111212 480.137142 
L 317.615 484.657753 
L 323.917273 486.803531 
L 330.219545 488.726751 
L 336.521818 490.350015 
L 344.924848 492.159916 
L 353.327879 493.620148 
L 363.831667 495.07579 
L 370.133939 495.719138 
L 384.839242 497.027487 
L 393.242273 498.408958 
L 399.544545 499.161291 
L 410.048333 499.841536 
L 418.451364 500.524278 
L 424.753636 500.814404 
L 441.559697 501.339774 
L 477.272576 501.196292 
L 485.675606 501.164231 
L 494.078636 501.184175 
L 508.783939 501.074295 
L 540.295303 501.530434 
L 559.202121 501.768938 
L 565.504394 501.605467 
L 573.907424 501.125476 
L 580.209697 500.624423 
L 586.51197 499.890344 
L 599.116515 498.072998 
L 605.418788 497.232728 
L 622.224848 495.413101 
L 630.627879 494.792122 
L 636.930152 494.564266 
L 645.333182 494.529029 
L 666.340758 494.95183 
L 714.658182 496.840674 
L 725.16197 497.412775 
L 746.169545 497.966876 
L 746.169545 497.966876 
" clip-path="url(#p59786a6a0a)" style="fill: none; stroke: #e94200; stroke-opacity: 0.3; stroke-width: 2; stroke-linecap: square"/>
   </g>
   <g id="line2d_37">
    <path d="M 115.942273 73.642984 
L 118.04303 74.71707 
L 120.143788 75.69177 
L 122.244545 76.497566 
L 124.345303 77.276444 
L 126.446061 78.494265 
L 128.546818 80.320387 
L 130.647576 82.300406 
L 132.748333 84.508763 
L 134.849091 86.784884 
L 136.949848 89.066805 
L 139.050606 92.770671 
L 141.151364 96.675737 
L 143.252121 100.868865 
L 145.352879 105.662041 
L 147.453636 110.871013 
L 149.554394 116.758292 
L 151.655152 123.434049 
L 153.755909 129.864081 
L 155.856667 137.321843 
L 157.957424 145.352 
" clip-path="url(#p59786a6a0a)" style="fill: none; stroke: #000000; stroke-opacity: 0.3; stroke-width: 2; stroke-linecap: square"/>
   </g>
   <g id="line2d_38">
    <path d="M 157.957424 145.352 
L 164.259697 162.277764 
L 168.461212 174.950896 
L 172.662727 189.13803 
L 176.864242 205.555473 
L 181.065758 222.621025 
L 185.267273 239.004386 
L 189.468788 256.571905 
L 193.670303 273.627032 
L 199.972576 297.778923 
L 206.274848 321.007365 
L 210.476364 335.023087 
L 212.577121 341.918584 
L 214.677879 348.023588 
L 225.181667 371.315567 
L 227.282424 375.589976 
L 233.584697 387.256204 
L 237.786212 394.53083 
L 239.88697 398.077785 
L 244.088485 404.464729 
L 248.29 410.387367 
L 252.491515 416.08782 
L 258.793788 423.993815 
L 260.894545 426.401173 
L 262.995303 428.574307 
L 267.196818 432.615286 
L 277.700606 442.915866 
L 281.902121 447.145166 
L 286.103636 451.188296 
L 292.405909 456.723976 
L 298.708182 461.89644 
L 309.21197 469.930534 
L 313.413485 472.796366 
L 319.715758 476.500131 
L 323.917273 478.399722 
L 336.521818 483.669638 
L 340.723333 485.308322 
L 344.924848 486.344328 
L 351.227121 487.635457 
L 357.529394 488.890479 
L 374.335455 492.650336 
L 389.040758 495.956662 
L 395.34303 497.079317 
L 401.645303 497.908191 
L 412.149091 498.936728 
L 418.451364 499.133782 
L 424.753636 499.124778 
L 443.660455 498.395067 
L 447.86197 498.068119 
L 456.265 497.094573 
L 462.567273 496.289207 
L 487.776364 492.523977 
L 502.481667 491.023168 
L 506.683182 490.577986 
L 512.985455 490.272242 
L 523.489242 490.256528 
L 527.690758 490.259018 
L 531.892273 490.133723 
L 542.396061 490.306553 
L 555.000606 490.864405 
L 586.51197 491.485719 
L 594.915 491.049762 
L 601.217273 490.464773 
L 605.418788 490.290436 
L 611.721061 489.735857 
L 630.627879 487.802402 
L 634.829394 487.658112 
L 639.030909 487.736834 
L 645.333182 487.928585 
L 651.635455 488.164343 
L 660.038485 488.747703 
L 668.441515 489.444692 
L 672.64303 489.735402 
L 678.945303 489.903519 
L 685.247576 489.857394 
L 695.751364 489.55617 
L 699.952879 489.533337 
L 712.557424 489.106087 
L 731.464242 489.056678 
L 741.96803 488.829658 
L 746.169545 488.751934 
L 746.169545 488.751934 
" clip-path="url(#p59786a6a0a)" style="fill: none; stroke: #f36100; stroke-opacity: 0.3; stroke-width: 2; stroke-linecap: square"/>
   </g>
   <g id="line2d_39">
    <path d="M 115.942273 74.21328 
L 118.04303 75.32296 
L 120.143788 76.759163 
L 122.244545 79.687071 
L 124.345303 82.474875 
L 126.446061 85.047619 
L 128.546818 87.207403 
L 130.647576 89.430216 
L 132.748333 91.356536 
L 134.849091 93.189632 
L 136.949848 95.006865 
L 139.050606 99.609996 
L 141.151364 104.47745 
L 143.252121 109.459182 
L 145.352879 113.96042 
L 147.453636 118.732921 
L 149.554394 123.841312 
L 151.655152 128.975609 
L 153.755909 134.435224 
L 155.856667 139.925367 
L 157.957424 145.352 
" clip-path="url(#p59786a6a0a)" style="fill: none; stroke: #000000; stroke-opacity: 0.3; stroke-width: 2; stroke-linecap: square"/>
   </g>
   <g id="line2d_40">
    <path d="M 157.957424 145.352 
L 160.058182 151.987845 
L 164.259697 166.759176 
L 168.461212 182.290902 
L 172.662727 197.713679 
L 176.864242 214.237511 
L 187.36803 257.34369 
L 191.569545 273.776634 
L 202.073333 313.584456 
L 206.274848 327.908524 
L 214.677879 355.029236 
L 218.879394 367.123507 
L 223.080909 378.100725 
L 227.282424 388.416327 
L 231.483939 398.105165 
L 235.685455 407.384567 
L 237.786212 411.801292 
L 241.987727 419.844167 
L 246.189242 427.486464 
L 250.390758 434.562164 
L 254.592273 441.105977 
L 258.793788 447.174214 
L 262.995303 452.782399 
L 265.096061 455.461167 
L 269.297576 460.325472 
L 273.499091 464.833647 
L 277.700606 468.865429 
L 281.902121 472.553737 
L 286.103636 475.899182 
L 292.405909 480.450989 
L 296.607424 483.162467 
L 302.909697 486.832287 
L 307.111212 488.941214 
L 311.312727 490.862712 
L 319.715758 494.355133 
L 323.917273 495.859184 
L 330.219545 497.756185 
L 334.421061 498.830835 
L 340.723333 500.16371 
L 347.025606 501.281475 
L 353.327879 502.239551 
L 359.630152 502.942293 
L 368.033182 503.703766 
L 382.738485 504.539776 
L 401.645303 505.315118 
L 439.458939 506.14258 
L 454.164242 506.45939 
L 464.66803 506.722382 
L 483.574848 506.858403 
L 523.489242 506.820181 
L 536.093788 507.024072 
L 594.915 507.728904 
L 618.023333 507.723781 
L 657.937727 507.15756 
L 678.945303 507.273571 
L 693.650606 507.354496 
L 708.355909 507.426227 
L 720.960455 507.357405 
L 739.867273 507.31605 
L 746.169545 507.258121 
L 746.169545 507.258121 
" clip-path="url(#p59786a6a0a)" style="fill: none; stroke: #d12003; stroke-opacity: 0.3; stroke-width: 2; stroke-linecap: square"/>
   </g>
   <g id="line2d_41">
    <path d="M 115.942273 77.940452 
L 118.04303 79.203449 
L 120.143788 80.171955 
L 122.244545 80.910351 
L 124.345303 81.588711 
L 126.446061 82.702546 
L 128.546818 84.430505 
L 130.647576 86.392936 
L 132.748333 88.633805 
L 134.849091 90.934704 
L 136.949848 93.279693 
L 139.050606 96.72825 
L 141.151364 100.831677 
L 143.252121 105.14701 
L 145.352879 110.094756 
L 147.453636 115.508966 
L 149.554394 121.140813 
L 151.655152 127.133139 
L 153.755909 132.766942 
L 155.856667 138.861932 
L 157.957424 145.352 
" clip-path="url(#p59786a6a0a)" style="fill: none; stroke: #000000; stroke-opacity: 0.3; stroke-width: 2; stroke-linecap: square"/>
   </g>
   <g id="line2d_42">
    <path d="M 157.957424 145.352 
L 160.058182 152.389879 
L 164.259697 167.807396 
L 170.56197 192.322974 
L 185.267273 246.524371 
L 193.670303 276.048123 
L 199.972576 297.164194 
L 204.174091 310.26919 
L 208.375606 322.439841 
L 212.577121 334.046077 
L 220.980152 356.333012 
L 225.181667 366.744581 
L 231.483939 381.095091 
L 235.685455 390.234327 
L 239.88697 398.82437 
L 246.189242 411.268147 
L 250.390758 419.348123 
L 254.592273 426.858828 
L 258.793788 433.823288 
L 262.995303 440.059169 
L 267.196818 445.676454 
L 271.398333 450.921686 
L 275.599848 455.695019 
L 279.801364 460.204226 
L 284.002879 464.236967 
L 288.204394 467.840989 
L 290.305152 469.464699 
L 294.506667 472.350261 
L 300.808939 476.256569 
L 305.010455 478.527641 
L 309.21197 480.52383 
L 315.514242 483.106238 
L 319.715758 484.465271 
L 334.421061 488.259028 
L 338.622576 489.08405 
L 342.824091 489.745609 
L 349.126364 490.515979 
L 359.630152 491.379886 
L 368.033182 491.870062 
L 376.436212 491.942532 
L 384.839242 492.93865 
L 386.94 493.078046 
L 397.443788 492.650385 
L 412.149091 492.024991 
L 431.055909 491.566359 
L 437.358182 491.395719 
L 452.063485 490.54911 
L 456.265 490.171443 
L 464.66803 489.214622 
L 470.970303 488.643627 
L 485.675606 486.875779 
L 489.877121 486.327414 
L 498.280152 485.271465 
L 510.884697 483.987677 
L 531.892273 481.624818 
L 546.597576 480.835934 
L 555.000606 480.645871 
L 567.605152 480.696833 
L 576.008182 480.798219 
L 607.519545 480.511117 
L 615.922576 480.115538 
L 626.426364 479.419076 
L 630.627879 479.122656 
L 647.433939 478.104769 
L 653.736212 477.656202 
L 660.038485 477.516528 
L 664.24 477.450356 
L 676.844545 477.417589 
L 689.449091 477.24591 
L 693.650606 477.40694 
L 704.154394 477.543026 
L 712.557424 477.550558 
L 718.859697 477.383246 
L 725.16197 477.272475 
L 729.363485 477.039727 
L 737.766515 476.64803 
L 746.169545 476.068826 
L 746.169545 476.068826 
" clip-path="url(#p59786a6a0a)" style="fill: none; stroke: #db2e00; stroke-opacity: 0.3; stroke-width: 2; stroke-linecap: square"/>
   </g>
   <g id="line2d_43">
    <path d="M 115.942273 74.525099 
L 118.04303 75.610896 
L 120.143788 76.574873 
L 122.244545 77.368246 
L 124.345303 78.105151 
L 126.446061 79.283439 
L 128.546818 81.086082 
L 130.647576 83.135984 
L 132.748333 85.428874 
L 134.849091 87.77612 
L 136.949848 90.112048 
L 139.050606 93.622737 
L 141.151364 97.329723 
L 143.252121 101.728142 
L 145.352879 106.606387 
L 147.453636 112.09597 
L 149.554394 118.312022 
L 151.655152 124.743047 
L 153.755909 131.182133 
L 155.856667 138.187737 
L 157.957424 145.352 
" clip-path="url(#p59786a6a0a)" style="fill: none; stroke: #000000; stroke-opacity: 0.3; stroke-width: 2; stroke-linecap: square"/>
   </g>
   <g id="line2d_44">
    <path d="M 157.957424 145.352 
L 162.158939 157.045559 
L 164.259697 163.342527 
L 170.56197 184.354691 
L 176.864242 206.120209 
L 181.065758 221.782737 
L 189.468788 253.198029 
L 193.670303 267.887382 
L 204.174091 307.898751 
L 206.274848 315.671277 
L 210.476364 329.934639 
L 212.577121 336.645998 
L 216.778636 349.140951 
L 220.980152 360.347388 
L 225.181667 370.448184 
L 229.383182 379.634838 
L 233.584697 388.473485 
L 237.786212 396.717164 
L 246.189242 411.989568 
L 252.491515 422.776202 
L 256.69303 429.694628 
L 262.995303 439.463084 
L 269.297576 448.472233 
L 273.499091 453.879374 
L 277.700606 458.906153 
L 281.902121 463.566938 
L 284.002879 465.731227 
L 288.204394 469.596804 
L 292.405909 473.016722 
L 296.607424 475.917145 
L 298.708182 477.220388 
L 302.909697 479.400594 
L 307.111212 481.381419 
L 311.312727 483.082007 
L 315.514242 484.562596 
L 321.816515 486.367359 
L 326.01803 487.437648 
L 330.219545 488.274196 
L 349.126364 490.779844 
L 355.428636 491.27523 
L 372.234697 492.5586 
L 380.637727 493.424142 
L 386.94 493.920037 
L 399.544545 494.655598 
L 405.846818 495.547682 
L 410.048333 496.03412 
L 418.451364 496.648232 
L 422.652879 496.767123 
L 431.055909 496.523572 
L 443.660455 496.32375 
L 449.962727 496.319052 
L 466.768788 497.517091 
L 491.977879 499.357149 
L 498.280152 499.539626 
L 504.582424 499.375577 
L 515.086212 498.70339 
L 519.287727 498.321532 
L 533.99303 496.643886 
L 542.396061 495.618414 
L 548.698333 495.038558 
L 552.899848 494.647282 
L 559.202121 493.757862 
L 563.403636 493.134419 
L 582.310455 490.82701 
L 597.015758 489.081772 
L 607.519545 488.864943 
L 618.023333 488.56841 
L 624.325606 488.173457 
L 643.232424 487.047627 
L 647.433939 486.578756 
L 657.937727 485.166913 
L 670.542273 483.554322 
L 681.046061 482.429305 
L 687.348333 481.977997 
L 693.650606 481.665374 
L 699.952879 481.425225 
L 704.154394 481.406015 
L 710.456667 481.433541 
L 716.758939 481.508616 
L 731.464242 481.273917 
L 741.96803 481.201406 
L 746.169545 481.083782 
L 746.169545 481.083782 
" clip-path="url(#p59786a6a0a)" style="fill: none; stroke: #f47200; stroke-opacity: 0.3; stroke-width: 2; stroke-linecap: square"/>
   </g>
   <g id="line2d_45">
    <path d="M 115.942273 81.598785 
L 118.04303 82.638851 
L 120.143788 83.560692 
L 122.244545 84.331344 
L 124.345303 85.112071 
L 126.446061 86.346489 
L 128.546818 88.2079 
L 130.647576 90.182272 
L 132.748333 92.373682 
L 134.849091 94.639196 
L 136.949848 96.910216 
L 139.050606 100.209229 
L 141.151364 103.879333 
L 143.252121 107.920163 
L 145.352879 112.373265 
L 147.453636 116.95433 
L 149.554394 122.335475 
L 151.655152 128.122776 
L 153.755909 133.511676 
L 155.856667 139.199299 
L 157.957424 145.352 
" clip-path="url(#p59786a6a0a)" style="fill: none; stroke: #000000; stroke-opacity: 0.3; stroke-width: 2; stroke-linecap: square"/>
   </g>
   <g id="line2d_46">
    <path d="M 157.957424 145.352 
L 162.158939 156.067958 
L 164.259697 162.14614 
L 168.461212 175.577687 
L 172.662727 191.096474 
L 176.864242 204.545968 
L 178.965 211.299054 
L 185.267273 228.880738 
L 189.468788 240.50334 
L 193.670303 252.819565 
L 199.972576 272.772393 
L 208.375606 297.911222 
L 210.476364 303.787239 
L 216.778636 319.964556 
L 223.080909 334.171098 
L 227.282424 342.930197 
L 229.383182 347.177265 
L 233.584697 355.005447 
L 237.786212 362.332841 
L 241.987727 368.955504 
L 244.088485 372.159333 
L 248.29 377.765868 
L 252.491515 383.054394 
L 258.793788 390.025754 
L 265.096061 396.913161 
L 271.398333 403.239068 
L 275.599848 407.14247 
L 279.801364 410.80898 
L 292.405909 422.370587 
L 298.708182 427.901647 
L 302.909697 431.39134 
L 307.111212 434.542025 
L 311.312727 437.380797 
L 315.514242 440.000063 
L 319.715758 442.241723 
L 323.917273 443.995736 
L 328.118788 445.211412 
L 332.320303 445.903424 
L 336.521818 446.17589 
L 344.924848 446.361929 
L 347.025606 446.35302 
L 365.932424 445.159549 
L 374.335455 444.316143 
L 380.637727 443.78398 
L 397.443788 441.278672 
L 403.746061 440.032098 
L 407.947576 439.073163 
L 412.149091 438.790878 
L 418.451364 436.866915 
L 422.652879 435.871565 
L 428.955152 434.011029 
L 435.257424 431.811361 
L 445.761212 428.20392 
L 452.063485 426.01186 
L 464.66803 422.052572 
L 468.869545 420.885384 
L 487.776364 413.93084 
L 489.877121 413.342218 
L 496.179394 411.074169 
L 506.683182 406.332911 
L 510.884697 404.406635 
L 515.086212 402.942419 
L 521.388485 401.249117 
L 525.59 400.181762 
L 536.093788 397.917041 
L 538.194545 397.662177 
L 540.295303 397.575049 
L 542.396061 397.237946 
L 548.698333 396.847389 
L 550.799091 396.577832 
L 555.000606 395.866712 
L 557.101364 395.565121 
L 563.403636 394.100509 
L 567.605152 392.72804 
L 571.806667 391.141086 
L 576.008182 389.108507 
L 580.209697 386.938253 
L 582.310455 385.762946 
L 584.411212 384.784036 
L 590.713485 381.519945 
L 592.814242 380.717937 
L 597.015758 379.363173 
L 599.116515 378.440979 
L 607.519545 375.510148 
L 611.721061 374.317196 
L 615.922576 373.552308 
L 618.023333 373.338275 
L 622.224848 373.19199 
L 624.325606 372.928725 
L 632.728636 372.330073 
L 636.930152 371.742922 
L 639.030909 371.281988 
L 643.232424 370.137399 
L 647.433939 369.127359 
L 649.534697 368.556336 
L 653.736212 366.988099 
L 657.937727 365.771808 
L 660.038485 365.249911 
L 664.24 363.870956 
L 668.441515 362.948983 
L 670.542273 362.657091 
L 674.743788 361.721682 
L 678.945303 360.544608 
L 681.046061 360.249661 
L 683.146818 360.108478 
L 687.348333 359.498328 
L 689.449091 359.360082 
L 695.751364 359.576768 
L 697.852121 359.491756 
L 702.053636 359.175663 
L 704.154394 359.108829 
L 708.355909 358.397658 
L 712.557424 357.612199 
L 716.758939 357.205115 
L 718.859697 356.855029 
L 729.363485 356.255644 
L 731.464242 356.207416 
L 735.665758 355.823738 
L 741.96803 355.649966 
L 746.169545 354.987937 
L 746.169545 354.987937 
" clip-path="url(#p59786a6a0a)" style="fill: none; stroke: #f9a800; stroke-opacity: 0.3; stroke-width: 2; stroke-linecap: square"/>
   </g>
   <g id="line2d_47">
    <path d="M 115.942273 82.580337 
L 118.04303 84.900181 
L 120.143788 86.948393 
L 122.244545 88.509605 
L 124.345303 89.728527 
L 126.446061 90.985088 
L 128.546818 91.872614 
L 130.647576 92.996574 
L 132.748333 94.367378 
L 134.849091 95.832212 
L 136.949848 97.68214 
L 139.050606 101.7109 
L 141.151364 106.326537 
L 143.252121 110.813398 
L 145.352879 115.608287 
L 147.453636 120.61789 
L 149.554394 125.674738 
L 151.655152 130.49885 
L 153.755909 135.422913 
L 155.856667 140.34182 
L 157.957424 145.352 
" clip-path="url(#p59786a6a0a)" style="fill: none; stroke: #000000; stroke-opacity: 0.3; stroke-width: 2; stroke-linecap: square"/>
   </g>
   <g id="line2d_48">
    <path d="M 157.957424 145.352 
L 160.058182 152.043579 
L 162.158939 159.218619 
L 164.259697 166.867684 
L 168.461212 183.065822 
L 174.763485 204.30115 
L 185.267273 239.795833 
L 199.972576 295.202573 
L 204.174091 310.466368 
L 220.980152 366.551962 
L 225.181667 379.333488 
L 229.383182 391.089838 
L 231.483939 396.57749 
L 235.685455 406.749283 
L 239.88697 416.343947 
L 244.088485 425.081776 
L 250.390758 437.697836 
L 254.592273 445.637316 
L 258.793788 452.8186 
L 262.995303 459.365888 
L 267.196818 465.385742 
L 271.398333 471.080606 
L 275.599848 476.41639 
L 279.801364 481.300329 
L 284.002879 485.705772 
L 286.103636 487.822936 
L 290.305152 491.57147 
L 294.506667 494.851145 
L 298.708182 497.67883 
L 302.909697 500.165999 
L 307.111212 502.344852 
L 311.312727 504.216325 
L 315.514242 505.850925 
L 319.715758 507.24971 
L 323.917273 508.465478 
L 330.219545 509.948846 
L 334.421061 510.785163 
L 338.622576 511.441691 
L 344.924848 512.229506 
L 351.227121 512.839734 
L 359.630152 513.428414 
L 370.133939 513.90587 
L 382.738485 514.299954 
L 418.451364 515.059877 
L 456.265 515.268747 
L 538.194545 515.461246 
L 746.169545 515.463522 
L 746.169545 515.463522 
" clip-path="url(#p59786a6a0a)" style="fill: none; stroke: #340652; stroke-opacity: 0.3; stroke-width: 2; stroke-linecap: square"/>
   </g>
   <g id="line2d_49">
    <path d="M 115.942273 78.17546 
L 118.04303 79.218615 
L 120.143788 80.136933 
L 122.244545 80.857111 
L 124.345303 81.551975 
L 126.446061 82.708229 
L 128.546818 84.502261 
L 130.647576 86.486801 
L 132.748333 88.68023 
L 134.849091 90.949263 
L 136.949848 93.213195 
L 139.050606 96.941918 
L 141.151364 100.926691 
L 143.252121 104.957627 
L 145.352879 109.308334 
L 147.453636 114.273782 
L 149.554394 120.069165 
L 151.655152 126.204154 
L 153.755909 132.429439 
L 155.856667 138.972297 
L 157.957424 145.352 
" clip-path="url(#p59786a6a0a)" style="fill: none; stroke: #000000; stroke-opacity: 0.3; stroke-width: 2; stroke-linecap: square"/>
   </g>
   <g id="line2d_50">
    <path d="M 764.551174 466.998045 
L 774.004583 466.998045 
L 774.004583 407.080856 
L 764.551174 407.080856 
L 764.551174 466.998045 
" clip-path="url(#p59786a6a0a)" style="fill: none; stroke: #88b9d3; stroke-width: 2; stroke-linecap: square"/>
   </g>
   <g id="line2d_51">
    <path d="M 769.277879 466.998045 
L 769.277879 503.761186 
" clip-path="url(#p59786a6a0a)" style="fill: none; stroke: #88b9d3; stroke-linecap: square"/>
   </g>
   <g id="line2d_52">
    <path d="M 769.277879 407.080856 
L 769.277879 335.893571 
" clip-path="url(#p59786a6a0a)" style="fill: none; stroke: #88b9d3; stroke-linecap: square"/>
   </g>
   <g id="line2d_53">
    <path d="M 766.914527 503.761186 
L 771.641231 503.761186 
" clip-path="url(#p59786a6a0a)" style="fill: none; stroke: #88b9d3; stroke-linecap: square"/>
   </g>
   <g id="line2d_54">
    <path d="M 766.914527 335.893571 
L 771.641231 335.893571 
" clip-path="url(#p59786a6a0a)" style="fill: none; stroke: #88b9d3; stroke-linecap: square"/>
   </g>
   <g id="line2d_55">
    <path d="M 777.15572 486.756062 
L 786.609129 486.756062 
L 786.609129 439.697019 
L 777.15572 439.697019 
L 777.15572 486.756062 
" clip-path="url(#p59786a6a0a)" style="fill: none; stroke: #f79400; stroke-width: 2; stroke-linecap: square"/>
   </g>
   <g id="line2d_56">
    <path d="M 781.882424 486.756062 
L 781.882424 508.42966 
" clip-path="url(#p59786a6a0a)" style="fill: none; stroke: #f79400; stroke-linecap: square"/>
   </g>
   <g id="line2d_57">
    <path d="M 781.882424 439.697019 
L 781.882424 360.306023 
" clip-path="url(#p59786a6a0a)" style="fill: none; stroke: #f79400; stroke-linecap: square"/>
   </g>
   <g id="line2d_58">
    <path d="M 779.519072 508.42966 
L 784.245777 508.42966 
" clip-path="url(#p59786a6a0a)" style="fill: none; stroke: #f79400; stroke-linecap: square"/>
   </g>
   <g id="line2d_59">
    <path d="M 779.519072 360.306023 
L 784.245777 360.306023 
" clip-path="url(#p59786a6a0a)" style="fill: none; stroke: #f79400; stroke-linecap: square"/>
   </g>
   <g id="line2d_60">
    <path d="M 789.760265 515.56 
L 799.213674 515.56 
L 799.213674 495.176137 
L 789.760265 495.176137 
L 789.760265 515.56 
" clip-path="url(#p59786a6a0a)" style="fill: none; stroke: #bb0817; stroke-width: 2; stroke-linecap: square"/>
   </g>
   <g id="line2d_61">
    <path d="M 794.48697 515.56 
L 794.48697 515.56 
" clip-path="url(#p59786a6a0a)" style="fill: none; stroke: #bb0817; stroke-linecap: square"/>
   </g>
   <g id="line2d_62">
    <path d="M 794.48697 495.176137 
L 794.48697 434.06329 
" clip-path="url(#p59786a6a0a)" style="fill: none; stroke: #bb0817; stroke-linecap: square"/>
   </g>
   <g id="line2d_63">
    <path d="M 792.123617 515.56 
L 796.850322 515.56 
" clip-path="url(#p59786a6a0a)" style="fill: none; stroke: #bb0817; stroke-linecap: square"/>
   </g>
   <g id="line2d_64">
    <path d="M 792.123617 434.06329 
L 796.850322 434.06329 
" clip-path="url(#p59786a6a0a)" style="fill: none; stroke: #bb0817; stroke-linecap: square"/>
   </g>
   <g id="line2d_65">
    <path d="M 764.551174 462.282817 
L 774.004583 462.282817 
" clip-path="url(#p59786a6a0a)" style="fill: none; stroke: #88b9d3; stroke-width: 4; stroke-linecap: square"/>
   </g>
   <g id="line2d_66">
    <path d="M 777.15572 480.740134 
L 786.609129 480.740134 
" clip-path="url(#p59786a6a0a)" style="fill: none; stroke: #f79400; stroke-width: 4; stroke-linecap: square"/>
   </g>
   <g id="line2d_67">
    <path d="M 789.760265 510.792573 
L 799.213674 510.792573 
" clip-path="url(#p59786a6a0a)" style="fill: none; stroke: #bb0817; stroke-width: 4; stroke-linecap: square"/>
   </g>
   <g id="patch_3">
    <path d="M 109.64 515.56 
L 109.64 52.8 
" style="fill: none; stroke: #000000; stroke-width: 0.8; stroke-linejoin: miter; stroke-linecap: square"/>
   </g>
   <g id="patch_4">
    <path d="M 109.64 515.56 
L 802.89 515.56 
" style="fill: none; stroke: #000000; stroke-width: 0.8; stroke-linejoin: miter; stroke-linecap: square"/>
   </g>
   <g id="text_14">
    <!-- +1.5C -->
    <g style="fill: #88b9d3" transform="translate(802.89 467.249692) scale(0.18 -0.18)">
     <defs>
      <path id="DejaVuSans-Bold-2b" d="M 3053 4013 
L 3053 2375 
L 4684 2375 
L 4684 1638 
L 3053 1638 
L 3053 0 
L 2309 0 
L 2309 1638 
L 678 1638 
L 678 2375 
L 2309 2375 
L 2309 4013 
L 3053 4013 
z
" transform="scale(0.015625)"/>
      <path id="DejaVuSans-Bold-31" d="M 750 831 
L 1813 831 
L 1813 3847 
L 722 3622 
L 722 4441 
L 1806 4666 
L 2950 4666 
L 2950 831 
L 4013 831 
L 4013 0 
L 750 0 
L 750 831 
z
" transform="scale(0.015625)"/>
      <path id="DejaVuSans-Bold-2e" d="M 653 1209 
L 1778 1209 
L 1778 0 
L 653 0 
L 653 1209 
z
" transform="scale(0.015625)"/>
      <path id="DejaVuSans-Bold-35" d="M 678 4666 
L 3669 4666 
L 3669 3781 
L 1638 3781 
L 1638 3059 
Q 1775 3097 1914 3117 
Q 2053 3138 2203 3138 
Q 3056 3138 3531 2711 
Q 4006 2284 4006 1522 
Q 4006 766 3489 337 
Q 2972 -91 2053 -91 
Q 1656 -91 1267 -14 
Q 878 63 494 219 
L 494 1166 
Q 875 947 1217 837 
Q 1559 728 1863 728 
Q 2300 728 2551 942 
Q 2803 1156 2803 1522 
Q 2803 1891 2551 2103 
Q 2300 2316 1863 2316 
Q 1603 2316 1309 2248 
Q 1016 2181 678 2041 
L 678 4666 
z
" transform="scale(0.015625)"/>
      <path id="DejaVuSans-Bold-b0" d="M 1600 4288 
Q 1375 4288 1219 4131 
Q 1063 3975 1063 3750 
Q 1063 3525 1217 3372 
Q 1372 3219 1600 3219 
Q 1825 3219 1981 3373 
Q 2138 3528 2138 3750 
Q 2138 3975 1980 4131 
Q 1822 4288 1600 4288 
z
M 1600 4794 
Q 1806 4794 1997 4714 
Q 2188 4634 2338 4488 
Q 2484 4338 2561 4150 
Q 2638 3963 2638 3750 
Q 2638 3541 2561 3352 
Q 2484 3163 2344 3022 
Q 2194 2872 2000 2792 
Q 1806 2713 1594 2713 
Q 1153 2713 854 3011 
Q 556 3309 556 3750 
Q 556 4191 857 4492 
Q 1159 4794 1600 4794 
z
" transform="scale(0.015625)"/>
      <path id="DejaVuSans-Bold-43" d="M 4288 256 
Q 3956 84 3597 -3 
Q 3238 -91 2847 -91 
Q 1681 -91 1000 561 
Q 319 1213 319 2328 
Q 319 3447 1000 4098 
Q 1681 4750 2847 4750 
Q 3238 4750 3597 4662 
Q 3956 4575 4288 4403 
L 4288 3438 
Q 3953 3666 3628 3772 
Q 3303 3878 2944 3878 
Q 2300 3878 1931 3465 
Q 1563 3053 1563 2328 
Q 1563 1606 1931 1193 
Q 2300 781 2944 781 
Q 3303 781 3628 887 
Q 3953 994 4288 1222 
L 4288 256 
z
" transform="scale(0.015625)"/>
     </defs>
     <use xlink:href="#DejaVuSans-Bold-2b"/>
     <use xlink:href="#DejaVuSans-Bold-31" x="83.789062"/>
     <use xlink:href="#DejaVuSans-Bold-2e" x="153.369141"/>
     <use xlink:href="#DejaVuSans-Bold-35" x="191.357422"/>
     <use xlink:href="#DejaVuSans-Bold-b0" x="260.9375"/>
     <use xlink:href="#DejaVuSans-Bold-43" x="310.9375"/>
    </g>
   </g>
   <g id="text_15">
    <!-- +2.0C -->
    <g style="fill: #f79400" transform="translate(802.89 485.707009) scale(0.18 -0.18)">
     <defs>
      <path id="DejaVuSans-Bold-32" d="M 1844 884 
L 3897 884 
L 3897 0 
L 506 0 
L 506 884 
L 2209 2388 
Q 2438 2594 2547 2791 
Q 2656 2988 2656 3200 
Q 2656 3528 2436 3728 
Q 2216 3928 1850 3928 
Q 1569 3928 1234 3808 
Q 900 3688 519 3450 
L 519 4475 
Q 925 4609 1322 4679 
Q 1719 4750 2100 4750 
Q 2938 4750 3402 4381 
Q 3866 4013 3866 3353 
Q 3866 2972 3669 2642 
Q 3472 2313 2841 1759 
L 1844 884 
z
" transform="scale(0.015625)"/>
      <path id="DejaVuSans-Bold-30" d="M 2944 2338 
Q 2944 3213 2780 3570 
Q 2616 3928 2228 3928 
Q 1841 3928 1675 3570 
Q 1509 3213 1509 2338 
Q 1509 1453 1675 1090 
Q 1841 728 2228 728 
Q 2613 728 2778 1090 
Q 2944 1453 2944 2338 
z
M 4147 2328 
Q 4147 1169 3647 539 
Q 3147 -91 2228 -91 
Q 1306 -91 806 539 
Q 306 1169 306 2328 
Q 306 3491 806 4120 
Q 1306 4750 2228 4750 
Q 3147 4750 3647 4120 
Q 4147 3491 4147 2328 
z
" transform="scale(0.015625)"/>
     </defs>
     <use xlink:href="#DejaVuSans-Bold-2b"/>
     <use xlink:href="#DejaVuSans-Bold-32" x="83.789062"/>
     <use xlink:href="#DejaVuSans-Bold-2e" x="153.369141"/>
     <use xlink:href="#DejaVuSans-Bold-30" x="191.357422"/>
     <use xlink:href="#DejaVuSans-Bold-b0" x="260.9375"/>
     <use xlink:href="#DejaVuSans-Bold-43" x="310.9375"/>
    </g>
   </g>
   <g id="text_16">
    <!-- +3.0C -->
    <g style="fill: #bb0817" transform="translate(802.89 515.759448) scale(0.18 -0.18)">
     <defs>
      <path id="DejaVuSans-Bold-33" d="M 2981 2516 
Q 3453 2394 3698 2092 
Q 3944 1791 3944 1325 
Q 3944 631 3412 270 
Q 2881 -91 1863 -91 
Q 1503 -91 1142 -33 
Q 781 25 428 141 
L 428 1069 
Q 766 900 1098 814 
Q 1431 728 1753 728 
Q 2231 728 2486 893 
Q 2741 1059 2741 1369 
Q 2741 1688 2480 1852 
Q 2219 2016 1709 2016 
L 1228 2016 
L 1228 2791 
L 1734 2791 
Q 2188 2791 2409 2933 
Q 2631 3075 2631 3366 
Q 2631 3634 2415 3781 
Q 2200 3928 1806 3928 
Q 1516 3928 1219 3862 
Q 922 3797 628 3669 
L 628 4550 
Q 984 4650 1334 4700 
Q 1684 4750 2022 4750 
Q 2931 4750 3382 4451 
Q 3834 4153 3834 3553 
Q 3834 3144 3618 2883 
Q 3403 2622 2981 2516 
z
" transform="scale(0.015625)"/>
     </defs>
     <use xlink:href="#DejaVuSans-Bold-2b"/>
     <use xlink:href="#DejaVuSans-Bold-33" x="83.789062"/>
     <use xlink:href="#DejaVuSans-Bold-2e" x="153.369141"/>
     <use xlink:href="#DejaVuSans-Bold-30" x="191.357422"/>
     <use xlink:href="#DejaVuSans-Bold-b0" x="260.9375"/>
     <use xlink:href="#DejaVuSans-Bold-43" x="310.9375"/>
    </g>
   </g>
   <g id="text_17">
    <!-- Glaciers of Western Canada &amp; US -->
    <g transform="translate(231.925 46.8) scale(0.24 -0.24)">
     <defs>
      <path id="DejaVuSans-Bold-47" d="M 4781 347 
Q 4331 128 3847 18 
Q 3363 -91 2847 -91 
Q 1681 -91 1000 561 
Q 319 1213 319 2328 
Q 319 3456 1012 4103 
Q 1706 4750 2913 4750 
Q 3378 4750 3804 4662 
Q 4231 4575 4609 4403 
L 4609 3438 
Q 4219 3659 3833 3768 
Q 3447 3878 3059 3878 
Q 2341 3878 1952 3476 
Q 1563 3075 1563 2328 
Q 1563 1588 1938 1184 
Q 2313 781 3003 781 
Q 3191 781 3352 804 
Q 3513 828 3641 878 
L 3641 1784 
L 2906 1784 
L 2906 2591 
L 4781 2591 
L 4781 347 
z
" transform="scale(0.015625)"/>
      <path id="DejaVuSans-Bold-6c" d="M 538 4863 
L 1656 4863 
L 1656 0 
L 538 0 
L 538 4863 
z
" transform="scale(0.015625)"/>
      <path id="DejaVuSans-Bold-73" d="M 3272 3391 
L 3272 2541 
Q 2913 2691 2578 2766 
Q 2244 2841 1947 2841 
Q 1628 2841 1473 2761 
Q 1319 2681 1319 2516 
Q 1319 2381 1436 2309 
Q 1553 2238 1856 2203 
L 2053 2175 
Q 2913 2066 3209 1816 
Q 3506 1566 3506 1031 
Q 3506 472 3093 190 
Q 2681 -91 1863 -91 
Q 1516 -91 1145 -36 
Q 775 19 384 128 
L 384 978 
Q 719 816 1070 734 
Q 1422 653 1784 653 
Q 2113 653 2278 743 
Q 2444 834 2444 1013 
Q 2444 1163 2330 1236 
Q 2216 1309 1875 1350 
L 1678 1375 
Q 931 1469 631 1722 
Q 331 1975 331 2491 
Q 331 3047 712 3315 
Q 1094 3584 1881 3584 
Q 2191 3584 2531 3537 
Q 2872 3491 3272 3391 
z
" transform="scale(0.015625)"/>
      <path id="DejaVuSans-Bold-57" d="M 191 4666 
L 1344 4666 
L 2150 1275 
L 2950 4666 
L 4109 4666 
L 4909 1275 
L 5716 4666 
L 6859 4666 
L 5759 0 
L 4372 0 
L 3525 3547 
L 2688 0 
L 1300 0 
L 191 4666 
z
" transform="scale(0.015625)"/>
      <path id="DejaVuSans-Bold-74" d="M 1759 4494 
L 1759 3500 
L 2913 3500 
L 2913 2700 
L 1759 2700 
L 1759 1216 
Q 1759 972 1856 886 
Q 1953 800 2241 800 
L 2816 800 
L 2816 0 
L 1856 0 
Q 1194 0 917 276 
Q 641 553 641 1216 
L 641 2700 
L 84 2700 
L 84 3500 
L 641 3500 
L 641 4494 
L 1759 4494 
z
" transform="scale(0.015625)"/>
      <path id="DejaVuSans-Bold-64" d="M 2919 2988 
L 2919 4863 
L 4044 4863 
L 4044 0 
L 2919 0 
L 2919 506 
Q 2688 197 2409 53 
Q 2131 -91 1766 -91 
Q 1119 -91 703 423 
Q 288 938 288 1747 
Q 288 2556 703 3070 
Q 1119 3584 1766 3584 
Q 2128 3584 2408 3439 
Q 2688 3294 2919 2988 
z
M 2181 722 
Q 2541 722 2730 984 
Q 2919 1247 2919 1747 
Q 2919 2247 2730 2509 
Q 2541 2772 2181 2772 
Q 1825 2772 1636 2509 
Q 1447 2247 1447 1747 
Q 1447 1247 1636 984 
Q 1825 722 2181 722 
z
" transform="scale(0.015625)"/>
      <path id="DejaVuSans-Bold-26" d="M 2497 3097 
L 3775 1691 
Q 3941 1909 4027 2181 
Q 4113 2453 4128 2797 
L 5100 2797 
Q 5053 2228 4879 1784 
Q 4706 1341 4397 1006 
L 5313 0 
L 3988 0 
L 3681 341 
Q 3353 122 2990 15 
Q 2628 -91 2222 -91 
Q 1400 -91 892 342 
Q 384 775 384 1459 
Q 384 1916 607 2267 
Q 831 2619 1338 2950 
Q 1206 3116 1143 3281 
Q 1081 3447 1081 3628 
Q 1081 4138 1478 4444 
Q 1875 4750 2534 4750 
Q 2819 4750 3126 4704 
Q 3434 4659 3769 4569 
L 3769 3700 
Q 3475 3850 3212 3922 
Q 2950 3994 2700 3994 
Q 2459 3994 2326 3901 
Q 2194 3809 2194 3641 
Q 2194 3534 2270 3398 
Q 2347 3263 2497 3097 
z
M 1875 2322 
Q 1672 2175 1569 1989 
Q 1466 1803 1466 1581 
Q 1466 1222 1731 969 
Q 1997 716 2369 716 
Q 2578 716 2759 780 
Q 2941 844 3097 972 
L 1875 2322 
z
" transform="scale(0.015625)"/>
      <path id="DejaVuSans-Bold-55" d="M 588 4666 
L 1791 4666 
L 1791 1869 
Q 1791 1291 1980 1042 
Q 2169 794 2597 794 
Q 3028 794 3217 1042 
Q 3406 1291 3406 1869 
L 3406 4666 
L 4609 4666 
L 4609 1869 
Q 4609 878 4112 393 
Q 3616 -91 2597 -91 
Q 1581 -91 1084 393 
Q 588 878 588 1869 
L 588 4666 
z
" transform="scale(0.015625)"/>
      <path id="DejaVuSans-Bold-53" d="M 3834 4519 
L 3834 3531 
Q 3450 3703 3084 3790 
Q 2719 3878 2394 3878 
Q 1963 3878 1756 3759 
Q 1550 3641 1550 3391 
Q 1550 3203 1689 3098 
Q 1828 2994 2194 2919 
L 2706 2816 
Q 3484 2659 3812 2340 
Q 4141 2022 4141 1434 
Q 4141 663 3683 286 
Q 3225 -91 2284 -91 
Q 1841 -91 1394 -6 
Q 947 78 500 244 
L 500 1259 
Q 947 1022 1364 901 
Q 1781 781 2169 781 
Q 2563 781 2772 912 
Q 2981 1044 2981 1288 
Q 2981 1506 2839 1625 
Q 2697 1744 2272 1838 
L 1806 1941 
Q 1106 2091 782 2419 
Q 459 2747 459 3303 
Q 459 4000 909 4375 
Q 1359 4750 2203 4750 
Q 2588 4750 2994 4692 
Q 3400 4634 3834 4519 
z
" transform="scale(0.015625)"/>
     </defs>
     <use xlink:href="#DejaVuSans-Bold-47"/>
     <use xlink:href="#DejaVuSans-Bold-6c" x="82.080078"/>
     <use xlink:href="#DejaVuSans-Bold-61" x="116.357422"/>
     <use xlink:href="#DejaVuSans-Bold-63" x="183.837891"/>
     <use xlink:href="#DejaVuSans-Bold-69" x="243.115234"/>
     <use xlink:href="#DejaVuSans-Bold-65" x="277.392578"/>
     <use xlink:href="#DejaVuSans-Bold-72" x="345.214844"/>
     <use xlink:href="#DejaVuSans-Bold-73" x="394.53125"/>
     <use xlink:href="#DejaVuSans-Bold-20" x="454.052734"/>
     <use xlink:href="#DejaVuSans-Bold-6f" x="488.867188"/>
     <use xlink:href="#DejaVuSans-Bold-66" x="557.568359"/>
     <use xlink:href="#DejaVuSans-Bold-20" x="601.074219"/>
     <use xlink:href="#DejaVuSans-Bold-57" x="635.888672"/>
     <use xlink:href="#DejaVuSans-Bold-65" x="742.566406"/>
     <use xlink:href="#DejaVuSans-Bold-73" x="810.388672"/>
     <use xlink:href="#DejaVuSans-Bold-74" x="869.910156"/>
     <use xlink:href="#DejaVuSans-Bold-65" x="917.712891"/>
     <use xlink:href="#DejaVuSans-Bold-72" x="985.535156"/>
     <use xlink:href="#DejaVuSans-Bold-6e" x="1034.851562"/>
     <use xlink:href="#DejaVuSans-Bold-20" x="1106.042969"/>
     <use xlink:href="#DejaVuSans-Bold-43" x="1140.857422"/>
     <use xlink:href="#DejaVuSans-Bold-61" x="1214.246094"/>
     <use xlink:href="#DejaVuSans-Bold-6e" x="1281.726562"/>
     <use xlink:href="#DejaVuSans-Bold-61" x="1352.917969"/>
     <use xlink:href="#DejaVuSans-Bold-64" x="1420.398438"/>
     <use xlink:href="#DejaVuSans-Bold-61" x="1491.980469"/>
     <use xlink:href="#DejaVuSans-Bold-20" x="1559.460938"/>
     <use xlink:href="#DejaVuSans-Bold-26" x="1594.275391"/>
     <use xlink:href="#DejaVuSans-Bold-20" x="1681.482422"/>
     <use xlink:href="#DejaVuSans-Bold-55" x="1716.296875"/>
     <use xlink:href="#DejaVuSans-Bold-53" x="1797.498047"/>
    </g>
   </g>
   <g id="LineCollection_1">
    <path d="M 322.866894 414.973257 
L 329.169167 414.973257 
" clip-path="url(#p59786a6a0a)" style="fill: none; stroke: #70b8ff; stroke-opacity: 0.5; stroke-width: 3"/>
   </g>
   <g id="LineCollection_2">
    <path d="M 322.866894 424.911148 
L 329.169167 424.911148 
" clip-path="url(#p59786a6a0a)" style="fill: none; stroke: #88b9d3; stroke-opacity: 0.5; stroke-width: 3"/>
   </g>
   <g id="LineCollection_3">
    <path d="M 322.866894 434.470258 
L 329.169167 434.470258 
" clip-path="url(#p59786a6a0a)" style="fill: none; stroke: #a9b996; stroke-opacity: 0.5; stroke-width: 3"/>
   </g>
   <g id="LineCollection_4">
    <path d="M 322.866894 443.405602 
L 329.169167 443.405602 
" clip-path="url(#p59786a6a0a)" style="fill: none; stroke: #caba59; stroke-opacity: 0.5; stroke-width: 3"/>
   </g>
   <g id="LineCollection_5">
    <path d="M 322.866894 451.547368 
L 329.169167 451.547368 
" clip-path="url(#p59786a6a0a)" style="fill: none; stroke: #ebbb1c; stroke-opacity: 0.5; stroke-width: 3"/>
   </g>
   <g id="LineCollection_6">
    <path d="M 322.866894 458.889987 
L 329.169167 458.889987 
" clip-path="url(#p59786a6a0a)" style="fill: none; stroke: #f9ad00; stroke-opacity: 0.5; stroke-width: 3"/>
   </g>
   <g id="LineCollection_7">
    <path d="M 322.866894 465.525353 
L 329.169167 465.525353 
" clip-path="url(#p59786a6a0a)" style="fill: none; stroke: #f79400; stroke-opacity: 0.5; stroke-width: 3"/>
   </g>
   <g id="LineCollection_8">
    <path d="M 322.866894 471.575346 
L 329.169167 471.575346 
" clip-path="url(#p59786a6a0a)" style="fill: none; stroke: #f57b00; stroke-opacity: 0.5; stroke-width: 3"/>
   </g>
   <g id="LineCollection_9">
    <path d="M 322.866894 477.165735 
L 329.169167 477.165735 
" clip-path="url(#p59786a6a0a)" style="fill: none; stroke: #f36100; stroke-opacity: 0.5; stroke-width: 3"/>
   </g>
   <g id="LineCollection_10">
    <path d="M 322.866894 482.391256 
L 329.169167 482.391256 
" clip-path="url(#p59786a6a0a)" style="fill: none; stroke: #ef4d00; stroke-opacity: 0.5; stroke-width: 3"/>
   </g>
   <g id="LineCollection_11">
    <path d="M 322.866894 487.293396 
L 329.169167 487.293396 
" clip-path="url(#p59786a6a0a)" style="fill: none; stroke: #e84200; stroke-opacity: 0.5; stroke-width: 3"/>
   </g>
   <g id="LineCollection_12">
    <path d="M 322.866894 491.853934 
L 329.169167 491.853934 
" clip-path="url(#p59786a6a0a)" style="fill: none; stroke: #e13700; stroke-opacity: 0.5; stroke-width: 3"/>
   </g>
   <g id="LineCollection_13">
    <path d="M 322.866894 496.015536 
L 329.169167 496.015536 
" clip-path="url(#p59786a6a0a)" style="fill: none; stroke: #da2c00; stroke-opacity: 0.5; stroke-width: 3"/>
   </g>
   <g id="LineCollection_14">
    <path d="M 322.866894 499.712284 
L 329.169167 499.712284 
" clip-path="url(#p59786a6a0a)" style="fill: none; stroke: #d32201; stroke-opacity: 0.5; stroke-width: 3"/>
   </g>
   <g id="LineCollection_15">
    <path d="M 322.866894 502.885075 
L 329.169167 502.885075 
" clip-path="url(#p59786a6a0a)" style="fill: none; stroke: #cb1908; stroke-opacity: 0.5; stroke-width: 3"/>
   </g>
   <g id="LineCollection_16">
    <path d="M 322.866894 505.486999 
L 329.169167 505.486999 
" clip-path="url(#p59786a6a0a)" style="fill: none; stroke: #c31110; stroke-opacity: 0.5; stroke-width: 3"/>
   </g>
   <g id="LineCollection_17">
    <path d="M 322.866894 507.498304 
L 329.169167 507.498304 
" clip-path="url(#p59786a6a0a)" style="fill: none; stroke: #bb0817; stroke-opacity: 0.5; stroke-width: 3"/>
   </g>
   <g id="LineCollection_18">
    <path d="M 322.866894 508.931102 
L 329.169167 508.931102 
" clip-path="url(#p59786a6a0a)" style="fill: none; stroke: #b3001e; stroke-opacity: 0.5; stroke-width: 3"/>
   </g>
   <g id="LineCollection_19">
    <path d="M 322.866894 509.826042 
L 329.169167 509.826042 
" clip-path="url(#p59786a6a0a)" style="fill: none; stroke: #a70026; stroke-opacity: 0.5; stroke-width: 3"/>
   </g>
   <g id="LineCollection_20">
    <path d="M 322.866894 510.270794 
L 329.169167 510.270794 
" clip-path="url(#p59786a6a0a)" style="fill: none; stroke: #9b002e; stroke-opacity: 0.5; stroke-width: 3"/>
   </g>
   <g id="LineCollection_21">
    <path d="M 322.866894 510.43445 
L 329.169167 510.43445 
" clip-path="url(#p59786a6a0a)" style="fill: none; stroke: #8f0036; stroke-opacity: 0.5; stroke-width: 3"/>
   </g>
   <g id="LineCollection_22">
    <path d="M 322.866894 510.56983 
L 329.169167 510.56983 
" clip-path="url(#p59786a6a0a)" style="fill: none; stroke: #82003e; stroke-opacity: 0.5; stroke-width: 3"/>
   </g>
   <g id="LineCollection_23">
    <path d="M 322.866894 510.887438 
L 329.169167 510.887438 
" clip-path="url(#p59786a6a0a)" style="fill: none; stroke: #780047; stroke-opacity: 0.5; stroke-width: 3"/>
   </g>
   <g id="LineCollection_24">
    <path d="M 322.866894 511.249578 
L 329.169167 511.249578 
" clip-path="url(#p59786a6a0a)" style="fill: none; stroke: #6d0050; stroke-opacity: 0.5; stroke-width: 3"/>
   </g>
   <g id="LineCollection_25">
    <path d="M 322.866894 511.431292 
L 329.169167 511.431292 
" clip-path="url(#p59786a6a0a)" style="fill: none; stroke: #630059; stroke-opacity: 0.5; stroke-width: 3"/>
   </g>
   <g id="LineCollection_26">
    <path d="M 322.866894 511.494803 
L 329.169167 511.494803 
" clip-path="url(#p59786a6a0a)" style="fill: none; stroke: #590063; stroke-opacity: 0.5; stroke-width: 3"/>
   </g>
   <g id="LineCollection_27">
    <path d="M 322.866894 511.524595 
L 329.169167 511.524595 
" clip-path="url(#p59786a6a0a)" style="fill: none; stroke: #4f0162; stroke-opacity: 0.5; stroke-width: 3"/>
   </g>
   <g id="LineCollection_28">
    <path d="M 322.866894 511.627238 
L 329.169167 511.627238 
" clip-path="url(#p59786a6a0a)" style="fill: none; stroke: #45035c; stroke-opacity: 0.5; stroke-width: 3"/>
   </g>
   <g id="LineCollection_29">
    <path d="M 322.866894 511.868192 
L 329.169167 511.868192 
" clip-path="url(#p59786a6a0a)" style="fill: none; stroke: #3b0556; stroke-opacity: 0.5; stroke-width: 3"/>
   </g>
   <g id="LineCollection_30">
    <path d="M 322.866894 512.216674 
L 329.169167 512.216674 
" clip-path="url(#p59786a6a0a)" style="fill: none; stroke: #310750; stroke-opacity: 0.5; stroke-width: 3"/>
   </g>
   <g id="LineCollection_31">
    <path d="M 322.866894 512.597655 
L 329.169167 512.597655 
" clip-path="url(#p59786a6a0a)" style="fill: none; stroke: #2b084d; stroke-opacity: 0.5; stroke-width: 3"/>
   </g>
   <g id="LineCollection_32">
    <path d="M 751.421439 458.323116 
L 757.723712 458.323116 
" clip-path="url(#p59786a6a0a)" style="fill: none; stroke: #70b8ff; stroke-opacity: 0.5; stroke-width: 3"/>
   </g>
   <g id="LineCollection_33">
    <path d="M 751.421439 462.282817 
L 757.723712 462.282817 
" clip-path="url(#p59786a6a0a)" style="fill: none; stroke: #88b9d3; stroke-opacity: 0.5; stroke-width: 3"/>
   </g>
   <g id="LineCollection_34">
    <path d="M 751.421439 466.135413 
L 757.723712 466.135413 
" clip-path="url(#p59786a6a0a)" style="fill: none; stroke: #a9b996; stroke-opacity: 0.5; stroke-width: 3"/>
   </g>
   <g id="LineCollection_35">
    <path d="M 751.421439 469.894214 
L 757.723712 469.894214 
" clip-path="url(#p59786a6a0a)" style="fill: none; stroke: #caba59; stroke-opacity: 0.5; stroke-width: 3"/>
   </g>
   <g id="LineCollection_36">
    <path d="M 751.421439 473.574003 
L 757.723712 473.574003 
" clip-path="url(#p59786a6a0a)" style="fill: none; stroke: #ebbb1c; stroke-opacity: 0.5; stroke-width: 3"/>
   </g>
   <g id="LineCollection_37">
    <path d="M 751.421439 477.187454 
L 757.723712 477.187454 
" clip-path="url(#p59786a6a0a)" style="fill: none; stroke: #f9ad00; stroke-opacity: 0.5; stroke-width: 3"/>
   </g>
   <g id="LineCollection_38">
    <path d="M 751.421439 480.740134 
L 757.723712 480.740134 
" clip-path="url(#p59786a6a0a)" style="fill: none; stroke: #f79400; stroke-opacity: 0.5; stroke-width: 3"/>
   </g>
   <g id="LineCollection_39">
    <path d="M 751.421439 484.228079 
L 757.723712 484.228079 
" clip-path="url(#p59786a6a0a)" style="fill: none; stroke: #f57b00; stroke-opacity: 0.5; stroke-width: 3"/>
   </g>
   <g id="LineCollection_40">
    <path d="M 751.421439 487.639629 
L 757.723712 487.639629 
" clip-path="url(#p59786a6a0a)" style="fill: none; stroke: #f36100; stroke-opacity: 0.5; stroke-width: 3"/>
   </g>
   <g id="LineCollection_41">
    <path d="M 751.421439 490.958714 
L 757.723712 490.958714 
" clip-path="url(#p59786a6a0a)" style="fill: none; stroke: #ef4d00; stroke-opacity: 0.5; stroke-width: 3"/>
   </g>
   <g id="LineCollection_42">
    <path d="M 751.421439 494.170921 
L 757.723712 494.170921 
" clip-path="url(#p59786a6a0a)" style="fill: none; stroke: #e84200; stroke-opacity: 0.5; stroke-width: 3"/>
   </g>
   <g id="LineCollection_43">
    <path d="M 751.421439 497.30821 
L 757.723712 497.30821 
" clip-path="url(#p59786a6a0a)" style="fill: none; stroke: #e13700; stroke-opacity: 0.5; stroke-width: 3"/>
   </g>
   <g id="LineCollection_44">
    <path d="M 751.421439 500.374644 
L 757.723712 500.374644 
" clip-path="url(#p59786a6a0a)" style="fill: none; stroke: #da2c00; stroke-opacity: 0.5; stroke-width: 3"/>
   </g>
   <g id="LineCollection_45">
    <path d="M 751.421439 503.311964 
L 757.723712 503.311964 
" clip-path="url(#p59786a6a0a)" style="fill: none; stroke: #d32201; stroke-opacity: 0.5; stroke-width: 3"/>
   </g>
   <g id="LineCollection_46">
    <path d="M 751.421439 506.054151 
L 757.723712 506.054151 
" clip-path="url(#p59786a6a0a)" style="fill: none; stroke: #cb1908; stroke-opacity: 0.5; stroke-width: 3"/>
   </g>
   <g id="LineCollection_47">
    <path d="M 751.421439 508.554641 
L 757.723712 508.554641 
" clip-path="url(#p59786a6a0a)" style="fill: none; stroke: #c31110; stroke-opacity: 0.5; stroke-width: 3"/>
   </g>
   <g id="LineCollection_48">
    <path d="M 751.421439 510.792573 
L 757.723712 510.792573 
" clip-path="url(#p59786a6a0a)" style="fill: none; stroke: #bb0817; stroke-opacity: 0.5; stroke-width: 3"/>
   </g>
   <g id="LineCollection_49">
    <path d="M 751.421439 512.768375 
L 757.723712 512.768375 
" clip-path="url(#p59786a6a0a)" style="fill: none; stroke: #b3001e; stroke-opacity: 0.5; stroke-width: 3"/>
   </g>
   <g id="LineCollection_50">
    <path d="M 751.421439 514.495866 
L 757.723712 514.495866 
" clip-path="url(#p59786a6a0a)" style="fill: none; stroke: #a70026; stroke-opacity: 0.5; stroke-width: 3"/>
   </g>
   <g id="LineCollection_51">
    <path d="M 751.421439 515.56 
L 757.723712 515.56 
" clip-path="url(#p59786a6a0a)" style="fill: none; stroke: #9b002e; stroke-opacity: 0.5; stroke-width: 3"/>
   </g>
   <g id="LineCollection_52">
    <path d="M 751.421439 515.56 
L 757.723712 515.56 
" clip-path="url(#p59786a6a0a)" style="fill: none; stroke: #8f0036; stroke-opacity: 0.5; stroke-width: 3"/>
   </g>
   <g id="LineCollection_53">
    <path d="M 751.421439 515.56 
L 757.723712 515.56 
" clip-path="url(#p59786a6a0a)" style="fill: none; stroke: #82003e; stroke-opacity: 0.5; stroke-width: 3"/>
   </g>
   <g id="LineCollection_54">
    <path d="M 751.421439 515.56 
L 757.723712 515.56 
" clip-path="url(#p59786a6a0a)" style="fill: none; stroke: #780047; stroke-opacity: 0.5; stroke-width: 3"/>
   </g>
   <g id="LineCollection_55">
    <path d="M 751.421439 515.56 
L 757.723712 515.56 
" clip-path="url(#p59786a6a0a)" style="fill: none; stroke: #6d0050; stroke-opacity: 0.5; stroke-width: 3"/>
   </g>
   <g id="LineCollection_56">
    <path d="M 751.421439 515.56 
L 757.723712 515.56 
" clip-path="url(#p59786a6a0a)" style="fill: none; stroke: #630059; stroke-opacity: 0.5; stroke-width: 3"/>
   </g>
   <g id="LineCollection_57">
    <path d="M 751.421439 515.56 
L 757.723712 515.56 
" clip-path="url(#p59786a6a0a)" style="fill: none; stroke: #590063; stroke-opacity: 0.5; stroke-width: 3"/>
   </g>
   <g id="LineCollection_58">
    <path d="M 751.421439 515.56 
L 757.723712 515.56 
" clip-path="url(#p59786a6a0a)" style="fill: none; stroke: #4f0162; stroke-opacity: 0.5; stroke-width: 3"/>
   </g>
   <g id="LineCollection_59">
    <path d="M 751.421439 515.56 
L 757.723712 515.56 
" clip-path="url(#p59786a6a0a)" style="fill: none; stroke: #45035c; stroke-opacity: 0.5; stroke-width: 3"/>
   </g>
   <g id="LineCollection_60">
    <path d="M 751.421439 515.56 
L 757.723712 515.56 
" clip-path="url(#p59786a6a0a)" style="fill: none; stroke: #3b0556; stroke-opacity: 0.5; stroke-width: 3"/>
   </g>
   <g id="LineCollection_61">
    <path d="M 751.421439 515.56 
L 757.723712 515.56 
" clip-path="url(#p59786a6a0a)" style="fill: none; stroke: #310750; stroke-opacity: 0.5; stroke-width: 3"/>
   </g>
   <g id="LineCollection_62">
    <path d="M 751.421439 515.56 
L 757.723712 515.56 
" clip-path="url(#p59786a6a0a)" style="fill: none; stroke: #2b084d; stroke-opacity: 0.5; stroke-width: 3"/>
   </g>
   <g id="LineCollection_63">
    <path d="M 319.715758 424.911148 
L 332.320303 424.911148 
" clip-path="url(#p59786a6a0a)" style="fill: none; stroke: #88b9d3; stroke-width: 8"/>
   </g>
   <g id="LineCollection_64">
    <path d="M 319.715758 465.525353 
L 332.320303 465.525353 
" clip-path="url(#p59786a6a0a)" style="fill: none; stroke: #f79400; stroke-width: 8"/>
   </g>
   <g id="LineCollection_65">
    <path d="M 319.715758 507.498304 
L 332.320303 507.498304 
" clip-path="url(#p59786a6a0a)" style="fill: none; stroke: #bb0817; stroke-width: 8"/>
   </g>
   <g id="LineCollection_66">
    <path d="M 748.270303 462.282817 
L 760.874848 462.282817 
" clip-path="url(#p59786a6a0a)" style="fill: none; stroke: #88b9d3; stroke-width: 8"/>
   </g>
   <g id="LineCollection_67">
    <path d="M 748.270303 480.740134 
L 760.874848 480.740134 
" clip-path="url(#p59786a6a0a)" style="fill: none; stroke: #f79400; stroke-width: 8"/>
   </g>
   <g id="LineCollection_68">
    <path d="M 748.270303 510.792573 
L 760.874848 510.792573 
" clip-path="url(#p59786a6a0a)" style="fill: none; stroke: #bb0817; stroke-width: 8"/>
   </g>
  </g>
 </g>
 <defs>
  <clipPath id="p59786a6a0a">
   <rect x="109.64" y="52.8" width="693.25" height="462.76"/>
  </clipPath>
 </defs>
</svg>
