<?xml version="1.0" encoding="utf-8" standalone="no"?>
<!DOCTYPE svg PUBLIC "-//W3C//DTD SVG 1.1//EN"
  "http://www.w3.org/Graphics/SVG/1.1/DTD/svg11.dtd">
<svg xmlns:xlink="http://www.w3.org/1999/xlink" width="900pt" height="600pt" viewBox="0 0 900 600" xmlns="http://www.w3.org/2000/svg" version="1.1">
 <metadata>
  <rdf:RDF xmlns:dc="http://purl.org/dc/elements/1.1/" xmlns:cc="http://creativecommons.org/ns#" xmlns:rdf="http://www.w3.org/1999/02/22-rdf-syntax-ns#">
   <cc:Work>
    <dc:type rdf:resource="http://purl.org/dc/dcmitype/StillImage"/>
    <dc:date>2023-11-29T23:47:32.800025</dc:date>
    <dc:format>image/svg+xml</dc:format>
    <dc:creator>
     <cc:Agent>
      <dc:title>Matplotlib v3.7.1, https://matplotlib.org/</dc:title>
     </cc:Agent>
    </dc:creator>
   </cc:Work>
  </rdf:RDF>
 </metadata>
 <defs>
  <style type="text/css">*{stroke-linejoin: round; stroke-linecap: butt}</style>
 </defs>
 <g id="figure_1">
  <g id="patch_1">
   <path d="M 0 600 
L 900 600 
L 900 0 
L 0 0 
z
" style="fill: #ffffff"/>
  </g>
  <g id="axes_1">
   <g id="patch_2">
    <path d="M 109.64 515.56 
L 802.89 515.56 
L 802.89 52.8 
L 109.64 52.8 
z
" style="fill: #ffffff"/>
   </g>
   <g id="matplotlib.axis_1">
    <g id="xtick_1">
     <g id="line2d_1">
      <defs>
       <path id="m26416ebddf" d="M 0 0 
L 0 3.5 
" style="stroke: #000000; stroke-width: 0.8"/>
      </defs>
      <g>
       <use xlink:href="#m26416ebddf" x="157.957424" y="515.56" style="stroke: #000000; stroke-width: 0.8"/>
      </g>
     </g>
     <g id="text_1">
      <!-- 2020 -->
      <g transform="translate(124.872424 542.315938) scale(0.26 -0.26)">
       <defs>
        <path id="DejaVuSans-32" d="M 1228 531 
L 3431 531 
L 3431 0 
L 469 0 
L 469 531 
Q 828 903 1448 1529 
Q 2069 2156 2228 2338 
Q 2531 2678 2651 2914 
Q 2772 3150 2772 3378 
Q 2772 3750 2511 3984 
Q 2250 4219 1831 4219 
Q 1534 4219 1204 4116 
Q 875 4013 500 3803 
L 500 4441 
Q 881 4594 1212 4672 
Q 1544 4750 1819 4750 
Q 2544 4750 2975 4387 
Q 3406 4025 3406 3419 
Q 3406 3131 3298 2873 
Q 3191 2616 2906 2266 
Q 2828 2175 2409 1742 
Q 1991 1309 1228 531 
z
" transform="scale(0.015625)"/>
        <path id="DejaVuSans-30" d="M 2034 4250 
Q 1547 4250 1301 3770 
Q 1056 3291 1056 2328 
Q 1056 1369 1301 889 
Q 1547 409 2034 409 
Q 2525 409 2770 889 
Q 3016 1369 3016 2328 
Q 3016 3291 2770 3770 
Q 2525 4250 2034 4250 
z
M 2034 4750 
Q 2819 4750 3233 4129 
Q 3647 3509 3647 2328 
Q 3647 1150 3233 529 
Q 2819 -91 2034 -91 
Q 1250 -91 836 529 
Q 422 1150 422 2328 
Q 422 3509 836 4129 
Q 1250 4750 2034 4750 
z
" transform="scale(0.015625)"/>
       </defs>
       <use xlink:href="#DejaVuSans-32"/>
       <use xlink:href="#DejaVuSans-30" x="63.623047"/>
       <use xlink:href="#DejaVuSans-32" x="127.246094"/>
       <use xlink:href="#DejaVuSans-30" x="190.869141"/>
      </g>
     </g>
    </g>
    <g id="xtick_2">
     <g id="line2d_2">
      <g>
       <use xlink:href="#m26416ebddf" x="326.01803" y="515.56" style="stroke: #000000; stroke-width: 0.8"/>
      </g>
     </g>
     <g id="text_2">
      <!-- 2100 -->
      <g transform="translate(292.93303 542.315938) scale(0.26 -0.26)">
       <defs>
        <path id="DejaVuSans-31" d="M 794 531 
L 1825 531 
L 1825 4091 
L 703 3866 
L 703 4441 
L 1819 4666 
L 2450 4666 
L 2450 531 
L 3481 531 
L 3481 0 
L 794 0 
L 794 531 
z
" transform="scale(0.015625)"/>
       </defs>
       <use xlink:href="#DejaVuSans-32"/>
       <use xlink:href="#DejaVuSans-31" x="63.623047"/>
       <use xlink:href="#DejaVuSans-30" x="127.246094"/>
       <use xlink:href="#DejaVuSans-30" x="190.869141"/>
      </g>
     </g>
    </g>
    <g id="xtick_3">
     <g id="line2d_3">
      <g>
       <use xlink:href="#m26416ebddf" x="536.093788" y="515.56" style="stroke: #000000; stroke-width: 0.8"/>
      </g>
     </g>
     <g id="text_3">
      <!-- 2200 -->
      <g transform="translate(503.008788 542.315938) scale(0.26 -0.26)">
       <use xlink:href="#DejaVuSans-32"/>
       <use xlink:href="#DejaVuSans-32" x="63.623047"/>
       <use xlink:href="#DejaVuSans-30" x="127.246094"/>
       <use xlink:href="#DejaVuSans-30" x="190.869141"/>
      </g>
     </g>
    </g>
    <g id="xtick_4">
     <g id="line2d_4">
      <g>
       <use xlink:href="#m26416ebddf" x="746.169545" y="515.56" style="stroke: #000000; stroke-width: 0.8"/>
      </g>
     </g>
     <g id="text_4">
      <!-- 2300 -->
      <g transform="translate(713.084545 542.315938) scale(0.26 -0.26)">
       <defs>
        <path id="DejaVuSans-33" d="M 2597 2516 
Q 3050 2419 3304 2112 
Q 3559 1806 3559 1356 
Q 3559 666 3084 287 
Q 2609 -91 1734 -91 
Q 1441 -91 1130 -33 
Q 819 25 488 141 
L 488 750 
Q 750 597 1062 519 
Q 1375 441 1716 441 
Q 2309 441 2620 675 
Q 2931 909 2931 1356 
Q 2931 1769 2642 2001 
Q 2353 2234 1838 2234 
L 1294 2234 
L 1294 2753 
L 1863 2753 
Q 2328 2753 2575 2939 
Q 2822 3125 2822 3475 
Q 2822 3834 2567 4026 
Q 2313 4219 1838 4219 
Q 1578 4219 1281 4162 
Q 984 4106 628 3988 
L 628 4550 
Q 988 4650 1302 4700 
Q 1616 4750 1894 4750 
Q 2613 4750 3031 4423 
Q 3450 4097 3450 3541 
Q 3450 3153 3228 2886 
Q 3006 2619 2597 2516 
z
" transform="scale(0.015625)"/>
       </defs>
       <use xlink:href="#DejaVuSans-32"/>
       <use xlink:href="#DejaVuSans-33" x="63.623047"/>
       <use xlink:href="#DejaVuSans-30" x="127.246094"/>
       <use xlink:href="#DejaVuSans-30" x="190.869141"/>
      </g>
     </g>
    </g>
    <g id="text_5">
     <!-- Year -->
     <g transform="translate(428.995313 568.439687) scale(0.22 -0.22)">
      <defs>
       <path id="DejaVuSans-Bold-59" d="M -63 4666 
L 1253 4666 
L 2316 3003 
L 3378 4666 
L 4697 4666 
L 2919 1966 
L 2919 0 
L 1716 0 
L 1716 1966 
L -63 4666 
z
" transform="scale(0.015625)"/>
       <path id="DejaVuSans-Bold-65" d="M 4031 1759 
L 4031 1441 
L 1416 1441 
Q 1456 1047 1700 850 
Q 1944 653 2381 653 
Q 2734 653 3104 758 
Q 3475 863 3866 1075 
L 3866 213 
Q 3469 63 3072 -14 
Q 2675 -91 2278 -91 
Q 1328 -91 801 392 
Q 275 875 275 1747 
Q 275 2603 792 3093 
Q 1309 3584 2216 3584 
Q 3041 3584 3536 3087 
Q 4031 2591 4031 1759 
z
M 2881 2131 
Q 2881 2450 2695 2645 
Q 2509 2841 2209 2841 
Q 1884 2841 1681 2658 
Q 1478 2475 1428 2131 
L 2881 2131 
z
" transform="scale(0.015625)"/>
       <path id="DejaVuSans-Bold-61" d="M 2106 1575 
Q 1756 1575 1579 1456 
Q 1403 1338 1403 1106 
Q 1403 894 1545 773 
Q 1688 653 1941 653 
Q 2256 653 2472 879 
Q 2688 1106 2688 1447 
L 2688 1575 
L 2106 1575 
z
M 3816 1997 
L 3816 0 
L 2688 0 
L 2688 519 
Q 2463 200 2181 54 
Q 1900 -91 1497 -91 
Q 953 -91 614 226 
Q 275 544 275 1050 
Q 275 1666 698 1953 
Q 1122 2241 2028 2241 
L 2688 2241 
L 2688 2328 
Q 2688 2594 2478 2717 
Q 2269 2841 1825 2841 
Q 1466 2841 1156 2769 
Q 847 2697 581 2553 
L 581 3406 
Q 941 3494 1303 3539 
Q 1666 3584 2028 3584 
Q 2975 3584 3395 3211 
Q 3816 2838 3816 1997 
z
" transform="scale(0.015625)"/>
       <path id="DejaVuSans-Bold-72" d="M 3138 2547 
Q 2991 2616 2845 2648 
Q 2700 2681 2553 2681 
Q 2122 2681 1889 2404 
Q 1656 2128 1656 1613 
L 1656 0 
L 538 0 
L 538 3500 
L 1656 3500 
L 1656 2925 
Q 1872 3269 2151 3426 
Q 2431 3584 2822 3584 
Q 2878 3584 2943 3579 
Q 3009 3575 3134 3559 
L 3138 2547 
z
" transform="scale(0.015625)"/>
      </defs>
      <use xlink:href="#DejaVuSans-Bold-59"/>
      <use xlink:href="#DejaVuSans-Bold-65" x="63.287109"/>
      <use xlink:href="#DejaVuSans-Bold-61" x="131.109375"/>
      <use xlink:href="#DejaVuSans-Bold-72" x="198.589844"/>
     </g>
    </g>
   </g>
   <g id="matplotlib.axis_2">
    <g id="ytick_1">
     <g id="line2d_5">
      <defs>
       <path id="m4d5db566c6" d="M 0 0 
L -3.5 0 
" style="stroke: #000000; stroke-width: 0.8"/>
      </defs>
      <g>
       <use xlink:href="#m4d5db566c6" x="109.64" y="515.56" style="stroke: #000000; stroke-width: 0.8"/>
      </g>
     </g>
     <g id="text_6">
      <!-- 0 -->
      <g transform="translate(86.0975 525.437969) scale(0.26 -0.26)">
       <use xlink:href="#DejaVuSans-30"/>
      </g>
     </g>
    </g>
    <g id="ytick_2">
     <g id="line2d_6">
      <g>
       <use xlink:href="#m4d5db566c6" x="109.64" y="441.5184" style="stroke: #000000; stroke-width: 0.8"/>
      </g>
     </g>
     <g id="text_7">
      <!-- 20 -->
      <g transform="translate(69.555 451.396369) scale(0.26 -0.26)">
       <use xlink:href="#DejaVuSans-32"/>
       <use xlink:href="#DejaVuSans-30" x="63.623047"/>
      </g>
     </g>
    </g>
    <g id="ytick_3">
     <g id="line2d_7">
      <g>
       <use xlink:href="#m4d5db566c6" x="109.64" y="367.4768" style="stroke: #000000; stroke-width: 0.8"/>
      </g>
     </g>
     <g id="text_8">
      <!-- 40 -->
      <g transform="translate(69.555 377.354769) scale(0.26 -0.26)">
       <defs>
        <path id="DejaVuSans-34" d="M 2419 4116 
L 825 1625 
L 2419 1625 
L 2419 4116 
z
M 2253 4666 
L 3047 4666 
L 3047 1625 
L 3713 1625 
L 3713 1100 
L 3047 1100 
L 3047 0 
L 2419 0 
L 2419 1100 
L 313 1100 
L 313 1709 
L 2253 4666 
z
" transform="scale(0.015625)"/>
       </defs>
       <use xlink:href="#DejaVuSans-34"/>
       <use xlink:href="#DejaVuSans-30" x="63.623047"/>
      </g>
     </g>
    </g>
    <g id="ytick_4">
     <g id="line2d_8">
      <g>
       <use xlink:href="#m4d5db566c6" x="109.64" y="293.4352" style="stroke: #000000; stroke-width: 0.8"/>
      </g>
     </g>
     <g id="text_9">
      <!-- 60 -->
      <g transform="translate(69.555 303.313169) scale(0.26 -0.26)">
       <defs>
        <path id="DejaVuSans-36" d="M 2113 2584 
Q 1688 2584 1439 2293 
Q 1191 2003 1191 1497 
Q 1191 994 1439 701 
Q 1688 409 2113 409 
Q 2538 409 2786 701 
Q 3034 994 3034 1497 
Q 3034 2003 2786 2293 
Q 2538 2584 2113 2584 
z
M 3366 4563 
L 3366 3988 
Q 3128 4100 2886 4159 
Q 2644 4219 2406 4219 
Q 1781 4219 1451 3797 
Q 1122 3375 1075 2522 
Q 1259 2794 1537 2939 
Q 1816 3084 2150 3084 
Q 2853 3084 3261 2657 
Q 3669 2231 3669 1497 
Q 3669 778 3244 343 
Q 2819 -91 2113 -91 
Q 1303 -91 875 529 
Q 447 1150 447 2328 
Q 447 3434 972 4092 
Q 1497 4750 2381 4750 
Q 2619 4750 2861 4703 
Q 3103 4656 3366 4563 
z
" transform="scale(0.015625)"/>
       </defs>
       <use xlink:href="#DejaVuSans-36"/>
       <use xlink:href="#DejaVuSans-30" x="63.623047"/>
      </g>
     </g>
    </g>
    <g id="ytick_5">
     <g id="line2d_9">
      <g>
       <use xlink:href="#m4d5db566c6" x="109.64" y="219.3936" style="stroke: #000000; stroke-width: 0.8"/>
      </g>
     </g>
     <g id="text_10">
      <!-- 80 -->
      <g transform="translate(69.555 229.271569) scale(0.26 -0.26)">
       <defs>
        <path id="DejaVuSans-38" d="M 2034 2216 
Q 1584 2216 1326 1975 
Q 1069 1734 1069 1313 
Q 1069 891 1326 650 
Q 1584 409 2034 409 
Q 2484 409 2743 651 
Q 3003 894 3003 1313 
Q 3003 1734 2745 1975 
Q 2488 2216 2034 2216 
z
M 1403 2484 
Q 997 2584 770 2862 
Q 544 3141 544 3541 
Q 544 4100 942 4425 
Q 1341 4750 2034 4750 
Q 2731 4750 3128 4425 
Q 3525 4100 3525 3541 
Q 3525 3141 3298 2862 
Q 3072 2584 2669 2484 
Q 3125 2378 3379 2068 
Q 3634 1759 3634 1313 
Q 3634 634 3220 271 
Q 2806 -91 2034 -91 
Q 1263 -91 848 271 
Q 434 634 434 1313 
Q 434 1759 690 2068 
Q 947 2378 1403 2484 
z
M 1172 3481 
Q 1172 3119 1398 2916 
Q 1625 2713 2034 2713 
Q 2441 2713 2670 2916 
Q 2900 3119 2900 3481 
Q 2900 3844 2670 4047 
Q 2441 4250 2034 4250 
Q 1625 4250 1398 4047 
Q 1172 3844 1172 3481 
z
" transform="scale(0.015625)"/>
       </defs>
       <use xlink:href="#DejaVuSans-38"/>
       <use xlink:href="#DejaVuSans-30" x="63.623047"/>
      </g>
     </g>
    </g>
    <g id="ytick_6">
     <g id="line2d_10">
      <g>
       <use xlink:href="#m4d5db566c6" x="109.64" y="145.352" style="stroke: #000000; stroke-width: 0.8"/>
      </g>
     </g>
     <g id="text_11">
      <!-- 100 -->
      <g transform="translate(53.0125 155.229969) scale(0.26 -0.26)">
       <use xlink:href="#DejaVuSans-31"/>
       <use xlink:href="#DejaVuSans-30" x="63.623047"/>
       <use xlink:href="#DejaVuSans-30" x="127.246094"/>
      </g>
     </g>
    </g>
    <g id="ytick_7">
     <g id="line2d_11">
      <g>
       <use xlink:href="#m4d5db566c6" x="109.64" y="71.3104" style="stroke: #000000; stroke-width: 0.8"/>
      </g>
     </g>
     <g id="text_12">
      <!-- 120 -->
      <g transform="translate(53.0125 81.188369) scale(0.26 -0.26)">
       <use xlink:href="#DejaVuSans-31"/>
       <use xlink:href="#DejaVuSans-32" x="63.623047"/>
       <use xlink:href="#DejaVuSans-30" x="127.246094"/>
      </g>
     </g>
    </g>
    <g id="text_13">
     <!-- % of Remaining Ice -->
     <g transform="translate(44.265313 403.000625) rotate(-90) scale(0.22 -0.22)">
      <defs>
       <path id="DejaVuSans-Bold-25" d="M 4959 1925 
Q 4738 1925 4616 1733 
Q 4494 1541 4494 1184 
Q 4494 825 4614 633 
Q 4734 441 4959 441 
Q 5184 441 5303 633 
Q 5422 825 5422 1184 
Q 5422 1541 5301 1733 
Q 5181 1925 4959 1925 
z
M 4959 2450 
Q 5541 2450 5875 2112 
Q 6209 1775 6209 1184 
Q 6209 594 5875 251 
Q 5541 -91 4959 -91 
Q 4378 -91 4042 251 
Q 3706 594 3706 1184 
Q 3706 1772 4042 2111 
Q 4378 2450 4959 2450 
z
M 2094 -91 
L 1403 -91 
L 4319 4750 
L 5013 4750 
L 2094 -91 
z
M 1453 4750 
Q 2034 4750 2367 4411 
Q 2700 4072 2700 3481 
Q 2700 2891 2367 2550 
Q 2034 2209 1453 2209 
Q 872 2209 539 2550 
Q 206 2891 206 3481 
Q 206 4072 539 4411 
Q 872 4750 1453 4750 
z
M 1453 4225 
Q 1228 4225 1106 4031 
Q 984 3838 984 3481 
Q 984 3122 1106 2926 
Q 1228 2731 1453 2731 
Q 1678 2731 1798 2926 
Q 1919 3122 1919 3481 
Q 1919 3838 1797 4031 
Q 1675 4225 1453 4225 
z
" transform="scale(0.015625)"/>
       <path id="DejaVuSans-Bold-20" transform="scale(0.015625)"/>
       <path id="DejaVuSans-Bold-6f" d="M 2203 2784 
Q 1831 2784 1636 2517 
Q 1441 2250 1441 1747 
Q 1441 1244 1636 976 
Q 1831 709 2203 709 
Q 2569 709 2762 976 
Q 2956 1244 2956 1747 
Q 2956 2250 2762 2517 
Q 2569 2784 2203 2784 
z
M 2203 3584 
Q 3106 3584 3614 3096 
Q 4122 2609 4122 1747 
Q 4122 884 3614 396 
Q 3106 -91 2203 -91 
Q 1297 -91 786 396 
Q 275 884 275 1747 
Q 275 2609 786 3096 
Q 1297 3584 2203 3584 
z
" transform="scale(0.015625)"/>
       <path id="DejaVuSans-Bold-66" d="M 2841 4863 
L 2841 4128 
L 2222 4128 
Q 1984 4128 1890 4042 
Q 1797 3956 1797 3744 
L 1797 3500 
L 2753 3500 
L 2753 2700 
L 1797 2700 
L 1797 0 
L 678 0 
L 678 2700 
L 122 2700 
L 122 3500 
L 678 3500 
L 678 3744 
Q 678 4316 997 4589 
Q 1316 4863 1984 4863 
L 2841 4863 
z
" transform="scale(0.015625)"/>
       <path id="DejaVuSans-Bold-52" d="M 2297 2597 
Q 2675 2597 2839 2737 
Q 3003 2878 3003 3200 
Q 3003 3519 2839 3656 
Q 2675 3794 2297 3794 
L 1791 3794 
L 1791 2597 
L 2297 2597 
z
M 1791 1766 
L 1791 0 
L 588 0 
L 588 4666 
L 2425 4666 
Q 3347 4666 3776 4356 
Q 4206 4047 4206 3378 
Q 4206 2916 3982 2619 
Q 3759 2322 3309 2181 
Q 3556 2125 3751 1926 
Q 3947 1728 4147 1325 
L 4800 0 
L 3519 0 
L 2950 1159 
Q 2778 1509 2601 1637 
Q 2425 1766 2131 1766 
L 1791 1766 
z
" transform="scale(0.015625)"/>
       <path id="DejaVuSans-Bold-6d" d="M 3781 2919 
Q 3994 3244 4286 3414 
Q 4578 3584 4928 3584 
Q 5531 3584 5847 3212 
Q 6163 2841 6163 2131 
L 6163 0 
L 5038 0 
L 5038 1825 
Q 5041 1866 5042 1909 
Q 5044 1953 5044 2034 
Q 5044 2406 4934 2573 
Q 4825 2741 4581 2741 
Q 4263 2741 4089 2478 
Q 3916 2216 3909 1719 
L 3909 0 
L 2784 0 
L 2784 1825 
Q 2784 2406 2684 2573 
Q 2584 2741 2328 2741 
Q 2006 2741 1831 2477 
Q 1656 2213 1656 1722 
L 1656 0 
L 531 0 
L 531 3500 
L 1656 3500 
L 1656 2988 
Q 1863 3284 2130 3434 
Q 2397 3584 2719 3584 
Q 3081 3584 3359 3409 
Q 3638 3234 3781 2919 
z
" transform="scale(0.015625)"/>
       <path id="DejaVuSans-Bold-69" d="M 538 3500 
L 1656 3500 
L 1656 0 
L 538 0 
L 538 3500 
z
M 538 4863 
L 1656 4863 
L 1656 3950 
L 538 3950 
L 538 4863 
z
" transform="scale(0.015625)"/>
       <path id="DejaVuSans-Bold-6e" d="M 4056 2131 
L 4056 0 
L 2931 0 
L 2931 347 
L 2931 1631 
Q 2931 2084 2911 2256 
Q 2891 2428 2841 2509 
Q 2775 2619 2662 2680 
Q 2550 2741 2406 2741 
Q 2056 2741 1856 2470 
Q 1656 2200 1656 1722 
L 1656 0 
L 538 0 
L 538 3500 
L 1656 3500 
L 1656 2988 
Q 1909 3294 2193 3439 
Q 2478 3584 2822 3584 
Q 3428 3584 3742 3212 
Q 4056 2841 4056 2131 
z
" transform="scale(0.015625)"/>
       <path id="DejaVuSans-Bold-67" d="M 2919 594 
Q 2688 288 2409 144 
Q 2131 0 1766 0 
Q 1125 0 706 504 
Q 288 1009 288 1791 
Q 288 2575 706 3076 
Q 1125 3578 1766 3578 
Q 2131 3578 2409 3434 
Q 2688 3291 2919 2981 
L 2919 3500 
L 4044 3500 
L 4044 353 
Q 4044 -491 3511 -936 
Q 2978 -1381 1966 -1381 
Q 1638 -1381 1331 -1331 
Q 1025 -1281 716 -1178 
L 716 -306 
Q 1009 -475 1290 -558 
Q 1572 -641 1856 -641 
Q 2406 -641 2662 -400 
Q 2919 -159 2919 353 
L 2919 594 
z
M 2181 2772 
Q 1834 2772 1640 2515 
Q 1447 2259 1447 1791 
Q 1447 1309 1634 1061 
Q 1822 813 2181 813 
Q 2531 813 2725 1069 
Q 2919 1325 2919 1791 
Q 2919 2259 2725 2515 
Q 2531 2772 2181 2772 
z
" transform="scale(0.015625)"/>
       <path id="DejaVuSans-Bold-49" d="M 588 4666 
L 1791 4666 
L 1791 0 
L 588 0 
L 588 4666 
z
" transform="scale(0.015625)"/>
       <path id="DejaVuSans-Bold-63" d="M 3366 3391 
L 3366 2478 
Q 3138 2634 2908 2709 
Q 2678 2784 2431 2784 
Q 1963 2784 1702 2511 
Q 1441 2238 1441 1747 
Q 1441 1256 1702 982 
Q 1963 709 2431 709 
Q 2694 709 2930 787 
Q 3166 866 3366 1019 
L 3366 103 
Q 3103 6 2833 -42 
Q 2563 -91 2291 -91 
Q 1344 -91 809 395 
Q 275 881 275 1747 
Q 275 2613 809 3098 
Q 1344 3584 2291 3584 
Q 2566 3584 2833 3536 
Q 3100 3488 3366 3391 
z
" transform="scale(0.015625)"/>
      </defs>
      <use xlink:href="#DejaVuSans-Bold-25"/>
      <use xlink:href="#DejaVuSans-Bold-20" x="100.195312"/>
      <use xlink:href="#DejaVuSans-Bold-6f" x="135.009766"/>
      <use xlink:href="#DejaVuSans-Bold-66" x="203.710938"/>
      <use xlink:href="#DejaVuSans-Bold-20" x="247.216797"/>
      <use xlink:href="#DejaVuSans-Bold-52" x="282.03125"/>
      <use xlink:href="#DejaVuSans-Bold-65" x="359.033203"/>
      <use xlink:href="#DejaVuSans-Bold-6d" x="426.855469"/>
      <use xlink:href="#DejaVuSans-Bold-61" x="531.054688"/>
      <use xlink:href="#DejaVuSans-Bold-69" x="598.535156"/>
      <use xlink:href="#DejaVuSans-Bold-6e" x="632.8125"/>
      <use xlink:href="#DejaVuSans-Bold-69" x="704.003906"/>
      <use xlink:href="#DejaVuSans-Bold-6e" x="738.28125"/>
      <use xlink:href="#DejaVuSans-Bold-67" x="809.472656"/>
      <use xlink:href="#DejaVuSans-Bold-20" x="881.054688"/>
      <use xlink:href="#DejaVuSans-Bold-49" x="915.869141"/>
      <use xlink:href="#DejaVuSans-Bold-63" x="953.076172"/>
      <use xlink:href="#DejaVuSans-Bold-65" x="1012.353516"/>
     </g>
    </g>
   </g>
   <g id="line2d_12">
    <path d="M 157.957424 145.352 
L 166.360455 150.687719 
L 174.763485 156.572539 
L 178.965 159.811695 
L 185.267273 164.95626 
L 195.771061 173.873511 
L 204.174091 181.32771 
L 212.577121 189.237982 
L 223.080909 199.742273 
L 237.786212 215.030343 
L 284.002879 263.599364 
L 292.405909 271.918652 
L 298.708182 277.917406 
L 305.010455 283.606096 
L 313.413485 290.690558 
L 342.824091 314.399964 
L 368.033182 334.061271 
L 376.436212 340.183643 
L 386.94 347.494229 
L 395.34303 353.118993 
L 401.645303 356.969315 
L 410.048333 361.971112 
L 422.652879 369.330141 
L 435.257424 376.290234 
L 449.962727 384.089442 
L 458.365758 388.244693 
L 468.869545 393.104831 
L 479.373333 397.670735 
L 487.776364 401.147543 
L 498.280152 405.207362 
L 508.783939 408.995863 
L 517.18697 411.7904 
L 529.791515 415.694671 
L 538.194545 418.177631 
L 559.202121 423.938615 
L 573.907424 427.78617 
L 588.612727 431.346694 
L 605.418788 435.161187 
L 645.333182 443.633468 
L 657.937727 446.045512 
L 672.64303 448.716545 
L 683.146818 450.428771 
L 699.952879 452.982902 
L 714.658182 454.931625 
L 727.262727 456.515475 
L 746.169545 457.681178 
L 746.169545 457.681178 
" clip-path="url(#pb526e7f30a)" style="fill: none; stroke: #f66200; stroke-opacity: 0.3; stroke-width: 2; stroke-linecap: square"/>
   </g>
   <g id="line2d_13">
    <path d="M 115.942273 127.73948 
L 118.04303 128.353845 
L 120.143788 129.000917 
L 122.244545 129.61471 
L 124.345303 130.212705 
L 126.446061 130.784618 
L 128.546818 131.369172 
L 130.647576 131.913297 
L 132.748333 132.463509 
L 134.849091 133.00195 
L 136.949848 133.496422 
L 139.050606 134.591024 
L 141.151364 135.712447 
L 143.252121 136.870564 
L 145.352879 138.042525 
L 147.453636 139.185291 
L 149.554394 140.367815 
L 151.655152 141.561648 
L 153.755909 142.806737 
L 155.856667 144.070472 
L 157.957424 145.352 
" clip-path="url(#pb526e7f30a)" style="fill: none; stroke: #000000; stroke-opacity: 0.3; stroke-width: 2; stroke-linecap: square"/>
   </g>
   <g id="line2d_14">
    <path d="M 157.957424 145.352 
L 168.461212 150.437863 
L 174.763485 153.831072 
L 199.972576 167.867684 
L 212.577121 175.610094 
L 216.778636 178.337405 
L 227.282424 185.468417 
L 235.685455 191.577445 
L 239.88697 194.559819 
L 252.491515 203.227241 
L 267.196818 212.575152 
L 281.902121 221.92875 
L 290.305152 227.550578 
L 296.607424 232.117382 
L 300.808939 235.064543 
L 311.312727 241.782529 
L 319.715758 246.922838 
L 323.917273 249.280499 
L 336.521818 255.799123 
L 342.824091 259.020617 
L 351.227121 263.544555 
L 361.730909 268.936558 
L 368.033182 272.408652 
L 380.637727 279.412099 
L 389.040758 284.177783 
L 401.645303 291.424519 
L 422.652879 302.472436 
L 428.955152 305.513925 
L 437.358182 309.330733 
L 452.063485 315.577225 
L 458.365758 317.93745 
L 475.171818 324.257714 
L 489.877121 329.141642 
L 494.078636 330.554942 
L 504.582424 334.18762 
L 515.086212 337.639036 
L 521.388485 340.046137 
L 527.690758 342.631452 
L 533.99303 345.48803 
L 540.295303 348.288619 
L 548.698333 351.946785 
L 557.101364 355.695851 
L 567.605152 360.121897 
L 576.008182 363.225396 
L 584.411212 366.064482 
L 590.713485 368.058655 
L 603.31803 371.515801 
L 609.620303 373.05073 
L 626.426364 377.702528 
L 643.232424 382.425281 
L 651.635455 384.615072 
L 674.743788 390.037656 
L 689.449091 393.787757 
L 699.952879 396.699158 
L 706.255152 398.306229 
L 712.557424 399.610351 
L 720.960455 401.203905 
L 727.262727 402.290319 
L 737.766515 403.127208 
L 746.169545 403.67451 
L 746.169545 403.67451 
" clip-path="url(#pb526e7f30a)" style="fill: none; stroke: #822900; stroke-opacity: 0.3; stroke-width: 2; stroke-linecap: square"/>
   </g>
   <g id="line2d_15">
    <path d="M 115.942273 128.781354 
L 118.04303 129.394638 
L 120.143788 130.016008 
L 122.244545 130.623193 
L 124.345303 131.228277 
L 126.446061 131.797157 
L 128.546818 132.361708 
L 130.647576 132.884056 
L 132.748333 133.413556 
L 134.849091 133.930091 
L 136.949848 134.403935 
L 139.050606 135.486645 
L 141.151364 136.607273 
L 143.252121 137.742664 
L 145.352879 138.863386 
L 147.453636 139.911724 
L 149.554394 140.965102 
L 151.655152 142.056186 
L 153.755909 143.162355 
L 155.856667 144.265898 
L 157.957424 145.352 
" clip-path="url(#pb526e7f30a)" style="fill: none; stroke: #000000; stroke-opacity: 0.3; stroke-width: 2; stroke-linecap: square"/>
   </g>
   <g id="line2d_16">
    <path d="M 157.957424 145.352 
L 168.461212 151.773046 
L 172.662727 154.57635 
L 176.864242 157.644032 
L 185.267273 164.354465 
L 193.670303 171.558465 
L 197.871818 175.450459 
L 202.073333 179.68385 
L 208.375606 186.378339 
L 220.980152 200.683731 
L 225.181667 205.665271 
L 237.786212 221.005541 
L 246.189242 231.000918 
L 256.69303 243.342095 
L 265.096061 253.154895 
L 277.700606 267.374613 
L 288.204394 278.75253 
L 298.708182 290.00275 
L 307.111212 298.660782 
L 317.615 308.997464 
L 332.320303 323.089758 
L 344.924848 334.546222 
L 351.227121 340.220273 
L 355.428636 344.037316 
L 363.831667 351.283368 
L 370.133939 356.408715 
L 376.436212 361.328649 
L 382.738485 366.146686 
L 389.040758 370.993063 
L 393.242273 374.038132 
L 403.746061 381.341858 
L 416.350606 389.518848 
L 422.652879 393.263819 
L 428.955152 396.841791 
L 437.358182 401.282118 
L 445.761212 405.391781 
L 456.265 410.270897 
L 466.768788 414.956881 
L 479.373333 420.219383 
L 487.776364 423.414672 
L 498.280152 427.142769 
L 510.884697 431.209669 
L 548.698333 442.316538 
L 569.705909 447.853363 
L 578.108939 449.732495 
L 590.713485 452.181294 
L 599.116515 453.698333 
L 607.519545 454.955537 
L 660.038485 462.437143 
L 689.449091 466.834847 
L 702.053636 468.252387 
L 714.658182 469.343923 
L 727.262727 470.298521 
L 746.169545 470.984652 
L 746.169545 470.984652 
" clip-path="url(#pb526e7f30a)" style="fill: none; stroke: #f76800; stroke-opacity: 0.3; stroke-width: 2; stroke-linecap: square"/>
   </g>
   <g id="line2d_17">
    <path d="M 115.942273 127.393362 
L 118.04303 128.057347 
L 120.143788 128.773289 
L 122.244545 129.473305 
L 124.345303 130.129112 
L 126.446061 130.730492 
L 128.546818 131.321891 
L 130.647576 131.855786 
L 132.748333 132.396644 
L 134.849091 132.920981 
L 136.949848 133.393173 
L 139.050606 134.482794 
L 141.151364 135.630976 
L 143.252121 136.771107 
L 145.352879 137.923265 
L 147.453636 139.107069 
L 149.554394 140.302395 
L 151.655152 141.537016 
L 153.755909 142.8339 
L 155.856667 144.113153 
L 157.957424 145.352 
" clip-path="url(#pb526e7f30a)" style="fill: none; stroke: #000000; stroke-opacity: 0.3; stroke-width: 2; stroke-linecap: square"/>
   </g>
   <g id="line2d_18">
    <path d="M 157.957424 145.352 
L 164.259697 150.44673 
L 168.461212 154.239892 
L 172.662727 158.436688 
L 176.864242 163.086311 
L 181.065758 168.269126 
L 185.267273 173.827424 
L 189.468788 179.746062 
L 195.771061 189.124299 
L 208.375606 208.832307 
L 214.677879 219.137331 
L 225.181667 236.678038 
L 235.685455 253.877631 
L 250.390758 277.601852 
L 256.69303 287.258214 
L 265.096061 299.614777 
L 275.599848 315.308434 
L 281.902121 324.192114 
L 296.607424 344.410848 
L 305.010455 355.432776 
L 309.21197 360.720303 
L 315.514242 368.15887 
L 326.01803 379.933273 
L 332.320303 386.6689 
L 342.824091 397.347984 
L 347.025606 401.365394 
L 351.227121 405.075822 
L 361.730909 413.949724 
L 368.033182 418.981499 
L 374.335455 423.614012 
L 378.53697 426.54557 
L 384.839242 430.62492 
L 401.645303 441.15393 
L 407.947576 444.704279 
L 416.350606 449.204706 
L 424.753636 453.428264 
L 431.055909 456.359811 
L 441.559697 460.916806 
L 449.962727 464.259042 
L 460.466515 468.143821 
L 468.869545 471.022314 
L 479.373333 474.398789 
L 489.877121 477.497445 
L 496.179394 479.169747 
L 508.783939 482.163256 
L 517.18697 484.05069 
L 527.690758 486.138579 
L 548.698333 490.148325 
L 565.504394 493.149958 
L 576.008182 494.868731 
L 590.713485 497.093201 
L 611.721061 499.97887 
L 626.426364 501.744229 
L 639.030909 503.114713 
L 657.937727 504.904578 
L 672.64303 506.129411 
L 691.549848 507.434427 
L 710.456667 508.48206 
L 727.262727 509.272276 
L 746.169545 509.681617 
L 746.169545 509.681617 
" clip-path="url(#pb526e7f30a)" style="fill: none; stroke: #662b00; stroke-opacity: 0.3; stroke-width: 2; stroke-linecap: square"/>
   </g>
   <g id="line2d_19">
    <path d="M 115.942273 126.520276 
L 118.04303 127.143918 
L 120.143788 127.811742 
L 122.244545 128.453476 
L 124.345303 129.095437 
L 126.446061 129.700232 
L 128.546818 130.294467 
L 130.647576 130.866665 
L 132.748333 131.436299 
L 134.849091 131.980599 
L 136.949848 132.48393 
L 139.050606 133.594368 
L 141.151364 134.711599 
L 143.252121 135.86757 
L 145.352879 137.05639 
L 147.453636 138.268283 
L 149.554394 139.540612 
L 151.655152 140.862757 
L 153.755909 142.300049 
L 155.856667 143.800441 
L 157.957424 145.352 
" clip-path="url(#pb526e7f30a)" style="fill: none; stroke: #000000; stroke-opacity: 0.3; stroke-width: 2; stroke-linecap: square"/>
   </g>
   <g id="line2d_20">
    <path d="M 157.957424 145.352 
L 164.259697 147.870136 
L 174.763485 151.921175 
L 178.965 153.687573 
L 185.267273 156.595824 
L 193.670303 160.994535 
L 199.972576 164.476892 
L 204.174091 167.003017 
L 208.375606 169.731603 
L 212.577121 172.747326 
L 216.778636 176.014115 
L 225.181667 182.987986 
L 231.483939 188.546766 
L 237.786212 194.511951 
L 260.894545 217.813834 
L 271.398333 228.513197 
L 284.002879 241.22572 
L 313.413485 270.344744 
L 338.622576 293.642289 
L 344.924848 299.063856 
L 363.831667 314.768308 
L 380.637727 328.324613 
L 384.839242 331.852319 
L 401.645303 346.523003 
L 414.249848 356.726731 
L 418.451364 359.890809 
L 426.854394 365.66684 
L 431.055909 368.338279 
L 445.761212 377.04465 
L 456.265 383.106112 
L 464.66803 387.893716 
L 475.171818 394.1642 
L 483.574848 399.10322 
L 491.977879 403.761936 
L 502.481667 409.093716 
L 506.683182 411.038243 
L 512.985455 413.598652 
L 521.388485 416.557622 
L 529.791515 419.309263 
L 569.705909 431.100739 
L 578.108939 433.3551 
L 599.116515 438.646908 
L 626.426364 445.116343 
L 634.829394 446.853803 
L 664.24 452.09879 
L 678.945303 454.837595 
L 691.549848 457.151743 
L 702.053636 458.84082 
L 714.658182 460.654819 
L 723.061212 461.673898 
L 727.262727 462.1592 
L 746.169545 463.275875 
L 746.169545 463.275875 
" clip-path="url(#pb526e7f30a)" style="fill: none; stroke: #b32700; stroke-opacity: 0.3; stroke-width: 2; stroke-linecap: square"/>
   </g>
   <g id="line2d_21">
    <path d="M 115.942273 129.540573 
L 118.04303 130.243948 
L 120.143788 130.939281 
L 122.244545 131.617275 
L 124.345303 132.26001 
L 126.446061 132.863832 
L 128.546818 133.446718 
L 130.647576 133.970206 
L 132.748333 134.482807 
L 134.849091 134.977295 
L 136.949848 135.422946 
L 139.050606 136.527396 
L 141.151364 137.609512 
L 143.252121 138.696453 
L 145.352879 139.703108 
L 147.453636 140.674783 
L 149.554394 141.613421 
L 151.655152 142.57766 
L 153.755909 143.534386 
L 155.856667 144.452045 
L 157.957424 145.352 
" clip-path="url(#pb526e7f30a)" style="fill: none; stroke: #000000; stroke-opacity: 0.3; stroke-width: 2; stroke-linecap: square"/>
   </g>
   <g id="line2d_22">
    <path d="M 157.957424 145.352 
L 164.259697 149.29986 
L 168.461212 152.207912 
L 172.662727 155.395948 
L 176.864242 158.700732 
L 185.267273 165.942256 
L 191.569545 171.638809 
L 197.871818 177.718489 
L 210.476364 189.639322 
L 225.181667 203.169833 
L 233.584697 210.682699 
L 241.987727 217.733243 
L 248.29 222.829899 
L 262.995303 234.082265 
L 269.297576 238.707856 
L 290.305152 253.543388 
L 296.607424 257.66207 
L 302.909697 261.482349 
L 311.312727 266.294159 
L 317.615 269.730234 
L 330.219545 276.180213 
L 355.428636 288.814214 
L 365.932424 293.756015 
L 380.637727 300.267726 
L 391.141515 304.423671 
L 397.443788 306.739921 
L 405.846818 309.681753 
L 412.149091 311.715387 
L 433.156667 318.038295 
L 447.86197 321.995679 
L 466.768788 326.855395 
L 483.574848 330.969189 
L 498.280152 334.131431 
L 512.985455 336.87783 
L 523.489242 338.593175 
L 540.295303 341.00376 
L 548.698333 341.983085 
L 571.806667 344.023672 
L 584.411212 344.830829 
L 594.915 345.464523 
L 601.217273 345.970393 
L 613.821818 347.237609 
L 628.527121 349.024502 
L 649.534697 351.73788 
L 662.139242 352.992919 
L 685.247576 354.99834 
L 702.053636 356.124182 
L 714.658182 357.025664 
L 723.061212 357.612413 
L 729.363485 358.038443 
L 746.169545 358.642766 
L 746.169545 358.642766 
" clip-path="url(#pb526e7f30a)" style="fill: none; stroke: #70b8ff; stroke-opacity: 0.3; stroke-width: 2; stroke-linecap: square"/>
   </g>
   <g id="line2d_23">
    <path d="M 115.942273 128.226197 
L 118.04303 128.846667 
L 120.143788 129.500213 
L 122.244545 130.127858 
L 124.345303 130.724058 
L 126.446061 131.291698 
L 128.546818 131.85433 
L 130.647576 132.366909 
L 132.748333 132.890579 
L 134.849091 133.418847 
L 136.949848 133.897476 
L 139.050606 134.990095 
L 141.151364 136.099145 
L 143.252121 137.242497 
L 145.352879 138.364063 
L 147.453636 139.470349 
L 149.554394 140.588268 
L 151.655152 141.727313 
L 153.755909 142.869642 
L 155.856667 144.078068 
L 157.957424 145.352 
" clip-path="url(#pb526e7f30a)" style="fill: none; stroke: #000000; stroke-opacity: 0.3; stroke-width: 2; stroke-linecap: square"/>
   </g>
   <g id="line2d_24">
    <path d="M 157.957424 145.352 
L 166.360455 150.767305 
L 170.56197 153.710501 
L 174.763485 156.919816 
L 178.965 160.401365 
L 191.569545 171.241692 
L 202.073333 180.575135 
L 212.577121 189.770456 
L 225.181667 201.04934 
L 239.88697 214.738154 
L 254.592273 228.234251 
L 267.196818 239.167634 
L 302.909697 269.211577 
L 313.413485 277.227626 
L 323.917273 284.761116 
L 332.320303 290.575315 
L 347.025606 300.244556 
L 355.428636 305.768912 
L 361.730909 309.600912 
L 370.133939 314.184552 
L 380.637727 319.545529 
L 391.141515 324.153429 
L 399.544545 327.54739 
L 410.048333 331.814185 
L 437.358182 343.017484 
L 447.86197 346.996198 
L 458.365758 350.666414 
L 464.66803 352.566399 
L 491.977879 359.546534 
L 498.280152 361.048181 
L 504.582424 362.623992 
L 517.18697 365.925831 
L 531.892273 369.382897 
L 540.295303 371.165239 
L 544.496818 371.958835 
L 563.403636 374.990391 
L 597.015758 379.312057 
L 603.31803 380.120605 
L 615.922576 381.863085 
L 626.426364 383.072247 
L 643.232424 384.922474 
L 676.844545 387.53815 
L 683.146818 388.185469 
L 695.751364 389.838292 
L 704.154394 390.964402 
L 712.557424 391.783307 
L 727.262727 393.017407 
L 741.96803 393.368741 
L 746.169545 393.429048 
L 746.169545 393.429048 
" clip-path="url(#pb526e7f30a)" style="fill: none; stroke: #fb7800; stroke-opacity: 0.3; stroke-width: 2; stroke-linecap: square"/>
   </g>
   <g id="line2d_25">
    <path d="M 115.942273 128.242495 
L 118.04303 128.835682 
L 120.143788 129.450999 
L 122.244545 130.071994 
L 124.345303 130.705863 
L 126.446061 131.304393 
L 128.546818 131.894204 
L 130.647576 132.443911 
L 132.748333 132.987148 
L 134.849091 133.514396 
L 136.949848 133.996292 
L 139.050606 135.077904 
L 141.151364 136.161363 
L 143.252121 137.2776 
L 145.352879 138.413044 
L 147.453636 139.498683 
L 149.554394 140.611845 
L 151.655152 141.740495 
L 153.755909 142.916435 
L 155.856667 144.113938 
L 157.957424 145.352 
" clip-path="url(#pb526e7f30a)" style="fill: none; stroke: #000000; stroke-opacity: 0.3; stroke-width: 2; stroke-linecap: square"/>
   </g>
   <g id="line2d_26">
    <path d="M 157.957424 145.352 
L 164.259697 150.609998 
L 168.461212 154.489195 
L 172.662727 158.689512 
L 176.864242 163.136991 
L 185.267273 172.687611 
L 199.972576 190.097448 
L 208.375606 199.652826 
L 218.879394 211.666183 
L 229.383182 224.063349 
L 233.584697 229.337478 
L 241.987727 240.220075 
L 248.29 248.71514 
L 256.69303 260.1828 
L 265.096061 271.219637 
L 269.297576 276.621946 
L 273.499091 281.667978 
L 279.801364 288.691313 
L 288.204394 297.752327 
L 296.607424 306.315694 
L 305.010455 314.520795 
L 311.312727 320.352355 
L 321.816515 329.985129 
L 328.118788 335.676507 
L 334.421061 341.143184 
L 342.824091 348.163101 
L 349.126364 353.211529 
L 357.529394 359.670395 
L 363.831667 364.142144 
L 370.133939 368.286082 
L 378.53697 373.495477 
L 389.040758 379.671811 
L 399.544545 385.793442 
L 412.149091 392.865475 
L 418.451364 396.082711 
L 426.854394 400.138471 
L 433.156667 402.909635 
L 439.458939 405.423608 
L 445.761212 407.706234 
L 458.365758 412.015188 
L 468.869545 415.420447 
L 479.373333 418.54185 
L 527.690758 432.984142 
L 540.295303 436.338743 
L 546.597576 437.782816 
L 555.000606 439.459734 
L 563.403636 440.877594 
L 571.806667 442.119733 
L 592.814242 444.802104 
L 603.31803 445.940114 
L 613.821818 446.973787 
L 626.426364 448.345223 
L 641.131667 449.696725 
L 660.038485 451.329835 
L 712.557424 455.140978 
L 731.464242 456.713552 
L 746.169545 457.468365 
L 746.169545 457.468365 
" clip-path="url(#pb526e7f30a)" style="fill: none; stroke: #fb7900; stroke-opacity: 0.3; stroke-width: 2; stroke-linecap: square"/>
   </g>
   <g id="line2d_27">
    <path d="M 115.942273 126.112521 
L 118.04303 126.640383 
L 120.143788 127.231721 
L 122.244545 127.825649 
L 124.345303 128.411635 
L 126.446061 128.979927 
L 128.546818 129.560759 
L 130.647576 130.112866 
L 132.748333 130.674529 
L 134.849091 131.218145 
L 136.949848 131.737478 
L 139.050606 132.838671 
L 141.151364 134.012951 
L 143.252121 135.296594 
L 145.352879 136.604503 
L 147.453636 137.887562 
L 149.554394 139.233264 
L 151.655152 140.651966 
L 153.755909 142.157404 
L 155.856667 143.718794 
L 157.957424 145.352 
" clip-path="url(#pb526e7f30a)" style="fill: none; stroke: #000000; stroke-opacity: 0.3; stroke-width: 2; stroke-linecap: square"/>
   </g>
   <g id="line2d_28">
    <path d="M 157.957424 145.352 
L 162.158939 148.364968 
L 166.360455 151.528011 
L 172.662727 156.291497 
L 174.763485 158.032029 
L 176.864242 159.973878 
L 181.065758 163.434457 
L 185.267273 167.249267 
L 191.569545 173.134123 
L 195.771061 176.898494 
L 202.073333 182.558763 
L 206.274848 186.284704 
L 212.577121 191.448481 
L 216.778636 194.751753 
L 220.980152 197.991412 
L 225.181667 201.410907 
L 233.584697 208.170122 
L 239.88697 213.185851 
L 244.088485 216.261305 
L 260.894545 228.281349 
L 288.204394 248.59797 
L 294.506667 253.305167 
L 315.514242 268.701358 
L 338.622576 285.456438 
L 347.025606 291.510127 
L 359.630152 300.553273 
L 363.831667 303.550485 
L 372.234697 308.811154 
L 382.738485 314.868492 
L 391.141515 319.497806 
L 397.443788 322.676297 
L 403.746061 325.582642 
L 420.552121 332.744128 
L 428.955152 336.044383 
L 439.458939 339.882438 
L 447.86197 342.647339 
L 468.869545 349.334575 
L 475.171818 351.077959 
L 487.776364 354.116842 
L 498.280152 356.38661 
L 506.683182 357.997825 
L 517.18697 359.918968 
L 533.99303 362.941472 
L 555.000606 366.164712 
L 567.605152 367.882567 
L 580.209697 369.41573 
L 586.51197 369.79058 
L 594.915 370.380073 
L 609.620303 371.591959 
L 626.426364 372.66454 
L 634.829394 372.768137 
L 645.333182 372.559294 
L 660.038485 371.895451 
L 664.24 371.66387 
L 676.844545 371.398423 
L 687.348333 371.492421 
L 693.650606 371.703485 
L 710.456667 372.605102 
L 725.16197 373.458334 
L 731.464242 373.718312 
L 746.169545 374.070306 
L 746.169545 374.070306 
" clip-path="url(#pb526e7f30a)" style="fill: none; stroke: #e34500; stroke-opacity: 0.3; stroke-width: 2; stroke-linecap: square"/>
   </g>
   <g id="line2d_29">
    <path d="M 115.942273 126.619868 
L 118.04303 127.207539 
L 120.143788 127.775735 
L 122.244545 128.304136 
L 124.345303 128.836591 
L 126.446061 129.377481 
L 128.546818 129.949576 
L 130.647576 130.535451 
L 132.748333 131.154364 
L 134.849091 131.780284 
L 136.949848 132.397508 
L 139.050606 133.548019 
L 141.151364 134.727101 
L 143.252121 135.929764 
L 145.352879 137.126731 
L 147.453636 138.343065 
L 149.554394 139.621451 
L 151.655152 140.970211 
L 153.755909 142.415409 
L 155.856667 143.885537 
L 157.957424 145.352 
" clip-path="url(#pb526e7f30a)" style="fill: none; stroke: #000000; stroke-opacity: 0.3; stroke-width: 2; stroke-linecap: square"/>
   </g>
   <g id="line2d_30">
    <path d="M 157.957424 145.352 
L 162.158939 147.935737 
L 168.461212 151.471774 
L 172.662727 153.888885 
L 176.864242 156.564999 
L 185.267273 162.353293 
L 189.468788 165.23678 
L 199.972576 172.543535 
L 220.980152 186.352655 
L 237.786212 198.44377 
L 244.088485 202.780552 
L 288.204394 233.105182 
L 294.506667 237.086292 
L 300.808939 240.774262 
L 305.010455 243.00609 
L 311.312727 246.011736 
L 321.816515 250.743961 
L 336.521818 256.80112 
L 378.53697 274.491099 
L 389.040758 278.521156 
L 401.645303 282.73088 
L 405.846818 283.830213 
L 416.350606 286.096842 
L 431.055909 288.646359 
L 435.257424 289.303295 
L 441.559697 290.030456 
L 449.962727 290.869844 
L 470.970303 293.467727 
L 483.574848 295.127586 
L 510.884697 300.136611 
L 517.18697 301.200808 
L 550.799091 307.484634 
L 567.605152 311.03087 
L 582.310455 313.679844 
L 594.915 315.717092 
L 609.620303 317.528079 
L 615.922576 318.132841 
L 645.333182 320.423884 
L 653.736212 321.043353 
L 660.038485 321.7137 
L 678.945303 324.019993 
L 689.449091 325.316836 
L 706.255152 327.149545 
L 729.363485 329.598325 
L 739.867273 330.290178 
L 746.169545 330.6381 
L 746.169545 330.6381 
" clip-path="url(#pb526e7f30a)" style="fill: none; stroke: #f76800; stroke-opacity: 0.3; stroke-width: 2; stroke-linecap: square"/>
   </g>
   <g id="line2d_31">
    <path d="M 115.942273 126.76569 
L 118.04303 127.396915 
L 120.143788 127.972999 
L 122.244545 128.545692 
L 124.345303 129.33452 
L 126.446061 130.077594 
L 128.546818 130.785807 
L 130.647576 131.445347 
L 132.748333 132.152722 
L 134.849091 132.800253 
L 136.949848 133.358241 
L 139.050606 134.458582 
L 141.151364 135.588147 
L 143.252121 136.729674 
L 145.352879 137.911568 
L 147.453636 139.071223 
L 149.554394 140.268557 
L 151.655152 141.493197 
L 153.755909 142.741329 
L 155.856667 144.035977 
L 157.957424 145.352 
" clip-path="url(#pb526e7f30a)" style="fill: none; stroke: #000000; stroke-opacity: 0.3; stroke-width: 2; stroke-linecap: square"/>
   </g>
   <g id="line2d_32">
    <path d="M 157.957424 145.352 
L 166.360455 150.522663 
L 172.662727 154.266897 
L 176.864242 156.557169 
L 178.965 157.851792 
L 185.267273 162.35544 
L 189.468788 165.51349 
L 193.670303 169.049379 
L 199.972576 174.696067 
L 206.274848 180.452692 
L 210.476364 184.683116 
L 214.677879 189.204246 
L 237.786212 215.375788 
L 246.189242 224.049748 
L 250.390758 228.254749 
L 254.592273 232.190787 
L 260.894545 237.710653 
L 271.398333 246.760923 
L 281.902121 255.846391 
L 288.204394 261.356436 
L 294.506667 266.561446 
L 309.21197 278.696273 
L 319.715758 286.753271 
L 344.924848 304.974215 
L 355.428636 311.598486 
L 372.234697 321.432495 
L 389.040758 330.156828 
L 397.443788 334.762536 
L 403.746061 338.039231 
L 412.149091 342.077786 
L 420.552121 345.649104 
L 428.955152 348.75415 
L 433.156667 350.089439 
L 441.559697 352.524357 
L 452.063485 355.414225 
L 462.567273 358.432884 
L 485.675606 365.439727 
L 494.078636 367.956956 
L 504.582424 370.790611 
L 512.985455 372.799682 
L 525.59 375.821203 
L 540.295303 379.010685 
L 557.101364 382.364917 
L 561.302879 383.00446 
L 571.806667 384.494633 
L 590.713485 387.321775 
L 605.418788 389.700314 
L 611.721061 390.84601 
L 622.224848 392.92924 
L 628.527121 394.028436 
L 645.333182 396.478761 
L 651.635455 397.008818 
L 657.937727 397.380702 
L 668.441515 397.962633 
L 674.743788 398.35622 
L 683.146818 398.737683 
L 685.247576 398.890725 
L 695.751364 400.112914 
L 720.960455 402.858993 
L 727.262727 403.586582 
L 746.169545 404.616635 
L 746.169545 404.616635 
" clip-path="url(#pb526e7f30a)" style="fill: none; stroke: #9d2800; stroke-opacity: 0.3; stroke-width: 2; stroke-linecap: square"/>
   </g>
   <g id="line2d_33">
    <path d="M 115.942273 126.301503 
L 118.04303 126.83808 
L 120.143788 127.395487 
L 122.244545 127.941191 
L 124.345303 128.541961 
L 126.446061 129.168137 
L 128.546818 129.923102 
L 130.647576 130.626038 
L 132.748333 131.380212 
L 134.849091 132.063895 
L 136.949848 132.649749 
L 139.050606 133.839277 
L 141.151364 135.105151 
L 143.252121 136.450997 
L 145.352879 137.79631 
L 147.453636 139.113148 
L 149.554394 140.367771 
L 151.655152 141.603019 
L 153.755909 142.854853 
L 155.856667 144.109553 
L 157.957424 145.352 
" clip-path="url(#pb526e7f30a)" style="fill: none; stroke: #000000; stroke-opacity: 0.3; stroke-width: 2; stroke-linecap: square"/>
   </g>
   <g id="line2d_34">
    <path d="M 157.957424 145.352 
L 170.56197 154.249596 
L 174.763485 157.646772 
L 176.864242 159.46279 
L 181.065758 163.506992 
L 183.166515 165.590101 
L 187.36803 170.133782 
L 191.569545 174.912137 
L 202.073333 187.056929 
L 229.383182 217.945967 
L 235.685455 224.64119 
L 250.390758 240.102519 
L 260.894545 250.880738 
L 265.096061 254.855258 
L 269.297576 258.548308 
L 273.499091 262.194626 
L 281.902121 270.509661 
L 286.103636 274.555478 
L 292.405909 280.196397 
L 296.607424 283.6463 
L 300.808939 286.90285 
L 305.010455 289.847176 
L 311.312727 294.084425 
L 315.514242 296.653721 
L 319.715758 298.929612 
L 330.219545 304.080287 
L 340.723333 308.854816 
L 344.924848 310.56935 
L 351.227121 313.223128 
L 370.133939 320.682245 
L 376.436212 322.704096 
L 389.040758 326.082879 
L 395.34303 327.481694 
L 412.149091 330.791153 
L 420.552121 332.142249 
L 441.559697 334.907523 
L 458.365758 336.207574 
L 468.869545 336.699944 
L 479.373333 336.806675 
L 483.574848 336.904959 
L 494.078636 337.363769 
L 510.884697 338.436687 
L 529.791515 339.973941 
L 536.093788 340.346324 
L 561.302879 341.502486 
L 580.209697 342.96807 
L 584.411212 343.139691 
L 601.217273 344.497082 
L 611.721061 345.230014 
L 615.922576 345.565592 
L 620.124091 345.860451 
L 624.325606 346.154318 
L 630.627879 346.660909 
L 643.232424 347.425949 
L 649.534697 347.503733 
L 655.83697 347.451513 
L 664.24 347.098101 
L 670.542273 346.935303 
L 687.348333 346.397624 
L 695.751364 346.432738 
L 702.053636 346.636467 
L 708.355909 347.01804 
L 716.758939 347.561976 
L 725.16197 348.347699 
L 729.363485 348.636083 
L 746.169545 349.309169 
L 746.169545 349.309169 
" clip-path="url(#pb526e7f30a)" style="fill: none; stroke: #c12a00; stroke-opacity: 0.3; stroke-width: 2; stroke-linecap: square"/>
   </g>
   <g id="line2d_35">
    <path d="M 115.942273 125.82496 
L 118.04303 126.392233 
L 120.143788 126.89845 
L 122.244545 127.463553 
L 124.345303 128.102114 
L 126.446061 128.889244 
L 128.546818 129.634657 
L 130.647576 130.329347 
L 132.748333 131.077392 
L 134.849091 131.758817 
L 136.949848 132.345284 
L 139.050606 133.474945 
L 141.151364 134.674984 
L 143.252121 135.934486 
L 145.352879 137.213889 
L 147.453636 138.465765 
L 149.554394 139.759033 
L 151.655152 141.087687 
L 153.755909 142.494008 
L 155.856667 143.93148 
L 157.957424 145.352 
" clip-path="url(#pb526e7f30a)" style="fill: none; stroke: #000000; stroke-opacity: 0.3; stroke-width: 2; stroke-linecap: square"/>
   </g>
   <g id="line2d_36">
    <path d="M 157.957424 145.352 
L 162.158939 147.315013 
L 166.360455 149.261541 
L 170.56197 151.515784 
L 176.864242 155.548182 
L 185.267273 161.465827 
L 193.670303 167.256511 
L 199.972576 171.740502 
L 204.174091 174.997404 
L 210.476364 180.244039 
L 216.778636 185.250361 
L 225.181667 192.095289 
L 229.383182 195.770403 
L 233.584697 199.624411 
L 244.088485 209.945024 
L 250.390758 216.254144 
L 258.793788 224.802369 
L 265.096061 231.298305 
L 271.398333 237.455911 
L 286.103636 251.250285 
L 290.305152 254.827787 
L 302.909697 264.48757 
L 313.413485 272.053645 
L 317.615 274.734738 
L 323.917273 278.417957 
L 328.118788 280.677243 
L 336.521818 285.041063 
L 340.723333 287.171833 
L 372.234697 301.35048 
L 380.637727 304.94853 
L 389.040758 308.264935 
L 412.149091 317.183249 
L 422.652879 320.788768 
L 431.055909 323.544863 
L 439.458939 326.060989 
L 445.761212 327.711015 
L 475.171818 334.891853 
L 523.489242 344.619745 
L 533.99303 346.441631 
L 540.295303 347.387228 
L 552.899848 349.036502 
L 561.302879 349.983739 
L 582.310455 351.59816 
L 590.713485 352.323728 
L 599.116515 353.127819 
L 605.418788 353.985919 
L 620.124091 356.172844 
L 634.829394 357.970346 
L 643.232424 358.821776 
L 657.937727 360.265817 
L 672.64303 361.975115 
L 689.449091 364.174571 
L 695.751364 364.814322 
L 708.355909 365.91949 
L 718.859697 366.768872 
L 725.16197 367.197254 
L 741.96803 367.690493 
L 746.169545 367.78281 
L 746.169545 367.78281 
" clip-path="url(#pb526e7f30a)" style="fill: none; stroke: #fa7500; stroke-opacity: 0.3; stroke-width: 2; stroke-linecap: square"/>
   </g>
   <g id="line2d_37">
    <path d="M 115.942273 127.091061 
L 118.04303 127.640493 
L 120.143788 128.225627 
L 122.244545 128.809845 
L 124.345303 129.38453 
L 126.446061 129.969915 
L 128.546818 130.565552 
L 130.647576 131.168936 
L 132.748333 131.783075 
L 134.849091 132.393029 
L 136.949848 132.998921 
L 139.050606 134.162034 
L 141.151364 135.400367 
L 143.252121 136.831823 
L 145.352879 138.254978 
L 147.453636 139.563945 
L 149.554394 140.830572 
L 151.655152 142.037492 
L 153.755909 143.19412 
L 155.856667 144.302131 
L 157.957424 145.352 
" clip-path="url(#pb526e7f30a)" style="fill: none; stroke: #000000; stroke-opacity: 0.3; stroke-width: 2; stroke-linecap: square"/>
   </g>
   <g id="line2d_38">
    <path d="M 157.957424 145.352 
L 166.360455 152.169697 
L 170.56197 155.93341 
L 185.267273 169.674451 
L 191.569545 175.515664 
L 199.972576 182.8601 
L 204.174091 186.377012 
L 210.476364 191.533133 
L 218.879394 198.482174 
L 233.584697 210.27349 
L 252.491515 224.42133 
L 258.793788 228.815008 
L 265.096061 232.780522 
L 275.599848 238.970053 
L 286.103636 244.911548 
L 292.405909 248.188687 
L 300.808939 252.139394 
L 313.413485 257.919421 
L 319.715758 260.365624 
L 323.917273 261.474636 
L 328.118788 262.385272 
L 340.723333 264.696618 
L 344.924848 265.31419 
L 349.126364 265.73464 
L 357.529394 266.476274 
L 363.831667 267.180373 
L 374.335455 267.896312 
L 378.53697 268.066811 
L 384.839242 268.059321 
L 389.040758 267.941173 
L 399.544545 267.303226 
L 414.249848 265.768285 
L 420.552121 265.205487 
L 435.257424 264.045812 
L 458.365758 261.553442 
L 464.66803 260.519435 
L 479.373333 257.778128 
L 500.380909 253.238139 
L 508.783939 252.016518 
L 523.489242 250.206409 
L 536.093788 248.925029 
L 542.396061 247.975331 
L 565.504394 243.237959 
L 576.008182 241.378542 
L 582.310455 240.412701 
L 586.51197 239.877466 
L 597.015758 238.660827 
L 605.418788 237.511565 
L 620.124091 235.000238 
L 626.426364 233.733095 
L 634.829394 231.754378 
L 647.433939 228.54527 
L 660.038485 225.784072 
L 664.24 224.763628 
L 676.844545 222.039693 
L 681.046061 221.382693 
L 689.449091 219.953684 
L 697.852121 218.225891 
L 708.355909 216.416641 
L 729.363485 213.019437 
L 746.169545 211.71655 
L 746.169545 211.71655 
" clip-path="url(#pb526e7f30a)" style="fill: none; stroke: #fd9b00; stroke-opacity: 0.3; stroke-width: 2; stroke-linecap: square"/>
   </g>
   <g id="line2d_39">
    <path d="M 115.942273 124.780997 
L 118.04303 125.337675 
L 120.143788 125.894403 
L 122.244545 126.521912 
L 124.345303 127.134997 
L 126.446061 127.753371 
L 128.546818 128.384584 
L 130.647576 128.993435 
L 132.748333 129.599447 
L 134.849091 130.272072 
L 136.949848 130.882999 
L 139.050606 132.032527 
L 141.151364 133.247774 
L 143.252121 134.506914 
L 145.352879 135.881052 
L 147.453636 137.269084 
L 149.554394 138.768638 
L 151.655152 140.335187 
L 153.755909 141.976906 
L 155.856667 143.648742 
L 157.957424 145.352 
" clip-path="url(#pb526e7f30a)" style="fill: none; stroke: #000000; stroke-opacity: 0.3; stroke-width: 2; stroke-linecap: square"/>
   </g>
   <g id="line2d_40">
    <path d="M 764.551174 395.438964 
L 774.004583 395.438964 
L 774.004583 249.502202 
L 764.551174 249.502202 
L 764.551174 395.438964 
" clip-path="url(#pb526e7f30a)" style="fill: none; stroke: #92b9c1; stroke-width: 2; stroke-linecap: square"/>
   </g>
   <g id="line2d_41">
    <path d="M 769.277879 395.438964 
L 769.277879 431.626908 
" clip-path="url(#pb526e7f30a)" style="fill: none; stroke: #92b9c1; stroke-linecap: square"/>
   </g>
   <g id="line2d_42">
    <path d="M 769.277879 249.502202 
L 769.277879 52.382468 
" clip-path="url(#pb526e7f30a)" style="fill: none; stroke: #92b9c1; stroke-linecap: square"/>
   </g>
   <g id="line2d_43">
    <path d="M 766.914527 431.626908 
L 771.641231 431.626908 
" clip-path="url(#pb526e7f30a)" style="fill: none; stroke: #92b9c1; stroke-linecap: square"/>
   </g>
   <g id="line2d_44">
    <path d="M 766.914527 52.382468 
L 771.641231 52.382468 
" clip-path="url(#pb526e7f30a)" style="fill: none; stroke: #92b9c1; stroke-linecap: square"/>
   </g>
   <g id="line2d_45">
    <path d="M 777.15572 428.191815 
L 786.609129 428.191815 
L 786.609129 294.544762 
L 777.15572 294.544762 
L 777.15572 428.191815 
" clip-path="url(#pb526e7f30a)" style="fill: none; stroke: #ff8f00; stroke-width: 2; stroke-linecap: square"/>
   </g>
   <g id="line2d_46">
    <path d="M 781.882424 428.191815 
L 781.882424 460.679366 
" clip-path="url(#pb526e7f30a)" style="fill: none; stroke: #ff8f00; stroke-linecap: square"/>
   </g>
   <g id="line2d_47">
    <path d="M 781.882424 294.544762 
L 781.882424 181.821627 
" clip-path="url(#pb526e7f30a)" style="fill: none; stroke: #ff8f00; stroke-linecap: square"/>
   </g>
   <g id="line2d_48">
    <path d="M 779.519072 460.679366 
L 784.245777 460.679366 
" clip-path="url(#pb526e7f30a)" style="fill: none; stroke: #ff8f00; stroke-linecap: square"/>
   </g>
   <g id="line2d_49">
    <path d="M 779.519072 181.821627 
L 784.245777 181.821627 
" clip-path="url(#pb526e7f30a)" style="fill: none; stroke: #ff8f00; stroke-linecap: square"/>
   </g>
   <g id="line2d_50">
    <path d="M 789.760265 495.008122 
L 799.213674 495.008122 
L 799.213674 405.298621 
L 789.760265 405.298621 
L 789.760265 495.008122 
" clip-path="url(#pb526e7f30a)" style="fill: none; stroke: #662b00; stroke-width: 2; stroke-linecap: square"/>
   </g>
   <g id="line2d_51">
    <path d="M 794.48697 495.008122 
L 794.48697 515.053247 
" clip-path="url(#pb526e7f30a)" style="fill: none; stroke: #662b00; stroke-linecap: square"/>
   </g>
   <g id="line2d_52">
    <path d="M 794.48697 405.298621 
L 794.48697 382.078692 
" clip-path="url(#pb526e7f30a)" style="fill: none; stroke: #662b00; stroke-linecap: square"/>
   </g>
   <g id="line2d_53">
    <path d="M 792.123617 515.053247 
L 796.850322 515.053247 
" clip-path="url(#pb526e7f30a)" style="fill: none; stroke: #662b00; stroke-linecap: square"/>
   </g>
   <g id="line2d_54">
    <path d="M 792.123617 382.078692 
L 796.850322 382.078692 
" clip-path="url(#pb526e7f30a)" style="fill: none; stroke: #662b00; stroke-linecap: square"/>
   </g>
   <g id="line2d_55">
    <path d="M 764.551174 341.763226 
L 774.004583 341.763226 
" clip-path="url(#pb526e7f30a)" style="fill: none; stroke: #92b9c1; stroke-width: 4; stroke-linecap: square"/>
   </g>
   <g id="line2d_56">
    <path d="M 777.15572 370.093959 
L 786.609129 370.093959 
" clip-path="url(#pb526e7f30a)" style="fill: none; stroke: #ff8f00; stroke-width: 4; stroke-linecap: square"/>
   </g>
   <g id="line2d_57">
    <path d="M 789.760265 447.678824 
L 799.213674 447.678824 
" clip-path="url(#pb526e7f30a)" style="fill: none; stroke: #662b00; stroke-width: 4; stroke-linecap: square"/>
   </g>
   <g id="patch_3">
    <path d="M 109.64 515.56 
L 109.64 52.8 
" style="fill: none; stroke: #000000; stroke-width: 0.8; stroke-linejoin: miter; stroke-linecap: square"/>
   </g>
   <g id="patch_4">
    <path d="M 109.64 515.56 
L 802.89 515.56 
" style="fill: none; stroke: #000000; stroke-width: 0.8; stroke-linejoin: miter; stroke-linecap: square"/>
   </g>
   <g id="text_14">
    <!-- +1.5C -->
    <g style="fill: #92b9c1" transform="translate(802.89 346.730101) scale(0.18 -0.18)">
     <defs>
      <path id="DejaVuSans-Bold-2b" d="M 3053 4013 
L 3053 2375 
L 4684 2375 
L 4684 1638 
L 3053 1638 
L 3053 0 
L 2309 0 
L 2309 1638 
L 678 1638 
L 678 2375 
L 2309 2375 
L 2309 4013 
L 3053 4013 
z
" transform="scale(0.015625)"/>
      <path id="DejaVuSans-Bold-31" d="M 750 831 
L 1813 831 
L 1813 3847 
L 722 3622 
L 722 4441 
L 1806 4666 
L 2950 4666 
L 2950 831 
L 4013 831 
L 4013 0 
L 750 0 
L 750 831 
z
" transform="scale(0.015625)"/>
      <path id="DejaVuSans-Bold-2e" d="M 653 1209 
L 1778 1209 
L 1778 0 
L 653 0 
L 653 1209 
z
" transform="scale(0.015625)"/>
      <path id="DejaVuSans-Bold-35" d="M 678 4666 
L 3669 4666 
L 3669 3781 
L 1638 3781 
L 1638 3059 
Q 1775 3097 1914 3117 
Q 2053 3138 2203 3138 
Q 3056 3138 3531 2711 
Q 4006 2284 4006 1522 
Q 4006 766 3489 337 
Q 2972 -91 2053 -91 
Q 1656 -91 1267 -14 
Q 878 63 494 219 
L 494 1166 
Q 875 947 1217 837 
Q 1559 728 1863 728 
Q 2300 728 2551 942 
Q 2803 1156 2803 1522 
Q 2803 1891 2551 2103 
Q 2300 2316 1863 2316 
Q 1603 2316 1309 2248 
Q 1016 2181 678 2041 
L 678 4666 
z
" transform="scale(0.015625)"/>
      <path id="DejaVuSans-Bold-b0" d="M 1600 4288 
Q 1375 4288 1219 4131 
Q 1063 3975 1063 3750 
Q 1063 3525 1217 3372 
Q 1372 3219 1600 3219 
Q 1825 3219 1981 3373 
Q 2138 3528 2138 3750 
Q 2138 3975 1980 4131 
Q 1822 4288 1600 4288 
z
M 1600 4794 
Q 1806 4794 1997 4714 
Q 2188 4634 2338 4488 
Q 2484 4338 2561 4150 
Q 2638 3963 2638 3750 
Q 2638 3541 2561 3352 
Q 2484 3163 2344 3022 
Q 2194 2872 2000 2792 
Q 1806 2713 1594 2713 
Q 1153 2713 854 3011 
Q 556 3309 556 3750 
Q 556 4191 857 4492 
Q 1159 4794 1600 4794 
z
" transform="scale(0.015625)"/>
      <path id="DejaVuSans-Bold-43" d="M 4288 256 
Q 3956 84 3597 -3 
Q 3238 -91 2847 -91 
Q 1681 -91 1000 561 
Q 319 1213 319 2328 
Q 319 3447 1000 4098 
Q 1681 4750 2847 4750 
Q 3238 4750 3597 4662 
Q 3956 4575 4288 4403 
L 4288 3438 
Q 3953 3666 3628 3772 
Q 3303 3878 2944 3878 
Q 2300 3878 1931 3465 
Q 1563 3053 1563 2328 
Q 1563 1606 1931 1193 
Q 2300 781 2944 781 
Q 3303 781 3628 887 
Q 3953 994 4288 1222 
L 4288 256 
z
" transform="scale(0.015625)"/>
     </defs>
     <use xlink:href="#DejaVuSans-Bold-2b"/>
     <use xlink:href="#DejaVuSans-Bold-31" x="83.789062"/>
     <use xlink:href="#DejaVuSans-Bold-2e" x="153.369141"/>
     <use xlink:href="#DejaVuSans-Bold-35" x="191.357422"/>
     <use xlink:href="#DejaVuSans-Bold-b0" x="260.9375"/>
     <use xlink:href="#DejaVuSans-Bold-43" x="310.9375"/>
    </g>
   </g>
   <g id="text_15">
    <!-- +2.0C -->
    <g style="fill: #ff8f00" transform="translate(802.89 375.060834) scale(0.18 -0.18)">
     <defs>
      <path id="DejaVuSans-Bold-32" d="M 1844 884 
L 3897 884 
L 3897 0 
L 506 0 
L 506 884 
L 2209 2388 
Q 2438 2594 2547 2791 
Q 2656 2988 2656 3200 
Q 2656 3528 2436 3728 
Q 2216 3928 1850 3928 
Q 1569 3928 1234 3808 
Q 900 3688 519 3450 
L 519 4475 
Q 925 4609 1322 4679 
Q 1719 4750 2100 4750 
Q 2938 4750 3402 4381 
Q 3866 4013 3866 3353 
Q 3866 2972 3669 2642 
Q 3472 2313 2841 1759 
L 1844 884 
z
" transform="scale(0.015625)"/>
      <path id="DejaVuSans-Bold-30" d="M 2944 2338 
Q 2944 3213 2780 3570 
Q 2616 3928 2228 3928 
Q 1841 3928 1675 3570 
Q 1509 3213 1509 2338 
Q 1509 1453 1675 1090 
Q 1841 728 2228 728 
Q 2613 728 2778 1090 
Q 2944 1453 2944 2338 
z
M 4147 2328 
Q 4147 1169 3647 539 
Q 3147 -91 2228 -91 
Q 1306 -91 806 539 
Q 306 1169 306 2328 
Q 306 3491 806 4120 
Q 1306 4750 2228 4750 
Q 3147 4750 3647 4120 
Q 4147 3491 4147 2328 
z
" transform="scale(0.015625)"/>
     </defs>
     <use xlink:href="#DejaVuSans-Bold-2b"/>
     <use xlink:href="#DejaVuSans-Bold-32" x="83.789062"/>
     <use xlink:href="#DejaVuSans-Bold-2e" x="153.369141"/>
     <use xlink:href="#DejaVuSans-Bold-30" x="191.357422"/>
     <use xlink:href="#DejaVuSans-Bold-b0" x="260.9375"/>
     <use xlink:href="#DejaVuSans-Bold-43" x="310.9375"/>
    </g>
   </g>
   <g id="text_16">
    <!-- +3.0C -->
    <g style="fill: #662b00" transform="translate(802.89 452.645699) scale(0.18 -0.18)">
     <defs>
      <path id="DejaVuSans-Bold-33" d="M 2981 2516 
Q 3453 2394 3698 2092 
Q 3944 1791 3944 1325 
Q 3944 631 3412 270 
Q 2881 -91 1863 -91 
Q 1503 -91 1142 -33 
Q 781 25 428 141 
L 428 1069 
Q 766 900 1098 814 
Q 1431 728 1753 728 
Q 2231 728 2486 893 
Q 2741 1059 2741 1369 
Q 2741 1688 2480 1852 
Q 2219 2016 1709 2016 
L 1228 2016 
L 1228 2791 
L 1734 2791 
Q 2188 2791 2409 2933 
Q 2631 3075 2631 3366 
Q 2631 3634 2415 3781 
Q 2200 3928 1806 3928 
Q 1516 3928 1219 3862 
Q 922 3797 628 3669 
L 628 4550 
Q 984 4650 1334 4700 
Q 1684 4750 2022 4750 
Q 2931 4750 3382 4451 
Q 3834 4153 3834 3553 
Q 3834 3144 3618 2883 
Q 3403 2622 2981 2516 
z
" transform="scale(0.015625)"/>
     </defs>
     <use xlink:href="#DejaVuSans-Bold-2b"/>
     <use xlink:href="#DejaVuSans-Bold-33" x="83.789062"/>
     <use xlink:href="#DejaVuSans-Bold-2e" x="153.369141"/>
     <use xlink:href="#DejaVuSans-Bold-30" x="191.357422"/>
     <use xlink:href="#DejaVuSans-Bold-b0" x="260.9375"/>
     <use xlink:href="#DejaVuSans-Bold-43" x="310.9375"/>
    </g>
   </g>
   <g id="text_17">
    <!-- Glaciers of Greenland -->
    <g transform="translate(310.02625 46.8) scale(0.24 -0.24)">
     <defs>
      <path id="DejaVuSans-Bold-47" d="M 4781 347 
Q 4331 128 3847 18 
Q 3363 -91 2847 -91 
Q 1681 -91 1000 561 
Q 319 1213 319 2328 
Q 319 3456 1012 4103 
Q 1706 4750 2913 4750 
Q 3378 4750 3804 4662 
Q 4231 4575 4609 4403 
L 4609 3438 
Q 4219 3659 3833 3768 
Q 3447 3878 3059 3878 
Q 2341 3878 1952 3476 
Q 1563 3075 1563 2328 
Q 1563 1588 1938 1184 
Q 2313 781 3003 781 
Q 3191 781 3352 804 
Q 3513 828 3641 878 
L 3641 1784 
L 2906 1784 
L 2906 2591 
L 4781 2591 
L 4781 347 
z
" transform="scale(0.015625)"/>
      <path id="DejaVuSans-Bold-6c" d="M 538 4863 
L 1656 4863 
L 1656 0 
L 538 0 
L 538 4863 
z
" transform="scale(0.015625)"/>
      <path id="DejaVuSans-Bold-73" d="M 3272 3391 
L 3272 2541 
Q 2913 2691 2578 2766 
Q 2244 2841 1947 2841 
Q 1628 2841 1473 2761 
Q 1319 2681 1319 2516 
Q 1319 2381 1436 2309 
Q 1553 2238 1856 2203 
L 2053 2175 
Q 2913 2066 3209 1816 
Q 3506 1566 3506 1031 
Q 3506 472 3093 190 
Q 2681 -91 1863 -91 
Q 1516 -91 1145 -36 
Q 775 19 384 128 
L 384 978 
Q 719 816 1070 734 
Q 1422 653 1784 653 
Q 2113 653 2278 743 
Q 2444 834 2444 1013 
Q 2444 1163 2330 1236 
Q 2216 1309 1875 1350 
L 1678 1375 
Q 931 1469 631 1722 
Q 331 1975 331 2491 
Q 331 3047 712 3315 
Q 1094 3584 1881 3584 
Q 2191 3584 2531 3537 
Q 2872 3491 3272 3391 
z
" transform="scale(0.015625)"/>
      <path id="DejaVuSans-Bold-64" d="M 2919 2988 
L 2919 4863 
L 4044 4863 
L 4044 0 
L 2919 0 
L 2919 506 
Q 2688 197 2409 53 
Q 2131 -91 1766 -91 
Q 1119 -91 703 423 
Q 288 938 288 1747 
Q 288 2556 703 3070 
Q 1119 3584 1766 3584 
Q 2128 3584 2408 3439 
Q 2688 3294 2919 2988 
z
M 2181 722 
Q 2541 722 2730 984 
Q 2919 1247 2919 1747 
Q 2919 2247 2730 2509 
Q 2541 2772 2181 2772 
Q 1825 2772 1636 2509 
Q 1447 2247 1447 1747 
Q 1447 1247 1636 984 
Q 1825 722 2181 722 
z
" transform="scale(0.015625)"/>
     </defs>
     <use xlink:href="#DejaVuSans-Bold-47"/>
     <use xlink:href="#DejaVuSans-Bold-6c" x="82.080078"/>
     <use xlink:href="#DejaVuSans-Bold-61" x="116.357422"/>
     <use xlink:href="#DejaVuSans-Bold-63" x="183.837891"/>
     <use xlink:href="#DejaVuSans-Bold-69" x="243.115234"/>
     <use xlink:href="#DejaVuSans-Bold-65" x="277.392578"/>
     <use xlink:href="#DejaVuSans-Bold-72" x="345.214844"/>
     <use xlink:href="#DejaVuSans-Bold-73" x="394.53125"/>
     <use xlink:href="#DejaVuSans-Bold-20" x="454.052734"/>
     <use xlink:href="#DejaVuSans-Bold-6f" x="488.867188"/>
     <use xlink:href="#DejaVuSans-Bold-66" x="557.568359"/>
     <use xlink:href="#DejaVuSans-Bold-20" x="601.074219"/>
     <use xlink:href="#DejaVuSans-Bold-47" x="635.888672"/>
     <use xlink:href="#DejaVuSans-Bold-72" x="717.96875"/>
     <use xlink:href="#DejaVuSans-Bold-65" x="767.285156"/>
     <use xlink:href="#DejaVuSans-Bold-65" x="835.107422"/>
     <use xlink:href="#DejaVuSans-Bold-6e" x="902.929688"/>
     <use xlink:href="#DejaVuSans-Bold-6c" x="974.121094"/>
     <use xlink:href="#DejaVuSans-Bold-61" x="1008.398438"/>
     <use xlink:href="#DejaVuSans-Bold-6e" x="1075.878906"/>
     <use xlink:href="#DejaVuSans-Bold-64" x="1147.070312"/>
    </g>
   </g>
   <g id="LineCollection_1">
    <path d="M 322.866894 266.612727 
L 329.169167 266.612727 
" clip-path="url(#pb526e7f30a)" style="fill: none; stroke: #70b8ff; stroke-opacity: 0.5; stroke-width: 3"/>
   </g>
   <g id="LineCollection_2">
    <path d="M 322.866894 268.86661 
L 329.169167 268.86661 
" clip-path="url(#pb526e7f30a)" style="fill: none; stroke: #92b9c1; stroke-opacity: 0.5; stroke-width: 3"/>
   </g>
   <g id="LineCollection_3">
    <path d="M 322.866894 271.105043 
L 329.169167 271.105043 
" clip-path="url(#pb526e7f30a)" style="fill: none; stroke: #c0ba6a; stroke-opacity: 0.5; stroke-width: 3"/>
   </g>
   <g id="LineCollection_4">
    <path d="M 322.866894 273.324941 
L 329.169167 273.324941 
" clip-path="url(#pb526e7f30a)" style="fill: none; stroke: #efbb14; stroke-opacity: 0.5; stroke-width: 3"/>
   </g>
   <g id="LineCollection_5">
    <path d="M 322.866894 275.535361 
L 329.169167 275.535361 
" clip-path="url(#pb526e7f30a)" style="fill: none; stroke: #fbaf00; stroke-opacity: 0.5; stroke-width: 3"/>
   </g>
   <g id="LineCollection_6">
    <path d="M 322.866894 277.750198 
L 329.169167 277.750198 
" clip-path="url(#pb526e7f30a)" style="fill: none; stroke: #fd9f00; stroke-opacity: 0.5; stroke-width: 3"/>
   </g>
   <g id="LineCollection_7">
    <path d="M 322.866894 279.98313 
L 329.169167 279.98313 
" clip-path="url(#pb526e7f30a)" style="fill: none; stroke: #ff8f00; stroke-opacity: 0.5; stroke-width: 3"/>
   </g>
   <g id="LineCollection_8">
    <path d="M 322.866894 282.244853 
L 329.169167 282.244853 
" clip-path="url(#pb526e7f30a)" style="fill: none; stroke: #fb7c00; stroke-opacity: 0.5; stroke-width: 3"/>
   </g>
   <g id="LineCollection_9">
    <path d="M 322.866894 284.542186 
L 329.169167 284.542186 
" clip-path="url(#pb526e7f30a)" style="fill: none; stroke: #f76800; stroke-opacity: 0.5; stroke-width: 3"/>
   </g>
   <g id="LineCollection_10">
    <path d="M 322.866894 286.878354 
L 329.169167 286.878354 
" clip-path="url(#pb526e7f30a)" style="fill: none; stroke: #f35400; stroke-opacity: 0.5; stroke-width: 3"/>
   </g>
   <g id="LineCollection_11">
    <path d="M 322.866894 289.2538 
L 329.169167 289.2538 
" clip-path="url(#pb526e7f30a)" style="fill: none; stroke: #e34500; stroke-opacity: 0.5; stroke-width: 3"/>
   </g>
   <g id="LineCollection_12">
    <path d="M 322.866894 291.667103 
L 329.169167 291.667103 
" clip-path="url(#pb526e7f30a)" style="fill: none; stroke: #d13600; stroke-opacity: 0.5; stroke-width: 3"/>
   </g>
   <g id="LineCollection_13">
    <path d="M 322.866894 294.115766 
L 329.169167 294.115766 
" clip-path="url(#pb526e7f30a)" style="fill: none; stroke: #bf2800; stroke-opacity: 0.5; stroke-width: 3"/>
   </g>
   <g id="LineCollection_14">
    <path d="M 322.866894 296.596786 
L 329.169167 296.596786 
" clip-path="url(#pb526e7f30a)" style="fill: none; stroke: #a32700; stroke-opacity: 0.5; stroke-width: 3"/>
   </g>
   <g id="LineCollection_15">
    <path d="M 322.866894 299.107032 
L 329.169167 299.107032 
" clip-path="url(#pb526e7f30a)" style="fill: none; stroke: #852900; stroke-opacity: 0.5; stroke-width: 3"/>
   </g>
   <g id="LineCollection_16">
    <path d="M 322.866894 301.64349 
L 329.169167 301.64349 
" clip-path="url(#pb526e7f30a)" style="fill: none; stroke: #682b00; stroke-opacity: 0.5; stroke-width: 3"/>
   </g>
   <g id="LineCollection_17">
    <path d="M 751.421439 336.469312 
L 757.723712 336.469312 
" clip-path="url(#pb526e7f30a)" style="fill: none; stroke: #70b8ff; stroke-opacity: 0.5; stroke-width: 3"/>
   </g>
   <g id="LineCollection_18">
    <path d="M 751.421439 341.763226 
L 757.723712 341.763226 
" clip-path="url(#pb526e7f30a)" style="fill: none; stroke: #92b9c1; stroke-opacity: 0.5; stroke-width: 3"/>
   </g>
   <g id="LineCollection_19">
    <path d="M 751.421439 347.159354 
L 757.723712 347.159354 
" clip-path="url(#pb526e7f30a)" style="fill: none; stroke: #c0ba6a; stroke-opacity: 0.5; stroke-width: 3"/>
   </g>
   <g id="LineCollection_20">
    <path d="M 751.421439 352.640159 
L 757.723712 352.640159 
" clip-path="url(#pb526e7f30a)" style="fill: none; stroke: #efbb14; stroke-opacity: 0.5; stroke-width: 3"/>
   </g>
   <g id="LineCollection_21">
    <path d="M 751.421439 358.231169 
L 757.723712 358.231169 
" clip-path="url(#pb526e7f30a)" style="fill: none; stroke: #fbaf00; stroke-opacity: 0.5; stroke-width: 3"/>
   </g>
   <g id="LineCollection_22">
    <path d="M 751.421439 364.020772 
L 757.723712 364.020772 
" clip-path="url(#pb526e7f30a)" style="fill: none; stroke: #fd9f00; stroke-opacity: 0.5; stroke-width: 3"/>
   </g>
   <g id="LineCollection_23">
    <path d="M 751.421439 370.093959 
L 757.723712 370.093959 
" clip-path="url(#pb526e7f30a)" style="fill: none; stroke: #ff8f00; stroke-opacity: 0.5; stroke-width: 3"/>
   </g>
   <g id="LineCollection_24">
    <path d="M 751.421439 376.491921 
L 757.723712 376.491921 
" clip-path="url(#pb526e7f30a)" style="fill: none; stroke: #fb7c00; stroke-opacity: 0.5; stroke-width: 3"/>
   </g>
   <g id="LineCollection_25">
    <path d="M 751.421439 383.213707 
L 757.723712 383.213707 
" clip-path="url(#pb526e7f30a)" style="fill: none; stroke: #f76800; stroke-opacity: 0.5; stroke-width: 3"/>
   </g>
   <g id="LineCollection_26">
    <path d="M 751.421439 390.248819 
L 757.723712 390.248819 
" clip-path="url(#pb526e7f30a)" style="fill: none; stroke: #f35400; stroke-opacity: 0.5; stroke-width: 3"/>
   </g>
   <g id="LineCollection_27">
    <path d="M 751.421439 397.603839 
L 757.723712 397.603839 
" clip-path="url(#pb526e7f30a)" style="fill: none; stroke: #e34500; stroke-opacity: 0.5; stroke-width: 3"/>
   </g>
   <g id="LineCollection_28">
    <path d="M 751.421439 405.291688 
L 757.723712 405.291688 
" clip-path="url(#pb526e7f30a)" style="fill: none; stroke: #d13600; stroke-opacity: 0.5; stroke-width: 3"/>
   </g>
   <g id="LineCollection_29">
    <path d="M 751.421439 413.31469 
L 757.723712 413.31469 
" clip-path="url(#pb526e7f30a)" style="fill: none; stroke: #bf2800; stroke-opacity: 0.5; stroke-width: 3"/>
   </g>
   <g id="LineCollection_30">
    <path d="M 751.421439 421.641959 
L 757.723712 421.641959 
" clip-path="url(#pb526e7f30a)" style="fill: none; stroke: #a32700; stroke-opacity: 0.5; stroke-width: 3"/>
   </g>
   <g id="LineCollection_31">
    <path d="M 751.421439 430.207679 
L 757.723712 430.207679 
" clip-path="url(#pb526e7f30a)" style="fill: none; stroke: #852900; stroke-opacity: 0.5; stroke-width: 3"/>
   </g>
   <g id="LineCollection_32">
    <path d="M 751.421439 438.920594 
L 757.723712 438.920594 
" clip-path="url(#pb526e7f30a)" style="fill: none; stroke: #682b00; stroke-opacity: 0.5; stroke-width: 3"/>
   </g>
   <g id="LineCollection_33">
    <path d="M 319.715758 268.86661 
L 332.320303 268.86661 
" clip-path="url(#pb526e7f30a)" style="fill: none; stroke: #92b9c1; stroke-width: 8"/>
   </g>
   <g id="LineCollection_34">
    <path d="M 319.715758 279.98313 
L 332.320303 279.98313 
" clip-path="url(#pb526e7f30a)" style="fill: none; stroke: #ff8f00; stroke-width: 8"/>
   </g>
   <g id="LineCollection_35">
    <path d="M 319.715758 304.203388 
L 332.320303 304.203388 
" clip-path="url(#pb526e7f30a)" style="fill: none; stroke: #662b00; stroke-width: 8"/>
   </g>
   <g id="LineCollection_36">
    <path d="M 748.270303 341.763226 
L 760.874848 341.763226 
" clip-path="url(#pb526e7f30a)" style="fill: none; stroke: #92b9c1; stroke-width: 8"/>
   </g>
   <g id="LineCollection_37">
    <path d="M 748.270303 370.093959 
L 760.874848 370.093959 
" clip-path="url(#pb526e7f30a)" style="fill: none; stroke: #ff8f00; stroke-width: 8"/>
   </g>
   <g id="LineCollection_38">
    <path d="M 748.270303 447.678824 
L 760.874848 447.678824 
" clip-path="url(#pb526e7f30a)" style="fill: none; stroke: #662b00; stroke-width: 8"/>
   </g>
  </g>
 </g>
 <defs>
  <clipPath id="pb526e7f30a">
   <rect x="109.64" y="52.8" width="693.25" height="462.76"/>
  </clipPath>
 </defs>
</svg>
