<?xml version="1.0" encoding="utf-8" standalone="no"?>
<!DOCTYPE svg PUBLIC "-//W3C//DTD SVG 1.1//EN"
  "http://www.w3.org/Graphics/SVG/1.1/DTD/svg11.dtd">
<svg xmlns:xlink="http://www.w3.org/1999/xlink" width="900pt" height="600pt" viewBox="0 0 900 600" xmlns="http://www.w3.org/2000/svg" version="1.1">
 <metadata>
  <rdf:RDF xmlns:dc="http://purl.org/dc/elements/1.1/" xmlns:cc="http://creativecommons.org/ns#" xmlns:rdf="http://www.w3.org/1999/02/22-rdf-syntax-ns#">
   <cc:Work>
    <dc:type rdf:resource="http://purl.org/dc/dcmitype/StillImage"/>
    <dc:date>2023-11-29T23:25:07.999386</dc:date>
    <dc:format>image/svg+xml</dc:format>
    <dc:creator>
     <cc:Agent>
      <dc:title>Matplotlib v3.7.1, https://matplotlib.org/</dc:title>
     </cc:Agent>
    </dc:creator>
   </cc:Work>
  </rdf:RDF>
 </metadata>
 <defs>
  <style type="text/css">*{stroke-linejoin: round; stroke-linecap: butt}</style>
 </defs>
 <g id="figure_1">
  <g id="patch_1">
   <path d="M 0 600 
L 900 600 
L 900 0 
L 0 0 
z
" style="fill: #ffffff"/>
  </g>
  <g id="axes_1">
   <g id="patch_2">
    <path d="M 109.64 515.56 
L 802.89 515.56 
L 802.89 52.8 
L 109.64 52.8 
z
" style="fill: #ffffff"/>
   </g>
   <g id="matplotlib.axis_1">
    <g id="xtick_1">
     <g id="line2d_1">
      <defs>
       <path id="mc78e17d529" d="M 0 0 
L 0 3.5 
" style="stroke: #000000; stroke-width: 0.8"/>
      </defs>
      <g>
       <use xlink:href="#mc78e17d529" x="157.957424" y="515.56" style="stroke: #000000; stroke-width: 0.8"/>
      </g>
     </g>
     <g id="text_1">
      <!-- 2020 -->
      <g transform="translate(124.872424 542.315938) scale(0.26 -0.26)">
       <defs>
        <path id="DejaVuSans-32" d="M 1228 531 
L 3431 531 
L 3431 0 
L 469 0 
L 469 531 
Q 828 903 1448 1529 
Q 2069 2156 2228 2338 
Q 2531 2678 2651 2914 
Q 2772 3150 2772 3378 
Q 2772 3750 2511 3984 
Q 2250 4219 1831 4219 
Q 1534 4219 1204 4116 
Q 875 4013 500 3803 
L 500 4441 
Q 881 4594 1212 4672 
Q 1544 4750 1819 4750 
Q 2544 4750 2975 4387 
Q 3406 4025 3406 3419 
Q 3406 3131 3298 2873 
Q 3191 2616 2906 2266 
Q 2828 2175 2409 1742 
Q 1991 1309 1228 531 
z
" transform="scale(0.015625)"/>
        <path id="DejaVuSans-30" d="M 2034 4250 
Q 1547 4250 1301 3770 
Q 1056 3291 1056 2328 
Q 1056 1369 1301 889 
Q 1547 409 2034 409 
Q 2525 409 2770 889 
Q 3016 1369 3016 2328 
Q 3016 3291 2770 3770 
Q 2525 4250 2034 4250 
z
M 2034 4750 
Q 2819 4750 3233 4129 
Q 3647 3509 3647 2328 
Q 3647 1150 3233 529 
Q 2819 -91 2034 -91 
Q 1250 -91 836 529 
Q 422 1150 422 2328 
Q 422 3509 836 4129 
Q 1250 4750 2034 4750 
z
" transform="scale(0.015625)"/>
       </defs>
       <use xlink:href="#DejaVuSans-32"/>
       <use xlink:href="#DejaVuSans-30" x="63.623047"/>
       <use xlink:href="#DejaVuSans-32" x="127.246094"/>
       <use xlink:href="#DejaVuSans-30" x="190.869141"/>
      </g>
     </g>
    </g>
    <g id="xtick_2">
     <g id="line2d_2">
      <g>
       <use xlink:href="#mc78e17d529" x="326.01803" y="515.56" style="stroke: #000000; stroke-width: 0.8"/>
      </g>
     </g>
     <g id="text_2">
      <!-- 2100 -->
      <g transform="translate(292.93303 542.315938) scale(0.26 -0.26)">
       <defs>
        <path id="DejaVuSans-31" d="M 794 531 
L 1825 531 
L 1825 4091 
L 703 3866 
L 703 4441 
L 1819 4666 
L 2450 4666 
L 2450 531 
L 3481 531 
L 3481 0 
L 794 0 
L 794 531 
z
" transform="scale(0.015625)"/>
       </defs>
       <use xlink:href="#DejaVuSans-32"/>
       <use xlink:href="#DejaVuSans-31" x="63.623047"/>
       <use xlink:href="#DejaVuSans-30" x="127.246094"/>
       <use xlink:href="#DejaVuSans-30" x="190.869141"/>
      </g>
     </g>
    </g>
    <g id="xtick_3">
     <g id="line2d_3">
      <g>
       <use xlink:href="#mc78e17d529" x="536.093788" y="515.56" style="stroke: #000000; stroke-width: 0.8"/>
      </g>
     </g>
     <g id="text_3">
      <!-- 2200 -->
      <g transform="translate(503.008788 542.315938) scale(0.26 -0.26)">
       <use xlink:href="#DejaVuSans-32"/>
       <use xlink:href="#DejaVuSans-32" x="63.623047"/>
       <use xlink:href="#DejaVuSans-30" x="127.246094"/>
       <use xlink:href="#DejaVuSans-30" x="190.869141"/>
      </g>
     </g>
    </g>
    <g id="xtick_4">
     <g id="line2d_4">
      <g>
       <use xlink:href="#mc78e17d529" x="746.169545" y="515.56" style="stroke: #000000; stroke-width: 0.8"/>
      </g>
     </g>
     <g id="text_4">
      <!-- 2300 -->
      <g transform="translate(713.084545 542.315938) scale(0.26 -0.26)">
       <defs>
        <path id="DejaVuSans-33" d="M 2597 2516 
Q 3050 2419 3304 2112 
Q 3559 1806 3559 1356 
Q 3559 666 3084 287 
Q 2609 -91 1734 -91 
Q 1441 -91 1130 -33 
Q 819 25 488 141 
L 488 750 
Q 750 597 1062 519 
Q 1375 441 1716 441 
Q 2309 441 2620 675 
Q 2931 909 2931 1356 
Q 2931 1769 2642 2001 
Q 2353 2234 1838 2234 
L 1294 2234 
L 1294 2753 
L 1863 2753 
Q 2328 2753 2575 2939 
Q 2822 3125 2822 3475 
Q 2822 3834 2567 4026 
Q 2313 4219 1838 4219 
Q 1578 4219 1281 4162 
Q 984 4106 628 3988 
L 628 4550 
Q 988 4650 1302 4700 
Q 1616 4750 1894 4750 
Q 2613 4750 3031 4423 
Q 3450 4097 3450 3541 
Q 3450 3153 3228 2886 
Q 3006 2619 2597 2516 
z
" transform="scale(0.015625)"/>
       </defs>
       <use xlink:href="#DejaVuSans-32"/>
       <use xlink:href="#DejaVuSans-33" x="63.623047"/>
       <use xlink:href="#DejaVuSans-30" x="127.246094"/>
       <use xlink:href="#DejaVuSans-30" x="190.869141"/>
      </g>
     </g>
    </g>
    <g id="text_5">
     <!-- Year -->
     <g transform="translate(428.995313 568.439687) scale(0.22 -0.22)">
      <defs>
       <path id="DejaVuSans-Bold-59" d="M -63 4666 
L 1253 4666 
L 2316 3003 
L 3378 4666 
L 4697 4666 
L 2919 1966 
L 2919 0 
L 1716 0 
L 1716 1966 
L -63 4666 
z
" transform="scale(0.015625)"/>
       <path id="DejaVuSans-Bold-65" d="M 4031 1759 
L 4031 1441 
L 1416 1441 
Q 1456 1047 1700 850 
Q 1944 653 2381 653 
Q 2734 653 3104 758 
Q 3475 863 3866 1075 
L 3866 213 
Q 3469 63 3072 -14 
Q 2675 -91 2278 -91 
Q 1328 -91 801 392 
Q 275 875 275 1747 
Q 275 2603 792 3093 
Q 1309 3584 2216 3584 
Q 3041 3584 3536 3087 
Q 4031 2591 4031 1759 
z
M 2881 2131 
Q 2881 2450 2695 2645 
Q 2509 2841 2209 2841 
Q 1884 2841 1681 2658 
Q 1478 2475 1428 2131 
L 2881 2131 
z
" transform="scale(0.015625)"/>
       <path id="DejaVuSans-Bold-61" d="M 2106 1575 
Q 1756 1575 1579 1456 
Q 1403 1338 1403 1106 
Q 1403 894 1545 773 
Q 1688 653 1941 653 
Q 2256 653 2472 879 
Q 2688 1106 2688 1447 
L 2688 1575 
L 2106 1575 
z
M 3816 1997 
L 3816 0 
L 2688 0 
L 2688 519 
Q 2463 200 2181 54 
Q 1900 -91 1497 -91 
Q 953 -91 614 226 
Q 275 544 275 1050 
Q 275 1666 698 1953 
Q 1122 2241 2028 2241 
L 2688 2241 
L 2688 2328 
Q 2688 2594 2478 2717 
Q 2269 2841 1825 2841 
Q 1466 2841 1156 2769 
Q 847 2697 581 2553 
L 581 3406 
Q 941 3494 1303 3539 
Q 1666 3584 2028 3584 
Q 2975 3584 3395 3211 
Q 3816 2838 3816 1997 
z
" transform="scale(0.015625)"/>
       <path id="DejaVuSans-Bold-72" d="M 3138 2547 
Q 2991 2616 2845 2648 
Q 2700 2681 2553 2681 
Q 2122 2681 1889 2404 
Q 1656 2128 1656 1613 
L 1656 0 
L 538 0 
L 538 3500 
L 1656 3500 
L 1656 2925 
Q 1872 3269 2151 3426 
Q 2431 3584 2822 3584 
Q 2878 3584 2943 3579 
Q 3009 3575 3134 3559 
L 3138 2547 
z
" transform="scale(0.015625)"/>
      </defs>
      <use xlink:href="#DejaVuSans-Bold-59"/>
      <use xlink:href="#DejaVuSans-Bold-65" x="63.287109"/>
      <use xlink:href="#DejaVuSans-Bold-61" x="131.109375"/>
      <use xlink:href="#DejaVuSans-Bold-72" x="198.589844"/>
     </g>
    </g>
   </g>
   <g id="matplotlib.axis_2">
    <g id="ytick_1">
     <g id="line2d_5">
      <defs>
       <path id="m3f8485aace" d="M 0 0 
L -3.5 0 
" style="stroke: #000000; stroke-width: 0.8"/>
      </defs>
      <g>
       <use xlink:href="#m3f8485aace" x="109.64" y="515.56" style="stroke: #000000; stroke-width: 0.8"/>
      </g>
     </g>
     <g id="text_6">
      <!-- 0 -->
      <g transform="translate(86.0975 525.437969) scale(0.26 -0.26)">
       <use xlink:href="#DejaVuSans-30"/>
      </g>
     </g>
    </g>
    <g id="ytick_2">
     <g id="line2d_6">
      <g>
       <use xlink:href="#m3f8485aace" x="109.64" y="441.5184" style="stroke: #000000; stroke-width: 0.8"/>
      </g>
     </g>
     <g id="text_7">
      <!-- 20 -->
      <g transform="translate(69.555 451.396369) scale(0.26 -0.26)">
       <use xlink:href="#DejaVuSans-32"/>
       <use xlink:href="#DejaVuSans-30" x="63.623047"/>
      </g>
     </g>
    </g>
    <g id="ytick_3">
     <g id="line2d_7">
      <g>
       <use xlink:href="#m3f8485aace" x="109.64" y="367.4768" style="stroke: #000000; stroke-width: 0.8"/>
      </g>
     </g>
     <g id="text_8">
      <!-- 40 -->
      <g transform="translate(69.555 377.354769) scale(0.26 -0.26)">
       <defs>
        <path id="DejaVuSans-34" d="M 2419 4116 
L 825 1625 
L 2419 1625 
L 2419 4116 
z
M 2253 4666 
L 3047 4666 
L 3047 1625 
L 3713 1625 
L 3713 1100 
L 3047 1100 
L 3047 0 
L 2419 0 
L 2419 1100 
L 313 1100 
L 313 1709 
L 2253 4666 
z
" transform="scale(0.015625)"/>
       </defs>
       <use xlink:href="#DejaVuSans-34"/>
       <use xlink:href="#DejaVuSans-30" x="63.623047"/>
      </g>
     </g>
    </g>
    <g id="ytick_4">
     <g id="line2d_8">
      <g>
       <use xlink:href="#m3f8485aace" x="109.64" y="293.4352" style="stroke: #000000; stroke-width: 0.8"/>
      </g>
     </g>
     <g id="text_9">
      <!-- 60 -->
      <g transform="translate(69.555 303.313169) scale(0.26 -0.26)">
       <defs>
        <path id="DejaVuSans-36" d="M 2113 2584 
Q 1688 2584 1439 2293 
Q 1191 2003 1191 1497 
Q 1191 994 1439 701 
Q 1688 409 2113 409 
Q 2538 409 2786 701 
Q 3034 994 3034 1497 
Q 3034 2003 2786 2293 
Q 2538 2584 2113 2584 
z
M 3366 4563 
L 3366 3988 
Q 3128 4100 2886 4159 
Q 2644 4219 2406 4219 
Q 1781 4219 1451 3797 
Q 1122 3375 1075 2522 
Q 1259 2794 1537 2939 
Q 1816 3084 2150 3084 
Q 2853 3084 3261 2657 
Q 3669 2231 3669 1497 
Q 3669 778 3244 343 
Q 2819 -91 2113 -91 
Q 1303 -91 875 529 
Q 447 1150 447 2328 
Q 447 3434 972 4092 
Q 1497 4750 2381 4750 
Q 2619 4750 2861 4703 
Q 3103 4656 3366 4563 
z
" transform="scale(0.015625)"/>
       </defs>
       <use xlink:href="#DejaVuSans-36"/>
       <use xlink:href="#DejaVuSans-30" x="63.623047"/>
      </g>
     </g>
    </g>
    <g id="ytick_5">
     <g id="line2d_9">
      <g>
       <use xlink:href="#m3f8485aace" x="109.64" y="219.3936" style="stroke: #000000; stroke-width: 0.8"/>
      </g>
     </g>
     <g id="text_10">
      <!-- 80 -->
      <g transform="translate(69.555 229.271569) scale(0.26 -0.26)">
       <defs>
        <path id="DejaVuSans-38" d="M 2034 2216 
Q 1584 2216 1326 1975 
Q 1069 1734 1069 1313 
Q 1069 891 1326 650 
Q 1584 409 2034 409 
Q 2484 409 2743 651 
Q 3003 894 3003 1313 
Q 3003 1734 2745 1975 
Q 2488 2216 2034 2216 
z
M 1403 2484 
Q 997 2584 770 2862 
Q 544 3141 544 3541 
Q 544 4100 942 4425 
Q 1341 4750 2034 4750 
Q 2731 4750 3128 4425 
Q 3525 4100 3525 3541 
Q 3525 3141 3298 2862 
Q 3072 2584 2669 2484 
Q 3125 2378 3379 2068 
Q 3634 1759 3634 1313 
Q 3634 634 3220 271 
Q 2806 -91 2034 -91 
Q 1263 -91 848 271 
Q 434 634 434 1313 
Q 434 1759 690 2068 
Q 947 2378 1403 2484 
z
M 1172 3481 
Q 1172 3119 1398 2916 
Q 1625 2713 2034 2713 
Q 2441 2713 2670 2916 
Q 2900 3119 2900 3481 
Q 2900 3844 2670 4047 
Q 2441 4250 2034 4250 
Q 1625 4250 1398 4047 
Q 1172 3844 1172 3481 
z
" transform="scale(0.015625)"/>
       </defs>
       <use xlink:href="#DejaVuSans-38"/>
       <use xlink:href="#DejaVuSans-30" x="63.623047"/>
      </g>
     </g>
    </g>
    <g id="ytick_6">
     <g id="line2d_10">
      <g>
       <use xlink:href="#m3f8485aace" x="109.64" y="145.352" style="stroke: #000000; stroke-width: 0.8"/>
      </g>
     </g>
     <g id="text_11">
      <!-- 100 -->
      <g transform="translate(53.0125 155.229969) scale(0.26 -0.26)">
       <use xlink:href="#DejaVuSans-31"/>
       <use xlink:href="#DejaVuSans-30" x="63.623047"/>
       <use xlink:href="#DejaVuSans-30" x="127.246094"/>
      </g>
     </g>
    </g>
    <g id="ytick_7">
     <g id="line2d_11">
      <g>
       <use xlink:href="#m3f8485aace" x="109.64" y="71.3104" style="stroke: #000000; stroke-width: 0.8"/>
      </g>
     </g>
     <g id="text_12">
      <!-- 120 -->
      <g transform="translate(53.0125 81.188369) scale(0.26 -0.26)">
       <use xlink:href="#DejaVuSans-31"/>
       <use xlink:href="#DejaVuSans-32" x="63.623047"/>
       <use xlink:href="#DejaVuSans-30" x="127.246094"/>
      </g>
     </g>
    </g>
    <g id="text_13">
     <!-- % of Remaining Ice -->
     <g transform="translate(44.265313 403.000625) rotate(-90) scale(0.22 -0.22)">
      <defs>
       <path id="DejaVuSans-Bold-25" d="M 4959 1925 
Q 4738 1925 4616 1733 
Q 4494 1541 4494 1184 
Q 4494 825 4614 633 
Q 4734 441 4959 441 
Q 5184 441 5303 633 
Q 5422 825 5422 1184 
Q 5422 1541 5301 1733 
Q 5181 1925 4959 1925 
z
M 4959 2450 
Q 5541 2450 5875 2112 
Q 6209 1775 6209 1184 
Q 6209 594 5875 251 
Q 5541 -91 4959 -91 
Q 4378 -91 4042 251 
Q 3706 594 3706 1184 
Q 3706 1772 4042 2111 
Q 4378 2450 4959 2450 
z
M 2094 -91 
L 1403 -91 
L 4319 4750 
L 5013 4750 
L 2094 -91 
z
M 1453 4750 
Q 2034 4750 2367 4411 
Q 2700 4072 2700 3481 
Q 2700 2891 2367 2550 
Q 2034 2209 1453 2209 
Q 872 2209 539 2550 
Q 206 2891 206 3481 
Q 206 4072 539 4411 
Q 872 4750 1453 4750 
z
M 1453 4225 
Q 1228 4225 1106 4031 
Q 984 3838 984 3481 
Q 984 3122 1106 2926 
Q 1228 2731 1453 2731 
Q 1678 2731 1798 2926 
Q 1919 3122 1919 3481 
Q 1919 3838 1797 4031 
Q 1675 4225 1453 4225 
z
" transform="scale(0.015625)"/>
       <path id="DejaVuSans-Bold-20" transform="scale(0.015625)"/>
       <path id="DejaVuSans-Bold-6f" d="M 2203 2784 
Q 1831 2784 1636 2517 
Q 1441 2250 1441 1747 
Q 1441 1244 1636 976 
Q 1831 709 2203 709 
Q 2569 709 2762 976 
Q 2956 1244 2956 1747 
Q 2956 2250 2762 2517 
Q 2569 2784 2203 2784 
z
M 2203 3584 
Q 3106 3584 3614 3096 
Q 4122 2609 4122 1747 
Q 4122 884 3614 396 
Q 3106 -91 2203 -91 
Q 1297 -91 786 396 
Q 275 884 275 1747 
Q 275 2609 786 3096 
Q 1297 3584 2203 3584 
z
" transform="scale(0.015625)"/>
       <path id="DejaVuSans-Bold-66" d="M 2841 4863 
L 2841 4128 
L 2222 4128 
Q 1984 4128 1890 4042 
Q 1797 3956 1797 3744 
L 1797 3500 
L 2753 3500 
L 2753 2700 
L 1797 2700 
L 1797 0 
L 678 0 
L 678 2700 
L 122 2700 
L 122 3500 
L 678 3500 
L 678 3744 
Q 678 4316 997 4589 
Q 1316 4863 1984 4863 
L 2841 4863 
z
" transform="scale(0.015625)"/>
       <path id="DejaVuSans-Bold-52" d="M 2297 2597 
Q 2675 2597 2839 2737 
Q 3003 2878 3003 3200 
Q 3003 3519 2839 3656 
Q 2675 3794 2297 3794 
L 1791 3794 
L 1791 2597 
L 2297 2597 
z
M 1791 1766 
L 1791 0 
L 588 0 
L 588 4666 
L 2425 4666 
Q 3347 4666 3776 4356 
Q 4206 4047 4206 3378 
Q 4206 2916 3982 2619 
Q 3759 2322 3309 2181 
Q 3556 2125 3751 1926 
Q 3947 1728 4147 1325 
L 4800 0 
L 3519 0 
L 2950 1159 
Q 2778 1509 2601 1637 
Q 2425 1766 2131 1766 
L 1791 1766 
z
" transform="scale(0.015625)"/>
       <path id="DejaVuSans-Bold-6d" d="M 3781 2919 
Q 3994 3244 4286 3414 
Q 4578 3584 4928 3584 
Q 5531 3584 5847 3212 
Q 6163 2841 6163 2131 
L 6163 0 
L 5038 0 
L 5038 1825 
Q 5041 1866 5042 1909 
Q 5044 1953 5044 2034 
Q 5044 2406 4934 2573 
Q 4825 2741 4581 2741 
Q 4263 2741 4089 2478 
Q 3916 2216 3909 1719 
L 3909 0 
L 2784 0 
L 2784 1825 
Q 2784 2406 2684 2573 
Q 2584 2741 2328 2741 
Q 2006 2741 1831 2477 
Q 1656 2213 1656 1722 
L 1656 0 
L 531 0 
L 531 3500 
L 1656 3500 
L 1656 2988 
Q 1863 3284 2130 3434 
Q 2397 3584 2719 3584 
Q 3081 3584 3359 3409 
Q 3638 3234 3781 2919 
z
" transform="scale(0.015625)"/>
       <path id="DejaVuSans-Bold-69" d="M 538 3500 
L 1656 3500 
L 1656 0 
L 538 0 
L 538 3500 
z
M 538 4863 
L 1656 4863 
L 1656 3950 
L 538 3950 
L 538 4863 
z
" transform="scale(0.015625)"/>
       <path id="DejaVuSans-Bold-6e" d="M 4056 2131 
L 4056 0 
L 2931 0 
L 2931 347 
L 2931 1631 
Q 2931 2084 2911 2256 
Q 2891 2428 2841 2509 
Q 2775 2619 2662 2680 
Q 2550 2741 2406 2741 
Q 2056 2741 1856 2470 
Q 1656 2200 1656 1722 
L 1656 0 
L 538 0 
L 538 3500 
L 1656 3500 
L 1656 2988 
Q 1909 3294 2193 3439 
Q 2478 3584 2822 3584 
Q 3428 3584 3742 3212 
Q 4056 2841 4056 2131 
z
" transform="scale(0.015625)"/>
       <path id="DejaVuSans-Bold-67" d="M 2919 594 
Q 2688 288 2409 144 
Q 2131 0 1766 0 
Q 1125 0 706 504 
Q 288 1009 288 1791 
Q 288 2575 706 3076 
Q 1125 3578 1766 3578 
Q 2131 3578 2409 3434 
Q 2688 3291 2919 2981 
L 2919 3500 
L 4044 3500 
L 4044 353 
Q 4044 -491 3511 -936 
Q 2978 -1381 1966 -1381 
Q 1638 -1381 1331 -1331 
Q 1025 -1281 716 -1178 
L 716 -306 
Q 1009 -475 1290 -558 
Q 1572 -641 1856 -641 
Q 2406 -641 2662 -400 
Q 2919 -159 2919 353 
L 2919 594 
z
M 2181 2772 
Q 1834 2772 1640 2515 
Q 1447 2259 1447 1791 
Q 1447 1309 1634 1061 
Q 1822 813 2181 813 
Q 2531 813 2725 1069 
Q 2919 1325 2919 1791 
Q 2919 2259 2725 2515 
Q 2531 2772 2181 2772 
z
" transform="scale(0.015625)"/>
       <path id="DejaVuSans-Bold-49" d="M 588 4666 
L 1791 4666 
L 1791 0 
L 588 0 
L 588 4666 
z
" transform="scale(0.015625)"/>
       <path id="DejaVuSans-Bold-63" d="M 3366 3391 
L 3366 2478 
Q 3138 2634 2908 2709 
Q 2678 2784 2431 2784 
Q 1963 2784 1702 2511 
Q 1441 2238 1441 1747 
Q 1441 1256 1702 982 
Q 1963 709 2431 709 
Q 2694 709 2930 787 
Q 3166 866 3366 1019 
L 3366 103 
Q 3103 6 2833 -42 
Q 2563 -91 2291 -91 
Q 1344 -91 809 395 
Q 275 881 275 1747 
Q 275 2613 809 3098 
Q 1344 3584 2291 3584 
Q 2566 3584 2833 3536 
Q 3100 3488 3366 3391 
z
" transform="scale(0.015625)"/>
      </defs>
      <use xlink:href="#DejaVuSans-Bold-25"/>
      <use xlink:href="#DejaVuSans-Bold-20" x="100.195312"/>
      <use xlink:href="#DejaVuSans-Bold-6f" x="135.009766"/>
      <use xlink:href="#DejaVuSans-Bold-66" x="203.710938"/>
      <use xlink:href="#DejaVuSans-Bold-20" x="247.216797"/>
      <use xlink:href="#DejaVuSans-Bold-52" x="282.03125"/>
      <use xlink:href="#DejaVuSans-Bold-65" x="359.033203"/>
      <use xlink:href="#DejaVuSans-Bold-6d" x="426.855469"/>
      <use xlink:href="#DejaVuSans-Bold-61" x="531.054688"/>
      <use xlink:href="#DejaVuSans-Bold-69" x="598.535156"/>
      <use xlink:href="#DejaVuSans-Bold-6e" x="632.8125"/>
      <use xlink:href="#DejaVuSans-Bold-69" x="704.003906"/>
      <use xlink:href="#DejaVuSans-Bold-6e" x="738.28125"/>
      <use xlink:href="#DejaVuSans-Bold-67" x="809.472656"/>
      <use xlink:href="#DejaVuSans-Bold-20" x="881.054688"/>
      <use xlink:href="#DejaVuSans-Bold-49" x="915.869141"/>
      <use xlink:href="#DejaVuSans-Bold-63" x="953.076172"/>
      <use xlink:href="#DejaVuSans-Bold-65" x="1012.353516"/>
     </g>
    </g>
   </g>
   <g id="line2d_12">
    <path d="M 157.957424 145.352 
L 164.259697 147.02636 
L 174.763485 150.107635 
L 189.468788 154.81128 
L 204.174091 159.497643 
L 212.577121 162.153089 
L 223.080909 165.827825 
L 246.189242 174.268004 
L 262.995303 179.95598 
L 271.398333 182.63615 
L 288.204394 187.731633 
L 296.607424 190.624016 
L 302.909697 192.937057 
L 311.312727 196.043861 
L 330.219545 203.473007 
L 338.622576 206.471085 
L 353.327879 211.077735 
L 361.730909 213.682316 
L 378.53697 219.567089 
L 395.34303 225.140998 
L 405.846818 228.294258 
L 416.350606 231.053643 
L 424.753636 233.506003 
L 439.458939 238.256264 
L 466.768788 247.567169 
L 481.474091 251.932747 
L 489.877121 254.221032 
L 502.481667 257.374517 
L 510.884697 259.402898 
L 533.99303 265.487867 
L 542.396061 267.871982 
L 552.899848 270.880349 
L 571.806667 275.866401 
L 588.612727 280.891151 
L 603.31803 285.388165 
L 611.721061 287.965458 
L 618.023333 289.743104 
L 645.333182 297.568975 
L 660.038485 301.79543 
L 670.542273 304.662443 
L 681.046061 307.44965 
L 687.348333 308.966806 
L 697.852121 311.218382 
L 708.355909 313.287628 
L 720.960455 315.803503 
L 727.262727 317.184377 
L 739.867273 318.601505 
L 746.169545 319.426189 
L 746.169545 319.426189 
" clip-path="url(#p028d3b7fc2)" style="fill: none; stroke: #f35a00; stroke-opacity: 0.3; stroke-width: 2; stroke-linecap: square"/>
   </g>
   <g id="line2d_13">
    <path d="M 115.942273 139.956066 
L 118.04303 140.118681 
L 120.143788 140.276232 
L 122.244545 140.436172 
L 124.345303 140.584831 
L 126.446061 140.758781 
L 128.546818 140.899998 
L 130.647576 141.041716 
L 132.748333 141.177338 
L 134.849091 141.339795 
L 136.949848 141.50274 
L 139.050606 141.808501 
L 141.151364 142.131761 
L 143.252121 142.466857 
L 145.352879 142.800648 
L 147.453636 143.170849 
L 149.554394 143.556847 
L 151.655152 143.974364 
L 153.755909 144.400042 
L 155.856667 144.850068 
L 157.957424 145.352 
" clip-path="url(#p028d3b7fc2)" style="fill: none; stroke: #000000; stroke-opacity: 0.3; stroke-width: 2; stroke-linecap: square"/>
   </g>
   <g id="line2d_14">
    <path d="M 157.957424 145.352 
L 164.259697 146.902338 
L 168.461212 148.104969 
L 174.763485 150.253071 
L 181.065758 152.584649 
L 187.36803 155.130503 
L 193.670303 157.943384 
L 206.274848 163.876568 
L 216.778636 169.146548 
L 223.080909 172.653162 
L 233.584697 179.011042 
L 241.987727 184.357776 
L 273.499091 204.807434 
L 281.902121 210.673056 
L 290.305152 216.78677 
L 296.607424 221.640262 
L 309.21197 231.628853 
L 319.715758 240.045902 
L 340.723333 256.643802 
L 347.025606 261.679028 
L 355.428636 267.991758 
L 363.831667 273.992517 
L 370.133939 278.245001 
L 376.436212 282.280983 
L 384.839242 287.346748 
L 401.645303 297.495586 
L 439.458939 320.902667 
L 447.86197 325.716439 
L 464.66803 334.900954 
L 477.272576 341.408986 
L 491.977879 348.878421 
L 502.481667 354.065967 
L 510.884697 358.021369 
L 561.302879 380.714021 
L 584.411212 391.017466 
L 605.418788 400.368047 
L 613.821818 403.88115 
L 620.124091 406.329621 
L 628.527121 409.313588 
L 636.930152 412.09678 
L 651.635455 416.515058 
L 674.743788 423.106951 
L 685.247576 426.142845 
L 697.852121 429.777078 
L 718.859697 435.80737 
L 727.262727 438.08242 
L 741.96803 440.072547 
L 746.169545 440.592996 
L 746.169545 440.592996 
" clip-path="url(#p028d3b7fc2)" style="fill: none; stroke: #ca1809; stroke-opacity: 0.3; stroke-width: 2; stroke-linecap: square"/>
   </g>
   <g id="line2d_15">
    <path d="M 115.942273 139.959872 
L 118.04303 140.129317 
L 120.143788 140.297131 
L 122.244545 140.47429 
L 124.345303 140.637536 
L 126.446061 140.817875 
L 128.546818 140.961768 
L 130.647576 141.113952 
L 132.748333 141.25869 
L 134.849091 141.428233 
L 136.949848 141.596534 
L 139.050606 141.915357 
L 141.151364 142.245248 
L 143.252121 142.584371 
L 145.352879 142.910354 
L 147.453636 143.255563 
L 149.554394 143.622428 
L 151.655152 144.013924 
L 153.755909 144.427832 
L 155.856667 144.871079 
L 157.957424 145.352 
" clip-path="url(#p028d3b7fc2)" style="fill: none; stroke: #000000; stroke-opacity: 0.3; stroke-width: 2; stroke-linecap: square"/>
   </g>
   <g id="line2d_16">
    <path d="M 157.957424 145.352 
L 166.360455 147.071337 
L 172.662727 148.607579 
L 183.166515 151.524713 
L 189.468788 153.544564 
L 193.670303 155.038958 
L 204.174091 159.085335 
L 212.577121 162.599403 
L 220.980152 166.383351 
L 241.987727 176.187926 
L 260.894545 184.893564 
L 269.297576 188.947512 
L 288.204394 198.137496 
L 302.909697 204.98346 
L 307.111212 206.845622 
L 349.126364 224.360402 
L 359.630152 228.95164 
L 378.53697 237.102951 
L 395.34303 244.242903 
L 416.350606 252.674197 
L 422.652879 254.930608 
L 470.970303 271.327601 
L 487.776364 277.150723 
L 504.582424 282.8102 
L 525.59 289.656637 
L 531.892273 291.639516 
L 542.396061 294.667513 
L 550.799091 296.763038 
L 561.302879 299.346781 
L 601.217273 309.012054 
L 613.821818 312.072503 
L 622.224848 314.228427 
L 649.534697 321.619247 
L 685.247576 330.958761 
L 727.262727 341.11042 
L 746.169545 343.529249 
L 746.169545 343.529249 
" clip-path="url(#p028d3b7fc2)" style="fill: none; stroke: #f36200; stroke-opacity: 0.3; stroke-width: 2; stroke-linecap: square"/>
   </g>
   <g id="line2d_17">
    <path d="M 115.942273 140.213013 
L 118.04303 140.388554 
L 120.143788 140.560888 
L 122.244545 140.745822 
L 124.345303 140.917166 
L 126.446061 141.099941 
L 128.546818 141.24623 
L 130.647576 141.390766 
L 132.748333 141.529096 
L 134.849091 141.691202 
L 136.949848 141.851369 
L 139.050606 142.162134 
L 141.151364 142.486848 
L 143.252121 142.825448 
L 145.352879 143.164623 
L 147.453636 143.497988 
L 149.554394 143.846029 
L 151.655152 144.211016 
L 153.755909 144.574803 
L 155.856667 144.958807 
L 157.957424 145.352 
" clip-path="url(#p028d3b7fc2)" style="fill: none; stroke: #000000; stroke-opacity: 0.3; stroke-width: 2; stroke-linecap: square"/>
   </g>
   <g id="line2d_18">
    <path d="M 157.957424 145.352 
L 162.158939 146.451596 
L 166.360455 147.716699 
L 170.56197 149.151366 
L 174.763485 150.858949 
L 181.065758 153.601281 
L 185.267273 155.601627 
L 191.569545 158.940286 
L 197.871818 162.471496 
L 204.174091 166.427478 
L 210.476364 170.765918 
L 216.778636 175.268849 
L 223.080909 180.189936 
L 237.786212 191.892248 
L 246.189242 198.565668 
L 258.793788 208.754092 
L 269.297576 216.88732 
L 275.599848 222.062384 
L 281.902121 227.610674 
L 294.506667 238.701799 
L 302.909697 246.042347 
L 332.320303 272.620241 
L 338.622576 278.300164 
L 357.529394 295.952605 
L 370.133939 307.226743 
L 378.53697 314.47549 
L 386.94 321.26737 
L 395.34303 327.608363 
L 405.846818 335.368829 
L 418.451364 344.364679 
L 428.955152 351.725936 
L 437.358182 357.327767 
L 445.761212 362.688301 
L 466.768788 375.569083 
L 491.977879 390.387537 
L 498.280152 393.88569 
L 512.985455 401.688258 
L 521.388485 405.924074 
L 531.892273 410.890006 
L 552.899848 420.344552 
L 567.605152 426.85361 
L 582.310455 433.442058 
L 592.814242 437.922543 
L 603.31803 442.155072 
L 611.721061 445.329741 
L 620.124091 448.268666 
L 630.627879 451.599497 
L 639.030909 454.000729 
L 645.333182 455.630352 
L 664.24 460.125903 
L 685.247576 464.735356 
L 704.154394 468.598979 
L 720.960455 471.825377 
L 727.262727 472.989782 
L 746.169545 474.735808 
L 746.169545 474.735808 
" clip-path="url(#p028d3b7fc2)" style="fill: none; stroke: #c21010; stroke-opacity: 0.3; stroke-width: 2; stroke-linecap: square"/>
   </g>
   <g id="line2d_19">
    <path d="M 115.942273 139.702948 
L 118.04303 139.870108 
L 120.143788 140.028832 
L 122.244545 140.196488 
L 124.345303 140.344748 
L 126.446061 140.519097 
L 128.546818 140.656151 
L 130.647576 140.801467 
L 132.748333 140.946446 
L 134.849091 141.117595 
L 136.949848 141.291754 
L 139.050606 141.612297 
L 141.151364 141.941271 
L 143.252121 142.274838 
L 145.352879 142.60014 
L 147.453636 142.981196 
L 149.554394 143.382334 
L 151.655152 143.842057 
L 153.755909 144.329184 
L 155.856667 144.829281 
L 157.957424 145.352 
" clip-path="url(#p028d3b7fc2)" style="fill: none; stroke: #000000; stroke-opacity: 0.3; stroke-width: 2; stroke-linecap: square"/>
   </g>
   <g id="line2d_20">
    <path d="M 157.957424 145.352 
L 168.461212 147.71713 
L 178.965 150.52116 
L 187.36803 152.974289 
L 202.073333 157.710611 
L 210.476364 160.613984 
L 216.778636 162.999398 
L 225.181667 166.460403 
L 231.483939 169.270027 
L 241.987727 174.207549 
L 250.390758 178.560045 
L 258.793788 183.385419 
L 269.297576 189.468786 
L 275.599848 193.134978 
L 286.103636 199.552575 
L 290.305152 202.339126 
L 300.808939 209.720134 
L 307.111212 214.648547 
L 315.514242 221.793577 
L 323.917273 229.267004 
L 332.320303 236.648436 
L 359.630152 259.695831 
L 365.932424 265.255863 
L 374.335455 272.97068 
L 391.141515 288.383298 
L 397.443788 294.051117 
L 405.846818 301.567677 
L 412.149091 306.910409 
L 428.955152 320.816768 
L 435.257424 325.814917 
L 441.559697 330.521125 
L 462.567273 345.612717 
L 475.171818 354.517546 
L 483.574848 360.481295 
L 489.877121 364.760266 
L 500.380909 371.424816 
L 506.683182 375.143936 
L 512.985455 378.565377 
L 527.690758 386.140157 
L 550.799091 397.574828 
L 559.202121 401.548807 
L 565.504394 404.334836 
L 582.310455 411.366486 
L 590.713485 414.698136 
L 620.124091 426.095892 
L 643.232424 434.953071 
L 649.534697 437.179523 
L 657.937727 439.936575 
L 664.24 441.849623 
L 681.046061 446.508924 
L 693.650606 449.85746 
L 712.557424 454.864948 
L 727.262727 458.722675 
L 746.169545 461.238547 
L 746.169545 461.238547 
" clip-path="url(#p028d3b7fc2)" style="fill: none; stroke: #d72700; stroke-opacity: 0.3; stroke-width: 2; stroke-linecap: square"/>
   </g>
   <g id="line2d_21">
    <path d="M 115.942273 140.075334 
L 118.04303 140.248062 
L 120.143788 140.414374 
L 122.244545 140.588266 
L 124.345303 140.744961 
L 126.446061 140.914574 
L 128.546818 141.049435 
L 130.647576 141.183879 
L 132.748333 141.315267 
L 134.849091 141.474707 
L 136.949848 141.638277 
L 139.050606 141.955244 
L 141.151364 142.28256 
L 143.252121 142.623844 
L 145.352879 142.981811 
L 147.453636 143.332886 
L 149.554394 143.701198 
L 151.655152 144.105355 
L 153.755909 144.505017 
L 155.856667 144.923299 
L 157.957424 145.352 
" clip-path="url(#p028d3b7fc2)" style="fill: none; stroke: #000000; stroke-opacity: 0.3; stroke-width: 2; stroke-linecap: square"/>
   </g>
   <g id="line2d_22">
    <path d="M 157.957424 145.352 
L 166.360455 147.3698 
L 172.662727 149.062668 
L 181.065758 151.710785 
L 187.36803 153.884842 
L 193.670303 156.215002 
L 204.174091 160.363336 
L 212.577121 164.097462 
L 218.879394 167.058756 
L 220.980152 168.111774 
L 227.282424 171.77466 
L 233.584697 175.588905 
L 239.88697 179.694082 
L 250.390758 186.954476 
L 256.69303 191.623771 
L 265.096061 198.094168 
L 269.297576 201.286388 
L 273.499091 204.688277 
L 281.902121 211.934279 
L 288.204394 217.846337 
L 294.506667 224.131996 
L 300.808939 230.725764 
L 307.111212 237.780632 
L 313.413485 245.327191 
L 321.816515 255.666989 
L 332.320303 268.881437 
L 342.824091 282.09206 
L 349.126364 289.695588 
L 355.428636 296.984025 
L 365.932424 308.64812 
L 374.335455 317.58123 
L 391.141515 334.83603 
L 399.544545 343.235829 
L 426.854394 369.884096 
L 445.761212 388.292739 
L 454.164242 396.021254 
L 460.466515 401.488093 
L 464.66803 404.944448 
L 470.970303 409.895485 
L 475.171818 412.965118 
L 481.474091 417.266548 
L 489.877121 422.749421 
L 500.380909 429.199669 
L 508.783939 434.027432 
L 515.086212 437.410231 
L 525.59 442.788992 
L 533.99303 446.843825 
L 542.396061 450.668384 
L 555.000606 456.217123 
L 565.504394 460.681458 
L 573.907424 464.01758 
L 584.411212 467.881983 
L 590.713485 469.989093 
L 603.31803 473.902281 
L 613.821818 476.893547 
L 626.426364 480.215981 
L 639.030909 483.270189 
L 651.635455 486.089202 
L 666.340758 489.176712 
L 689.449091 493.665357 
L 699.952879 495.425848 
L 712.557424 497.288357 
L 723.061212 498.60319 
L 727.262727 499.063641 
L 746.169545 500.11112 
L 746.169545 500.11112 
" clip-path="url(#p028d3b7fc2)" style="fill: none; stroke: #9b002e; stroke-opacity: 0.3; stroke-width: 2; stroke-linecap: square"/>
   </g>
   <g id="line2d_23">
    <path d="M 115.942273 139.809749 
L 118.04303 139.981023 
L 120.143788 140.144234 
L 122.244545 140.3215 
L 124.345303 140.484135 
L 126.446061 140.661894 
L 128.546818 140.806397 
L 130.647576 140.95803 
L 132.748333 141.106298 
L 134.849091 141.283766 
L 136.949848 141.465484 
L 139.050606 141.788958 
L 141.151364 142.144521 
L 143.252121 142.503685 
L 145.352879 142.884547 
L 147.453636 143.269239 
L 149.554394 143.64995 
L 151.655152 144.049186 
L 153.755909 144.465333 
L 155.856667 144.889419 
L 157.957424 145.352 
" clip-path="url(#p028d3b7fc2)" style="fill: none; stroke: #000000; stroke-opacity: 0.3; stroke-width: 2; stroke-linecap: square"/>
   </g>
   <g id="line2d_24">
    <path d="M 157.957424 145.352 
L 172.662727 147.460994 
L 193.670303 151.1061 
L 206.274848 153.585225 
L 212.577121 154.784704 
L 218.879394 155.764996 
L 229.383182 157.041863 
L 241.987727 158.26452 
L 256.69303 159.604922 
L 262.995303 160.325789 
L 281.902121 162.611493 
L 294.506667 163.76179 
L 302.909697 164.549842 
L 311.312727 165.556081 
L 319.715758 166.741077 
L 344.924848 170.812718 
L 351.227121 171.554935 
L 359.630152 172.246152 
L 372.234697 172.844139 
L 378.53697 173.09279 
L 391.141515 173.944786 
L 401.645303 174.827936 
L 418.451364 176.328482 
L 428.955152 176.970279 
L 454.164242 178.112434 
L 462.567273 178.590842 
L 479.373333 179.613455 
L 487.776364 179.79333 
L 502.481667 179.756555 
L 529.791515 179.503001 
L 548.698333 179.585431 
L 571.806667 179.423628 
L 580.209697 179.145387 
L 603.31803 178.205049 
L 615.922576 177.984679 
L 624.325606 178.131578 
L 632.728636 178.34533 
L 660.038485 178.258048 
L 668.441515 178.187991 
L 678.945303 178.172553 
L 691.549848 177.928159 
L 720.960455 177.189635 
L 746.169545 177.323797 
L 746.169545 177.323797 
" clip-path="url(#p028d3b7fc2)" style="fill: none; stroke: #70b8ff; stroke-opacity: 0.3; stroke-width: 2; stroke-linecap: square"/>
   </g>
   <g id="line2d_25">
    <path d="M 115.942273 140.675314 
L 118.04303 140.846384 
L 120.143788 141.015816 
L 122.244545 141.186583 
L 124.345303 141.344179 
L 126.446061 141.520456 
L 128.546818 141.665088 
L 130.647576 141.80806 
L 132.748333 141.940499 
L 134.849091 142.09681 
L 136.949848 142.254187 
L 139.050606 142.553621 
L 141.151364 142.862717 
L 143.252121 143.188075 
L 145.352879 143.492052 
L 147.453636 143.801778 
L 149.554394 144.102884 
L 151.655152 144.421152 
L 153.755909 144.737154 
L 155.856667 145.046273 
L 157.957424 145.352 
" clip-path="url(#p028d3b7fc2)" style="fill: none; stroke: #000000; stroke-opacity: 0.3; stroke-width: 2; stroke-linecap: square"/>
   </g>
   <g id="line2d_26">
    <path d="M 157.957424 145.352 
L 164.259697 146.661789 
L 170.56197 148.285624 
L 174.763485 149.552559 
L 181.065758 151.732693 
L 189.468788 154.738867 
L 195.771061 157.171114 
L 206.274848 161.681828 
L 225.181667 170.185406 
L 235.685455 175.010455 
L 248.29 181.139858 
L 254.592273 183.885637 
L 260.894545 186.319278 
L 269.297576 189.192398 
L 279.801364 192.393288 
L 296.607424 196.90986 
L 305.010455 199.605396 
L 313.413485 202.64206 
L 353.327879 217.912369 
L 376.436212 225.904633 
L 382.738485 227.781569 
L 399.544545 232.668342 
L 407.947576 234.743443 
L 424.753636 238.506228 
L 433.156667 240.23027 
L 454.164242 244.532208 
L 470.970303 248.101281 
L 483.574848 251.028273 
L 506.683182 256.732196 
L 521.388485 260.430485 
L 533.99303 263.421744 
L 552.899848 267.945006 
L 561.302879 269.917588 
L 571.806667 272.256528 
L 578.108939 273.619544 
L 586.51197 275.163983 
L 594.915 276.432986 
L 607.519545 277.901893 
L 626.426364 279.490157 
L 657.937727 281.602196 
L 699.952879 284.202495 
L 737.766515 285.729434 
L 746.169545 285.900713 
L 746.169545 285.900713 
" clip-path="url(#p028d3b7fc2)" style="fill: none; stroke: #f57600; stroke-opacity: 0.3; stroke-width: 2; stroke-linecap: square"/>
   </g>
   <g id="line2d_27">
    <path d="M 115.942273 140.011439 
L 118.04303 140.181079 
L 120.143788 140.342007 
L 122.244545 140.510883 
L 124.345303 140.663416 
L 126.446061 140.837144 
L 128.546818 140.982117 
L 130.647576 141.127311 
L 132.748333 141.263525 
L 134.849091 141.424717 
L 136.949848 141.585802 
L 139.050606 141.897472 
L 141.151364 142.262272 
L 143.252121 142.642369 
L 145.352879 143.016245 
L 147.453636 143.411437 
L 149.554394 143.796536 
L 151.655152 144.203869 
L 153.755909 144.59177 
L 155.856667 144.959265 
L 157.957424 145.352 
" clip-path="url(#p028d3b7fc2)" style="fill: none; stroke: #000000; stroke-opacity: 0.3; stroke-width: 2; stroke-linecap: square"/>
   </g>
   <g id="line2d_28">
    <path d="M 157.957424 145.352 
L 162.158939 146.516572 
L 168.461212 148.520541 
L 174.763485 150.876833 
L 181.065758 153.351258 
L 185.267273 155.219628 
L 195.771061 160.442533 
L 202.073333 163.838141 
L 208.375606 167.470119 
L 220.980152 175.200538 
L 231.483939 182.042488 
L 252.491515 196.145049 
L 265.096061 204.544251 
L 271.398333 208.64779 
L 290.305152 220.141375 
L 309.21197 231.625242 
L 330.219545 244.420395 
L 338.622576 249.091373 
L 347.025606 253.422287 
L 357.529394 258.472142 
L 363.831667 261.373755 
L 389.040758 272.532342 
L 422.652879 286.982298 
L 445.761212 296.959856 
L 452.063485 299.52773 
L 460.466515 302.967768 
L 468.869545 306.124012 
L 479.373333 309.562421 
L 489.877121 312.694753 
L 498.280152 314.96762 
L 508.783939 317.599173 
L 521.388485 320.53322 
L 538.194545 324.360642 
L 567.605152 330.428401 
L 576.008182 332.095266 
L 592.814242 335.848661 
L 613.821818 340.8033 
L 622.224848 342.418706 
L 632.728636 344.180625 
L 645.333182 345.836572 
L 660.038485 347.73612 
L 666.340758 348.7187 
L 691.549848 352.803106 
L 729.363485 358.390918 
L 739.867273 359.298971 
L 746.169545 359.949392 
L 746.169545 359.949392 
" clip-path="url(#p028d3b7fc2)" style="fill: none; stroke: #f57600; stroke-opacity: 0.3; stroke-width: 2; stroke-linecap: square"/>
   </g>
   <g id="line2d_29">
    <path d="M 115.942273 139.54554 
L 118.04303 139.701248 
L 120.143788 139.86162 
L 122.244545 140.037586 
L 124.345303 140.197551 
L 126.446061 140.379327 
L 128.546818 140.520463 
L 130.647576 140.666594 
L 132.748333 140.806132 
L 134.849091 140.976988 
L 136.949848 141.147863 
L 139.050606 141.455633 
L 141.151364 141.804037 
L 143.252121 142.176168 
L 145.352879 142.543525 
L 147.453636 142.935692 
L 149.554394 143.353035 
L 151.655152 143.809157 
L 153.755909 144.291777 
L 155.856667 144.803857 
L 157.957424 145.352 
" clip-path="url(#p028d3b7fc2)" style="fill: none; stroke: #000000; stroke-opacity: 0.3; stroke-width: 2; stroke-linecap: square"/>
   </g>
   <g id="line2d_30">
    <path d="M 157.957424 145.352 
L 166.360455 147.552383 
L 170.56197 148.750669 
L 176.864242 150.844276 
L 181.065758 152.419967 
L 189.468788 155.865747 
L 195.771061 158.562677 
L 199.972576 160.55093 
L 206.274848 163.827385 
L 210.476364 166.221963 
L 216.778636 170.139607 
L 225.181667 175.697765 
L 231.483939 180.262992 
L 237.786212 185.161901 
L 241.987727 188.705602 
L 246.189242 192.519785 
L 254.592273 200.539608 
L 258.793788 204.740864 
L 265.096061 211.389008 
L 271.398333 218.479764 
L 275.599848 223.435745 
L 284.002879 233.846911 
L 288.204394 239.390782 
L 292.405909 245.293481 
L 296.607424 251.591716 
L 300.808939 258.294149 
L 305.010455 265.343608 
L 311.312727 276.441636 
L 317.615 288.080134 
L 328.118788 308.141861 
L 338.622576 328.20973 
L 344.924848 339.673098 
L 351.227121 350.508797 
L 357.529394 360.90239 
L 363.831667 370.781089 
L 370.133939 380.193174 
L 374.335455 386.199083 
L 380.637727 394.829544 
L 386.94 403.168642 
L 393.242273 411.260491 
L 399.544545 418.971704 
L 407.947576 428.938046 
L 416.350606 438.489426 
L 422.652879 445.261203 
L 428.955152 451.63297 
L 437.358182 459.681573 
L 443.660455 465.356862 
L 449.962727 470.650503 
L 456.265 475.616424 
L 462.567273 480.148457 
L 468.869545 484.35196 
L 475.171818 488.21832 
L 479.373333 490.596535 
L 483.574848 492.804144 
L 487.776364 494.812232 
L 491.977879 496.633731 
L 496.179394 498.292011 
L 502.481667 500.523668 
L 508.783939 502.458807 
L 515.086212 504.142464 
L 521.388485 505.55978 
L 527.690758 506.789612 
L 536.093788 508.150513 
L 544.496818 509.229017 
L 555.000606 510.30579 
L 565.504394 511.151374 
L 578.108939 511.943701 
L 592.814242 512.651586 
L 611.721061 513.28992 
L 634.829394 513.825296 
L 660.038485 514.207101 
L 691.549848 514.448704 
L 746.169545 514.621173 
L 746.169545 514.621173 
" clip-path="url(#p028d3b7fc2)" style="fill: none; stroke: #2b084d; stroke-opacity: 0.3; stroke-width: 2; stroke-linecap: square"/>
   </g>
   <g id="line2d_31">
    <path d="M 115.942273 139.182398 
L 118.04303 139.362697 
L 120.143788 139.531319 
L 122.244545 139.713147 
L 124.345303 139.879728 
L 126.446061 140.061943 
L 128.546818 140.210461 
L 130.647576 140.356857 
L 132.748333 140.495436 
L 134.849091 140.665695 
L 136.949848 140.837753 
L 139.050606 141.166439 
L 141.151364 141.508783 
L 143.252121 141.893476 
L 145.352879 142.295808 
L 147.453636 142.724627 
L 149.554394 143.20854 
L 151.655152 143.730211 
L 153.755909 144.260083 
L 155.856667 144.809343 
L 157.957424 145.352 
" clip-path="url(#p028d3b7fc2)" style="fill: none; stroke: #000000; stroke-opacity: 0.3; stroke-width: 2; stroke-linecap: square"/>
   </g>
   <g id="line2d_32">
    <path d="M 157.957424 145.352 
L 164.259697 147.192347 
L 170.56197 149.3396 
L 174.763485 150.972715 
L 181.065758 153.704491 
L 202.073333 163.45549 
L 208.375606 166.742917 
L 216.778636 171.403224 
L 223.080909 175.129379 
L 227.282424 177.766915 
L 233.584697 182.086132 
L 237.786212 185.18793 
L 244.088485 190.159124 
L 250.390758 195.429498 
L 256.69303 201.048378 
L 262.995303 207.139007 
L 267.196818 211.52871 
L 271.398333 216.200631 
L 275.599848 221.289199 
L 279.801364 226.662726 
L 284.002879 232.354768 
L 290.305152 241.262583 
L 294.506667 247.664948 
L 302.909697 261.069071 
L 311.312727 275.027287 
L 319.715758 289.429538 
L 330.219545 307.942101 
L 336.521818 319.105917 
L 349.126364 340.956712 
L 355.428636 351.274727 
L 359.630152 357.736948 
L 365.932424 367.052777 
L 370.133939 373.030602 
L 376.436212 381.420955 
L 382.738485 389.363833 
L 391.141515 399.621979 
L 399.544545 409.615132 
L 405.846818 416.925057 
L 414.249848 426.272247 
L 422.652879 435.405812 
L 428.955152 441.850688 
L 437.358182 449.889372 
L 443.660455 455.552253 
L 447.86197 459.090883 
L 454.164242 464.076356 
L 458.365758 467.210558 
L 464.66803 471.589764 
L 470.970303 475.678117 
L 477.272576 479.519176 
L 483.574848 483.051785 
L 489.877121 486.332788 
L 496.179394 489.39415 
L 502.481667 492.172455 
L 508.783939 494.751956 
L 515.086212 497.057462 
L 521.388485 499.106708 
L 527.690758 500.941112 
L 533.99303 502.563237 
L 540.295303 504.003224 
L 548.698333 505.660351 
L 557.101364 507.059169 
L 565.504394 508.213527 
L 576.008182 509.364825 
L 586.51197 510.267715 
L 599.116515 511.142183 
L 613.821818 511.935979 
L 630.627879 512.598911 
L 649.534697 513.115999 
L 674.743788 513.572952 
L 706.255152 513.927263 
L 741.96803 514.116987 
L 746.169545 514.127311 
L 746.169545 514.127311 
" clip-path="url(#p028d3b7fc2)" style="fill: none; stroke: #4b0260; stroke-opacity: 0.3; stroke-width: 2; stroke-linecap: square"/>
   </g>
   <g id="line2d_33">
    <path d="M 115.942273 139.326535 
L 118.04303 139.496617 
L 120.143788 139.665633 
L 122.244545 139.842779 
L 124.345303 140.000638 
L 126.446061 140.174135 
L 128.546818 140.317635 
L 130.647576 140.465504 
L 132.748333 140.606947 
L 134.849091 140.771026 
L 136.949848 140.937902 
L 139.050606 141.264225 
L 141.151364 141.614556 
L 143.252121 141.981699 
L 145.352879 142.37055 
L 147.453636 142.783993 
L 149.554394 143.227592 
L 151.655152 143.706559 
L 153.755909 144.204437 
L 155.856667 144.753724 
L 157.957424 145.352 
" clip-path="url(#p028d3b7fc2)" style="fill: none; stroke: #000000; stroke-opacity: 0.3; stroke-width: 2; stroke-linecap: square"/>
   </g>
   <g id="line2d_34">
    <path d="M 157.957424 145.352 
L 166.360455 147.01091 
L 172.662727 148.447423 
L 185.267273 151.750137 
L 191.569545 153.617512 
L 197.871818 155.746518 
L 208.375606 159.670724 
L 218.879394 163.670434 
L 227.282424 166.891198 
L 246.189242 174.733565 
L 254.592273 178.575997 
L 260.894545 181.738108 
L 265.096061 184.025889 
L 271.398333 187.735823 
L 275.599848 190.42344 
L 279.801364 193.317925 
L 286.103636 197.977395 
L 292.405909 202.881911 
L 298.708182 208.052226 
L 305.010455 213.587689 
L 317.615 225.018993 
L 330.219545 236.621379 
L 336.521818 242.936131 
L 347.025606 253.980081 
L 351.227121 258.635577 
L 357.529394 265.948432 
L 363.831667 273.697534 
L 378.53697 292.706849 
L 401.645303 323.339088 
L 410.048333 334.04132 
L 422.652879 349.541493 
L 433.156667 361.948505 
L 439.458939 369.165308 
L 445.761212 376.025655 
L 454.164242 384.810838 
L 458.365758 389.007312 
L 464.66803 394.843979 
L 470.970303 400.362558 
L 479.373333 407.281829 
L 485.675606 412.229051 
L 491.977879 416.93363 
L 500.380909 422.912616 
L 515.086212 433.034052 
L 523.489242 438.544075 
L 531.892273 443.776252 
L 540.295303 448.705863 
L 548.698333 453.346928 
L 555.000606 456.589841 
L 563.403636 460.687891 
L 569.705909 463.574498 
L 576.008182 466.315506 
L 584.411212 469.651919 
L 590.713485 471.949631 
L 599.116515 474.736016 
L 607.519545 477.224518 
L 618.023333 480.083529 
L 628.527121 482.706269 
L 643.232424 486.128662 
L 653.736212 488.366225 
L 668.441515 491.211903 
L 678.945303 493.022922 
L 691.549848 494.939356 
L 702.053636 496.342952 
L 714.658182 497.79639 
L 727.262727 499.04771 
L 746.169545 499.916257 
L 746.169545 499.916257 
" clip-path="url(#p028d3b7fc2)" style="fill: none; stroke: #4f0162; stroke-opacity: 0.3; stroke-width: 2; stroke-linecap: square"/>
   </g>
   <g id="line2d_35">
    <path d="M 115.942273 139.987742 
L 118.04303 140.178852 
L 120.143788 140.359514 
L 122.244545 140.549295 
L 124.345303 140.721069 
L 126.446061 140.915233 
L 128.546818 141.074758 
L 130.647576 141.232394 
L 132.748333 141.378862 
L 134.849091 141.548506 
L 136.949848 141.716778 
L 139.050606 142.040004 
L 141.151364 142.389363 
L 143.252121 142.745114 
L 145.352879 143.084752 
L 147.453636 143.441308 
L 149.554394 143.810835 
L 151.655152 144.183505 
L 153.755909 144.572622 
L 155.856667 144.955365 
L 157.957424 145.352 
" clip-path="url(#p028d3b7fc2)" style="fill: none; stroke: #000000; stroke-opacity: 0.3; stroke-width: 2; stroke-linecap: square"/>
   </g>
   <g id="line2d_36">
    <path d="M 157.957424 145.352 
L 166.360455 147.269687 
L 170.56197 148.396058 
L 183.166515 152.631946 
L 189.468788 155.149858 
L 195.771061 157.814962 
L 199.972576 159.685712 
L 206.274848 162.68658 
L 210.476364 164.904329 
L 250.390758 187.700175 
L 265.096061 195.754351 
L 273.499091 201.046793 
L 284.002879 207.791475 
L 298.708182 217.187348 
L 305.010455 221.341192 
L 311.312727 225.252397 
L 323.917273 232.890762 
L 332.320303 238.236457 
L 340.723333 243.623625 
L 361.730909 256.465694 
L 368.033182 259.860159 
L 374.335455 263.068247 
L 386.94 269.081291 
L 391.141515 270.762043 
L 397.443788 273.185324 
L 407.947576 277.202848 
L 418.451364 281.495555 
L 426.854394 285.175093 
L 433.156667 288.21542 
L 454.164242 298.506143 
L 458.365758 300.29736 
L 464.66803 302.684478 
L 485.675606 310.128947 
L 496.179394 313.582266 
L 504.582424 316.733675 
L 512.985455 319.857625 
L 517.18697 321.242701 
L 523.489242 323.31592 
L 544.496818 330.211108 
L 569.705909 337.774452 
L 588.612727 342.975978 
L 597.015758 344.873589 
L 611.721061 348.275374 
L 620.124091 350.304492 
L 636.930152 354.052995 
L 649.534697 356.720458 
L 655.83697 357.971693 
L 697.852121 365.786282 
L 712.557424 368.284943 
L 723.061212 370.165392 
L 727.262727 370.944352 
L 735.665758 371.648042 
L 746.169545 372.528213 
L 746.169545 372.528213 
" clip-path="url(#p028d3b7fc2)" style="fill: none; stroke: #e94200; stroke-opacity: 0.3; stroke-width: 2; stroke-linecap: square"/>
   </g>
   <g id="line2d_37">
    <path d="M 115.942273 139.986527 
L 118.04303 140.140925 
L 120.143788 140.296714 
L 122.244545 140.457827 
L 124.345303 140.619771 
L 126.446061 140.793945 
L 128.546818 140.965607 
L 130.647576 141.134017 
L 132.748333 141.311895 
L 134.849091 141.476778 
L 136.949848 141.632825 
L 139.050606 141.931866 
L 141.151364 142.248484 
L 143.252121 142.574843 
L 145.352879 142.869486 
L 147.453636 143.185463 
L 149.554394 143.521641 
L 151.655152 143.93723 
L 153.755909 144.374361 
L 155.856667 144.86192 
L 157.957424 145.352 
" clip-path="url(#p028d3b7fc2)" style="fill: none; stroke: #000000; stroke-opacity: 0.3; stroke-width: 2; stroke-linecap: square"/>
   </g>
   <g id="line2d_38">
    <path d="M 157.957424 145.352 
L 166.360455 147.147654 
L 174.763485 149.204088 
L 193.670303 154.383048 
L 216.778636 160.956772 
L 233.584697 165.478607 
L 250.390758 170.333535 
L 273.499091 177.802755 
L 284.002879 181.022507 
L 292.405909 183.691568 
L 321.816515 192.223743 
L 330.219545 194.462394 
L 340.723333 197.138079 
L 374.335455 206.336388 
L 380.637727 208.02525 
L 393.242273 211.114822 
L 418.451364 216.768948 
L 445.761212 222.054965 
L 458.365758 224.323855 
L 470.970303 227.001382 
L 485.675606 230.360631 
L 500.380909 233.782224 
L 510.884697 235.965656 
L 525.59 238.845201 
L 536.093788 240.88777 
L 555.000606 244.630284 
L 567.605152 247.012278 
L 576.008182 248.511513 
L 582.310455 249.605463 
L 592.814242 251.698312 
L 607.519545 254.944899 
L 647.433939 264.091748 
L 666.340758 267.818413 
L 674.743788 269.283295 
L 693.650606 272.417227 
L 706.255152 274.757734 
L 729.363485 279.17095 
L 746.169545 280.959086 
L 746.169545 280.959086 
" clip-path="url(#p028d3b7fc2)" style="fill: none; stroke: #f36100; stroke-opacity: 0.3; stroke-width: 2; stroke-linecap: square"/>
   </g>
   <g id="line2d_39">
    <path d="M 115.942273 139.852332 
L 118.04303 140.078367 
L 120.143788 140.254118 
L 122.244545 140.400479 
L 124.345303 140.550883 
L 126.446061 140.710002 
L 128.546818 140.874067 
L 130.647576 141.039258 
L 132.748333 141.209208 
L 134.849091 141.382216 
L 136.949848 141.552109 
L 139.050606 141.859152 
L 141.151364 142.187369 
L 143.252121 142.544453 
L 145.352879 142.917021 
L 147.453636 143.29951 
L 149.554394 143.694227 
L 151.655152 144.096401 
L 153.755909 144.498671 
L 155.856667 144.923425 
L 157.957424 145.352 
" clip-path="url(#p028d3b7fc2)" style="fill: none; stroke: #000000; stroke-opacity: 0.3; stroke-width: 2; stroke-linecap: square"/>
   </g>
   <g id="line2d_40">
    <path d="M 157.957424 145.352 
L 166.360455 147.166042 
L 176.864242 149.603029 
L 189.468788 152.840434 
L 197.871818 155.267527 
L 210.476364 159.133098 
L 220.980152 162.651847 
L 237.786212 168.665273 
L 260.894545 176.916313 
L 290.305152 187.323696 
L 298.708182 190.698458 
L 305.010455 193.38593 
L 332.320303 204.374263 
L 340.723333 207.491513 
L 365.932424 215.96005 
L 382.738485 221.176497 
L 410.048333 230.2064 
L 424.753636 235.159101 
L 456.265 244.913143 
L 473.071061 249.92498 
L 536.093788 269.314697 
L 561.302879 277.478291 
L 573.907424 281.051291 
L 582.310455 283.125888 
L 594.915 285.927859 
L 649.534697 297.601961 
L 670.542273 302.690717 
L 683.146818 305.764974 
L 695.751364 308.466618 
L 718.859697 312.746313 
L 727.262727 314.201157 
L 746.169545 315.86065 
L 746.169545 315.86065 
" clip-path="url(#p028d3b7fc2)" style="fill: none; stroke: #d12003; stroke-opacity: 0.3; stroke-width: 2; stroke-linecap: square"/>
   </g>
   <g id="line2d_41">
    <path d="M 115.942273 140.011149 
L 118.04303 140.203485 
L 120.143788 140.424364 
L 122.244545 140.613336 
L 124.345303 140.772513 
L 126.446061 140.921407 
L 128.546818 141.066082 
L 130.647576 141.220776 
L 132.748333 141.382112 
L 134.849091 141.551036 
L 136.949848 141.718116 
L 139.050606 142.033142 
L 141.151364 142.372902 
L 143.252121 142.718576 
L 145.352879 143.073603 
L 147.453636 143.435506 
L 149.554394 143.807455 
L 151.655152 144.17651 
L 153.755909 144.541758 
L 155.856667 144.937185 
L 157.957424 145.352 
" clip-path="url(#p028d3b7fc2)" style="fill: none; stroke: #000000; stroke-opacity: 0.3; stroke-width: 2; stroke-linecap: square"/>
   </g>
   <g id="line2d_42">
    <path d="M 157.957424 145.352 
L 170.56197 148.185106 
L 181.065758 150.822901 
L 191.569545 153.690316 
L 202.073333 156.663822 
L 214.677879 160.665758 
L 225.181667 164.091654 
L 246.189242 170.99815 
L 262.995303 176.228539 
L 271.398333 178.952961 
L 281.902121 182.526996 
L 323.917273 197.896099 
L 336.521818 202.081567 
L 347.025606 205.377596 
L 355.428636 207.751288 
L 365.932424 210.524355 
L 382.738485 214.584917 
L 401.645303 218.79637 
L 414.249848 221.58017 
L 460.466515 231.005993 
L 483.574848 235.406441 
L 491.977879 236.845459 
L 548.698333 245.928362 
L 561.302879 248.104482 
L 582.310455 252.08317 
L 597.015758 255.006432 
L 609.620303 257.170404 
L 620.124091 258.780852 
L 643.232424 262.108305 
L 678.945303 267.658844 
L 687.348333 268.736867 
L 697.852121 269.869418 
L 723.061212 272.286947 
L 729.363485 272.768645 
L 746.169545 273.536702 
L 746.169545 273.536702 
" clip-path="url(#p028d3b7fc2)" style="fill: none; stroke: #db2e00; stroke-opacity: 0.3; stroke-width: 2; stroke-linecap: square"/>
   </g>
   <g id="line2d_43">
    <path d="M 115.942273 140.25125 
L 118.04303 140.350704 
L 120.143788 140.468892 
L 122.244545 140.602356 
L 124.345303 140.742025 
L 126.446061 140.889088 
L 128.546818 141.046437 
L 130.647576 141.204737 
L 132.748333 141.364102 
L 134.849091 141.533618 
L 136.949848 141.703454 
L 139.050606 142.014215 
L 141.151364 142.333338 
L 143.252121 142.657481 
L 145.352879 142.990885 
L 147.453636 143.340178 
L 149.554394 143.695817 
L 151.655152 144.078354 
L 153.755909 144.480635 
L 155.856667 144.908476 
L 157.957424 145.352 
" clip-path="url(#p028d3b7fc2)" style="fill: none; stroke: #000000; stroke-opacity: 0.3; stroke-width: 2; stroke-linecap: square"/>
   </g>
   <g id="line2d_44">
    <path d="M 157.957424 145.352 
L 162.158939 146.427449 
L 170.56197 149.085846 
L 204.174091 160.975355 
L 210.476364 162.942896 
L 223.080909 166.524045 
L 244.088485 172.762717 
L 252.491515 174.918117 
L 265.096061 177.883764 
L 271.398333 179.387286 
L 277.700606 180.847435 
L 294.506667 184.272991 
L 298.708182 185.432613 
L 323.917273 193.180479 
L 332.320303 195.939906 
L 342.824091 199.358365 
L 353.327879 202.424542 
L 365.932424 205.765224 
L 372.234697 207.369994 
L 386.94 210.934328 
L 410.048333 216.45054 
L 426.854394 220.145657 
L 441.559697 223.190374 
L 454.164242 226.045079 
L 483.574848 232.705331 
L 496.179394 235.299823 
L 521.388485 240.088246 
L 555.000606 247.170868 
L 563.403636 248.619153 
L 573.907424 250.099361 
L 588.612727 252.123706 
L 603.31803 254.323178 
L 615.922576 256.526504 
L 639.030909 260.840798 
L 647.433939 262.216832 
L 664.24 264.670694 
L 727.262727 272.850097 
L 746.169545 274.058385 
L 746.169545 274.058385 
" clip-path="url(#p028d3b7fc2)" style="fill: none; stroke: #f47200; stroke-opacity: 0.3; stroke-width: 2; stroke-linecap: square"/>
   </g>
   <g id="line2d_45">
    <path d="M 115.942273 139.849477 
L 118.04303 140.025262 
L 120.143788 140.191609 
L 122.244545 140.33194 
L 124.345303 140.493667 
L 126.446061 140.667465 
L 128.546818 140.831224 
L 130.647576 140.97386 
L 132.748333 141.098322 
L 134.849091 141.264555 
L 136.949848 141.432456 
L 139.050606 141.747725 
L 141.151364 142.093327 
L 143.252121 142.439861 
L 145.352879 142.753938 
L 147.453636 143.095955 
L 149.554394 143.46274 
L 151.655152 143.87372 
L 153.755909 144.332531 
L 155.856667 144.804831 
L 157.957424 145.352 
" clip-path="url(#p028d3b7fc2)" style="fill: none; stroke: #000000; stroke-opacity: 0.3; stroke-width: 2; stroke-linecap: square"/>
   </g>
   <g id="line2d_46">
    <path d="M 157.957424 145.352 
L 164.259697 146.881605 
L 178.965 151.045164 
L 189.468788 154.03298 
L 204.174091 157.622232 
L 223.080909 163.010085 
L 239.88697 167.948957 
L 258.793788 173.583903 
L 267.196818 176.073266 
L 284.002879 181.496334 
L 292.405909 184.586646 
L 319.715758 194.853367 
L 326.01803 197.008971 
L 332.320303 198.90937 
L 340.723333 201.188598 
L 353.327879 204.355398 
L 376.436212 209.800617 
L 384.839242 211.866042 
L 399.544545 215.633712 
L 407.947576 217.802277 
L 426.854394 222.969168 
L 441.559697 226.672656 
L 452.063485 229.133555 
L 464.66803 231.929058 
L 479.373333 235.297431 
L 489.877121 238.041588 
L 502.481667 241.275933 
L 515.086212 244.452345 
L 531.892273 248.904358 
L 542.396061 251.73433 
L 552.899848 254.733904 
L 599.116515 268.331463 
L 622.224848 274.175547 
L 630.627879 276.151477 
L 636.930152 277.6214 
L 645.333182 279.805552 
L 672.64303 286.846085 
L 683.146818 289.435823 
L 695.751364 292.378884 
L 706.255152 294.58513 
L 714.658182 296.289961 
L 727.262727 298.927182 
L 741.96803 300.390824 
L 746.169545 300.848286 
L 746.169545 300.848286 
" clip-path="url(#p028d3b7fc2)" style="fill: none; stroke: #f9a800; stroke-opacity: 0.3; stroke-width: 2; stroke-linecap: square"/>
   </g>
   <g id="line2d_47">
    <path d="M 115.942273 139.708338 
L 118.04303 139.88147 
L 120.143788 140.050273 
L 122.244545 140.19441 
L 124.345303 140.321671 
L 126.446061 140.499901 
L 128.546818 140.66039 
L 130.647576 140.796469 
L 132.748333 140.921969 
L 134.849091 141.085029 
L 136.949848 141.245755 
L 139.050606 141.563525 
L 141.151364 141.893632 
L 143.252121 142.248013 
L 145.352879 142.621292 
L 147.453636 142.983189 
L 149.554394 143.437169 
L 151.655152 143.942689 
L 153.755909 144.430351 
L 155.856667 144.894702 
L 157.957424 145.352 
" clip-path="url(#p028d3b7fc2)" style="fill: none; stroke: #000000; stroke-opacity: 0.3; stroke-width: 2; stroke-linecap: square"/>
   </g>
   <g id="line2d_48">
    <path d="M 157.957424 145.352 
L 164.259697 146.829363 
L 170.56197 148.452877 
L 178.965 150.942138 
L 195.771061 156.391387 
L 204.174091 159.282231 
L 212.577121 162.477989 
L 227.282424 168.304175 
L 233.584697 171.256363 
L 237.786212 173.398574 
L 244.088485 176.90038 
L 248.29 179.95203 
L 254.592273 184.767599 
L 258.793788 188.232743 
L 262.995303 192.065578 
L 267.196818 196.172175 
L 273.499091 202.36144 
L 279.801364 208.658221 
L 288.204394 217.330419 
L 292.405909 221.932378 
L 296.607424 226.861509 
L 305.010455 237.307453 
L 311.312727 245.641497 
L 315.514242 251.68279 
L 321.816515 261.324598 
L 326.01803 268.123295 
L 332.320303 278.710404 
L 349.126364 308.323352 
L 355.428636 319.905101 
L 361.730909 331.15919 
L 365.932424 338.465962 
L 372.234697 349.004416 
L 376.436212 355.649982 
L 382.738485 365.058362 
L 386.94 370.998527 
L 391.141515 376.54099 
L 399.544545 386.62796 
L 405.846818 393.815 
L 412.149091 400.675837 
L 418.451364 407.105592 
L 424.753636 413.210688 
L 431.055909 418.969146 
L 437.358182 424.512977 
L 443.660455 429.589018 
L 447.86197 432.791621 
L 454.164242 437.316714 
L 462.567273 442.950518 
L 468.869545 446.902719 
L 475.171818 452.989368 
L 481.474091 458.713649 
L 485.675606 462.358393 
L 491.977879 467.435283 
L 496.179394 470.589745 
L 502.481667 474.977105 
L 508.783939 479.018043 
L 515.086212 482.712573 
L 521.388485 486.071064 
L 525.59 488.094961 
L 531.892273 490.863102 
L 538.194545 493.343232 
L 544.496818 495.585749 
L 550.799091 497.57613 
L 557.101364 499.31713 
L 565.504394 501.340725 
L 571.806667 502.640992 
L 580.209697 504.114797 
L 590.713485 505.665317 
L 601.217273 506.918215 
L 611.721061 507.929896 
L 624.325606 508.922136 
L 639.030909 509.827083 
L 655.83697 510.598077 
L 676.844545 511.300476 
L 697.852121 511.795309 
L 725.16197 512.194149 
L 744.068788 512.316626 
L 746.169545 512.328992 
L 746.169545 512.328992 
" clip-path="url(#p028d3b7fc2)" style="fill: none; stroke: #340652; stroke-opacity: 0.3; stroke-width: 2; stroke-linecap: square"/>
   </g>
   <g id="line2d_49">
    <path d="M 115.942273 139.498005 
L 118.04303 139.664434 
L 120.143788 139.823113 
L 122.244545 139.987628 
L 124.345303 140.161938 
L 126.446061 140.352158 
L 128.546818 140.533793 
L 130.647576 140.716508 
L 132.748333 140.904919 
L 134.849091 141.086154 
L 136.949848 141.263943 
L 139.050606 141.620948 
L 141.151364 142.001987 
L 143.252121 142.401534 
L 145.352879 142.810201 
L 147.453636 143.209844 
L 149.554394 143.605917 
L 151.655152 144.021094 
L 153.755909 144.441756 
L 155.856667 144.89618 
L 157.957424 145.352 
" clip-path="url(#p028d3b7fc2)" style="fill: none; stroke: #000000; stroke-opacity: 0.3; stroke-width: 2; stroke-linecap: square"/>
   </g>
   <g id="line2d_50">
    <path d="M 764.551174 241.530791 
L 774.004583 241.530791 
L 774.004583 203.897641 
L 764.551174 203.897641 
L 764.551174 241.530791 
" clip-path="url(#p028d3b7fc2)" style="fill: none; stroke: #88b9d3; stroke-width: 2; stroke-linecap: square"/>
   </g>
   <g id="line2d_51">
    <path d="M 769.277879 241.530791 
L 769.277879 347.4993 
" clip-path="url(#p028d3b7fc2)" style="fill: none; stroke: #88b9d3; stroke-linecap: square"/>
   </g>
   <g id="line2d_52">
    <path d="M 769.277879 203.897641 
L 769.277879 168.913283 
" clip-path="url(#p028d3b7fc2)" style="fill: none; stroke: #88b9d3; stroke-linecap: square"/>
   </g>
   <g id="line2d_53">
    <path d="M 766.914527 347.4993 
L 771.641231 347.4993 
" clip-path="url(#p028d3b7fc2)" style="fill: none; stroke: #88b9d3; stroke-linecap: square"/>
   </g>
   <g id="line2d_54">
    <path d="M 766.914527 168.913283 
L 771.641231 168.913283 
" clip-path="url(#p028d3b7fc2)" style="fill: none; stroke: #88b9d3; stroke-linecap: square"/>
   </g>
   <g id="line2d_55">
    <path d="M 777.15572 322.98432 
L 786.609129 322.98432 
L 786.609129 257.976838 
L 777.15572 257.976838 
L 777.15572 322.98432 
" clip-path="url(#p028d3b7fc2)" style="fill: none; stroke: #f79400; stroke-width: 2; stroke-linecap: square"/>
   </g>
   <g id="line2d_56">
    <path d="M 781.882424 322.98432 
L 781.882424 414.738392 
" clip-path="url(#p028d3b7fc2)" style="fill: none; stroke: #f79400; stroke-linecap: square"/>
   </g>
   <g id="line2d_57">
    <path d="M 781.882424 257.976838 
L 781.882424 173.590033 
" clip-path="url(#p028d3b7fc2)" style="fill: none; stroke: #f79400; stroke-linecap: square"/>
   </g>
   <g id="line2d_58">
    <path d="M 779.519072 414.738392 
L 784.245777 414.738392 
" clip-path="url(#p028d3b7fc2)" style="fill: none; stroke: #f79400; stroke-linecap: square"/>
   </g>
   <g id="line2d_59">
    <path d="M 779.519072 173.590033 
L 784.245777 173.590033 
" clip-path="url(#p028d3b7fc2)" style="fill: none; stroke: #f79400; stroke-linecap: square"/>
   </g>
   <g id="line2d_60">
    <path d="M 789.760265 486.421385 
L 799.213674 486.421385 
L 799.213674 369.358779 
L 789.760265 369.358779 
L 789.760265 486.421385 
" clip-path="url(#p028d3b7fc2)" style="fill: none; stroke: #bb0817; stroke-width: 2; stroke-linecap: square"/>
   </g>
   <g id="line2d_61">
    <path d="M 794.48697 486.421385 
L 794.48697 515.56 
" clip-path="url(#p028d3b7fc2)" style="fill: none; stroke: #bb0817; stroke-linecap: square"/>
   </g>
   <g id="line2d_62">
    <path d="M 794.48697 369.358779 
L 794.48697 226.324407 
" clip-path="url(#p028d3b7fc2)" style="fill: none; stroke: #bb0817; stroke-linecap: square"/>
   </g>
   <g id="line2d_63">
    <path d="M 792.123617 515.56 
L 796.850322 515.56 
" clip-path="url(#p028d3b7fc2)" style="fill: none; stroke: #bb0817; stroke-linecap: square"/>
   </g>
   <g id="line2d_64">
    <path d="M 792.123617 226.324407 
L 796.850322 226.324407 
" clip-path="url(#p028d3b7fc2)" style="fill: none; stroke: #bb0817; stroke-linecap: square"/>
   </g>
   <g id="line2d_65">
    <path d="M 764.551174 228.29697 
L 774.004583 228.29697 
" clip-path="url(#p028d3b7fc2)" style="fill: none; stroke: #88b9d3; stroke-width: 4; stroke-linecap: square"/>
   </g>
   <g id="line2d_66">
    <path d="M 777.15572 298.124954 
L 786.609129 298.124954 
" clip-path="url(#p028d3b7fc2)" style="fill: none; stroke: #f79400; stroke-width: 4; stroke-linecap: square"/>
   </g>
   <g id="line2d_67">
    <path d="M 789.760265 446.387689 
L 799.213674 446.387689 
" clip-path="url(#p028d3b7fc2)" style="fill: none; stroke: #bb0817; stroke-width: 4; stroke-linecap: square"/>
   </g>
   <g id="patch_3">
    <path d="M 109.64 515.56 
L 109.64 52.8 
" style="fill: none; stroke: #000000; stroke-width: 0.8; stroke-linejoin: miter; stroke-linecap: square"/>
   </g>
   <g id="patch_4">
    <path d="M 109.64 515.56 
L 802.89 515.56 
" style="fill: none; stroke: #000000; stroke-width: 0.8; stroke-linejoin: miter; stroke-linecap: square"/>
   </g>
   <g id="text_14">
    <!-- +1.5C -->
    <g style="fill: #88b9d3" transform="translate(802.89 233.263845) scale(0.18 -0.18)">
     <defs>
      <path id="DejaVuSans-Bold-2b" d="M 3053 4013 
L 3053 2375 
L 4684 2375 
L 4684 1638 
L 3053 1638 
L 3053 0 
L 2309 0 
L 2309 1638 
L 678 1638 
L 678 2375 
L 2309 2375 
L 2309 4013 
L 3053 4013 
z
" transform="scale(0.015625)"/>
      <path id="DejaVuSans-Bold-31" d="M 750 831 
L 1813 831 
L 1813 3847 
L 722 3622 
L 722 4441 
L 1806 4666 
L 2950 4666 
L 2950 831 
L 4013 831 
L 4013 0 
L 750 0 
L 750 831 
z
" transform="scale(0.015625)"/>
      <path id="DejaVuSans-Bold-2e" d="M 653 1209 
L 1778 1209 
L 1778 0 
L 653 0 
L 653 1209 
z
" transform="scale(0.015625)"/>
      <path id="DejaVuSans-Bold-35" d="M 678 4666 
L 3669 4666 
L 3669 3781 
L 1638 3781 
L 1638 3059 
Q 1775 3097 1914 3117 
Q 2053 3138 2203 3138 
Q 3056 3138 3531 2711 
Q 4006 2284 4006 1522 
Q 4006 766 3489 337 
Q 2972 -91 2053 -91 
Q 1656 -91 1267 -14 
Q 878 63 494 219 
L 494 1166 
Q 875 947 1217 837 
Q 1559 728 1863 728 
Q 2300 728 2551 942 
Q 2803 1156 2803 1522 
Q 2803 1891 2551 2103 
Q 2300 2316 1863 2316 
Q 1603 2316 1309 2248 
Q 1016 2181 678 2041 
L 678 4666 
z
" transform="scale(0.015625)"/>
      <path id="DejaVuSans-Bold-b0" d="M 1600 4288 
Q 1375 4288 1219 4131 
Q 1063 3975 1063 3750 
Q 1063 3525 1217 3372 
Q 1372 3219 1600 3219 
Q 1825 3219 1981 3373 
Q 2138 3528 2138 3750 
Q 2138 3975 1980 4131 
Q 1822 4288 1600 4288 
z
M 1600 4794 
Q 1806 4794 1997 4714 
Q 2188 4634 2338 4488 
Q 2484 4338 2561 4150 
Q 2638 3963 2638 3750 
Q 2638 3541 2561 3352 
Q 2484 3163 2344 3022 
Q 2194 2872 2000 2792 
Q 1806 2713 1594 2713 
Q 1153 2713 854 3011 
Q 556 3309 556 3750 
Q 556 4191 857 4492 
Q 1159 4794 1600 4794 
z
" transform="scale(0.015625)"/>
      <path id="DejaVuSans-Bold-43" d="M 4288 256 
Q 3956 84 3597 -3 
Q 3238 -91 2847 -91 
Q 1681 -91 1000 561 
Q 319 1213 319 2328 
Q 319 3447 1000 4098 
Q 1681 4750 2847 4750 
Q 3238 4750 3597 4662 
Q 3956 4575 4288 4403 
L 4288 3438 
Q 3953 3666 3628 3772 
Q 3303 3878 2944 3878 
Q 2300 3878 1931 3465 
Q 1563 3053 1563 2328 
Q 1563 1606 1931 1193 
Q 2300 781 2944 781 
Q 3303 781 3628 887 
Q 3953 994 4288 1222 
L 4288 256 
z
" transform="scale(0.015625)"/>
     </defs>
     <use xlink:href="#DejaVuSans-Bold-2b"/>
     <use xlink:href="#DejaVuSans-Bold-31" x="83.789062"/>
     <use xlink:href="#DejaVuSans-Bold-2e" x="153.369141"/>
     <use xlink:href="#DejaVuSans-Bold-35" x="191.357422"/>
     <use xlink:href="#DejaVuSans-Bold-b0" x="260.9375"/>
     <use xlink:href="#DejaVuSans-Bold-43" x="310.9375"/>
    </g>
   </g>
   <g id="text_15">
    <!-- +2.0C -->
    <g style="fill: #f79400" transform="translate(802.89 303.091829) scale(0.18 -0.18)">
     <defs>
      <path id="DejaVuSans-Bold-32" d="M 1844 884 
L 3897 884 
L 3897 0 
L 506 0 
L 506 884 
L 2209 2388 
Q 2438 2594 2547 2791 
Q 2656 2988 2656 3200 
Q 2656 3528 2436 3728 
Q 2216 3928 1850 3928 
Q 1569 3928 1234 3808 
Q 900 3688 519 3450 
L 519 4475 
Q 925 4609 1322 4679 
Q 1719 4750 2100 4750 
Q 2938 4750 3402 4381 
Q 3866 4013 3866 3353 
Q 3866 2972 3669 2642 
Q 3472 2313 2841 1759 
L 1844 884 
z
" transform="scale(0.015625)"/>
      <path id="DejaVuSans-Bold-30" d="M 2944 2338 
Q 2944 3213 2780 3570 
Q 2616 3928 2228 3928 
Q 1841 3928 1675 3570 
Q 1509 3213 1509 2338 
Q 1509 1453 1675 1090 
Q 1841 728 2228 728 
Q 2613 728 2778 1090 
Q 2944 1453 2944 2338 
z
M 4147 2328 
Q 4147 1169 3647 539 
Q 3147 -91 2228 -91 
Q 1306 -91 806 539 
Q 306 1169 306 2328 
Q 306 3491 806 4120 
Q 1306 4750 2228 4750 
Q 3147 4750 3647 4120 
Q 4147 3491 4147 2328 
z
" transform="scale(0.015625)"/>
     </defs>
     <use xlink:href="#DejaVuSans-Bold-2b"/>
     <use xlink:href="#DejaVuSans-Bold-32" x="83.789062"/>
     <use xlink:href="#DejaVuSans-Bold-2e" x="153.369141"/>
     <use xlink:href="#DejaVuSans-Bold-30" x="191.357422"/>
     <use xlink:href="#DejaVuSans-Bold-b0" x="260.9375"/>
     <use xlink:href="#DejaVuSans-Bold-43" x="310.9375"/>
    </g>
   </g>
   <g id="text_16">
    <!-- +3.0C -->
    <g style="fill: #bb0817" transform="translate(802.89 451.354564) scale(0.18 -0.18)">
     <defs>
      <path id="DejaVuSans-Bold-33" d="M 2981 2516 
Q 3453 2394 3698 2092 
Q 3944 1791 3944 1325 
Q 3944 631 3412 270 
Q 2881 -91 1863 -91 
Q 1503 -91 1142 -33 
Q 781 25 428 141 
L 428 1069 
Q 766 900 1098 814 
Q 1431 728 1753 728 
Q 2231 728 2486 893 
Q 2741 1059 2741 1369 
Q 2741 1688 2480 1852 
Q 2219 2016 1709 2016 
L 1228 2016 
L 1228 2791 
L 1734 2791 
Q 2188 2791 2409 2933 
Q 2631 3075 2631 3366 
Q 2631 3634 2415 3781 
Q 2200 3928 1806 3928 
Q 1516 3928 1219 3862 
Q 922 3797 628 3669 
L 628 4550 
Q 984 4650 1334 4700 
Q 1684 4750 2022 4750 
Q 2931 4750 3382 4451 
Q 3834 4153 3834 3553 
Q 3834 3144 3618 2883 
Q 3403 2622 2981 2516 
z
" transform="scale(0.015625)"/>
     </defs>
     <use xlink:href="#DejaVuSans-Bold-2b"/>
     <use xlink:href="#DejaVuSans-Bold-33" x="83.789062"/>
     <use xlink:href="#DejaVuSans-Bold-2e" x="153.369141"/>
     <use xlink:href="#DejaVuSans-Bold-30" x="191.357422"/>
     <use xlink:href="#DejaVuSans-Bold-b0" x="260.9375"/>
     <use xlink:href="#DejaVuSans-Bold-43" x="310.9375"/>
    </g>
   </g>
   <g id="text_17">
    <!-- Glaciers of Antarctic and Subantarctic -->
    <g transform="translate(198.473125 46.8) scale(0.24 -0.24)">
     <defs>
      <path id="DejaVuSans-Bold-47" d="M 4781 347 
Q 4331 128 3847 18 
Q 3363 -91 2847 -91 
Q 1681 -91 1000 561 
Q 319 1213 319 2328 
Q 319 3456 1012 4103 
Q 1706 4750 2913 4750 
Q 3378 4750 3804 4662 
Q 4231 4575 4609 4403 
L 4609 3438 
Q 4219 3659 3833 3768 
Q 3447 3878 3059 3878 
Q 2341 3878 1952 3476 
Q 1563 3075 1563 2328 
Q 1563 1588 1938 1184 
Q 2313 781 3003 781 
Q 3191 781 3352 804 
Q 3513 828 3641 878 
L 3641 1784 
L 2906 1784 
L 2906 2591 
L 4781 2591 
L 4781 347 
z
" transform="scale(0.015625)"/>
      <path id="DejaVuSans-Bold-6c" d="M 538 4863 
L 1656 4863 
L 1656 0 
L 538 0 
L 538 4863 
z
" transform="scale(0.015625)"/>
      <path id="DejaVuSans-Bold-73" d="M 3272 3391 
L 3272 2541 
Q 2913 2691 2578 2766 
Q 2244 2841 1947 2841 
Q 1628 2841 1473 2761 
Q 1319 2681 1319 2516 
Q 1319 2381 1436 2309 
Q 1553 2238 1856 2203 
L 2053 2175 
Q 2913 2066 3209 1816 
Q 3506 1566 3506 1031 
Q 3506 472 3093 190 
Q 2681 -91 1863 -91 
Q 1516 -91 1145 -36 
Q 775 19 384 128 
L 384 978 
Q 719 816 1070 734 
Q 1422 653 1784 653 
Q 2113 653 2278 743 
Q 2444 834 2444 1013 
Q 2444 1163 2330 1236 
Q 2216 1309 1875 1350 
L 1678 1375 
Q 931 1469 631 1722 
Q 331 1975 331 2491 
Q 331 3047 712 3315 
Q 1094 3584 1881 3584 
Q 2191 3584 2531 3537 
Q 2872 3491 3272 3391 
z
" transform="scale(0.015625)"/>
      <path id="DejaVuSans-Bold-41" d="M 3419 850 
L 1538 850 
L 1241 0 
L 31 0 
L 1759 4666 
L 3194 4666 
L 4922 0 
L 3713 0 
L 3419 850 
z
M 1838 1716 
L 3116 1716 
L 2478 3572 
L 1838 1716 
z
" transform="scale(0.015625)"/>
      <path id="DejaVuSans-Bold-74" d="M 1759 4494 
L 1759 3500 
L 2913 3500 
L 2913 2700 
L 1759 2700 
L 1759 1216 
Q 1759 972 1856 886 
Q 1953 800 2241 800 
L 2816 800 
L 2816 0 
L 1856 0 
Q 1194 0 917 276 
Q 641 553 641 1216 
L 641 2700 
L 84 2700 
L 84 3500 
L 641 3500 
L 641 4494 
L 1759 4494 
z
" transform="scale(0.015625)"/>
      <path id="DejaVuSans-Bold-64" d="M 2919 2988 
L 2919 4863 
L 4044 4863 
L 4044 0 
L 2919 0 
L 2919 506 
Q 2688 197 2409 53 
Q 2131 -91 1766 -91 
Q 1119 -91 703 423 
Q 288 938 288 1747 
Q 288 2556 703 3070 
Q 1119 3584 1766 3584 
Q 2128 3584 2408 3439 
Q 2688 3294 2919 2988 
z
M 2181 722 
Q 2541 722 2730 984 
Q 2919 1247 2919 1747 
Q 2919 2247 2730 2509 
Q 2541 2772 2181 2772 
Q 1825 2772 1636 2509 
Q 1447 2247 1447 1747 
Q 1447 1247 1636 984 
Q 1825 722 2181 722 
z
" transform="scale(0.015625)"/>
      <path id="DejaVuSans-Bold-53" d="M 3834 4519 
L 3834 3531 
Q 3450 3703 3084 3790 
Q 2719 3878 2394 3878 
Q 1963 3878 1756 3759 
Q 1550 3641 1550 3391 
Q 1550 3203 1689 3098 
Q 1828 2994 2194 2919 
L 2706 2816 
Q 3484 2659 3812 2340 
Q 4141 2022 4141 1434 
Q 4141 663 3683 286 
Q 3225 -91 2284 -91 
Q 1841 -91 1394 -6 
Q 947 78 500 244 
L 500 1259 
Q 947 1022 1364 901 
Q 1781 781 2169 781 
Q 2563 781 2772 912 
Q 2981 1044 2981 1288 
Q 2981 1506 2839 1625 
Q 2697 1744 2272 1838 
L 1806 1941 
Q 1106 2091 782 2419 
Q 459 2747 459 3303 
Q 459 4000 909 4375 
Q 1359 4750 2203 4750 
Q 2588 4750 2994 4692 
Q 3400 4634 3834 4519 
z
" transform="scale(0.015625)"/>
      <path id="DejaVuSans-Bold-75" d="M 500 1363 
L 500 3500 
L 1625 3500 
L 1625 3150 
Q 1625 2866 1622 2436 
Q 1619 2006 1619 1863 
Q 1619 1441 1641 1255 
Q 1663 1069 1716 984 
Q 1784 875 1895 815 
Q 2006 756 2150 756 
Q 2500 756 2700 1025 
Q 2900 1294 2900 1772 
L 2900 3500 
L 4019 3500 
L 4019 0 
L 2900 0 
L 2900 506 
Q 2647 200 2364 54 
Q 2081 -91 1741 -91 
Q 1134 -91 817 281 
Q 500 653 500 1363 
z
" transform="scale(0.015625)"/>
      <path id="DejaVuSans-Bold-62" d="M 2400 722 
Q 2759 722 2948 984 
Q 3138 1247 3138 1747 
Q 3138 2247 2948 2509 
Q 2759 2772 2400 2772 
Q 2041 2772 1848 2508 
Q 1656 2244 1656 1747 
Q 1656 1250 1848 986 
Q 2041 722 2400 722 
z
M 1656 2988 
Q 1888 3294 2169 3439 
Q 2450 3584 2816 3584 
Q 3463 3584 3878 3070 
Q 4294 2556 4294 1747 
Q 4294 938 3878 423 
Q 3463 -91 2816 -91 
Q 2450 -91 2169 54 
Q 1888 200 1656 506 
L 1656 0 
L 538 0 
L 538 4863 
L 1656 4863 
L 1656 2988 
z
" transform="scale(0.015625)"/>
     </defs>
     <use xlink:href="#DejaVuSans-Bold-47"/>
     <use xlink:href="#DejaVuSans-Bold-6c" x="82.080078"/>
     <use xlink:href="#DejaVuSans-Bold-61" x="116.357422"/>
     <use xlink:href="#DejaVuSans-Bold-63" x="183.837891"/>
     <use xlink:href="#DejaVuSans-Bold-69" x="243.115234"/>
     <use xlink:href="#DejaVuSans-Bold-65" x="277.392578"/>
     <use xlink:href="#DejaVuSans-Bold-72" x="345.214844"/>
     <use xlink:href="#DejaVuSans-Bold-73" x="394.53125"/>
     <use xlink:href="#DejaVuSans-Bold-20" x="454.052734"/>
     <use xlink:href="#DejaVuSans-Bold-6f" x="488.867188"/>
     <use xlink:href="#DejaVuSans-Bold-66" x="557.568359"/>
     <use xlink:href="#DejaVuSans-Bold-20" x="601.074219"/>
     <use xlink:href="#DejaVuSans-Bold-41" x="635.888672"/>
     <use xlink:href="#DejaVuSans-Bold-6e" x="713.28125"/>
     <use xlink:href="#DejaVuSans-Bold-74" x="784.472656"/>
     <use xlink:href="#DejaVuSans-Bold-61" x="832.275391"/>
     <use xlink:href="#DejaVuSans-Bold-72" x="899.755859"/>
     <use xlink:href="#DejaVuSans-Bold-63" x="949.072266"/>
     <use xlink:href="#DejaVuSans-Bold-74" x="1008.349609"/>
     <use xlink:href="#DejaVuSans-Bold-69" x="1056.152344"/>
     <use xlink:href="#DejaVuSans-Bold-63" x="1090.429688"/>
     <use xlink:href="#DejaVuSans-Bold-20" x="1149.707031"/>
     <use xlink:href="#DejaVuSans-Bold-61" x="1184.521484"/>
     <use xlink:href="#DejaVuSans-Bold-6e" x="1252.001953"/>
     <use xlink:href="#DejaVuSans-Bold-64" x="1323.193359"/>
     <use xlink:href="#DejaVuSans-Bold-20" x="1394.775391"/>
     <use xlink:href="#DejaVuSans-Bold-53" x="1429.589844"/>
     <use xlink:href="#DejaVuSans-Bold-75" x="1501.611328"/>
     <use xlink:href="#DejaVuSans-Bold-62" x="1572.802734"/>
     <use xlink:href="#DejaVuSans-Bold-61" x="1644.384766"/>
     <use xlink:href="#DejaVuSans-Bold-6e" x="1711.865234"/>
     <use xlink:href="#DejaVuSans-Bold-74" x="1783.056641"/>
     <use xlink:href="#DejaVuSans-Bold-61" x="1830.859375"/>
     <use xlink:href="#DejaVuSans-Bold-72" x="1898.339844"/>
     <use xlink:href="#DejaVuSans-Bold-63" x="1947.65625"/>
     <use xlink:href="#DejaVuSans-Bold-74" x="2006.933594"/>
     <use xlink:href="#DejaVuSans-Bold-69" x="2054.736328"/>
     <use xlink:href="#DejaVuSans-Bold-63" x="2089.013672"/>
    </g>
   </g>
   <g id="LineCollection_1">
    <path d="M 322.866894 179.175885 
L 329.169167 179.175885 
" clip-path="url(#p028d3b7fc2)" style="fill: none; stroke: #70b8ff; stroke-opacity: 0.5; stroke-width: 3"/>
   </g>
   <g id="LineCollection_2">
    <path d="M 322.866894 182.355892 
L 329.169167 182.355892 
" clip-path="url(#p028d3b7fc2)" style="fill: none; stroke: #88b9d3; stroke-opacity: 0.5; stroke-width: 3"/>
   </g>
   <g id="LineCollection_3">
    <path d="M 322.866894 185.65472 
L 329.169167 185.65472 
" clip-path="url(#p028d3b7fc2)" style="fill: none; stroke: #a9b996; stroke-opacity: 0.5; stroke-width: 3"/>
   </g>
   <g id="LineCollection_4">
    <path d="M 322.866894 189.106683 
L 329.169167 189.106683 
" clip-path="url(#p028d3b7fc2)" style="fill: none; stroke: #caba59; stroke-opacity: 0.5; stroke-width: 3"/>
   </g>
   <g id="LineCollection_5">
    <path d="M 322.866894 192.68999 
L 329.169167 192.68999 
" clip-path="url(#p028d3b7fc2)" style="fill: none; stroke: #ebbb1c; stroke-opacity: 0.5; stroke-width: 3"/>
   </g>
   <g id="LineCollection_6">
    <path d="M 322.866894 196.353847 
L 329.169167 196.353847 
" clip-path="url(#p028d3b7fc2)" style="fill: none; stroke: #f9ad00; stroke-opacity: 0.5; stroke-width: 3"/>
   </g>
   <g id="LineCollection_7">
    <path d="M 322.866894 200.039707 
L 329.169167 200.039707 
" clip-path="url(#p028d3b7fc2)" style="fill: none; stroke: #f79400; stroke-opacity: 0.5; stroke-width: 3"/>
   </g>
   <g id="LineCollection_8">
    <path d="M 322.866894 203.695033 
L 329.169167 203.695033 
" clip-path="url(#p028d3b7fc2)" style="fill: none; stroke: #f57b00; stroke-opacity: 0.5; stroke-width: 3"/>
   </g>
   <g id="LineCollection_9">
    <path d="M 322.866894 207.27987 
L 329.169167 207.27987 
" clip-path="url(#p028d3b7fc2)" style="fill: none; stroke: #f36100; stroke-opacity: 0.5; stroke-width: 3"/>
   </g>
   <g id="LineCollection_10">
    <path d="M 322.866894 210.768097 
L 329.169167 210.768097 
" clip-path="url(#p028d3b7fc2)" style="fill: none; stroke: #ef4d00; stroke-opacity: 0.5; stroke-width: 3"/>
   </g>
   <g id="LineCollection_11">
    <path d="M 322.866894 214.145712 
L 329.169167 214.145712 
" clip-path="url(#p028d3b7fc2)" style="fill: none; stroke: #e84200; stroke-opacity: 0.5; stroke-width: 3"/>
   </g>
   <g id="LineCollection_12">
    <path d="M 322.866894 217.407967 
L 329.169167 217.407967 
" clip-path="url(#p028d3b7fc2)" style="fill: none; stroke: #e13700; stroke-opacity: 0.5; stroke-width: 3"/>
   </g>
   <g id="LineCollection_13">
    <path d="M 322.866894 220.556479 
L 329.169167 220.556479 
" clip-path="url(#p028d3b7fc2)" style="fill: none; stroke: #da2c00; stroke-opacity: 0.5; stroke-width: 3"/>
   </g>
   <g id="LineCollection_14">
    <path d="M 322.866894 223.596817 
L 329.169167 223.596817 
" clip-path="url(#p028d3b7fc2)" style="fill: none; stroke: #d32201; stroke-opacity: 0.5; stroke-width: 3"/>
   </g>
   <g id="LineCollection_15">
    <path d="M 322.866894 226.53668 
L 329.169167 226.53668 
" clip-path="url(#p028d3b7fc2)" style="fill: none; stroke: #cb1908; stroke-opacity: 0.5; stroke-width: 3"/>
   </g>
   <g id="LineCollection_16">
    <path d="M 322.866894 229.384636 
L 329.169167 229.384636 
" clip-path="url(#p028d3b7fc2)" style="fill: none; stroke: #c31110; stroke-opacity: 0.5; stroke-width: 3"/>
   </g>
   <g id="LineCollection_17">
    <path d="M 322.866894 232.149317 
L 329.169167 232.149317 
" clip-path="url(#p028d3b7fc2)" style="fill: none; stroke: #bb0817; stroke-opacity: 0.5; stroke-width: 3"/>
   </g>
   <g id="LineCollection_18">
    <path d="M 322.866894 234.838924 
L 329.169167 234.838924 
" clip-path="url(#p028d3b7fc2)" style="fill: none; stroke: #b3001e; stroke-opacity: 0.5; stroke-width: 3"/>
   </g>
   <g id="LineCollection_19">
    <path d="M 322.866894 237.460933 
L 329.169167 237.460933 
" clip-path="url(#p028d3b7fc2)" style="fill: none; stroke: #a70026; stroke-opacity: 0.5; stroke-width: 3"/>
   </g>
   <g id="LineCollection_20">
    <path d="M 322.866894 240.021966 
L 329.169167 240.021966 
" clip-path="url(#p028d3b7fc2)" style="fill: none; stroke: #9b002e; stroke-opacity: 0.5; stroke-width: 3"/>
   </g>
   <g id="LineCollection_21">
    <path d="M 322.866894 242.527741 
L 329.169167 242.527741 
" clip-path="url(#p028d3b7fc2)" style="fill: none; stroke: #8f0036; stroke-opacity: 0.5; stroke-width: 3"/>
   </g>
   <g id="LineCollection_22">
    <path d="M 322.866894 244.982977 
L 329.169167 244.982977 
" clip-path="url(#p028d3b7fc2)" style="fill: none; stroke: #82003e; stroke-opacity: 0.5; stroke-width: 3"/>
   </g>
   <g id="LineCollection_23">
    <path d="M 322.866894 247.391314 
L 329.169167 247.391314 
" clip-path="url(#p028d3b7fc2)" style="fill: none; stroke: #780047; stroke-opacity: 0.5; stroke-width: 3"/>
   </g>
   <g id="LineCollection_24">
    <path d="M 322.866894 249.755322 
L 329.169167 249.755322 
" clip-path="url(#p028d3b7fc2)" style="fill: none; stroke: #6d0050; stroke-opacity: 0.5; stroke-width: 3"/>
   </g>
   <g id="LineCollection_25">
    <path d="M 322.866894 252.076595 
L 329.169167 252.076595 
" clip-path="url(#p028d3b7fc2)" style="fill: none; stroke: #630059; stroke-opacity: 0.5; stroke-width: 3"/>
   </g>
   <g id="LineCollection_26">
    <path d="M 322.866894 254.355742 
L 329.169167 254.355742 
" clip-path="url(#p028d3b7fc2)" style="fill: none; stroke: #590063; stroke-opacity: 0.5; stroke-width: 3"/>
   </g>
   <g id="LineCollection_27">
    <path d="M 322.866894 256.59235 
L 329.169167 256.59235 
" clip-path="url(#p028d3b7fc2)" style="fill: none; stroke: #4f0162; stroke-opacity: 0.5; stroke-width: 3"/>
   </g>
   <g id="LineCollection_28">
    <path d="M 322.866894 258.784954 
L 329.169167 258.784954 
" clip-path="url(#p028d3b7fc2)" style="fill: none; stroke: #45035c; stroke-opacity: 0.5; stroke-width: 3"/>
   </g>
   <g id="LineCollection_29">
    <path d="M 322.866894 260.930976 
L 329.169167 260.930976 
" clip-path="url(#p028d3b7fc2)" style="fill: none; stroke: #3b0556; stroke-opacity: 0.5; stroke-width: 3"/>
   </g>
   <g id="LineCollection_30">
    <path d="M 322.866894 263.026702 
L 329.169167 263.026702 
" clip-path="url(#p028d3b7fc2)" style="fill: none; stroke: #310750; stroke-opacity: 0.5; stroke-width: 3"/>
   </g>
   <g id="LineCollection_31">
    <path d="M 322.866894 265.067168 
L 329.169167 265.067168 
" clip-path="url(#p028d3b7fc2)" style="fill: none; stroke: #2b084d; stroke-opacity: 0.5; stroke-width: 3"/>
   </g>
   <g id="LineCollection_32">
    <path d="M 751.421439 214.456392 
L 757.723712 214.456392 
" clip-path="url(#p028d3b7fc2)" style="fill: none; stroke: #70b8ff; stroke-opacity: 0.5; stroke-width: 3"/>
   </g>
   <g id="LineCollection_33">
    <path d="M 751.421439 228.29697 
L 757.723712 228.29697 
" clip-path="url(#p028d3b7fc2)" style="fill: none; stroke: #88b9d3; stroke-opacity: 0.5; stroke-width: 3"/>
   </g>
   <g id="LineCollection_34">
    <path d="M 751.421439 242.094021 
L 757.723712 242.094021 
" clip-path="url(#p028d3b7fc2)" style="fill: none; stroke: #a9b996; stroke-opacity: 0.5; stroke-width: 3"/>
   </g>
   <g id="LineCollection_35">
    <path d="M 751.421439 255.915932 
L 757.723712 255.915932 
" clip-path="url(#p028d3b7fc2)" style="fill: none; stroke: #caba59; stroke-opacity: 0.5; stroke-width: 3"/>
   </g>
   <g id="LineCollection_36">
    <path d="M 751.421439 269.829282 
L 757.723712 269.829282 
" clip-path="url(#p028d3b7fc2)" style="fill: none; stroke: #ebbb1c; stroke-opacity: 0.5; stroke-width: 3"/>
   </g>
   <g id="LineCollection_37">
    <path d="M 751.421439 283.86974 
L 757.723712 283.86974 
" clip-path="url(#p028d3b7fc2)" style="fill: none; stroke: #f9ad00; stroke-opacity: 0.5; stroke-width: 3"/>
   </g>
   <g id="LineCollection_38">
    <path d="M 751.421439 298.124954 
L 757.723712 298.124954 
" clip-path="url(#p028d3b7fc2)" style="fill: none; stroke: #f79400; stroke-opacity: 0.5; stroke-width: 3"/>
   </g>
   <g id="LineCollection_39">
    <path d="M 751.421439 312.712518 
L 757.723712 312.712518 
" clip-path="url(#p028d3b7fc2)" style="fill: none; stroke: #f57b00; stroke-opacity: 0.5; stroke-width: 3"/>
   </g>
   <g id="LineCollection_40">
    <path d="M 751.421439 327.674613 
L 757.723712 327.674613 
" clip-path="url(#p028d3b7fc2)" style="fill: none; stroke: #f36100; stroke-opacity: 0.5; stroke-width: 3"/>
   </g>
   <g id="LineCollection_41">
    <path d="M 751.421439 342.947108 
L 757.723712 342.947108 
" clip-path="url(#p028d3b7fc2)" style="fill: none; stroke: #ef4d00; stroke-opacity: 0.5; stroke-width: 3"/>
   </g>
   <g id="LineCollection_42">
    <path d="M 751.421439 358.384007 
L 757.723712 358.384007 
" clip-path="url(#p028d3b7fc2)" style="fill: none; stroke: #e84200; stroke-opacity: 0.5; stroke-width: 3"/>
   </g>
   <g id="LineCollection_43">
    <path d="M 751.421439 373.806734 
L 757.723712 373.806734 
" clip-path="url(#p028d3b7fc2)" style="fill: none; stroke: #e13700; stroke-opacity: 0.5; stroke-width: 3"/>
   </g>
   <g id="LineCollection_44">
    <path d="M 751.421439 389.066448 
L 757.723712 389.066448 
" clip-path="url(#p028d3b7fc2)" style="fill: none; stroke: #da2c00; stroke-opacity: 0.5; stroke-width: 3"/>
   </g>
   <g id="LineCollection_45">
    <path d="M 751.421439 404.047987 
L 757.723712 404.047987 
" clip-path="url(#p028d3b7fc2)" style="fill: none; stroke: #d32201; stroke-opacity: 0.5; stroke-width: 3"/>
   </g>
   <g id="LineCollection_46">
    <path d="M 751.421439 418.655753 
L 757.723712 418.655753 
" clip-path="url(#p028d3b7fc2)" style="fill: none; stroke: #cb1908; stroke-opacity: 0.5; stroke-width: 3"/>
   </g>
   <g id="LineCollection_47">
    <path d="M 751.421439 432.80072 
L 757.723712 432.80072 
" clip-path="url(#p028d3b7fc2)" style="fill: none; stroke: #c31110; stroke-opacity: 0.5; stroke-width: 3"/>
   </g>
   <g id="LineCollection_48">
    <path d="M 751.421439 446.387689 
L 757.723712 446.387689 
" clip-path="url(#p028d3b7fc2)" style="fill: none; stroke: #bb0817; stroke-opacity: 0.5; stroke-width: 3"/>
   </g>
   <g id="LineCollection_49">
    <path d="M 751.421439 459.30812 
L 757.723712 459.30812 
" clip-path="url(#p028d3b7fc2)" style="fill: none; stroke: #b3001e; stroke-opacity: 0.5; stroke-width: 3"/>
   </g>
   <g id="LineCollection_50">
    <path d="M 751.421439 471.433677 
L 757.723712 471.433677 
" clip-path="url(#p028d3b7fc2)" style="fill: none; stroke: #a70026; stroke-opacity: 0.5; stroke-width: 3"/>
   </g>
   <g id="LineCollection_51">
    <path d="M 751.421439 482.60308 
L 757.723712 482.60308 
" clip-path="url(#p028d3b7fc2)" style="fill: none; stroke: #9b002e; stroke-opacity: 0.5; stroke-width: 3"/>
   </g>
   <g id="LineCollection_52">
    <path d="M 751.421439 492.610971 
L 757.723712 492.610971 
" clip-path="url(#p028d3b7fc2)" style="fill: none; stroke: #8f0036; stroke-opacity: 0.5; stroke-width: 3"/>
   </g>
   <g id="LineCollection_53">
    <path d="M 751.421439 501.233837 
L 757.723712 501.233837 
" clip-path="url(#p028d3b7fc2)" style="fill: none; stroke: #82003e; stroke-opacity: 0.5; stroke-width: 3"/>
   </g>
   <g id="LineCollection_54">
    <path d="M 751.421439 508.19345 
L 757.723712 508.19345 
" clip-path="url(#p028d3b7fc2)" style="fill: none; stroke: #780047; stroke-opacity: 0.5; stroke-width: 3"/>
   </g>
   <g id="LineCollection_55">
    <path d="M 751.421439 513.123427 
L 757.723712 513.123427 
" clip-path="url(#p028d3b7fc2)" style="fill: none; stroke: #6d0050; stroke-opacity: 0.5; stroke-width: 3"/>
   </g>
   <g id="LineCollection_56">
    <path d="M 751.421439 515.56 
L 757.723712 515.56 
" clip-path="url(#p028d3b7fc2)" style="fill: none; stroke: #630059; stroke-opacity: 0.5; stroke-width: 3"/>
   </g>
   <g id="LineCollection_57">
    <path d="M 751.421439 515.56 
L 757.723712 515.56 
" clip-path="url(#p028d3b7fc2)" style="fill: none; stroke: #590063; stroke-opacity: 0.5; stroke-width: 3"/>
   </g>
   <g id="LineCollection_58">
    <path d="M 751.421439 515.56 
L 757.723712 515.56 
" clip-path="url(#p028d3b7fc2)" style="fill: none; stroke: #4f0162; stroke-opacity: 0.5; stroke-width: 3"/>
   </g>
   <g id="LineCollection_59">
    <path d="M 751.421439 515.073363 
L 757.723712 515.073363 
" clip-path="url(#p028d3b7fc2)" style="fill: none; stroke: #45035c; stroke-opacity: 0.5; stroke-width: 3"/>
   </g>
   <g id="LineCollection_60">
    <path d="M 751.421439 514.322932 
L 757.723712 514.322932 
" clip-path="url(#p028d3b7fc2)" style="fill: none; stroke: #3b0556; stroke-opacity: 0.5; stroke-width: 3"/>
   </g>
   <g id="LineCollection_61">
    <path d="M 751.421439 513.931255 
L 757.723712 513.931255 
" clip-path="url(#p028d3b7fc2)" style="fill: none; stroke: #310750; stroke-opacity: 0.5; stroke-width: 3"/>
   </g>
   <g id="LineCollection_62">
    <path d="M 751.421439 513.63135 
L 757.723712 513.63135 
" clip-path="url(#p028d3b7fc2)" style="fill: none; stroke: #2b084d; stroke-opacity: 0.5; stroke-width: 3"/>
   </g>
   <g id="LineCollection_63">
    <path d="M 319.715758 182.355892 
L 332.320303 182.355892 
" clip-path="url(#p028d3b7fc2)" style="fill: none; stroke: #88b9d3; stroke-width: 8"/>
   </g>
   <g id="LineCollection_64">
    <path d="M 319.715758 200.039707 
L 332.320303 200.039707 
" clip-path="url(#p028d3b7fc2)" style="fill: none; stroke: #f79400; stroke-width: 8"/>
   </g>
   <g id="LineCollection_65">
    <path d="M 319.715758 232.149317 
L 332.320303 232.149317 
" clip-path="url(#p028d3b7fc2)" style="fill: none; stroke: #bb0817; stroke-width: 8"/>
   </g>
   <g id="LineCollection_66">
    <path d="M 748.270303 228.29697 
L 760.874848 228.29697 
" clip-path="url(#p028d3b7fc2)" style="fill: none; stroke: #88b9d3; stroke-width: 8"/>
   </g>
   <g id="LineCollection_67">
    <path d="M 748.270303 298.124954 
L 760.874848 298.124954 
" clip-path="url(#p028d3b7fc2)" style="fill: none; stroke: #f79400; stroke-width: 8"/>
   </g>
   <g id="LineCollection_68">
    <path d="M 748.270303 446.387689 
L 760.874848 446.387689 
" clip-path="url(#p028d3b7fc2)" style="fill: none; stroke: #bb0817; stroke-width: 8"/>
   </g>
  </g>
 </g>
 <defs>
  <clipPath id="p028d3b7fc2">
   <rect x="109.64" y="52.8" width="693.25" height="462.76"/>
  </clipPath>
 </defs>
</svg>
