<?xml version="1.0" encoding="utf-8" standalone="no"?>
<!DOCTYPE svg PUBLIC "-//W3C//DTD SVG 1.1//EN"
  "http://www.w3.org/Graphics/SVG/1.1/DTD/svg11.dtd">
<svg xmlns:xlink="http://www.w3.org/1999/xlink" width="900pt" height="600pt" viewBox="0 0 900 600" xmlns="http://www.w3.org/2000/svg" version="1.1">
 <metadata>
  <rdf:RDF xmlns:dc="http://purl.org/dc/elements/1.1/" xmlns:cc="http://creativecommons.org/ns#" xmlns:rdf="http://www.w3.org/1999/02/22-rdf-syntax-ns#">
   <cc:Work>
    <dc:type rdf:resource="http://purl.org/dc/dcmitype/StillImage"/>
    <dc:date>2023-11-29T23:13:35.447234</dc:date>
    <dc:format>image/svg+xml</dc:format>
    <dc:creator>
     <cc:Agent>
      <dc:title>Matplotlib v3.7.1, https://matplotlib.org/</dc:title>
     </cc:Agent>
    </dc:creator>
   </cc:Work>
  </rdf:RDF>
 </metadata>
 <defs>
  <style type="text/css">*{stroke-linejoin: round; stroke-linecap: butt}</style>
 </defs>
 <g id="figure_1">
  <g id="patch_1">
   <path d="M 0 600 
L 900 600 
L 900 0 
L 0 0 
z
" style="fill: #ffffff"/>
  </g>
  <g id="axes_1">
   <g id="patch_2">
    <path d="M 109.64 515.56 
L 802.89 515.56 
L 802.89 52.8 
L 109.64 52.8 
z
" style="fill: #ffffff"/>
   </g>
   <g id="matplotlib.axis_1">
    <g id="xtick_1">
     <g id="line2d_1">
      <defs>
       <path id="m657f681c3a" d="M 0 0 
L 0 3.5 
" style="stroke: #000000; stroke-width: 0.8"/>
      </defs>
      <g>
       <use xlink:href="#m657f681c3a" x="157.957424" y="515.56" style="stroke: #000000; stroke-width: 0.8"/>
      </g>
     </g>
     <g id="text_1">
      <!-- 2020 -->
      <g transform="translate(124.872424 542.315938) scale(0.26 -0.26)">
       <defs>
        <path id="DejaVuSans-32" d="M 1228 531 
L 3431 531 
L 3431 0 
L 469 0 
L 469 531 
Q 828 903 1448 1529 
Q 2069 2156 2228 2338 
Q 2531 2678 2651 2914 
Q 2772 3150 2772 3378 
Q 2772 3750 2511 3984 
Q 2250 4219 1831 4219 
Q 1534 4219 1204 4116 
Q 875 4013 500 3803 
L 500 4441 
Q 881 4594 1212 4672 
Q 1544 4750 1819 4750 
Q 2544 4750 2975 4387 
Q 3406 4025 3406 3419 
Q 3406 3131 3298 2873 
Q 3191 2616 2906 2266 
Q 2828 2175 2409 1742 
Q 1991 1309 1228 531 
z
" transform="scale(0.015625)"/>
        <path id="DejaVuSans-30" d="M 2034 4250 
Q 1547 4250 1301 3770 
Q 1056 3291 1056 2328 
Q 1056 1369 1301 889 
Q 1547 409 2034 409 
Q 2525 409 2770 889 
Q 3016 1369 3016 2328 
Q 3016 3291 2770 3770 
Q 2525 4250 2034 4250 
z
M 2034 4750 
Q 2819 4750 3233 4129 
Q 3647 3509 3647 2328 
Q 3647 1150 3233 529 
Q 2819 -91 2034 -91 
Q 1250 -91 836 529 
Q 422 1150 422 2328 
Q 422 3509 836 4129 
Q 1250 4750 2034 4750 
z
" transform="scale(0.015625)"/>
       </defs>
       <use xlink:href="#DejaVuSans-32"/>
       <use xlink:href="#DejaVuSans-30" x="63.623047"/>
       <use xlink:href="#DejaVuSans-32" x="127.246094"/>
       <use xlink:href="#DejaVuSans-30" x="190.869141"/>
      </g>
     </g>
    </g>
    <g id="xtick_2">
     <g id="line2d_2">
      <g>
       <use xlink:href="#m657f681c3a" x="326.01803" y="515.56" style="stroke: #000000; stroke-width: 0.8"/>
      </g>
     </g>
     <g id="text_2">
      <!-- 2100 -->
      <g transform="translate(292.93303 542.315938) scale(0.26 -0.26)">
       <defs>
        <path id="DejaVuSans-31" d="M 794 531 
L 1825 531 
L 1825 4091 
L 703 3866 
L 703 4441 
L 1819 4666 
L 2450 4666 
L 2450 531 
L 3481 531 
L 3481 0 
L 794 0 
L 794 531 
z
" transform="scale(0.015625)"/>
       </defs>
       <use xlink:href="#DejaVuSans-32"/>
       <use xlink:href="#DejaVuSans-31" x="63.623047"/>
       <use xlink:href="#DejaVuSans-30" x="127.246094"/>
       <use xlink:href="#DejaVuSans-30" x="190.869141"/>
      </g>
     </g>
    </g>
    <g id="xtick_3">
     <g id="line2d_3">
      <g>
       <use xlink:href="#m657f681c3a" x="536.093788" y="515.56" style="stroke: #000000; stroke-width: 0.8"/>
      </g>
     </g>
     <g id="text_3">
      <!-- 2200 -->
      <g transform="translate(503.008788 542.315938) scale(0.26 -0.26)">
       <use xlink:href="#DejaVuSans-32"/>
       <use xlink:href="#DejaVuSans-32" x="63.623047"/>
       <use xlink:href="#DejaVuSans-30" x="127.246094"/>
       <use xlink:href="#DejaVuSans-30" x="190.869141"/>
      </g>
     </g>
    </g>
    <g id="xtick_4">
     <g id="line2d_4">
      <g>
       <use xlink:href="#m657f681c3a" x="746.169545" y="515.56" style="stroke: #000000; stroke-width: 0.8"/>
      </g>
     </g>
     <g id="text_4">
      <!-- 2300 -->
      <g transform="translate(713.084545 542.315938) scale(0.26 -0.26)">
       <defs>
        <path id="DejaVuSans-33" d="M 2597 2516 
Q 3050 2419 3304 2112 
Q 3559 1806 3559 1356 
Q 3559 666 3084 287 
Q 2609 -91 1734 -91 
Q 1441 -91 1130 -33 
Q 819 25 488 141 
L 488 750 
Q 750 597 1062 519 
Q 1375 441 1716 441 
Q 2309 441 2620 675 
Q 2931 909 2931 1356 
Q 2931 1769 2642 2001 
Q 2353 2234 1838 2234 
L 1294 2234 
L 1294 2753 
L 1863 2753 
Q 2328 2753 2575 2939 
Q 2822 3125 2822 3475 
Q 2822 3834 2567 4026 
Q 2313 4219 1838 4219 
Q 1578 4219 1281 4162 
Q 984 4106 628 3988 
L 628 4550 
Q 988 4650 1302 4700 
Q 1616 4750 1894 4750 
Q 2613 4750 3031 4423 
Q 3450 4097 3450 3541 
Q 3450 3153 3228 2886 
Q 3006 2619 2597 2516 
z
" transform="scale(0.015625)"/>
       </defs>
       <use xlink:href="#DejaVuSans-32"/>
       <use xlink:href="#DejaVuSans-33" x="63.623047"/>
       <use xlink:href="#DejaVuSans-30" x="127.246094"/>
       <use xlink:href="#DejaVuSans-30" x="190.869141"/>
      </g>
     </g>
    </g>
    <g id="text_5">
     <!-- Year -->
     <g transform="translate(428.995313 568.439687) scale(0.22 -0.22)">
      <defs>
       <path id="DejaVuSans-Bold-59" d="M -63 4666 
L 1253 4666 
L 2316 3003 
L 3378 4666 
L 4697 4666 
L 2919 1966 
L 2919 0 
L 1716 0 
L 1716 1966 
L -63 4666 
z
" transform="scale(0.015625)"/>
       <path id="DejaVuSans-Bold-65" d="M 4031 1759 
L 4031 1441 
L 1416 1441 
Q 1456 1047 1700 850 
Q 1944 653 2381 653 
Q 2734 653 3104 758 
Q 3475 863 3866 1075 
L 3866 213 
Q 3469 63 3072 -14 
Q 2675 -91 2278 -91 
Q 1328 -91 801 392 
Q 275 875 275 1747 
Q 275 2603 792 3093 
Q 1309 3584 2216 3584 
Q 3041 3584 3536 3087 
Q 4031 2591 4031 1759 
z
M 2881 2131 
Q 2881 2450 2695 2645 
Q 2509 2841 2209 2841 
Q 1884 2841 1681 2658 
Q 1478 2475 1428 2131 
L 2881 2131 
z
" transform="scale(0.015625)"/>
       <path id="DejaVuSans-Bold-61" d="M 2106 1575 
Q 1756 1575 1579 1456 
Q 1403 1338 1403 1106 
Q 1403 894 1545 773 
Q 1688 653 1941 653 
Q 2256 653 2472 879 
Q 2688 1106 2688 1447 
L 2688 1575 
L 2106 1575 
z
M 3816 1997 
L 3816 0 
L 2688 0 
L 2688 519 
Q 2463 200 2181 54 
Q 1900 -91 1497 -91 
Q 953 -91 614 226 
Q 275 544 275 1050 
Q 275 1666 698 1953 
Q 1122 2241 2028 2241 
L 2688 2241 
L 2688 2328 
Q 2688 2594 2478 2717 
Q 2269 2841 1825 2841 
Q 1466 2841 1156 2769 
Q 847 2697 581 2553 
L 581 3406 
Q 941 3494 1303 3539 
Q 1666 3584 2028 3584 
Q 2975 3584 3395 3211 
Q 3816 2838 3816 1997 
z
" transform="scale(0.015625)"/>
       <path id="DejaVuSans-Bold-72" d="M 3138 2547 
Q 2991 2616 2845 2648 
Q 2700 2681 2553 2681 
Q 2122 2681 1889 2404 
Q 1656 2128 1656 1613 
L 1656 0 
L 538 0 
L 538 3500 
L 1656 3500 
L 1656 2925 
Q 1872 3269 2151 3426 
Q 2431 3584 2822 3584 
Q 2878 3584 2943 3579 
Q 3009 3575 3134 3559 
L 3138 2547 
z
" transform="scale(0.015625)"/>
      </defs>
      <use xlink:href="#DejaVuSans-Bold-59"/>
      <use xlink:href="#DejaVuSans-Bold-65" x="63.287109"/>
      <use xlink:href="#DejaVuSans-Bold-61" x="131.109375"/>
      <use xlink:href="#DejaVuSans-Bold-72" x="198.589844"/>
     </g>
    </g>
   </g>
   <g id="matplotlib.axis_2">
    <g id="ytick_1">
     <g id="line2d_5">
      <defs>
       <path id="med463dd458" d="M 0 0 
L -3.5 0 
" style="stroke: #000000; stroke-width: 0.8"/>
      </defs>
      <g>
       <use xlink:href="#med463dd458" x="109.64" y="515.56" style="stroke: #000000; stroke-width: 0.8"/>
      </g>
     </g>
     <g id="text_6">
      <!-- 0 -->
      <g transform="translate(86.0975 525.437969) scale(0.26 -0.26)">
       <use xlink:href="#DejaVuSans-30"/>
      </g>
     </g>
    </g>
    <g id="ytick_2">
     <g id="line2d_6">
      <g>
       <use xlink:href="#med463dd458" x="109.64" y="441.5184" style="stroke: #000000; stroke-width: 0.8"/>
      </g>
     </g>
     <g id="text_7">
      <!-- 20 -->
      <g transform="translate(69.555 451.396369) scale(0.26 -0.26)">
       <use xlink:href="#DejaVuSans-32"/>
       <use xlink:href="#DejaVuSans-30" x="63.623047"/>
      </g>
     </g>
    </g>
    <g id="ytick_3">
     <g id="line2d_7">
      <g>
       <use xlink:href="#med463dd458" x="109.64" y="367.4768" style="stroke: #000000; stroke-width: 0.8"/>
      </g>
     </g>
     <g id="text_8">
      <!-- 40 -->
      <g transform="translate(69.555 377.354769) scale(0.26 -0.26)">
       <defs>
        <path id="DejaVuSans-34" d="M 2419 4116 
L 825 1625 
L 2419 1625 
L 2419 4116 
z
M 2253 4666 
L 3047 4666 
L 3047 1625 
L 3713 1625 
L 3713 1100 
L 3047 1100 
L 3047 0 
L 2419 0 
L 2419 1100 
L 313 1100 
L 313 1709 
L 2253 4666 
z
" transform="scale(0.015625)"/>
       </defs>
       <use xlink:href="#DejaVuSans-34"/>
       <use xlink:href="#DejaVuSans-30" x="63.623047"/>
      </g>
     </g>
    </g>
    <g id="ytick_4">
     <g id="line2d_8">
      <g>
       <use xlink:href="#med463dd458" x="109.64" y="293.4352" style="stroke: #000000; stroke-width: 0.8"/>
      </g>
     </g>
     <g id="text_9">
      <!-- 60 -->
      <g transform="translate(69.555 303.313169) scale(0.26 -0.26)">
       <defs>
        <path id="DejaVuSans-36" d="M 2113 2584 
Q 1688 2584 1439 2293 
Q 1191 2003 1191 1497 
Q 1191 994 1439 701 
Q 1688 409 2113 409 
Q 2538 409 2786 701 
Q 3034 994 3034 1497 
Q 3034 2003 2786 2293 
Q 2538 2584 2113 2584 
z
M 3366 4563 
L 3366 3988 
Q 3128 4100 2886 4159 
Q 2644 4219 2406 4219 
Q 1781 4219 1451 3797 
Q 1122 3375 1075 2522 
Q 1259 2794 1537 2939 
Q 1816 3084 2150 3084 
Q 2853 3084 3261 2657 
Q 3669 2231 3669 1497 
Q 3669 778 3244 343 
Q 2819 -91 2113 -91 
Q 1303 -91 875 529 
Q 447 1150 447 2328 
Q 447 3434 972 4092 
Q 1497 4750 2381 4750 
Q 2619 4750 2861 4703 
Q 3103 4656 3366 4563 
z
" transform="scale(0.015625)"/>
       </defs>
       <use xlink:href="#DejaVuSans-36"/>
       <use xlink:href="#DejaVuSans-30" x="63.623047"/>
      </g>
     </g>
    </g>
    <g id="ytick_5">
     <g id="line2d_9">
      <g>
       <use xlink:href="#med463dd458" x="109.64" y="219.3936" style="stroke: #000000; stroke-width: 0.8"/>
      </g>
     </g>
     <g id="text_10">
      <!-- 80 -->
      <g transform="translate(69.555 229.271569) scale(0.26 -0.26)">
       <defs>
        <path id="DejaVuSans-38" d="M 2034 2216 
Q 1584 2216 1326 1975 
Q 1069 1734 1069 1313 
Q 1069 891 1326 650 
Q 1584 409 2034 409 
Q 2484 409 2743 651 
Q 3003 894 3003 1313 
Q 3003 1734 2745 1975 
Q 2488 2216 2034 2216 
z
M 1403 2484 
Q 997 2584 770 2862 
Q 544 3141 544 3541 
Q 544 4100 942 4425 
Q 1341 4750 2034 4750 
Q 2731 4750 3128 4425 
Q 3525 4100 3525 3541 
Q 3525 3141 3298 2862 
Q 3072 2584 2669 2484 
Q 3125 2378 3379 2068 
Q 3634 1759 3634 1313 
Q 3634 634 3220 271 
Q 2806 -91 2034 -91 
Q 1263 -91 848 271 
Q 434 634 434 1313 
Q 434 1759 690 2068 
Q 947 2378 1403 2484 
z
M 1172 3481 
Q 1172 3119 1398 2916 
Q 1625 2713 2034 2713 
Q 2441 2713 2670 2916 
Q 2900 3119 2900 3481 
Q 2900 3844 2670 4047 
Q 2441 4250 2034 4250 
Q 1625 4250 1398 4047 
Q 1172 3844 1172 3481 
z
" transform="scale(0.015625)"/>
       </defs>
       <use xlink:href="#DejaVuSans-38"/>
       <use xlink:href="#DejaVuSans-30" x="63.623047"/>
      </g>
     </g>
    </g>
    <g id="ytick_6">
     <g id="line2d_10">
      <g>
       <use xlink:href="#med463dd458" x="109.64" y="145.352" style="stroke: #000000; stroke-width: 0.8"/>
      </g>
     </g>
     <g id="text_11">
      <!-- 100 -->
      <g transform="translate(53.0125 155.229969) scale(0.26 -0.26)">
       <use xlink:href="#DejaVuSans-31"/>
       <use xlink:href="#DejaVuSans-30" x="63.623047"/>
       <use xlink:href="#DejaVuSans-30" x="127.246094"/>
      </g>
     </g>
    </g>
    <g id="ytick_7">
     <g id="line2d_11">
      <g>
       <use xlink:href="#med463dd458" x="109.64" y="71.3104" style="stroke: #000000; stroke-width: 0.8"/>
      </g>
     </g>
     <g id="text_12">
      <!-- 120 -->
      <g transform="translate(53.0125 81.188369) scale(0.26 -0.26)">
       <use xlink:href="#DejaVuSans-31"/>
       <use xlink:href="#DejaVuSans-32" x="63.623047"/>
       <use xlink:href="#DejaVuSans-30" x="127.246094"/>
      </g>
     </g>
    </g>
    <g id="text_13">
     <!-- % of Remaining Ice -->
     <g transform="translate(44.265313 403.000625) rotate(-90) scale(0.22 -0.22)">
      <defs>
       <path id="DejaVuSans-Bold-25" d="M 4959 1925 
Q 4738 1925 4616 1733 
Q 4494 1541 4494 1184 
Q 4494 825 4614 633 
Q 4734 441 4959 441 
Q 5184 441 5303 633 
Q 5422 825 5422 1184 
Q 5422 1541 5301 1733 
Q 5181 1925 4959 1925 
z
M 4959 2450 
Q 5541 2450 5875 2112 
Q 6209 1775 6209 1184 
Q 6209 594 5875 251 
Q 5541 -91 4959 -91 
Q 4378 -91 4042 251 
Q 3706 594 3706 1184 
Q 3706 1772 4042 2111 
Q 4378 2450 4959 2450 
z
M 2094 -91 
L 1403 -91 
L 4319 4750 
L 5013 4750 
L 2094 -91 
z
M 1453 4750 
Q 2034 4750 2367 4411 
Q 2700 4072 2700 3481 
Q 2700 2891 2367 2550 
Q 2034 2209 1453 2209 
Q 872 2209 539 2550 
Q 206 2891 206 3481 
Q 206 4072 539 4411 
Q 872 4750 1453 4750 
z
M 1453 4225 
Q 1228 4225 1106 4031 
Q 984 3838 984 3481 
Q 984 3122 1106 2926 
Q 1228 2731 1453 2731 
Q 1678 2731 1798 2926 
Q 1919 3122 1919 3481 
Q 1919 3838 1797 4031 
Q 1675 4225 1453 4225 
z
" transform="scale(0.015625)"/>
       <path id="DejaVuSans-Bold-20" transform="scale(0.015625)"/>
       <path id="DejaVuSans-Bold-6f" d="M 2203 2784 
Q 1831 2784 1636 2517 
Q 1441 2250 1441 1747 
Q 1441 1244 1636 976 
Q 1831 709 2203 709 
Q 2569 709 2762 976 
Q 2956 1244 2956 1747 
Q 2956 2250 2762 2517 
Q 2569 2784 2203 2784 
z
M 2203 3584 
Q 3106 3584 3614 3096 
Q 4122 2609 4122 1747 
Q 4122 884 3614 396 
Q 3106 -91 2203 -91 
Q 1297 -91 786 396 
Q 275 884 275 1747 
Q 275 2609 786 3096 
Q 1297 3584 2203 3584 
z
" transform="scale(0.015625)"/>
       <path id="DejaVuSans-Bold-66" d="M 2841 4863 
L 2841 4128 
L 2222 4128 
Q 1984 4128 1890 4042 
Q 1797 3956 1797 3744 
L 1797 3500 
L 2753 3500 
L 2753 2700 
L 1797 2700 
L 1797 0 
L 678 0 
L 678 2700 
L 122 2700 
L 122 3500 
L 678 3500 
L 678 3744 
Q 678 4316 997 4589 
Q 1316 4863 1984 4863 
L 2841 4863 
z
" transform="scale(0.015625)"/>
       <path id="DejaVuSans-Bold-52" d="M 2297 2597 
Q 2675 2597 2839 2737 
Q 3003 2878 3003 3200 
Q 3003 3519 2839 3656 
Q 2675 3794 2297 3794 
L 1791 3794 
L 1791 2597 
L 2297 2597 
z
M 1791 1766 
L 1791 0 
L 588 0 
L 588 4666 
L 2425 4666 
Q 3347 4666 3776 4356 
Q 4206 4047 4206 3378 
Q 4206 2916 3982 2619 
Q 3759 2322 3309 2181 
Q 3556 2125 3751 1926 
Q 3947 1728 4147 1325 
L 4800 0 
L 3519 0 
L 2950 1159 
Q 2778 1509 2601 1637 
Q 2425 1766 2131 1766 
L 1791 1766 
z
" transform="scale(0.015625)"/>
       <path id="DejaVuSans-Bold-6d" d="M 3781 2919 
Q 3994 3244 4286 3414 
Q 4578 3584 4928 3584 
Q 5531 3584 5847 3212 
Q 6163 2841 6163 2131 
L 6163 0 
L 5038 0 
L 5038 1825 
Q 5041 1866 5042 1909 
Q 5044 1953 5044 2034 
Q 5044 2406 4934 2573 
Q 4825 2741 4581 2741 
Q 4263 2741 4089 2478 
Q 3916 2216 3909 1719 
L 3909 0 
L 2784 0 
L 2784 1825 
Q 2784 2406 2684 2573 
Q 2584 2741 2328 2741 
Q 2006 2741 1831 2477 
Q 1656 2213 1656 1722 
L 1656 0 
L 531 0 
L 531 3500 
L 1656 3500 
L 1656 2988 
Q 1863 3284 2130 3434 
Q 2397 3584 2719 3584 
Q 3081 3584 3359 3409 
Q 3638 3234 3781 2919 
z
" transform="scale(0.015625)"/>
       <path id="DejaVuSans-Bold-69" d="M 538 3500 
L 1656 3500 
L 1656 0 
L 538 0 
L 538 3500 
z
M 538 4863 
L 1656 4863 
L 1656 3950 
L 538 3950 
L 538 4863 
z
" transform="scale(0.015625)"/>
       <path id="DejaVuSans-Bold-6e" d="M 4056 2131 
L 4056 0 
L 2931 0 
L 2931 347 
L 2931 1631 
Q 2931 2084 2911 2256 
Q 2891 2428 2841 2509 
Q 2775 2619 2662 2680 
Q 2550 2741 2406 2741 
Q 2056 2741 1856 2470 
Q 1656 2200 1656 1722 
L 1656 0 
L 538 0 
L 538 3500 
L 1656 3500 
L 1656 2988 
Q 1909 3294 2193 3439 
Q 2478 3584 2822 3584 
Q 3428 3584 3742 3212 
Q 4056 2841 4056 2131 
z
" transform="scale(0.015625)"/>
       <path id="DejaVuSans-Bold-67" d="M 2919 594 
Q 2688 288 2409 144 
Q 2131 0 1766 0 
Q 1125 0 706 504 
Q 288 1009 288 1791 
Q 288 2575 706 3076 
Q 1125 3578 1766 3578 
Q 2131 3578 2409 3434 
Q 2688 3291 2919 2981 
L 2919 3500 
L 4044 3500 
L 4044 353 
Q 4044 -491 3511 -936 
Q 2978 -1381 1966 -1381 
Q 1638 -1381 1331 -1331 
Q 1025 -1281 716 -1178 
L 716 -306 
Q 1009 -475 1290 -558 
Q 1572 -641 1856 -641 
Q 2406 -641 2662 -400 
Q 2919 -159 2919 353 
L 2919 594 
z
M 2181 2772 
Q 1834 2772 1640 2515 
Q 1447 2259 1447 1791 
Q 1447 1309 1634 1061 
Q 1822 813 2181 813 
Q 2531 813 2725 1069 
Q 2919 1325 2919 1791 
Q 2919 2259 2725 2515 
Q 2531 2772 2181 2772 
z
" transform="scale(0.015625)"/>
       <path id="DejaVuSans-Bold-49" d="M 588 4666 
L 1791 4666 
L 1791 0 
L 588 0 
L 588 4666 
z
" transform="scale(0.015625)"/>
       <path id="DejaVuSans-Bold-63" d="M 3366 3391 
L 3366 2478 
Q 3138 2634 2908 2709 
Q 2678 2784 2431 2784 
Q 1963 2784 1702 2511 
Q 1441 2238 1441 1747 
Q 1441 1256 1702 982 
Q 1963 709 2431 709 
Q 2694 709 2930 787 
Q 3166 866 3366 1019 
L 3366 103 
Q 3103 6 2833 -42 
Q 2563 -91 2291 -91 
Q 1344 -91 809 395 
Q 275 881 275 1747 
Q 275 2613 809 3098 
Q 1344 3584 2291 3584 
Q 2566 3584 2833 3536 
Q 3100 3488 3366 3391 
z
" transform="scale(0.015625)"/>
      </defs>
      <use xlink:href="#DejaVuSans-Bold-25"/>
      <use xlink:href="#DejaVuSans-Bold-20" x="100.195312"/>
      <use xlink:href="#DejaVuSans-Bold-6f" x="135.009766"/>
      <use xlink:href="#DejaVuSans-Bold-66" x="203.710938"/>
      <use xlink:href="#DejaVuSans-Bold-20" x="247.216797"/>
      <use xlink:href="#DejaVuSans-Bold-52" x="282.03125"/>
      <use xlink:href="#DejaVuSans-Bold-65" x="359.033203"/>
      <use xlink:href="#DejaVuSans-Bold-6d" x="426.855469"/>
      <use xlink:href="#DejaVuSans-Bold-61" x="531.054688"/>
      <use xlink:href="#DejaVuSans-Bold-69" x="598.535156"/>
      <use xlink:href="#DejaVuSans-Bold-6e" x="632.8125"/>
      <use xlink:href="#DejaVuSans-Bold-69" x="704.003906"/>
      <use xlink:href="#DejaVuSans-Bold-6e" x="738.28125"/>
      <use xlink:href="#DejaVuSans-Bold-67" x="809.472656"/>
      <use xlink:href="#DejaVuSans-Bold-20" x="881.054688"/>
      <use xlink:href="#DejaVuSans-Bold-49" x="915.869141"/>
      <use xlink:href="#DejaVuSans-Bold-63" x="953.076172"/>
      <use xlink:href="#DejaVuSans-Bold-65" x="1012.353516"/>
     </g>
    </g>
   </g>
   <g id="line2d_12">
    <path d="M 157.957424 145.352 
L 164.259697 147.728654 
L 170.56197 150.487991 
L 174.763485 152.527352 
L 178.965 154.760999 
L 183.166515 157.135281 
L 187.36803 159.747784 
L 193.670303 164.133913 
L 202.073333 170.364114 
L 210.476364 177.01386 
L 223.080909 187.077972 
L 229.383182 192.303429 
L 235.685455 197.429957 
L 252.491515 211.235697 
L 262.995303 219.286454 
L 271.398333 225.459319 
L 277.700606 230.089752 
L 292.405909 241.038484 
L 305.010455 250.819769 
L 317.615 260.223116 
L 344.924848 280.210693 
L 359.630152 291.088004 
L 372.234697 299.811669 
L 386.94 309.19916 
L 403.746061 319.383338 
L 420.552121 329.077194 
L 431.055909 334.816418 
L 439.458939 339.135792 
L 462.567273 350.713578 
L 473.071061 355.546848 
L 487.776364 362.125873 
L 498.280152 366.451057 
L 506.683182 369.593402 
L 515.086212 372.53073 
L 523.489242 375.172502 
L 533.99303 378.220621 
L 548.698333 382.067457 
L 561.302879 385.058269 
L 576.008182 388.131017 
L 597.015758 392.559787 
L 607.519545 394.952085 
L 618.023333 397.3491 
L 628.527121 399.574968 
L 639.030909 401.514784 
L 649.534697 403.310696 
L 699.952879 410.904128 
L 723.061212 414.019872 
L 727.262727 414.521033 
L 746.169545 415.690967 
L 746.169545 415.690967 
" clip-path="url(#p61a66f2621)" style="fill: none; stroke: #f66200; stroke-opacity: 0.3; stroke-width: 2; stroke-linecap: square"/>
   </g>
   <g id="line2d_13">
    <path d="M 115.942273 134.754072 
L 118.04303 135.106009 
L 120.143788 135.436811 
L 122.244545 135.759522 
L 124.345303 136.069106 
L 126.446061 136.438877 
L 128.546818 136.797965 
L 130.647576 137.156975 
L 132.748333 137.512019 
L 134.849091 137.864197 
L 136.949848 138.201393 
L 139.050606 138.902778 
L 141.151364 139.622766 
L 143.252121 140.338807 
L 145.352879 141.058266 
L 147.453636 141.762349 
L 149.554394 142.475438 
L 151.655152 143.195426 
L 153.755909 143.892407 
L 155.856667 144.602562 
L 157.957424 145.352 
" clip-path="url(#p61a66f2621)" style="fill: none; stroke: #000000; stroke-opacity: 0.3; stroke-width: 2; stroke-linecap: square"/>
   </g>
   <g id="line2d_14">
    <path d="M 157.957424 145.352 
L 166.360455 148.817276 
L 172.662727 151.683675 
L 176.864242 153.827042 
L 183.166515 157.459909 
L 187.36803 160.146223 
L 191.569545 163.138266 
L 199.972576 169.354172 
L 206.274848 174.306884 
L 214.677879 181.155351 
L 225.181667 190.054844 
L 231.483939 195.067337 
L 237.786212 199.972093 
L 265.096061 222.369075 
L 273.499091 228.826189 
L 279.801364 233.286841 
L 288.204394 238.901462 
L 321.816515 262.025458 
L 330.219545 268.14101 
L 336.521818 272.395038 
L 340.723333 275.201698 
L 355.428636 285.648922 
L 368.033182 294.800927 
L 376.436212 300.355014 
L 382.738485 304.421591 
L 389.040758 308.091927 
L 407.947576 318.479562 
L 418.451364 324.946018 
L 428.955152 331.414898 
L 435.257424 335.177255 
L 441.559697 338.939953 
L 447.86197 342.222259 
L 460.466515 348.089181 
L 473.071061 354.012832 
L 483.574848 359.02116 
L 506.683182 369.978643 
L 512.985455 372.65152 
L 527.690758 378.761101 
L 538.194545 382.618797 
L 542.396061 384.11637 
L 548.698333 386.531687 
L 555.000606 388.991439 
L 561.302879 391.204092 
L 588.612727 400.262318 
L 611.721061 406.922449 
L 620.124091 409.076153 
L 630.627879 411.471158 
L 655.83697 416.961923 
L 683.146818 423.281671 
L 697.852121 426.627329 
L 712.557424 430.305669 
L 718.859697 432.150964 
L 727.262727 434.791501 
L 746.169545 437.658663 
L 746.169545 437.658663 
" clip-path="url(#p61a66f2621)" style="fill: none; stroke: #822900; stroke-opacity: 0.3; stroke-width: 2; stroke-linecap: square"/>
   </g>
   <g id="line2d_15">
    <path d="M 115.942273 133.868969 
L 118.04303 134.246114 
L 120.143788 134.601122 
L 122.244545 134.989877 
L 124.345303 135.341657 
L 126.446061 135.740551 
L 128.546818 136.124067 
L 130.647576 136.490346 
L 132.748333 136.841621 
L 134.849091 137.192726 
L 136.949848 137.516285 
L 139.050606 138.217127 
L 141.151364 138.97236 
L 143.252121 139.737085 
L 145.352879 140.503927 
L 147.453636 141.286284 
L 149.554394 142.066896 
L 151.655152 142.86265 
L 153.755909 143.685736 
L 155.856667 144.523583 
L 157.957424 145.352 
" clip-path="url(#p61a66f2621)" style="fill: none; stroke: #000000; stroke-opacity: 0.3; stroke-width: 2; stroke-linecap: square"/>
   </g>
   <g id="line2d_16">
    <path d="M 157.957424 145.352 
L 162.158939 147.213826 
L 166.360455 149.231005 
L 172.662727 152.413394 
L 176.864242 154.761808 
L 181.065758 157.467771 
L 185.267273 160.543106 
L 189.468788 163.822944 
L 193.670303 167.37002 
L 197.871818 171.197755 
L 206.274848 179.248956 
L 212.577121 185.768892 
L 227.282424 201.490346 
L 246.189242 221.009819 
L 250.390758 225.361819 
L 256.69303 232.185335 
L 260.894545 236.914845 
L 267.196818 244.560902 
L 275.599848 254.979369 
L 281.902121 262.957963 
L 286.103636 268.17652 
L 313.413485 303.827866 
L 326.01803 321.249194 
L 334.421061 333.017137 
L 340.723333 341.349217 
L 344.924848 346.677035 
L 351.227121 354.20567 
L 357.529394 361.211109 
L 365.932424 370.222854 
L 376.436212 380.905629 
L 391.141515 395.597282 
L 399.544545 403.339129 
L 405.846818 408.625038 
L 410.048333 411.898236 
L 416.350606 416.421212 
L 424.753636 421.831538 
L 437.358182 429.358463 
L 443.660455 432.92627 
L 449.962727 436.285834 
L 456.265 439.465613 
L 462.567273 442.446959 
L 468.869545 445.139201 
L 475.171818 447.617166 
L 479.373333 449.037548 
L 494.078636 453.57575 
L 502.481667 455.81546 
L 519.287727 460.109838 
L 544.496818 466.859725 
L 552.899848 469.061071 
L 565.504394 471.978703 
L 576.008182 474.175424 
L 594.915 477.782618 
L 605.418788 479.663638 
L 615.922576 481.293439 
L 628.527121 482.98889 
L 641.131667 484.406385 
L 653.736212 485.858915 
L 676.844545 488.848957 
L 693.650606 490.675143 
L 727.262727 493.806775 
L 746.169545 494.749923 
L 746.169545 494.749923 
" clip-path="url(#p61a66f2621)" style="fill: none; stroke: #f76800; stroke-opacity: 0.3; stroke-width: 2; stroke-linecap: square"/>
   </g>
   <g id="line2d_17">
    <path d="M 115.942273 134.696034 
L 118.04303 135.059032 
L 120.143788 135.385287 
L 122.244545 135.710099 
L 124.345303 135.998701 
L 126.446061 136.34743 
L 128.546818 136.690563 
L 130.647576 137.034634 
L 132.748333 137.372703 
L 134.849091 137.717699 
L 136.949848 138.042075 
L 139.050606 138.750228 
L 141.151364 139.454746 
L 143.252121 140.187066 
L 145.352879 140.945387 
L 147.453636 141.68346 
L 149.554394 142.401277 
L 151.655152 143.116059 
L 153.755909 143.840068 
L 155.856667 144.577457 
L 157.957424 145.352 
" clip-path="url(#p61a66f2621)" style="fill: none; stroke: #000000; stroke-opacity: 0.3; stroke-width: 2; stroke-linecap: square"/>
   </g>
   <g id="line2d_18">
    <path d="M 157.957424 145.352 
L 162.158939 147.958832 
L 166.360455 150.987805 
L 170.56197 154.334874 
L 174.763485 158.053493 
L 178.965 162.296257 
L 183.166515 167.024291 
L 187.36803 171.989183 
L 189.468788 174.605628 
L 193.670303 180.305299 
L 197.871818 186.330959 
L 202.073333 192.837068 
L 206.274848 199.760567 
L 214.677879 214.372079 
L 220.980152 226.003739 
L 225.181667 234.139593 
L 237.786212 260.520515 
L 250.390758 287.655608 
L 254.592273 297.300494 
L 281.902121 361.853318 
L 288.204394 376.21098 
L 294.506667 389.938513 
L 298.708182 398.515059 
L 302.909697 406.646302 
L 307.111212 414.214806 
L 311.312727 421.42364 
L 313.413485 424.800282 
L 317.615 430.940438 
L 321.816515 436.447332 
L 326.01803 441.532979 
L 330.219545 446.149436 
L 334.421061 450.327941 
L 338.622576 454.031389 
L 342.824091 457.283628 
L 349.126364 461.733877 
L 353.327879 464.381202 
L 361.730909 469.237668 
L 370.133939 473.747809 
L 376.436212 476.904474 
L 397.443788 486.389481 
L 403.746061 488.981612 
L 416.350606 493.928966 
L 422.652879 496.156445 
L 428.955152 498.200221 
L 435.257424 500.050262 
L 443.660455 502.303602 
L 449.962727 503.846114 
L 458.365758 505.582509 
L 466.768788 507.146119 
L 475.171818 508.477717 
L 485.675606 509.905316 
L 494.078636 510.807137 
L 504.582424 511.718374 
L 515.086212 512.415257 
L 531.892273 513.290441 
L 546.597576 513.869187 
L 565.504394 514.369686 
L 588.612727 514.713607 
L 622.224848 514.969037 
L 678.945303 515.178364 
L 746.169545 515.237156 
L 746.169545 515.237156 
" clip-path="url(#p61a66f2621)" style="fill: none; stroke: #662b00; stroke-opacity: 0.3; stroke-width: 2; stroke-linecap: square"/>
   </g>
   <g id="line2d_19">
    <path d="M 115.942273 132.393859 
L 118.04303 132.802508 
L 120.143788 133.18028 
L 122.244545 133.532069 
L 124.345303 133.868658 
L 126.446061 134.252697 
L 128.546818 134.620369 
L 130.647576 134.96968 
L 132.748333 135.306918 
L 134.849091 135.64665 
L 136.949848 135.976428 
L 139.050606 136.710231 
L 141.151364 137.504739 
L 143.252121 138.354981 
L 145.352879 139.238574 
L 147.453636 140.173971 
L 149.554394 141.114286 
L 151.655152 142.074618 
L 153.755909 143.123043 
L 155.856667 144.200791 
L 157.957424 145.352 
" clip-path="url(#p61a66f2621)" style="fill: none; stroke: #000000; stroke-opacity: 0.3; stroke-width: 2; stroke-linecap: square"/>
   </g>
   <g id="line2d_20">
    <path d="M 157.957424 145.352 
L 162.158939 146.931871 
L 168.461212 149.643772 
L 174.763485 152.62389 
L 181.065758 155.934121 
L 189.468788 160.603798 
L 195.771061 164.488936 
L 210.476364 174.215608 
L 216.778636 178.632048 
L 227.282424 186.36943 
L 235.685455 192.946707 
L 239.88697 196.223305 
L 244.088485 199.91742 
L 256.69303 212.04727 
L 260.894545 216.162863 
L 262.995303 218.318334 
L 269.297576 225.371326 
L 277.700606 235.517171 
L 290.305152 251.467578 
L 296.607424 259.514816 
L 302.909697 267.949082 
L 334.421061 311.341687 
L 344.924848 326.781117 
L 349.126364 332.945197 
L 368.033182 359.937403 
L 376.436212 371.693717 
L 384.839242 382.134368 
L 391.141515 389.282778 
L 399.544545 398.575193 
L 418.451364 417.680904 
L 426.854394 425.818148 
L 433.156667 431.745251 
L 439.458939 437.194862 
L 443.660455 440.730062 
L 447.86197 443.917447 
L 454.164242 448.361633 
L 462.567273 453.739686 
L 468.869545 457.493013 
L 475.171818 460.909087 
L 479.373333 463.115749 
L 485.675606 466.110408 
L 500.380909 472.695498 
L 504.582424 474.353986 
L 512.985455 477.300394 
L 521.388485 480.175129 
L 536.093788 484.810608 
L 567.605152 493.872423 
L 588.612727 499.508614 
L 599.116515 502.097085 
L 607.519545 503.872508 
L 613.821818 505.005955 
L 620.124091 505.914702 
L 630.627879 507.161938 
L 641.131667 508.132423 
L 653.736212 509.077493 
L 668.441515 509.946038 
L 687.348333 510.792912 
L 710.456667 511.696524 
L 731.464242 512.303371 
L 746.169545 512.506936 
L 746.169545 512.506936 
" clip-path="url(#p61a66f2621)" style="fill: none; stroke: #b32700; stroke-opacity: 0.3; stroke-width: 2; stroke-linecap: square"/>
   </g>
   <g id="line2d_21">
    <path d="M 115.942273 134.926766 
L 118.04303 135.279182 
L 120.143788 135.604023 
L 122.244545 135.929336 
L 124.345303 136.222251 
L 126.446061 136.590098 
L 128.546818 136.946331 
L 130.647576 137.29988 
L 132.748333 137.631861 
L 134.849091 137.953705 
L 136.949848 138.263379 
L 139.050606 138.977413 
L 141.151364 139.722453 
L 143.252121 140.446506 
L 145.352879 141.145971 
L 147.453636 141.840365 
L 149.554394 142.556517 
L 151.655152 143.260425 
L 153.755909 143.961256 
L 155.856667 144.652229 
L 157.957424 145.352 
" clip-path="url(#p61a66f2621)" style="fill: none; stroke: #000000; stroke-opacity: 0.3; stroke-width: 2; stroke-linecap: square"/>
   </g>
   <g id="line2d_22">
    <path d="M 157.957424 145.352 
L 164.259697 148.507073 
L 174.763485 154.145924 
L 178.965 156.673315 
L 187.36803 161.961862 
L 202.073333 171.650523 
L 212.577121 178.80252 
L 223.080909 186.252416 
L 231.483939 192.122293 
L 237.786212 196.321351 
L 246.189242 201.524085 
L 254.592273 206.548403 
L 281.902121 222.351631 
L 290.305152 226.949332 
L 298.708182 231.381434 
L 313.413485 238.825174 
L 330.219545 246.576931 
L 344.924848 253.627678 
L 357.529394 259.56104 
L 374.335455 267.859751 
L 378.53697 269.772128 
L 410.048333 283.434183 
L 420.552121 287.805491 
L 426.854394 290.449685 
L 443.660455 296.953384 
L 452.063485 300.076592 
L 479.373333 309.985586 
L 487.776364 312.710441 
L 498.280152 315.966374 
L 510.884697 319.486111 
L 517.18697 321.06075 
L 533.99303 324.771812 
L 548.698333 327.811799 
L 557.101364 329.58857 
L 571.806667 332.876554 
L 582.310455 334.945824 
L 590.713485 336.188892 
L 597.015758 337.001874 
L 605.418788 337.80312 
L 618.023333 338.845249 
L 628.527121 339.763415 
L 639.030909 340.694538 
L 645.333182 341.206526 
L 664.24 342.77941 
L 681.046061 344.146866 
L 691.549848 345.075852 
L 702.053636 345.867354 
L 714.658182 346.487416 
L 723.061212 346.579474 
L 746.169545 346.331783 
L 746.169545 346.331783 
" clip-path="url(#p61a66f2621)" style="fill: none; stroke: #70b8ff; stroke-opacity: 0.3; stroke-width: 2; stroke-linecap: square"/>
   </g>
   <g id="line2d_23">
    <path d="M 115.942273 133.824235 
L 118.04303 134.196973 
L 120.143788 134.551064 
L 122.244545 134.897971 
L 124.345303 135.208993 
L 126.446061 135.578451 
L 128.546818 135.938487 
L 130.647576 136.283815 
L 132.748333 136.627449 
L 134.849091 136.966378 
L 136.949848 137.282293 
L 139.050606 137.981377 
L 141.151364 138.705533 
L 143.252121 139.456533 
L 145.352879 140.200458 
L 147.453636 140.976641 
L 149.554394 141.755457 
L 151.655152 142.579458 
L 153.755909 143.456063 
L 155.856667 144.389037 
L 157.957424 145.352 
" clip-path="url(#p61a66f2621)" style="fill: none; stroke: #000000; stroke-opacity: 0.3; stroke-width: 2; stroke-linecap: square"/>
   </g>
   <g id="line2d_24">
    <path d="M 157.957424 145.352 
L 166.360455 149.099616 
L 172.662727 151.833483 
L 185.267273 157.825505 
L 191.569545 160.819181 
L 202.073333 165.718838 
L 208.375606 169.026503 
L 214.677879 172.709297 
L 220.980152 176.6535 
L 227.282424 180.735171 
L 231.483939 183.361508 
L 237.786212 187.530676 
L 254.592273 198.866278 
L 262.995303 204.372831 
L 267.196818 207.22533 
L 284.002879 219.376629 
L 292.405909 225.684148 
L 300.808939 231.513424 
L 307.111212 235.580913 
L 313.413485 239.230155 
L 323.917273 245.014305 
L 330.219545 248.043655 
L 336.521818 251.107098 
L 353.327879 259.617462 
L 363.831667 264.994112 
L 372.234697 269.18563 
L 376.436212 271.345515 
L 382.738485 274.193161 
L 393.242273 278.793959 
L 399.544545 281.234168 
L 407.947576 284.330591 
L 416.350606 287.062182 
L 428.955152 290.835709 
L 443.660455 294.510591 
L 452.063485 296.309393 
L 460.466515 297.989671 
L 468.869545 299.464362 
L 481.474091 301.330778 
L 498.280152 303.469876 
L 512.985455 305.170936 
L 523.489242 306.745053 
L 546.597576 310.380753 
L 563.403636 313.088859 
L 569.705909 313.784843 
L 580.209697 314.56387 
L 586.51197 314.690213 
L 594.915 314.621495 
L 613.821818 314.455928 
L 620.124091 314.566984 
L 641.131667 315.383867 
L 655.83697 315.393879 
L 662.139242 315.23272 
L 685.247576 314.102994 
L 697.852121 313.739573 
L 706.255152 313.767257 
L 746.169545 314.577576 
L 746.169545 314.577576 
" clip-path="url(#p61a66f2621)" style="fill: none; stroke: #fb7800; stroke-opacity: 0.3; stroke-width: 2; stroke-linecap: square"/>
   </g>
   <g id="line2d_25">
    <path d="M 115.942273 133.480922 
L 118.04303 133.790249 
L 120.143788 134.120551 
L 122.244545 134.463773 
L 124.345303 134.801868 
L 126.446061 135.200031 
L 128.546818 135.576197 
L 130.647576 135.929021 
L 132.748333 136.268644 
L 134.849091 136.619623 
L 136.949848 136.958429 
L 139.050606 137.661331 
L 141.151364 138.416029 
L 143.252121 139.188367 
L 145.352879 139.997521 
L 147.453636 140.866825 
L 149.554394 141.75469 
L 151.655152 142.635924 
L 153.755909 143.52194 
L 155.856667 144.417246 
L 157.957424 145.352 
" clip-path="url(#p61a66f2621)" style="fill: none; stroke: #000000; stroke-opacity: 0.3; stroke-width: 2; stroke-linecap: square"/>
   </g>
   <g id="line2d_26">
    <path d="M 157.957424 145.352 
L 162.158939 147.306269 
L 166.360455 149.46322 
L 170.56197 151.791319 
L 174.763485 154.387128 
L 178.965 157.342074 
L 183.166515 160.535507 
L 187.36803 164.0361 
L 191.569545 167.899927 
L 195.771061 172.188014 
L 199.972576 176.703667 
L 210.476364 188.868497 
L 218.879394 199.5723 
L 237.786212 223.488085 
L 241.987727 228.538341 
L 246.189242 233.476832 
L 252.491515 240.865782 
L 258.793788 247.6716 
L 265.096061 254.319499 
L 273.499091 262.67503 
L 279.801364 268.777452 
L 286.103636 274.682052 
L 296.607424 283.839958 
L 317.615 301.845134 
L 340.723333 322.154228 
L 351.227121 331.357987 
L 365.932424 344.116386 
L 374.335455 351.154149 
L 382.738485 357.677222 
L 389.040758 362.403705 
L 395.34303 366.808916 
L 399.544545 369.548252 
L 405.846818 373.302143 
L 428.955152 386.793256 
L 435.257424 390.43494 
L 443.660455 395.327114 
L 449.962727 398.744975 
L 456.265 401.943092 
L 462.567273 404.831777 
L 473.071061 409.149764 
L 479.373333 411.426868 
L 496.179394 417.115707 
L 510.884697 422.05456 
L 527.690758 427.586399 
L 538.194545 430.732093 
L 546.597576 433.074921 
L 555.000606 435.123003 
L 563.403636 436.875304 
L 571.806667 438.423169 
L 580.209697 439.833741 
L 592.814242 441.683327 
L 605.418788 443.348658 
L 618.023333 444.930705 
L 632.728636 446.424295 
L 641.131667 447.114361 
L 666.340758 448.737093 
L 733.565 452.527065 
L 746.169545 453.013037 
L 746.169545 453.013037 
" clip-path="url(#p61a66f2621)" style="fill: none; stroke: #fb7900; stroke-opacity: 0.3; stroke-width: 2; stroke-linecap: square"/>
   </g>
   <g id="line2d_27">
    <path d="M 115.942273 133.970916 
L 118.04303 134.301584 
L 120.143788 134.639161 
L 122.244545 134.966627 
L 124.345303 135.274227 
L 126.446061 135.653667 
L 128.546818 136.031868 
L 130.647576 136.398136 
L 132.748333 136.750235 
L 134.849091 137.096255 
L 136.949848 137.420348 
L 139.050606 138.099987 
L 141.151364 138.849171 
L 143.252121 139.612043 
L 145.352879 140.375101 
L 147.453636 141.156852 
L 149.554394 141.941502 
L 151.655152 142.732111 
L 153.755909 143.570233 
L 155.856667 144.447724 
L 157.957424 145.352 
" clip-path="url(#p61a66f2621)" style="fill: none; stroke: #000000; stroke-opacity: 0.3; stroke-width: 2; stroke-linecap: square"/>
   </g>
   <g id="line2d_28">
    <path d="M 157.957424 145.352 
L 168.461212 147.859299 
L 174.763485 149.515093 
L 181.065758 151.555533 
L 185.267273 153.130481 
L 189.468788 154.934628 
L 193.670303 156.934787 
L 195.771061 158.025983 
L 199.972576 160.54879 
L 212.577121 168.827053 
L 218.879394 173.287298 
L 229.383182 180.881486 
L 237.786212 186.674671 
L 256.69303 199.409422 
L 277.700606 213.55652 
L 284.002879 217.87851 
L 288.204394 220.662246 
L 298.708182 228.32752 
L 302.909697 231.573363 
L 307.111212 235.246903 
L 317.615 244.385213 
L 323.917273 249.931297 
L 336.521818 261.162483 
L 342.824091 266.290835 
L 344.924848 267.864574 
L 349.126364 270.637546 
L 359.630152 277.579047 
L 365.932424 281.766508 
L 374.335455 287.099506 
L 380.637727 291.019859 
L 395.34303 300.114411 
L 399.544545 302.756553 
L 405.846818 306.522491 
L 414.249848 311.117761 
L 418.451364 313.29912 
L 433.156667 320.082765 
L 437.358182 321.92005 
L 449.962727 326.601435 
L 460.466515 330.546418 
L 468.869545 333.901742 
L 475.171818 336.110725 
L 483.574848 338.88835 
L 491.977879 341.409378 
L 500.380909 343.70618 
L 517.18697 347.401973 
L 552.899848 355.236103 
L 578.108939 361.039384 
L 594.915 364.240502 
L 624.325606 368.667628 
L 636.930152 370.050936 
L 649.534697 371.45353 
L 664.24 372.874013 
L 687.348333 374.87605 
L 699.952879 375.82184 
L 716.758939 377.266859 
L 729.363485 378.240452 
L 746.169545 378.868448 
L 746.169545 378.868448 
" clip-path="url(#p61a66f2621)" style="fill: none; stroke: #e34500; stroke-opacity: 0.3; stroke-width: 2; stroke-linecap: square"/>
   </g>
   <g id="line2d_29">
    <path d="M 115.942273 136.90155 
L 118.04303 137.237106 
L 120.143788 137.523265 
L 122.244545 137.811657 
L 124.345303 138.042502 
L 126.446061 138.386743 
L 128.546818 138.708462 
L 130.647576 139.01224 
L 132.748333 139.278131 
L 134.849091 139.54321 
L 136.949848 139.764718 
L 139.050606 140.36107 
L 141.151364 141.009215 
L 143.252121 141.642116 
L 145.352879 142.22146 
L 147.453636 142.807982 
L 149.554394 143.370996 
L 151.655152 143.896817 
L 153.755909 144.415441 
L 155.856667 144.875983 
L 157.957424 145.352 
" clip-path="url(#p61a66f2621)" style="fill: none; stroke: #000000; stroke-opacity: 0.3; stroke-width: 2; stroke-linecap: square"/>
   </g>
   <g id="line2d_30">
    <path d="M 157.957424 145.352 
L 164.259697 147.761582 
L 168.461212 149.269302 
L 176.864242 152.115502 
L 183.166515 153.864709 
L 189.468788 155.340445 
L 195.771061 157.250568 
L 204.174091 160.17613 
L 208.375606 161.849251 
L 212.577121 163.839907 
L 216.778636 166.009587 
L 220.980152 168.377906 
L 227.282424 172.355679 
L 244.088485 183.195145 
L 248.29 186.503764 
L 254.592273 191.858152 
L 260.894545 197.608143 
L 267.196818 203.788011 
L 275.599848 212.768078 
L 279.801364 217.187259 
L 284.002879 221.340815 
L 288.204394 225.229343 
L 292.405909 228.755184 
L 296.607424 232.055526 
L 302.909697 236.56865 
L 309.21197 240.791919 
L 317.615 245.950506 
L 328.118788 252.225777 
L 340.723333 259.560765 
L 351.227121 265.659051 
L 359.630152 270.590398 
L 365.932424 274.461625 
L 370.133939 277.136337 
L 374.335455 280.07686 
L 380.637727 284.708742 
L 386.94 289.656858 
L 391.141515 293.127078 
L 401.645303 301.896922 
L 410.048333 308.578905 
L 414.249848 311.642872 
L 418.451364 314.311187 
L 422.652879 316.71834 
L 426.854394 318.789265 
L 431.055909 320.574892 
L 435.257424 321.968332 
L 443.660455 324.436571 
L 449.962727 326.042997 
L 470.970303 331.039522 
L 479.373333 333.326573 
L 489.877121 336.522256 
L 496.179394 338.731795 
L 500.380909 340.404924 
L 508.783939 344.275244 
L 515.086212 347.276555 
L 523.489242 351.383539 
L 536.093788 357.275046 
L 540.295303 359.052812 
L 544.496818 360.62935 
L 561.302879 366.315916 
L 569.705909 368.643029 
L 580.209697 371.155535 
L 586.51197 372.402095 
L 592.814242 373.4206 
L 599.116515 374.211729 
L 613.821818 375.958227 
L 618.023333 376.575939 
L 624.325606 377.843104 
L 630.627879 379.331501 
L 645.333182 383.098163 
L 653.736212 385.202325 
L 660.038485 386.50954 
L 668.441515 387.655799 
L 702.053636 391.086383 
L 723.061212 393.00978 
L 727.262727 393.499725 
L 744.068788 394.290679 
L 746.169545 394.428255 
L 746.169545 394.428255 
" clip-path="url(#p61a66f2621)" style="fill: none; stroke: #f76800; stroke-opacity: 0.3; stroke-width: 2; stroke-linecap: square"/>
   </g>
   <g id="line2d_31">
    <path d="M 115.942273 136.154163 
L 118.04303 136.490381 
L 120.143788 136.777105 
L 122.244545 137.066067 
L 124.345303 137.297367 
L 126.446061 137.642287 
L 128.546818 137.964641 
L 130.647576 138.269019 
L 132.748333 138.535434 
L 134.849091 138.801037 
L 136.949848 139.022982 
L 139.050606 139.510059 
L 141.151364 139.892179 
L 143.252121 140.379501 
L 145.352879 140.908363 
L 147.453636 141.536908 
L 149.554394 142.199906 
L 151.655152 142.933435 
L 153.755909 143.724499 
L 155.856667 144.53691 
L 157.957424 145.352 
" clip-path="url(#p61a66f2621)" style="fill: none; stroke: #000000; stroke-opacity: 0.3; stroke-width: 2; stroke-linecap: square"/>
   </g>
   <g id="line2d_32">
    <path d="M 157.957424 145.352 
L 162.158939 147.23194 
L 170.56197 151.413852 
L 174.763485 153.69053 
L 181.065758 157.525384 
L 185.267273 160.372446 
L 189.468788 163.545317 
L 191.569545 165.354426 
L 195.771061 169.571404 
L 197.871818 171.881451 
L 202.073333 177.003619 
L 208.375606 185.179532 
L 216.778636 196.274671 
L 223.080909 204.171807 
L 227.282424 209.112238 
L 233.584697 216.38589 
L 239.88697 223.444448 
L 244.088485 227.611695 
L 254.592273 237.537657 
L 265.096061 247.571484 
L 271.398333 253.923009 
L 288.204394 269.643196 
L 292.405909 273.457743 
L 294.506667 275.608715 
L 298.708182 280.327012 
L 317.615 303.197758 
L 319.715758 305.835091 
L 321.816515 308.92458 
L 332.320303 325.342297 
L 336.521818 331.349779 
L 353.327879 353.695427 
L 368.033182 374.326558 
L 382.738485 394.941893 
L 389.040758 402.869089 
L 393.242273 407.735377 
L 395.34303 410.109049 
L 397.443788 412.280289 
L 399.544545 414.284041 
L 403.746061 417.736723 
L 410.048333 422.207146 
L 414.249848 424.979003 
L 420.552121 428.786053 
L 424.753636 431.160263 
L 428.955152 433.304711 
L 435.257424 436.354444 
L 443.660455 440.069609 
L 447.86197 441.791976 
L 452.063485 443.184292 
L 458.365758 445.018648 
L 464.66803 446.598654 
L 470.970303 447.993003 
L 477.272576 449.043692 
L 485.675606 450.198942 
L 502.481667 452.260293 
L 506.683182 452.820086 
L 510.884697 453.546016 
L 521.388485 455.741827 
L 544.496818 460.701646 
L 550.799091 461.760293 
L 555.000606 462.229282 
L 565.504394 463.12543 
L 576.008182 463.65269 
L 597.015758 464.494039 
L 634.829394 465.101992 
L 649.534697 465.318513 
L 657.937727 465.681258 
L 678.945303 467.17316 
L 693.650606 468.22969 
L 704.154394 468.692252 
L 731.464242 469.611107 
L 746.169545 469.9039 
L 746.169545 469.9039 
" clip-path="url(#p61a66f2621)" style="fill: none; stroke: #9d2800; stroke-opacity: 0.3; stroke-width: 2; stroke-linecap: square"/>
   </g>
   <g id="line2d_33">
    <path d="M 115.942273 135.645949 
L 118.04303 135.982617 
L 120.143788 136.269725 
L 122.244545 136.559074 
L 124.345303 136.790684 
L 126.446061 137.136066 
L 128.546818 137.458852 
L 130.647576 137.763638 
L 132.748333 138.03041 
L 134.849091 138.296368 
L 136.949848 138.518611 
L 139.050606 139.11694 
L 141.151364 139.766352 
L 143.252121 140.451848 
L 145.352879 141.113455 
L 147.453636 141.781768 
L 149.554394 142.445067 
L 151.655152 143.084066 
L 153.755909 143.786588 
L 155.856667 144.544229 
L 157.957424 145.352 
" clip-path="url(#p61a66f2621)" style="fill: none; stroke: #000000; stroke-opacity: 0.3; stroke-width: 2; stroke-linecap: square"/>
   </g>
   <g id="line2d_34">
    <path d="M 157.957424 145.352 
L 160.058182 147.119566 
L 162.158939 149.130307 
L 164.259697 151.326675 
L 168.461212 156.323979 
L 170.56197 159.145189 
L 172.662727 162.159127 
L 174.763485 165.435419 
L 176.864242 168.920147 
L 181.065758 176.636567 
L 185.267273 185.203352 
L 189.468788 194.656102 
L 195.771061 209.913867 
L 199.972576 220.625499 
L 206.274848 237.539619 
L 214.677879 261.235896 
L 229.383182 303.340303 
L 231.483939 308.96563 
L 235.685455 318.638352 
L 239.88697 327.808529 
L 244.088485 336.698062 
L 248.29 345.012771 
L 252.491515 352.696937 
L 256.69303 359.726187 
L 260.894545 366.351873 
L 265.096061 372.503872 
L 269.297576 378.224445 
L 273.499091 383.427659 
L 279.801364 390.837334 
L 284.002879 395.466944 
L 288.204394 399.666396 
L 292.405909 403.534325 
L 298.708182 409.07455 
L 305.010455 414.259412 
L 317.615 424.042268 
L 332.320303 435.280455 
L 336.521818 438.311332 
L 340.723333 441.163762 
L 344.924848 443.850927 
L 351.227121 447.531697 
L 357.529394 450.786055 
L 361.730909 452.688498 
L 368.033182 455.448866 
L 374.335455 458.268851 
L 382.738485 461.862535 
L 393.242273 466.024315 
L 399.544545 468.299164 
L 405.846818 470.339459 
L 414.249848 472.763649 
L 420.552121 474.352501 
L 428.955152 476.08461 
L 435.257424 477.168777 
L 443.660455 478.315504 
L 452.063485 479.268908 
L 458.365758 479.805782 
L 468.869545 480.476235 
L 479.373333 480.897295 
L 510.884697 482.021796 
L 521.388485 482.666738 
L 531.892273 483.552998 
L 544.496818 484.9381 
L 584.411212 489.67051 
L 594.915 490.475312 
L 605.418788 491.084687 
L 615.922576 491.499802 
L 628.527121 491.739767 
L 668.441515 492.425608 
L 729.363485 494.350488 
L 746.169545 494.603091 
L 746.169545 494.603091 
" clip-path="url(#p61a66f2621)" style="fill: none; stroke: #c12a00; stroke-opacity: 0.3; stroke-width: 2; stroke-linecap: square"/>
   </g>
   <g id="line2d_35">
    <path d="M 115.942273 132.13931 
L 118.04303 132.479086 
L 120.143788 132.540339 
L 122.244545 132.650815 
L 124.345303 132.746198 
L 126.446061 132.921479 
L 128.546818 133.091769 
L 130.647576 133.268828 
L 132.748333 133.495562 
L 134.849091 133.794231 
L 136.949848 134.123841 
L 139.050606 134.618936 
L 141.151364 135.179622 
L 143.252121 135.882911 
L 145.352879 136.914464 
L 147.453636 138.034279 
L 149.554394 139.246743 
L 151.655152 140.617735 
L 153.755909 142.0908 
L 155.856667 143.675344 
L 157.957424 145.352 
" clip-path="url(#p61a66f2621)" style="fill: none; stroke: #000000; stroke-opacity: 0.3; stroke-width: 2; stroke-linecap: square"/>
   </g>
   <g id="line2d_36">
    <path d="M 157.957424 145.352 
L 160.058182 146.331282 
L 164.259697 148.64859 
L 170.56197 152.596524 
L 178.965 158.569257 
L 183.166515 161.770872 
L 187.36803 165.310453 
L 193.670303 170.940734 
L 208.375606 184.954392 
L 216.778636 193.485365 
L 225.181667 202.012588 
L 235.685455 211.854242 
L 246.189242 221.340699 
L 265.096061 238.938181 
L 279.801364 253.422082 
L 292.405909 265.760292 
L 298.708182 271.70908 
L 305.010455 277.301124 
L 315.514242 285.874615 
L 323.917273 292.620723 
L 334.421061 300.58094 
L 359.630152 319.157355 
L 368.033182 325.076786 
L 374.335455 329.515276 
L 380.637727 333.675762 
L 389.040758 338.822394 
L 399.544545 344.918799 
L 407.947576 349.475161 
L 418.451364 354.767414 
L 431.055909 360.740229 
L 437.358182 363.349733 
L 445.761212 366.644486 
L 452.063485 368.925061 
L 458.365758 370.933486 
L 470.970303 374.541326 
L 477.272576 376.295367 
L 485.675606 378.708881 
L 525.59 389.861093 
L 546.597576 395.355749 
L 557.101364 397.8109 
L 567.605152 400.009387 
L 578.108939 401.96639 
L 592.814242 404.391152 
L 599.116515 405.325008 
L 622.224848 407.42178 
L 639.030909 408.517552 
L 699.952879 411.717099 
L 729.363485 412.923933 
L 746.169545 413.226052 
L 746.169545 413.226052 
" clip-path="url(#p61a66f2621)" style="fill: none; stroke: #fa7500; stroke-opacity: 0.3; stroke-width: 2; stroke-linecap: square"/>
   </g>
   <g id="line2d_37">
    <path d="M 115.942273 134.628901 
L 118.04303 134.966472 
L 120.143788 135.254348 
L 122.244545 135.544471 
L 124.345303 135.776701 
L 126.446061 136.123008 
L 128.546818 136.446658 
L 130.647576 136.75226 
L 132.748333 137.019746 
L 134.849091 137.286416 
L 136.949848 137.509254 
L 139.050606 138.109185 
L 141.151364 138.837548 
L 143.252121 139.610072 
L 145.352879 140.342067 
L 147.453636 141.114644 
L 149.554394 141.908143 
L 151.655152 142.68243 
L 153.755909 143.521036 
L 155.856667 144.406633 
L 157.957424 145.352 
" clip-path="url(#p61a66f2621)" style="fill: none; stroke: #000000; stroke-opacity: 0.3; stroke-width: 2; stroke-linecap: square"/>
   </g>
   <g id="line2d_38">
    <path d="M 157.957424 145.352 
L 164.259697 148.451907 
L 168.461212 150.771622 
L 172.662727 153.418585 
L 176.864242 156.273516 
L 181.065758 159.895176 
L 187.36803 165.917448 
L 191.569545 170.332725 
L 195.771061 175.063209 
L 199.972576 180.209039 
L 204.174091 185.588981 
L 208.375606 191.431159 
L 216.778636 203.687493 
L 223.080909 213.729756 
L 227.282424 220.761243 
L 231.483939 228.173999 
L 237.786212 239.828434 
L 246.189242 255.686293 
L 258.793788 279.592125 
L 262.995303 287.141763 
L 265.096061 290.762746 
L 269.297576 296.47945 
L 271.398333 299.219005 
L 275.599848 304.18907 
L 279.801364 308.614742 
L 284.002879 312.641326 
L 288.204394 316.16362 
L 290.305152 317.799406 
L 294.506667 320.706067 
L 298.708182 323.427639 
L 302.909697 325.962016 
L 307.111212 328.186303 
L 311.312727 330.177122 
L 317.615 332.890295 
L 321.816515 334.428272 
L 328.118788 336.421605 
L 336.521818 338.903099 
L 340.723333 339.972804 
L 349.126364 341.730482 
L 357.529394 343.267822 
L 361.730909 343.999989 
L 368.033182 346.007896 
L 372.234697 347.159054 
L 378.53697 348.516118 
L 384.839242 349.626959 
L 391.141515 350.406103 
L 395.34303 350.754565 
L 405.846818 351.330829 
L 414.249848 351.592877 
L 426.854394 351.758535 
L 443.660455 351.773888 
L 452.063485 351.635956 
L 464.66803 351.257106 
L 487.776364 350.290177 
L 506.683182 349.408443 
L 521.388485 348.613409 
L 544.496818 347.320313 
L 599.116515 344.66626 
L 632.728636 342.546288 
L 668.441515 340.496398 
L 723.061212 337.904257 
L 729.363485 337.569364 
L 746.169545 337.016869 
L 746.169545 337.016869 
" clip-path="url(#p61a66f2621)" style="fill: none; stroke: #fd9b00; stroke-opacity: 0.3; stroke-width: 2; stroke-linecap: square"/>
   </g>
   <g id="line2d_39">
    <path d="M 115.942273 136.166135 
L 118.04303 136.502343 
L 120.143788 136.789057 
L 122.244545 137.07801 
L 124.345303 137.182377 
L 126.446061 137.353843 
L 128.546818 137.519622 
L 130.647576 137.685384 
L 132.748333 137.893608 
L 134.849091 138.179374 
L 136.949848 138.490619 
L 139.050606 138.981313 
L 141.151364 139.493233 
L 143.252121 140.030225 
L 145.352879 140.61385 
L 147.453636 141.218879 
L 149.554394 141.860875 
L 151.655152 142.630253 
L 153.755909 143.505559 
L 155.856667 144.421339 
L 157.957424 145.352 
" clip-path="url(#p61a66f2621)" style="fill: none; stroke: #000000; stroke-opacity: 0.3; stroke-width: 2; stroke-linecap: square"/>
   </g>
   <g id="line2d_40">
    <path d="M 764.551174 434.809028 
L 774.004583 434.809028 
L 774.004583 318.22701 
L 764.551174 318.22701 
L 764.551174 434.809028 
" clip-path="url(#p61a66f2621)" style="fill: none; stroke: #92b9c1; stroke-width: 2; stroke-linecap: square"/>
   </g>
   <g id="line2d_41">
    <path d="M 769.277879 434.809028 
L 769.277879 483.219291 
" clip-path="url(#p61a66f2621)" style="fill: none; stroke: #92b9c1; stroke-linecap: square"/>
   </g>
   <g id="line2d_42">
    <path d="M 769.277879 318.22701 
L 769.277879 269.962943 
" clip-path="url(#p61a66f2621)" style="fill: none; stroke: #92b9c1; stroke-linecap: square"/>
   </g>
   <g id="line2d_43">
    <path d="M 766.914527 483.219291 
L 771.641231 483.219291 
" clip-path="url(#p61a66f2621)" style="fill: none; stroke: #92b9c1; stroke-linecap: square"/>
   </g>
   <g id="line2d_44">
    <path d="M 766.914527 269.962943 
L 771.641231 269.962943 
" clip-path="url(#p61a66f2621)" style="fill: none; stroke: #92b9c1; stroke-linecap: square"/>
   </g>
   <g id="line2d_45">
    <path d="M 777.15572 459.886895 
L 786.609129 459.886895 
L 786.609129 356.285129 
L 777.15572 356.285129 
L 777.15572 459.886895 
" clip-path="url(#p61a66f2621)" style="fill: none; stroke: #ff8f00; stroke-width: 2; stroke-linecap: square"/>
   </g>
   <g id="line2d_46">
    <path d="M 781.882424 459.886895 
L 781.882424 497.786164 
" clip-path="url(#p61a66f2621)" style="fill: none; stroke: #ff8f00; stroke-linecap: square"/>
   </g>
   <g id="line2d_47">
    <path d="M 781.882424 356.285129 
L 781.882424 301.56376 
" clip-path="url(#p61a66f2621)" style="fill: none; stroke: #ff8f00; stroke-linecap: square"/>
   </g>
   <g id="line2d_48">
    <path d="M 779.519072 497.786164 
L 784.245777 497.786164 
" clip-path="url(#p61a66f2621)" style="fill: none; stroke: #ff8f00; stroke-linecap: square"/>
   </g>
   <g id="line2d_49">
    <path d="M 779.519072 301.56376 
L 784.245777 301.56376 
" clip-path="url(#p61a66f2621)" style="fill: none; stroke: #ff8f00; stroke-linecap: square"/>
   </g>
   <g id="line2d_50">
    <path d="M 789.760265 501.149435 
L 799.213674 501.149435 
L 799.213674 437.510339 
L 789.760265 437.510339 
L 789.760265 501.149435 
" clip-path="url(#p61a66f2621)" style="fill: none; stroke: #662b00; stroke-width: 2; stroke-linecap: square"/>
   </g>
   <g id="line2d_51">
    <path d="M 794.48697 501.149435 
L 794.48697 515.56 
" clip-path="url(#p61a66f2621)" style="fill: none; stroke: #662b00; stroke-linecap: square"/>
   </g>
   <g id="line2d_52">
    <path d="M 794.48697 437.510339 
L 794.48697 380.579819 
" clip-path="url(#p61a66f2621)" style="fill: none; stroke: #662b00; stroke-linecap: square"/>
   </g>
   <g id="line2d_53">
    <path d="M 792.123617 515.56 
L 796.850322 515.56 
" clip-path="url(#p61a66f2621)" style="fill: none; stroke: #662b00; stroke-linecap: square"/>
   </g>
   <g id="line2d_54">
    <path d="M 792.123617 380.579819 
L 796.850322 380.579819 
" clip-path="url(#p61a66f2621)" style="fill: none; stroke: #662b00; stroke-linecap: square"/>
   </g>
   <g id="line2d_55">
    <path d="M 764.551174 365.872262 
L 774.004583 365.872262 
" clip-path="url(#p61a66f2621)" style="fill: none; stroke: #92b9c1; stroke-width: 4; stroke-linecap: square"/>
   </g>
   <g id="line2d_56">
    <path d="M 777.15572 399.521223 
L 786.609129 399.521223 
" clip-path="url(#p61a66f2621)" style="fill: none; stroke: #ff8f00; stroke-width: 4; stroke-linecap: square"/>
   </g>
   <g id="line2d_57">
    <path d="M 789.760265 470.079934 
L 799.213674 470.079934 
" clip-path="url(#p61a66f2621)" style="fill: none; stroke: #662b00; stroke-width: 4; stroke-linecap: square"/>
   </g>
   <g id="patch_3">
    <path d="M 109.64 515.56 
L 109.64 52.8 
" style="fill: none; stroke: #000000; stroke-width: 0.8; stroke-linejoin: miter; stroke-linecap: square"/>
   </g>
   <g id="patch_4">
    <path d="M 109.64 515.56 
L 802.89 515.56 
" style="fill: none; stroke: #000000; stroke-width: 0.8; stroke-linejoin: miter; stroke-linecap: square"/>
   </g>
   <g id="text_14">
    <!-- +1.5C -->
    <g style="fill: #92b9c1" transform="translate(802.89 370.839137) scale(0.18 -0.18)">
     <defs>
      <path id="DejaVuSans-Bold-2b" d="M 3053 4013 
L 3053 2375 
L 4684 2375 
L 4684 1638 
L 3053 1638 
L 3053 0 
L 2309 0 
L 2309 1638 
L 678 1638 
L 678 2375 
L 2309 2375 
L 2309 4013 
L 3053 4013 
z
" transform="scale(0.015625)"/>
      <path id="DejaVuSans-Bold-31" d="M 750 831 
L 1813 831 
L 1813 3847 
L 722 3622 
L 722 4441 
L 1806 4666 
L 2950 4666 
L 2950 831 
L 4013 831 
L 4013 0 
L 750 0 
L 750 831 
z
" transform="scale(0.015625)"/>
      <path id="DejaVuSans-Bold-2e" d="M 653 1209 
L 1778 1209 
L 1778 0 
L 653 0 
L 653 1209 
z
" transform="scale(0.015625)"/>
      <path id="DejaVuSans-Bold-35" d="M 678 4666 
L 3669 4666 
L 3669 3781 
L 1638 3781 
L 1638 3059 
Q 1775 3097 1914 3117 
Q 2053 3138 2203 3138 
Q 3056 3138 3531 2711 
Q 4006 2284 4006 1522 
Q 4006 766 3489 337 
Q 2972 -91 2053 -91 
Q 1656 -91 1267 -14 
Q 878 63 494 219 
L 494 1166 
Q 875 947 1217 837 
Q 1559 728 1863 728 
Q 2300 728 2551 942 
Q 2803 1156 2803 1522 
Q 2803 1891 2551 2103 
Q 2300 2316 1863 2316 
Q 1603 2316 1309 2248 
Q 1016 2181 678 2041 
L 678 4666 
z
" transform="scale(0.015625)"/>
      <path id="DejaVuSans-Bold-b0" d="M 1600 4288 
Q 1375 4288 1219 4131 
Q 1063 3975 1063 3750 
Q 1063 3525 1217 3372 
Q 1372 3219 1600 3219 
Q 1825 3219 1981 3373 
Q 2138 3528 2138 3750 
Q 2138 3975 1980 4131 
Q 1822 4288 1600 4288 
z
M 1600 4794 
Q 1806 4794 1997 4714 
Q 2188 4634 2338 4488 
Q 2484 4338 2561 4150 
Q 2638 3963 2638 3750 
Q 2638 3541 2561 3352 
Q 2484 3163 2344 3022 
Q 2194 2872 2000 2792 
Q 1806 2713 1594 2713 
Q 1153 2713 854 3011 
Q 556 3309 556 3750 
Q 556 4191 857 4492 
Q 1159 4794 1600 4794 
z
" transform="scale(0.015625)"/>
      <path id="DejaVuSans-Bold-43" d="M 4288 256 
Q 3956 84 3597 -3 
Q 3238 -91 2847 -91 
Q 1681 -91 1000 561 
Q 319 1213 319 2328 
Q 319 3447 1000 4098 
Q 1681 4750 2847 4750 
Q 3238 4750 3597 4662 
Q 3956 4575 4288 4403 
L 4288 3438 
Q 3953 3666 3628 3772 
Q 3303 3878 2944 3878 
Q 2300 3878 1931 3465 
Q 1563 3053 1563 2328 
Q 1563 1606 1931 1193 
Q 2300 781 2944 781 
Q 3303 781 3628 887 
Q 3953 994 4288 1222 
L 4288 256 
z
" transform="scale(0.015625)"/>
     </defs>
     <use xlink:href="#DejaVuSans-Bold-2b"/>
     <use xlink:href="#DejaVuSans-Bold-31" x="83.789062"/>
     <use xlink:href="#DejaVuSans-Bold-2e" x="153.369141"/>
     <use xlink:href="#DejaVuSans-Bold-35" x="191.357422"/>
     <use xlink:href="#DejaVuSans-Bold-b0" x="260.9375"/>
     <use xlink:href="#DejaVuSans-Bold-43" x="310.9375"/>
    </g>
   </g>
   <g id="text_15">
    <!-- +2.0C -->
    <g style="fill: #ff8f00" transform="translate(802.89 404.488098) scale(0.18 -0.18)">
     <defs>
      <path id="DejaVuSans-Bold-32" d="M 1844 884 
L 3897 884 
L 3897 0 
L 506 0 
L 506 884 
L 2209 2388 
Q 2438 2594 2547 2791 
Q 2656 2988 2656 3200 
Q 2656 3528 2436 3728 
Q 2216 3928 1850 3928 
Q 1569 3928 1234 3808 
Q 900 3688 519 3450 
L 519 4475 
Q 925 4609 1322 4679 
Q 1719 4750 2100 4750 
Q 2938 4750 3402 4381 
Q 3866 4013 3866 3353 
Q 3866 2972 3669 2642 
Q 3472 2313 2841 1759 
L 1844 884 
z
" transform="scale(0.015625)"/>
      <path id="DejaVuSans-Bold-30" d="M 2944 2338 
Q 2944 3213 2780 3570 
Q 2616 3928 2228 3928 
Q 1841 3928 1675 3570 
Q 1509 3213 1509 2338 
Q 1509 1453 1675 1090 
Q 1841 728 2228 728 
Q 2613 728 2778 1090 
Q 2944 1453 2944 2338 
z
M 4147 2328 
Q 4147 1169 3647 539 
Q 3147 -91 2228 -91 
Q 1306 -91 806 539 
Q 306 1169 306 2328 
Q 306 3491 806 4120 
Q 1306 4750 2228 4750 
Q 3147 4750 3647 4120 
Q 4147 3491 4147 2328 
z
" transform="scale(0.015625)"/>
     </defs>
     <use xlink:href="#DejaVuSans-Bold-2b"/>
     <use xlink:href="#DejaVuSans-Bold-32" x="83.789062"/>
     <use xlink:href="#DejaVuSans-Bold-2e" x="153.369141"/>
     <use xlink:href="#DejaVuSans-Bold-30" x="191.357422"/>
     <use xlink:href="#DejaVuSans-Bold-b0" x="260.9375"/>
     <use xlink:href="#DejaVuSans-Bold-43" x="310.9375"/>
    </g>
   </g>
   <g id="text_16">
    <!-- +3.0C -->
    <g style="fill: #662b00" transform="translate(802.89 475.046809) scale(0.18 -0.18)">
     <defs>
      <path id="DejaVuSans-Bold-33" d="M 2981 2516 
Q 3453 2394 3698 2092 
Q 3944 1791 3944 1325 
Q 3944 631 3412 270 
Q 2881 -91 1863 -91 
Q 1503 -91 1142 -33 
Q 781 25 428 141 
L 428 1069 
Q 766 900 1098 814 
Q 1431 728 1753 728 
Q 2231 728 2486 893 
Q 2741 1059 2741 1369 
Q 2741 1688 2480 1852 
Q 2219 2016 1709 2016 
L 1228 2016 
L 1228 2791 
L 1734 2791 
Q 2188 2791 2409 2933 
Q 2631 3075 2631 3366 
Q 2631 3634 2415 3781 
Q 2200 3928 1806 3928 
Q 1516 3928 1219 3862 
Q 922 3797 628 3669 
L 628 4550 
Q 984 4650 1334 4700 
Q 1684 4750 2022 4750 
Q 2931 4750 3382 4451 
Q 3834 4153 3834 3553 
Q 3834 3144 3618 2883 
Q 3403 2622 2981 2516 
z
" transform="scale(0.015625)"/>
     </defs>
     <use xlink:href="#DejaVuSans-Bold-2b"/>
     <use xlink:href="#DejaVuSans-Bold-33" x="83.789062"/>
     <use xlink:href="#DejaVuSans-Bold-2e" x="153.369141"/>
     <use xlink:href="#DejaVuSans-Bold-30" x="191.357422"/>
     <use xlink:href="#DejaVuSans-Bold-b0" x="260.9375"/>
     <use xlink:href="#DejaVuSans-Bold-43" x="310.9375"/>
    </g>
   </g>
   <g id="text_17">
    <!-- Glaciers of Svalbard and Jan Mayen -->
    <g transform="translate(217.050625 46.8) scale(0.24 -0.24)">
     <defs>
      <path id="DejaVuSans-Bold-47" d="M 4781 347 
Q 4331 128 3847 18 
Q 3363 -91 2847 -91 
Q 1681 -91 1000 561 
Q 319 1213 319 2328 
Q 319 3456 1012 4103 
Q 1706 4750 2913 4750 
Q 3378 4750 3804 4662 
Q 4231 4575 4609 4403 
L 4609 3438 
Q 4219 3659 3833 3768 
Q 3447 3878 3059 3878 
Q 2341 3878 1952 3476 
Q 1563 3075 1563 2328 
Q 1563 1588 1938 1184 
Q 2313 781 3003 781 
Q 3191 781 3352 804 
Q 3513 828 3641 878 
L 3641 1784 
L 2906 1784 
L 2906 2591 
L 4781 2591 
L 4781 347 
z
" transform="scale(0.015625)"/>
      <path id="DejaVuSans-Bold-6c" d="M 538 4863 
L 1656 4863 
L 1656 0 
L 538 0 
L 538 4863 
z
" transform="scale(0.015625)"/>
      <path id="DejaVuSans-Bold-73" d="M 3272 3391 
L 3272 2541 
Q 2913 2691 2578 2766 
Q 2244 2841 1947 2841 
Q 1628 2841 1473 2761 
Q 1319 2681 1319 2516 
Q 1319 2381 1436 2309 
Q 1553 2238 1856 2203 
L 2053 2175 
Q 2913 2066 3209 1816 
Q 3506 1566 3506 1031 
Q 3506 472 3093 190 
Q 2681 -91 1863 -91 
Q 1516 -91 1145 -36 
Q 775 19 384 128 
L 384 978 
Q 719 816 1070 734 
Q 1422 653 1784 653 
Q 2113 653 2278 743 
Q 2444 834 2444 1013 
Q 2444 1163 2330 1236 
Q 2216 1309 1875 1350 
L 1678 1375 
Q 931 1469 631 1722 
Q 331 1975 331 2491 
Q 331 3047 712 3315 
Q 1094 3584 1881 3584 
Q 2191 3584 2531 3537 
Q 2872 3491 3272 3391 
z
" transform="scale(0.015625)"/>
      <path id="DejaVuSans-Bold-53" d="M 3834 4519 
L 3834 3531 
Q 3450 3703 3084 3790 
Q 2719 3878 2394 3878 
Q 1963 3878 1756 3759 
Q 1550 3641 1550 3391 
Q 1550 3203 1689 3098 
Q 1828 2994 2194 2919 
L 2706 2816 
Q 3484 2659 3812 2340 
Q 4141 2022 4141 1434 
Q 4141 663 3683 286 
Q 3225 -91 2284 -91 
Q 1841 -91 1394 -6 
Q 947 78 500 244 
L 500 1259 
Q 947 1022 1364 901 
Q 1781 781 2169 781 
Q 2563 781 2772 912 
Q 2981 1044 2981 1288 
Q 2981 1506 2839 1625 
Q 2697 1744 2272 1838 
L 1806 1941 
Q 1106 2091 782 2419 
Q 459 2747 459 3303 
Q 459 4000 909 4375 
Q 1359 4750 2203 4750 
Q 2588 4750 2994 4692 
Q 3400 4634 3834 4519 
z
" transform="scale(0.015625)"/>
      <path id="DejaVuSans-Bold-76" d="M 97 3500 
L 1216 3500 
L 2088 1081 
L 2956 3500 
L 4078 3500 
L 2700 0 
L 1472 0 
L 97 3500 
z
" transform="scale(0.015625)"/>
      <path id="DejaVuSans-Bold-62" d="M 2400 722 
Q 2759 722 2948 984 
Q 3138 1247 3138 1747 
Q 3138 2247 2948 2509 
Q 2759 2772 2400 2772 
Q 2041 2772 1848 2508 
Q 1656 2244 1656 1747 
Q 1656 1250 1848 986 
Q 2041 722 2400 722 
z
M 1656 2988 
Q 1888 3294 2169 3439 
Q 2450 3584 2816 3584 
Q 3463 3584 3878 3070 
Q 4294 2556 4294 1747 
Q 4294 938 3878 423 
Q 3463 -91 2816 -91 
Q 2450 -91 2169 54 
Q 1888 200 1656 506 
L 1656 0 
L 538 0 
L 538 4863 
L 1656 4863 
L 1656 2988 
z
" transform="scale(0.015625)"/>
      <path id="DejaVuSans-Bold-64" d="M 2919 2988 
L 2919 4863 
L 4044 4863 
L 4044 0 
L 2919 0 
L 2919 506 
Q 2688 197 2409 53 
Q 2131 -91 1766 -91 
Q 1119 -91 703 423 
Q 288 938 288 1747 
Q 288 2556 703 3070 
Q 1119 3584 1766 3584 
Q 2128 3584 2408 3439 
Q 2688 3294 2919 2988 
z
M 2181 722 
Q 2541 722 2730 984 
Q 2919 1247 2919 1747 
Q 2919 2247 2730 2509 
Q 2541 2772 2181 2772 
Q 1825 2772 1636 2509 
Q 1447 2247 1447 1747 
Q 1447 1247 1636 984 
Q 1825 722 2181 722 
z
" transform="scale(0.015625)"/>
      <path id="DejaVuSans-Bold-4a" d="M 588 4666 
L 1791 4666 
L 1791 453 
Q 1791 -419 1317 -850 
Q 844 -1281 -116 -1281 
L -359 -1281 
L -359 -372 
L -172 -372 
Q 203 -372 395 -162 
Q 588 47 588 453 
L 588 4666 
z
" transform="scale(0.015625)"/>
      <path id="DejaVuSans-Bold-4d" d="M 588 4666 
L 2119 4666 
L 3181 2169 
L 4250 4666 
L 5778 4666 
L 5778 0 
L 4641 0 
L 4641 3413 
L 3566 897 
L 2803 897 
L 1728 3413 
L 1728 0 
L 588 0 
L 588 4666 
z
" transform="scale(0.015625)"/>
      <path id="DejaVuSans-Bold-79" d="M 78 3500 
L 1197 3500 
L 2138 1125 
L 2938 3500 
L 4056 3500 
L 2584 -331 
Q 2363 -916 2067 -1148 
Q 1772 -1381 1288 -1381 
L 641 -1381 
L 641 -647 
L 991 -647 
Q 1275 -647 1404 -556 
Q 1534 -466 1606 -231 
L 1638 -134 
L 78 3500 
z
" transform="scale(0.015625)"/>
     </defs>
     <use xlink:href="#DejaVuSans-Bold-47"/>
     <use xlink:href="#DejaVuSans-Bold-6c" x="82.080078"/>
     <use xlink:href="#DejaVuSans-Bold-61" x="116.357422"/>
     <use xlink:href="#DejaVuSans-Bold-63" x="183.837891"/>
     <use xlink:href="#DejaVuSans-Bold-69" x="243.115234"/>
     <use xlink:href="#DejaVuSans-Bold-65" x="277.392578"/>
     <use xlink:href="#DejaVuSans-Bold-72" x="345.214844"/>
     <use xlink:href="#DejaVuSans-Bold-73" x="394.53125"/>
     <use xlink:href="#DejaVuSans-Bold-20" x="454.052734"/>
     <use xlink:href="#DejaVuSans-Bold-6f" x="488.867188"/>
     <use xlink:href="#DejaVuSans-Bold-66" x="557.568359"/>
     <use xlink:href="#DejaVuSans-Bold-20" x="601.074219"/>
     <use xlink:href="#DejaVuSans-Bold-53" x="635.888672"/>
     <use xlink:href="#DejaVuSans-Bold-76" x="707.910156"/>
     <use xlink:href="#DejaVuSans-Bold-61" x="773.095703"/>
     <use xlink:href="#DejaVuSans-Bold-6c" x="840.576172"/>
     <use xlink:href="#DejaVuSans-Bold-62" x="874.853516"/>
     <use xlink:href="#DejaVuSans-Bold-61" x="946.435547"/>
     <use xlink:href="#DejaVuSans-Bold-72" x="1013.916016"/>
     <use xlink:href="#DejaVuSans-Bold-64" x="1063.232422"/>
     <use xlink:href="#DejaVuSans-Bold-20" x="1134.814453"/>
     <use xlink:href="#DejaVuSans-Bold-61" x="1169.628906"/>
     <use xlink:href="#DejaVuSans-Bold-6e" x="1237.109375"/>
     <use xlink:href="#DejaVuSans-Bold-64" x="1308.300781"/>
     <use xlink:href="#DejaVuSans-Bold-20" x="1379.882812"/>
     <use xlink:href="#DejaVuSans-Bold-4a" x="1414.697266"/>
     <use xlink:href="#DejaVuSans-Bold-61" x="1451.904297"/>
     <use xlink:href="#DejaVuSans-Bold-6e" x="1519.384766"/>
     <use xlink:href="#DejaVuSans-Bold-20" x="1590.576172"/>
     <use xlink:href="#DejaVuSans-Bold-4d" x="1625.390625"/>
     <use xlink:href="#DejaVuSans-Bold-61" x="1724.902344"/>
     <use xlink:href="#DejaVuSans-Bold-79" x="1789.257812"/>
     <use xlink:href="#DejaVuSans-Bold-65" x="1854.443359"/>
     <use xlink:href="#DejaVuSans-Bold-6e" x="1922.265625"/>
    </g>
   </g>
   <g id="LineCollection_1">
    <path d="M 322.866894 253.495305 
L 329.169167 253.495305 
" clip-path="url(#p61a66f2621)" style="fill: none; stroke: #70b8ff; stroke-opacity: 0.5; stroke-width: 3"/>
   </g>
   <g id="LineCollection_2">
    <path d="M 322.866894 257.727821 
L 329.169167 257.727821 
" clip-path="url(#p61a66f2621)" style="fill: none; stroke: #92b9c1; stroke-opacity: 0.5; stroke-width: 3"/>
   </g>
   <g id="LineCollection_3">
    <path d="M 322.866894 262.00717 
L 329.169167 262.00717 
" clip-path="url(#p61a66f2621)" style="fill: none; stroke: #c0ba6a; stroke-opacity: 0.5; stroke-width: 3"/>
   </g>
   <g id="LineCollection_4">
    <path d="M 322.866894 266.367403 
L 329.169167 266.367403 
" clip-path="url(#p61a66f2621)" style="fill: none; stroke: #efbb14; stroke-opacity: 0.5; stroke-width: 3"/>
   </g>
   <g id="LineCollection_5">
    <path d="M 322.866894 270.842565 
L 329.169167 270.842565 
" clip-path="url(#p61a66f2621)" style="fill: none; stroke: #fbaf00; stroke-opacity: 0.5; stroke-width: 3"/>
   </g>
   <g id="LineCollection_6">
    <path d="M 322.866894 275.460121 
L 329.169167 275.460121 
" clip-path="url(#p61a66f2621)" style="fill: none; stroke: #fd9f00; stroke-opacity: 0.5; stroke-width: 3"/>
   </g>
   <g id="LineCollection_7">
    <path d="M 322.866894 280.238191 
L 329.169167 280.238191 
" clip-path="url(#p61a66f2621)" style="fill: none; stroke: #ff8f00; stroke-opacity: 0.5; stroke-width: 3"/>
   </g>
   <g id="LineCollection_8">
    <path d="M 322.866894 285.193545 
L 329.169167 285.193545 
" clip-path="url(#p61a66f2621)" style="fill: none; stroke: #fb7c00; stroke-opacity: 0.5; stroke-width: 3"/>
   </g>
   <g id="LineCollection_9">
    <path d="M 322.866894 290.327653 
L 329.169167 290.327653 
" clip-path="url(#p61a66f2621)" style="fill: none; stroke: #f76800; stroke-opacity: 0.5; stroke-width: 3"/>
   </g>
   <g id="LineCollection_10">
    <path d="M 322.866894 295.624951 
L 329.169167 295.624951 
" clip-path="url(#p61a66f2621)" style="fill: none; stroke: #f35400; stroke-opacity: 0.5; stroke-width: 3"/>
   </g>
   <g id="LineCollection_11">
    <path d="M 322.866894 301.048761 
L 329.169167 301.048761 
" clip-path="url(#p61a66f2621)" style="fill: none; stroke: #e34500; stroke-opacity: 0.5; stroke-width: 3"/>
   </g>
   <g id="LineCollection_12">
    <path d="M 322.866894 306.54951 
L 329.169167 306.54951 
" clip-path="url(#p61a66f2621)" style="fill: none; stroke: #d13600; stroke-opacity: 0.5; stroke-width: 3"/>
   </g>
   <g id="LineCollection_13">
    <path d="M 322.866894 312.074651 
L 329.169167 312.074651 
" clip-path="url(#p61a66f2621)" style="fill: none; stroke: #bf2800; stroke-opacity: 0.5; stroke-width: 3"/>
   </g>
   <g id="LineCollection_14">
    <path d="M 322.866894 317.570957 
L 329.169167 317.570957 
" clip-path="url(#p61a66f2621)" style="fill: none; stroke: #a32700; stroke-opacity: 0.5; stroke-width: 3"/>
   </g>
   <g id="LineCollection_15">
    <path d="M 322.866894 322.95265 
L 329.169167 322.95265 
" clip-path="url(#p61a66f2621)" style="fill: none; stroke: #852900; stroke-opacity: 0.5; stroke-width: 3"/>
   </g>
   <g id="LineCollection_16">
    <path d="M 322.866894 328.134674 
L 329.169167 328.134674 
" clip-path="url(#p61a66f2621)" style="fill: none; stroke: #682b00; stroke-opacity: 0.5; stroke-width: 3"/>
   </g>
   <g id="LineCollection_17">
    <path d="M 751.421439 359.995253 
L 757.723712 359.995253 
" clip-path="url(#p61a66f2621)" style="fill: none; stroke: #70b8ff; stroke-opacity: 0.5; stroke-width: 3"/>
   </g>
   <g id="LineCollection_18">
    <path d="M 751.421439 365.872262 
L 757.723712 365.872262 
" clip-path="url(#p61a66f2621)" style="fill: none; stroke: #92b9c1; stroke-opacity: 0.5; stroke-width: 3"/>
   </g>
   <g id="LineCollection_19">
    <path d="M 751.421439 371.733112 
L 757.723712 371.733112 
" clip-path="url(#p61a66f2621)" style="fill: none; stroke: #c0ba6a; stroke-opacity: 0.5; stroke-width: 3"/>
   </g>
   <g id="LineCollection_20">
    <path d="M 751.421439 377.7201 
L 757.723712 377.7201 
" clip-path="url(#p61a66f2621)" style="fill: none; stroke: #efbb14; stroke-opacity: 0.5; stroke-width: 3"/>
   </g>
   <g id="LineCollection_21">
    <path d="M 751.421439 384.281785 
L 757.723712 384.281785 
" clip-path="url(#p61a66f2621)" style="fill: none; stroke: #fbaf00; stroke-opacity: 0.5; stroke-width: 3"/>
   </g>
   <g id="LineCollection_22">
    <path d="M 751.421439 391.586824 
L 757.723712 391.586824 
" clip-path="url(#p61a66f2621)" style="fill: none; stroke: #fd9f00; stroke-opacity: 0.5; stroke-width: 3"/>
   </g>
   <g id="LineCollection_23">
    <path d="M 751.421439 399.521223 
L 757.723712 399.521223 
" clip-path="url(#p61a66f2621)" style="fill: none; stroke: #ff8f00; stroke-opacity: 0.5; stroke-width: 3"/>
   </g>
   <g id="LineCollection_24">
    <path d="M 751.421439 407.832232 
L 757.723712 407.832232 
" clip-path="url(#p61a66f2621)" style="fill: none; stroke: #fb7c00; stroke-opacity: 0.5; stroke-width: 3"/>
   </g>
   <g id="LineCollection_25">
    <path d="M 751.421439 416.237884 
L 757.723712 416.237884 
" clip-path="url(#p61a66f2621)" style="fill: none; stroke: #f76800; stroke-opacity: 0.5; stroke-width: 3"/>
   </g>
   <g id="LineCollection_26">
    <path d="M 751.421439 424.493925 
L 757.723712 424.493925 
" clip-path="url(#p61a66f2621)" style="fill: none; stroke: #f35400; stroke-opacity: 0.5; stroke-width: 3"/>
   </g>
   <g id="LineCollection_27">
    <path d="M 751.421439 432.422092 
L 757.723712 432.422092 
" clip-path="url(#p61a66f2621)" style="fill: none; stroke: #e34500; stroke-opacity: 0.5; stroke-width: 3"/>
   </g>
   <g id="LineCollection_28">
    <path d="M 751.421439 439.912079 
L 757.723712 439.912079 
" clip-path="url(#p61a66f2621)" style="fill: none; stroke: #d13600; stroke-opacity: 0.5; stroke-width: 3"/>
   </g>
   <g id="LineCollection_29">
    <path d="M 751.421439 446.91021 
L 757.723712 446.91021 
" clip-path="url(#p61a66f2621)" style="fill: none; stroke: #bf2800; stroke-opacity: 0.5; stroke-width: 3"/>
   </g>
   <g id="LineCollection_30">
    <path d="M 751.421439 453.404144 
L 757.723712 453.404144 
" clip-path="url(#p61a66f2621)" style="fill: none; stroke: #a32700; stroke-opacity: 0.5; stroke-width: 3"/>
   </g>
   <g id="LineCollection_31">
    <path d="M 751.421439 459.408641 
L 757.723712 459.408641 
" clip-path="url(#p61a66f2621)" style="fill: none; stroke: #852900; stroke-opacity: 0.5; stroke-width: 3"/>
   </g>
   <g id="LineCollection_32">
    <path d="M 751.421439 464.954369 
L 757.723712 464.954369 
" clip-path="url(#p61a66f2621)" style="fill: none; stroke: #682b00; stroke-opacity: 0.5; stroke-width: 3"/>
   </g>
   <g id="LineCollection_33">
    <path d="M 319.715758 257.727821 
L 332.320303 257.727821 
" clip-path="url(#p61a66f2621)" style="fill: none; stroke: #92b9c1; stroke-width: 8"/>
   </g>
   <g id="LineCollection_34">
    <path d="M 319.715758 280.238191 
L 332.320303 280.238191 
" clip-path="url(#p61a66f2621)" style="fill: none; stroke: #ff8f00; stroke-width: 8"/>
   </g>
   <g id="LineCollection_35">
    <path d="M 319.715758 333.066685 
L 332.320303 333.066685 
" clip-path="url(#p61a66f2621)" style="fill: none; stroke: #662b00; stroke-width: 8"/>
   </g>
   <g id="LineCollection_36">
    <path d="M 748.270303 365.872262 
L 760.874848 365.872262 
" clip-path="url(#p61a66f2621)" style="fill: none; stroke: #92b9c1; stroke-width: 8"/>
   </g>
   <g id="LineCollection_37">
    <path d="M 748.270303 399.521223 
L 760.874848 399.521223 
" clip-path="url(#p61a66f2621)" style="fill: none; stroke: #ff8f00; stroke-width: 8"/>
   </g>
   <g id="LineCollection_38">
    <path d="M 748.270303 470.079934 
L 760.874848 470.079934 
" clip-path="url(#p61a66f2621)" style="fill: none; stroke: #662b00; stroke-width: 8"/>
   </g>
  </g>
 </g>
 <defs>
  <clipPath id="p61a66f2621">
   <rect x="109.64" y="52.8" width="693.25" height="462.76"/>
  </clipPath>
 </defs>
</svg>
