<?xml version="1.0" encoding="utf-8" standalone="no"?>
<!DOCTYPE svg PUBLIC "-//W3C//DTD SVG 1.1//EN"
  "http://www.w3.org/Graphics/SVG/1.1/DTD/svg11.dtd">
<svg xmlns:xlink="http://www.w3.org/1999/xlink" width="900pt" height="600pt" viewBox="0 0 900 600" xmlns="http://www.w3.org/2000/svg" version="1.1">
 <metadata>
  <rdf:RDF xmlns:dc="http://purl.org/dc/elements/1.1/" xmlns:cc="http://creativecommons.org/ns#" xmlns:rdf="http://www.w3.org/1999/02/22-rdf-syntax-ns#">
   <cc:Work>
    <dc:type rdf:resource="http://purl.org/dc/dcmitype/StillImage"/>
    <dc:date>2023-11-29T23:13:36.685329</dc:date>
    <dc:format>image/svg+xml</dc:format>
    <dc:creator>
     <cc:Agent>
      <dc:title>Matplotlib v3.7.1, https://matplotlib.org/</dc:title>
     </cc:Agent>
    </dc:creator>
   </cc:Work>
  </rdf:RDF>
 </metadata>
 <defs>
  <style type="text/css">*{stroke-linejoin: round; stroke-linecap: butt}</style>
 </defs>
 <g id="figure_1">
  <g id="patch_1">
   <path d="M 0 600 
L 900 600 
L 900 0 
L 0 0 
z
" style="fill: #ffffff"/>
  </g>
  <g id="axes_1">
   <g id="patch_2">
    <path d="M 109.64 515.56 
L 802.89 515.56 
L 802.89 52.8 
L 109.64 52.8 
z
" style="fill: #ffffff"/>
   </g>
   <g id="matplotlib.axis_1">
    <g id="xtick_1">
     <g id="line2d_1">
      <defs>
       <path id="m3a944fc31f" d="M 0 0 
L 0 3.5 
" style="stroke: #000000; stroke-width: 0.8"/>
      </defs>
      <g>
       <use xlink:href="#m3a944fc31f" x="157.957424" y="515.56" style="stroke: #000000; stroke-width: 0.8"/>
      </g>
     </g>
     <g id="text_1">
      <!-- 2020 -->
      <g transform="translate(124.872424 542.315938) scale(0.26 -0.26)">
       <defs>
        <path id="DejaVuSans-32" d="M 1228 531 
L 3431 531 
L 3431 0 
L 469 0 
L 469 531 
Q 828 903 1448 1529 
Q 2069 2156 2228 2338 
Q 2531 2678 2651 2914 
Q 2772 3150 2772 3378 
Q 2772 3750 2511 3984 
Q 2250 4219 1831 4219 
Q 1534 4219 1204 4116 
Q 875 4013 500 3803 
L 500 4441 
Q 881 4594 1212 4672 
Q 1544 4750 1819 4750 
Q 2544 4750 2975 4387 
Q 3406 4025 3406 3419 
Q 3406 3131 3298 2873 
Q 3191 2616 2906 2266 
Q 2828 2175 2409 1742 
Q 1991 1309 1228 531 
z
" transform="scale(0.015625)"/>
        <path id="DejaVuSans-30" d="M 2034 4250 
Q 1547 4250 1301 3770 
Q 1056 3291 1056 2328 
Q 1056 1369 1301 889 
Q 1547 409 2034 409 
Q 2525 409 2770 889 
Q 3016 1369 3016 2328 
Q 3016 3291 2770 3770 
Q 2525 4250 2034 4250 
z
M 2034 4750 
Q 2819 4750 3233 4129 
Q 3647 3509 3647 2328 
Q 3647 1150 3233 529 
Q 2819 -91 2034 -91 
Q 1250 -91 836 529 
Q 422 1150 422 2328 
Q 422 3509 836 4129 
Q 1250 4750 2034 4750 
z
" transform="scale(0.015625)"/>
       </defs>
       <use xlink:href="#DejaVuSans-32"/>
       <use xlink:href="#DejaVuSans-30" x="63.623047"/>
       <use xlink:href="#DejaVuSans-32" x="127.246094"/>
       <use xlink:href="#DejaVuSans-30" x="190.869141"/>
      </g>
     </g>
    </g>
    <g id="xtick_2">
     <g id="line2d_2">
      <g>
       <use xlink:href="#m3a944fc31f" x="326.01803" y="515.56" style="stroke: #000000; stroke-width: 0.8"/>
      </g>
     </g>
     <g id="text_2">
      <!-- 2100 -->
      <g transform="translate(292.93303 542.315938) scale(0.26 -0.26)">
       <defs>
        <path id="DejaVuSans-31" d="M 794 531 
L 1825 531 
L 1825 4091 
L 703 3866 
L 703 4441 
L 1819 4666 
L 2450 4666 
L 2450 531 
L 3481 531 
L 3481 0 
L 794 0 
L 794 531 
z
" transform="scale(0.015625)"/>
       </defs>
       <use xlink:href="#DejaVuSans-32"/>
       <use xlink:href="#DejaVuSans-31" x="63.623047"/>
       <use xlink:href="#DejaVuSans-30" x="127.246094"/>
       <use xlink:href="#DejaVuSans-30" x="190.869141"/>
      </g>
     </g>
    </g>
    <g id="xtick_3">
     <g id="line2d_3">
      <g>
       <use xlink:href="#m3a944fc31f" x="536.093788" y="515.56" style="stroke: #000000; stroke-width: 0.8"/>
      </g>
     </g>
     <g id="text_3">
      <!-- 2200 -->
      <g transform="translate(503.008788 542.315938) scale(0.26 -0.26)">
       <use xlink:href="#DejaVuSans-32"/>
       <use xlink:href="#DejaVuSans-32" x="63.623047"/>
       <use xlink:href="#DejaVuSans-30" x="127.246094"/>
       <use xlink:href="#DejaVuSans-30" x="190.869141"/>
      </g>
     </g>
    </g>
    <g id="xtick_4">
     <g id="line2d_4">
      <g>
       <use xlink:href="#m3a944fc31f" x="746.169545" y="515.56" style="stroke: #000000; stroke-width: 0.8"/>
      </g>
     </g>
     <g id="text_4">
      <!-- 2300 -->
      <g transform="translate(713.084545 542.315938) scale(0.26 -0.26)">
       <defs>
        <path id="DejaVuSans-33" d="M 2597 2516 
Q 3050 2419 3304 2112 
Q 3559 1806 3559 1356 
Q 3559 666 3084 287 
Q 2609 -91 1734 -91 
Q 1441 -91 1130 -33 
Q 819 25 488 141 
L 488 750 
Q 750 597 1062 519 
Q 1375 441 1716 441 
Q 2309 441 2620 675 
Q 2931 909 2931 1356 
Q 2931 1769 2642 2001 
Q 2353 2234 1838 2234 
L 1294 2234 
L 1294 2753 
L 1863 2753 
Q 2328 2753 2575 2939 
Q 2822 3125 2822 3475 
Q 2822 3834 2567 4026 
Q 2313 4219 1838 4219 
Q 1578 4219 1281 4162 
Q 984 4106 628 3988 
L 628 4550 
Q 988 4650 1302 4700 
Q 1616 4750 1894 4750 
Q 2613 4750 3031 4423 
Q 3450 4097 3450 3541 
Q 3450 3153 3228 2886 
Q 3006 2619 2597 2516 
z
" transform="scale(0.015625)"/>
       </defs>
       <use xlink:href="#DejaVuSans-32"/>
       <use xlink:href="#DejaVuSans-33" x="63.623047"/>
       <use xlink:href="#DejaVuSans-30" x="127.246094"/>
       <use xlink:href="#DejaVuSans-30" x="190.869141"/>
      </g>
     </g>
    </g>
    <g id="text_5">
     <!-- Year -->
     <g transform="translate(428.995313 568.439687) scale(0.22 -0.22)">
      <defs>
       <path id="DejaVuSans-Bold-59" d="M -63 4666 
L 1253 4666 
L 2316 3003 
L 3378 4666 
L 4697 4666 
L 2919 1966 
L 2919 0 
L 1716 0 
L 1716 1966 
L -63 4666 
z
" transform="scale(0.015625)"/>
       <path id="DejaVuSans-Bold-65" d="M 4031 1759 
L 4031 1441 
L 1416 1441 
Q 1456 1047 1700 850 
Q 1944 653 2381 653 
Q 2734 653 3104 758 
Q 3475 863 3866 1075 
L 3866 213 
Q 3469 63 3072 -14 
Q 2675 -91 2278 -91 
Q 1328 -91 801 392 
Q 275 875 275 1747 
Q 275 2603 792 3093 
Q 1309 3584 2216 3584 
Q 3041 3584 3536 3087 
Q 4031 2591 4031 1759 
z
M 2881 2131 
Q 2881 2450 2695 2645 
Q 2509 2841 2209 2841 
Q 1884 2841 1681 2658 
Q 1478 2475 1428 2131 
L 2881 2131 
z
" transform="scale(0.015625)"/>
       <path id="DejaVuSans-Bold-61" d="M 2106 1575 
Q 1756 1575 1579 1456 
Q 1403 1338 1403 1106 
Q 1403 894 1545 773 
Q 1688 653 1941 653 
Q 2256 653 2472 879 
Q 2688 1106 2688 1447 
L 2688 1575 
L 2106 1575 
z
M 3816 1997 
L 3816 0 
L 2688 0 
L 2688 519 
Q 2463 200 2181 54 
Q 1900 -91 1497 -91 
Q 953 -91 614 226 
Q 275 544 275 1050 
Q 275 1666 698 1953 
Q 1122 2241 2028 2241 
L 2688 2241 
L 2688 2328 
Q 2688 2594 2478 2717 
Q 2269 2841 1825 2841 
Q 1466 2841 1156 2769 
Q 847 2697 581 2553 
L 581 3406 
Q 941 3494 1303 3539 
Q 1666 3584 2028 3584 
Q 2975 3584 3395 3211 
Q 3816 2838 3816 1997 
z
" transform="scale(0.015625)"/>
       <path id="DejaVuSans-Bold-72" d="M 3138 2547 
Q 2991 2616 2845 2648 
Q 2700 2681 2553 2681 
Q 2122 2681 1889 2404 
Q 1656 2128 1656 1613 
L 1656 0 
L 538 0 
L 538 3500 
L 1656 3500 
L 1656 2925 
Q 1872 3269 2151 3426 
Q 2431 3584 2822 3584 
Q 2878 3584 2943 3579 
Q 3009 3575 3134 3559 
L 3138 2547 
z
" transform="scale(0.015625)"/>
      </defs>
      <use xlink:href="#DejaVuSans-Bold-59"/>
      <use xlink:href="#DejaVuSans-Bold-65" x="63.287109"/>
      <use xlink:href="#DejaVuSans-Bold-61" x="131.109375"/>
      <use xlink:href="#DejaVuSans-Bold-72" x="198.589844"/>
     </g>
    </g>
   </g>
   <g id="matplotlib.axis_2">
    <g id="ytick_1">
     <g id="line2d_5">
      <defs>
       <path id="m35fb8329f1" d="M 0 0 
L -3.5 0 
" style="stroke: #000000; stroke-width: 0.8"/>
      </defs>
      <g>
       <use xlink:href="#m35fb8329f1" x="109.64" y="515.56" style="stroke: #000000; stroke-width: 0.8"/>
      </g>
     </g>
     <g id="text_6">
      <!-- 0 -->
      <g transform="translate(86.0975 525.437969) scale(0.26 -0.26)">
       <use xlink:href="#DejaVuSans-30"/>
      </g>
     </g>
    </g>
    <g id="ytick_2">
     <g id="line2d_6">
      <g>
       <use xlink:href="#m35fb8329f1" x="109.64" y="441.5184" style="stroke: #000000; stroke-width: 0.8"/>
      </g>
     </g>
     <g id="text_7">
      <!-- 20 -->
      <g transform="translate(69.555 451.396369) scale(0.26 -0.26)">
       <use xlink:href="#DejaVuSans-32"/>
       <use xlink:href="#DejaVuSans-30" x="63.623047"/>
      </g>
     </g>
    </g>
    <g id="ytick_3">
     <g id="line2d_7">
      <g>
       <use xlink:href="#m35fb8329f1" x="109.64" y="367.4768" style="stroke: #000000; stroke-width: 0.8"/>
      </g>
     </g>
     <g id="text_8">
      <!-- 40 -->
      <g transform="translate(69.555 377.354769) scale(0.26 -0.26)">
       <defs>
        <path id="DejaVuSans-34" d="M 2419 4116 
L 825 1625 
L 2419 1625 
L 2419 4116 
z
M 2253 4666 
L 3047 4666 
L 3047 1625 
L 3713 1625 
L 3713 1100 
L 3047 1100 
L 3047 0 
L 2419 0 
L 2419 1100 
L 313 1100 
L 313 1709 
L 2253 4666 
z
" transform="scale(0.015625)"/>
       </defs>
       <use xlink:href="#DejaVuSans-34"/>
       <use xlink:href="#DejaVuSans-30" x="63.623047"/>
      </g>
     </g>
    </g>
    <g id="ytick_4">
     <g id="line2d_8">
      <g>
       <use xlink:href="#m35fb8329f1" x="109.64" y="293.4352" style="stroke: #000000; stroke-width: 0.8"/>
      </g>
     </g>
     <g id="text_9">
      <!-- 60 -->
      <g transform="translate(69.555 303.313169) scale(0.26 -0.26)">
       <defs>
        <path id="DejaVuSans-36" d="M 2113 2584 
Q 1688 2584 1439 2293 
Q 1191 2003 1191 1497 
Q 1191 994 1439 701 
Q 1688 409 2113 409 
Q 2538 409 2786 701 
Q 3034 994 3034 1497 
Q 3034 2003 2786 2293 
Q 2538 2584 2113 2584 
z
M 3366 4563 
L 3366 3988 
Q 3128 4100 2886 4159 
Q 2644 4219 2406 4219 
Q 1781 4219 1451 3797 
Q 1122 3375 1075 2522 
Q 1259 2794 1537 2939 
Q 1816 3084 2150 3084 
Q 2853 3084 3261 2657 
Q 3669 2231 3669 1497 
Q 3669 778 3244 343 
Q 2819 -91 2113 -91 
Q 1303 -91 875 529 
Q 447 1150 447 2328 
Q 447 3434 972 4092 
Q 1497 4750 2381 4750 
Q 2619 4750 2861 4703 
Q 3103 4656 3366 4563 
z
" transform="scale(0.015625)"/>
       </defs>
       <use xlink:href="#DejaVuSans-36"/>
       <use xlink:href="#DejaVuSans-30" x="63.623047"/>
      </g>
     </g>
    </g>
    <g id="ytick_5">
     <g id="line2d_9">
      <g>
       <use xlink:href="#m35fb8329f1" x="109.64" y="219.3936" style="stroke: #000000; stroke-width: 0.8"/>
      </g>
     </g>
     <g id="text_10">
      <!-- 80 -->
      <g transform="translate(69.555 229.271569) scale(0.26 -0.26)">
       <defs>
        <path id="DejaVuSans-38" d="M 2034 2216 
Q 1584 2216 1326 1975 
Q 1069 1734 1069 1313 
Q 1069 891 1326 650 
Q 1584 409 2034 409 
Q 2484 409 2743 651 
Q 3003 894 3003 1313 
Q 3003 1734 2745 1975 
Q 2488 2216 2034 2216 
z
M 1403 2484 
Q 997 2584 770 2862 
Q 544 3141 544 3541 
Q 544 4100 942 4425 
Q 1341 4750 2034 4750 
Q 2731 4750 3128 4425 
Q 3525 4100 3525 3541 
Q 3525 3141 3298 2862 
Q 3072 2584 2669 2484 
Q 3125 2378 3379 2068 
Q 3634 1759 3634 1313 
Q 3634 634 3220 271 
Q 2806 -91 2034 -91 
Q 1263 -91 848 271 
Q 434 634 434 1313 
Q 434 1759 690 2068 
Q 947 2378 1403 2484 
z
M 1172 3481 
Q 1172 3119 1398 2916 
Q 1625 2713 2034 2713 
Q 2441 2713 2670 2916 
Q 2900 3119 2900 3481 
Q 2900 3844 2670 4047 
Q 2441 4250 2034 4250 
Q 1625 4250 1398 4047 
Q 1172 3844 1172 3481 
z
" transform="scale(0.015625)"/>
       </defs>
       <use xlink:href="#DejaVuSans-38"/>
       <use xlink:href="#DejaVuSans-30" x="63.623047"/>
      </g>
     </g>
    </g>
    <g id="ytick_6">
     <g id="line2d_10">
      <g>
       <use xlink:href="#m35fb8329f1" x="109.64" y="145.352" style="stroke: #000000; stroke-width: 0.8"/>
      </g>
     </g>
     <g id="text_11">
      <!-- 100 -->
      <g transform="translate(53.0125 155.229969) scale(0.26 -0.26)">
       <use xlink:href="#DejaVuSans-31"/>
       <use xlink:href="#DejaVuSans-30" x="63.623047"/>
       <use xlink:href="#DejaVuSans-30" x="127.246094"/>
      </g>
     </g>
    </g>
    <g id="ytick_7">
     <g id="line2d_11">
      <g>
       <use xlink:href="#m35fb8329f1" x="109.64" y="71.3104" style="stroke: #000000; stroke-width: 0.8"/>
      </g>
     </g>
     <g id="text_12">
      <!-- 120 -->
      <g transform="translate(53.0125 81.188369) scale(0.26 -0.26)">
       <use xlink:href="#DejaVuSans-31"/>
       <use xlink:href="#DejaVuSans-32" x="63.623047"/>
       <use xlink:href="#DejaVuSans-30" x="127.246094"/>
      </g>
     </g>
    </g>
    <g id="text_13">
     <!-- % of Remaining Ice -->
     <g transform="translate(44.265313 403.000625) rotate(-90) scale(0.22 -0.22)">
      <defs>
       <path id="DejaVuSans-Bold-25" d="M 4959 1925 
Q 4738 1925 4616 1733 
Q 4494 1541 4494 1184 
Q 4494 825 4614 633 
Q 4734 441 4959 441 
Q 5184 441 5303 633 
Q 5422 825 5422 1184 
Q 5422 1541 5301 1733 
Q 5181 1925 4959 1925 
z
M 4959 2450 
Q 5541 2450 5875 2112 
Q 6209 1775 6209 1184 
Q 6209 594 5875 251 
Q 5541 -91 4959 -91 
Q 4378 -91 4042 251 
Q 3706 594 3706 1184 
Q 3706 1772 4042 2111 
Q 4378 2450 4959 2450 
z
M 2094 -91 
L 1403 -91 
L 4319 4750 
L 5013 4750 
L 2094 -91 
z
M 1453 4750 
Q 2034 4750 2367 4411 
Q 2700 4072 2700 3481 
Q 2700 2891 2367 2550 
Q 2034 2209 1453 2209 
Q 872 2209 539 2550 
Q 206 2891 206 3481 
Q 206 4072 539 4411 
Q 872 4750 1453 4750 
z
M 1453 4225 
Q 1228 4225 1106 4031 
Q 984 3838 984 3481 
Q 984 3122 1106 2926 
Q 1228 2731 1453 2731 
Q 1678 2731 1798 2926 
Q 1919 3122 1919 3481 
Q 1919 3838 1797 4031 
Q 1675 4225 1453 4225 
z
" transform="scale(0.015625)"/>
       <path id="DejaVuSans-Bold-20" transform="scale(0.015625)"/>
       <path id="DejaVuSans-Bold-6f" d="M 2203 2784 
Q 1831 2784 1636 2517 
Q 1441 2250 1441 1747 
Q 1441 1244 1636 976 
Q 1831 709 2203 709 
Q 2569 709 2762 976 
Q 2956 1244 2956 1747 
Q 2956 2250 2762 2517 
Q 2569 2784 2203 2784 
z
M 2203 3584 
Q 3106 3584 3614 3096 
Q 4122 2609 4122 1747 
Q 4122 884 3614 396 
Q 3106 -91 2203 -91 
Q 1297 -91 786 396 
Q 275 884 275 1747 
Q 275 2609 786 3096 
Q 1297 3584 2203 3584 
z
" transform="scale(0.015625)"/>
       <path id="DejaVuSans-Bold-66" d="M 2841 4863 
L 2841 4128 
L 2222 4128 
Q 1984 4128 1890 4042 
Q 1797 3956 1797 3744 
L 1797 3500 
L 2753 3500 
L 2753 2700 
L 1797 2700 
L 1797 0 
L 678 0 
L 678 2700 
L 122 2700 
L 122 3500 
L 678 3500 
L 678 3744 
Q 678 4316 997 4589 
Q 1316 4863 1984 4863 
L 2841 4863 
z
" transform="scale(0.015625)"/>
       <path id="DejaVuSans-Bold-52" d="M 2297 2597 
Q 2675 2597 2839 2737 
Q 3003 2878 3003 3200 
Q 3003 3519 2839 3656 
Q 2675 3794 2297 3794 
L 1791 3794 
L 1791 2597 
L 2297 2597 
z
M 1791 1766 
L 1791 0 
L 588 0 
L 588 4666 
L 2425 4666 
Q 3347 4666 3776 4356 
Q 4206 4047 4206 3378 
Q 4206 2916 3982 2619 
Q 3759 2322 3309 2181 
Q 3556 2125 3751 1926 
Q 3947 1728 4147 1325 
L 4800 0 
L 3519 0 
L 2950 1159 
Q 2778 1509 2601 1637 
Q 2425 1766 2131 1766 
L 1791 1766 
z
" transform="scale(0.015625)"/>
       <path id="DejaVuSans-Bold-6d" d="M 3781 2919 
Q 3994 3244 4286 3414 
Q 4578 3584 4928 3584 
Q 5531 3584 5847 3212 
Q 6163 2841 6163 2131 
L 6163 0 
L 5038 0 
L 5038 1825 
Q 5041 1866 5042 1909 
Q 5044 1953 5044 2034 
Q 5044 2406 4934 2573 
Q 4825 2741 4581 2741 
Q 4263 2741 4089 2478 
Q 3916 2216 3909 1719 
L 3909 0 
L 2784 0 
L 2784 1825 
Q 2784 2406 2684 2573 
Q 2584 2741 2328 2741 
Q 2006 2741 1831 2477 
Q 1656 2213 1656 1722 
L 1656 0 
L 531 0 
L 531 3500 
L 1656 3500 
L 1656 2988 
Q 1863 3284 2130 3434 
Q 2397 3584 2719 3584 
Q 3081 3584 3359 3409 
Q 3638 3234 3781 2919 
z
" transform="scale(0.015625)"/>
       <path id="DejaVuSans-Bold-69" d="M 538 3500 
L 1656 3500 
L 1656 0 
L 538 0 
L 538 3500 
z
M 538 4863 
L 1656 4863 
L 1656 3950 
L 538 3950 
L 538 4863 
z
" transform="scale(0.015625)"/>
       <path id="DejaVuSans-Bold-6e" d="M 4056 2131 
L 4056 0 
L 2931 0 
L 2931 347 
L 2931 1631 
Q 2931 2084 2911 2256 
Q 2891 2428 2841 2509 
Q 2775 2619 2662 2680 
Q 2550 2741 2406 2741 
Q 2056 2741 1856 2470 
Q 1656 2200 1656 1722 
L 1656 0 
L 538 0 
L 538 3500 
L 1656 3500 
L 1656 2988 
Q 1909 3294 2193 3439 
Q 2478 3584 2822 3584 
Q 3428 3584 3742 3212 
Q 4056 2841 4056 2131 
z
" transform="scale(0.015625)"/>
       <path id="DejaVuSans-Bold-67" d="M 2919 594 
Q 2688 288 2409 144 
Q 2131 0 1766 0 
Q 1125 0 706 504 
Q 288 1009 288 1791 
Q 288 2575 706 3076 
Q 1125 3578 1766 3578 
Q 2131 3578 2409 3434 
Q 2688 3291 2919 2981 
L 2919 3500 
L 4044 3500 
L 4044 353 
Q 4044 -491 3511 -936 
Q 2978 -1381 1966 -1381 
Q 1638 -1381 1331 -1331 
Q 1025 -1281 716 -1178 
L 716 -306 
Q 1009 -475 1290 -558 
Q 1572 -641 1856 -641 
Q 2406 -641 2662 -400 
Q 2919 -159 2919 353 
L 2919 594 
z
M 2181 2772 
Q 1834 2772 1640 2515 
Q 1447 2259 1447 1791 
Q 1447 1309 1634 1061 
Q 1822 813 2181 813 
Q 2531 813 2725 1069 
Q 2919 1325 2919 1791 
Q 2919 2259 2725 2515 
Q 2531 2772 2181 2772 
z
" transform="scale(0.015625)"/>
       <path id="DejaVuSans-Bold-49" d="M 588 4666 
L 1791 4666 
L 1791 0 
L 588 0 
L 588 4666 
z
" transform="scale(0.015625)"/>
       <path id="DejaVuSans-Bold-63" d="M 3366 3391 
L 3366 2478 
Q 3138 2634 2908 2709 
Q 2678 2784 2431 2784 
Q 1963 2784 1702 2511 
Q 1441 2238 1441 1747 
Q 1441 1256 1702 982 
Q 1963 709 2431 709 
Q 2694 709 2930 787 
Q 3166 866 3366 1019 
L 3366 103 
Q 3103 6 2833 -42 
Q 2563 -91 2291 -91 
Q 1344 -91 809 395 
Q 275 881 275 1747 
Q 275 2613 809 3098 
Q 1344 3584 2291 3584 
Q 2566 3584 2833 3536 
Q 3100 3488 3366 3391 
z
" transform="scale(0.015625)"/>
      </defs>
      <use xlink:href="#DejaVuSans-Bold-25"/>
      <use xlink:href="#DejaVuSans-Bold-20" x="100.195312"/>
      <use xlink:href="#DejaVuSans-Bold-6f" x="135.009766"/>
      <use xlink:href="#DejaVuSans-Bold-66" x="203.710938"/>
      <use xlink:href="#DejaVuSans-Bold-20" x="247.216797"/>
      <use xlink:href="#DejaVuSans-Bold-52" x="282.03125"/>
      <use xlink:href="#DejaVuSans-Bold-65" x="359.033203"/>
      <use xlink:href="#DejaVuSans-Bold-6d" x="426.855469"/>
      <use xlink:href="#DejaVuSans-Bold-61" x="531.054688"/>
      <use xlink:href="#DejaVuSans-Bold-69" x="598.535156"/>
      <use xlink:href="#DejaVuSans-Bold-6e" x="632.8125"/>
      <use xlink:href="#DejaVuSans-Bold-69" x="704.003906"/>
      <use xlink:href="#DejaVuSans-Bold-6e" x="738.28125"/>
      <use xlink:href="#DejaVuSans-Bold-67" x="809.472656"/>
      <use xlink:href="#DejaVuSans-Bold-20" x="881.054688"/>
      <use xlink:href="#DejaVuSans-Bold-49" x="915.869141"/>
      <use xlink:href="#DejaVuSans-Bold-63" x="953.076172"/>
      <use xlink:href="#DejaVuSans-Bold-65" x="1012.353516"/>
     </g>
    </g>
   </g>
   <g id="line2d_12">
    <path d="M 157.957424 145.352 
L 174.763485 150.224269 
L 183.166515 152.93734 
L 189.468788 155.140869 
L 197.871818 158.420834 
L 210.476364 163.429928 
L 229.383182 170.958556 
L 237.786212 174.286573 
L 244.088485 176.978098 
L 254.592273 181.866115 
L 260.894545 185.094661 
L 284.002879 196.963473 
L 298.708182 204.001735 
L 311.312727 209.878084 
L 319.715758 213.996853 
L 326.01803 217.419205 
L 332.320303 221.069542 
L 342.824091 227.47052 
L 365.932424 241.476748 
L 374.335455 246.136599 
L 401.645303 260.892476 
L 412.149091 266.798041 
L 418.451364 270.516562 
L 433.156667 279.215022 
L 441.559697 284.031956 
L 454.164242 290.908099 
L 464.66803 296.149691 
L 473.071061 300.148343 
L 489.877121 307.845228 
L 496.179394 310.587846 
L 502.481667 313.198764 
L 519.287727 319.491861 
L 529.791515 323.15937 
L 552.899848 330.93715 
L 571.806667 336.809892 
L 580.209697 339.181435 
L 630.627879 353.107403 
L 639.030909 355.228765 
L 649.534697 357.667406 
L 662.139242 360.629095 
L 699.952879 370.059818 
L 710.456667 372.367528 
L 727.262727 375.750547 
L 746.169545 377.582189 
L 746.169545 377.582189 
" clip-path="url(#p61dae7ba8b)" style="fill: none; stroke: #f66200; stroke-opacity: 0.3; stroke-width: 2; stroke-linecap: square"/>
   </g>
   <g id="line2d_13">
    <path d="M 115.942273 137.098619 
L 118.04303 137.346033 
L 120.143788 137.588967 
L 122.244545 137.830037 
L 124.345303 138.090279 
L 126.446061 138.371325 
L 128.546818 138.636189 
L 130.647576 138.904889 
L 132.748333 139.186417 
L 134.849091 139.464836 
L 136.949848 139.745812 
L 139.050606 140.290501 
L 141.151364 140.848623 
L 143.252121 141.394562 
L 145.352879 141.950618 
L 147.453636 142.513196 
L 149.554394 143.079727 
L 151.655152 143.652971 
L 153.755909 144.206389 
L 155.856667 144.765599 
L 157.957424 145.352 
" clip-path="url(#p61dae7ba8b)" style="fill: none; stroke: #000000; stroke-opacity: 0.3; stroke-width: 2; stroke-linecap: square"/>
   </g>
   <g id="line2d_14">
    <path d="M 157.957424 145.352 
L 202.073333 158.675121 
L 220.980152 164.720569 
L 237.786212 170.488749 
L 256.69303 177.481946 
L 273.499091 183.789501 
L 300.808939 193.821888 
L 326.01803 203.4129 
L 332.320303 205.811372 
L 340.723333 208.880432 
L 351.227121 213.068401 
L 359.630152 216.651966 
L 368.033182 220.350577 
L 374.335455 223.216064 
L 382.738485 227.185417 
L 393.242273 231.731863 
L 405.846818 237.008198 
L 416.350606 241.248422 
L 435.257424 248.359389 
L 441.559697 250.668685 
L 449.962727 253.367094 
L 470.970303 259.960471 
L 494.078636 268.023687 
L 510.884697 274.241248 
L 523.489242 278.694706 
L 548.698333 287.782258 
L 563.403636 293.536427 
L 586.51197 302.021588 
L 592.814242 304.03636 
L 615.922576 310.846249 
L 655.83697 322.399975 
L 668.441515 326.016221 
L 695.751364 333.058767 
L 714.658182 337.869395 
L 727.262727 341.183604 
L 746.169545 343.536252 
L 746.169545 343.536252 
" clip-path="url(#p61dae7ba8b)" style="fill: none; stroke: #822900; stroke-opacity: 0.3; stroke-width: 2; stroke-linecap: square"/>
   </g>
   <g id="line2d_15">
    <path d="M 115.942273 136.806602 
L 118.04303 137.072098 
L 120.143788 137.342716 
L 122.244545 137.60953 
L 124.345303 137.884951 
L 126.446061 138.170893 
L 128.546818 138.433755 
L 130.647576 138.697302 
L 132.748333 138.975811 
L 134.849091 139.245538 
L 136.949848 139.517268 
L 139.050606 140.068148 
L 141.151364 140.615668 
L 143.252121 141.161165 
L 145.352879 141.715245 
L 147.453636 142.282615 
L 149.554394 142.881326 
L 151.655152 143.495133 
L 153.755909 144.115561 
L 155.856667 144.736638 
L 157.957424 145.352 
" clip-path="url(#p61dae7ba8b)" style="fill: none; stroke: #000000; stroke-opacity: 0.3; stroke-width: 2; stroke-linecap: square"/>
   </g>
   <g id="line2d_16">
    <path d="M 157.957424 145.352 
L 168.461212 149.11088 
L 178.965 153.11247 
L 185.267273 155.735292 
L 195.771061 160.514986 
L 208.375606 166.634188 
L 214.677879 169.963732 
L 233.584697 180.24767 
L 239.88697 183.507887 
L 246.189242 187.055616 
L 250.390758 189.629671 
L 258.793788 195.299747 
L 273.499091 205.614609 
L 286.103636 214.791747 
L 302.909697 227.652984 
L 311.312727 234.791028 
L 315.514242 238.453672 
L 332.320303 253.401812 
L 338.622576 258.581255 
L 347.025606 265.148692 
L 353.327879 270.036138 
L 359.630152 274.949471 
L 372.234697 284.953755 
L 391.141515 300.086913 
L 399.544545 306.393465 
L 403.746061 309.453376 
L 410.048333 313.679187 
L 435.257424 329.350445 
L 439.458939 331.821904 
L 447.86197 336.604202 
L 464.66803 346.621274 
L 479.373333 354.617129 
L 494.078636 362.466323 
L 502.481667 366.5708 
L 527.690758 378.744395 
L 550.799091 389.720532 
L 561.302879 394.260827 
L 569.705909 397.620003 
L 582.310455 402.189309 
L 590.713485 405.248565 
L 609.620303 412.108824 
L 622.224848 416.417331 
L 630.627879 419.084255 
L 641.131667 422.063491 
L 670.542273 430.031805 
L 691.549848 435.051791 
L 704.154394 437.823265 
L 718.859697 441.195911 
L 727.262727 442.953921 
L 744.068788 444.831018 
L 746.169545 444.993379 
L 746.169545 444.993379 
" clip-path="url(#p61dae7ba8b)" style="fill: none; stroke: #f76800; stroke-opacity: 0.3; stroke-width: 2; stroke-linecap: square"/>
   </g>
   <g id="line2d_17">
    <path d="M 115.942273 136.462656 
L 118.04303 136.708952 
L 120.143788 136.96405 
L 122.244545 137.208449 
L 124.345303 137.461454 
L 126.446061 137.730204 
L 128.546818 137.976061 
L 130.647576 138.222237 
L 132.748333 138.486996 
L 134.849091 138.748387 
L 136.949848 139.018848 
L 139.050606 139.556089 
L 141.151364 140.103012 
L 143.252121 140.672641 
L 145.352879 141.254661 
L 147.453636 141.87777 
L 149.554394 142.534965 
L 151.655152 143.202456 
L 153.755909 143.908955 
L 155.856667 144.621135 
L 157.957424 145.352 
" clip-path="url(#p61dae7ba8b)" style="fill: none; stroke: #000000; stroke-opacity: 0.3; stroke-width: 2; stroke-linecap: square"/>
   </g>
   <g id="line2d_18">
    <path d="M 157.957424 145.352 
L 162.158939 147.089676 
L 166.360455 149.003849 
L 170.56197 151.146897 
L 176.864242 154.697681 
L 183.166515 158.584897 
L 189.468788 162.635655 
L 193.670303 165.583243 
L 197.871818 168.765075 
L 202.073333 172.17936 
L 208.375606 177.693327 
L 214.677879 183.407955 
L 223.080909 191.371808 
L 227.282424 195.671995 
L 235.685455 204.580383 
L 241.987727 211.304996 
L 248.29 218.278784 
L 252.491515 223.162453 
L 258.793788 230.83767 
L 275.599848 252.482197 
L 286.103636 266.282529 
L 296.607424 279.64353 
L 305.010455 290.04189 
L 315.514242 302.538829 
L 326.01803 314.690056 
L 334.421061 323.923117 
L 338.622576 328.252283 
L 347.025606 336.328752 
L 353.327879 342.141276 
L 361.730909 349.553333 
L 374.335455 359.963609 
L 382.738485 366.797502 
L 420.552121 397.444056 
L 431.055909 405.618492 
L 439.458939 411.7931 
L 447.86197 417.714394 
L 454.164242 421.7641 
L 464.66803 428.202088 
L 483.574848 439.104952 
L 494.078636 444.809573 
L 504.582424 450.26478 
L 510.884697 453.36903 
L 521.388485 458.079841 
L 533.99303 463.510637 
L 542.396061 466.833745 
L 550.799091 469.829197 
L 563.403636 473.989201 
L 571.806667 476.4624 
L 582.310455 479.211148 
L 592.814242 481.790337 
L 603.31803 484.129763 
L 615.922576 486.650641 
L 626.426364 488.543758 
L 636.930152 490.16474 
L 649.534697 491.895113 
L 664.24 493.693454 
L 687.348333 496.313999 
L 704.154394 497.991774 
L 725.16197 499.771368 
L 729.363485 500.024864 
L 746.169545 500.681299 
L 746.169545 500.681299 
" clip-path="url(#p61dae7ba8b)" style="fill: none; stroke: #662b00; stroke-opacity: 0.3; stroke-width: 2; stroke-linecap: square"/>
   </g>
   <g id="line2d_19">
    <path d="M 115.942273 135.829273 
L 118.04303 136.082331 
L 120.143788 136.326153 
L 122.244545 136.557208 
L 124.345303 136.809874 
L 126.446061 137.082286 
L 128.546818 137.350114 
L 130.647576 137.61878 
L 132.748333 137.908327 
L 134.849091 138.187467 
L 136.949848 138.472784 
L 139.050606 139.026104 
L 141.151364 139.614902 
L 143.252121 140.228214 
L 145.352879 140.876392 
L 147.453636 141.521809 
L 149.554394 142.226187 
L 151.655152 142.95443 
L 153.755909 143.732396 
L 155.856667 144.541644 
L 157.957424 145.352 
" clip-path="url(#p61dae7ba8b)" style="fill: none; stroke: #000000; stroke-opacity: 0.3; stroke-width: 2; stroke-linecap: square"/>
   </g>
   <g id="line2d_20">
    <path d="M 157.957424 145.352 
L 162.158939 146.889631 
L 166.360455 148.679374 
L 170.56197 150.654911 
L 181.065758 156.092049 
L 204.174091 168.369539 
L 208.375606 170.591559 
L 218.879394 175.85105 
L 235.685455 184.167438 
L 244.088485 188.158325 
L 262.995303 197.319223 
L 269.297576 200.988593 
L 277.700606 206.499308 
L 281.902121 209.440706 
L 290.305152 215.900683 
L 294.506667 219.267857 
L 298.708182 222.830635 
L 315.514242 237.809226 
L 328.118788 249.929178 
L 336.521818 257.762126 
L 342.824091 263.802616 
L 370.133939 291.096209 
L 382.738485 304.279837 
L 389.040758 310.471847 
L 399.544545 320.321329 
L 418.451364 336.9876 
L 426.854394 344.209667 
L 439.458939 354.869446 
L 445.761212 360.001054 
L 458.365758 369.571399 
L 464.66803 374.15527 
L 470.970303 378.447791 
L 485.675606 387.986004 
L 504.582424 399.892921 
L 512.985455 404.943156 
L 519.287727 408.842427 
L 527.690758 413.714213 
L 536.093788 418.386304 
L 546.597576 423.823043 
L 555.000606 428.013115 
L 567.605152 433.935187 
L 584.411212 442.23404 
L 594.915 447.180006 
L 603.31803 450.87953 
L 607.519545 452.56737 
L 611.721061 454.07526 
L 618.023333 456.056949 
L 626.426364 458.479777 
L 634.829394 460.71432 
L 645.333182 463.278049 
L 660.038485 466.556499 
L 678.945303 470.418112 
L 697.852121 474.20672 
L 710.456667 476.713424 
L 725.16197 479.344773 
L 727.262727 479.696985 
L 744.068788 481.077292 
L 746.169545 481.237627 
L 746.169545 481.237627 
" clip-path="url(#p61dae7ba8b)" style="fill: none; stroke: #b32700; stroke-opacity: 0.3; stroke-width: 2; stroke-linecap: square"/>
   </g>
   <g id="line2d_21">
    <path d="M 115.942273 136.304321 
L 118.04303 136.550648 
L 120.143788 136.786268 
L 122.244545 137.01658 
L 124.345303 137.25965 
L 126.446061 137.533346 
L 128.546818 137.786817 
L 130.647576 138.05062 
L 132.748333 138.344101 
L 134.849091 138.625057 
L 136.949848 138.90937 
L 139.050606 139.455185 
L 141.151364 140.02429 
L 143.252121 140.60205 
L 145.352879 141.224681 
L 147.453636 141.873998 
L 149.554394 142.548244 
L 151.655152 143.236162 
L 153.755909 143.928462 
L 155.856667 144.636551 
L 157.957424 145.352 
" clip-path="url(#p61dae7ba8b)" style="fill: none; stroke: #000000; stroke-opacity: 0.3; stroke-width: 2; stroke-linecap: square"/>
   </g>
   <g id="line2d_22">
    <path d="M 157.957424 145.352 
L 166.360455 148.50006 
L 176.864242 152.619215 
L 199.972576 162.056182 
L 212.577121 167.610059 
L 223.080909 172.466554 
L 233.584697 177.466387 
L 239.88697 180.296748 
L 246.189242 182.918414 
L 260.894545 188.918628 
L 269.297576 192.305817 
L 298.708182 203.765538 
L 309.21197 207.916257 
L 328.118788 215.822629 
L 342.824091 221.814299 
L 351.227121 225.093358 
L 384.839242 237.663934 
L 397.443788 241.89068 
L 412.149091 246.457468 
L 424.753636 250.37934 
L 452.063485 258.711145 
L 470.970303 263.848114 
L 479.373333 266.454573 
L 494.078636 271.067196 
L 512.985455 277.642792 
L 521.388485 280.149002 
L 529.791515 282.463653 
L 536.093788 283.927251 
L 561.302879 289.58486 
L 567.605152 291.117507 
L 584.411212 295.349437 
L 592.814242 297.123598 
L 601.217273 298.709111 
L 613.821818 300.653235 
L 626.426364 302.35478 
L 645.333182 304.901343 
L 664.24 307.663294 
L 676.844545 309.79578 
L 699.952879 314.030613 
L 718.859697 317.235322 
L 727.262727 318.32268 
L 741.96803 319.264165 
L 746.169545 319.467695 
L 746.169545 319.467695 
" clip-path="url(#p61dae7ba8b)" style="fill: none; stroke: #70b8ff; stroke-opacity: 0.3; stroke-width: 2; stroke-linecap: square"/>
   </g>
   <g id="line2d_23">
    <path d="M 115.942273 136.390663 
L 118.04303 136.653395 
L 120.143788 136.910778 
L 122.244545 137.160205 
L 124.345303 137.4188 
L 126.446061 137.691292 
L 128.546818 137.950367 
L 130.647576 138.203766 
L 132.748333 138.473173 
L 134.849091 138.739124 
L 136.949848 139.010499 
L 139.050606 139.56485 
L 141.151364 140.119764 
L 143.252121 140.714339 
L 145.352879 141.30818 
L 147.453636 141.927043 
L 149.554394 142.548192 
L 151.655152 143.203214 
L 153.755909 143.88514 
L 155.856667 144.611053 
L 157.957424 145.352 
" clip-path="url(#p61dae7ba8b)" style="fill: none; stroke: #000000; stroke-opacity: 0.3; stroke-width: 2; stroke-linecap: square"/>
   </g>
   <g id="line2d_24">
    <path d="M 157.957424 145.352 
L 164.259697 147.672419 
L 172.662727 151.089808 
L 181.065758 154.789261 
L 191.569545 159.653092 
L 199.972576 163.766027 
L 204.174091 165.999907 
L 218.879394 174.05414 
L 239.88697 186.087646 
L 256.69303 196.119965 
L 271.398333 204.49298 
L 277.700606 208.018234 
L 311.312727 225.750329 
L 319.715758 230.158617 
L 328.118788 234.751586 
L 342.824091 242.308584 
L 349.126364 245.477136 
L 355.428636 248.56797 
L 380.637727 261.442736 
L 397.443788 270.323682 
L 407.947576 275.338777 
L 418.451364 279.718482 
L 424.753636 282.169052 
L 435.257424 285.782202 
L 462.567273 294.667512 
L 477.272576 298.646138 
L 498.280152 303.740839 
L 506.683182 305.7255 
L 515.086212 307.992607 
L 525.59 311.06635 
L 542.396061 315.32354 
L 552.899848 317.744784 
L 569.705909 321.048966 
L 588.612727 324.334856 
L 611.721061 328.144136 
L 618.023333 329.418382 
L 626.426364 331.18686 
L 641.131667 334.016229 
L 649.534697 335.424036 
L 662.139242 337.356619 
L 681.046061 339.896101 
L 689.449091 341.017953 
L 699.952879 342.153131 
L 727.262727 344.680566 
L 746.169545 345.516377 
L 746.169545 345.516377 
" clip-path="url(#p61dae7ba8b)" style="fill: none; stroke: #fb7800; stroke-opacity: 0.3; stroke-width: 2; stroke-linecap: square"/>
   </g>
   <g id="line2d_25">
    <path d="M 115.942273 136.031906 
L 118.04303 136.271811 
L 120.143788 136.51276 
L 122.244545 136.753165 
L 124.345303 137.016503 
L 126.446061 137.301198 
L 128.546818 137.577894 
L 130.647576 137.853039 
L 132.748333 138.143031 
L 134.849091 138.423681 
L 136.949848 138.721255 
L 139.050606 139.279833 
L 141.151364 139.851512 
L 143.252121 140.45541 
L 145.352879 141.073791 
L 147.453636 141.75145 
L 149.554394 142.453263 
L 151.655152 143.161703 
L 153.755909 143.894158 
L 155.856667 144.622279 
L 157.957424 145.352 
" clip-path="url(#p61dae7ba8b)" style="fill: none; stroke: #000000; stroke-opacity: 0.3; stroke-width: 2; stroke-linecap: square"/>
   </g>
   <g id="line2d_26">
    <path d="M 157.957424 145.352 
L 164.259697 147.663783 
L 172.662727 151.015331 
L 178.965 153.83164 
L 185.267273 156.969258 
L 191.569545 160.40663 
L 199.972576 165.322021 
L 208.375606 170.570764 
L 235.685455 188.054231 
L 244.088485 193.124811 
L 256.69303 200.490538 
L 273.499091 210.214321 
L 281.902121 214.752066 
L 292.405909 220.153669 
L 313.413485 230.893913 
L 323.917273 236.805543 
L 342.824091 248.000091 
L 355.428636 255.437824 
L 363.831667 260.175321 
L 372.234697 264.88965 
L 389.040758 273.739737 
L 401.645303 279.89466 
L 407.947576 282.858282 
L 414.249848 285.96305 
L 433.156667 295.950345 
L 441.559697 300.659923 
L 452.063485 306.575864 
L 458.365758 309.899142 
L 470.970303 316.242699 
L 477.272576 319.263757 
L 489.877121 324.813571 
L 498.280152 328.187929 
L 512.985455 333.74198 
L 559.202121 350.427952 
L 571.806667 354.56755 
L 578.108939 356.528691 
L 586.51197 358.86665 
L 594.915 360.969252 
L 628.527121 368.882243 
L 651.635455 374.57063 
L 662.139242 376.905886 
L 672.64303 379.116983 
L 689.449091 382.449297 
L 712.557424 386.267739 
L 727.262727 388.668673 
L 741.96803 389.981013 
L 746.169545 390.380423 
L 746.169545 390.380423 
" clip-path="url(#p61dae7ba8b)" style="fill: none; stroke: #fb7900; stroke-opacity: 0.3; stroke-width: 2; stroke-linecap: square"/>
   </g>
   <g id="line2d_27">
    <path d="M 115.942273 136.310202 
L 118.04303 136.56213 
L 120.143788 136.813982 
L 122.244545 137.051973 
L 124.345303 137.304767 
L 126.446061 137.583174 
L 128.546818 137.849391 
L 130.647576 138.121023 
L 132.748333 138.42092 
L 134.849091 138.721006 
L 136.949848 139.018553 
L 139.050606 139.573467 
L 141.151364 140.141401 
L 143.252121 140.708428 
L 145.352879 141.306141 
L 147.453636 141.909752 
L 149.554394 142.545265 
L 151.655152 143.196525 
L 153.755909 143.873997 
L 155.856667 144.606145 
L 157.957424 145.352 
" clip-path="url(#p61dae7ba8b)" style="fill: none; stroke: #000000; stroke-opacity: 0.3; stroke-width: 2; stroke-linecap: square"/>
   </g>
   <g id="line2d_28">
    <path d="M 157.957424 145.352 
L 181.065758 151.891818 
L 189.468788 154.912545 
L 195.771061 157.70352 
L 202.073333 160.860881 
L 214.677879 167.341173 
L 225.181667 172.582494 
L 231.483939 175.84859 
L 235.685455 177.986385 
L 239.88697 180.329779 
L 248.29 185.286418 
L 262.995303 193.253432 
L 267.196818 195.284595 
L 284.002879 202.966758 
L 290.305152 205.520848 
L 298.708182 209.204893 
L 302.909697 211.27999 
L 309.21197 214.731361 
L 334.421061 229.14262 
L 338.622576 231.407782 
L 344.924848 234.428022 
L 353.327879 237.91384 
L 389.040758 252.662845 
L 395.34303 255.467507 
L 399.544545 257.219651 
L 418.451364 264.316237 
L 437.358182 271.132994 
L 454.164242 276.738837 
L 468.869545 281.763527 
L 481.474091 285.832816 
L 498.280152 291.194573 
L 506.683182 293.495461 
L 512.985455 295.564109 
L 519.287727 297.454408 
L 523.489242 298.701169 
L 527.690758 299.358858 
L 536.093788 300.432237 
L 544.496818 301.8337 
L 555.000606 304.341893 
L 565.504394 306.982177 
L 573.907424 309.096183 
L 588.612727 312.473488 
L 601.217273 315.035773 
L 618.023333 317.958442 
L 624.325606 318.928553 
L 639.030909 320.973213 
L 670.542273 326.282678 
L 681.046061 328.178993 
L 714.658182 333.692093 
L 729.363485 335.825099 
L 746.169545 337.082239 
L 746.169545 337.082239 
" clip-path="url(#p61dae7ba8b)" style="fill: none; stroke: #e34500; stroke-opacity: 0.3; stroke-width: 2; stroke-linecap: square"/>
   </g>
   <g id="line2d_29">
    <path d="M 115.942273 137.062908 
L 118.04303 137.153662 
L 120.143788 137.22303 
L 122.244545 137.406197 
L 124.345303 137.694649 
L 126.446061 138.005042 
L 128.546818 138.256131 
L 130.647576 138.543173 
L 132.748333 138.920282 
L 134.849091 139.260824 
L 136.949848 139.623375 
L 139.050606 140.162669 
L 141.151364 140.706996 
L 143.252121 141.266722 
L 145.352879 141.870759 
L 147.453636 142.482005 
L 149.554394 143.057365 
L 151.655152 143.628 
L 153.755909 144.207336 
L 155.856667 144.776383 
L 157.957424 145.352 
" clip-path="url(#p61dae7ba8b)" style="fill: none; stroke: #000000; stroke-opacity: 0.3; stroke-width: 2; stroke-linecap: square"/>
   </g>
   <g id="line2d_30">
    <path d="M 157.957424 145.352 
L 166.360455 148.910599 
L 172.662727 151.298062 
L 181.065758 154.361846 
L 189.468788 157.213605 
L 193.670303 158.557312 
L 210.476364 163.077272 
L 218.879394 166.080884 
L 223.080909 167.798822 
L 231.483939 171.24966 
L 237.786212 173.881106 
L 241.987727 175.864403 
L 246.189242 178.072756 
L 252.491515 182.033653 
L 256.69303 184.849199 
L 267.196818 192.288852 
L 273.499091 197.627674 
L 279.801364 203.135381 
L 284.002879 206.538099 
L 292.405909 212.948549 
L 296.607424 215.825535 
L 319.715758 230.478326 
L 328.118788 235.541068 
L 332.320303 237.820752 
L 340.723333 241.859398 
L 347.025606 244.725462 
L 351.227121 246.255852 
L 363.831667 250.598694 
L 368.033182 252.247642 
L 372.234697 254.110209 
L 382.738485 259.218641 
L 389.040758 262.68048 
L 393.242273 265.447759 
L 399.544545 269.718258 
L 405.846818 273.691779 
L 410.048333 276.166046 
L 416.350606 279.777247 
L 422.652879 283.821899 
L 426.854394 286.202299 
L 431.055909 288.360823 
L 435.257424 290.144611 
L 447.86197 295.08105 
L 468.869545 303.408588 
L 481.474091 308.399705 
L 487.776364 310.998454 
L 502.481667 316.914318 
L 512.985455 321.888543 
L 521.388485 325.990374 
L 527.690758 328.689151 
L 536.093788 332.18847 
L 542.396061 334.653093 
L 550.799091 337.462757 
L 569.705909 343.761443 
L 580.209697 347.254067 
L 590.713485 350.558176 
L 597.015758 352.20809 
L 603.31803 353.608485 
L 613.821818 355.633461 
L 628.527121 358.359955 
L 632.728636 359.273852 
L 641.131667 361.488709 
L 651.635455 364.295479 
L 660.038485 366.240566 
L 668.441515 367.845094 
L 672.64303 368.472354 
L 678.945303 369.131133 
L 697.852121 370.939386 
L 729.363485 374.593097 
L 746.169545 375.541798 
L 746.169545 375.541798 
" clip-path="url(#p61dae7ba8b)" style="fill: none; stroke: #f76800; stroke-opacity: 0.3; stroke-width: 2; stroke-linecap: square"/>
   </g>
   <g id="line2d_31">
    <path d="M 115.942273 135.543263 
L 118.04303 135.632443 
L 120.143788 135.706403 
L 122.244545 135.876047 
L 124.345303 136.144051 
L 126.446061 136.453306 
L 128.546818 136.709761 
L 130.647576 136.985601 
L 132.748333 137.332385 
L 134.849091 137.722596 
L 136.949848 138.122923 
L 139.050606 138.678435 
L 141.151364 139.248581 
L 143.252121 139.849838 
L 145.352879 140.513177 
L 147.453636 141.220915 
L 149.554394 141.927304 
L 151.655152 142.651403 
L 153.755909 143.534755 
L 155.856667 144.442904 
L 157.957424 145.352 
" clip-path="url(#p61dae7ba8b)" style="fill: none; stroke: #000000; stroke-opacity: 0.3; stroke-width: 2; stroke-linecap: square"/>
   </g>
   <g id="line2d_32">
    <path d="M 157.957424 145.352 
L 164.259697 147.642047 
L 174.763485 150.877635 
L 178.965 152.412916 
L 183.166515 154.240055 
L 189.468788 157.475938 
L 195.771061 160.930688 
L 197.871818 162.281877 
L 202.073333 165.446747 
L 206.274848 168.798879 
L 216.778636 176.487443 
L 223.080909 180.686309 
L 235.685455 188.581368 
L 239.88697 191.078385 
L 244.088485 193.294496 
L 260.894545 201.828957 
L 265.096061 204.188955 
L 271.398333 208.094511 
L 284.002879 216.355091 
L 294.506667 223.382416 
L 298.708182 226.373595 
L 302.909697 229.680331 
L 307.111212 233.114311 
L 319.715758 242.983198 
L 323.917273 246.586273 
L 332.320303 253.927776 
L 342.824091 262.500831 
L 351.227121 269.15864 
L 365.932424 281.123596 
L 374.335455 287.640579 
L 378.53697 290.988964 
L 384.839242 295.624997 
L 393.242273 301.205867 
L 397.443788 303.87325 
L 401.645303 306.229463 
L 407.947576 309.225879 
L 426.854394 318.164859 
L 439.458939 324.077482 
L 454.164242 330.684771 
L 468.869545 336.277914 
L 473.071061 337.763193 
L 477.272576 339.020221 
L 487.776364 341.855518 
L 494.078636 343.625058 
L 496.179394 344.248079 
L 500.380909 345.084097 
L 508.783939 346.616228 
L 515.086212 348.060144 
L 523.489242 350.300745 
L 538.194545 354.290498 
L 548.698333 356.880045 
L 557.101364 358.592895 
L 576.008182 362.110164 
L 584.411212 363.864314 
L 592.814242 365.64249 
L 603.31803 367.506468 
L 615.922576 369.379499 
L 622.224848 370.10071 
L 630.627879 370.796843 
L 651.635455 372.350454 
L 657.937727 373.101468 
L 664.24 374.135842 
L 672.64303 375.607731 
L 678.945303 377.037829 
L 693.650606 380.450174 
L 704.154394 382.728693 
L 716.758939 385.558404 
L 725.16197 386.896891 
L 727.262727 387.209303 
L 735.665758 388.07167 
L 741.96803 388.692265 
L 746.169545 388.91125 
L 746.169545 388.91125 
" clip-path="url(#p61dae7ba8b)" style="fill: none; stroke: #9d2800; stroke-opacity: 0.3; stroke-width: 2; stroke-linecap: square"/>
   </g>
   <g id="line2d_33">
    <path d="M 115.942273 136.806283 
L 118.04303 136.888508 
L 120.143788 136.937251 
L 122.244545 137.092703 
L 124.345303 137.35716 
L 126.446061 137.658654 
L 128.546818 137.896332 
L 130.647576 138.161824 
L 132.748333 138.525984 
L 134.849091 138.852958 
L 136.949848 139.199022 
L 139.050606 139.683689 
L 141.151364 140.219777 
L 143.252121 140.752033 
L 145.352879 141.313773 
L 147.453636 141.917501 
L 149.554394 142.48996 
L 151.655152 143.150758 
L 153.755909 143.858329 
L 155.856667 144.605323 
L 157.957424 145.352 
" clip-path="url(#p61dae7ba8b)" style="fill: none; stroke: #000000; stroke-opacity: 0.3; stroke-width: 2; stroke-linecap: square"/>
   </g>
   <g id="line2d_34">
    <path d="M 157.957424 145.352 
L 162.158939 148.145963 
L 166.360455 151.15258 
L 170.56197 154.372471 
L 174.763485 157.798094 
L 178.965 161.532527 
L 183.166515 165.664353 
L 187.36803 170.244135 
L 193.670303 177.58432 
L 199.972576 185.162233 
L 204.174091 190.767932 
L 212.577121 202.62816 
L 237.786212 238.428221 
L 244.088485 246.926779 
L 258.793788 266.145756 
L 267.196818 276.782918 
L 275.599848 287.05235 
L 284.002879 296.903615 
L 290.305152 304.037583 
L 298.708182 313.140065 
L 307.111212 321.785782 
L 321.816515 336.499948 
L 330.219545 344.724133 
L 340.723333 354.713899 
L 347.025606 360.602361 
L 355.428636 368.08521 
L 361.730909 373.315614 
L 372.234697 381.664767 
L 380.637727 388.005774 
L 386.94 392.471472 
L 397.443788 399.637556 
L 405.846818 405.039629 
L 412.149091 408.857126 
L 418.451364 412.457064 
L 426.854394 416.937124 
L 433.156667 420.038719 
L 439.458939 422.864319 
L 445.761212 425.52712 
L 454.164242 428.693071 
L 462.567273 431.559663 
L 464.66803 432.168895 
L 477.272576 433.874183 
L 494.078636 436.119307 
L 508.783939 438.415978 
L 523.489242 441.08257 
L 538.194545 444.091945 
L 559.202121 448.5609 
L 567.605152 450.241349 
L 578.108939 452.104608 
L 590.713485 454.124541 
L 601.217273 455.577461 
L 611.721061 456.755816 
L 622.224848 457.684464 
L 632.728636 458.318984 
L 647.433939 459.099072 
L 670.542273 460.593748 
L 727.262727 464.806995 
L 746.169545 465.499084 
L 746.169545 465.499084 
" clip-path="url(#p61dae7ba8b)" style="fill: none; stroke: #c12a00; stroke-opacity: 0.3; stroke-width: 2; stroke-linecap: square"/>
   </g>
   <g id="line2d_35">
    <path d="M 115.942273 133.078013 
L 118.04303 133.165102 
L 120.143788 133.236693 
L 122.244545 133.406006 
L 124.345303 133.633277 
L 126.446061 133.879231 
L 128.546818 134.090594 
L 130.647576 134.3247 
L 132.748333 134.619633 
L 134.849091 134.901238 
L 136.949848 135.340738 
L 139.050606 136.145451 
L 141.151364 136.966139 
L 143.252121 137.812414 
L 145.352879 138.675173 
L 147.453636 139.583719 
L 149.554394 140.560953 
L 151.655152 141.643012 
L 153.755909 142.812324 
L 155.856667 144.044297 
L 157.957424 145.352 
" clip-path="url(#p61dae7ba8b)" style="fill: none; stroke: #000000; stroke-opacity: 0.3; stroke-width: 2; stroke-linecap: square"/>
   </g>
   <g id="line2d_36">
    <path d="M 157.957424 145.352 
L 166.360455 149.309171 
L 176.864242 154.603434 
L 183.166515 158.009199 
L 187.36803 160.544219 
L 193.670303 164.658227 
L 199.972576 169.096127 
L 204.174091 172.270251 
L 210.476364 177.398898 
L 216.778636 182.843887 
L 241.987727 205.863209 
L 265.096061 225.746001 
L 277.700606 237.349756 
L 284.002879 243.381102 
L 302.909697 261.974807 
L 311.312727 269.553374 
L 317.615 274.899196 
L 323.917273 279.862607 
L 330.219545 284.542812 
L 342.824091 293.389366 
L 353.327879 300.271335 
L 368.033182 309.472593 
L 378.53697 315.813183 
L 384.839242 319.309551 
L 386.94 320.34429 
L 395.34303 323.810489 
L 405.846818 328.11112 
L 410.048333 330.116095 
L 416.350606 333.066916 
L 439.458939 343.197827 
L 447.86197 346.655575 
L 473.071061 356.549146 
L 483.574848 360.441088 
L 523.489242 374.510756 
L 546.597576 382.794249 
L 557.101364 386.687309 
L 565.504394 389.529132 
L 573.907424 392.117251 
L 584.411212 394.797728 
L 592.814242 396.698317 
L 613.821818 401.161391 
L 624.325606 403.012189 
L 641.131667 405.68286 
L 653.736212 407.332397 
L 666.340758 408.86829 
L 702.053636 412.985489 
L 729.363485 416.435167 
L 746.169545 417.55166 
L 746.169545 417.55166 
" clip-path="url(#p61dae7ba8b)" style="fill: none; stroke: #fa7500; stroke-opacity: 0.3; stroke-width: 2; stroke-linecap: square"/>
   </g>
   <g id="line2d_37">
    <path d="M 115.942273 132.653193 
L 118.04303 133.032952 
L 120.143788 133.415419 
L 122.244545 133.78046 
L 124.345303 134.13987 
L 126.446061 134.499746 
L 128.546818 134.881946 
L 130.647576 135.27389 
L 132.748333 135.678351 
L 134.849091 136.079783 
L 136.949848 136.491723 
L 139.050606 137.280974 
L 141.151364 138.082165 
L 143.252121 138.924387 
L 145.352879 139.777482 
L 147.453636 140.686879 
L 149.554394 141.601657 
L 151.655152 142.531056 
L 153.755909 143.464757 
L 155.856667 144.41099 
L 157.957424 145.352 
" clip-path="url(#p61dae7ba8b)" style="fill: none; stroke: #000000; stroke-opacity: 0.3; stroke-width: 2; stroke-linecap: square"/>
   </g>
   <g id="line2d_38">
    <path d="M 157.957424 145.352 
L 164.259697 148.192262 
L 168.461212 150.299725 
L 172.662727 152.590502 
L 178.965 156.295008 
L 183.166515 159.00655 
L 187.36803 161.917579 
L 193.670303 166.716865 
L 199.972576 171.921498 
L 208.375606 179.199033 
L 212.577121 182.915724 
L 218.879394 188.884185 
L 220.980152 190.9583 
L 227.282424 197.903918 
L 233.584697 205.103133 
L 241.987727 215.184889 
L 250.390758 225.889471 
L 254.592273 231.226263 
L 265.096061 244.055614 
L 271.398333 251.354828 
L 277.700606 258.215686 
L 281.902121 262.534271 
L 286.103636 266.548867 
L 290.305152 270.288648 
L 300.808939 279.067149 
L 305.010455 282.351279 
L 309.21197 285.432964 
L 315.514242 289.729686 
L 321.816515 293.68372 
L 332.320303 299.722112 
L 340.723333 304.271807 
L 363.831667 315.507689 
L 370.133939 318.23909 
L 376.436212 320.711159 
L 382.738485 322.84678 
L 384.839242 323.496134 
L 386.94 323.870364 
L 393.242273 324.269774 
L 399.544545 324.440907 
L 410.048333 324.411326 
L 416.350606 324.161841 
L 445.761212 322.788471 
L 464.66803 321.98214 
L 481.474091 320.946435 
L 498.280152 319.58845 
L 544.496818 315.59908 
L 552.899848 315.182527 
L 584.411212 313.792914 
L 592.814242 313.208869 
L 603.31803 312.259818 
L 618.023333 310.745628 
L 622.224848 310.300881 
L 641.131667 310.128549 
L 662.139242 310.284859 
L 685.247576 310.462915 
L 708.355909 310.351073 
L 729.363485 310.253598 
L 746.169545 310.275116 
L 746.169545 310.275116 
" clip-path="url(#p61dae7ba8b)" style="fill: none; stroke: #fd9b00; stroke-opacity: 0.3; stroke-width: 2; stroke-linecap: square"/>
   </g>
   <g id="line2d_39">
    <path d="M 115.942273 136.793501 
L 118.04303 136.859353 
L 120.143788 136.912608 
L 122.244545 137.044984 
L 124.345303 137.238215 
L 126.446061 137.468469 
L 128.546818 137.660907 
L 130.647576 137.874813 
L 132.748333 138.134248 
L 134.849091 138.373545 
L 136.949848 138.636973 
L 139.050606 139.091049 
L 141.151364 139.566588 
L 143.252121 140.060851 
L 145.352879 140.663274 
L 147.453636 141.30989 
L 149.554394 141.992747 
L 151.655152 142.731242 
L 153.755909 143.574582 
L 155.856667 144.449832 
L 157.957424 145.352 
" clip-path="url(#p61dae7ba8b)" style="fill: none; stroke: #000000; stroke-opacity: 0.3; stroke-width: 2; stroke-linecap: square"/>
   </g>
   <g id="line2d_40">
    <path d="M 764.551174 349.551095 
L 774.004583 349.551095 
L 774.004583 311.113569 
L 764.551174 311.113569 
L 764.551174 349.551095 
" clip-path="url(#p61dae7ba8b)" style="fill: none; stroke: #92b9c1; stroke-width: 2; stroke-linecap: square"/>
   </g>
   <g id="line2d_41">
    <path d="M 769.277879 349.551095 
L 769.277879 389.225553 
" clip-path="url(#p61dae7ba8b)" style="fill: none; stroke: #92b9c1; stroke-linecap: square"/>
   </g>
   <g id="line2d_42">
    <path d="M 769.277879 311.113569 
L 769.277879 282.373935 
" clip-path="url(#p61dae7ba8b)" style="fill: none; stroke: #92b9c1; stroke-linecap: square"/>
   </g>
   <g id="line2d_43">
    <path d="M 766.914527 389.225553 
L 771.641231 389.225553 
" clip-path="url(#p61dae7ba8b)" style="fill: none; stroke: #92b9c1; stroke-linecap: square"/>
   </g>
   <g id="line2d_44">
    <path d="M 766.914527 282.373935 
L 771.641231 282.373935 
" clip-path="url(#p61dae7ba8b)" style="fill: none; stroke: #92b9c1; stroke-linecap: square"/>
   </g>
   <g id="line2d_45">
    <path d="M 777.15572 405.117992 
L 786.609129 405.117992 
L 786.609129 335.426776 
L 777.15572 335.426776 
L 777.15572 405.117992 
" clip-path="url(#p61dae7ba8b)" style="fill: none; stroke: #ff8f00; stroke-width: 2; stroke-linecap: square"/>
   </g>
   <g id="line2d_46">
    <path d="M 781.882424 405.117992 
L 781.882424 433.943385 
" clip-path="url(#p61dae7ba8b)" style="fill: none; stroke: #ff8f00; stroke-linecap: square"/>
   </g>
   <g id="line2d_47">
    <path d="M 781.882424 335.426776 
L 781.882424 304.091839 
" clip-path="url(#p61dae7ba8b)" style="fill: none; stroke: #ff8f00; stroke-linecap: square"/>
   </g>
   <g id="line2d_48">
    <path d="M 779.519072 433.943385 
L 784.245777 433.943385 
" clip-path="url(#p61dae7ba8b)" style="fill: none; stroke: #ff8f00; stroke-linecap: square"/>
   </g>
   <g id="line2d_49">
    <path d="M 779.519072 304.091839 
L 784.245777 304.091839 
" clip-path="url(#p61dae7ba8b)" style="fill: none; stroke: #ff8f00; stroke-linecap: square"/>
   </g>
   <g id="line2d_50">
    <path d="M 789.760265 499.950497 
L 799.213674 499.950497 
L 799.213674 403.6892 
L 789.760265 403.6892 
L 789.760265 499.950497 
" clip-path="url(#p61dae7ba8b)" style="fill: none; stroke: #662b00; stroke-width: 2; stroke-linecap: square"/>
   </g>
   <g id="line2d_51">
    <path d="M 794.48697 499.950497 
L 794.48697 514.506267 
" clip-path="url(#p61dae7ba8b)" style="fill: none; stroke: #662b00; stroke-linecap: square"/>
   </g>
   <g id="line2d_52">
    <path d="M 794.48697 403.6892 
L 794.48697 346.699912 
" clip-path="url(#p61dae7ba8b)" style="fill: none; stroke: #662b00; stroke-linecap: square"/>
   </g>
   <g id="line2d_53">
    <path d="M 792.123617 514.506267 
L 796.850322 514.506267 
" clip-path="url(#p61dae7ba8b)" style="fill: none; stroke: #662b00; stroke-linecap: square"/>
   </g>
   <g id="line2d_54">
    <path d="M 792.123617 346.699912 
L 796.850322 346.699912 
" clip-path="url(#p61dae7ba8b)" style="fill: none; stroke: #662b00; stroke-linecap: square"/>
   </g>
   <g id="line2d_55">
    <path d="M 764.551174 327.72174 
L 774.004583 327.72174 
" clip-path="url(#p61dae7ba8b)" style="fill: none; stroke: #92b9c1; stroke-width: 4; stroke-linecap: square"/>
   </g>
   <g id="line2d_56">
    <path d="M 777.15572 362.968455 
L 786.609129 362.968455 
" clip-path="url(#p61dae7ba8b)" style="fill: none; stroke: #ff8f00; stroke-width: 4; stroke-linecap: square"/>
   </g>
   <g id="line2d_57">
    <path d="M 789.760265 449.275479 
L 799.213674 449.275479 
" clip-path="url(#p61dae7ba8b)" style="fill: none; stroke: #662b00; stroke-width: 4; stroke-linecap: square"/>
   </g>
   <g id="patch_3">
    <path d="M 109.64 515.56 
L 109.64 52.8 
" style="fill: none; stroke: #000000; stroke-width: 0.8; stroke-linejoin: miter; stroke-linecap: square"/>
   </g>
   <g id="patch_4">
    <path d="M 109.64 515.56 
L 802.89 515.56 
" style="fill: none; stroke: #000000; stroke-width: 0.8; stroke-linejoin: miter; stroke-linecap: square"/>
   </g>
   <g id="text_14">
    <!-- +1.5C -->
    <g style="fill: #92b9c1" transform="translate(802.89 332.688615) scale(0.18 -0.18)">
     <defs>
      <path id="DejaVuSans-Bold-2b" d="M 3053 4013 
L 3053 2375 
L 4684 2375 
L 4684 1638 
L 3053 1638 
L 3053 0 
L 2309 0 
L 2309 1638 
L 678 1638 
L 678 2375 
L 2309 2375 
L 2309 4013 
L 3053 4013 
z
" transform="scale(0.015625)"/>
      <path id="DejaVuSans-Bold-31" d="M 750 831 
L 1813 831 
L 1813 3847 
L 722 3622 
L 722 4441 
L 1806 4666 
L 2950 4666 
L 2950 831 
L 4013 831 
L 4013 0 
L 750 0 
L 750 831 
z
" transform="scale(0.015625)"/>
      <path id="DejaVuSans-Bold-2e" d="M 653 1209 
L 1778 1209 
L 1778 0 
L 653 0 
L 653 1209 
z
" transform="scale(0.015625)"/>
      <path id="DejaVuSans-Bold-35" d="M 678 4666 
L 3669 4666 
L 3669 3781 
L 1638 3781 
L 1638 3059 
Q 1775 3097 1914 3117 
Q 2053 3138 2203 3138 
Q 3056 3138 3531 2711 
Q 4006 2284 4006 1522 
Q 4006 766 3489 337 
Q 2972 -91 2053 -91 
Q 1656 -91 1267 -14 
Q 878 63 494 219 
L 494 1166 
Q 875 947 1217 837 
Q 1559 728 1863 728 
Q 2300 728 2551 942 
Q 2803 1156 2803 1522 
Q 2803 1891 2551 2103 
Q 2300 2316 1863 2316 
Q 1603 2316 1309 2248 
Q 1016 2181 678 2041 
L 678 4666 
z
" transform="scale(0.015625)"/>
      <path id="DejaVuSans-Bold-b0" d="M 1600 4288 
Q 1375 4288 1219 4131 
Q 1063 3975 1063 3750 
Q 1063 3525 1217 3372 
Q 1372 3219 1600 3219 
Q 1825 3219 1981 3373 
Q 2138 3528 2138 3750 
Q 2138 3975 1980 4131 
Q 1822 4288 1600 4288 
z
M 1600 4794 
Q 1806 4794 1997 4714 
Q 2188 4634 2338 4488 
Q 2484 4338 2561 4150 
Q 2638 3963 2638 3750 
Q 2638 3541 2561 3352 
Q 2484 3163 2344 3022 
Q 2194 2872 2000 2792 
Q 1806 2713 1594 2713 
Q 1153 2713 854 3011 
Q 556 3309 556 3750 
Q 556 4191 857 4492 
Q 1159 4794 1600 4794 
z
" transform="scale(0.015625)"/>
      <path id="DejaVuSans-Bold-43" d="M 4288 256 
Q 3956 84 3597 -3 
Q 3238 -91 2847 -91 
Q 1681 -91 1000 561 
Q 319 1213 319 2328 
Q 319 3447 1000 4098 
Q 1681 4750 2847 4750 
Q 3238 4750 3597 4662 
Q 3956 4575 4288 4403 
L 4288 3438 
Q 3953 3666 3628 3772 
Q 3303 3878 2944 3878 
Q 2300 3878 1931 3465 
Q 1563 3053 1563 2328 
Q 1563 1606 1931 1193 
Q 2300 781 2944 781 
Q 3303 781 3628 887 
Q 3953 994 4288 1222 
L 4288 256 
z
" transform="scale(0.015625)"/>
     </defs>
     <use xlink:href="#DejaVuSans-Bold-2b"/>
     <use xlink:href="#DejaVuSans-Bold-31" x="83.789062"/>
     <use xlink:href="#DejaVuSans-Bold-2e" x="153.369141"/>
     <use xlink:href="#DejaVuSans-Bold-35" x="191.357422"/>
     <use xlink:href="#DejaVuSans-Bold-b0" x="260.9375"/>
     <use xlink:href="#DejaVuSans-Bold-43" x="310.9375"/>
    </g>
   </g>
   <g id="text_15">
    <!-- +2.0C -->
    <g style="fill: #ff8f00" transform="translate(802.89 367.93533) scale(0.18 -0.18)">
     <defs>
      <path id="DejaVuSans-Bold-32" d="M 1844 884 
L 3897 884 
L 3897 0 
L 506 0 
L 506 884 
L 2209 2388 
Q 2438 2594 2547 2791 
Q 2656 2988 2656 3200 
Q 2656 3528 2436 3728 
Q 2216 3928 1850 3928 
Q 1569 3928 1234 3808 
Q 900 3688 519 3450 
L 519 4475 
Q 925 4609 1322 4679 
Q 1719 4750 2100 4750 
Q 2938 4750 3402 4381 
Q 3866 4013 3866 3353 
Q 3866 2972 3669 2642 
Q 3472 2313 2841 1759 
L 1844 884 
z
" transform="scale(0.015625)"/>
      <path id="DejaVuSans-Bold-30" d="M 2944 2338 
Q 2944 3213 2780 3570 
Q 2616 3928 2228 3928 
Q 1841 3928 1675 3570 
Q 1509 3213 1509 2338 
Q 1509 1453 1675 1090 
Q 1841 728 2228 728 
Q 2613 728 2778 1090 
Q 2944 1453 2944 2338 
z
M 4147 2328 
Q 4147 1169 3647 539 
Q 3147 -91 2228 -91 
Q 1306 -91 806 539 
Q 306 1169 306 2328 
Q 306 3491 806 4120 
Q 1306 4750 2228 4750 
Q 3147 4750 3647 4120 
Q 4147 3491 4147 2328 
z
" transform="scale(0.015625)"/>
     </defs>
     <use xlink:href="#DejaVuSans-Bold-2b"/>
     <use xlink:href="#DejaVuSans-Bold-32" x="83.789062"/>
     <use xlink:href="#DejaVuSans-Bold-2e" x="153.369141"/>
     <use xlink:href="#DejaVuSans-Bold-30" x="191.357422"/>
     <use xlink:href="#DejaVuSans-Bold-b0" x="260.9375"/>
     <use xlink:href="#DejaVuSans-Bold-43" x="310.9375"/>
    </g>
   </g>
   <g id="text_16">
    <!-- +3.0C -->
    <g style="fill: #662b00" transform="translate(802.89 454.242354) scale(0.18 -0.18)">
     <defs>
      <path id="DejaVuSans-Bold-33" d="M 2981 2516 
Q 3453 2394 3698 2092 
Q 3944 1791 3944 1325 
Q 3944 631 3412 270 
Q 2881 -91 1863 -91 
Q 1503 -91 1142 -33 
Q 781 25 428 141 
L 428 1069 
Q 766 900 1098 814 
Q 1431 728 1753 728 
Q 2231 728 2486 893 
Q 2741 1059 2741 1369 
Q 2741 1688 2480 1852 
Q 2219 2016 1709 2016 
L 1228 2016 
L 1228 2791 
L 1734 2791 
Q 2188 2791 2409 2933 
Q 2631 3075 2631 3366 
Q 2631 3634 2415 3781 
Q 2200 3928 1806 3928 
Q 1516 3928 1219 3862 
Q 922 3797 628 3669 
L 628 4550 
Q 984 4650 1334 4700 
Q 1684 4750 2022 4750 
Q 2931 4750 3382 4451 
Q 3834 4153 3834 3553 
Q 3834 3144 3618 2883 
Q 3403 2622 2981 2516 
z
" transform="scale(0.015625)"/>
     </defs>
     <use xlink:href="#DejaVuSans-Bold-2b"/>
     <use xlink:href="#DejaVuSans-Bold-33" x="83.789062"/>
     <use xlink:href="#DejaVuSans-Bold-2e" x="153.369141"/>
     <use xlink:href="#DejaVuSans-Bold-30" x="191.357422"/>
     <use xlink:href="#DejaVuSans-Bold-b0" x="260.9375"/>
     <use xlink:href="#DejaVuSans-Bold-43" x="310.9375"/>
    </g>
   </g>
   <g id="text_17">
    <!-- Glaciers of Russian Arctic -->
    <g transform="translate(283.67875 46.8) scale(0.24 -0.24)">
     <defs>
      <path id="DejaVuSans-Bold-47" d="M 4781 347 
Q 4331 128 3847 18 
Q 3363 -91 2847 -91 
Q 1681 -91 1000 561 
Q 319 1213 319 2328 
Q 319 3456 1012 4103 
Q 1706 4750 2913 4750 
Q 3378 4750 3804 4662 
Q 4231 4575 4609 4403 
L 4609 3438 
Q 4219 3659 3833 3768 
Q 3447 3878 3059 3878 
Q 2341 3878 1952 3476 
Q 1563 3075 1563 2328 
Q 1563 1588 1938 1184 
Q 2313 781 3003 781 
Q 3191 781 3352 804 
Q 3513 828 3641 878 
L 3641 1784 
L 2906 1784 
L 2906 2591 
L 4781 2591 
L 4781 347 
z
" transform="scale(0.015625)"/>
      <path id="DejaVuSans-Bold-6c" d="M 538 4863 
L 1656 4863 
L 1656 0 
L 538 0 
L 538 4863 
z
" transform="scale(0.015625)"/>
      <path id="DejaVuSans-Bold-73" d="M 3272 3391 
L 3272 2541 
Q 2913 2691 2578 2766 
Q 2244 2841 1947 2841 
Q 1628 2841 1473 2761 
Q 1319 2681 1319 2516 
Q 1319 2381 1436 2309 
Q 1553 2238 1856 2203 
L 2053 2175 
Q 2913 2066 3209 1816 
Q 3506 1566 3506 1031 
Q 3506 472 3093 190 
Q 2681 -91 1863 -91 
Q 1516 -91 1145 -36 
Q 775 19 384 128 
L 384 978 
Q 719 816 1070 734 
Q 1422 653 1784 653 
Q 2113 653 2278 743 
Q 2444 834 2444 1013 
Q 2444 1163 2330 1236 
Q 2216 1309 1875 1350 
L 1678 1375 
Q 931 1469 631 1722 
Q 331 1975 331 2491 
Q 331 3047 712 3315 
Q 1094 3584 1881 3584 
Q 2191 3584 2531 3537 
Q 2872 3491 3272 3391 
z
" transform="scale(0.015625)"/>
      <path id="DejaVuSans-Bold-75" d="M 500 1363 
L 500 3500 
L 1625 3500 
L 1625 3150 
Q 1625 2866 1622 2436 
Q 1619 2006 1619 1863 
Q 1619 1441 1641 1255 
Q 1663 1069 1716 984 
Q 1784 875 1895 815 
Q 2006 756 2150 756 
Q 2500 756 2700 1025 
Q 2900 1294 2900 1772 
L 2900 3500 
L 4019 3500 
L 4019 0 
L 2900 0 
L 2900 506 
Q 2647 200 2364 54 
Q 2081 -91 1741 -91 
Q 1134 -91 817 281 
Q 500 653 500 1363 
z
" transform="scale(0.015625)"/>
      <path id="DejaVuSans-Bold-41" d="M 3419 850 
L 1538 850 
L 1241 0 
L 31 0 
L 1759 4666 
L 3194 4666 
L 4922 0 
L 3713 0 
L 3419 850 
z
M 1838 1716 
L 3116 1716 
L 2478 3572 
L 1838 1716 
z
" transform="scale(0.015625)"/>
      <path id="DejaVuSans-Bold-74" d="M 1759 4494 
L 1759 3500 
L 2913 3500 
L 2913 2700 
L 1759 2700 
L 1759 1216 
Q 1759 972 1856 886 
Q 1953 800 2241 800 
L 2816 800 
L 2816 0 
L 1856 0 
Q 1194 0 917 276 
Q 641 553 641 1216 
L 641 2700 
L 84 2700 
L 84 3500 
L 641 3500 
L 641 4494 
L 1759 4494 
z
" transform="scale(0.015625)"/>
     </defs>
     <use xlink:href="#DejaVuSans-Bold-47"/>
     <use xlink:href="#DejaVuSans-Bold-6c" x="82.080078"/>
     <use xlink:href="#DejaVuSans-Bold-61" x="116.357422"/>
     <use xlink:href="#DejaVuSans-Bold-63" x="183.837891"/>
     <use xlink:href="#DejaVuSans-Bold-69" x="243.115234"/>
     <use xlink:href="#DejaVuSans-Bold-65" x="277.392578"/>
     <use xlink:href="#DejaVuSans-Bold-72" x="345.214844"/>
     <use xlink:href="#DejaVuSans-Bold-73" x="394.53125"/>
     <use xlink:href="#DejaVuSans-Bold-20" x="454.052734"/>
     <use xlink:href="#DejaVuSans-Bold-6f" x="488.867188"/>
     <use xlink:href="#DejaVuSans-Bold-66" x="557.568359"/>
     <use xlink:href="#DejaVuSans-Bold-20" x="601.074219"/>
     <use xlink:href="#DejaVuSans-Bold-52" x="635.888672"/>
     <use xlink:href="#DejaVuSans-Bold-75" x="712.890625"/>
     <use xlink:href="#DejaVuSans-Bold-73" x="784.082031"/>
     <use xlink:href="#DejaVuSans-Bold-73" x="843.603516"/>
     <use xlink:href="#DejaVuSans-Bold-69" x="903.125"/>
     <use xlink:href="#DejaVuSans-Bold-61" x="937.402344"/>
     <use xlink:href="#DejaVuSans-Bold-6e" x="1004.882812"/>
     <use xlink:href="#DejaVuSans-Bold-20" x="1076.074219"/>
     <use xlink:href="#DejaVuSans-Bold-41" x="1110.888672"/>
     <use xlink:href="#DejaVuSans-Bold-72" x="1188.28125"/>
     <use xlink:href="#DejaVuSans-Bold-63" x="1237.597656"/>
     <use xlink:href="#DejaVuSans-Bold-74" x="1296.875"/>
     <use xlink:href="#DejaVuSans-Bold-69" x="1344.677734"/>
     <use xlink:href="#DejaVuSans-Bold-63" x="1378.955078"/>
    </g>
   </g>
   <g id="LineCollection_1">
    <path d="M 322.866894 216.654401 
L 329.169167 216.654401 
" clip-path="url(#p61dae7ba8b)" style="fill: none; stroke: #70b8ff; stroke-opacity: 0.5; stroke-width: 3"/>
   </g>
   <g id="LineCollection_2">
    <path d="M 322.866894 219.66153 
L 329.169167 219.66153 
" clip-path="url(#p61dae7ba8b)" style="fill: none; stroke: #92b9c1; stroke-opacity: 0.5; stroke-width: 3"/>
   </g>
   <g id="LineCollection_3">
    <path d="M 322.866894 222.652918 
L 329.169167 222.652918 
" clip-path="url(#p61dae7ba8b)" style="fill: none; stroke: #c0ba6a; stroke-opacity: 0.5; stroke-width: 3"/>
   </g>
   <g id="LineCollection_4">
    <path d="M 322.866894 225.620253 
L 329.169167 225.620253 
" clip-path="url(#p61dae7ba8b)" style="fill: none; stroke: #efbb14; stroke-opacity: 0.5; stroke-width: 3"/>
   </g>
   <g id="LineCollection_5">
    <path d="M 322.866894 228.572819 
L 329.169167 228.572819 
" clip-path="url(#p61dae7ba8b)" style="fill: none; stroke: #fbaf00; stroke-opacity: 0.5; stroke-width: 3"/>
   </g>
   <g id="LineCollection_6">
    <path d="M 322.866894 231.527689 
L 329.169167 231.527689 
" clip-path="url(#p61dae7ba8b)" style="fill: none; stroke: #fd9f00; stroke-opacity: 0.5; stroke-width: 3"/>
   </g>
   <g id="LineCollection_7">
    <path d="M 322.866894 234.502744 
L 329.169167 234.502744 
" clip-path="url(#p61dae7ba8b)" style="fill: none; stroke: #ff8f00; stroke-opacity: 0.5; stroke-width: 3"/>
   </g>
   <g id="LineCollection_8">
    <path d="M 322.866894 237.512627 
L 329.169167 237.512627 
" clip-path="url(#p61dae7ba8b)" style="fill: none; stroke: #fb7c00; stroke-opacity: 0.5; stroke-width: 3"/>
   </g>
   <g id="LineCollection_9">
    <path d="M 322.866894 240.567208 
L 329.169167 240.567208 
" clip-path="url(#p61dae7ba8b)" style="fill: none; stroke: #f76800; stroke-opacity: 0.5; stroke-width: 3"/>
   </g>
   <g id="LineCollection_10">
    <path d="M 322.866894 243.671684 
L 329.169167 243.671684 
" clip-path="url(#p61dae7ba8b)" style="fill: none; stroke: #f35400; stroke-opacity: 0.5; stroke-width: 3"/>
   </g>
   <g id="LineCollection_11">
    <path d="M 322.866894 246.827493 
L 329.169167 246.827493 
" clip-path="url(#p61dae7ba8b)" style="fill: none; stroke: #e34500; stroke-opacity: 0.5; stroke-width: 3"/>
   </g>
   <g id="LineCollection_12">
    <path d="M 322.866894 250.033414 
L 329.169167 250.033414 
" clip-path="url(#p61dae7ba8b)" style="fill: none; stroke: #d13600; stroke-opacity: 0.5; stroke-width: 3"/>
   </g>
   <g id="LineCollection_13">
    <path d="M 322.866894 253.286567 
L 329.169167 253.286567 
" clip-path="url(#p61dae7ba8b)" style="fill: none; stroke: #bf2800; stroke-opacity: 0.5; stroke-width: 3"/>
   </g>
   <g id="LineCollection_14">
    <path d="M 322.866894 256.583182 
L 329.169167 256.583182 
" clip-path="url(#p61dae7ba8b)" style="fill: none; stroke: #a32700; stroke-opacity: 0.5; stroke-width: 3"/>
   </g>
   <g id="LineCollection_15">
    <path d="M 322.866894 259.919144 
L 329.169167 259.919144 
" clip-path="url(#p61dae7ba8b)" style="fill: none; stroke: #852900; stroke-opacity: 0.5; stroke-width: 3"/>
   </g>
   <g id="LineCollection_16">
    <path d="M 322.866894 263.290347 
L 329.169167 263.290347 
" clip-path="url(#p61dae7ba8b)" style="fill: none; stroke: #682b00; stroke-opacity: 0.5; stroke-width: 3"/>
   </g>
   <g id="LineCollection_17">
    <path d="M 751.421439 320.840253 
L 757.723712 320.840253 
" clip-path="url(#p61dae7ba8b)" style="fill: none; stroke: #70b8ff; stroke-opacity: 0.5; stroke-width: 3"/>
   </g>
   <g id="LineCollection_18">
    <path d="M 751.421439 327.72174 
L 757.723712 327.72174 
" clip-path="url(#p61dae7ba8b)" style="fill: none; stroke: #92b9c1; stroke-opacity: 0.5; stroke-width: 3"/>
   </g>
   <g id="LineCollection_19">
    <path d="M 751.421439 334.620081 
L 757.723712 334.620081 
" clip-path="url(#p61dae7ba8b)" style="fill: none; stroke: #c0ba6a; stroke-opacity: 0.5; stroke-width: 3"/>
   </g>
   <g id="LineCollection_20">
    <path d="M 751.421439 341.552021 
L 757.723712 341.552021 
" clip-path="url(#p61dae7ba8b)" style="fill: none; stroke: #efbb14; stroke-opacity: 0.5; stroke-width: 3"/>
   </g>
   <g id="LineCollection_21">
    <path d="M 751.421439 348.547238 
L 757.723712 348.547238 
" clip-path="url(#p61dae7ba8b)" style="fill: none; stroke: #fbaf00; stroke-opacity: 0.5; stroke-width: 3"/>
   </g>
   <g id="LineCollection_22">
    <path d="M 751.421439 355.665181 
L 757.723712 355.665181 
" clip-path="url(#p61dae7ba8b)" style="fill: none; stroke: #fd9f00; stroke-opacity: 0.5; stroke-width: 3"/>
   </g>
   <g id="LineCollection_23">
    <path d="M 751.421439 362.968455 
L 757.723712 362.968455 
" clip-path="url(#p61dae7ba8b)" style="fill: none; stroke: #ff8f00; stroke-opacity: 0.5; stroke-width: 3"/>
   </g>
   <g id="LineCollection_24">
    <path d="M 751.421439 370.498941 
L 757.723712 370.498941 
" clip-path="url(#p61dae7ba8b)" style="fill: none; stroke: #fb7c00; stroke-opacity: 0.5; stroke-width: 3"/>
   </g>
   <g id="LineCollection_25">
    <path d="M 751.421439 378.267115 
L 757.723712 378.267115 
" clip-path="url(#p61dae7ba8b)" style="fill: none; stroke: #f76800; stroke-opacity: 0.5; stroke-width: 3"/>
   </g>
   <g id="LineCollection_26">
    <path d="M 751.421439 386.253594 
L 757.723712 386.253594 
" clip-path="url(#p61dae7ba8b)" style="fill: none; stroke: #f35400; stroke-opacity: 0.5; stroke-width: 3"/>
   </g>
   <g id="LineCollection_27">
    <path d="M 751.421439 394.429196 
L 757.723712 394.429196 
" clip-path="url(#p61dae7ba8b)" style="fill: none; stroke: #e34500; stroke-opacity: 0.5; stroke-width: 3"/>
   </g>
   <g id="LineCollection_28">
    <path d="M 751.421439 403.022647 
L 757.723712 403.022647 
" clip-path="url(#p61dae7ba8b)" style="fill: none; stroke: #d13600; stroke-opacity: 0.5; stroke-width: 3"/>
   </g>
   <g id="LineCollection_29">
    <path d="M 751.421439 412.181393 
L 757.723712 412.181393 
" clip-path="url(#p61dae7ba8b)" style="fill: none; stroke: #bf2800; stroke-opacity: 0.5; stroke-width: 3"/>
   </g>
   <g id="LineCollection_30">
    <path d="M 751.421439 421.699484 
L 757.723712 421.699484 
" clip-path="url(#p61dae7ba8b)" style="fill: none; stroke: #a32700; stroke-opacity: 0.5; stroke-width: 3"/>
   </g>
   <g id="LineCollection_31">
    <path d="M 751.421439 431.245278 
L 757.723712 431.245278 
" clip-path="url(#p61dae7ba8b)" style="fill: none; stroke: #852900; stroke-opacity: 0.5; stroke-width: 3"/>
   </g>
   <g id="LineCollection_32">
    <path d="M 751.421439 440.510556 
L 757.723712 440.510556 
" clip-path="url(#p61dae7ba8b)" style="fill: none; stroke: #682b00; stroke-opacity: 0.5; stroke-width: 3"/>
   </g>
   <g id="LineCollection_33">
    <path d="M 319.715758 219.66153 
L 332.320303 219.66153 
" clip-path="url(#p61dae7ba8b)" style="fill: none; stroke: #92b9c1; stroke-width: 8"/>
   </g>
   <g id="LineCollection_34">
    <path d="M 319.715758 234.502744 
L 332.320303 234.502744 
" clip-path="url(#p61dae7ba8b)" style="fill: none; stroke: #ff8f00; stroke-width: 8"/>
   </g>
   <g id="LineCollection_35">
    <path d="M 319.715758 266.692909 
L 332.320303 266.692909 
" clip-path="url(#p61dae7ba8b)" style="fill: none; stroke: #662b00; stroke-width: 8"/>
   </g>
   <g id="LineCollection_36">
    <path d="M 748.270303 327.72174 
L 760.874848 327.72174 
" clip-path="url(#p61dae7ba8b)" style="fill: none; stroke: #92b9c1; stroke-width: 8"/>
   </g>
   <g id="LineCollection_37">
    <path d="M 748.270303 362.968455 
L 760.874848 362.968455 
" clip-path="url(#p61dae7ba8b)" style="fill: none; stroke: #ff8f00; stroke-width: 8"/>
   </g>
   <g id="LineCollection_38">
    <path d="M 748.270303 449.275479 
L 760.874848 449.275479 
" clip-path="url(#p61dae7ba8b)" style="fill: none; stroke: #662b00; stroke-width: 8"/>
   </g>
  </g>
 </g>
 <defs>
  <clipPath id="p61dae7ba8b">
   <rect x="109.64" y="52.8" width="693.25" height="462.76"/>
  </clipPath>
 </defs>
</svg>
