<?xml version="1.0" encoding="utf-8" standalone="no"?>
<!DOCTYPE svg PUBLIC "-//W3C//DTD SVG 1.1//EN"
  "http://www.w3.org/Graphics/SVG/1.1/DTD/svg11.dtd">
<svg xmlns:xlink="http://www.w3.org/1999/xlink" width="900pt" height="600pt" viewBox="0 0 900 600" xmlns="http://www.w3.org/2000/svg" version="1.1">
 <metadata>
  <rdf:RDF xmlns:dc="http://purl.org/dc/elements/1.1/" xmlns:cc="http://creativecommons.org/ns#" xmlns:rdf="http://www.w3.org/1999/02/22-rdf-syntax-ns#">
   <cc:Work>
    <dc:type rdf:resource="http://purl.org/dc/dcmitype/StillImage"/>
    <dc:date>2023-11-29T23:24:50.862387</dc:date>
    <dc:format>image/svg+xml</dc:format>
    <dc:creator>
     <cc:Agent>
      <dc:title>Matplotlib v3.7.1, https://matplotlib.org/</dc:title>
     </cc:Agent>
    </dc:creator>
   </cc:Work>
  </rdf:RDF>
 </metadata>
 <defs>
  <style type="text/css">*{stroke-linejoin: round; stroke-linecap: butt}</style>
 </defs>
 <g id="figure_1">
  <g id="patch_1">
   <path d="M 0 600 
L 900 600 
L 900 0 
L 0 0 
z
" style="fill: #ffffff"/>
  </g>
  <g id="axes_1">
   <g id="patch_2">
    <path d="M 109.64 515.56 
L 802.89 515.56 
L 802.89 52.8 
L 109.64 52.8 
z
" style="fill: #ffffff"/>
   </g>
   <g id="matplotlib.axis_1">
    <g id="xtick_1">
     <g id="line2d_1">
      <defs>
       <path id="ma40a97755e" d="M 0 0 
L 0 3.5 
" style="stroke: #000000; stroke-width: 0.8"/>
      </defs>
      <g>
       <use xlink:href="#ma40a97755e" x="157.957424" y="515.56" style="stroke: #000000; stroke-width: 0.8"/>
      </g>
     </g>
     <g id="text_1">
      <!-- 2020 -->
      <g transform="translate(124.872424 542.315938) scale(0.26 -0.26)">
       <defs>
        <path id="DejaVuSans-32" d="M 1228 531 
L 3431 531 
L 3431 0 
L 469 0 
L 469 531 
Q 828 903 1448 1529 
Q 2069 2156 2228 2338 
Q 2531 2678 2651 2914 
Q 2772 3150 2772 3378 
Q 2772 3750 2511 3984 
Q 2250 4219 1831 4219 
Q 1534 4219 1204 4116 
Q 875 4013 500 3803 
L 500 4441 
Q 881 4594 1212 4672 
Q 1544 4750 1819 4750 
Q 2544 4750 2975 4387 
Q 3406 4025 3406 3419 
Q 3406 3131 3298 2873 
Q 3191 2616 2906 2266 
Q 2828 2175 2409 1742 
Q 1991 1309 1228 531 
z
" transform="scale(0.015625)"/>
        <path id="DejaVuSans-30" d="M 2034 4250 
Q 1547 4250 1301 3770 
Q 1056 3291 1056 2328 
Q 1056 1369 1301 889 
Q 1547 409 2034 409 
Q 2525 409 2770 889 
Q 3016 1369 3016 2328 
Q 3016 3291 2770 3770 
Q 2525 4250 2034 4250 
z
M 2034 4750 
Q 2819 4750 3233 4129 
Q 3647 3509 3647 2328 
Q 3647 1150 3233 529 
Q 2819 -91 2034 -91 
Q 1250 -91 836 529 
Q 422 1150 422 2328 
Q 422 3509 836 4129 
Q 1250 4750 2034 4750 
z
" transform="scale(0.015625)"/>
       </defs>
       <use xlink:href="#DejaVuSans-32"/>
       <use xlink:href="#DejaVuSans-30" x="63.623047"/>
       <use xlink:href="#DejaVuSans-32" x="127.246094"/>
       <use xlink:href="#DejaVuSans-30" x="190.869141"/>
      </g>
     </g>
    </g>
    <g id="xtick_2">
     <g id="line2d_2">
      <g>
       <use xlink:href="#ma40a97755e" x="326.01803" y="515.56" style="stroke: #000000; stroke-width: 0.8"/>
      </g>
     </g>
     <g id="text_2">
      <!-- 2100 -->
      <g transform="translate(292.93303 542.315938) scale(0.26 -0.26)">
       <defs>
        <path id="DejaVuSans-31" d="M 794 531 
L 1825 531 
L 1825 4091 
L 703 3866 
L 703 4441 
L 1819 4666 
L 2450 4666 
L 2450 531 
L 3481 531 
L 3481 0 
L 794 0 
L 794 531 
z
" transform="scale(0.015625)"/>
       </defs>
       <use xlink:href="#DejaVuSans-32"/>
       <use xlink:href="#DejaVuSans-31" x="63.623047"/>
       <use xlink:href="#DejaVuSans-30" x="127.246094"/>
       <use xlink:href="#DejaVuSans-30" x="190.869141"/>
      </g>
     </g>
    </g>
    <g id="xtick_3">
     <g id="line2d_3">
      <g>
       <use xlink:href="#ma40a97755e" x="536.093788" y="515.56" style="stroke: #000000; stroke-width: 0.8"/>
      </g>
     </g>
     <g id="text_3">
      <!-- 2200 -->
      <g transform="translate(503.008788 542.315938) scale(0.26 -0.26)">
       <use xlink:href="#DejaVuSans-32"/>
       <use xlink:href="#DejaVuSans-32" x="63.623047"/>
       <use xlink:href="#DejaVuSans-30" x="127.246094"/>
       <use xlink:href="#DejaVuSans-30" x="190.869141"/>
      </g>
     </g>
    </g>
    <g id="xtick_4">
     <g id="line2d_4">
      <g>
       <use xlink:href="#ma40a97755e" x="746.169545" y="515.56" style="stroke: #000000; stroke-width: 0.8"/>
      </g>
     </g>
     <g id="text_4">
      <!-- 2300 -->
      <g transform="translate(713.084545 542.315938) scale(0.26 -0.26)">
       <defs>
        <path id="DejaVuSans-33" d="M 2597 2516 
Q 3050 2419 3304 2112 
Q 3559 1806 3559 1356 
Q 3559 666 3084 287 
Q 2609 -91 1734 -91 
Q 1441 -91 1130 -33 
Q 819 25 488 141 
L 488 750 
Q 750 597 1062 519 
Q 1375 441 1716 441 
Q 2309 441 2620 675 
Q 2931 909 2931 1356 
Q 2931 1769 2642 2001 
Q 2353 2234 1838 2234 
L 1294 2234 
L 1294 2753 
L 1863 2753 
Q 2328 2753 2575 2939 
Q 2822 3125 2822 3475 
Q 2822 3834 2567 4026 
Q 2313 4219 1838 4219 
Q 1578 4219 1281 4162 
Q 984 4106 628 3988 
L 628 4550 
Q 988 4650 1302 4700 
Q 1616 4750 1894 4750 
Q 2613 4750 3031 4423 
Q 3450 4097 3450 3541 
Q 3450 3153 3228 2886 
Q 3006 2619 2597 2516 
z
" transform="scale(0.015625)"/>
       </defs>
       <use xlink:href="#DejaVuSans-32"/>
       <use xlink:href="#DejaVuSans-33" x="63.623047"/>
       <use xlink:href="#DejaVuSans-30" x="127.246094"/>
       <use xlink:href="#DejaVuSans-30" x="190.869141"/>
      </g>
     </g>
    </g>
    <g id="text_5">
     <!-- Year -->
     <g transform="translate(428.995313 568.439687) scale(0.22 -0.22)">
      <defs>
       <path id="DejaVuSans-Bold-59" d="M -63 4666 
L 1253 4666 
L 2316 3003 
L 3378 4666 
L 4697 4666 
L 2919 1966 
L 2919 0 
L 1716 0 
L 1716 1966 
L -63 4666 
z
" transform="scale(0.015625)"/>
       <path id="DejaVuSans-Bold-65" d="M 4031 1759 
L 4031 1441 
L 1416 1441 
Q 1456 1047 1700 850 
Q 1944 653 2381 653 
Q 2734 653 3104 758 
Q 3475 863 3866 1075 
L 3866 213 
Q 3469 63 3072 -14 
Q 2675 -91 2278 -91 
Q 1328 -91 801 392 
Q 275 875 275 1747 
Q 275 2603 792 3093 
Q 1309 3584 2216 3584 
Q 3041 3584 3536 3087 
Q 4031 2591 4031 1759 
z
M 2881 2131 
Q 2881 2450 2695 2645 
Q 2509 2841 2209 2841 
Q 1884 2841 1681 2658 
Q 1478 2475 1428 2131 
L 2881 2131 
z
" transform="scale(0.015625)"/>
       <path id="DejaVuSans-Bold-61" d="M 2106 1575 
Q 1756 1575 1579 1456 
Q 1403 1338 1403 1106 
Q 1403 894 1545 773 
Q 1688 653 1941 653 
Q 2256 653 2472 879 
Q 2688 1106 2688 1447 
L 2688 1575 
L 2106 1575 
z
M 3816 1997 
L 3816 0 
L 2688 0 
L 2688 519 
Q 2463 200 2181 54 
Q 1900 -91 1497 -91 
Q 953 -91 614 226 
Q 275 544 275 1050 
Q 275 1666 698 1953 
Q 1122 2241 2028 2241 
L 2688 2241 
L 2688 2328 
Q 2688 2594 2478 2717 
Q 2269 2841 1825 2841 
Q 1466 2841 1156 2769 
Q 847 2697 581 2553 
L 581 3406 
Q 941 3494 1303 3539 
Q 1666 3584 2028 3584 
Q 2975 3584 3395 3211 
Q 3816 2838 3816 1997 
z
" transform="scale(0.015625)"/>
       <path id="DejaVuSans-Bold-72" d="M 3138 2547 
Q 2991 2616 2845 2648 
Q 2700 2681 2553 2681 
Q 2122 2681 1889 2404 
Q 1656 2128 1656 1613 
L 1656 0 
L 538 0 
L 538 3500 
L 1656 3500 
L 1656 2925 
Q 1872 3269 2151 3426 
Q 2431 3584 2822 3584 
Q 2878 3584 2943 3579 
Q 3009 3575 3134 3559 
L 3138 2547 
z
" transform="scale(0.015625)"/>
      </defs>
      <use xlink:href="#DejaVuSans-Bold-59"/>
      <use xlink:href="#DejaVuSans-Bold-65" x="63.287109"/>
      <use xlink:href="#DejaVuSans-Bold-61" x="131.109375"/>
      <use xlink:href="#DejaVuSans-Bold-72" x="198.589844"/>
     </g>
    </g>
   </g>
   <g id="matplotlib.axis_2">
    <g id="ytick_1">
     <g id="line2d_5">
      <defs>
       <path id="m69f659afa3" d="M 0 0 
L -3.5 0 
" style="stroke: #000000; stroke-width: 0.8"/>
      </defs>
      <g>
       <use xlink:href="#m69f659afa3" x="109.64" y="515.56" style="stroke: #000000; stroke-width: 0.8"/>
      </g>
     </g>
     <g id="text_6">
      <!-- 0 -->
      <g transform="translate(86.0975 525.437969) scale(0.26 -0.26)">
       <use xlink:href="#DejaVuSans-30"/>
      </g>
     </g>
    </g>
    <g id="ytick_2">
     <g id="line2d_6">
      <g>
       <use xlink:href="#m69f659afa3" x="109.64" y="441.5184" style="stroke: #000000; stroke-width: 0.8"/>
      </g>
     </g>
     <g id="text_7">
      <!-- 20 -->
      <g transform="translate(69.555 451.396369) scale(0.26 -0.26)">
       <use xlink:href="#DejaVuSans-32"/>
       <use xlink:href="#DejaVuSans-30" x="63.623047"/>
      </g>
     </g>
    </g>
    <g id="ytick_3">
     <g id="line2d_7">
      <g>
       <use xlink:href="#m69f659afa3" x="109.64" y="367.4768" style="stroke: #000000; stroke-width: 0.8"/>
      </g>
     </g>
     <g id="text_8">
      <!-- 40 -->
      <g transform="translate(69.555 377.354769) scale(0.26 -0.26)">
       <defs>
        <path id="DejaVuSans-34" d="M 2419 4116 
L 825 1625 
L 2419 1625 
L 2419 4116 
z
M 2253 4666 
L 3047 4666 
L 3047 1625 
L 3713 1625 
L 3713 1100 
L 3047 1100 
L 3047 0 
L 2419 0 
L 2419 1100 
L 313 1100 
L 313 1709 
L 2253 4666 
z
" transform="scale(0.015625)"/>
       </defs>
       <use xlink:href="#DejaVuSans-34"/>
       <use xlink:href="#DejaVuSans-30" x="63.623047"/>
      </g>
     </g>
    </g>
    <g id="ytick_4">
     <g id="line2d_8">
      <g>
       <use xlink:href="#m69f659afa3" x="109.64" y="293.4352" style="stroke: #000000; stroke-width: 0.8"/>
      </g>
     </g>
     <g id="text_9">
      <!-- 60 -->
      <g transform="translate(69.555 303.313169) scale(0.26 -0.26)">
       <defs>
        <path id="DejaVuSans-36" d="M 2113 2584 
Q 1688 2584 1439 2293 
Q 1191 2003 1191 1497 
Q 1191 994 1439 701 
Q 1688 409 2113 409 
Q 2538 409 2786 701 
Q 3034 994 3034 1497 
Q 3034 2003 2786 2293 
Q 2538 2584 2113 2584 
z
M 3366 4563 
L 3366 3988 
Q 3128 4100 2886 4159 
Q 2644 4219 2406 4219 
Q 1781 4219 1451 3797 
Q 1122 3375 1075 2522 
Q 1259 2794 1537 2939 
Q 1816 3084 2150 3084 
Q 2853 3084 3261 2657 
Q 3669 2231 3669 1497 
Q 3669 778 3244 343 
Q 2819 -91 2113 -91 
Q 1303 -91 875 529 
Q 447 1150 447 2328 
Q 447 3434 972 4092 
Q 1497 4750 2381 4750 
Q 2619 4750 2861 4703 
Q 3103 4656 3366 4563 
z
" transform="scale(0.015625)"/>
       </defs>
       <use xlink:href="#DejaVuSans-36"/>
       <use xlink:href="#DejaVuSans-30" x="63.623047"/>
      </g>
     </g>
    </g>
    <g id="ytick_5">
     <g id="line2d_9">
      <g>
       <use xlink:href="#m69f659afa3" x="109.64" y="219.3936" style="stroke: #000000; stroke-width: 0.8"/>
      </g>
     </g>
     <g id="text_10">
      <!-- 80 -->
      <g transform="translate(69.555 229.271569) scale(0.26 -0.26)">
       <defs>
        <path id="DejaVuSans-38" d="M 2034 2216 
Q 1584 2216 1326 1975 
Q 1069 1734 1069 1313 
Q 1069 891 1326 650 
Q 1584 409 2034 409 
Q 2484 409 2743 651 
Q 3003 894 3003 1313 
Q 3003 1734 2745 1975 
Q 2488 2216 2034 2216 
z
M 1403 2484 
Q 997 2584 770 2862 
Q 544 3141 544 3541 
Q 544 4100 942 4425 
Q 1341 4750 2034 4750 
Q 2731 4750 3128 4425 
Q 3525 4100 3525 3541 
Q 3525 3141 3298 2862 
Q 3072 2584 2669 2484 
Q 3125 2378 3379 2068 
Q 3634 1759 3634 1313 
Q 3634 634 3220 271 
Q 2806 -91 2034 -91 
Q 1263 -91 848 271 
Q 434 634 434 1313 
Q 434 1759 690 2068 
Q 947 2378 1403 2484 
z
M 1172 3481 
Q 1172 3119 1398 2916 
Q 1625 2713 2034 2713 
Q 2441 2713 2670 2916 
Q 2900 3119 2900 3481 
Q 2900 3844 2670 4047 
Q 2441 4250 2034 4250 
Q 1625 4250 1398 4047 
Q 1172 3844 1172 3481 
z
" transform="scale(0.015625)"/>
       </defs>
       <use xlink:href="#DejaVuSans-38"/>
       <use xlink:href="#DejaVuSans-30" x="63.623047"/>
      </g>
     </g>
    </g>
    <g id="ytick_6">
     <g id="line2d_10">
      <g>
       <use xlink:href="#m69f659afa3" x="109.64" y="145.352" style="stroke: #000000; stroke-width: 0.8"/>
      </g>
     </g>
     <g id="text_11">
      <!-- 100 -->
      <g transform="translate(53.0125 155.229969) scale(0.26 -0.26)">
       <use xlink:href="#DejaVuSans-31"/>
       <use xlink:href="#DejaVuSans-30" x="63.623047"/>
       <use xlink:href="#DejaVuSans-30" x="127.246094"/>
      </g>
     </g>
    </g>
    <g id="ytick_7">
     <g id="line2d_11">
      <g>
       <use xlink:href="#m69f659afa3" x="109.64" y="71.3104" style="stroke: #000000; stroke-width: 0.8"/>
      </g>
     </g>
     <g id="text_12">
      <!-- 120 -->
      <g transform="translate(53.0125 81.188369) scale(0.26 -0.26)">
       <use xlink:href="#DejaVuSans-31"/>
       <use xlink:href="#DejaVuSans-32" x="63.623047"/>
       <use xlink:href="#DejaVuSans-30" x="127.246094"/>
      </g>
     </g>
    </g>
    <g id="text_13">
     <!-- % of Remaining Ice -->
     <g transform="translate(44.265313 403.000625) rotate(-90) scale(0.22 -0.22)">
      <defs>
       <path id="DejaVuSans-Bold-25" d="M 4959 1925 
Q 4738 1925 4616 1733 
Q 4494 1541 4494 1184 
Q 4494 825 4614 633 
Q 4734 441 4959 441 
Q 5184 441 5303 633 
Q 5422 825 5422 1184 
Q 5422 1541 5301 1733 
Q 5181 1925 4959 1925 
z
M 4959 2450 
Q 5541 2450 5875 2112 
Q 6209 1775 6209 1184 
Q 6209 594 5875 251 
Q 5541 -91 4959 -91 
Q 4378 -91 4042 251 
Q 3706 594 3706 1184 
Q 3706 1772 4042 2111 
Q 4378 2450 4959 2450 
z
M 2094 -91 
L 1403 -91 
L 4319 4750 
L 5013 4750 
L 2094 -91 
z
M 1453 4750 
Q 2034 4750 2367 4411 
Q 2700 4072 2700 3481 
Q 2700 2891 2367 2550 
Q 2034 2209 1453 2209 
Q 872 2209 539 2550 
Q 206 2891 206 3481 
Q 206 4072 539 4411 
Q 872 4750 1453 4750 
z
M 1453 4225 
Q 1228 4225 1106 4031 
Q 984 3838 984 3481 
Q 984 3122 1106 2926 
Q 1228 2731 1453 2731 
Q 1678 2731 1798 2926 
Q 1919 3122 1919 3481 
Q 1919 3838 1797 4031 
Q 1675 4225 1453 4225 
z
" transform="scale(0.015625)"/>
       <path id="DejaVuSans-Bold-20" transform="scale(0.015625)"/>
       <path id="DejaVuSans-Bold-6f" d="M 2203 2784 
Q 1831 2784 1636 2517 
Q 1441 2250 1441 1747 
Q 1441 1244 1636 976 
Q 1831 709 2203 709 
Q 2569 709 2762 976 
Q 2956 1244 2956 1747 
Q 2956 2250 2762 2517 
Q 2569 2784 2203 2784 
z
M 2203 3584 
Q 3106 3584 3614 3096 
Q 4122 2609 4122 1747 
Q 4122 884 3614 396 
Q 3106 -91 2203 -91 
Q 1297 -91 786 396 
Q 275 884 275 1747 
Q 275 2609 786 3096 
Q 1297 3584 2203 3584 
z
" transform="scale(0.015625)"/>
       <path id="DejaVuSans-Bold-66" d="M 2841 4863 
L 2841 4128 
L 2222 4128 
Q 1984 4128 1890 4042 
Q 1797 3956 1797 3744 
L 1797 3500 
L 2753 3500 
L 2753 2700 
L 1797 2700 
L 1797 0 
L 678 0 
L 678 2700 
L 122 2700 
L 122 3500 
L 678 3500 
L 678 3744 
Q 678 4316 997 4589 
Q 1316 4863 1984 4863 
L 2841 4863 
z
" transform="scale(0.015625)"/>
       <path id="DejaVuSans-Bold-52" d="M 2297 2597 
Q 2675 2597 2839 2737 
Q 3003 2878 3003 3200 
Q 3003 3519 2839 3656 
Q 2675 3794 2297 3794 
L 1791 3794 
L 1791 2597 
L 2297 2597 
z
M 1791 1766 
L 1791 0 
L 588 0 
L 588 4666 
L 2425 4666 
Q 3347 4666 3776 4356 
Q 4206 4047 4206 3378 
Q 4206 2916 3982 2619 
Q 3759 2322 3309 2181 
Q 3556 2125 3751 1926 
Q 3947 1728 4147 1325 
L 4800 0 
L 3519 0 
L 2950 1159 
Q 2778 1509 2601 1637 
Q 2425 1766 2131 1766 
L 1791 1766 
z
" transform="scale(0.015625)"/>
       <path id="DejaVuSans-Bold-6d" d="M 3781 2919 
Q 3994 3244 4286 3414 
Q 4578 3584 4928 3584 
Q 5531 3584 5847 3212 
Q 6163 2841 6163 2131 
L 6163 0 
L 5038 0 
L 5038 1825 
Q 5041 1866 5042 1909 
Q 5044 1953 5044 2034 
Q 5044 2406 4934 2573 
Q 4825 2741 4581 2741 
Q 4263 2741 4089 2478 
Q 3916 2216 3909 1719 
L 3909 0 
L 2784 0 
L 2784 1825 
Q 2784 2406 2684 2573 
Q 2584 2741 2328 2741 
Q 2006 2741 1831 2477 
Q 1656 2213 1656 1722 
L 1656 0 
L 531 0 
L 531 3500 
L 1656 3500 
L 1656 2988 
Q 1863 3284 2130 3434 
Q 2397 3584 2719 3584 
Q 3081 3584 3359 3409 
Q 3638 3234 3781 2919 
z
" transform="scale(0.015625)"/>
       <path id="DejaVuSans-Bold-69" d="M 538 3500 
L 1656 3500 
L 1656 0 
L 538 0 
L 538 3500 
z
M 538 4863 
L 1656 4863 
L 1656 3950 
L 538 3950 
L 538 4863 
z
" transform="scale(0.015625)"/>
       <path id="DejaVuSans-Bold-6e" d="M 4056 2131 
L 4056 0 
L 2931 0 
L 2931 347 
L 2931 1631 
Q 2931 2084 2911 2256 
Q 2891 2428 2841 2509 
Q 2775 2619 2662 2680 
Q 2550 2741 2406 2741 
Q 2056 2741 1856 2470 
Q 1656 2200 1656 1722 
L 1656 0 
L 538 0 
L 538 3500 
L 1656 3500 
L 1656 2988 
Q 1909 3294 2193 3439 
Q 2478 3584 2822 3584 
Q 3428 3584 3742 3212 
Q 4056 2841 4056 2131 
z
" transform="scale(0.015625)"/>
       <path id="DejaVuSans-Bold-67" d="M 2919 594 
Q 2688 288 2409 144 
Q 2131 0 1766 0 
Q 1125 0 706 504 
Q 288 1009 288 1791 
Q 288 2575 706 3076 
Q 1125 3578 1766 3578 
Q 2131 3578 2409 3434 
Q 2688 3291 2919 2981 
L 2919 3500 
L 4044 3500 
L 4044 353 
Q 4044 -491 3511 -936 
Q 2978 -1381 1966 -1381 
Q 1638 -1381 1331 -1331 
Q 1025 -1281 716 -1178 
L 716 -306 
Q 1009 -475 1290 -558 
Q 1572 -641 1856 -641 
Q 2406 -641 2662 -400 
Q 2919 -159 2919 353 
L 2919 594 
z
M 2181 2772 
Q 1834 2772 1640 2515 
Q 1447 2259 1447 1791 
Q 1447 1309 1634 1061 
Q 1822 813 2181 813 
Q 2531 813 2725 1069 
Q 2919 1325 2919 1791 
Q 2919 2259 2725 2515 
Q 2531 2772 2181 2772 
z
" transform="scale(0.015625)"/>
       <path id="DejaVuSans-Bold-49" d="M 588 4666 
L 1791 4666 
L 1791 0 
L 588 0 
L 588 4666 
z
" transform="scale(0.015625)"/>
       <path id="DejaVuSans-Bold-63" d="M 3366 3391 
L 3366 2478 
Q 3138 2634 2908 2709 
Q 2678 2784 2431 2784 
Q 1963 2784 1702 2511 
Q 1441 2238 1441 1747 
Q 1441 1256 1702 982 
Q 1963 709 2431 709 
Q 2694 709 2930 787 
Q 3166 866 3366 1019 
L 3366 103 
Q 3103 6 2833 -42 
Q 2563 -91 2291 -91 
Q 1344 -91 809 395 
Q 275 881 275 1747 
Q 275 2613 809 3098 
Q 1344 3584 2291 3584 
Q 2566 3584 2833 3536 
Q 3100 3488 3366 3391 
z
" transform="scale(0.015625)"/>
      </defs>
      <use xlink:href="#DejaVuSans-Bold-25"/>
      <use xlink:href="#DejaVuSans-Bold-20" x="100.195312"/>
      <use xlink:href="#DejaVuSans-Bold-6f" x="135.009766"/>
      <use xlink:href="#DejaVuSans-Bold-66" x="203.710938"/>
      <use xlink:href="#DejaVuSans-Bold-20" x="247.216797"/>
      <use xlink:href="#DejaVuSans-Bold-52" x="282.03125"/>
      <use xlink:href="#DejaVuSans-Bold-65" x="359.033203"/>
      <use xlink:href="#DejaVuSans-Bold-6d" x="426.855469"/>
      <use xlink:href="#DejaVuSans-Bold-61" x="531.054688"/>
      <use xlink:href="#DejaVuSans-Bold-69" x="598.535156"/>
      <use xlink:href="#DejaVuSans-Bold-6e" x="632.8125"/>
      <use xlink:href="#DejaVuSans-Bold-69" x="704.003906"/>
      <use xlink:href="#DejaVuSans-Bold-6e" x="738.28125"/>
      <use xlink:href="#DejaVuSans-Bold-67" x="809.472656"/>
      <use xlink:href="#DejaVuSans-Bold-20" x="881.054688"/>
      <use xlink:href="#DejaVuSans-Bold-49" x="915.869141"/>
      <use xlink:href="#DejaVuSans-Bold-63" x="953.076172"/>
      <use xlink:href="#DejaVuSans-Bold-65" x="1012.353516"/>
     </g>
    </g>
   </g>
   <g id="line2d_12">
    <path d="M 157.957424 145.352 
L 166.360455 160.869985 
L 170.56197 168.987033 
L 181.065758 191.427702 
L 187.36803 205.856266 
L 191.569545 215.865943 
L 202.073333 243.731223 
L 214.677879 278.04608 
L 220.980152 293.698479 
L 225.181667 303.37082 
L 227.282424 307.706031 
L 233.584697 319.606805 
L 235.685455 323.131205 
L 246.189242 339.339596 
L 250.390758 345.685706 
L 254.592273 351.523214 
L 265.096061 365.511986 
L 271.398333 373.586207 
L 279.801364 384.650064 
L 284.002879 390.352503 
L 288.204394 395.686329 
L 290.305152 398.224722 
L 294.506667 402.930948 
L 300.808939 409.801928 
L 305.010455 414.020097 
L 307.111212 415.962192 
L 317.615 426.490647 
L 321.816515 430.776162 
L 326.01803 434.351415 
L 330.219545 437.564091 
L 334.421061 440.704232 
L 338.622576 443.950226 
L 344.924848 448.865286 
L 351.227121 453.412426 
L 357.529394 457.448628 
L 361.730909 459.7945 
L 365.932424 462.063446 
L 372.234697 465.722592 
L 378.53697 469.577759 
L 391.141515 476.760334 
L 401.645303 482.56906 
L 407.947576 485.700688 
L 412.149091 487.463061 
L 416.350606 489.044894 
L 431.055909 493.941985 
L 437.358182 495.789961 
L 454.164242 500.047808 
L 460.466515 501.528158 
L 466.768788 502.804582 
L 475.171818 504.324924 
L 485.675606 505.935111 
L 496.179394 507.175636 
L 506.683182 508.264183 
L 519.287727 509.225325 
L 540.295303 510.628845 
L 550.799091 511.16619 
L 563.403636 511.625618 
L 584.411212 512.144757 
L 628.527121 513.107888 
L 672.64303 513.716006 
L 704.154394 514.220087 
L 733.565 514.441585 
L 746.169545 514.474295 
L 746.169545 514.474295 
" clip-path="url(#p35529deb62)" style="fill: none; stroke: #f35a00; stroke-opacity: 0.3; stroke-width: 2; stroke-linecap: square"/>
   </g>
   <g id="line2d_13">
    <path d="M 115.942273 98.137801 
L 118.04303 99.188381 
L 120.143788 100.522661 
L 122.244545 101.65078 
L 124.345303 102.663585 
L 126.446061 103.834498 
L 128.546818 105.241377 
L 130.647576 106.482592 
L 132.748333 107.822669 
L 134.849091 109.240188 
L 136.949848 110.996155 
L 139.050606 113.889433 
L 141.151364 116.99685 
L 143.252121 120.400737 
L 145.352879 123.845801 
L 147.453636 127.162978 
L 149.554394 130.602134 
L 151.655152 133.990164 
L 153.755909 137.657865 
L 155.856667 141.382167 
L 157.957424 145.352 
" clip-path="url(#p35529deb62)" style="fill: none; stroke: #000000; stroke-opacity: 0.3; stroke-width: 2; stroke-linecap: square"/>
   </g>
   <g id="line2d_14">
    <path d="M 157.957424 145.352 
L 162.158939 152.108508 
L 164.259697 155.591028 
L 168.461212 163.511784 
L 172.662727 171.745073 
L 176.864242 180.103662 
L 181.065758 189.174738 
L 185.267273 199.182849 
L 189.468788 210.193514 
L 195.771061 227.444488 
L 202.073333 243.663547 
L 206.274848 254.060106 
L 210.476364 263.64287 
L 212.577121 268.053036 
L 216.778636 276.092883 
L 218.879394 279.874744 
L 227.282424 293.913777 
L 229.383182 297.056738 
L 231.483939 299.963007 
L 233.584697 302.60209 
L 241.987727 312.217202 
L 244.088485 314.353076 
L 256.69303 325.904751 
L 260.894545 329.700647 
L 262.995303 331.386023 
L 267.196818 334.087799 
L 271.398333 336.384487 
L 277.700606 339.367938 
L 284.002879 341.976274 
L 286.103636 343.003971 
L 294.506667 347.719665 
L 298.708182 350.24751 
L 300.808939 351.562577 
L 307.111212 356.053292 
L 309.21197 357.48613 
L 311.312727 359.095016 
L 315.514242 362.720062 
L 326.01803 372.095725 
L 336.521818 380.404331 
L 344.924848 387.115041 
L 351.227121 393.153518 
L 355.428636 397.027443 
L 359.630152 400.818202 
L 374.335455 414.93923 
L 380.637727 420.809614 
L 386.94 426.474086 
L 399.544545 436.284732 
L 405.846818 440.837356 
L 420.552121 451.128261 
L 426.854394 455.096209 
L 433.156667 458.531197 
L 437.358182 460.715204 
L 441.559697 462.656546 
L 447.86197 465.269564 
L 456.265 468.469708 
L 464.66803 471.494897 
L 470.970303 474.001487 
L 477.272576 476.576557 
L 481.474091 478.286578 
L 491.977879 483.018893 
L 500.380909 486.770495 
L 506.683182 489.373648 
L 519.287727 494.115246 
L 525.59 496.423197 
L 529.791515 497.759583 
L 536.093788 499.519561 
L 546.597576 501.983516 
L 557.101364 504.109004 
L 567.605152 505.860927 
L 576.008182 507.114983 
L 586.51197 508.469984 
L 597.015758 509.481923 
L 607.519545 510.269103 
L 626.426364 511.348849 
L 653.736212 512.492103 
L 676.844545 513.342692 
L 708.355909 514.272506 
L 729.363485 514.690121 
L 746.169545 514.82574 
L 746.169545 514.82574 
" clip-path="url(#p35529deb62)" style="fill: none; stroke: #ca1809; stroke-opacity: 0.3; stroke-width: 2; stroke-linecap: square"/>
   </g>
   <g id="line2d_15">
    <path d="M 115.942273 102.155654 
L 118.04303 103.776136 
L 120.143788 105.300774 
L 122.244545 106.850036 
L 124.345303 108.134022 
L 126.446061 109.312192 
L 128.546818 110.718205 
L 130.647576 112.080124 
L 132.748333 113.708919 
L 134.849091 115.333786 
L 136.949848 116.965013 
L 139.050606 120.104514 
L 141.151364 123.287011 
L 143.252121 126.244877 
L 145.352879 128.955969 
L 147.453636 131.49668 
L 149.554394 133.918126 
L 151.655152 136.544419 
L 153.755909 139.250577 
L 155.856667 142.217553 
L 157.957424 145.352 
" clip-path="url(#p35529deb62)" style="fill: none; stroke: #000000; stroke-opacity: 0.3; stroke-width: 2; stroke-linecap: square"/>
   </g>
   <g id="line2d_16">
    <path d="M 157.957424 145.352 
L 164.259697 154.38346 
L 172.662727 168.209821 
L 174.763485 171.958798 
L 176.864242 175.977394 
L 178.965 180.365169 
L 187.36803 199.533368 
L 193.670303 214.726291 
L 197.871818 224.663628 
L 212.577121 258.722077 
L 216.778636 267.855633 
L 220.980152 276.427403 
L 229.383182 291.417036 
L 233.584697 298.059441 
L 237.786212 304.534999 
L 241.987727 311.625408 
L 250.390758 325.087546 
L 254.592273 331.445671 
L 273.499091 361.493517 
L 277.700606 368.43989 
L 279.801364 371.782368 
L 294.506667 392.431828 
L 296.607424 395.136949 
L 302.909697 402.580204 
L 307.111212 407.256284 
L 319.715758 420.507192 
L 332.320303 433.355354 
L 338.622576 439.270512 
L 342.824091 442.94864 
L 349.126364 448.118163 
L 351.227121 449.858826 
L 357.529394 454.469816 
L 370.133939 463.211459 
L 374.335455 465.741779 
L 380.637727 469.553007 
L 386.94 473.470765 
L 391.141515 475.830243 
L 405.846818 483.329955 
L 412.149091 486.083857 
L 420.552121 489.519313 
L 426.854394 491.895859 
L 445.761212 498.535966 
L 454.164242 501.066416 
L 462.567273 503.130335 
L 470.970303 504.771899 
L 479.373333 506.092136 
L 485.675606 506.876997 
L 498.280152 508.109999 
L 508.783939 508.896161 
L 531.892273 510.23803 
L 555.000606 511.285999 
L 601.217273 512.947107 
L 624.325606 513.497273 
L 672.64303 514.326903 
L 706.255152 514.620084 
L 746.169545 514.80231 
L 746.169545 514.80231 
" clip-path="url(#p35529deb62)" style="fill: none; stroke: #f36200; stroke-opacity: 0.3; stroke-width: 2; stroke-linecap: square"/>
   </g>
   <g id="line2d_17">
    <path d="M 115.942273 98.297971 
L 118.04303 100.388242 
L 120.143788 102.496922 
L 122.244545 104.261675 
L 124.345303 105.803334 
L 126.446061 107.406168 
L 128.546818 109.140621 
L 130.647576 110.693061 
L 132.748333 112.283946 
L 134.849091 113.776307 
L 136.949848 115.231409 
L 139.050606 118.361443 
L 141.151364 121.40463 
L 143.252121 124.536273 
L 145.352879 127.767064 
L 147.453636 130.873343 
L 149.554394 133.806168 
L 151.655152 136.554767 
L 153.755909 139.193984 
L 155.856667 142.218845 
L 157.957424 145.352 
" clip-path="url(#p35529deb62)" style="fill: none; stroke: #000000; stroke-opacity: 0.3; stroke-width: 2; stroke-linecap: square"/>
   </g>
   <g id="line2d_18">
    <path d="M 157.957424 145.352 
L 162.158939 154.516322 
L 166.360455 164.324792 
L 170.56197 175.224548 
L 178.965 198.940326 
L 185.267273 217.48727 
L 191.569545 236.091992 
L 193.670303 242.573255 
L 195.771061 248.59827 
L 199.972576 261.685235 
L 206.274848 280.568041 
L 216.778636 313.404182 
L 220.980152 326.426109 
L 229.383182 350.901212 
L 233.584697 362.228779 
L 237.786212 372.791954 
L 244.088485 387.484566 
L 248.29 396.357335 
L 250.390758 400.296602 
L 252.491515 403.911884 
L 256.69303 410.568988 
L 265.096061 423.057159 
L 269.297576 428.745738 
L 277.700606 439.479664 
L 281.902121 444.768296 
L 286.103636 449.84704 
L 298.708182 464.530644 
L 302.909697 468.950058 
L 307.111212 473.001047 
L 311.312727 476.786852 
L 315.514242 480.267089 
L 319.715758 483.445114 
L 326.01803 487.65939 
L 330.219545 490.216577 
L 334.421061 492.494177 
L 340.723333 495.37213 
L 349.126364 498.681842 
L 353.327879 500.104022 
L 361.730909 502.600219 
L 370.133939 504.810716 
L 380.637727 507.22126 
L 386.94 508.502892 
L 395.34303 509.862042 
L 403.746061 510.99645 
L 414.249848 512.08127 
L 422.652879 512.739755 
L 433.156667 513.383871 
L 452.063485 514.287184 
L 468.869545 514.85231 
L 483.574848 515.120947 
L 504.582424 515.267962 
L 565.504394 515.350489 
L 746.169545 515.368271 
L 746.169545 515.368271 
" clip-path="url(#p35529deb62)" style="fill: none; stroke: #c21010; stroke-opacity: 0.3; stroke-width: 2; stroke-linecap: square"/>
   </g>
   <g id="line2d_19">
    <path d="M 115.942273 90.415445 
L 118.04303 92.078829 
L 120.143788 93.94975 
L 122.244545 95.876439 
L 124.345303 97.436695 
L 126.446061 98.952372 
L 128.546818 100.502171 
L 130.647576 101.933692 
L 132.748333 103.311541 
L 134.849091 104.679439 
L 136.949848 106.272671 
L 139.050606 109.131662 
L 141.151364 112.218255 
L 143.252121 115.88952 
L 145.352879 119.747376 
L 147.453636 123.65152 
L 149.554394 127.541259 
L 151.655152 131.743242 
L 153.755909 136.371328 
L 155.856667 140.749 
L 157.957424 145.352 
" clip-path="url(#p35529deb62)" style="fill: none; stroke: #000000; stroke-opacity: 0.3; stroke-width: 2; stroke-linecap: square"/>
   </g>
   <g id="line2d_20">
    <path d="M 157.957424 145.352 
L 162.158939 152.119878 
L 166.360455 159.465485 
L 170.56197 167.517225 
L 172.662727 171.774135 
L 181.065758 190.392261 
L 185.267273 200.34549 
L 195.771061 225.057211 
L 197.871818 229.685016 
L 202.073333 237.972146 
L 206.274848 245.951831 
L 210.476364 254.062791 
L 218.879394 269.969418 
L 229.383182 290.849586 
L 233.584697 299.454389 
L 237.786212 308.442893 
L 244.088485 323.105636 
L 256.69303 351.735011 
L 260.894545 360.55366 
L 265.096061 368.986313 
L 279.801364 397.119717 
L 286.103636 407.866868 
L 290.305152 414.696905 
L 294.506667 420.852017 
L 300.808939 429.746229 
L 305.010455 435.621008 
L 309.21197 441.127871 
L 313.413485 446.09845 
L 317.615 450.861674 
L 321.816515 455.104389 
L 332.320303 465.165575 
L 338.622576 470.845373 
L 342.824091 474.277643 
L 347.025606 477.335043 
L 355.428636 482.988522 
L 359.630152 485.432873 
L 365.932424 488.904607 
L 374.335455 493.154877 
L 380.637727 496.020684 
L 386.94 498.654386 
L 397.443788 502.590171 
L 403.746061 504.717485 
L 410.048333 506.636355 
L 416.350606 508.283776 
L 422.652879 509.732763 
L 428.955152 510.970588 
L 435.257424 512.032119 
L 441.559697 512.877114 
L 447.86197 513.527555 
L 456.265 514.179642 
L 466.768788 514.695766 
L 479.373333 515.029326 
L 496.179394 515.18696 
L 538.194545 515.305176 
L 737.766515 515.382953 
L 746.169545 515.383412 
L 746.169545 515.383412 
" clip-path="url(#p35529deb62)" style="fill: none; stroke: #d72700; stroke-opacity: 0.3; stroke-width: 2; stroke-linecap: square"/>
   </g>
   <g id="line2d_21">
    <path d="M 115.942273 107.854165 
L 118.04303 109.282032 
L 120.143788 110.836278 
L 122.244545 112.103833 
L 124.345303 113.159593 
L 126.446061 114.466791 
L 128.546818 115.708599 
L 130.647576 116.775442 
L 132.748333 117.718775 
L 134.849091 118.731041 
L 136.949848 119.890403 
L 139.050606 122.61362 
L 141.151364 125.485098 
L 143.252121 128.028483 
L 145.352879 130.271334 
L 147.453636 132.581312 
L 149.554394 134.941098 
L 151.655152 137.412941 
L 153.755909 139.919075 
L 155.856667 142.375958 
L 157.957424 145.352 
" clip-path="url(#p35529deb62)" style="fill: none; stroke: #000000; stroke-opacity: 0.3; stroke-width: 2; stroke-linecap: square"/>
   </g>
   <g id="line2d_22">
    <path d="M 157.957424 145.352 
L 166.360455 164.093917 
L 170.56197 174.025461 
L 176.864242 190.059115 
L 183.166515 205.806618 
L 189.468788 220.515378 
L 202.073333 249.611601 
L 210.476364 269.737417 
L 223.080909 298.604221 
L 225.181667 303.5596 
L 237.786212 335.432621 
L 239.88697 340.886352 
L 250.390758 366.003247 
L 256.69303 380.491614 
L 262.995303 394.317566 
L 267.196818 403.083572 
L 275.599848 420.15312 
L 281.902121 431.92432 
L 286.103636 439.146671 
L 290.305152 445.93987 
L 294.506667 452.268452 
L 298.708182 458.291188 
L 305.010455 466.866661 
L 309.21197 472.229968 
L 313.413485 477.011041 
L 317.615 481.360532 
L 321.816515 485.174209 
L 326.01803 488.623787 
L 330.219545 491.792385 
L 334.421061 494.625045 
L 338.622576 497.152537 
L 342.824091 499.393189 
L 347.025606 501.381079 
L 353.327879 504.027145 
L 357.529394 505.485734 
L 363.831667 507.377442 
L 370.133939 509.076831 
L 376.436212 510.494227 
L 382.738485 511.692647 
L 389.040758 512.646552 
L 395.34303 513.364762 
L 403.746061 514.075146 
L 412.149091 514.547685 
L 422.652879 514.911219 
L 437.358182 515.159581 
L 460.466515 515.283689 
L 586.51197 515.376006 
L 746.169545 515.432388 
L 746.169545 515.432388 
" clip-path="url(#p35529deb62)" style="fill: none; stroke: #9b002e; stroke-opacity: 0.3; stroke-width: 2; stroke-linecap: square"/>
   </g>
   <g id="line2d_23">
    <path d="M 115.942273 96.485891 
L 118.04303 97.477313 
L 120.143788 98.724195 
L 122.244545 99.807484 
L 124.345303 101.036706 
L 126.446061 102.433988 
L 128.546818 103.915651 
L 130.647576 105.232393 
L 132.748333 106.70754 
L 134.849091 108.252509 
L 136.949848 109.867395 
L 139.050606 112.734401 
L 141.151364 115.596926 
L 143.252121 118.874694 
L 145.352879 122.250116 
L 147.453636 125.62315 
L 149.554394 129.027663 
L 151.655152 132.879474 
L 153.755909 136.8563 
L 155.856667 140.918399 
L 157.957424 145.352 
" clip-path="url(#p35529deb62)" style="fill: none; stroke: #000000; stroke-opacity: 0.3; stroke-width: 2; stroke-linecap: square"/>
   </g>
   <g id="line2d_24">
    <path d="M 157.957424 145.352 
L 162.158939 155.064424 
L 168.461212 169.143879 
L 170.56197 174.171754 
L 174.763485 184.651827 
L 178.965 195.332347 
L 181.065758 201.066792 
L 187.36803 216.766631 
L 202.073333 252.71893 
L 206.274848 262.877879 
L 210.476364 273.301338 
L 216.778636 288.154553 
L 218.879394 292.759409 
L 227.282424 309.89873 
L 233.584697 322.602705 
L 235.685455 326.577009 
L 246.189242 344.000114 
L 250.390758 349.683796 
L 254.592273 354.556722 
L 258.793788 358.932779 
L 262.995303 363.295618 
L 267.196818 367.849409 
L 271.398333 372.171261 
L 279.801364 380.527345 
L 281.902121 382.250434 
L 292.405909 390.011902 
L 296.607424 393.466821 
L 302.909697 398.530942 
L 305.010455 400.149953 
L 307.111212 401.606664 
L 311.312727 403.973347 
L 315.514242 406.503077 
L 328.118788 413.611037 
L 332.320303 416.029248 
L 336.521818 418.279454 
L 340.723333 420.331697 
L 351.227121 425.264546 
L 353.327879 426.112973 
L 359.630152 428.314608 
L 370.133939 432.332381 
L 380.637727 435.54642 
L 391.141515 438.612683 
L 399.544545 442.314077 
L 405.846818 444.549042 
L 410.048333 445.933085 
L 414.249848 447.25802 
L 426.854394 451.434301 
L 431.055909 452.6061 
L 435.257424 453.596452 
L 441.559697 454.995191 
L 452.063485 457.710612 
L 481.474091 466.378323 
L 487.776364 467.743549 
L 498.280152 469.57865 
L 502.481667 470.257115 
L 508.783939 471.01558 
L 515.086212 471.526337 
L 519.287727 471.884056 
L 527.690758 472.738278 
L 536.093788 473.554614 
L 544.496818 474.299998 
L 552.899848 475.248272 
L 565.504394 476.994677 
L 594.915 479.947813 
L 607.519545 481.031486 
L 611.721061 481.560929 
L 622.224848 482.535352 
L 632.728636 483.013565 
L 647.433939 483.555405 
L 657.937727 484.13908 
L 666.340758 484.766788 
L 672.64303 485.249166 
L 678.945303 485.653324 
L 693.650606 486.36445 
L 714.658182 486.822395 
L 718.859697 486.867045 
L 729.363485 487.034537 
L 739.867273 487.065147 
L 744.068788 487.180213 
L 746.169545 487.192774 
L 746.169545 487.192774 
" clip-path="url(#p35529deb62)" style="fill: none; stroke: #70b8ff; stroke-opacity: 0.3; stroke-width: 2; stroke-linecap: square"/>
   </g>
   <g id="line2d_25">
    <path d="M 115.942273 90.575812 
L 118.04303 91.805268 
L 120.143788 93.19697 
L 122.244545 94.87775 
L 124.345303 96.634619 
L 126.446061 98.396268 
L 128.546818 100.085834 
L 130.647576 101.559219 
L 132.748333 103.40954 
L 134.849091 105.236373 
L 136.949848 107.183796 
L 139.050606 110.09107 
L 141.151364 113.555147 
L 143.252121 117.135938 
L 145.352879 120.870835 
L 147.453636 124.465562 
L 149.554394 128.033048 
L 151.655152 132.156839 
L 153.755909 136.227975 
L 155.856667 140.524913 
L 157.957424 145.352 
" clip-path="url(#p35529deb62)" style="fill: none; stroke: #000000; stroke-opacity: 0.3; stroke-width: 2; stroke-linecap: square"/>
   </g>
   <g id="line2d_26">
    <path d="M 157.957424 145.352 
L 162.158939 153.133983 
L 164.259697 157.001279 
L 170.56197 167.592419 
L 172.662727 171.344796 
L 176.864242 179.717263 
L 181.065758 188.087545 
L 183.166515 192.07423 
L 187.36803 200.737318 
L 189.468788 205.172209 
L 197.871818 221.34844 
L 202.073333 228.646753 
L 206.274848 235.576814 
L 212.577121 246.97846 
L 216.778636 255.106203 
L 220.980152 262.839733 
L 231.483939 282.92145 
L 237.786212 295.394843 
L 239.88697 299.433423 
L 246.189242 310.131753 
L 250.390758 317.112228 
L 254.592273 323.735368 
L 260.894545 332.674568 
L 267.196818 341.790459 
L 271.398333 347.696869 
L 281.902121 360.721435 
L 286.103636 366.42179 
L 290.305152 372.104977 
L 294.506667 377.351365 
L 302.909697 387.486511 
L 309.21197 394.23587 
L 317.615 402.874117 
L 321.816515 407.138267 
L 328.118788 413.160624 
L 336.521818 420.64138 
L 342.824091 425.939349 
L 353.327879 434.151106 
L 357.529394 437.089889 
L 359.630152 438.431499 
L 363.831667 440.669214 
L 368.033182 442.697761 
L 376.436212 446.436041 
L 382.738485 448.773859 
L 397.443788 453.488573 
L 403.746061 456.037736 
L 418.451364 462.714215 
L 433.156667 469.707259 
L 437.358182 471.543259 
L 445.761212 474.772565 
L 458.365758 479.381102 
L 464.66803 481.574883 
L 479.373333 486.196386 
L 487.776364 488.685597 
L 494.078636 490.309812 
L 500.380909 491.638399 
L 506.683182 492.720479 
L 515.086212 493.994121 
L 529.791515 495.656945 
L 538.194545 496.305886 
L 561.302879 497.968237 
L 569.705909 498.254651 
L 576.008182 498.42389 
L 582.310455 498.590485 
L 599.116515 498.7109 
L 609.620303 498.522337 
L 630.627879 498.095686 
L 636.930152 497.947793 
L 649.534697 497.622658 
L 674.743788 497.31714 
L 689.449091 497.357228 
L 714.658182 497.249215 
L 720.960455 497.035636 
L 727.262727 496.766269 
L 737.766515 496.698618 
L 746.169545 496.411255 
L 746.169545 496.411255 
" clip-path="url(#p35529deb62)" style="fill: none; stroke: #f57600; stroke-opacity: 0.3; stroke-width: 2; stroke-linecap: square"/>
   </g>
   <g id="line2d_27">
    <path d="M 115.942273 96.337316 
L 118.04303 97.847284 
L 120.143788 99.796724 
L 122.244545 101.594669 
L 124.345303 103.662292 
L 126.446061 105.705793 
L 128.546818 107.748532 
L 130.647576 109.442361 
L 132.748333 110.926203 
L 134.849091 112.222988 
L 136.949848 113.561707 
L 139.050606 116.517839 
L 141.151364 119.685016 
L 143.252121 122.822391 
L 145.352879 125.769946 
L 147.453636 128.607039 
L 149.554394 131.612465 
L 151.655152 134.737232 
L 153.755909 137.91169 
L 155.856667 141.459973 
L 157.957424 145.352 
" clip-path="url(#p35529deb62)" style="fill: none; stroke: #000000; stroke-opacity: 0.3; stroke-width: 2; stroke-linecap: square"/>
   </g>
   <g id="line2d_28">
    <path d="M 157.957424 145.352 
L 162.158939 154.532204 
L 164.259697 159.208476 
L 166.360455 164.325778 
L 174.763485 186.129396 
L 181.065758 203.497501 
L 183.166515 208.943527 
L 187.36803 220.705523 
L 191.569545 232.232663 
L 199.972576 254.747688 
L 208.375606 277.613948 
L 218.879394 303.372558 
L 231.483939 333.089948 
L 235.685455 342.676476 
L 241.987727 355.90578 
L 246.189242 364.174035 
L 252.491515 375.416238 
L 256.69303 382.504371 
L 260.894545 389.152515 
L 265.096061 395.412099 
L 269.297576 401.177267 
L 275.599848 408.606527 
L 281.902121 415.3885 
L 286.103636 419.328609 
L 292.405909 424.888467 
L 296.607424 428.24534 
L 300.808939 431.359539 
L 305.010455 434.260578 
L 319.715758 443.799425 
L 326.01803 448.122764 
L 336.521818 455.603744 
L 351.227121 465.255711 
L 361.730909 471.210701 
L 374.335455 477.68886 
L 386.94 483.716728 
L 395.34303 487.349779 
L 399.544545 488.964203 
L 405.846818 491.104436 
L 414.249848 493.60173 
L 418.451364 494.746156 
L 422.652879 495.753356 
L 437.358182 498.986036 
L 445.761212 500.748203 
L 454.164242 502.307104 
L 466.768788 504.417575 
L 473.071061 505.292186 
L 481.474091 506.192836 
L 502.481667 508.148688 
L 519.287727 509.516782 
L 531.892273 510.448903 
L 544.496818 511.150371 
L 557.101364 511.618577 
L 567.605152 511.768665 
L 584.411212 511.983917 
L 624.325606 512.46829 
L 647.433939 512.679087 
L 704.154394 513.408811 
L 746.169545 513.745451 
L 746.169545 513.745451 
" clip-path="url(#p35529deb62)" style="fill: none; stroke: #f57600; stroke-opacity: 0.3; stroke-width: 2; stroke-linecap: square"/>
   </g>
   <g id="line2d_29">
    <path d="M 115.942273 94.079957 
L 118.04303 95.203753 
L 120.143788 96.276558 
L 122.244545 97.495119 
L 124.345303 98.520627 
L 126.446061 99.957547 
L 128.546818 101.630424 
L 130.647576 103.109453 
L 132.748333 104.557148 
L 134.849091 106.072487 
L 136.949848 107.746866 
L 139.050606 110.48481 
L 141.151364 113.64412 
L 143.252121 116.993541 
L 145.352879 120.305843 
L 147.453636 123.627993 
L 149.554394 127.266579 
L 151.655152 131.513979 
L 153.755909 135.981433 
L 155.856667 140.673595 
L 157.957424 145.352 
" clip-path="url(#p35529deb62)" style="fill: none; stroke: #000000; stroke-opacity: 0.3; stroke-width: 2; stroke-linecap: square"/>
   </g>
   <g id="line2d_30">
    <path d="M 157.957424 145.352 
L 162.158939 150.566899 
L 164.259697 153.256991 
L 176.864242 170.857631 
L 178.965 173.565323 
L 185.267273 182.335904 
L 189.468788 188.07645 
L 191.569545 191.359534 
L 195.771061 198.864506 
L 199.972576 206.810549 
L 206.274848 219.248047 
L 220.980152 250.221051 
L 233.584697 271.790481 
L 241.987727 285.338923 
L 250.390758 300.583585 
L 260.894545 319.747735 
L 262.995303 323.964918 
L 269.297576 337.555423 
L 275.599848 351.316013 
L 281.902121 364.185428 
L 286.103636 372.489869 
L 290.305152 380.723924 
L 307.111212 412.558757 
L 313.413485 424.148391 
L 321.816515 439.375118 
L 328.118788 450.66841 
L 334.421061 461.100689 
L 338.622576 467.706171 
L 342.824091 473.752992 
L 347.025606 479.408661 
L 351.227121 484.66646 
L 355.428636 489.612405 
L 359.630152 494.035795 
L 363.831667 497.917796 
L 368.033182 501.294499 
L 372.234697 504.15958 
L 376.436212 506.519823 
L 380.637727 508.458467 
L 384.839242 510.07529 
L 389.040758 511.334182 
L 393.242273 512.335955 
L 397.443788 513.10959 
L 401.645303 513.680206 
L 407.947576 514.277181 
L 416.350606 514.787086 
L 426.854394 515.148338 
L 441.559697 515.416513 
L 460.466515 515.487964 
L 620.124091 515.533876 
L 746.169545 515.54001 
L 746.169545 515.54001 
" clip-path="url(#p35529deb62)" style="fill: none; stroke: #2b084d; stroke-opacity: 0.3; stroke-width: 2; stroke-linecap: square"/>
   </g>
   <g id="line2d_31">
    <path d="M 115.942273 100.893196 
L 118.04303 102.335129 
L 120.143788 103.769726 
L 122.244545 105.157448 
L 124.345303 106.219026 
L 126.446061 107.241383 
L 128.546818 108.493123 
L 130.647576 109.829337 
L 132.748333 111.231502 
L 134.849091 112.704069 
L 136.949848 114.325827 
L 139.050606 117.515694 
L 141.151364 121.102487 
L 143.252121 124.464415 
L 145.352879 127.67545 
L 147.453636 130.804467 
L 149.554394 133.916289 
L 151.655152 136.964867 
L 153.755909 139.777807 
L 155.856667 142.607372 
L 157.957424 145.352 
" clip-path="url(#p35529deb62)" style="fill: none; stroke: #000000; stroke-opacity: 0.3; stroke-width: 2; stroke-linecap: square"/>
   </g>
   <g id="line2d_32">
    <path d="M 157.957424 145.352 
L 160.058182 148.884057 
L 164.259697 155.23139 
L 168.461212 161.520589 
L 170.56197 165.059758 
L 172.662727 169.058481 
L 181.065758 186.160976 
L 185.267273 194.973086 
L 187.36803 199.279799 
L 189.468788 203.105031 
L 193.670303 210.376486 
L 195.771061 214.051375 
L 199.972576 222.08428 
L 204.174091 231.169471 
L 214.677879 255.571679 
L 220.980152 269.093668 
L 229.383182 287.81137 
L 233.584697 298.216563 
L 239.88697 313.434825 
L 246.189242 328.546372 
L 250.390758 338.330803 
L 262.995303 365.269346 
L 273.499091 387.026839 
L 279.801364 399.273859 
L 284.002879 406.852541 
L 288.204394 413.992922 
L 296.607424 427.499894 
L 302.909697 437.116565 
L 307.111212 443.175738 
L 311.312727 448.824543 
L 321.816515 461.559929 
L 326.01803 466.274001 
L 330.219545 470.62537 
L 336.521818 476.710836 
L 340.723333 480.448079 
L 344.924848 483.904098 
L 349.126364 487.044305 
L 353.327879 490.02089 
L 357.529394 492.761744 
L 361.730909 495.2113 
L 365.932424 497.395123 
L 370.133939 499.38616 
L 374.335455 501.173862 
L 380.637727 503.500046 
L 389.040758 506.281106 
L 393.242273 507.48361 
L 399.544545 509.042593 
L 405.846818 510.388937 
L 412.149091 511.487083 
L 420.552121 512.699775 
L 426.854394 513.398114 
L 435.257424 514.096135 
L 443.660455 514.574764 
L 454.164242 514.962688 
L 466.768788 515.177197 
L 489.877121 515.261517 
L 603.31803 515.385822 
L 746.169545 515.426016 
L 746.169545 515.426016 
" clip-path="url(#p35529deb62)" style="fill: none; stroke: #4b0260; stroke-opacity: 0.3; stroke-width: 2; stroke-linecap: square"/>
   </g>
   <g id="line2d_33">
    <path d="M 115.942273 95.440202 
L 118.04303 96.878757 
L 120.143788 98.680796 
L 122.244545 100.565374 
L 124.345303 102.392889 
L 126.446061 104.214398 
L 128.546818 105.931085 
L 130.647576 107.391577 
L 132.748333 108.748659 
L 134.849091 110.13205 
L 136.949848 111.624972 
L 139.050606 114.727582 
L 141.151364 118.056383 
L 143.252121 120.96343 
L 145.352879 123.817428 
L 147.453636 127.1548 
L 149.554394 130.620842 
L 151.655152 134.212143 
L 153.755909 137.88465 
L 155.856667 141.478375 
L 157.957424 145.352 
" clip-path="url(#p35529deb62)" style="fill: none; stroke: #000000; stroke-opacity: 0.3; stroke-width: 2; stroke-linecap: square"/>
   </g>
   <g id="line2d_34">
    <path d="M 157.957424 145.352 
L 170.56197 175.678338 
L 172.662727 181.156003 
L 181.065758 200.867869 
L 185.267273 211.126637 
L 191.569545 227.651442 
L 195.771061 237.993948 
L 204.174091 257.808523 
L 208.375606 268.20242 
L 212.577121 277.315742 
L 214.677879 281.625225 
L 227.282424 311.093677 
L 235.685455 330.039093 
L 239.88697 338.871075 
L 248.29 356.323782 
L 250.390758 360.482488 
L 267.196818 395.550528 
L 269.297576 399.567878 
L 275.599848 410.660082 
L 281.902121 421.206805 
L 288.204394 430.720829 
L 292.405909 436.618167 
L 296.607424 442.118828 
L 300.808939 447.175211 
L 309.21197 456.262959 
L 315.514242 462.908574 
L 323.917273 471.021048 
L 328.118788 474.946974 
L 332.320303 478.671398 
L 336.521818 482.130396 
L 342.824091 486.949934 
L 349.126364 491.410808 
L 353.327879 494.174988 
L 359.630152 497.847289 
L 363.831667 500.089194 
L 370.133939 503.053158 
L 374.335455 504.769139 
L 378.53697 506.304431 
L 382.738485 507.67401 
L 386.94 508.885425 
L 391.141515 509.910863 
L 397.443788 511.195333 
L 403.746061 512.198501 
L 410.048333 512.947177 
L 418.451364 513.662453 
L 428.955152 514.269776 
L 439.458939 514.650501 
L 458.365758 515.097576 
L 477.272576 515.321272 
L 504.582424 515.395544 
L 746.169545 515.486769 
L 746.169545 515.486769 
" clip-path="url(#p35529deb62)" style="fill: none; stroke: #4f0162; stroke-opacity: 0.3; stroke-width: 2; stroke-linecap: square"/>
   </g>
   <g id="line2d_35">
    <path d="M 115.942273 89.907382 
L 118.04303 91.121366 
L 120.143788 92.360328 
L 122.244545 93.66328 
L 124.345303 95.081499 
L 126.446061 97.001319 
L 128.546818 99.11155 
L 130.647576 100.983314 
L 132.748333 102.891511 
L 134.849091 104.671709 
L 136.949848 106.615296 
L 139.050606 109.963604 
L 141.151364 113.443935 
L 143.252121 116.888925 
L 145.352879 120.27797 
L 147.453636 123.805938 
L 149.554394 127.334682 
L 151.655152 131.32098 
L 153.755909 135.664969 
L 155.856667 140.525656 
L 157.957424 145.352 
" clip-path="url(#p35529deb62)" style="fill: none; stroke: #000000; stroke-opacity: 0.3; stroke-width: 2; stroke-linecap: square"/>
   </g>
   <g id="line2d_36">
    <path d="M 157.957424 145.352 
L 162.158939 151.938091 
L 164.259697 155.557085 
L 172.662727 171.082122 
L 174.763485 175.248958 
L 178.965 183.941309 
L 181.065758 188.325439 
L 183.166515 193.150535 
L 195.771061 224.839129 
L 204.174091 247.80835 
L 210.476364 263.895612 
L 216.778636 279.324789 
L 223.080909 293.209298 
L 227.282424 300.904511 
L 229.383182 304.525038 
L 233.584697 311.084868 
L 235.685455 314.310617 
L 237.786212 317.148404 
L 241.987727 322.165785 
L 244.088485 324.37814 
L 252.491515 332.284573 
L 256.69303 336.049449 
L 258.793788 337.834859 
L 260.894545 339.820748 
L 267.196818 345.037337 
L 277.700606 352.520918 
L 281.902121 355.143965 
L 286.103636 357.527202 
L 296.607424 364.306549 
L 300.808939 366.558745 
L 302.909697 367.562011 
L 307.111212 369.944071 
L 309.21197 370.921433 
L 313.413485 373.126792 
L 321.816515 377.188307 
L 328.118788 379.849592 
L 336.521818 382.520932 
L 338.622576 382.968519 
L 351.227121 386.51445 
L 357.529394 388.727918 
L 361.730909 390.275803 
L 368.033182 392.703901 
L 370.133939 393.51981 
L 372.234697 394.511412 
L 384.839242 398.64236 
L 386.94 399.231519 
L 393.242273 400.385746 
L 395.34303 400.407735 
L 405.846818 399.042767 
L 412.149091 397.354734 
L 414.249848 396.695815 
L 428.955152 393.459435 
L 437.358182 392.868007 
L 439.458939 392.833675 
L 443.660455 392.917665 
L 445.761212 392.757869 
L 447.86197 392.425048 
L 462.567273 391.43885 
L 473.071061 390.06723 
L 477.272576 389.021645 
L 481.474091 387.383112 
L 489.877121 383.831904 
L 494.078636 382.279639 
L 504.582424 376.731624 
L 510.884697 372.899123 
L 515.086212 369.920142 
L 517.18697 368.181589 
L 519.287727 366.650015 
L 525.59 362.823286 
L 527.690758 361.492232 
L 531.892273 358.356183 
L 536.093788 354.737972 
L 538.194545 353.32692 
L 544.496818 348.639572 
L 550.799091 344.368775 
L 557.101364 341.167428 
L 561.302879 339.414814 
L 569.705909 335.010357 
L 571.806667 334.190419 
L 573.907424 333.239448 
L 578.108939 331.637606 
L 584.411212 329.108419 
L 588.612727 327.073457 
L 603.31803 318.60312 
L 607.519545 316.422448 
L 620.124091 308.812442 
L 622.224848 307.673214 
L 626.426364 305.111812 
L 628.527121 304.043833 
L 630.627879 303.10139 
L 636.930152 300.644389 
L 639.030909 299.825111 
L 641.131667 298.880817 
L 643.232424 297.719805 
L 645.333182 296.812987 
L 649.534697 294.466367 
L 657.937727 290.710833 
L 664.24 288.22439 
L 670.542273 286.108163 
L 674.743788 284.498287 
L 676.844545 283.487836 
L 681.046061 281.898232 
L 683.146818 281.111742 
L 687.348333 280.109125 
L 689.449091 279.845901 
L 695.751364 279.449983 
L 699.952879 279.0353 
L 704.154394 278.451024 
L 708.355909 277.975501 
L 712.557424 277.744589 
L 718.859697 276.954038 
L 720.960455 276.814223 
L 723.061212 276.554436 
L 729.363485 276.090266 
L 733.565 275.57932 
L 735.665758 275.269947 
L 737.766515 275.097052 
L 739.867273 274.707086 
L 746.169545 274.394061 
L 746.169545 274.394061 
" clip-path="url(#p35529deb62)" style="fill: none; stroke: #e94200; stroke-opacity: 0.3; stroke-width: 2; stroke-linecap: square"/>
   </g>
   <g id="line2d_37">
    <path d="M 115.942273 105.465953 
L 118.04303 106.830023 
L 120.143788 108.230391 
L 122.244545 109.489772 
L 124.345303 110.522493 
L 126.446061 111.6762 
L 128.546818 113.019168 
L 130.647576 114.071817 
L 132.748333 115.261109 
L 134.849091 116.350453 
L 136.949848 117.675949 
L 139.050606 120.21187 
L 141.151364 122.963093 
L 143.252121 125.529362 
L 145.352879 128.008584 
L 147.453636 130.545544 
L 149.554394 133.303922 
L 151.655152 136.243739 
L 153.755909 139.097196 
L 155.856667 142.168863 
L 157.957424 145.352 
" clip-path="url(#p35529deb62)" style="fill: none; stroke: #000000; stroke-opacity: 0.3; stroke-width: 2; stroke-linecap: square"/>
   </g>
   <g id="line2d_38">
    <path d="M 157.957424 145.352 
L 160.058182 148.873737 
L 168.461212 162.032821 
L 170.56197 164.967365 
L 176.864242 174.454018 
L 181.065758 180.368117 
L 183.166515 183.084155 
L 189.468788 190.350481 
L 193.670303 194.673666 
L 195.771061 197.053024 
L 202.073333 203.672613 
L 208.375606 211.128499 
L 210.476364 213.820284 
L 214.677879 219.671731 
L 216.778636 222.251221 
L 220.980152 226.821327 
L 223.080909 229.07593 
L 229.383182 236.969822 
L 233.584697 241.495223 
L 244.088485 251.221786 
L 246.189242 253.327752 
L 252.491515 260.390949 
L 254.592273 262.844256 
L 256.69303 265.527414 
L 258.793788 268.525828 
L 262.995303 275.553896 
L 269.297576 286.184262 
L 273.499091 293.870072 
L 279.801364 305.737022 
L 286.103636 316.754072 
L 290.305152 323.690742 
L 294.506667 330.180667 
L 296.607424 333.11867 
L 300.808939 338.525203 
L 307.111212 345.978374 
L 311.312727 350.447916 
L 315.514242 354.631978 
L 319.715758 358.85955 
L 321.816515 361.176302 
L 330.219545 369.695083 
L 334.421061 374.19251 
L 340.723333 380.967418 
L 347.025606 387.752446 
L 359.630152 400.793247 
L 368.033182 408.686175 
L 372.234697 412.304744 
L 374.335455 413.952674 
L 378.53697 417.067754 
L 382.738485 420.252798 
L 397.443788 430.183517 
L 403.746061 434.253512 
L 410.048333 437.998647 
L 418.451364 442.79079 
L 420.552121 443.867158 
L 422.652879 444.79762 
L 426.854394 446.373443 
L 433.156667 448.343015 
L 447.86197 452.045406 
L 456.265 454.175773 
L 460.466515 455.207419 
L 464.66803 456.41746 
L 468.869545 457.98676 
L 479.373333 462.243975 
L 487.776364 465.478237 
L 502.481667 471.363384 
L 508.783939 473.837837 
L 512.985455 475.272705 
L 533.99303 482.437577 
L 540.295303 484.234443 
L 548.698333 486.321318 
L 557.101364 488.084539 
L 563.403636 489.219357 
L 569.705909 490.191727 
L 580.209697 491.511208 
L 588.612727 492.428599 
L 594.915 492.967337 
L 601.217273 493.572137 
L 613.821818 494.486212 
L 653.736212 497.610488 
L 664.24 498.552291 
L 668.441515 498.732731 
L 674.743788 499.060032 
L 683.146818 499.76603 
L 693.650606 500.59382 
L 704.154394 501.167633 
L 714.658182 501.80199 
L 720.960455 502.074402 
L 733.565 502.41106 
L 744.068788 502.472386 
L 746.169545 502.499701 
L 746.169545 502.499701 
" clip-path="url(#p35529deb62)" style="fill: none; stroke: #f36100; stroke-opacity: 0.3; stroke-width: 2; stroke-linecap: square"/>
   </g>
   <g id="line2d_39">
    <path d="M 115.942273 102.149071 
L 118.04303 103.524174 
L 120.143788 104.935868 
L 122.244545 106.205435 
L 124.345303 107.246509 
L 126.446061 108.409547 
L 128.546818 109.763377 
L 130.647576 110.82454 
L 132.748333 112.023451 
L 134.849091 113.121606 
L 136.949848 114.457822 
L 139.050606 117.014254 
L 141.151364 119.763313 
L 143.252121 122.698451 
L 145.352879 125.515964 
L 147.453636 128.335628 
L 149.554394 131.459646 
L 151.655152 134.877599 
L 153.755909 138.044281 
L 155.856667 141.676014 
L 157.957424 145.352 
" clip-path="url(#p35529deb62)" style="fill: none; stroke: #000000; stroke-opacity: 0.3; stroke-width: 2; stroke-linecap: square"/>
   </g>
   <g id="line2d_40">
    <path d="M 157.957424 145.352 
L 160.058182 148.74737 
L 164.259697 156.150653 
L 170.56197 168.687353 
L 174.763485 177.821834 
L 181.065758 192.814972 
L 185.267273 203.215375 
L 193.670303 225.727511 
L 197.871818 238.209398 
L 204.174091 258.281778 
L 212.577121 285.407295 
L 218.879394 304.974531 
L 225.181667 323.356414 
L 229.383182 334.728196 
L 235.685455 351.043707 
L 239.88697 361.108104 
L 244.088485 370.382411 
L 248.29 378.862554 
L 252.491515 386.743023 
L 258.793788 397.900212 
L 262.995303 405.151475 
L 267.196818 411.819273 
L 271.398333 418.256475 
L 273.499091 421.185617 
L 281.902121 432.022178 
L 288.204394 439.164369 
L 294.506667 446.260752 
L 305.010455 458.170165 
L 311.312727 464.941253 
L 319.715758 473.470449 
L 326.01803 479.296284 
L 332.320303 484.830149 
L 336.521818 488.071242 
L 340.723333 491.031488 
L 344.924848 493.666181 
L 349.126364 496.052429 
L 353.327879 498.224773 
L 357.529394 500.19943 
L 363.831667 502.809897 
L 368.033182 504.351571 
L 374.335455 506.362089 
L 378.53697 507.529257 
L 384.839242 508.990504 
L 393.242273 510.741021 
L 399.544545 511.820777 
L 405.846818 512.68184 
L 414.249848 513.55429 
L 422.652879 514.160905 
L 431.055909 514.538852 
L 445.761212 514.939733 
L 456.265 515.026684 
L 519.287727 515.072056 
L 746.169545 515.088399 
L 746.169545 515.088399 
" clip-path="url(#p35529deb62)" style="fill: none; stroke: #d12003; stroke-opacity: 0.3; stroke-width: 2; stroke-linecap: square"/>
   </g>
   <g id="line2d_41">
    <path d="M 115.942273 101.723769 
L 118.04303 103.100287 
L 120.143788 104.513433 
L 122.244545 105.784306 
L 124.345303 106.826451 
L 126.446061 107.990686 
L 128.546818 109.345908 
L 130.647576 110.408163 
L 132.748333 111.608308 
L 134.849091 112.707592 
L 136.949848 114.045183 
L 139.050606 116.604245 
L 141.151364 119.545437 
L 143.252121 122.639429 
L 145.352879 125.574389 
L 147.453636 128.696874 
L 149.554394 131.933245 
L 151.655152 135.301816 
L 153.755909 138.427741 
L 155.856667 141.8336 
L 157.957424 145.352 
" clip-path="url(#p35529deb62)" style="fill: none; stroke: #000000; stroke-opacity: 0.3; stroke-width: 2; stroke-linecap: square"/>
   </g>
   <g id="line2d_42">
    <path d="M 157.957424 145.352 
L 162.158939 155.656543 
L 164.259697 161.37397 
L 168.461212 173.923068 
L 172.662727 187.532722 
L 176.864242 201.95406 
L 181.065758 216.701321 
L 197.871818 276.259593 
L 202.073333 290.485102 
L 206.274848 303.645012 
L 210.476364 316.130648 
L 218.879394 339.436237 
L 223.080909 350.558751 
L 227.282424 360.907573 
L 229.383182 365.823362 
L 235.685455 379.435238 
L 248.29 404.572895 
L 252.491515 412.49748 
L 256.69303 420.022649 
L 260.894545 427.190081 
L 265.096061 433.959328 
L 269.297576 440.304426 
L 273.499091 446.175267 
L 279.801364 454.161786 
L 284.002879 459.101875 
L 288.204394 463.638722 
L 292.405909 467.86798 
L 296.607424 471.740549 
L 302.909697 476.99975 
L 311.312727 483.327557 
L 317.615 487.591616 
L 321.816515 490.184315 
L 328.118788 493.606086 
L 334.421061 496.470404 
L 340.723333 499.069769 
L 347.025606 501.341659 
L 353.327879 503.262929 
L 359.630152 504.921507 
L 368.033182 506.817052 
L 376.436212 508.508806 
L 384.839242 509.883916 
L 393.242273 510.959685 
L 401.645303 511.740487 
L 412.149091 512.427136 
L 424.753636 512.978879 
L 447.86197 513.743037 
L 475.171818 514.353404 
L 491.977879 514.535724 
L 552.899848 514.753344 
L 641.131667 514.870734 
L 683.146818 514.859702 
L 746.169545 514.957817 
L 746.169545 514.957817 
" clip-path="url(#p35529deb62)" style="fill: none; stroke: #db2e00; stroke-opacity: 0.3; stroke-width: 2; stroke-linecap: square"/>
   </g>
   <g id="line2d_43">
    <path d="M 115.942273 87.305134 
L 118.04303 88.439302 
L 120.143788 89.885759 
L 122.244545 91.449196 
L 124.345303 92.664844 
L 126.446061 94.215785 
L 128.546818 96.013858 
L 130.647576 97.571593 
L 132.748333 99.299317 
L 134.849091 100.893752 
L 136.949848 102.683347 
L 139.050606 105.705055 
L 141.151364 109.130664 
L 143.252121 112.850432 
L 145.352879 117.058478 
L 147.453636 121.541391 
L 149.554394 126.193302 
L 151.655152 130.942837 
L 153.755909 135.615775 
L 155.856667 140.363047 
L 157.957424 145.352 
" clip-path="url(#p35529deb62)" style="fill: none; stroke: #000000; stroke-opacity: 0.3; stroke-width: 2; stroke-linecap: square"/>
   </g>
   <g id="line2d_44">
    <path d="M 157.957424 145.352 
L 160.058182 148.187265 
L 162.158939 151.229599 
L 164.259697 154.605495 
L 168.461212 162.013626 
L 170.56197 165.873268 
L 174.763485 174.726557 
L 181.065758 188.522557 
L 185.267273 198.956282 
L 212.577121 270.452001 
L 225.181667 301.161494 
L 231.483939 315.386621 
L 237.786212 329.500234 
L 250.390758 355.242851 
L 254.592273 363.241854 
L 258.793788 370.845028 
L 262.995303 377.796529 
L 269.297576 387.505157 
L 273.499091 393.550316 
L 279.801364 402.259703 
L 284.002879 407.966658 
L 288.204394 413.218276 
L 294.506667 420.415667 
L 298.708182 424.9953 
L 315.514242 441.694631 
L 319.715758 445.495273 
L 326.01803 450.763785 
L 330.219545 454.050051 
L 334.421061 457.06502 
L 349.126364 466.793279 
L 357.529394 471.471169 
L 363.831667 474.785419 
L 376.436212 481.006968 
L 380.637727 482.92895 
L 386.94 485.544162 
L 397.443788 489.634302 
L 403.746061 491.871767 
L 412.149091 494.554824 
L 420.552121 496.953619 
L 431.055909 499.704114 
L 439.458939 501.532147 
L 452.063485 504.026405 
L 458.365758 505.080814 
L 466.768788 506.257112 
L 477.272576 507.468161 
L 487.776364 508.497955 
L 498.280152 509.195071 
L 515.086212 509.91662 
L 521.388485 510.076383 
L 540.295303 510.451212 
L 607.519545 511.845097 
L 626.426364 511.986156 
L 746.169545 512.369208 
L 746.169545 512.369208 
" clip-path="url(#p35529deb62)" style="fill: none; stroke: #f47200; stroke-opacity: 0.3; stroke-width: 2; stroke-linecap: square"/>
   </g>
   <g id="line2d_45">
    <path d="M 115.942273 107.621331 
L 118.04303 108.978232 
L 120.143788 110.37124 
L 122.244545 111.624001 
L 124.345303 112.651295 
L 126.446061 113.798938 
L 128.546818 115.134847 
L 130.647576 116.181964 
L 132.748333 117.365006 
L 134.849091 118.448624 
L 136.949848 119.767153 
L 139.050606 122.289746 
L 141.151364 124.965997 
L 143.252121 127.586682 
L 145.352879 129.858786 
L 147.453636 132.007077 
L 149.554394 134.35712 
L 151.655152 136.940096 
L 153.755909 139.563003 
L 155.856667 142.365934 
L 157.957424 145.352 
" clip-path="url(#p35529deb62)" style="fill: none; stroke: #000000; stroke-opacity: 0.3; stroke-width: 2; stroke-linecap: square"/>
   </g>
   <g id="line2d_46">
    <path d="M 157.957424 145.352 
L 160.058182 149.232669 
L 164.259697 156.352108 
L 170.56197 168.241043 
L 174.763485 176.769515 
L 187.36803 205.078747 
L 202.073333 239.821394 
L 208.375606 254.012857 
L 210.476364 258.490543 
L 223.080909 283.021931 
L 227.282424 290.66558 
L 231.483939 297.709545 
L 233.584697 301.082491 
L 235.685455 304.082866 
L 244.088485 314.743583 
L 250.390758 322.384938 
L 256.69303 329.375726 
L 258.793788 331.475091 
L 262.995303 335.196828 
L 267.196818 338.449048 
L 271.398333 341.281451 
L 277.700606 345.017704 
L 281.902121 347.301592 
L 288.204394 350.446556 
L 294.506667 353.390605 
L 298.708182 355.405991 
L 305.010455 357.845687 
L 309.21197 359.299436 
L 317.615 361.766826 
L 321.816515 362.506356 
L 323.917273 362.905655 
L 328.118788 363.35145 
L 332.320303 363.463354 
L 334.421061 363.553066 
L 336.521818 363.367554 
L 342.824091 361.592185 
L 347.025606 360.520781 
L 351.227121 359.182505 
L 355.428636 357.734059 
L 363.831667 353.986053 
L 368.033182 351.751767 
L 374.335455 348.469229 
L 378.53697 346.001111 
L 380.637727 345.064333 
L 382.738485 343.935092 
L 384.839242 342.532963 
L 386.94 340.916606 
L 389.040758 339.078418 
L 393.242273 335.620294 
L 395.34303 333.458759 
L 397.443788 331.006789 
L 403.746061 322.903965 
L 407.947576 317.623547 
L 410.048333 314.782708 
L 414.249848 308.894386 
L 418.451364 302.996254 
L 422.652879 296.570929 
L 433.156667 279.711671 
L 437.358182 276.022608 
L 445.761212 269.18482 
L 454.164242 261.326883 
L 456.265 258.700165 
L 464.66803 242.429785 
L 470.970303 230.37479 
L 475.171818 221.612781 
L 479.373333 213.01012 
L 485.675606 200.533902 
L 489.877121 193.521738 
L 491.977879 190.192005 
L 494.078636 186.549366 
L 498.280152 178.212048 
L 500.380909 173.684791 
L 508.783939 154.103078 
L 512.985455 145.010166 
L 515.086212 140.685508 
L 523.489242 120.371064 
L 529.791515 103.344663 
L 533.99303 90.229861 
L 538.194545 76.899584 
L 548.698333 47.430866 
L 552.899848 34.881144 
L 557.101364 21.921516 
L 563.403636 4.260106 
L 565.14962 -1 
L 565.14962 -1 
" clip-path="url(#p35529deb62)" style="fill: none; stroke: #f9a800; stroke-opacity: 0.3; stroke-width: 2; stroke-linecap: square"/>
   </g>
   <g id="line2d_47">
    <path d="M 115.942273 103.238874 
L 118.04303 104.124201 
L 120.143788 105.375057 
L 122.244545 106.727696 
L 124.345303 107.670414 
L 126.446061 108.945476 
L 128.546818 110.351088 
L 130.647576 111.532784 
L 132.748333 112.817656 
L 134.849091 113.925368 
L 136.949848 115.27745 
L 139.050606 117.698443 
L 141.151364 120.274411 
L 143.252121 123.063459 
L 145.352879 126.038239 
L 147.453636 128.770965 
L 149.554394 131.695145 
L 151.655152 134.780515 
L 153.755909 137.816645 
L 155.856667 141.411694 
L 157.957424 145.352 
" clip-path="url(#p35529deb62)" style="fill: none; stroke: #000000; stroke-opacity: 0.3; stroke-width: 2; stroke-linecap: square"/>
   </g>
   <g id="line2d_48">
    <path d="M 157.957424 145.352 
L 162.158939 152.979188 
L 164.259697 156.622561 
L 168.461212 164.961461 
L 170.56197 169.348455 
L 181.065758 192.729385 
L 183.166515 197.690132 
L 189.468788 213.691604 
L 199.972576 241.558807 
L 204.174091 253.190566 
L 229.383182 325.173364 
L 233.584697 336.057948 
L 237.786212 346.223735 
L 241.987727 355.200828 
L 246.189242 363.620163 
L 250.390758 371.466479 
L 254.592273 378.791079 
L 258.793788 385.70779 
L 262.995303 392.125758 
L 267.196818 398.027101 
L 273.499091 406.16516 
L 290.305152 425.868582 
L 294.506667 430.228996 
L 298.708182 434.259756 
L 307.111212 441.846114 
L 313.413485 447.378924 
L 326.01803 458.618737 
L 359.630152 486.592155 
L 363.831667 489.732138 
L 368.033182 492.716022 
L 372.234697 495.519422 
L 378.53697 499.40234 
L 382.738485 501.779217 
L 386.94 503.926762 
L 391.141515 505.882165 
L 395.34303 507.624136 
L 399.544545 509.157966 
L 403.746061 510.510451 
L 407.947576 511.654382 
L 412.149091 512.578142 
L 416.350606 513.330925 
L 422.652879 514.160519 
L 428.955152 514.711236 
L 437.358182 515.147328 
L 443.660455 515.291832 
L 540.295303 515.403382 
L 746.169545 515.525793 
L 746.169545 515.525793 
" clip-path="url(#p35529deb62)" style="fill: none; stroke: #340652; stroke-opacity: 0.3; stroke-width: 2; stroke-linecap: square"/>
   </g>
   <g id="line2d_49">
    <path d="M 115.942273 103.696681 
L 118.04303 104.586196 
L 120.143788 105.844894 
L 122.244545 107.204292 
L 124.345303 108.168528 
L 126.446061 109.462892 
L 128.546818 110.885363 
L 130.647576 112.102031 
L 132.748333 113.419764 
L 134.849091 114.559073 
L 136.949848 115.933827 
L 139.050606 118.33091 
L 141.151364 120.844816 
L 143.252121 123.182379 
L 145.352879 125.529663 
L 147.453636 128.094019 
L 149.554394 131.11346 
L 151.655152 134.397064 
L 153.755909 137.931311 
L 155.856667 141.663215 
L 157.957424 145.352 
" clip-path="url(#p35529deb62)" style="fill: none; stroke: #000000; stroke-opacity: 0.3; stroke-width: 2; stroke-linecap: square"/>
   </g>
   <g id="line2d_50">
    <path d="M 764.551174 511.261929 
L 774.004583 511.261929 
L 774.004583 418.988872 
L 764.551174 418.988872 
L 764.551174 511.261929 
" clip-path="url(#p35529deb62)" style="fill: none; stroke: #88b9d3; stroke-width: 2; stroke-linecap: square"/>
   </g>
   <g id="line2d_51">
    <path d="M 769.277879 511.261929 
L 769.277879 513.570237 
" clip-path="url(#p35529deb62)" style="fill: none; stroke: #88b9d3; stroke-linecap: square"/>
   </g>
   <g id="line2d_52">
    <path d="M 769.277879 418.988872 
L 769.277879 -1 
" clip-path="url(#p35529deb62)" style="fill: none; stroke: #88b9d3; stroke-linecap: square"/>
   </g>
   <g id="line2d_53">
    <path d="M 766.914527 513.570237 
L 771.641231 513.570237 
" clip-path="url(#p35529deb62)" style="fill: none; stroke: #88b9d3; stroke-linecap: square"/>
   </g>
   <g id="line2d_54">
    <path clip-path="url(#p35529deb62)" style="fill: none; stroke: #88b9d3; stroke-linecap: square"/>
   </g>
   <g id="line2d_55">
    <path d="M 777.15572 513.280014 
L 786.609129 513.280014 
L 786.609129 456.164228 
L 777.15572 456.164228 
L 777.15572 513.280014 
" clip-path="url(#p35529deb62)" style="fill: none; stroke: #f79400; stroke-width: 2; stroke-linecap: square"/>
   </g>
   <g id="line2d_56">
    <path d="M 781.882424 513.280014 
L 781.882424 514.51441 
" clip-path="url(#p35529deb62)" style="fill: none; stroke: #f79400; stroke-linecap: square"/>
   </g>
   <g id="line2d_57">
    <path d="M 781.882424 456.164228 
L 781.882424 -1 
" clip-path="url(#p35529deb62)" style="fill: none; stroke: #f79400; stroke-linecap: square"/>
   </g>
   <g id="line2d_58">
    <path d="M 779.519072 514.51441 
L 784.245777 514.51441 
" clip-path="url(#p35529deb62)" style="fill: none; stroke: #f79400; stroke-linecap: square"/>
   </g>
   <g id="line2d_59">
    <path clip-path="url(#p35529deb62)" style="fill: none; stroke: #f79400; stroke-linecap: square"/>
   </g>
   <g id="line2d_60">
    <path d="M 789.760265 515.56 
L 799.213674 515.56 
L 799.213674 515.033292 
L 789.760265 515.033292 
L 789.760265 515.56 
" clip-path="url(#p35529deb62)" style="fill: none; stroke: #bb0817; stroke-width: 2; stroke-linecap: square"/>
   </g>
   <g id="line2d_61">
    <path d="M 794.48697 515.56 
L 794.48697 515.56 
" clip-path="url(#p35529deb62)" style="fill: none; stroke: #bb0817; stroke-linecap: square"/>
   </g>
   <g id="line2d_62">
    <path d="M 794.48697 515.033292 
L 794.48697 274.838662 
" clip-path="url(#p35529deb62)" style="fill: none; stroke: #bb0817; stroke-linecap: square"/>
   </g>
   <g id="line2d_63">
    <path d="M 792.123617 515.56 
L 796.850322 515.56 
" clip-path="url(#p35529deb62)" style="fill: none; stroke: #bb0817; stroke-linecap: square"/>
   </g>
   <g id="line2d_64">
    <path d="M 792.123617 274.838662 
L 796.850322 274.838662 
" clip-path="url(#p35529deb62)" style="fill: none; stroke: #bb0817; stroke-linecap: square"/>
   </g>
   <g id="line2d_65">
    <path d="M 764.551174 489.06641 
L 774.004583 489.06641 
" clip-path="url(#p35529deb62)" style="fill: none; stroke: #88b9d3; stroke-width: 4; stroke-linecap: square"/>
   </g>
   <g id="line2d_66">
    <path d="M 777.15572 500.690398 
L 786.609129 500.690398 
" clip-path="url(#p35529deb62)" style="fill: none; stroke: #f79400; stroke-width: 4; stroke-linecap: square"/>
   </g>
   <g id="line2d_67">
    <path d="M 789.760265 515.56 
L 799.213674 515.56 
" clip-path="url(#p35529deb62)" style="fill: none; stroke: #bb0817; stroke-width: 4; stroke-linecap: square"/>
   </g>
   <g id="patch_3">
    <path d="M 109.64 515.56 
L 109.64 52.8 
" style="fill: none; stroke: #000000; stroke-width: 0.8; stroke-linejoin: miter; stroke-linecap: square"/>
   </g>
   <g id="patch_4">
    <path d="M 109.64 515.56 
L 802.89 515.56 
" style="fill: none; stroke: #000000; stroke-width: 0.8; stroke-linejoin: miter; stroke-linecap: square"/>
   </g>
   <g id="text_14">
    <!-- +1.5C -->
    <g style="fill: #88b9d3" transform="translate(802.89 494.033285) scale(0.18 -0.18)">
     <defs>
      <path id="DejaVuSans-Bold-2b" d="M 3053 4013 
L 3053 2375 
L 4684 2375 
L 4684 1638 
L 3053 1638 
L 3053 0 
L 2309 0 
L 2309 1638 
L 678 1638 
L 678 2375 
L 2309 2375 
L 2309 4013 
L 3053 4013 
z
" transform="scale(0.015625)"/>
      <path id="DejaVuSans-Bold-31" d="M 750 831 
L 1813 831 
L 1813 3847 
L 722 3622 
L 722 4441 
L 1806 4666 
L 2950 4666 
L 2950 831 
L 4013 831 
L 4013 0 
L 750 0 
L 750 831 
z
" transform="scale(0.015625)"/>
      <path id="DejaVuSans-Bold-2e" d="M 653 1209 
L 1778 1209 
L 1778 0 
L 653 0 
L 653 1209 
z
" transform="scale(0.015625)"/>
      <path id="DejaVuSans-Bold-35" d="M 678 4666 
L 3669 4666 
L 3669 3781 
L 1638 3781 
L 1638 3059 
Q 1775 3097 1914 3117 
Q 2053 3138 2203 3138 
Q 3056 3138 3531 2711 
Q 4006 2284 4006 1522 
Q 4006 766 3489 337 
Q 2972 -91 2053 -91 
Q 1656 -91 1267 -14 
Q 878 63 494 219 
L 494 1166 
Q 875 947 1217 837 
Q 1559 728 1863 728 
Q 2300 728 2551 942 
Q 2803 1156 2803 1522 
Q 2803 1891 2551 2103 
Q 2300 2316 1863 2316 
Q 1603 2316 1309 2248 
Q 1016 2181 678 2041 
L 678 4666 
z
" transform="scale(0.015625)"/>
      <path id="DejaVuSans-Bold-b0" d="M 1600 4288 
Q 1375 4288 1219 4131 
Q 1063 3975 1063 3750 
Q 1063 3525 1217 3372 
Q 1372 3219 1600 3219 
Q 1825 3219 1981 3373 
Q 2138 3528 2138 3750 
Q 2138 3975 1980 4131 
Q 1822 4288 1600 4288 
z
M 1600 4794 
Q 1806 4794 1997 4714 
Q 2188 4634 2338 4488 
Q 2484 4338 2561 4150 
Q 2638 3963 2638 3750 
Q 2638 3541 2561 3352 
Q 2484 3163 2344 3022 
Q 2194 2872 2000 2792 
Q 1806 2713 1594 2713 
Q 1153 2713 854 3011 
Q 556 3309 556 3750 
Q 556 4191 857 4492 
Q 1159 4794 1600 4794 
z
" transform="scale(0.015625)"/>
      <path id="DejaVuSans-Bold-43" d="M 4288 256 
Q 3956 84 3597 -3 
Q 3238 -91 2847 -91 
Q 1681 -91 1000 561 
Q 319 1213 319 2328 
Q 319 3447 1000 4098 
Q 1681 4750 2847 4750 
Q 3238 4750 3597 4662 
Q 3956 4575 4288 4403 
L 4288 3438 
Q 3953 3666 3628 3772 
Q 3303 3878 2944 3878 
Q 2300 3878 1931 3465 
Q 1563 3053 1563 2328 
Q 1563 1606 1931 1193 
Q 2300 781 2944 781 
Q 3303 781 3628 887 
Q 3953 994 4288 1222 
L 4288 256 
z
" transform="scale(0.015625)"/>
     </defs>
     <use xlink:href="#DejaVuSans-Bold-2b"/>
     <use xlink:href="#DejaVuSans-Bold-31" x="83.789062"/>
     <use xlink:href="#DejaVuSans-Bold-2e" x="153.369141"/>
     <use xlink:href="#DejaVuSans-Bold-35" x="191.357422"/>
     <use xlink:href="#DejaVuSans-Bold-b0" x="260.9375"/>
     <use xlink:href="#DejaVuSans-Bold-43" x="310.9375"/>
    </g>
   </g>
   <g id="text_15">
    <!-- +2.0C -->
    <g style="fill: #f79400" transform="translate(802.89 505.657273) scale(0.18 -0.18)">
     <defs>
      <path id="DejaVuSans-Bold-32" d="M 1844 884 
L 3897 884 
L 3897 0 
L 506 0 
L 506 884 
L 2209 2388 
Q 2438 2594 2547 2791 
Q 2656 2988 2656 3200 
Q 2656 3528 2436 3728 
Q 2216 3928 1850 3928 
Q 1569 3928 1234 3808 
Q 900 3688 519 3450 
L 519 4475 
Q 925 4609 1322 4679 
Q 1719 4750 2100 4750 
Q 2938 4750 3402 4381 
Q 3866 4013 3866 3353 
Q 3866 2972 3669 2642 
Q 3472 2313 2841 1759 
L 1844 884 
z
" transform="scale(0.015625)"/>
      <path id="DejaVuSans-Bold-30" d="M 2944 2338 
Q 2944 3213 2780 3570 
Q 2616 3928 2228 3928 
Q 1841 3928 1675 3570 
Q 1509 3213 1509 2338 
Q 1509 1453 1675 1090 
Q 1841 728 2228 728 
Q 2613 728 2778 1090 
Q 2944 1453 2944 2338 
z
M 4147 2328 
Q 4147 1169 3647 539 
Q 3147 -91 2228 -91 
Q 1306 -91 806 539 
Q 306 1169 306 2328 
Q 306 3491 806 4120 
Q 1306 4750 2228 4750 
Q 3147 4750 3647 4120 
Q 4147 3491 4147 2328 
z
" transform="scale(0.015625)"/>
     </defs>
     <use xlink:href="#DejaVuSans-Bold-2b"/>
     <use xlink:href="#DejaVuSans-Bold-32" x="83.789062"/>
     <use xlink:href="#DejaVuSans-Bold-2e" x="153.369141"/>
     <use xlink:href="#DejaVuSans-Bold-30" x="191.357422"/>
     <use xlink:href="#DejaVuSans-Bold-b0" x="260.9375"/>
     <use xlink:href="#DejaVuSans-Bold-43" x="310.9375"/>
    </g>
   </g>
   <g id="text_16">
    <!-- +3.0C -->
    <g style="fill: #bb0817" transform="translate(802.89 520.526875) scale(0.18 -0.18)">
     <defs>
      <path id="DejaVuSans-Bold-33" d="M 2981 2516 
Q 3453 2394 3698 2092 
Q 3944 1791 3944 1325 
Q 3944 631 3412 270 
Q 2881 -91 1863 -91 
Q 1503 -91 1142 -33 
Q 781 25 428 141 
L 428 1069 
Q 766 900 1098 814 
Q 1431 728 1753 728 
Q 2231 728 2486 893 
Q 2741 1059 2741 1369 
Q 2741 1688 2480 1852 
Q 2219 2016 1709 2016 
L 1228 2016 
L 1228 2791 
L 1734 2791 
Q 2188 2791 2409 2933 
Q 2631 3075 2631 3366 
Q 2631 3634 2415 3781 
Q 2200 3928 1806 3928 
Q 1516 3928 1219 3862 
Q 922 3797 628 3669 
L 628 4550 
Q 984 4650 1334 4700 
Q 1684 4750 2022 4750 
Q 2931 4750 3382 4451 
Q 3834 4153 3834 3553 
Q 3834 3144 3618 2883 
Q 3403 2622 2981 2516 
z
" transform="scale(0.015625)"/>
     </defs>
     <use xlink:href="#DejaVuSans-Bold-2b"/>
     <use xlink:href="#DejaVuSans-Bold-33" x="83.789062"/>
     <use xlink:href="#DejaVuSans-Bold-2e" x="153.369141"/>
     <use xlink:href="#DejaVuSans-Bold-30" x="191.357422"/>
     <use xlink:href="#DejaVuSans-Bold-b0" x="260.9375"/>
     <use xlink:href="#DejaVuSans-Bold-43" x="310.9375"/>
    </g>
   </g>
   <g id="text_17">
    <!-- Glaciers of Scandinavia -->
    <g transform="translate(298.18375 46.8) scale(0.24 -0.24)">
     <defs>
      <path id="DejaVuSans-Bold-47" d="M 4781 347 
Q 4331 128 3847 18 
Q 3363 -91 2847 -91 
Q 1681 -91 1000 561 
Q 319 1213 319 2328 
Q 319 3456 1012 4103 
Q 1706 4750 2913 4750 
Q 3378 4750 3804 4662 
Q 4231 4575 4609 4403 
L 4609 3438 
Q 4219 3659 3833 3768 
Q 3447 3878 3059 3878 
Q 2341 3878 1952 3476 
Q 1563 3075 1563 2328 
Q 1563 1588 1938 1184 
Q 2313 781 3003 781 
Q 3191 781 3352 804 
Q 3513 828 3641 878 
L 3641 1784 
L 2906 1784 
L 2906 2591 
L 4781 2591 
L 4781 347 
z
" transform="scale(0.015625)"/>
      <path id="DejaVuSans-Bold-6c" d="M 538 4863 
L 1656 4863 
L 1656 0 
L 538 0 
L 538 4863 
z
" transform="scale(0.015625)"/>
      <path id="DejaVuSans-Bold-73" d="M 3272 3391 
L 3272 2541 
Q 2913 2691 2578 2766 
Q 2244 2841 1947 2841 
Q 1628 2841 1473 2761 
Q 1319 2681 1319 2516 
Q 1319 2381 1436 2309 
Q 1553 2238 1856 2203 
L 2053 2175 
Q 2913 2066 3209 1816 
Q 3506 1566 3506 1031 
Q 3506 472 3093 190 
Q 2681 -91 1863 -91 
Q 1516 -91 1145 -36 
Q 775 19 384 128 
L 384 978 
Q 719 816 1070 734 
Q 1422 653 1784 653 
Q 2113 653 2278 743 
Q 2444 834 2444 1013 
Q 2444 1163 2330 1236 
Q 2216 1309 1875 1350 
L 1678 1375 
Q 931 1469 631 1722 
Q 331 1975 331 2491 
Q 331 3047 712 3315 
Q 1094 3584 1881 3584 
Q 2191 3584 2531 3537 
Q 2872 3491 3272 3391 
z
" transform="scale(0.015625)"/>
      <path id="DejaVuSans-Bold-53" d="M 3834 4519 
L 3834 3531 
Q 3450 3703 3084 3790 
Q 2719 3878 2394 3878 
Q 1963 3878 1756 3759 
Q 1550 3641 1550 3391 
Q 1550 3203 1689 3098 
Q 1828 2994 2194 2919 
L 2706 2816 
Q 3484 2659 3812 2340 
Q 4141 2022 4141 1434 
Q 4141 663 3683 286 
Q 3225 -91 2284 -91 
Q 1841 -91 1394 -6 
Q 947 78 500 244 
L 500 1259 
Q 947 1022 1364 901 
Q 1781 781 2169 781 
Q 2563 781 2772 912 
Q 2981 1044 2981 1288 
Q 2981 1506 2839 1625 
Q 2697 1744 2272 1838 
L 1806 1941 
Q 1106 2091 782 2419 
Q 459 2747 459 3303 
Q 459 4000 909 4375 
Q 1359 4750 2203 4750 
Q 2588 4750 2994 4692 
Q 3400 4634 3834 4519 
z
" transform="scale(0.015625)"/>
      <path id="DejaVuSans-Bold-64" d="M 2919 2988 
L 2919 4863 
L 4044 4863 
L 4044 0 
L 2919 0 
L 2919 506 
Q 2688 197 2409 53 
Q 2131 -91 1766 -91 
Q 1119 -91 703 423 
Q 288 938 288 1747 
Q 288 2556 703 3070 
Q 1119 3584 1766 3584 
Q 2128 3584 2408 3439 
Q 2688 3294 2919 2988 
z
M 2181 722 
Q 2541 722 2730 984 
Q 2919 1247 2919 1747 
Q 2919 2247 2730 2509 
Q 2541 2772 2181 2772 
Q 1825 2772 1636 2509 
Q 1447 2247 1447 1747 
Q 1447 1247 1636 984 
Q 1825 722 2181 722 
z
" transform="scale(0.015625)"/>
      <path id="DejaVuSans-Bold-76" d="M 97 3500 
L 1216 3500 
L 2088 1081 
L 2956 3500 
L 4078 3500 
L 2700 0 
L 1472 0 
L 97 3500 
z
" transform="scale(0.015625)"/>
     </defs>
     <use xlink:href="#DejaVuSans-Bold-47"/>
     <use xlink:href="#DejaVuSans-Bold-6c" x="82.080078"/>
     <use xlink:href="#DejaVuSans-Bold-61" x="116.357422"/>
     <use xlink:href="#DejaVuSans-Bold-63" x="183.837891"/>
     <use xlink:href="#DejaVuSans-Bold-69" x="243.115234"/>
     <use xlink:href="#DejaVuSans-Bold-65" x="277.392578"/>
     <use xlink:href="#DejaVuSans-Bold-72" x="345.214844"/>
     <use xlink:href="#DejaVuSans-Bold-73" x="394.53125"/>
     <use xlink:href="#DejaVuSans-Bold-20" x="454.052734"/>
     <use xlink:href="#DejaVuSans-Bold-6f" x="488.867188"/>
     <use xlink:href="#DejaVuSans-Bold-66" x="557.568359"/>
     <use xlink:href="#DejaVuSans-Bold-20" x="601.074219"/>
     <use xlink:href="#DejaVuSans-Bold-53" x="635.888672"/>
     <use xlink:href="#DejaVuSans-Bold-63" x="707.910156"/>
     <use xlink:href="#DejaVuSans-Bold-61" x="767.1875"/>
     <use xlink:href="#DejaVuSans-Bold-6e" x="834.667969"/>
     <use xlink:href="#DejaVuSans-Bold-64" x="905.859375"/>
     <use xlink:href="#DejaVuSans-Bold-69" x="977.441406"/>
     <use xlink:href="#DejaVuSans-Bold-6e" x="1011.71875"/>
     <use xlink:href="#DejaVuSans-Bold-61" x="1082.910156"/>
     <use xlink:href="#DejaVuSans-Bold-76" x="1150.390625"/>
     <use xlink:href="#DejaVuSans-Bold-69" x="1215.576172"/>
     <use xlink:href="#DejaVuSans-Bold-61" x="1249.853516"/>
    </g>
   </g>
   <g id="LineCollection_1">
    <path d="M 322.866894 396.986741 
L 329.169167 396.986741 
" clip-path="url(#p35529deb62)" style="fill: none; stroke: #70b8ff; stroke-opacity: 0.5; stroke-width: 3"/>
   </g>
   <g id="LineCollection_2">
    <path d="M 322.866894 399.736589 
L 329.169167 399.736589 
" clip-path="url(#p35529deb62)" style="fill: none; stroke: #88b9d3; stroke-opacity: 0.5; stroke-width: 3"/>
   </g>
   <g id="LineCollection_3">
    <path d="M 322.866894 402.484472 
L 329.169167 402.484472 
" clip-path="url(#p35529deb62)" style="fill: none; stroke: #a9b996; stroke-opacity: 0.5; stroke-width: 3"/>
   </g>
   <g id="LineCollection_4">
    <path d="M 322.866894 405.297514 
L 329.169167 405.297514 
" clip-path="url(#p35529deb62)" style="fill: none; stroke: #caba59; stroke-opacity: 0.5; stroke-width: 3"/>
   </g>
   <g id="LineCollection_5">
    <path d="M 322.866894 408.247309 
L 329.169167 408.247309 
" clip-path="url(#p35529deb62)" style="fill: none; stroke: #ebbb1c; stroke-opacity: 0.5; stroke-width: 3"/>
   </g>
   <g id="LineCollection_6">
    <path d="M 322.866894 411.33843 
L 329.169167 411.33843 
" clip-path="url(#p35529deb62)" style="fill: none; stroke: #f9ad00; stroke-opacity: 0.5; stroke-width: 3"/>
   </g>
   <g id="LineCollection_7">
    <path d="M 322.866894 414.5344 
L 329.169167 414.5344 
" clip-path="url(#p35529deb62)" style="fill: none; stroke: #f79400; stroke-opacity: 0.5; stroke-width: 3"/>
   </g>
   <g id="LineCollection_8">
    <path d="M 322.866894 417.782271 
L 329.169167 417.782271 
" clip-path="url(#p35529deb62)" style="fill: none; stroke: #f57b00; stroke-opacity: 0.5; stroke-width: 3"/>
   </g>
   <g id="LineCollection_9">
    <path d="M 322.866894 421.029922 
L 329.169167 421.029922 
" clip-path="url(#p35529deb62)" style="fill: none; stroke: #f36100; stroke-opacity: 0.5; stroke-width: 3"/>
   </g>
   <g id="LineCollection_10">
    <path d="M 322.866894 424.235426 
L 329.169167 424.235426 
" clip-path="url(#p35529deb62)" style="fill: none; stroke: #ef4d00; stroke-opacity: 0.5; stroke-width: 3"/>
   </g>
   <g id="LineCollection_11">
    <path d="M 322.866894 427.370055 
L 329.169167 427.370055 
" clip-path="url(#p35529deb62)" style="fill: none; stroke: #e84200; stroke-opacity: 0.5; stroke-width: 3"/>
   </g>
   <g id="LineCollection_12">
    <path d="M 322.866894 430.417386 
L 329.169167 430.417386 
" clip-path="url(#p35529deb62)" style="fill: none; stroke: #e13700; stroke-opacity: 0.5; stroke-width: 3"/>
   </g>
   <g id="LineCollection_13">
    <path d="M 322.866894 433.370704 
L 329.169167 433.370704 
" clip-path="url(#p35529deb62)" style="fill: none; stroke: #da2c00; stroke-opacity: 0.5; stroke-width: 3"/>
   </g>
   <g id="LineCollection_14">
    <path d="M 322.866894 436.230117 
L 329.169167 436.230117 
" clip-path="url(#p35529deb62)" style="fill: none; stroke: #d32201; stroke-opacity: 0.5; stroke-width: 3"/>
   </g>
   <g id="LineCollection_15">
    <path d="M 322.866894 439.000047 
L 329.169167 439.000047 
" clip-path="url(#p35529deb62)" style="fill: none; stroke: #cb1908; stroke-opacity: 0.5; stroke-width: 3"/>
   </g>
   <g id="LineCollection_16">
    <path d="M 322.866894 441.687338 
L 329.169167 441.687338 
" clip-path="url(#p35529deb62)" style="fill: none; stroke: #c31110; stroke-opacity: 0.5; stroke-width: 3"/>
   </g>
   <g id="LineCollection_17">
    <path d="M 322.866894 444.299955 
L 329.169167 444.299955 
" clip-path="url(#p35529deb62)" style="fill: none; stroke: #bb0817; stroke-opacity: 0.5; stroke-width: 3"/>
   </g>
   <g id="LineCollection_18">
    <path d="M 322.866894 446.846124 
L 329.169167 446.846124 
" clip-path="url(#p35529deb62)" style="fill: none; stroke: #b3001e; stroke-opacity: 0.5; stroke-width: 3"/>
   </g>
   <g id="LineCollection_19">
    <path d="M 322.866894 449.333803 
L 329.169167 449.333803 
" clip-path="url(#p35529deb62)" style="fill: none; stroke: #a70026; stroke-opacity: 0.5; stroke-width: 3"/>
   </g>
   <g id="LineCollection_20">
    <path d="M 322.866894 451.770384 
L 329.169167 451.770384 
" clip-path="url(#p35529deb62)" style="fill: none; stroke: #9b002e; stroke-opacity: 0.5; stroke-width: 3"/>
   </g>
   <g id="LineCollection_21">
    <path d="M 322.866894 454.162532 
L 329.169167 454.162532 
" clip-path="url(#p35529deb62)" style="fill: none; stroke: #8f0036; stroke-opacity: 0.5; stroke-width: 3"/>
   </g>
   <g id="LineCollection_22">
    <path d="M 322.866894 456.516114 
L 329.169167 456.516114 
" clip-path="url(#p35529deb62)" style="fill: none; stroke: #82003e; stroke-opacity: 0.5; stroke-width: 3"/>
   </g>
   <g id="LineCollection_23">
    <path d="M 322.866894 458.836169 
L 329.169167 458.836169 
" clip-path="url(#p35529deb62)" style="fill: none; stroke: #780047; stroke-opacity: 0.5; stroke-width: 3"/>
   </g>
   <g id="LineCollection_24">
    <path d="M 322.866894 461.126891 
L 329.169167 461.126891 
" clip-path="url(#p35529deb62)" style="fill: none; stroke: #6d0050; stroke-opacity: 0.5; stroke-width: 3"/>
   </g>
   <g id="LineCollection_25">
    <path d="M 322.866894 463.391631 
L 329.169167 463.391631 
" clip-path="url(#p35529deb62)" style="fill: none; stroke: #630059; stroke-opacity: 0.5; stroke-width: 3"/>
   </g>
   <g id="LineCollection_26">
    <path d="M 322.866894 465.632896 
L 329.169167 465.632896 
" clip-path="url(#p35529deb62)" style="fill: none; stroke: #590063; stroke-opacity: 0.5; stroke-width: 3"/>
   </g>
   <g id="LineCollection_27">
    <path d="M 322.866894 467.852278 
L 329.169167 467.852278 
" clip-path="url(#p35529deb62)" style="fill: none; stroke: #4f0162; stroke-opacity: 0.5; stroke-width: 3"/>
   </g>
   <g id="LineCollection_28">
    <path d="M 322.866894 470.050354 
L 329.169167 470.050354 
" clip-path="url(#p35529deb62)" style="fill: none; stroke: #45035c; stroke-opacity: 0.5; stroke-width: 3"/>
   </g>
   <g id="LineCollection_29">
    <path d="M 322.866894 472.22669 
L 329.169167 472.22669 
" clip-path="url(#p35529deb62)" style="fill: none; stroke: #3b0556; stroke-opacity: 0.5; stroke-width: 3"/>
   </g>
   <g id="LineCollection_30">
    <path d="M 322.866894 474.379963 
L 329.169167 474.379963 
" clip-path="url(#p35529deb62)" style="fill: none; stroke: #310750; stroke-opacity: 0.5; stroke-width: 3"/>
   </g>
   <g id="LineCollection_31">
    <path d="M 322.866894 476.508141 
L 329.169167 476.508141 
" clip-path="url(#p35529deb62)" style="fill: none; stroke: #2b084d; stroke-opacity: 0.5; stroke-width: 3"/>
   </g>
   <g id="LineCollection_32">
    <path d="M 751.421439 486.810375 
L 757.723712 486.810375 
" clip-path="url(#p35529deb62)" style="fill: none; stroke: #70b8ff; stroke-opacity: 0.5; stroke-width: 3"/>
   </g>
   <g id="LineCollection_33">
    <path d="M 751.421439 489.06641 
L 757.723712 489.06641 
" clip-path="url(#p35529deb62)" style="fill: none; stroke: #88b9d3; stroke-opacity: 0.5; stroke-width: 3"/>
   </g>
   <g id="LineCollection_34">
    <path d="M 751.421439 491.364823 
L 757.723712 491.364823 
" clip-path="url(#p35529deb62)" style="fill: none; stroke: #a9b996; stroke-opacity: 0.5; stroke-width: 3"/>
   </g>
   <g id="LineCollection_35">
    <path d="M 751.421439 493.700402 
L 757.723712 493.700402 
" clip-path="url(#p35529deb62)" style="fill: none; stroke: #caba59; stroke-opacity: 0.5; stroke-width: 3"/>
   </g>
   <g id="LineCollection_36">
    <path d="M 751.421439 496.054295 
L 757.723712 496.054295 
" clip-path="url(#p35529deb62)" style="fill: none; stroke: #ebbb1c; stroke-opacity: 0.5; stroke-width: 3"/>
   </g>
   <g id="LineCollection_37">
    <path d="M 751.421439 498.396144 
L 757.723712 498.396144 
" clip-path="url(#p35529deb62)" style="fill: none; stroke: #f9ad00; stroke-opacity: 0.5; stroke-width: 3"/>
   </g>
   <g id="LineCollection_38">
    <path d="M 751.421439 500.690398 
L 757.723712 500.690398 
" clip-path="url(#p35529deb62)" style="fill: none; stroke: #f79400; stroke-opacity: 0.5; stroke-width: 3"/>
   </g>
   <g id="LineCollection_39">
    <path d="M 751.421439 502.902989 
L 757.723712 502.902989 
" clip-path="url(#p35529deb62)" style="fill: none; stroke: #f57b00; stroke-opacity: 0.5; stroke-width: 3"/>
   </g>
   <g id="LineCollection_40">
    <path d="M 751.421439 505.006179 
L 757.723712 505.006179 
" clip-path="url(#p35529deb62)" style="fill: none; stroke: #f36100; stroke-opacity: 0.5; stroke-width: 3"/>
   </g>
   <g id="LineCollection_41">
    <path d="M 751.421439 506.980897 
L 757.723712 506.980897 
" clip-path="url(#p35529deb62)" style="fill: none; stroke: #ef4d00; stroke-opacity: 0.5; stroke-width: 3"/>
   </g>
   <g id="LineCollection_42">
    <path d="M 751.421439 508.816804 
L 757.723712 508.816804 
" clip-path="url(#p35529deb62)" style="fill: none; stroke: #e84200; stroke-opacity: 0.5; stroke-width: 3"/>
   </g>
   <g id="LineCollection_43">
    <path d="M 751.421439 510.510903 
L 757.723712 510.510903 
" clip-path="url(#p35529deb62)" style="fill: none; stroke: #e13700; stroke-opacity: 0.5; stroke-width: 3"/>
   </g>
   <g id="LineCollection_44">
    <path d="M 751.421439 512.065412 
L 757.723712 512.065412 
" clip-path="url(#p35529deb62)" style="fill: none; stroke: #da2c00; stroke-opacity: 0.5; stroke-width: 3"/>
   </g>
   <g id="LineCollection_45">
    <path d="M 751.421439 513.485417 
L 757.723712 513.485417 
" clip-path="url(#p35529deb62)" style="fill: none; stroke: #d32201; stroke-opacity: 0.5; stroke-width: 3"/>
   </g>
   <g id="LineCollection_46">
    <path d="M 751.421439 514.776759 
L 757.723712 514.776759 
" clip-path="url(#p35529deb62)" style="fill: none; stroke: #cb1908; stroke-opacity: 0.5; stroke-width: 3"/>
   </g>
   <g id="LineCollection_47">
    <path d="M 751.421439 515.56 
L 757.723712 515.56 
" clip-path="url(#p35529deb62)" style="fill: none; stroke: #c31110; stroke-opacity: 0.5; stroke-width: 3"/>
   </g>
   <g id="LineCollection_48">
    <path d="M 751.421439 515.56 
L 757.723712 515.56 
" clip-path="url(#p35529deb62)" style="fill: none; stroke: #bb0817; stroke-opacity: 0.5; stroke-width: 3"/>
   </g>
   <g id="LineCollection_49">
    <path d="M 751.421439 515.56 
L 757.723712 515.56 
" clip-path="url(#p35529deb62)" style="fill: none; stroke: #b3001e; stroke-opacity: 0.5; stroke-width: 3"/>
   </g>
   <g id="LineCollection_50">
    <path d="M 751.421439 515.56 
L 757.723712 515.56 
" clip-path="url(#p35529deb62)" style="fill: none; stroke: #a70026; stroke-opacity: 0.5; stroke-width: 3"/>
   </g>
   <g id="LineCollection_51">
    <path d="M 751.421439 515.56 
L 757.723712 515.56 
" clip-path="url(#p35529deb62)" style="fill: none; stroke: #9b002e; stroke-opacity: 0.5; stroke-width: 3"/>
   </g>
   <g id="LineCollection_52">
    <path d="M 751.421439 515.56 
L 757.723712 515.56 
" clip-path="url(#p35529deb62)" style="fill: none; stroke: #8f0036; stroke-opacity: 0.5; stroke-width: 3"/>
   </g>
   <g id="LineCollection_53">
    <path d="M 751.421439 515.56 
L 757.723712 515.56 
" clip-path="url(#p35529deb62)" style="fill: none; stroke: #82003e; stroke-opacity: 0.5; stroke-width: 3"/>
   </g>
   <g id="LineCollection_54">
    <path d="M 751.421439 515.56 
L 757.723712 515.56 
" clip-path="url(#p35529deb62)" style="fill: none; stroke: #780047; stroke-opacity: 0.5; stroke-width: 3"/>
   </g>
   <g id="LineCollection_55">
    <path d="M 751.421439 515.56 
L 757.723712 515.56 
" clip-path="url(#p35529deb62)" style="fill: none; stroke: #6d0050; stroke-opacity: 0.5; stroke-width: 3"/>
   </g>
   <g id="LineCollection_56">
    <path d="M 751.421439 515.56 
L 757.723712 515.56 
" clip-path="url(#p35529deb62)" style="fill: none; stroke: #630059; stroke-opacity: 0.5; stroke-width: 3"/>
   </g>
   <g id="LineCollection_57">
    <path d="M 751.421439 515.56 
L 757.723712 515.56 
" clip-path="url(#p35529deb62)" style="fill: none; stroke: #590063; stroke-opacity: 0.5; stroke-width: 3"/>
   </g>
   <g id="LineCollection_58">
    <path d="M 751.421439 515.56 
L 757.723712 515.56 
" clip-path="url(#p35529deb62)" style="fill: none; stroke: #4f0162; stroke-opacity: 0.5; stroke-width: 3"/>
   </g>
   <g id="LineCollection_59">
    <path d="M 751.421439 515.56 
L 757.723712 515.56 
" clip-path="url(#p35529deb62)" style="fill: none; stroke: #45035c; stroke-opacity: 0.5; stroke-width: 3"/>
   </g>
   <g id="LineCollection_60">
    <path d="M 751.421439 515.56 
L 757.723712 515.56 
" clip-path="url(#p35529deb62)" style="fill: none; stroke: #3b0556; stroke-opacity: 0.5; stroke-width: 3"/>
   </g>
   <g id="LineCollection_61">
    <path d="M 751.421439 515.56 
L 757.723712 515.56 
" clip-path="url(#p35529deb62)" style="fill: none; stroke: #310750; stroke-opacity: 0.5; stroke-width: 3"/>
   </g>
   <g id="LineCollection_62">
    <path d="M 751.421439 515.56 
L 757.723712 515.56 
" clip-path="url(#p35529deb62)" style="fill: none; stroke: #2b084d; stroke-opacity: 0.5; stroke-width: 3"/>
   </g>
   <g id="LineCollection_63">
    <path d="M 319.715758 399.736589 
L 332.320303 399.736589 
" clip-path="url(#p35529deb62)" style="fill: none; stroke: #88b9d3; stroke-width: 8"/>
   </g>
   <g id="LineCollection_64">
    <path d="M 319.715758 414.5344 
L 332.320303 414.5344 
" clip-path="url(#p35529deb62)" style="fill: none; stroke: #f79400; stroke-width: 8"/>
   </g>
   <g id="LineCollection_65">
    <path d="M 319.715758 444.299955 
L 332.320303 444.299955 
" clip-path="url(#p35529deb62)" style="fill: none; stroke: #bb0817; stroke-width: 8"/>
   </g>
   <g id="LineCollection_66">
    <path d="M 748.270303 489.06641 
L 760.874848 489.06641 
" clip-path="url(#p35529deb62)" style="fill: none; stroke: #88b9d3; stroke-width: 8"/>
   </g>
   <g id="LineCollection_67">
    <path d="M 748.270303 500.690398 
L 760.874848 500.690398 
" clip-path="url(#p35529deb62)" style="fill: none; stroke: #f79400; stroke-width: 8"/>
   </g>
   <g id="LineCollection_68">
    <path d="M 748.270303 515.56 
L 760.874848 515.56 
" clip-path="url(#p35529deb62)" style="fill: none; stroke: #bb0817; stroke-width: 8"/>
   </g>
  </g>
 </g>
 <defs>
  <clipPath id="p35529deb62">
   <rect x="109.64" y="52.8" width="693.25" height="462.76"/>
  </clipPath>
 </defs>
</svg>
