<?xml version="1.0" encoding="utf-8" standalone="no"?>
<!DOCTYPE svg PUBLIC "-//W3C//DTD SVG 1.1//EN"
  "http://www.w3.org/Graphics/SVG/1.1/DTD/svg11.dtd">
<svg xmlns:xlink="http://www.w3.org/1999/xlink" width="900pt" height="600pt" viewBox="0 0 900 600" xmlns="http://www.w3.org/2000/svg" version="1.1">
 <metadata>
  <rdf:RDF xmlns:dc="http://purl.org/dc/elements/1.1/" xmlns:cc="http://creativecommons.org/ns#" xmlns:rdf="http://www.w3.org/1999/02/22-rdf-syntax-ns#">
   <cc:Work>
    <dc:type rdf:resource="http://purl.org/dc/dcmitype/StillImage"/>
    <dc:date>2023-11-29T23:13:26.070043</dc:date>
    <dc:format>image/svg+xml</dc:format>
    <dc:creator>
     <cc:Agent>
      <dc:title>Matplotlib v3.7.1, https://matplotlib.org/</dc:title>
     </cc:Agent>
    </dc:creator>
   </cc:Work>
  </rdf:RDF>
 </metadata>
 <defs>
  <style type="text/css">*{stroke-linejoin: round; stroke-linecap: butt}</style>
 </defs>
 <g id="figure_1">
  <g id="patch_1">
   <path d="M 0 600 
L 900 600 
L 900 0 
L 0 0 
z
" style="fill: #ffffff"/>
  </g>
  <g id="axes_1">
   <g id="patch_2">
    <path d="M 109.64 515.56 
L 802.89 515.56 
L 802.89 52.8 
L 109.64 52.8 
z
" style="fill: #ffffff"/>
   </g>
   <g id="matplotlib.axis_1">
    <g id="xtick_1">
     <g id="line2d_1">
      <defs>
       <path id="m974a302902" d="M 0 0 
L 0 3.5 
" style="stroke: #000000; stroke-width: 0.8"/>
      </defs>
      <g>
       <use xlink:href="#m974a302902" x="157.957424" y="515.56" style="stroke: #000000; stroke-width: 0.8"/>
      </g>
     </g>
     <g id="text_1">
      <!-- 2020 -->
      <g transform="translate(124.872424 542.315938) scale(0.26 -0.26)">
       <defs>
        <path id="DejaVuSans-32" d="M 1228 531 
L 3431 531 
L 3431 0 
L 469 0 
L 469 531 
Q 828 903 1448 1529 
Q 2069 2156 2228 2338 
Q 2531 2678 2651 2914 
Q 2772 3150 2772 3378 
Q 2772 3750 2511 3984 
Q 2250 4219 1831 4219 
Q 1534 4219 1204 4116 
Q 875 4013 500 3803 
L 500 4441 
Q 881 4594 1212 4672 
Q 1544 4750 1819 4750 
Q 2544 4750 2975 4387 
Q 3406 4025 3406 3419 
Q 3406 3131 3298 2873 
Q 3191 2616 2906 2266 
Q 2828 2175 2409 1742 
Q 1991 1309 1228 531 
z
" transform="scale(0.015625)"/>
        <path id="DejaVuSans-30" d="M 2034 4250 
Q 1547 4250 1301 3770 
Q 1056 3291 1056 2328 
Q 1056 1369 1301 889 
Q 1547 409 2034 409 
Q 2525 409 2770 889 
Q 3016 1369 3016 2328 
Q 3016 3291 2770 3770 
Q 2525 4250 2034 4250 
z
M 2034 4750 
Q 2819 4750 3233 4129 
Q 3647 3509 3647 2328 
Q 3647 1150 3233 529 
Q 2819 -91 2034 -91 
Q 1250 -91 836 529 
Q 422 1150 422 2328 
Q 422 3509 836 4129 
Q 1250 4750 2034 4750 
z
" transform="scale(0.015625)"/>
       </defs>
       <use xlink:href="#DejaVuSans-32"/>
       <use xlink:href="#DejaVuSans-30" x="63.623047"/>
       <use xlink:href="#DejaVuSans-32" x="127.246094"/>
       <use xlink:href="#DejaVuSans-30" x="190.869141"/>
      </g>
     </g>
    </g>
    <g id="xtick_2">
     <g id="line2d_2">
      <g>
       <use xlink:href="#m974a302902" x="326.01803" y="515.56" style="stroke: #000000; stroke-width: 0.8"/>
      </g>
     </g>
     <g id="text_2">
      <!-- 2100 -->
      <g transform="translate(292.93303 542.315938) scale(0.26 -0.26)">
       <defs>
        <path id="DejaVuSans-31" d="M 794 531 
L 1825 531 
L 1825 4091 
L 703 3866 
L 703 4441 
L 1819 4666 
L 2450 4666 
L 2450 531 
L 3481 531 
L 3481 0 
L 794 0 
L 794 531 
z
" transform="scale(0.015625)"/>
       </defs>
       <use xlink:href="#DejaVuSans-32"/>
       <use xlink:href="#DejaVuSans-31" x="63.623047"/>
       <use xlink:href="#DejaVuSans-30" x="127.246094"/>
       <use xlink:href="#DejaVuSans-30" x="190.869141"/>
      </g>
     </g>
    </g>
    <g id="xtick_3">
     <g id="line2d_3">
      <g>
       <use xlink:href="#m974a302902" x="536.093788" y="515.56" style="stroke: #000000; stroke-width: 0.8"/>
      </g>
     </g>
     <g id="text_3">
      <!-- 2200 -->
      <g transform="translate(503.008788 542.315938) scale(0.26 -0.26)">
       <use xlink:href="#DejaVuSans-32"/>
       <use xlink:href="#DejaVuSans-32" x="63.623047"/>
       <use xlink:href="#DejaVuSans-30" x="127.246094"/>
       <use xlink:href="#DejaVuSans-30" x="190.869141"/>
      </g>
     </g>
    </g>
    <g id="xtick_4">
     <g id="line2d_4">
      <g>
       <use xlink:href="#m974a302902" x="746.169545" y="515.56" style="stroke: #000000; stroke-width: 0.8"/>
      </g>
     </g>
     <g id="text_4">
      <!-- 2300 -->
      <g transform="translate(713.084545 542.315938) scale(0.26 -0.26)">
       <defs>
        <path id="DejaVuSans-33" d="M 2597 2516 
Q 3050 2419 3304 2112 
Q 3559 1806 3559 1356 
Q 3559 666 3084 287 
Q 2609 -91 1734 -91 
Q 1441 -91 1130 -33 
Q 819 25 488 141 
L 488 750 
Q 750 597 1062 519 
Q 1375 441 1716 441 
Q 2309 441 2620 675 
Q 2931 909 2931 1356 
Q 2931 1769 2642 2001 
Q 2353 2234 1838 2234 
L 1294 2234 
L 1294 2753 
L 1863 2753 
Q 2328 2753 2575 2939 
Q 2822 3125 2822 3475 
Q 2822 3834 2567 4026 
Q 2313 4219 1838 4219 
Q 1578 4219 1281 4162 
Q 984 4106 628 3988 
L 628 4550 
Q 988 4650 1302 4700 
Q 1616 4750 1894 4750 
Q 2613 4750 3031 4423 
Q 3450 4097 3450 3541 
Q 3450 3153 3228 2886 
Q 3006 2619 2597 2516 
z
" transform="scale(0.015625)"/>
       </defs>
       <use xlink:href="#DejaVuSans-32"/>
       <use xlink:href="#DejaVuSans-33" x="63.623047"/>
       <use xlink:href="#DejaVuSans-30" x="127.246094"/>
       <use xlink:href="#DejaVuSans-30" x="190.869141"/>
      </g>
     </g>
    </g>
    <g id="text_5">
     <!-- Year -->
     <g transform="translate(428.995313 568.439687) scale(0.22 -0.22)">
      <defs>
       <path id="DejaVuSans-Bold-59" d="M -63 4666 
L 1253 4666 
L 2316 3003 
L 3378 4666 
L 4697 4666 
L 2919 1966 
L 2919 0 
L 1716 0 
L 1716 1966 
L -63 4666 
z
" transform="scale(0.015625)"/>
       <path id="DejaVuSans-Bold-65" d="M 4031 1759 
L 4031 1441 
L 1416 1441 
Q 1456 1047 1700 850 
Q 1944 653 2381 653 
Q 2734 653 3104 758 
Q 3475 863 3866 1075 
L 3866 213 
Q 3469 63 3072 -14 
Q 2675 -91 2278 -91 
Q 1328 -91 801 392 
Q 275 875 275 1747 
Q 275 2603 792 3093 
Q 1309 3584 2216 3584 
Q 3041 3584 3536 3087 
Q 4031 2591 4031 1759 
z
M 2881 2131 
Q 2881 2450 2695 2645 
Q 2509 2841 2209 2841 
Q 1884 2841 1681 2658 
Q 1478 2475 1428 2131 
L 2881 2131 
z
" transform="scale(0.015625)"/>
       <path id="DejaVuSans-Bold-61" d="M 2106 1575 
Q 1756 1575 1579 1456 
Q 1403 1338 1403 1106 
Q 1403 894 1545 773 
Q 1688 653 1941 653 
Q 2256 653 2472 879 
Q 2688 1106 2688 1447 
L 2688 1575 
L 2106 1575 
z
M 3816 1997 
L 3816 0 
L 2688 0 
L 2688 519 
Q 2463 200 2181 54 
Q 1900 -91 1497 -91 
Q 953 -91 614 226 
Q 275 544 275 1050 
Q 275 1666 698 1953 
Q 1122 2241 2028 2241 
L 2688 2241 
L 2688 2328 
Q 2688 2594 2478 2717 
Q 2269 2841 1825 2841 
Q 1466 2841 1156 2769 
Q 847 2697 581 2553 
L 581 3406 
Q 941 3494 1303 3539 
Q 1666 3584 2028 3584 
Q 2975 3584 3395 3211 
Q 3816 2838 3816 1997 
z
" transform="scale(0.015625)"/>
       <path id="DejaVuSans-Bold-72" d="M 3138 2547 
Q 2991 2616 2845 2648 
Q 2700 2681 2553 2681 
Q 2122 2681 1889 2404 
Q 1656 2128 1656 1613 
L 1656 0 
L 538 0 
L 538 3500 
L 1656 3500 
L 1656 2925 
Q 1872 3269 2151 3426 
Q 2431 3584 2822 3584 
Q 2878 3584 2943 3579 
Q 3009 3575 3134 3559 
L 3138 2547 
z
" transform="scale(0.015625)"/>
      </defs>
      <use xlink:href="#DejaVuSans-Bold-59"/>
      <use xlink:href="#DejaVuSans-Bold-65" x="63.287109"/>
      <use xlink:href="#DejaVuSans-Bold-61" x="131.109375"/>
      <use xlink:href="#DejaVuSans-Bold-72" x="198.589844"/>
     </g>
    </g>
   </g>
   <g id="matplotlib.axis_2">
    <g id="ytick_1">
     <g id="line2d_5">
      <defs>
       <path id="ma8093c14e4" d="M 0 0 
L -3.5 0 
" style="stroke: #000000; stroke-width: 0.8"/>
      </defs>
      <g>
       <use xlink:href="#ma8093c14e4" x="109.64" y="515.56" style="stroke: #000000; stroke-width: 0.8"/>
      </g>
     </g>
     <g id="text_6">
      <!-- 0 -->
      <g transform="translate(86.0975 525.437969) scale(0.26 -0.26)">
       <use xlink:href="#DejaVuSans-30"/>
      </g>
     </g>
    </g>
    <g id="ytick_2">
     <g id="line2d_6">
      <g>
       <use xlink:href="#ma8093c14e4" x="109.64" y="441.5184" style="stroke: #000000; stroke-width: 0.8"/>
      </g>
     </g>
     <g id="text_7">
      <!-- 20 -->
      <g transform="translate(69.555 451.396369) scale(0.26 -0.26)">
       <use xlink:href="#DejaVuSans-32"/>
       <use xlink:href="#DejaVuSans-30" x="63.623047"/>
      </g>
     </g>
    </g>
    <g id="ytick_3">
     <g id="line2d_7">
      <g>
       <use xlink:href="#ma8093c14e4" x="109.64" y="367.4768" style="stroke: #000000; stroke-width: 0.8"/>
      </g>
     </g>
     <g id="text_8">
      <!-- 40 -->
      <g transform="translate(69.555 377.354769) scale(0.26 -0.26)">
       <defs>
        <path id="DejaVuSans-34" d="M 2419 4116 
L 825 1625 
L 2419 1625 
L 2419 4116 
z
M 2253 4666 
L 3047 4666 
L 3047 1625 
L 3713 1625 
L 3713 1100 
L 3047 1100 
L 3047 0 
L 2419 0 
L 2419 1100 
L 313 1100 
L 313 1709 
L 2253 4666 
z
" transform="scale(0.015625)"/>
       </defs>
       <use xlink:href="#DejaVuSans-34"/>
       <use xlink:href="#DejaVuSans-30" x="63.623047"/>
      </g>
     </g>
    </g>
    <g id="ytick_4">
     <g id="line2d_8">
      <g>
       <use xlink:href="#ma8093c14e4" x="109.64" y="293.4352" style="stroke: #000000; stroke-width: 0.8"/>
      </g>
     </g>
     <g id="text_9">
      <!-- 60 -->
      <g transform="translate(69.555 303.313169) scale(0.26 -0.26)">
       <defs>
        <path id="DejaVuSans-36" d="M 2113 2584 
Q 1688 2584 1439 2293 
Q 1191 2003 1191 1497 
Q 1191 994 1439 701 
Q 1688 409 2113 409 
Q 2538 409 2786 701 
Q 3034 994 3034 1497 
Q 3034 2003 2786 2293 
Q 2538 2584 2113 2584 
z
M 3366 4563 
L 3366 3988 
Q 3128 4100 2886 4159 
Q 2644 4219 2406 4219 
Q 1781 4219 1451 3797 
Q 1122 3375 1075 2522 
Q 1259 2794 1537 2939 
Q 1816 3084 2150 3084 
Q 2853 3084 3261 2657 
Q 3669 2231 3669 1497 
Q 3669 778 3244 343 
Q 2819 -91 2113 -91 
Q 1303 -91 875 529 
Q 447 1150 447 2328 
Q 447 3434 972 4092 
Q 1497 4750 2381 4750 
Q 2619 4750 2861 4703 
Q 3103 4656 3366 4563 
z
" transform="scale(0.015625)"/>
       </defs>
       <use xlink:href="#DejaVuSans-36"/>
       <use xlink:href="#DejaVuSans-30" x="63.623047"/>
      </g>
     </g>
    </g>
    <g id="ytick_5">
     <g id="line2d_9">
      <g>
       <use xlink:href="#ma8093c14e4" x="109.64" y="219.3936" style="stroke: #000000; stroke-width: 0.8"/>
      </g>
     </g>
     <g id="text_10">
      <!-- 80 -->
      <g transform="translate(69.555 229.271569) scale(0.26 -0.26)">
       <defs>
        <path id="DejaVuSans-38" d="M 2034 2216 
Q 1584 2216 1326 1975 
Q 1069 1734 1069 1313 
Q 1069 891 1326 650 
Q 1584 409 2034 409 
Q 2484 409 2743 651 
Q 3003 894 3003 1313 
Q 3003 1734 2745 1975 
Q 2488 2216 2034 2216 
z
M 1403 2484 
Q 997 2584 770 2862 
Q 544 3141 544 3541 
Q 544 4100 942 4425 
Q 1341 4750 2034 4750 
Q 2731 4750 3128 4425 
Q 3525 4100 3525 3541 
Q 3525 3141 3298 2862 
Q 3072 2584 2669 2484 
Q 3125 2378 3379 2068 
Q 3634 1759 3634 1313 
Q 3634 634 3220 271 
Q 2806 -91 2034 -91 
Q 1263 -91 848 271 
Q 434 634 434 1313 
Q 434 1759 690 2068 
Q 947 2378 1403 2484 
z
M 1172 3481 
Q 1172 3119 1398 2916 
Q 1625 2713 2034 2713 
Q 2441 2713 2670 2916 
Q 2900 3119 2900 3481 
Q 2900 3844 2670 4047 
Q 2441 4250 2034 4250 
Q 1625 4250 1398 4047 
Q 1172 3844 1172 3481 
z
" transform="scale(0.015625)"/>
       </defs>
       <use xlink:href="#DejaVuSans-38"/>
       <use xlink:href="#DejaVuSans-30" x="63.623047"/>
      </g>
     </g>
    </g>
    <g id="ytick_6">
     <g id="line2d_10">
      <g>
       <use xlink:href="#ma8093c14e4" x="109.64" y="145.352" style="stroke: #000000; stroke-width: 0.8"/>
      </g>
     </g>
     <g id="text_11">
      <!-- 100 -->
      <g transform="translate(53.0125 155.229969) scale(0.26 -0.26)">
       <use xlink:href="#DejaVuSans-31"/>
       <use xlink:href="#DejaVuSans-30" x="63.623047"/>
       <use xlink:href="#DejaVuSans-30" x="127.246094"/>
      </g>
     </g>
    </g>
    <g id="ytick_7">
     <g id="line2d_11">
      <g>
       <use xlink:href="#ma8093c14e4" x="109.64" y="71.3104" style="stroke: #000000; stroke-width: 0.8"/>
      </g>
     </g>
     <g id="text_12">
      <!-- 120 -->
      <g transform="translate(53.0125 81.188369) scale(0.26 -0.26)">
       <use xlink:href="#DejaVuSans-31"/>
       <use xlink:href="#DejaVuSans-32" x="63.623047"/>
       <use xlink:href="#DejaVuSans-30" x="127.246094"/>
      </g>
     </g>
    </g>
    <g id="text_13">
     <!-- % of Remaining Ice -->
     <g transform="translate(44.265313 403.000625) rotate(-90) scale(0.22 -0.22)">
      <defs>
       <path id="DejaVuSans-Bold-25" d="M 4959 1925 
Q 4738 1925 4616 1733 
Q 4494 1541 4494 1184 
Q 4494 825 4614 633 
Q 4734 441 4959 441 
Q 5184 441 5303 633 
Q 5422 825 5422 1184 
Q 5422 1541 5301 1733 
Q 5181 1925 4959 1925 
z
M 4959 2450 
Q 5541 2450 5875 2112 
Q 6209 1775 6209 1184 
Q 6209 594 5875 251 
Q 5541 -91 4959 -91 
Q 4378 -91 4042 251 
Q 3706 594 3706 1184 
Q 3706 1772 4042 2111 
Q 4378 2450 4959 2450 
z
M 2094 -91 
L 1403 -91 
L 4319 4750 
L 5013 4750 
L 2094 -91 
z
M 1453 4750 
Q 2034 4750 2367 4411 
Q 2700 4072 2700 3481 
Q 2700 2891 2367 2550 
Q 2034 2209 1453 2209 
Q 872 2209 539 2550 
Q 206 2891 206 3481 
Q 206 4072 539 4411 
Q 872 4750 1453 4750 
z
M 1453 4225 
Q 1228 4225 1106 4031 
Q 984 3838 984 3481 
Q 984 3122 1106 2926 
Q 1228 2731 1453 2731 
Q 1678 2731 1798 2926 
Q 1919 3122 1919 3481 
Q 1919 3838 1797 4031 
Q 1675 4225 1453 4225 
z
" transform="scale(0.015625)"/>
       <path id="DejaVuSans-Bold-20" transform="scale(0.015625)"/>
       <path id="DejaVuSans-Bold-6f" d="M 2203 2784 
Q 1831 2784 1636 2517 
Q 1441 2250 1441 1747 
Q 1441 1244 1636 976 
Q 1831 709 2203 709 
Q 2569 709 2762 976 
Q 2956 1244 2956 1747 
Q 2956 2250 2762 2517 
Q 2569 2784 2203 2784 
z
M 2203 3584 
Q 3106 3584 3614 3096 
Q 4122 2609 4122 1747 
Q 4122 884 3614 396 
Q 3106 -91 2203 -91 
Q 1297 -91 786 396 
Q 275 884 275 1747 
Q 275 2609 786 3096 
Q 1297 3584 2203 3584 
z
" transform="scale(0.015625)"/>
       <path id="DejaVuSans-Bold-66" d="M 2841 4863 
L 2841 4128 
L 2222 4128 
Q 1984 4128 1890 4042 
Q 1797 3956 1797 3744 
L 1797 3500 
L 2753 3500 
L 2753 2700 
L 1797 2700 
L 1797 0 
L 678 0 
L 678 2700 
L 122 2700 
L 122 3500 
L 678 3500 
L 678 3744 
Q 678 4316 997 4589 
Q 1316 4863 1984 4863 
L 2841 4863 
z
" transform="scale(0.015625)"/>
       <path id="DejaVuSans-Bold-52" d="M 2297 2597 
Q 2675 2597 2839 2737 
Q 3003 2878 3003 3200 
Q 3003 3519 2839 3656 
Q 2675 3794 2297 3794 
L 1791 3794 
L 1791 2597 
L 2297 2597 
z
M 1791 1766 
L 1791 0 
L 588 0 
L 588 4666 
L 2425 4666 
Q 3347 4666 3776 4356 
Q 4206 4047 4206 3378 
Q 4206 2916 3982 2619 
Q 3759 2322 3309 2181 
Q 3556 2125 3751 1926 
Q 3947 1728 4147 1325 
L 4800 0 
L 3519 0 
L 2950 1159 
Q 2778 1509 2601 1637 
Q 2425 1766 2131 1766 
L 1791 1766 
z
" transform="scale(0.015625)"/>
       <path id="DejaVuSans-Bold-6d" d="M 3781 2919 
Q 3994 3244 4286 3414 
Q 4578 3584 4928 3584 
Q 5531 3584 5847 3212 
Q 6163 2841 6163 2131 
L 6163 0 
L 5038 0 
L 5038 1825 
Q 5041 1866 5042 1909 
Q 5044 1953 5044 2034 
Q 5044 2406 4934 2573 
Q 4825 2741 4581 2741 
Q 4263 2741 4089 2478 
Q 3916 2216 3909 1719 
L 3909 0 
L 2784 0 
L 2784 1825 
Q 2784 2406 2684 2573 
Q 2584 2741 2328 2741 
Q 2006 2741 1831 2477 
Q 1656 2213 1656 1722 
L 1656 0 
L 531 0 
L 531 3500 
L 1656 3500 
L 1656 2988 
Q 1863 3284 2130 3434 
Q 2397 3584 2719 3584 
Q 3081 3584 3359 3409 
Q 3638 3234 3781 2919 
z
" transform="scale(0.015625)"/>
       <path id="DejaVuSans-Bold-69" d="M 538 3500 
L 1656 3500 
L 1656 0 
L 538 0 
L 538 3500 
z
M 538 4863 
L 1656 4863 
L 1656 3950 
L 538 3950 
L 538 4863 
z
" transform="scale(0.015625)"/>
       <path id="DejaVuSans-Bold-6e" d="M 4056 2131 
L 4056 0 
L 2931 0 
L 2931 347 
L 2931 1631 
Q 2931 2084 2911 2256 
Q 2891 2428 2841 2509 
Q 2775 2619 2662 2680 
Q 2550 2741 2406 2741 
Q 2056 2741 1856 2470 
Q 1656 2200 1656 1722 
L 1656 0 
L 538 0 
L 538 3500 
L 1656 3500 
L 1656 2988 
Q 1909 3294 2193 3439 
Q 2478 3584 2822 3584 
Q 3428 3584 3742 3212 
Q 4056 2841 4056 2131 
z
" transform="scale(0.015625)"/>
       <path id="DejaVuSans-Bold-67" d="M 2919 594 
Q 2688 288 2409 144 
Q 2131 0 1766 0 
Q 1125 0 706 504 
Q 288 1009 288 1791 
Q 288 2575 706 3076 
Q 1125 3578 1766 3578 
Q 2131 3578 2409 3434 
Q 2688 3291 2919 2981 
L 2919 3500 
L 4044 3500 
L 4044 353 
Q 4044 -491 3511 -936 
Q 2978 -1381 1966 -1381 
Q 1638 -1381 1331 -1331 
Q 1025 -1281 716 -1178 
L 716 -306 
Q 1009 -475 1290 -558 
Q 1572 -641 1856 -641 
Q 2406 -641 2662 -400 
Q 2919 -159 2919 353 
L 2919 594 
z
M 2181 2772 
Q 1834 2772 1640 2515 
Q 1447 2259 1447 1791 
Q 1447 1309 1634 1061 
Q 1822 813 2181 813 
Q 2531 813 2725 1069 
Q 2919 1325 2919 1791 
Q 2919 2259 2725 2515 
Q 2531 2772 2181 2772 
z
" transform="scale(0.015625)"/>
       <path id="DejaVuSans-Bold-49" d="M 588 4666 
L 1791 4666 
L 1791 0 
L 588 0 
L 588 4666 
z
" transform="scale(0.015625)"/>
       <path id="DejaVuSans-Bold-63" d="M 3366 3391 
L 3366 2478 
Q 3138 2634 2908 2709 
Q 2678 2784 2431 2784 
Q 1963 2784 1702 2511 
Q 1441 2238 1441 1747 
Q 1441 1256 1702 982 
Q 1963 709 2431 709 
Q 2694 709 2930 787 
Q 3166 866 3366 1019 
L 3366 103 
Q 3103 6 2833 -42 
Q 2563 -91 2291 -91 
Q 1344 -91 809 395 
Q 275 881 275 1747 
Q 275 2613 809 3098 
Q 1344 3584 2291 3584 
Q 2566 3584 2833 3536 
Q 3100 3488 3366 3391 
z
" transform="scale(0.015625)"/>
      </defs>
      <use xlink:href="#DejaVuSans-Bold-25"/>
      <use xlink:href="#DejaVuSans-Bold-20" x="100.195312"/>
      <use xlink:href="#DejaVuSans-Bold-6f" x="135.009766"/>
      <use xlink:href="#DejaVuSans-Bold-66" x="203.710938"/>
      <use xlink:href="#DejaVuSans-Bold-20" x="247.216797"/>
      <use xlink:href="#DejaVuSans-Bold-52" x="282.03125"/>
      <use xlink:href="#DejaVuSans-Bold-65" x="359.033203"/>
      <use xlink:href="#DejaVuSans-Bold-6d" x="426.855469"/>
      <use xlink:href="#DejaVuSans-Bold-61" x="531.054688"/>
      <use xlink:href="#DejaVuSans-Bold-69" x="598.535156"/>
      <use xlink:href="#DejaVuSans-Bold-6e" x="632.8125"/>
      <use xlink:href="#DejaVuSans-Bold-69" x="704.003906"/>
      <use xlink:href="#DejaVuSans-Bold-6e" x="738.28125"/>
      <use xlink:href="#DejaVuSans-Bold-67" x="809.472656"/>
      <use xlink:href="#DejaVuSans-Bold-20" x="881.054688"/>
      <use xlink:href="#DejaVuSans-Bold-49" x="915.869141"/>
      <use xlink:href="#DejaVuSans-Bold-63" x="953.076172"/>
      <use xlink:href="#DejaVuSans-Bold-65" x="1012.353516"/>
     </g>
    </g>
   </g>
   <g id="line2d_12">
    <path d="M 157.957424 145.352 
L 168.461212 157.79802 
L 170.56197 160.393751 
L 178.965 171.768187 
L 183.166515 178.071546 
L 191.569545 191.741734 
L 199.972576 206.150299 
L 204.174091 213.684239 
L 208.375606 221.377668 
L 214.677879 233.443392 
L 227.282424 257.462516 
L 235.685455 272.065689 
L 241.987727 282.417671 
L 246.189242 288.800505 
L 250.390758 295.082897 
L 256.69303 304.04377 
L 260.894545 309.608866 
L 265.096061 314.881061 
L 269.297576 319.789502 
L 277.700606 329.28778 
L 292.405909 344.761678 
L 296.607424 348.905846 
L 305.010455 356.279227 
L 313.413485 363.335966 
L 321.816515 369.466086 
L 328.118788 373.491803 
L 332.320303 375.935559 
L 347.025606 383.786638 
L 361.730909 391.239369 
L 372.234697 396.631035 
L 376.436212 398.668364 
L 382.738485 401.39988 
L 401.645303 408.660195 
L 407.947576 410.448167 
L 422.652879 414.561737 
L 428.955152 416.369614 
L 437.358182 418.557494 
L 445.761212 420.739406 
L 452.063485 422.440786 
L 456.265 423.354521 
L 468.869545 425.653374 
L 479.373333 427.760809 
L 494.078636 430.441208 
L 498.280152 431.158354 
L 506.683182 432.69814 
L 512.985455 433.621366 
L 523.489242 435.266506 
L 536.093788 437.133857 
L 555.000606 440.249608 
L 561.302879 441.030595 
L 567.605152 441.994922 
L 586.51197 444.515571 
L 599.116515 445.958225 
L 603.31803 446.309568 
L 613.821818 446.919337 
L 622.224848 447.244213 
L 626.426364 447.37037 
L 641.131667 448.000884 
L 647.433939 448.647045 
L 657.937727 449.748533 
L 678.945303 452.12303 
L 691.549848 452.851896 
L 699.952879 453.377448 
L 729.363485 455.274513 
L 746.169545 455.838903 
L 746.169545 455.838903 
" clip-path="url(#pe48f44c6eb)" style="fill: none; stroke: #f66200; stroke-opacity: 0.3; stroke-width: 2; stroke-linecap: square"/>
   </g>
   <g id="line2d_13">
    <path d="M 115.942273 117.063976 
L 118.04303 117.762392 
L 120.143788 118.503336 
L 122.244545 119.292818 
L 124.345303 120.158555 
L 126.446061 121.073721 
L 128.546818 121.976109 
L 130.647576 122.795803 
L 132.748333 123.677123 
L 134.849091 124.575965 
L 136.949848 125.495439 
L 139.050606 127.131694 
L 141.151364 128.798728 
L 143.252121 130.467182 
L 145.352879 132.233007 
L 147.453636 134.153458 
L 149.554394 136.22565 
L 151.655152 138.371599 
L 153.755909 140.624678 
L 155.856667 142.935446 
L 157.957424 145.352 
" clip-path="url(#pe48f44c6eb)" style="fill: none; stroke: #000000; stroke-opacity: 0.3; stroke-width: 2; stroke-linecap: square"/>
   </g>
   <g id="line2d_14">
    <path d="M 157.957424 145.352 
L 162.158939 150.877518 
L 166.360455 156.616153 
L 170.56197 162.737716 
L 174.763485 169.451205 
L 181.065758 180.004852 
L 185.267273 187.359609 
L 189.468788 194.982325 
L 197.871818 211.276774 
L 206.274848 228.208297 
L 212.577121 240.977207 
L 216.778636 249.536397 
L 231.483939 280.384109 
L 237.786212 292.802106 
L 241.987727 300.828949 
L 248.29 312.375749 
L 256.69303 327.108424 
L 260.894545 333.807296 
L 267.196818 343.335959 
L 271.398333 349.150192 
L 275.599848 354.757154 
L 279.801364 359.93931 
L 284.002879 364.735735 
L 290.305152 371.565544 
L 294.506667 375.853512 
L 298.708182 379.890846 
L 305.010455 385.414102 
L 311.312727 390.517844 
L 313.413485 392.192775 
L 317.615 395.184911 
L 323.917273 399.362823 
L 328.118788 401.840598 
L 334.421061 405.244472 
L 355.428636 416.137942 
L 372.234697 424.158992 
L 378.53697 426.983923 
L 382.738485 428.693752 
L 391.141515 431.692037 
L 403.746061 435.641058 
L 424.753636 442.60584 
L 428.955152 443.90362 
L 445.761212 448.228809 
L 460.466515 451.452246 
L 466.768788 452.83092 
L 477.272576 454.787832 
L 485.675606 456.549727 
L 494.078636 458.37476 
L 498.280152 459.102236 
L 508.783939 460.811127 
L 527.690758 463.99639 
L 538.194545 465.322531 
L 544.496818 466.096346 
L 552.899848 466.833528 
L 573.907424 469.086357 
L 578.108939 469.59997 
L 588.612727 470.63173 
L 601.217273 472.309613 
L 639.030909 477.570102 
L 653.736212 478.917531 
L 662.139242 479.675761 
L 672.64303 480.650973 
L 691.549848 482.049058 
L 697.852121 482.395164 
L 704.154394 482.513032 
L 718.859697 482.303772 
L 735.665758 481.908863 
L 746.169545 481.713961 
L 746.169545 481.713961 
" clip-path="url(#pe48f44c6eb)" style="fill: none; stroke: #822900; stroke-opacity: 0.3; stroke-width: 2; stroke-linecap: square"/>
   </g>
   <g id="line2d_15">
    <path d="M 115.942273 115.048424 
L 118.04303 115.885919 
L 120.143788 116.654327 
L 122.244545 117.52193 
L 124.345303 118.409828 
L 126.446061 119.315044 
L 128.546818 120.277148 
L 130.647576 121.158449 
L 132.748333 122.045466 
L 134.849091 122.896377 
L 136.949848 123.793132 
L 139.050606 125.415372 
L 141.151364 127.125378 
L 143.252121 128.954904 
L 145.352879 130.919177 
L 147.453636 133.063475 
L 149.554394 135.240187 
L 151.655152 137.620817 
L 153.755909 140.088654 
L 155.856667 142.672311 
L 157.957424 145.352 
" clip-path="url(#pe48f44c6eb)" style="fill: none; stroke: #000000; stroke-opacity: 0.3; stroke-width: 2; stroke-linecap: square"/>
   </g>
   <g id="line2d_16">
    <path d="M 157.957424 145.352 
L 162.158939 150.939327 
L 166.360455 156.882385 
L 170.56197 163.37259 
L 178.965 177.645085 
L 185.267273 189.228472 
L 193.670303 204.646683 
L 199.972576 216.250671 
L 212.577121 240.388561 
L 227.282424 267.073995 
L 239.88697 288.386379 
L 244.088485 295.061713 
L 248.29 301.333778 
L 256.69303 313.341359 
L 275.599848 338.984117 
L 284.002879 349.676238 
L 290.305152 357.102065 
L 302.909697 371.298519 
L 307.111212 375.668646 
L 311.312727 379.751044 
L 315.514242 383.513592 
L 321.816515 388.924375 
L 326.01803 392.292853 
L 330.219545 395.434391 
L 336.521818 399.779784 
L 342.824091 403.622654 
L 347.025606 405.976108 
L 355.428636 410.35328 
L 361.730909 413.390628 
L 384.839242 423.760728 
L 391.141515 426.253148 
L 403.746061 430.681613 
L 407.947576 432.049706 
L 412.149091 433.307972 
L 420.552121 435.361434 
L 426.854394 436.834616 
L 437.358182 439.368282 
L 464.66803 445.467242 
L 470.970303 446.84476 
L 481.474091 448.949854 
L 491.977879 450.821156 
L 508.783939 453.25845 
L 527.690758 455.276818 
L 533.99303 455.928525 
L 540.295303 456.51951 
L 571.806667 459.114624 
L 586.51197 459.853651 
L 597.015758 460.281085 
L 605.418788 460.472729 
L 611.721061 460.70722 
L 639.030909 461.37356 
L 647.433939 461.608314 
L 653.736212 461.685197 
L 681.046061 462.651711 
L 689.449091 463.151081 
L 697.852121 463.717716 
L 712.557424 464.662876 
L 720.960455 465.203406 
L 729.363485 465.538233 
L 746.169545 465.977413 
L 746.169545 465.977413 
" clip-path="url(#pe48f44c6eb)" style="fill: none; stroke: #f76800; stroke-opacity: 0.3; stroke-width: 2; stroke-linecap: square"/>
   </g>
   <g id="line2d_17">
    <path d="M 115.942273 114.913859 
L 118.04303 115.746722 
L 120.143788 116.506089 
L 122.244545 117.346735 
L 124.345303 118.251912 
L 126.446061 119.154401 
L 128.546818 120.043293 
L 130.647576 120.866602 
L 132.748333 121.776632 
L 134.849091 122.650584 
L 136.949848 123.525683 
L 139.050606 125.156112 
L 141.151364 126.91034 
L 143.252121 128.71714 
L 145.352879 130.676311 
L 147.453636 132.788222 
L 149.554394 135.126528 
L 151.655152 137.541155 
L 153.755909 140.118395 
L 155.856667 142.689942 
L 157.957424 145.352 
" clip-path="url(#pe48f44c6eb)" style="fill: none; stroke: #000000; stroke-opacity: 0.3; stroke-width: 2; stroke-linecap: square"/>
   </g>
   <g id="line2d_18">
    <path d="M 157.957424 145.352 
L 164.259697 151.605238 
L 168.461212 155.948588 
L 172.662727 160.691219 
L 176.864242 165.83171 
L 183.166515 174.003273 
L 187.36803 179.792377 
L 191.569545 186.057391 
L 202.073333 202.873277 
L 208.375606 213.396312 
L 235.685455 258.791982 
L 250.390758 281.3438 
L 256.69303 290.395237 
L 262.995303 299.180694 
L 269.297576 307.376831 
L 273.499091 312.360925 
L 279.801364 319.781601 
L 292.405909 334.747848 
L 300.808939 344.39749 
L 309.21197 353.364334 
L 317.615 361.468281 
L 321.816515 365.218624 
L 326.01803 368.566247 
L 330.219545 371.62739 
L 338.622576 377.2489 
L 347.025606 382.264453 
L 359.630152 389.556023 
L 378.53697 398.87208 
L 384.839242 401.601871 
L 397.443788 406.671572 
L 403.746061 408.8931 
L 412.149091 411.8882 
L 418.451364 413.974475 
L 422.652879 415.287808 
L 431.055909 418.131996 
L 452.063485 424.585729 
L 464.66803 427.972286 
L 479.373333 431.586132 
L 540.295303 444.65965 
L 557.101364 448.011365 
L 569.705909 450.387492 
L 586.51197 453.62299 
L 594.915 455.023947 
L 603.31803 456.267423 
L 611.721061 457.285364 
L 622.224848 458.250678 
L 662.139242 460.828353 
L 674.743788 461.289558 
L 687.348333 461.482545 
L 695.751364 461.378706 
L 704.154394 461.146958 
L 716.758939 460.968327 
L 729.363485 460.874117 
L 746.169545 460.834062 
L 746.169545 460.834062 
" clip-path="url(#pe48f44c6eb)" style="fill: none; stroke: #662b00; stroke-opacity: 0.3; stroke-width: 2; stroke-linecap: square"/>
   </g>
   <g id="line2d_19">
    <path d="M 115.942273 118.119272 
L 118.04303 118.99479 
L 120.143788 119.832633 
L 122.244545 120.663518 
L 124.345303 121.568466 
L 126.446061 122.527179 
L 128.546818 123.423132 
L 130.647576 124.24684 
L 132.748333 125.08004 
L 134.849091 125.883221 
L 136.949848 126.717159 
L 139.050606 128.336889 
L 141.151364 130.086766 
L 143.252121 131.807307 
L 145.352879 133.615138 
L 147.453636 135.501705 
L 149.554394 137.411506 
L 151.655152 139.342044 
L 153.755909 141.367478 
L 155.856667 143.353657 
L 157.957424 145.352 
" clip-path="url(#pe48f44c6eb)" style="fill: none; stroke: #000000; stroke-opacity: 0.3; stroke-width: 2; stroke-linecap: square"/>
   </g>
   <g id="line2d_20">
    <path d="M 157.957424 145.352 
L 170.56197 157.306847 
L 176.864242 163.918684 
L 181.065758 168.879454 
L 189.468788 179.156781 
L 193.670303 184.47362 
L 199.972576 192.910475 
L 204.174091 199.146584 
L 223.080909 228.259707 
L 248.29 266.134221 
L 265.096061 292.186063 
L 269.297576 298.579792 
L 279.801364 314.729306 
L 284.002879 320.779957 
L 290.305152 329.590258 
L 296.607424 337.927176 
L 302.909697 345.679054 
L 309.21197 353.093832 
L 315.514242 360.048974 
L 321.816515 366.473487 
L 330.219545 374.47317 
L 338.622576 381.771259 
L 344.924848 386.987504 
L 351.227121 391.952169 
L 355.428636 394.980265 
L 361.730909 399.282808 
L 368.033182 403.33668 
L 378.53697 409.746838 
L 382.738485 412.093181 
L 395.34303 418.717442 
L 431.055909 436.961716 
L 441.559697 441.992117 
L 449.962727 445.636517 
L 456.265 448.218401 
L 462.567273 450.548087 
L 468.869545 452.653442 
L 477.272576 455.317413 
L 487.776364 458.449914 
L 494.078636 460.257433 
L 502.481667 462.406676 
L 508.783939 463.814509 
L 515.086212 464.957135 
L 523.489242 466.203158 
L 531.892273 467.240169 
L 544.496818 468.461322 
L 578.108939 471.605634 
L 603.31803 473.56715 
L 615.922576 474.319534 
L 628.527121 475.031245 
L 649.534697 476.30691 
L 693.650606 479.469815 
L 714.658182 480.627922 
L 737.766515 481.351251 
L 744.068788 481.455379 
L 746.169545 481.444238 
L 746.169545 481.444238 
" clip-path="url(#pe48f44c6eb)" style="fill: none; stroke: #b32700; stroke-opacity: 0.3; stroke-width: 2; stroke-linecap: square"/>
   </g>
   <g id="line2d_21">
    <path d="M 115.942273 118.048247 
L 118.04303 118.894133 
L 120.143788 119.673275 
L 122.244545 120.469167 
L 124.345303 121.301017 
L 126.446061 122.150311 
L 128.546818 122.992289 
L 130.647576 123.830747 
L 132.748333 124.686976 
L 134.849091 125.5358 
L 136.949848 126.399056 
L 139.050606 128.033329 
L 141.151364 129.796499 
L 143.252121 131.542206 
L 145.352879 133.278957 
L 147.453636 135.184698 
L 149.554394 137.185809 
L 151.655152 139.255264 
L 153.755909 141.263855 
L 155.856667 143.304711 
L 157.957424 145.352 
" clip-path="url(#pe48f44c6eb)" style="fill: none; stroke: #000000; stroke-opacity: 0.3; stroke-width: 2; stroke-linecap: square"/>
   </g>
   <g id="line2d_22">
    <path d="M 157.957424 145.352 
L 164.259697 153.079972 
L 170.56197 161.335716 
L 183.166515 178.491288 
L 185.267273 181.547166 
L 195.771061 195.624411 
L 206.274848 208.751811 
L 210.476364 213.75777 
L 216.778636 221.491817 
L 223.080909 228.981123 
L 225.181667 231.365311 
L 233.584697 240.075141 
L 237.786212 243.834215 
L 239.88697 245.694208 
L 246.189242 250.470734 
L 248.29 251.889961 
L 250.390758 253.168767 
L 252.491515 254.251585 
L 258.793788 257.035859 
L 260.894545 257.828089 
L 265.096061 259.136333 
L 269.297576 260.022011 
L 279.801364 262.169116 
L 284.002879 262.637448 
L 290.305152 263.079968 
L 294.506667 263.258888 
L 298.708182 263.469502 
L 317.615 263.409612 
L 323.917273 263.183386 
L 330.219545 263.169191 
L 334.421061 263.170032 
L 351.227121 263.144968 
L 363.831667 262.62243 
L 368.033182 262.608583 
L 372.234697 262.311875 
L 384.839242 261.957581 
L 391.141515 261.552417 
L 397.443788 261.824895 
L 401.645303 262.056532 
L 420.552121 263.819339 
L 424.753636 264.214186 
L 433.156667 264.70814 
L 437.358182 264.618577 
L 441.559697 264.456657 
L 447.86197 263.777609 
L 449.962727 263.508332 
L 454.164242 262.766412 
L 458.365758 262.101867 
L 462.567273 261.256005 
L 466.768788 260.357713 
L 473.071061 259.149848 
L 483.574848 256.838311 
L 489.877121 255.790406 
L 494.078636 255.256335 
L 498.280152 254.831643 
L 508.783939 253.540633 
L 515.086212 253.027782 
L 523.489242 252.670924 
L 525.59 252.582534 
L 529.791515 252.225546 
L 536.093788 251.746881 
L 540.295303 251.43992 
L 552.899848 250.766937 
L 557.101364 250.173734 
L 565.504394 248.885891 
L 567.605152 248.412646 
L 571.806667 247.624725 
L 580.209697 245.273034 
L 584.411212 243.880978 
L 590.713485 241.518192 
L 597.015758 239.272368 
L 609.620303 234.922129 
L 615.922576 233.065975 
L 622.224848 231.148161 
L 626.426364 229.844552 
L 630.627879 228.66961 
L 641.131667 225.599176 
L 647.433939 224.342698 
L 655.83697 222.099576 
L 660.038485 220.944583 
L 672.64303 218.083215 
L 676.844545 217.247491 
L 685.247576 215.780511 
L 695.751364 213.693923 
L 699.952879 212.954971 
L 708.355909 211.185086 
L 712.557424 210.481083 
L 718.859697 209.317366 
L 727.262727 207.350869 
L 737.766515 206.045905 
L 741.96803 205.587024 
L 746.169545 205.351587 
L 746.169545 205.351587 
" clip-path="url(#pe48f44c6eb)" style="fill: none; stroke: #70b8ff; stroke-opacity: 0.3; stroke-width: 2; stroke-linecap: square"/>
   </g>
   <g id="line2d_23">
    <path d="M 115.942273 116.935235 
L 118.04303 117.66192 
L 120.143788 118.371539 
L 122.244545 119.19737 
L 124.345303 120.108353 
L 126.446061 120.978493 
L 128.546818 121.800079 
L 130.647576 122.610264 
L 132.748333 123.502461 
L 134.849091 124.394772 
L 136.949848 125.308679 
L 139.050606 126.956486 
L 141.151364 128.606692 
L 143.252121 130.29823 
L 145.352879 132.159032 
L 147.453636 134.074007 
L 149.554394 136.11413 
L 151.655152 138.293437 
L 153.755909 140.597239 
L 155.856667 142.883215 
L 157.957424 145.352 
" clip-path="url(#pe48f44c6eb)" style="fill: none; stroke: #000000; stroke-opacity: 0.3; stroke-width: 2; stroke-linecap: square"/>
   </g>
   <g id="line2d_24">
    <path d="M 157.957424 145.352 
L 162.158939 150.146874 
L 168.461212 158.029067 
L 172.662727 163.807065 
L 176.864242 169.930008 
L 181.065758 176.347065 
L 185.267273 183.217293 
L 191.569545 193.940269 
L 197.871818 204.97721 
L 204.174091 215.583425 
L 210.476364 225.621344 
L 218.879394 238.574209 
L 227.282424 250.846066 
L 237.786212 265.751453 
L 248.29 279.32564 
L 252.491515 284.361517 
L 256.69303 289.114301 
L 262.995303 295.66066 
L 267.196818 299.627149 
L 269.297576 301.445662 
L 273.499091 304.608345 
L 281.902121 310.224136 
L 286.103636 312.858331 
L 292.405909 316.329857 
L 296.607424 318.453002 
L 302.909697 321.159296 
L 309.21197 323.489218 
L 313.413485 324.841491 
L 319.715758 326.632271 
L 323.917273 327.464185 
L 328.118788 328.047553 
L 338.622576 329.426732 
L 351.227121 331.869628 
L 361.730909 334.104158 
L 368.033182 335.487541 
L 378.53697 338.12542 
L 384.839242 339.311147 
L 393.242273 340.710032 
L 397.443788 341.318182 
L 401.645303 342.083401 
L 405.846818 342.817899 
L 412.149091 343.96521 
L 428.955152 346.881273 
L 443.660455 349.896031 
L 447.86197 350.543764 
L 464.66803 352.701613 
L 470.970303 353.167096 
L 481.474091 353.750376 
L 487.776364 353.883567 
L 498.280152 354.432288 
L 506.683182 354.772699 
L 510.884697 355.054867 
L 523.489242 355.160942 
L 527.690758 355.282528 
L 531.892273 355.115231 
L 538.194545 354.590082 
L 548.698333 353.498304 
L 555.000606 352.765603 
L 559.202121 352.221333 
L 571.806667 350.244216 
L 582.310455 349.094769 
L 588.612727 348.552524 
L 594.915 347.835482 
L 601.217273 347.083342 
L 622.224848 345.074704 
L 628.527121 344.096733 
L 651.635455 341.070303 
L 662.139242 339.329906 
L 666.340758 338.762246 
L 674.743788 337.72607 
L 678.945303 337.285861 
L 685.247576 336.81343 
L 691.549848 336.588911 
L 702.053636 336.242795 
L 706.255152 336.294626 
L 714.658182 336.981322 
L 718.859697 337.487673 
L 727.262727 338.77581 
L 733.565 339.195803 
L 737.766515 339.671121 
L 744.068788 340.688093 
L 746.169545 341.041106 
L 746.169545 341.041106 
" clip-path="url(#pe48f44c6eb)" style="fill: none; stroke: #fb7800; stroke-opacity: 0.3; stroke-width: 2; stroke-linecap: square"/>
   </g>
   <g id="line2d_25">
    <path d="M 115.942273 117.362652 
L 118.04303 118.150267 
L 120.143788 118.944407 
L 122.244545 119.791392 
L 124.345303 120.778164 
L 126.446061 121.734867 
L 128.546818 122.643098 
L 130.647576 123.471503 
L 132.748333 124.349787 
L 134.849091 125.219751 
L 136.949848 126.098893 
L 139.050606 127.733275 
L 141.151364 129.366105 
L 143.252121 131.057288 
L 145.352879 132.890026 
L 147.453636 134.789224 
L 149.554394 136.816026 
L 151.655152 138.787532 
L 153.755909 140.844581 
L 155.856667 142.99299 
L 157.957424 145.352 
" clip-path="url(#pe48f44c6eb)" style="fill: none; stroke: #000000; stroke-opacity: 0.3; stroke-width: 2; stroke-linecap: square"/>
   </g>
   <g id="line2d_26">
    <path d="M 157.957424 145.352 
L 162.158939 150.480591 
L 166.360455 156.138486 
L 170.56197 162.279591 
L 174.763485 168.885904 
L 183.166515 182.809926 
L 187.36803 190.165149 
L 193.670303 201.494739 
L 197.871818 208.952055 
L 206.274848 222.815267 
L 220.980152 245.15135 
L 227.282424 254.490041 
L 233.584697 262.65673 
L 237.786212 267.630024 
L 246.189242 277.679439 
L 254.592273 287.645715 
L 260.894545 294.04161 
L 269.297576 301.628282 
L 275.599848 307.096929 
L 281.902121 312.389851 
L 286.103636 315.618527 
L 288.204394 317.001574 
L 294.506667 320.632508 
L 298.708182 322.823481 
L 307.111212 327.252074 
L 311.312727 329.115067 
L 315.514242 330.80874 
L 330.219545 335.659079 
L 340.723333 340.072436 
L 349.126364 343.300744 
L 353.327879 344.907893 
L 372.234697 352.501155 
L 376.436212 353.872077 
L 382.738485 355.795253 
L 386.94 357.206307 
L 395.34303 359.882055 
L 410.048333 363.556352 
L 422.652879 366.458368 
L 428.955152 367.44092 
L 441.559697 369.392713 
L 473.071061 373.307895 
L 477.272576 373.63316 
L 485.675606 374.484374 
L 491.977879 374.96519 
L 523.489242 376.665217 
L 546.597576 377.33205 
L 569.705909 377.144667 
L 580.209697 377.208385 
L 611.721061 377.715001 
L 615.922576 377.903427 
L 622.224848 378.239882 
L 630.627879 378.438408 
L 634.829394 378.562034 
L 641.131667 378.786278 
L 647.433939 378.701631 
L 653.736212 378.53377 
L 660.038485 378.077517 
L 670.542273 377.100835 
L 676.844545 376.669755 
L 704.154394 374.234291 
L 708.355909 374.010732 
L 727.262727 372.00623 
L 737.766515 371.561329 
L 741.96803 371.400684 
L 746.169545 371.092095 
L 746.169545 371.092095 
" clip-path="url(#pe48f44c6eb)" style="fill: none; stroke: #fb7900; stroke-opacity: 0.3; stroke-width: 2; stroke-linecap: square"/>
   </g>
   <g id="line2d_27">
    <path d="M 115.942273 117.234369 
L 118.04303 118.053706 
L 120.143788 118.786447 
L 122.244545 119.552201 
L 124.345303 120.397044 
L 126.446061 121.222558 
L 128.546818 121.990159 
L 130.647576 122.724076 
L 132.748333 123.503657 
L 134.849091 124.317014 
L 136.949848 125.152621 
L 139.050606 126.764242 
L 141.151364 128.431015 
L 143.252121 130.114971 
L 145.352879 131.918107 
L 147.453636 133.920164 
L 149.554394 135.998983 
L 151.655152 138.150474 
L 153.755909 140.450484 
L 155.856667 142.860765 
L 157.957424 145.352 
" clip-path="url(#pe48f44c6eb)" style="fill: none; stroke: #000000; stroke-opacity: 0.3; stroke-width: 2; stroke-linecap: square"/>
   </g>
   <g id="line2d_28">
    <path d="M 157.957424 145.352 
L 162.158939 150.989498 
L 166.360455 157.272276 
L 170.56197 163.950333 
L 181.065758 181.318879 
L 185.267273 188.702474 
L 189.468788 195.944876 
L 195.771061 206.480919 
L 204.174091 219.695964 
L 212.577121 231.528978 
L 214.677879 234.367487 
L 223.080909 246.657902 
L 231.483939 258.411823 
L 235.685455 263.759068 
L 241.987727 271.388627 
L 244.088485 273.821069 
L 250.390758 281.848226 
L 258.793788 292.389081 
L 262.995303 297.33616 
L 267.196818 301.618485 
L 279.801364 314.074958 
L 288.204394 321.877889 
L 292.405909 325.263478 
L 300.808939 331.509975 
L 305.010455 334.613957 
L 311.312727 339.20175 
L 321.816515 346.096869 
L 328.118788 349.318939 
L 340.723333 355.131786 
L 344.924848 356.763365 
L 351.227121 358.838492 
L 359.630152 361.306938 
L 370.133939 364.04948 
L 374.335455 365.141832 
L 380.637727 366.563989 
L 386.94 367.740191 
L 405.846818 370.529734 
L 410.048333 370.986929 
L 426.854394 372.278246 
L 435.257424 372.76669 
L 443.660455 372.9602 
L 458.365758 373.078603 
L 470.970303 373.539025 
L 481.474091 373.78261 
L 498.280152 374.338773 
L 506.683182 374.088646 
L 512.985455 373.883215 
L 525.59 373.813659 
L 529.791515 373.776978 
L 538.194545 373.357046 
L 548.698333 373.281257 
L 552.899848 373.390826 
L 561.302879 373.335847 
L 569.705909 373.340844 
L 573.907424 373.508498 
L 582.310455 373.888732 
L 586.51197 373.982052 
L 590.713485 374.000206 
L 601.217273 373.866802 
L 611.721061 373.581587 
L 657.937727 371.6362 
L 664.24 370.827882 
L 670.542273 369.681925 
L 672.64303 369.31744 
L 676.844545 368.928366 
L 683.146818 368.575192 
L 687.348333 368.25181 
L 691.549848 368.016922 
L 702.053636 367.002061 
L 716.758939 365.85722 
L 720.960455 365.414663 
L 727.262727 364.553731 
L 735.665758 364.112037 
L 739.867273 364.004791 
L 744.068788 363.850315 
L 746.169545 363.637897 
L 746.169545 363.637897 
" clip-path="url(#pe48f44c6eb)" style="fill: none; stroke: #e34500; stroke-opacity: 0.3; stroke-width: 2; stroke-linecap: square"/>
   </g>
   <g id="line2d_29">
    <path d="M 115.942273 114.716921 
L 118.04303 115.430176 
L 120.143788 116.017422 
L 122.244545 116.664738 
L 124.345303 117.279667 
L 126.446061 118.032478 
L 128.546818 118.744613 
L 130.647576 119.417366 
L 132.748333 120.353971 
L 134.849091 121.398536 
L 136.949848 122.368586 
L 139.050606 124.267673 
L 141.151364 126.368896 
L 143.252121 128.487126 
L 145.352879 130.561127 
L 147.453636 132.827483 
L 149.554394 135.129849 
L 151.655152 137.507722 
L 153.755909 140.030496 
L 155.856667 142.6538 
L 157.957424 145.352 
" clip-path="url(#pe48f44c6eb)" style="fill: none; stroke: #000000; stroke-opacity: 0.3; stroke-width: 2; stroke-linecap: square"/>
   </g>
   <g id="line2d_30">
    <path d="M 157.957424 145.352 
L 162.158939 151.15544 
L 166.360455 157.594536 
L 172.662727 167.953127 
L 183.166515 186.069504 
L 187.36803 193.800601 
L 195.771061 209.5494 
L 202.073333 221.300137 
L 214.677879 244.735966 
L 220.980152 255.622094 
L 225.181667 262.615783 
L 229.383182 269.126752 
L 233.584697 275.445629 
L 237.786212 281.449742 
L 241.987727 286.95618 
L 248.29 294.927613 
L 252.491515 299.880229 
L 260.894545 309.31758 
L 267.196818 316.362312 
L 271.398333 320.826304 
L 275.599848 324.885591 
L 279.801364 328.6434 
L 288.204394 336.172844 
L 298.708182 344.889066 
L 307.111212 350.994019 
L 328.118788 364.358209 
L 332.320303 366.602769 
L 336.521818 368.653087 
L 340.723333 370.693893 
L 347.025606 373.784706 
L 357.529394 378.717128 
L 361.730909 380.583809 
L 368.033182 383.046659 
L 376.436212 385.993514 
L 382.738485 387.93763 
L 391.141515 389.917619 
L 407.947576 393.421809 
L 414.249848 394.703221 
L 431.055909 397.243095 
L 454.164242 399.464924 
L 475.171818 400.861458 
L 481.474091 401.401595 
L 485.675606 401.64657 
L 496.179394 402.206178 
L 502.481667 402.671751 
L 508.783939 403.218144 
L 515.086212 403.714914 
L 521.388485 404.23854 
L 529.791515 405.048151 
L 540.295303 405.922709 
L 546.597576 406.346787 
L 550.799091 406.766983 
L 557.101364 407.35531 
L 565.504394 408.17594 
L 576.008182 409.184595 
L 586.51197 410.338366 
L 592.814242 410.746464 
L 599.116515 410.945299 
L 620.124091 411.005479 
L 647.433939 411.979712 
L 662.139242 412.481295 
L 687.348333 412.789158 
L 702.053636 412.89177 
L 706.255152 412.824579 
L 710.456667 412.864124 
L 723.061212 412.447314 
L 735.665758 412.111538 
L 746.169545 411.982747 
L 746.169545 411.982747 
" clip-path="url(#pe48f44c6eb)" style="fill: none; stroke: #f76800; stroke-opacity: 0.3; stroke-width: 2; stroke-linecap: square"/>
   </g>
   <g id="line2d_31">
    <path d="M 115.942273 115.561937 
L 118.04303 116.195318 
L 120.143788 116.857821 
L 122.244545 117.484465 
L 124.345303 118.115078 
L 126.446061 118.723247 
L 128.546818 119.432943 
L 130.647576 120.192974 
L 132.748333 121.072387 
L 134.849091 122.047703 
L 136.949848 123.068235 
L 139.050606 124.926919 
L 141.151364 126.850974 
L 143.252121 128.867673 
L 145.352879 131.003559 
L 147.453636 133.116876 
L 149.554394 135.231801 
L 151.655152 137.531192 
L 153.755909 140.019094 
L 155.856667 142.659567 
L 157.957424 145.352 
" clip-path="url(#pe48f44c6eb)" style="fill: none; stroke: #000000; stroke-opacity: 0.3; stroke-width: 2; stroke-linecap: square"/>
   </g>
   <g id="line2d_32">
    <path d="M 157.957424 145.352 
L 162.158939 151.872409 
L 166.360455 159.013318 
L 170.56197 166.492736 
L 174.763485 174.467631 
L 181.065758 186.946077 
L 187.36803 199.618437 
L 195.771061 216.688395 
L 210.476364 245.427718 
L 227.282424 275.710825 
L 235.685455 290.267804 
L 244.088485 303.318711 
L 250.390758 312.634483 
L 254.592273 318.489217 
L 258.793788 323.935028 
L 262.995303 329.025763 
L 267.196818 333.741616 
L 271.398333 338.227303 
L 277.700606 344.603998 
L 284.002879 350.552151 
L 292.405909 357.777542 
L 300.808939 364.225508 
L 309.21197 370.162953 
L 317.615 375.864849 
L 321.816515 378.525825 
L 330.219545 383.458918 
L 347.025606 392.112265 
L 353.327879 395.055051 
L 357.529394 396.861275 
L 361.730909 398.514989 
L 376.436212 403.830554 
L 389.040758 408.211579 
L 395.34303 410.088598 
L 403.746061 412.212243 
L 412.149091 414.017957 
L 416.350606 414.729628 
L 420.552121 415.316363 
L 431.055909 416.354498 
L 435.257424 416.661623 
L 445.761212 417.168678 
L 454.164242 417.782815 
L 473.071061 418.691281 
L 481.474091 418.834514 
L 491.977879 419.100693 
L 500.380909 419.31877 
L 506.683182 419.46443 
L 548.698333 421.504146 
L 563.403636 421.580027 
L 590.713485 421.735384 
L 620.124091 422.513514 
L 630.627879 423.056149 
L 636.930152 423.438106 
L 651.635455 424.452943 
L 657.937727 425.152131 
L 668.441515 425.866878 
L 691.549848 427.115938 
L 702.053636 427.207818 
L 714.658182 427.426239 
L 746.169545 428.046355 
L 746.169545 428.046355 
" clip-path="url(#pe48f44c6eb)" style="fill: none; stroke: #9d2800; stroke-opacity: 0.3; stroke-width: 2; stroke-linecap: square"/>
   </g>
   <g id="line2d_33">
    <path d="M 115.942273 111.373683 
L 118.04303 112.197454 
L 120.143788 113.049955 
L 122.244545 113.772529 
L 124.345303 114.540915 
L 126.446061 115.487869 
L 128.546818 116.47954 
L 130.647576 117.45386 
L 132.748333 118.439111 
L 134.849091 119.471566 
L 136.949848 120.519297 
L 139.050606 122.456565 
L 141.151364 124.518741 
L 143.252121 126.670836 
L 145.352879 128.927352 
L 147.453636 131.288106 
L 149.554394 133.705824 
L 151.655152 136.441908 
L 153.755909 139.233848 
L 155.856667 142.230903 
L 157.957424 145.352 
" clip-path="url(#pe48f44c6eb)" style="fill: none; stroke: #000000; stroke-opacity: 0.3; stroke-width: 2; stroke-linecap: square"/>
   </g>
   <g id="line2d_34">
    <path d="M 157.957424 145.352 
L 162.158939 153.255026 
L 166.360455 161.527473 
L 172.662727 174.737761 
L 178.965 188.432386 
L 187.36803 207.475205 
L 197.871818 232.107484 
L 204.174091 246.646142 
L 210.476364 260.62921 
L 214.677879 269.718637 
L 220.980152 282.78871 
L 225.181667 291.139126 
L 229.383182 298.968749 
L 233.584697 306.190627 
L 237.786212 312.71987 
L 241.987727 318.800153 
L 246.189242 324.486254 
L 252.491515 332.593791 
L 256.69303 337.540951 
L 260.894545 342.175644 
L 265.096061 346.476555 
L 269.297576 350.419718 
L 273.499091 354.107459 
L 279.801364 359.184756 
L 286.103636 363.844476 
L 290.305152 366.778701 
L 294.506667 369.374521 
L 298.708182 371.776418 
L 305.010455 375.060147 
L 313.413485 378.707608 
L 323.917273 382.909992 
L 336.521818 387.481903 
L 344.924848 390.106053 
L 355.428636 392.89788 
L 361.730909 394.119109 
L 370.133939 395.603237 
L 376.436212 396.384532 
L 395.34303 398.661263 
L 401.645303 399.448559 
L 410.048333 400.226529 
L 422.652879 401.241234 
L 431.055909 401.726099 
L 456.265 402.887978 
L 462.567273 403.206795 
L 477.272576 403.537255 
L 494.078636 403.62457 
L 500.380909 403.364902 
L 519.287727 402.342802 
L 552.899848 399.521481 
L 567.605152 398.326252 
L 588.612727 397.331972 
L 594.915 397.163774 
L 618.023333 396.457568 
L 634.829394 395.437458 
L 645.333182 394.761653 
L 660.038485 393.877666 
L 674.743788 393.337934 
L 681.046061 393.060735 
L 689.449091 392.823167 
L 697.852121 392.541711 
L 704.154394 392.278894 
L 712.557424 391.866549 
L 716.758939 391.800201 
L 727.262727 391.699598 
L 746.169545 391.495663 
L 746.169545 391.495663 
" clip-path="url(#pe48f44c6eb)" style="fill: none; stroke: #c12a00; stroke-opacity: 0.3; stroke-width: 2; stroke-linecap: square"/>
   </g>
   <g id="line2d_35">
    <path d="M 115.942273 106.906685 
L 118.04303 107.4898 
L 120.143788 108.167186 
L 122.244545 108.955712 
L 124.345303 109.808017 
L 126.446061 110.687506 
L 128.546818 111.66042 
L 130.647576 112.739322 
L 132.748333 113.912172 
L 134.849091 115.133042 
L 136.949848 116.393762 
L 139.050606 118.445593 
L 141.151364 120.682463 
L 143.252121 123.160693 
L 145.352879 125.868598 
L 147.453636 128.661144 
L 149.554394 131.699712 
L 151.655152 134.884534 
L 153.755909 138.232832 
L 155.856667 141.685873 
L 157.957424 145.352 
" clip-path="url(#pe48f44c6eb)" style="fill: none; stroke: #000000; stroke-opacity: 0.3; stroke-width: 2; stroke-linecap: square"/>
   </g>
   <g id="line2d_36">
    <path d="M 157.957424 145.352 
L 160.058182 147.257903 
L 164.259697 151.545336 
L 168.461212 156.039052 
L 170.56197 158.490846 
L 176.864242 166.868376 
L 181.065758 172.874912 
L 191.569545 189.180991 
L 212.577121 222.872282 
L 216.778636 229.166714 
L 231.483939 252.030045 
L 244.088485 271.997457 
L 258.793788 293.615523 
L 265.096061 301.976442 
L 271.398333 309.576624 
L 277.700606 316.509633 
L 284.002879 322.797587 
L 288.204394 326.710498 
L 292.405909 330.383182 
L 296.607424 333.787152 
L 302.909697 338.346271 
L 307.111212 341.054833 
L 311.312727 343.529095 
L 315.514242 345.578782 
L 319.715758 347.389309 
L 323.917273 348.92409 
L 330.219545 350.946115 
L 336.521818 352.524887 
L 342.824091 353.988149 
L 351.227121 355.647987 
L 361.730909 357.534481 
L 370.133939 358.981795 
L 378.53697 360.28015 
L 386.94 361.136224 
L 397.443788 362.181508 
L 405.846818 363.094617 
L 422.652879 364.58597 
L 433.156667 365.602391 
L 437.358182 365.911909 
L 447.86197 366.325198 
L 458.365758 366.649936 
L 468.869545 366.750376 
L 479.373333 366.666531 
L 489.877121 366.371083 
L 498.280152 366.178434 
L 512.985455 366.090021 
L 527.690758 366.165358 
L 544.496818 366.417236 
L 559.202121 366.373947 
L 569.705909 366.621859 
L 576.008182 366.973513 
L 584.411212 367.373659 
L 605.418788 367.647339 
L 611.721061 367.353712 
L 615.922576 366.868672 
L 626.426364 365.325049 
L 636.930152 363.677015 
L 653.736212 360.629089 
L 666.340758 358.837881 
L 678.945303 356.780195 
L 708.355909 352.718381 
L 731.464242 350.615291 
L 737.766515 350.30476 
L 746.169545 349.931559 
L 746.169545 349.931559 
" clip-path="url(#pe48f44c6eb)" style="fill: none; stroke: #fa7500; stroke-opacity: 0.3; stroke-width: 2; stroke-linecap: square"/>
   </g>
   <g id="line2d_37">
    <path d="M 115.942273 116.577816 
L 118.04303 117.531729 
L 120.143788 118.300474 
L 122.244545 119.12152 
L 124.345303 119.880152 
L 126.446061 120.75951 
L 128.546818 121.597959 
L 130.647576 122.419807 
L 132.748333 123.45053 
L 134.849091 124.590822 
L 136.949848 125.884751 
L 139.050606 127.864359 
L 141.151364 129.789258 
L 143.252121 131.685649 
L 145.352879 133.593124 
L 147.453636 135.57827 
L 149.554394 137.659492 
L 151.655152 139.703849 
L 153.755909 141.682134 
L 155.856667 143.493723 
L 157.957424 145.352 
" clip-path="url(#pe48f44c6eb)" style="fill: none; stroke: #000000; stroke-opacity: 0.3; stroke-width: 2; stroke-linecap: square"/>
   </g>
   <g id="line2d_38">
    <path d="M 157.957424 145.352 
L 162.158939 151.626907 
L 166.360455 158.372549 
L 170.56197 165.641802 
L 174.763485 173.382692 
L 181.065758 185.717388 
L 189.468788 202.650645 
L 195.771061 214.844547 
L 214.677879 248.297521 
L 220.980152 258.783536 
L 225.181667 265.223297 
L 235.685455 280.213094 
L 239.88697 285.704932 
L 244.088485 290.723164 
L 248.29 295.33858 
L 252.491515 299.598194 
L 258.793788 305.560551 
L 262.995303 309.171561 
L 267.196818 312.463507 
L 271.398333 315.559499 
L 281.902121 322.860053 
L 286.103636 325.844071 
L 292.405909 329.974595 
L 296.607424 332.624352 
L 300.808939 334.894311 
L 307.111212 337.795134 
L 311.312727 339.575368 
L 319.715758 342.628546 
L 323.917273 344.071757 
L 336.521818 347.959654 
L 342.824091 349.449017 
L 349.126364 351.131671 
L 353.327879 352.127033 
L 357.529394 352.939759 
L 363.831667 353.87254 
L 370.133939 354.613858 
L 376.436212 355.06437 
L 382.738485 355.298743 
L 386.94 355.222007 
L 391.141515 355.016998 
L 399.544545 353.768544 
L 405.846818 352.441236 
L 410.048333 351.479794 
L 418.451364 349.234964 
L 426.854394 346.703847 
L 433.156667 344.788988 
L 437.358182 343.624586 
L 445.761212 341.313981 
L 458.365758 337.603047 
L 462.567273 336.161229 
L 466.768788 334.772683 
L 470.970303 333.434116 
L 479.373333 330.265125 
L 487.776364 326.59283 
L 500.380909 320.72707 
L 510.884697 316.208699 
L 521.388485 311.266637 
L 525.59 309.042249 
L 531.892273 305.442885 
L 536.093788 302.957808 
L 544.496818 297.80546 
L 550.799091 293.904041 
L 567.605152 282.939767 
L 576.008182 278.1897 
L 582.310455 274.744994 
L 594.915 267.555308 
L 599.116515 265.405607 
L 607.519545 260.752254 
L 626.426364 249.590123 
L 632.728636 245.978886 
L 657.937727 232.124826 
L 664.24 228.126229 
L 678.945303 217.607594 
L 683.146818 214.330623 
L 687.348333 211.009322 
L 704.154394 197.198019 
L 708.355909 194.101063 
L 712.557424 191.204146 
L 716.758939 188.278722 
L 720.960455 185.287295 
L 727.262727 180.846839 
L 735.665758 178.126871 
L 744.068788 175.67081 
L 746.169545 175.096492 
L 746.169545 175.096492 
" clip-path="url(#pe48f44c6eb)" style="fill: none; stroke: #fd9b00; stroke-opacity: 0.3; stroke-width: 2; stroke-linecap: square"/>
   </g>
   <g id="line2d_39">
    <path d="M 115.942273 114.7202 
L 118.04303 115.362472 
L 120.143788 115.884275 
L 122.244545 116.461289 
L 124.345303 117.013894 
L 126.446061 117.694438 
L 128.546818 118.348392 
L 130.647576 118.971929 
L 132.748333 119.809205 
L 134.849091 120.717878 
L 136.949848 121.674665 
L 139.050606 123.58585 
L 141.151364 125.597985 
L 143.252121 127.680809 
L 145.352879 129.761403 
L 147.453636 132.064242 
L 149.554394 134.440457 
L 151.655152 136.88975 
L 153.755909 139.530337 
L 155.856667 142.380555 
L 157.957424 145.352 
" clip-path="url(#pe48f44c6eb)" style="fill: none; stroke: #000000; stroke-opacity: 0.3; stroke-width: 2; stroke-linecap: square"/>
   </g>
   <g id="line2d_40">
    <path d="M 764.551174 309.600097 
L 774.004583 309.600097 
L 774.004583 190.280243 
L 764.551174 190.280243 
L 764.551174 309.600097 
" clip-path="url(#pe48f44c6eb)" style="fill: none; stroke: #92b9c1; stroke-width: 2; stroke-linecap: square"/>
   </g>
   <g id="line2d_41">
    <path d="M 769.277879 309.600097 
L 769.277879 379.205754 
" clip-path="url(#pe48f44c6eb)" style="fill: none; stroke: #92b9c1; stroke-linecap: square"/>
   </g>
   <g id="line2d_42">
    <path d="M 769.277879 190.280243 
L 769.277879 48.860561 
" clip-path="url(#pe48f44c6eb)" style="fill: none; stroke: #92b9c1; stroke-linecap: square"/>
   </g>
   <g id="line2d_43">
    <path d="M 766.914527 379.205754 
L 771.641231 379.205754 
" clip-path="url(#pe48f44c6eb)" style="fill: none; stroke: #92b9c1; stroke-linecap: square"/>
   </g>
   <g id="line2d_44">
    <path d="M 766.914527 48.860561 
L 771.641231 48.860561 
" clip-path="url(#pe48f44c6eb)" style="fill: none; stroke: #92b9c1; stroke-linecap: square"/>
   </g>
   <g id="line2d_45">
    <path d="M 777.15572 395.718576 
L 786.609129 395.718576 
L 786.609129 288.287771 
L 777.15572 288.287771 
L 777.15572 395.718576 
" clip-path="url(#pe48f44c6eb)" style="fill: none; stroke: #ff8f00; stroke-width: 2; stroke-linecap: square"/>
   </g>
   <g id="line2d_46">
    <path d="M 781.882424 395.718576 
L 781.882424 447.078521 
" clip-path="url(#pe48f44c6eb)" style="fill: none; stroke: #ff8f00; stroke-linecap: square"/>
   </g>
   <g id="line2d_47">
    <path d="M 781.882424 288.287771 
L 781.882424 146.411955 
" clip-path="url(#pe48f44c6eb)" style="fill: none; stroke: #ff8f00; stroke-linecap: square"/>
   </g>
   <g id="line2d_48">
    <path d="M 779.519072 447.078521 
L 784.245777 447.078521 
" clip-path="url(#pe48f44c6eb)" style="fill: none; stroke: #ff8f00; stroke-linecap: square"/>
   </g>
   <g id="line2d_49">
    <path d="M 779.519072 146.411955 
L 784.245777 146.411955 
" clip-path="url(#pe48f44c6eb)" style="fill: none; stroke: #ff8f00; stroke-linecap: square"/>
   </g>
   <g id="line2d_50">
    <path d="M 789.760265 501.856664 
L 799.213674 501.856664 
L 799.213674 453.626528 
L 789.760265 453.626528 
L 789.760265 501.856664 
" clip-path="url(#pe48f44c6eb)" style="fill: none; stroke: #662b00; stroke-width: 2; stroke-linecap: square"/>
   </g>
   <g id="line2d_51">
    <path d="M 794.48697 501.856664 
L 794.48697 515.56 
" clip-path="url(#pe48f44c6eb)" style="fill: none; stroke: #662b00; stroke-linecap: square"/>
   </g>
   <g id="line2d_52">
    <path d="M 794.48697 453.626528 
L 794.48697 354.36311 
" clip-path="url(#pe48f44c6eb)" style="fill: none; stroke: #662b00; stroke-linecap: square"/>
   </g>
   <g id="line2d_53">
    <path d="M 792.123617 515.56 
L 796.850322 515.56 
" clip-path="url(#pe48f44c6eb)" style="fill: none; stroke: #662b00; stroke-linecap: square"/>
   </g>
   <g id="line2d_54">
    <path d="M 792.123617 354.36311 
L 796.850322 354.36311 
" clip-path="url(#pe48f44c6eb)" style="fill: none; stroke: #662b00; stroke-linecap: square"/>
   </g>
   <g id="line2d_55">
    <path d="M 764.551174 260.628956 
L 774.004583 260.628956 
" clip-path="url(#pe48f44c6eb)" style="fill: none; stroke: #92b9c1; stroke-width: 4; stroke-linecap: square"/>
   </g>
   <g id="line2d_56">
    <path d="M 777.15572 342.184308 
L 786.609129 342.184308 
" clip-path="url(#pe48f44c6eb)" style="fill: none; stroke: #ff8f00; stroke-width: 4; stroke-linecap: square"/>
   </g>
   <g id="line2d_57">
    <path d="M 789.760265 476.303244 
L 799.213674 476.303244 
" clip-path="url(#pe48f44c6eb)" style="fill: none; stroke: #662b00; stroke-width: 4; stroke-linecap: square"/>
   </g>
   <g id="patch_3">
    <path d="M 109.64 515.56 
L 109.64 52.8 
" style="fill: none; stroke: #000000; stroke-width: 0.8; stroke-linejoin: miter; stroke-linecap: square"/>
   </g>
   <g id="patch_4">
    <path d="M 109.64 515.56 
L 802.89 515.56 
" style="fill: none; stroke: #000000; stroke-width: 0.8; stroke-linejoin: miter; stroke-linecap: square"/>
   </g>
   <g id="text_14">
    <!-- +1.5C -->
    <g style="fill: #92b9c1" transform="translate(802.89 265.595831) scale(0.18 -0.18)">
     <defs>
      <path id="DejaVuSans-Bold-2b" d="M 3053 4013 
L 3053 2375 
L 4684 2375 
L 4684 1638 
L 3053 1638 
L 3053 0 
L 2309 0 
L 2309 1638 
L 678 1638 
L 678 2375 
L 2309 2375 
L 2309 4013 
L 3053 4013 
z
" transform="scale(0.015625)"/>
      <path id="DejaVuSans-Bold-31" d="M 750 831 
L 1813 831 
L 1813 3847 
L 722 3622 
L 722 4441 
L 1806 4666 
L 2950 4666 
L 2950 831 
L 4013 831 
L 4013 0 
L 750 0 
L 750 831 
z
" transform="scale(0.015625)"/>
      <path id="DejaVuSans-Bold-2e" d="M 653 1209 
L 1778 1209 
L 1778 0 
L 653 0 
L 653 1209 
z
" transform="scale(0.015625)"/>
      <path id="DejaVuSans-Bold-35" d="M 678 4666 
L 3669 4666 
L 3669 3781 
L 1638 3781 
L 1638 3059 
Q 1775 3097 1914 3117 
Q 2053 3138 2203 3138 
Q 3056 3138 3531 2711 
Q 4006 2284 4006 1522 
Q 4006 766 3489 337 
Q 2972 -91 2053 -91 
Q 1656 -91 1267 -14 
Q 878 63 494 219 
L 494 1166 
Q 875 947 1217 837 
Q 1559 728 1863 728 
Q 2300 728 2551 942 
Q 2803 1156 2803 1522 
Q 2803 1891 2551 2103 
Q 2300 2316 1863 2316 
Q 1603 2316 1309 2248 
Q 1016 2181 678 2041 
L 678 4666 
z
" transform="scale(0.015625)"/>
      <path id="DejaVuSans-Bold-b0" d="M 1600 4288 
Q 1375 4288 1219 4131 
Q 1063 3975 1063 3750 
Q 1063 3525 1217 3372 
Q 1372 3219 1600 3219 
Q 1825 3219 1981 3373 
Q 2138 3528 2138 3750 
Q 2138 3975 1980 4131 
Q 1822 4288 1600 4288 
z
M 1600 4794 
Q 1806 4794 1997 4714 
Q 2188 4634 2338 4488 
Q 2484 4338 2561 4150 
Q 2638 3963 2638 3750 
Q 2638 3541 2561 3352 
Q 2484 3163 2344 3022 
Q 2194 2872 2000 2792 
Q 1806 2713 1594 2713 
Q 1153 2713 854 3011 
Q 556 3309 556 3750 
Q 556 4191 857 4492 
Q 1159 4794 1600 4794 
z
" transform="scale(0.015625)"/>
      <path id="DejaVuSans-Bold-43" d="M 4288 256 
Q 3956 84 3597 -3 
Q 3238 -91 2847 -91 
Q 1681 -91 1000 561 
Q 319 1213 319 2328 
Q 319 3447 1000 4098 
Q 1681 4750 2847 4750 
Q 3238 4750 3597 4662 
Q 3956 4575 4288 4403 
L 4288 3438 
Q 3953 3666 3628 3772 
Q 3303 3878 2944 3878 
Q 2300 3878 1931 3465 
Q 1563 3053 1563 2328 
Q 1563 1606 1931 1193 
Q 2300 781 2944 781 
Q 3303 781 3628 887 
Q 3953 994 4288 1222 
L 4288 256 
z
" transform="scale(0.015625)"/>
     </defs>
     <use xlink:href="#DejaVuSans-Bold-2b"/>
     <use xlink:href="#DejaVuSans-Bold-31" x="83.789062"/>
     <use xlink:href="#DejaVuSans-Bold-2e" x="153.369141"/>
     <use xlink:href="#DejaVuSans-Bold-35" x="191.357422"/>
     <use xlink:href="#DejaVuSans-Bold-b0" x="260.9375"/>
     <use xlink:href="#DejaVuSans-Bold-43" x="310.9375"/>
    </g>
   </g>
   <g id="text_15">
    <!-- +2.0C -->
    <g style="fill: #ff8f00" transform="translate(802.89 347.151183) scale(0.18 -0.18)">
     <defs>
      <path id="DejaVuSans-Bold-32" d="M 1844 884 
L 3897 884 
L 3897 0 
L 506 0 
L 506 884 
L 2209 2388 
Q 2438 2594 2547 2791 
Q 2656 2988 2656 3200 
Q 2656 3528 2436 3728 
Q 2216 3928 1850 3928 
Q 1569 3928 1234 3808 
Q 900 3688 519 3450 
L 519 4475 
Q 925 4609 1322 4679 
Q 1719 4750 2100 4750 
Q 2938 4750 3402 4381 
Q 3866 4013 3866 3353 
Q 3866 2972 3669 2642 
Q 3472 2313 2841 1759 
L 1844 884 
z
" transform="scale(0.015625)"/>
      <path id="DejaVuSans-Bold-30" d="M 2944 2338 
Q 2944 3213 2780 3570 
Q 2616 3928 2228 3928 
Q 1841 3928 1675 3570 
Q 1509 3213 1509 2338 
Q 1509 1453 1675 1090 
Q 1841 728 2228 728 
Q 2613 728 2778 1090 
Q 2944 1453 2944 2338 
z
M 4147 2328 
Q 4147 1169 3647 539 
Q 3147 -91 2228 -91 
Q 1306 -91 806 539 
Q 306 1169 306 2328 
Q 306 3491 806 4120 
Q 1306 4750 2228 4750 
Q 3147 4750 3647 4120 
Q 4147 3491 4147 2328 
z
" transform="scale(0.015625)"/>
     </defs>
     <use xlink:href="#DejaVuSans-Bold-2b"/>
     <use xlink:href="#DejaVuSans-Bold-32" x="83.789062"/>
     <use xlink:href="#DejaVuSans-Bold-2e" x="153.369141"/>
     <use xlink:href="#DejaVuSans-Bold-30" x="191.357422"/>
     <use xlink:href="#DejaVuSans-Bold-b0" x="260.9375"/>
     <use xlink:href="#DejaVuSans-Bold-43" x="310.9375"/>
    </g>
   </g>
   <g id="text_16">
    <!-- +3.0C -->
    <g style="fill: #662b00" transform="translate(802.89 481.270119) scale(0.18 -0.18)">
     <defs>
      <path id="DejaVuSans-Bold-33" d="M 2981 2516 
Q 3453 2394 3698 2092 
Q 3944 1791 3944 1325 
Q 3944 631 3412 270 
Q 2881 -91 1863 -91 
Q 1503 -91 1142 -33 
Q 781 25 428 141 
L 428 1069 
Q 766 900 1098 814 
Q 1431 728 1753 728 
Q 2231 728 2486 893 
Q 2741 1059 2741 1369 
Q 2741 1688 2480 1852 
Q 2219 2016 1709 2016 
L 1228 2016 
L 1228 2791 
L 1734 2791 
Q 2188 2791 2409 2933 
Q 2631 3075 2631 3366 
Q 2631 3634 2415 3781 
Q 2200 3928 1806 3928 
Q 1516 3928 1219 3862 
Q 922 3797 628 3669 
L 628 4550 
Q 984 4650 1334 4700 
Q 1684 4750 2022 4750 
Q 2931 4750 3382 4451 
Q 3834 4153 3834 3553 
Q 3834 3144 3618 2883 
Q 3403 2622 2981 2516 
z
" transform="scale(0.015625)"/>
     </defs>
     <use xlink:href="#DejaVuSans-Bold-2b"/>
     <use xlink:href="#DejaVuSans-Bold-33" x="83.789062"/>
     <use xlink:href="#DejaVuSans-Bold-2e" x="153.369141"/>
     <use xlink:href="#DejaVuSans-Bold-30" x="191.357422"/>
     <use xlink:href="#DejaVuSans-Bold-b0" x="260.9375"/>
     <use xlink:href="#DejaVuSans-Bold-43" x="310.9375"/>
    </g>
   </g>
   <g id="text_17">
    <!-- Glaciers of High Mountain Asia -->
    <g transform="translate(247.913125 46.8) scale(0.24 -0.24)">
     <defs>
      <path id="DejaVuSans-Bold-47" d="M 4781 347 
Q 4331 128 3847 18 
Q 3363 -91 2847 -91 
Q 1681 -91 1000 561 
Q 319 1213 319 2328 
Q 319 3456 1012 4103 
Q 1706 4750 2913 4750 
Q 3378 4750 3804 4662 
Q 4231 4575 4609 4403 
L 4609 3438 
Q 4219 3659 3833 3768 
Q 3447 3878 3059 3878 
Q 2341 3878 1952 3476 
Q 1563 3075 1563 2328 
Q 1563 1588 1938 1184 
Q 2313 781 3003 781 
Q 3191 781 3352 804 
Q 3513 828 3641 878 
L 3641 1784 
L 2906 1784 
L 2906 2591 
L 4781 2591 
L 4781 347 
z
" transform="scale(0.015625)"/>
      <path id="DejaVuSans-Bold-6c" d="M 538 4863 
L 1656 4863 
L 1656 0 
L 538 0 
L 538 4863 
z
" transform="scale(0.015625)"/>
      <path id="DejaVuSans-Bold-73" d="M 3272 3391 
L 3272 2541 
Q 2913 2691 2578 2766 
Q 2244 2841 1947 2841 
Q 1628 2841 1473 2761 
Q 1319 2681 1319 2516 
Q 1319 2381 1436 2309 
Q 1553 2238 1856 2203 
L 2053 2175 
Q 2913 2066 3209 1816 
Q 3506 1566 3506 1031 
Q 3506 472 3093 190 
Q 2681 -91 1863 -91 
Q 1516 -91 1145 -36 
Q 775 19 384 128 
L 384 978 
Q 719 816 1070 734 
Q 1422 653 1784 653 
Q 2113 653 2278 743 
Q 2444 834 2444 1013 
Q 2444 1163 2330 1236 
Q 2216 1309 1875 1350 
L 1678 1375 
Q 931 1469 631 1722 
Q 331 1975 331 2491 
Q 331 3047 712 3315 
Q 1094 3584 1881 3584 
Q 2191 3584 2531 3537 
Q 2872 3491 3272 3391 
z
" transform="scale(0.015625)"/>
      <path id="DejaVuSans-Bold-48" d="M 588 4666 
L 1791 4666 
L 1791 2888 
L 3566 2888 
L 3566 4666 
L 4769 4666 
L 4769 0 
L 3566 0 
L 3566 1978 
L 1791 1978 
L 1791 0 
L 588 0 
L 588 4666 
z
" transform="scale(0.015625)"/>
      <path id="DejaVuSans-Bold-68" d="M 4056 2131 
L 4056 0 
L 2931 0 
L 2931 347 
L 2931 1625 
Q 2931 2084 2911 2256 
Q 2891 2428 2841 2509 
Q 2775 2619 2662 2680 
Q 2550 2741 2406 2741 
Q 2056 2741 1856 2470 
Q 1656 2200 1656 1722 
L 1656 0 
L 538 0 
L 538 4863 
L 1656 4863 
L 1656 2988 
Q 1909 3294 2193 3439 
Q 2478 3584 2822 3584 
Q 3428 3584 3742 3212 
Q 4056 2841 4056 2131 
z
" transform="scale(0.015625)"/>
      <path id="DejaVuSans-Bold-4d" d="M 588 4666 
L 2119 4666 
L 3181 2169 
L 4250 4666 
L 5778 4666 
L 5778 0 
L 4641 0 
L 4641 3413 
L 3566 897 
L 2803 897 
L 1728 3413 
L 1728 0 
L 588 0 
L 588 4666 
z
" transform="scale(0.015625)"/>
      <path id="DejaVuSans-Bold-75" d="M 500 1363 
L 500 3500 
L 1625 3500 
L 1625 3150 
Q 1625 2866 1622 2436 
Q 1619 2006 1619 1863 
Q 1619 1441 1641 1255 
Q 1663 1069 1716 984 
Q 1784 875 1895 815 
Q 2006 756 2150 756 
Q 2500 756 2700 1025 
Q 2900 1294 2900 1772 
L 2900 3500 
L 4019 3500 
L 4019 0 
L 2900 0 
L 2900 506 
Q 2647 200 2364 54 
Q 2081 -91 1741 -91 
Q 1134 -91 817 281 
Q 500 653 500 1363 
z
" transform="scale(0.015625)"/>
      <path id="DejaVuSans-Bold-74" d="M 1759 4494 
L 1759 3500 
L 2913 3500 
L 2913 2700 
L 1759 2700 
L 1759 1216 
Q 1759 972 1856 886 
Q 1953 800 2241 800 
L 2816 800 
L 2816 0 
L 1856 0 
Q 1194 0 917 276 
Q 641 553 641 1216 
L 641 2700 
L 84 2700 
L 84 3500 
L 641 3500 
L 641 4494 
L 1759 4494 
z
" transform="scale(0.015625)"/>
      <path id="DejaVuSans-Bold-41" d="M 3419 850 
L 1538 850 
L 1241 0 
L 31 0 
L 1759 4666 
L 3194 4666 
L 4922 0 
L 3713 0 
L 3419 850 
z
M 1838 1716 
L 3116 1716 
L 2478 3572 
L 1838 1716 
z
" transform="scale(0.015625)"/>
     </defs>
     <use xlink:href="#DejaVuSans-Bold-47"/>
     <use xlink:href="#DejaVuSans-Bold-6c" x="82.080078"/>
     <use xlink:href="#DejaVuSans-Bold-61" x="116.357422"/>
     <use xlink:href="#DejaVuSans-Bold-63" x="183.837891"/>
     <use xlink:href="#DejaVuSans-Bold-69" x="243.115234"/>
     <use xlink:href="#DejaVuSans-Bold-65" x="277.392578"/>
     <use xlink:href="#DejaVuSans-Bold-72" x="345.214844"/>
     <use xlink:href="#DejaVuSans-Bold-73" x="394.53125"/>
     <use xlink:href="#DejaVuSans-Bold-20" x="454.052734"/>
     <use xlink:href="#DejaVuSans-Bold-6f" x="488.867188"/>
     <use xlink:href="#DejaVuSans-Bold-66" x="557.568359"/>
     <use xlink:href="#DejaVuSans-Bold-20" x="601.074219"/>
     <use xlink:href="#DejaVuSans-Bold-48" x="635.888672"/>
     <use xlink:href="#DejaVuSans-Bold-69" x="719.580078"/>
     <use xlink:href="#DejaVuSans-Bold-67" x="753.857422"/>
     <use xlink:href="#DejaVuSans-Bold-68" x="825.439453"/>
     <use xlink:href="#DejaVuSans-Bold-20" x="896.630859"/>
     <use xlink:href="#DejaVuSans-Bold-4d" x="931.445312"/>
     <use xlink:href="#DejaVuSans-Bold-6f" x="1030.957031"/>
     <use xlink:href="#DejaVuSans-Bold-75" x="1099.658203"/>
     <use xlink:href="#DejaVuSans-Bold-6e" x="1170.849609"/>
     <use xlink:href="#DejaVuSans-Bold-74" x="1242.041016"/>
     <use xlink:href="#DejaVuSans-Bold-61" x="1289.84375"/>
     <use xlink:href="#DejaVuSans-Bold-69" x="1357.324219"/>
     <use xlink:href="#DejaVuSans-Bold-6e" x="1391.601562"/>
     <use xlink:href="#DejaVuSans-Bold-20" x="1462.792969"/>
     <use xlink:href="#DejaVuSans-Bold-41" x="1497.607422"/>
     <use xlink:href="#DejaVuSans-Bold-73" x="1575"/>
     <use xlink:href="#DejaVuSans-Bold-69" x="1634.521484"/>
     <use xlink:href="#DejaVuSans-Bold-61" x="1668.798828"/>
    </g>
   </g>
   <g id="LineCollection_1">
    <path d="M 322.866894 316.266662 
L 329.169167 316.266662 
" clip-path="url(#pe48f44c6eb)" style="fill: none; stroke: #70b8ff; stroke-opacity: 0.5; stroke-width: 3"/>
   </g>
   <g id="LineCollection_2">
    <path d="M 322.866894 321.017462 
L 329.169167 321.017462 
" clip-path="url(#pe48f44c6eb)" style="fill: none; stroke: #92b9c1; stroke-opacity: 0.5; stroke-width: 3"/>
   </g>
   <g id="LineCollection_3">
    <path d="M 322.866894 325.867561 
L 329.169167 325.867561 
" clip-path="url(#pe48f44c6eb)" style="fill: none; stroke: #c0ba6a; stroke-opacity: 0.5; stroke-width: 3"/>
   </g>
   <g id="LineCollection_4">
    <path d="M 322.866894 330.842256 
L 329.169167 330.842256 
" clip-path="url(#pe48f44c6eb)" style="fill: none; stroke: #efbb14; stroke-opacity: 0.5; stroke-width: 3"/>
   </g>
   <g id="LineCollection_5">
    <path d="M 322.866894 335.913407 
L 329.169167 335.913407 
" clip-path="url(#pe48f44c6eb)" style="fill: none; stroke: #fbaf00; stroke-opacity: 0.5; stroke-width: 3"/>
   </g>
   <g id="LineCollection_6">
    <path d="M 322.866894 341.027639 
L 329.169167 341.027639 
" clip-path="url(#pe48f44c6eb)" style="fill: none; stroke: #fd9f00; stroke-opacity: 0.5; stroke-width: 3"/>
   </g>
   <g id="LineCollection_7">
    <path d="M 322.866894 346.127355 
L 329.169167 346.127355 
" clip-path="url(#pe48f44c6eb)" style="fill: none; stroke: #ff8f00; stroke-opacity: 0.5; stroke-width: 3"/>
   </g>
   <g id="LineCollection_8">
    <path d="M 322.866894 351.163523 
L 329.169167 351.163523 
" clip-path="url(#pe48f44c6eb)" style="fill: none; stroke: #fb7c00; stroke-opacity: 0.5; stroke-width: 3"/>
   </g>
   <g id="LineCollection_9">
    <path d="M 322.866894 356.101033 
L 329.169167 356.101033 
" clip-path="url(#pe48f44c6eb)" style="fill: none; stroke: #f76800; stroke-opacity: 0.5; stroke-width: 3"/>
   </g>
   <g id="LineCollection_10">
    <path d="M 322.866894 360.919031 
L 329.169167 360.919031 
" clip-path="url(#pe48f44c6eb)" style="fill: none; stroke: #f35400; stroke-opacity: 0.5; stroke-width: 3"/>
   </g>
   <g id="LineCollection_11">
    <path d="M 322.866894 365.608579 
L 329.169167 365.608579 
" clip-path="url(#pe48f44c6eb)" style="fill: none; stroke: #e34500; stroke-opacity: 0.5; stroke-width: 3"/>
   </g>
   <g id="LineCollection_12">
    <path d="M 322.866894 370.169413 
L 329.169167 370.169413 
" clip-path="url(#pe48f44c6eb)" style="fill: none; stroke: #d13600; stroke-opacity: 0.5; stroke-width: 3"/>
   </g>
   <g id="LineCollection_13">
    <path d="M 322.866894 374.6069 
L 329.169167 374.6069 
" clip-path="url(#pe48f44c6eb)" style="fill: none; stroke: #bf2800; stroke-opacity: 0.5; stroke-width: 3"/>
   </g>
   <g id="LineCollection_14">
    <path d="M 322.866894 378.929614 
L 329.169167 378.929614 
" clip-path="url(#pe48f44c6eb)" style="fill: none; stroke: #a32700; stroke-opacity: 0.5; stroke-width: 3"/>
   </g>
   <g id="LineCollection_15">
    <path d="M 322.866894 383.14759 
L 329.169167 383.14759 
" clip-path="url(#pe48f44c6eb)" style="fill: none; stroke: #852900; stroke-opacity: 0.5; stroke-width: 3"/>
   </g>
   <g id="LineCollection_16">
    <path d="M 322.866894 387.271156 
L 329.169167 387.271156 
" clip-path="url(#pe48f44c6eb)" style="fill: none; stroke: #682b00; stroke-opacity: 0.5; stroke-width: 3"/>
   </g>
   <g id="LineCollection_17">
    <path d="M 751.421439 243.756479 
L 757.723712 243.756479 
" clip-path="url(#pe48f44c6eb)" style="fill: none; stroke: #70b8ff; stroke-opacity: 0.5; stroke-width: 3"/>
   </g>
   <g id="LineCollection_18">
    <path d="M 751.421439 260.628956 
L 757.723712 260.628956 
" clip-path="url(#pe48f44c6eb)" style="fill: none; stroke: #92b9c1; stroke-opacity: 0.5; stroke-width: 3"/>
   </g>
   <g id="LineCollection_19">
    <path d="M 751.421439 277.255521 
L 757.723712 277.255521 
" clip-path="url(#pe48f44c6eb)" style="fill: none; stroke: #c0ba6a; stroke-opacity: 0.5; stroke-width: 3"/>
   </g>
   <g id="LineCollection_20">
    <path d="M 751.421439 293.733756 
L 757.723712 293.733756 
" clip-path="url(#pe48f44c6eb)" style="fill: none; stroke: #efbb14; stroke-opacity: 0.5; stroke-width: 3"/>
   </g>
   <g id="LineCollection_21">
    <path d="M 751.421439 310.069555 
L 757.723712 310.069555 
" clip-path="url(#pe48f44c6eb)" style="fill: none; stroke: #fbaf00; stroke-opacity: 0.5; stroke-width: 3"/>
   </g>
   <g id="LineCollection_22">
    <path d="M 751.421439 326.222873 
L 757.723712 326.222873 
" clip-path="url(#pe48f44c6eb)" style="fill: none; stroke: #fd9f00; stroke-opacity: 0.5; stroke-width: 3"/>
   </g>
   <g id="LineCollection_23">
    <path d="M 751.421439 342.184308 
L 757.723712 342.184308 
" clip-path="url(#pe48f44c6eb)" style="fill: none; stroke: #ff8f00; stroke-opacity: 0.5; stroke-width: 3"/>
   </g>
   <g id="LineCollection_24">
    <path d="M 751.421439 357.924438 
L 757.723712 357.924438 
" clip-path="url(#pe48f44c6eb)" style="fill: none; stroke: #fb7c00; stroke-opacity: 0.5; stroke-width: 3"/>
   </g>
   <g id="LineCollection_25">
    <path d="M 751.421439 373.376177 
L 757.723712 373.376177 
" clip-path="url(#pe48f44c6eb)" style="fill: none; stroke: #f76800; stroke-opacity: 0.5; stroke-width: 3"/>
   </g>
   <g id="LineCollection_26">
    <path d="M 751.421439 388.455737 
L 757.723712 388.455737 
" clip-path="url(#pe48f44c6eb)" style="fill: none; stroke: #f35400; stroke-opacity: 0.5; stroke-width: 3"/>
   </g>
   <g id="LineCollection_27">
    <path d="M 751.421439 403.061515 
L 757.723712 403.061515 
" clip-path="url(#pe48f44c6eb)" style="fill: none; stroke: #e34500; stroke-opacity: 0.5; stroke-width: 3"/>
   </g>
   <g id="LineCollection_28">
    <path d="M 751.421439 417.092238 
L 757.723712 417.092238 
" clip-path="url(#pe48f44c6eb)" style="fill: none; stroke: #d13600; stroke-opacity: 0.5; stroke-width: 3"/>
   </g>
   <g id="LineCollection_29">
    <path d="M 751.421439 430.466019 
L 757.723712 430.466019 
" clip-path="url(#pe48f44c6eb)" style="fill: none; stroke: #bf2800; stroke-opacity: 0.5; stroke-width: 3"/>
   </g>
   <g id="LineCollection_30">
    <path d="M 751.421439 443.120892 
L 757.723712 443.120892 
" clip-path="url(#pe48f44c6eb)" style="fill: none; stroke: #a32700; stroke-opacity: 0.5; stroke-width: 3"/>
   </g>
   <g id="LineCollection_31">
    <path d="M 751.421439 455.003253 
L 757.723712 455.003253 
" clip-path="url(#pe48f44c6eb)" style="fill: none; stroke: #852900; stroke-opacity: 0.5; stroke-width: 3"/>
   </g>
   <g id="LineCollection_32">
    <path d="M 751.421439 466.076075 
L 757.723712 466.076075 
" clip-path="url(#pe48f44c6eb)" style="fill: none; stroke: #682b00; stroke-opacity: 0.5; stroke-width: 3"/>
   </g>
   <g id="LineCollection_33">
    <path d="M 319.715758 321.017462 
L 332.320303 321.017462 
" clip-path="url(#pe48f44c6eb)" style="fill: none; stroke: #92b9c1; stroke-width: 8"/>
   </g>
   <g id="LineCollection_34">
    <path d="M 319.715758 346.127355 
L 332.320303 346.127355 
" clip-path="url(#pe48f44c6eb)" style="fill: none; stroke: #ff8f00; stroke-width: 8"/>
   </g>
   <g id="LineCollection_35">
    <path d="M 319.715758 391.310195 
L 332.320303 391.310195 
" clip-path="url(#pe48f44c6eb)" style="fill: none; stroke: #662b00; stroke-width: 8"/>
   </g>
   <g id="LineCollection_36">
    <path d="M 748.270303 260.628956 
L 760.874848 260.628956 
" clip-path="url(#pe48f44c6eb)" style="fill: none; stroke: #92b9c1; stroke-width: 8"/>
   </g>
   <g id="LineCollection_37">
    <path d="M 748.270303 342.184308 
L 760.874848 342.184308 
" clip-path="url(#pe48f44c6eb)" style="fill: none; stroke: #ff8f00; stroke-width: 8"/>
   </g>
   <g id="LineCollection_38">
    <path d="M 748.270303 476.303244 
L 760.874848 476.303244 
" clip-path="url(#pe48f44c6eb)" style="fill: none; stroke: #662b00; stroke-width: 8"/>
   </g>
  </g>
 </g>
 <defs>
  <clipPath id="pe48f44c6eb">
   <rect x="109.64" y="52.8" width="693.25" height="462.76"/>
  </clipPath>
 </defs>
</svg>
