<?xml version="1.0" encoding="utf-8" standalone="no"?>
<!DOCTYPE svg PUBLIC "-//W3C//DTD SVG 1.1//EN"
  "http://www.w3.org/Graphics/SVG/1.1/DTD/svg11.dtd">
<svg xmlns:xlink="http://www.w3.org/1999/xlink" width="900pt" height="600pt" viewBox="0 0 900 600" xmlns="http://www.w3.org/2000/svg" version="1.1">
 <metadata>
  <rdf:RDF xmlns:dc="http://purl.org/dc/elements/1.1/" xmlns:cc="http://creativecommons.org/ns#" xmlns:rdf="http://www.w3.org/1999/02/22-rdf-syntax-ns#">
   <cc:Work>
    <dc:type rdf:resource="http://purl.org/dc/dcmitype/StillImage"/>
    <dc:date>2024-10-31T18:28:38.002945</dc:date>
    <dc:format>image/svg+xml</dc:format>
    <dc:creator>
     <cc:Agent>
      <dc:title>Matplotlib v3.5.3, https://matplotlib.org/</dc:title>
     </cc:Agent>
    </dc:creator>
   </cc:Work>
  </rdf:RDF>
 </metadata>
 <defs>
  <style type="text/css">*{stroke-linejoin: round; stroke-linecap: butt}</style>
 </defs>
 <g id="figure_1">
  <g id="patch_1">
   <path d="M 0 600 
L 900 600 
L 900 0 
L 0 0 
z
" style="fill: #ffffff"/>
  </g>
  <g id="axes_1">
   <g id="patch_2">
    <path d="M 109.64 515.56 
L 858.920192 515.56 
L 858.920192 52.8 
L 109.64 52.8 
z
" style="fill: #ffffff"/>
   </g>
   <g id="PolyCollection_1">
    <defs>
     <path id="m1513687196" d="M 167.276938 -448.27435 
L 167.276938 -447.359389 
L 169.678477 -440.137151 
L 172.080016 -432.76674 
L 174.481555 -425.385729 
L 176.883094 -418.099004 
L 179.284633 -411.025067 
L 181.686172 -404.071943 
L 184.087711 -397.0581 
L 186.48925 -390.183072 
L 188.89079 -383.167305 
L 191.292329 -375.983568 
L 193.693868 -368.930464 
L 196.095407 -362.157704 
L 198.496946 -355.568751 
L 200.898485 -349.102386 
L 203.300024 -342.574828 
L 205.701563 -336.125532 
L 208.103102 -329.905436 
L 210.504641 -323.845446 
L 212.90618 -318.108874 
L 215.307719 -312.651382 
L 217.709259 -307.32552 
L 220.110798 -302.343056 
L 222.512337 -297.645604 
L 224.913876 -292.985301 
L 227.315415 -288.35318 
L 229.716954 -283.960122 
L 232.118493 -279.716048 
L 234.520032 -275.469375 
L 236.921571 -271.586653 
L 239.32311 -267.966571 
L 241.724649 -264.520554 
L 244.126188 -261.131904 
L 246.527727 -257.85433 
L 248.929267 -254.715677 
L 251.330806 -251.782322 
L 253.732345 -248.967487 
L 256.133884 -246.404497 
L 258.535423 -244.059582 
L 260.936962 -241.813249 
L 263.338501 -239.629498 
L 265.74004 -237.531793 
L 268.141579 -235.609086 
L 270.543118 -233.664345 
L 272.944657 -231.756556 
L 275.346196 -229.881601 
L 277.747735 -228.090007 
L 280.149275 -226.392632 
L 282.550814 -224.904887 
L 284.952353 -223.413319 
L 287.353892 -221.916513 
L 289.755431 -220.546431 
L 292.15697 -219.246298 
L 294.558509 -218.045484 
L 296.960048 -216.836924 
L 299.361587 -215.738191 
L 301.763126 -214.806275 
L 304.164665 -213.818377 
L 306.566204 -212.974912 
L 308.967743 -212.181102 
L 311.369283 -211.407641 
L 313.770822 -210.66946 
L 316.172361 -209.898105 
L 318.5739 -209.264539 
L 320.975439 -208.683574 
L 323.376978 -208.246362 
L 325.778517 -207.802415 
L 328.180056 -207.389531 
L 330.581595 -206.952825 
L 332.983134 -206.479793 
L 335.384673 -206.122454 
L 337.786212 -205.898789 
L 340.187751 -205.792416 
L 342.589291 -205.667058 
L 344.99083 -205.583113 
L 347.392369 -205.515377 
L 349.793908 -205.353544 
L 352.195447 -205.282805 
L 354.596986 -205.185667 
L 356.998525 -205.178186 
L 359.400064 -205.178509 
L 361.801603 -205.230225 
L 364.203142 -205.258668 
L 366.604681 -205.235705 
L 369.00622 -205.248719 
L 371.407759 -205.195057 
L 373.809299 -205.11085 
L 376.210838 -205.082895 
L 378.612377 -205.085367 
L 381.013916 -205.225804 
L 383.415455 -205.439114 
L 385.816994 -205.613661 
L 388.218533 -205.779512 
L 390.620072 -206.010822 
L 393.021611 -206.30313 
L 395.42315 -206.640553 
L 397.824689 -206.930921 
L 400.226228 -207.175993 
L 402.627768 -207.369152 
L 405.029307 -207.618788 
L 407.430846 -207.945383 
L 409.832385 -208.273009 
L 412.233924 -208.776052 
L 414.635463 -209.281528 
L 417.037002 -209.719566 
L 419.438541 -210.128842 
L 421.84008 -210.607389 
L 424.241619 -211.032854 
L 426.643158 -211.417618 
L 429.044697 -211.78382 
L 431.446236 -212.137728 
L 433.847776 -212.418944 
L 436.249315 -212.69688 
L 438.650854 -212.92707 
L 441.052393 -213.099306 
L 443.453932 -213.126406 
L 445.855471 -213.215436 
L 448.25701 -213.435034 
L 450.658549 -213.722359 
L 453.060088 -213.946904 
L 455.461627 -214.164902 
L 457.863166 -214.324563 
L 460.264705 -214.370496 
L 462.666244 -214.397192 
L 465.067784 -214.463869 
L 467.469323 -214.602979 
L 469.870862 -214.712912 
L 472.272401 -214.831995 
L 474.67394 -215.002683 
L 477.075479 -215.207677 
L 479.477018 -215.464678 
L 481.878557 -215.70346 
L 484.280096 -215.789459 
L 486.681635 -215.889726 
L 489.083174 -216.161146 
L 491.484713 -216.546744 
L 493.886252 -216.944557 
L 496.287792 -217.185549 
L 498.689331 -217.392197 
L 501.09087 -217.623406 
L 503.492409 -217.872126 
L 505.893948 -218.218914 
L 508.295487 -218.538838 
L 510.697026 -218.958169 
L 513.098565 -219.465678 
L 515.500104 -220.014438 
L 517.901643 -220.513929 
L 520.303182 -221.007918 
L 522.704721 -221.576355 
L 525.10626 -222.091565 
L 527.5078 -222.514771 
L 529.909339 -222.957208 
L 532.310878 -223.60078 
L 534.712417 -224.353839 
L 537.113956 -224.948425 
L 539.515495 -225.43766 
L 541.917034 -225.906686 
L 544.318573 -226.481437 
L 546.720112 -227.205276 
L 549.121651 -227.877682 
L 551.52319 -228.544812 
L 553.924729 -229.149395 
L 556.326268 -229.870995 
L 558.727808 -230.547693 
L 561.129347 -231.144357 
L 563.530886 -231.739541 
L 565.932425 -232.40984 
L 568.333964 -233.207786 
L 570.735503 -233.923535 
L 573.137042 -234.672411 
L 575.538581 -235.408524 
L 577.94012 -236.214905 
L 580.341659 -236.914623 
L 582.743198 -237.54168 
L 585.144737 -238.192194 
L 587.546277 -239.019745 
L 589.947816 -239.780926 
L 592.349355 -240.474716 
L 594.750894 -240.967348 
L 597.152433 -241.525528 
L 599.553972 -241.951586 
L 601.955511 -242.315793 
L 604.35705 -242.562829 
L 606.758589 -242.832188 
L 609.160128 -243.138874 
L 611.561667 -243.451589 
L 613.963206 -243.70532 
L 616.364745 -243.802669 
L 618.766285 -243.966026 
L 621.167824 -244.089396 
L 623.569363 -244.131452 
L 625.970902 -244.16178 
L 628.372441 -244.264724 
L 630.77398 -244.325429 
L 633.175519 -244.358476 
L 635.577058 -244.317181 
L 637.978597 -244.223638 
L 640.380136 -244.131555 
L 642.781675 -244.140816 
L 645.183214 -244.157492 
L 647.584753 -244.31753 
L 649.986293 -244.531785 
L 652.387832 -244.841378 
L 654.789371 -245.145084 
L 657.19091 -245.335569 
L 659.592449 -245.498557 
L 661.993988 -245.732704 
L 664.395527 -246.041718 
L 666.797066 -246.307758 
L 669.198605 -246.562185 
L 671.600144 -246.956491 
L 674.001683 -247.283436 
L 676.403222 -247.510048 
L 678.804761 -247.817872 
L 681.206301 -248.266767 
L 683.60784 -248.870728 
L 686.009379 -249.656042 
L 688.410918 -250.461401 
L 690.812457 -251.322483 
L 693.213996 -252.163374 
L 695.615535 -252.970584 
L 698.017074 -253.76834 
L 700.418613 -254.478024 
L 702.820152 -255.152653 
L 705.221691 -255.932367 
L 707.62323 -256.738673 
L 710.024769 -257.559277 
L 712.426309 -258.378924 
L 714.827848 -259.166639 
L 717.229387 -259.970565 
L 719.630926 -260.652447 
L 722.032465 -261.308225 
L 724.434004 -262.020496 
L 726.835543 -262.728829 
L 729.237082 -263.327187 
L 731.638621 -263.739558 
L 734.04016 -264.127633 
L 736.441699 -264.4335 
L 738.843238 -264.662323 
L 741.244777 -264.870822 
L 743.646317 -265.093724 
L 746.047856 -265.212674 
L 748.449395 -265.519462 
L 750.850934 -265.789381 
L 753.252473 -266.056452 
L 755.654012 -266.330837 
L 758.055551 -266.424571 
L 760.45709 -266.551088 
L 762.858629 -266.736894 
L 765.260168 -266.889262 
L 767.661707 -267.203576 
L 770.063246 -267.486889 
L 772.464786 -267.739696 
L 774.866325 -268.041287 
L 777.267864 -268.241022 
L 779.669403 -268.444212 
L 782.070942 -268.597482 
L 784.472481 -268.885688 
L 786.87402 -269.117703 
L 789.275559 -269.37324 
L 791.677098 -269.706118 
L 794.078637 -270.160896 
L 796.480176 -270.424113 
L 798.881715 -270.684327 
L 801.283254 -270.924883 
L 803.684794 -271.207837 
L 806.086333 -271.609881 
L 808.487872 -271.890065 
L 810.889411 -272.119891 
L 813.29095 -272.48455 
L 815.692489 -272.714621 
L 818.094028 -272.855402 
L 820.495567 -273.025253 
L 822.897106 -273.064369 
L 825.298645 -273.216006 
L 827.700184 -273.392351 
L 830.101723 -273.62051 
L 832.503262 -273.792348 
L 834.904802 -274.0397 
L 837.306341 -274.31812 
L 837.306341 -356.238499 
L 837.306341 -356.238499 
L 834.904802 -355.845849 
L 832.503262 -355.506065 
L 830.101723 -355.272737 
L 827.700184 -354.927924 
L 825.298645 -354.674896 
L 822.897106 -354.521919 
L 820.495567 -354.607706 
L 818.094028 -354.368669 
L 815.692489 -354.173577 
L 813.29095 -353.847149 
L 810.889411 -353.335798 
L 808.487872 -353.077092 
L 806.086333 -352.690774 
L 803.684794 -352.053049 
L 801.283254 -351.632073 
L 798.881715 -351.341226 
L 796.480176 -351.03809 
L 794.078637 -350.66694 
L 791.677098 -349.830847 
L 789.275559 -349.269837 
L 786.87402 -348.83597 
L 784.472481 -348.435965 
L 782.070942 -347.955855 
L 779.669403 -347.741985 
L 777.267864 -347.477 
L 774.866325 -347.243154 
L 772.464786 -346.776032 
L 770.063246 -346.365386 
L 767.661707 -345.948788 
L 765.260168 -345.514766 
L 762.858629 -345.381735 
L 760.45709 -345.222362 
L 758.055551 -345.21815 
L 755.654012 -345.298506 
L 753.252473 -345.014547 
L 750.850934 -344.724245 
L 748.449395 -344.36012 
L 746.047856 -343.999841 
L 743.646317 -344.120103 
L 741.244777 -344.078163 
L 738.843238 -344.026508 
L 736.441699 -343.985152 
L 734.04016 -343.779192 
L 731.638621 -343.417248 
L 729.237082 -342.996415 
L 726.835543 -342.211405 
L 724.434004 -341.136735 
L 722.032465 -340.183073 
L 719.630926 -339.320676 
L 717.229387 -338.404903 
L 714.827848 -337.266997 
L 712.426309 -336.12205 
L 710.024769 -334.889655 
L 707.62323 -333.722577 
L 705.221691 -332.583907 
L 702.820152 -331.498144 
L 700.418613 -330.666362 
L 698.017074 -329.729036 
L 695.615535 -328.593557 
L 693.213996 -327.39699 
L 690.812457 -326.202749 
L 688.410918 -324.983225 
L 686.009379 -323.873469 
L 683.60784 -322.829419 
L 681.206301 -322.101442 
L 678.804761 -321.586182 
L 676.403222 -321.381031 
L 674.001683 -321.287604 
L 671.600144 -321.018707 
L 669.198605 -320.622756 
L 666.797066 -320.463231 
L 664.395527 -320.284543 
L 661.993988 -320.025285 
L 659.592449 -319.828928 
L 657.19091 -319.783732 
L 654.789371 -319.651725 
L 652.387832 -319.290933 
L 649.986293 -318.93662 
L 647.584753 -318.728823 
L 645.183214 -318.64014 
L 642.781675 -318.776572 
L 640.380136 -318.890887 
L 637.978597 -319.22982 
L 635.577058 -319.564437 
L 633.175519 -319.809144 
L 630.77398 -319.879393 
L 628.372441 -319.967113 
L 625.970902 -320.0048 
L 623.569363 -320.172482 
L 621.167824 -320.293564 
L 618.766285 -320.264595 
L 616.364745 -320.161711 
L 613.963206 -320.227014 
L 611.561667 -319.985341 
L 609.160128 -319.659314 
L 606.758589 -319.385348 
L 604.35705 -319.188779 
L 601.955511 -318.98876 
L 599.553972 -318.616034 
L 597.152433 -318.138296 
L 594.750894 -317.43584 
L 592.349355 -316.787875 
L 589.947816 -315.643823 
L 587.546277 -314.321516 
L 585.144737 -312.816084 
L 582.743198 -311.697643 
L 580.341659 -310.572468 
L 577.94012 -309.283668 
L 575.538581 -307.747629 
L 573.137042 -306.385993 
L 570.735503 -304.98069 
L 568.333964 -303.60291 
L 565.932425 -302.013222 
L 563.530886 -300.653036 
L 561.129347 -299.405413 
L 558.727808 -298.098695 
L 556.326268 -296.648694 
L 553.924729 -295.167339 
L 551.52319 -293.900573 
L 549.121651 -292.477331 
L 546.720112 -291.044429 
L 544.318573 -289.578939 
L 541.917034 -288.464201 
L 539.515495 -287.569961 
L 537.113956 -286.666091 
L 534.712417 -285.536779 
L 532.310878 -284.155578 
L 529.909339 -282.926316 
L 527.5078 -282.033554 
L 525.10626 -281.131289 
L 522.704721 -280.115162 
L 520.303182 -279.041706 
L 517.901643 -278.137405 
L 515.500104 -277.224755 
L 513.098565 -276.234257 
L 510.697026 -275.38983 
L 508.295487 -274.649917 
L 505.893948 -274.09 
L 503.492409 -273.444597 
L 501.09087 -272.984128 
L 498.689331 -272.557912 
L 496.287792 -272.151679 
L 493.886252 -271.706079 
L 491.484713 -270.985398 
L 489.083174 -270.312917 
L 486.681635 -269.885706 
L 484.280096 -269.751554 
L 481.878557 -269.734024 
L 479.477018 -269.474281 
L 477.075479 -269.198105 
L 474.67394 -268.985777 
L 472.272401 -268.85064 
L 469.870862 -268.800276 
L 467.469323 -268.777598 
L 465.067784 -268.712068 
L 462.666244 -268.761838 
L 460.264705 -268.910695 
L 457.863166 -269.024288 
L 455.461627 -268.997246 
L 453.060088 -268.89384 
L 450.658549 -268.650917 
L 448.25701 -268.313161 
L 445.855471 -268.104391 
L 443.453932 -268.141311 
L 441.052393 -268.284741 
L 438.650854 -268.129748 
L 436.249315 -267.873291 
L 433.847776 -267.469187 
L 431.446236 -267.089697 
L 429.044697 -266.53551 
L 426.643158 -265.938432 
L 424.241619 -265.274519 
L 421.84008 -264.518687 
L 419.438541 -263.654857 
L 417.037002 -262.897632 
L 414.635463 -262.086342 
L 412.233924 -261.154456 
L 409.832385 -260.172954 
L 407.430846 -259.432425 
L 405.029307 -258.645058 
L 402.627768 -258.088136 
L 400.226228 -257.633524 
L 397.824689 -257.037792 
L 395.42315 -256.31976 
L 393.021611 -255.486858 
L 390.620072 -254.745924 
L 388.218533 -254.127516 
L 385.816994 -253.626727 
L 383.415455 -253.051825 
L 381.013916 -252.474307 
L 378.612377 -252.051697 
L 376.210838 -251.856992 
L 373.809299 -251.689997 
L 371.407759 -251.616434 
L 369.00622 -251.468287 
L 366.604681 -251.130123 
L 364.203142 -250.856275 
L 361.801603 -250.491464 
L 359.400064 -250.108565 
L 356.998525 -249.798101 
L 354.596986 -249.527771 
L 352.195447 -249.321596 
L 349.793908 -249.031932 
L 347.392369 -248.875067 
L 344.99083 -248.535955 
L 342.589291 -248.243218 
L 340.187751 -248.006744 
L 337.786212 -247.749274 
L 335.384673 -247.648193 
L 332.983134 -247.713385 
L 330.581595 -247.924491 
L 328.180056 -248.021896 
L 325.778517 -248.048374 
L 323.376978 -248.080897 
L 320.975439 -248.091551 
L 318.5739 -248.299052 
L 316.172361 -248.519231 
L 313.770822 -248.964198 
L 311.369283 -249.319327 
L 308.967743 -249.722238 
L 306.566204 -250.089705 
L 304.164665 -250.516935 
L 301.763126 -251.157713 
L 299.361587 -251.641532 
L 296.960048 -252.384243 
L 294.558509 -253.248123 
L 292.15697 -253.976578 
L 289.755431 -254.788758 
L 287.353892 -255.678856 
L 284.952353 -256.696122 
L 282.550814 -257.665178 
L 280.149275 -258.593206 
L 277.747735 -259.78053 
L 275.346196 -261.075322 
L 272.944657 -262.399414 
L 270.543118 -263.745018 
L 268.141579 -265.095059 
L 265.74004 -266.346502 
L 263.338501 -267.789549 
L 260.936962 -269.214271 
L 258.535423 -270.684762 
L 256.133884 -272.253308 
L 253.732345 -274.091001 
L 251.330806 -276.302319 
L 248.929267 -278.588777 
L 246.527727 -281.035726 
L 244.126188 -283.597185 
L 241.724649 -286.264523 
L 239.32311 -288.991648 
L 236.921571 -291.890637 
L 234.520032 -295.06146 
L 232.118493 -298.710375 
L 229.716954 -302.3088 
L 227.315415 -306.006284 
L 224.913876 -310.016389 
L 222.512337 -314.005372 
L 220.110798 -318.011941 
L 217.709259 -322.36497 
L 215.307719 -327.036118 
L 212.90618 -331.915948 
L 210.504641 -337.150555 
L 208.103102 -342.73321 
L 205.701563 -348.456031 
L 203.300024 -354.338295 
L 200.898485 -360.295075 
L 198.496946 -366.106115 
L 196.095407 -372.068921 
L 193.693868 -378.196785 
L 191.292329 -384.607093 
L 188.89079 -391.13651 
L 186.48925 -397.475141 
L 184.087711 -403.678899 
L 181.686172 -409.955172 
L 179.284633 -416.238543 
L 176.883094 -422.470512 
L 174.481555 -428.917438 
L 172.080016 -435.48137 
L 169.678477 -442.014819 
L 167.276938 -448.27435 
z
" style="stroke: #74b8f8; stroke-opacity: 0.2"/>
    </defs>
    <g clip-path="url(#p7aa2bc2e09)">
     <use xlink:href="#m1513687196" x="0" y="600" style="fill: #74b8f8; fill-opacity: 0.2; stroke: #74b8f8; stroke-opacity: 0.2"/>
    </g>
   </g>
   <g id="PolyCollection_2">
    <defs>
     <path id="m95c76fbae7" d="M 116.844617 -548.08076 
L 116.844617 -533.660127 
L 119.246156 -531.316714 
L 121.647695 -528.833926 
L 124.049234 -526.396287 
L 126.450774 -523.823453 
L 128.852313 -521.401158 
L 131.253852 -518.86445 
L 133.655391 -516.354679 
L 136.05693 -513.853069 
L 138.458469 -511.344158 
L 140.860008 -508.801281 
L 143.261547 -504.278215 
L 145.663086 -499.444709 
L 148.064625 -494.278853 
L 150.466164 -488.849846 
L 152.867703 -483.369239 
L 155.269242 -477.892686 
L 157.670782 -472.437462 
L 160.072321 -466.783309 
L 162.47386 -460.974751 
L 164.875399 -454.648 
L 164.875399 -454.648 
L 164.875399 -454.648 
L 162.47386 -461.83306 
L 160.072321 -468.607233 
L 157.670782 -475.333399 
L 155.269242 -481.730165 
L 152.867703 -488.097268 
L 150.466164 -494.468248 
L 148.064625 -500.888047 
L 145.663086 -507.050891 
L 143.261547 -512.92263 
L 140.860008 -518.591492 
L 138.458469 -521.661619 
L 136.05693 -524.786729 
L 133.655391 -527.852901 
L 131.253852 -531.006704 
L 128.852313 -534.023142 
L 126.450774 -536.88852 
L 124.049234 -539.861706 
L 121.647695 -542.740514 
L 119.246156 -545.458675 
L 116.844617 -548.08076 
z
" style="stroke: #000000; stroke-opacity: 0.2"/>
    </defs>
    <g clip-path="url(#p7aa2bc2e09)">
     <use xlink:href="#m95c76fbae7" x="0" y="600" style="fill-opacity: 0.2; stroke: #000000; stroke-opacity: 0.2"/>
    </g>
   </g>
   <g id="PolyCollection_3">
    <defs>
     <path id="me9bcb1da84" d="M 167.276938 -448.960773 
L 167.276938 -447.370357 
L 169.678477 -440.057976 
L 172.080016 -432.760764 
L 174.481555 -425.270173 
L 176.883094 -417.642712 
L 179.284633 -409.759689 
L 181.686172 -401.788343 
L 184.087711 -393.712187 
L 186.48925 -385.604633 
L 188.89079 -377.677453 
L 191.292329 -370.00673 
L 193.693868 -362.239917 
L 196.095407 -354.668515 
L 198.496946 -346.979492 
L 200.898485 -339.342916 
L 203.300024 -331.996101 
L 205.701563 -324.881265 
L 208.103102 -317.993136 
L 210.504641 -311.203977 
L 212.90618 -304.579224 
L 215.307719 -298.083006 
L 217.709259 -291.731058 
L 220.110798 -285.627762 
L 222.512337 -279.770727 
L 224.913876 -274.065377 
L 227.315415 -268.583573 
L 229.716954 -263.181509 
L 232.118493 -257.92818 
L 234.520032 -252.836389 
L 236.921571 -247.878792 
L 239.32311 -243.040803 
L 241.724649 -238.359421 
L 244.126188 -233.585478 
L 246.527727 -228.787377 
L 248.929267 -224.159914 
L 251.330806 -219.722066 
L 253.732345 -215.436036 
L 256.133884 -211.159822 
L 258.535423 -207.055136 
L 260.936962 -203.23653 
L 263.338501 -199.662132 
L 265.74004 -196.96415 
L 268.141579 -194.397138 
L 270.543118 -191.93256 
L 272.944657 -189.597591 
L 275.346196 -187.352608 
L 277.747735 -184.955692 
L 280.149275 -182.548096 
L 282.550814 -180.140177 
L 284.952353 -177.877122 
L 287.353892 -175.607605 
L 289.755431 -173.455942 
L 292.15697 -171.370136 
L 294.558509 -169.319621 
L 296.960048 -167.319373 
L 299.361587 -165.441857 
L 301.763126 -163.784479 
L 304.164665 -162.374136 
L 306.566204 -161.027755 
L 308.967743 -159.75834 
L 311.369283 -158.482909 
L 313.770822 -157.290047 
L 316.172361 -156.154138 
L 318.5739 -155.101094 
L 320.975439 -154.10856 
L 323.376978 -153.164352 
L 325.778517 -152.238817 
L 328.180056 -151.324533 
L 330.581595 -150.463464 
L 332.983134 -149.573891 
L 335.384673 -148.755788 
L 337.786212 -147.999801 
L 340.187751 -147.273825 
L 342.589291 -146.625913 
L 344.99083 -146.016341 
L 347.392369 -145.423644 
L 349.793908 -144.836715 
L 352.195447 -144.301195 
L 354.596986 -143.884545 
L 356.998525 -143.500646 
L 359.400064 -143.16215 
L 361.801603 -142.866622 
L 364.203142 -142.586011 
L 366.604681 -142.321079 
L 369.00622 -142.080185 
L 371.407759 -141.855813 
L 373.809299 -141.621335 
L 376.210838 -141.39236 
L 378.612377 -141.191817 
L 381.013916 -140.99586 
L 383.415455 -140.832488 
L 385.816994 -140.701429 
L 388.218533 -140.587662 
L 390.620072 -140.468101 
L 393.021611 -140.348664 
L 395.42315 -140.236069 
L 397.824689 -140.119085 
L 400.226228 -140.003669 
L 402.627768 -139.898187 
L 405.029307 -139.778942 
L 407.430846 -139.663255 
L 409.832385 -139.570501 
L 412.233924 -139.468362 
L 414.635463 -139.390104 
L 417.037002 -139.319558 
L 419.438541 -139.256349 
L 421.84008 -139.220718 
L 424.241619 -139.234565 
L 426.643158 -139.239334 
L 429.044697 -139.252443 
L 431.446236 -139.231907 
L 433.847776 -139.195824 
L 436.249315 -139.148732 
L 438.650854 -139.101488 
L 441.052393 -139.051069 
L 443.453932 -138.99376 
L 445.855471 -138.948671 
L 448.25701 -138.940556 
L 450.658549 -138.926974 
L 453.060088 -138.935735 
L 455.461627 -138.943694 
L 457.863166 -138.935356 
L 460.264705 -138.952374 
L 462.666244 -138.958703 
L 465.067784 -138.971136 
L 467.469323 -139.009912 
L 469.870862 -139.038868 
L 472.272401 -139.079832 
L 474.67394 -139.123277 
L 477.075479 -139.185622 
L 479.477018 -139.255165 
L 481.878557 -139.320341 
L 484.280096 -139.385328 
L 486.681635 -139.469851 
L 489.083174 -139.546423 
L 491.484713 -139.630941 
L 493.886252 -139.721705 
L 496.287792 -139.80132 
L 498.689331 -139.895054 
L 501.09087 -140.039364 
L 503.492409 -140.198957 
L 505.893948 -140.342475 
L 508.295487 -140.489973 
L 510.697026 -140.640872 
L 513.098565 -140.796842 
L 515.500104 -140.949757 
L 517.901643 -141.092924 
L 520.303182 -141.18812 
L 522.704721 -141.282315 
L 525.10626 -141.339241 
L 527.5078 -141.407875 
L 529.909339 -141.478454 
L 532.310878 -141.560033 
L 534.712417 -141.638898 
L 537.113956 -141.719421 
L 539.515495 -141.815013 
L 541.917034 -141.917493 
L 544.318573 -142.027185 
L 546.720112 -142.130714 
L 549.121651 -142.172678 
L 551.52319 -142.218348 
L 553.924729 -142.269464 
L 556.326268 -142.297102 
L 558.727808 -142.345936 
L 561.129347 -142.388151 
L 563.530886 -142.422462 
L 565.932425 -142.448267 
L 568.333964 -142.467981 
L 570.735503 -142.478171 
L 573.137042 -142.510344 
L 575.538581 -142.525352 
L 577.94012 -142.507678 
L 580.341659 -142.482514 
L 582.743198 -142.442633 
L 585.144737 -142.430078 
L 587.546277 -142.417597 
L 589.947816 -142.37069 
L 592.349355 -142.31882 
L 594.750894 -142.269901 
L 597.152433 -142.226835 
L 599.553972 -142.170474 
L 601.955511 -142.131974 
L 604.35705 -142.112577 
L 606.758589 -142.073363 
L 609.160128 -142.044755 
L 611.561667 -142.005223 
L 613.963206 -141.992125 
L 616.364745 -142.017692 
L 618.766285 -142.048686 
L 621.167824 -142.104366 
L 623.569363 -142.16417 
L 625.970902 -142.231134 
L 628.372441 -142.297766 
L 630.77398 -142.350238 
L 633.175519 -142.416871 
L 635.577058 -142.467945 
L 637.978597 -142.520809 
L 640.380136 -142.562782 
L 642.781675 -142.61768 
L 645.183214 -142.668983 
L 647.584753 -142.707574 
L 649.986293 -142.745516 
L 652.387832 -142.770345 
L 654.789371 -142.77207 
L 657.19091 -142.795933 
L 659.592449 -142.83785 
L 661.993988 -142.920288 
L 664.395527 -143.003868 
L 666.797066 -143.118158 
L 669.198605 -143.220958 
L 671.600144 -143.32927 
L 674.001683 -143.426061 
L 676.403222 -143.518106 
L 678.804761 -143.583288 
L 681.206301 -143.628411 
L 683.60784 -143.706442 
L 686.009379 -143.783164 
L 688.410918 -143.852883 
L 690.812457 -143.909117 
L 693.213996 -143.96561 
L 695.615535 -144.052453 
L 698.017074 -144.160233 
L 700.418613 -144.273938 
L 702.820152 -144.367376 
L 705.221691 -144.465229 
L 707.62323 -144.527647 
L 710.024769 -144.515241 
L 712.426309 -144.494272 
L 714.827848 -144.466172 
L 717.229387 -144.429068 
L 719.630926 -144.376966 
L 722.032465 -144.340451 
L 724.434004 -144.30323 
L 726.835543 -144.293016 
L 729.237082 -144.267842 
L 731.638621 -144.255213 
L 734.04016 -144.271232 
L 736.441699 -144.331115 
L 738.843238 -144.398424 
L 741.244777 -144.451262 
L 743.646317 -144.518176 
L 746.047856 -144.571322 
L 748.449395 -144.618625 
L 750.850934 -144.660301 
L 753.252473 -144.703343 
L 755.654012 -144.762809 
L 758.055551 -144.864772 
L 760.45709 -144.988715 
L 762.858629 -145.132192 
L 765.260168 -145.263775 
L 767.661707 -145.40559 
L 770.063246 -145.539803 
L 772.464786 -145.671147 
L 774.866325 -145.784472 
L 777.267864 -145.859637 
L 779.669403 -145.649464 
L 782.070942 -145.172911 
L 784.472481 -145.287711 
L 786.87402 -145.443326 
L 789.275559 -145.613461 
L 791.677098 -145.751667 
L 794.078637 -145.858552 
L 796.480176 -145.95718 
L 798.881715 -146.101243 
L 801.283254 -146.247674 
L 803.684794 -146.385997 
L 806.086333 -146.490957 
L 808.487872 -146.610735 
L 810.889411 -146.723414 
L 813.29095 -146.888906 
L 815.692489 -147.038622 
L 818.094028 -147.096739 
L 820.495567 -147.145131 
L 822.897106 -147.202431 
L 825.298645 -147.252988 
L 827.700184 -147.29423 
L 830.101723 -147.374021 
L 832.503262 -147.441235 
L 834.904802 -147.519556 
L 837.306341 -147.596053 
L 837.306341 -228.09061 
L 837.306341 -228.09061 
L 834.904802 -228.007662 
L 832.503262 -228.009117 
L 830.101723 -227.971028 
L 827.700184 -227.935938 
L 825.298645 -227.971774 
L 822.897106 -227.967152 
L 820.495567 -227.907688 
L 818.094028 -227.822658 
L 815.692489 -227.761345 
L 813.29095 -227.661032 
L 810.889411 -227.315722 
L 808.487872 -226.940569 
L 806.086333 -226.648885 
L 803.684794 -226.427162 
L 801.283254 -226.15804 
L 798.881715 -225.882384 
L 796.480176 -225.591905 
L 794.078637 -225.318086 
L 791.677098 -225.16834 
L 789.275559 -224.991958 
L 786.87402 -224.783815 
L 784.472481 -224.600824 
L 782.070942 -224.402599 
L 779.669403 -224.120868 
L 777.267864 -223.734976 
L 774.866325 -223.256776 
L 772.464786 -222.7946 
L 770.063246 -222.376452 
L 767.661707 -221.910061 
L 765.260168 -221.548255 
L 762.858629 -221.401575 
L 760.45709 -221.236796 
L 758.055551 -221.079257 
L 755.654012 -220.951673 
L 753.252473 -220.822122 
L 750.850934 -220.644096 
L 748.449395 -220.383337 
L 746.047856 -220.130809 
L 743.646317 -219.850873 
L 741.244777 -219.568087 
L 738.843238 -219.31418 
L 736.441699 -219.048756 
L 734.04016 -218.822696 
L 731.638621 -218.7525 
L 729.237082 -218.744925 
L 726.835543 -218.765824 
L 724.434004 -218.837004 
L 722.032465 -218.932783 
L 719.630926 -219.063339 
L 717.229387 -219.182521 
L 714.827848 -219.242678 
L 712.426309 -219.397421 
L 710.024769 -219.496449 
L 707.62323 -219.501408 
L 705.221691 -219.353607 
L 702.820152 -219.189328 
L 700.418613 -219.036748 
L 698.017074 -218.817449 
L 695.615535 -218.576704 
L 693.213996 -218.382783 
L 690.812457 -218.22668 
L 688.410918 -218.055253 
L 686.009379 -217.866415 
L 683.60784 -217.606451 
L 681.206301 -217.425103 
L 678.804761 -217.377828 
L 676.403222 -217.234689 
L 674.001683 -217.061046 
L 671.600144 -216.944524 
L 669.198605 -216.846389 
L 666.797066 -216.735756 
L 664.395527 -216.539663 
L 661.993988 -216.374944 
L 659.592449 -216.203091 
L 657.19091 -216.118924 
L 654.789371 -215.993191 
L 652.387832 -215.884856 
L 649.986293 -215.851722 
L 647.584753 -215.815293 
L 645.183214 -215.815066 
L 642.781675 -215.793998 
L 640.380136 -215.666117 
L 637.978597 -215.547173 
L 635.577058 -215.453258 
L 633.175519 -215.339674 
L 630.77398 -215.176354 
L 628.372441 -215.026426 
L 625.970902 -214.919815 
L 623.569363 -214.823123 
L 621.167824 -214.716581 
L 618.766285 -214.619053 
L 616.364745 -214.537205 
L 613.963206 -214.365422 
L 611.561667 -214.221693 
L 609.160128 -214.208689 
L 606.758589 -214.20933 
L 604.35705 -214.246488 
L 601.955511 -214.202005 
L 599.553972 -214.18514 
L 597.152433 -214.152644 
L 594.750894 -214.067408 
L 592.349355 -214.02787 
L 589.947816 -214.047363 
L 587.546277 -214.031028 
L 585.144737 -213.898352 
L 582.743198 -213.752909 
L 580.341659 -213.758455 
L 577.94012 -213.695994 
L 575.538581 -213.58005 
L 573.137042 -213.338743 
L 570.735503 -213.044327 
L 568.333964 -212.748965 
L 565.932425 -212.502589 
L 563.530886 -212.392005 
L 561.129347 -212.242464 
L 558.727808 -212.10503 
L 556.326268 -211.92898 
L 553.924729 -211.804643 
L 551.52319 -211.626449 
L 549.121651 -211.450126 
L 546.720112 -211.328638 
L 544.318573 -211.234986 
L 541.917034 -211.114161 
L 539.515495 -211.051109 
L 537.113956 -211.054923 
L 534.712417 -211.044428 
L 532.310878 -210.906799 
L 529.909339 -210.680126 
L 527.5078 -210.441335 
L 525.10626 -210.250756 
L 522.704721 -210.199726 
L 520.303182 -210.151001 
L 517.901643 -210.071948 
L 515.500104 -209.835696 
L 513.098565 -209.639762 
L 510.697026 -209.456056 
L 508.295487 -209.346068 
L 505.893948 -209.239092 
L 503.492409 -209.132841 
L 501.09087 -209.049775 
L 498.689331 -208.915447 
L 496.287792 -208.757674 
L 493.886252 -208.490362 
L 491.484713 -208.071495 
L 489.083174 -207.546457 
L 486.681635 -207.039136 
L 484.280096 -206.587156 
L 481.878557 -206.230158 
L 479.477018 -205.888741 
L 477.075479 -205.601688 
L 474.67394 -205.229519 
L 472.272401 -204.887609 
L 469.870862 -204.525932 
L 467.469323 -204.207421 
L 465.067784 -203.86194 
L 462.666244 -203.582915 
L 460.264705 -203.378608 
L 457.863166 -203.197223 
L 455.461627 -203.01798 
L 453.060088 -202.795687 
L 450.658549 -202.60744 
L 448.25701 -202.527229 
L 445.855471 -202.467936 
L 443.453932 -202.609982 
L 441.052393 -202.881359 
L 438.650854 -203.169988 
L 436.249315 -203.441203 
L 433.847776 -203.795212 
L 431.446236 -204.095004 
L 429.044697 -204.337767 
L 426.643158 -204.506917 
L 424.241619 -204.754193 
L 421.84008 -205.098381 
L 419.438541 -205.508721 
L 417.037002 -205.925209 
L 414.635463 -206.342611 
L 412.233924 -206.701531 
L 409.832385 -207.121463 
L 407.430846 -207.580203 
L 405.029307 -208.025501 
L 402.627768 -208.417782 
L 400.226228 -208.713972 
L 397.824689 -208.664503 
L 395.42315 -208.099972 
L 393.021611 -207.510546 
L 390.620072 -206.919208 
L 388.218533 -206.283176 
L 385.816994 -205.715616 
L 383.415455 -205.22969 
L 381.013916 -204.858511 
L 378.612377 -204.548883 
L 376.210838 -204.300105 
L 373.809299 -204.041383 
L 371.407759 -203.743203 
L 369.00622 -203.346571 
L 366.604681 -202.899067 
L 364.203142 -202.432428 
L 361.801603 -202.158805 
L 359.400064 -201.92473 
L 356.998525 -201.819319 
L 354.596986 -201.860525 
L 352.195447 -201.958397 
L 349.793908 -202.189615 
L 347.392369 -202.411872 
L 344.99083 -202.641967 
L 342.589291 -202.925664 
L 340.187751 -203.391867 
L 337.786212 -204.004476 
L 335.384673 -204.648208 
L 332.983134 -205.340615 
L 330.581595 -206.212769 
L 328.180056 -207.337133 
L 325.778517 -208.505476 
L 323.376978 -209.668153 
L 320.975439 -210.854377 
L 318.5739 -212.208133 
L 316.172361 -213.526667 
L 313.770822 -214.918982 
L 311.369283 -216.388875 
L 308.967743 -217.991135 
L 306.566204 -219.485176 
L 304.164665 -220.961938 
L 301.763126 -222.427302 
L 299.361587 -224.184452 
L 296.960048 -225.574036 
L 294.558509 -227.039679 
L 292.15697 -228.616486 
L 289.755431 -230.204783 
L 287.353892 -231.858829 
L 284.952353 -233.528175 
L 282.550814 -235.350678 
L 280.149275 -237.347616 
L 277.747735 -239.454209 
L 275.346196 -241.619059 
L 272.944657 -243.772322 
L 270.543118 -245.942515 
L 268.141579 -247.964073 
L 265.74004 -250.125743 
L 263.338501 -251.64028 
L 260.936962 -253.342623 
L 258.535423 -255.273099 
L 256.133884 -257.492955 
L 253.732345 -259.910397 
L 251.330806 -262.243359 
L 248.929267 -264.822314 
L 246.527727 -268.042861 
L 244.126188 -271.294208 
L 241.724649 -274.845549 
L 239.32311 -279.543648 
L 236.921571 -284.967828 
L 234.520032 -288.721496 
L 232.118493 -292.523542 
L 229.716954 -296.490576 
L 227.315415 -300.44852 
L 224.913876 -304.815757 
L 222.512337 -309.293499 
L 220.110798 -314.16685 
L 217.709259 -319.204302 
L 215.307719 -324.65451 
L 212.90618 -330.256975 
L 210.504641 -335.908243 
L 208.103102 -341.852609 
L 205.701563 -347.799506 
L 203.300024 -354.339474 
L 200.898485 -360.560841 
L 198.496946 -366.873269 
L 196.095407 -373.315591 
L 193.693868 -379.719268 
L 191.292329 -386.372589 
L 188.89079 -392.851193 
L 186.48925 -399.475006 
L 184.087711 -406.027569 
L 181.686172 -412.428484 
L 179.284633 -418.925933 
L 176.883094 -425.099971 
L 174.481555 -431.306344 
L 172.080016 -437.280237 
L 169.678477 -443.183874 
L 167.276938 -448.960773 
z
" style="stroke: #f47100; stroke-opacity: 0.2"/>
    </defs>
    <g clip-path="url(#p7aa2bc2e09)">
     <use xlink:href="#me9bcb1da84" x="0" y="600" style="fill: #f47100; fill-opacity: 0.2; stroke: #f47100; stroke-opacity: 0.2"/>
    </g>
   </g>
   <g id="PolyCollection_4">
    <defs>
     <path id="mc5e38a387c" d="M 116.844617 -549.830915 
L 116.844617 -525.047913 
L 119.246156 -523.121295 
L 121.647695 -521.023887 
L 124.049234 -518.952858 
L 126.450774 -516.754207 
L 128.852313 -514.645128 
L 131.253852 -512.355336 
L 133.655391 -510.169886 
L 136.05693 -507.95292 
L 138.458469 -505.754443 
L 140.860008 -503.419522 
L 143.261547 -499.433968 
L 145.663086 -495.118479 
L 148.064625 -490.541941 
L 150.466164 -485.819893 
L 152.867703 -480.93261 
L 155.269242 -476.019124 
L 157.670782 -470.855366 
L 160.072321 -465.600121 
L 162.47386 -460.229559 
L 164.875399 -454.648 
L 164.875399 -454.648 
L 164.875399 -454.648 
L 162.47386 -461.677564 
L 160.072321 -468.633556 
L 157.670782 -475.397829 
L 155.269242 -481.911786 
L 152.867703 -488.295571 
L 150.466164 -494.952168 
L 148.064625 -501.60487 
L 145.663086 -508.160233 
L 143.261547 -514.518627 
L 140.860008 -520.67333 
L 138.458469 -523.830069 
L 136.05693 -526.831722 
L 133.655391 -529.737184 
L 131.253852 -532.560267 
L 128.852313 -535.392915 
L 126.450774 -538.458678 
L 124.049234 -541.52032 
L 121.647695 -544.385769 
L 119.246156 -547.083933 
L 116.844617 -549.830915 
z
" style="stroke: #000000; stroke-opacity: 0.2"/>
    </defs>
    <g clip-path="url(#p7aa2bc2e09)">
     <use xlink:href="#mc5e38a387c" x="0" y="600" style="fill-opacity: 0.2; stroke: #000000; stroke-opacity: 0.2"/>
    </g>
   </g>
   <g id="PolyCollection_5">
    <defs>
     <path id="m60b5c8b2bb" d="M 167.276938 -449.495763 
L 167.276938 -447.137323 
L 169.678477 -439.685791 
L 172.080016 -432.155007 
L 174.481555 -424.558622 
L 176.883094 -416.785563 
L 179.284633 -409.148616 
L 181.686172 -401.202331 
L 184.087711 -393.094744 
L 186.48925 -384.899529 
L 188.89079 -376.608535 
L 191.292329 -368.515987 
L 193.693868 -360.465277 
L 196.095407 -352.502126 
L 198.496946 -344.604183 
L 200.898485 -336.627632 
L 203.300024 -328.860763 
L 205.701563 -321.296871 
L 208.103102 -313.823481 
L 210.504641 -306.515271 
L 212.90618 -299.365658 
L 215.307719 -292.43572 
L 217.709259 -285.558423 
L 220.110798 -278.781784 
L 222.512337 -272.141139 
L 224.913876 -265.759691 
L 227.315415 -259.639948 
L 229.716954 -253.631654 
L 232.118493 -247.824363 
L 234.520032 -242.246012 
L 236.921571 -236.833841 
L 239.32311 -231.452394 
L 241.724649 -226.301706 
L 244.126188 -221.272041 
L 246.527727 -216.396092 
L 248.929267 -211.322558 
L 251.330806 -206.417862 
L 253.732345 -201.750451 
L 256.133884 -197.343624 
L 258.535423 -193.091016 
L 260.936962 -189.112304 
L 263.338501 -185.322832 
L 265.74004 -181.68181 
L 268.141579 -178.156042 
L 270.543118 -174.763362 
L 272.944657 -171.571179 
L 275.346196 -168.574039 
L 277.747735 -165.775581 
L 280.149275 -163.123357 
L 282.550814 -160.622894 
L 284.952353 -158.259959 
L 287.353892 -156.023027 
L 289.755431 -153.923681 
L 292.15697 -151.933214 
L 294.558509 -150.039351 
L 296.960048 -148.226811 
L 299.361587 -146.541943 
L 301.763126 -144.897887 
L 304.164665 -143.29602 
L 306.566204 -141.971439 
L 308.967743 -140.865426 
L 311.369283 -139.834127 
L 313.770822 -138.987676 
L 316.172361 -137.908049 
L 318.5739 -136.825832 
L 320.975439 -135.849486 
L 323.376978 -135.109178 
L 325.778517 -134.596657 
L 328.180056 -134.139156 
L 330.581595 -133.688398 
L 332.983134 -133.252383 
L 335.384673 -132.851075 
L 337.786212 -132.47095 
L 340.187751 -132.092218 
L 342.589291 -131.753482 
L 344.99083 -131.422478 
L 347.392369 -131.069592 
L 349.793908 -130.690559 
L 352.195447 -130.253914 
L 354.596986 -129.3766 
L 356.998525 -128.555871 
L 359.400064 -127.860956 
L 361.801603 -127.21937 
L 364.203142 -126.625065 
L 366.604681 -126.072815 
L 369.00622 -125.54418 
L 371.407759 -125.0734 
L 373.809299 -124.62589 
L 376.210838 -124.204738 
L 378.612377 -123.824979 
L 381.013916 -123.66011 
L 383.415455 -123.663561 
L 385.816994 -123.663257 
L 388.218533 -123.654239 
L 390.620072 -123.688846 
L 393.021611 -123.774388 
L 395.42315 -123.871733 
L 397.824689 -123.983392 
L 400.226228 -124.086301 
L 402.627768 -124.183819 
L 405.029307 -124.230286 
L 407.430846 -124.346976 
L 409.832385 -124.171153 
L 412.233924 -123.812048 
L 414.635463 -123.483051 
L 417.037002 -123.166348 
L 419.438541 -122.874465 
L 421.84008 -122.651501 
L 424.241619 -122.43216 
L 426.643158 -122.219669 
L 429.044697 -122.01789 
L 431.446236 -121.824062 
L 433.847776 -121.627944 
L 436.249315 -121.407525 
L 438.650854 -121.173776 
L 441.052393 -120.925462 
L 443.453932 -120.675946 
L 445.855471 -120.436687 
L 448.25701 -120.146033 
L 450.658549 -119.882681 
L 453.060088 -119.655533 
L 455.461627 -119.462172 
L 457.863166 -119.275935 
L 460.264705 -119.090224 
L 462.666244 -118.879726 
L 465.067784 -118.645925 
L 467.469323 -118.410293 
L 469.870862 -118.135203 
L 472.272401 -117.884001 
L 474.67394 -117.643264 
L 477.075479 -117.367659 
L 479.477018 -117.090725 
L 481.878557 -116.85586 
L 484.280096 -116.674304 
L 486.681635 -116.492175 
L 489.083174 -116.346081 
L 491.484713 -116.250604 
L 493.886252 -116.165159 
L 496.287792 -116.111684 
L 498.689331 -116.075862 
L 501.09087 -116.028051 
L 503.492409 -115.975085 
L 505.893948 -115.929682 
L 508.295487 -115.915897 
L 510.697026 -115.927351 
L 513.098565 -115.981335 
L 515.500104 -116.059088 
L 517.901643 -116.14018 
L 520.303182 -116.238577 
L 522.704721 -116.350539 
L 525.10626 -116.529807 
L 527.5078 -116.705164 
L 529.909339 -116.858331 
L 532.310878 -116.992096 
L 534.712417 -117.104746 
L 537.113956 -117.170862 
L 539.515495 -117.229694 
L 541.917034 -117.341595 
L 544.318573 -117.495591 
L 546.720112 -117.631263 
L 549.121651 -117.794539 
L 551.52319 -117.972365 
L 553.924729 -118.148882 
L 556.326268 -118.275242 
L 558.727808 -118.452258 
L 561.129347 -118.605619 
L 563.530886 -118.798495 
L 565.932425 -119.006336 
L 568.333964 -119.215355 
L 570.735503 -119.42362 
L 573.137042 -119.637175 
L 575.538581 -119.858075 
L 577.94012 -120.080743 
L 580.341659 -120.309004 
L 582.743198 -120.553948 
L 585.144737 -120.855601 
L 587.546277 -121.116484 
L 589.947816 -121.339712 
L 592.349355 -121.512171 
L 594.750894 -121.720257 
L 597.152433 -121.817801 
L 599.553972 -121.874397 
L 601.955511 -121.917684 
L 604.35705 -121.957036 
L 606.758589 -121.994117 
L 609.160128 -122.018974 
L 611.561667 -122.040584 
L 613.963206 -122.048086 
L 616.364745 -122.055831 
L 618.766285 -122.074833 
L 621.167824 -122.08914 
L 623.569363 -122.119099 
L 625.970902 -122.113111 
L 628.372441 -122.101939 
L 630.77398 -122.063111 
L 633.175519 -122.008997 
L 635.577058 -122.006272 
L 637.978597 -122.005856 
L 640.380136 -122.004727 
L 642.781675 -121.99916 
L 645.183214 -121.993396 
L 647.584753 -121.974303 
L 649.986293 -121.858808 
L 652.387832 -121.687623 
L 654.789371 -121.487288 
L 657.19091 -121.218775 
L 659.592449 -120.990899 
L 661.993988 -120.774025 
L 664.395527 -120.573648 
L 666.797066 -120.395768 
L 669.198605 -120.257988 
L 671.600144 -120.185674 
L 674.001683 -120.139024 
L 676.403222 -120.10597 
L 678.804761 -120.090503 
L 681.206301 -120.136603 
L 683.60784 -120.21989 
L 686.009379 -120.276306 
L 688.410918 -120.334296 
L 690.812457 -120.410999 
L 693.213996 -120.452504 
L 695.615535 -120.534267 
L 698.017074 -120.668095 
L 700.418613 -120.799335 
L 702.820152 -120.958837 
L 705.221691 -121.146073 
L 707.62323 -121.329288 
L 710.024769 -121.494031 
L 712.426309 -121.647168 
L 714.827848 -121.772012 
L 717.229387 -121.886907 
L 719.630926 -121.978292 
L 722.032465 -122.036136 
L 724.434004 -122.069351 
L 726.835543 -121.98448 
L 729.237082 -121.885354 
L 731.638621 -121.786133 
L 734.04016 -121.705718 
L 736.441699 -121.621733 
L 738.843238 -121.551576 
L 741.244777 -121.446467 
L 743.646317 -121.40481 
L 746.047856 -121.341313 
L 748.449395 -121.300136 
L 750.850934 -121.265067 
L 753.252473 -121.239667 
L 755.654012 -121.168394 
L 758.055551 -121.126949 
L 760.45709 -121.114227 
L 762.858629 -121.107413 
L 765.260168 -121.094517 
L 767.661707 -121.093281 
L 770.063246 -121.079271 
L 772.464786 -121.056685 
L 774.866325 -121.054343 
L 777.267864 -121.06081 
L 779.669403 -121.072956 
L 782.070942 -120.952042 
L 784.472481 -120.845539 
L 786.87402 -120.685216 
L 789.275559 -120.449643 
L 791.677098 -120.174021 
L 794.078637 -119.885343 
L 796.480176 -119.625584 
L 798.881715 -119.364249 
L 801.283254 -119.219187 
L 803.684794 -119.179263 
L 806.086333 -119.156111 
L 808.487872 -119.075869 
L 810.889411 -119.033168 
L 813.29095 -118.967225 
L 815.692489 -118.910475 
L 818.094028 -118.962453 
L 820.495567 -119.073119 
L 822.897106 -119.200197 
L 825.298645 -119.197649 
L 827.700184 -119.211295 
L 830.101723 -119.213335 
L 832.503262 -119.191282 
L 834.904802 -119.232253 
L 837.306341 -119.35295 
L 837.306341 -164.633652 
L 837.306341 -164.633652 
L 834.904802 -164.765036 
L 832.503262 -164.830313 
L 830.101723 -164.883712 
L 827.700184 -164.908792 
L 825.298645 -164.906811 
L 822.897106 -164.877768 
L 820.495567 -164.870305 
L 818.094028 -164.855858 
L 815.692489 -164.869651 
L 813.29095 -164.959274 
L 810.889411 -165.05182 
L 808.487872 -165.157708 
L 806.086333 -165.279881 
L 803.684794 -165.329679 
L 801.283254 -165.382705 
L 798.881715 -165.392606 
L 796.480176 -165.406999 
L 794.078637 -165.387752 
L 791.677098 -165.3476 
L 789.275559 -165.278587 
L 786.87402 -165.143423 
L 784.472481 -165.020046 
L 782.070942 -164.910693 
L 779.669403 -164.823757 
L 777.267864 -164.750306 
L 774.866325 -164.706113 
L 772.464786 -164.633269 
L 770.063246 -164.579719 
L 767.661707 -164.483709 
L 765.260168 -164.361372 
L 762.858629 -164.255706 
L 760.45709 -164.165478 
L 758.055551 -164.026113 
L 755.654012 -163.922028 
L 753.252473 -163.843826 
L 750.850934 -163.74945 
L 748.449395 -163.652589 
L 746.047856 -163.58496 
L 743.646317 -163.540429 
L 741.244777 -163.501966 
L 738.843238 -163.519275 
L 736.441699 -163.477092 
L 734.04016 -163.424807 
L 731.638621 -163.371299 
L 729.237082 -163.334264 
L 726.835543 -163.304038 
L 724.434004 -163.101738 
L 722.032465 -162.884298 
L 719.630926 -162.681492 
L 717.229387 -162.423757 
L 714.827848 -162.23129 
L 712.426309 -162.051196 
L 710.024769 -161.902651 
L 707.62323 -161.730111 
L 705.221691 -161.559662 
L 702.820152 -161.394639 
L 700.418613 -161.244964 
L 698.017074 -161.092537 
L 695.615535 -160.916254 
L 693.213996 -160.748772 
L 690.812457 -160.591051 
L 688.410918 -160.368743 
L 686.009379 -160.122078 
L 683.60784 -159.859584 
L 681.206301 -159.591607 
L 678.804761 -159.288339 
L 676.403222 -158.947764 
L 674.001683 -158.642133 
L 671.600144 -158.615086 
L 669.198605 -158.999978 
L 666.797066 -159.452499 
L 664.395527 -159.897686 
L 661.993988 -160.104891 
L 659.592449 -160.312499 
L 657.19091 -160.635982 
L 654.789371 -160.954331 
L 652.387832 -161.423451 
L 649.986293 -161.906177 
L 647.584753 -162.179995 
L 645.183214 -162.462198 
L 642.781675 -162.717027 
L 640.380136 -162.915115 
L 637.978597 -162.627562 
L 635.577058 -162.367288 
L 633.175519 -162.103077 
L 630.77398 -161.907107 
L 628.372441 -161.602589 
L 625.970902 -161.28135 
L 623.569363 -160.966896 
L 621.167824 -160.676964 
L 618.766285 -160.475017 
L 616.364745 -160.295545 
L 613.963206 -160.084368 
L 611.561667 -159.750376 
L 609.160128 -159.359285 
L 606.758589 -158.951929 
L 604.35705 -158.483809 
L 601.955511 -158.099812 
L 599.553972 -157.666182 
L 597.152433 -157.172895 
L 594.750894 -156.767598 
L 592.349355 -156.352203 
L 589.947816 -156.060232 
L 587.546277 -155.750042 
L 585.144737 -155.419738 
L 582.743198 -155.082303 
L 580.341659 -154.81007 
L 577.94012 -154.534462 
L 575.538581 -154.304536 
L 573.137042 -154.107065 
L 570.735503 -153.853668 
L 568.333964 -153.573682 
L 565.932425 -153.209933 
L 563.530886 -152.783712 
L 561.129347 -152.070058 
L 558.727808 -151.69734 
L 556.326268 -151.341962 
L 553.924729 -150.965515 
L 551.52319 -150.65493 
L 549.121651 -150.360921 
L 546.720112 -150.048238 
L 544.318573 -149.7477 
L 541.917034 -149.458461 
L 539.515495 -149.218388 
L 537.113956 -148.97393 
L 534.712417 -148.646021 
L 532.310878 -148.320427 
L 529.909339 -147.930945 
L 527.5078 -147.479264 
L 525.10626 -147.012759 
L 522.704721 -146.560644 
L 520.303182 -146.142825 
L 517.901643 -145.727138 
L 515.500104 -145.457392 
L 513.098565 -145.423263 
L 510.697026 -145.398344 
L 508.295487 -145.405121 
L 505.893948 -145.397539 
L 503.492409 -145.370191 
L 501.09087 -145.393788 
L 498.689331 -145.471556 
L 496.287792 -145.8171 
L 493.886252 -146.234064 
L 491.484713 -146.721478 
L 489.083174 -147.237969 
L 486.681635 -147.769296 
L 484.280096 -148.068562 
L 481.878557 -148.31736 
L 479.477018 -148.585775 
L 477.075479 -148.891152 
L 474.67394 -149.181731 
L 472.272401 -149.46127 
L 469.870862 -149.776747 
L 467.469323 -150.086453 
L 465.067784 -150.35647 
L 462.666244 -150.668244 
L 460.264705 -151.034581 
L 457.863166 -151.407803 
L 455.461627 -151.759219 
L 453.060088 -152.25005 
L 450.658549 -152.795477 
L 448.25701 -153.355187 
L 445.855471 -153.946198 
L 443.453932 -154.399826 
L 441.052393 -154.829688 
L 438.650854 -155.214257 
L 436.249315 -155.624634 
L 433.847776 -155.965732 
L 431.446236 -156.333161 
L 429.044697 -156.701371 
L 426.643158 -157.058336 
L 424.241619 -157.396091 
L 421.84008 -157.776535 
L 419.438541 -158.121968 
L 417.037002 -158.470566 
L 414.635463 -158.737166 
L 412.233924 -158.938262 
L 409.832385 -159.136487 
L 407.430846 -159.303456 
L 405.029307 -159.353631 
L 402.627768 -159.41253 
L 400.226228 -159.482772 
L 397.824689 -159.559717 
L 395.42315 -159.739361 
L 393.021611 -159.956786 
L 390.620072 -160.221914 
L 388.218533 -160.465827 
L 385.816994 -160.723271 
L 383.415455 -161.048456 
L 381.013916 -161.182584 
L 378.612377 -161.25336 
L 376.210838 -161.334834 
L 373.809299 -161.325851 
L 371.407759 -161.352376 
L 369.00622 -161.308949 
L 366.604681 -161.37883 
L 364.203142 -161.641849 
L 361.801603 -161.889958 
L 359.400064 -162.257108 
L 356.998525 -162.705608 
L 354.596986 -163.225682 
L 352.195447 -163.896083 
L 349.793908 -164.616092 
L 347.392369 -165.45264 
L 344.99083 -166.492337 
L 342.589291 -167.421547 
L 340.187751 -168.271359 
L 337.786212 -169.413255 
L 335.384673 -170.684783 
L 332.983134 -172.085712 
L 330.581595 -173.653089 
L 328.180056 -175.441518 
L 325.778517 -177.43316 
L 323.376978 -179.451338 
L 320.975439 -180.696527 
L 318.5739 -181.695271 
L 316.172361 -183.359128 
L 313.770822 -185.337212 
L 311.369283 -187.330264 
L 308.967743 -189.133046 
L 306.566204 -190.941655 
L 304.164665 -192.655908 
L 301.763126 -194.457462 
L 299.361587 -196.368761 
L 296.960048 -198.290902 
L 294.558509 -200.289216 
L 292.15697 -202.270314 
L 289.755431 -204.334918 
L 287.353892 -206.368545 
L 284.952353 -208.48017 
L 282.550814 -210.792696 
L 280.149275 -213.190193 
L 277.747735 -215.693333 
L 275.346196 -218.210998 
L 272.944657 -220.933533 
L 270.543118 -223.887851 
L 268.141579 -226.93135 
L 265.74004 -230.11135 
L 263.338501 -233.000301 
L 260.936962 -236.649484 
L 258.535423 -240.42424 
L 256.133884 -244.50901 
L 253.732345 -248.754878 
L 251.330806 -253.050069 
L 248.929267 -257.247892 
L 246.527727 -261.572248 
L 244.126188 -266.176337 
L 241.724649 -270.345372 
L 239.32311 -274.458299 
L 236.921571 -278.855503 
L 234.520032 -282.710973 
L 232.118493 -286.923827 
L 229.716954 -291.495365 
L 227.315415 -295.985715 
L 224.913876 -300.693716 
L 222.512337 -305.441867 
L 220.110798 -311.212709 
L 217.709259 -317.236534 
L 215.307719 -323.339256 
L 212.90618 -329.543749 
L 210.504641 -336.17422 
L 208.103102 -343.359622 
L 205.701563 -350.679475 
L 203.300024 -358.397065 
L 200.898485 -366.161977 
L 198.496946 -374.097473 
L 196.095407 -381.977102 
L 193.693868 -388.556407 
L 191.292329 -394.563052 
L 188.89079 -400.210054 
L 186.48925 -405.919935 
L 184.087711 -411.927903 
L 181.686172 -417.879545 
L 179.284633 -423.805864 
L 176.883094 -429.427052 
L 174.481555 -434.833445 
L 172.080016 -439.790413 
L 169.678477 -444.779882 
L 167.276938 -449.495763 
z
" style="stroke: #d01e04; stroke-opacity: 0.2"/>
    </defs>
    <g clip-path="url(#p7aa2bc2e09)">
     <use xlink:href="#m60b5c8b2bb" x="0" y="600" style="fill: #d01e04; fill-opacity: 0.2; stroke: #d01e04; stroke-opacity: 0.2"/>
    </g>
   </g>
   <g id="PolyCollection_6">
    <defs>
     <path id="md2d6c2f3a2" d="M 116.844617 -552.448951 
L 116.844617 -523.837436 
L 119.246156 -521.644994 
L 121.647695 -519.291621 
L 124.049234 -517.085129 
L 126.450774 -514.723843 
L 128.852313 -512.533439 
L 131.253852 -510.247631 
L 133.655391 -508.070377 
L 136.05693 -505.862074 
L 138.458469 -503.672156 
L 140.860008 -501.404151 
L 143.261547 -497.473837 
L 145.663086 -493.33145 
L 148.064625 -489.070141 
L 150.466164 -484.49288 
L 152.867703 -479.942208 
L 155.269242 -475.249309 
L 157.670782 -470.273054 
L 160.072321 -465.291807 
L 162.47386 -460.071948 
L 164.875399 -454.648 
L 164.875399 -454.648 
L 164.875399 -454.648 
L 162.47386 -462.155595 
L 160.072321 -469.452436 
L 157.670782 -476.451637 
L 155.269242 -483.418136 
L 152.867703 -490.170223 
L 150.466164 -496.768682 
L 148.064625 -503.422047 
L 145.663086 -509.616937 
L 143.261547 -515.645506 
L 140.860008 -521.487847 
L 138.458469 -524.631674 
L 136.05693 -527.724499 
L 133.655391 -530.524087 
L 131.253852 -533.519483 
L 128.852313 -536.688007 
L 126.450774 -539.91724 
L 124.049234 -543.067489 
L 121.647695 -546.192204 
L 119.246156 -549.375991 
L 116.844617 -552.448951 
z
" style="stroke: #000000; stroke-opacity: 0.2"/>
    </defs>
    <g clip-path="url(#p7aa2bc2e09)">
     <use xlink:href="#md2d6c2f3a2" x="0" y="600" style="fill-opacity: 0.2; stroke: #000000; stroke-opacity: 0.2"/>
    </g>
   </g>
   <g id="matplotlib.axis_1">
    <g id="xtick_1">
     <g id="line2d_1">
      <defs>
       <path id="md71cb8d309" d="M 0 0 
L 0 3.5 
" style="stroke: #000000; stroke-width: 0.8"/>
      </defs>
      <g>
       <use xlink:href="#md71cb8d309" x="164.875399" y="515.56" style="stroke: #000000; stroke-width: 0.8"/>
      </g>
     </g>
     <g id="text_1">
      <!-- 2020 -->
      <g transform="translate(131.790399 542.315938)scale(0.26 -0.26)">
       <defs>
        <path id="DejaVuSans-32" d="M 1228 531 
L 3431 531 
L 3431 0 
L 469 0 
L 469 531 
Q 828 903 1448 1529 
Q 2069 2156 2228 2338 
Q 2531 2678 2651 2914 
Q 2772 3150 2772 3378 
Q 2772 3750 2511 3984 
Q 2250 4219 1831 4219 
Q 1534 4219 1204 4116 
Q 875 4013 500 3803 
L 500 4441 
Q 881 4594 1212 4672 
Q 1544 4750 1819 4750 
Q 2544 4750 2975 4387 
Q 3406 4025 3406 3419 
Q 3406 3131 3298 2873 
Q 3191 2616 2906 2266 
Q 2828 2175 2409 1742 
Q 1991 1309 1228 531 
z
" transform="scale(0.015625)"/>
        <path id="DejaVuSans-30" d="M 2034 4250 
Q 1547 4250 1301 3770 
Q 1056 3291 1056 2328 
Q 1056 1369 1301 889 
Q 1547 409 2034 409 
Q 2525 409 2770 889 
Q 3016 1369 3016 2328 
Q 3016 3291 2770 3770 
Q 2525 4250 2034 4250 
z
M 2034 4750 
Q 2819 4750 3233 4129 
Q 3647 3509 3647 2328 
Q 3647 1150 3233 529 
Q 2819 -91 2034 -91 
Q 1250 -91 836 529 
Q 422 1150 422 2328 
Q 422 3509 836 4129 
Q 1250 4750 2034 4750 
z
" transform="scale(0.015625)"/>
       </defs>
       <use xlink:href="#DejaVuSans-32"/>
       <use xlink:href="#DejaVuSans-30" x="63.623047"/>
       <use xlink:href="#DejaVuSans-32" x="127.246094"/>
       <use xlink:href="#DejaVuSans-30" x="190.869141"/>
      </g>
     </g>
    </g>
    <g id="xtick_2">
     <g id="line2d_2">
      <g>
       <use xlink:href="#md71cb8d309" x="356.998525" y="515.56" style="stroke: #000000; stroke-width: 0.8"/>
      </g>
     </g>
     <g id="text_2">
      <!-- 2100 -->
      <g transform="translate(323.913525 542.315938)scale(0.26 -0.26)">
       <defs>
        <path id="DejaVuSans-31" d="M 794 531 
L 1825 531 
L 1825 4091 
L 703 3866 
L 703 4441 
L 1819 4666 
L 2450 4666 
L 2450 531 
L 3481 531 
L 3481 0 
L 794 0 
L 794 531 
z
" transform="scale(0.015625)"/>
       </defs>
       <use xlink:href="#DejaVuSans-32"/>
       <use xlink:href="#DejaVuSans-31" x="63.623047"/>
       <use xlink:href="#DejaVuSans-30" x="127.246094"/>
       <use xlink:href="#DejaVuSans-30" x="190.869141"/>
      </g>
     </g>
    </g>
    <g id="xtick_3">
     <g id="line2d_3">
      <g>
       <use xlink:href="#md71cb8d309" x="597.152433" y="515.56" style="stroke: #000000; stroke-width: 0.8"/>
      </g>
     </g>
     <g id="text_3">
      <!-- 2200 -->
      <g transform="translate(564.067433 542.315938)scale(0.26 -0.26)">
       <use xlink:href="#DejaVuSans-32"/>
       <use xlink:href="#DejaVuSans-32" x="63.623047"/>
       <use xlink:href="#DejaVuSans-30" x="127.246094"/>
       <use xlink:href="#DejaVuSans-30" x="190.869141"/>
      </g>
     </g>
    </g>
    <g id="xtick_4">
     <g id="line2d_4">
      <g>
       <use xlink:href="#md71cb8d309" x="837.306341" y="515.56" style="stroke: #000000; stroke-width: 0.8"/>
      </g>
     </g>
     <g id="text_4">
      <!-- 2300 -->
      <g transform="translate(804.221341 542.315938)scale(0.26 -0.26)">
       <defs>
        <path id="DejaVuSans-33" d="M 2597 2516 
Q 3050 2419 3304 2112 
Q 3559 1806 3559 1356 
Q 3559 666 3084 287 
Q 2609 -91 1734 -91 
Q 1441 -91 1130 -33 
Q 819 25 488 141 
L 488 750 
Q 750 597 1062 519 
Q 1375 441 1716 441 
Q 2309 441 2620 675 
Q 2931 909 2931 1356 
Q 2931 1769 2642 2001 
Q 2353 2234 1838 2234 
L 1294 2234 
L 1294 2753 
L 1863 2753 
Q 2328 2753 2575 2939 
Q 2822 3125 2822 3475 
Q 2822 3834 2567 4026 
Q 2313 4219 1838 4219 
Q 1578 4219 1281 4162 
Q 984 4106 628 3988 
L 628 4550 
Q 988 4650 1302 4700 
Q 1616 4750 1894 4750 
Q 2613 4750 3031 4423 
Q 3450 4097 3450 3541 
Q 3450 3153 3228 2886 
Q 3006 2619 2597 2516 
z
" transform="scale(0.015625)"/>
       </defs>
       <use xlink:href="#DejaVuSans-32"/>
       <use xlink:href="#DejaVuSans-33" x="63.623047"/>
       <use xlink:href="#DejaVuSans-30" x="127.246094"/>
       <use xlink:href="#DejaVuSans-30" x="190.869141"/>
      </g>
     </g>
    </g>
    <g id="text_5">
     <!-- Year -->
     <g transform="translate(457.010409 568.439687)scale(0.22 -0.22)">
      <defs>
       <path id="DejaVuSans-Bold-59" d="M -63 4666 
L 1253 4666 
L 2316 3003 
L 3378 4666 
L 4697 4666 
L 2919 1966 
L 2919 0 
L 1716 0 
L 1716 1966 
L -63 4666 
z
" transform="scale(0.015625)"/>
       <path id="DejaVuSans-Bold-65" d="M 4031 1759 
L 4031 1441 
L 1416 1441 
Q 1456 1047 1700 850 
Q 1944 653 2381 653 
Q 2734 653 3104 758 
Q 3475 863 3866 1075 
L 3866 213 
Q 3469 63 3072 -14 
Q 2675 -91 2278 -91 
Q 1328 -91 801 392 
Q 275 875 275 1747 
Q 275 2603 792 3093 
Q 1309 3584 2216 3584 
Q 3041 3584 3536 3087 
Q 4031 2591 4031 1759 
z
M 2881 2131 
Q 2881 2450 2695 2645 
Q 2509 2841 2209 2841 
Q 1884 2841 1681 2658 
Q 1478 2475 1428 2131 
L 2881 2131 
z
" transform="scale(0.015625)"/>
       <path id="DejaVuSans-Bold-61" d="M 2106 1575 
Q 1756 1575 1579 1456 
Q 1403 1338 1403 1106 
Q 1403 894 1545 773 
Q 1688 653 1941 653 
Q 2256 653 2472 879 
Q 2688 1106 2688 1447 
L 2688 1575 
L 2106 1575 
z
M 3816 1997 
L 3816 0 
L 2688 0 
L 2688 519 
Q 2463 200 2181 54 
Q 1900 -91 1497 -91 
Q 953 -91 614 226 
Q 275 544 275 1050 
Q 275 1666 698 1953 
Q 1122 2241 2028 2241 
L 2688 2241 
L 2688 2328 
Q 2688 2594 2478 2717 
Q 2269 2841 1825 2841 
Q 1466 2841 1156 2769 
Q 847 2697 581 2553 
L 581 3406 
Q 941 3494 1303 3539 
Q 1666 3584 2028 3584 
Q 2975 3584 3395 3211 
Q 3816 2838 3816 1997 
z
" transform="scale(0.015625)"/>
       <path id="DejaVuSans-Bold-72" d="M 3138 2547 
Q 2991 2616 2845 2648 
Q 2700 2681 2553 2681 
Q 2122 2681 1889 2404 
Q 1656 2128 1656 1613 
L 1656 0 
L 538 0 
L 538 3500 
L 1656 3500 
L 1656 2925 
Q 1872 3269 2151 3426 
Q 2431 3584 2822 3584 
Q 2878 3584 2943 3579 
Q 3009 3575 3134 3559 
L 3138 2547 
z
" transform="scale(0.015625)"/>
      </defs>
      <use xlink:href="#DejaVuSans-Bold-59"/>
      <use xlink:href="#DejaVuSans-Bold-65" x="63.287109"/>
      <use xlink:href="#DejaVuSans-Bold-61" x="131.109375"/>
      <use xlink:href="#DejaVuSans-Bold-72" x="198.589844"/>
     </g>
    </g>
   </g>
   <g id="matplotlib.axis_2">
    <g id="ytick_1">
     <g id="line2d_5">
      <defs>
       <path id="me075757d56" d="M 0 0 
L -3.5 0 
" style="stroke: #000000; stroke-width: 0.8"/>
      </defs>
      <g>
       <use xlink:href="#me075757d56" x="109.64" y="515.56" style="stroke: #000000; stroke-width: 0.8"/>
      </g>
     </g>
     <g id="text_6">
      <!-- 0 -->
      <g transform="translate(86.0975 525.437969)scale(0.26 -0.26)">
       <use xlink:href="#DejaVuSans-30"/>
      </g>
     </g>
    </g>
    <g id="ytick_2">
     <g id="line2d_6">
      <g>
       <use xlink:href="#me075757d56" x="109.64" y="441.5184" style="stroke: #000000; stroke-width: 0.8"/>
      </g>
     </g>
     <g id="text_7">
      <!-- 20 -->
      <g transform="translate(69.555 451.396369)scale(0.26 -0.26)">
       <use xlink:href="#DejaVuSans-32"/>
       <use xlink:href="#DejaVuSans-30" x="63.623047"/>
      </g>
     </g>
    </g>
    <g id="ytick_3">
     <g id="line2d_7">
      <g>
       <use xlink:href="#me075757d56" x="109.64" y="367.4768" style="stroke: #000000; stroke-width: 0.8"/>
      </g>
     </g>
     <g id="text_8">
      <!-- 40 -->
      <g transform="translate(69.555 377.354769)scale(0.26 -0.26)">
       <defs>
        <path id="DejaVuSans-34" d="M 2419 4116 
L 825 1625 
L 2419 1625 
L 2419 4116 
z
M 2253 4666 
L 3047 4666 
L 3047 1625 
L 3713 1625 
L 3713 1100 
L 3047 1100 
L 3047 0 
L 2419 0 
L 2419 1100 
L 313 1100 
L 313 1709 
L 2253 4666 
z
" transform="scale(0.015625)"/>
       </defs>
       <use xlink:href="#DejaVuSans-34"/>
       <use xlink:href="#DejaVuSans-30" x="63.623047"/>
      </g>
     </g>
    </g>
    <g id="ytick_4">
     <g id="line2d_8">
      <g>
       <use xlink:href="#me075757d56" x="109.64" y="293.4352" style="stroke: #000000; stroke-width: 0.8"/>
      </g>
     </g>
     <g id="text_9">
      <!-- 60 -->
      <g transform="translate(69.555 303.313169)scale(0.26 -0.26)">
       <defs>
        <path id="DejaVuSans-36" d="M 2113 2584 
Q 1688 2584 1439 2293 
Q 1191 2003 1191 1497 
Q 1191 994 1439 701 
Q 1688 409 2113 409 
Q 2538 409 2786 701 
Q 3034 994 3034 1497 
Q 3034 2003 2786 2293 
Q 2538 2584 2113 2584 
z
M 3366 4563 
L 3366 3988 
Q 3128 4100 2886 4159 
Q 2644 4219 2406 4219 
Q 1781 4219 1451 3797 
Q 1122 3375 1075 2522 
Q 1259 2794 1537 2939 
Q 1816 3084 2150 3084 
Q 2853 3084 3261 2657 
Q 3669 2231 3669 1497 
Q 3669 778 3244 343 
Q 2819 -91 2113 -91 
Q 1303 -91 875 529 
Q 447 1150 447 2328 
Q 447 3434 972 4092 
Q 1497 4750 2381 4750 
Q 2619 4750 2861 4703 
Q 3103 4656 3366 4563 
z
" transform="scale(0.015625)"/>
       </defs>
       <use xlink:href="#DejaVuSans-36"/>
       <use xlink:href="#DejaVuSans-30" x="63.623047"/>
      </g>
     </g>
    </g>
    <g id="ytick_5">
     <g id="line2d_9">
      <g>
       <use xlink:href="#me075757d56" x="109.64" y="219.3936" style="stroke: #000000; stroke-width: 0.8"/>
      </g>
     </g>
     <g id="text_10">
      <!-- 80 -->
      <g transform="translate(69.555 229.271569)scale(0.26 -0.26)">
       <defs>
        <path id="DejaVuSans-38" d="M 2034 2216 
Q 1584 2216 1326 1975 
Q 1069 1734 1069 1313 
Q 1069 891 1326 650 
Q 1584 409 2034 409 
Q 2484 409 2743 651 
Q 3003 894 3003 1313 
Q 3003 1734 2745 1975 
Q 2488 2216 2034 2216 
z
M 1403 2484 
Q 997 2584 770 2862 
Q 544 3141 544 3541 
Q 544 4100 942 4425 
Q 1341 4750 2034 4750 
Q 2731 4750 3128 4425 
Q 3525 4100 3525 3541 
Q 3525 3141 3298 2862 
Q 3072 2584 2669 2484 
Q 3125 2378 3379 2068 
Q 3634 1759 3634 1313 
Q 3634 634 3220 271 
Q 2806 -91 2034 -91 
Q 1263 -91 848 271 
Q 434 634 434 1313 
Q 434 1759 690 2068 
Q 947 2378 1403 2484 
z
M 1172 3481 
Q 1172 3119 1398 2916 
Q 1625 2713 2034 2713 
Q 2441 2713 2670 2916 
Q 2900 3119 2900 3481 
Q 2900 3844 2670 4047 
Q 2441 4250 2034 4250 
Q 1625 4250 1398 4047 
Q 1172 3844 1172 3481 
z
" transform="scale(0.015625)"/>
       </defs>
       <use xlink:href="#DejaVuSans-38"/>
       <use xlink:href="#DejaVuSans-30" x="63.623047"/>
      </g>
     </g>
    </g>
    <g id="ytick_6">
     <g id="line2d_10">
      <g>
       <use xlink:href="#me075757d56" x="109.64" y="145.352" style="stroke: #000000; stroke-width: 0.8"/>
      </g>
     </g>
     <g id="text_11">
      <!-- 100 -->
      <g transform="translate(53.0125 155.229969)scale(0.26 -0.26)">
       <use xlink:href="#DejaVuSans-31"/>
       <use xlink:href="#DejaVuSans-30" x="63.623047"/>
       <use xlink:href="#DejaVuSans-30" x="127.246094"/>
      </g>
     </g>
    </g>
    <g id="ytick_7">
     <g id="line2d_11">
      <g>
       <use xlink:href="#me075757d56" x="109.64" y="71.3104" style="stroke: #000000; stroke-width: 0.8"/>
      </g>
     </g>
     <g id="text_12">
      <!-- 120 -->
      <g transform="translate(53.0125 81.188369)scale(0.26 -0.26)">
       <use xlink:href="#DejaVuSans-31"/>
       <use xlink:href="#DejaVuSans-32" x="63.623047"/>
       <use xlink:href="#DejaVuSans-30" x="127.246094"/>
      </g>
     </g>
    </g>
    <g id="text_13">
     <!-- % of Remaining Glacier Mass -->
     <g transform="translate(44.265313 463.619219)rotate(-90)scale(0.22 -0.22)">
      <defs>
       <path id="DejaVuSans-Bold-25" d="M 4959 1925 
Q 4738 1925 4616 1733 
Q 4494 1541 4494 1184 
Q 4494 825 4614 633 
Q 4734 441 4959 441 
Q 5184 441 5303 633 
Q 5422 825 5422 1184 
Q 5422 1541 5301 1733 
Q 5181 1925 4959 1925 
z
M 4959 2450 
Q 5541 2450 5875 2112 
Q 6209 1775 6209 1184 
Q 6209 594 5875 251 
Q 5541 -91 4959 -91 
Q 4378 -91 4042 251 
Q 3706 594 3706 1184 
Q 3706 1772 4042 2111 
Q 4378 2450 4959 2450 
z
M 2094 -91 
L 1403 -91 
L 4319 4750 
L 5013 4750 
L 2094 -91 
z
M 1453 4750 
Q 2034 4750 2367 4411 
Q 2700 4072 2700 3481 
Q 2700 2891 2367 2550 
Q 2034 2209 1453 2209 
Q 872 2209 539 2550 
Q 206 2891 206 3481 
Q 206 4072 539 4411 
Q 872 4750 1453 4750 
z
M 1453 4225 
Q 1228 4225 1106 4031 
Q 984 3838 984 3481 
Q 984 3122 1106 2926 
Q 1228 2731 1453 2731 
Q 1678 2731 1798 2926 
Q 1919 3122 1919 3481 
Q 1919 3838 1797 4031 
Q 1675 4225 1453 4225 
z
" transform="scale(0.015625)"/>
       <path id="DejaVuSans-Bold-20" transform="scale(0.015625)"/>
       <path id="DejaVuSans-Bold-6f" d="M 2203 2784 
Q 1831 2784 1636 2517 
Q 1441 2250 1441 1747 
Q 1441 1244 1636 976 
Q 1831 709 2203 709 
Q 2569 709 2762 976 
Q 2956 1244 2956 1747 
Q 2956 2250 2762 2517 
Q 2569 2784 2203 2784 
z
M 2203 3584 
Q 3106 3584 3614 3096 
Q 4122 2609 4122 1747 
Q 4122 884 3614 396 
Q 3106 -91 2203 -91 
Q 1297 -91 786 396 
Q 275 884 275 1747 
Q 275 2609 786 3096 
Q 1297 3584 2203 3584 
z
" transform="scale(0.015625)"/>
       <path id="DejaVuSans-Bold-66" d="M 2841 4863 
L 2841 4128 
L 2222 4128 
Q 1984 4128 1890 4042 
Q 1797 3956 1797 3744 
L 1797 3500 
L 2753 3500 
L 2753 2700 
L 1797 2700 
L 1797 0 
L 678 0 
L 678 2700 
L 122 2700 
L 122 3500 
L 678 3500 
L 678 3744 
Q 678 4316 997 4589 
Q 1316 4863 1984 4863 
L 2841 4863 
z
" transform="scale(0.015625)"/>
       <path id="DejaVuSans-Bold-52" d="M 2297 2597 
Q 2675 2597 2839 2737 
Q 3003 2878 3003 3200 
Q 3003 3519 2839 3656 
Q 2675 3794 2297 3794 
L 1791 3794 
L 1791 2597 
L 2297 2597 
z
M 1791 1766 
L 1791 0 
L 588 0 
L 588 4666 
L 2425 4666 
Q 3347 4666 3776 4356 
Q 4206 4047 4206 3378 
Q 4206 2916 3982 2619 
Q 3759 2322 3309 2181 
Q 3556 2125 3751 1926 
Q 3947 1728 4147 1325 
L 4800 0 
L 3519 0 
L 2950 1159 
Q 2778 1509 2601 1637 
Q 2425 1766 2131 1766 
L 1791 1766 
z
" transform="scale(0.015625)"/>
       <path id="DejaVuSans-Bold-6d" d="M 3781 2919 
Q 3994 3244 4286 3414 
Q 4578 3584 4928 3584 
Q 5531 3584 5847 3212 
Q 6163 2841 6163 2131 
L 6163 0 
L 5038 0 
L 5038 1825 
Q 5041 1866 5042 1909 
Q 5044 1953 5044 2034 
Q 5044 2406 4934 2573 
Q 4825 2741 4581 2741 
Q 4263 2741 4089 2478 
Q 3916 2216 3909 1719 
L 3909 0 
L 2784 0 
L 2784 1825 
Q 2784 2406 2684 2573 
Q 2584 2741 2328 2741 
Q 2006 2741 1831 2477 
Q 1656 2213 1656 1722 
L 1656 0 
L 531 0 
L 531 3500 
L 1656 3500 
L 1656 2988 
Q 1863 3284 2130 3434 
Q 2397 3584 2719 3584 
Q 3081 3584 3359 3409 
Q 3638 3234 3781 2919 
z
" transform="scale(0.015625)"/>
       <path id="DejaVuSans-Bold-69" d="M 538 3500 
L 1656 3500 
L 1656 0 
L 538 0 
L 538 3500 
z
M 538 4863 
L 1656 4863 
L 1656 3950 
L 538 3950 
L 538 4863 
z
" transform="scale(0.015625)"/>
       <path id="DejaVuSans-Bold-6e" d="M 4056 2131 
L 4056 0 
L 2931 0 
L 2931 347 
L 2931 1631 
Q 2931 2084 2911 2256 
Q 2891 2428 2841 2509 
Q 2775 2619 2662 2680 
Q 2550 2741 2406 2741 
Q 2056 2741 1856 2470 
Q 1656 2200 1656 1722 
L 1656 0 
L 538 0 
L 538 3500 
L 1656 3500 
L 1656 2988 
Q 1909 3294 2193 3439 
Q 2478 3584 2822 3584 
Q 3428 3584 3742 3212 
Q 4056 2841 4056 2131 
z
" transform="scale(0.015625)"/>
       <path id="DejaVuSans-Bold-67" d="M 2919 594 
Q 2688 288 2409 144 
Q 2131 0 1766 0 
Q 1125 0 706 504 
Q 288 1009 288 1791 
Q 288 2575 706 3076 
Q 1125 3578 1766 3578 
Q 2131 3578 2409 3434 
Q 2688 3291 2919 2981 
L 2919 3500 
L 4044 3500 
L 4044 353 
Q 4044 -491 3511 -936 
Q 2978 -1381 1966 -1381 
Q 1638 -1381 1331 -1331 
Q 1025 -1281 716 -1178 
L 716 -306 
Q 1009 -475 1290 -558 
Q 1572 -641 1856 -641 
Q 2406 -641 2662 -400 
Q 2919 -159 2919 353 
L 2919 594 
z
M 2181 2772 
Q 1834 2772 1640 2515 
Q 1447 2259 1447 1791 
Q 1447 1309 1634 1061 
Q 1822 813 2181 813 
Q 2531 813 2725 1069 
Q 2919 1325 2919 1791 
Q 2919 2259 2725 2515 
Q 2531 2772 2181 2772 
z
" transform="scale(0.015625)"/>
       <path id="DejaVuSans-Bold-47" d="M 4781 347 
Q 4331 128 3847 18 
Q 3363 -91 2847 -91 
Q 1681 -91 1000 561 
Q 319 1213 319 2328 
Q 319 3456 1012 4103 
Q 1706 4750 2913 4750 
Q 3378 4750 3804 4662 
Q 4231 4575 4609 4403 
L 4609 3438 
Q 4219 3659 3833 3768 
Q 3447 3878 3059 3878 
Q 2341 3878 1952 3476 
Q 1563 3075 1563 2328 
Q 1563 1588 1938 1184 
Q 2313 781 3003 781 
Q 3191 781 3352 804 
Q 3513 828 3641 878 
L 3641 1784 
L 2906 1784 
L 2906 2591 
L 4781 2591 
L 4781 347 
z
" transform="scale(0.015625)"/>
       <path id="DejaVuSans-Bold-6c" d="M 538 4863 
L 1656 4863 
L 1656 0 
L 538 0 
L 538 4863 
z
" transform="scale(0.015625)"/>
       <path id="DejaVuSans-Bold-63" d="M 3366 3391 
L 3366 2478 
Q 3138 2634 2908 2709 
Q 2678 2784 2431 2784 
Q 1963 2784 1702 2511 
Q 1441 2238 1441 1747 
Q 1441 1256 1702 982 
Q 1963 709 2431 709 
Q 2694 709 2930 787 
Q 3166 866 3366 1019 
L 3366 103 
Q 3103 6 2833 -42 
Q 2563 -91 2291 -91 
Q 1344 -91 809 395 
Q 275 881 275 1747 
Q 275 2613 809 3098 
Q 1344 3584 2291 3584 
Q 2566 3584 2833 3536 
Q 3100 3488 3366 3391 
z
" transform="scale(0.015625)"/>
       <path id="DejaVuSans-Bold-4d" d="M 588 4666 
L 2119 4666 
L 3181 2169 
L 4250 4666 
L 5778 4666 
L 5778 0 
L 4641 0 
L 4641 3413 
L 3566 897 
L 2803 897 
L 1728 3413 
L 1728 0 
L 588 0 
L 588 4666 
z
" transform="scale(0.015625)"/>
       <path id="DejaVuSans-Bold-73" d="M 3272 3391 
L 3272 2541 
Q 2913 2691 2578 2766 
Q 2244 2841 1947 2841 
Q 1628 2841 1473 2761 
Q 1319 2681 1319 2516 
Q 1319 2381 1436 2309 
Q 1553 2238 1856 2203 
L 2053 2175 
Q 2913 2066 3209 1816 
Q 3506 1566 3506 1031 
Q 3506 472 3093 190 
Q 2681 -91 1863 -91 
Q 1516 -91 1145 -36 
Q 775 19 384 128 
L 384 978 
Q 719 816 1070 734 
Q 1422 653 1784 653 
Q 2113 653 2278 743 
Q 2444 834 2444 1013 
Q 2444 1163 2330 1236 
Q 2216 1309 1875 1350 
L 1678 1375 
Q 931 1469 631 1722 
Q 331 1975 331 2491 
Q 331 3047 712 3315 
Q 1094 3584 1881 3584 
Q 2191 3584 2531 3537 
Q 2872 3491 3272 3391 
z
" transform="scale(0.015625)"/>
      </defs>
      <use xlink:href="#DejaVuSans-Bold-25"/>
      <use xlink:href="#DejaVuSans-Bold-20" x="100.195312"/>
      <use xlink:href="#DejaVuSans-Bold-6f" x="135.009766"/>
      <use xlink:href="#DejaVuSans-Bold-66" x="203.710938"/>
      <use xlink:href="#DejaVuSans-Bold-20" x="247.216797"/>
      <use xlink:href="#DejaVuSans-Bold-52" x="282.03125"/>
      <use xlink:href="#DejaVuSans-Bold-65" x="359.033203"/>
      <use xlink:href="#DejaVuSans-Bold-6d" x="426.855469"/>
      <use xlink:href="#DejaVuSans-Bold-61" x="531.054688"/>
      <use xlink:href="#DejaVuSans-Bold-69" x="598.535156"/>
      <use xlink:href="#DejaVuSans-Bold-6e" x="632.8125"/>
      <use xlink:href="#DejaVuSans-Bold-69" x="704.003906"/>
      <use xlink:href="#DejaVuSans-Bold-6e" x="738.28125"/>
      <use xlink:href="#DejaVuSans-Bold-67" x="809.472656"/>
      <use xlink:href="#DejaVuSans-Bold-20" x="881.054688"/>
      <use xlink:href="#DejaVuSans-Bold-47" x="915.869141"/>
      <use xlink:href="#DejaVuSans-Bold-6c" x="997.949219"/>
      <use xlink:href="#DejaVuSans-Bold-61" x="1032.226562"/>
      <use xlink:href="#DejaVuSans-Bold-63" x="1099.707031"/>
      <use xlink:href="#DejaVuSans-Bold-69" x="1158.984375"/>
      <use xlink:href="#DejaVuSans-Bold-65" x="1193.261719"/>
      <use xlink:href="#DejaVuSans-Bold-72" x="1261.083984"/>
      <use xlink:href="#DejaVuSans-Bold-20" x="1310.400391"/>
      <use xlink:href="#DejaVuSans-Bold-4d" x="1345.214844"/>
      <use xlink:href="#DejaVuSans-Bold-61" x="1444.726562"/>
      <use xlink:href="#DejaVuSans-Bold-73" x="1512.207031"/>
      <use xlink:href="#DejaVuSans-Bold-73" x="1571.728516"/>
     </g>
    </g>
   </g>
   <g id="line2d_12">
    <path d="M 167.276938 152.183131 
L 172.080016 165.875945 
L 176.883094 179.715242 
L 196.095407 232.886687 
L 205.701563 257.709218 
L 210.504641 269.502 
L 212.90618 274.987589 
L 217.709259 285.154755 
L 220.110798 289.822502 
L 227.315415 302.820268 
L 232.118493 310.786788 
L 234.520032 314.734582 
L 236.921571 318.261355 
L 241.724649 324.607462 
L 246.527727 330.554972 
L 248.929267 333.347773 
L 253.732345 338.470756 
L 256.133884 340.671097 
L 260.936962 344.48624 
L 265.74004 348.060853 
L 280.149275 357.507081 
L 289.755431 362.332406 
L 296.960048 365.389417 
L 299.361587 366.310138 
L 308.967743 369.04833 
L 316.172361 370.791332 
L 320.975439 371.612437 
L 330.581595 372.561342 
L 332.983134 372.903411 
L 335.384673 373.114676 
L 337.786212 373.175968 
L 356.998525 372.511856 
L 371.407759 371.594254 
L 376.210838 371.530056 
L 378.612377 371.431468 
L 381.013916 371.149945 
L 393.021611 369.105006 
L 397.824689 368.015643 
L 402.627768 367.271356 
L 405.029307 366.868077 
L 409.832385 365.777019 
L 414.635463 364.316065 
L 424.241619 361.846313 
L 431.446236 360.386287 
L 438.650854 359.471591 
L 441.052393 359.307976 
L 445.855471 359.340087 
L 450.658549 358.813362 
L 455.461627 358.418926 
L 457.863166 358.325574 
L 465.067784 358.412032 
L 477.075479 357.797109 
L 481.878557 357.281258 
L 486.681635 357.112284 
L 489.083174 356.762969 
L 493.886252 355.674682 
L 503.492409 354.341638 
L 510.697026 352.826 
L 515.500104 351.380403 
L 522.704721 349.154241 
L 527.5078 347.725838 
L 529.909339 347.058238 
L 532.310878 346.121821 
L 534.712417 345.054691 
L 537.113956 344.192742 
L 541.917034 342.814557 
L 544.318573 341.969812 
L 551.52319 338.777308 
L 553.924729 337.841633 
L 558.727808 335.676806 
L 565.932425 332.788469 
L 568.333964 331.594652 
L 575.538581 328.421924 
L 577.94012 327.250713 
L 582.743198 325.380338 
L 585.144737 324.495861 
L 587.546277 323.32937 
L 589.947816 322.287625 
L 592.349355 321.368704 
L 599.553972 319.71619 
L 601.955511 319.347723 
L 609.160128 318.600906 
L 613.963206 318.033833 
L 616.364745 318.01781 
L 621.167824 317.80852 
L 635.577058 318.059191 
L 640.380136 318.488779 
L 645.183214 318.601184 
L 649.986293 318.265798 
L 654.789371 317.601595 
L 661.993988 317.121005 
L 666.797066 316.614506 
L 669.198605 316.407529 
L 674.001683 315.71448 
L 678.804761 315.297973 
L 681.206301 314.815896 
L 683.60784 314.149926 
L 688.410918 312.277687 
L 695.615535 309.21793 
L 698.017074 308.251312 
L 705.221691 305.741863 
L 719.630926 300.013438 
L 724.434004 298.421385 
L 726.835543 297.529883 
L 729.237082 296.838199 
L 734.04016 296.046587 
L 736.441699 295.790674 
L 743.646317 295.393087 
L 746.047856 295.393742 
L 753.252473 294.4645 
L 755.654012 294.185328 
L 760.45709 294.113275 
L 765.260168 293.797986 
L 774.866325 292.357779 
L 782.070942 291.723332 
L 791.677098 290.231518 
L 794.078637 289.586082 
L 803.684794 288.369557 
L 806.086333 287.849672 
L 815.692489 286.555901 
L 820.495567 286.18352 
L 822.897106 286.206856 
L 827.700184 285.839862 
L 837.306341 284.721691 
L 837.306341 284.721691 
" clip-path="url(#p7aa2bc2e09)" style="fill: none; stroke: #74b8f8; stroke-opacity: 0.5; stroke-width: 6; stroke-linecap: square"/>
   </g>
   <g id="line2d_13">
    <path d="M 116.844617 59.129557 
L 119.246156 61.612305 
L 121.647695 64.21278 
L 124.049234 66.871003 
L 126.450774 69.644014 
L 128.852313 72.28785 
L 131.253852 75.064423 
L 133.655391 77.89621 
L 136.05693 80.680101 
L 138.458469 83.497111 
L 140.860008 86.303613 
L 143.261547 91.399578 
L 145.663086 96.7522 
L 148.064625 102.41655 
L 150.466164 108.340953 
L 152.867703 114.266747 
L 155.269242 120.188574 
L 157.670782 126.11457 
L 160.072321 132.304729 
L 162.47386 138.596095 
L 164.875399 145.352 
" clip-path="url(#p7aa2bc2e09)" style="fill: none; stroke: #000000; stroke-opacity: 0.5; stroke-width: 6; stroke-linecap: square"/>
   </g>
   <g id="line2d_14">
    <path d="M 167.276938 151.672534 
L 169.678477 158.288848 
L 186.48925 206.857118 
L 193.693868 227.520455 
L 198.496946 241.596632 
L 208.103102 269.664327 
L 212.90618 282.804713 
L 217.709259 295.03217 
L 224.913876 312.094799 
L 229.716954 322.651169 
L 232.118493 327.619419 
L 236.921571 336.912066 
L 241.724649 345.734672 
L 244.126188 349.891397 
L 248.929267 357.479719 
L 253.732345 364.464791 
L 258.535423 370.969321 
L 260.936962 374.893617 
L 265.74004 382.129545 
L 268.141579 385.381452 
L 270.543118 388.434212 
L 275.346196 394.006498 
L 280.149275 398.923793 
L 284.952353 403.418883 
L 287.353892 405.453791 
L 292.15697 409.100647 
L 296.960048 412.212354 
L 301.763126 414.848066 
L 306.566204 417.030963 
L 313.770822 420.003388 
L 316.172361 420.954247 
L 320.975439 422.40125 
L 335.384673 426.125567 
L 340.187751 427.194371 
L 349.793908 429.599313 
L 356.998525 431.440933 
L 364.203142 433.26906 
L 378.612377 437.968491 
L 388.218533 440.590477 
L 390.620072 441.155443 
L 397.824689 442.367104 
L 400.226228 442.496288 
L 436.249315 441.926753 
L 443.453932 441.891833 
L 455.461627 440.923935 
L 467.469323 440.389819 
L 472.272401 440.197881 
L 477.075479 440.349817 
L 493.886252 440.822186 
L 513.098565 440.745519 
L 537.113956 439.739258 
L 549.121651 439.16728 
L 558.727808 438.987244 
L 575.538581 438.829497 
L 580.341659 439.361977 
L 585.144737 439.95799 
L 589.947816 440.404679 
L 594.750894 440.529171 
L 604.35705 440.415021 
L 609.160128 440.209821 
L 616.364745 439.815445 
L 623.569363 439.679962 
L 628.372441 439.598001 
L 637.978597 438.765128 
L 647.584753 438.118324 
L 664.395527 437.030371 
L 669.198605 436.495625 
L 676.403222 435.889377 
L 700.418613 435.274732 
L 724.434004 435.92408 
L 750.850934 435.705463 
L 755.654012 435.315766 
L 762.858629 434.731596 
L 774.866325 434.155378 
L 786.87402 433.634887 
L 801.283254 432.939925 
L 837.306341 431.907082 
L 837.306341 431.907082 
" clip-path="url(#p7aa2bc2e09)" style="fill: none; stroke: #f47100; stroke-opacity: 0.5; stroke-width: 6; stroke-linecap: square"/>
   </g>
   <g id="line2d_15">
    <path d="M 116.844617 70.28885 
L 119.246156 72.371132 
L 121.647695 74.433996 
L 124.049234 76.335361 
L 126.450774 78.301172 
L 128.852313 80.264196 
L 131.253852 82.338285 
L 133.655391 84.309515 
L 136.05693 86.422892 
L 138.458469 88.659514 
L 140.860008 91.155011 
L 143.261547 95.201922 
L 145.663086 99.651429 
L 148.064625 104.494596 
L 150.466164 109.624804 
L 152.867703 115.007753 
L 155.269242 120.694647 
L 157.670782 126.591724 
L 160.072321 132.815378 
L 162.47386 139.091173 
L 164.875399 145.352 
" clip-path="url(#p7aa2bc2e09)" style="fill: none; stroke: #000000; stroke-opacity: 0.5; stroke-width: 6; stroke-linecap: square"/>
   </g>
   <g id="line2d_16">
    <path d="M 167.276938 152.054719 
L 172.080016 165.90804 
L 176.883094 180.137561 
L 181.686172 194.785981 
L 186.48925 208.711651 
L 205.701563 263.292185 
L 217.709259 295.551684 
L 222.512337 308.013901 
L 227.315415 320.152061 
L 232.118493 332.006715 
L 236.921571 343.234284 
L 241.724649 353.707539 
L 246.527727 363.742498 
L 251.330806 373.224684 
L 256.133884 382.168415 
L 258.535423 386.428921 
L 260.936962 390.414795 
L 265.74004 397.665913 
L 270.543118 404.290641 
L 275.346196 410.344716 
L 282.550814 418.960765 
L 287.353892 424.23873 
L 294.558509 431.453206 
L 299.361587 435.788218 
L 304.164665 439.878991 
L 311.369283 445.437259 
L 316.172361 448.970081 
L 320.975439 452.091389 
L 325.778517 454.953083 
L 330.581595 457.46945 
L 337.786212 460.816953 
L 344.99083 463.71739 
L 349.793908 465.449866 
L 352.195447 466.02393 
L 361.801603 467.192426 
L 376.210838 468.512091 
L 381.013916 468.974678 
L 390.620072 469.072891 
L 402.627768 468.991815 
L 412.233924 468.946892 
L 421.84008 468.740508 
L 443.453932 467.035963 
L 453.060088 466.482456 
L 462.666244 465.831071 
L 467.469323 465.433792 
L 469.870862 465.457679 
L 474.67394 465.701686 
L 481.878557 465.969305 
L 489.083174 465.947765 
L 503.492409 465.561537 
L 527.5078 464.161271 
L 561.129347 464.45827 
L 589.947816 465.264575 
L 606.758589 465.939944 
L 616.364745 465.914007 
L 625.970902 466.302362 
L 633.175519 466.664795 
L 637.978597 466.617717 
L 645.183214 466.698677 
L 661.993988 466.660325 
L 671.600144 466.340669 
L 676.403222 466.030313 
L 693.213996 464.870628 
L 707.62323 464.018896 
L 710.024769 463.934853 
L 712.426309 464.217354 
L 726.835543 467.12882 
L 731.638621 467.652613 
L 736.441699 467.88953 
L 765.260168 467.946407 
L 772.464786 468.143337 
L 774.866325 468.159343 
L 782.070942 468.902973 
L 784.472481 469.226074 
L 789.275559 469.336066 
L 827.700184 470.189955 
L 837.306341 470.187157 
L 837.306341 470.187157 
" clip-path="url(#p7aa2bc2e09)" style="fill: none; stroke: #d01e04; stroke-opacity: 0.5; stroke-width: 6; stroke-linecap: square"/>
   </g>
   <g id="line2d_17">
    <path d="M 116.844617 63.841245 
L 119.246156 65.787471 
L 121.647695 67.524333 
L 124.049234 69.188169 
L 126.450774 70.867022 
L 128.852313 72.695646 
L 131.253852 74.653991 
L 133.655391 76.978235 
L 136.05693 79.629094 
L 138.458469 82.496478 
L 140.860008 85.568039 
L 143.261547 90.673982 
L 145.663086 96.092543 
L 148.064625 101.68105 
L 150.466164 107.406241 
L 152.867703 113.33018 
L 155.269242 119.409308 
L 157.670782 125.771608 
L 160.072321 132.16708 
L 162.47386 138.647029 
L 164.875399 145.352 
" clip-path="url(#p7aa2bc2e09)" style="fill: none; stroke: #000000; stroke-opacity: 0.5; stroke-width: 6; stroke-linecap: square"/>
   </g>
   <g id="patch_3">
    <path d="M 109.64 515.56 
L 109.64 52.8 
" style="fill: none; stroke: #000000; stroke-width: 0.8; stroke-linejoin: miter; stroke-linecap: square"/>
   </g>
   <g id="patch_4">
    <path d="M 109.64 515.56 
L 858.920192 515.56 
" style="fill: none; stroke: #000000; stroke-width: 0.8; stroke-linejoin: miter; stroke-linecap: square"/>
   </g>
   <g id="text_14">
    <!-- South Asia East -->
    <g transform="translate(378.404471 46.8)scale(0.24 -0.24)">
     <defs>
      <path id="DejaVuSans-Bold-53" d="M 3834 4519 
L 3834 3531 
Q 3450 3703 3084 3790 
Q 2719 3878 2394 3878 
Q 1963 3878 1756 3759 
Q 1550 3641 1550 3391 
Q 1550 3203 1689 3098 
Q 1828 2994 2194 2919 
L 2706 2816 
Q 3484 2659 3812 2340 
Q 4141 2022 4141 1434 
Q 4141 663 3683 286 
Q 3225 -91 2284 -91 
Q 1841 -91 1394 -6 
Q 947 78 500 244 
L 500 1259 
Q 947 1022 1364 901 
Q 1781 781 2169 781 
Q 2563 781 2772 912 
Q 2981 1044 2981 1288 
Q 2981 1506 2839 1625 
Q 2697 1744 2272 1838 
L 1806 1941 
Q 1106 2091 782 2419 
Q 459 2747 459 3303 
Q 459 4000 909 4375 
Q 1359 4750 2203 4750 
Q 2588 4750 2994 4692 
Q 3400 4634 3834 4519 
z
" transform="scale(0.015625)"/>
      <path id="DejaVuSans-Bold-75" d="M 500 1363 
L 500 3500 
L 1625 3500 
L 1625 3150 
Q 1625 2866 1622 2436 
Q 1619 2006 1619 1863 
Q 1619 1441 1641 1255 
Q 1663 1069 1716 984 
Q 1784 875 1895 815 
Q 2006 756 2150 756 
Q 2500 756 2700 1025 
Q 2900 1294 2900 1772 
L 2900 3500 
L 4019 3500 
L 4019 0 
L 2900 0 
L 2900 506 
Q 2647 200 2364 54 
Q 2081 -91 1741 -91 
Q 1134 -91 817 281 
Q 500 653 500 1363 
z
" transform="scale(0.015625)"/>
      <path id="DejaVuSans-Bold-74" d="M 1759 4494 
L 1759 3500 
L 2913 3500 
L 2913 2700 
L 1759 2700 
L 1759 1216 
Q 1759 972 1856 886 
Q 1953 800 2241 800 
L 2816 800 
L 2816 0 
L 1856 0 
Q 1194 0 917 276 
Q 641 553 641 1216 
L 641 2700 
L 84 2700 
L 84 3500 
L 641 3500 
L 641 4494 
L 1759 4494 
z
" transform="scale(0.015625)"/>
      <path id="DejaVuSans-Bold-68" d="M 4056 2131 
L 4056 0 
L 2931 0 
L 2931 347 
L 2931 1625 
Q 2931 2084 2911 2256 
Q 2891 2428 2841 2509 
Q 2775 2619 2662 2680 
Q 2550 2741 2406 2741 
Q 2056 2741 1856 2470 
Q 1656 2200 1656 1722 
L 1656 0 
L 538 0 
L 538 4863 
L 1656 4863 
L 1656 2988 
Q 1909 3294 2193 3439 
Q 2478 3584 2822 3584 
Q 3428 3584 3742 3212 
Q 4056 2841 4056 2131 
z
" transform="scale(0.015625)"/>
      <path id="DejaVuSans-Bold-41" d="M 3419 850 
L 1538 850 
L 1241 0 
L 31 0 
L 1759 4666 
L 3194 4666 
L 4922 0 
L 3713 0 
L 3419 850 
z
M 1838 1716 
L 3116 1716 
L 2478 3572 
L 1838 1716 
z
" transform="scale(0.015625)"/>
      <path id="DejaVuSans-Bold-45" d="M 588 4666 
L 3834 4666 
L 3834 3756 
L 1791 3756 
L 1791 2888 
L 3713 2888 
L 3713 1978 
L 1791 1978 
L 1791 909 
L 3903 909 
L 3903 0 
L 588 0 
L 588 4666 
z
" transform="scale(0.015625)"/>
     </defs>
     <use xlink:href="#DejaVuSans-Bold-53"/>
     <use xlink:href="#DejaVuSans-Bold-6f" x="72.021484"/>
     <use xlink:href="#DejaVuSans-Bold-75" x="140.722656"/>
     <use xlink:href="#DejaVuSans-Bold-74" x="211.914062"/>
     <use xlink:href="#DejaVuSans-Bold-68" x="259.716797"/>
     <use xlink:href="#DejaVuSans-Bold-20" x="330.908203"/>
     <use xlink:href="#DejaVuSans-Bold-41" x="365.722656"/>
     <use xlink:href="#DejaVuSans-Bold-73" x="443.115234"/>
     <use xlink:href="#DejaVuSans-Bold-69" x="502.636719"/>
     <use xlink:href="#DejaVuSans-Bold-61" x="536.914062"/>
     <use xlink:href="#DejaVuSans-Bold-20" x="604.394531"/>
     <use xlink:href="#DejaVuSans-Bold-45" x="639.208984"/>
     <use xlink:href="#DejaVuSans-Bold-61" x="707.519531"/>
     <use xlink:href="#DejaVuSans-Bold-73" x="775"/>
     <use xlink:href="#DejaVuSans-Bold-74" x="834.521484"/>
    </g>
   </g>
   <g id="legend_1">
    <g id="patch_5">
     <path d="M 597.903942 225.737875 
L 843.520192 225.737875 
Q 847.920192 225.737875 847.920192 221.337875 
L 847.920192 68.2 
Q 847.920192 63.8 843.520192 63.8 
L 597.903942 63.8 
Q 593.503942 63.8 593.503942 68.2 
L 593.503942 221.337875 
Q 593.503942 225.737875 597.903942 225.737875 
z
" style="fill: #ffffff; opacity: 0.6; stroke: #cccccc; stroke-linejoin: miter"/>
    </g>
    <g id="text_15">
     <!-- Global mean -->
     <g transform="translate(602.303942 89.316563)scale(0.22 -0.22)">
      <defs>
       <path id="DejaVuSans-47" d="M 3809 666 
L 3809 1919 
L 2778 1919 
L 2778 2438 
L 4434 2438 
L 4434 434 
Q 4069 175 3628 42 
Q 3188 -91 2688 -91 
Q 1594 -91 976 548 
Q 359 1188 359 2328 
Q 359 3472 976 4111 
Q 1594 4750 2688 4750 
Q 3144 4750 3555 4637 
Q 3966 4525 4313 4306 
L 4313 3634 
Q 3963 3931 3569 4081 
Q 3175 4231 2741 4231 
Q 1884 4231 1454 3753 
Q 1025 3275 1025 2328 
Q 1025 1384 1454 906 
Q 1884 428 2741 428 
Q 3075 428 3337 486 
Q 3600 544 3809 666 
z
" transform="scale(0.015625)"/>
       <path id="DejaVuSans-6c" d="M 603 4863 
L 1178 4863 
L 1178 0 
L 603 0 
L 603 4863 
z
" transform="scale(0.015625)"/>
       <path id="DejaVuSans-6f" d="M 1959 3097 
Q 1497 3097 1228 2736 
Q 959 2375 959 1747 
Q 959 1119 1226 758 
Q 1494 397 1959 397 
Q 2419 397 2687 759 
Q 2956 1122 2956 1747 
Q 2956 2369 2687 2733 
Q 2419 3097 1959 3097 
z
M 1959 3584 
Q 2709 3584 3137 3096 
Q 3566 2609 3566 1747 
Q 3566 888 3137 398 
Q 2709 -91 1959 -91 
Q 1206 -91 779 398 
Q 353 888 353 1747 
Q 353 2609 779 3096 
Q 1206 3584 1959 3584 
z
" transform="scale(0.015625)"/>
       <path id="DejaVuSans-62" d="M 3116 1747 
Q 3116 2381 2855 2742 
Q 2594 3103 2138 3103 
Q 1681 3103 1420 2742 
Q 1159 2381 1159 1747 
Q 1159 1113 1420 752 
Q 1681 391 2138 391 
Q 2594 391 2855 752 
Q 3116 1113 3116 1747 
z
M 1159 2969 
Q 1341 3281 1617 3432 
Q 1894 3584 2278 3584 
Q 2916 3584 3314 3078 
Q 3713 2572 3713 1747 
Q 3713 922 3314 415 
Q 2916 -91 2278 -91 
Q 1894 -91 1617 61 
Q 1341 213 1159 525 
L 1159 0 
L 581 0 
L 581 4863 
L 1159 4863 
L 1159 2969 
z
" transform="scale(0.015625)"/>
       <path id="DejaVuSans-61" d="M 2194 1759 
Q 1497 1759 1228 1600 
Q 959 1441 959 1056 
Q 959 750 1161 570 
Q 1363 391 1709 391 
Q 2188 391 2477 730 
Q 2766 1069 2766 1631 
L 2766 1759 
L 2194 1759 
z
M 3341 1997 
L 3341 0 
L 2766 0 
L 2766 531 
Q 2569 213 2275 61 
Q 1981 -91 1556 -91 
Q 1019 -91 701 211 
Q 384 513 384 1019 
Q 384 1609 779 1909 
Q 1175 2209 1959 2209 
L 2766 2209 
L 2766 2266 
Q 2766 2663 2505 2880 
Q 2244 3097 1772 3097 
Q 1472 3097 1187 3025 
Q 903 2953 641 2809 
L 641 3341 
Q 956 3463 1253 3523 
Q 1550 3584 1831 3584 
Q 2591 3584 2966 3190 
Q 3341 2797 3341 1997 
z
" transform="scale(0.015625)"/>
       <path id="DejaVuSans-20" transform="scale(0.015625)"/>
       <path id="DejaVuSans-6d" d="M 3328 2828 
Q 3544 3216 3844 3400 
Q 4144 3584 4550 3584 
Q 5097 3584 5394 3201 
Q 5691 2819 5691 2113 
L 5691 0 
L 5113 0 
L 5113 2094 
Q 5113 2597 4934 2840 
Q 4756 3084 4391 3084 
Q 3944 3084 3684 2787 
Q 3425 2491 3425 1978 
L 3425 0 
L 2847 0 
L 2847 2094 
Q 2847 2600 2669 2842 
Q 2491 3084 2119 3084 
Q 1678 3084 1418 2786 
Q 1159 2488 1159 1978 
L 1159 0 
L 581 0 
L 581 3500 
L 1159 3500 
L 1159 2956 
Q 1356 3278 1631 3431 
Q 1906 3584 2284 3584 
Q 2666 3584 2933 3390 
Q 3200 3197 3328 2828 
z
" transform="scale(0.015625)"/>
       <path id="DejaVuSans-65" d="M 3597 1894 
L 3597 1613 
L 953 1613 
Q 991 1019 1311 708 
Q 1631 397 2203 397 
Q 2534 397 2845 478 
Q 3156 559 3463 722 
L 3463 178 
Q 3153 47 2828 -22 
Q 2503 -91 2169 -91 
Q 1331 -91 842 396 
Q 353 884 353 1716 
Q 353 2575 817 3079 
Q 1281 3584 2069 3584 
Q 2775 3584 3186 3129 
Q 3597 2675 3597 1894 
z
M 3022 2063 
Q 3016 2534 2758 2815 
Q 2500 3097 2075 3097 
Q 1594 3097 1305 2825 
Q 1016 2553 972 2059 
L 3022 2063 
z
" transform="scale(0.015625)"/>
       <path id="DejaVuSans-6e" d="M 3513 2113 
L 3513 0 
L 2938 0 
L 2938 2094 
Q 2938 2591 2744 2837 
Q 2550 3084 2163 3084 
Q 1697 3084 1428 2787 
Q 1159 2491 1159 1978 
L 1159 0 
L 581 0 
L 581 3500 
L 1159 3500 
L 1159 2956 
Q 1366 3272 1645 3428 
Q 1925 3584 2291 3584 
Q 2894 3584 3203 3211 
Q 3513 2838 3513 2113 
z
" transform="scale(0.015625)"/>
      </defs>
      <use xlink:href="#DejaVuSans-47"/>
      <use xlink:href="#DejaVuSans-6c" x="77.490234"/>
      <use xlink:href="#DejaVuSans-6f" x="105.273438"/>
      <use xlink:href="#DejaVuSans-62" x="166.455078"/>
      <use xlink:href="#DejaVuSans-61" x="229.931641"/>
      <use xlink:href="#DejaVuSans-6c" x="291.210938"/>
      <use xlink:href="#DejaVuSans-20" x="318.994141"/>
      <use xlink:href="#DejaVuSans-6d" x="350.78125"/>
      <use xlink:href="#DejaVuSans-65" x="448.193359"/>
      <use xlink:href="#DejaVuSans-61" x="509.716797"/>
      <use xlink:href="#DejaVuSans-6e" x="570.996094"/>
     </g>
     <!-- temperature above -->
     <g transform="translate(602.303942 113.95175)scale(0.22 -0.22)">
      <defs>
       <path id="DejaVuSans-74" d="M 1172 4494 
L 1172 3500 
L 2356 3500 
L 2356 3053 
L 1172 3053 
L 1172 1153 
Q 1172 725 1289 603 
Q 1406 481 1766 481 
L 2356 481 
L 2356 0 
L 1766 0 
Q 1100 0 847 248 
Q 594 497 594 1153 
L 594 3053 
L 172 3053 
L 172 3500 
L 594 3500 
L 594 4494 
L 1172 4494 
z
" transform="scale(0.015625)"/>
       <path id="DejaVuSans-70" d="M 1159 525 
L 1159 -1331 
L 581 -1331 
L 581 3500 
L 1159 3500 
L 1159 2969 
Q 1341 3281 1617 3432 
Q 1894 3584 2278 3584 
Q 2916 3584 3314 3078 
Q 3713 2572 3713 1747 
Q 3713 922 3314 415 
Q 2916 -91 2278 -91 
Q 1894 -91 1617 61 
Q 1341 213 1159 525 
z
M 3116 1747 
Q 3116 2381 2855 2742 
Q 2594 3103 2138 3103 
Q 1681 3103 1420 2742 
Q 1159 2381 1159 1747 
Q 1159 1113 1420 752 
Q 1681 391 2138 391 
Q 2594 391 2855 752 
Q 3116 1113 3116 1747 
z
" transform="scale(0.015625)"/>
       <path id="DejaVuSans-72" d="M 2631 2963 
Q 2534 3019 2420 3045 
Q 2306 3072 2169 3072 
Q 1681 3072 1420 2755 
Q 1159 2438 1159 1844 
L 1159 0 
L 581 0 
L 581 3500 
L 1159 3500 
L 1159 2956 
Q 1341 3275 1631 3429 
Q 1922 3584 2338 3584 
Q 2397 3584 2469 3576 
Q 2541 3569 2628 3553 
L 2631 2963 
z
" transform="scale(0.015625)"/>
       <path id="DejaVuSans-75" d="M 544 1381 
L 544 3500 
L 1119 3500 
L 1119 1403 
Q 1119 906 1312 657 
Q 1506 409 1894 409 
Q 2359 409 2629 706 
Q 2900 1003 2900 1516 
L 2900 3500 
L 3475 3500 
L 3475 0 
L 2900 0 
L 2900 538 
Q 2691 219 2414 64 
Q 2138 -91 1772 -91 
Q 1169 -91 856 284 
Q 544 659 544 1381 
z
M 1991 3584 
L 1991 3584 
z
" transform="scale(0.015625)"/>
       <path id="DejaVuSans-76" d="M 191 3500 
L 800 3500 
L 1894 563 
L 2988 3500 
L 3597 3500 
L 2284 0 
L 1503 0 
L 191 3500 
z
" transform="scale(0.015625)"/>
      </defs>
      <use xlink:href="#DejaVuSans-74"/>
      <use xlink:href="#DejaVuSans-65" x="39.208984"/>
      <use xlink:href="#DejaVuSans-6d" x="100.732422"/>
      <use xlink:href="#DejaVuSans-70" x="198.144531"/>
      <use xlink:href="#DejaVuSans-65" x="261.621094"/>
      <use xlink:href="#DejaVuSans-72" x="323.144531"/>
      <use xlink:href="#DejaVuSans-61" x="364.257812"/>
      <use xlink:href="#DejaVuSans-74" x="425.537109"/>
      <use xlink:href="#DejaVuSans-75" x="464.746094"/>
      <use xlink:href="#DejaVuSans-72" x="528.125"/>
      <use xlink:href="#DejaVuSans-65" x="566.988281"/>
      <use xlink:href="#DejaVuSans-20" x="628.511719"/>
      <use xlink:href="#DejaVuSans-61" x="660.298828"/>
      <use xlink:href="#DejaVuSans-62" x="721.578125"/>
      <use xlink:href="#DejaVuSans-6f" x="785.054688"/>
      <use xlink:href="#DejaVuSans-76" x="846.236328"/>
      <use xlink:href="#DejaVuSans-65" x="905.416016"/>
     </g>
     <!-- pre-industrial in 2100 -->
     <g transform="translate(602.303942 138.586938)scale(0.22 -0.22)">
      <defs>
       <path id="DejaVuSans-2d" d="M 313 2009 
L 1997 2009 
L 1997 1497 
L 313 1497 
L 313 2009 
z
" transform="scale(0.015625)"/>
       <path id="DejaVuSans-69" d="M 603 3500 
L 1178 3500 
L 1178 0 
L 603 0 
L 603 3500 
z
M 603 4863 
L 1178 4863 
L 1178 4134 
L 603 4134 
L 603 4863 
z
" transform="scale(0.015625)"/>
       <path id="DejaVuSans-64" d="M 2906 2969 
L 2906 4863 
L 3481 4863 
L 3481 0 
L 2906 0 
L 2906 525 
Q 2725 213 2448 61 
Q 2172 -91 1784 -91 
Q 1150 -91 751 415 
Q 353 922 353 1747 
Q 353 2572 751 3078 
Q 1150 3584 1784 3584 
Q 2172 3584 2448 3432 
Q 2725 3281 2906 2969 
z
M 947 1747 
Q 947 1113 1208 752 
Q 1469 391 1925 391 
Q 2381 391 2643 752 
Q 2906 1113 2906 1747 
Q 2906 2381 2643 2742 
Q 2381 3103 1925 3103 
Q 1469 3103 1208 2742 
Q 947 2381 947 1747 
z
" transform="scale(0.015625)"/>
       <path id="DejaVuSans-73" d="M 2834 3397 
L 2834 2853 
Q 2591 2978 2328 3040 
Q 2066 3103 1784 3103 
Q 1356 3103 1142 2972 
Q 928 2841 928 2578 
Q 928 2378 1081 2264 
Q 1234 2150 1697 2047 
L 1894 2003 
Q 2506 1872 2764 1633 
Q 3022 1394 3022 966 
Q 3022 478 2636 193 
Q 2250 -91 1575 -91 
Q 1294 -91 989 -36 
Q 684 19 347 128 
L 347 722 
Q 666 556 975 473 
Q 1284 391 1588 391 
Q 1994 391 2212 530 
Q 2431 669 2431 922 
Q 2431 1156 2273 1281 
Q 2116 1406 1581 1522 
L 1381 1569 
Q 847 1681 609 1914 
Q 372 2147 372 2553 
Q 372 3047 722 3315 
Q 1072 3584 1716 3584 
Q 2034 3584 2315 3537 
Q 2597 3491 2834 3397 
z
" transform="scale(0.015625)"/>
      </defs>
      <use xlink:href="#DejaVuSans-70"/>
      <use xlink:href="#DejaVuSans-72" x="63.476562"/>
      <use xlink:href="#DejaVuSans-65" x="102.339844"/>
      <use xlink:href="#DejaVuSans-2d" x="163.863281"/>
      <use xlink:href="#DejaVuSans-69" x="199.947266"/>
      <use xlink:href="#DejaVuSans-6e" x="227.730469"/>
      <use xlink:href="#DejaVuSans-64" x="291.109375"/>
      <use xlink:href="#DejaVuSans-75" x="354.585938"/>
      <use xlink:href="#DejaVuSans-73" x="417.964844"/>
      <use xlink:href="#DejaVuSans-74" x="470.064453"/>
      <use xlink:href="#DejaVuSans-72" x="509.273438"/>
      <use xlink:href="#DejaVuSans-69" x="550.386719"/>
      <use xlink:href="#DejaVuSans-61" x="578.169922"/>
      <use xlink:href="#DejaVuSans-6c" x="639.449219"/>
      <use xlink:href="#DejaVuSans-20" x="667.232422"/>
      <use xlink:href="#DejaVuSans-69" x="699.019531"/>
      <use xlink:href="#DejaVuSans-6e" x="726.802734"/>
      <use xlink:href="#DejaVuSans-20" x="790.181641"/>
      <use xlink:href="#DejaVuSans-32" x="821.96875"/>
      <use xlink:href="#DejaVuSans-31" x="885.591797"/>
      <use xlink:href="#DejaVuSans-30" x="949.214844"/>
      <use xlink:href="#DejaVuSans-30" x="1012.837891"/>
     </g>
    </g>
    <g id="line2d_18">
     <path d="M 616.971755 155.478813 
L 638.971755 155.478813 
L 660.971755 155.478813 
" style="fill: none; stroke: #74b8f8; stroke-opacity: 0.5; stroke-width: 6; stroke-linecap: square"/>
    </g>
    <g id="text_16">
     <!-- 1.5C (n=2) -->
     <g transform="translate(678.571755 163.178813)scale(0.22 -0.22)">
      <defs>
       <path id="DejaVuSans-2e" d="M 684 794 
L 1344 794 
L 1344 0 
L 684 0 
L 684 794 
z
" transform="scale(0.015625)"/>
       <path id="DejaVuSans-35" d="M 691 4666 
L 3169 4666 
L 3169 4134 
L 1269 4134 
L 1269 2991 
Q 1406 3038 1543 3061 
Q 1681 3084 1819 3084 
Q 2600 3084 3056 2656 
Q 3513 2228 3513 1497 
Q 3513 744 3044 326 
Q 2575 -91 1722 -91 
Q 1428 -91 1123 -41 
Q 819 9 494 109 
L 494 744 
Q 775 591 1075 516 
Q 1375 441 1709 441 
Q 2250 441 2565 725 
Q 2881 1009 2881 1497 
Q 2881 1984 2565 2268 
Q 2250 2553 1709 2553 
Q 1456 2553 1204 2497 
Q 953 2441 691 2322 
L 691 4666 
z
" transform="scale(0.015625)"/>
       <path id="DejaVuSans-b0" d="M 1600 4347 
Q 1350 4347 1178 4173 
Q 1006 4000 1006 3750 
Q 1006 3503 1178 3333 
Q 1350 3163 1600 3163 
Q 1850 3163 2022 3333 
Q 2194 3503 2194 3750 
Q 2194 3997 2020 4172 
Q 1847 4347 1600 4347 
z
M 1600 4750 
Q 1800 4750 1984 4673 
Q 2169 4597 2303 4453 
Q 2447 4313 2519 4134 
Q 2591 3956 2591 3750 
Q 2591 3338 2302 3052 
Q 2013 2766 1594 2766 
Q 1172 2766 890 3047 
Q 609 3328 609 3750 
Q 609 4169 896 4459 
Q 1184 4750 1600 4750 
z
" transform="scale(0.015625)"/>
       <path id="DejaVuSans-43" d="M 4122 4306 
L 4122 3641 
Q 3803 3938 3442 4084 
Q 3081 4231 2675 4231 
Q 1875 4231 1450 3742 
Q 1025 3253 1025 2328 
Q 1025 1406 1450 917 
Q 1875 428 2675 428 
Q 3081 428 3442 575 
Q 3803 722 4122 1019 
L 4122 359 
Q 3791 134 3420 21 
Q 3050 -91 2638 -91 
Q 1578 -91 968 557 
Q 359 1206 359 2328 
Q 359 3453 968 4101 
Q 1578 4750 2638 4750 
Q 3056 4750 3426 4639 
Q 3797 4528 4122 4306 
z
" transform="scale(0.015625)"/>
       <path id="DejaVuSans-28" d="M 1984 4856 
Q 1566 4138 1362 3434 
Q 1159 2731 1159 2009 
Q 1159 1288 1364 580 
Q 1569 -128 1984 -844 
L 1484 -844 
Q 1016 -109 783 600 
Q 550 1309 550 2009 
Q 550 2706 781 3412 
Q 1013 4119 1484 4856 
L 1984 4856 
z
" transform="scale(0.015625)"/>
       <path id="DejaVuSans-3d" d="M 678 2906 
L 4684 2906 
L 4684 2381 
L 678 2381 
L 678 2906 
z
M 678 1631 
L 4684 1631 
L 4684 1100 
L 678 1100 
L 678 1631 
z
" transform="scale(0.015625)"/>
       <path id="DejaVuSans-29" d="M 513 4856 
L 1013 4856 
Q 1481 4119 1714 3412 
Q 1947 2706 1947 2009 
Q 1947 1309 1714 600 
Q 1481 -109 1013 -844 
L 513 -844 
Q 928 -128 1133 580 
Q 1338 1288 1338 2009 
Q 1338 2731 1133 3434 
Q 928 4138 513 4856 
z
" transform="scale(0.015625)"/>
      </defs>
      <use xlink:href="#DejaVuSans-31"/>
      <use xlink:href="#DejaVuSans-2e" x="63.623047"/>
      <use xlink:href="#DejaVuSans-35" x="95.410156"/>
      <use xlink:href="#DejaVuSans-b0" x="159.033203"/>
      <use xlink:href="#DejaVuSans-43" x="209.033203"/>
      <use xlink:href="#DejaVuSans-20" x="278.857422"/>
      <use xlink:href="#DejaVuSans-28" x="310.644531"/>
      <use xlink:href="#DejaVuSans-6e" x="349.658203"/>
      <use xlink:href="#DejaVuSans-3d" x="413.037109"/>
      <use xlink:href="#DejaVuSans-32" x="496.826172"/>
      <use xlink:href="#DejaVuSans-29" x="560.449219"/>
     </g>
    </g>
    <g id="line2d_19">
     <path d="M 616.971755 180.070688 
L 638.971755 180.070688 
L 660.971755 180.070688 
" style="fill: none; stroke: #f47100; stroke-opacity: 0.5; stroke-width: 6; stroke-linecap: square"/>
    </g>
    <g id="text_17">
     <!-- 2.2C (n=14) -->
     <g transform="translate(678.571755 187.770688)scale(0.22 -0.22)">
      <use xlink:href="#DejaVuSans-32"/>
      <use xlink:href="#DejaVuSans-2e" x="63.623047"/>
      <use xlink:href="#DejaVuSans-32" x="95.410156"/>
      <use xlink:href="#DejaVuSans-b0" x="159.033203"/>
      <use xlink:href="#DejaVuSans-43" x="209.033203"/>
      <use xlink:href="#DejaVuSans-20" x="278.857422"/>
      <use xlink:href="#DejaVuSans-28" x="310.644531"/>
      <use xlink:href="#DejaVuSans-6e" x="349.658203"/>
      <use xlink:href="#DejaVuSans-3d" x="413.037109"/>
      <use xlink:href="#DejaVuSans-31" x="496.826172"/>
      <use xlink:href="#DejaVuSans-34" x="560.449219"/>
      <use xlink:href="#DejaVuSans-29" x="624.072266"/>
     </g>
    </g>
    <g id="line2d_20">
     <path d="M 616.971755 204.662563 
L 638.971755 204.662563 
L 660.971755 204.662563 
" style="fill: none; stroke: #d01e04; stroke-opacity: 0.5; stroke-width: 6; stroke-linecap: square"/>
    </g>
    <g id="text_18">
     <!-- 2.8C (n=12) -->
     <g transform="translate(678.571755 212.362563)scale(0.22 -0.22)">
      <use xlink:href="#DejaVuSans-32"/>
      <use xlink:href="#DejaVuSans-2e" x="63.623047"/>
      <use xlink:href="#DejaVuSans-38" x="95.410156"/>
      <use xlink:href="#DejaVuSans-b0" x="159.033203"/>
      <use xlink:href="#DejaVuSans-43" x="209.033203"/>
      <use xlink:href="#DejaVuSans-20" x="278.857422"/>
      <use xlink:href="#DejaVuSans-28" x="310.644531"/>
      <use xlink:href="#DejaVuSans-6e" x="349.658203"/>
      <use xlink:href="#DejaVuSans-3d" x="413.037109"/>
      <use xlink:href="#DejaVuSans-31" x="496.826172"/>
      <use xlink:href="#DejaVuSans-32" x="560.449219"/>
      <use xlink:href="#DejaVuSans-29" x="624.072266"/>
     </g>
    </g>
   </g>
  </g>
 </g>
 <defs>
  <clipPath id="p7aa2bc2e09">
   <rect x="109.64" y="52.8" width="749.280192" height="462.76"/>
  </clipPath>
 </defs>
</svg>
