<?xml version="1.0" encoding="utf-8" standalone="no"?>
<!DOCTYPE svg PUBLIC "-//W3C//DTD SVG 1.1//EN"
  "http://www.w3.org/Graphics/SVG/1.1/DTD/svg11.dtd">
<svg xmlns:xlink="http://www.w3.org/1999/xlink" width="900pt" height="600pt" viewBox="0 0 900 600" xmlns="http://www.w3.org/2000/svg" version="1.1">
 <metadata>
  <rdf:RDF xmlns:dc="http://purl.org/dc/elements/1.1/" xmlns:cc="http://creativecommons.org/ns#" xmlns:rdf="http://www.w3.org/1999/02/22-rdf-syntax-ns#">
   <cc:Work>
    <dc:type rdf:resource="http://purl.org/dc/dcmitype/StillImage"/>
    <dc:date>2024-10-31T18:28:35.164863</dc:date>
    <dc:format>image/svg+xml</dc:format>
    <dc:creator>
     <cc:Agent>
      <dc:title>Matplotlib v3.5.3, https://matplotlib.org/</dc:title>
     </cc:Agent>
    </dc:creator>
   </cc:Work>
  </rdf:RDF>
 </metadata>
 <defs>
  <style type="text/css">*{stroke-linejoin: round; stroke-linecap: butt}</style>
 </defs>
 <g id="figure_1">
  <g id="patch_1">
   <path d="M 0 600 
L 900 600 
L 900 0 
L 0 0 
z
" style="fill: #ffffff"/>
  </g>
  <g id="axes_1">
   <g id="patch_2">
    <path d="M 109.64 515.56 
L 858.920192 515.56 
L 858.920192 52.8 
L 109.64 52.8 
z
" style="fill: #ffffff"/>
   </g>
   <g id="PolyCollection_1">
    <defs>
     <path id="m94c7e16fa3" d="M 167.276938 -447.581193 
L 167.276938 -447.056003 
L 169.678477 -439.392875 
L 172.080016 -431.665704 
L 174.481555 -423.554681 
L 176.883094 -415.37588 
L 179.284633 -407.279417 
L 181.686172 -399.25005 
L 184.087711 -391.274872 
L 186.48925 -383.257028 
L 188.89079 -375.234597 
L 191.292329 -367.278792 
L 193.693868 -359.450523 
L 196.095407 -352.086086 
L 198.496946 -344.877871 
L 200.898485 -337.625587 
L 203.300024 -330.469208 
L 205.701563 -323.273841 
L 208.103102 -316.298489 
L 210.504641 -309.522907 
L 212.90618 -303.239338 
L 215.307719 -297.186792 
L 217.709259 -291.264677 
L 220.110798 -285.37587 
L 222.512337 -279.847105 
L 224.913876 -274.538187 
L 227.315415 -269.581279 
L 229.716954 -264.728769 
L 232.118493 -260.038226 
L 234.520032 -255.641499 
L 236.921571 -251.425877 
L 239.32311 -247.374574 
L 241.724649 -243.631362 
L 244.126188 -239.957459 
L 246.527727 -236.360078 
L 248.929267 -232.89582 
L 251.330806 -229.692416 
L 253.732345 -226.780813 
L 256.133884 -224.065591 
L 258.535423 -221.595571 
L 260.936962 -219.305885 
L 263.338501 -217.235492 
L 265.74004 -215.35296 
L 268.141579 -213.657564 
L 270.543118 -212.144489 
L 272.944657 -210.743509 
L 275.346196 -209.393351 
L 277.747735 -208.182635 
L 280.149275 -206.974228 
L 282.550814 -205.759395 
L 284.952353 -204.640676 
L 287.353892 -203.654418 
L 289.755431 -202.661171 
L 292.15697 -201.763808 
L 294.558509 -201.10159 
L 296.960048 -200.565919 
L 299.361587 -200.041963 
L 301.763126 -199.44497 
L 304.164665 -198.927776 
L 306.566204 -198.500642 
L 308.967743 -198.029508 
L 311.369283 -197.59992 
L 313.770822 -197.157132 
L 316.172361 -196.758187 
L 318.5739 -196.238718 
L 320.975439 -195.690171 
L 323.376978 -195.203447 
L 325.778517 -194.825295 
L 328.180056 -194.445256 
L 330.581595 -194.227896 
L 332.983134 -193.992641 
L 335.384673 -193.762734 
L 337.786212 -193.584427 
L 340.187751 -193.315158 
L 342.589291 -192.998074 
L 344.99083 -192.704307 
L 347.392369 -192.443257 
L 349.793908 -192.211572 
L 352.195447 -191.954554 
L 354.596986 -191.63869 
L 356.998525 -191.414927 
L 359.400064 -191.17178 
L 361.801603 -190.952744 
L 364.203142 -190.782163 
L 366.604681 -190.609021 
L 369.00622 -190.572787 
L 371.407759 -190.531403 
L 373.809299 -190.479834 
L 376.210838 -190.395887 
L 378.612377 -190.303101 
L 381.013916 -190.215706 
L 383.415455 -190.031094 
L 385.816994 -189.910685 
L 388.218533 -189.879976 
L 390.620072 -189.874715 
L 393.021611 -189.90628 
L 395.42315 -189.905945 
L 397.824689 -189.997843 
L 400.226228 -190.17332 
L 402.627768 -190.367088 
L 405.029307 -190.48775 
L 407.430846 -190.628402 
L 409.832385 -190.693393 
L 412.233924 -190.638085 
L 414.635463 -190.593492 
L 417.037002 -190.460212 
L 419.438541 -190.348029 
L 421.84008 -190.203346 
L 424.241619 -190.083305 
L 426.643158 -189.981285 
L 429.044697 -189.904522 
L 431.446236 -189.875797 
L 433.847776 -189.903587 
L 436.249315 -189.910235 
L 438.650854 -189.866838 
L 441.052393 -189.872599 
L 443.453932 -189.889336 
L 445.855471 -189.863621 
L 448.25701 -189.798816 
L 450.658549 -189.815999 
L 453.060088 -189.955989 
L 455.461627 -190.073073 
L 457.863166 -190.232253 
L 460.264705 -190.473391 
L 462.666244 -190.721924 
L 465.067784 -190.977625 
L 467.469323 -191.230918 
L 469.870862 -191.519755 
L 472.272401 -191.911616 
L 474.67394 -192.14233 
L 477.075479 -192.327685 
L 479.477018 -192.582349 
L 481.878557 -192.761788 
L 484.280096 -192.982842 
L 486.681635 -193.308056 
L 489.083174 -193.588327 
L 491.484713 -193.824441 
L 493.886252 -194.112268 
L 496.287792 -194.395651 
L 498.689331 -194.598056 
L 501.09087 -194.696509 
L 503.492409 -194.825732 
L 505.893948 -194.988395 
L 508.295487 -195.244128 
L 510.697026 -195.583332 
L 513.098565 -195.908025 
L 515.500104 -196.185835 
L 517.901643 -196.423069 
L 520.303182 -196.551601 
L 522.704721 -196.804803 
L 525.10626 -197.05736 
L 527.5078 -197.291316 
L 529.909339 -197.495535 
L 532.310878 -197.677954 
L 534.712417 -197.756539 
L 537.113956 -197.880798 
L 539.515495 -198.094812 
L 541.917034 -198.368243 
L 544.318573 -198.628868 
L 546.720112 -198.911064 
L 549.121651 -199.270884 
L 551.52319 -199.670096 
L 553.924729 -200.040488 
L 556.326268 -200.279141 
L 558.727808 -200.464674 
L 561.129347 -200.691153 
L 563.530886 -200.958408 
L 565.932425 -201.24755 
L 568.333964 -201.518745 
L 570.735503 -201.741349 
L 573.137042 -201.957222 
L 575.538581 -202.228801 
L 577.94012 -202.567609 
L 580.341659 -203.016746 
L 582.743198 -203.558785 
L 585.144737 -204.033912 
L 587.546277 -204.507804 
L 589.947816 -204.889809 
L 592.349355 -205.31487 
L 594.750894 -205.714782 
L 597.152433 -206.100344 
L 599.553972 -206.529661 
L 601.955511 -206.985075 
L 604.35705 -207.570543 
L 606.758589 -208.160717 
L 609.160128 -208.746795 
L 611.561667 -209.326275 
L 613.963206 -209.885958 
L 616.364745 -210.535726 
L 618.766285 -211.229106 
L 621.167824 -211.951854 
L 623.569363 -212.587603 
L 625.970902 -213.247094 
L 628.372441 -213.750919 
L 630.77398 -214.1829 
L 633.175519 -214.650007 
L 635.577058 -215.029715 
L 637.978597 -215.448368 
L 640.380136 -215.874912 
L 642.781675 -216.32313 
L 645.183214 -216.77093 
L 647.584753 -217.118178 
L 649.986293 -217.497961 
L 652.387832 -217.806593 
L 654.789371 -218.093956 
L 657.19091 -218.352607 
L 659.592449 -218.593046 
L 661.993988 -218.852596 
L 664.395527 -219.022743 
L 666.797066 -219.172988 
L 669.198605 -219.288676 
L 671.600144 -219.352767 
L 674.001683 -219.327075 
L 676.403222 -219.438597 
L 678.804761 -219.544221 
L 681.206301 -219.650542 
L 683.60784 -219.741617 
L 686.009379 -219.698169 
L 688.410918 -219.607221 
L 690.812457 -219.484586 
L 693.213996 -219.438854 
L 695.615535 -219.358909 
L 698.017074 -219.27281 
L 700.418613 -219.186167 
L 702.820152 -219.044816 
L 705.221691 -218.901124 
L 707.62323 -218.85597 
L 710.024769 -218.79983 
L 712.426309 -218.82488 
L 714.827848 -218.828272 
L 717.229387 -218.84697 
L 719.630926 -218.988267 
L 722.032465 -219.222311 
L 724.434004 -219.353195 
L 726.835543 -219.632529 
L 729.237082 -219.899348 
L 731.638621 -220.220255 
L 734.04016 -220.64315 
L 736.441699 -221.128731 
L 738.843238 -221.658182 
L 741.244777 -222.083742 
L 743.646317 -222.627679 
L 746.047856 -223.222856 
L 748.449395 -223.808372 
L 750.850934 -224.443157 
L 753.252473 -225.09573 
L 755.654012 -225.649747 
L 758.055551 -226.244906 
L 760.45709 -226.708556 
L 762.858629 -227.218571 
L 765.260168 -227.796481 
L 767.661707 -228.224232 
L 770.063246 -228.528186 
L 772.464786 -228.842699 
L 774.866325 -229.086715 
L 777.267864 -229.305218 
L 779.669403 -229.540899 
L 782.070942 -229.874165 
L 784.472481 -230.103826 
L 786.87402 -230.318956 
L 789.275559 -230.625219 
L 791.677098 -230.857267 
L 794.078637 -230.983731 
L 796.480176 -231.147438 
L 798.881715 -231.33379 
L 801.283254 -231.591486 
L 803.684794 -231.904622 
L 806.086333 -232.115784 
L 808.487872 -232.519365 
L 810.889411 -232.921995 
L 813.29095 -233.31706 
L 815.692489 -233.750322 
L 818.094028 -234.01199 
L 820.495567 -234.300228 
L 822.897106 -234.547997 
L 825.298645 -234.818888 
L 827.700184 -235.106512 
L 830.101723 -235.275076 
L 832.503262 -235.566032 
L 834.904802 -235.853277 
L 837.306341 -236.056777 
L 837.306341 -256.616403 
L 837.306341 -256.616403 
L 834.904802 -256.386422 
L 832.503262 -256.081522 
L 830.101723 -255.754776 
L 827.700184 -255.556708 
L 825.298645 -255.228395 
L 822.897106 -254.930562 
L 820.495567 -254.652727 
L 818.094028 -254.333906 
L 815.692489 -254.047979 
L 813.29095 -253.578472 
L 810.889411 -253.131865 
L 808.487872 -252.672074 
L 806.086333 -252.206651 
L 803.684794 -251.955915 
L 801.283254 -251.595493 
L 798.881715 -251.288609 
L 796.480176 -251.057248 
L 794.078637 -250.858253 
L 791.677098 -250.702689 
L 789.275559 -250.445775 
L 786.87402 -250.08768 
L 784.472481 -249.806344 
L 782.070942 -249.509873 
L 779.669403 -249.0971 
L 777.267864 -248.782795 
L 774.866325 -248.473736 
L 772.464786 -248.130309 
L 770.063246 -247.68274 
L 767.661707 -247.238274 
L 765.260168 -246.651692 
L 762.858629 -245.89536 
L 760.45709 -245.224472 
L 758.055551 -244.630614 
L 755.654012 -243.886332 
L 753.252473 -243.16725 
L 750.850934 -242.337845 
L 748.449395 -241.528297 
L 746.047856 -240.769705 
L 743.646317 -239.973673 
L 741.244777 -239.224114 
L 738.843238 -238.598653 
L 736.441699 -237.882191 
L 734.04016 -237.223655 
L 731.638621 -236.637343 
L 729.237082 -236.159724 
L 726.835543 -235.747789 
L 724.434004 -235.328203 
L 722.032465 -235.100447 
L 719.630926 -234.772341 
L 717.229387 -234.538032 
L 714.827848 -234.45844 
L 712.426309 -234.36784 
L 710.024769 -234.241614 
L 707.62323 -234.205947 
L 705.221691 -234.173895 
L 702.820152 -234.262846 
L 700.418613 -234.361939 
L 698.017074 -234.390382 
L 695.615535 -234.443164 
L 693.213996 -234.498544 
L 690.812457 -234.525132 
L 688.410918 -234.621585 
L 686.009379 -234.69053 
L 683.60784 -234.712355 
L 681.206301 -234.601332 
L 678.804761 -234.472103 
L 676.403222 -234.346873 
L 674.001683 -234.209846 
L 671.600144 -234.218422 
L 669.198605 -234.139885 
L 666.797066 -234.006281 
L 664.395527 -233.84973 
L 661.993988 -233.676633 
L 659.592449 -233.403245 
L 657.19091 -233.152181 
L 654.789371 -232.881751 
L 652.387832 -232.574535 
L 649.986293 -232.247033 
L 647.584753 -231.829513 
L 645.183214 -231.435475 
L 642.781675 -230.926969 
L 640.380136 -230.428488 
L 637.978597 -229.943912 
L 635.577058 -229.464241 
L 633.175519 -229.021544 
L 630.77398 -228.477945 
L 628.372441 -227.982292 
L 625.970902 -227.406316 
L 623.569363 -226.646817 
L 621.167824 -225.910164 
L 618.766285 -225.074801 
L 616.364745 -224.274866 
L 613.963206 -223.505962 
L 611.561667 -222.837248 
L 609.160128 -222.143532 
L 606.758589 -221.435302 
L 604.35705 -220.713419 
L 601.955511 -220.007515 
L 599.553972 -219.449099 
L 597.152433 -218.927322 
L 594.750894 -218.466947 
L 592.349355 -217.986655 
L 589.947816 -217.488841 
L 587.546277 -217.034186 
L 585.144737 -216.476583 
L 582.743198 -215.91842 
L 580.341659 -215.289286 
L 577.94012 -214.766686 
L 575.538581 -214.377383 
L 573.137042 -214.067551 
L 570.735503 -213.79432 
L 568.333964 -213.504917 
L 565.932425 -213.169325 
L 563.530886 -212.82005 
L 561.129347 -212.491696 
L 558.727808 -212.212555 
L 556.326268 -211.987228 
L 553.924729 -211.689807 
L 551.52319 -211.25827 
L 549.121651 -210.784388 
L 546.720112 -210.353956 
L 544.318573 -210.008681 
L 541.917034 -209.670862 
L 539.515495 -209.336457 
L 537.113956 -209.069838 
L 534.712417 -208.918736 
L 532.310878 -208.798809 
L 529.909339 -208.559293 
L 527.5078 -208.286842 
L 525.10626 -207.977901 
L 522.704721 -207.657407 
L 520.303182 -207.351033 
L 517.901643 -207.187852 
L 515.500104 -206.916149 
L 513.098565 -206.606968 
L 510.697026 -206.245044 
L 508.295487 -205.862719 
L 505.893948 -205.581044 
L 503.492409 -205.391853 
L 501.09087 -205.243732 
L 498.689331 -205.134514 
L 496.287792 -204.89414 
L 493.886252 -204.58508 
L 491.484713 -204.262318 
L 489.083174 -203.990404 
L 486.681635 -203.661206 
L 484.280096 -203.296695 
L 481.878557 -203.051881 
L 479.477018 -202.865862 
L 477.075479 -202.597961 
L 474.67394 -202.419737 
L 472.272401 -202.191094 
L 469.870862 -201.78634 
L 467.469323 -201.479114 
L 465.067784 -201.205633 
L 462.666244 -200.917598 
L 460.264705 -200.617427 
L 457.863166 -200.326001 
L 455.461627 -200.131665 
L 453.060088 -199.980525 
L 450.658549 -199.801463 
L 448.25701 -199.770281 
L 445.855471 -199.819303 
L 443.453932 -199.824153 
L 441.052393 -199.788063 
L 438.650854 -199.756035 
L 436.249315 -199.781665 
L 433.847776 -199.74032 
L 431.446236 -199.670428 
L 429.044697 -199.666741 
L 426.643158 -199.710318 
L 424.241619 -199.773218 
L 421.84008 -199.845826 
L 419.438541 -199.9518 
L 417.037002 -200.031235 
L 414.635463 -200.139888 
L 412.233924 -200.170186 
L 409.832385 -200.206268 
L 407.430846 -200.111512 
L 405.029307 -199.945749 
L 402.627768 -199.793644 
L 400.226228 -199.563541 
L 397.824689 -199.352759 
L 395.42315 -199.226582 
L 393.021611 -199.208987 
L 390.620072 -199.151195 
L 388.218533 -199.120797 
L 385.816994 -199.1315 
L 383.415455 -199.214476 
L 381.013916 -199.372307 
L 378.612377 -199.416138 
L 376.210838 -199.471467 
L 373.809299 -199.529174 
L 371.407759 -199.548542 
L 369.00622 -199.557661 
L 366.604681 -199.576335 
L 364.203142 -199.735447 
L 361.801603 -199.902831 
L 359.400064 -200.127684 
L 356.998525 -200.373686 
L 354.596986 -200.588925 
L 352.195447 -200.886236 
L 349.793908 -201.122942 
L 347.392369 -201.336166 
L 344.99083 -201.564635 
L 342.589291 -201.842809 
L 340.187751 -202.146853 
L 337.786212 -202.404273 
L 335.384673 -202.585922 
L 332.983134 -202.802962 
L 330.581595 -203.041279 
L 328.180056 -203.259127 
L 325.778517 -203.631757 
L 323.376978 -204.021069 
L 320.975439 -204.508462 
L 318.5739 -205.03586 
L 316.172361 -205.537877 
L 313.770822 -205.90139 
L 311.369283 -206.308302 
L 308.967743 -206.696133 
L 306.566204 -207.146324 
L 304.164665 -207.559414 
L 301.763126 -208.066282 
L 299.361587 -208.655325 
L 296.960048 -209.168172 
L 294.558509 -209.685553 
L 292.15697 -210.335825 
L 289.755431 -211.214137 
L 287.353892 -212.186398 
L 284.952353 -213.161177 
L 282.550814 -214.268484 
L 280.149275 -215.481602 
L 277.747735 -216.718026 
L 275.346196 -217.93123 
L 272.944657 -219.274304 
L 270.543118 -220.693036 
L 268.141579 -222.226764 
L 265.74004 -223.977649 
L 263.338501 -225.910136 
L 260.936962 -228.049125 
L 258.535423 -230.394317 
L 256.133884 -232.932177 
L 253.732345 -235.702124 
L 251.330806 -238.654773 
L 248.929267 -241.902929 
L 246.527727 -245.390595 
L 244.126188 -249.010246 
L 241.724649 -252.704795 
L 239.32311 -256.491229 
L 236.921571 -260.559707 
L 234.520032 -264.786107 
L 232.118493 -269.187944 
L 229.716954 -273.8481 
L 227.315415 -278.685838 
L 224.913876 -283.640174 
L 222.512337 -288.924707 
L 220.110798 -294.432783 
L 217.709259 -300.246114 
L 215.307719 -306.090321 
L 212.90618 -312.056024 
L 210.504641 -318.205117 
L 208.103102 -324.773511 
L 205.701563 -331.480922 
L 203.300024 -338.358478 
L 200.898485 -345.201596 
L 198.496946 -352.132544 
L 196.095407 -359.022734 
L 193.693868 -366.048852 
L 191.292329 -373.446648 
L 188.89079 -380.972126 
L 186.48925 -388.45835 
L 184.087711 -395.897177 
L 181.686172 -403.296413 
L 179.284633 -410.878157 
L 176.883094 -418.477329 
L 174.481555 -426.001066 
L 172.080016 -433.33005 
L 169.678477 -440.442602 
L 167.276938 -447.581193 
z
" style="stroke: #74b8f8; stroke-opacity: 0.2"/>
    </defs>
    <g clip-path="url(#p8182be9009)">
     <use xlink:href="#m94c7e16fa3" x="0" y="600" style="fill: #74b8f8; fill-opacity: 0.2; stroke: #74b8f8; stroke-opacity: 0.2"/>
    </g>
   </g>
   <g id="PolyCollection_2">
    <defs>
     <path id="me4d16ce638" d="M 116.844617 -542.568616 
L 116.844617 -540.417646 
L 119.246156 -537.972305 
L 121.647695 -535.497363 
L 124.049234 -532.954462 
L 126.450774 -530.510537 
L 128.852313 -528.13422 
L 131.253852 -525.591092 
L 133.655391 -522.951101 
L 136.05693 -520.217985 
L 138.458469 -517.435109 
L 140.860008 -514.696895 
L 143.261547 -509.619486 
L 145.663086 -504.229141 
L 148.064625 -498.462837 
L 150.466164 -492.579074 
L 152.867703 -486.589754 
L 155.269242 -480.41678 
L 157.670782 -474.258995 
L 160.072321 -467.911127 
L 162.47386 -461.450626 
L 164.875399 -454.648 
L 164.875399 -454.648 
L 164.875399 -454.648 
L 162.47386 -462.003949 
L 160.072321 -468.80414 
L 157.670782 -475.397763 
L 155.269242 -481.744669 
L 152.867703 -488.198791 
L 150.466164 -494.447087 
L 148.064625 -500.536646 
L 145.663086 -506.535391 
L 143.261547 -512.079234 
L 140.860008 -517.299299 
L 138.458469 -520.069328 
L 136.05693 -522.846302 
L 133.655391 -525.558513 
L 131.253852 -528.345433 
L 128.852313 -530.985272 
L 126.450774 -533.231276 
L 124.049234 -535.343608 
L 121.647695 -537.721427 
L 119.246156 -540.159573 
L 116.844617 -542.568616 
z
" style="stroke: #000000; stroke-opacity: 0.2"/>
    </defs>
    <g clip-path="url(#p8182be9009)">
     <use xlink:href="#me4d16ce638" x="0" y="600" style="fill-opacity: 0.2; stroke: #000000; stroke-opacity: 0.2"/>
    </g>
   </g>
   <g id="PolyCollection_3">
    <defs>
     <path id="mc2768fb3b8" d="M 167.276938 -448.565681 
L 167.276938 -447.380373 
L 169.678477 -439.905625 
L 172.080016 -432.4024 
L 174.481555 -424.805153 
L 176.883094 -416.978003 
L 179.284633 -409.063383 
L 181.686172 -401.067513 
L 184.087711 -393.089746 
L 186.48925 -385.086426 
L 188.89079 -377.452482 
L 191.292329 -369.555757 
L 193.693868 -361.793963 
L 196.095407 -354.366154 
L 198.496946 -346.15215 
L 200.898485 -338.035882 
L 203.300024 -330.804321 
L 205.701563 -324.042594 
L 208.103102 -317.489528 
L 210.504641 -311.036674 
L 212.90618 -304.696095 
L 215.307719 -298.487209 
L 217.709259 -292.372189 
L 220.110798 -286.461115 
L 222.512337 -280.549905 
L 224.913876 -274.615217 
L 227.315415 -268.748304 
L 229.716954 -263.05235 
L 232.118493 -257.324066 
L 234.520032 -251.300011 
L 236.921571 -245.482213 
L 239.32311 -239.97168 
L 241.724649 -234.341831 
L 244.126188 -228.951827 
L 246.527727 -223.678938 
L 248.929267 -218.617006 
L 251.330806 -213.717304 
L 253.732345 -209.031611 
L 256.133884 -204.577606 
L 258.535423 -200.587148 
L 260.936962 -197.233362 
L 263.338501 -193.560844 
L 265.74004 -189.884286 
L 268.141579 -186.366799 
L 270.543118 -183.337142 
L 272.944657 -180.512852 
L 275.346196 -177.805706 
L 277.747735 -175.285649 
L 280.149275 -172.639224 
L 282.550814 -170.151436 
L 284.952353 -167.789669 
L 287.353892 -165.549036 
L 289.755431 -163.499818 
L 292.15697 -161.518816 
L 294.558509 -159.628787 
L 296.960048 -157.864732 
L 299.361587 -156.181077 
L 301.763126 -154.271785 
L 304.164665 -152.470977 
L 306.566204 -150.983518 
L 308.967743 -149.963834 
L 311.369283 -149.006268 
L 313.770822 -148.103506 
L 316.172361 -147.216453 
L 318.5739 -146.391345 
L 320.975439 -145.612013 
L 323.376978 -144.90695 
L 325.778517 -144.226841 
L 328.180056 -143.60929 
L 330.581595 -143.050463 
L 332.983134 -142.499305 
L 335.384673 -141.973237 
L 337.786212 -141.479469 
L 340.187751 -140.991862 
L 342.589291 -140.524375 
L 344.99083 -140.084822 
L 347.392369 -139.66728 
L 349.793908 -139.248072 
L 352.195447 -138.851994 
L 354.596986 -138.501301 
L 356.998525 -138.188034 
L 359.400064 -137.895553 
L 361.801603 -137.657503 
L 364.203142 -137.478293 
L 366.604681 -137.317565 
L 369.00622 -137.174493 
L 371.407759 -137.017745 
L 373.809299 -136.84481 
L 376.210838 -136.617062 
L 378.612377 -136.363948 
L 381.013916 -136.180411 
L 383.415455 -136.046601 
L 385.816994 -135.907624 
L 388.218533 -135.775194 
L 390.620072 -135.657659 
L 393.021611 -135.551354 
L 395.42315 -135.43069 
L 397.824689 -135.276804 
L 400.226228 -135.091524 
L 402.627768 -134.937774 
L 405.029307 -134.789587 
L 407.430846 -134.653196 
L 409.832385 -134.493756 
L 412.233924 -134.309445 
L 414.635463 -134.090272 
L 417.037002 -133.866482 
L 419.438541 -133.663667 
L 421.84008 -133.458722 
L 424.241619 -133.246992 
L 426.643158 -133.051537 
L 429.044697 -132.811428 
L 431.446236 -132.579495 
L 433.847776 -132.370545 
L 436.249315 -132.136772 
L 438.650854 -131.94779 
L 441.052393 -131.7524 
L 443.453932 -131.573966 
L 445.855471 -131.382502 
L 448.25701 -131.211105 
L 450.658549 -131.025261 
L 453.060088 -130.860054 
L 455.461627 -130.70637 
L 457.863166 -130.560289 
L 460.264705 -130.455515 
L 462.666244 -130.391534 
L 465.067784 -130.318639 
L 467.469323 -130.243628 
L 469.870862 -130.151882 
L 472.272401 -130.051196 
L 474.67394 -129.925575 
L 477.075479 -129.687373 
L 479.477018 -129.409571 
L 481.878557 -129.157434 
L 484.280096 -128.925866 
L 486.681635 -128.713179 
L 489.083174 -128.491438 
L 491.484713 -128.275631 
L 493.886252 -128.08956 
L 496.287792 -128.185381 
L 498.689331 -128.291603 
L 501.09087 -128.306115 
L 503.492409 -128.285022 
L 505.893948 -128.278581 
L 508.295487 -128.273279 
L 510.697026 -128.259348 
L 513.098565 -128.241837 
L 515.500104 -128.231812 
L 517.901643 -128.20236 
L 520.303182 -128.162203 
L 522.704721 -128.059048 
L 525.10626 -127.958682 
L 527.5078 -127.875854 
L 529.909339 -127.796908 
L 532.310878 -127.739388 
L 534.712417 -127.696009 
L 537.113956 -127.631963 
L 539.515495 -127.58776 
L 541.917034 -127.569685 
L 544.318573 -127.555178 
L 546.720112 -127.521563 
L 549.121651 -127.502974 
L 551.52319 -127.501999 
L 553.924729 -127.494609 
L 556.326268 -127.475769 
L 558.727808 -127.472271 
L 561.129347 -127.474668 
L 563.530886 -127.484331 
L 565.932425 -127.483435 
L 568.333964 -127.480627 
L 570.735503 -127.462193 
L 573.137042 -127.462818 
L 575.538581 -127.443493 
L 577.94012 -127.452312 
L 580.341659 -127.456155 
L 582.743198 -127.443076 
L 585.144737 -127.453113 
L 587.546277 -127.446717 
L 589.947816 -127.419021 
L 592.349355 -127.380372 
L 594.750894 -127.353263 
L 597.152433 -127.313656 
L 599.553972 -127.273187 
L 601.955511 -127.219287 
L 604.35705 -127.175879 
L 606.758589 -127.105511 
L 609.160128 -127.028367 
L 611.561667 -126.947273 
L 613.963206 -126.888259 
L 616.364745 -126.822352 
L 618.766285 -126.755841 
L 621.167824 -126.687532 
L 623.569363 -126.604245 
L 625.970902 -126.514167 
L 628.372441 -126.439648 
L 630.77398 -126.378851 
L 633.175519 -126.328584 
L 635.577058 -126.27138 
L 637.978597 -126.224029 
L 640.380136 -126.190975 
L 642.781675 -126.166646 
L 645.183214 -126.150932 
L 647.584753 -126.104368 
L 649.986293 -126.056967 
L 652.387832 -126.011608 
L 654.789371 -125.980422 
L 657.19091 -125.970238 
L 659.592449 -125.94608 
L 661.993988 -125.90591 
L 664.395527 -125.863885 
L 666.797066 -125.839704 
L 669.198605 -125.813756 
L 671.600144 -125.805155 
L 674.001683 -125.79261 
L 676.403222 -125.755319 
L 678.804761 -125.731058 
L 681.206301 -125.711855 
L 683.60784 -125.710533 
L 686.009379 -125.686951 
L 688.410918 -125.665557 
L 690.812457 -125.639912 
L 693.213996 -125.604293 
L 695.615535 -125.563248 
L 698.017074 -125.541039 
L 700.418613 -125.521715 
L 702.820152 -125.50948 
L 705.221691 -125.477207 
L 707.62323 -125.467346 
L 710.024769 -125.482822 
L 712.426309 -125.503835 
L 714.827848 -125.514148 
L 717.229387 -125.526278 
L 719.630926 -125.542162 
L 722.032465 -125.555563 
L 724.434004 -125.582847 
L 726.835543 -125.609127 
L 729.237082 -125.631492 
L 731.638621 -125.672841 
L 734.04016 -125.711632 
L 736.441699 -125.77241 
L 738.843238 -125.832672 
L 741.244777 -125.916089 
L 743.646317 -126.020336 
L 746.047856 -126.142565 
L 748.449395 -126.237109 
L 750.850934 -126.335029 
L 753.252473 -126.439189 
L 755.654012 -126.538503 
L 758.055551 -126.614274 
L 760.45709 -126.675644 
L 762.858629 -126.74081 
L 765.260168 -126.8016 
L 767.661707 -126.860651 
L 770.063246 -126.913475 
L 772.464786 -126.961324 
L 774.866325 -127.009057 
L 777.267864 -127.064948 
L 779.669403 -127.111187 
L 782.070942 -127.174227 
L 784.472481 -127.209207 
L 786.87402 -127.23451 
L 789.275559 -127.251827 
L 791.677098 -127.287097 
L 794.078637 -127.283642 
L 796.480176 -127.330268 
L 798.881715 -127.370644 
L 801.283254 -127.423586 
L 803.684794 -127.486082 
L 806.086333 -127.577745 
L 808.487872 -127.677654 
L 810.889411 -127.775324 
L 813.29095 -127.888514 
L 815.692489 -128.021498 
L 818.094028 -128.085573 
L 820.495567 -128.159325 
L 822.897106 -128.228099 
L 825.298645 -128.289371 
L 827.700184 -128.345852 
L 830.101723 -128.40222 
L 832.503262 -128.474516 
L 834.904802 -128.577115 
L 837.306341 -128.678963 
L 837.306341 -164.454931 
L 837.306341 -164.454931 
L 834.904802 -164.311654 
L 832.503262 -164.168208 
L 830.101723 -164.099288 
L 827.700184 -164.06936 
L 825.298645 -164.013594 
L 822.897106 -163.969036 
L 820.495567 -163.954722 
L 818.094028 -163.941402 
L 815.692489 -163.924564 
L 813.29095 -163.867043 
L 810.889411 -163.796524 
L 808.487872 -163.756698 
L 806.086333 -163.708856 
L 803.684794 -163.647125 
L 801.283254 -163.587696 
L 798.881715 -163.577187 
L 796.480176 -163.610437 
L 794.078637 -163.64309 
L 791.677098 -163.628719 
L 789.275559 -163.601108 
L 786.87402 -163.59086 
L 784.472481 -163.555285 
L 782.070942 -163.50184 
L 779.669403 -163.438413 
L 777.267864 -163.417025 
L 774.866325 -163.389548 
L 772.464786 -163.330115 
L 770.063246 -163.233323 
L 767.661707 -163.124754 
L 765.260168 -162.982487 
L 762.858629 -162.79476 
L 760.45709 -162.605066 
L 758.055551 -162.428284 
L 755.654012 -162.24632 
L 753.252473 -162.076634 
L 750.850934 -161.913073 
L 748.449395 -161.737668 
L 746.047856 -161.54551 
L 743.646317 -161.374325 
L 741.244777 -161.206067 
L 738.843238 -160.992825 
L 736.441699 -160.805178 
L 734.04016 -160.578851 
L 731.638621 -160.307942 
L 729.237082 -160.006455 
L 726.835543 -159.649043 
L 724.434004 -159.26416 
L 722.032465 -158.920476 
L 719.630926 -158.594001 
L 717.229387 -158.286958 
L 714.827848 -157.987142 
L 712.426309 -157.689322 
L 710.024769 -157.36332 
L 707.62323 -157.025145 
L 705.221691 -156.692281 
L 702.820152 -156.364819 
L 700.418613 -156.027636 
L 698.017074 -155.703976 
L 695.615535 -155.400116 
L 693.213996 -155.080917 
L 690.812457 -154.803034 
L 688.410918 -154.51697 
L 686.009379 -154.278653 
L 683.60784 -154.094068 
L 681.206301 -153.933198 
L 678.804761 -153.820556 
L 676.403222 -153.751881 
L 674.001683 -153.705374 
L 671.600144 -153.660666 
L 669.198605 -153.623932 
L 666.797066 -153.57527 
L 664.395527 -153.523292 
L 661.993988 -153.475453 
L 659.592449 -153.446167 
L 657.19091 -153.40146 
L 654.789371 -153.349665 
L 652.387832 -153.334946 
L 649.986293 -153.341497 
L 647.584753 -153.359723 
L 645.183214 -153.417449 
L 642.781675 -153.474094 
L 640.380136 -153.536642 
L 637.978597 -153.571309 
L 635.577058 -153.593612 
L 633.175519 -153.604776 
L 630.77398 -153.628146 
L 628.372441 -153.62345 
L 625.970902 -153.602483 
L 623.569363 -153.613114 
L 621.167824 -153.5854 
L 618.766285 -153.571684 
L 616.364745 -153.52677 
L 613.963206 -153.50775 
L 611.561667 -153.463091 
L 609.160128 -153.421661 
L 606.758589 -153.400113 
L 604.35705 -153.358533 
L 601.955511 -153.329097 
L 599.553972 -153.296094 
L 597.152433 -153.239975 
L 594.750894 -153.182479 
L 592.349355 -153.14863 
L 589.947816 -153.101446 
L 587.546277 -153.011753 
L 585.144737 -152.923146 
L 582.743198 -152.835135 
L 580.341659 -152.731064 
L 577.94012 -152.601416 
L 575.538581 -152.416357 
L 573.137042 -152.262509 
L 570.735503 -152.144048 
L 568.333964 -152.041058 
L 565.932425 -151.915292 
L 563.530886 -151.805664 
L 561.129347 -151.740925 
L 558.727808 -151.682227 
L 556.326268 -151.635577 
L 553.924729 -151.555048 
L 551.52319 -151.48685 
L 549.121651 -151.470609 
L 546.720112 -151.475675 
L 544.318573 -151.502696 
L 541.917034 -151.543832 
L 539.515495 -151.640485 
L 537.113956 -151.728114 
L 534.712417 -151.788817 
L 532.310878 -151.879334 
L 529.909339 -151.979533 
L 527.5078 -152.086869 
L 525.10626 -152.200117 
L 522.704721 -152.244584 
L 520.303182 -152.328632 
L 517.901643 -152.420583 
L 515.500104 -152.501013 
L 513.098565 -152.549426 
L 510.697026 -152.589998 
L 508.295487 -152.533928 
L 505.893948 -152.364269 
L 503.492409 -152.164721 
L 501.09087 -151.986931 
L 498.689331 -151.76885 
L 496.287792 -151.534493 
L 493.886252 -151.352637 
L 491.484713 -151.182369 
L 489.083174 -150.989413 
L 486.681635 -150.818305 
L 484.280096 -150.583957 
L 481.878557 -150.361164 
L 479.477018 -150.1474 
L 477.075479 -149.918679 
L 474.67394 -149.635763 
L 472.272401 -149.341067 
L 469.870862 -149.056078 
L 467.469323 -148.804072 
L 465.067784 -148.51644 
L 462.666244 -148.259273 
L 460.264705 -148.02081 
L 457.863166 -147.784487 
L 455.461627 -147.537061 
L 453.060088 -147.322777 
L 450.658549 -147.12762 
L 448.25701 -146.965877 
L 445.855471 -146.791226 
L 443.453932 -146.612089 
L 441.052393 -146.466149 
L 438.650854 -146.345152 
L 436.249315 -146.274645 
L 433.847776 -146.243028 
L 431.446236 -146.18252 
L 429.044697 -146.202856 
L 426.643158 -146.257182 
L 424.241619 -146.307004 
L 421.84008 -146.364983 
L 419.438541 -146.410259 
L 417.037002 -146.515588 
L 414.635463 -146.630401 
L 412.233924 -146.865394 
L 409.832385 -147.101387 
L 407.430846 -147.380093 
L 405.029307 -147.620781 
L 402.627768 -147.877271 
L 400.226228 -148.158376 
L 397.824689 -148.436235 
L 395.42315 -148.706714 
L 393.021611 -148.97974 
L 390.620072 -149.288717 
L 388.218533 -149.571063 
L 385.816994 -149.839345 
L 383.415455 -150.101338 
L 381.013916 -150.387784 
L 378.612377 -150.905684 
L 376.210838 -151.409575 
L 373.809299 -151.926465 
L 371.407759 -152.484144 
L 369.00622 -153.151595 
L 366.604681 -153.892746 
L 364.203142 -154.591627 
L 361.801603 -155.307123 
L 359.400064 -156.016211 
L 356.998525 -156.735851 
L 354.596986 -157.522152 
L 352.195447 -158.327881 
L 349.793908 -159.125079 
L 347.392369 -159.762901 
L 344.99083 -160.332303 
L 342.589291 -160.894254 
L 340.187751 -161.519701 
L 337.786212 -162.220427 
L 335.384673 -163.042662 
L 332.983134 -164.07991 
L 330.581595 -165.068975 
L 328.180056 -166.097934 
L 325.778517 -167.131024 
L 323.376978 -168.074704 
L 320.975439 -168.960828 
L 318.5739 -169.8628 
L 316.172361 -170.813927 
L 313.770822 -171.802596 
L 311.369283 -172.768849 
L 308.967743 -173.709968 
L 306.566204 -174.852314 
L 304.164665 -176.173108 
L 301.763126 -177.611945 
L 299.361587 -179.349675 
L 296.960048 -181.463274 
L 294.558509 -183.730339 
L 292.15697 -186.147111 
L 289.755431 -188.558492 
L 287.353892 -191.042312 
L 284.952353 -193.663209 
L 282.550814 -196.054614 
L 280.149275 -198.34872 
L 277.747735 -200.834207 
L 275.346196 -203.488328 
L 272.944657 -206.238073 
L 270.543118 -209.178946 
L 268.141579 -212.141504 
L 265.74004 -215.29911 
L 263.338501 -218.619623 
L 260.936962 -222.119397 
L 258.535423 -225.677875 
L 256.133884 -229.272897 
L 253.732345 -233.072935 
L 251.330806 -236.937032 
L 248.929267 -240.879979 
L 246.527727 -245.146173 
L 244.126188 -249.880161 
L 241.724649 -254.774591 
L 239.32311 -259.806695 
L 236.921571 -264.915742 
L 234.520032 -270.179939 
L 232.118493 -275.459675 
L 229.716954 -280.927997 
L 227.315415 -286.689719 
L 224.913876 -292.799436 
L 222.512337 -299.405451 
L 220.110798 -305.354113 
L 217.709259 -311.286401 
L 215.307719 -317.054108 
L 212.90618 -322.846016 
L 210.504641 -329.010209 
L 208.103102 -335.404767 
L 205.701563 -341.792328 
L 203.300024 -348.304953 
L 200.898485 -354.83461 
L 198.496946 -361.248682 
L 196.095407 -368.044855 
L 193.693868 -374.745572 
L 191.292329 -381.678348 
L 188.89079 -388.911702 
L 186.48925 -395.878331 
L 184.087711 -402.854936 
L 181.686172 -409.684886 
L 179.284633 -416.626204 
L 176.883094 -423.279695 
L 174.481555 -429.781475 
L 172.080016 -436.008485 
L 169.678477 -442.244816 
L 167.276938 -448.565681 
z
" style="stroke: #f47100; stroke-opacity: 0.2"/>
    </defs>
    <g clip-path="url(#p8182be9009)">
     <use xlink:href="#mc2768fb3b8" x="0" y="600" style="fill: #f47100; fill-opacity: 0.2; stroke: #f47100; stroke-opacity: 0.2"/>
    </g>
   </g>
   <g id="PolyCollection_4">
    <defs>
     <path id="m9f02a4584f" d="M 116.844617 -543.213681 
L 116.844617 -534.363454 
L 119.246156 -532.131823 
L 121.647695 -529.891422 
L 124.049234 -527.292202 
L 126.450774 -524.708546 
L 128.852313 -522.291457 
L 131.253852 -519.821601 
L 133.655391 -517.275167 
L 136.05693 -514.518244 
L 138.458469 -511.754339 
L 140.860008 -509.073474 
L 143.261547 -504.07351 
L 145.663086 -499.005862 
L 148.064625 -493.852711 
L 150.466164 -488.574093 
L 152.867703 -483.277871 
L 155.269242 -477.726244 
L 157.670782 -472.090759 
L 160.072321 -466.262391 
L 162.47386 -460.431612 
L 164.875399 -454.648 
L 164.875399 -454.648 
L 164.875399 -454.648 
L 162.47386 -461.581051 
L 160.072321 -468.346196 
L 157.670782 -474.939008 
L 155.269242 -481.297623 
L 152.867703 -487.483253 
L 150.466164 -493.679584 
L 148.064625 -499.437023 
L 145.663086 -505.222545 
L 143.261547 -510.402972 
L 140.860008 -515.49248 
L 138.458469 -518.510455 
L 136.05693 -521.258393 
L 133.655391 -524.090489 
L 131.253852 -526.910561 
L 128.852313 -529.422562 
L 126.450774 -532.230599 
L 124.049234 -534.862566 
L 121.647695 -537.479552 
L 119.246156 -540.317492 
L 116.844617 -543.213681 
z
" style="stroke: #000000; stroke-opacity: 0.2"/>
    </defs>
    <g clip-path="url(#p8182be9009)">
     <use xlink:href="#m9f02a4584f" x="0" y="600" style="fill-opacity: 0.2; stroke: #000000; stroke-opacity: 0.2"/>
    </g>
   </g>
   <g id="PolyCollection_5">
    <defs>
     <path id="mfd92b3d255" d="M 167.276938 -448.735257 
L 167.276938 -447.432624 
L 169.678477 -440.031911 
L 172.080016 -432.565915 
L 174.481555 -424.831274 
L 176.883094 -416.952617 
L 179.284633 -408.968641 
L 181.686172 -400.91546 
L 184.087711 -392.988671 
L 186.48925 -384.872274 
L 188.89079 -376.664102 
L 191.292329 -367.982083 
L 193.693868 -358.998855 
L 196.095407 -349.924668 
L 198.496946 -341.125928 
L 200.898485 -332.719067 
L 203.300024 -324.535961 
L 205.701563 -316.478716 
L 208.103102 -308.230597 
L 210.504641 -300.15933 
L 212.90618 -292.276228 
L 215.307719 -284.458593 
L 217.709259 -276.654658 
L 220.110798 -268.889618 
L 222.512337 -261.40928 
L 224.913876 -254.272827 
L 227.315415 -247.350334 
L 229.716954 -240.564312 
L 232.118493 -234.043072 
L 234.520032 -227.712783 
L 236.921571 -221.647151 
L 239.32311 -215.930744 
L 241.724649 -210.518675 
L 244.126188 -205.443596 
L 246.527727 -200.638348 
L 248.929267 -195.986821 
L 251.330806 -191.712226 
L 253.732345 -187.547923 
L 256.133884 -183.607852 
L 258.535423 -179.868203 
L 260.936962 -176.293259 
L 263.338501 -172.961556 
L 265.74004 -169.918612 
L 268.141579 -167.054537 
L 270.543118 -164.334373 
L 272.944657 -161.974711 
L 275.346196 -159.685343 
L 277.747735 -157.539776 
L 280.149275 -155.301318 
L 282.550814 -152.779037 
L 284.952353 -150.448184 
L 287.353892 -148.489456 
L 289.755431 -146.61144 
L 292.15697 -144.836403 
L 294.558509 -143.217747 
L 296.960048 -141.907939 
L 299.361587 -140.643514 
L 301.763126 -139.537667 
L 304.164665 -138.554988 
L 306.566204 -137.75719 
L 308.967743 -137.050361 
L 311.369283 -136.39788 
L 313.770822 -135.782975 
L 316.172361 -135.22135 
L 318.5739 -134.193612 
L 320.975439 -133.268277 
L 323.376978 -132.406353 
L 325.778517 -131.66272 
L 328.180056 -131.106304 
L 330.581595 -130.608412 
L 332.983134 -130.122712 
L 335.384673 -129.693535 
L 337.786212 -129.291975 
L 340.187751 -128.923481 
L 342.589291 -128.568841 
L 344.99083 -128.24354 
L 347.392369 -127.924442 
L 349.793908 -127.586749 
L 352.195447 -127.261907 
L 354.596986 -126.930493 
L 356.998525 -126.63461 
L 359.400064 -126.342159 
L 361.801603 -126.068158 
L 364.203142 -125.793305 
L 366.604681 -125.520451 
L 369.00622 -125.243437 
L 371.407759 -124.963421 
L 373.809299 -124.704429 
L 376.210838 -124.440949 
L 378.612377 -124.169057 
L 381.013916 -123.920578 
L 383.415455 -123.671893 
L 385.816994 -123.426709 
L 388.218533 -123.189796 
L 390.620072 -122.967606 
L 393.021611 -122.753599 
L 395.42315 -122.573455 
L 397.824689 -122.393786 
L 400.226228 -122.202869 
L 402.627768 -122.011711 
L 405.029307 -121.839604 
L 407.430846 -121.692781 
L 409.832385 -121.556999 
L 412.233924 -121.41057 
L 414.635463 -121.264781 
L 417.037002 -120.988666 
L 419.438541 -120.842698 
L 421.84008 -120.690809 
L 424.241619 -120.490744 
L 426.643158 -120.297623 
L 429.044697 -120.117512 
L 431.446236 -119.944764 
L 433.847776 -119.812237 
L 436.249315 -119.543597 
L 438.650854 -119.149116 
L 441.052393 -118.760061 
L 443.453932 -118.414872 
L 445.855471 -118.13044 
L 448.25701 -117.827209 
L 450.658549 -117.526539 
L 453.060088 -117.239305 
L 455.461627 -116.965037 
L 457.863166 -116.716318 
L 460.264705 -116.497592 
L 462.666244 -116.280203 
L 465.067784 -116.078905 
L 467.469323 -115.875993 
L 469.870862 -115.667718 
L 472.272401 -115.479163 
L 474.67394 -115.373326 
L 477.075479 -115.289404 
L 479.477018 -115.201757 
L 481.878557 -115.111184 
L 484.280096 -115.057447 
L 486.681635 -115.005179 
L 489.083174 -114.973395 
L 491.484713 -114.94338 
L 493.886252 -114.921231 
L 496.287792 -114.917875 
L 498.689331 -114.896762 
L 501.09087 -114.884361 
L 503.492409 -114.891664 
L 505.893948 -114.91261 
L 508.295487 -114.94014 
L 510.697026 -114.973045 
L 513.098565 -114.874999 
L 515.500104 -114.716598 
L 517.901643 -114.563457 
L 520.303182 -114.403353 
L 522.704721 -114.239925 
L 525.10626 -114.062753 
L 527.5078 -113.890279 
L 529.909339 -113.724369 
L 532.310878 -113.566263 
L 534.712417 -113.406444 
L 537.113956 -113.244339 
L 539.515495 -113.074717 
L 541.917034 -112.930341 
L 544.318573 -112.796462 
L 546.720112 -112.65511 
L 549.121651 -112.522059 
L 551.52319 -112.394766 
L 553.924729 -112.270544 
L 556.326268 -112.15316 
L 558.727808 -112.025104 
L 561.129347 -111.915669 
L 563.530886 -111.79586 
L 565.932425 -111.668777 
L 568.333964 -111.546341 
L 570.735503 -111.428329 
L 573.137042 -111.336316 
L 575.538581 -111.237452 
L 577.94012 -111.133888 
L 580.341659 -110.982965 
L 582.743198 -110.80903 
L 585.144737 -110.64572 
L 587.546277 -110.498373 
L 589.947816 -110.339421 
L 592.349355 -110.189469 
L 594.750894 -110.036784 
L 597.152433 -109.900459 
L 599.553972 -109.752738 
L 601.955511 -109.601067 
L 604.35705 -109.447929 
L 606.758589 -109.300914 
L 609.160128 -109.160293 
L 611.561667 -109.024189 
L 613.963206 -108.911552 
L 616.364745 -108.804876 
L 618.766285 -108.717595 
L 621.167824 -108.621284 
L 623.569363 -108.530249 
L 625.970902 -108.431644 
L 628.372441 -108.328498 
L 630.77398 -108.229127 
L 633.175519 -108.125567 
L 635.577058 -108.017366 
L 637.978597 -107.908913 
L 640.380136 -107.794162 
L 642.781675 -107.674166 
L 645.183214 -107.553832 
L 647.584753 -107.444239 
L 649.986293 -107.344404 
L 652.387832 -107.247614 
L 654.789371 -107.160736 
L 657.19091 -107.067025 
L 659.592449 -106.971452 
L 661.993988 -106.871343 
L 664.395527 -106.769049 
L 666.797066 -106.671646 
L 669.198605 -106.567267 
L 671.600144 -106.483468 
L 674.001683 -106.401716 
L 676.403222 -106.334523 
L 678.804761 -106.273371 
L 681.206301 -106.217327 
L 683.60784 -106.153335 
L 686.009379 -106.08886 
L 688.410918 -106.028868 
L 690.812457 -105.979724 
L 693.213996 -105.936743 
L 695.615535 -105.889141 
L 698.017074 -105.835072 
L 700.418613 -105.78574 
L 702.820152 -105.730066 
L 705.221691 -105.686248 
L 707.62323 -105.652332 
L 710.024769 -105.622966 
L 712.426309 -105.587955 
L 714.827848 -105.5518 
L 717.229387 -105.532057 
L 719.630926 -105.448806 
L 722.032465 -105.360136 
L 724.434004 -105.2735 
L 726.835543 -105.211459 
L 729.237082 -105.158215 
L 731.638621 -105.09913 
L 734.04016 -105.0327 
L 736.441699 -104.951995 
L 738.843238 -104.880505 
L 741.244777 -104.804845 
L 743.646317 -104.718955 
L 746.047856 -104.644163 
L 748.449395 -104.582508 
L 750.850934 -104.531779 
L 753.252473 -104.493705 
L 755.654012 -104.453463 
L 758.055551 -104.415364 
L 760.45709 -104.386953 
L 762.858629 -104.381757 
L 765.260168 -104.381363 
L 767.661707 -104.395966 
L 770.063246 -104.35392 
L 772.464786 -104.292958 
L 774.866325 -104.239484 
L 777.267864 -104.187962 
L 779.669403 -104.137784 
L 782.070942 -104.09057 
L 784.472481 -104.059341 
L 786.87402 -104.027716 
L 789.275559 -103.994939 
L 791.677098 -103.9675 
L 794.078637 -103.942187 
L 796.480176 -103.928368 
L 798.881715 -103.907267 
L 801.283254 -103.876489 
L 803.684794 -103.845368 
L 806.086333 -103.818008 
L 808.487872 -103.796485 
L 810.889411 -103.766636 
L 813.29095 -103.723745 
L 815.692489 -103.678217 
L 818.094028 -103.673221 
L 820.495567 -103.666903 
L 822.897106 -103.666999 
L 825.298645 -103.651884 
L 827.700184 -103.637713 
L 830.101723 -103.616114 
L 832.503262 -103.590978 
L 834.904802 -103.568829 
L 837.306341 -103.548234 
L 837.306341 -134.360798 
L 837.306341 -134.360798 
L 834.904802 -134.368415 
L 832.503262 -134.392154 
L 830.101723 -134.435597 
L 827.700184 -134.495354 
L 825.298645 -134.540045 
L 822.897106 -134.573222 
L 820.495567 -134.597987 
L 818.094028 -134.599262 
L 815.692489 -134.585223 
L 813.29095 -134.611857 
L 810.889411 -134.615968 
L 808.487872 -134.615728 
L 806.086333 -134.616652 
L 803.684794 -134.618998 
L 801.283254 -134.613799 
L 798.881715 -134.613693 
L 796.480176 -134.629169 
L 794.078637 -134.631421 
L 791.677098 -134.665146 
L 789.275559 -134.689595 
L 786.87402 -134.689458 
L 784.472481 -134.661937 
L 782.070942 -134.584735 
L 779.669403 -134.497468 
L 777.267864 -134.400773 
L 774.866325 -134.29386 
L 772.464786 -134.177707 
L 770.063246 -134.097117 
L 767.661707 -134.021582 
L 765.260168 -133.934671 
L 762.858629 -133.84506 
L 760.45709 -133.750828 
L 758.055551 -133.63094 
L 755.654012 -133.507981 
L 753.252473 -133.399307 
L 750.850934 -133.257867 
L 748.449395 -133.108818 
L 746.047856 -132.953318 
L 743.646317 -132.771614 
L 741.244777 -132.592201 
L 738.843238 -132.425151 
L 736.441699 -132.256274 
L 734.04016 -132.099426 
L 731.638621 -131.958444 
L 729.237082 -131.853691 
L 726.835543 -131.754632 
L 724.434004 -131.644186 
L 722.032465 -131.514644 
L 719.630926 -131.41333 
L 717.229387 -131.30508 
L 714.827848 -131.200111 
L 712.426309 -131.099183 
L 710.024769 -131.031647 
L 707.62323 -130.942686 
L 705.221691 -130.828334 
L 702.820152 -130.751225 
L 700.418613 -130.669161 
L 698.017074 -130.57424 
L 695.615535 -130.479996 
L 693.213996 -130.386397 
L 690.812457 -130.278097 
L 688.410918 -130.17953 
L 686.009379 -130.05006 
L 683.60784 -129.923301 
L 681.206301 -129.797499 
L 678.804761 -129.699952 
L 676.403222 -129.598825 
L 674.001683 -129.513926 
L 671.600144 -129.402526 
L 669.198605 -129.300442 
L 666.797066 -129.180984 
L 664.395527 -129.038512 
L 661.993988 -128.885002 
L 659.592449 -128.74755 
L 657.19091 -128.620577 
L 654.789371 -128.482792 
L 652.387832 -128.353387 
L 649.986293 -128.250925 
L 647.584753 -128.15058 
L 645.183214 -128.052244 
L 642.781675 -127.981299 
L 640.380136 -127.910957 
L 637.978597 -127.855641 
L 635.577058 -127.796913 
L 633.175519 -127.731788 
L 630.77398 -127.659855 
L 628.372441 -127.613124 
L 625.970902 -127.557996 
L 623.569363 -127.507575 
L 621.167824 -127.452741 
L 618.766285 -127.40693 
L 616.364745 -127.384298 
L 613.963206 -127.374094 
L 611.561667 -127.361405 
L 609.160128 -127.363165 
L 606.758589 -127.345121 
L 604.35705 -127.316262 
L 601.955511 -127.267709 
L 599.553972 -127.21845 
L 597.152433 -127.184619 
L 594.750894 -127.117765 
L 592.349355 -127.053743 
L 589.947816 -126.971342 
L 587.546277 -126.874436 
L 585.144737 -126.782625 
L 582.743198 -126.694717 
L 580.341659 -126.593481 
L 577.94012 -126.490516 
L 575.538581 -126.385887 
L 573.137042 -126.297731 
L 570.735503 -126.221177 
L 568.333964 -126.125534 
L 565.932425 -126.008971 
L 563.530886 -125.903891 
L 561.129347 -125.791721 
L 558.727808 -125.699091 
L 556.326268 -125.607219 
L 553.924729 -125.507008 
L 551.52319 -125.397892 
L 549.121651 -125.248701 
L 546.720112 -125.106062 
L 544.318573 -124.955292 
L 541.917034 -124.830788 
L 539.515495 -124.715146 
L 537.113956 -124.603052 
L 534.712417 -124.467152 
L 532.310878 -124.330959 
L 529.909339 -124.199531 
L 527.5078 -124.037297 
L 525.10626 -123.847052 
L 522.704721 -123.657701 
L 520.303182 -123.472422 
L 517.901643 -123.282964 
L 515.500104 -123.087563 
L 513.098565 -122.912957 
L 510.697026 -122.72779 
L 508.295487 -122.561843 
L 505.893948 -122.402165 
L 503.492409 -122.257557 
L 501.09087 -122.137555 
L 498.689331 -122.144117 
L 496.287792 -122.178636 
L 493.886252 -122.232531 
L 491.484713 -122.304736 
L 489.083174 -122.381628 
L 486.681635 -122.471987 
L 484.280096 -122.576435 
L 481.878557 -122.697515 
L 479.477018 -122.829303 
L 477.075479 -122.958855 
L 474.67394 -123.062989 
L 472.272401 -123.193252 
L 469.870862 -123.30173 
L 467.469323 -123.423858 
L 465.067784 -123.558276 
L 462.666244 -123.713087 
L 460.264705 -123.875305 
L 457.863166 -124.073045 
L 455.461627 -124.299368 
L 453.060088 -124.554985 
L 450.658549 -124.813417 
L 448.25701 -125.115174 
L 445.855471 -125.453378 
L 443.453932 -125.82049 
L 441.052393 -125.951043 
L 438.650854 -126.067086 
L 436.249315 -126.189515 
L 433.847776 -126.306871 
L 431.446236 -126.576517 
L 429.044697 -127.174936 
L 426.643158 -127.807418 
L 424.241619 -128.413098 
L 421.84008 -129.020809 
L 419.438541 -129.6168 
L 417.037002 -130.189662 
L 414.635463 -130.72545 
L 412.233924 -131.301031 
L 409.832385 -131.723575 
L 407.430846 -132.080286 
L 405.029307 -132.437605 
L 402.627768 -132.791872 
L 400.226228 -133.117102 
L 397.824689 -133.430849 
L 395.42315 -133.60359 
L 393.021611 -133.658701 
L 390.620072 -133.709098 
L 388.218533 -133.741506 
L 385.816994 -133.776614 
L 383.415455 -133.804432 
L 381.013916 -133.833246 
L 378.612377 -134.23633 
L 376.210838 -135.017736 
L 373.809299 -135.731348 
L 371.407759 -136.437709 
L 369.00622 -136.833901 
L 366.604681 -137.034055 
L 364.203142 -137.10445 
L 361.801603 -137.391863 
L 359.400064 -138.176989 
L 356.998525 -138.991929 
L 354.596986 -139.849181 
L 352.195447 -140.297962 
L 349.793908 -141.281307 
L 347.392369 -142.347113 
L 344.99083 -143.38309 
L 342.589291 -144.460539 
L 340.187751 -145.484039 
L 337.786212 -146.368411 
L 335.384673 -147.290864 
L 332.983134 -148.242665 
L 330.581595 -149.096939 
L 328.180056 -149.815581 
L 325.778517 -150.610261 
L 323.376978 -151.459402 
L 320.975439 -152.396977 
L 318.5739 -153.450753 
L 316.172361 -154.640149 
L 313.770822 -155.876303 
L 311.369283 -157.245893 
L 308.967743 -158.682417 
L 306.566204 -160.286618 
L 304.164665 -162.050173 
L 301.763126 -163.882955 
L 299.361587 -165.846071 
L 296.960048 -167.966236 
L 294.558509 -170.208356 
L 292.15697 -172.630258 
L 289.755431 -175.091434 
L 287.353892 -177.71166 
L 284.952353 -180.442565 
L 282.550814 -183.29152 
L 280.149275 -186.310361 
L 277.747735 -189.391941 
L 275.346196 -192.548728 
L 272.944657 -195.892599 
L 270.543118 -199.334385 
L 268.141579 -202.855954 
L 265.74004 -206.470785 
L 263.338501 -210.334947 
L 260.936962 -214.386685 
L 258.535423 -218.634734 
L 256.133884 -223.00827 
L 253.732345 -227.550117 
L 251.330806 -232.235495 
L 248.929267 -237.015722 
L 246.527727 -241.966821 
L 244.126188 -246.990725 
L 241.724649 -252.281105 
L 239.32311 -257.775475 
L 236.921571 -263.389254 
L 234.520032 -269.083301 
L 232.118493 -274.99826 
L 229.716954 -281.136925 
L 227.315415 -287.490058 
L 224.913876 -293.874715 
L 222.512337 -300.358342 
L 220.110798 -306.992145 
L 217.709259 -313.692114 
L 215.307719 -320.256607 
L 212.90618 -326.968688 
L 210.504641 -333.532982 
L 208.103102 -339.954378 
L 205.701563 -346.256025 
L 203.300024 -352.392291 
L 200.898485 -358.79832 
L 198.496946 -365.346846 
L 196.095407 -372.069421 
L 193.693868 -378.837119 
L 191.292329 -385.46808 
L 188.89079 -392.052999 
L 186.48925 -398.666639 
L 184.087711 -404.995541 
L 181.686172 -411.237306 
L 179.284633 -417.504313 
L 176.883094 -423.905653 
L 174.481555 -430.307397 
L 172.080016 -436.647556 
L 169.678477 -442.697675 
L 167.276938 -448.735257 
z
" style="stroke: #d01e04; stroke-opacity: 0.2"/>
    </defs>
    <g clip-path="url(#p8182be9009)">
     <use xlink:href="#mfd92b3d255" x="0" y="600" style="fill: #d01e04; fill-opacity: 0.2; stroke: #d01e04; stroke-opacity: 0.2"/>
    </g>
   </g>
   <g id="PolyCollection_6">
    <defs>
     <path id="m9d0eb77bc3" d="M 116.844617 -541.317786 
L 116.844617 -534.729706 
L 119.246156 -532.600761 
L 121.647695 -530.342404 
L 124.049234 -527.740553 
L 126.450774 -525.154281 
L 128.852313 -522.734745 
L 131.253852 -520.262388 
L 133.655391 -517.718923 
L 136.05693 -515.000006 
L 138.458469 -512.239211 
L 140.860008 -509.541366 
L 143.261547 -504.580266 
L 145.663086 -499.635785 
L 148.064625 -494.563497 
L 150.466164 -489.367827 
L 152.867703 -483.875624 
L 155.269242 -478.152776 
L 157.670782 -472.275381 
L 160.072321 -466.32597 
L 162.47386 -460.576966 
L 164.875399 -454.648 
L 164.875399 -454.648 
L 164.875399 -454.648 
L 162.47386 -461.662866 
L 160.072321 -468.40759 
L 157.670782 -475.118513 
L 155.269242 -481.743975 
L 152.867703 -488.047209 
L 150.466164 -493.979633 
L 148.064625 -499.644664 
L 145.663086 -505.059765 
L 143.261547 -510.230811 
L 140.860008 -515.258633 
L 138.458469 -517.992762 
L 136.05693 -520.790688 
L 133.655391 -523.546172 
L 131.253852 -526.123845 
L 128.852313 -528.629452 
L 126.450774 -531.081529 
L 124.049234 -533.702585 
L 121.647695 -536.339428 
L 119.246156 -538.843598 
L 116.844617 -541.317786 
z
" style="stroke: #000000; stroke-opacity: 0.2"/>
    </defs>
    <g clip-path="url(#p8182be9009)">
     <use xlink:href="#m9d0eb77bc3" x="0" y="600" style="fill-opacity: 0.2; stroke: #000000; stroke-opacity: 0.2"/>
    </g>
   </g>
   <g id="matplotlib.axis_1">
    <g id="xtick_1">
     <g id="line2d_1">
      <defs>
       <path id="m406349990f" d="M 0 0 
L 0 3.5 
" style="stroke: #000000; stroke-width: 0.8"/>
      </defs>
      <g>
       <use xlink:href="#m406349990f" x="164.875399" y="515.56" style="stroke: #000000; stroke-width: 0.8"/>
      </g>
     </g>
     <g id="text_1">
      <!-- 2020 -->
      <g transform="translate(131.790399 542.315938)scale(0.26 -0.26)">
       <defs>
        <path id="DejaVuSans-32" d="M 1228 531 
L 3431 531 
L 3431 0 
L 469 0 
L 469 531 
Q 828 903 1448 1529 
Q 2069 2156 2228 2338 
Q 2531 2678 2651 2914 
Q 2772 3150 2772 3378 
Q 2772 3750 2511 3984 
Q 2250 4219 1831 4219 
Q 1534 4219 1204 4116 
Q 875 4013 500 3803 
L 500 4441 
Q 881 4594 1212 4672 
Q 1544 4750 1819 4750 
Q 2544 4750 2975 4387 
Q 3406 4025 3406 3419 
Q 3406 3131 3298 2873 
Q 3191 2616 2906 2266 
Q 2828 2175 2409 1742 
Q 1991 1309 1228 531 
z
" transform="scale(0.015625)"/>
        <path id="DejaVuSans-30" d="M 2034 4250 
Q 1547 4250 1301 3770 
Q 1056 3291 1056 2328 
Q 1056 1369 1301 889 
Q 1547 409 2034 409 
Q 2525 409 2770 889 
Q 3016 1369 3016 2328 
Q 3016 3291 2770 3770 
Q 2525 4250 2034 4250 
z
M 2034 4750 
Q 2819 4750 3233 4129 
Q 3647 3509 3647 2328 
Q 3647 1150 3233 529 
Q 2819 -91 2034 -91 
Q 1250 -91 836 529 
Q 422 1150 422 2328 
Q 422 3509 836 4129 
Q 1250 4750 2034 4750 
z
" transform="scale(0.015625)"/>
       </defs>
       <use xlink:href="#DejaVuSans-32"/>
       <use xlink:href="#DejaVuSans-30" x="63.623047"/>
       <use xlink:href="#DejaVuSans-32" x="127.246094"/>
       <use xlink:href="#DejaVuSans-30" x="190.869141"/>
      </g>
     </g>
    </g>
    <g id="xtick_2">
     <g id="line2d_2">
      <g>
       <use xlink:href="#m406349990f" x="356.998525" y="515.56" style="stroke: #000000; stroke-width: 0.8"/>
      </g>
     </g>
     <g id="text_2">
      <!-- 2100 -->
      <g transform="translate(323.913525 542.315938)scale(0.26 -0.26)">
       <defs>
        <path id="DejaVuSans-31" d="M 794 531 
L 1825 531 
L 1825 4091 
L 703 3866 
L 703 4441 
L 1819 4666 
L 2450 4666 
L 2450 531 
L 3481 531 
L 3481 0 
L 794 0 
L 794 531 
z
" transform="scale(0.015625)"/>
       </defs>
       <use xlink:href="#DejaVuSans-32"/>
       <use xlink:href="#DejaVuSans-31" x="63.623047"/>
       <use xlink:href="#DejaVuSans-30" x="127.246094"/>
       <use xlink:href="#DejaVuSans-30" x="190.869141"/>
      </g>
     </g>
    </g>
    <g id="xtick_3">
     <g id="line2d_3">
      <g>
       <use xlink:href="#m406349990f" x="597.152433" y="515.56" style="stroke: #000000; stroke-width: 0.8"/>
      </g>
     </g>
     <g id="text_3">
      <!-- 2200 -->
      <g transform="translate(564.067433 542.315938)scale(0.26 -0.26)">
       <use xlink:href="#DejaVuSans-32"/>
       <use xlink:href="#DejaVuSans-32" x="63.623047"/>
       <use xlink:href="#DejaVuSans-30" x="127.246094"/>
       <use xlink:href="#DejaVuSans-30" x="190.869141"/>
      </g>
     </g>
    </g>
    <g id="xtick_4">
     <g id="line2d_4">
      <g>
       <use xlink:href="#m406349990f" x="837.306341" y="515.56" style="stroke: #000000; stroke-width: 0.8"/>
      </g>
     </g>
     <g id="text_4">
      <!-- 2300 -->
      <g transform="translate(804.221341 542.315938)scale(0.26 -0.26)">
       <defs>
        <path id="DejaVuSans-33" d="M 2597 2516 
Q 3050 2419 3304 2112 
Q 3559 1806 3559 1356 
Q 3559 666 3084 287 
Q 2609 -91 1734 -91 
Q 1441 -91 1130 -33 
Q 819 25 488 141 
L 488 750 
Q 750 597 1062 519 
Q 1375 441 1716 441 
Q 2309 441 2620 675 
Q 2931 909 2931 1356 
Q 2931 1769 2642 2001 
Q 2353 2234 1838 2234 
L 1294 2234 
L 1294 2753 
L 1863 2753 
Q 2328 2753 2575 2939 
Q 2822 3125 2822 3475 
Q 2822 3834 2567 4026 
Q 2313 4219 1838 4219 
Q 1578 4219 1281 4162 
Q 984 4106 628 3988 
L 628 4550 
Q 988 4650 1302 4700 
Q 1616 4750 1894 4750 
Q 2613 4750 3031 4423 
Q 3450 4097 3450 3541 
Q 3450 3153 3228 2886 
Q 3006 2619 2597 2516 
z
" transform="scale(0.015625)"/>
       </defs>
       <use xlink:href="#DejaVuSans-32"/>
       <use xlink:href="#DejaVuSans-33" x="63.623047"/>
       <use xlink:href="#DejaVuSans-30" x="127.246094"/>
       <use xlink:href="#DejaVuSans-30" x="190.869141"/>
      </g>
     </g>
    </g>
    <g id="text_5">
     <!-- Year -->
     <g transform="translate(457.010409 568.439687)scale(0.22 -0.22)">
      <defs>
       <path id="DejaVuSans-Bold-59" d="M -63 4666 
L 1253 4666 
L 2316 3003 
L 3378 4666 
L 4697 4666 
L 2919 1966 
L 2919 0 
L 1716 0 
L 1716 1966 
L -63 4666 
z
" transform="scale(0.015625)"/>
       <path id="DejaVuSans-Bold-65" d="M 4031 1759 
L 4031 1441 
L 1416 1441 
Q 1456 1047 1700 850 
Q 1944 653 2381 653 
Q 2734 653 3104 758 
Q 3475 863 3866 1075 
L 3866 213 
Q 3469 63 3072 -14 
Q 2675 -91 2278 -91 
Q 1328 -91 801 392 
Q 275 875 275 1747 
Q 275 2603 792 3093 
Q 1309 3584 2216 3584 
Q 3041 3584 3536 3087 
Q 4031 2591 4031 1759 
z
M 2881 2131 
Q 2881 2450 2695 2645 
Q 2509 2841 2209 2841 
Q 1884 2841 1681 2658 
Q 1478 2475 1428 2131 
L 2881 2131 
z
" transform="scale(0.015625)"/>
       <path id="DejaVuSans-Bold-61" d="M 2106 1575 
Q 1756 1575 1579 1456 
Q 1403 1338 1403 1106 
Q 1403 894 1545 773 
Q 1688 653 1941 653 
Q 2256 653 2472 879 
Q 2688 1106 2688 1447 
L 2688 1575 
L 2106 1575 
z
M 3816 1997 
L 3816 0 
L 2688 0 
L 2688 519 
Q 2463 200 2181 54 
Q 1900 -91 1497 -91 
Q 953 -91 614 226 
Q 275 544 275 1050 
Q 275 1666 698 1953 
Q 1122 2241 2028 2241 
L 2688 2241 
L 2688 2328 
Q 2688 2594 2478 2717 
Q 2269 2841 1825 2841 
Q 1466 2841 1156 2769 
Q 847 2697 581 2553 
L 581 3406 
Q 941 3494 1303 3539 
Q 1666 3584 2028 3584 
Q 2975 3584 3395 3211 
Q 3816 2838 3816 1997 
z
" transform="scale(0.015625)"/>
       <path id="DejaVuSans-Bold-72" d="M 3138 2547 
Q 2991 2616 2845 2648 
Q 2700 2681 2553 2681 
Q 2122 2681 1889 2404 
Q 1656 2128 1656 1613 
L 1656 0 
L 538 0 
L 538 3500 
L 1656 3500 
L 1656 2925 
Q 1872 3269 2151 3426 
Q 2431 3584 2822 3584 
Q 2878 3584 2943 3579 
Q 3009 3575 3134 3559 
L 3138 2547 
z
" transform="scale(0.015625)"/>
      </defs>
      <use xlink:href="#DejaVuSans-Bold-59"/>
      <use xlink:href="#DejaVuSans-Bold-65" x="63.287109"/>
      <use xlink:href="#DejaVuSans-Bold-61" x="131.109375"/>
      <use xlink:href="#DejaVuSans-Bold-72" x="198.589844"/>
     </g>
    </g>
   </g>
   <g id="matplotlib.axis_2">
    <g id="ytick_1">
     <g id="line2d_5">
      <defs>
       <path id="m4cf14d4226" d="M 0 0 
L -3.5 0 
" style="stroke: #000000; stroke-width: 0.8"/>
      </defs>
      <g>
       <use xlink:href="#m4cf14d4226" x="109.64" y="515.56" style="stroke: #000000; stroke-width: 0.8"/>
      </g>
     </g>
     <g id="text_6">
      <!-- 0 -->
      <g transform="translate(86.0975 525.437969)scale(0.26 -0.26)">
       <use xlink:href="#DejaVuSans-30"/>
      </g>
     </g>
    </g>
    <g id="ytick_2">
     <g id="line2d_6">
      <g>
       <use xlink:href="#m4cf14d4226" x="109.64" y="441.5184" style="stroke: #000000; stroke-width: 0.8"/>
      </g>
     </g>
     <g id="text_7">
      <!-- 20 -->
      <g transform="translate(69.555 451.396369)scale(0.26 -0.26)">
       <use xlink:href="#DejaVuSans-32"/>
       <use xlink:href="#DejaVuSans-30" x="63.623047"/>
      </g>
     </g>
    </g>
    <g id="ytick_3">
     <g id="line2d_7">
      <g>
       <use xlink:href="#m4cf14d4226" x="109.64" y="367.4768" style="stroke: #000000; stroke-width: 0.8"/>
      </g>
     </g>
     <g id="text_8">
      <!-- 40 -->
      <g transform="translate(69.555 377.354769)scale(0.26 -0.26)">
       <defs>
        <path id="DejaVuSans-34" d="M 2419 4116 
L 825 1625 
L 2419 1625 
L 2419 4116 
z
M 2253 4666 
L 3047 4666 
L 3047 1625 
L 3713 1625 
L 3713 1100 
L 3047 1100 
L 3047 0 
L 2419 0 
L 2419 1100 
L 313 1100 
L 313 1709 
L 2253 4666 
z
" transform="scale(0.015625)"/>
       </defs>
       <use xlink:href="#DejaVuSans-34"/>
       <use xlink:href="#DejaVuSans-30" x="63.623047"/>
      </g>
     </g>
    </g>
    <g id="ytick_4">
     <g id="line2d_8">
      <g>
       <use xlink:href="#m4cf14d4226" x="109.64" y="293.4352" style="stroke: #000000; stroke-width: 0.8"/>
      </g>
     </g>
     <g id="text_9">
      <!-- 60 -->
      <g transform="translate(69.555 303.313169)scale(0.26 -0.26)">
       <defs>
        <path id="DejaVuSans-36" d="M 2113 2584 
Q 1688 2584 1439 2293 
Q 1191 2003 1191 1497 
Q 1191 994 1439 701 
Q 1688 409 2113 409 
Q 2538 409 2786 701 
Q 3034 994 3034 1497 
Q 3034 2003 2786 2293 
Q 2538 2584 2113 2584 
z
M 3366 4563 
L 3366 3988 
Q 3128 4100 2886 4159 
Q 2644 4219 2406 4219 
Q 1781 4219 1451 3797 
Q 1122 3375 1075 2522 
Q 1259 2794 1537 2939 
Q 1816 3084 2150 3084 
Q 2853 3084 3261 2657 
Q 3669 2231 3669 1497 
Q 3669 778 3244 343 
Q 2819 -91 2113 -91 
Q 1303 -91 875 529 
Q 447 1150 447 2328 
Q 447 3434 972 4092 
Q 1497 4750 2381 4750 
Q 2619 4750 2861 4703 
Q 3103 4656 3366 4563 
z
" transform="scale(0.015625)"/>
       </defs>
       <use xlink:href="#DejaVuSans-36"/>
       <use xlink:href="#DejaVuSans-30" x="63.623047"/>
      </g>
     </g>
    </g>
    <g id="ytick_5">
     <g id="line2d_9">
      <g>
       <use xlink:href="#m4cf14d4226" x="109.64" y="219.3936" style="stroke: #000000; stroke-width: 0.8"/>
      </g>
     </g>
     <g id="text_10">
      <!-- 80 -->
      <g transform="translate(69.555 229.271569)scale(0.26 -0.26)">
       <defs>
        <path id="DejaVuSans-38" d="M 2034 2216 
Q 1584 2216 1326 1975 
Q 1069 1734 1069 1313 
Q 1069 891 1326 650 
Q 1584 409 2034 409 
Q 2484 409 2743 651 
Q 3003 894 3003 1313 
Q 3003 1734 2745 1975 
Q 2488 2216 2034 2216 
z
M 1403 2484 
Q 997 2584 770 2862 
Q 544 3141 544 3541 
Q 544 4100 942 4425 
Q 1341 4750 2034 4750 
Q 2731 4750 3128 4425 
Q 3525 4100 3525 3541 
Q 3525 3141 3298 2862 
Q 3072 2584 2669 2484 
Q 3125 2378 3379 2068 
Q 3634 1759 3634 1313 
Q 3634 634 3220 271 
Q 2806 -91 2034 -91 
Q 1263 -91 848 271 
Q 434 634 434 1313 
Q 434 1759 690 2068 
Q 947 2378 1403 2484 
z
M 1172 3481 
Q 1172 3119 1398 2916 
Q 1625 2713 2034 2713 
Q 2441 2713 2670 2916 
Q 2900 3119 2900 3481 
Q 2900 3844 2670 4047 
Q 2441 4250 2034 4250 
Q 1625 4250 1398 4047 
Q 1172 3844 1172 3481 
z
" transform="scale(0.015625)"/>
       </defs>
       <use xlink:href="#DejaVuSans-38"/>
       <use xlink:href="#DejaVuSans-30" x="63.623047"/>
      </g>
     </g>
    </g>
    <g id="ytick_6">
     <g id="line2d_10">
      <g>
       <use xlink:href="#m4cf14d4226" x="109.64" y="145.352" style="stroke: #000000; stroke-width: 0.8"/>
      </g>
     </g>
     <g id="text_11">
      <!-- 100 -->
      <g transform="translate(53.0125 155.229969)scale(0.26 -0.26)">
       <use xlink:href="#DejaVuSans-31"/>
       <use xlink:href="#DejaVuSans-30" x="63.623047"/>
       <use xlink:href="#DejaVuSans-30" x="127.246094"/>
      </g>
     </g>
    </g>
    <g id="ytick_7">
     <g id="line2d_11">
      <g>
       <use xlink:href="#m4cf14d4226" x="109.64" y="71.3104" style="stroke: #000000; stroke-width: 0.8"/>
      </g>
     </g>
     <g id="text_12">
      <!-- 120 -->
      <g transform="translate(53.0125 81.188369)scale(0.26 -0.26)">
       <use xlink:href="#DejaVuSans-31"/>
       <use xlink:href="#DejaVuSans-32" x="63.623047"/>
       <use xlink:href="#DejaVuSans-30" x="127.246094"/>
      </g>
     </g>
    </g>
    <g id="text_13">
     <!-- % of Remaining Glacier Mass -->
     <g transform="translate(44.265313 463.619219)rotate(-90)scale(0.22 -0.22)">
      <defs>
       <path id="DejaVuSans-Bold-25" d="M 4959 1925 
Q 4738 1925 4616 1733 
Q 4494 1541 4494 1184 
Q 4494 825 4614 633 
Q 4734 441 4959 441 
Q 5184 441 5303 633 
Q 5422 825 5422 1184 
Q 5422 1541 5301 1733 
Q 5181 1925 4959 1925 
z
M 4959 2450 
Q 5541 2450 5875 2112 
Q 6209 1775 6209 1184 
Q 6209 594 5875 251 
Q 5541 -91 4959 -91 
Q 4378 -91 4042 251 
Q 3706 594 3706 1184 
Q 3706 1772 4042 2111 
Q 4378 2450 4959 2450 
z
M 2094 -91 
L 1403 -91 
L 4319 4750 
L 5013 4750 
L 2094 -91 
z
M 1453 4750 
Q 2034 4750 2367 4411 
Q 2700 4072 2700 3481 
Q 2700 2891 2367 2550 
Q 2034 2209 1453 2209 
Q 872 2209 539 2550 
Q 206 2891 206 3481 
Q 206 4072 539 4411 
Q 872 4750 1453 4750 
z
M 1453 4225 
Q 1228 4225 1106 4031 
Q 984 3838 984 3481 
Q 984 3122 1106 2926 
Q 1228 2731 1453 2731 
Q 1678 2731 1798 2926 
Q 1919 3122 1919 3481 
Q 1919 3838 1797 4031 
Q 1675 4225 1453 4225 
z
" transform="scale(0.015625)"/>
       <path id="DejaVuSans-Bold-20" transform="scale(0.015625)"/>
       <path id="DejaVuSans-Bold-6f" d="M 2203 2784 
Q 1831 2784 1636 2517 
Q 1441 2250 1441 1747 
Q 1441 1244 1636 976 
Q 1831 709 2203 709 
Q 2569 709 2762 976 
Q 2956 1244 2956 1747 
Q 2956 2250 2762 2517 
Q 2569 2784 2203 2784 
z
M 2203 3584 
Q 3106 3584 3614 3096 
Q 4122 2609 4122 1747 
Q 4122 884 3614 396 
Q 3106 -91 2203 -91 
Q 1297 -91 786 396 
Q 275 884 275 1747 
Q 275 2609 786 3096 
Q 1297 3584 2203 3584 
z
" transform="scale(0.015625)"/>
       <path id="DejaVuSans-Bold-66" d="M 2841 4863 
L 2841 4128 
L 2222 4128 
Q 1984 4128 1890 4042 
Q 1797 3956 1797 3744 
L 1797 3500 
L 2753 3500 
L 2753 2700 
L 1797 2700 
L 1797 0 
L 678 0 
L 678 2700 
L 122 2700 
L 122 3500 
L 678 3500 
L 678 3744 
Q 678 4316 997 4589 
Q 1316 4863 1984 4863 
L 2841 4863 
z
" transform="scale(0.015625)"/>
       <path id="DejaVuSans-Bold-52" d="M 2297 2597 
Q 2675 2597 2839 2737 
Q 3003 2878 3003 3200 
Q 3003 3519 2839 3656 
Q 2675 3794 2297 3794 
L 1791 3794 
L 1791 2597 
L 2297 2597 
z
M 1791 1766 
L 1791 0 
L 588 0 
L 588 4666 
L 2425 4666 
Q 3347 4666 3776 4356 
Q 4206 4047 4206 3378 
Q 4206 2916 3982 2619 
Q 3759 2322 3309 2181 
Q 3556 2125 3751 1926 
Q 3947 1728 4147 1325 
L 4800 0 
L 3519 0 
L 2950 1159 
Q 2778 1509 2601 1637 
Q 2425 1766 2131 1766 
L 1791 1766 
z
" transform="scale(0.015625)"/>
       <path id="DejaVuSans-Bold-6d" d="M 3781 2919 
Q 3994 3244 4286 3414 
Q 4578 3584 4928 3584 
Q 5531 3584 5847 3212 
Q 6163 2841 6163 2131 
L 6163 0 
L 5038 0 
L 5038 1825 
Q 5041 1866 5042 1909 
Q 5044 1953 5044 2034 
Q 5044 2406 4934 2573 
Q 4825 2741 4581 2741 
Q 4263 2741 4089 2478 
Q 3916 2216 3909 1719 
L 3909 0 
L 2784 0 
L 2784 1825 
Q 2784 2406 2684 2573 
Q 2584 2741 2328 2741 
Q 2006 2741 1831 2477 
Q 1656 2213 1656 1722 
L 1656 0 
L 531 0 
L 531 3500 
L 1656 3500 
L 1656 2988 
Q 1863 3284 2130 3434 
Q 2397 3584 2719 3584 
Q 3081 3584 3359 3409 
Q 3638 3234 3781 2919 
z
" transform="scale(0.015625)"/>
       <path id="DejaVuSans-Bold-69" d="M 538 3500 
L 1656 3500 
L 1656 0 
L 538 0 
L 538 3500 
z
M 538 4863 
L 1656 4863 
L 1656 3950 
L 538 3950 
L 538 4863 
z
" transform="scale(0.015625)"/>
       <path id="DejaVuSans-Bold-6e" d="M 4056 2131 
L 4056 0 
L 2931 0 
L 2931 347 
L 2931 1631 
Q 2931 2084 2911 2256 
Q 2891 2428 2841 2509 
Q 2775 2619 2662 2680 
Q 2550 2741 2406 2741 
Q 2056 2741 1856 2470 
Q 1656 2200 1656 1722 
L 1656 0 
L 538 0 
L 538 3500 
L 1656 3500 
L 1656 2988 
Q 1909 3294 2193 3439 
Q 2478 3584 2822 3584 
Q 3428 3584 3742 3212 
Q 4056 2841 4056 2131 
z
" transform="scale(0.015625)"/>
       <path id="DejaVuSans-Bold-67" d="M 2919 594 
Q 2688 288 2409 144 
Q 2131 0 1766 0 
Q 1125 0 706 504 
Q 288 1009 288 1791 
Q 288 2575 706 3076 
Q 1125 3578 1766 3578 
Q 2131 3578 2409 3434 
Q 2688 3291 2919 2981 
L 2919 3500 
L 4044 3500 
L 4044 353 
Q 4044 -491 3511 -936 
Q 2978 -1381 1966 -1381 
Q 1638 -1381 1331 -1331 
Q 1025 -1281 716 -1178 
L 716 -306 
Q 1009 -475 1290 -558 
Q 1572 -641 1856 -641 
Q 2406 -641 2662 -400 
Q 2919 -159 2919 353 
L 2919 594 
z
M 2181 2772 
Q 1834 2772 1640 2515 
Q 1447 2259 1447 1791 
Q 1447 1309 1634 1061 
Q 1822 813 2181 813 
Q 2531 813 2725 1069 
Q 2919 1325 2919 1791 
Q 2919 2259 2725 2515 
Q 2531 2772 2181 2772 
z
" transform="scale(0.015625)"/>
       <path id="DejaVuSans-Bold-47" d="M 4781 347 
Q 4331 128 3847 18 
Q 3363 -91 2847 -91 
Q 1681 -91 1000 561 
Q 319 1213 319 2328 
Q 319 3456 1012 4103 
Q 1706 4750 2913 4750 
Q 3378 4750 3804 4662 
Q 4231 4575 4609 4403 
L 4609 3438 
Q 4219 3659 3833 3768 
Q 3447 3878 3059 3878 
Q 2341 3878 1952 3476 
Q 1563 3075 1563 2328 
Q 1563 1588 1938 1184 
Q 2313 781 3003 781 
Q 3191 781 3352 804 
Q 3513 828 3641 878 
L 3641 1784 
L 2906 1784 
L 2906 2591 
L 4781 2591 
L 4781 347 
z
" transform="scale(0.015625)"/>
       <path id="DejaVuSans-Bold-6c" d="M 538 4863 
L 1656 4863 
L 1656 0 
L 538 0 
L 538 4863 
z
" transform="scale(0.015625)"/>
       <path id="DejaVuSans-Bold-63" d="M 3366 3391 
L 3366 2478 
Q 3138 2634 2908 2709 
Q 2678 2784 2431 2784 
Q 1963 2784 1702 2511 
Q 1441 2238 1441 1747 
Q 1441 1256 1702 982 
Q 1963 709 2431 709 
Q 2694 709 2930 787 
Q 3166 866 3366 1019 
L 3366 103 
Q 3103 6 2833 -42 
Q 2563 -91 2291 -91 
Q 1344 -91 809 395 
Q 275 881 275 1747 
Q 275 2613 809 3098 
Q 1344 3584 2291 3584 
Q 2566 3584 2833 3536 
Q 3100 3488 3366 3391 
z
" transform="scale(0.015625)"/>
       <path id="DejaVuSans-Bold-4d" d="M 588 4666 
L 2119 4666 
L 3181 2169 
L 4250 4666 
L 5778 4666 
L 5778 0 
L 4641 0 
L 4641 3413 
L 3566 897 
L 2803 897 
L 1728 3413 
L 1728 0 
L 588 0 
L 588 4666 
z
" transform="scale(0.015625)"/>
       <path id="DejaVuSans-Bold-73" d="M 3272 3391 
L 3272 2541 
Q 2913 2691 2578 2766 
Q 2244 2841 1947 2841 
Q 1628 2841 1473 2761 
Q 1319 2681 1319 2516 
Q 1319 2381 1436 2309 
Q 1553 2238 1856 2203 
L 2053 2175 
Q 2913 2066 3209 1816 
Q 3506 1566 3506 1031 
Q 3506 472 3093 190 
Q 2681 -91 1863 -91 
Q 1516 -91 1145 -36 
Q 775 19 384 128 
L 384 978 
Q 719 816 1070 734 
Q 1422 653 1784 653 
Q 2113 653 2278 743 
Q 2444 834 2444 1013 
Q 2444 1163 2330 1236 
Q 2216 1309 1875 1350 
L 1678 1375 
Q 931 1469 631 1722 
Q 331 1975 331 2491 
Q 331 3047 712 3315 
Q 1094 3584 1881 3584 
Q 2191 3584 2531 3537 
Q 2872 3491 3272 3391 
z
" transform="scale(0.015625)"/>
      </defs>
      <use xlink:href="#DejaVuSans-Bold-25"/>
      <use xlink:href="#DejaVuSans-Bold-20" x="100.195312"/>
      <use xlink:href="#DejaVuSans-Bold-6f" x="135.009766"/>
      <use xlink:href="#DejaVuSans-Bold-66" x="203.710938"/>
      <use xlink:href="#DejaVuSans-Bold-20" x="247.216797"/>
      <use xlink:href="#DejaVuSans-Bold-52" x="282.03125"/>
      <use xlink:href="#DejaVuSans-Bold-65" x="359.033203"/>
      <use xlink:href="#DejaVuSans-Bold-6d" x="426.855469"/>
      <use xlink:href="#DejaVuSans-Bold-61" x="531.054688"/>
      <use xlink:href="#DejaVuSans-Bold-69" x="598.535156"/>
      <use xlink:href="#DejaVuSans-Bold-6e" x="632.8125"/>
      <use xlink:href="#DejaVuSans-Bold-69" x="704.003906"/>
      <use xlink:href="#DejaVuSans-Bold-6e" x="738.28125"/>
      <use xlink:href="#DejaVuSans-Bold-67" x="809.472656"/>
      <use xlink:href="#DejaVuSans-Bold-20" x="881.054688"/>
      <use xlink:href="#DejaVuSans-Bold-47" x="915.869141"/>
      <use xlink:href="#DejaVuSans-Bold-6c" x="997.949219"/>
      <use xlink:href="#DejaVuSans-Bold-61" x="1032.226562"/>
      <use xlink:href="#DejaVuSans-Bold-63" x="1099.707031"/>
      <use xlink:href="#DejaVuSans-Bold-69" x="1158.984375"/>
      <use xlink:href="#DejaVuSans-Bold-65" x="1193.261719"/>
      <use xlink:href="#DejaVuSans-Bold-72" x="1261.083984"/>
      <use xlink:href="#DejaVuSans-Bold-20" x="1310.400391"/>
      <use xlink:href="#DejaVuSans-Bold-4d" x="1345.214844"/>
      <use xlink:href="#DejaVuSans-Bold-61" x="1444.726562"/>
      <use xlink:href="#DejaVuSans-Bold-73" x="1512.207031"/>
      <use xlink:href="#DejaVuSans-Bold-73" x="1571.728516"/>
     </g>
    </g>
   </g>
   <g id="line2d_12">
    <path d="M 167.276938 152.681402 
L 174.481555 175.222127 
L 186.48925 214.142311 
L 193.693868 237.250313 
L 200.898485 258.586409 
L 208.103102 279.464 
L 210.504641 286.135988 
L 215.307719 298.361443 
L 220.110798 310.095674 
L 224.913876 320.91082 
L 229.716954 330.711565 
L 232.118493 335.386915 
L 236.921571 344.007208 
L 239.32311 348.067098 
L 244.126188 355.516148 
L 248.929267 362.600626 
L 251.330806 365.826405 
L 253.732345 368.758532 
L 256.133884 371.501116 
L 258.535423 374.005056 
L 260.936962 376.322495 
L 263.338501 378.427186 
L 265.74004 380.334696 
L 268.141579 382.057836 
L 272.944657 384.991093 
L 275.346196 386.337709 
L 284.952353 391.099074 
L 292.15697 393.950183 
L 294.558509 394.606428 
L 306.566204 397.176517 
L 313.770822 398.470739 
L 316.172361 398.851968 
L 323.376978 400.387742 
L 328.180056 401.147808 
L 340.187751 402.268995 
L 347.392369 403.110288 
L 356.998525 404.105694 
L 364.203142 404.741195 
L 366.604681 404.907322 
L 378.612377 405.14038 
L 383.415455 405.377215 
L 388.218533 405.499613 
L 395.42315 405.433736 
L 400.226228 405.131569 
L 405.029307 404.78325 
L 409.832385 404.550169 
L 417.037002 404.754277 
L 431.446236 405.226888 
L 438.650854 405.188564 
L 453.060088 405.031743 
L 457.863166 404.720873 
L 469.870862 403.346952 
L 472.272401 402.948645 
L 486.681635 401.515369 
L 496.287792 400.355104 
L 498.689331 400.133715 
L 505.893948 399.715281 
L 510.697026 399.085812 
L 515.500104 398.449008 
L 532.310878 396.761619 
L 537.113956 396.524682 
L 541.917034 395.980448 
L 549.121651 394.972364 
L 553.924729 394.134852 
L 575.538581 391.696908 
L 577.94012 391.332853 
L 582.743198 390.261398 
L 589.947816 388.810675 
L 601.955511 386.503705 
L 616.364745 382.594704 
L 625.970902 379.673295 
L 633.175519 378.164225 
L 640.380136 376.8483 
L 647.584753 375.526155 
L 652.387832 374.809436 
L 659.592449 374.001855 
L 664.395527 373.563763 
L 671.600144 373.214405 
L 674.001683 373.23154 
L 683.60784 372.773014 
L 688.410918 372.885597 
L 693.213996 373.031301 
L 710.024769 373.479278 
L 719.630926 373.119696 
L 729.237082 371.970464 
L 734.04016 371.066598 
L 743.646317 368.699324 
L 758.055551 364.56224 
L 762.858629 363.443035 
L 765.260168 362.775914 
L 767.661707 362.268747 
L 774.866325 361.219774 
L 779.669403 360.681001 
L 784.472481 360.044915 
L 796.480176 358.897657 
L 801.283254 358.40651 
L 810.889411 356.97307 
L 815.692489 356.100849 
L 837.306341 353.66341 
L 837.306341 353.66341 
" clip-path="url(#p8182be9009)" style="fill: none; stroke: #74b8f8; stroke-opacity: 0.5; stroke-width: 6; stroke-linecap: square"/>
   </g>
   <g id="line2d_13">
    <path d="M 116.844617 58.506869 
L 119.246156 60.934061 
L 121.647695 63.390605 
L 124.049234 65.850965 
L 126.450774 68.129093 
L 128.852313 70.440254 
L 131.253852 73.031737 
L 133.655391 75.745193 
L 136.05693 78.467857 
L 138.458469 81.247782 
L 140.860008 84.001903 
L 143.261547 89.15064 
L 145.663086 94.617734 
L 148.064625 100.500258 
L 150.466164 106.486919 
L 152.867703 112.605727 
L 155.269242 118.919275 
L 157.670782 125.171621 
L 160.072321 131.642366 
L 162.47386 138.272713 
L 164.875399 145.352 
" clip-path="url(#p8182be9009)" style="fill: none; stroke: #000000; stroke-opacity: 0.5; stroke-width: 6; stroke-linecap: square"/>
   </g>
   <g id="line2d_14">
    <path d="M 167.276938 152.133387 
L 184.087711 201.011802 
L 188.89079 215.437912 
L 196.095407 238.195584 
L 200.898485 252.597509 
L 222.512337 314.977659 
L 224.913876 321.542016 
L 227.315415 327.624142 
L 232.118493 337.594061 
L 236.921571 347.286789 
L 241.724649 356.157153 
L 246.527727 364.453362 
L 256.133884 384.372763 
L 258.535423 388.968159 
L 260.936962 393.118907 
L 263.338501 396.836608 
L 265.74004 400.159335 
L 270.543118 406.191549 
L 275.346196 411.779683 
L 280.149275 416.769306 
L 284.952353 421.197923 
L 287.353892 423.065377 
L 289.755431 424.540301 
L 294.558509 427.201467 
L 299.361587 430.186437 
L 304.164665 432.797419 
L 308.967743 435.218065 
L 318.5739 439.552092 
L 323.376978 441.450487 
L 328.180056 443.347698 
L 330.581595 444.370652 
L 337.786212 447.806008 
L 342.589291 449.866069 
L 347.392369 451.728051 
L 354.596986 454.269639 
L 359.400064 455.703068 
L 361.801603 456.300076 
L 369.00622 457.097391 
L 378.612377 458.055175 
L 383.415455 458.266755 
L 395.42315 458.602606 
L 402.627768 458.648163 
L 409.832385 459.812586 
L 419.438541 459.988795 
L 424.241619 460.104598 
L 426.643158 460.292565 
L 438.650854 461.800832 
L 450.658549 463.164202 
L 462.666244 464.158515 
L 474.67394 464.989572 
L 481.878557 465.327401 
L 510.697026 464.072558 
L 520.303182 463.876338 
L 563.530886 464.159222 
L 573.137042 463.895016 
L 594.750894 462.947796 
L 601.955511 462.533859 
L 609.160128 462.093435 
L 616.364745 461.853006 
L 623.569363 461.778621 
L 633.175519 461.743694 
L 657.19091 461.497335 
L 666.797066 460.977789 
L 676.403222 460.343322 
L 681.206301 460.256918 
L 693.213996 459.742061 
L 707.62323 458.816662 
L 717.229387 457.832056 
L 722.032465 457.255255 
L 729.237082 456.90128 
L 746.047856 456.209434 
L 760.45709 455.604651 
L 794.078637 452.186411 
L 810.889411 450.576691 
L 815.692489 450.060187 
L 832.503262 449.167467 
L 837.306341 448.898019 
L 837.306341 448.898019 
" clip-path="url(#p8182be9009)" style="fill: none; stroke: #f47100; stroke-opacity: 0.5; stroke-width: 6; stroke-linecap: square"/>
   </g>
   <g id="line2d_15">
    <path d="M 116.844617 61.857725 
L 119.246156 64.314716 
L 121.647695 66.80148 
L 124.049234 69.419996 
L 126.450774 72.022835 
L 128.852313 74.457868 
L 131.253852 76.946061 
L 133.655391 79.505818 
L 136.05693 82.24215 
L 138.458469 85.020628 
L 140.860008 87.735755 
L 143.261547 92.728631 
L 145.663086 97.853215 
L 148.064625 103.152463 
L 150.466164 108.562993 
L 152.867703 114.137665 
L 155.269242 120.07977 
L 157.670782 126.329229 
L 160.072321 132.727184 
L 162.47386 139.125011 
L 164.875399 145.352 
" clip-path="url(#p8182be9009)" style="fill: none; stroke: #000000; stroke-opacity: 0.5; stroke-width: 6; stroke-linecap: square"/>
   </g>
   <g id="line2d_16">
    <path d="M 167.276938 151.93236 
L 172.080016 166.078334 
L 176.883094 180.635982 
L 186.48925 210.9153 
L 196.095407 242.350048 
L 200.898485 257.396476 
L 208.103102 278.81042 
L 224.913876 327.399927 
L 229.716954 340.801302 
L 234.520032 352.865746 
L 239.32311 363.963177 
L 244.126188 374.189918 
L 251.330806 388.708587 
L 256.133884 397.769749 
L 260.936962 406.066346 
L 265.74004 413.75355 
L 270.543118 420.794334 
L 275.346196 427.20057 
L 280.149275 432.998766 
L 284.952353 438.180104 
L 287.353892 440.571576 
L 292.15697 444.892589 
L 296.960048 448.751088 
L 299.361587 450.528473 
L 301.763126 452.07058 
L 306.566204 454.380209 
L 311.369283 456.404462 
L 316.172361 458.198798 
L 320.975439 459.818672 
L 325.778517 461.183667 
L 330.581595 462.354549 
L 340.187751 464.361176 
L 344.99083 465.202046 
L 347.392369 465.515818 
L 349.793908 465.653197 
L 361.801603 465.710902 
L 369.00622 466.911442 
L 371.407759 467.256757 
L 373.809299 467.898845 
L 383.415455 470.894614 
L 390.620072 472.810349 
L 393.021611 473.281984 
L 407.430846 475.031985 
L 417.037002 476.670548 
L 429.044697 478.482256 
L 433.847776 479.099078 
L 438.650854 479.378965 
L 457.863166 480.136975 
L 469.870862 480.553051 
L 486.681635 481.518081 
L 501.09087 481.914935 
L 517.901643 482.229703 
L 525.10626 482.16808 
L 537.113956 482.200042 
L 558.727808 482.585512 
L 599.553972 484.039388 
L 623.569363 485.04391 
L 649.986293 485.887266 
L 666.797066 486.036992 
L 681.206301 486.126975 
L 717.229387 486.127687 
L 767.661707 486.217923 
L 796.480176 486.90224 
L 815.692489 487.444068 
L 827.700184 487.636313 
L 837.306341 487.803851 
L 837.306341 487.803851 
" clip-path="url(#p8182be9009)" style="fill: none; stroke: #d01e04; stroke-opacity: 0.5; stroke-width: 6; stroke-linecap: square"/>
   </g>
   <g id="line2d_17">
    <path d="M 116.844617 64.124352 
L 119.246156 66.510131 
L 121.647695 68.721575 
L 124.049234 70.846782 
L 126.450774 72.984416 
L 128.852313 75.241467 
L 131.253852 77.590294 
L 133.655391 80.092035 
L 136.05693 82.775886 
L 138.458469 85.442459 
L 140.860008 87.991775 
L 143.261547 93.257106 
L 145.663086 98.213667 
L 148.064625 103.455563 
L 150.466164 108.618282 
L 152.867703 114.155393 
L 155.269242 120.081122 
L 157.670782 126.128166 
L 160.072321 132.443104 
L 162.47386 138.931568 
L 164.875399 145.352 
" clip-path="url(#p8182be9009)" style="fill: none; stroke: #000000; stroke-opacity: 0.5; stroke-width: 6; stroke-linecap: square"/>
   </g>
   <g id="patch_3">
    <path d="M 109.64 515.56 
L 109.64 52.8 
" style="fill: none; stroke: #000000; stroke-width: 0.8; stroke-linejoin: miter; stroke-linecap: square"/>
   </g>
   <g id="patch_4">
    <path d="M 109.64 515.56 
L 858.920192 515.56 
" style="fill: none; stroke: #000000; stroke-width: 0.8; stroke-linejoin: miter; stroke-linecap: square"/>
   </g>
   <g id="text_14">
    <!-- North Asia -->
    <g transform="translate(412.979471 46.8)scale(0.24 -0.24)">
     <defs>
      <path id="DejaVuSans-Bold-4e" d="M 588 4666 
L 1931 4666 
L 3628 1466 
L 3628 4666 
L 4769 4666 
L 4769 0 
L 3425 0 
L 1728 3200 
L 1728 0 
L 588 0 
L 588 4666 
z
" transform="scale(0.015625)"/>
      <path id="DejaVuSans-Bold-74" d="M 1759 4494 
L 1759 3500 
L 2913 3500 
L 2913 2700 
L 1759 2700 
L 1759 1216 
Q 1759 972 1856 886 
Q 1953 800 2241 800 
L 2816 800 
L 2816 0 
L 1856 0 
Q 1194 0 917 276 
Q 641 553 641 1216 
L 641 2700 
L 84 2700 
L 84 3500 
L 641 3500 
L 641 4494 
L 1759 4494 
z
" transform="scale(0.015625)"/>
      <path id="DejaVuSans-Bold-68" d="M 4056 2131 
L 4056 0 
L 2931 0 
L 2931 347 
L 2931 1625 
Q 2931 2084 2911 2256 
Q 2891 2428 2841 2509 
Q 2775 2619 2662 2680 
Q 2550 2741 2406 2741 
Q 2056 2741 1856 2470 
Q 1656 2200 1656 1722 
L 1656 0 
L 538 0 
L 538 4863 
L 1656 4863 
L 1656 2988 
Q 1909 3294 2193 3439 
Q 2478 3584 2822 3584 
Q 3428 3584 3742 3212 
Q 4056 2841 4056 2131 
z
" transform="scale(0.015625)"/>
      <path id="DejaVuSans-Bold-41" d="M 3419 850 
L 1538 850 
L 1241 0 
L 31 0 
L 1759 4666 
L 3194 4666 
L 4922 0 
L 3713 0 
L 3419 850 
z
M 1838 1716 
L 3116 1716 
L 2478 3572 
L 1838 1716 
z
" transform="scale(0.015625)"/>
     </defs>
     <use xlink:href="#DejaVuSans-Bold-4e"/>
     <use xlink:href="#DejaVuSans-Bold-6f" x="83.691406"/>
     <use xlink:href="#DejaVuSans-Bold-72" x="152.392578"/>
     <use xlink:href="#DejaVuSans-Bold-74" x="201.708984"/>
     <use xlink:href="#DejaVuSans-Bold-68" x="249.511719"/>
     <use xlink:href="#DejaVuSans-Bold-20" x="320.703125"/>
     <use xlink:href="#DejaVuSans-Bold-41" x="355.517578"/>
     <use xlink:href="#DejaVuSans-Bold-73" x="432.910156"/>
     <use xlink:href="#DejaVuSans-Bold-69" x="492.431641"/>
     <use xlink:href="#DejaVuSans-Bold-61" x="526.708984"/>
    </g>
   </g>
   <g id="legend_1">
    <g id="patch_5">
     <path d="M 597.903942 225.737875 
L 843.520192 225.737875 
Q 847.920192 225.737875 847.920192 221.337875 
L 847.920192 68.2 
Q 847.920192 63.8 843.520192 63.8 
L 597.903942 63.8 
Q 593.503942 63.8 593.503942 68.2 
L 593.503942 221.337875 
Q 593.503942 225.737875 597.903942 225.737875 
z
" style="fill: #ffffff; opacity: 0.6; stroke: #cccccc; stroke-linejoin: miter"/>
    </g>
    <g id="text_15">
     <!-- Global mean -->
     <g transform="translate(602.303942 89.316563)scale(0.22 -0.22)">
      <defs>
       <path id="DejaVuSans-47" d="M 3809 666 
L 3809 1919 
L 2778 1919 
L 2778 2438 
L 4434 2438 
L 4434 434 
Q 4069 175 3628 42 
Q 3188 -91 2688 -91 
Q 1594 -91 976 548 
Q 359 1188 359 2328 
Q 359 3472 976 4111 
Q 1594 4750 2688 4750 
Q 3144 4750 3555 4637 
Q 3966 4525 4313 4306 
L 4313 3634 
Q 3963 3931 3569 4081 
Q 3175 4231 2741 4231 
Q 1884 4231 1454 3753 
Q 1025 3275 1025 2328 
Q 1025 1384 1454 906 
Q 1884 428 2741 428 
Q 3075 428 3337 486 
Q 3600 544 3809 666 
z
" transform="scale(0.015625)"/>
       <path id="DejaVuSans-6c" d="M 603 4863 
L 1178 4863 
L 1178 0 
L 603 0 
L 603 4863 
z
" transform="scale(0.015625)"/>
       <path id="DejaVuSans-6f" d="M 1959 3097 
Q 1497 3097 1228 2736 
Q 959 2375 959 1747 
Q 959 1119 1226 758 
Q 1494 397 1959 397 
Q 2419 397 2687 759 
Q 2956 1122 2956 1747 
Q 2956 2369 2687 2733 
Q 2419 3097 1959 3097 
z
M 1959 3584 
Q 2709 3584 3137 3096 
Q 3566 2609 3566 1747 
Q 3566 888 3137 398 
Q 2709 -91 1959 -91 
Q 1206 -91 779 398 
Q 353 888 353 1747 
Q 353 2609 779 3096 
Q 1206 3584 1959 3584 
z
" transform="scale(0.015625)"/>
       <path id="DejaVuSans-62" d="M 3116 1747 
Q 3116 2381 2855 2742 
Q 2594 3103 2138 3103 
Q 1681 3103 1420 2742 
Q 1159 2381 1159 1747 
Q 1159 1113 1420 752 
Q 1681 391 2138 391 
Q 2594 391 2855 752 
Q 3116 1113 3116 1747 
z
M 1159 2969 
Q 1341 3281 1617 3432 
Q 1894 3584 2278 3584 
Q 2916 3584 3314 3078 
Q 3713 2572 3713 1747 
Q 3713 922 3314 415 
Q 2916 -91 2278 -91 
Q 1894 -91 1617 61 
Q 1341 213 1159 525 
L 1159 0 
L 581 0 
L 581 4863 
L 1159 4863 
L 1159 2969 
z
" transform="scale(0.015625)"/>
       <path id="DejaVuSans-61" d="M 2194 1759 
Q 1497 1759 1228 1600 
Q 959 1441 959 1056 
Q 959 750 1161 570 
Q 1363 391 1709 391 
Q 2188 391 2477 730 
Q 2766 1069 2766 1631 
L 2766 1759 
L 2194 1759 
z
M 3341 1997 
L 3341 0 
L 2766 0 
L 2766 531 
Q 2569 213 2275 61 
Q 1981 -91 1556 -91 
Q 1019 -91 701 211 
Q 384 513 384 1019 
Q 384 1609 779 1909 
Q 1175 2209 1959 2209 
L 2766 2209 
L 2766 2266 
Q 2766 2663 2505 2880 
Q 2244 3097 1772 3097 
Q 1472 3097 1187 3025 
Q 903 2953 641 2809 
L 641 3341 
Q 956 3463 1253 3523 
Q 1550 3584 1831 3584 
Q 2591 3584 2966 3190 
Q 3341 2797 3341 1997 
z
" transform="scale(0.015625)"/>
       <path id="DejaVuSans-20" transform="scale(0.015625)"/>
       <path id="DejaVuSans-6d" d="M 3328 2828 
Q 3544 3216 3844 3400 
Q 4144 3584 4550 3584 
Q 5097 3584 5394 3201 
Q 5691 2819 5691 2113 
L 5691 0 
L 5113 0 
L 5113 2094 
Q 5113 2597 4934 2840 
Q 4756 3084 4391 3084 
Q 3944 3084 3684 2787 
Q 3425 2491 3425 1978 
L 3425 0 
L 2847 0 
L 2847 2094 
Q 2847 2600 2669 2842 
Q 2491 3084 2119 3084 
Q 1678 3084 1418 2786 
Q 1159 2488 1159 1978 
L 1159 0 
L 581 0 
L 581 3500 
L 1159 3500 
L 1159 2956 
Q 1356 3278 1631 3431 
Q 1906 3584 2284 3584 
Q 2666 3584 2933 3390 
Q 3200 3197 3328 2828 
z
" transform="scale(0.015625)"/>
       <path id="DejaVuSans-65" d="M 3597 1894 
L 3597 1613 
L 953 1613 
Q 991 1019 1311 708 
Q 1631 397 2203 397 
Q 2534 397 2845 478 
Q 3156 559 3463 722 
L 3463 178 
Q 3153 47 2828 -22 
Q 2503 -91 2169 -91 
Q 1331 -91 842 396 
Q 353 884 353 1716 
Q 353 2575 817 3079 
Q 1281 3584 2069 3584 
Q 2775 3584 3186 3129 
Q 3597 2675 3597 1894 
z
M 3022 2063 
Q 3016 2534 2758 2815 
Q 2500 3097 2075 3097 
Q 1594 3097 1305 2825 
Q 1016 2553 972 2059 
L 3022 2063 
z
" transform="scale(0.015625)"/>
       <path id="DejaVuSans-6e" d="M 3513 2113 
L 3513 0 
L 2938 0 
L 2938 2094 
Q 2938 2591 2744 2837 
Q 2550 3084 2163 3084 
Q 1697 3084 1428 2787 
Q 1159 2491 1159 1978 
L 1159 0 
L 581 0 
L 581 3500 
L 1159 3500 
L 1159 2956 
Q 1366 3272 1645 3428 
Q 1925 3584 2291 3584 
Q 2894 3584 3203 3211 
Q 3513 2838 3513 2113 
z
" transform="scale(0.015625)"/>
      </defs>
      <use xlink:href="#DejaVuSans-47"/>
      <use xlink:href="#DejaVuSans-6c" x="77.490234"/>
      <use xlink:href="#DejaVuSans-6f" x="105.273438"/>
      <use xlink:href="#DejaVuSans-62" x="166.455078"/>
      <use xlink:href="#DejaVuSans-61" x="229.931641"/>
      <use xlink:href="#DejaVuSans-6c" x="291.210938"/>
      <use xlink:href="#DejaVuSans-20" x="318.994141"/>
      <use xlink:href="#DejaVuSans-6d" x="350.78125"/>
      <use xlink:href="#DejaVuSans-65" x="448.193359"/>
      <use xlink:href="#DejaVuSans-61" x="509.716797"/>
      <use xlink:href="#DejaVuSans-6e" x="570.996094"/>
     </g>
     <!-- temperature above -->
     <g transform="translate(602.303942 113.95175)scale(0.22 -0.22)">
      <defs>
       <path id="DejaVuSans-74" d="M 1172 4494 
L 1172 3500 
L 2356 3500 
L 2356 3053 
L 1172 3053 
L 1172 1153 
Q 1172 725 1289 603 
Q 1406 481 1766 481 
L 2356 481 
L 2356 0 
L 1766 0 
Q 1100 0 847 248 
Q 594 497 594 1153 
L 594 3053 
L 172 3053 
L 172 3500 
L 594 3500 
L 594 4494 
L 1172 4494 
z
" transform="scale(0.015625)"/>
       <path id="DejaVuSans-70" d="M 1159 525 
L 1159 -1331 
L 581 -1331 
L 581 3500 
L 1159 3500 
L 1159 2969 
Q 1341 3281 1617 3432 
Q 1894 3584 2278 3584 
Q 2916 3584 3314 3078 
Q 3713 2572 3713 1747 
Q 3713 922 3314 415 
Q 2916 -91 2278 -91 
Q 1894 -91 1617 61 
Q 1341 213 1159 525 
z
M 3116 1747 
Q 3116 2381 2855 2742 
Q 2594 3103 2138 3103 
Q 1681 3103 1420 2742 
Q 1159 2381 1159 1747 
Q 1159 1113 1420 752 
Q 1681 391 2138 391 
Q 2594 391 2855 752 
Q 3116 1113 3116 1747 
z
" transform="scale(0.015625)"/>
       <path id="DejaVuSans-72" d="M 2631 2963 
Q 2534 3019 2420 3045 
Q 2306 3072 2169 3072 
Q 1681 3072 1420 2755 
Q 1159 2438 1159 1844 
L 1159 0 
L 581 0 
L 581 3500 
L 1159 3500 
L 1159 2956 
Q 1341 3275 1631 3429 
Q 1922 3584 2338 3584 
Q 2397 3584 2469 3576 
Q 2541 3569 2628 3553 
L 2631 2963 
z
" transform="scale(0.015625)"/>
       <path id="DejaVuSans-75" d="M 544 1381 
L 544 3500 
L 1119 3500 
L 1119 1403 
Q 1119 906 1312 657 
Q 1506 409 1894 409 
Q 2359 409 2629 706 
Q 2900 1003 2900 1516 
L 2900 3500 
L 3475 3500 
L 3475 0 
L 2900 0 
L 2900 538 
Q 2691 219 2414 64 
Q 2138 -91 1772 -91 
Q 1169 -91 856 284 
Q 544 659 544 1381 
z
M 1991 3584 
L 1991 3584 
z
" transform="scale(0.015625)"/>
       <path id="DejaVuSans-76" d="M 191 3500 
L 800 3500 
L 1894 563 
L 2988 3500 
L 3597 3500 
L 2284 0 
L 1503 0 
L 191 3500 
z
" transform="scale(0.015625)"/>
      </defs>
      <use xlink:href="#DejaVuSans-74"/>
      <use xlink:href="#DejaVuSans-65" x="39.208984"/>
      <use xlink:href="#DejaVuSans-6d" x="100.732422"/>
      <use xlink:href="#DejaVuSans-70" x="198.144531"/>
      <use xlink:href="#DejaVuSans-65" x="261.621094"/>
      <use xlink:href="#DejaVuSans-72" x="323.144531"/>
      <use xlink:href="#DejaVuSans-61" x="364.257812"/>
      <use xlink:href="#DejaVuSans-74" x="425.537109"/>
      <use xlink:href="#DejaVuSans-75" x="464.746094"/>
      <use xlink:href="#DejaVuSans-72" x="528.125"/>
      <use xlink:href="#DejaVuSans-65" x="566.988281"/>
      <use xlink:href="#DejaVuSans-20" x="628.511719"/>
      <use xlink:href="#DejaVuSans-61" x="660.298828"/>
      <use xlink:href="#DejaVuSans-62" x="721.578125"/>
      <use xlink:href="#DejaVuSans-6f" x="785.054688"/>
      <use xlink:href="#DejaVuSans-76" x="846.236328"/>
      <use xlink:href="#DejaVuSans-65" x="905.416016"/>
     </g>
     <!-- pre-industrial in 2100 -->
     <g transform="translate(602.303942 138.586938)scale(0.22 -0.22)">
      <defs>
       <path id="DejaVuSans-2d" d="M 313 2009 
L 1997 2009 
L 1997 1497 
L 313 1497 
L 313 2009 
z
" transform="scale(0.015625)"/>
       <path id="DejaVuSans-69" d="M 603 3500 
L 1178 3500 
L 1178 0 
L 603 0 
L 603 3500 
z
M 603 4863 
L 1178 4863 
L 1178 4134 
L 603 4134 
L 603 4863 
z
" transform="scale(0.015625)"/>
       <path id="DejaVuSans-64" d="M 2906 2969 
L 2906 4863 
L 3481 4863 
L 3481 0 
L 2906 0 
L 2906 525 
Q 2725 213 2448 61 
Q 2172 -91 1784 -91 
Q 1150 -91 751 415 
Q 353 922 353 1747 
Q 353 2572 751 3078 
Q 1150 3584 1784 3584 
Q 2172 3584 2448 3432 
Q 2725 3281 2906 2969 
z
M 947 1747 
Q 947 1113 1208 752 
Q 1469 391 1925 391 
Q 2381 391 2643 752 
Q 2906 1113 2906 1747 
Q 2906 2381 2643 2742 
Q 2381 3103 1925 3103 
Q 1469 3103 1208 2742 
Q 947 2381 947 1747 
z
" transform="scale(0.015625)"/>
       <path id="DejaVuSans-73" d="M 2834 3397 
L 2834 2853 
Q 2591 2978 2328 3040 
Q 2066 3103 1784 3103 
Q 1356 3103 1142 2972 
Q 928 2841 928 2578 
Q 928 2378 1081 2264 
Q 1234 2150 1697 2047 
L 1894 2003 
Q 2506 1872 2764 1633 
Q 3022 1394 3022 966 
Q 3022 478 2636 193 
Q 2250 -91 1575 -91 
Q 1294 -91 989 -36 
Q 684 19 347 128 
L 347 722 
Q 666 556 975 473 
Q 1284 391 1588 391 
Q 1994 391 2212 530 
Q 2431 669 2431 922 
Q 2431 1156 2273 1281 
Q 2116 1406 1581 1522 
L 1381 1569 
Q 847 1681 609 1914 
Q 372 2147 372 2553 
Q 372 3047 722 3315 
Q 1072 3584 1716 3584 
Q 2034 3584 2315 3537 
Q 2597 3491 2834 3397 
z
" transform="scale(0.015625)"/>
      </defs>
      <use xlink:href="#DejaVuSans-70"/>
      <use xlink:href="#DejaVuSans-72" x="63.476562"/>
      <use xlink:href="#DejaVuSans-65" x="102.339844"/>
      <use xlink:href="#DejaVuSans-2d" x="163.863281"/>
      <use xlink:href="#DejaVuSans-69" x="199.947266"/>
      <use xlink:href="#DejaVuSans-6e" x="227.730469"/>
      <use xlink:href="#DejaVuSans-64" x="291.109375"/>
      <use xlink:href="#DejaVuSans-75" x="354.585938"/>
      <use xlink:href="#DejaVuSans-73" x="417.964844"/>
      <use xlink:href="#DejaVuSans-74" x="470.064453"/>
      <use xlink:href="#DejaVuSans-72" x="509.273438"/>
      <use xlink:href="#DejaVuSans-69" x="550.386719"/>
      <use xlink:href="#DejaVuSans-61" x="578.169922"/>
      <use xlink:href="#DejaVuSans-6c" x="639.449219"/>
      <use xlink:href="#DejaVuSans-20" x="667.232422"/>
      <use xlink:href="#DejaVuSans-69" x="699.019531"/>
      <use xlink:href="#DejaVuSans-6e" x="726.802734"/>
      <use xlink:href="#DejaVuSans-20" x="790.181641"/>
      <use xlink:href="#DejaVuSans-32" x="821.96875"/>
      <use xlink:href="#DejaVuSans-31" x="885.591797"/>
      <use xlink:href="#DejaVuSans-30" x="949.214844"/>
      <use xlink:href="#DejaVuSans-30" x="1012.837891"/>
     </g>
    </g>
    <g id="line2d_18">
     <path d="M 616.971755 155.478813 
L 638.971755 155.478813 
L 660.971755 155.478813 
" style="fill: none; stroke: #74b8f8; stroke-opacity: 0.5; stroke-width: 6; stroke-linecap: square"/>
    </g>
    <g id="text_16">
     <!-- 1.5C (n=2) -->
     <g transform="translate(678.571755 163.178813)scale(0.22 -0.22)">
      <defs>
       <path id="DejaVuSans-2e" d="M 684 794 
L 1344 794 
L 1344 0 
L 684 0 
L 684 794 
z
" transform="scale(0.015625)"/>
       <path id="DejaVuSans-35" d="M 691 4666 
L 3169 4666 
L 3169 4134 
L 1269 4134 
L 1269 2991 
Q 1406 3038 1543 3061 
Q 1681 3084 1819 3084 
Q 2600 3084 3056 2656 
Q 3513 2228 3513 1497 
Q 3513 744 3044 326 
Q 2575 -91 1722 -91 
Q 1428 -91 1123 -41 
Q 819 9 494 109 
L 494 744 
Q 775 591 1075 516 
Q 1375 441 1709 441 
Q 2250 441 2565 725 
Q 2881 1009 2881 1497 
Q 2881 1984 2565 2268 
Q 2250 2553 1709 2553 
Q 1456 2553 1204 2497 
Q 953 2441 691 2322 
L 691 4666 
z
" transform="scale(0.015625)"/>
       <path id="DejaVuSans-b0" d="M 1600 4347 
Q 1350 4347 1178 4173 
Q 1006 4000 1006 3750 
Q 1006 3503 1178 3333 
Q 1350 3163 1600 3163 
Q 1850 3163 2022 3333 
Q 2194 3503 2194 3750 
Q 2194 3997 2020 4172 
Q 1847 4347 1600 4347 
z
M 1600 4750 
Q 1800 4750 1984 4673 
Q 2169 4597 2303 4453 
Q 2447 4313 2519 4134 
Q 2591 3956 2591 3750 
Q 2591 3338 2302 3052 
Q 2013 2766 1594 2766 
Q 1172 2766 890 3047 
Q 609 3328 609 3750 
Q 609 4169 896 4459 
Q 1184 4750 1600 4750 
z
" transform="scale(0.015625)"/>
       <path id="DejaVuSans-43" d="M 4122 4306 
L 4122 3641 
Q 3803 3938 3442 4084 
Q 3081 4231 2675 4231 
Q 1875 4231 1450 3742 
Q 1025 3253 1025 2328 
Q 1025 1406 1450 917 
Q 1875 428 2675 428 
Q 3081 428 3442 575 
Q 3803 722 4122 1019 
L 4122 359 
Q 3791 134 3420 21 
Q 3050 -91 2638 -91 
Q 1578 -91 968 557 
Q 359 1206 359 2328 
Q 359 3453 968 4101 
Q 1578 4750 2638 4750 
Q 3056 4750 3426 4639 
Q 3797 4528 4122 4306 
z
" transform="scale(0.015625)"/>
       <path id="DejaVuSans-28" d="M 1984 4856 
Q 1566 4138 1362 3434 
Q 1159 2731 1159 2009 
Q 1159 1288 1364 580 
Q 1569 -128 1984 -844 
L 1484 -844 
Q 1016 -109 783 600 
Q 550 1309 550 2009 
Q 550 2706 781 3412 
Q 1013 4119 1484 4856 
L 1984 4856 
z
" transform="scale(0.015625)"/>
       <path id="DejaVuSans-3d" d="M 678 2906 
L 4684 2906 
L 4684 2381 
L 678 2381 
L 678 2906 
z
M 678 1631 
L 4684 1631 
L 4684 1100 
L 678 1100 
L 678 1631 
z
" transform="scale(0.015625)"/>
       <path id="DejaVuSans-29" d="M 513 4856 
L 1013 4856 
Q 1481 4119 1714 3412 
Q 1947 2706 1947 2009 
Q 1947 1309 1714 600 
Q 1481 -109 1013 -844 
L 513 -844 
Q 928 -128 1133 580 
Q 1338 1288 1338 2009 
Q 1338 2731 1133 3434 
Q 928 4138 513 4856 
z
" transform="scale(0.015625)"/>
      </defs>
      <use xlink:href="#DejaVuSans-31"/>
      <use xlink:href="#DejaVuSans-2e" x="63.623047"/>
      <use xlink:href="#DejaVuSans-35" x="95.410156"/>
      <use xlink:href="#DejaVuSans-b0" x="159.033203"/>
      <use xlink:href="#DejaVuSans-43" x="209.033203"/>
      <use xlink:href="#DejaVuSans-20" x="278.857422"/>
      <use xlink:href="#DejaVuSans-28" x="310.644531"/>
      <use xlink:href="#DejaVuSans-6e" x="349.658203"/>
      <use xlink:href="#DejaVuSans-3d" x="413.037109"/>
      <use xlink:href="#DejaVuSans-32" x="496.826172"/>
      <use xlink:href="#DejaVuSans-29" x="560.449219"/>
     </g>
    </g>
    <g id="line2d_19">
     <path d="M 616.971755 180.070688 
L 638.971755 180.070688 
L 660.971755 180.070688 
" style="fill: none; stroke: #f47100; stroke-opacity: 0.5; stroke-width: 6; stroke-linecap: square"/>
    </g>
    <g id="text_17">
     <!-- 2.2C (n=14) -->
     <g transform="translate(678.571755 187.770688)scale(0.22 -0.22)">
      <use xlink:href="#DejaVuSans-32"/>
      <use xlink:href="#DejaVuSans-2e" x="63.623047"/>
      <use xlink:href="#DejaVuSans-32" x="95.410156"/>
      <use xlink:href="#DejaVuSans-b0" x="159.033203"/>
      <use xlink:href="#DejaVuSans-43" x="209.033203"/>
      <use xlink:href="#DejaVuSans-20" x="278.857422"/>
      <use xlink:href="#DejaVuSans-28" x="310.644531"/>
      <use xlink:href="#DejaVuSans-6e" x="349.658203"/>
      <use xlink:href="#DejaVuSans-3d" x="413.037109"/>
      <use xlink:href="#DejaVuSans-31" x="496.826172"/>
      <use xlink:href="#DejaVuSans-34" x="560.449219"/>
      <use xlink:href="#DejaVuSans-29" x="624.072266"/>
     </g>
    </g>
    <g id="line2d_20">
     <path d="M 616.971755 204.662563 
L 638.971755 204.662563 
L 660.971755 204.662563 
" style="fill: none; stroke: #d01e04; stroke-opacity: 0.5; stroke-width: 6; stroke-linecap: square"/>
    </g>
    <g id="text_18">
     <!-- 2.8C (n=12) -->
     <g transform="translate(678.571755 212.362563)scale(0.22 -0.22)">
      <use xlink:href="#DejaVuSans-32"/>
      <use xlink:href="#DejaVuSans-2e" x="63.623047"/>
      <use xlink:href="#DejaVuSans-38" x="95.410156"/>
      <use xlink:href="#DejaVuSans-b0" x="159.033203"/>
      <use xlink:href="#DejaVuSans-43" x="209.033203"/>
      <use xlink:href="#DejaVuSans-20" x="278.857422"/>
      <use xlink:href="#DejaVuSans-28" x="310.644531"/>
      <use xlink:href="#DejaVuSans-6e" x="349.658203"/>
      <use xlink:href="#DejaVuSans-3d" x="413.037109"/>
      <use xlink:href="#DejaVuSans-31" x="496.826172"/>
      <use xlink:href="#DejaVuSans-32" x="560.449219"/>
      <use xlink:href="#DejaVuSans-29" x="624.072266"/>
     </g>
    </g>
   </g>
  </g>
 </g>
 <defs>
  <clipPath id="p8182be9009">
   <rect x="109.64" y="52.8" width="749.280192" height="462.76"/>
  </clipPath>
 </defs>
</svg>
