<?xml version="1.0" encoding="utf-8" standalone="no"?>
<!DOCTYPE svg PUBLIC "-//W3C//DTD SVG 1.1//EN"
  "http://www.w3.org/Graphics/SVG/1.1/DTD/svg11.dtd">
<svg xmlns:xlink="http://www.w3.org/1999/xlink" width="900pt" height="600pt" viewBox="0 0 900 600" xmlns="http://www.w3.org/2000/svg" version="1.1">
 <metadata>
  <rdf:RDF xmlns:dc="http://purl.org/dc/elements/1.1/" xmlns:cc="http://creativecommons.org/ns#" xmlns:rdf="http://www.w3.org/1999/02/22-rdf-syntax-ns#">
   <cc:Work>
    <dc:type rdf:resource="http://purl.org/dc/dcmitype/StillImage"/>
    <dc:date>2024-10-31T18:28:36.756354</dc:date>
    <dc:format>image/svg+xml</dc:format>
    <dc:creator>
     <cc:Agent>
      <dc:title>Matplotlib v3.5.3, https://matplotlib.org/</dc:title>
     </cc:Agent>
    </dc:creator>
   </cc:Work>
  </rdf:RDF>
 </metadata>
 <defs>
  <style type="text/css">*{stroke-linejoin: round; stroke-linecap: butt}</style>
 </defs>
 <g id="figure_1">
  <g id="patch_1">
   <path d="M 0 600 
L 900 600 
L 900 0 
L 0 0 
z
" style="fill: #ffffff"/>
  </g>
  <g id="axes_1">
   <g id="patch_2">
    <path d="M 109.64 515.56 
L 858.920192 515.56 
L 858.920192 52.8 
L 109.64 52.8 
z
" style="fill: #ffffff"/>
   </g>
   <g id="PolyCollection_1">
    <defs>
     <path id="m92cd3b83e4" d="M 167.276938 -452.264164 
L 167.276938 -452.091823 
L 169.678477 -449.458948 
L 172.080016 -446.841948 
L 174.481555 -444.13528 
L 176.883094 -441.337353 
L 179.284633 -438.499508 
L 181.686172 -435.643323 
L 184.087711 -432.918303 
L 186.48925 -430.126132 
L 188.89079 -427.30932 
L 191.292329 -424.447856 
L 193.693868 -421.539014 
L 196.095407 -418.570402 
L 198.496946 -415.768265 
L 200.898485 -412.995396 
L 203.300024 -410.251719 
L 205.701563 -407.503734 
L 208.103102 -404.821651 
L 210.504641 -402.254403 
L 212.90618 -399.630463 
L 215.307719 -397.054135 
L 217.709259 -394.498847 
L 220.110798 -391.968847 
L 222.512337 -389.489146 
L 224.913876 -386.92455 
L 227.315415 -384.255553 
L 229.716954 -381.633543 
L 232.118493 -378.952676 
L 234.520032 -376.353616 
L 236.921571 -373.714634 
L 239.32311 -371.188364 
L 241.724649 -368.679616 
L 244.126188 -366.345687 
L 246.527727 -364.028498 
L 248.929267 -361.726933 
L 251.330806 -359.515777 
L 253.732345 -357.498818 
L 256.133884 -355.582844 
L 258.535423 -353.600696 
L 260.936962 -351.890643 
L 263.338501 -350.18726 
L 265.74004 -348.540534 
L 268.141579 -347.024342 
L 270.543118 -345.718208 
L 272.944657 -344.648727 
L 275.346196 -343.750311 
L 277.747735 -342.875821 
L 280.149275 -342.055767 
L 282.550814 -341.334883 
L 284.952353 -340.732631 
L 287.353892 -340.136537 
L 289.755431 -339.697629 
L 292.15697 -339.318985 
L 294.558509 -338.890717 
L 296.960048 -338.457131 
L 299.361587 -337.99983 
L 301.763126 -337.547297 
L 304.164665 -337.130406 
L 306.566204 -336.784296 
L 308.967743 -336.507171 
L 311.369283 -336.270572 
L 313.770822 -336.037611 
L 316.172361 -335.787843 
L 318.5739 -335.59345 
L 320.975439 -335.327788 
L 323.376978 -334.999013 
L 325.778517 -334.754161 
L 328.180056 -334.544749 
L 330.581595 -334.316669 
L 332.983134 -334.160423 
L 335.384673 -334.014671 
L 337.786212 -333.772926 
L 340.187751 -333.465102 
L 342.589291 -333.239072 
L 344.99083 -333.025735 
L 347.392369 -332.89087 
L 349.793908 -332.819852 
L 352.195447 -332.754734 
L 354.596986 -332.653998 
L 356.998525 -332.537355 
L 359.400064 -332.443079 
L 361.801603 -332.399103 
L 364.203142 -332.373758 
L 366.604681 -332.276267 
L 369.00622 -332.236161 
L 371.407759 -332.299643 
L 373.809299 -332.353982 
L 376.210838 -332.356556 
L 378.612377 -332.367982 
L 381.013916 -332.318904 
L 383.415455 -332.322282 
L 385.816994 -332.465555 
L 388.218533 -332.673541 
L 390.620072 -332.847205 
L 393.021611 -333.017597 
L 395.42315 -333.149158 
L 397.824689 -333.244865 
L 400.226228 -333.328591 
L 402.627768 -333.370613 
L 405.029307 -333.359358 
L 407.430846 -333.511755 
L 409.832385 -333.571404 
L 412.233924 -333.570762 
L 414.635463 -333.54741 
L 417.037002 -333.573438 
L 419.438541 -333.588707 
L 421.84008 -333.604835 
L 424.241619 -333.715941 
L 426.643158 -333.866185 
L 429.044697 -334.035037 
L 431.446236 -334.082462 
L 433.847776 -334.019776 
L 436.249315 -333.848107 
L 438.650854 -333.754681 
L 441.052393 -333.680549 
L 443.453932 -333.596271 
L 445.855471 -333.500242 
L 448.25701 -333.384987 
L 450.658549 -333.355831 
L 453.060088 -333.311659 
L 455.461627 -333.167908 
L 457.863166 -333.141115 
L 460.264705 -333.128772 
L 462.666244 -333.130745 
L 465.067784 -333.030471 
L 467.469323 -332.933143 
L 469.870862 -332.916606 
L 472.272401 -332.898903 
L 474.67394 -332.799454 
L 477.075479 -332.767095 
L 479.477018 -332.840873 
L 481.878557 -332.961792 
L 484.280096 -333.203078 
L 486.681635 -333.407224 
L 489.083174 -333.608712 
L 491.484713 -333.832373 
L 493.886252 -334.009376 
L 496.287792 -334.324153 
L 498.689331 -334.562209 
L 501.09087 -334.895882 
L 503.492409 -335.201728 
L 505.893948 -335.457202 
L 508.295487 -335.74411 
L 510.697026 -336.062022 
L 513.098565 -336.409121 
L 515.500104 -336.726262 
L 517.901643 -336.963932 
L 520.303182 -337.166783 
L 522.704721 -337.412735 
L 525.10626 -337.656325 
L 527.5078 -337.945192 
L 529.909339 -338.266928 
L 532.310878 -338.566886 
L 534.712417 -338.725283 
L 537.113956 -338.934667 
L 539.515495 -339.145658 
L 541.917034 -339.373928 
L 544.318573 -339.417373 
L 546.720112 -339.471124 
L 549.121651 -339.454814 
L 551.52319 -339.393178 
L 553.924729 -339.400697 
L 556.326268 -339.436948 
L 558.727808 -339.443859 
L 561.129347 -339.510879 
L 563.530886 -339.596885 
L 565.932425 -339.710594 
L 568.333964 -339.803269 
L 570.735503 -339.90999 
L 573.137042 -339.988427 
L 575.538581 -340.044706 
L 577.94012 -340.115069 
L 580.341659 -340.220693 
L 582.743198 -340.45643 
L 585.144737 -340.625771 
L 587.546277 -340.898788 
L 589.947816 -341.12677 
L 592.349355 -341.389373 
L 594.750894 -341.833502 
L 597.152433 -342.186348 
L 599.553972 -342.597321 
L 601.955511 -342.986563 
L 604.35705 -343.388665 
L 606.758589 -343.744604 
L 609.160128 -344.075753 
L 611.561667 -344.358941 
L 613.963206 -344.664772 
L 616.364745 -345.020543 
L 618.766285 -345.449268 
L 621.167824 -345.971138 
L 623.569363 -346.469436 
L 625.970902 -346.915502 
L 628.372441 -347.336243 
L 630.77398 -347.834177 
L 633.175519 -348.400916 
L 635.577058 -348.822423 
L 637.978597 -349.328306 
L 640.380136 -349.962616 
L 642.781675 -350.482569 
L 645.183214 -351.144252 
L 647.584753 -351.757901 
L 649.986293 -352.382604 
L 652.387832 -353.009709 
L 654.789371 -353.747634 
L 657.19091 -354.449788 
L 659.592449 -355.214483 
L 661.993988 -355.956499 
L 664.395527 -356.680244 
L 666.797066 -357.31333 
L 669.198605 -357.961424 
L 671.600144 -358.609515 
L 674.001683 -359.280759 
L 676.403222 -359.92462 
L 678.804761 -360.478487 
L 681.206301 -360.981931 
L 683.60784 -361.542533 
L 686.009379 -362.105062 
L 688.410918 -362.471686 
L 690.812457 -362.930436 
L 693.213996 -363.431443 
L 695.615535 -364.026766 
L 698.017074 -364.666844 
L 700.418613 -365.253832 
L 702.820152 -365.80568 
L 705.221691 -366.446579 
L 707.62323 -367.070839 
L 710.024769 -367.634513 
L 712.426309 -368.24894 
L 714.827848 -368.874133 
L 717.229387 -369.331632 
L 719.630926 -369.764758 
L 722.032465 -370.207014 
L 724.434004 -370.645457 
L 726.835543 -371.211069 
L 729.237082 -371.813338 
L 731.638621 -372.48701 
L 734.04016 -373.223867 
L 736.441699 -374.030683 
L 738.843238 -374.757774 
L 741.244777 -375.436888 
L 743.646317 -376.049327 
L 746.047856 -376.638746 
L 748.449395 -377.266658 
L 750.850934 -377.790176 
L 753.252473 -378.312231 
L 755.654012 -378.848458 
L 758.055551 -379.411177 
L 760.45709 -379.907551 
L 762.858629 -380.419504 
L 765.260168 -380.947525 
L 767.661707 -381.460842 
L 770.063246 -382.023796 
L 772.464786 -382.599314 
L 774.866325 -383.072523 
L 777.267864 -383.586862 
L 779.669403 -384.077996 
L 782.070942 -384.504974 
L 784.472481 -385.006743 
L 786.87402 -385.533296 
L 789.275559 -386.058728 
L 791.677098 -386.600421 
L 794.078637 -387.066335 
L 796.480176 -387.465507 
L 798.881715 -387.995852 
L 801.283254 -388.467584 
L 803.684794 -388.913952 
L 806.086333 -389.3889 
L 808.487872 -389.982227 
L 810.889411 -390.507631 
L 813.29095 -391.028786 
L 815.692489 -391.647094 
L 818.094028 -391.975034 
L 820.495567 -392.316159 
L 822.897106 -392.672533 
L 825.298645 -392.987105 
L 827.700184 -393.260991 
L 830.101723 -393.539741 
L 832.503262 -393.75174 
L 834.904802 -393.889496 
L 837.306341 -393.999264 
L 837.306341 -451.07522 
L 837.306341 -451.07522 
L 834.904802 -451.004249 
L 832.503262 -450.9148 
L 830.101723 -450.707947 
L 827.700184 -450.367926 
L 825.298645 -450.043352 
L 822.897106 -449.661358 
L 820.495567 -449.199982 
L 818.094028 -448.752714 
L 815.692489 -448.317429 
L 813.29095 -447.444609 
L 810.889411 -446.734414 
L 808.487872 -446.023878 
L 806.086333 -445.258755 
L 803.684794 -444.656777 
L 801.283254 -444.093551 
L 798.881715 -443.491504 
L 796.480176 -442.798705 
L 794.078637 -442.283162 
L 791.677098 -441.674834 
L 789.275559 -440.946445 
L 786.87402 -440.236603 
L 784.472481 -439.507296 
L 782.070942 -438.83146 
L 779.669403 -438.2893 
L 777.267864 -437.618188 
L 774.866325 -436.896944 
L 772.464786 -436.227149 
L 770.063246 -435.407808 
L 767.661707 -434.627565 
L 765.260168 -433.9844 
L 762.858629 -433.293672 
L 760.45709 -432.639118 
L 758.055551 -431.984517 
L 755.654012 -431.239543 
L 753.252473 -430.529113 
L 750.850934 -429.853139 
L 748.449395 -429.158672 
L 746.047856 -428.322734 
L 743.646317 -427.547185 
L 741.244777 -426.747122 
L 738.843238 -425.824769 
L 736.441699 -424.815268 
L 734.04016 -423.659127 
L 731.638621 -422.591986 
L 729.237082 -421.651366 
L 726.835543 -420.833746 
L 724.434004 -420.073785 
L 722.032465 -419.51513 
L 719.630926 -418.928654 
L 717.229387 -418.351204 
L 714.827848 -417.761266 
L 712.426309 -416.88116 
L 710.024769 -416.029643 
L 707.62323 -415.25556 
L 705.221691 -414.407073 
L 702.820152 -413.515142 
L 700.418613 -412.74787 
L 698.017074 -411.941717 
L 695.615535 -411.051483 
L 693.213996 -410.243715 
L 690.812457 -409.587938 
L 688.410918 -409.018945 
L 686.009379 -408.575143 
L 683.60784 -407.861688 
L 681.206301 -407.127808 
L 678.804761 -406.460862 
L 676.403222 -405.729027 
L 674.001683 -404.808606 
L 671.600144 -403.85044 
L 669.198605 -402.924296 
L 666.797066 -401.975147 
L 664.395527 -401.017237 
L 661.993988 -399.935093 
L 659.592449 -398.796928 
L 657.19091 -397.588058 
L 654.789371 -396.482154 
L 652.387832 -395.341057 
L 649.986293 -394.332815 
L 647.584753 -393.318175 
L 645.183214 -392.298785 
L 642.781675 -391.194625 
L 640.380136 -390.245421 
L 637.978597 -389.127879 
L 635.577058 -388.192936 
L 633.175519 -387.365495 
L 630.77398 -386.345356 
L 628.372441 -385.418745 
L 625.970902 -384.651321 
L 623.569363 -383.823912 
L 621.167824 -382.916031 
L 618.766285 -382.004918 
L 616.364745 -381.284187 
L 613.963206 -380.653801 
L 611.561667 -380.130956 
L 609.160128 -379.654401 
L 606.758589 -379.10741 
L 604.35705 -378.517732 
L 601.955511 -377.862091 
L 599.553972 -377.246188 
L 597.152433 -376.596344 
L 594.750894 -376.043125 
L 592.349355 -375.392485 
L 589.947816 -375.039159 
L 587.546277 -374.740422 
L 585.144737 -374.39559 
L 582.743198 -374.177629 
L 580.341659 -373.889484 
L 577.94012 -373.770407 
L 575.538581 -373.719876 
L 573.137042 -373.676889 
L 570.735503 -373.563248 
L 568.333964 -373.421107 
L 565.932425 -373.304853 
L 563.530886 -373.119561 
L 561.129347 -372.980569 
L 558.727808 -372.856023 
L 556.326268 -372.827307 
L 553.924729 -372.75862 
L 551.52319 -372.726491 
L 549.121651 -372.788317 
L 546.720112 -372.790342 
L 544.318573 -372.69668 
L 541.917034 -372.573969 
L 539.515495 -372.139607 
L 537.113956 -371.714219 
L 534.712417 -371.310871 
L 532.310878 -370.966497 
L 529.909339 -370.400313 
L 527.5078 -369.792226 
L 525.10626 -369.236449 
L 522.704721 -368.791237 
L 520.303182 -368.341564 
L 517.901643 -367.951796 
L 515.500104 -367.523194 
L 513.098565 -366.9658 
L 510.697026 -366.35841 
L 508.295487 -365.769303 
L 505.893948 -365.20586 
L 503.492409 -364.668074 
L 501.09087 -364.047184 
L 498.689331 -363.392325 
L 496.287792 -362.864098 
L 493.886252 -362.25952 
L 491.484713 -361.887221 
L 489.083174 -361.482517 
L 486.681635 -361.100848 
L 484.280096 -360.729618 
L 481.878557 -360.334907 
L 479.477018 -360.112305 
L 477.075479 -359.960721 
L 474.67394 -359.930791 
L 472.272401 -359.975151 
L 469.870862 -359.910635 
L 467.469323 -359.8244 
L 465.067784 -359.888354 
L 462.666244 -359.948336 
L 460.264705 -359.860764 
L 457.863166 -359.80204 
L 455.461627 -359.777977 
L 453.060088 -359.904724 
L 450.658549 -359.802211 
L 448.25701 -359.685741 
L 445.855471 -359.679227 
L 443.453932 -359.638769 
L 441.052393 -359.558909 
L 438.650854 -359.453154 
L 436.249315 -359.34224 
L 433.847776 -359.340893 
L 431.446236 -359.201638 
L 429.044697 -358.891455 
L 426.643158 -358.413171 
L 424.241619 -357.973644 
L 421.84008 -357.575721 
L 419.438541 -357.31704 
L 417.037002 -357.029923 
L 414.635463 -356.726971 
L 412.233924 -356.507499 
L 409.832385 -356.244543 
L 407.430846 -355.868868 
L 405.029307 -355.387486 
L 402.627768 -355.189724 
L 400.226228 -354.897884 
L 397.824689 -354.546064 
L 395.42315 -354.178011 
L 393.021611 -353.726026 
L 390.620072 -353.212635 
L 388.218533 -352.704708 
L 385.816994 -352.147475 
L 383.415455 -351.661512 
L 381.013916 -351.373282 
L 378.612377 -351.143094 
L 376.210838 -350.803345 
L 373.809299 -350.468545 
L 371.407759 -350.040773 
L 369.00622 -349.613638 
L 366.604681 -349.321338 
L 364.203142 -349.105651 
L 361.801603 -348.800021 
L 359.400064 -348.537802 
L 356.998525 -348.332519 
L 354.596986 -348.163788 
L 352.195447 -347.932967 
L 349.793908 -347.636839 
L 347.392369 -347.34875 
L 344.99083 -347.188069 
L 342.589291 -347.136093 
L 340.187751 -347.094334 
L 337.786212 -347.137189 
L 335.384673 -347.078552 
L 332.983134 -346.884914 
L 330.581595 -346.695561 
L 328.180056 -346.607398 
L 325.778517 -346.474859 
L 323.376978 -346.402538 
L 320.975439 -346.429007 
L 318.5739 -346.355368 
L 316.172361 -346.156303 
L 313.770822 -346.024176 
L 311.369283 -345.86514 
L 308.967743 -345.70039 
L 306.566204 -345.59541 
L 304.164665 -345.612175 
L 301.763126 -345.702537 
L 299.361587 -345.839279 
L 296.960048 -345.964448 
L 294.558509 -346.056687 
L 292.15697 -346.12586 
L 289.755431 -346.128996 
L 287.353892 -346.21089 
L 284.952353 -346.463469 
L 282.550814 -346.72389 
L 280.149275 -347.111862 
L 277.747735 -347.636787 
L 275.346196 -348.228689 
L 272.944657 -348.834347 
L 270.543118 -349.658717 
L 268.141579 -350.773169 
L 265.74004 -352.146762 
L 263.338501 -353.664606 
L 260.936962 -355.249462 
L 258.535423 -356.834155 
L 256.133884 -358.731391 
L 253.732345 -360.53897 
L 251.330806 -362.428288 
L 248.929267 -364.553492 
L 246.527727 -366.760403 
L 244.126188 -368.985726 
L 241.724649 -371.243766 
L 239.32311 -373.709774 
L 236.921571 -376.200289 
L 234.520032 -378.819903 
L 232.118493 -381.395992 
L 229.716954 -384.049209 
L 227.315415 -386.616766 
L 224.913876 -389.1872 
L 222.512337 -391.635268 
L 220.110798 -393.996396 
L 217.709259 -396.42023 
L 215.307719 -398.872899 
L 212.90618 -401.336538 
L 210.504641 -403.847918 
L 208.103102 -406.287904 
L 205.701563 -408.891726 
L 203.300024 -411.582708 
L 200.898485 -414.2736 
L 198.496946 -417.021498 
L 196.095407 -419.796381 
L 193.693868 -422.75827 
L 191.292329 -425.647502 
L 188.89079 -428.470681 
L 186.48925 -431.220321 
L 184.087711 -433.934207 
L 181.686172 -436.547599 
L 179.284633 -439.253825 
L 176.883094 -441.950468 
L 174.481555 -444.656012 
L 172.080016 -447.27768 
L 169.678477 -449.775973 
L 167.276938 -452.264164 
z
" style="stroke: #74b8f8; stroke-opacity: 0.2"/>
    </defs>
    <g clip-path="url(#pd024580c9f)">
     <use xlink:href="#m92cd3b83e4" x="0" y="600" style="fill: #74b8f8; fill-opacity: 0.2; stroke: #74b8f8; stroke-opacity: 0.2"/>
    </g>
   </g>
   <g id="PolyCollection_2">
    <defs>
     <path id="me2e7e85216" d="M 116.844617 -482.73876 
L 116.844617 -481.104342 
L 119.246156 -480.386602 
L 121.647695 -479.741377 
L 124.049234 -478.992889 
L 126.450774 -478.141848 
L 128.852313 -477.317654 
L 131.253852 -476.537439 
L 133.655391 -475.74331 
L 136.05693 -474.936531 
L 138.458469 -474.151891 
L 140.860008 -473.3607 
L 143.261547 -471.948905 
L 145.663086 -470.480026 
L 148.064625 -468.95394 
L 150.466164 -467.258765 
L 152.867703 -465.461001 
L 155.269242 -463.494325 
L 157.670782 -461.350586 
L 160.072321 -459.150746 
L 162.47386 -456.965975 
L 164.875399 -454.648 
L 164.875399 -454.648 
L 164.875399 -454.648 
L 162.47386 -457.157987 
L 160.072321 -459.477653 
L 157.670782 -461.790987 
L 155.269242 -463.995521 
L 152.867703 -466.05603 
L 150.466164 -467.990077 
L 148.064625 -469.846785 
L 145.663086 -471.568576 
L 143.261547 -473.213994 
L 140.860008 -474.817617 
L 138.458469 -475.718558 
L 136.05693 -476.614765 
L 133.655391 -477.501276 
L 131.253852 -478.297277 
L 128.852313 -479.032068 
L 126.450774 -479.847818 
L 124.049234 -480.717347 
L 121.647695 -481.483851 
L 119.246156 -482.10737 
L 116.844617 -482.73876 
z
" style="stroke: #000000; stroke-opacity: 0.2"/>
    </defs>
    <g clip-path="url(#pd024580c9f)">
     <use xlink:href="#me2e7e85216" x="0" y="600" style="fill-opacity: 0.2; stroke: #000000; stroke-opacity: 0.2"/>
    </g>
   </g>
   <g id="PolyCollection_3">
    <defs>
     <path id="mf6be07cf6c" d="M 167.276938 -452.462194 
L 167.276938 -451.92365 
L 169.678477 -449.155105 
L 172.080016 -446.23234 
L 174.481555 -443.195012 
L 176.883094 -439.98743 
L 179.284633 -436.637851 
L 181.686172 -433.156347 
L 184.087711 -429.487494 
L 186.48925 -425.645049 
L 188.89079 -421.848554 
L 191.292329 -417.932734 
L 193.693868 -414.029896 
L 196.095407 -409.991954 
L 198.496946 -405.986089 
L 200.898485 -401.972081 
L 203.300024 -398.071683 
L 205.701563 -394.19286 
L 208.103102 -390.254306 
L 210.504641 -386.241813 
L 212.90618 -382.118247 
L 215.307719 -377.926125 
L 217.709259 -373.627295 
L 220.110798 -369.342153 
L 222.512337 -365.068302 
L 224.913876 -360.872157 
L 227.315415 -356.69322 
L 229.716954 -352.518755 
L 232.118493 -348.222029 
L 234.520032 -343.964605 
L 236.921571 -339.724483 
L 239.32311 -335.506286 
L 241.724649 -331.357608 
L 244.126188 -327.297808 
L 246.527727 -323.299892 
L 248.929267 -319.288504 
L 251.330806 -315.501853 
L 253.732345 -311.934982 
L 256.133884 -308.500416 
L 258.535423 -305.161735 
L 260.936962 -301.913912 
L 263.338501 -298.745413 
L 265.74004 -295.562313 
L 268.141579 -292.478029 
L 270.543118 -289.504987 
L 272.944657 -286.314672 
L 275.346196 -283.224303 
L 277.747735 -280.183079 
L 280.149275 -277.221637 
L 282.550814 -274.234269 
L 284.952353 -271.270543 
L 287.353892 -268.343545 
L 289.755431 -265.436045 
L 292.15697 -262.474212 
L 294.558509 -259.394805 
L 296.960048 -256.369074 
L 299.361587 -253.457288 
L 301.763126 -251.019087 
L 304.164665 -248.8818 
L 306.566204 -246.786668 
L 308.967743 -244.725954 
L 311.369283 -242.725638 
L 313.770822 -240.835533 
L 316.172361 -239.007909 
L 318.5739 -237.237488 
L 320.975439 -235.515267 
L 323.376978 -233.85073 
L 325.778517 -232.32673 
L 328.180056 -230.862778 
L 330.581595 -229.457102 
L 332.983134 -228.082127 
L 335.384673 -226.797581 
L 337.786212 -225.583243 
L 340.187751 -224.382146 
L 342.589291 -223.243365 
L 344.99083 -222.118116 
L 347.392369 -221.036147 
L 349.793908 -219.975356 
L 352.195447 -218.963458 
L 354.596986 -217.97106 
L 356.998525 -217.047792 
L 359.400064 -216.161596 
L 361.801603 -215.318354 
L 364.203142 -214.530129 
L 366.604681 -213.753823 
L 369.00622 -213.014554 
L 371.407759 -212.274964 
L 373.809299 -211.491957 
L 376.210838 -210.665415 
L 378.612377 -209.810081 
L 381.013916 -208.997348 
L 383.415455 -208.188225 
L 385.816994 -207.35994 
L 388.218533 -206.583423 
L 390.620072 -205.789665 
L 393.021611 -205.017546 
L 395.42315 -204.241263 
L 397.824689 -203.453631 
L 400.226228 -202.683523 
L 402.627768 -201.894405 
L 405.029307 -201.158329 
L 407.430846 -200.468673 
L 409.832385 -199.663488 
L 412.233924 -198.763867 
L 414.635463 -197.913715 
L 417.037002 -197.090395 
L 419.438541 -196.299167 
L 421.84008 -195.564006 
L 424.241619 -194.870751 
L 426.643158 -194.10112 
L 429.044697 -193.30348 
L 431.446236 -192.51448 
L 433.847776 -191.762075 
L 436.249315 -191.000948 
L 438.650854 -190.286729 
L 441.052393 -189.588477 
L 443.453932 -188.75455 
L 445.855471 -188.025157 
L 448.25701 -187.342024 
L 450.658549 -186.679607 
L 453.060088 -185.983195 
L 455.461627 -185.232686 
L 457.863166 -184.471705 
L 460.264705 -183.742601 
L 462.666244 -183.040971 
L 465.067784 -182.332317 
L 467.469323 -181.549638 
L 469.870862 -180.723213 
L 472.272401 -179.916305 
L 474.67394 -179.236799 
L 477.075479 -178.54034 
L 479.477018 -177.869542 
L 481.878557 -177.188203 
L 484.280096 -176.544561 
L 486.681635 -175.872257 
L 489.083174 -175.180398 
L 491.484713 -174.510995 
L 493.886252 -173.831474 
L 496.287792 -173.105635 
L 498.689331 -172.408073 
L 501.09087 -171.796548 
L 503.492409 -171.239775 
L 505.893948 -170.736543 
L 508.295487 -170.297262 
L 510.697026 -169.824934 
L 513.098565 -169.332067 
L 515.500104 -168.862632 
L 517.901643 -168.379398 
L 520.303182 -167.887623 
L 522.704721 -167.336476 
L 525.10626 -166.809677 
L 527.5078 -166.259048 
L 529.909339 -165.776486 
L 532.310878 -165.293118 
L 534.712417 -164.841408 
L 537.113956 -164.374557 
L 539.515495 -163.875777 
L 541.917034 -163.476655 
L 544.318573 -163.077384 
L 546.720112 -162.704351 
L 549.121651 -162.294201 
L 551.52319 -161.920595 
L 553.924729 -161.520094 
L 556.326268 -161.092381 
L 558.727808 -160.646138 
L 561.129347 -160.257825 
L 563.530886 -159.913364 
L 565.932425 -159.636948 
L 568.333964 -159.311811 
L 570.735503 -158.999475 
L 573.137042 -158.680035 
L 575.538581 -158.431243 
L 577.94012 -158.148795 
L 580.341659 -157.864206 
L 582.743198 -157.613018 
L 585.144737 -157.384087 
L 587.546277 -157.197142 
L 589.947816 -156.911423 
L 592.349355 -156.675698 
L 594.750894 -156.431609 
L 597.152433 -156.187742 
L 599.553972 -155.909577 
L 601.955511 -155.655557 
L 604.35705 -155.402378 
L 606.758589 -155.1535 
L 609.160128 -154.875223 
L 611.561667 -154.588537 
L 613.963206 -154.297827 
L 616.364745 -154.07329 
L 618.766285 -153.864822 
L 621.167824 -153.730733 
L 623.569363 -153.54243 
L 625.970902 -153.296434 
L 628.372441 -153.044309 
L 630.77398 -152.732268 
L 633.175519 -152.410246 
L 635.577058 -152.124701 
L 637.978597 -151.875034 
L 640.380136 -151.606475 
L 642.781675 -151.318715 
L 645.183214 -151.010602 
L 647.584753 -150.693997 
L 649.986293 -150.378089 
L 652.387832 -150.137823 
L 654.789371 -149.929752 
L 657.19091 -149.709182 
L 659.592449 -149.462578 
L 661.993988 -149.286752 
L 664.395527 -149.065635 
L 666.797066 -148.851916 
L 669.198605 -148.65329 
L 671.600144 -148.484694 
L 674.001683 -148.413337 
L 676.403222 -148.337197 
L 678.804761 -148.262225 
L 681.206301 -148.198639 
L 683.60784 -148.10958 
L 686.009379 -148.040428 
L 688.410918 -147.982215 
L 690.812457 -147.945871 
L 693.213996 -147.909685 
L 695.615535 -147.886879 
L 698.017074 -147.902681 
L 700.418613 -147.827137 
L 702.820152 -147.745524 
L 705.221691 -147.684984 
L 707.62323 -147.646721 
L 710.024769 -147.52237 
L 712.426309 -147.382169 
L 714.827848 -147.185654 
L 717.229387 -146.941293 
L 719.630926 -146.689941 
L 722.032465 -146.378305 
L 724.434004 -146.087934 
L 726.835543 -145.835437 
L 729.237082 -145.562002 
L 731.638621 -145.288798 
L 734.04016 -144.987721 
L 736.441699 -144.709478 
L 738.843238 -144.427667 
L 741.244777 -144.146278 
L 743.646317 -143.886275 
L 746.047856 -143.602182 
L 748.449395 -143.30646 
L 750.850934 -143.022881 
L 753.252473 -142.741248 
L 755.654012 -142.487158 
L 758.055551 -142.230437 
L 760.45709 -142.021464 
L 762.858629 -141.884577 
L 765.260168 -141.761319 
L 767.661707 -141.653839 
L 770.063246 -141.582937 
L 772.464786 -141.481694 
L 774.866325 -141.40055 
L 777.267864 -141.338853 
L 779.669403 -141.236305 
L 782.070942 -141.136147 
L 784.472481 -141.039101 
L 786.87402 -140.924515 
L 789.275559 -140.801638 
L 791.677098 -140.670324 
L 794.078637 -140.549627 
L 796.480176 -140.469936 
L 798.881715 -140.376684 
L 801.283254 -140.302979 
L 803.684794 -140.194172 
L 806.086333 -140.032821 
L 808.487872 -139.886118 
L 810.889411 -139.72756 
L 813.29095 -139.605769 
L 815.692489 -139.47652 
L 818.094028 -139.382704 
L 820.495567 -139.30662 
L 822.897106 -139.201925 
L 825.298645 -139.090821 
L 827.700184 -139.007001 
L 830.101723 -138.925663 
L 832.503262 -138.81469 
L 834.904802 -138.739106 
L 837.306341 -138.694974 
L 837.306341 -234.660306 
L 837.306341 -234.660306 
L 834.904802 -234.353609 
L 832.503262 -234.133501 
L 830.101723 -233.917133 
L 827.700184 -233.788432 
L 825.298645 -233.623456 
L 822.897106 -233.435309 
L 820.495567 -233.211773 
L 818.094028 -233.076686 
L 815.692489 -232.896412 
L 813.29095 -232.6 
L 810.889411 -232.291985 
L 808.487872 -231.940507 
L 806.086333 -231.536062 
L 803.684794 -231.14895 
L 801.283254 -230.733548 
L 798.881715 -230.393777 
L 796.480176 -230.048756 
L 794.078637 -229.754501 
L 791.677098 -229.528766 
L 789.275559 -229.384585 
L 786.87402 -229.196711 
L 784.472481 -228.918112 
L 782.070942 -228.664074 
L 779.669403 -228.382643 
L 777.267864 -228.134221 
L 774.866325 -227.88007 
L 772.464786 -227.685411 
L 770.063246 -227.454623 
L 767.661707 -227.226529 
L 765.260168 -226.963687 
L 762.858629 -226.681733 
L 760.45709 -226.410269 
L 758.055551 -226.113624 
L 755.654012 -225.81078 
L 753.252473 -225.64 
L 750.850934 -225.441441 
L 748.449395 -225.199691 
L 746.047856 -224.922913 
L 743.646317 -224.646771 
L 741.244777 -224.292381 
L 738.843238 -224.004558 
L 736.441699 -223.758342 
L 734.04016 -223.502448 
L 731.638621 -223.277834 
L 729.237082 -223.105352 
L 726.835543 -223.019366 
L 724.434004 -222.929494 
L 722.032465 -222.779232 
L 719.630926 -222.685219 
L 717.229387 -222.605239 
L 714.827848 -222.581551 
L 712.426309 -222.609628 
L 710.024769 -222.63862 
L 707.62323 -222.702213 
L 705.221691 -222.669171 
L 702.820152 -222.627092 
L 700.418613 -222.658421 
L 698.017074 -222.772841 
L 695.615535 -222.880029 
L 693.213996 -223.011138 
L 690.812457 -223.140037 
L 688.410918 -223.313773 
L 686.009379 -223.470136 
L 683.60784 -223.576002 
L 681.206301 -223.617312 
L 678.804761 -223.617032 
L 676.403222 -223.58983 
L 674.001683 -223.607902 
L 671.600144 -223.65306 
L 669.198605 -223.66019 
L 666.797066 -223.65751 
L 664.395527 -223.64446 
L 661.993988 -223.700575 
L 659.592449 -223.737873 
L 657.19091 -223.737938 
L 654.789371 -223.769063 
L 652.387832 -223.780907 
L 649.986293 -223.743789 
L 647.584753 -223.738595 
L 645.183214 -223.763575 
L 642.781675 -223.739612 
L 640.380136 -223.648399 
L 637.978597 -223.558708 
L 635.577058 -223.445929 
L 633.175519 -223.384583 
L 630.77398 -223.318623 
L 628.372441 -223.25489 
L 625.970902 -223.152324 
L 623.569363 -223.024763 
L 621.167824 -222.991804 
L 618.766285 -222.998429 
L 616.364745 -222.946267 
L 613.963206 -222.830223 
L 611.561667 -222.710553 
L 609.160128 -222.633331 
L 606.758589 -222.579404 
L 604.35705 -222.581164 
L 601.955511 -222.562031 
L 599.553972 -222.583472 
L 597.152433 -222.546321 
L 594.750894 -222.553913 
L 592.349355 -222.575055 
L 589.947816 -222.632009 
L 587.546277 -222.707244 
L 585.144737 -222.752421 
L 582.743198 -222.786138 
L 580.341659 -222.835089 
L 577.94012 -222.931184 
L 575.538581 -222.986276 
L 573.137042 -223.058086 
L 570.735503 -223.054739 
L 568.333964 -223.077195 
L 565.932425 -223.105825 
L 563.530886 -223.18167 
L 561.129347 -223.316526 
L 558.727808 -223.432551 
L 556.326268 -223.503734 
L 553.924729 -223.583778 
L 551.52319 -223.623936 
L 549.121651 -223.668413 
L 546.720112 -223.746106 
L 544.318573 -223.85075 
L 541.917034 -223.997219 
L 539.515495 -224.163811 
L 537.113956 -224.330366 
L 534.712417 -224.499125 
L 532.310878 -224.686482 
L 529.909339 -224.882645 
L 527.5078 -225.020087 
L 525.10626 -225.094759 
L 522.704721 -225.26587 
L 520.303182 -225.491633 
L 517.901643 -225.743537 
L 515.500104 -225.939937 
L 513.098565 -226.07873 
L 510.697026 -226.206885 
L 508.295487 -226.330449 
L 505.893948 -226.501195 
L 503.492409 -226.6487 
L 501.09087 -226.812344 
L 498.689331 -226.943487 
L 496.287792 -227.131286 
L 493.886252 -227.280352 
L 491.484713 -227.458365 
L 489.083174 -227.658721 
L 486.681635 -227.861664 
L 484.280096 -228.128129 
L 481.878557 -228.373417 
L 479.477018 -228.694592 
L 477.075479 -229.013143 
L 474.67394 -229.301463 
L 472.272401 -229.578373 
L 469.870862 -229.826652 
L 467.469323 -230.137493 
L 465.067784 -230.562267 
L 462.666244 -231.024606 
L 460.264705 -231.471099 
L 457.863166 -231.908159 
L 455.461627 -232.353254 
L 453.060088 -232.803177 
L 450.658549 -233.272926 
L 448.25701 -233.686725 
L 445.855471 -234.113674 
L 443.453932 -234.551536 
L 441.052393 -235.012767 
L 438.650854 -235.532559 
L 436.249315 -236.004502 
L 433.847776 -236.522404 
L 431.446236 -237.167278 
L 429.044697 -237.822896 
L 426.643158 -238.4412 
L 424.241619 -239.019088 
L 421.84008 -239.650274 
L 419.438541 -240.217082 
L 417.037002 -240.694887 
L 414.635463 -241.163146 
L 412.233924 -241.677084 
L 409.832385 -242.262203 
L 407.430846 -242.908162 
L 405.029307 -243.629343 
L 402.627768 -244.335782 
L 400.226228 -245.09532 
L 397.824689 -245.887721 
L 395.42315 -246.640896 
L 393.021611 -247.441059 
L 390.620072 -248.207757 
L 388.218533 -248.987413 
L 385.816994 -249.760963 
L 383.415455 -250.442678 
L 381.013916 -251.138265 
L 378.612377 -251.938193 
L 376.210838 -252.771694 
L 373.809299 -253.634403 
L 371.407759 -254.584717 
L 369.00622 -255.53687 
L 366.604681 -256.436008 
L 364.203142 -257.39918 
L 361.801603 -258.390129 
L 359.400064 -259.249438 
L 356.998525 -260.025795 
L 354.596986 -260.795355 
L 352.195447 -261.595737 
L 349.793908 -262.433407 
L 347.392369 -263.281449 
L 344.99083 -264.160392 
L 342.589291 -265.179839 
L 340.187751 -266.259012 
L 337.786212 -267.359331 
L 335.384673 -268.556894 
L 332.983134 -269.835075 
L 330.581595 -271.080961 
L 328.180056 -272.320664 
L 325.778517 -273.557802 
L 323.376978 -274.765198 
L 320.975439 -275.944349 
L 318.5739 -277.22305 
L 316.172361 -278.547842 
L 313.770822 -279.876374 
L 311.369283 -281.328453 
L 308.967743 -282.890818 
L 306.566204 -284.407626 
L 304.164665 -285.94142 
L 301.763126 -287.438788 
L 299.361587 -288.903269 
L 296.960048 -290.452401 
L 294.558509 -292.058775 
L 292.15697 -293.814768 
L 289.755431 -295.732286 
L 287.353892 -297.673256 
L 284.952353 -299.769997 
L 282.550814 -301.877913 
L 280.149275 -304.020256 
L 277.747735 -306.261227 
L 275.346196 -308.576027 
L 272.944657 -311.013635 
L 270.543118 -313.617087 
L 268.141579 -316.396268 
L 265.74004 -319.149586 
L 263.338501 -321.930711 
L 260.936962 -324.684457 
L 258.535423 -327.444654 
L 256.133884 -330.310268 
L 253.732345 -333.343367 
L 251.330806 -336.325456 
L 248.929267 -339.547838 
L 246.527727 -343.520444 
L 244.126188 -346.894059 
L 241.724649 -349.95421 
L 239.32311 -353.132378 
L 236.921571 -356.331252 
L 234.520032 -359.557948 
L 232.118493 -362.883919 
L 229.716954 -366.461343 
L 227.315415 -370.209153 
L 224.913876 -374.020379 
L 222.512337 -377.969794 
L 220.110798 -381.73791 
L 217.709259 -385.497551 
L 215.307719 -389.265636 
L 212.90618 -392.951613 
L 210.504641 -396.578746 
L 208.103102 -400.188878 
L 205.701563 -403.784148 
L 203.300024 -407.367628 
L 200.898485 -410.792715 
L 198.496946 -414.377401 
L 196.095407 -417.967315 
L 193.693868 -421.533561 
L 191.292329 -424.92321 
L 188.89079 -428.137995 
L 186.48925 -431.267257 
L 184.087711 -434.250962 
L 181.686172 -437.146994 
L 179.284633 -439.881372 
L 176.883094 -442.588403 
L 174.481555 -445.14926 
L 172.080016 -447.721993 
L 169.678477 -450.171444 
L 167.276938 -452.462194 
z
" style="stroke: #f47100; stroke-opacity: 0.2"/>
    </defs>
    <g clip-path="url(#pd024580c9f)">
     <use xlink:href="#mf6be07cf6c" x="0" y="600" style="fill: #f47100; fill-opacity: 0.2; stroke: #f47100; stroke-opacity: 0.2"/>
    </g>
   </g>
   <g id="PolyCollection_4">
    <defs>
     <path id="m3de0032649" d="M 116.844617 -484.196097 
L 116.844617 -480.985949 
L 119.246156 -480.223131 
L 121.647695 -479.564821 
L 124.049234 -478.822271 
L 126.450774 -477.977073 
L 128.852313 -477.145828 
L 131.253852 -476.34078 
L 133.655391 -475.546149 
L 136.05693 -474.778213 
L 138.458469 -474.04835 
L 140.860008 -473.264476 
L 143.261547 -471.848209 
L 145.663086 -470.232331 
L 148.064625 -468.545167 
L 150.466164 -466.807177 
L 152.867703 -464.965324 
L 155.269242 -462.993154 
L 157.670782 -460.972739 
L 160.072321 -458.9286 
L 162.47386 -456.861018 
L 164.875399 -454.648 
L 164.875399 -454.648 
L 164.875399 -454.648 
L 162.47386 -457.30889 
L 160.072321 -459.840931 
L 157.670782 -462.314213 
L 155.269242 -464.616593 
L 152.867703 -466.781688 
L 150.466164 -468.803893 
L 148.064625 -470.694107 
L 145.663086 -472.485409 
L 143.261547 -474.201765 
L 140.860008 -475.902958 
L 138.458469 -476.891172 
L 136.05693 -477.881648 
L 133.655391 -478.7955 
L 131.253852 -479.599199 
L 128.852313 -480.464037 
L 126.450774 -481.286047 
L 124.049234 -482.058101 
L 121.647695 -482.864435 
L 119.246156 -483.595344 
L 116.844617 -484.196097 
z
" style="stroke: #000000; stroke-opacity: 0.2"/>
    </defs>
    <g clip-path="url(#pd024580c9f)">
     <use xlink:href="#m3de0032649" x="0" y="600" style="fill-opacity: 0.2; stroke: #000000; stroke-opacity: 0.2"/>
    </g>
   </g>
   <g id="PolyCollection_5">
    <defs>
     <path id="m9f6ec7c971" d="M 167.276938 -452.60139 
L 167.276938 -451.01015 
L 169.678477 -447.120964 
L 172.080016 -443.120511 
L 174.481555 -438.913171 
L 176.883094 -434.500801 
L 179.284633 -429.851559 
L 181.686172 -424.976522 
L 184.087711 -419.962549 
L 186.48925 -414.955389 
L 188.89079 -409.936239 
L 191.292329 -404.789178 
L 193.693868 -399.614028 
L 196.095407 -394.4228 
L 198.496946 -389.230645 
L 200.898485 -384.040114 
L 203.300024 -378.825029 
L 205.701563 -373.760551 
L 208.103102 -368.627871 
L 210.504641 -363.673904 
L 212.90618 -358.800779 
L 215.307719 -353.919063 
L 217.709259 -349.00952 
L 220.110798 -344.219581 
L 222.512337 -339.557764 
L 224.913876 -334.986301 
L 227.315415 -330.438954 
L 229.716954 -325.924345 
L 232.118493 -321.554225 
L 234.520032 -317.135495 
L 236.921571 -312.762991 
L 239.32311 -308.449706 
L 241.724649 -304.226233 
L 244.126188 -300.0444 
L 246.527727 -295.925968 
L 248.929267 -291.930585 
L 251.330806 -288.049654 
L 253.732345 -284.213456 
L 256.133884 -280.549636 
L 258.535423 -276.927406 
L 260.936962 -273.287287 
L 263.338501 -269.722005 
L 265.74004 -266.327789 
L 268.141579 -262.935343 
L 270.543118 -259.565838 
L 272.944657 -256.251601 
L 275.346196 -253.066174 
L 277.747735 -250.029641 
L 280.149275 -247.071947 
L 282.550814 -244.156404 
L 284.952353 -240.868784 
L 287.353892 -237.61751 
L 289.755431 -234.391776 
L 292.15697 -231.317147 
L 294.558509 -228.397357 
L 296.960048 -225.531427 
L 299.361587 -222.733947 
L 301.763126 -220.32955 
L 304.164665 -218.268571 
L 306.566204 -216.288454 
L 308.967743 -214.373776 
L 311.369283 -212.530949 
L 313.770822 -210.925302 
L 316.172361 -209.403824 
L 318.5739 -207.88307 
L 320.975439 -206.022394 
L 323.376978 -204.195203 
L 325.778517 -202.394399 
L 328.180056 -200.608329 
L 330.581595 -198.85842 
L 332.983134 -197.488728 
L 335.384673 -196.319174 
L 337.786212 -195.193835 
L 340.187751 -194.080169 
L 342.589291 -193.002368 
L 344.99083 -191.58349 
L 347.392369 -189.947726 
L 349.793908 -188.346986 
L 352.195447 -186.773299 
L 354.596986 -185.281843 
L 356.998525 -183.779565 
L 359.400064 -182.324198 
L 361.801603 -180.924446 
L 364.203142 -179.559326 
L 366.604681 -178.173609 
L 369.00622 -176.796882 
L 371.407759 -175.458722 
L 373.809299 -174.129889 
L 376.210838 -172.810445 
L 378.612377 -171.526818 
L 381.013916 -170.298954 
L 383.415455 -169.065858 
L 385.816994 -167.874238 
L 388.218533 -166.740101 
L 390.620072 -165.605611 
L 393.021611 -164.522424 
L 395.42315 -163.448575 
L 397.824689 -162.378793 
L 400.226228 -161.351203 
L 402.627768 -160.34823 
L 405.029307 -159.331716 
L 407.430846 -158.321587 
L 409.832385 -157.341057 
L 412.233924 -156.324967 
L 414.635463 -155.337514 
L 417.037002 -154.359296 
L 419.438541 -153.399589 
L 421.84008 -152.469177 
L 424.241619 -151.548433 
L 426.643158 -150.647913 
L 429.044697 -149.746693 
L 431.446236 -148.918218 
L 433.847776 -148.113514 
L 436.249315 -147.333761 
L 438.650854 -146.567964 
L 441.052393 -145.813331 
L 443.453932 -145.071235 
L 445.855471 -144.321371 
L 448.25701 -143.578344 
L 450.658549 -142.825654 
L 453.060088 -142.137067 
L 455.461627 -141.453105 
L 457.863166 -140.77149 
L 460.264705 -140.126498 
L 462.666244 -139.495669 
L 465.067784 -138.901659 
L 467.469323 -138.342053 
L 469.870862 -137.792299 
L 472.272401 -137.249277 
L 474.67394 -136.736084 
L 477.075479 -136.237528 
L 479.477018 -135.721788 
L 481.878557 -135.211419 
L 484.280096 -134.714217 
L 486.681635 -134.216801 
L 489.083174 -133.699511 
L 491.484713 -133.199052 
L 493.886252 -132.740137 
L 496.287792 -132.381995 
L 498.689331 -132.046165 
L 501.09087 -131.724933 
L 503.492409 -131.425688 
L 505.893948 -131.130829 
L 508.295487 -130.842931 
L 510.697026 -130.459526 
L 513.098565 -129.79576 
L 515.500104 -129.154494 
L 517.901643 -128.553589 
L 520.303182 -127.959942 
L 522.704721 -127.376953 
L 525.10626 -126.823897 
L 527.5078 -126.279737 
L 529.909339 -125.788079 
L 532.310878 -125.38222 
L 534.712417 -125.071414 
L 537.113956 -124.901745 
L 539.515495 -124.745191 
L 541.917034 -124.595967 
L 544.318573 -124.456384 
L 546.720112 -124.32002 
L 549.121651 -124.198809 
L 551.52319 -124.103167 
L 553.924729 -124.022415 
L 556.326268 -123.946281 
L 558.727808 -123.87979 
L 561.129347 -123.840461 
L 563.530886 -123.795944 
L 565.932425 -123.772796 
L 568.333964 -123.765092 
L 570.735503 -123.763877 
L 573.137042 -123.749061 
L 575.538581 -123.747527 
L 577.94012 -123.75074 
L 580.341659 -123.757584 
L 582.743198 -123.782561 
L 585.144737 -123.814144 
L 587.546277 -123.829272 
L 589.947816 -123.848251 
L 592.349355 -123.880714 
L 594.750894 -123.92341 
L 597.152433 -123.973351 
L 599.553972 -124.028381 
L 601.955511 -123.882469 
L 604.35705 -123.703092 
L 606.758589 -123.452019 
L 609.160128 -123.182278 
L 611.561667 -122.902027 
L 613.963206 -122.61614 
L 616.364745 -122.338603 
L 618.766285 -122.072844 
L 621.167824 -121.814067 
L 623.569363 -121.55439 
L 625.970902 -121.304469 
L 628.372441 -121.050368 
L 630.77398 -120.797937 
L 633.175519 -120.575364 
L 635.577058 -120.356118 
L 637.978597 -120.150088 
L 640.380136 -119.95966 
L 642.781675 -119.784701 
L 645.183214 -119.608796 
L 647.584753 -119.418248 
L 649.986293 -119.228263 
L 652.387832 -119.047675 
L 654.789371 -118.872007 
L 657.19091 -118.713424 
L 659.592449 -118.558353 
L 661.993988 -118.390225 
L 664.395527 -118.223376 
L 666.797066 -118.046838 
L 669.198605 -117.870206 
L 671.600144 -117.710174 
L 674.001683 -117.56896 
L 676.403222 -117.448469 
L 678.804761 -117.311688 
L 681.206301 -117.17549 
L 683.60784 -117.046147 
L 686.009379 -116.911005 
L 688.410918 -116.781018 
L 690.812457 -116.639498 
L 693.213996 -116.511975 
L 695.615535 -116.391731 
L 698.017074 -116.257164 
L 700.418613 -116.133523 
L 702.820152 -116.004677 
L 705.221691 -115.877502 
L 707.62323 -115.75961 
L 710.024769 -115.640127 
L 712.426309 -115.521279 
L 714.827848 -115.406592 
L 717.229387 -115.292445 
L 719.630926 -115.170384 
L 722.032465 -115.046807 
L 724.434004 -114.9148 
L 726.835543 -114.794996 
L 729.237082 -114.670656 
L 731.638621 -114.543081 
L 734.04016 -114.41029 
L 736.441699 -114.276665 
L 738.843238 -114.148713 
L 741.244777 -114.008654 
L 743.646317 -113.862125 
L 746.047856 -113.726861 
L 748.449395 -113.599814 
L 750.850934 -113.467006 
L 753.252473 -113.33402 
L 755.654012 -113.202768 
L 758.055551 -113.083124 
L 760.45709 -112.965358 
L 762.858629 -112.85546 
L 765.260168 -112.734025 
L 767.661707 -112.607638 
L 770.063246 -112.478046 
L 772.464786 -112.342732 
L 774.866325 -112.214567 
L 777.267864 -112.091496 
L 779.669403 -111.975772 
L 782.070942 -111.87214 
L 784.472481 -111.74515 
L 786.87402 -111.631533 
L 789.275559 -111.503343 
L 791.677098 -111.388979 
L 794.078637 -111.276612 
L 796.480176 -111.161869 
L 798.881715 -111.06081 
L 801.283254 -110.961887 
L 803.684794 -110.869677 
L 806.086333 -110.769912 
L 808.487872 -110.672315 
L 810.889411 -110.563807 
L 813.29095 -110.464283 
L 815.692489 -110.38404 
L 818.094028 -110.335466 
L 820.495567 -110.292322 
L 822.897106 -110.24674 
L 825.298645 -110.204119 
L 827.700184 -110.163141 
L 830.101723 -110.11321 
L 832.503262 -110.091265 
L 834.904802 -110.049587 
L 837.306341 -110.037865 
L 837.306341 -160.272601 
L 837.306341 -160.272601 
L 834.904802 -160.306721 
L 832.503262 -160.342855 
L 830.101723 -160.353584 
L 827.700184 -160.371795 
L 825.298645 -160.402855 
L 822.897106 -160.480548 
L 820.495567 -160.523424 
L 818.094028 -160.53952 
L 815.692489 -160.550092 
L 813.29095 -160.600546 
L 810.889411 -160.624257 
L 808.487872 -160.657044 
L 806.086333 -160.679826 
L 803.684794 -160.693533 
L 801.283254 -160.717122 
L 798.881715 -160.730079 
L 796.480176 -160.746273 
L 794.078637 -160.765077 
L 791.677098 -160.778629 
L 789.275559 -160.79455 
L 786.87402 -160.798181 
L 784.472481 -160.805328 
L 782.070942 -160.82979 
L 779.669403 -160.840988 
L 777.267864 -160.818377 
L 774.866325 -160.802184 
L 772.464786 -160.846539 
L 770.063246 -160.914731 
L 767.661707 -160.997097 
L 765.260168 -161.075951 
L 762.858629 -161.161517 
L 760.45709 -161.198117 
L 758.055551 -161.243712 
L 755.654012 -161.325335 
L 753.252473 -161.419373 
L 750.850934 -161.529537 
L 748.449395 -161.635206 
L 746.047856 -161.736035 
L 743.646317 -161.86227 
L 741.244777 -161.970917 
L 738.843238 -162.133105 
L 736.441699 -162.284817 
L 734.04016 -162.495579 
L 731.638621 -162.719798 
L 729.237082 -162.981213 
L 726.835543 -163.181377 
L 724.434004 -163.347164 
L 722.032465 -163.536113 
L 719.630926 -163.701389 
L 717.229387 -163.843081 
L 714.827848 -163.996866 
L 712.426309 -164.174534 
L 710.024769 -164.374383 
L 707.62323 -164.539113 
L 705.221691 -164.681332 
L 702.820152 -164.805853 
L 700.418613 -164.927262 
L 698.017074 -165.072742 
L 695.615535 -165.186109 
L 693.213996 -165.326395 
L 690.812457 -165.431331 
L 688.410918 -165.559616 
L 686.009379 -165.616232 
L 683.60784 -165.667023 
L 681.206301 -165.694108 
L 678.804761 -165.722018 
L 676.403222 -165.768704 
L 674.001683 -165.80636 
L 671.600144 -165.840603 
L 669.198605 -165.90735 
L 666.797066 -165.958843 
L 664.395527 -166.01234 
L 661.993988 -166.043868 
L 659.592449 -166.066954 
L 657.19091 -166.081099 
L 654.789371 -166.115229 
L 652.387832 -166.12588 
L 649.986293 -166.092241 
L 647.584753 -166.050005 
L 645.183214 -165.984865 
L 642.781675 -165.92251 
L 640.380136 -165.825389 
L 637.978597 -165.758397 
L 635.577058 -165.717413 
L 633.175519 -165.666777 
L 630.77398 -165.633292 
L 628.372441 -165.575403 
L 625.970902 -165.502077 
L 623.569363 -165.455262 
L 621.167824 -165.396013 
L 618.766285 -165.36229 
L 616.364745 -165.367469 
L 613.963206 -165.400983 
L 611.561667 -165.405739 
L 609.160128 -165.441219 
L 606.758589 -165.469564 
L 604.35705 -165.53222 
L 601.955511 -165.599096 
L 599.553972 -165.682409 
L 597.152433 -165.761022 
L 594.750894 -165.830566 
L 592.349355 -165.920723 
L 589.947816 -165.985195 
L 587.546277 -166.012148 
L 585.144737 -166.0889 
L 582.743198 -166.178196 
L 580.341659 -166.276496 
L 577.94012 -166.343274 
L 575.538581 -166.381753 
L 573.137042 -166.442955 
L 570.735503 -166.481151 
L 568.333964 -166.483305 
L 565.932425 -166.463819 
L 563.530886 -166.476907 
L 561.129347 -166.457004 
L 558.727808 -166.419286 
L 556.326268 -166.328674 
L 553.924729 -166.268815 
L 551.52319 -166.201597 
L 549.121651 -166.140363 
L 546.720112 -166.114236 
L 544.318573 -166.062406 
L 541.917034 -166.036411 
L 539.515495 -166.026786 
L 537.113956 -165.982869 
L 534.712417 -165.915753 
L 532.310878 -165.837608 
L 529.909339 -165.803051 
L 527.5078 -165.782342 
L 525.10626 -165.723653 
L 522.704721 -165.69658 
L 520.303182 -165.69177 
L 517.901643 -166.129277 
L 515.500104 -166.25398 
L 513.098565 -166.344406 
L 510.697026 -166.437073 
L 508.295487 -166.564615 
L 505.893948 -166.791456 
L 503.492409 -167.003321 
L 501.09087 -167.228836 
L 498.689331 -167.466444 
L 496.287792 -167.742082 
L 493.886252 -168.01996 
L 491.484713 -168.289807 
L 489.083174 -168.583124 
L 486.681635 -168.880652 
L 484.280096 -169.183238 
L 481.878557 -169.365806 
L 479.477018 -169.520277 
L 477.075479 -169.699661 
L 474.67394 -169.861443 
L 472.272401 -170.029146 
L 469.870862 -170.210132 
L 467.469323 -170.389073 
L 465.067784 -170.716091 
L 462.666244 -171.280897 
L 460.264705 -171.857805 
L 457.863166 -172.438729 
L 455.461627 -173.004827 
L 453.060088 -173.581223 
L 450.658549 -174.155901 
L 448.25701 -174.723571 
L 445.855471 -175.313457 
L 443.453932 -175.918471 
L 441.052393 -176.481042 
L 438.650854 -177.048711 
L 436.249315 -177.665243 
L 433.847776 -178.285649 
L 431.446236 -178.784933 
L 429.044697 -179.795697 
L 426.643158 -180.748386 
L 424.241619 -181.629134 
L 421.84008 -182.542764 
L 419.438541 -183.413288 
L 417.037002 -184.026874 
L 414.635463 -184.274604 
L 412.233924 -184.534581 
L 409.832385 -184.82231 
L 407.430846 -185.159113 
L 405.029307 -185.531426 
L 402.627768 -185.897385 
L 400.226228 -186.261434 
L 397.824689 -186.621399 
L 395.42315 -186.980179 
L 393.021611 -187.831637 
L 390.620072 -188.794907 
L 388.218533 -190.154862 
L 385.816994 -191.731437 
L 383.415455 -193.357279 
L 381.013916 -194.99689 
L 378.612377 -196.653829 
L 376.210838 -198.36119 
L 373.809299 -200.093844 
L 371.407759 -201.857397 
L 369.00622 -203.64894 
L 366.604681 -205.503232 
L 364.203142 -207.371382 
L 361.801603 -209.24228 
L 359.400064 -211.179737 
L 356.998525 -213.186399 
L 354.596986 -215.275801 
L 352.195447 -217.365702 
L 349.793908 -219.536907 
L 347.392369 -221.767187 
L 344.99083 -224.043786 
L 342.589291 -226.408117 
L 340.187751 -228.835415 
L 337.786212 -231.294956 
L 335.384673 -233.851925 
L 332.983134 -236.489468 
L 330.581595 -239.199544 
L 328.180056 -241.932661 
L 325.778517 -244.726642 
L 323.376978 -247.570956 
L 320.975439 -250.507352 
L 318.5739 -253.494381 
L 316.172361 -256.527419 
L 313.770822 -259.653612 
L 311.369283 -262.835538 
L 308.967743 -266.044515 
L 306.566204 -269.254482 
L 304.164665 -272.466157 
L 301.763126 -275.550283 
L 299.361587 -278.638738 
L 296.960048 -281.674829 
L 294.558509 -284.713933 
L 292.15697 -287.841161 
L 289.755431 -291.064656 
L 287.353892 -294.149769 
L 284.952353 -297.217166 
L 282.550814 -300.360928 
L 280.149275 -303.578075 
L 277.747735 -306.772521 
L 275.346196 -309.984723 
L 272.944657 -313.197212 
L 270.543118 -316.484838 
L 268.141579 -319.864627 
L 265.74004 -323.262357 
L 263.338501 -326.563128 
L 260.936962 -329.867851 
L 258.535423 -333.270925 
L 256.133884 -336.676415 
L 253.732345 -340.039366 
L 251.330806 -343.516962 
L 248.929267 -347.204356 
L 246.527727 -350.924914 
L 244.126188 -354.634445 
L 241.724649 -358.314727 
L 239.32311 -361.956513 
L 236.921571 -365.560854 
L 234.520032 -369.067854 
L 232.118493 -372.645436 
L 229.716954 -376.17333 
L 227.315415 -379.742696 
L 224.913876 -383.276545 
L 222.512337 -386.730897 
L 220.110798 -390.154031 
L 217.709259 -393.660299 
L 215.307719 -397.268502 
L 212.90618 -400.79611 
L 210.504641 -404.245956 
L 208.103102 -407.649449 
L 205.701563 -411.052142 
L 203.300024 -414.240433 
L 200.898485 -417.296903 
L 198.496946 -420.278135 
L 196.095407 -423.183286 
L 193.693868 -426.047962 
L 191.292329 -428.806732 
L 188.89079 -431.532153 
L 186.48925 -434.178503 
L 184.087711 -436.744515 
L 181.686172 -439.246212 
L 179.284633 -441.624796 
L 176.883094 -443.977343 
L 174.481555 -446.224845 
L 172.080016 -448.46383 
L 169.678477 -450.588732 
L 167.276938 -452.60139 
z
" style="stroke: #d01e04; stroke-opacity: 0.2"/>
    </defs>
    <g clip-path="url(#pd024580c9f)">
     <use xlink:href="#m9f6ec7c971" x="0" y="600" style="fill: #d01e04; fill-opacity: 0.2; stroke: #d01e04; stroke-opacity: 0.2"/>
    </g>
   </g>
   <g id="PolyCollection_6">
    <defs>
     <path id="m42bc69d6c5" d="M 116.844617 -487.077712 
L 116.844617 -481.62535 
L 119.246156 -480.839671 
L 121.647695 -480.012885 
L 124.049234 -479.216999 
L 126.450774 -478.450885 
L 128.852313 -477.619891 
L 131.253852 -476.817401 
L 133.655391 -475.950707 
L 136.05693 -475.113107 
L 138.458469 -474.258116 
L 140.860008 -473.3967 
L 143.261547 -471.70796 
L 145.663086 -469.951303 
L 148.064625 -468.238661 
L 150.466164 -466.503072 
L 152.867703 -464.669537 
L 155.269242 -462.759902 
L 157.670782 -460.78343 
L 160.072321 -458.789773 
L 162.47386 -456.724061 
L 164.875399 -454.648 
L 164.875399 -454.648 
L 164.875399 -454.648 
L 162.47386 -458.087674 
L 160.072321 -461.358249 
L 157.670782 -464.469517 
L 155.269242 -467.427704 
L 152.867703 -470.099648 
L 150.466164 -472.453001 
L 148.064625 -474.527488 
L 145.663086 -476.301254 
L 143.261547 -477.939636 
L 140.860008 -479.362495 
L 138.458469 -480.199447 
L 136.05693 -480.998156 
L 133.655391 -481.823709 
L 131.253852 -482.625902 
L 128.852313 -483.436043 
L 126.450774 -484.261591 
L 124.049234 -485.054011 
L 121.647695 -485.761198 
L 119.246156 -486.386902 
L 116.844617 -487.077712 
z
" style="stroke: #000000; stroke-opacity: 0.2"/>
    </defs>
    <g clip-path="url(#pd024580c9f)">
     <use xlink:href="#m42bc69d6c5" x="0" y="600" style="fill-opacity: 0.2; stroke: #000000; stroke-opacity: 0.2"/>
    </g>
   </g>
   <g id="matplotlib.axis_1">
    <g id="xtick_1">
     <g id="line2d_1">
      <defs>
       <path id="m501fef3c98" d="M 0 0 
L 0 3.5 
" style="stroke: #000000; stroke-width: 0.8"/>
      </defs>
      <g>
       <use xlink:href="#m501fef3c98" x="164.875399" y="515.56" style="stroke: #000000; stroke-width: 0.8"/>
      </g>
     </g>
     <g id="text_1">
      <!-- 2020 -->
      <g transform="translate(131.790399 542.315938)scale(0.26 -0.26)">
       <defs>
        <path id="DejaVuSans-32" d="M 1228 531 
L 3431 531 
L 3431 0 
L 469 0 
L 469 531 
Q 828 903 1448 1529 
Q 2069 2156 2228 2338 
Q 2531 2678 2651 2914 
Q 2772 3150 2772 3378 
Q 2772 3750 2511 3984 
Q 2250 4219 1831 4219 
Q 1534 4219 1204 4116 
Q 875 4013 500 3803 
L 500 4441 
Q 881 4594 1212 4672 
Q 1544 4750 1819 4750 
Q 2544 4750 2975 4387 
Q 3406 4025 3406 3419 
Q 3406 3131 3298 2873 
Q 3191 2616 2906 2266 
Q 2828 2175 2409 1742 
Q 1991 1309 1228 531 
z
" transform="scale(0.015625)"/>
        <path id="DejaVuSans-30" d="M 2034 4250 
Q 1547 4250 1301 3770 
Q 1056 3291 1056 2328 
Q 1056 1369 1301 889 
Q 1547 409 2034 409 
Q 2525 409 2770 889 
Q 3016 1369 3016 2328 
Q 3016 3291 2770 3770 
Q 2525 4250 2034 4250 
z
M 2034 4750 
Q 2819 4750 3233 4129 
Q 3647 3509 3647 2328 
Q 3647 1150 3233 529 
Q 2819 -91 2034 -91 
Q 1250 -91 836 529 
Q 422 1150 422 2328 
Q 422 3509 836 4129 
Q 1250 4750 2034 4750 
z
" transform="scale(0.015625)"/>
       </defs>
       <use xlink:href="#DejaVuSans-32"/>
       <use xlink:href="#DejaVuSans-30" x="63.623047"/>
       <use xlink:href="#DejaVuSans-32" x="127.246094"/>
       <use xlink:href="#DejaVuSans-30" x="190.869141"/>
      </g>
     </g>
    </g>
    <g id="xtick_2">
     <g id="line2d_2">
      <g>
       <use xlink:href="#m501fef3c98" x="356.998525" y="515.56" style="stroke: #000000; stroke-width: 0.8"/>
      </g>
     </g>
     <g id="text_2">
      <!-- 2100 -->
      <g transform="translate(323.913525 542.315938)scale(0.26 -0.26)">
       <defs>
        <path id="DejaVuSans-31" d="M 794 531 
L 1825 531 
L 1825 4091 
L 703 3866 
L 703 4441 
L 1819 4666 
L 2450 4666 
L 2450 531 
L 3481 531 
L 3481 0 
L 794 0 
L 794 531 
z
" transform="scale(0.015625)"/>
       </defs>
       <use xlink:href="#DejaVuSans-32"/>
       <use xlink:href="#DejaVuSans-31" x="63.623047"/>
       <use xlink:href="#DejaVuSans-30" x="127.246094"/>
       <use xlink:href="#DejaVuSans-30" x="190.869141"/>
      </g>
     </g>
    </g>
    <g id="xtick_3">
     <g id="line2d_3">
      <g>
       <use xlink:href="#m501fef3c98" x="597.152433" y="515.56" style="stroke: #000000; stroke-width: 0.8"/>
      </g>
     </g>
     <g id="text_3">
      <!-- 2200 -->
      <g transform="translate(564.067433 542.315938)scale(0.26 -0.26)">
       <use xlink:href="#DejaVuSans-32"/>
       <use xlink:href="#DejaVuSans-32" x="63.623047"/>
       <use xlink:href="#DejaVuSans-30" x="127.246094"/>
       <use xlink:href="#DejaVuSans-30" x="190.869141"/>
      </g>
     </g>
    </g>
    <g id="xtick_4">
     <g id="line2d_4">
      <g>
       <use xlink:href="#m501fef3c98" x="837.306341" y="515.56" style="stroke: #000000; stroke-width: 0.8"/>
      </g>
     </g>
     <g id="text_4">
      <!-- 2300 -->
      <g transform="translate(804.221341 542.315938)scale(0.26 -0.26)">
       <defs>
        <path id="DejaVuSans-33" d="M 2597 2516 
Q 3050 2419 3304 2112 
Q 3559 1806 3559 1356 
Q 3559 666 3084 287 
Q 2609 -91 1734 -91 
Q 1441 -91 1130 -33 
Q 819 25 488 141 
L 488 750 
Q 750 597 1062 519 
Q 1375 441 1716 441 
Q 2309 441 2620 675 
Q 2931 909 2931 1356 
Q 2931 1769 2642 2001 
Q 2353 2234 1838 2234 
L 1294 2234 
L 1294 2753 
L 1863 2753 
Q 2328 2753 2575 2939 
Q 2822 3125 2822 3475 
Q 2822 3834 2567 4026 
Q 2313 4219 1838 4219 
Q 1578 4219 1281 4162 
Q 984 4106 628 3988 
L 628 4550 
Q 988 4650 1302 4700 
Q 1616 4750 1894 4750 
Q 2613 4750 3031 4423 
Q 3450 4097 3450 3541 
Q 3450 3153 3228 2886 
Q 3006 2619 2597 2516 
z
" transform="scale(0.015625)"/>
       </defs>
       <use xlink:href="#DejaVuSans-32"/>
       <use xlink:href="#DejaVuSans-33" x="63.623047"/>
       <use xlink:href="#DejaVuSans-30" x="127.246094"/>
       <use xlink:href="#DejaVuSans-30" x="190.869141"/>
      </g>
     </g>
    </g>
    <g id="text_5">
     <!-- Year -->
     <g transform="translate(457.010409 568.439687)scale(0.22 -0.22)">
      <defs>
       <path id="DejaVuSans-Bold-59" d="M -63 4666 
L 1253 4666 
L 2316 3003 
L 3378 4666 
L 4697 4666 
L 2919 1966 
L 2919 0 
L 1716 0 
L 1716 1966 
L -63 4666 
z
" transform="scale(0.015625)"/>
       <path id="DejaVuSans-Bold-65" d="M 4031 1759 
L 4031 1441 
L 1416 1441 
Q 1456 1047 1700 850 
Q 1944 653 2381 653 
Q 2734 653 3104 758 
Q 3475 863 3866 1075 
L 3866 213 
Q 3469 63 3072 -14 
Q 2675 -91 2278 -91 
Q 1328 -91 801 392 
Q 275 875 275 1747 
Q 275 2603 792 3093 
Q 1309 3584 2216 3584 
Q 3041 3584 3536 3087 
Q 4031 2591 4031 1759 
z
M 2881 2131 
Q 2881 2450 2695 2645 
Q 2509 2841 2209 2841 
Q 1884 2841 1681 2658 
Q 1478 2475 1428 2131 
L 2881 2131 
z
" transform="scale(0.015625)"/>
       <path id="DejaVuSans-Bold-61" d="M 2106 1575 
Q 1756 1575 1579 1456 
Q 1403 1338 1403 1106 
Q 1403 894 1545 773 
Q 1688 653 1941 653 
Q 2256 653 2472 879 
Q 2688 1106 2688 1447 
L 2688 1575 
L 2106 1575 
z
M 3816 1997 
L 3816 0 
L 2688 0 
L 2688 519 
Q 2463 200 2181 54 
Q 1900 -91 1497 -91 
Q 953 -91 614 226 
Q 275 544 275 1050 
Q 275 1666 698 1953 
Q 1122 2241 2028 2241 
L 2688 2241 
L 2688 2328 
Q 2688 2594 2478 2717 
Q 2269 2841 1825 2841 
Q 1466 2841 1156 2769 
Q 847 2697 581 2553 
L 581 3406 
Q 941 3494 1303 3539 
Q 1666 3584 2028 3584 
Q 2975 3584 3395 3211 
Q 3816 2838 3816 1997 
z
" transform="scale(0.015625)"/>
       <path id="DejaVuSans-Bold-72" d="M 3138 2547 
Q 2991 2616 2845 2648 
Q 2700 2681 2553 2681 
Q 2122 2681 1889 2404 
Q 1656 2128 1656 1613 
L 1656 0 
L 538 0 
L 538 3500 
L 1656 3500 
L 1656 2925 
Q 1872 3269 2151 3426 
Q 2431 3584 2822 3584 
Q 2878 3584 2943 3579 
Q 3009 3575 3134 3559 
L 3138 2547 
z
" transform="scale(0.015625)"/>
      </defs>
      <use xlink:href="#DejaVuSans-Bold-59"/>
      <use xlink:href="#DejaVuSans-Bold-65" x="63.287109"/>
      <use xlink:href="#DejaVuSans-Bold-61" x="131.109375"/>
      <use xlink:href="#DejaVuSans-Bold-72" x="198.589844"/>
     </g>
    </g>
   </g>
   <g id="matplotlib.axis_2">
    <g id="ytick_1">
     <g id="line2d_5">
      <defs>
       <path id="m7a18cf632d" d="M 0 0 
L -3.5 0 
" style="stroke: #000000; stroke-width: 0.8"/>
      </defs>
      <g>
       <use xlink:href="#m7a18cf632d" x="109.64" y="515.56" style="stroke: #000000; stroke-width: 0.8"/>
      </g>
     </g>
     <g id="text_6">
      <!-- 0 -->
      <g transform="translate(86.0975 525.437969)scale(0.26 -0.26)">
       <use xlink:href="#DejaVuSans-30"/>
      </g>
     </g>
    </g>
    <g id="ytick_2">
     <g id="line2d_6">
      <g>
       <use xlink:href="#m7a18cf632d" x="109.64" y="441.5184" style="stroke: #000000; stroke-width: 0.8"/>
      </g>
     </g>
     <g id="text_7">
      <!-- 20 -->
      <g transform="translate(69.555 451.396369)scale(0.26 -0.26)">
       <use xlink:href="#DejaVuSans-32"/>
       <use xlink:href="#DejaVuSans-30" x="63.623047"/>
      </g>
     </g>
    </g>
    <g id="ytick_3">
     <g id="line2d_7">
      <g>
       <use xlink:href="#m7a18cf632d" x="109.64" y="367.4768" style="stroke: #000000; stroke-width: 0.8"/>
      </g>
     </g>
     <g id="text_8">
      <!-- 40 -->
      <g transform="translate(69.555 377.354769)scale(0.26 -0.26)">
       <defs>
        <path id="DejaVuSans-34" d="M 2419 4116 
L 825 1625 
L 2419 1625 
L 2419 4116 
z
M 2253 4666 
L 3047 4666 
L 3047 1625 
L 3713 1625 
L 3713 1100 
L 3047 1100 
L 3047 0 
L 2419 0 
L 2419 1100 
L 313 1100 
L 313 1709 
L 2253 4666 
z
" transform="scale(0.015625)"/>
       </defs>
       <use xlink:href="#DejaVuSans-34"/>
       <use xlink:href="#DejaVuSans-30" x="63.623047"/>
      </g>
     </g>
    </g>
    <g id="ytick_4">
     <g id="line2d_8">
      <g>
       <use xlink:href="#m7a18cf632d" x="109.64" y="293.4352" style="stroke: #000000; stroke-width: 0.8"/>
      </g>
     </g>
     <g id="text_9">
      <!-- 60 -->
      <g transform="translate(69.555 303.313169)scale(0.26 -0.26)">
       <defs>
        <path id="DejaVuSans-36" d="M 2113 2584 
Q 1688 2584 1439 2293 
Q 1191 2003 1191 1497 
Q 1191 994 1439 701 
Q 1688 409 2113 409 
Q 2538 409 2786 701 
Q 3034 994 3034 1497 
Q 3034 2003 2786 2293 
Q 2538 2584 2113 2584 
z
M 3366 4563 
L 3366 3988 
Q 3128 4100 2886 4159 
Q 2644 4219 2406 4219 
Q 1781 4219 1451 3797 
Q 1122 3375 1075 2522 
Q 1259 2794 1537 2939 
Q 1816 3084 2150 3084 
Q 2853 3084 3261 2657 
Q 3669 2231 3669 1497 
Q 3669 778 3244 343 
Q 2819 -91 2113 -91 
Q 1303 -91 875 529 
Q 447 1150 447 2328 
Q 447 3434 972 4092 
Q 1497 4750 2381 4750 
Q 2619 4750 2861 4703 
Q 3103 4656 3366 4563 
z
" transform="scale(0.015625)"/>
       </defs>
       <use xlink:href="#DejaVuSans-36"/>
       <use xlink:href="#DejaVuSans-30" x="63.623047"/>
      </g>
     </g>
    </g>
    <g id="ytick_5">
     <g id="line2d_9">
      <g>
       <use xlink:href="#m7a18cf632d" x="109.64" y="219.3936" style="stroke: #000000; stroke-width: 0.8"/>
      </g>
     </g>
     <g id="text_10">
      <!-- 80 -->
      <g transform="translate(69.555 229.271569)scale(0.26 -0.26)">
       <defs>
        <path id="DejaVuSans-38" d="M 2034 2216 
Q 1584 2216 1326 1975 
Q 1069 1734 1069 1313 
Q 1069 891 1326 650 
Q 1584 409 2034 409 
Q 2484 409 2743 651 
Q 3003 894 3003 1313 
Q 3003 1734 2745 1975 
Q 2488 2216 2034 2216 
z
M 1403 2484 
Q 997 2584 770 2862 
Q 544 3141 544 3541 
Q 544 4100 942 4425 
Q 1341 4750 2034 4750 
Q 2731 4750 3128 4425 
Q 3525 4100 3525 3541 
Q 3525 3141 3298 2862 
Q 3072 2584 2669 2484 
Q 3125 2378 3379 2068 
Q 3634 1759 3634 1313 
Q 3634 634 3220 271 
Q 2806 -91 2034 -91 
Q 1263 -91 848 271 
Q 434 634 434 1313 
Q 434 1759 690 2068 
Q 947 2378 1403 2484 
z
M 1172 3481 
Q 1172 3119 1398 2916 
Q 1625 2713 2034 2713 
Q 2441 2713 2670 2916 
Q 2900 3119 2900 3481 
Q 2900 3844 2670 4047 
Q 2441 4250 2034 4250 
Q 1625 4250 1398 4047 
Q 1172 3844 1172 3481 
z
" transform="scale(0.015625)"/>
       </defs>
       <use xlink:href="#DejaVuSans-38"/>
       <use xlink:href="#DejaVuSans-30" x="63.623047"/>
      </g>
     </g>
    </g>
    <g id="ytick_6">
     <g id="line2d_10">
      <g>
       <use xlink:href="#m7a18cf632d" x="109.64" y="145.352" style="stroke: #000000; stroke-width: 0.8"/>
      </g>
     </g>
     <g id="text_11">
      <!-- 100 -->
      <g transform="translate(53.0125 155.229969)scale(0.26 -0.26)">
       <use xlink:href="#DejaVuSans-31"/>
       <use xlink:href="#DejaVuSans-30" x="63.623047"/>
       <use xlink:href="#DejaVuSans-30" x="127.246094"/>
      </g>
     </g>
    </g>
    <g id="ytick_7">
     <g id="line2d_11">
      <g>
       <use xlink:href="#m7a18cf632d" x="109.64" y="71.3104" style="stroke: #000000; stroke-width: 0.8"/>
      </g>
     </g>
     <g id="text_12">
      <!-- 120 -->
      <g transform="translate(53.0125 81.188369)scale(0.26 -0.26)">
       <use xlink:href="#DejaVuSans-31"/>
       <use xlink:href="#DejaVuSans-32" x="63.623047"/>
       <use xlink:href="#DejaVuSans-30" x="127.246094"/>
      </g>
     </g>
    </g>
    <g id="text_13">
     <!-- % of Remaining Glacier Mass -->
     <g transform="translate(44.265313 463.619219)rotate(-90)scale(0.22 -0.22)">
      <defs>
       <path id="DejaVuSans-Bold-25" d="M 4959 1925 
Q 4738 1925 4616 1733 
Q 4494 1541 4494 1184 
Q 4494 825 4614 633 
Q 4734 441 4959 441 
Q 5184 441 5303 633 
Q 5422 825 5422 1184 
Q 5422 1541 5301 1733 
Q 5181 1925 4959 1925 
z
M 4959 2450 
Q 5541 2450 5875 2112 
Q 6209 1775 6209 1184 
Q 6209 594 5875 251 
Q 5541 -91 4959 -91 
Q 4378 -91 4042 251 
Q 3706 594 3706 1184 
Q 3706 1772 4042 2111 
Q 4378 2450 4959 2450 
z
M 2094 -91 
L 1403 -91 
L 4319 4750 
L 5013 4750 
L 2094 -91 
z
M 1453 4750 
Q 2034 4750 2367 4411 
Q 2700 4072 2700 3481 
Q 2700 2891 2367 2550 
Q 2034 2209 1453 2209 
Q 872 2209 539 2550 
Q 206 2891 206 3481 
Q 206 4072 539 4411 
Q 872 4750 1453 4750 
z
M 1453 4225 
Q 1228 4225 1106 4031 
Q 984 3838 984 3481 
Q 984 3122 1106 2926 
Q 1228 2731 1453 2731 
Q 1678 2731 1798 2926 
Q 1919 3122 1919 3481 
Q 1919 3838 1797 4031 
Q 1675 4225 1453 4225 
z
" transform="scale(0.015625)"/>
       <path id="DejaVuSans-Bold-20" transform="scale(0.015625)"/>
       <path id="DejaVuSans-Bold-6f" d="M 2203 2784 
Q 1831 2784 1636 2517 
Q 1441 2250 1441 1747 
Q 1441 1244 1636 976 
Q 1831 709 2203 709 
Q 2569 709 2762 976 
Q 2956 1244 2956 1747 
Q 2956 2250 2762 2517 
Q 2569 2784 2203 2784 
z
M 2203 3584 
Q 3106 3584 3614 3096 
Q 4122 2609 4122 1747 
Q 4122 884 3614 396 
Q 3106 -91 2203 -91 
Q 1297 -91 786 396 
Q 275 884 275 1747 
Q 275 2609 786 3096 
Q 1297 3584 2203 3584 
z
" transform="scale(0.015625)"/>
       <path id="DejaVuSans-Bold-66" d="M 2841 4863 
L 2841 4128 
L 2222 4128 
Q 1984 4128 1890 4042 
Q 1797 3956 1797 3744 
L 1797 3500 
L 2753 3500 
L 2753 2700 
L 1797 2700 
L 1797 0 
L 678 0 
L 678 2700 
L 122 2700 
L 122 3500 
L 678 3500 
L 678 3744 
Q 678 4316 997 4589 
Q 1316 4863 1984 4863 
L 2841 4863 
z
" transform="scale(0.015625)"/>
       <path id="DejaVuSans-Bold-52" d="M 2297 2597 
Q 2675 2597 2839 2737 
Q 3003 2878 3003 3200 
Q 3003 3519 2839 3656 
Q 2675 3794 2297 3794 
L 1791 3794 
L 1791 2597 
L 2297 2597 
z
M 1791 1766 
L 1791 0 
L 588 0 
L 588 4666 
L 2425 4666 
Q 3347 4666 3776 4356 
Q 4206 4047 4206 3378 
Q 4206 2916 3982 2619 
Q 3759 2322 3309 2181 
Q 3556 2125 3751 1926 
Q 3947 1728 4147 1325 
L 4800 0 
L 3519 0 
L 2950 1159 
Q 2778 1509 2601 1637 
Q 2425 1766 2131 1766 
L 1791 1766 
z
" transform="scale(0.015625)"/>
       <path id="DejaVuSans-Bold-6d" d="M 3781 2919 
Q 3994 3244 4286 3414 
Q 4578 3584 4928 3584 
Q 5531 3584 5847 3212 
Q 6163 2841 6163 2131 
L 6163 0 
L 5038 0 
L 5038 1825 
Q 5041 1866 5042 1909 
Q 5044 1953 5044 2034 
Q 5044 2406 4934 2573 
Q 4825 2741 4581 2741 
Q 4263 2741 4089 2478 
Q 3916 2216 3909 1719 
L 3909 0 
L 2784 0 
L 2784 1825 
Q 2784 2406 2684 2573 
Q 2584 2741 2328 2741 
Q 2006 2741 1831 2477 
Q 1656 2213 1656 1722 
L 1656 0 
L 531 0 
L 531 3500 
L 1656 3500 
L 1656 2988 
Q 1863 3284 2130 3434 
Q 2397 3584 2719 3584 
Q 3081 3584 3359 3409 
Q 3638 3234 3781 2919 
z
" transform="scale(0.015625)"/>
       <path id="DejaVuSans-Bold-69" d="M 538 3500 
L 1656 3500 
L 1656 0 
L 538 0 
L 538 3500 
z
M 538 4863 
L 1656 4863 
L 1656 3950 
L 538 3950 
L 538 4863 
z
" transform="scale(0.015625)"/>
       <path id="DejaVuSans-Bold-6e" d="M 4056 2131 
L 4056 0 
L 2931 0 
L 2931 347 
L 2931 1631 
Q 2931 2084 2911 2256 
Q 2891 2428 2841 2509 
Q 2775 2619 2662 2680 
Q 2550 2741 2406 2741 
Q 2056 2741 1856 2470 
Q 1656 2200 1656 1722 
L 1656 0 
L 538 0 
L 538 3500 
L 1656 3500 
L 1656 2988 
Q 1909 3294 2193 3439 
Q 2478 3584 2822 3584 
Q 3428 3584 3742 3212 
Q 4056 2841 4056 2131 
z
" transform="scale(0.015625)"/>
       <path id="DejaVuSans-Bold-67" d="M 2919 594 
Q 2688 288 2409 144 
Q 2131 0 1766 0 
Q 1125 0 706 504 
Q 288 1009 288 1791 
Q 288 2575 706 3076 
Q 1125 3578 1766 3578 
Q 2131 3578 2409 3434 
Q 2688 3291 2919 2981 
L 2919 3500 
L 4044 3500 
L 4044 353 
Q 4044 -491 3511 -936 
Q 2978 -1381 1966 -1381 
Q 1638 -1381 1331 -1331 
Q 1025 -1281 716 -1178 
L 716 -306 
Q 1009 -475 1290 -558 
Q 1572 -641 1856 -641 
Q 2406 -641 2662 -400 
Q 2919 -159 2919 353 
L 2919 594 
z
M 2181 2772 
Q 1834 2772 1640 2515 
Q 1447 2259 1447 1791 
Q 1447 1309 1634 1061 
Q 1822 813 2181 813 
Q 2531 813 2725 1069 
Q 2919 1325 2919 1791 
Q 2919 2259 2725 2515 
Q 2531 2772 2181 2772 
z
" transform="scale(0.015625)"/>
       <path id="DejaVuSans-Bold-47" d="M 4781 347 
Q 4331 128 3847 18 
Q 3363 -91 2847 -91 
Q 1681 -91 1000 561 
Q 319 1213 319 2328 
Q 319 3456 1012 4103 
Q 1706 4750 2913 4750 
Q 3378 4750 3804 4662 
Q 4231 4575 4609 4403 
L 4609 3438 
Q 4219 3659 3833 3768 
Q 3447 3878 3059 3878 
Q 2341 3878 1952 3476 
Q 1563 3075 1563 2328 
Q 1563 1588 1938 1184 
Q 2313 781 3003 781 
Q 3191 781 3352 804 
Q 3513 828 3641 878 
L 3641 1784 
L 2906 1784 
L 2906 2591 
L 4781 2591 
L 4781 347 
z
" transform="scale(0.015625)"/>
       <path id="DejaVuSans-Bold-6c" d="M 538 4863 
L 1656 4863 
L 1656 0 
L 538 0 
L 538 4863 
z
" transform="scale(0.015625)"/>
       <path id="DejaVuSans-Bold-63" d="M 3366 3391 
L 3366 2478 
Q 3138 2634 2908 2709 
Q 2678 2784 2431 2784 
Q 1963 2784 1702 2511 
Q 1441 2238 1441 1747 
Q 1441 1256 1702 982 
Q 1963 709 2431 709 
Q 2694 709 2930 787 
Q 3166 866 3366 1019 
L 3366 103 
Q 3103 6 2833 -42 
Q 2563 -91 2291 -91 
Q 1344 -91 809 395 
Q 275 881 275 1747 
Q 275 2613 809 3098 
Q 1344 3584 2291 3584 
Q 2566 3584 2833 3536 
Q 3100 3488 3366 3391 
z
" transform="scale(0.015625)"/>
       <path id="DejaVuSans-Bold-4d" d="M 588 4666 
L 2119 4666 
L 3181 2169 
L 4250 4666 
L 5778 4666 
L 5778 0 
L 4641 0 
L 4641 3413 
L 3566 897 
L 2803 897 
L 1728 3413 
L 1728 0 
L 588 0 
L 588 4666 
z
" transform="scale(0.015625)"/>
       <path id="DejaVuSans-Bold-73" d="M 3272 3391 
L 3272 2541 
Q 2913 2691 2578 2766 
Q 2244 2841 1947 2841 
Q 1628 2841 1473 2761 
Q 1319 2681 1319 2516 
Q 1319 2381 1436 2309 
Q 1553 2238 1856 2203 
L 2053 2175 
Q 2913 2066 3209 1816 
Q 3506 1566 3506 1031 
Q 3506 472 3093 190 
Q 2681 -91 1863 -91 
Q 1516 -91 1145 -36 
Q 775 19 384 128 
L 384 978 
Q 719 816 1070 734 
Q 1422 653 1784 653 
Q 2113 653 2278 743 
Q 2444 834 2444 1013 
Q 2444 1163 2330 1236 
Q 2216 1309 1875 1350 
L 1678 1375 
Q 931 1469 631 1722 
Q 331 1975 331 2491 
Q 331 3047 712 3315 
Q 1094 3584 1881 3584 
Q 2191 3584 2531 3537 
Q 2872 3491 3272 3391 
z
" transform="scale(0.015625)"/>
      </defs>
      <use xlink:href="#DejaVuSans-Bold-25"/>
      <use xlink:href="#DejaVuSans-Bold-20" x="100.195312"/>
      <use xlink:href="#DejaVuSans-Bold-6f" x="135.009766"/>
      <use xlink:href="#DejaVuSans-Bold-66" x="203.710938"/>
      <use xlink:href="#DejaVuSans-Bold-20" x="247.216797"/>
      <use xlink:href="#DejaVuSans-Bold-52" x="282.03125"/>
      <use xlink:href="#DejaVuSans-Bold-65" x="359.033203"/>
      <use xlink:href="#DejaVuSans-Bold-6d" x="426.855469"/>
      <use xlink:href="#DejaVuSans-Bold-61" x="531.054688"/>
      <use xlink:href="#DejaVuSans-Bold-69" x="598.535156"/>
      <use xlink:href="#DejaVuSans-Bold-6e" x="632.8125"/>
      <use xlink:href="#DejaVuSans-Bold-69" x="704.003906"/>
      <use xlink:href="#DejaVuSans-Bold-6e" x="738.28125"/>
      <use xlink:href="#DejaVuSans-Bold-67" x="809.472656"/>
      <use xlink:href="#DejaVuSans-Bold-20" x="881.054688"/>
      <use xlink:href="#DejaVuSans-Bold-47" x="915.869141"/>
      <use xlink:href="#DejaVuSans-Bold-6c" x="997.949219"/>
      <use xlink:href="#DejaVuSans-Bold-61" x="1032.226562"/>
      <use xlink:href="#DejaVuSans-Bold-63" x="1099.707031"/>
      <use xlink:href="#DejaVuSans-Bold-69" x="1158.984375"/>
      <use xlink:href="#DejaVuSans-Bold-65" x="1193.261719"/>
      <use xlink:href="#DejaVuSans-Bold-72" x="1261.083984"/>
      <use xlink:href="#DejaVuSans-Bold-20" x="1310.400391"/>
      <use xlink:href="#DejaVuSans-Bold-4d" x="1345.214844"/>
      <use xlink:href="#DejaVuSans-Bold-61" x="1444.726562"/>
      <use xlink:href="#DejaVuSans-Bold-73" x="1512.207031"/>
      <use xlink:href="#DejaVuSans-Bold-73" x="1571.728516"/>
     </g>
    </g>
   </g>
   <g id="line2d_12">
    <path d="M 167.276938 147.822006 
L 174.481555 155.604354 
L 191.292329 174.952321 
L 198.496946 183.605119 
L 205.701563 191.80227 
L 210.504641 196.948839 
L 217.709259 204.540461 
L 227.315415 214.56384 
L 241.724649 230.038309 
L 248.929267 236.859787 
L 251.330806 239.027967 
L 258.535423 244.782574 
L 265.74004 249.656352 
L 268.141579 251.101244 
L 270.543118 252.311538 
L 272.944657 253.258463 
L 280.149275 255.416186 
L 282.550814 255.970614 
L 287.353892 256.826287 
L 306.566204 258.810147 
L 313.770822 258.969106 
L 323.376978 259.299225 
L 330.581595 259.493885 
L 337.786212 259.544943 
L 342.589291 259.812418 
L 347.392369 259.88019 
L 354.596986 259.591107 
L 359.400064 259.509559 
L 369.00622 259.075101 
L 376.210838 258.420049 
L 381.013916 258.153907 
L 383.415455 258.008103 
L 390.620072 256.97008 
L 395.42315 256.336415 
L 402.627768 255.719831 
L 405.029307 255.626578 
L 409.832385 255.092026 
L 421.84008 254.409722 
L 431.446236 253.35795 
L 433.847776 253.319665 
L 438.650854 253.396083 
L 445.855471 253.410266 
L 450.658549 253.420979 
L 453.060088 253.391808 
L 455.461627 253.527058 
L 479.477018 253.523411 
L 481.878557 253.351651 
L 498.689331 251.022733 
L 503.492409 250.065099 
L 510.697026 248.789784 
L 515.500104 247.875272 
L 527.5078 246.131291 
L 532.310878 245.233308 
L 537.113956 244.675557 
L 541.917034 244.026052 
L 549.121651 243.878434 
L 553.924729 243.920341 
L 563.530886 243.641777 
L 570.735503 243.263381 
L 582.743198 242.682971 
L 585.144737 242.48932 
L 592.349355 241.609071 
L 599.553972 240.078245 
L 609.160128 238.134923 
L 613.963206 237.340714 
L 618.766285 236.272907 
L 625.970902 234.216589 
L 628.372441 233.622506 
L 637.978597 230.771907 
L 640.380136 229.895981 
L 642.781675 229.161403 
L 647.584753 227.461962 
L 652.387832 225.824617 
L 664.395527 221.15126 
L 676.403222 217.173177 
L 686.009379 214.659898 
L 690.812457 213.740813 
L 693.213996 213.162421 
L 705.221691 209.573174 
L 714.827848 206.682301 
L 726.835543 203.977592 
L 731.638621 202.460502 
L 741.244777 198.907995 
L 750.850934 196.178342 
L 770.063246 191.284198 
L 772.464786 190.586768 
L 789.275559 186.497413 
L 794.078637 185.325251 
L 796.480176 184.867894 
L 801.283254 183.719432 
L 806.086333 182.676172 
L 810.889411 181.378977 
L 813.29095 180.763302 
L 815.692489 180.017738 
L 827.700184 178.185541 
L 832.503262 177.66673 
L 837.306341 177.462758 
L 837.306341 177.462758 
" clip-path="url(#pd024580c9f)" style="fill: none; stroke: #74b8f8; stroke-opacity: 0.5; stroke-width: 6; stroke-linecap: square"/>
   </g>
   <g id="line2d_13">
    <path d="M 116.844617 118.078449 
L 119.246156 118.753014 
L 121.647695 119.387386 
L 124.049234 120.144882 
L 126.450774 121.005167 
L 128.852313 121.825139 
L 131.253852 122.582642 
L 133.655391 123.377707 
L 136.05693 124.224352 
L 138.458469 125.064775 
L 140.860008 125.910841 
L 143.261547 127.418551 
L 145.663086 128.975699 
L 148.064625 130.599638 
L 150.466164 132.375579 
L 152.867703 134.241484 
L 155.269242 136.255077 
L 157.670782 138.429214 
L 160.072321 140.685801 
L 162.47386 142.938019 
L 164.875399 145.352 
" clip-path="url(#pd024580c9f)" style="fill: none; stroke: #000000; stroke-opacity: 0.5; stroke-width: 6; stroke-linecap: square"/>
   </g>
   <g id="line2d_14">
    <path d="M 167.276938 147.941775 
L 172.080016 153.442021 
L 176.883094 159.078253 
L 181.686172 165.212283 
L 186.48925 171.651045 
L 193.693868 181.876368 
L 203.300024 196.459305 
L 208.103102 203.800624 
L 215.307719 214.349745 
L 227.315415 231.285824 
L 239.32311 249.548628 
L 244.126188 256.669187 
L 248.929267 262.950493 
L 251.330806 266.388673 
L 263.338501 285.36839 
L 265.74004 289.655187 
L 275.346196 305.32496 
L 277.747735 308.99335 
L 282.550814 315.685851 
L 287.353892 321.956466 
L 292.15697 327.654741 
L 296.960048 333.118063 
L 299.361587 335.729593 
L 304.164665 340.323343 
L 311.369283 346.760265 
L 316.172361 350.954885 
L 320.975439 355.046144 
L 323.376978 357.015998 
L 330.581595 362.257032 
L 335.384673 365.640721 
L 337.786212 367.186267 
L 340.187751 368.559768 
L 347.392369 372.085554 
L 354.596986 375.343199 
L 361.801603 378.284025 
L 369.00622 380.856859 
L 381.013916 384.833338 
L 383.415455 385.552334 
L 388.218533 386.831542 
L 407.430846 392.54486 
L 421.84008 396.392054 
L 429.044697 398.203353 
L 433.847776 399.369677 
L 445.855471 400.925737 
L 453.060088 401.75098 
L 462.666244 402.610915 
L 472.272401 402.928608 
L 484.280096 403.126744 
L 493.886252 402.972664 
L 515.500104 402.097841 
L 529.909339 401.546599 
L 549.121651 401.087172 
L 561.129347 400.997524 
L 587.546277 401.246347 
L 618.766285 402.739216 
L 628.372441 403.470975 
L 637.978597 404.251611 
L 654.789371 405.826806 
L 661.993988 406.193344 
L 671.600144 406.440823 
L 683.60784 406.305647 
L 690.812457 405.946812 
L 705.221691 405.173499 
L 743.646317 404.027203 
L 762.858629 403.077034 
L 786.87402 401.834911 
L 818.094028 399.916097 
L 837.306341 399.326673 
L 837.306341 399.326673 
" clip-path="url(#pd024580c9f)" style="fill: none; stroke: #f47100; stroke-opacity: 0.5; stroke-width: 6; stroke-linecap: square"/>
   </g>
   <g id="line2d_15">
    <path d="M 116.844617 117.849778 
L 119.246156 118.570815 
L 121.647695 119.23747 
L 124.049234 119.963623 
L 126.450774 120.753618 
L 128.852313 121.585017 
L 131.253852 122.455372 
L 133.655391 123.30309 
L 136.05693 124.072804 
L 138.458469 124.804435 
L 140.860008 125.543476 
L 143.261547 126.862196 
L 145.663086 128.344947 
L 148.064625 129.896421 
L 150.466164 131.633826 
L 152.867703 133.628953 
L 155.269242 135.779523 
L 157.670782 137.989709 
L 160.072321 140.359735 
L 162.47386 142.857402 
L 164.875399 145.352 
" clip-path="url(#pd024580c9f)" style="fill: none; stroke: #000000; stroke-opacity: 0.5; stroke-width: 6; stroke-linecap: square"/>
   </g>
   <g id="line2d_16">
    <path d="M 167.276938 148.220644 
L 172.080016 154.444929 
L 176.883094 161.114671 
L 181.686172 168.291909 
L 186.48925 176.22947 
L 191.292329 184.660995 
L 198.496946 197.886912 
L 210.504641 220.462017 
L 215.307719 229.573075 
L 222.512337 243.939308 
L 234.520032 267.133289 
L 239.32311 276.364707 
L 246.527727 289.695747 
L 253.732345 302.348372 
L 260.936962 314.299049 
L 263.338501 318.204409 
L 280.149275 342.13521 
L 284.952353 348.350125 
L 292.15697 357.164572 
L 299.361587 365.161103 
L 304.164665 370.106405 
L 308.967743 374.740282 
L 313.770822 379.071771 
L 318.5739 383.077415 
L 325.778517 388.58773 
L 332.983134 393.772245 
L 342.589291 398.912348 
L 349.793908 402.560698 
L 356.998525 405.89695 
L 361.801603 407.997059 
L 371.407759 411.910024 
L 373.809299 412.820058 
L 378.612377 413.819587 
L 393.021611 416.277215 
L 402.627768 420.004476 
L 412.233924 423.471194 
L 419.438541 425.285496 
L 426.643158 427.078567 
L 433.847776 428.719835 
L 441.052393 430.058477 
L 448.25701 431.126228 
L 455.461627 433.004783 
L 462.666244 434.762497 
L 472.272401 436.806355 
L 477.075479 437.886619 
L 493.886252 443.718833 
L 501.09087 445.988231 
L 508.295487 448.037949 
L 517.901643 450.473709 
L 532.310878 453.864979 
L 558.727808 459.381814 
L 568.333964 461.181088 
L 582.743198 463.499935 
L 594.750894 465.28608 
L 601.955511 466.203593 
L 633.175519 467.915928 
L 642.781675 468.603087 
L 654.789371 469.449189 
L 664.395527 469.995337 
L 674.001683 470.376962 
L 683.60784 470.608649 
L 695.615535 470.565592 
L 729.237082 470.222231 
L 746.047856 470.266767 
L 755.654012 470.293921 
L 770.063246 470.078186 
L 784.472481 469.452827 
L 789.275559 469.216655 
L 822.897106 469.042405 
L 837.306341 469.077899 
L 837.306341 469.077899 
" clip-path="url(#pd024580c9f)" style="fill: none; stroke: #d01e04; stroke-opacity: 0.5; stroke-width: 6; stroke-linecap: square"/>
   </g>
   <g id="line2d_17">
    <path d="M 116.844617 116.157436 
L 119.246156 116.880043 
L 121.647695 117.547803 
L 124.049234 118.226515 
L 126.450774 118.981341 
L 128.852313 119.824676 
L 131.253852 120.739819 
L 133.655391 121.630372 
L 136.05693 122.493933 
L 138.458469 123.316781 
L 140.860008 124.174377 
L 143.261547 125.674658 
L 145.663086 127.276011 
L 148.064625 128.989391 
L 150.466164 130.83286 
L 152.867703 132.882321 
L 155.269242 135.037278 
L 157.670782 137.427965 
L 160.072321 139.911744 
L 162.47386 142.58758 
L 164.875399 145.352 
" clip-path="url(#pd024580c9f)" style="fill: none; stroke: #000000; stroke-opacity: 0.5; stroke-width: 6; stroke-linecap: square"/>
   </g>
   <g id="patch_3">
    <path d="M 109.64 515.56 
L 109.64 52.8 
" style="fill: none; stroke: #000000; stroke-width: 0.8; stroke-linejoin: miter; stroke-linecap: square"/>
   </g>
   <g id="patch_4">
    <path d="M 109.64 515.56 
L 858.920192 515.56 
" style="fill: none; stroke: #000000; stroke-width: 0.8; stroke-linejoin: miter; stroke-linecap: square"/>
   </g>
   <g id="text_14">
    <!-- Central Asia -->
    <g transform="translate(402.108221 46.8)scale(0.24 -0.24)">
     <defs>
      <path id="DejaVuSans-Bold-43" d="M 4288 256 
Q 3956 84 3597 -3 
Q 3238 -91 2847 -91 
Q 1681 -91 1000 561 
Q 319 1213 319 2328 
Q 319 3447 1000 4098 
Q 1681 4750 2847 4750 
Q 3238 4750 3597 4662 
Q 3956 4575 4288 4403 
L 4288 3438 
Q 3953 3666 3628 3772 
Q 3303 3878 2944 3878 
Q 2300 3878 1931 3465 
Q 1563 3053 1563 2328 
Q 1563 1606 1931 1193 
Q 2300 781 2944 781 
Q 3303 781 3628 887 
Q 3953 994 4288 1222 
L 4288 256 
z
" transform="scale(0.015625)"/>
      <path id="DejaVuSans-Bold-74" d="M 1759 4494 
L 1759 3500 
L 2913 3500 
L 2913 2700 
L 1759 2700 
L 1759 1216 
Q 1759 972 1856 886 
Q 1953 800 2241 800 
L 2816 800 
L 2816 0 
L 1856 0 
Q 1194 0 917 276 
Q 641 553 641 1216 
L 641 2700 
L 84 2700 
L 84 3500 
L 641 3500 
L 641 4494 
L 1759 4494 
z
" transform="scale(0.015625)"/>
      <path id="DejaVuSans-Bold-41" d="M 3419 850 
L 1538 850 
L 1241 0 
L 31 0 
L 1759 4666 
L 3194 4666 
L 4922 0 
L 3713 0 
L 3419 850 
z
M 1838 1716 
L 3116 1716 
L 2478 3572 
L 1838 1716 
z
" transform="scale(0.015625)"/>
     </defs>
     <use xlink:href="#DejaVuSans-Bold-43"/>
     <use xlink:href="#DejaVuSans-Bold-65" x="73.388672"/>
     <use xlink:href="#DejaVuSans-Bold-6e" x="141.210938"/>
     <use xlink:href="#DejaVuSans-Bold-74" x="212.402344"/>
     <use xlink:href="#DejaVuSans-Bold-72" x="260.205078"/>
     <use xlink:href="#DejaVuSans-Bold-61" x="309.521484"/>
     <use xlink:href="#DejaVuSans-Bold-6c" x="377.001953"/>
     <use xlink:href="#DejaVuSans-Bold-20" x="411.279297"/>
     <use xlink:href="#DejaVuSans-Bold-41" x="446.09375"/>
     <use xlink:href="#DejaVuSans-Bold-73" x="523.486328"/>
     <use xlink:href="#DejaVuSans-Bold-69" x="583.007812"/>
     <use xlink:href="#DejaVuSans-Bold-61" x="617.285156"/>
    </g>
   </g>
   <g id="legend_1">
    <g id="patch_5">
     <path d="M 597.903942 225.737875 
L 843.520192 225.737875 
Q 847.920192 225.737875 847.920192 221.337875 
L 847.920192 68.2 
Q 847.920192 63.8 843.520192 63.8 
L 597.903942 63.8 
Q 593.503942 63.8 593.503942 68.2 
L 593.503942 221.337875 
Q 593.503942 225.737875 597.903942 225.737875 
z
" style="fill: #ffffff; opacity: 0.6; stroke: #cccccc; stroke-linejoin: miter"/>
    </g>
    <g id="text_15">
     <!-- Global mean -->
     <g transform="translate(602.303942 89.316563)scale(0.22 -0.22)">
      <defs>
       <path id="DejaVuSans-47" d="M 3809 666 
L 3809 1919 
L 2778 1919 
L 2778 2438 
L 4434 2438 
L 4434 434 
Q 4069 175 3628 42 
Q 3188 -91 2688 -91 
Q 1594 -91 976 548 
Q 359 1188 359 2328 
Q 359 3472 976 4111 
Q 1594 4750 2688 4750 
Q 3144 4750 3555 4637 
Q 3966 4525 4313 4306 
L 4313 3634 
Q 3963 3931 3569 4081 
Q 3175 4231 2741 4231 
Q 1884 4231 1454 3753 
Q 1025 3275 1025 2328 
Q 1025 1384 1454 906 
Q 1884 428 2741 428 
Q 3075 428 3337 486 
Q 3600 544 3809 666 
z
" transform="scale(0.015625)"/>
       <path id="DejaVuSans-6c" d="M 603 4863 
L 1178 4863 
L 1178 0 
L 603 0 
L 603 4863 
z
" transform="scale(0.015625)"/>
       <path id="DejaVuSans-6f" d="M 1959 3097 
Q 1497 3097 1228 2736 
Q 959 2375 959 1747 
Q 959 1119 1226 758 
Q 1494 397 1959 397 
Q 2419 397 2687 759 
Q 2956 1122 2956 1747 
Q 2956 2369 2687 2733 
Q 2419 3097 1959 3097 
z
M 1959 3584 
Q 2709 3584 3137 3096 
Q 3566 2609 3566 1747 
Q 3566 888 3137 398 
Q 2709 -91 1959 -91 
Q 1206 -91 779 398 
Q 353 888 353 1747 
Q 353 2609 779 3096 
Q 1206 3584 1959 3584 
z
" transform="scale(0.015625)"/>
       <path id="DejaVuSans-62" d="M 3116 1747 
Q 3116 2381 2855 2742 
Q 2594 3103 2138 3103 
Q 1681 3103 1420 2742 
Q 1159 2381 1159 1747 
Q 1159 1113 1420 752 
Q 1681 391 2138 391 
Q 2594 391 2855 752 
Q 3116 1113 3116 1747 
z
M 1159 2969 
Q 1341 3281 1617 3432 
Q 1894 3584 2278 3584 
Q 2916 3584 3314 3078 
Q 3713 2572 3713 1747 
Q 3713 922 3314 415 
Q 2916 -91 2278 -91 
Q 1894 -91 1617 61 
Q 1341 213 1159 525 
L 1159 0 
L 581 0 
L 581 4863 
L 1159 4863 
L 1159 2969 
z
" transform="scale(0.015625)"/>
       <path id="DejaVuSans-61" d="M 2194 1759 
Q 1497 1759 1228 1600 
Q 959 1441 959 1056 
Q 959 750 1161 570 
Q 1363 391 1709 391 
Q 2188 391 2477 730 
Q 2766 1069 2766 1631 
L 2766 1759 
L 2194 1759 
z
M 3341 1997 
L 3341 0 
L 2766 0 
L 2766 531 
Q 2569 213 2275 61 
Q 1981 -91 1556 -91 
Q 1019 -91 701 211 
Q 384 513 384 1019 
Q 384 1609 779 1909 
Q 1175 2209 1959 2209 
L 2766 2209 
L 2766 2266 
Q 2766 2663 2505 2880 
Q 2244 3097 1772 3097 
Q 1472 3097 1187 3025 
Q 903 2953 641 2809 
L 641 3341 
Q 956 3463 1253 3523 
Q 1550 3584 1831 3584 
Q 2591 3584 2966 3190 
Q 3341 2797 3341 1997 
z
" transform="scale(0.015625)"/>
       <path id="DejaVuSans-20" transform="scale(0.015625)"/>
       <path id="DejaVuSans-6d" d="M 3328 2828 
Q 3544 3216 3844 3400 
Q 4144 3584 4550 3584 
Q 5097 3584 5394 3201 
Q 5691 2819 5691 2113 
L 5691 0 
L 5113 0 
L 5113 2094 
Q 5113 2597 4934 2840 
Q 4756 3084 4391 3084 
Q 3944 3084 3684 2787 
Q 3425 2491 3425 1978 
L 3425 0 
L 2847 0 
L 2847 2094 
Q 2847 2600 2669 2842 
Q 2491 3084 2119 3084 
Q 1678 3084 1418 2786 
Q 1159 2488 1159 1978 
L 1159 0 
L 581 0 
L 581 3500 
L 1159 3500 
L 1159 2956 
Q 1356 3278 1631 3431 
Q 1906 3584 2284 3584 
Q 2666 3584 2933 3390 
Q 3200 3197 3328 2828 
z
" transform="scale(0.015625)"/>
       <path id="DejaVuSans-65" d="M 3597 1894 
L 3597 1613 
L 953 1613 
Q 991 1019 1311 708 
Q 1631 397 2203 397 
Q 2534 397 2845 478 
Q 3156 559 3463 722 
L 3463 178 
Q 3153 47 2828 -22 
Q 2503 -91 2169 -91 
Q 1331 -91 842 396 
Q 353 884 353 1716 
Q 353 2575 817 3079 
Q 1281 3584 2069 3584 
Q 2775 3584 3186 3129 
Q 3597 2675 3597 1894 
z
M 3022 2063 
Q 3016 2534 2758 2815 
Q 2500 3097 2075 3097 
Q 1594 3097 1305 2825 
Q 1016 2553 972 2059 
L 3022 2063 
z
" transform="scale(0.015625)"/>
       <path id="DejaVuSans-6e" d="M 3513 2113 
L 3513 0 
L 2938 0 
L 2938 2094 
Q 2938 2591 2744 2837 
Q 2550 3084 2163 3084 
Q 1697 3084 1428 2787 
Q 1159 2491 1159 1978 
L 1159 0 
L 581 0 
L 581 3500 
L 1159 3500 
L 1159 2956 
Q 1366 3272 1645 3428 
Q 1925 3584 2291 3584 
Q 2894 3584 3203 3211 
Q 3513 2838 3513 2113 
z
" transform="scale(0.015625)"/>
      </defs>
      <use xlink:href="#DejaVuSans-47"/>
      <use xlink:href="#DejaVuSans-6c" x="77.490234"/>
      <use xlink:href="#DejaVuSans-6f" x="105.273438"/>
      <use xlink:href="#DejaVuSans-62" x="166.455078"/>
      <use xlink:href="#DejaVuSans-61" x="229.931641"/>
      <use xlink:href="#DejaVuSans-6c" x="291.210938"/>
      <use xlink:href="#DejaVuSans-20" x="318.994141"/>
      <use xlink:href="#DejaVuSans-6d" x="350.78125"/>
      <use xlink:href="#DejaVuSans-65" x="448.193359"/>
      <use xlink:href="#DejaVuSans-61" x="509.716797"/>
      <use xlink:href="#DejaVuSans-6e" x="570.996094"/>
     </g>
     <!-- temperature above -->
     <g transform="translate(602.303942 113.95175)scale(0.22 -0.22)">
      <defs>
       <path id="DejaVuSans-74" d="M 1172 4494 
L 1172 3500 
L 2356 3500 
L 2356 3053 
L 1172 3053 
L 1172 1153 
Q 1172 725 1289 603 
Q 1406 481 1766 481 
L 2356 481 
L 2356 0 
L 1766 0 
Q 1100 0 847 248 
Q 594 497 594 1153 
L 594 3053 
L 172 3053 
L 172 3500 
L 594 3500 
L 594 4494 
L 1172 4494 
z
" transform="scale(0.015625)"/>
       <path id="DejaVuSans-70" d="M 1159 525 
L 1159 -1331 
L 581 -1331 
L 581 3500 
L 1159 3500 
L 1159 2969 
Q 1341 3281 1617 3432 
Q 1894 3584 2278 3584 
Q 2916 3584 3314 3078 
Q 3713 2572 3713 1747 
Q 3713 922 3314 415 
Q 2916 -91 2278 -91 
Q 1894 -91 1617 61 
Q 1341 213 1159 525 
z
M 3116 1747 
Q 3116 2381 2855 2742 
Q 2594 3103 2138 3103 
Q 1681 3103 1420 2742 
Q 1159 2381 1159 1747 
Q 1159 1113 1420 752 
Q 1681 391 2138 391 
Q 2594 391 2855 752 
Q 3116 1113 3116 1747 
z
" transform="scale(0.015625)"/>
       <path id="DejaVuSans-72" d="M 2631 2963 
Q 2534 3019 2420 3045 
Q 2306 3072 2169 3072 
Q 1681 3072 1420 2755 
Q 1159 2438 1159 1844 
L 1159 0 
L 581 0 
L 581 3500 
L 1159 3500 
L 1159 2956 
Q 1341 3275 1631 3429 
Q 1922 3584 2338 3584 
Q 2397 3584 2469 3576 
Q 2541 3569 2628 3553 
L 2631 2963 
z
" transform="scale(0.015625)"/>
       <path id="DejaVuSans-75" d="M 544 1381 
L 544 3500 
L 1119 3500 
L 1119 1403 
Q 1119 906 1312 657 
Q 1506 409 1894 409 
Q 2359 409 2629 706 
Q 2900 1003 2900 1516 
L 2900 3500 
L 3475 3500 
L 3475 0 
L 2900 0 
L 2900 538 
Q 2691 219 2414 64 
Q 2138 -91 1772 -91 
Q 1169 -91 856 284 
Q 544 659 544 1381 
z
M 1991 3584 
L 1991 3584 
z
" transform="scale(0.015625)"/>
       <path id="DejaVuSans-76" d="M 191 3500 
L 800 3500 
L 1894 563 
L 2988 3500 
L 3597 3500 
L 2284 0 
L 1503 0 
L 191 3500 
z
" transform="scale(0.015625)"/>
      </defs>
      <use xlink:href="#DejaVuSans-74"/>
      <use xlink:href="#DejaVuSans-65" x="39.208984"/>
      <use xlink:href="#DejaVuSans-6d" x="100.732422"/>
      <use xlink:href="#DejaVuSans-70" x="198.144531"/>
      <use xlink:href="#DejaVuSans-65" x="261.621094"/>
      <use xlink:href="#DejaVuSans-72" x="323.144531"/>
      <use xlink:href="#DejaVuSans-61" x="364.257812"/>
      <use xlink:href="#DejaVuSans-74" x="425.537109"/>
      <use xlink:href="#DejaVuSans-75" x="464.746094"/>
      <use xlink:href="#DejaVuSans-72" x="528.125"/>
      <use xlink:href="#DejaVuSans-65" x="566.988281"/>
      <use xlink:href="#DejaVuSans-20" x="628.511719"/>
      <use xlink:href="#DejaVuSans-61" x="660.298828"/>
      <use xlink:href="#DejaVuSans-62" x="721.578125"/>
      <use xlink:href="#DejaVuSans-6f" x="785.054688"/>
      <use xlink:href="#DejaVuSans-76" x="846.236328"/>
      <use xlink:href="#DejaVuSans-65" x="905.416016"/>
     </g>
     <!-- pre-industrial in 2100 -->
     <g transform="translate(602.303942 138.586938)scale(0.22 -0.22)">
      <defs>
       <path id="DejaVuSans-2d" d="M 313 2009 
L 1997 2009 
L 1997 1497 
L 313 1497 
L 313 2009 
z
" transform="scale(0.015625)"/>
       <path id="DejaVuSans-69" d="M 603 3500 
L 1178 3500 
L 1178 0 
L 603 0 
L 603 3500 
z
M 603 4863 
L 1178 4863 
L 1178 4134 
L 603 4134 
L 603 4863 
z
" transform="scale(0.015625)"/>
       <path id="DejaVuSans-64" d="M 2906 2969 
L 2906 4863 
L 3481 4863 
L 3481 0 
L 2906 0 
L 2906 525 
Q 2725 213 2448 61 
Q 2172 -91 1784 -91 
Q 1150 -91 751 415 
Q 353 922 353 1747 
Q 353 2572 751 3078 
Q 1150 3584 1784 3584 
Q 2172 3584 2448 3432 
Q 2725 3281 2906 2969 
z
M 947 1747 
Q 947 1113 1208 752 
Q 1469 391 1925 391 
Q 2381 391 2643 752 
Q 2906 1113 2906 1747 
Q 2906 2381 2643 2742 
Q 2381 3103 1925 3103 
Q 1469 3103 1208 2742 
Q 947 2381 947 1747 
z
" transform="scale(0.015625)"/>
       <path id="DejaVuSans-73" d="M 2834 3397 
L 2834 2853 
Q 2591 2978 2328 3040 
Q 2066 3103 1784 3103 
Q 1356 3103 1142 2972 
Q 928 2841 928 2578 
Q 928 2378 1081 2264 
Q 1234 2150 1697 2047 
L 1894 2003 
Q 2506 1872 2764 1633 
Q 3022 1394 3022 966 
Q 3022 478 2636 193 
Q 2250 -91 1575 -91 
Q 1294 -91 989 -36 
Q 684 19 347 128 
L 347 722 
Q 666 556 975 473 
Q 1284 391 1588 391 
Q 1994 391 2212 530 
Q 2431 669 2431 922 
Q 2431 1156 2273 1281 
Q 2116 1406 1581 1522 
L 1381 1569 
Q 847 1681 609 1914 
Q 372 2147 372 2553 
Q 372 3047 722 3315 
Q 1072 3584 1716 3584 
Q 2034 3584 2315 3537 
Q 2597 3491 2834 3397 
z
" transform="scale(0.015625)"/>
      </defs>
      <use xlink:href="#DejaVuSans-70"/>
      <use xlink:href="#DejaVuSans-72" x="63.476562"/>
      <use xlink:href="#DejaVuSans-65" x="102.339844"/>
      <use xlink:href="#DejaVuSans-2d" x="163.863281"/>
      <use xlink:href="#DejaVuSans-69" x="199.947266"/>
      <use xlink:href="#DejaVuSans-6e" x="227.730469"/>
      <use xlink:href="#DejaVuSans-64" x="291.109375"/>
      <use xlink:href="#DejaVuSans-75" x="354.585938"/>
      <use xlink:href="#DejaVuSans-73" x="417.964844"/>
      <use xlink:href="#DejaVuSans-74" x="470.064453"/>
      <use xlink:href="#DejaVuSans-72" x="509.273438"/>
      <use xlink:href="#DejaVuSans-69" x="550.386719"/>
      <use xlink:href="#DejaVuSans-61" x="578.169922"/>
      <use xlink:href="#DejaVuSans-6c" x="639.449219"/>
      <use xlink:href="#DejaVuSans-20" x="667.232422"/>
      <use xlink:href="#DejaVuSans-69" x="699.019531"/>
      <use xlink:href="#DejaVuSans-6e" x="726.802734"/>
      <use xlink:href="#DejaVuSans-20" x="790.181641"/>
      <use xlink:href="#DejaVuSans-32" x="821.96875"/>
      <use xlink:href="#DejaVuSans-31" x="885.591797"/>
      <use xlink:href="#DejaVuSans-30" x="949.214844"/>
      <use xlink:href="#DejaVuSans-30" x="1012.837891"/>
     </g>
    </g>
    <g id="line2d_18">
     <path d="M 616.971755 155.478813 
L 638.971755 155.478813 
L 660.971755 155.478813 
" style="fill: none; stroke: #74b8f8; stroke-opacity: 0.5; stroke-width: 6; stroke-linecap: square"/>
    </g>
    <g id="text_16">
     <!-- 1.5C (n=2) -->
     <g transform="translate(678.571755 163.178813)scale(0.22 -0.22)">
      <defs>
       <path id="DejaVuSans-2e" d="M 684 794 
L 1344 794 
L 1344 0 
L 684 0 
L 684 794 
z
" transform="scale(0.015625)"/>
       <path id="DejaVuSans-35" d="M 691 4666 
L 3169 4666 
L 3169 4134 
L 1269 4134 
L 1269 2991 
Q 1406 3038 1543 3061 
Q 1681 3084 1819 3084 
Q 2600 3084 3056 2656 
Q 3513 2228 3513 1497 
Q 3513 744 3044 326 
Q 2575 -91 1722 -91 
Q 1428 -91 1123 -41 
Q 819 9 494 109 
L 494 744 
Q 775 591 1075 516 
Q 1375 441 1709 441 
Q 2250 441 2565 725 
Q 2881 1009 2881 1497 
Q 2881 1984 2565 2268 
Q 2250 2553 1709 2553 
Q 1456 2553 1204 2497 
Q 953 2441 691 2322 
L 691 4666 
z
" transform="scale(0.015625)"/>
       <path id="DejaVuSans-b0" d="M 1600 4347 
Q 1350 4347 1178 4173 
Q 1006 4000 1006 3750 
Q 1006 3503 1178 3333 
Q 1350 3163 1600 3163 
Q 1850 3163 2022 3333 
Q 2194 3503 2194 3750 
Q 2194 3997 2020 4172 
Q 1847 4347 1600 4347 
z
M 1600 4750 
Q 1800 4750 1984 4673 
Q 2169 4597 2303 4453 
Q 2447 4313 2519 4134 
Q 2591 3956 2591 3750 
Q 2591 3338 2302 3052 
Q 2013 2766 1594 2766 
Q 1172 2766 890 3047 
Q 609 3328 609 3750 
Q 609 4169 896 4459 
Q 1184 4750 1600 4750 
z
" transform="scale(0.015625)"/>
       <path id="DejaVuSans-43" d="M 4122 4306 
L 4122 3641 
Q 3803 3938 3442 4084 
Q 3081 4231 2675 4231 
Q 1875 4231 1450 3742 
Q 1025 3253 1025 2328 
Q 1025 1406 1450 917 
Q 1875 428 2675 428 
Q 3081 428 3442 575 
Q 3803 722 4122 1019 
L 4122 359 
Q 3791 134 3420 21 
Q 3050 -91 2638 -91 
Q 1578 -91 968 557 
Q 359 1206 359 2328 
Q 359 3453 968 4101 
Q 1578 4750 2638 4750 
Q 3056 4750 3426 4639 
Q 3797 4528 4122 4306 
z
" transform="scale(0.015625)"/>
       <path id="DejaVuSans-28" d="M 1984 4856 
Q 1566 4138 1362 3434 
Q 1159 2731 1159 2009 
Q 1159 1288 1364 580 
Q 1569 -128 1984 -844 
L 1484 -844 
Q 1016 -109 783 600 
Q 550 1309 550 2009 
Q 550 2706 781 3412 
Q 1013 4119 1484 4856 
L 1984 4856 
z
" transform="scale(0.015625)"/>
       <path id="DejaVuSans-3d" d="M 678 2906 
L 4684 2906 
L 4684 2381 
L 678 2381 
L 678 2906 
z
M 678 1631 
L 4684 1631 
L 4684 1100 
L 678 1100 
L 678 1631 
z
" transform="scale(0.015625)"/>
       <path id="DejaVuSans-29" d="M 513 4856 
L 1013 4856 
Q 1481 4119 1714 3412 
Q 1947 2706 1947 2009 
Q 1947 1309 1714 600 
Q 1481 -109 1013 -844 
L 513 -844 
Q 928 -128 1133 580 
Q 1338 1288 1338 2009 
Q 1338 2731 1133 3434 
Q 928 4138 513 4856 
z
" transform="scale(0.015625)"/>
      </defs>
      <use xlink:href="#DejaVuSans-31"/>
      <use xlink:href="#DejaVuSans-2e" x="63.623047"/>
      <use xlink:href="#DejaVuSans-35" x="95.410156"/>
      <use xlink:href="#DejaVuSans-b0" x="159.033203"/>
      <use xlink:href="#DejaVuSans-43" x="209.033203"/>
      <use xlink:href="#DejaVuSans-20" x="278.857422"/>
      <use xlink:href="#DejaVuSans-28" x="310.644531"/>
      <use xlink:href="#DejaVuSans-6e" x="349.658203"/>
      <use xlink:href="#DejaVuSans-3d" x="413.037109"/>
      <use xlink:href="#DejaVuSans-32" x="496.826172"/>
      <use xlink:href="#DejaVuSans-29" x="560.449219"/>
     </g>
    </g>
    <g id="line2d_19">
     <path d="M 616.971755 180.070688 
L 638.971755 180.070688 
L 660.971755 180.070688 
" style="fill: none; stroke: #f47100; stroke-opacity: 0.5; stroke-width: 6; stroke-linecap: square"/>
    </g>
    <g id="text_17">
     <!-- 2.2C (n=14) -->
     <g transform="translate(678.571755 187.770688)scale(0.22 -0.22)">
      <use xlink:href="#DejaVuSans-32"/>
      <use xlink:href="#DejaVuSans-2e" x="63.623047"/>
      <use xlink:href="#DejaVuSans-32" x="95.410156"/>
      <use xlink:href="#DejaVuSans-b0" x="159.033203"/>
      <use xlink:href="#DejaVuSans-43" x="209.033203"/>
      <use xlink:href="#DejaVuSans-20" x="278.857422"/>
      <use xlink:href="#DejaVuSans-28" x="310.644531"/>
      <use xlink:href="#DejaVuSans-6e" x="349.658203"/>
      <use xlink:href="#DejaVuSans-3d" x="413.037109"/>
      <use xlink:href="#DejaVuSans-31" x="496.826172"/>
      <use xlink:href="#DejaVuSans-34" x="560.449219"/>
      <use xlink:href="#DejaVuSans-29" x="624.072266"/>
     </g>
    </g>
    <g id="line2d_20">
     <path d="M 616.971755 204.662563 
L 638.971755 204.662563 
L 660.971755 204.662563 
" style="fill: none; stroke: #d01e04; stroke-opacity: 0.5; stroke-width: 6; stroke-linecap: square"/>
    </g>
    <g id="text_18">
     <!-- 2.8C (n=12) -->
     <g transform="translate(678.571755 212.362563)scale(0.22 -0.22)">
      <use xlink:href="#DejaVuSans-32"/>
      <use xlink:href="#DejaVuSans-2e" x="63.623047"/>
      <use xlink:href="#DejaVuSans-38" x="95.410156"/>
      <use xlink:href="#DejaVuSans-b0" x="159.033203"/>
      <use xlink:href="#DejaVuSans-43" x="209.033203"/>
      <use xlink:href="#DejaVuSans-20" x="278.857422"/>
      <use xlink:href="#DejaVuSans-28" x="310.644531"/>
      <use xlink:href="#DejaVuSans-6e" x="349.658203"/>
      <use xlink:href="#DejaVuSans-3d" x="413.037109"/>
      <use xlink:href="#DejaVuSans-31" x="496.826172"/>
      <use xlink:href="#DejaVuSans-32" x="560.449219"/>
      <use xlink:href="#DejaVuSans-29" x="624.072266"/>
     </g>
    </g>
   </g>
  </g>
 </g>
 <defs>
  <clipPath id="pd024580c9f">
   <rect x="109.64" y="52.8" width="749.280192" height="462.76"/>
  </clipPath>
 </defs>
</svg>
