<?xml version="1.0" encoding="utf-8" standalone="no"?>
<!DOCTYPE svg PUBLIC "-//W3C//DTD SVG 1.1//EN"
  "http://www.w3.org/Graphics/SVG/1.1/DTD/svg11.dtd">
<svg xmlns:xlink="http://www.w3.org/1999/xlink" width="900pt" height="600pt" viewBox="0 0 900 600" xmlns="http://www.w3.org/2000/svg" version="1.1">
 <metadata>
  <rdf:RDF xmlns:dc="http://purl.org/dc/elements/1.1/" xmlns:cc="http://creativecommons.org/ns#" xmlns:rdf="http://www.w3.org/1999/02/22-rdf-syntax-ns#">
   <cc:Work>
    <dc:type rdf:resource="http://purl.org/dc/dcmitype/StillImage"/>
    <dc:date>2024-10-31T18:28:39.054645</dc:date>
    <dc:format>image/svg+xml</dc:format>
    <dc:creator>
     <cc:Agent>
      <dc:title>Matplotlib v3.5.3, https://matplotlib.org/</dc:title>
     </cc:Agent>
    </dc:creator>
   </cc:Work>
  </rdf:RDF>
 </metadata>
 <defs>
  <style type="text/css">*{stroke-linejoin: round; stroke-linecap: butt}</style>
 </defs>
 <g id="figure_1">
  <g id="patch_1">
   <path d="M 0 600 
L 900 600 
L 900 0 
L 0 0 
z
" style="fill: #ffffff"/>
  </g>
  <g id="axes_1">
   <g id="patch_2">
    <path d="M 109.64 515.56 
L 858.920192 515.56 
L 858.920192 52.8 
L 109.64 52.8 
z
" style="fill: #ffffff"/>
   </g>
   <g id="PolyCollection_1">
    <defs>
     <path id="md00ecdf98c" d="M 167.276938 -452.263622 
L 167.276938 -451.917175 
L 169.678477 -449.290208 
L 172.080016 -446.704032 
L 174.481555 -444.193467 
L 176.883094 -441.763743 
L 179.284633 -439.436016 
L 181.686172 -437.087148 
L 184.087711 -434.761415 
L 186.48925 -432.486823 
L 188.89079 -430.3 
L 191.292329 -428.115925 
L 193.693868 -426.063425 
L 196.095407 -424.096023 
L 198.496946 -422.209369 
L 200.898485 -420.306616 
L 203.300024 -418.373894 
L 205.701563 -416.390859 
L 208.103102 -414.314549 
L 210.504641 -412.157074 
L 212.90618 -410.062456 
L 215.307719 -407.920284 
L 217.709259 -405.765356 
L 220.110798 -403.654569 
L 222.512337 -401.615555 
L 224.913876 -399.547143 
L 227.315415 -397.490086 
L 229.716954 -395.500418 
L 232.118493 -393.616753 
L 234.520032 -391.785803 
L 236.921571 -389.989705 
L 239.32311 -388.268258 
L 241.724649 -386.514741 
L 244.126188 -384.73739 
L 246.527727 -382.93869 
L 248.929267 -381.161009 
L 251.330806 -379.469118 
L 253.732345 -377.833036 
L 256.133884 -376.177336 
L 258.535423 -374.543166 
L 260.936962 -372.908744 
L 263.338501 -371.308382 
L 265.74004 -369.657053 
L 268.141579 -368.005977 
L 270.543118 -366.401984 
L 272.944657 -364.845145 
L 275.346196 -363.273383 
L 277.747735 -361.65308 
L 280.149275 -360.029716 
L 282.550814 -358.46452 
L 284.952353 -356.866679 
L 287.353892 -355.182809 
L 289.755431 -353.498624 
L 292.15697 -351.837718 
L 294.558509 -350.180005 
L 296.960048 -348.589852 
L 299.361587 -347.101762 
L 301.763126 -345.670934 
L 304.164665 -344.322905 
L 306.566204 -343.063503 
L 308.967743 -341.877433 
L 311.369283 -340.746006 
L 313.770822 -339.65038 
L 316.172361 -338.666422 
L 318.5739 -337.698198 
L 320.975439 -336.791665 
L 323.376978 -335.860379 
L 325.778517 -335.03886 
L 328.180056 -334.214165 
L 330.581595 -333.316779 
L 332.983134 -332.415505 
L 335.384673 -331.611804 
L 337.786212 -330.941546 
L 340.187751 -330.318987 
L 342.589291 -329.785947 
L 344.99083 -329.298273 
L 347.392369 -328.733602 
L 349.793908 -328.167448 
L 352.195447 -327.548954 
L 354.596986 -326.883641 
L 356.998525 -326.182736 
L 359.400064 -325.462835 
L 361.801603 -324.726269 
L 364.203142 -323.944278 
L 366.604681 -323.18545 
L 369.00622 -322.384659 
L 371.407759 -321.616758 
L 373.809299 -320.81091 
L 376.210838 -320.006654 
L 378.612377 -319.219286 
L 381.013916 -318.489066 
L 383.415455 -317.794145 
L 385.816994 -317.043312 
L 388.218533 -316.259208 
L 390.620072 -315.433318 
L 393.021611 -314.614418 
L 395.42315 -313.848343 
L 397.824689 -313.137205 
L 400.226228 -312.5108 
L 402.627768 -311.965772 
L 405.029307 -311.423423 
L 407.430846 -310.891825 
L 409.832385 -310.39653 
L 412.233924 -309.904638 
L 414.635463 -309.358528 
L 417.037002 -308.82142 
L 419.438541 -308.32839 
L 421.84008 -307.84557 
L 424.241619 -307.393131 
L 426.643158 -306.957499 
L 429.044697 -306.512417 
L 431.446236 -306.089188 
L 433.847776 -305.733556 
L 436.249315 -305.449854 
L 438.650854 -305.257664 
L 441.052393 -305.049044 
L 443.453932 -304.901148 
L 445.855471 -304.705313 
L 448.25701 -304.557803 
L 450.658549 -304.50495 
L 453.060088 -304.500694 
L 455.461627 -304.527477 
L 457.863166 -304.611071 
L 460.264705 -304.652788 
L 462.666244 -304.724338 
L 465.067784 -304.693375 
L 467.469323 -304.635104 
L 469.870862 -304.613456 
L 472.272401 -304.583252 
L 474.67394 -304.571584 
L 477.075479 -304.624592 
L 479.477018 -304.669929 
L 481.878557 -304.712319 
L 484.280096 -304.721902 
L 486.681635 -304.66865 
L 489.083174 -304.630522 
L 491.484713 -304.526083 
L 493.886252 -304.367442 
L 496.287792 -304.1684 
L 498.689331 -303.89478 
L 501.09087 -303.671296 
L 503.492409 -303.485245 
L 505.893948 -303.256109 
L 508.295487 -303.019487 
L 510.697026 -302.708535 
L 513.098565 -302.522353 
L 515.500104 -302.35606 
L 517.901643 -302.142362 
L 520.303182 -301.942326 
L 522.704721 -301.722019 
L 525.10626 -301.461324 
L 527.5078 -301.054784 
L 529.909339 -300.633721 
L 532.310878 -300.256812 
L 534.712417 -299.892358 
L 537.113956 -299.533811 
L 539.515495 -299.213266 
L 541.917034 -298.963168 
L 544.318573 -298.765969 
L 546.720112 -298.5572 
L 549.121651 -298.294208 
L 551.52319 -297.97062 
L 553.924729 -297.703859 
L 556.326268 -297.418223 
L 558.727808 -297.235757 
L 561.129347 -297.027607 
L 563.530886 -296.799185 
L 565.932425 -296.668962 
L 568.333964 -296.544026 
L 570.735503 -296.524187 
L 573.137042 -296.501323 
L 575.538581 -296.567381 
L 577.94012 -296.6605 
L 580.341659 -296.741196 
L 582.743198 -296.848217 
L 585.144737 -296.939453 
L 587.546277 -297.014992 
L 589.947816 -297.094838 
L 592.349355 -297.105487 
L 594.750894 -297.129147 
L 597.152433 -297.143664 
L 599.553972 -297.22704 
L 601.955511 -297.241509 
L 604.35705 -297.343969 
L 606.758589 -297.500889 
L 609.160128 -297.726923 
L 611.561667 -297.990693 
L 613.963206 -298.212754 
L 616.364745 -298.41431 
L 618.766285 -298.56577 
L 621.167824 -298.746485 
L 623.569363 -298.952043 
L 625.970902 -299.143769 
L 628.372441 -299.299786 
L 630.77398 -299.457198 
L 633.175519 -299.64344 
L 635.577058 -299.824243 
L 637.978597 -300.028224 
L 640.380136 -300.222314 
L 642.781675 -300.332908 
L 645.183214 -300.449927 
L 647.584753 -300.59562 
L 649.986293 -300.742374 
L 652.387832 -300.827445 
L 654.789371 -300.900515 
L 657.19091 -300.897646 
L 659.592449 -300.933664 
L 661.993988 -300.936971 
L 664.395527 -300.962553 
L 666.797066 -301.002085 
L 669.198605 -301.006925 
L 671.600144 -300.969339 
L 674.001683 -300.959113 
L 676.403222 -301.087448 
L 678.804761 -301.200789 
L 681.206301 -301.29553 
L 683.60784 -301.432834 
L 686.009379 -301.522873 
L 688.410918 -301.682363 
L 690.812457 -301.905043 
L 693.213996 -302.187656 
L 695.615535 -302.393974 
L 698.017074 -302.559328 
L 700.418613 -302.773682 
L 702.820152 -302.980809 
L 705.221691 -303.177894 
L 707.62323 -303.317992 
L 710.024769 -303.469116 
L 712.426309 -303.585777 
L 714.827848 -303.68787 
L 717.229387 -303.801594 
L 719.630926 -303.968247 
L 722.032465 -304.114459 
L 724.434004 -304.208316 
L 726.835543 -304.318678 
L 729.237082 -304.51544 
L 731.638621 -304.617254 
L 734.04016 -304.775516 
L 736.441699 -304.961561 
L 738.843238 -305.189587 
L 741.244777 -305.251644 
L 743.646317 -305.279912 
L 746.047856 -305.374005 
L 748.449395 -305.396164 
L 750.850934 -305.443786 
L 753.252473 -305.56884 
L 755.654012 -305.694839 
L 758.055551 -305.89357 
L 760.45709 -306.12239 
L 762.858629 -306.287986 
L 765.260168 -306.46671 
L 767.661707 -306.65331 
L 770.063246 -306.82298 
L 772.464786 -306.94341 
L 774.866325 -307.086508 
L 777.267864 -307.132594 
L 779.669403 -307.218055 
L 782.070942 -307.277773 
L 784.472481 -307.291675 
L 786.87402 -307.264118 
L 789.275559 -307.31015 
L 791.677098 -307.360817 
L 794.078637 -307.446369 
L 796.480176 -307.639394 
L 798.881715 -307.777606 
L 801.283254 -307.956634 
L 803.684794 -308.157804 
L 806.086333 -308.310388 
L 808.487872 -308.439418 
L 810.889411 -308.613611 
L 813.29095 -308.781798 
L 815.692489 -308.910294 
L 818.094028 -308.966472 
L 820.495567 -309.017829 
L 822.897106 -309.017782 
L 825.298645 -309.035306 
L 827.700184 -309.070698 
L 830.101723 -309.125976 
L 832.503262 -309.183548 
L 834.904802 -309.295042 
L 837.306341 -309.500628 
L 837.306341 -312.372568 
L 837.306341 -312.372568 
L 834.904802 -312.188776 
L 832.503262 -312.08796 
L 830.101723 -312.027279 
L 827.700184 -311.96365 
L 825.298645 -311.931485 
L 822.897106 -311.913315 
L 820.495567 -311.914475 
L 818.094028 -311.870127 
L 815.692489 -311.826873 
L 813.29095 -311.728153 
L 810.889411 -311.599235 
L 808.487872 -311.459072 
L 806.086333 -311.34413 
L 803.684794 -311.205299 
L 801.283254 -311.024008 
L 798.881715 -310.866109 
L 796.480176 -310.746095 
L 794.078637 -310.578029 
L 791.677098 -310.502063 
L 789.275559 -310.457671 
L 786.87402 -310.421961 
L 784.472481 -310.475245 
L 782.070942 -310.49759 
L 779.669403 -310.477623 
L 777.267864 -310.42514 
L 774.866325 -310.411607 
L 772.464786 -310.307281 
L 770.063246 -310.23078 
L 767.661707 -310.099811 
L 765.260168 -309.947237 
L 762.858629 -309.80045 
L 760.45709 -309.664568 
L 758.055551 -309.478216 
L 755.654012 -309.331273 
L 753.252473 -309.244463 
L 750.850934 -309.159159 
L 748.449395 -309.140426 
L 746.047856 -309.143545 
L 743.646317 -309.083832 
L 741.244777 -309.074249 
L 738.843238 -309.031725 
L 736.441699 -308.820243 
L 734.04016 -308.646367 
L 731.638621 -308.507726 
L 729.237082 -308.421614 
L 726.835543 -308.253539 
L 724.434004 -308.164095 
L 722.032465 -308.08064 
L 719.630926 -307.96559 
L 717.229387 -307.837773 
L 714.827848 -307.752257 
L 712.426309 -307.677474 
L 710.024769 -307.59322 
L 707.62323 -307.472524 
L 705.221691 -307.365014 
L 702.820152 -307.208169 
L 700.418613 -307.043873 
L 698.017074 -306.87459 
L 695.615535 -306.754101 
L 693.213996 -306.609881 
L 690.812457 -306.397858 
L 688.410918 -306.237773 
L 686.009379 -306.140498 
L 683.60784 -306.093328 
L 681.206301 -306.000647 
L 678.804761 -305.943395 
L 676.403222 -305.873234 
L 674.001683 -305.792739 
L 671.600144 -305.81577 
L 669.198605 -305.863281 
L 666.797066 -305.870527 
L 664.395527 -305.84776 
L 661.993988 -305.836342 
L 659.592449 -305.84584 
L 657.19091 -305.830722 
L 654.789371 -305.854251 
L 652.387832 -305.805421 
L 649.986293 -305.746247 
L 647.584753 -305.630249 
L 645.183214 -305.509194 
L 642.781675 -305.41586 
L 640.380136 -305.326261 
L 637.978597 -305.150109 
L 635.577058 -304.973721 
L 633.175519 -304.819167 
L 630.77398 -304.660768 
L 628.372441 -304.517587 
L 625.970902 -304.378354 
L 623.569363 -304.221415 
L 621.167824 -304.051762 
L 618.766285 -303.912892 
L 616.364745 -303.807748 
L 613.963206 -303.660174 
L 611.561667 -303.499655 
L 609.160128 -303.298504 
L 606.758589 -303.132764 
L 604.35705 -303.029401 
L 601.955511 -302.975486 
L 599.553972 -302.993641 
L 597.152433 -302.945492 
L 594.750894 -302.963169 
L 592.349355 -302.970283 
L 589.947816 -302.995601 
L 587.546277 -302.959038 
L 585.144737 -302.927747 
L 582.743198 -302.87781 
L 580.341659 -302.820271 
L 577.94012 -302.785798 
L 575.538581 -302.735731 
L 573.137042 -302.71127 
L 570.735503 -302.769738 
L 568.333964 -302.827816 
L 565.932425 -302.978326 
L 563.530886 -303.130916 
L 561.129347 -303.369654 
L 558.727808 -303.590913 
L 556.326268 -303.790428 
L 553.924729 -304.08482 
L 551.52319 -304.360632 
L 549.121651 -304.695954 
L 546.720112 -304.981403 
L 544.318573 -305.227743 
L 541.917034 -305.466005 
L 539.515495 -305.75194 
L 537.113956 -306.101633 
L 534.712417 -306.488857 
L 532.310878 -306.888367 
L 529.909339 -307.297955 
L 527.5078 -307.749295 
L 525.10626 -308.180793 
L 522.704721 -308.483261 
L 520.303182 -308.742021 
L 517.901643 -308.983683 
L 515.500104 -309.234256 
L 513.098565 -309.446362 
L 510.697026 -309.663691 
L 508.295487 -309.999403 
L 505.893948 -310.269687 
L 503.492409 -310.539881 
L 501.09087 -310.771134 
L 498.689331 -311.032005 
L 496.287792 -311.334058 
L 493.886252 -311.567935 
L 491.484713 -311.768959 
L 489.083174 -311.931149 
L 486.681635 -312.033364 
L 484.280096 -312.148327 
L 481.878557 -312.210023 
L 479.477018 -312.246295 
L 477.075479 -312.286314 
L 474.67394 -312.315469 
L 472.272401 -312.401713 
L 469.870862 -312.502067 
L 467.469323 -312.601419 
L 465.067784 -312.737258 
L 462.666244 -312.852515 
L 460.264705 -312.873275 
L 457.863166 -312.920338 
L 455.461627 -312.9289 
L 453.060088 -312.986908 
L 450.658549 -313.067483 
L 448.25701 -313.189431 
L 445.855471 -313.398097 
L 443.453932 -313.656686 
L 441.052393 -313.862328 
L 438.650854 -314.117963 
L 436.249315 -314.354656 
L 433.847776 -314.670629 
L 431.446236 -315.04571 
L 429.044697 -315.479718 
L 426.643158 -315.936663 
L 424.241619 -316.388291 
L 421.84008 -316.859951 
L 419.438541 -317.355165 
L 417.037002 -317.855672 
L 414.635463 -318.39295 
L 412.233924 -318.936647 
L 409.832385 -319.435618 
L 407.430846 -319.941183 
L 405.029307 -320.483669 
L 402.627768 -321.033527 
L 400.226228 -321.587507 
L 397.824689 -322.210874 
L 395.42315 -322.919188 
L 393.021611 -323.685738 
L 390.620072 -324.507669 
L 388.218533 -325.340134 
L 385.816994 -326.138854 
L 383.415455 -326.910429 
L 381.013916 -327.641192 
L 378.612377 -328.400528 
L 376.210838 -329.213372 
L 373.809299 -330.045951 
L 371.407759 -330.883404 
L 369.00622 -331.684776 
L 366.604681 -332.526761 
L 364.203142 -333.332938 
L 361.801603 -334.161166 
L 359.400064 -334.94616 
L 356.998525 -335.715971 
L 354.596986 -336.48159 
L 352.195447 -337.21603 
L 349.793908 -337.912005 
L 347.392369 -338.54606 
L 344.99083 -339.1701 
L 342.589291 -339.724459 
L 340.187751 -340.3218 
L 337.786212 -341.000761 
L 335.384673 -341.725451 
L 332.983134 -342.559646 
L 330.581595 -343.481282 
L 328.180056 -344.390807 
L 325.778517 -345.228257 
L 323.376978 -346.058392 
L 320.975439 -346.98537 
L 318.5739 -347.891323 
L 316.172361 -348.843006 
L 313.770822 -349.799452 
L 311.369283 -350.849657 
L 308.967743 -351.92765 
L 306.566204 -353.052556 
L 304.164665 -354.242153 
L 301.763126 -355.500913 
L 299.361587 -356.831807 
L 296.960048 -358.214959 
L 294.558509 -359.683634 
L 292.15697 -361.206186 
L 289.755431 -362.727743 
L 287.353892 -364.263069 
L 284.952353 -365.791262 
L 282.550814 -367.237131 
L 280.149275 -368.652488 
L 277.747735 -370.110905 
L 275.346196 -371.579648 
L 272.944657 -373.008353 
L 270.543118 -374.418183 
L 268.141579 -375.869633 
L 265.74004 -377.370127 
L 263.338501 -378.879419 
L 260.936962 -380.340862 
L 258.535423 -381.826467 
L 256.133884 -383.316444 
L 253.732345 -384.831707 
L 251.330806 -386.329462 
L 248.929267 -387.880452 
L 246.527727 -389.504329 
L 244.126188 -391.145009 
L 241.724649 -392.763621 
L 239.32311 -394.360272 
L 236.921571 -395.931818 
L 234.520032 -397.565989 
L 232.118493 -399.237448 
L 229.716954 -400.964152 
L 227.315415 -402.767867 
L 224.913876 -404.63474 
L 222.512337 -406.508934 
L 220.110798 -408.363843 
L 217.709259 -410.282109 
L 215.307719 -412.243262 
L 212.90618 -414.199331 
L 210.504641 -416.11028 
L 208.103102 -418.072344 
L 205.701563 -419.963985 
L 203.300024 -421.764573 
L 200.898485 -423.51306 
L 198.496946 -425.236433 
L 196.095407 -426.940214 
L 193.693868 -428.714573 
L 191.292329 -430.565234 
L 188.89079 -432.539433 
L 186.48925 -434.540467 
L 184.087711 -436.641693 
L 181.686172 -438.772245 
L 179.284633 -440.985766 
L 176.883094 -443.175724 
L 174.481555 -445.376014 
L 172.080016 -447.658924 
L 169.678477 -449.933923 
L 167.276938 -452.263622 
z
" style="stroke: #74b8f8; stroke-opacity: 0.2"/>
    </defs>
    <g clip-path="url(#p23e665a6de)">
     <use xlink:href="#md00ecdf98c" x="0" y="600" style="fill: #74b8f8; fill-opacity: 0.2; stroke: #74b8f8; stroke-opacity: 0.2"/>
    </g>
   </g>
   <g id="PolyCollection_2">
    <defs>
     <path id="m755bb68d67" d="M 116.844617 -492.936079 
L 116.844617 -488.512851 
L 119.246156 -487.621455 
L 121.647695 -486.755348 
L 124.049234 -485.784399 
L 126.450774 -484.746917 
L 128.852313 -483.664743 
L 131.253852 -482.649813 
L 133.655391 -481.635959 
L 136.05693 -480.52318 
L 138.458469 -479.395675 
L 140.860008 -478.218026 
L 143.261547 -476.241907 
L 145.663086 -474.064769 
L 148.064625 -471.765874 
L 150.466164 -469.34452 
L 152.867703 -466.851455 
L 155.269242 -464.400261 
L 157.670782 -461.924181 
L 160.072321 -459.507945 
L 162.47386 -457.076269 
L 164.875399 -454.648 
L 164.875399 -454.648 
L 164.875399 -454.648 
L 162.47386 -457.448765 
L 160.072321 -460.158597 
L 157.670782 -462.846416 
L 155.269242 -465.600505 
L 152.867703 -468.296255 
L 150.466164 -470.989456 
L 148.064625 -473.659727 
L 145.663086 -476.285534 
L 143.261547 -478.793001 
L 140.860008 -481.113247 
L 138.458469 -482.446851 
L 136.05693 -483.757866 
L 133.655391 -485.038339 
L 131.253852 -486.294373 
L 128.852313 -487.571636 
L 126.450774 -488.817742 
L 124.049234 -490.040413 
L 121.647695 -491.071085 
L 119.246156 -492.027644 
L 116.844617 -492.936079 
z
" style="stroke: #000000; stroke-opacity: 0.2"/>
    </defs>
    <g clip-path="url(#p23e665a6de)">
     <use xlink:href="#m755bb68d67" x="0" y="600" style="fill-opacity: 0.2; stroke: #000000; stroke-opacity: 0.2"/>
    </g>
   </g>
   <g id="PolyCollection_3">
    <defs>
     <path id="m2daea0fb0b" d="M 167.276938 -452.518402 
L 167.276938 -451.904686 
L 169.678477 -449.17721 
L 172.080016 -446.469444 
L 174.481555 -443.809227 
L 176.883094 -441.092315 
L 179.284633 -438.392723 
L 181.686172 -435.679029 
L 184.087711 -432.842695 
L 186.48925 -429.775116 
L 188.89079 -426.607211 
L 191.292329 -423.323767 
L 193.693868 -420.046148 
L 196.095407 -416.843814 
L 198.496946 -413.589518 
L 200.898485 -410.25105 
L 203.300024 -406.98246 
L 205.701563 -403.856308 
L 208.103102 -400.911116 
L 210.504641 -397.943966 
L 212.90618 -394.946801 
L 215.307719 -391.858716 
L 217.709259 -388.724035 
L 220.110798 -385.636859 
L 222.512337 -382.740839 
L 224.913876 -380.171358 
L 227.315415 -377.979001 
L 229.716954 -375.730469 
L 232.118493 -373.37251 
L 234.520032 -371.10159 
L 236.921571 -369.101183 
L 239.32311 -367.209329 
L 241.724649 -365.383395 
L 244.126188 -363.496531 
L 246.527727 -361.750404 
L 248.929267 -360.006286 
L 251.330806 -358.187978 
L 253.732345 -356.065107 
L 256.133884 -353.829298 
L 258.535423 -351.708671 
L 260.936962 -349.627176 
L 263.338501 -347.638461 
L 265.74004 -345.735563 
L 268.141579 -343.750217 
L 270.543118 -341.745928 
L 272.944657 -339.782906 
L 275.346196 -337.939183 
L 277.747735 -336.120356 
L 280.149275 -334.296564 
L 282.550814 -332.557043 
L 284.952353 -330.963921 
L 287.353892 -329.363756 
L 289.755431 -327.830402 
L 292.15697 -326.373394 
L 294.558509 -324.924239 
L 296.960048 -323.446482 
L 299.361587 -322.009446 
L 301.763126 -320.600904 
L 304.164665 -319.268173 
L 306.566204 -318.021115 
L 308.967743 -316.805109 
L 311.369283 -315.600675 
L 313.770822 -314.419658 
L 316.172361 -313.237092 
L 318.5739 -312.137745 
L 320.975439 -311.067011 
L 323.376978 -309.936917 
L 325.778517 -308.640156 
L 328.180056 -307.346223 
L 330.581595 -305.997226 
L 332.983134 -304.593235 
L 335.384673 -303.176273 
L 337.786212 -301.690257 
L 340.187751 -300.235297 
L 342.589291 -298.791457 
L 344.99083 -297.40182 
L 347.392369 -296.010451 
L 349.793908 -294.630301 
L 352.195447 -293.25774 
L 354.596986 -291.879486 
L 356.998525 -290.538105 
L 359.400064 -289.23947 
L 361.801603 -287.976188 
L 364.203142 -286.703099 
L 366.604681 -285.456778 
L 369.00622 -284.241383 
L 371.407759 -283.080259 
L 373.809299 -281.911473 
L 376.210838 -280.724757 
L 378.612377 -279.737153 
L 381.013916 -278.87956 
L 383.415455 -278.132214 
L 385.816994 -277.437908 
L 388.218533 -276.769988 
L 390.620072 -275.917024 
L 393.021611 -275.102707 
L 395.42315 -274.23604 
L 397.824689 -273.388756 
L 400.226228 -272.578286 
L 402.627768 -271.891482 
L 405.029307 -271.174533 
L 407.430846 -270.453998 
L 409.832385 -269.736759 
L 412.233924 -268.994778 
L 414.635463 -268.230364 
L 417.037002 -267.489338 
L 419.438541 -266.789544 
L 421.84008 -266.110704 
L 424.241619 -265.469703 
L 426.643158 -264.822853 
L 429.044697 -264.19198 
L 431.446236 -263.592147 
L 433.847776 -263.06813 
L 436.249315 -262.542735 
L 438.650854 -262.009124 
L 441.052393 -261.388935 
L 443.453932 -260.828396 
L 445.855471 -260.243448 
L 448.25701 -259.624636 
L 450.658549 -258.992732 
L 453.060088 -258.391591 
L 455.461627 -257.824875 
L 457.863166 -257.295467 
L 460.264705 -256.784984 
L 462.666244 -256.272805 
L 465.067784 -255.769074 
L 467.469323 -255.289161 
L 469.870862 -254.770798 
L 472.272401 -254.251232 
L 474.67394 -253.699982 
L 477.075479 -253.136899 
L 479.477018 -252.516501 
L 481.878557 -251.853605 
L 484.280096 -251.735494 
L 486.681635 -251.711869 
L 489.083174 -251.701803 
L 491.484713 -251.731753 
L 493.886252 -251.746811 
L 496.287792 -251.781018 
L 498.689331 -251.818047 
L 501.09087 -251.802353 
L 503.492409 -251.757425 
L 505.893948 -251.709446 
L 508.295487 -251.612208 
L 510.697026 -251.473435 
L 513.098565 -251.335814 
L 515.500104 -251.217305 
L 517.901643 -251.103597 
L 520.303182 -251.035136 
L 522.704721 -250.916956 
L 525.10626 -250.748321 
L 527.5078 -250.588977 
L 529.909339 -250.392168 
L 532.310878 -250.18497 
L 534.712417 -249.959812 
L 537.113956 -249.707328 
L 539.515495 -249.372113 
L 541.917034 -249.082246 
L 544.318573 -248.83682 
L 546.720112 -248.593389 
L 549.121651 -248.423098 
L 551.52319 -248.277401 
L 553.924729 -248.123532 
L 556.326268 -248.038656 
L 558.727808 -247.976913 
L 561.129347 -247.903549 
L 563.530886 -247.766293 
L 565.932425 -247.606351 
L 568.333964 -247.424552 
L 570.735503 -247.229645 
L 573.137042 -247.035404 
L 575.538581 -246.807044 
L 577.94012 -246.620007 
L 580.341659 -246.436565 
L 582.743198 -246.29046 
L 585.144737 -246.166532 
L 587.546277 -246.108149 
L 589.947816 -246.027204 
L 592.349355 -245.913062 
L 594.750894 -245.789579 
L 597.152433 -245.60345 
L 599.553972 -245.398216 
L 601.955511 -245.211225 
L 604.35705 -245.035313 
L 606.758589 -244.870898 
L 609.160128 -244.681888 
L 611.561667 -244.525686 
L 613.963206 -244.37642 
L 616.364745 -244.22869 
L 618.766285 -244.040429 
L 621.167824 -243.865923 
L 623.569363 -243.76217 
L 625.970902 -243.604362 
L 628.372441 -243.471523 
L 630.77398 -243.329318 
L 633.175519 -243.192144 
L 635.577058 -243.073954 
L 637.978597 -242.936991 
L 640.380136 -242.818542 
L 642.781675 -242.759975 
L 645.183214 -242.772494 
L 647.584753 -242.826807 
L 649.986293 -242.88819 
L 652.387832 -242.886725 
L 654.789371 -242.852427 
L 657.19091 -242.803264 
L 659.592449 -242.775033 
L 661.993988 -242.771286 
L 664.395527 -242.761171 
L 666.797066 -242.794861 
L 669.198605 -242.803766 
L 671.600144 -242.776128 
L 674.001683 -242.770232 
L 676.403222 -242.768308 
L 678.804761 -242.764992 
L 681.206301 -242.752006 
L 683.60784 -242.766988 
L 686.009379 -242.86602 
L 688.410918 -242.955143 
L 690.812457 -243.001068 
L 693.213996 -243.043507 
L 695.615535 -243.088527 
L 698.017074 -243.016133 
L 700.418613 -242.837124 
L 702.820152 -242.644647 
L 705.221691 -242.484358 
L 707.62323 -242.303098 
L 710.024769 -242.070991 
L 712.426309 -241.856188 
L 714.827848 -241.660606 
L 717.229387 -241.497783 
L 719.630926 -241.369469 
L 722.032465 -241.270975 
L 724.434004 -241.141987 
L 726.835543 -241.023809 
L 729.237082 -240.92438 
L 731.638621 -240.805627 
L 734.04016 -240.503252 
L 736.441699 -240.205039 
L 738.843238 -239.898218 
L 741.244777 -239.603335 
L 743.646317 -239.310898 
L 746.047856 -239.038547 
L 748.449395 -238.76416 
L 750.850934 -238.491855 
L 753.252473 -238.232837 
L 755.654012 -237.98945 
L 758.055551 -237.762088 
L 760.45709 -237.530674 
L 762.858629 -237.302323 
L 765.260168 -237.090073 
L 767.661707 -236.886092 
L 770.063246 -236.679184 
L 772.464786 -236.499809 
L 774.866325 -236.329684 
L 777.267864 -236.105479 
L 779.669403 -235.893145 
L 782.070942 -235.699683 
L 784.472481 -235.501099 
L 786.87402 -235.337141 
L 789.275559 -235.210109 
L 791.677098 -235.09659 
L 794.078637 -234.956281 
L 796.480176 -234.833068 
L 798.881715 -234.708105 
L 801.283254 -234.58057 
L 803.684794 -234.452352 
L 806.086333 -234.345513 
L 808.487872 -234.260005 
L 810.889411 -234.176093 
L 813.29095 -234.076111 
L 815.692489 -233.973091 
L 818.094028 -233.900173 
L 820.495567 -233.799525 
L 822.897106 -233.702167 
L 825.298645 -233.651943 
L 827.700184 -233.595066 
L 830.101723 -233.532529 
L 832.503262 -233.489267 
L 834.904802 -233.434703 
L 837.306341 -233.363569 
L 837.306341 -282.280987 
L 837.306341 -282.280987 
L 834.904802 -282.194113 
L 832.503262 -282.108895 
L 830.101723 -282.023718 
L 827.700184 -281.975109 
L 825.298645 -281.938477 
L 822.897106 -281.895986 
L 820.495567 -281.839355 
L 818.094028 -281.775314 
L 815.692489 -281.692402 
L 813.29095 -281.554757 
L 810.889411 -281.424205 
L 808.487872 -281.259462 
L 806.086333 -281.108339 
L 803.684794 -280.999006 
L 801.283254 -280.868367 
L 798.881715 -280.779889 
L 796.480176 -280.716388 
L 794.078637 -280.656011 
L 791.677098 -280.621978 
L 789.275559 -280.612629 
L 786.87402 -280.612286 
L 784.472481 -280.599483 
L 782.070942 -280.596068 
L 779.669403 -280.574319 
L 777.267864 -280.587962 
L 774.866325 -280.635043 
L 772.464786 -280.703478 
L 770.063246 -280.732549 
L 767.661707 -280.789471 
L 765.260168 -280.837006 
L 762.858629 -280.810631 
L 760.45709 -280.610767 
L 758.055551 -280.30808 
L 755.654012 -280.083218 
L 753.252473 -279.885262 
L 750.850934 -279.749486 
L 748.449395 -279.597108 
L 746.047856 -279.419392 
L 743.646317 -279.340442 
L 741.244777 -279.234716 
L 738.843238 -279.026547 
L 736.441699 -278.800533 
L 734.04016 -278.58186 
L 731.638621 -278.3817 
L 729.237082 -278.228194 
L 726.835543 -277.83781 
L 724.434004 -277.418222 
L 722.032465 -277.025726 
L 719.630926 -276.596918 
L 717.229387 -276.208851 
L 714.827848 -275.868434 
L 712.426309 -275.566267 
L 710.024769 -275.341874 
L 707.62323 -275.164952 
L 705.221691 -275.036949 
L 702.820152 -274.955885 
L 700.418613 -274.933799 
L 698.017074 -274.935458 
L 695.615535 -274.885705 
L 693.213996 -274.836588 
L 690.812457 -274.720854 
L 688.410918 -274.63704 
L 686.009379 -274.559288 
L 683.60784 -274.459805 
L 681.206301 -274.307283 
L 678.804761 -274.286936 
L 676.403222 -274.229783 
L 674.001683 -274.224071 
L 671.600144 -274.238988 
L 669.198605 -274.234755 
L 666.797066 -274.176142 
L 664.395527 -274.098075 
L 661.993988 -273.959427 
L 659.592449 -273.75185 
L 657.19091 -273.456977 
L 654.789371 -273.060206 
L 652.387832 -272.693735 
L 649.986293 -272.382063 
L 647.584753 -272.169813 
L 645.183214 -272.070215 
L 642.781675 -272.002534 
L 640.380136 -272.179821 
L 637.978597 -272.334152 
L 635.577058 -272.495608 
L 633.175519 -272.728629 
L 630.77398 -272.919395 
L 628.372441 -273.163251 
L 625.970902 -273.408291 
L 623.569363 -273.596572 
L 621.167824 -273.859696 
L 618.766285 -274.148988 
L 616.364745 -274.504432 
L 613.963206 -274.892883 
L 611.561667 -275.291437 
L 609.160128 -275.710449 
L 606.758589 -276.123714 
L 604.35705 -276.505841 
L 601.955511 -276.823413 
L 599.553972 -277.00995 
L 597.152433 -277.154322 
L 594.750894 -277.322312 
L 592.349355 -277.407853 
L 589.947816 -277.397222 
L 587.546277 -277.391924 
L 585.144737 -277.363313 
L 582.743198 -277.364257 
L 580.341659 -277.358509 
L 577.94012 -277.312392 
L 575.538581 -277.316452 
L 573.137042 -277.282691 
L 570.735503 -277.254901 
L 568.333964 -277.185699 
L 565.932425 -277.028426 
L 563.530886 -276.797098 
L 561.129347 -276.527397 
L 558.727808 -276.193008 
L 556.326268 -275.856486 
L 553.924729 -275.503085 
L 551.52319 -275.333438 
L 549.121651 -275.259312 
L 546.720112 -275.202152 
L 544.318573 -275.234648 
L 541.917034 -275.251546 
L 539.515495 -275.138507 
L 537.113956 -274.995783 
L 534.712417 -274.782745 
L 532.310878 -274.748417 
L 529.909339 -274.788592 
L 527.5078 -274.873114 
L 525.10626 -275.018595 
L 522.704721 -275.118676 
L 520.303182 -275.188882 
L 517.901643 -275.227184 
L 515.500104 -275.295917 
L 513.098565 -275.519855 
L 510.697026 -275.836518 
L 508.295487 -276.190165 
L 505.893948 -276.583342 
L 503.492409 -276.985383 
L 501.09087 -277.37623 
L 498.689331 -277.759821 
L 496.287792 -278.143784 
L 493.886252 -278.576076 
L 491.484713 -279.019002 
L 489.083174 -279.474215 
L 486.681635 -279.958004 
L 484.280096 -280.36891 
L 481.878557 -280.790373 
L 479.477018 -281.099852 
L 477.075479 -281.170942 
L 474.67394 -281.258526 
L 472.272401 -281.443042 
L 469.870862 -281.638748 
L 467.469323 -281.813527 
L 465.067784 -281.900134 
L 462.666244 -281.951317 
L 460.264705 -282.073329 
L 457.863166 -282.254406 
L 455.461627 -282.461977 
L 453.060088 -282.676622 
L 450.658549 -283.069184 
L 448.25701 -283.625507 
L 445.855471 -284.19472 
L 443.453932 -284.729105 
L 441.052393 -285.288441 
L 438.650854 -285.904462 
L 436.249315 -286.482928 
L 433.847776 -287.074065 
L 431.446236 -287.663613 
L 429.044697 -288.326568 
L 426.643158 -289.045787 
L 424.241619 -289.792896 
L 421.84008 -290.539789 
L 419.438541 -291.330737 
L 417.037002 -292.181122 
L 414.635463 -293.06969 
L 412.233924 -293.957077 
L 409.832385 -294.801016 
L 407.430846 -295.655587 
L 405.029307 -296.526967 
L 402.627768 -297.379769 
L 400.226228 -298.223751 
L 397.824689 -299.165733 
L 395.42315 -300.144544 
L 393.021611 -301.104426 
L 390.620072 -302.006023 
L 388.218533 -302.798756 
L 385.816994 -303.370698 
L 383.415455 -303.947308 
L 381.013916 -304.572736 
L 378.612377 -305.315268 
L 376.210838 -306.075515 
L 373.809299 -306.816836 
L 371.407759 -307.605758 
L 369.00622 -308.416104 
L 366.604681 -309.234208 
L 364.203142 -310.028525 
L 361.801603 -310.834042 
L 359.400064 -311.702839 
L 356.998525 -312.553539 
L 354.596986 -313.407252 
L 352.195447 -314.350662 
L 349.793908 -315.377005 
L 347.392369 -316.426273 
L 344.99083 -317.475955 
L 342.589291 -318.586056 
L 340.187751 -319.756129 
L 337.786212 -320.903868 
L 335.384673 -322.112593 
L 332.983134 -323.331153 
L 330.581595 -324.54317 
L 328.180056 -325.82246 
L 325.778517 -327.129908 
L 323.376978 -328.434652 
L 320.975439 -329.821686 
L 318.5739 -331.263052 
L 316.172361 -332.747865 
L 313.770822 -334.278365 
L 311.369283 -335.788333 
L 308.967743 -337.327555 
L 306.566204 -338.830556 
L 304.164665 -340.287975 
L 301.763126 -341.711095 
L 299.361587 -343.122239 
L 296.960048 -344.621538 
L 294.558509 -346.144022 
L 292.15697 -347.630329 
L 289.755431 -349.126092 
L 287.353892 -350.61844 
L 284.952353 -352.115322 
L 282.550814 -353.619061 
L 280.149275 -355.117232 
L 277.747735 -356.636136 
L 275.346196 -358.170377 
L 272.944657 -359.704177 
L 270.543118 -361.444239 
L 268.141579 -363.298339 
L 265.74004 -365.315654 
L 263.338501 -367.308709 
L 260.936962 -369.213419 
L 258.535423 -371.153999 
L 256.133884 -373.067259 
L 253.732345 -375.109838 
L 251.330806 -377.07362 
L 248.929267 -379.024789 
L 246.527727 -381.11566 
L 244.126188 -383.064843 
L 241.724649 -385.08694 
L 239.32311 -387.091034 
L 236.921571 -389.136044 
L 234.520032 -391.213441 
L 232.118493 -393.322993 
L 229.716954 -395.452009 
L 227.315415 -397.582541 
L 224.913876 -399.474444 
L 222.512337 -401.413946 
L 220.110798 -403.44913 
L 217.709259 -405.692942 
L 215.307719 -407.891381 
L 212.90618 -410.084012 
L 210.504641 -412.276776 
L 208.103102 -414.486342 
L 205.701563 -416.67296 
L 203.300024 -418.891166 
L 200.898485 -421.157005 
L 198.496946 -423.351903 
L 196.095407 -425.52913 
L 193.693868 -427.743901 
L 191.292329 -430.020368 
L 188.89079 -432.345294 
L 186.48925 -434.655293 
L 184.087711 -436.912936 
L 181.686172 -439.112237 
L 179.284633 -441.361216 
L 176.883094 -443.619887 
L 174.481555 -445.897131 
L 172.080016 -448.157439 
L 169.678477 -450.298959 
L 167.276938 -452.518402 
z
" style="stroke: #f47100; stroke-opacity: 0.2"/>
    </defs>
    <g clip-path="url(#p23e665a6de)">
     <use xlink:href="#m2daea0fb0b" x="0" y="600" style="fill: #f47100; fill-opacity: 0.2; stroke: #f47100; stroke-opacity: 0.2"/>
    </g>
   </g>
   <g id="PolyCollection_4">
    <defs>
     <path id="md60304dd30" d="M 116.844617 -493.279926 
L 116.844617 -485.148851 
L 119.246156 -484.268701 
L 121.647695 -483.450375 
L 124.049234 -482.512201 
L 126.450774 -481.57022 
L 128.852313 -480.573077 
L 131.253852 -479.692079 
L 133.655391 -478.802122 
L 136.05693 -477.776367 
L 138.458469 -476.743795 
L 140.860008 -475.647487 
L 143.261547 -473.849031 
L 145.663086 -471.912743 
L 148.064625 -469.88242 
L 150.466164 -467.738009 
L 152.867703 -465.489973 
L 155.269242 -463.313018 
L 157.670782 -461.174467 
L 160.072321 -458.981293 
L 162.47386 -456.770557 
L 164.875399 -454.648 
L 164.875399 -454.648 
L 164.875399 -454.648 
L 162.47386 -457.348864 
L 160.072321 -460.03675 
L 157.670782 -462.798295 
L 155.269242 -465.498487 
L 152.867703 -468.063221 
L 150.466164 -470.682341 
L 148.064625 -473.141803 
L 145.663086 -475.664779 
L 143.261547 -478.156083 
L 140.860008 -480.693773 
L 138.458469 -481.872546 
L 136.05693 -483.090383 
L 133.655391 -484.276779 
L 131.253852 -485.411426 
L 128.852313 -486.655943 
L 126.450774 -488.07279 
L 124.049234 -489.520531 
L 121.647695 -490.965555 
L 119.246156 -492.330136 
L 116.844617 -493.279926 
z
" style="stroke: #000000; stroke-opacity: 0.2"/>
    </defs>
    <g clip-path="url(#p23e665a6de)">
     <use xlink:href="#md60304dd30" x="0" y="600" style="fill-opacity: 0.2; stroke: #000000; stroke-opacity: 0.2"/>
    </g>
   </g>
   <g id="PolyCollection_5">
    <defs>
     <path id="m02d00ee358" d="M 167.276938 -452.410912 
L 167.276938 -451.962596 
L 169.678477 -449.031586 
L 172.080016 -446.054707 
L 174.481555 -443.181682 
L 176.883094 -440.254653 
L 179.284633 -437.302828 
L 181.686172 -434.315873 
L 184.087711 -431.351073 
L 186.48925 -428.427193 
L 188.89079 -425.470424 
L 191.292329 -422.417261 
L 193.693868 -419.350064 
L 196.095407 -416.23767 
L 198.496946 -413.16032 
L 200.898485 -410.012698 
L 203.300024 -406.942862 
L 205.701563 -403.994504 
L 208.103102 -400.635239 
L 210.504641 -397.519113 
L 212.90618 -394.376055 
L 215.307719 -391.313883 
L 217.709259 -388.29836 
L 220.110798 -385.229265 
L 222.512337 -382.26663 
L 224.913876 -379.34133 
L 227.315415 -376.467204 
L 229.716954 -373.449108 
L 232.118493 -370.461266 
L 234.520032 -367.61144 
L 236.921571 -364.771064 
L 239.32311 -362.037323 
L 241.724649 -359.312845 
L 244.126188 -356.605448 
L 246.527727 -353.680259 
L 248.929267 -350.891942 
L 251.330806 -348.180102 
L 253.732345 -345.532687 
L 256.133884 -342.869715 
L 258.535423 -340.113185 
L 260.936962 -337.29001 
L 263.338501 -334.477907 
L 265.74004 -331.621034 
L 268.141579 -328.68334 
L 270.543118 -325.859733 
L 272.944657 -323.194728 
L 275.346196 -320.515589 
L 277.747735 -317.948919 
L 280.149275 -315.448047 
L 282.550814 -313.027343 
L 284.952353 -310.647896 
L 287.353892 -308.090501 
L 289.755431 -305.692774 
L 292.15697 -303.325174 
L 294.558509 -300.924939 
L 296.960048 -298.607877 
L 299.361587 -296.230598 
L 301.763126 -293.933697 
L 304.164665 -291.802295 
L 306.566204 -289.714392 
L 308.967743 -287.650102 
L 311.369283 -285.608072 
L 313.770822 -283.633282 
L 316.172361 -281.701262 
L 318.5739 -279.788429 
L 320.975439 -277.87938 
L 323.376978 -275.989862 
L 325.778517 -274.14361 
L 328.180056 -272.306084 
L 330.581595 -270.420771 
L 332.983134 -268.563982 
L 335.384673 -266.669703 
L 337.786212 -264.870953 
L 340.187751 -263.140405 
L 342.589291 -261.506088 
L 344.99083 -259.94043 
L 347.392369 -257.987946 
L 349.793908 -256.072304 
L 352.195447 -254.1256 
L 354.596986 -252.166985 
L 356.998525 -250.276957 
L 359.400064 -248.503926 
L 361.801603 -246.826867 
L 364.203142 -245.138832 
L 366.604681 -243.460014 
L 369.00622 -241.779398 
L 371.407759 -240.041876 
L 373.809299 -238.309624 
L 376.210838 -236.607955 
L 378.612377 -234.943411 
L 381.013916 -233.259298 
L 383.415455 -231.629782 
L 385.816994 -230.09857 
L 388.218533 -228.567671 
L 390.620072 -227.057866 
L 393.021611 -225.594276 
L 395.42315 -224.149247 
L 397.824689 -222.655474 
L 400.226228 -221.175866 
L 402.627768 -219.785169 
L 405.029307 -218.40646 
L 407.430846 -216.987675 
L 409.832385 -215.545191 
L 412.233924 -214.129711 
L 414.635463 -212.726365 
L 417.037002 -211.330619 
L 419.438541 -209.921489 
L 421.84008 -208.535416 
L 424.241619 -207.167532 
L 426.643158 -205.830096 
L 429.044697 -204.547103 
L 431.446236 -203.27795 
L 433.847776 -201.970463 
L 436.249315 -200.592609 
L 438.650854 -199.212911 
L 441.052393 -197.782155 
L 443.453932 -196.339595 
L 445.855471 -194.983743 
L 448.25701 -193.758795 
L 450.658549 -192.780293 
L 453.060088 -191.97762 
L 455.461627 -191.269962 
L 457.863166 -190.555272 
L 460.264705 -189.895481 
L 462.666244 -189.25246 
L 465.067784 -188.565504 
L 467.469323 -187.920502 
L 469.870862 -187.25163 
L 472.272401 -186.622322 
L 474.67394 -185.98164 
L 477.075479 -185.33943 
L 479.477018 -184.727427 
L 481.878557 -184.129124 
L 484.280096 -183.511779 
L 486.681635 -182.91421 
L 489.083174 -182.337963 
L 491.484713 -181.740699 
L 493.886252 -181.124398 
L 496.287792 -180.520468 
L 498.689331 -179.940497 
L 501.09087 -179.374184 
L 503.492409 -178.822253 
L 505.893948 -178.286735 
L 508.295487 -177.749529 
L 510.697026 -177.193911 
L 513.098565 -176.711658 
L 515.500104 -176.205823 
L 517.901643 -175.713724 
L 520.303182 -175.187635 
L 522.704721 -174.72037 
L 525.10626 -174.246512 
L 527.5078 -173.783782 
L 529.909339 -173.362848 
L 532.310878 -172.966976 
L 534.712417 -172.549053 
L 537.113956 -172.172692 
L 539.515495 -171.828946 
L 541.917034 -171.466238 
L 544.318573 -171.117319 
L 546.720112 -170.873837 
L 549.121651 -170.630291 
L 551.52319 -169.925146 
L 553.924729 -169.170547 
L 556.326268 -168.427861 
L 558.727808 -167.7089 
L 561.129347 -167.020521 
L 563.530886 -166.378197 
L 565.932425 -165.760287 
L 568.333964 -165.151806 
L 570.735503 -164.586458 
L 573.137042 -164.029421 
L 575.538581 -163.468599 
L 577.94012 -162.92288 
L 580.341659 -162.401497 
L 582.743198 -161.908412 
L 585.144737 -161.421777 
L 587.546277 -160.998334 
L 589.947816 -160.616974 
L 592.349355 -160.235177 
L 594.750894 -159.874307 
L 597.152433 -159.513064 
L 599.553972 -159.160186 
L 601.955511 -158.794029 
L 604.35705 -158.429137 
L 606.758589 -158.034279 
L 609.160128 -157.643539 
L 611.561667 -157.248314 
L 613.963206 -156.849115 
L 616.364745 -156.462686 
L 618.766285 -156.090516 
L 621.167824 -155.952382 
L 623.569363 -155.864319 
L 625.970902 -155.802518 
L 628.372441 -155.803616 
L 630.77398 -155.734587 
L 633.175519 -155.642941 
L 635.577058 -155.574462 
L 637.978597 -155.466791 
L 640.380136 -155.348559 
L 642.781675 -155.244324 
L 645.183214 -155.112316 
L 647.584753 -154.962821 
L 649.986293 -154.812471 
L 652.387832 -154.680645 
L 654.789371 -154.572164 
L 657.19091 -154.419555 
L 659.592449 -154.306151 
L 661.993988 -154.224504 
L 664.395527 -154.175773 
L 666.797066 -154.141943 
L 669.198605 -154.129945 
L 671.600144 -154.058205 
L 674.001683 -153.98406 
L 676.403222 -153.854143 
L 678.804761 -153.778624 
L 681.206301 -153.718072 
L 683.60784 -153.629506 
L 686.009379 -153.559836 
L 688.410918 -153.498292 
L 690.812457 -153.430398 
L 693.213996 -153.409235 
L 695.615535 -153.394176 
L 698.017074 -153.369501 
L 700.418613 -153.343369 
L 702.820152 -153.314667 
L 705.221691 -153.320485 
L 707.62323 -153.31508 
L 710.024769 -153.291457 
L 712.426309 -153.20938 
L 714.827848 -153.114152 
L 717.229387 -152.985453 
L 719.630926 -152.890017 
L 722.032465 -152.792878 
L 724.434004 -152.707045 
L 726.835543 -152.596481 
L 729.237082 -152.459604 
L 731.638621 -152.329798 
L 734.04016 -152.206928 
L 736.441699 -152.057823 
L 738.843238 -151.877561 
L 741.244777 -151.704496 
L 743.646317 -151.51937 
L 746.047856 -151.332051 
L 748.449395 -151.147844 
L 750.850934 -150.995516 
L 753.252473 -150.851487 
L 755.654012 -150.684588 
L 758.055551 -150.52355 
L 760.45709 -150.373705 
L 762.858629 -150.226073 
L 765.260168 -150.094119 
L 767.661707 -149.953972 
L 770.063246 -149.820846 
L 772.464786 -149.702945 
L 774.866325 -149.632408 
L 777.267864 -149.605 
L 779.669403 -149.590023 
L 782.070942 -149.561587 
L 784.472481 -149.571523 
L 786.87402 -149.622108 
L 789.275559 -149.67995 
L 791.677098 -149.70511 
L 794.078637 -149.755977 
L 796.480176 -149.739414 
L 798.881715 -149.70459 
L 801.283254 -149.634389 
L 803.684794 -149.563515 
L 806.086333 -149.489646 
L 808.487872 -149.446 
L 810.889411 -149.418825 
L 813.29095 -149.412286 
L 815.692489 -149.416516 
L 818.094028 -149.421955 
L 820.495567 -149.395147 
L 822.897106 -149.364221 
L 825.298645 -149.315781 
L 827.700184 -149.265708 
L 830.101723 -149.167567 
L 832.503262 -149.048459 
L 834.904802 -148.912054 
L 837.306341 -148.811605 
L 837.306341 -219.115102 
L 837.306341 -219.115102 
L 834.904802 -219.1998 
L 832.503262 -219.28325 
L 830.101723 -219.379117 
L 827.700184 -219.447278 
L 825.298645 -219.480323 
L 822.897106 -219.523972 
L 820.495567 -219.550015 
L 818.094028 -219.570805 
L 815.692489 -219.599303 
L 813.29095 -219.617163 
L 810.889411 -219.648996 
L 808.487872 -219.683579 
L 806.086333 -219.755994 
L 803.684794 -219.874084 
L 801.283254 -220.014551 
L 798.881715 -220.134876 
L 796.480176 -220.240634 
L 794.078637 -220.34462 
L 791.677098 -220.438363 
L 789.275559 -220.521947 
L 786.87402 -220.603481 
L 784.472481 -220.680793 
L 782.070942 -220.74344 
L 779.669403 -220.842831 
L 777.267864 -220.97549 
L 774.866325 -221.080993 
L 772.464786 -221.204773 
L 770.063246 -221.381449 
L 767.661707 -221.552784 
L 765.260168 -221.751757 
L 762.858629 -221.945982 
L 760.45709 -222.154088 
L 758.055551 -222.35884 
L 755.654012 -222.536014 
L 753.252473 -222.725179 
L 750.850934 -222.935245 
L 748.449395 -223.150461 
L 746.047856 -223.360792 
L 743.646317 -223.605754 
L 741.244777 -223.828509 
L 738.843238 -224.021294 
L 736.441699 -224.197409 
L 734.04016 -224.363054 
L 731.638621 -224.508816 
L 729.237082 -224.649776 
L 726.835543 -224.800457 
L 724.434004 -224.927937 
L 722.032465 -225.00178 
L 719.630926 -225.089154 
L 717.229387 -225.170044 
L 714.827848 -225.254781 
L 712.426309 -225.33927 
L 710.024769 -225.392651 
L 707.62323 -225.42955 
L 705.221691 -225.427238 
L 702.820152 -225.401772 
L 700.418613 -225.377339 
L 698.017074 -225.381671 
L 695.615535 -225.375114 
L 693.213996 -225.363119 
L 690.812457 -225.365033 
L 688.410918 -225.391723 
L 686.009379 -225.454022 
L 683.60784 -225.520654 
L 681.206301 -225.567851 
L 678.804761 -225.621834 
L 676.403222 -225.688845 
L 674.001683 -225.78865 
L 671.600144 -225.902561 
L 669.198605 -226.011202 
L 666.797066 -226.098886 
L 664.395527 -226.160078 
L 661.993988 -226.23165 
L 659.592449 -226.305335 
L 657.19091 -226.393316 
L 654.789371 -226.506892 
L 652.387832 -226.585611 
L 649.986293 -226.628595 
L 647.584753 -226.662591 
L 645.183214 -226.721055 
L 642.781675 -226.756912 
L 640.380136 -226.76152 
L 637.978597 -226.74511 
L 635.577058 -226.699255 
L 633.175519 -226.67409 
L 630.77398 -226.650903 
L 628.372441 -226.649116 
L 625.970902 -226.633059 
L 623.569363 -226.594938 
L 621.167824 -226.578204 
L 618.766285 -226.617256 
L 616.364745 -226.68243 
L 613.963206 -226.759533 
L 611.561667 -226.860198 
L 609.160128 -226.989139 
L 606.758589 -227.110498 
L 604.35705 -227.273325 
L 601.955511 -227.484189 
L 599.553972 -227.669885 
L 597.152433 -227.838257 
L 594.750894 -228.024269 
L 592.349355 -228.259556 
L 589.947816 -228.470913 
L 587.546277 -228.703915 
L 585.144737 -228.953467 
L 582.743198 -229.204579 
L 580.341659 -229.407714 
L 577.94012 -229.608719 
L 575.538581 -229.807577 
L 573.137042 -229.976943 
L 570.735503 -230.11309 
L 568.333964 -230.249831 
L 565.932425 -230.354084 
L 563.530886 -230.444965 
L 561.129347 -230.51535 
L 558.727808 -230.629127 
L 556.326268 -230.729551 
L 553.924729 -230.814196 
L 551.52319 -230.917818 
L 549.121651 -231.032384 
L 546.720112 -231.146744 
L 544.318573 -231.23952 
L 541.917034 -231.364005 
L 539.515495 -231.485029 
L 537.113956 -231.586448 
L 534.712417 -231.694927 
L 532.310878 -231.84332 
L 529.909339 -231.981147 
L 527.5078 -232.132201 
L 525.10626 -232.315786 
L 522.704721 -232.51214 
L 520.303182 -232.704545 
L 517.901643 -232.949828 
L 515.500104 -233.193723 
L 513.098565 -233.470436 
L 510.697026 -233.705715 
L 508.295487 -233.953658 
L 505.893948 -234.181613 
L 503.492409 -234.410417 
L 501.09087 -234.677132 
L 498.689331 -234.947779 
L 496.287792 -235.311597 
L 493.886252 -235.84364 
L 491.484713 -236.341814 
L 489.083174 -236.860949 
L 486.681635 -237.435133 
L 484.280096 -238.039267 
L 481.878557 -238.64069 
L 479.477018 -239.263325 
L 477.075479 -239.937723 
L 474.67394 -240.620931 
L 472.272401 -241.325551 
L 469.870862 -242.038121 
L 467.469323 -242.795566 
L 465.067784 -243.551749 
L 462.666244 -244.059711 
L 460.264705 -244.408532 
L 457.863166 -244.633377 
L 455.461627 -244.70146 
L 453.060088 -244.82294 
L 450.658549 -244.943105 
L 448.25701 -245.055593 
L 445.855471 -245.364111 
L 443.453932 -246.081221 
L 441.052393 -246.655851 
L 438.650854 -247.012542 
L 436.249315 -247.424259 
L 433.847776 -247.881038 
L 431.446236 -248.382469 
L 429.044697 -248.839007 
L 426.643158 -249.275268 
L 424.241619 -249.680484 
L 421.84008 -250.171857 
L 419.438541 -250.958515 
L 417.037002 -252.083938 
L 414.635463 -253.429326 
L 412.233924 -254.79045 
L 409.832385 -256.164506 
L 407.430846 -257.5674 
L 405.029307 -258.871498 
L 402.627768 -260.086004 
L 400.226228 -261.333614 
L 397.824689 -262.659527 
L 395.42315 -264.010157 
L 393.021611 -265.361322 
L 390.620072 -266.702509 
L 388.218533 -268.097078 
L 385.816994 -269.503197 
L 383.415455 -270.902795 
L 381.013916 -272.360924 
L 378.612377 -273.864882 
L 376.210838 -275.165785 
L 373.809299 -276.555369 
L 371.407759 -277.982028 
L 369.00622 -279.405766 
L 366.604681 -280.837177 
L 364.203142 -282.284643 
L 361.801603 -283.77007 
L 359.400064 -285.257992 
L 356.998525 -286.807945 
L 354.596986 -288.449733 
L 352.195447 -290.103348 
L 349.793908 -291.739864 
L 347.392369 -293.268835 
L 344.99083 -294.705617 
L 342.589291 -296.135686 
L 340.187751 -297.592077 
L 337.786212 -299.133136 
L 335.384673 -300.605065 
L 332.983134 -302.100567 
L 330.581595 -303.584498 
L 328.180056 -305.079117 
L 325.778517 -306.533948 
L 323.376978 -307.991434 
L 320.975439 -309.481424 
L 318.5739 -310.99648 
L 316.172361 -312.524268 
L 313.770822 -314.09238 
L 311.369283 -315.682505 
L 308.967743 -317.299472 
L 306.566204 -318.938526 
L 304.164665 -320.613857 
L 301.763126 -322.306022 
L 299.361587 -324.127997 
L 296.960048 -326.019175 
L 294.558509 -327.865059 
L 292.15697 -329.651697 
L 289.755431 -331.401916 
L 287.353892 -333.193871 
L 284.952353 -335.096096 
L 282.550814 -337.061322 
L 280.149275 -339.133314 
L 277.747735 -341.275958 
L 275.346196 -343.511576 
L 272.944657 -345.859872 
L 270.543118 -348.128219 
L 268.141579 -350.342978 
L 265.74004 -352.633854 
L 263.338501 -354.874944 
L 260.936962 -357.137714 
L 258.535423 -359.350958 
L 256.133884 -361.483531 
L 253.732345 -363.61478 
L 251.330806 -365.781672 
L 248.929267 -367.945381 
L 246.527727 -370.263973 
L 244.126188 -372.68797 
L 241.724649 -375.070059 
L 239.32311 -377.445299 
L 236.921571 -379.804488 
L 234.520032 -382.222824 
L 232.118493 -384.615557 
L 229.716954 -387.000615 
L 227.315415 -389.392166 
L 224.913876 -391.735916 
L 222.512337 -394.146473 
L 220.110798 -396.636339 
L 217.709259 -399.194669 
L 215.307719 -401.808784 
L 212.90618 -404.41348 
L 210.504641 -407.046303 
L 208.103102 -409.685428 
L 205.701563 -412.404456 
L 203.300024 -415.038905 
L 200.898485 -417.668956 
L 198.496946 -420.182534 
L 196.095407 -422.637425 
L 193.693868 -425.143173 
L 191.292329 -427.624672 
L 188.89079 -430.131077 
L 186.48925 -432.636709 
L 184.087711 -435.193878 
L 181.686172 -437.885481 
L 179.284633 -440.420906 
L 176.883094 -442.959283 
L 174.481555 -445.358938 
L 172.080016 -447.75309 
L 169.678477 -450.053767 
L 167.276938 -452.410912 
z
" style="stroke: #d01e04; stroke-opacity: 0.2"/>
    </defs>
    <g clip-path="url(#p23e665a6de)">
     <use xlink:href="#m02d00ee358" x="0" y="600" style="fill: #d01e04; fill-opacity: 0.2; stroke: #d01e04; stroke-opacity: 0.2"/>
    </g>
   </g>
   <g id="PolyCollection_6">
    <defs>
     <path id="m33d504ca32" d="M 116.844617 -491.701803 
L 116.844617 -484.328388 
L 119.246156 -483.450041 
L 121.647695 -482.63339 
L 124.049234 -481.819296 
L 126.450774 -480.967017 
L 128.852313 -480.084254 
L 131.253852 -479.286731 
L 133.655391 -478.554243 
L 136.05693 -477.529132 
L 138.458469 -476.497209 
L 140.860008 -475.401591 
L 143.261547 -473.604265 
L 145.663086 -471.735814 
L 148.064625 -469.772149 
L 150.466164 -467.672824 
L 152.867703 -465.505936 
L 155.269242 -463.450321 
L 157.670782 -461.334206 
L 160.072321 -459.106674 
L 162.47386 -456.840613 
L 164.875399 -454.648 
L 164.875399 -454.648 
L 164.875399 -454.648 
L 162.47386 -457.29896 
L 160.072321 -459.867651 
L 157.670782 -462.361093 
L 155.269242 -464.871952 
L 152.867703 -467.262009 
L 150.466164 -469.675201 
L 148.064625 -472.029921 
L 145.663086 -474.507638 
L 143.261547 -476.975744 
L 140.860008 -479.476675 
L 138.458469 -480.694929 
L 136.05693 -481.91919 
L 133.655391 -483.131884 
L 131.253852 -484.308991 
L 128.852313 -485.552672 
L 126.450774 -486.822602 
L 124.049234 -488.125989 
L 121.647695 -489.349476 
L 119.246156 -490.555221 
L 116.844617 -491.701803 
z
" style="stroke: #000000; stroke-opacity: 0.2"/>
    </defs>
    <g clip-path="url(#p23e665a6de)">
     <use xlink:href="#m33d504ca32" x="0" y="600" style="fill-opacity: 0.2; stroke: #000000; stroke-opacity: 0.2"/>
    </g>
   </g>
   <g id="matplotlib.axis_1">
    <g id="xtick_1">
     <g id="line2d_1">
      <defs>
       <path id="m9a696bdcdc" d="M 0 0 
L 0 3.5 
" style="stroke: #000000; stroke-width: 0.8"/>
      </defs>
      <g>
       <use xlink:href="#m9a696bdcdc" x="164.875399" y="515.56" style="stroke: #000000; stroke-width: 0.8"/>
      </g>
     </g>
     <g id="text_1">
      <!-- 2020 -->
      <g transform="translate(131.790399 542.315938)scale(0.26 -0.26)">
       <defs>
        <path id="DejaVuSans-32" d="M 1228 531 
L 3431 531 
L 3431 0 
L 469 0 
L 469 531 
Q 828 903 1448 1529 
Q 2069 2156 2228 2338 
Q 2531 2678 2651 2914 
Q 2772 3150 2772 3378 
Q 2772 3750 2511 3984 
Q 2250 4219 1831 4219 
Q 1534 4219 1204 4116 
Q 875 4013 500 3803 
L 500 4441 
Q 881 4594 1212 4672 
Q 1544 4750 1819 4750 
Q 2544 4750 2975 4387 
Q 3406 4025 3406 3419 
Q 3406 3131 3298 2873 
Q 3191 2616 2906 2266 
Q 2828 2175 2409 1742 
Q 1991 1309 1228 531 
z
" transform="scale(0.015625)"/>
        <path id="DejaVuSans-30" d="M 2034 4250 
Q 1547 4250 1301 3770 
Q 1056 3291 1056 2328 
Q 1056 1369 1301 889 
Q 1547 409 2034 409 
Q 2525 409 2770 889 
Q 3016 1369 3016 2328 
Q 3016 3291 2770 3770 
Q 2525 4250 2034 4250 
z
M 2034 4750 
Q 2819 4750 3233 4129 
Q 3647 3509 3647 2328 
Q 3647 1150 3233 529 
Q 2819 -91 2034 -91 
Q 1250 -91 836 529 
Q 422 1150 422 2328 
Q 422 3509 836 4129 
Q 1250 4750 2034 4750 
z
" transform="scale(0.015625)"/>
       </defs>
       <use xlink:href="#DejaVuSans-32"/>
       <use xlink:href="#DejaVuSans-30" x="63.623047"/>
       <use xlink:href="#DejaVuSans-32" x="127.246094"/>
       <use xlink:href="#DejaVuSans-30" x="190.869141"/>
      </g>
     </g>
    </g>
    <g id="xtick_2">
     <g id="line2d_2">
      <g>
       <use xlink:href="#m9a696bdcdc" x="356.998525" y="515.56" style="stroke: #000000; stroke-width: 0.8"/>
      </g>
     </g>
     <g id="text_2">
      <!-- 2100 -->
      <g transform="translate(323.913525 542.315938)scale(0.26 -0.26)">
       <defs>
        <path id="DejaVuSans-31" d="M 794 531 
L 1825 531 
L 1825 4091 
L 703 3866 
L 703 4441 
L 1819 4666 
L 2450 4666 
L 2450 531 
L 3481 531 
L 3481 0 
L 794 0 
L 794 531 
z
" transform="scale(0.015625)"/>
       </defs>
       <use xlink:href="#DejaVuSans-32"/>
       <use xlink:href="#DejaVuSans-31" x="63.623047"/>
       <use xlink:href="#DejaVuSans-30" x="127.246094"/>
       <use xlink:href="#DejaVuSans-30" x="190.869141"/>
      </g>
     </g>
    </g>
    <g id="xtick_3">
     <g id="line2d_3">
      <g>
       <use xlink:href="#m9a696bdcdc" x="597.152433" y="515.56" style="stroke: #000000; stroke-width: 0.8"/>
      </g>
     </g>
     <g id="text_3">
      <!-- 2200 -->
      <g transform="translate(564.067433 542.315938)scale(0.26 -0.26)">
       <use xlink:href="#DejaVuSans-32"/>
       <use xlink:href="#DejaVuSans-32" x="63.623047"/>
       <use xlink:href="#DejaVuSans-30" x="127.246094"/>
       <use xlink:href="#DejaVuSans-30" x="190.869141"/>
      </g>
     </g>
    </g>
    <g id="xtick_4">
     <g id="line2d_4">
      <g>
       <use xlink:href="#m9a696bdcdc" x="837.306341" y="515.56" style="stroke: #000000; stroke-width: 0.8"/>
      </g>
     </g>
     <g id="text_4">
      <!-- 2300 -->
      <g transform="translate(804.221341 542.315938)scale(0.26 -0.26)">
       <defs>
        <path id="DejaVuSans-33" d="M 2597 2516 
Q 3050 2419 3304 2112 
Q 3559 1806 3559 1356 
Q 3559 666 3084 287 
Q 2609 -91 1734 -91 
Q 1441 -91 1130 -33 
Q 819 25 488 141 
L 488 750 
Q 750 597 1062 519 
Q 1375 441 1716 441 
Q 2309 441 2620 675 
Q 2931 909 2931 1356 
Q 2931 1769 2642 2001 
Q 2353 2234 1838 2234 
L 1294 2234 
L 1294 2753 
L 1863 2753 
Q 2328 2753 2575 2939 
Q 2822 3125 2822 3475 
Q 2822 3834 2567 4026 
Q 2313 4219 1838 4219 
Q 1578 4219 1281 4162 
Q 984 4106 628 3988 
L 628 4550 
Q 988 4650 1302 4700 
Q 1616 4750 1894 4750 
Q 2613 4750 3031 4423 
Q 3450 4097 3450 3541 
Q 3450 3153 3228 2886 
Q 3006 2619 2597 2516 
z
" transform="scale(0.015625)"/>
       </defs>
       <use xlink:href="#DejaVuSans-32"/>
       <use xlink:href="#DejaVuSans-33" x="63.623047"/>
       <use xlink:href="#DejaVuSans-30" x="127.246094"/>
       <use xlink:href="#DejaVuSans-30" x="190.869141"/>
      </g>
     </g>
    </g>
    <g id="text_5">
     <!-- Year -->
     <g transform="translate(457.010409 568.439687)scale(0.22 -0.22)">
      <defs>
       <path id="DejaVuSans-Bold-59" d="M -63 4666 
L 1253 4666 
L 2316 3003 
L 3378 4666 
L 4697 4666 
L 2919 1966 
L 2919 0 
L 1716 0 
L 1716 1966 
L -63 4666 
z
" transform="scale(0.015625)"/>
       <path id="DejaVuSans-Bold-65" d="M 4031 1759 
L 4031 1441 
L 1416 1441 
Q 1456 1047 1700 850 
Q 1944 653 2381 653 
Q 2734 653 3104 758 
Q 3475 863 3866 1075 
L 3866 213 
Q 3469 63 3072 -14 
Q 2675 -91 2278 -91 
Q 1328 -91 801 392 
Q 275 875 275 1747 
Q 275 2603 792 3093 
Q 1309 3584 2216 3584 
Q 3041 3584 3536 3087 
Q 4031 2591 4031 1759 
z
M 2881 2131 
Q 2881 2450 2695 2645 
Q 2509 2841 2209 2841 
Q 1884 2841 1681 2658 
Q 1478 2475 1428 2131 
L 2881 2131 
z
" transform="scale(0.015625)"/>
       <path id="DejaVuSans-Bold-61" d="M 2106 1575 
Q 1756 1575 1579 1456 
Q 1403 1338 1403 1106 
Q 1403 894 1545 773 
Q 1688 653 1941 653 
Q 2256 653 2472 879 
Q 2688 1106 2688 1447 
L 2688 1575 
L 2106 1575 
z
M 3816 1997 
L 3816 0 
L 2688 0 
L 2688 519 
Q 2463 200 2181 54 
Q 1900 -91 1497 -91 
Q 953 -91 614 226 
Q 275 544 275 1050 
Q 275 1666 698 1953 
Q 1122 2241 2028 2241 
L 2688 2241 
L 2688 2328 
Q 2688 2594 2478 2717 
Q 2269 2841 1825 2841 
Q 1466 2841 1156 2769 
Q 847 2697 581 2553 
L 581 3406 
Q 941 3494 1303 3539 
Q 1666 3584 2028 3584 
Q 2975 3584 3395 3211 
Q 3816 2838 3816 1997 
z
" transform="scale(0.015625)"/>
       <path id="DejaVuSans-Bold-72" d="M 3138 2547 
Q 2991 2616 2845 2648 
Q 2700 2681 2553 2681 
Q 2122 2681 1889 2404 
Q 1656 2128 1656 1613 
L 1656 0 
L 538 0 
L 538 3500 
L 1656 3500 
L 1656 2925 
Q 1872 3269 2151 3426 
Q 2431 3584 2822 3584 
Q 2878 3584 2943 3579 
Q 3009 3575 3134 3559 
L 3138 2547 
z
" transform="scale(0.015625)"/>
      </defs>
      <use xlink:href="#DejaVuSans-Bold-59"/>
      <use xlink:href="#DejaVuSans-Bold-65" x="63.287109"/>
      <use xlink:href="#DejaVuSans-Bold-61" x="131.109375"/>
      <use xlink:href="#DejaVuSans-Bold-72" x="198.589844"/>
     </g>
    </g>
   </g>
   <g id="matplotlib.axis_2">
    <g id="ytick_1">
     <g id="line2d_5">
      <defs>
       <path id="m54f82668b1" d="M 0 0 
L -3.5 0 
" style="stroke: #000000; stroke-width: 0.8"/>
      </defs>
      <g>
       <use xlink:href="#m54f82668b1" x="109.64" y="515.56" style="stroke: #000000; stroke-width: 0.8"/>
      </g>
     </g>
     <g id="text_6">
      <!-- 0 -->
      <g transform="translate(86.0975 525.437969)scale(0.26 -0.26)">
       <use xlink:href="#DejaVuSans-30"/>
      </g>
     </g>
    </g>
    <g id="ytick_2">
     <g id="line2d_6">
      <g>
       <use xlink:href="#m54f82668b1" x="109.64" y="441.5184" style="stroke: #000000; stroke-width: 0.8"/>
      </g>
     </g>
     <g id="text_7">
      <!-- 20 -->
      <g transform="translate(69.555 451.396369)scale(0.26 -0.26)">
       <use xlink:href="#DejaVuSans-32"/>
       <use xlink:href="#DejaVuSans-30" x="63.623047"/>
      </g>
     </g>
    </g>
    <g id="ytick_3">
     <g id="line2d_7">
      <g>
       <use xlink:href="#m54f82668b1" x="109.64" y="367.4768" style="stroke: #000000; stroke-width: 0.8"/>
      </g>
     </g>
     <g id="text_8">
      <!-- 40 -->
      <g transform="translate(69.555 377.354769)scale(0.26 -0.26)">
       <defs>
        <path id="DejaVuSans-34" d="M 2419 4116 
L 825 1625 
L 2419 1625 
L 2419 4116 
z
M 2253 4666 
L 3047 4666 
L 3047 1625 
L 3713 1625 
L 3713 1100 
L 3047 1100 
L 3047 0 
L 2419 0 
L 2419 1100 
L 313 1100 
L 313 1709 
L 2253 4666 
z
" transform="scale(0.015625)"/>
       </defs>
       <use xlink:href="#DejaVuSans-34"/>
       <use xlink:href="#DejaVuSans-30" x="63.623047"/>
      </g>
     </g>
    </g>
    <g id="ytick_4">
     <g id="line2d_8">
      <g>
       <use xlink:href="#m54f82668b1" x="109.64" y="293.4352" style="stroke: #000000; stroke-width: 0.8"/>
      </g>
     </g>
     <g id="text_9">
      <!-- 60 -->
      <g transform="translate(69.555 303.313169)scale(0.26 -0.26)">
       <defs>
        <path id="DejaVuSans-36" d="M 2113 2584 
Q 1688 2584 1439 2293 
Q 1191 2003 1191 1497 
Q 1191 994 1439 701 
Q 1688 409 2113 409 
Q 2538 409 2786 701 
Q 3034 994 3034 1497 
Q 3034 2003 2786 2293 
Q 2538 2584 2113 2584 
z
M 3366 4563 
L 3366 3988 
Q 3128 4100 2886 4159 
Q 2644 4219 2406 4219 
Q 1781 4219 1451 3797 
Q 1122 3375 1075 2522 
Q 1259 2794 1537 2939 
Q 1816 3084 2150 3084 
Q 2853 3084 3261 2657 
Q 3669 2231 3669 1497 
Q 3669 778 3244 343 
Q 2819 -91 2113 -91 
Q 1303 -91 875 529 
Q 447 1150 447 2328 
Q 447 3434 972 4092 
Q 1497 4750 2381 4750 
Q 2619 4750 2861 4703 
Q 3103 4656 3366 4563 
z
" transform="scale(0.015625)"/>
       </defs>
       <use xlink:href="#DejaVuSans-36"/>
       <use xlink:href="#DejaVuSans-30" x="63.623047"/>
      </g>
     </g>
    </g>
    <g id="ytick_5">
     <g id="line2d_9">
      <g>
       <use xlink:href="#m54f82668b1" x="109.64" y="219.3936" style="stroke: #000000; stroke-width: 0.8"/>
      </g>
     </g>
     <g id="text_10">
      <!-- 80 -->
      <g transform="translate(69.555 229.271569)scale(0.26 -0.26)">
       <defs>
        <path id="DejaVuSans-38" d="M 2034 2216 
Q 1584 2216 1326 1975 
Q 1069 1734 1069 1313 
Q 1069 891 1326 650 
Q 1584 409 2034 409 
Q 2484 409 2743 651 
Q 3003 894 3003 1313 
Q 3003 1734 2745 1975 
Q 2488 2216 2034 2216 
z
M 1403 2484 
Q 997 2584 770 2862 
Q 544 3141 544 3541 
Q 544 4100 942 4425 
Q 1341 4750 2034 4750 
Q 2731 4750 3128 4425 
Q 3525 4100 3525 3541 
Q 3525 3141 3298 2862 
Q 3072 2584 2669 2484 
Q 3125 2378 3379 2068 
Q 3634 1759 3634 1313 
Q 3634 634 3220 271 
Q 2806 -91 2034 -91 
Q 1263 -91 848 271 
Q 434 634 434 1313 
Q 434 1759 690 2068 
Q 947 2378 1403 2484 
z
M 1172 3481 
Q 1172 3119 1398 2916 
Q 1625 2713 2034 2713 
Q 2441 2713 2670 2916 
Q 2900 3119 2900 3481 
Q 2900 3844 2670 4047 
Q 2441 4250 2034 4250 
Q 1625 4250 1398 4047 
Q 1172 3844 1172 3481 
z
" transform="scale(0.015625)"/>
       </defs>
       <use xlink:href="#DejaVuSans-38"/>
       <use xlink:href="#DejaVuSans-30" x="63.623047"/>
      </g>
     </g>
    </g>
    <g id="ytick_6">
     <g id="line2d_10">
      <g>
       <use xlink:href="#m54f82668b1" x="109.64" y="145.352" style="stroke: #000000; stroke-width: 0.8"/>
      </g>
     </g>
     <g id="text_11">
      <!-- 100 -->
      <g transform="translate(53.0125 155.229969)scale(0.26 -0.26)">
       <use xlink:href="#DejaVuSans-31"/>
       <use xlink:href="#DejaVuSans-30" x="63.623047"/>
       <use xlink:href="#DejaVuSans-30" x="127.246094"/>
      </g>
     </g>
    </g>
    <g id="ytick_7">
     <g id="line2d_11">
      <g>
       <use xlink:href="#m54f82668b1" x="109.64" y="71.3104" style="stroke: #000000; stroke-width: 0.8"/>
      </g>
     </g>
     <g id="text_12">
      <!-- 120 -->
      <g transform="translate(53.0125 81.188369)scale(0.26 -0.26)">
       <use xlink:href="#DejaVuSans-31"/>
       <use xlink:href="#DejaVuSans-32" x="63.623047"/>
       <use xlink:href="#DejaVuSans-30" x="127.246094"/>
      </g>
     </g>
    </g>
    <g id="text_13">
     <!-- % of Remaining Glacier Mass -->
     <g transform="translate(44.265313 463.619219)rotate(-90)scale(0.22 -0.22)">
      <defs>
       <path id="DejaVuSans-Bold-25" d="M 4959 1925 
Q 4738 1925 4616 1733 
Q 4494 1541 4494 1184 
Q 4494 825 4614 633 
Q 4734 441 4959 441 
Q 5184 441 5303 633 
Q 5422 825 5422 1184 
Q 5422 1541 5301 1733 
Q 5181 1925 4959 1925 
z
M 4959 2450 
Q 5541 2450 5875 2112 
Q 6209 1775 6209 1184 
Q 6209 594 5875 251 
Q 5541 -91 4959 -91 
Q 4378 -91 4042 251 
Q 3706 594 3706 1184 
Q 3706 1772 4042 2111 
Q 4378 2450 4959 2450 
z
M 2094 -91 
L 1403 -91 
L 4319 4750 
L 5013 4750 
L 2094 -91 
z
M 1453 4750 
Q 2034 4750 2367 4411 
Q 2700 4072 2700 3481 
Q 2700 2891 2367 2550 
Q 2034 2209 1453 2209 
Q 872 2209 539 2550 
Q 206 2891 206 3481 
Q 206 4072 539 4411 
Q 872 4750 1453 4750 
z
M 1453 4225 
Q 1228 4225 1106 4031 
Q 984 3838 984 3481 
Q 984 3122 1106 2926 
Q 1228 2731 1453 2731 
Q 1678 2731 1798 2926 
Q 1919 3122 1919 3481 
Q 1919 3838 1797 4031 
Q 1675 4225 1453 4225 
z
" transform="scale(0.015625)"/>
       <path id="DejaVuSans-Bold-20" transform="scale(0.015625)"/>
       <path id="DejaVuSans-Bold-6f" d="M 2203 2784 
Q 1831 2784 1636 2517 
Q 1441 2250 1441 1747 
Q 1441 1244 1636 976 
Q 1831 709 2203 709 
Q 2569 709 2762 976 
Q 2956 1244 2956 1747 
Q 2956 2250 2762 2517 
Q 2569 2784 2203 2784 
z
M 2203 3584 
Q 3106 3584 3614 3096 
Q 4122 2609 4122 1747 
Q 4122 884 3614 396 
Q 3106 -91 2203 -91 
Q 1297 -91 786 396 
Q 275 884 275 1747 
Q 275 2609 786 3096 
Q 1297 3584 2203 3584 
z
" transform="scale(0.015625)"/>
       <path id="DejaVuSans-Bold-66" d="M 2841 4863 
L 2841 4128 
L 2222 4128 
Q 1984 4128 1890 4042 
Q 1797 3956 1797 3744 
L 1797 3500 
L 2753 3500 
L 2753 2700 
L 1797 2700 
L 1797 0 
L 678 0 
L 678 2700 
L 122 2700 
L 122 3500 
L 678 3500 
L 678 3744 
Q 678 4316 997 4589 
Q 1316 4863 1984 4863 
L 2841 4863 
z
" transform="scale(0.015625)"/>
       <path id="DejaVuSans-Bold-52" d="M 2297 2597 
Q 2675 2597 2839 2737 
Q 3003 2878 3003 3200 
Q 3003 3519 2839 3656 
Q 2675 3794 2297 3794 
L 1791 3794 
L 1791 2597 
L 2297 2597 
z
M 1791 1766 
L 1791 0 
L 588 0 
L 588 4666 
L 2425 4666 
Q 3347 4666 3776 4356 
Q 4206 4047 4206 3378 
Q 4206 2916 3982 2619 
Q 3759 2322 3309 2181 
Q 3556 2125 3751 1926 
Q 3947 1728 4147 1325 
L 4800 0 
L 3519 0 
L 2950 1159 
Q 2778 1509 2601 1637 
Q 2425 1766 2131 1766 
L 1791 1766 
z
" transform="scale(0.015625)"/>
       <path id="DejaVuSans-Bold-6d" d="M 3781 2919 
Q 3994 3244 4286 3414 
Q 4578 3584 4928 3584 
Q 5531 3584 5847 3212 
Q 6163 2841 6163 2131 
L 6163 0 
L 5038 0 
L 5038 1825 
Q 5041 1866 5042 1909 
Q 5044 1953 5044 2034 
Q 5044 2406 4934 2573 
Q 4825 2741 4581 2741 
Q 4263 2741 4089 2478 
Q 3916 2216 3909 1719 
L 3909 0 
L 2784 0 
L 2784 1825 
Q 2784 2406 2684 2573 
Q 2584 2741 2328 2741 
Q 2006 2741 1831 2477 
Q 1656 2213 1656 1722 
L 1656 0 
L 531 0 
L 531 3500 
L 1656 3500 
L 1656 2988 
Q 1863 3284 2130 3434 
Q 2397 3584 2719 3584 
Q 3081 3584 3359 3409 
Q 3638 3234 3781 2919 
z
" transform="scale(0.015625)"/>
       <path id="DejaVuSans-Bold-69" d="M 538 3500 
L 1656 3500 
L 1656 0 
L 538 0 
L 538 3500 
z
M 538 4863 
L 1656 4863 
L 1656 3950 
L 538 3950 
L 538 4863 
z
" transform="scale(0.015625)"/>
       <path id="DejaVuSans-Bold-6e" d="M 4056 2131 
L 4056 0 
L 2931 0 
L 2931 347 
L 2931 1631 
Q 2931 2084 2911 2256 
Q 2891 2428 2841 2509 
Q 2775 2619 2662 2680 
Q 2550 2741 2406 2741 
Q 2056 2741 1856 2470 
Q 1656 2200 1656 1722 
L 1656 0 
L 538 0 
L 538 3500 
L 1656 3500 
L 1656 2988 
Q 1909 3294 2193 3439 
Q 2478 3584 2822 3584 
Q 3428 3584 3742 3212 
Q 4056 2841 4056 2131 
z
" transform="scale(0.015625)"/>
       <path id="DejaVuSans-Bold-67" d="M 2919 594 
Q 2688 288 2409 144 
Q 2131 0 1766 0 
Q 1125 0 706 504 
Q 288 1009 288 1791 
Q 288 2575 706 3076 
Q 1125 3578 1766 3578 
Q 2131 3578 2409 3434 
Q 2688 3291 2919 2981 
L 2919 3500 
L 4044 3500 
L 4044 353 
Q 4044 -491 3511 -936 
Q 2978 -1381 1966 -1381 
Q 1638 -1381 1331 -1331 
Q 1025 -1281 716 -1178 
L 716 -306 
Q 1009 -475 1290 -558 
Q 1572 -641 1856 -641 
Q 2406 -641 2662 -400 
Q 2919 -159 2919 353 
L 2919 594 
z
M 2181 2772 
Q 1834 2772 1640 2515 
Q 1447 2259 1447 1791 
Q 1447 1309 1634 1061 
Q 1822 813 2181 813 
Q 2531 813 2725 1069 
Q 2919 1325 2919 1791 
Q 2919 2259 2725 2515 
Q 2531 2772 2181 2772 
z
" transform="scale(0.015625)"/>
       <path id="DejaVuSans-Bold-47" d="M 4781 347 
Q 4331 128 3847 18 
Q 3363 -91 2847 -91 
Q 1681 -91 1000 561 
Q 319 1213 319 2328 
Q 319 3456 1012 4103 
Q 1706 4750 2913 4750 
Q 3378 4750 3804 4662 
Q 4231 4575 4609 4403 
L 4609 3438 
Q 4219 3659 3833 3768 
Q 3447 3878 3059 3878 
Q 2341 3878 1952 3476 
Q 1563 3075 1563 2328 
Q 1563 1588 1938 1184 
Q 2313 781 3003 781 
Q 3191 781 3352 804 
Q 3513 828 3641 878 
L 3641 1784 
L 2906 1784 
L 2906 2591 
L 4781 2591 
L 4781 347 
z
" transform="scale(0.015625)"/>
       <path id="DejaVuSans-Bold-6c" d="M 538 4863 
L 1656 4863 
L 1656 0 
L 538 0 
L 538 4863 
z
" transform="scale(0.015625)"/>
       <path id="DejaVuSans-Bold-63" d="M 3366 3391 
L 3366 2478 
Q 3138 2634 2908 2709 
Q 2678 2784 2431 2784 
Q 1963 2784 1702 2511 
Q 1441 2238 1441 1747 
Q 1441 1256 1702 982 
Q 1963 709 2431 709 
Q 2694 709 2930 787 
Q 3166 866 3366 1019 
L 3366 103 
Q 3103 6 2833 -42 
Q 2563 -91 2291 -91 
Q 1344 -91 809 395 
Q 275 881 275 1747 
Q 275 2613 809 3098 
Q 1344 3584 2291 3584 
Q 2566 3584 2833 3536 
Q 3100 3488 3366 3391 
z
" transform="scale(0.015625)"/>
       <path id="DejaVuSans-Bold-4d" d="M 588 4666 
L 2119 4666 
L 3181 2169 
L 4250 4666 
L 5778 4666 
L 5778 0 
L 4641 0 
L 4641 3413 
L 3566 897 
L 2803 897 
L 1728 3413 
L 1728 0 
L 588 0 
L 588 4666 
z
" transform="scale(0.015625)"/>
       <path id="DejaVuSans-Bold-73" d="M 3272 3391 
L 3272 2541 
Q 2913 2691 2578 2766 
Q 2244 2841 1947 2841 
Q 1628 2841 1473 2761 
Q 1319 2681 1319 2516 
Q 1319 2381 1436 2309 
Q 1553 2238 1856 2203 
L 2053 2175 
Q 2913 2066 3209 1816 
Q 3506 1566 3506 1031 
Q 3506 472 3093 190 
Q 2681 -91 1863 -91 
Q 1516 -91 1145 -36 
Q 775 19 384 128 
L 384 978 
Q 719 816 1070 734 
Q 1422 653 1784 653 
Q 2113 653 2278 743 
Q 2444 834 2444 1013 
Q 2444 1163 2330 1236 
Q 2216 1309 1875 1350 
L 1678 1375 
Q 931 1469 631 1722 
Q 331 1975 331 2491 
Q 331 3047 712 3315 
Q 1094 3584 1881 3584 
Q 2191 3584 2531 3537 
Q 2872 3491 3272 3391 
z
" transform="scale(0.015625)"/>
      </defs>
      <use xlink:href="#DejaVuSans-Bold-25"/>
      <use xlink:href="#DejaVuSans-Bold-20" x="100.195312"/>
      <use xlink:href="#DejaVuSans-Bold-6f" x="135.009766"/>
      <use xlink:href="#DejaVuSans-Bold-66" x="203.710938"/>
      <use xlink:href="#DejaVuSans-Bold-20" x="247.216797"/>
      <use xlink:href="#DejaVuSans-Bold-52" x="282.03125"/>
      <use xlink:href="#DejaVuSans-Bold-65" x="359.033203"/>
      <use xlink:href="#DejaVuSans-Bold-6d" x="426.855469"/>
      <use xlink:href="#DejaVuSans-Bold-61" x="531.054688"/>
      <use xlink:href="#DejaVuSans-Bold-69" x="598.535156"/>
      <use xlink:href="#DejaVuSans-Bold-6e" x="632.8125"/>
      <use xlink:href="#DejaVuSans-Bold-69" x="704.003906"/>
      <use xlink:href="#DejaVuSans-Bold-6e" x="738.28125"/>
      <use xlink:href="#DejaVuSans-Bold-67" x="809.472656"/>
      <use xlink:href="#DejaVuSans-Bold-20" x="881.054688"/>
      <use xlink:href="#DejaVuSans-Bold-47" x="915.869141"/>
      <use xlink:href="#DejaVuSans-Bold-6c" x="997.949219"/>
      <use xlink:href="#DejaVuSans-Bold-61" x="1032.226562"/>
      <use xlink:href="#DejaVuSans-Bold-63" x="1099.707031"/>
      <use xlink:href="#DejaVuSans-Bold-69" x="1158.984375"/>
      <use xlink:href="#DejaVuSans-Bold-65" x="1193.261719"/>
      <use xlink:href="#DejaVuSans-Bold-72" x="1261.083984"/>
      <use xlink:href="#DejaVuSans-Bold-20" x="1310.400391"/>
      <use xlink:href="#DejaVuSans-Bold-4d" x="1345.214844"/>
      <use xlink:href="#DejaVuSans-Bold-61" x="1444.726562"/>
      <use xlink:href="#DejaVuSans-Bold-73" x="1512.207031"/>
      <use xlink:href="#DejaVuSans-Bold-73" x="1571.728516"/>
     </g>
    </g>
   </g>
   <g id="line2d_12">
    <path d="M 167.276938 147.909601 
L 174.481555 155.21526 
L 181.686172 162.070304 
L 186.48925 166.486355 
L 191.292329 170.65942 
L 196.095407 174.481881 
L 203.300024 179.930766 
L 208.103102 183.806553 
L 220.110798 193.990794 
L 229.716954 201.767715 
L 234.520032 205.324104 
L 248.929267 215.47927 
L 256.133884 220.25311 
L 272.944657 231.073251 
L 284.952353 238.671029 
L 296.960048 246.597594 
L 301.763126 249.414077 
L 306.566204 251.94197 
L 311.369283 254.202168 
L 316.172361 256.245286 
L 323.376978 259.040614 
L 330.581595 261.60097 
L 335.384673 263.331372 
L 340.187751 264.679606 
L 352.195447 267.617508 
L 359.400064 269.795502 
L 366.604681 272.143894 
L 378.612377 276.190093 
L 390.620072 280.029506 
L 395.42315 281.616235 
L 400.226228 282.950847 
L 409.832385 285.083926 
L 431.446236 289.432551 
L 436.249315 290.097745 
L 448.25701 291.126383 
L 453.060088 291.256199 
L 469.870862 291.442238 
L 477.075479 291.544547 
L 484.280096 291.564886 
L 491.484713 291.852479 
L 496.287792 292.248771 
L 501.09087 292.778785 
L 508.295487 293.490555 
L 510.697026 293.813887 
L 522.704721 294.89736 
L 525.10626 295.178942 
L 537.113956 297.182278 
L 541.917034 297.785413 
L 549.121651 298.504919 
L 556.326268 299.395675 
L 568.333964 300.314079 
L 575.538581 300.348444 
L 589.947816 299.954781 
L 601.955511 299.891503 
L 606.758589 299.683174 
L 623.569363 298.413271 
L 642.781675 297.125616 
L 654.789371 296.622617 
L 664.395527 296.594844 
L 671.600144 296.607445 
L 674.001683 296.624074 
L 690.812457 295.848549 
L 695.615535 295.425962 
L 702.820152 294.905511 
L 710.024769 294.468832 
L 726.835543 293.713892 
L 731.638621 293.43751 
L 741.244777 292.837053 
L 750.850934 292.698528 
L 758.055551 292.314107 
L 765.260168 291.793026 
L 772.464786 291.374655 
L 777.267864 291.221133 
L 784.472481 291.11654 
L 789.275559 291.116089 
L 794.078637 290.987801 
L 806.086333 290.172741 
L 820.495567 289.533848 
L 827.700184 289.482826 
L 834.904802 289.258091 
L 837.306341 289.063402 
L 837.306341 289.063402 
" clip-path="url(#p23e665a6de)" style="fill: none; stroke: #74b8f8; stroke-opacity: 0.5; stroke-width: 6; stroke-linecap: square"/>
   </g>
   <g id="line2d_13">
    <path d="M 116.844617 109.275535 
L 119.246156 110.175451 
L 121.647695 111.086783 
L 124.049234 112.087594 
L 126.450774 113.217671 
L 128.852313 114.381811 
L 131.253852 115.527907 
L 133.655391 116.662851 
L 136.05693 117.859477 
L 138.458469 119.078737 
L 140.860008 120.334364 
L 143.261547 122.482546 
L 145.663086 124.824848 
L 148.064625 127.287199 
L 150.466164 129.833012 
L 152.867703 132.426145 
L 155.269242 134.999617 
L 157.670782 137.614702 
L 160.072321 140.166729 
L 162.47386 142.737483 
L 164.875399 145.352 
" clip-path="url(#p23e665a6de)" style="fill: none; stroke: #000000; stroke-opacity: 0.5; stroke-width: 6; stroke-linecap: square"/>
   </g>
   <g id="line2d_14">
    <path d="M 167.276938 147.81053 
L 172.080016 152.773342 
L 176.883094 157.526911 
L 179.284633 160.411275 
L 191.292329 173.699756 
L 203.300024 187.277409 
L 208.103102 192.205548 
L 222.512337 208.357659 
L 227.315415 213.373918 
L 229.716954 215.729437 
L 234.520032 219.780411 
L 239.32311 223.564157 
L 244.126188 227.303326 
L 248.929267 231.493187 
L 253.732345 235.513283 
L 268.141579 247.716503 
L 275.346196 252.963802 
L 282.550814 258.47275 
L 304.164665 274.201283 
L 311.369283 279.210855 
L 316.172361 282.121492 
L 323.376978 286.115619 
L 328.180056 288.494166 
L 337.786212 292.753069 
L 342.589291 294.443209 
L 347.392369 295.944211 
L 352.195447 297.259964 
L 356.998525 298.576244 
L 371.407759 303.120045 
L 378.612377 305.200438 
L 385.816994 307.191729 
L 395.42315 309.9628 
L 400.226228 311.309912 
L 405.029307 313.006351 
L 412.233924 315.345919 
L 419.438541 317.598991 
L 426.643158 319.541935 
L 433.847776 321.479887 
L 441.052393 323.110829 
L 445.855471 323.917005 
L 457.863166 325.216951 
L 462.666244 325.533806 
L 469.870862 326.815819 
L 477.075479 327.807209 
L 481.878557 328.333674 
L 486.681635 328.652386 
L 493.886252 328.918878 
L 496.287792 329.262178 
L 505.893948 331.095555 
L 508.295487 331.358828 
L 520.303182 331.961251 
L 525.10626 332.05105 
L 532.310878 331.981888 
L 546.720112 331.304049 
L 551.52319 330.823654 
L 553.924729 330.813805 
L 563.530886 331.505751 
L 582.743198 333.101848 
L 592.349355 334.070212 
L 609.160128 335.326483 
L 621.167824 335.812752 
L 633.175519 336.350752 
L 640.380136 336.68474 
L 645.183214 336.657756 
L 652.387832 336.296011 
L 659.592449 336.027078 
L 669.198605 335.880708 
L 674.001683 336.088074 
L 688.410918 336.818162 
L 707.62323 337.632804 
L 714.827848 338.038345 
L 722.032465 338.183272 
L 726.835543 338.134788 
L 734.04016 337.876889 
L 746.047856 337.353392 
L 760.45709 337.14195 
L 772.464786 336.846285 
L 786.87402 337.371964 
L 794.078637 337.640927 
L 806.086333 337.477095 
L 813.29095 337.416275 
L 820.495567 337.383237 
L 834.904802 337.171893 
L 837.306341 337.15394 
L 837.306341 337.15394 
" clip-path="url(#p23e665a6de)" style="fill: none; stroke: #f47100; stroke-opacity: 0.5; stroke-width: 6; stroke-linecap: square"/>
   </g>
   <g id="line2d_15">
    <path d="M 116.844617 113.765144 
L 119.246156 114.647694 
L 121.647695 115.468254 
L 124.049234 116.408984 
L 126.450774 117.353532 
L 128.852313 118.353395 
L 131.253852 119.2368 
L 133.655391 120.129188 
L 136.05693 121.15774 
L 138.458469 122.193127 
L 140.860008 123.292421 
L 143.261547 125.095781 
L 145.663086 127.049708 
L 148.064625 129.081246 
L 150.466164 131.263018 
L 152.867703 133.564746 
L 155.269242 135.822719 
L 157.670782 138.203998 
L 160.072321 140.569689 
L 162.47386 142.988937 
L 164.875399 145.352 
" clip-path="url(#p23e665a6de)" style="fill: none; stroke: #000000; stroke-opacity: 0.5; stroke-width: 6; stroke-linecap: square"/>
   </g>
   <g id="line2d_16">
    <path d="M 167.276938 147.86427 
L 174.481555 155.554005 
L 179.284633 161.114648 
L 193.693868 178.789257 
L 208.103102 196.777238 
L 224.913876 216.720262 
L 234.520032 227.732674 
L 244.126188 239.227712 
L 251.330806 247.304131 
L 256.133884 252.253662 
L 263.338501 259.270577 
L 272.944657 268.629056 
L 280.149275 275.724312 
L 294.558509 289.56952 
L 301.763126 296.368835 
L 318.5739 312.695621 
L 323.376978 316.836894 
L 332.983134 324.568359 
L 337.786212 327.492455 
L 347.392369 333.80094 
L 352.195447 336.227216 
L 361.801603 340.27453 
L 369.00622 342.519041 
L 376.210838 345.069299 
L 381.013916 346.45873 
L 383.415455 347.095429 
L 388.218533 347.961734 
L 395.42315 349.006255 
L 405.029307 350.623752 
L 419.438541 352.177532 
L 424.241619 353.503082 
L 431.446236 355.754982 
L 438.650854 358.501289 
L 445.855471 361.270301 
L 467.469323 368.773818 
L 486.681635 374.697214 
L 493.886252 376.824251 
L 515.500104 383.440767 
L 534.712417 389.262175 
L 549.121651 393.669417 
L 556.326268 395.680352 
L 561.129347 396.877172 
L 577.94012 400.695497 
L 585.144737 402.22746 
L 599.553972 405.073306 
L 621.167824 409.562304 
L 659.592449 416.824704 
L 669.198605 418.266467 
L 686.009379 420.583471 
L 698.017074 421.932578 
L 710.024769 423.269382 
L 741.244777 426.710485 
L 750.850934 427.55478 
L 779.669403 429.652851 
L 796.480176 430.713863 
L 803.684794 431.355649 
L 818.094028 432.795238 
L 832.503262 433.525103 
L 837.306341 433.869676 
L 837.306341 433.869676 
" clip-path="url(#p23e665a6de)" style="fill: none; stroke: #d01e04; stroke-opacity: 0.5; stroke-width: 6; stroke-linecap: square"/>
   </g>
   <g id="line2d_17">
    <path d="M 116.844617 113.179712 
L 119.246156 114.063533 
L 121.647695 114.885273 
L 124.049234 115.82736 
L 126.450774 116.77327 
L 128.852313 117.774572 
L 131.253852 118.659245 
L 133.655391 119.552914 
L 136.05693 120.582948 
L 138.458469 121.619827 
L 140.860008 122.720707 
L 143.261547 124.55345 
L 145.663086 126.723196 
L 148.064625 128.870546 
L 150.466164 131.105757 
L 152.867703 133.398424 
L 155.269242 135.698202 
L 157.670782 137.963182 
L 160.072321 140.354866 
L 162.47386 142.855441 
L 164.875399 145.352 
" clip-path="url(#p23e665a6de)" style="fill: none; stroke: #000000; stroke-opacity: 0.5; stroke-width: 6; stroke-linecap: square"/>
   </g>
   <g id="patch_3">
    <path d="M 109.64 515.56 
L 109.64 52.8 
" style="fill: none; stroke: #000000; stroke-width: 0.8; stroke-linejoin: miter; stroke-linecap: square"/>
   </g>
   <g id="patch_4">
    <path d="M 109.64 515.56 
L 858.920192 515.56 
" style="fill: none; stroke: #000000; stroke-width: 0.8; stroke-linejoin: miter; stroke-linecap: square"/>
   </g>
   <g id="text_14">
    <!-- Southern Andes -->
    <g transform="translate(376.096346 46.8)scale(0.24 -0.24)">
     <defs>
      <path id="DejaVuSans-Bold-53" d="M 3834 4519 
L 3834 3531 
Q 3450 3703 3084 3790 
Q 2719 3878 2394 3878 
Q 1963 3878 1756 3759 
Q 1550 3641 1550 3391 
Q 1550 3203 1689 3098 
Q 1828 2994 2194 2919 
L 2706 2816 
Q 3484 2659 3812 2340 
Q 4141 2022 4141 1434 
Q 4141 663 3683 286 
Q 3225 -91 2284 -91 
Q 1841 -91 1394 -6 
Q 947 78 500 244 
L 500 1259 
Q 947 1022 1364 901 
Q 1781 781 2169 781 
Q 2563 781 2772 912 
Q 2981 1044 2981 1288 
Q 2981 1506 2839 1625 
Q 2697 1744 2272 1838 
L 1806 1941 
Q 1106 2091 782 2419 
Q 459 2747 459 3303 
Q 459 4000 909 4375 
Q 1359 4750 2203 4750 
Q 2588 4750 2994 4692 
Q 3400 4634 3834 4519 
z
" transform="scale(0.015625)"/>
      <path id="DejaVuSans-Bold-75" d="M 500 1363 
L 500 3500 
L 1625 3500 
L 1625 3150 
Q 1625 2866 1622 2436 
Q 1619 2006 1619 1863 
Q 1619 1441 1641 1255 
Q 1663 1069 1716 984 
Q 1784 875 1895 815 
Q 2006 756 2150 756 
Q 2500 756 2700 1025 
Q 2900 1294 2900 1772 
L 2900 3500 
L 4019 3500 
L 4019 0 
L 2900 0 
L 2900 506 
Q 2647 200 2364 54 
Q 2081 -91 1741 -91 
Q 1134 -91 817 281 
Q 500 653 500 1363 
z
" transform="scale(0.015625)"/>
      <path id="DejaVuSans-Bold-74" d="M 1759 4494 
L 1759 3500 
L 2913 3500 
L 2913 2700 
L 1759 2700 
L 1759 1216 
Q 1759 972 1856 886 
Q 1953 800 2241 800 
L 2816 800 
L 2816 0 
L 1856 0 
Q 1194 0 917 276 
Q 641 553 641 1216 
L 641 2700 
L 84 2700 
L 84 3500 
L 641 3500 
L 641 4494 
L 1759 4494 
z
" transform="scale(0.015625)"/>
      <path id="DejaVuSans-Bold-68" d="M 4056 2131 
L 4056 0 
L 2931 0 
L 2931 347 
L 2931 1625 
Q 2931 2084 2911 2256 
Q 2891 2428 2841 2509 
Q 2775 2619 2662 2680 
Q 2550 2741 2406 2741 
Q 2056 2741 1856 2470 
Q 1656 2200 1656 1722 
L 1656 0 
L 538 0 
L 538 4863 
L 1656 4863 
L 1656 2988 
Q 1909 3294 2193 3439 
Q 2478 3584 2822 3584 
Q 3428 3584 3742 3212 
Q 4056 2841 4056 2131 
z
" transform="scale(0.015625)"/>
      <path id="DejaVuSans-Bold-41" d="M 3419 850 
L 1538 850 
L 1241 0 
L 31 0 
L 1759 4666 
L 3194 4666 
L 4922 0 
L 3713 0 
L 3419 850 
z
M 1838 1716 
L 3116 1716 
L 2478 3572 
L 1838 1716 
z
" transform="scale(0.015625)"/>
      <path id="DejaVuSans-Bold-64" d="M 2919 2988 
L 2919 4863 
L 4044 4863 
L 4044 0 
L 2919 0 
L 2919 506 
Q 2688 197 2409 53 
Q 2131 -91 1766 -91 
Q 1119 -91 703 423 
Q 288 938 288 1747 
Q 288 2556 703 3070 
Q 1119 3584 1766 3584 
Q 2128 3584 2408 3439 
Q 2688 3294 2919 2988 
z
M 2181 722 
Q 2541 722 2730 984 
Q 2919 1247 2919 1747 
Q 2919 2247 2730 2509 
Q 2541 2772 2181 2772 
Q 1825 2772 1636 2509 
Q 1447 2247 1447 1747 
Q 1447 1247 1636 984 
Q 1825 722 2181 722 
z
" transform="scale(0.015625)"/>
     </defs>
     <use xlink:href="#DejaVuSans-Bold-53"/>
     <use xlink:href="#DejaVuSans-Bold-6f" x="72.021484"/>
     <use xlink:href="#DejaVuSans-Bold-75" x="140.722656"/>
     <use xlink:href="#DejaVuSans-Bold-74" x="211.914062"/>
     <use xlink:href="#DejaVuSans-Bold-68" x="259.716797"/>
     <use xlink:href="#DejaVuSans-Bold-65" x="330.908203"/>
     <use xlink:href="#DejaVuSans-Bold-72" x="398.730469"/>
     <use xlink:href="#DejaVuSans-Bold-6e" x="448.046875"/>
     <use xlink:href="#DejaVuSans-Bold-20" x="519.238281"/>
     <use xlink:href="#DejaVuSans-Bold-41" x="554.052734"/>
     <use xlink:href="#DejaVuSans-Bold-6e" x="631.445312"/>
     <use xlink:href="#DejaVuSans-Bold-64" x="702.636719"/>
     <use xlink:href="#DejaVuSans-Bold-65" x="774.21875"/>
     <use xlink:href="#DejaVuSans-Bold-73" x="842.041016"/>
    </g>
   </g>
   <g id="legend_1">
    <g id="patch_5">
     <path d="M 597.903942 225.737875 
L 843.520192 225.737875 
Q 847.920192 225.737875 847.920192 221.337875 
L 847.920192 68.2 
Q 847.920192 63.8 843.520192 63.8 
L 597.903942 63.8 
Q 593.503942 63.8 593.503942 68.2 
L 593.503942 221.337875 
Q 593.503942 225.737875 597.903942 225.737875 
z
" style="fill: #ffffff; opacity: 0.6; stroke: #cccccc; stroke-linejoin: miter"/>
    </g>
    <g id="text_15">
     <!-- Global mean -->
     <g transform="translate(602.303942 89.316563)scale(0.22 -0.22)">
      <defs>
       <path id="DejaVuSans-47" d="M 3809 666 
L 3809 1919 
L 2778 1919 
L 2778 2438 
L 4434 2438 
L 4434 434 
Q 4069 175 3628 42 
Q 3188 -91 2688 -91 
Q 1594 -91 976 548 
Q 359 1188 359 2328 
Q 359 3472 976 4111 
Q 1594 4750 2688 4750 
Q 3144 4750 3555 4637 
Q 3966 4525 4313 4306 
L 4313 3634 
Q 3963 3931 3569 4081 
Q 3175 4231 2741 4231 
Q 1884 4231 1454 3753 
Q 1025 3275 1025 2328 
Q 1025 1384 1454 906 
Q 1884 428 2741 428 
Q 3075 428 3337 486 
Q 3600 544 3809 666 
z
" transform="scale(0.015625)"/>
       <path id="DejaVuSans-6c" d="M 603 4863 
L 1178 4863 
L 1178 0 
L 603 0 
L 603 4863 
z
" transform="scale(0.015625)"/>
       <path id="DejaVuSans-6f" d="M 1959 3097 
Q 1497 3097 1228 2736 
Q 959 2375 959 1747 
Q 959 1119 1226 758 
Q 1494 397 1959 397 
Q 2419 397 2687 759 
Q 2956 1122 2956 1747 
Q 2956 2369 2687 2733 
Q 2419 3097 1959 3097 
z
M 1959 3584 
Q 2709 3584 3137 3096 
Q 3566 2609 3566 1747 
Q 3566 888 3137 398 
Q 2709 -91 1959 -91 
Q 1206 -91 779 398 
Q 353 888 353 1747 
Q 353 2609 779 3096 
Q 1206 3584 1959 3584 
z
" transform="scale(0.015625)"/>
       <path id="DejaVuSans-62" d="M 3116 1747 
Q 3116 2381 2855 2742 
Q 2594 3103 2138 3103 
Q 1681 3103 1420 2742 
Q 1159 2381 1159 1747 
Q 1159 1113 1420 752 
Q 1681 391 2138 391 
Q 2594 391 2855 752 
Q 3116 1113 3116 1747 
z
M 1159 2969 
Q 1341 3281 1617 3432 
Q 1894 3584 2278 3584 
Q 2916 3584 3314 3078 
Q 3713 2572 3713 1747 
Q 3713 922 3314 415 
Q 2916 -91 2278 -91 
Q 1894 -91 1617 61 
Q 1341 213 1159 525 
L 1159 0 
L 581 0 
L 581 4863 
L 1159 4863 
L 1159 2969 
z
" transform="scale(0.015625)"/>
       <path id="DejaVuSans-61" d="M 2194 1759 
Q 1497 1759 1228 1600 
Q 959 1441 959 1056 
Q 959 750 1161 570 
Q 1363 391 1709 391 
Q 2188 391 2477 730 
Q 2766 1069 2766 1631 
L 2766 1759 
L 2194 1759 
z
M 3341 1997 
L 3341 0 
L 2766 0 
L 2766 531 
Q 2569 213 2275 61 
Q 1981 -91 1556 -91 
Q 1019 -91 701 211 
Q 384 513 384 1019 
Q 384 1609 779 1909 
Q 1175 2209 1959 2209 
L 2766 2209 
L 2766 2266 
Q 2766 2663 2505 2880 
Q 2244 3097 1772 3097 
Q 1472 3097 1187 3025 
Q 903 2953 641 2809 
L 641 3341 
Q 956 3463 1253 3523 
Q 1550 3584 1831 3584 
Q 2591 3584 2966 3190 
Q 3341 2797 3341 1997 
z
" transform="scale(0.015625)"/>
       <path id="DejaVuSans-20" transform="scale(0.015625)"/>
       <path id="DejaVuSans-6d" d="M 3328 2828 
Q 3544 3216 3844 3400 
Q 4144 3584 4550 3584 
Q 5097 3584 5394 3201 
Q 5691 2819 5691 2113 
L 5691 0 
L 5113 0 
L 5113 2094 
Q 5113 2597 4934 2840 
Q 4756 3084 4391 3084 
Q 3944 3084 3684 2787 
Q 3425 2491 3425 1978 
L 3425 0 
L 2847 0 
L 2847 2094 
Q 2847 2600 2669 2842 
Q 2491 3084 2119 3084 
Q 1678 3084 1418 2786 
Q 1159 2488 1159 1978 
L 1159 0 
L 581 0 
L 581 3500 
L 1159 3500 
L 1159 2956 
Q 1356 3278 1631 3431 
Q 1906 3584 2284 3584 
Q 2666 3584 2933 3390 
Q 3200 3197 3328 2828 
z
" transform="scale(0.015625)"/>
       <path id="DejaVuSans-65" d="M 3597 1894 
L 3597 1613 
L 953 1613 
Q 991 1019 1311 708 
Q 1631 397 2203 397 
Q 2534 397 2845 478 
Q 3156 559 3463 722 
L 3463 178 
Q 3153 47 2828 -22 
Q 2503 -91 2169 -91 
Q 1331 -91 842 396 
Q 353 884 353 1716 
Q 353 2575 817 3079 
Q 1281 3584 2069 3584 
Q 2775 3584 3186 3129 
Q 3597 2675 3597 1894 
z
M 3022 2063 
Q 3016 2534 2758 2815 
Q 2500 3097 2075 3097 
Q 1594 3097 1305 2825 
Q 1016 2553 972 2059 
L 3022 2063 
z
" transform="scale(0.015625)"/>
       <path id="DejaVuSans-6e" d="M 3513 2113 
L 3513 0 
L 2938 0 
L 2938 2094 
Q 2938 2591 2744 2837 
Q 2550 3084 2163 3084 
Q 1697 3084 1428 2787 
Q 1159 2491 1159 1978 
L 1159 0 
L 581 0 
L 581 3500 
L 1159 3500 
L 1159 2956 
Q 1366 3272 1645 3428 
Q 1925 3584 2291 3584 
Q 2894 3584 3203 3211 
Q 3513 2838 3513 2113 
z
" transform="scale(0.015625)"/>
      </defs>
      <use xlink:href="#DejaVuSans-47"/>
      <use xlink:href="#DejaVuSans-6c" x="77.490234"/>
      <use xlink:href="#DejaVuSans-6f" x="105.273438"/>
      <use xlink:href="#DejaVuSans-62" x="166.455078"/>
      <use xlink:href="#DejaVuSans-61" x="229.931641"/>
      <use xlink:href="#DejaVuSans-6c" x="291.210938"/>
      <use xlink:href="#DejaVuSans-20" x="318.994141"/>
      <use xlink:href="#DejaVuSans-6d" x="350.78125"/>
      <use xlink:href="#DejaVuSans-65" x="448.193359"/>
      <use xlink:href="#DejaVuSans-61" x="509.716797"/>
      <use xlink:href="#DejaVuSans-6e" x="570.996094"/>
     </g>
     <!-- temperature above -->
     <g transform="translate(602.303942 113.95175)scale(0.22 -0.22)">
      <defs>
       <path id="DejaVuSans-74" d="M 1172 4494 
L 1172 3500 
L 2356 3500 
L 2356 3053 
L 1172 3053 
L 1172 1153 
Q 1172 725 1289 603 
Q 1406 481 1766 481 
L 2356 481 
L 2356 0 
L 1766 0 
Q 1100 0 847 248 
Q 594 497 594 1153 
L 594 3053 
L 172 3053 
L 172 3500 
L 594 3500 
L 594 4494 
L 1172 4494 
z
" transform="scale(0.015625)"/>
       <path id="DejaVuSans-70" d="M 1159 525 
L 1159 -1331 
L 581 -1331 
L 581 3500 
L 1159 3500 
L 1159 2969 
Q 1341 3281 1617 3432 
Q 1894 3584 2278 3584 
Q 2916 3584 3314 3078 
Q 3713 2572 3713 1747 
Q 3713 922 3314 415 
Q 2916 -91 2278 -91 
Q 1894 -91 1617 61 
Q 1341 213 1159 525 
z
M 3116 1747 
Q 3116 2381 2855 2742 
Q 2594 3103 2138 3103 
Q 1681 3103 1420 2742 
Q 1159 2381 1159 1747 
Q 1159 1113 1420 752 
Q 1681 391 2138 391 
Q 2594 391 2855 752 
Q 3116 1113 3116 1747 
z
" transform="scale(0.015625)"/>
       <path id="DejaVuSans-72" d="M 2631 2963 
Q 2534 3019 2420 3045 
Q 2306 3072 2169 3072 
Q 1681 3072 1420 2755 
Q 1159 2438 1159 1844 
L 1159 0 
L 581 0 
L 581 3500 
L 1159 3500 
L 1159 2956 
Q 1341 3275 1631 3429 
Q 1922 3584 2338 3584 
Q 2397 3584 2469 3576 
Q 2541 3569 2628 3553 
L 2631 2963 
z
" transform="scale(0.015625)"/>
       <path id="DejaVuSans-75" d="M 544 1381 
L 544 3500 
L 1119 3500 
L 1119 1403 
Q 1119 906 1312 657 
Q 1506 409 1894 409 
Q 2359 409 2629 706 
Q 2900 1003 2900 1516 
L 2900 3500 
L 3475 3500 
L 3475 0 
L 2900 0 
L 2900 538 
Q 2691 219 2414 64 
Q 2138 -91 1772 -91 
Q 1169 -91 856 284 
Q 544 659 544 1381 
z
M 1991 3584 
L 1991 3584 
z
" transform="scale(0.015625)"/>
       <path id="DejaVuSans-76" d="M 191 3500 
L 800 3500 
L 1894 563 
L 2988 3500 
L 3597 3500 
L 2284 0 
L 1503 0 
L 191 3500 
z
" transform="scale(0.015625)"/>
      </defs>
      <use xlink:href="#DejaVuSans-74"/>
      <use xlink:href="#DejaVuSans-65" x="39.208984"/>
      <use xlink:href="#DejaVuSans-6d" x="100.732422"/>
      <use xlink:href="#DejaVuSans-70" x="198.144531"/>
      <use xlink:href="#DejaVuSans-65" x="261.621094"/>
      <use xlink:href="#DejaVuSans-72" x="323.144531"/>
      <use xlink:href="#DejaVuSans-61" x="364.257812"/>
      <use xlink:href="#DejaVuSans-74" x="425.537109"/>
      <use xlink:href="#DejaVuSans-75" x="464.746094"/>
      <use xlink:href="#DejaVuSans-72" x="528.125"/>
      <use xlink:href="#DejaVuSans-65" x="566.988281"/>
      <use xlink:href="#DejaVuSans-20" x="628.511719"/>
      <use xlink:href="#DejaVuSans-61" x="660.298828"/>
      <use xlink:href="#DejaVuSans-62" x="721.578125"/>
      <use xlink:href="#DejaVuSans-6f" x="785.054688"/>
      <use xlink:href="#DejaVuSans-76" x="846.236328"/>
      <use xlink:href="#DejaVuSans-65" x="905.416016"/>
     </g>
     <!-- pre-industrial in 2100 -->
     <g transform="translate(602.303942 138.586938)scale(0.22 -0.22)">
      <defs>
       <path id="DejaVuSans-2d" d="M 313 2009 
L 1997 2009 
L 1997 1497 
L 313 1497 
L 313 2009 
z
" transform="scale(0.015625)"/>
       <path id="DejaVuSans-69" d="M 603 3500 
L 1178 3500 
L 1178 0 
L 603 0 
L 603 3500 
z
M 603 4863 
L 1178 4863 
L 1178 4134 
L 603 4134 
L 603 4863 
z
" transform="scale(0.015625)"/>
       <path id="DejaVuSans-64" d="M 2906 2969 
L 2906 4863 
L 3481 4863 
L 3481 0 
L 2906 0 
L 2906 525 
Q 2725 213 2448 61 
Q 2172 -91 1784 -91 
Q 1150 -91 751 415 
Q 353 922 353 1747 
Q 353 2572 751 3078 
Q 1150 3584 1784 3584 
Q 2172 3584 2448 3432 
Q 2725 3281 2906 2969 
z
M 947 1747 
Q 947 1113 1208 752 
Q 1469 391 1925 391 
Q 2381 391 2643 752 
Q 2906 1113 2906 1747 
Q 2906 2381 2643 2742 
Q 2381 3103 1925 3103 
Q 1469 3103 1208 2742 
Q 947 2381 947 1747 
z
" transform="scale(0.015625)"/>
       <path id="DejaVuSans-73" d="M 2834 3397 
L 2834 2853 
Q 2591 2978 2328 3040 
Q 2066 3103 1784 3103 
Q 1356 3103 1142 2972 
Q 928 2841 928 2578 
Q 928 2378 1081 2264 
Q 1234 2150 1697 2047 
L 1894 2003 
Q 2506 1872 2764 1633 
Q 3022 1394 3022 966 
Q 3022 478 2636 193 
Q 2250 -91 1575 -91 
Q 1294 -91 989 -36 
Q 684 19 347 128 
L 347 722 
Q 666 556 975 473 
Q 1284 391 1588 391 
Q 1994 391 2212 530 
Q 2431 669 2431 922 
Q 2431 1156 2273 1281 
Q 2116 1406 1581 1522 
L 1381 1569 
Q 847 1681 609 1914 
Q 372 2147 372 2553 
Q 372 3047 722 3315 
Q 1072 3584 1716 3584 
Q 2034 3584 2315 3537 
Q 2597 3491 2834 3397 
z
" transform="scale(0.015625)"/>
      </defs>
      <use xlink:href="#DejaVuSans-70"/>
      <use xlink:href="#DejaVuSans-72" x="63.476562"/>
      <use xlink:href="#DejaVuSans-65" x="102.339844"/>
      <use xlink:href="#DejaVuSans-2d" x="163.863281"/>
      <use xlink:href="#DejaVuSans-69" x="199.947266"/>
      <use xlink:href="#DejaVuSans-6e" x="227.730469"/>
      <use xlink:href="#DejaVuSans-64" x="291.109375"/>
      <use xlink:href="#DejaVuSans-75" x="354.585938"/>
      <use xlink:href="#DejaVuSans-73" x="417.964844"/>
      <use xlink:href="#DejaVuSans-74" x="470.064453"/>
      <use xlink:href="#DejaVuSans-72" x="509.273438"/>
      <use xlink:href="#DejaVuSans-69" x="550.386719"/>
      <use xlink:href="#DejaVuSans-61" x="578.169922"/>
      <use xlink:href="#DejaVuSans-6c" x="639.449219"/>
      <use xlink:href="#DejaVuSans-20" x="667.232422"/>
      <use xlink:href="#DejaVuSans-69" x="699.019531"/>
      <use xlink:href="#DejaVuSans-6e" x="726.802734"/>
      <use xlink:href="#DejaVuSans-20" x="790.181641"/>
      <use xlink:href="#DejaVuSans-32" x="821.96875"/>
      <use xlink:href="#DejaVuSans-31" x="885.591797"/>
      <use xlink:href="#DejaVuSans-30" x="949.214844"/>
      <use xlink:href="#DejaVuSans-30" x="1012.837891"/>
     </g>
    </g>
    <g id="line2d_18">
     <path d="M 616.971755 155.478813 
L 638.971755 155.478813 
L 660.971755 155.478813 
" style="fill: none; stroke: #74b8f8; stroke-opacity: 0.5; stroke-width: 6; stroke-linecap: square"/>
    </g>
    <g id="text_16">
     <!-- 1.5C (n=2) -->
     <g transform="translate(678.571755 163.178813)scale(0.22 -0.22)">
      <defs>
       <path id="DejaVuSans-2e" d="M 684 794 
L 1344 794 
L 1344 0 
L 684 0 
L 684 794 
z
" transform="scale(0.015625)"/>
       <path id="DejaVuSans-35" d="M 691 4666 
L 3169 4666 
L 3169 4134 
L 1269 4134 
L 1269 2991 
Q 1406 3038 1543 3061 
Q 1681 3084 1819 3084 
Q 2600 3084 3056 2656 
Q 3513 2228 3513 1497 
Q 3513 744 3044 326 
Q 2575 -91 1722 -91 
Q 1428 -91 1123 -41 
Q 819 9 494 109 
L 494 744 
Q 775 591 1075 516 
Q 1375 441 1709 441 
Q 2250 441 2565 725 
Q 2881 1009 2881 1497 
Q 2881 1984 2565 2268 
Q 2250 2553 1709 2553 
Q 1456 2553 1204 2497 
Q 953 2441 691 2322 
L 691 4666 
z
" transform="scale(0.015625)"/>
       <path id="DejaVuSans-b0" d="M 1600 4347 
Q 1350 4347 1178 4173 
Q 1006 4000 1006 3750 
Q 1006 3503 1178 3333 
Q 1350 3163 1600 3163 
Q 1850 3163 2022 3333 
Q 2194 3503 2194 3750 
Q 2194 3997 2020 4172 
Q 1847 4347 1600 4347 
z
M 1600 4750 
Q 1800 4750 1984 4673 
Q 2169 4597 2303 4453 
Q 2447 4313 2519 4134 
Q 2591 3956 2591 3750 
Q 2591 3338 2302 3052 
Q 2013 2766 1594 2766 
Q 1172 2766 890 3047 
Q 609 3328 609 3750 
Q 609 4169 896 4459 
Q 1184 4750 1600 4750 
z
" transform="scale(0.015625)"/>
       <path id="DejaVuSans-43" d="M 4122 4306 
L 4122 3641 
Q 3803 3938 3442 4084 
Q 3081 4231 2675 4231 
Q 1875 4231 1450 3742 
Q 1025 3253 1025 2328 
Q 1025 1406 1450 917 
Q 1875 428 2675 428 
Q 3081 428 3442 575 
Q 3803 722 4122 1019 
L 4122 359 
Q 3791 134 3420 21 
Q 3050 -91 2638 -91 
Q 1578 -91 968 557 
Q 359 1206 359 2328 
Q 359 3453 968 4101 
Q 1578 4750 2638 4750 
Q 3056 4750 3426 4639 
Q 3797 4528 4122 4306 
z
" transform="scale(0.015625)"/>
       <path id="DejaVuSans-28" d="M 1984 4856 
Q 1566 4138 1362 3434 
Q 1159 2731 1159 2009 
Q 1159 1288 1364 580 
Q 1569 -128 1984 -844 
L 1484 -844 
Q 1016 -109 783 600 
Q 550 1309 550 2009 
Q 550 2706 781 3412 
Q 1013 4119 1484 4856 
L 1984 4856 
z
" transform="scale(0.015625)"/>
       <path id="DejaVuSans-3d" d="M 678 2906 
L 4684 2906 
L 4684 2381 
L 678 2381 
L 678 2906 
z
M 678 1631 
L 4684 1631 
L 4684 1100 
L 678 1100 
L 678 1631 
z
" transform="scale(0.015625)"/>
       <path id="DejaVuSans-29" d="M 513 4856 
L 1013 4856 
Q 1481 4119 1714 3412 
Q 1947 2706 1947 2009 
Q 1947 1309 1714 600 
Q 1481 -109 1013 -844 
L 513 -844 
Q 928 -128 1133 580 
Q 1338 1288 1338 2009 
Q 1338 2731 1133 3434 
Q 928 4138 513 4856 
z
" transform="scale(0.015625)"/>
      </defs>
      <use xlink:href="#DejaVuSans-31"/>
      <use xlink:href="#DejaVuSans-2e" x="63.623047"/>
      <use xlink:href="#DejaVuSans-35" x="95.410156"/>
      <use xlink:href="#DejaVuSans-b0" x="159.033203"/>
      <use xlink:href="#DejaVuSans-43" x="209.033203"/>
      <use xlink:href="#DejaVuSans-20" x="278.857422"/>
      <use xlink:href="#DejaVuSans-28" x="310.644531"/>
      <use xlink:href="#DejaVuSans-6e" x="349.658203"/>
      <use xlink:href="#DejaVuSans-3d" x="413.037109"/>
      <use xlink:href="#DejaVuSans-32" x="496.826172"/>
      <use xlink:href="#DejaVuSans-29" x="560.449219"/>
     </g>
    </g>
    <g id="line2d_19">
     <path d="M 616.971755 180.070688 
L 638.971755 180.070688 
L 660.971755 180.070688 
" style="fill: none; stroke: #f47100; stroke-opacity: 0.5; stroke-width: 6; stroke-linecap: square"/>
    </g>
    <g id="text_17">
     <!-- 2.2C (n=14) -->
     <g transform="translate(678.571755 187.770688)scale(0.22 -0.22)">
      <use xlink:href="#DejaVuSans-32"/>
      <use xlink:href="#DejaVuSans-2e" x="63.623047"/>
      <use xlink:href="#DejaVuSans-32" x="95.410156"/>
      <use xlink:href="#DejaVuSans-b0" x="159.033203"/>
      <use xlink:href="#DejaVuSans-43" x="209.033203"/>
      <use xlink:href="#DejaVuSans-20" x="278.857422"/>
      <use xlink:href="#DejaVuSans-28" x="310.644531"/>
      <use xlink:href="#DejaVuSans-6e" x="349.658203"/>
      <use xlink:href="#DejaVuSans-3d" x="413.037109"/>
      <use xlink:href="#DejaVuSans-31" x="496.826172"/>
      <use xlink:href="#DejaVuSans-34" x="560.449219"/>
      <use xlink:href="#DejaVuSans-29" x="624.072266"/>
     </g>
    </g>
    <g id="line2d_20">
     <path d="M 616.971755 204.662563 
L 638.971755 204.662563 
L 660.971755 204.662563 
" style="fill: none; stroke: #d01e04; stroke-opacity: 0.5; stroke-width: 6; stroke-linecap: square"/>
    </g>
    <g id="text_18">
     <!-- 2.8C (n=12) -->
     <g transform="translate(678.571755 212.362563)scale(0.22 -0.22)">
      <use xlink:href="#DejaVuSans-32"/>
      <use xlink:href="#DejaVuSans-2e" x="63.623047"/>
      <use xlink:href="#DejaVuSans-38" x="95.410156"/>
      <use xlink:href="#DejaVuSans-b0" x="159.033203"/>
      <use xlink:href="#DejaVuSans-43" x="209.033203"/>
      <use xlink:href="#DejaVuSans-20" x="278.857422"/>
      <use xlink:href="#DejaVuSans-28" x="310.644531"/>
      <use xlink:href="#DejaVuSans-6e" x="349.658203"/>
      <use xlink:href="#DejaVuSans-3d" x="413.037109"/>
      <use xlink:href="#DejaVuSans-31" x="496.826172"/>
      <use xlink:href="#DejaVuSans-32" x="560.449219"/>
      <use xlink:href="#DejaVuSans-29" x="624.072266"/>
     </g>
    </g>
   </g>
  </g>
 </g>
 <defs>
  <clipPath id="p23e665a6de">
   <rect x="109.64" y="52.8" width="749.280192" height="462.76"/>
  </clipPath>
 </defs>
</svg>
