<?xml version="1.0" encoding="utf-8" standalone="no"?>
<!DOCTYPE svg PUBLIC "-//W3C//DTD SVG 1.1//EN"
  "http://www.w3.org/Graphics/SVG/1.1/DTD/svg11.dtd">
<svg xmlns:xlink="http://www.w3.org/1999/xlink" width="900pt" height="600pt" viewBox="0 0 900 600" xmlns="http://www.w3.org/2000/svg" version="1.1">
 <metadata>
  <rdf:RDF xmlns:dc="http://purl.org/dc/elements/1.1/" xmlns:cc="http://creativecommons.org/ns#" xmlns:rdf="http://www.w3.org/1999/02/22-rdf-syntax-ns#">
   <cc:Work>
    <dc:type rdf:resource="http://purl.org/dc/dcmitype/StillImage"/>
    <dc:date>2024-10-31T18:28:40.107577</dc:date>
    <dc:format>image/svg+xml</dc:format>
    <dc:creator>
     <cc:Agent>
      <dc:title>Matplotlib v3.5.3, https://matplotlib.org/</dc:title>
     </cc:Agent>
    </dc:creator>
   </cc:Work>
  </rdf:RDF>
 </metadata>
 <defs>
  <style type="text/css">*{stroke-linejoin: round; stroke-linecap: butt}</style>
 </defs>
 <g id="figure_1">
  <g id="patch_1">
   <path d="M 0 600 
L 900 600 
L 900 0 
L 0 0 
z
" style="fill: #ffffff"/>
  </g>
  <g id="axes_1">
   <g id="patch_2">
    <path d="M 109.64 515.56 
L 858.920192 515.56 
L 858.920192 52.8 
L 109.64 52.8 
z
" style="fill: #ffffff"/>
   </g>
   <g id="PolyCollection_1">
    <defs>
     <path id="md49cb34117" d="M 167.276938 -452.269119 
L 167.276938 -451.977235 
L 169.678477 -449.271206 
L 172.080016 -446.554709 
L 174.481555 -443.754546 
L 176.883094 -440.88187 
L 179.284633 -437.972459 
L 181.686172 -435.042621 
L 184.087711 -432.211584 
L 186.48925 -429.353586 
L 188.89079 -426.470125 
L 191.292329 -423.505746 
L 193.693868 -420.486191 
L 196.095407 -417.413364 
L 198.496946 -414.554425 
L 200.898485 -411.703036 
L 203.300024 -408.871808 
L 205.701563 -406.023359 
L 208.103102 -403.242352 
L 210.504641 -400.550444 
L 212.90618 -397.838236 
L 215.307719 -395.18496 
L 217.709259 -392.539305 
L 220.110798 -389.961656 
L 222.512337 -387.447081 
L 224.913876 -384.888788 
L 227.315415 -382.244434 
L 229.716954 -379.675089 
L 232.118493 -377.084902 
L 234.520032 -374.530394 
L 236.921571 -371.974309 
L 239.32311 -369.525313 
L 241.724649 -367.100549 
L 244.126188 -364.832776 
L 246.527727 -362.548752 
L 248.929267 -360.31873 
L 251.330806 -358.162919 
L 253.732345 -356.164647 
L 256.133884 -354.257763 
L 258.535423 -352.327357 
L 260.936962 -350.628653 
L 263.338501 -348.928004 
L 265.74004 -347.285117 
L 268.141579 -345.76221 
L 270.543118 -344.37497 
L 272.944657 -343.164199 
L 275.346196 -342.081529 
L 277.747735 -341.010076 
L 280.149275 -339.964633 
L 282.550814 -339.017318 
L 284.952353 -338.191211 
L 287.353892 -337.386014 
L 289.755431 -336.736117 
L 292.15697 -336.153175 
L 294.558509 -335.546954 
L 296.960048 -334.917399 
L 299.361587 -334.301023 
L 301.763126 -333.717526 
L 304.164665 -333.178332 
L 306.566204 -332.727679 
L 308.967743 -332.327629 
L 311.369283 -331.958838 
L 313.770822 -331.623585 
L 316.172361 -331.27396 
L 318.5739 -331.01245 
L 320.975439 -330.695712 
L 323.376978 -330.375723 
L 325.778517 -330.115925 
L 328.180056 -329.920969 
L 330.581595 -329.73015 
L 332.983134 -329.57748 
L 335.384673 -329.433783 
L 337.786212 -329.229852 
L 340.187751 -328.999597 
L 342.589291 -328.83152 
L 344.99083 -328.673229 
L 347.392369 -328.568784 
L 349.793908 -328.486381 
L 352.195447 -328.396134 
L 354.596986 -328.261887 
L 356.998525 -328.101815 
L 359.400064 -327.96691 
L 361.801603 -327.847308 
L 364.203142 -327.735299 
L 366.604681 -327.555237 
L 369.00622 -327.40283 
L 371.407759 -327.306365 
L 373.809299 -327.192153 
L 376.210838 -327.052224 
L 378.612377 -326.896499 
L 381.013916 -326.70438 
L 383.415455 -326.559514 
L 385.816994 -326.518614 
L 388.218533 -326.494884 
L 390.620072 -326.453597 
L 393.021611 -326.41576 
L 395.42315 -326.385498 
L 397.824689 -326.342403 
L 400.226228 -326.296849 
L 402.627768 -326.208816 
L 405.029307 -326.108691 
L 407.430846 -326.156822 
L 409.832385 -326.117078 
L 412.233924 -326.047808 
L 414.635463 -325.946641 
L 417.037002 -325.895492 
L 419.438541 -325.828262 
L 421.84008 -325.773729 
L 424.241619 -325.769925 
L 426.643158 -325.819548 
L 429.044697 -325.866729 
L 431.446236 -325.830408 
L 433.847776 -325.702476 
L 436.249315 -325.495097 
L 438.650854 -325.340285 
L 441.052393 -325.208486 
L 443.453932 -325.006293 
L 445.855471 -324.786489 
L 448.25701 -324.549644 
L 450.658549 -324.3749 
L 453.060088 -324.159731 
L 455.461627 -323.878563 
L 457.863166 -323.705216 
L 460.264705 -323.531389 
L 462.666244 -323.372309 
L 465.067784 -323.133308 
L 467.469323 -322.902637 
L 469.870862 -322.726632 
L 472.272401 -322.562751 
L 474.67394 -322.351703 
L 477.075479 -322.194952 
L 479.477018 -322.135319 
L 481.878557 -322.110636 
L 484.280096 -322.144695 
L 486.681635 -322.151265 
L 489.083174 -322.172426 
L 491.484713 -322.274539 
L 493.886252 -322.346739 
L 496.287792 -322.529634 
L 498.689331 -322.665934 
L 501.09087 -322.916662 
L 503.492409 -323.121048 
L 505.893948 -323.296409 
L 508.295487 -323.506109 
L 510.697026 -323.762941 
L 513.098565 -324.063122 
L 515.500104 -324.38575 
L 517.901643 -324.659099 
L 520.303182 -324.88872 
L 522.704721 -325.149277 
L 525.10626 -325.426809 
L 527.5078 -325.726019 
L 529.909339 -326.038827 
L 532.310878 -326.379445 
L 534.712417 -326.637536 
L 537.113956 -326.906651 
L 539.515495 -327.143428 
L 541.917034 -327.407488 
L 544.318573 -327.552722 
L 546.720112 -327.737635 
L 549.121651 -327.850298 
L 551.52319 -327.929722 
L 553.924729 -328.069134 
L 556.326268 -328.240926 
L 558.727808 -328.396742 
L 561.129347 -328.565566 
L 563.530886 -328.710111 
L 565.932425 -328.847123 
L 568.333964 -328.979723 
L 570.735503 -329.096934 
L 573.137042 -329.17524 
L 575.538581 -329.215746 
L 577.94012 -329.26641 
L 580.341659 -329.29898 
L 582.743198 -329.419979 
L 585.144737 -329.48094 
L 587.546277 -329.645811 
L 589.947816 -329.752303 
L 592.349355 -329.855177 
L 594.750894 -330.028653 
L 597.152433 -330.140537 
L 599.553972 -330.285939 
L 601.955511 -330.389543 
L 604.35705 -330.46857 
L 606.758589 -330.516063 
L 609.160128 -330.568958 
L 611.561667 -330.636804 
L 613.963206 -330.724268 
L 616.364745 -330.838334 
L 618.766285 -331.007469 
L 621.167824 -331.248919 
L 623.569363 -331.456142 
L 625.970902 -331.634976 
L 628.372441 -331.844401 
L 630.77398 -332.097187 
L 633.175519 -332.424272 
L 635.577058 -332.652485 
L 637.978597 -332.949692 
L 640.380136 -333.368322 
L 642.781675 -333.733325 
L 645.183214 -334.202173 
L 647.584753 -334.666602 
L 649.986293 -335.167086 
L 652.387832 -335.705975 
L 654.789371 -336.33582 
L 657.19091 -336.918667 
L 659.592449 -337.518976 
L 661.993988 -338.120025 
L 664.395527 -338.720563 
L 666.797066 -339.274781 
L 669.198605 -339.859425 
L 671.600144 -340.491238 
L 674.001683 -341.121934 
L 676.403222 -341.709843 
L 678.804761 -342.237331 
L 681.206301 -342.731176 
L 683.60784 -343.255548 
L 686.009379 -343.811365 
L 688.410918 -344.20525 
L 690.812457 -344.678338 
L 693.213996 -345.170788 
L 695.615535 -345.711911 
L 698.017074 -346.270307 
L 700.418613 -346.75271 
L 702.820152 -347.182403 
L 705.221691 -347.705522 
L 707.62323 -348.226169 
L 710.024769 -348.725957 
L 712.426309 -349.268494 
L 714.827848 -349.813421 
L 717.229387 -350.229421 
L 719.630926 -350.574777 
L 722.032465 -350.933694 
L 724.434004 -351.290867 
L 726.835543 -351.741725 
L 729.237082 -352.205715 
L 731.638621 -352.683941 
L 734.04016 -353.1926 
L 736.441699 -353.732601 
L 738.843238 -354.201744 
L 741.244777 -354.643274 
L 743.646317 -355.074124 
L 746.047856 -355.489113 
L 748.449395 -355.966051 
L 750.850934 -356.368376 
L 753.252473 -356.749447 
L 755.654012 -357.131176 
L 758.055551 -357.49075 
L 760.45709 -357.80651 
L 762.858629 -358.123421 
L 765.260168 -358.440553 
L 767.661707 -358.789919 
L 770.063246 -359.161983 
L 772.464786 -359.547345 
L 774.866325 -359.871741 
L 777.267864 -360.214913 
L 779.669403 -360.561764 
L 782.070942 -360.849315 
L 784.472481 -361.209988 
L 786.87402 -361.602025 
L 789.275559 -361.986619 
L 791.677098 -362.349397 
L 794.078637 -362.678571 
L 796.480176 -362.941075 
L 798.881715 -363.287689 
L 801.283254 -363.601105 
L 803.684794 -363.915952 
L 806.086333 -364.280388 
L 808.487872 -364.702879 
L 810.889411 -365.059224 
L 813.29095 -365.442414 
L 815.692489 -365.885529 
L 818.094028 -366.118258 
L 820.495567 -366.364114 
L 822.897106 -366.59915 
L 825.298645 -366.814551 
L 827.700184 -367.003277 
L 830.101723 -367.216187 
L 832.503262 -367.39121 
L 834.904802 -367.499224 
L 837.306341 -367.59932 
L 837.306341 -421.697507 
L 837.306341 -421.697507 
L 834.904802 -421.56415 
L 832.503262 -421.434741 
L 830.101723 -421.205685 
L 827.700184 -420.904913 
L 825.298645 -420.653977 
L 822.897106 -420.375194 
L 820.495567 -420.08034 
L 818.094028 -419.739649 
L 815.692489 -419.412734 
L 813.29095 -418.740797 
L 810.889411 -418.168119 
L 808.487872 -417.661707 
L 806.086333 -417.08488 
L 803.684794 -416.576658 
L 801.283254 -416.151002 
L 798.881715 -415.750146 
L 796.480176 -415.306539 
L 794.078637 -414.951257 
L 791.677098 -414.47614 
L 789.275559 -413.961982 
L 786.87402 -413.42488 
L 784.472481 -412.88007 
L 782.070942 -412.402365 
L 779.669403 -412.050391 
L 777.267864 -411.59833 
L 774.866325 -411.145511 
L 772.464786 -410.696207 
L 770.063246 -410.15394 
L 767.661707 -409.649059 
L 765.260168 -409.206299 
L 762.858629 -408.802657 
L 760.45709 -408.404575 
L 758.055551 -408.014269 
L 755.654012 -407.573372 
L 753.252473 -407.084123 
L 750.850934 -406.597924 
L 748.449395 -406.056771 
L 746.047856 -405.430995 
L 743.646317 -404.944315 
L 741.244777 -404.442203 
L 738.843238 -403.90909 
L 736.441699 -403.327772 
L 734.04016 -402.608248 
L 731.638621 -401.909544 
L 729.237082 -401.270179 
L 726.835543 -400.655385 
L 724.434004 -400.023737 
L 722.032465 -399.548758 
L 719.630926 -399.051403 
L 717.229387 -398.572228 
L 714.827848 -398.003326 
L 712.426309 -397.213839 
L 710.024769 -396.42263 
L 707.62323 -395.700041 
L 705.221691 -394.955258 
L 702.820152 -394.192295 
L 700.418613 -393.558185 
L 698.017074 -392.841271 
L 695.615535 -391.991766 
L 693.213996 -391.164326 
L 690.812457 -390.393208 
L 688.410918 -389.6628 
L 686.009379 -389.036993 
L 683.60784 -388.211524 
L 681.206301 -387.424566 
L 678.804761 -386.656623 
L 676.403222 -385.874736 
L 674.001683 -384.980267 
L 671.600144 -384.028496 
L 669.198605 -383.077 
L 666.797066 -382.180483 
L 664.395527 -381.317346 
L 661.993988 -380.396224 
L 659.592449 -379.444639 
L 657.19091 -378.474907 
L 654.789371 -377.534931 
L 652.387832 -376.53207 
L 649.986293 -375.638063 
L 647.584753 -374.787329 
L 645.183214 -373.988633 
L 642.781675 -373.198023 
L 640.380136 -372.524315 
L 637.978597 -371.800858 
L 635.577058 -371.235704 
L 633.175519 -370.750436 
L 630.77398 -370.13103 
L 628.372441 -369.615279 
L 625.970902 -369.204799 
L 623.569363 -368.828533 
L 621.167824 -368.403613 
L 618.766285 -367.948365 
L 616.364745 -367.627793 
L 613.963206 -367.388449 
L 611.561667 -367.206988 
L 609.160128 -367.071138 
L 606.758589 -366.965004 
L 604.35705 -366.870258 
L 601.955511 -366.730617 
L 599.553972 -366.582115 
L 597.152433 -366.365701 
L 594.750894 -366.206601 
L 592.349355 -365.966161 
L 589.947816 -365.796604 
L 587.546277 -365.623912 
L 585.144737 -365.353993 
L 582.743198 -365.238173 
L 580.341659 -365.059096 
L 577.94012 -364.967157 
L 575.538581 -364.85902 
L 573.137042 -364.769196 
L 570.735503 -364.58742 
L 568.333964 -364.345552 
L 565.932425 -364.071611 
L 563.530886 -363.758819 
L 561.129347 -363.427867 
L 558.727808 -363.029348 
L 556.326268 -362.65646 
L 553.924729 -362.267579 
L 551.52319 -361.918431 
L 549.121651 -361.637033 
L 546.720112 -361.295849 
L 544.318573 -360.866467 
L 541.917034 -360.491125 
L 539.515495 -359.930485 
L 537.113956 -359.416727 
L 534.712417 -358.854418 
L 532.310878 -358.283929 
L 529.909339 -357.587111 
L 527.5078 -356.923412 
L 525.10626 -356.273494 
L 522.704721 -355.689726 
L 520.303182 -355.137149 
L 517.901643 -354.625476 
L 515.500104 -354.062104 
L 513.098565 -353.424867 
L 510.697026 -352.838914 
L 508.295487 -352.290157 
L 505.893948 -351.802905 
L 503.492409 -351.346127 
L 501.09087 -350.851897 
L 498.689331 -350.317401 
L 496.287792 -349.915149 
L 493.886252 -349.477566 
L 491.484713 -349.20764 
L 489.083174 -348.914261 
L 486.681635 -348.74118 
L 484.280096 -348.618151 
L 481.878557 -348.501882 
L 479.477018 -348.448401 
L 477.075479 -348.444688 
L 474.67394 -348.557947 
L 472.272401 -348.72693 
L 469.870862 -348.844997 
L 467.469323 -348.987753 
L 465.067784 -349.228014 
L 462.666244 -349.475868 
L 460.264705 -349.621679 
L 457.863166 -349.788396 
L 455.461627 -349.97671 
L 453.060088 -350.300757 
L 450.658549 -350.449365 
L 448.25701 -350.552741 
L 445.855471 -350.728702 
L 443.453932 -350.880643 
L 441.052393 -351.004618 
L 438.650854 -351.009925 
L 436.249315 -351.021729 
L 433.847776 -351.083188 
L 431.446236 -351.064757 
L 429.044697 -350.887791 
L 426.643158 -350.595739 
L 424.241619 -350.314913 
L 421.84008 -350.092367 
L 419.438541 -349.920424 
L 417.037002 -349.750803 
L 414.635463 -349.556098 
L 412.233924 -349.434149 
L 409.832385 -349.259172 
L 407.430846 -349.020302 
L 405.029307 -348.674142 
L 402.627768 -348.578154 
L 400.226228 -348.458292 
L 397.824689 -348.278075 
L 395.42315 -348.085129 
L 393.021611 -347.851508 
L 390.620072 -347.631769 
L 388.218533 -347.424076 
L 385.816994 -347.19145 
L 383.415455 -346.947488 
L 381.013916 -346.854945 
L 378.612377 -346.821782 
L 376.210838 -346.725244 
L 373.809299 -346.601371 
L 371.407759 -346.43255 
L 369.00622 -346.241447 
L 366.604681 -346.104698 
L 364.203142 -346.001947 
L 361.801603 -345.814311 
L 359.400064 -345.650452 
L 356.998525 -345.491583 
L 354.596986 -345.371341 
L 352.195447 -345.180274 
L 349.793908 -344.903019 
L 347.392369 -344.611992 
L 344.99083 -344.361228 
L 342.589291 -344.184224 
L 340.187751 -344.014427 
L 337.786212 -343.898677 
L 335.384673 -343.754465 
L 332.983134 -343.532128 
L 330.581595 -343.315019 
L 328.180056 -343.140444 
L 325.778517 -342.94507 
L 323.376978 -342.828488 
L 320.975439 -342.786511 
L 318.5739 -342.72979 
L 316.172361 -342.566103 
L 313.770822 -342.523889 
L 311.369283 -342.442353 
L 308.967743 -342.397474 
L 306.566204 -342.396264 
L 304.164665 -342.483436 
L 301.763126 -342.689967 
L 299.361587 -342.948239 
L 296.960048 -343.240526 
L 294.558509 -343.550825 
L 292.15697 -343.802803 
L 289.755431 -344.035158 
L 287.353892 -344.341319 
L 284.952353 -344.820688 
L 282.550814 -345.326504 
L 280.149275 -345.963649 
L 277.747735 -346.73174 
L 275.346196 -347.538374 
L 272.944657 -348.332632 
L 270.543118 -349.287496 
L 268.141579 -350.457868 
L 265.74004 -351.773416 
L 263.338501 -353.235822 
L 260.936962 -354.763402 
L 258.535423 -356.284227 
L 256.133884 -358.073807 
L 253.732345 -359.831419 
L 251.330806 -361.686799 
L 248.929267 -363.735659 
L 246.527727 -365.840216 
L 244.126188 -368.008535 
L 241.724649 -370.168829 
L 239.32311 -372.51244 
L 236.921571 -374.89651 
L 234.520032 -377.408473 
L 232.118493 -379.931463 
L 229.716954 -382.482852 
L 227.315415 -385.005402 
L 224.913876 -387.595672 
L 222.512337 -390.083054 
L 220.110798 -392.534722 
L 217.709259 -395.062349 
L 215.307719 -397.642989 
L 212.90618 -400.231918 
L 210.504641 -402.884952 
L 208.103102 -405.508827 
L 205.701563 -408.261746 
L 203.300024 -411.078664 
L 200.898485 -413.869628 
L 198.496946 -416.677273 
L 196.095407 -419.492304 
L 193.693868 -422.531233 
L 191.292329 -425.510205 
L 188.89079 -428.41154 
L 186.48925 -431.188036 
L 184.087711 -433.928359 
L 181.686172 -436.60566 
L 179.284633 -439.356109 
L 176.883094 -442.022325 
L 174.481555 -444.679352 
L 172.080016 -447.285347 
L 169.678477 -449.800635 
L 167.276938 -452.269119 
z
" style="stroke: #74b8f8; stroke-opacity: 0.2"/>
    </defs>
    <g clip-path="url(#pec88938f64)">
     <use xlink:href="#md49cb34117" x="0" y="600" style="fill: #74b8f8; fill-opacity: 0.2; stroke: #74b8f8; stroke-opacity: 0.2"/>
    </g>
   </g>
   <g id="PolyCollection_2">
    <defs>
     <path id="ma1edf33528" d="M 116.844617 -484.941592 
L 116.844617 -481.187938 
L 119.246156 -480.439828 
L 121.647695 -479.76176 
L 124.049234 -478.997594 
L 126.450774 -478.131642 
L 128.852313 -477.286525 
L 131.253852 -476.479438 
L 133.655391 -475.733372 
L 136.05693 -474.919463 
L 138.458469 -474.12104 
L 140.860008 -473.29348 
L 143.261547 -471.795125 
L 145.663086 -470.283795 
L 148.064625 -468.738345 
L 150.466164 -467.024399 
L 152.867703 -465.240131 
L 155.269242 -463.330167 
L 157.670782 -461.267545 
L 160.072321 -459.109824 
L 162.47386 -456.966639 
L 164.875399 -454.648 
L 164.875399 -454.648 
L 164.875399 -454.648 
L 162.47386 -457.266932 
L 160.072321 -459.695698 
L 157.670782 -462.14558 
L 155.269242 -464.441572 
L 152.867703 -466.611855 
L 150.466164 -468.657537 
L 148.064625 -470.665195 
L 145.663086 -472.502822 
L 143.261547 -474.291902 
L 140.860008 -476.089162 
L 138.458469 -477.089415 
L 136.05693 -478.075615 
L 133.655391 -479.0461 
L 131.253852 -479.920404 
L 128.852313 -480.756488 
L 126.450774 -481.651652 
L 124.049234 -482.607666 
L 121.647695 -483.495163 
L 119.246156 -484.236332 
L 116.844617 -484.941592 
z
" style="stroke: #000000; stroke-opacity: 0.2"/>
    </defs>
    <g clip-path="url(#pec88938f64)">
     <use xlink:href="#ma1edf33528" x="0" y="600" style="fill-opacity: 0.2; stroke: #000000; stroke-opacity: 0.2"/>
    </g>
   </g>
   <g id="PolyCollection_3">
    <defs>
     <path id="m5c1bfd1738" d="M 167.276938 -452.531727 
L 167.276938 -451.831909 
L 169.678477 -449.024725 
L 172.080016 -446.121816 
L 174.481555 -443.115667 
L 176.883094 -439.988006 
L 179.284633 -436.71748 
L 181.686172 -433.289719 
L 184.087711 -429.815517 
L 186.48925 -426.285882 
L 188.89079 -422.706557 
L 191.292329 -419.101552 
L 193.693868 -415.486448 
L 196.095407 -411.813996 
L 198.496946 -408.05031 
L 200.898485 -404.137303 
L 203.300024 -400.124153 
L 205.701563 -396.133289 
L 208.103102 -392.203271 
L 210.504641 -388.240839 
L 212.90618 -384.175534 
L 215.307719 -380.10747 
L 217.709259 -376.045551 
L 220.110798 -372.025413 
L 222.512337 -367.984284 
L 224.913876 -364.028105 
L 227.315415 -360.082394 
L 229.716954 -356.164464 
L 232.118493 -352.299843 
L 234.520032 -348.42944 
L 236.921571 -344.585175 
L 239.32311 -340.912278 
L 241.724649 -337.448317 
L 244.126188 -334.077905 
L 246.527727 -330.876511 
L 248.929267 -327.702021 
L 251.330806 -324.60041 
L 253.732345 -321.540384 
L 256.133884 -318.599924 
L 258.535423 -315.785502 
L 260.936962 -313.08408 
L 263.338501 -310.413963 
L 265.74004 -307.722936 
L 268.141579 -305.087454 
L 270.543118 -302.609042 
L 272.944657 -299.943293 
L 275.346196 -296.973859 
L 277.747735 -294.021322 
L 280.149275 -291.167403 
L 282.550814 -288.414868 
L 284.952353 -285.651631 
L 287.353892 -283.020636 
L 289.755431 -280.459695 
L 292.15697 -277.98639 
L 294.558509 -275.54367 
L 296.960048 -273.073674 
L 299.361587 -270.693928 
L 301.763126 -268.430459 
L 304.164665 -266.191903 
L 306.566204 -263.990748 
L 308.967743 -261.845393 
L 311.369283 -259.618711 
L 313.770822 -257.401298 
L 316.172361 -255.210982 
L 318.5739 -252.968763 
L 320.975439 -250.822806 
L 323.376978 -248.752345 
L 325.778517 -246.84787 
L 328.180056 -244.967669 
L 330.581595 -243.095641 
L 332.983134 -241.23182 
L 335.384673 -239.411117 
L 337.786212 -237.786691 
L 340.187751 -236.180225 
L 342.589291 -234.620721 
L 344.99083 -233.100941 
L 347.392369 -231.575648 
L 349.793908 -230.009132 
L 352.195447 -228.442397 
L 354.596986 -226.92117 
L 356.998525 -225.4877 
L 359.400064 -224.120562 
L 361.801603 -222.817662 
L 364.203142 -221.577105 
L 366.604681 -220.355364 
L 369.00622 -219.185148 
L 371.407759 -218.058798 
L 373.809299 -216.874003 
L 376.210838 -215.716223 
L 378.612377 -214.62806 
L 381.013916 -213.569536 
L 383.415455 -212.532378 
L 385.816994 -211.483627 
L 388.218533 -210.459346 
L 390.620072 -209.405916 
L 393.021611 -208.331274 
L 395.42315 -207.298344 
L 397.824689 -206.205489 
L 400.226228 -205.127689 
L 402.627768 -204.010902 
L 405.029307 -202.93377 
L 407.430846 -201.879398 
L 409.832385 -200.891257 
L 412.233924 -199.859495 
L 414.635463 -198.891296 
L 417.037002 -197.963759 
L 419.438541 -197.062662 
L 421.84008 -196.23685 
L 424.241619 -195.454247 
L 426.643158 -194.622726 
L 429.044697 -193.806123 
L 431.446236 -193.022299 
L 433.847776 -192.250108 
L 436.249315 -191.473847 
L 438.650854 -190.748009 
L 441.052393 -190.069685 
L 443.453932 -189.373611 
L 445.855471 -188.779661 
L 448.25701 -188.219004 
L 450.658549 -187.671702 
L 453.060088 -187.124173 
L 455.461627 -186.559096 
L 457.863166 -185.965633 
L 460.264705 -185.411929 
L 462.666244 -184.866968 
L 465.067784 -184.30422 
L 467.469323 -183.701352 
L 469.870862 -183.070951 
L 472.272401 -182.451339 
L 474.67394 -181.934288 
L 477.075479 -181.541565 
L 479.477018 -181.189306 
L 481.878557 -180.845278 
L 484.280096 -180.485152 
L 486.681635 -180.124532 
L 489.083174 -179.7465 
L 491.484713 -179.343017 
L 493.886252 -178.941584 
L 496.287792 -178.536477 
L 498.689331 -178.129097 
L 501.09087 -177.782841 
L 503.492409 -177.446348 
L 505.893948 -177.133935 
L 508.295487 -176.816394 
L 510.697026 -176.497851 
L 513.098565 -176.208214 
L 515.500104 -175.907177 
L 517.901643 -175.580699 
L 520.303182 -175.241159 
L 522.704721 -174.869801 
L 525.10626 -174.448728 
L 527.5078 -174.032122 
L 529.909339 -173.609531 
L 532.310878 -173.190371 
L 534.712417 -172.807149 
L 537.113956 -172.436031 
L 539.515495 -172.102393 
L 541.917034 -171.779529 
L 544.318573 -171.460328 
L 546.720112 -171.172093 
L 549.121651 -170.817164 
L 551.52319 -170.46181 
L 553.924729 -170.103896 
L 556.326268 -169.744707 
L 558.727808 -169.376363 
L 561.129347 -168.993542 
L 563.530886 -168.648871 
L 565.932425 -168.325035 
L 568.333964 -167.98029 
L 570.735503 -167.661076 
L 573.137042 -167.369004 
L 575.538581 -167.084472 
L 577.94012 -166.771963 
L 580.341659 -166.461048 
L 582.743198 -166.117379 
L 585.144737 -165.813656 
L 587.546277 -165.509397 
L 589.947816 -165.183946 
L 592.349355 -164.879737 
L 594.750894 -164.571275 
L 597.152433 -164.302903 
L 599.553972 -164.011687 
L 601.955511 -163.653519 
L 604.35705 -163.300495 
L 606.758589 -162.965205 
L 609.160128 -162.605465 
L 611.561667 -162.219462 
L 613.963206 -161.850572 
L 616.364745 -161.53913 
L 618.766285 -161.236748 
L 621.167824 -160.994553 
L 623.569363 -160.723033 
L 625.970902 -160.425177 
L 628.372441 -160.139579 
L 630.77398 -159.831218 
L 633.175519 -159.504179 
L 635.577058 -159.207624 
L 637.978597 -158.92859 
L 640.380136 -158.635937 
L 642.781675 -158.33333 
L 645.183214 -158.011125 
L 647.584753 -157.693193 
L 649.986293 -157.381707 
L 652.387832 -157.077431 
L 654.789371 -156.749522 
L 657.19091 -156.467242 
L 659.592449 -156.220237 
L 661.993988 -155.986678 
L 664.395527 -155.745943 
L 666.797066 -155.513436 
L 669.198605 -155.278047 
L 671.600144 -155.044264 
L 674.001683 -154.863864 
L 676.403222 -154.676328 
L 678.804761 -154.491256 
L 681.206301 -154.330432 
L 683.60784 -154.151727 
L 686.009379 -153.984232 
L 688.410918 -153.811285 
L 690.812457 -153.655085 
L 693.213996 -153.49871 
L 695.615535 -153.357812 
L 698.017074 -153.247829 
L 700.418613 -153.098415 
L 702.820152 -152.958667 
L 705.221691 -152.826747 
L 707.62323 -152.844022 
L 710.024769 -152.831197 
L 712.426309 -152.793165 
L 714.827848 -152.709951 
L 717.229387 -152.590757 
L 719.630926 -152.463323 
L 722.032465 -152.272202 
L 724.434004 -152.090398 
L 726.835543 -151.928781 
L 729.237082 -151.753064 
L 731.638621 -151.566457 
L 734.04016 -151.375367 
L 736.441699 -151.202091 
L 738.843238 -151.002144 
L 741.244777 -150.818423 
L 743.646317 -150.641133 
L 746.047856 -150.456446 
L 748.449395 -150.263351 
L 750.850934 -150.068893 
L 753.252473 -149.860619 
L 755.654012 -149.644682 
L 758.055551 -149.447198 
L 760.45709 -149.274618 
L 762.858629 -149.152513 
L 765.260168 -149.031018 
L 767.661707 -148.906391 
L 770.063246 -148.799133 
L 772.464786 -148.671066 
L 774.866325 -148.560079 
L 777.267864 -148.458437 
L 779.669403 -148.324588 
L 782.070942 -148.17945 
L 784.472481 -148.051516 
L 786.87402 -147.929513 
L 789.275559 -147.802308 
L 791.677098 -147.663372 
L 794.078637 -147.530413 
L 796.480176 -147.429278 
L 798.881715 -147.342269 
L 801.283254 -147.290962 
L 803.684794 -147.211727 
L 806.086333 -147.083006 
L 808.487872 -146.98144 
L 810.889411 -146.881242 
L 813.29095 -146.801908 
L 815.692489 -146.750665 
L 818.094028 -146.687572 
L 820.495567 -146.642525 
L 822.897106 -146.581099 
L 825.298645 -146.518843 
L 827.700184 -146.488886 
L 830.101723 -146.468911 
L 832.503262 -146.428583 
L 834.904802 -146.407521 
L 837.306341 -146.418903 
L 837.306341 -245.290685 
L 837.306341 -245.290685 
L 834.904802 -245.309264 
L 832.503262 -245.366237 
L 830.101723 -245.411106 
L 827.700184 -245.470919 
L 825.298645 -245.50637 
L 822.897106 -245.529632 
L 820.495567 -245.527683 
L 818.094028 -245.514488 
L 815.692489 -245.489916 
L 813.29095 -245.478845 
L 810.889411 -245.44038 
L 808.487872 -245.396074 
L 806.086333 -245.341757 
L 803.684794 -245.279403 
L 801.283254 -245.208204 
L 798.881715 -245.125098 
L 796.480176 -245.050506 
L 794.078637 -244.973103 
L 791.677098 -244.92074 
L 789.275559 -244.860754 
L 786.87402 -244.655347 
L 784.472481 -244.344817 
L 782.070942 -244.017751 
L 779.669403 -243.67776 
L 777.267864 -243.351891 
L 774.866325 -243.043917 
L 772.464786 -242.739428 
L 770.063246 -242.44365 
L 767.661707 -242.169759 
L 765.260168 -241.855454 
L 762.858629 -241.556459 
L 760.45709 -241.263158 
L 758.055551 -240.941021 
L 755.654012 -240.626199 
L 753.252473 -240.319444 
L 750.850934 -239.978377 
L 748.449395 -239.618264 
L 746.047856 -239.267655 
L 743.646317 -238.910373 
L 741.244777 -238.586766 
L 738.843238 -238.269612 
L 736.441699 -238.007152 
L 734.04016 -237.757071 
L 731.638621 -237.48136 
L 729.237082 -237.188449 
L 726.835543 -236.873441 
L 724.434004 -236.588072 
L 722.032465 -236.26344 
L 719.630926 -235.942781 
L 717.229387 -235.615654 
L 714.827848 -235.316409 
L 712.426309 -235.029568 
L 710.024769 -234.784489 
L 707.62323 -234.545243 
L 705.221691 -234.282115 
L 702.820152 -234.037334 
L 700.418613 -233.802072 
L 698.017074 -233.585339 
L 695.615535 -233.365879 
L 693.213996 -233.133852 
L 690.812457 -232.94422 
L 688.410918 -232.759789 
L 686.009379 -232.576107 
L 683.60784 -232.44345 
L 681.206301 -232.345753 
L 678.804761 -232.304874 
L 676.403222 -232.266561 
L 674.001683 -232.258654 
L 671.600144 -232.27387 
L 669.198605 -232.328241 
L 666.797066 -232.350338 
L 664.395527 -232.36877 
L 661.993988 -232.397279 
L 659.592449 -232.428385 
L 657.19091 -232.472494 
L 654.789371 -232.513698 
L 652.387832 -232.542028 
L 649.986293 -232.583845 
L 647.584753 -232.665216 
L 645.183214 -232.757491 
L 642.781675 -232.841365 
L 640.380136 -232.924485 
L 637.978597 -233.003024 
L 635.577058 -233.050557 
L 633.175519 -233.089543 
L 630.77398 -233.122022 
L 628.372441 -233.12751 
L 625.970902 -233.137214 
L 623.569363 -233.133635 
L 621.167824 -233.107457 
L 618.766285 -233.113557 
L 616.364745 -233.137548 
L 613.963206 -233.105397 
L 611.561667 -233.060059 
L 609.160128 -233.006071 
L 606.758589 -232.980474 
L 604.35705 -233.004501 
L 601.955511 -233.016383 
L 599.553972 -233.016234 
L 597.152433 -233.037709 
L 594.750894 -233.047885 
L 592.349355 -233.049437 
L 589.947816 -233.088326 
L 587.546277 -233.117915 
L 585.144737 -233.139351 
L 582.743198 -233.1217 
L 580.341659 -233.135147 
L 577.94012 -233.144671 
L 575.538581 -233.139719 
L 573.137042 -233.161466 
L 570.735503 -233.13497 
L 568.333964 -233.083645 
L 565.932425 -233.056655 
L 563.530886 -233.065548 
L 561.129347 -233.100509 
L 558.727808 -233.115561 
L 556.326268 -233.101532 
L 553.924729 -233.087608 
L 551.52319 -233.084135 
L 549.121651 -233.056564 
L 546.720112 -233.023973 
L 544.318573 -232.994043 
L 541.917034 -232.948408 
L 539.515495 -232.945867 
L 537.113956 -232.931841 
L 534.712417 -232.948238 
L 532.310878 -232.963692 
L 529.909339 -232.990727 
L 527.5078 -233.001149 
L 525.10626 -233.006606 
L 522.704721 -233.062678 
L 520.303182 -233.130387 
L 517.901643 -233.212866 
L 515.500104 -233.268884 
L 513.098565 -233.396003 
L 510.697026 -233.526777 
L 508.295487 -233.691999 
L 505.893948 -233.906896 
L 503.492409 -234.081233 
L 501.09087 -234.260491 
L 498.689331 -234.424714 
L 496.287792 -234.640403 
L 493.886252 -234.826607 
L 491.484713 -235.022004 
L 489.083174 -235.202303 
L 486.681635 -235.393351 
L 484.280096 -235.638114 
L 481.878557 -235.862653 
L 479.477018 -236.137306 
L 477.075479 -236.423207 
L 474.67394 -236.679923 
L 472.272401 -236.951524 
L 469.870862 -237.193119 
L 467.469323 -237.489105 
L 465.067784 -237.840922 
L 462.666244 -238.216502 
L 460.264705 -238.591926 
L 457.863166 -238.961196 
L 455.461627 -239.34818 
L 453.060088 -239.739798 
L 450.658549 -240.160067 
L 448.25701 -240.545307 
L 445.855471 -240.93384 
L 443.453932 -241.333374 
L 441.052393 -241.782033 
L 438.650854 -242.27791 
L 436.249315 -242.719564 
L 433.847776 -243.20266 
L 431.446236 -243.752282 
L 429.044697 -244.32801 
L 426.643158 -244.861573 
L 424.241619 -245.48514 
L 421.84008 -246.219478 
L 419.438541 -246.909056 
L 417.037002 -247.535831 
L 414.635463 -248.156565 
L 412.233924 -248.819651 
L 409.832385 -249.564801 
L 407.430846 -250.373674 
L 405.029307 -251.241913 
L 402.627768 -252.083438 
L 400.226228 -252.944546 
L 397.824689 -253.842089 
L 395.42315 -254.728665 
L 393.021611 -255.654493 
L 390.620072 -256.538579 
L 388.218533 -257.419312 
L 385.816994 -258.293196 
L 383.415455 -259.084338 
L 381.013916 -259.85239 
L 378.612377 -260.728312 
L 376.210838 -261.5679 
L 373.809299 -262.178983 
L 371.407759 -262.82823 
L 369.00622 -263.472173 
L 366.604681 -264.113367 
L 364.203142 -264.755735 
L 361.801603 -265.392313 
L 359.400064 -266.058036 
L 356.998525 -266.713203 
L 354.596986 -267.389952 
L 352.195447 -268.098419 
L 349.793908 -268.85101 
L 347.392369 -269.704216 
L 344.99083 -270.592094 
L 342.589291 -271.504372 
L 340.187751 -272.461367 
L 337.786212 -273.411439 
L 335.384673 -274.305952 
L 332.983134 -275.305375 
L 330.581595 -276.305876 
L 328.180056 -277.320158 
L 325.778517 -278.38566 
L 323.376978 -279.455111 
L 320.975439 -280.450706 
L 318.5739 -281.556265 
L 316.172361 -282.7079 
L 313.770822 -283.902253 
L 311.369283 -285.027344 
L 308.967743 -286.309658 
L 306.566204 -287.663501 
L 304.164665 -289.144102 
L 301.763126 -290.582035 
L 299.361587 -292.01031 
L 296.960048 -293.569942 
L 294.558509 -295.336547 
L 292.15697 -297.166685 
L 289.755431 -299.059873 
L 287.353892 -300.971784 
L 284.952353 -302.959129 
L 282.550814 -304.997064 
L 280.149275 -307.133223 
L 277.747735 -309.38892 
L 275.346196 -312.240871 
L 272.944657 -315.074102 
L 270.543118 -317.562605 
L 268.141579 -320.128969 
L 265.74004 -322.669301 
L 263.338501 -325.248084 
L 260.936962 -327.972174 
L 258.535423 -330.644799 
L 256.133884 -333.337245 
L 253.732345 -336.389586 
L 251.330806 -339.466109 
L 248.929267 -342.627056 
L 246.527727 -345.920814 
L 244.126188 -349.123881 
L 241.724649 -352.324719 
L 239.32311 -355.37999 
L 236.921571 -358.43911 
L 234.520032 -361.540322 
L 232.118493 -364.849259 
L 229.716954 -368.3924 
L 227.315415 -371.490192 
L 224.913876 -374.694109 
L 222.512337 -378.020681 
L 220.110798 -381.348236 
L 217.709259 -384.770954 
L 215.307719 -388.294537 
L 212.90618 -391.953805 
L 210.504641 -395.589574 
L 208.103102 -399.293474 
L 205.701563 -403.006128 
L 203.300024 -406.753947 
L 200.898485 -410.325419 
L 198.496946 -414.004883 
L 196.095407 -417.648469 
L 193.693868 -421.252482 
L 191.292329 -424.714124 
L 188.89079 -428.012518 
L 186.48925 -431.211094 
L 184.087711 -434.32751 
L 181.686172 -437.303784 
L 179.284633 -440.201055 
L 176.883094 -442.89749 
L 174.481555 -445.438901 
L 172.080016 -447.947106 
L 169.678477 -450.286749 
L 167.276938 -452.531727 
z
" style="stroke: #f47100; stroke-opacity: 0.2"/>
    </defs>
    <g clip-path="url(#pec88938f64)">
     <use xlink:href="#m5c1bfd1738" x="0" y="600" style="fill: #f47100; fill-opacity: 0.2; stroke: #f47100; stroke-opacity: 0.2"/>
    </g>
   </g>
   <g id="PolyCollection_4">
    <defs>
     <path id="m1976747e2e" d="M 116.844617 -486.783916 
L 116.844617 -480.263258 
L 119.246156 -479.491949 
L 121.647695 -478.843568 
L 124.049234 -478.138569 
L 126.450774 -477.314847 
L 128.852313 -476.492292 
L 131.253852 -475.69769 
L 133.655391 -475.014279 
L 136.05693 -474.277255 
L 138.458469 -473.571329 
L 140.860008 -472.828691 
L 143.261547 -471.47822 
L 145.663086 -469.994465 
L 148.064625 -468.358023 
L 150.466164 -466.5382 
L 152.867703 -464.602713 
L 155.269242 -462.68644 
L 157.670782 -460.795907 
L 160.072321 -458.820163 
L 162.47386 -456.780897 
L 164.875399 -454.648 
L 164.875399 -454.648 
L 164.875399 -454.648 
L 162.47386 -457.337491 
L 160.072321 -459.964646 
L 157.670782 -462.44903 
L 155.269242 -464.761286 
L 152.867703 -466.981289 
L 150.466164 -469.196351 
L 148.064625 -471.275137 
L 145.663086 -473.37427 
L 143.261547 -475.362005 
L 140.860008 -477.324626 
L 138.458469 -478.416655 
L 136.05693 -479.4845 
L 133.655391 -480.523373 
L 131.253852 -481.486121 
L 128.852313 -482.502079 
L 126.450774 -483.513748 
L 124.049234 -484.455451 
L 121.647695 -485.311123 
L 119.246156 -486.125694 
L 116.844617 -486.783916 
z
" style="stroke: #000000; stroke-opacity: 0.2"/>
    </defs>
    <g clip-path="url(#pec88938f64)">
     <use xlink:href="#m1976747e2e" x="0" y="600" style="fill-opacity: 0.2; stroke: #000000; stroke-opacity: 0.2"/>
    </g>
   </g>
   <g id="PolyCollection_5">
    <defs>
     <path id="m5d716119f6" d="M 167.276938 -452.379548 
L 167.276938 -451.384149 
L 169.678477 -448.015685 
L 172.080016 -444.469276 
L 174.481555 -440.775035 
L 176.883094 -437.010563 
L 179.284633 -433.145673 
L 181.686172 -429.156445 
L 184.087711 -425.035095 
L 186.48925 -420.905643 
L 188.89079 -416.755084 
L 191.292329 -412.52665 
L 193.693868 -408.356462 
L 196.095407 -403.94278 
L 198.496946 -399.105265 
L 200.898485 -394.311663 
L 203.300024 -389.897314 
L 205.701563 -385.611176 
L 208.103102 -381.309569 
L 210.504641 -377.116359 
L 212.90618 -372.987059 
L 215.307719 -368.758471 
L 217.709259 -364.441106 
L 220.110798 -360.209023 
L 222.512337 -356.086333 
L 224.913876 -352.028493 
L 227.315415 -347.879403 
L 229.716954 -343.755568 
L 232.118493 -339.750549 
L 234.520032 -335.79745 
L 236.921571 -331.854536 
L 239.32311 -327.949048 
L 241.724649 -324.184257 
L 244.126188 -320.493285 
L 246.527727 -316.898189 
L 248.929267 -313.418069 
L 251.330806 -310.027574 
L 253.732345 -306.677682 
L 256.133884 -302.879105 
L 258.535423 -299.086719 
L 260.936962 -295.415601 
L 263.338501 -291.815518 
L 265.74004 -288.282768 
L 268.141579 -284.6829 
L 270.543118 -281.178336 
L 272.944657 -277.712513 
L 275.346196 -274.262316 
L 277.747735 -270.992235 
L 280.149275 -268.401882 
L 282.550814 -265.901576 
L 284.952353 -263.477139 
L 287.353892 -260.913493 
L 289.755431 -257.766774 
L 292.15697 -254.804239 
L 294.558509 -252.022384 
L 296.960048 -249.308037 
L 299.361587 -246.881255 
L 301.763126 -244.551571 
L 304.164665 -242.254566 
L 306.566204 -240.068477 
L 308.967743 -237.927071 
L 311.369283 -236.053286 
L 313.770822 -234.324707 
L 316.172361 -232.683775 
L 318.5739 -231.107801 
L 320.975439 -229.618011 
L 323.376978 -228.15467 
L 325.778517 -226.771227 
L 328.180056 -225.472335 
L 330.581595 -224.063232 
L 332.983134 -222.279015 
L 335.384673 -220.433266 
L 337.786212 -218.653775 
L 340.187751 -216.889371 
L 342.589291 -215.133038 
L 344.99083 -213.406153 
L 347.392369 -211.708672 
L 349.793908 -210.092516 
L 352.195447 -208.535331 
L 354.596986 -207.05293 
L 356.998525 -205.5752 
L 359.400064 -204.106647 
L 361.801603 -202.771085 
L 364.203142 -201.529162 
L 366.604681 -200.265549 
L 369.00622 -199.014104 
L 371.407759 -197.80757 
L 373.809299 -196.62189 
L 376.210838 -195.416347 
L 378.612377 -194.200867 
L 381.013916 -192.974359 
L 383.415455 -191.873136 
L 385.816994 -190.791465 
L 388.218533 -189.815202 
L 390.620072 -188.791841 
L 393.021611 -187.797902 
L 395.42315 -186.815059 
L 397.824689 -185.979886 
L 400.226228 -185.321498 
L 402.627768 -184.801796 
L 405.029307 -184.271207 
L 407.430846 -183.742484 
L 409.832385 -183.237651 
L 412.233924 -182.805415 
L 414.635463 -182.355674 
L 417.037002 -181.934611 
L 419.438541 -181.517605 
L 421.84008 -181.158676 
L 424.241619 -180.623954 
L 426.643158 -179.602343 
L 429.044697 -178.583564 
L 431.446236 -177.568636 
L 433.847776 -176.570888 
L 436.249315 -175.573951 
L 438.650854 -174.575536 
L 441.052393 -173.591396 
L 443.453932 -172.616116 
L 445.855471 -171.634412 
L 448.25701 -170.707601 
L 450.658549 -169.985861 
L 453.060088 -169.210352 
L 455.461627 -168.443808 
L 457.863166 -167.678299 
L 460.264705 -166.83391 
L 462.666244 -166.005952 
L 465.067784 -165.193699 
L 467.469323 -164.400303 
L 469.870862 -163.616116 
L 472.272401 -162.772473 
L 474.67394 -162.110619 
L 477.075479 -161.597686 
L 479.477018 -161.059692 
L 481.878557 -160.50321 
L 484.280096 -159.977307 
L 486.681635 -159.477979 
L 489.083174 -158.992101 
L 491.484713 -158.534338 
L 493.886252 -158.091235 
L 496.287792 -157.673523 
L 498.689331 -157.266068 
L 501.09087 -156.859675 
L 503.492409 -156.469662 
L 505.893948 -156.077938 
L 508.295487 -155.705872 
L 510.697026 -155.316865 
L 513.098565 -154.910187 
L 515.500104 -154.449798 
L 517.901643 -153.892233 
L 520.303182 -153.335196 
L 522.704721 -152.780961 
L 525.10626 -152.295276 
L 527.5078 -152.054895 
L 529.909339 -151.767739 
L 532.310878 -151.475316 
L 534.712417 -151.225168 
L 537.113956 -150.963671 
L 539.515495 -150.69175 
L 541.917034 -150.400401 
L 544.318573 -150.110965 
L 546.720112 -149.66744 
L 549.121651 -149.267812 
L 551.52319 -148.890695 
L 553.924729 -148.555564 
L 556.326268 -148.2487 
L 558.727808 -147.956103 
L 561.129347 -147.646536 
L 563.530886 -147.35374 
L 565.932425 -146.980216 
L 568.333964 -146.620353 
L 570.735503 -146.240976 
L 573.137042 -145.896853 
L 575.538581 -145.535081 
L 577.94012 -145.168156 
L 580.341659 -144.795799 
L 582.743198 -144.450318 
L 585.144737 -144.135187 
L 587.546277 -143.852886 
L 589.947816 -143.594574 
L 592.349355 -143.380742 
L 594.750894 -143.21184 
L 597.152433 -143.008508 
L 599.553972 -142.819451 
L 601.955511 -142.621771 
L 604.35705 -142.435094 
L 606.758589 -142.268767 
L 609.160128 -142.159143 
L 611.561667 -142.03628 
L 613.963206 -141.894098 
L 616.364745 -141.68148 
L 618.766285 -141.486289 
L 621.167824 -141.246588 
L 623.569363 -141.031331 
L 625.970902 -140.853703 
L 628.372441 -140.697149 
L 630.77398 -140.548163 
L 633.175519 -140.362993 
L 635.577058 -140.191124 
L 637.978597 -140.014895 
L 640.380136 -139.787878 
L 642.781675 -139.518125 
L 645.183214 -139.301812 
L 647.584753 -139.120465 
L 649.986293 -138.974069 
L 652.387832 -138.776191 
L 654.789371 -138.5718 
L 657.19091 -138.366686 
L 659.592449 -138.145272 
L 661.993988 -137.919918 
L 664.395527 -137.689328 
L 666.797066 -137.414885 
L 669.198605 -137.136538 
L 671.600144 -136.86276 
L 674.001683 -136.584575 
L 676.403222 -136.311003 
L 678.804761 -136.010382 
L 681.206301 -135.726473 
L 683.60784 -135.430948 
L 686.009379 -135.120888 
L 688.410918 -134.837907 
L 690.812457 -134.539971 
L 693.213996 -134.239976 
L 695.615535 -133.906555 
L 698.017074 -133.53207 
L 700.418613 -133.192947 
L 702.820152 -132.867718 
L 705.221691 -132.513462 
L 707.62323 -132.159893 
L 710.024769 -131.836401 
L 712.426309 -131.51425 
L 714.827848 -131.251776 
L 717.229387 -131.019407 
L 719.630926 -130.777358 
L 722.032465 -130.536003 
L 724.434004 -130.309329 
L 726.835543 -130.125012 
L 729.237082 -129.961907 
L 731.638621 -129.785458 
L 734.04016 -129.622475 
L 736.441699 -129.448929 
L 738.843238 -129.267132 
L 741.244777 -129.053382 
L 743.646317 -128.834226 
L 746.047856 -128.630417 
L 748.449395 -128.433897 
L 750.850934 -128.242966 
L 753.252473 -128.042054 
L 755.654012 -127.85391 
L 758.055551 -127.649127 
L 760.45709 -127.464188 
L 762.858629 -127.260473 
L 765.260168 -127.063019 
L 767.661707 -126.909536 
L 770.063246 -126.778233 
L 772.464786 -126.616274 
L 774.866325 -126.455012 
L 777.267864 -126.264395 
L 779.669403 -126.133597 
L 782.070942 -125.996223 
L 784.472481 -125.880345 
L 786.87402 -125.811439 
L 789.275559 -125.775296 
L 791.677098 -125.779419 
L 794.078637 -125.784205 
L 796.480176 -125.78317 
L 798.881715 -125.788623 
L 801.283254 -125.825756 
L 803.684794 -125.960215 
L 806.086333 -126.065001 
L 808.487872 -126.162665 
L 810.889411 -126.255988 
L 813.29095 -126.354349 
L 815.692489 -126.42757 
L 818.094028 -126.461148 
L 820.495567 -126.522751 
L 822.897106 -126.580545 
L 825.298645 -126.666197 
L 827.700184 -126.715645 
L 830.101723 -126.79429 
L 832.503262 -126.868015 
L 834.904802 -126.951636 
L 837.306341 -127.034399 
L 837.306341 -190.422092 
L 837.306341 -190.422092 
L 834.904802 -190.460717 
L 832.503262 -190.460465 
L 830.101723 -190.441721 
L 827.700184 -190.416625 
L 825.298645 -190.380305 
L 822.897106 -190.376998 
L 820.495567 -190.349337 
L 818.094028 -190.296875 
L 815.692489 -190.23955 
L 813.29095 -190.188096 
L 810.889411 -190.126725 
L 808.487872 -190.067699 
L 806.086333 -189.984698 
L 803.684794 -189.878947 
L 801.283254 -189.79617 
L 798.881715 -189.694505 
L 796.480176 -189.586403 
L 794.078637 -189.469943 
L 791.677098 -189.33563 
L 789.275559 -189.168599 
L 786.87402 -189.004666 
L 784.472481 -188.866804 
L 782.070942 -188.734437 
L 779.669403 -188.616639 
L 777.267864 -188.485683 
L 774.866325 -188.351313 
L 772.464786 -188.264477 
L 770.063246 -188.228913 
L 767.661707 -188.210555 
L 765.260168 -188.178213 
L 762.858629 -188.167622 
L 760.45709 -188.117771 
L 758.055551 -188.105599 
L 755.654012 -188.115082 
L 753.252473 -188.161824 
L 750.850934 -188.196624 
L 748.449395 -188.228699 
L 746.047856 -188.285087 
L 743.646317 -188.359949 
L 741.244777 -188.435398 
L 738.843238 -188.546493 
L 736.441699 -188.619823 
L 734.04016 -188.737824 
L 731.638621 -188.850435 
L 729.237082 -189.009677 
L 726.835543 -189.133152 
L 724.434004 -189.228874 
L 722.032465 -189.32257 
L 719.630926 -189.381001 
L 717.229387 -189.430034 
L 714.827848 -189.49868 
L 712.426309 -189.568581 
L 710.024769 -189.470498 
L 707.62323 -189.368318 
L 705.221691 -189.183389 
L 702.820152 -189.027228 
L 700.418613 -188.893495 
L 698.017074 -188.727137 
L 695.615535 -188.562854 
L 693.213996 -188.380091 
L 690.812457 -188.199893 
L 688.410918 -188.065458 
L 686.009379 -187.940967 
L 683.60784 -187.831917 
L 681.206301 -187.687852 
L 678.804761 -187.581224 
L 676.403222 -187.52189 
L 674.001683 -187.477002 
L 671.600144 -187.402917 
L 669.198605 -187.367576 
L 666.797066 -187.277366 
L 664.395527 -187.169422 
L 661.993988 -187.061529 
L 659.592449 -187.016364 
L 657.19091 -187.045508 
L 654.789371 -187.025686 
L 652.387832 -186.971932 
L 649.986293 -186.90776 
L 647.584753 -186.842695 
L 645.183214 -186.817125 
L 642.781675 -186.753845 
L 640.380136 -186.658271 
L 637.978597 -186.55367 
L 635.577058 -186.46525 
L 633.175519 -186.380857 
L 630.77398 -186.311186 
L 628.372441 -186.192547 
L 625.970902 -186.032578 
L 623.569363 -185.906293 
L 621.167824 -185.735337 
L 618.766285 -185.583482 
L 616.364745 -185.453319 
L 613.963206 -185.345739 
L 611.561667 -185.194042 
L 609.160128 -184.969042 
L 606.758589 -184.765863 
L 604.35705 -184.564909 
L 601.955511 -184.372172 
L 599.553972 -184.191153 
L 597.152433 -183.939642 
L 594.750894 -183.716686 
L 592.349355 -183.510733 
L 589.947816 -183.33021 
L 587.546277 -183.108785 
L 585.144737 -182.872514 
L 582.743198 -182.561431 
L 580.341659 -182.283006 
L 577.94012 -182.021511 
L 575.538581 -181.87965 
L 573.137042 -181.958782 
L 570.735503 -182.016801 
L 568.333964 -182.064112 
L 565.932425 -182.089463 
L 563.530886 -182.135087 
L 561.129347 -182.155669 
L 558.727808 -182.164476 
L 556.326268 -182.120699 
L 553.924729 -182.105218 
L 551.52319 -182.089211 
L 549.121651 -182.078296 
L 546.720112 -182.094841 
L 544.318573 -182.082029 
L 541.917034 -182.085044 
L 539.515495 -182.112106 
L 537.113956 -182.109908 
L 534.712417 -182.095838 
L 532.310878 -182.064036 
L 529.909339 -182.05712 
L 527.5078 -182.068556 
L 525.10626 -182.021285 
L 522.704721 -182.007579 
L 520.303182 -182.017444 
L 517.901643 -182.046722 
L 515.500104 -182.082711 
L 513.098565 -182.145557 
L 510.697026 -182.210735 
L 508.295487 -182.301474 
L 505.893948 -182.379816 
L 503.492409 -182.442848 
L 501.09087 -182.523161 
L 498.689331 -182.61754 
L 496.287792 -182.748896 
L 493.886252 -182.88766 
L 491.484713 -183.014388 
L 489.083174 -183.112881 
L 486.681635 -183.206469 
L 484.280096 -183.340672 
L 481.878557 -183.683049 
L 479.477018 -184.119945 
L 477.075479 -184.491176 
L 474.67394 -184.850146 
L 472.272401 -185.20733 
L 469.870862 -185.57668 
L 467.469323 -185.953945 
L 465.067784 -186.330517 
L 462.666244 -186.751324 
L 460.264705 -187.221844 
L 457.863166 -187.682648 
L 455.461627 -188.217084 
L 453.060088 -188.762007 
L 450.658549 -189.288454 
L 448.25701 -189.824891 
L 445.855471 -190.378235 
L 443.453932 -190.948862 
L 441.052393 -191.513557 
L 438.650854 -192.098034 
L 436.249315 -192.741849 
L 433.847776 -193.528608 
L 431.446236 -194.343746 
L 429.044697 -195.21567 
L 426.643158 -196.127784 
L 424.241619 -196.984523 
L 421.84008 -197.871944 
L 419.438541 -198.770328 
L 417.037002 -199.561616 
L 414.635463 -200.329996 
L 412.233924 -201.0994 
L 409.832385 -201.90633 
L 407.430846 -202.735377 
L 405.029307 -203.568425 
L 402.627768 -204.412737 
L 400.226228 -205.271088 
L 397.824689 -205.966786 
L 395.42315 -206.758533 
L 393.021611 -208.060898 
L 390.620072 -209.416949 
L 388.218533 -210.734892 
L 385.816994 -212.045391 
L 383.415455 -213.34421 
L 381.013916 -214.640068 
L 378.612377 -215.932347 
L 376.210838 -217.302616 
L 373.809299 -218.663264 
L 371.407759 -220.05458 
L 369.00622 -221.468539 
L 366.604681 -223.010325 
L 364.203142 -224.545728 
L 361.801603 -226.061139 
L 359.400064 -227.663882 
L 356.998525 -229.107436 
L 354.596986 -230.435817 
L 352.195447 -231.859389 
L 349.793908 -233.378273 
L 347.392369 -234.47385 
L 344.99083 -236.651206 
L 342.589291 -238.921288 
L 340.187751 -241.248547 
L 337.786212 -243.554615 
L 335.384673 -245.883925 
L 332.983134 -248.279032 
L 330.581595 -250.750748 
L 328.180056 -253.212361 
L 325.778517 -255.734716 
L 323.376978 -258.355695 
L 320.975439 -261.051415 
L 318.5739 -263.742818 
L 316.172361 -266.475867 
L 313.770822 -269.243067 
L 311.369283 -271.92731 
L 308.967743 -274.540137 
L 306.566204 -277.162116 
L 304.164665 -279.769855 
L 301.763126 -282.34459 
L 299.361587 -284.929774 
L 296.960048 -287.465773 
L 294.558509 -289.994614 
L 292.15697 -292.619774 
L 289.755431 -295.203261 
L 287.353892 -297.875972 
L 284.952353 -300.571267 
L 282.550814 -303.390542 
L 280.149275 -306.299509 
L 277.747735 -309.231107 
L 275.346196 -312.200751 
L 272.944657 -315.164035 
L 270.543118 -318.217367 
L 268.141579 -321.361375 
L 265.74004 -324.526437 
L 263.338501 -327.664211 
L 260.936962 -330.831433 
L 258.535423 -334.077413 
L 256.133884 -337.357556 
L 253.732345 -340.579418 
L 251.330806 -343.898984 
L 248.929267 -347.353456 
L 246.527727 -350.851991 
L 244.126188 -354.370289 
L 241.724649 -357.868163 
L 239.32311 -361.324666 
L 236.921571 -364.849323 
L 234.520032 -368.2209 
L 232.118493 -371.67044 
L 229.716954 -375.088455 
L 227.315415 -378.542155 
L 224.913876 -381.987173 
L 222.512337 -385.447625 
L 220.110798 -388.886791 
L 217.709259 -392.366768 
L 215.307719 -395.914601 
L 212.90618 -399.332074 
L 210.504641 -402.603485 
L 208.103102 -405.767582 
L 205.701563 -408.988142 
L 203.300024 -412.153601 
L 200.898485 -415.245182 
L 198.496946 -418.262719 
L 196.095407 -421.217901 
L 193.693868 -424.136342 
L 191.292329 -426.977709 
L 188.89079 -429.846138 
L 186.48925 -432.680761 
L 184.087711 -435.401467 
L 181.686172 -438.054584 
L 179.284633 -440.594769 
L 176.883094 -443.100585 
L 174.481555 -445.470552 
L 172.080016 -447.839332 
L 169.678477 -450.151262 
L 167.276938 -452.379548 
z
" style="stroke: #d01e04; stroke-opacity: 0.2"/>
    </defs>
    <g clip-path="url(#pec88938f64)">
     <use xlink:href="#m5d716119f6" x="0" y="600" style="fill: #d01e04; fill-opacity: 0.2; stroke: #d01e04; stroke-opacity: 0.2"/>
    </g>
   </g>
   <g id="PolyCollection_6">
    <defs>
     <path id="m914f000525" d="M 116.844617 -488.766327 
L 116.844617 -481.474194 
L 119.246156 -480.700516 
L 121.647695 -480.050128 
L 124.049234 -479.342934 
L 126.450774 -478.516649 
L 128.852313 -477.691533 
L 131.253852 -476.894465 
L 133.655391 -476.208899 
L 136.05693 -475.469586 
L 138.458469 -474.761477 
L 140.860008 -474.016552 
L 143.261547 -472.661932 
L 145.663086 -471.191612 
L 148.064625 -469.661433 
L 150.466164 -467.730571 
L 152.867703 -465.681343 
L 155.269242 -463.640907 
L 157.670782 -461.425786 
L 160.072321 -459.203961 
L 162.47386 -456.925999 
L 164.875399 -454.648 
L 164.875399 -454.648 
L 164.875399 -454.648 
L 162.47386 -457.786594 
L 160.072321 -460.839963 
L 157.670782 -463.705383 
L 155.269242 -466.48983 
L 152.867703 -468.957992 
L 150.466164 -471.345959 
L 148.064625 -473.60949 
L 145.663086 -475.766612 
L 143.261547 -477.831568 
L 140.860008 -479.741397 
L 138.458469 -480.816162 
L 136.05693 -481.83786 
L 133.655391 -482.802558 
L 131.253852 -483.716019 
L 128.852313 -484.653791 
L 126.450774 -485.563693 
L 124.049234 -486.307934 
L 121.647695 -487.24308 
L 119.246156 -487.936252 
L 116.844617 -488.766327 
z
" style="stroke: #000000; stroke-opacity: 0.2"/>
    </defs>
    <g clip-path="url(#pec88938f64)">
     <use xlink:href="#m914f000525" x="0" y="600" style="fill-opacity: 0.2; stroke: #000000; stroke-opacity: 0.2"/>
    </g>
   </g>
   <g id="matplotlib.axis_1">
    <g id="xtick_1">
     <g id="line2d_1">
      <defs>
       <path id="md60059e765" d="M 0 0 
L 0 3.5 
" style="stroke: #000000; stroke-width: 0.8"/>
      </defs>
      <g>
       <use xlink:href="#md60059e765" x="164.875399" y="515.56" style="stroke: #000000; stroke-width: 0.8"/>
      </g>
     </g>
     <g id="text_1">
      <!-- 2020 -->
      <g transform="translate(131.790399 542.315938)scale(0.26 -0.26)">
       <defs>
        <path id="DejaVuSans-32" d="M 1228 531 
L 3431 531 
L 3431 0 
L 469 0 
L 469 531 
Q 828 903 1448 1529 
Q 2069 2156 2228 2338 
Q 2531 2678 2651 2914 
Q 2772 3150 2772 3378 
Q 2772 3750 2511 3984 
Q 2250 4219 1831 4219 
Q 1534 4219 1204 4116 
Q 875 4013 500 3803 
L 500 4441 
Q 881 4594 1212 4672 
Q 1544 4750 1819 4750 
Q 2544 4750 2975 4387 
Q 3406 4025 3406 3419 
Q 3406 3131 3298 2873 
Q 3191 2616 2906 2266 
Q 2828 2175 2409 1742 
Q 1991 1309 1228 531 
z
" transform="scale(0.015625)"/>
        <path id="DejaVuSans-30" d="M 2034 4250 
Q 1547 4250 1301 3770 
Q 1056 3291 1056 2328 
Q 1056 1369 1301 889 
Q 1547 409 2034 409 
Q 2525 409 2770 889 
Q 3016 1369 3016 2328 
Q 3016 3291 2770 3770 
Q 2525 4250 2034 4250 
z
M 2034 4750 
Q 2819 4750 3233 4129 
Q 3647 3509 3647 2328 
Q 3647 1150 3233 529 
Q 2819 -91 2034 -91 
Q 1250 -91 836 529 
Q 422 1150 422 2328 
Q 422 3509 836 4129 
Q 1250 4750 2034 4750 
z
" transform="scale(0.015625)"/>
       </defs>
       <use xlink:href="#DejaVuSans-32"/>
       <use xlink:href="#DejaVuSans-30" x="63.623047"/>
       <use xlink:href="#DejaVuSans-32" x="127.246094"/>
       <use xlink:href="#DejaVuSans-30" x="190.869141"/>
      </g>
     </g>
    </g>
    <g id="xtick_2">
     <g id="line2d_2">
      <g>
       <use xlink:href="#md60059e765" x="356.998525" y="515.56" style="stroke: #000000; stroke-width: 0.8"/>
      </g>
     </g>
     <g id="text_2">
      <!-- 2100 -->
      <g transform="translate(323.913525 542.315938)scale(0.26 -0.26)">
       <defs>
        <path id="DejaVuSans-31" d="M 794 531 
L 1825 531 
L 1825 4091 
L 703 3866 
L 703 4441 
L 1819 4666 
L 2450 4666 
L 2450 531 
L 3481 531 
L 3481 0 
L 794 0 
L 794 531 
z
" transform="scale(0.015625)"/>
       </defs>
       <use xlink:href="#DejaVuSans-32"/>
       <use xlink:href="#DejaVuSans-31" x="63.623047"/>
       <use xlink:href="#DejaVuSans-30" x="127.246094"/>
       <use xlink:href="#DejaVuSans-30" x="190.869141"/>
      </g>
     </g>
    </g>
    <g id="xtick_3">
     <g id="line2d_3">
      <g>
       <use xlink:href="#md60059e765" x="597.152433" y="515.56" style="stroke: #000000; stroke-width: 0.8"/>
      </g>
     </g>
     <g id="text_3">
      <!-- 2200 -->
      <g transform="translate(564.067433 542.315938)scale(0.26 -0.26)">
       <use xlink:href="#DejaVuSans-32"/>
       <use xlink:href="#DejaVuSans-32" x="63.623047"/>
       <use xlink:href="#DejaVuSans-30" x="127.246094"/>
       <use xlink:href="#DejaVuSans-30" x="190.869141"/>
      </g>
     </g>
    </g>
    <g id="xtick_4">
     <g id="line2d_4">
      <g>
       <use xlink:href="#md60059e765" x="837.306341" y="515.56" style="stroke: #000000; stroke-width: 0.8"/>
      </g>
     </g>
     <g id="text_4">
      <!-- 2300 -->
      <g transform="translate(804.221341 542.315938)scale(0.26 -0.26)">
       <defs>
        <path id="DejaVuSans-33" d="M 2597 2516 
Q 3050 2419 3304 2112 
Q 3559 1806 3559 1356 
Q 3559 666 3084 287 
Q 2609 -91 1734 -91 
Q 1441 -91 1130 -33 
Q 819 25 488 141 
L 488 750 
Q 750 597 1062 519 
Q 1375 441 1716 441 
Q 2309 441 2620 675 
Q 2931 909 2931 1356 
Q 2931 1769 2642 2001 
Q 2353 2234 1838 2234 
L 1294 2234 
L 1294 2753 
L 1863 2753 
Q 2328 2753 2575 2939 
Q 2822 3125 2822 3475 
Q 2822 3834 2567 4026 
Q 2313 4219 1838 4219 
Q 1578 4219 1281 4162 
Q 984 4106 628 3988 
L 628 4550 
Q 988 4650 1302 4700 
Q 1616 4750 1894 4750 
Q 2613 4750 3031 4423 
Q 3450 4097 3450 3541 
Q 3450 3153 3228 2886 
Q 3006 2619 2597 2516 
z
" transform="scale(0.015625)"/>
       </defs>
       <use xlink:href="#DejaVuSans-32"/>
       <use xlink:href="#DejaVuSans-33" x="63.623047"/>
       <use xlink:href="#DejaVuSans-30" x="127.246094"/>
       <use xlink:href="#DejaVuSans-30" x="190.869141"/>
      </g>
     </g>
    </g>
    <g id="text_5">
     <!-- Year -->
     <g transform="translate(457.010409 568.439687)scale(0.22 -0.22)">
      <defs>
       <path id="DejaVuSans-Bold-59" d="M -63 4666 
L 1253 4666 
L 2316 3003 
L 3378 4666 
L 4697 4666 
L 2919 1966 
L 2919 0 
L 1716 0 
L 1716 1966 
L -63 4666 
z
" transform="scale(0.015625)"/>
       <path id="DejaVuSans-Bold-65" d="M 4031 1759 
L 4031 1441 
L 1416 1441 
Q 1456 1047 1700 850 
Q 1944 653 2381 653 
Q 2734 653 3104 758 
Q 3475 863 3866 1075 
L 3866 213 
Q 3469 63 3072 -14 
Q 2675 -91 2278 -91 
Q 1328 -91 801 392 
Q 275 875 275 1747 
Q 275 2603 792 3093 
Q 1309 3584 2216 3584 
Q 3041 3584 3536 3087 
Q 4031 2591 4031 1759 
z
M 2881 2131 
Q 2881 2450 2695 2645 
Q 2509 2841 2209 2841 
Q 1884 2841 1681 2658 
Q 1478 2475 1428 2131 
L 2881 2131 
z
" transform="scale(0.015625)"/>
       <path id="DejaVuSans-Bold-61" d="M 2106 1575 
Q 1756 1575 1579 1456 
Q 1403 1338 1403 1106 
Q 1403 894 1545 773 
Q 1688 653 1941 653 
Q 2256 653 2472 879 
Q 2688 1106 2688 1447 
L 2688 1575 
L 2106 1575 
z
M 3816 1997 
L 3816 0 
L 2688 0 
L 2688 519 
Q 2463 200 2181 54 
Q 1900 -91 1497 -91 
Q 953 -91 614 226 
Q 275 544 275 1050 
Q 275 1666 698 1953 
Q 1122 2241 2028 2241 
L 2688 2241 
L 2688 2328 
Q 2688 2594 2478 2717 
Q 2269 2841 1825 2841 
Q 1466 2841 1156 2769 
Q 847 2697 581 2553 
L 581 3406 
Q 941 3494 1303 3539 
Q 1666 3584 2028 3584 
Q 2975 3584 3395 3211 
Q 3816 2838 3816 1997 
z
" transform="scale(0.015625)"/>
       <path id="DejaVuSans-Bold-72" d="M 3138 2547 
Q 2991 2616 2845 2648 
Q 2700 2681 2553 2681 
Q 2122 2681 1889 2404 
Q 1656 2128 1656 1613 
L 1656 0 
L 538 0 
L 538 3500 
L 1656 3500 
L 1656 2925 
Q 1872 3269 2151 3426 
Q 2431 3584 2822 3584 
Q 2878 3584 2943 3579 
Q 3009 3575 3134 3559 
L 3138 2547 
z
" transform="scale(0.015625)"/>
      </defs>
      <use xlink:href="#DejaVuSans-Bold-59"/>
      <use xlink:href="#DejaVuSans-Bold-65" x="63.287109"/>
      <use xlink:href="#DejaVuSans-Bold-61" x="131.109375"/>
      <use xlink:href="#DejaVuSans-Bold-72" x="198.589844"/>
     </g>
    </g>
   </g>
   <g id="matplotlib.axis_2">
    <g id="ytick_1">
     <g id="line2d_5">
      <defs>
       <path id="m0a62c20cfd" d="M 0 0 
L -3.5 0 
" style="stroke: #000000; stroke-width: 0.8"/>
      </defs>
      <g>
       <use xlink:href="#m0a62c20cfd" x="109.64" y="515.56" style="stroke: #000000; stroke-width: 0.8"/>
      </g>
     </g>
     <g id="text_6">
      <!-- 0 -->
      <g transform="translate(86.0975 525.437969)scale(0.26 -0.26)">
       <use xlink:href="#DejaVuSans-30"/>
      </g>
     </g>
    </g>
    <g id="ytick_2">
     <g id="line2d_6">
      <g>
       <use xlink:href="#m0a62c20cfd" x="109.64" y="441.5184" style="stroke: #000000; stroke-width: 0.8"/>
      </g>
     </g>
     <g id="text_7">
      <!-- 20 -->
      <g transform="translate(69.555 451.396369)scale(0.26 -0.26)">
       <use xlink:href="#DejaVuSans-32"/>
       <use xlink:href="#DejaVuSans-30" x="63.623047"/>
      </g>
     </g>
    </g>
    <g id="ytick_3">
     <g id="line2d_7">
      <g>
       <use xlink:href="#m0a62c20cfd" x="109.64" y="367.4768" style="stroke: #000000; stroke-width: 0.8"/>
      </g>
     </g>
     <g id="text_8">
      <!-- 40 -->
      <g transform="translate(69.555 377.354769)scale(0.26 -0.26)">
       <defs>
        <path id="DejaVuSans-34" d="M 2419 4116 
L 825 1625 
L 2419 1625 
L 2419 4116 
z
M 2253 4666 
L 3047 4666 
L 3047 1625 
L 3713 1625 
L 3713 1100 
L 3047 1100 
L 3047 0 
L 2419 0 
L 2419 1100 
L 313 1100 
L 313 1709 
L 2253 4666 
z
" transform="scale(0.015625)"/>
       </defs>
       <use xlink:href="#DejaVuSans-34"/>
       <use xlink:href="#DejaVuSans-30" x="63.623047"/>
      </g>
     </g>
    </g>
    <g id="ytick_4">
     <g id="line2d_8">
      <g>
       <use xlink:href="#m0a62c20cfd" x="109.64" y="293.4352" style="stroke: #000000; stroke-width: 0.8"/>
      </g>
     </g>
     <g id="text_9">
      <!-- 60 -->
      <g transform="translate(69.555 303.313169)scale(0.26 -0.26)">
       <defs>
        <path id="DejaVuSans-36" d="M 2113 2584 
Q 1688 2584 1439 2293 
Q 1191 2003 1191 1497 
Q 1191 994 1439 701 
Q 1688 409 2113 409 
Q 2538 409 2786 701 
Q 3034 994 3034 1497 
Q 3034 2003 2786 2293 
Q 2538 2584 2113 2584 
z
M 3366 4563 
L 3366 3988 
Q 3128 4100 2886 4159 
Q 2644 4219 2406 4219 
Q 1781 4219 1451 3797 
Q 1122 3375 1075 2522 
Q 1259 2794 1537 2939 
Q 1816 3084 2150 3084 
Q 2853 3084 3261 2657 
Q 3669 2231 3669 1497 
Q 3669 778 3244 343 
Q 2819 -91 2113 -91 
Q 1303 -91 875 529 
Q 447 1150 447 2328 
Q 447 3434 972 4092 
Q 1497 4750 2381 4750 
Q 2619 4750 2861 4703 
Q 3103 4656 3366 4563 
z
" transform="scale(0.015625)"/>
       </defs>
       <use xlink:href="#DejaVuSans-36"/>
       <use xlink:href="#DejaVuSans-30" x="63.623047"/>
      </g>
     </g>
    </g>
    <g id="ytick_5">
     <g id="line2d_9">
      <g>
       <use xlink:href="#m0a62c20cfd" x="109.64" y="219.3936" style="stroke: #000000; stroke-width: 0.8"/>
      </g>
     </g>
     <g id="text_10">
      <!-- 80 -->
      <g transform="translate(69.555 229.271569)scale(0.26 -0.26)">
       <defs>
        <path id="DejaVuSans-38" d="M 2034 2216 
Q 1584 2216 1326 1975 
Q 1069 1734 1069 1313 
Q 1069 891 1326 650 
Q 1584 409 2034 409 
Q 2484 409 2743 651 
Q 3003 894 3003 1313 
Q 3003 1734 2745 1975 
Q 2488 2216 2034 2216 
z
M 1403 2484 
Q 997 2584 770 2862 
Q 544 3141 544 3541 
Q 544 4100 942 4425 
Q 1341 4750 2034 4750 
Q 2731 4750 3128 4425 
Q 3525 4100 3525 3541 
Q 3525 3141 3298 2862 
Q 3072 2584 2669 2484 
Q 3125 2378 3379 2068 
Q 3634 1759 3634 1313 
Q 3634 634 3220 271 
Q 2806 -91 2034 -91 
Q 1263 -91 848 271 
Q 434 634 434 1313 
Q 434 1759 690 2068 
Q 947 2378 1403 2484 
z
M 1172 3481 
Q 1172 3119 1398 2916 
Q 1625 2713 2034 2713 
Q 2441 2713 2670 2916 
Q 2900 3119 2900 3481 
Q 2900 3844 2670 4047 
Q 2441 4250 2034 4250 
Q 1625 4250 1398 4047 
Q 1172 3844 1172 3481 
z
" transform="scale(0.015625)"/>
       </defs>
       <use xlink:href="#DejaVuSans-38"/>
       <use xlink:href="#DejaVuSans-30" x="63.623047"/>
      </g>
     </g>
    </g>
    <g id="ytick_6">
     <g id="line2d_10">
      <g>
       <use xlink:href="#m0a62c20cfd" x="109.64" y="145.352" style="stroke: #000000; stroke-width: 0.8"/>
      </g>
     </g>
     <g id="text_11">
      <!-- 100 -->
      <g transform="translate(53.0125 155.229969)scale(0.26 -0.26)">
       <use xlink:href="#DejaVuSans-31"/>
       <use xlink:href="#DejaVuSans-30" x="63.623047"/>
       <use xlink:href="#DejaVuSans-30" x="127.246094"/>
      </g>
     </g>
    </g>
    <g id="ytick_7">
     <g id="line2d_11">
      <g>
       <use xlink:href="#m0a62c20cfd" x="109.64" y="71.3104" style="stroke: #000000; stroke-width: 0.8"/>
      </g>
     </g>
     <g id="text_12">
      <!-- 120 -->
      <g transform="translate(53.0125 81.188369)scale(0.26 -0.26)">
       <use xlink:href="#DejaVuSans-31"/>
       <use xlink:href="#DejaVuSans-32" x="63.623047"/>
       <use xlink:href="#DejaVuSans-30" x="127.246094"/>
      </g>
     </g>
    </g>
    <g id="text_13">
     <!-- % of Remaining Glacier Mass -->
     <g transform="translate(44.265313 463.619219)rotate(-90)scale(0.22 -0.22)">
      <defs>
       <path id="DejaVuSans-Bold-25" d="M 4959 1925 
Q 4738 1925 4616 1733 
Q 4494 1541 4494 1184 
Q 4494 825 4614 633 
Q 4734 441 4959 441 
Q 5184 441 5303 633 
Q 5422 825 5422 1184 
Q 5422 1541 5301 1733 
Q 5181 1925 4959 1925 
z
M 4959 2450 
Q 5541 2450 5875 2112 
Q 6209 1775 6209 1184 
Q 6209 594 5875 251 
Q 5541 -91 4959 -91 
Q 4378 -91 4042 251 
Q 3706 594 3706 1184 
Q 3706 1772 4042 2111 
Q 4378 2450 4959 2450 
z
M 2094 -91 
L 1403 -91 
L 4319 4750 
L 5013 4750 
L 2094 -91 
z
M 1453 4750 
Q 2034 4750 2367 4411 
Q 2700 4072 2700 3481 
Q 2700 2891 2367 2550 
Q 2034 2209 1453 2209 
Q 872 2209 539 2550 
Q 206 2891 206 3481 
Q 206 4072 539 4411 
Q 872 4750 1453 4750 
z
M 1453 4225 
Q 1228 4225 1106 4031 
Q 984 3838 984 3481 
Q 984 3122 1106 2926 
Q 1228 2731 1453 2731 
Q 1678 2731 1798 2926 
Q 1919 3122 1919 3481 
Q 1919 3838 1797 4031 
Q 1675 4225 1453 4225 
z
" transform="scale(0.015625)"/>
       <path id="DejaVuSans-Bold-20" transform="scale(0.015625)"/>
       <path id="DejaVuSans-Bold-6f" d="M 2203 2784 
Q 1831 2784 1636 2517 
Q 1441 2250 1441 1747 
Q 1441 1244 1636 976 
Q 1831 709 2203 709 
Q 2569 709 2762 976 
Q 2956 1244 2956 1747 
Q 2956 2250 2762 2517 
Q 2569 2784 2203 2784 
z
M 2203 3584 
Q 3106 3584 3614 3096 
Q 4122 2609 4122 1747 
Q 4122 884 3614 396 
Q 3106 -91 2203 -91 
Q 1297 -91 786 396 
Q 275 884 275 1747 
Q 275 2609 786 3096 
Q 1297 3584 2203 3584 
z
" transform="scale(0.015625)"/>
       <path id="DejaVuSans-Bold-66" d="M 2841 4863 
L 2841 4128 
L 2222 4128 
Q 1984 4128 1890 4042 
Q 1797 3956 1797 3744 
L 1797 3500 
L 2753 3500 
L 2753 2700 
L 1797 2700 
L 1797 0 
L 678 0 
L 678 2700 
L 122 2700 
L 122 3500 
L 678 3500 
L 678 3744 
Q 678 4316 997 4589 
Q 1316 4863 1984 4863 
L 2841 4863 
z
" transform="scale(0.015625)"/>
       <path id="DejaVuSans-Bold-52" d="M 2297 2597 
Q 2675 2597 2839 2737 
Q 3003 2878 3003 3200 
Q 3003 3519 2839 3656 
Q 2675 3794 2297 3794 
L 1791 3794 
L 1791 2597 
L 2297 2597 
z
M 1791 1766 
L 1791 0 
L 588 0 
L 588 4666 
L 2425 4666 
Q 3347 4666 3776 4356 
Q 4206 4047 4206 3378 
Q 4206 2916 3982 2619 
Q 3759 2322 3309 2181 
Q 3556 2125 3751 1926 
Q 3947 1728 4147 1325 
L 4800 0 
L 3519 0 
L 2950 1159 
Q 2778 1509 2601 1637 
Q 2425 1766 2131 1766 
L 1791 1766 
z
" transform="scale(0.015625)"/>
       <path id="DejaVuSans-Bold-6d" d="M 3781 2919 
Q 3994 3244 4286 3414 
Q 4578 3584 4928 3584 
Q 5531 3584 5847 3212 
Q 6163 2841 6163 2131 
L 6163 0 
L 5038 0 
L 5038 1825 
Q 5041 1866 5042 1909 
Q 5044 1953 5044 2034 
Q 5044 2406 4934 2573 
Q 4825 2741 4581 2741 
Q 4263 2741 4089 2478 
Q 3916 2216 3909 1719 
L 3909 0 
L 2784 0 
L 2784 1825 
Q 2784 2406 2684 2573 
Q 2584 2741 2328 2741 
Q 2006 2741 1831 2477 
Q 1656 2213 1656 1722 
L 1656 0 
L 531 0 
L 531 3500 
L 1656 3500 
L 1656 2988 
Q 1863 3284 2130 3434 
Q 2397 3584 2719 3584 
Q 3081 3584 3359 3409 
Q 3638 3234 3781 2919 
z
" transform="scale(0.015625)"/>
       <path id="DejaVuSans-Bold-69" d="M 538 3500 
L 1656 3500 
L 1656 0 
L 538 0 
L 538 3500 
z
M 538 4863 
L 1656 4863 
L 1656 3950 
L 538 3950 
L 538 4863 
z
" transform="scale(0.015625)"/>
       <path id="DejaVuSans-Bold-6e" d="M 4056 2131 
L 4056 0 
L 2931 0 
L 2931 347 
L 2931 1631 
Q 2931 2084 2911 2256 
Q 2891 2428 2841 2509 
Q 2775 2619 2662 2680 
Q 2550 2741 2406 2741 
Q 2056 2741 1856 2470 
Q 1656 2200 1656 1722 
L 1656 0 
L 538 0 
L 538 3500 
L 1656 3500 
L 1656 2988 
Q 1909 3294 2193 3439 
Q 2478 3584 2822 3584 
Q 3428 3584 3742 3212 
Q 4056 2841 4056 2131 
z
" transform="scale(0.015625)"/>
       <path id="DejaVuSans-Bold-67" d="M 2919 594 
Q 2688 288 2409 144 
Q 2131 0 1766 0 
Q 1125 0 706 504 
Q 288 1009 288 1791 
Q 288 2575 706 3076 
Q 1125 3578 1766 3578 
Q 2131 3578 2409 3434 
Q 2688 3291 2919 2981 
L 2919 3500 
L 4044 3500 
L 4044 353 
Q 4044 -491 3511 -936 
Q 2978 -1381 1966 -1381 
Q 1638 -1381 1331 -1331 
Q 1025 -1281 716 -1178 
L 716 -306 
Q 1009 -475 1290 -558 
Q 1572 -641 1856 -641 
Q 2406 -641 2662 -400 
Q 2919 -159 2919 353 
L 2919 594 
z
M 2181 2772 
Q 1834 2772 1640 2515 
Q 1447 2259 1447 1791 
Q 1447 1309 1634 1061 
Q 1822 813 2181 813 
Q 2531 813 2725 1069 
Q 2919 1325 2919 1791 
Q 2919 2259 2725 2515 
Q 2531 2772 2181 2772 
z
" transform="scale(0.015625)"/>
       <path id="DejaVuSans-Bold-47" d="M 4781 347 
Q 4331 128 3847 18 
Q 3363 -91 2847 -91 
Q 1681 -91 1000 561 
Q 319 1213 319 2328 
Q 319 3456 1012 4103 
Q 1706 4750 2913 4750 
Q 3378 4750 3804 4662 
Q 4231 4575 4609 4403 
L 4609 3438 
Q 4219 3659 3833 3768 
Q 3447 3878 3059 3878 
Q 2341 3878 1952 3476 
Q 1563 3075 1563 2328 
Q 1563 1588 1938 1184 
Q 2313 781 3003 781 
Q 3191 781 3352 804 
Q 3513 828 3641 878 
L 3641 1784 
L 2906 1784 
L 2906 2591 
L 4781 2591 
L 4781 347 
z
" transform="scale(0.015625)"/>
       <path id="DejaVuSans-Bold-6c" d="M 538 4863 
L 1656 4863 
L 1656 0 
L 538 0 
L 538 4863 
z
" transform="scale(0.015625)"/>
       <path id="DejaVuSans-Bold-63" d="M 3366 3391 
L 3366 2478 
Q 3138 2634 2908 2709 
Q 2678 2784 2431 2784 
Q 1963 2784 1702 2511 
Q 1441 2238 1441 1747 
Q 1441 1256 1702 982 
Q 1963 709 2431 709 
Q 2694 709 2930 787 
Q 3166 866 3366 1019 
L 3366 103 
Q 3103 6 2833 -42 
Q 2563 -91 2291 -91 
Q 1344 -91 809 395 
Q 275 881 275 1747 
Q 275 2613 809 3098 
Q 1344 3584 2291 3584 
Q 2566 3584 2833 3536 
Q 3100 3488 3366 3391 
z
" transform="scale(0.015625)"/>
       <path id="DejaVuSans-Bold-4d" d="M 588 4666 
L 2119 4666 
L 3181 2169 
L 4250 4666 
L 5778 4666 
L 5778 0 
L 4641 0 
L 4641 3413 
L 3566 897 
L 2803 897 
L 1728 3413 
L 1728 0 
L 588 0 
L 588 4666 
z
" transform="scale(0.015625)"/>
       <path id="DejaVuSans-Bold-73" d="M 3272 3391 
L 3272 2541 
Q 2913 2691 2578 2766 
Q 2244 2841 1947 2841 
Q 1628 2841 1473 2761 
Q 1319 2681 1319 2516 
Q 1319 2381 1436 2309 
Q 1553 2238 1856 2203 
L 2053 2175 
Q 2913 2066 3209 1816 
Q 3506 1566 3506 1031 
Q 3506 472 3093 190 
Q 2681 -91 1863 -91 
Q 1516 -91 1145 -36 
Q 775 19 384 128 
L 384 978 
Q 719 816 1070 734 
Q 1422 653 1784 653 
Q 2113 653 2278 743 
Q 2444 834 2444 1013 
Q 2444 1163 2330 1236 
Q 2216 1309 1875 1350 
L 1678 1375 
Q 931 1469 631 1722 
Q 331 1975 331 2491 
Q 331 3047 712 3315 
Q 1094 3584 1881 3584 
Q 2191 3584 2531 3537 
Q 2872 3491 3272 3391 
z
" transform="scale(0.015625)"/>
      </defs>
      <use xlink:href="#DejaVuSans-Bold-25"/>
      <use xlink:href="#DejaVuSans-Bold-20" x="100.195312"/>
      <use xlink:href="#DejaVuSans-Bold-6f" x="135.009766"/>
      <use xlink:href="#DejaVuSans-Bold-66" x="203.710938"/>
      <use xlink:href="#DejaVuSans-Bold-20" x="247.216797"/>
      <use xlink:href="#DejaVuSans-Bold-52" x="282.03125"/>
      <use xlink:href="#DejaVuSans-Bold-65" x="359.033203"/>
      <use xlink:href="#DejaVuSans-Bold-6d" x="426.855469"/>
      <use xlink:href="#DejaVuSans-Bold-61" x="531.054688"/>
      <use xlink:href="#DejaVuSans-Bold-69" x="598.535156"/>
      <use xlink:href="#DejaVuSans-Bold-6e" x="632.8125"/>
      <use xlink:href="#DejaVuSans-Bold-69" x="704.003906"/>
      <use xlink:href="#DejaVuSans-Bold-6e" x="738.28125"/>
      <use xlink:href="#DejaVuSans-Bold-67" x="809.472656"/>
      <use xlink:href="#DejaVuSans-Bold-20" x="881.054688"/>
      <use xlink:href="#DejaVuSans-Bold-47" x="915.869141"/>
      <use xlink:href="#DejaVuSans-Bold-6c" x="997.949219"/>
      <use xlink:href="#DejaVuSans-Bold-61" x="1032.226562"/>
      <use xlink:href="#DejaVuSans-Bold-63" x="1099.707031"/>
      <use xlink:href="#DejaVuSans-Bold-69" x="1158.984375"/>
      <use xlink:href="#DejaVuSans-Bold-65" x="1193.261719"/>
      <use xlink:href="#DejaVuSans-Bold-72" x="1261.083984"/>
      <use xlink:href="#DejaVuSans-Bold-20" x="1310.400391"/>
      <use xlink:href="#DejaVuSans-Bold-4d" x="1345.214844"/>
      <use xlink:href="#DejaVuSans-Bold-61" x="1444.726562"/>
      <use xlink:href="#DejaVuSans-Bold-73" x="1512.207031"/>
      <use xlink:href="#DejaVuSans-Bold-73" x="1571.728516"/>
     </g>
    </g>
   </g>
   <g id="line2d_12">
    <path d="M 167.276938 147.876823 
L 174.481555 155.783051 
L 186.48925 169.729189 
L 191.292329 175.492025 
L 198.496946 184.384151 
L 208.103102 195.624411 
L 220.110798 208.751811 
L 224.913876 213.75777 
L 232.118493 221.491817 
L 239.32311 228.981123 
L 241.724649 231.365311 
L 251.330806 240.075141 
L 256.133884 243.834215 
L 258.535423 245.694208 
L 265.74004 250.470734 
L 268.141579 251.889961 
L 270.543118 253.168767 
L 272.944657 254.251585 
L 280.149275 257.035859 
L 282.550814 257.828089 
L 287.353892 259.136333 
L 292.15697 260.022011 
L 304.164665 262.169116 
L 308.967743 262.637448 
L 316.172361 263.079968 
L 320.975439 263.258888 
L 325.778517 263.469502 
L 347.392369 263.409612 
L 354.596986 263.183386 
L 361.801603 263.169191 
L 366.604681 263.170032 
L 385.816994 263.144968 
L 400.226228 262.62243 
L 405.029307 262.608583 
L 409.832385 262.311875 
L 424.241619 261.957581 
L 431.446236 261.552417 
L 438.650854 261.824895 
L 443.453932 262.056532 
L 465.067784 263.819339 
L 469.870862 264.214186 
L 479.477018 264.70814 
L 484.280096 264.618577 
L 489.083174 264.456657 
L 496.287792 263.777609 
L 498.689331 263.508332 
L 503.492409 262.766412 
L 508.295487 262.101867 
L 513.098565 261.256005 
L 517.901643 260.357713 
L 525.10626 259.149848 
L 537.113956 256.838311 
L 544.318573 255.790406 
L 549.121651 255.256335 
L 553.924729 254.831643 
L 565.932425 253.540633 
L 573.137042 253.027782 
L 582.743198 252.670924 
L 585.144737 252.582534 
L 589.947816 252.225546 
L 597.152433 251.746881 
L 601.955511 251.43992 
L 616.364745 250.766937 
L 621.167824 250.173734 
L 630.77398 248.885891 
L 633.175519 248.412646 
L 637.978597 247.624725 
L 647.584753 245.273034 
L 652.387832 243.880978 
L 659.592449 241.518192 
L 666.797066 239.272368 
L 681.206301 234.922129 
L 688.410918 233.065975 
L 695.615535 231.148161 
L 700.418613 229.844552 
L 705.221691 228.66961 
L 717.229387 225.599176 
L 724.434004 224.342698 
L 734.04016 222.099576 
L 738.843238 220.944583 
L 753.252473 218.083215 
L 758.055551 217.247491 
L 767.661707 215.780511 
L 779.669403 213.693923 
L 784.472481 212.954971 
L 794.078637 211.185086 
L 798.881715 210.481083 
L 806.086333 209.317366 
L 815.692489 207.350869 
L 827.700184 206.045905 
L 832.503262 205.587024 
L 837.306341 205.351587 
L 837.306341 205.351587 
" clip-path="url(#pec88938f64)" style="fill: none; stroke: #74b8f8; stroke-opacity: 0.5; stroke-width: 6; stroke-linecap: square"/>
   </g>
   <g id="line2d_13">
    <path d="M 116.844617 116.935235 
L 119.246156 117.66192 
L 121.647695 118.371539 
L 124.049234 119.19737 
L 126.450774 120.108353 
L 128.852313 120.978493 
L 131.253852 121.800079 
L 133.655391 122.610264 
L 136.05693 123.502461 
L 138.458469 124.394772 
L 140.860008 125.308679 
L 143.261547 126.956486 
L 145.663086 128.606692 
L 148.064625 130.29823 
L 150.466164 132.159032 
L 152.867703 134.074007 
L 155.269242 136.11413 
L 157.670782 138.293437 
L 160.072321 140.597239 
L 162.47386 142.883215 
L 164.875399 145.352 
" clip-path="url(#pec88938f64)" style="fill: none; stroke: #000000; stroke-opacity: 0.5; stroke-width: 6; stroke-linecap: square"/>
   </g>
   <g id="line2d_14">
    <path d="M 167.276938 147.933339 
L 172.080016 153.446774 
L 176.883094 159.226634 
L 186.48925 171.846856 
L 193.693868 181.608699 
L 198.496946 188.421676 
L 203.300024 195.662521 
L 210.504641 206.826888 
L 229.716954 235.637982 
L 234.520032 241.993428 
L 239.32311 248.473041 
L 244.126188 255.67053 
L 251.330806 265.640003 
L 253.732345 268.802797 
L 258.535423 274.57127 
L 263.338501 280.847716 
L 277.747735 298.586485 
L 282.550814 303.961547 
L 287.353892 309.034408 
L 292.15697 313.703169 
L 296.960048 318.185091 
L 301.763126 322.1345 
L 308.967743 327.745874 
L 313.770822 331.259395 
L 320.975439 336.164124 
L 325.778517 339.128627 
L 332.983134 343.284806 
L 337.786212 345.799059 
L 342.589291 348.136014 
L 349.793908 351.434034 
L 356.998525 354.431899 
L 364.203142 357.100251 
L 373.809299 360.32181 
L 381.013916 362.568788 
L 393.021611 365.977425 
L 402.627768 368.426549 
L 412.233924 370.576306 
L 419.438541 371.986271 
L 426.643158 373.144158 
L 445.855471 375.718254 
L 455.461627 376.716695 
L 474.67394 378.476532 
L 486.681635 379.384614 
L 503.492409 380.226021 
L 520.303182 380.971696 
L 537.113956 382.025792 
L 553.924729 382.913238 
L 561.129347 383.464902 
L 568.333964 384.046785 
L 592.349355 385.627349 
L 604.35705 386.174528 
L 635.577058 387.407632 
L 659.592449 388.615575 
L 669.198605 388.709417 
L 710.024769 388.368428 
L 726.835543 388.573594 
L 734.04016 388.58855 
L 750.850934 388.236431 
L 770.063246 387.946141 
L 789.275559 387.466498 
L 798.881715 387.091218 
L 808.487872 386.381503 
L 818.094028 385.801161 
L 834.904802 385.119553 
L 837.306341 384.999783 
L 837.306341 384.999783 
" clip-path="url(#pec88938f64)" style="fill: none; stroke: #f47100; stroke-opacity: 0.5; stroke-width: 6; stroke-linecap: square"/>
   </g>
   <g id="line2d_15">
    <path d="M 116.844617 116.069876 
L 119.246156 116.863523 
L 121.647695 117.579147 
L 124.049234 118.302993 
L 126.450774 118.997615 
L 128.852313 119.772558 
L 131.253852 120.562235 
L 133.655391 121.365504 
L 136.05693 122.292077 
L 138.458469 123.322753 
L 140.860008 124.448897 
L 143.261547 126.055749 
L 145.663086 127.764474 
L 148.064625 129.545507 
L 150.466164 131.456541 
L 152.867703 133.502057 
L 155.269242 135.745995 
L 157.670782 137.980976 
L 160.072321 140.386661 
L 162.47386 142.828649 
L 164.875399 145.352 
" clip-path="url(#pec88938f64)" style="fill: none; stroke: #000000; stroke-opacity: 0.5; stroke-width: 6; stroke-linecap: square"/>
   </g>
   <g id="line2d_16">
    <path d="M 167.276938 148.144367 
L 172.080016 154.196053 
L 176.883094 160.737657 
L 181.686172 167.590708 
L 186.48925 174.976282 
L 191.292329 182.706249 
L 198.496946 194.728538 
L 215.307719 224.007149 
L 224.913876 240.886426 
L 248.929267 282.173744 
L 253.732345 289.912843 
L 260.936962 300.053715 
L 272.944657 316.207868 
L 277.747735 322.00127 
L 282.550814 327.42847 
L 284.952353 330.071629 
L 292.15697 337.383794 
L 299.361587 344.323122 
L 301.763126 346.593346 
L 306.566204 350.04381 
L 311.369283 353.145312 
L 316.172361 356.119194 
L 320.975439 358.834222 
L 328.180056 363.648021 
L 335.384673 368.199895 
L 347.392369 375.374298 
L 352.195447 378.035795 
L 361.801603 382.99645 
L 373.809299 388.49566 
L 376.210838 389.475187 
L 381.013916 391.686885 
L 390.620072 395.545323 
L 397.824689 398.033072 
L 409.832385 401.770421 
L 414.635463 403.8183 
L 424.241619 407.613907 
L 433.847776 411.058305 
L 441.052393 413.453341 
L 453.060088 417.244678 
L 462.666244 419.040927 
L 469.870862 420.282026 
L 484.280096 422.825085 
L 498.689331 425.066108 
L 510.697026 426.82795 
L 527.5078 430.560357 
L 534.712417 432.040836 
L 551.52319 435.169005 
L 577.94012 440.237404 
L 589.947816 442.48926 
L 609.160128 445.948251 
L 649.986293 452.707545 
L 683.60784 455.598121 
L 726.835543 458.715918 
L 743.646317 460.252884 
L 758.055551 461.165561 
L 765.260168 461.428002 
L 774.866325 461.453944 
L 815.692489 460.874606 
L 837.306341 460.834062 
L 837.306341 460.834062 
" clip-path="url(#pec88938f64)" style="fill: none; stroke: #d01e04; stroke-opacity: 0.5; stroke-width: 6; stroke-linecap: square"/>
   </g>
   <g id="line2d_17">
    <path d="M 116.844617 114.59158 
L 119.246156 115.545258 
L 121.647695 116.516875 
L 124.049234 117.441929 
L 126.450774 118.358833 
L 128.852313 119.348106 
L 131.253852 120.295126 
L 133.655391 121.277058 
L 136.05693 122.232888 
L 138.458469 123.182246 
L 140.860008 124.140253 
L 143.261547 126.050059 
L 145.663086 128.07954 
L 148.064625 129.865196 
L 150.466164 131.492373 
L 152.867703 133.324365 
L 155.269242 135.378217 
L 157.670782 137.65858 
L 160.072321 140.102653 
L 162.47386 142.637021 
L 164.875399 145.352 
" clip-path="url(#pec88938f64)" style="fill: none; stroke: #000000; stroke-opacity: 0.5; stroke-width: 6; stroke-linecap: square"/>
   </g>
   <g id="patch_3">
    <path d="M 109.64 515.56 
L 109.64 52.8 
" style="fill: none; stroke: #000000; stroke-width: 0.8; stroke-linejoin: miter; stroke-linecap: square"/>
   </g>
   <g id="patch_4">
    <path d="M 109.64 515.56 
L 858.920192 515.56 
" style="fill: none; stroke: #000000; stroke-width: 0.8; stroke-linejoin: miter; stroke-linecap: square"/>
   </g>
   <g id="text_14">
    <!-- High Mountain Asia -->
    <g transform="translate(352.235096 46.8)scale(0.24 -0.24)">
     <defs>
      <path id="DejaVuSans-Bold-48" d="M 588 4666 
L 1791 4666 
L 1791 2888 
L 3566 2888 
L 3566 4666 
L 4769 4666 
L 4769 0 
L 3566 0 
L 3566 1978 
L 1791 1978 
L 1791 0 
L 588 0 
L 588 4666 
z
" transform="scale(0.015625)"/>
      <path id="DejaVuSans-Bold-68" d="M 4056 2131 
L 4056 0 
L 2931 0 
L 2931 347 
L 2931 1625 
Q 2931 2084 2911 2256 
Q 2891 2428 2841 2509 
Q 2775 2619 2662 2680 
Q 2550 2741 2406 2741 
Q 2056 2741 1856 2470 
Q 1656 2200 1656 1722 
L 1656 0 
L 538 0 
L 538 4863 
L 1656 4863 
L 1656 2988 
Q 1909 3294 2193 3439 
Q 2478 3584 2822 3584 
Q 3428 3584 3742 3212 
Q 4056 2841 4056 2131 
z
" transform="scale(0.015625)"/>
      <path id="DejaVuSans-Bold-75" d="M 500 1363 
L 500 3500 
L 1625 3500 
L 1625 3150 
Q 1625 2866 1622 2436 
Q 1619 2006 1619 1863 
Q 1619 1441 1641 1255 
Q 1663 1069 1716 984 
Q 1784 875 1895 815 
Q 2006 756 2150 756 
Q 2500 756 2700 1025 
Q 2900 1294 2900 1772 
L 2900 3500 
L 4019 3500 
L 4019 0 
L 2900 0 
L 2900 506 
Q 2647 200 2364 54 
Q 2081 -91 1741 -91 
Q 1134 -91 817 281 
Q 500 653 500 1363 
z
" transform="scale(0.015625)"/>
      <path id="DejaVuSans-Bold-74" d="M 1759 4494 
L 1759 3500 
L 2913 3500 
L 2913 2700 
L 1759 2700 
L 1759 1216 
Q 1759 972 1856 886 
Q 1953 800 2241 800 
L 2816 800 
L 2816 0 
L 1856 0 
Q 1194 0 917 276 
Q 641 553 641 1216 
L 641 2700 
L 84 2700 
L 84 3500 
L 641 3500 
L 641 4494 
L 1759 4494 
z
" transform="scale(0.015625)"/>
      <path id="DejaVuSans-Bold-41" d="M 3419 850 
L 1538 850 
L 1241 0 
L 31 0 
L 1759 4666 
L 3194 4666 
L 4922 0 
L 3713 0 
L 3419 850 
z
M 1838 1716 
L 3116 1716 
L 2478 3572 
L 1838 1716 
z
" transform="scale(0.015625)"/>
     </defs>
     <use xlink:href="#DejaVuSans-Bold-48"/>
     <use xlink:href="#DejaVuSans-Bold-69" x="83.691406"/>
     <use xlink:href="#DejaVuSans-Bold-67" x="117.96875"/>
     <use xlink:href="#DejaVuSans-Bold-68" x="189.550781"/>
     <use xlink:href="#DejaVuSans-Bold-20" x="260.742188"/>
     <use xlink:href="#DejaVuSans-Bold-4d" x="295.556641"/>
     <use xlink:href="#DejaVuSans-Bold-6f" x="395.068359"/>
     <use xlink:href="#DejaVuSans-Bold-75" x="463.769531"/>
     <use xlink:href="#DejaVuSans-Bold-6e" x="534.960938"/>
     <use xlink:href="#DejaVuSans-Bold-74" x="606.152344"/>
     <use xlink:href="#DejaVuSans-Bold-61" x="653.955078"/>
     <use xlink:href="#DejaVuSans-Bold-69" x="721.435547"/>
     <use xlink:href="#DejaVuSans-Bold-6e" x="755.712891"/>
     <use xlink:href="#DejaVuSans-Bold-20" x="826.904297"/>
     <use xlink:href="#DejaVuSans-Bold-41" x="861.71875"/>
     <use xlink:href="#DejaVuSans-Bold-73" x="939.111328"/>
     <use xlink:href="#DejaVuSans-Bold-69" x="998.632812"/>
     <use xlink:href="#DejaVuSans-Bold-61" x="1032.910156"/>
    </g>
   </g>
   <g id="legend_1">
    <g id="patch_5">
     <path d="M 597.903942 225.737875 
L 843.520192 225.737875 
Q 847.920192 225.737875 847.920192 221.337875 
L 847.920192 68.2 
Q 847.920192 63.8 843.520192 63.8 
L 597.903942 63.8 
Q 593.503942 63.8 593.503942 68.2 
L 593.503942 221.337875 
Q 593.503942 225.737875 597.903942 225.737875 
z
" style="fill: #ffffff; opacity: 0.6; stroke: #cccccc; stroke-linejoin: miter"/>
    </g>
    <g id="text_15">
     <!-- Global mean -->
     <g transform="translate(602.303942 89.316563)scale(0.22 -0.22)">
      <defs>
       <path id="DejaVuSans-47" d="M 3809 666 
L 3809 1919 
L 2778 1919 
L 2778 2438 
L 4434 2438 
L 4434 434 
Q 4069 175 3628 42 
Q 3188 -91 2688 -91 
Q 1594 -91 976 548 
Q 359 1188 359 2328 
Q 359 3472 976 4111 
Q 1594 4750 2688 4750 
Q 3144 4750 3555 4637 
Q 3966 4525 4313 4306 
L 4313 3634 
Q 3963 3931 3569 4081 
Q 3175 4231 2741 4231 
Q 1884 4231 1454 3753 
Q 1025 3275 1025 2328 
Q 1025 1384 1454 906 
Q 1884 428 2741 428 
Q 3075 428 3337 486 
Q 3600 544 3809 666 
z
" transform="scale(0.015625)"/>
       <path id="DejaVuSans-6c" d="M 603 4863 
L 1178 4863 
L 1178 0 
L 603 0 
L 603 4863 
z
" transform="scale(0.015625)"/>
       <path id="DejaVuSans-6f" d="M 1959 3097 
Q 1497 3097 1228 2736 
Q 959 2375 959 1747 
Q 959 1119 1226 758 
Q 1494 397 1959 397 
Q 2419 397 2687 759 
Q 2956 1122 2956 1747 
Q 2956 2369 2687 2733 
Q 2419 3097 1959 3097 
z
M 1959 3584 
Q 2709 3584 3137 3096 
Q 3566 2609 3566 1747 
Q 3566 888 3137 398 
Q 2709 -91 1959 -91 
Q 1206 -91 779 398 
Q 353 888 353 1747 
Q 353 2609 779 3096 
Q 1206 3584 1959 3584 
z
" transform="scale(0.015625)"/>
       <path id="DejaVuSans-62" d="M 3116 1747 
Q 3116 2381 2855 2742 
Q 2594 3103 2138 3103 
Q 1681 3103 1420 2742 
Q 1159 2381 1159 1747 
Q 1159 1113 1420 752 
Q 1681 391 2138 391 
Q 2594 391 2855 752 
Q 3116 1113 3116 1747 
z
M 1159 2969 
Q 1341 3281 1617 3432 
Q 1894 3584 2278 3584 
Q 2916 3584 3314 3078 
Q 3713 2572 3713 1747 
Q 3713 922 3314 415 
Q 2916 -91 2278 -91 
Q 1894 -91 1617 61 
Q 1341 213 1159 525 
L 1159 0 
L 581 0 
L 581 4863 
L 1159 4863 
L 1159 2969 
z
" transform="scale(0.015625)"/>
       <path id="DejaVuSans-61" d="M 2194 1759 
Q 1497 1759 1228 1600 
Q 959 1441 959 1056 
Q 959 750 1161 570 
Q 1363 391 1709 391 
Q 2188 391 2477 730 
Q 2766 1069 2766 1631 
L 2766 1759 
L 2194 1759 
z
M 3341 1997 
L 3341 0 
L 2766 0 
L 2766 531 
Q 2569 213 2275 61 
Q 1981 -91 1556 -91 
Q 1019 -91 701 211 
Q 384 513 384 1019 
Q 384 1609 779 1909 
Q 1175 2209 1959 2209 
L 2766 2209 
L 2766 2266 
Q 2766 2663 2505 2880 
Q 2244 3097 1772 3097 
Q 1472 3097 1187 3025 
Q 903 2953 641 2809 
L 641 3341 
Q 956 3463 1253 3523 
Q 1550 3584 1831 3584 
Q 2591 3584 2966 3190 
Q 3341 2797 3341 1997 
z
" transform="scale(0.015625)"/>
       <path id="DejaVuSans-20" transform="scale(0.015625)"/>
       <path id="DejaVuSans-6d" d="M 3328 2828 
Q 3544 3216 3844 3400 
Q 4144 3584 4550 3584 
Q 5097 3584 5394 3201 
Q 5691 2819 5691 2113 
L 5691 0 
L 5113 0 
L 5113 2094 
Q 5113 2597 4934 2840 
Q 4756 3084 4391 3084 
Q 3944 3084 3684 2787 
Q 3425 2491 3425 1978 
L 3425 0 
L 2847 0 
L 2847 2094 
Q 2847 2600 2669 2842 
Q 2491 3084 2119 3084 
Q 1678 3084 1418 2786 
Q 1159 2488 1159 1978 
L 1159 0 
L 581 0 
L 581 3500 
L 1159 3500 
L 1159 2956 
Q 1356 3278 1631 3431 
Q 1906 3584 2284 3584 
Q 2666 3584 2933 3390 
Q 3200 3197 3328 2828 
z
" transform="scale(0.015625)"/>
       <path id="DejaVuSans-65" d="M 3597 1894 
L 3597 1613 
L 953 1613 
Q 991 1019 1311 708 
Q 1631 397 2203 397 
Q 2534 397 2845 478 
Q 3156 559 3463 722 
L 3463 178 
Q 3153 47 2828 -22 
Q 2503 -91 2169 -91 
Q 1331 -91 842 396 
Q 353 884 353 1716 
Q 353 2575 817 3079 
Q 1281 3584 2069 3584 
Q 2775 3584 3186 3129 
Q 3597 2675 3597 1894 
z
M 3022 2063 
Q 3016 2534 2758 2815 
Q 2500 3097 2075 3097 
Q 1594 3097 1305 2825 
Q 1016 2553 972 2059 
L 3022 2063 
z
" transform="scale(0.015625)"/>
       <path id="DejaVuSans-6e" d="M 3513 2113 
L 3513 0 
L 2938 0 
L 2938 2094 
Q 2938 2591 2744 2837 
Q 2550 3084 2163 3084 
Q 1697 3084 1428 2787 
Q 1159 2491 1159 1978 
L 1159 0 
L 581 0 
L 581 3500 
L 1159 3500 
L 1159 2956 
Q 1366 3272 1645 3428 
Q 1925 3584 2291 3584 
Q 2894 3584 3203 3211 
Q 3513 2838 3513 2113 
z
" transform="scale(0.015625)"/>
      </defs>
      <use xlink:href="#DejaVuSans-47"/>
      <use xlink:href="#DejaVuSans-6c" x="77.490234"/>
      <use xlink:href="#DejaVuSans-6f" x="105.273438"/>
      <use xlink:href="#DejaVuSans-62" x="166.455078"/>
      <use xlink:href="#DejaVuSans-61" x="229.931641"/>
      <use xlink:href="#DejaVuSans-6c" x="291.210938"/>
      <use xlink:href="#DejaVuSans-20" x="318.994141"/>
      <use xlink:href="#DejaVuSans-6d" x="350.78125"/>
      <use xlink:href="#DejaVuSans-65" x="448.193359"/>
      <use xlink:href="#DejaVuSans-61" x="509.716797"/>
      <use xlink:href="#DejaVuSans-6e" x="570.996094"/>
     </g>
     <!-- temperature above -->
     <g transform="translate(602.303942 113.95175)scale(0.22 -0.22)">
      <defs>
       <path id="DejaVuSans-74" d="M 1172 4494 
L 1172 3500 
L 2356 3500 
L 2356 3053 
L 1172 3053 
L 1172 1153 
Q 1172 725 1289 603 
Q 1406 481 1766 481 
L 2356 481 
L 2356 0 
L 1766 0 
Q 1100 0 847 248 
Q 594 497 594 1153 
L 594 3053 
L 172 3053 
L 172 3500 
L 594 3500 
L 594 4494 
L 1172 4494 
z
" transform="scale(0.015625)"/>
       <path id="DejaVuSans-70" d="M 1159 525 
L 1159 -1331 
L 581 -1331 
L 581 3500 
L 1159 3500 
L 1159 2969 
Q 1341 3281 1617 3432 
Q 1894 3584 2278 3584 
Q 2916 3584 3314 3078 
Q 3713 2572 3713 1747 
Q 3713 922 3314 415 
Q 2916 -91 2278 -91 
Q 1894 -91 1617 61 
Q 1341 213 1159 525 
z
M 3116 1747 
Q 3116 2381 2855 2742 
Q 2594 3103 2138 3103 
Q 1681 3103 1420 2742 
Q 1159 2381 1159 1747 
Q 1159 1113 1420 752 
Q 1681 391 2138 391 
Q 2594 391 2855 752 
Q 3116 1113 3116 1747 
z
" transform="scale(0.015625)"/>
       <path id="DejaVuSans-72" d="M 2631 2963 
Q 2534 3019 2420 3045 
Q 2306 3072 2169 3072 
Q 1681 3072 1420 2755 
Q 1159 2438 1159 1844 
L 1159 0 
L 581 0 
L 581 3500 
L 1159 3500 
L 1159 2956 
Q 1341 3275 1631 3429 
Q 1922 3584 2338 3584 
Q 2397 3584 2469 3576 
Q 2541 3569 2628 3553 
L 2631 2963 
z
" transform="scale(0.015625)"/>
       <path id="DejaVuSans-75" d="M 544 1381 
L 544 3500 
L 1119 3500 
L 1119 1403 
Q 1119 906 1312 657 
Q 1506 409 1894 409 
Q 2359 409 2629 706 
Q 2900 1003 2900 1516 
L 2900 3500 
L 3475 3500 
L 3475 0 
L 2900 0 
L 2900 538 
Q 2691 219 2414 64 
Q 2138 -91 1772 -91 
Q 1169 -91 856 284 
Q 544 659 544 1381 
z
M 1991 3584 
L 1991 3584 
z
" transform="scale(0.015625)"/>
       <path id="DejaVuSans-76" d="M 191 3500 
L 800 3500 
L 1894 563 
L 2988 3500 
L 3597 3500 
L 2284 0 
L 1503 0 
L 191 3500 
z
" transform="scale(0.015625)"/>
      </defs>
      <use xlink:href="#DejaVuSans-74"/>
      <use xlink:href="#DejaVuSans-65" x="39.208984"/>
      <use xlink:href="#DejaVuSans-6d" x="100.732422"/>
      <use xlink:href="#DejaVuSans-70" x="198.144531"/>
      <use xlink:href="#DejaVuSans-65" x="261.621094"/>
      <use xlink:href="#DejaVuSans-72" x="323.144531"/>
      <use xlink:href="#DejaVuSans-61" x="364.257812"/>
      <use xlink:href="#DejaVuSans-74" x="425.537109"/>
      <use xlink:href="#DejaVuSans-75" x="464.746094"/>
      <use xlink:href="#DejaVuSans-72" x="528.125"/>
      <use xlink:href="#DejaVuSans-65" x="566.988281"/>
      <use xlink:href="#DejaVuSans-20" x="628.511719"/>
      <use xlink:href="#DejaVuSans-61" x="660.298828"/>
      <use xlink:href="#DejaVuSans-62" x="721.578125"/>
      <use xlink:href="#DejaVuSans-6f" x="785.054688"/>
      <use xlink:href="#DejaVuSans-76" x="846.236328"/>
      <use xlink:href="#DejaVuSans-65" x="905.416016"/>
     </g>
     <!-- pre-industrial in 2100 -->
     <g transform="translate(602.303942 138.586938)scale(0.22 -0.22)">
      <defs>
       <path id="DejaVuSans-2d" d="M 313 2009 
L 1997 2009 
L 1997 1497 
L 313 1497 
L 313 2009 
z
" transform="scale(0.015625)"/>
       <path id="DejaVuSans-69" d="M 603 3500 
L 1178 3500 
L 1178 0 
L 603 0 
L 603 3500 
z
M 603 4863 
L 1178 4863 
L 1178 4134 
L 603 4134 
L 603 4863 
z
" transform="scale(0.015625)"/>
       <path id="DejaVuSans-64" d="M 2906 2969 
L 2906 4863 
L 3481 4863 
L 3481 0 
L 2906 0 
L 2906 525 
Q 2725 213 2448 61 
Q 2172 -91 1784 -91 
Q 1150 -91 751 415 
Q 353 922 353 1747 
Q 353 2572 751 3078 
Q 1150 3584 1784 3584 
Q 2172 3584 2448 3432 
Q 2725 3281 2906 2969 
z
M 947 1747 
Q 947 1113 1208 752 
Q 1469 391 1925 391 
Q 2381 391 2643 752 
Q 2906 1113 2906 1747 
Q 2906 2381 2643 2742 
Q 2381 3103 1925 3103 
Q 1469 3103 1208 2742 
Q 947 2381 947 1747 
z
" transform="scale(0.015625)"/>
       <path id="DejaVuSans-73" d="M 2834 3397 
L 2834 2853 
Q 2591 2978 2328 3040 
Q 2066 3103 1784 3103 
Q 1356 3103 1142 2972 
Q 928 2841 928 2578 
Q 928 2378 1081 2264 
Q 1234 2150 1697 2047 
L 1894 2003 
Q 2506 1872 2764 1633 
Q 3022 1394 3022 966 
Q 3022 478 2636 193 
Q 2250 -91 1575 -91 
Q 1294 -91 989 -36 
Q 684 19 347 128 
L 347 722 
Q 666 556 975 473 
Q 1284 391 1588 391 
Q 1994 391 2212 530 
Q 2431 669 2431 922 
Q 2431 1156 2273 1281 
Q 2116 1406 1581 1522 
L 1381 1569 
Q 847 1681 609 1914 
Q 372 2147 372 2553 
Q 372 3047 722 3315 
Q 1072 3584 1716 3584 
Q 2034 3584 2315 3537 
Q 2597 3491 2834 3397 
z
" transform="scale(0.015625)"/>
      </defs>
      <use xlink:href="#DejaVuSans-70"/>
      <use xlink:href="#DejaVuSans-72" x="63.476562"/>
      <use xlink:href="#DejaVuSans-65" x="102.339844"/>
      <use xlink:href="#DejaVuSans-2d" x="163.863281"/>
      <use xlink:href="#DejaVuSans-69" x="199.947266"/>
      <use xlink:href="#DejaVuSans-6e" x="227.730469"/>
      <use xlink:href="#DejaVuSans-64" x="291.109375"/>
      <use xlink:href="#DejaVuSans-75" x="354.585938"/>
      <use xlink:href="#DejaVuSans-73" x="417.964844"/>
      <use xlink:href="#DejaVuSans-74" x="470.064453"/>
      <use xlink:href="#DejaVuSans-72" x="509.273438"/>
      <use xlink:href="#DejaVuSans-69" x="550.386719"/>
      <use xlink:href="#DejaVuSans-61" x="578.169922"/>
      <use xlink:href="#DejaVuSans-6c" x="639.449219"/>
      <use xlink:href="#DejaVuSans-20" x="667.232422"/>
      <use xlink:href="#DejaVuSans-69" x="699.019531"/>
      <use xlink:href="#DejaVuSans-6e" x="726.802734"/>
      <use xlink:href="#DejaVuSans-20" x="790.181641"/>
      <use xlink:href="#DejaVuSans-32" x="821.96875"/>
      <use xlink:href="#DejaVuSans-31" x="885.591797"/>
      <use xlink:href="#DejaVuSans-30" x="949.214844"/>
      <use xlink:href="#DejaVuSans-30" x="1012.837891"/>
     </g>
    </g>
    <g id="line2d_18">
     <path d="M 616.971755 155.478813 
L 638.971755 155.478813 
L 660.971755 155.478813 
" style="fill: none; stroke: #74b8f8; stroke-opacity: 0.5; stroke-width: 6; stroke-linecap: square"/>
    </g>
    <g id="text_16">
     <!-- 1.5C (n=2) -->
     <g transform="translate(678.571755 163.178813)scale(0.22 -0.22)">
      <defs>
       <path id="DejaVuSans-2e" d="M 684 794 
L 1344 794 
L 1344 0 
L 684 0 
L 684 794 
z
" transform="scale(0.015625)"/>
       <path id="DejaVuSans-35" d="M 691 4666 
L 3169 4666 
L 3169 4134 
L 1269 4134 
L 1269 2991 
Q 1406 3038 1543 3061 
Q 1681 3084 1819 3084 
Q 2600 3084 3056 2656 
Q 3513 2228 3513 1497 
Q 3513 744 3044 326 
Q 2575 -91 1722 -91 
Q 1428 -91 1123 -41 
Q 819 9 494 109 
L 494 744 
Q 775 591 1075 516 
Q 1375 441 1709 441 
Q 2250 441 2565 725 
Q 2881 1009 2881 1497 
Q 2881 1984 2565 2268 
Q 2250 2553 1709 2553 
Q 1456 2553 1204 2497 
Q 953 2441 691 2322 
L 691 4666 
z
" transform="scale(0.015625)"/>
       <path id="DejaVuSans-b0" d="M 1600 4347 
Q 1350 4347 1178 4173 
Q 1006 4000 1006 3750 
Q 1006 3503 1178 3333 
Q 1350 3163 1600 3163 
Q 1850 3163 2022 3333 
Q 2194 3503 2194 3750 
Q 2194 3997 2020 4172 
Q 1847 4347 1600 4347 
z
M 1600 4750 
Q 1800 4750 1984 4673 
Q 2169 4597 2303 4453 
Q 2447 4313 2519 4134 
Q 2591 3956 2591 3750 
Q 2591 3338 2302 3052 
Q 2013 2766 1594 2766 
Q 1172 2766 890 3047 
Q 609 3328 609 3750 
Q 609 4169 896 4459 
Q 1184 4750 1600 4750 
z
" transform="scale(0.015625)"/>
       <path id="DejaVuSans-43" d="M 4122 4306 
L 4122 3641 
Q 3803 3938 3442 4084 
Q 3081 4231 2675 4231 
Q 1875 4231 1450 3742 
Q 1025 3253 1025 2328 
Q 1025 1406 1450 917 
Q 1875 428 2675 428 
Q 3081 428 3442 575 
Q 3803 722 4122 1019 
L 4122 359 
Q 3791 134 3420 21 
Q 3050 -91 2638 -91 
Q 1578 -91 968 557 
Q 359 1206 359 2328 
Q 359 3453 968 4101 
Q 1578 4750 2638 4750 
Q 3056 4750 3426 4639 
Q 3797 4528 4122 4306 
z
" transform="scale(0.015625)"/>
       <path id="DejaVuSans-28" d="M 1984 4856 
Q 1566 4138 1362 3434 
Q 1159 2731 1159 2009 
Q 1159 1288 1364 580 
Q 1569 -128 1984 -844 
L 1484 -844 
Q 1016 -109 783 600 
Q 550 1309 550 2009 
Q 550 2706 781 3412 
Q 1013 4119 1484 4856 
L 1984 4856 
z
" transform="scale(0.015625)"/>
       <path id="DejaVuSans-3d" d="M 678 2906 
L 4684 2906 
L 4684 2381 
L 678 2381 
L 678 2906 
z
M 678 1631 
L 4684 1631 
L 4684 1100 
L 678 1100 
L 678 1631 
z
" transform="scale(0.015625)"/>
       <path id="DejaVuSans-29" d="M 513 4856 
L 1013 4856 
Q 1481 4119 1714 3412 
Q 1947 2706 1947 2009 
Q 1947 1309 1714 600 
Q 1481 -109 1013 -844 
L 513 -844 
Q 928 -128 1133 580 
Q 1338 1288 1338 2009 
Q 1338 2731 1133 3434 
Q 928 4138 513 4856 
z
" transform="scale(0.015625)"/>
      </defs>
      <use xlink:href="#DejaVuSans-31"/>
      <use xlink:href="#DejaVuSans-2e" x="63.623047"/>
      <use xlink:href="#DejaVuSans-35" x="95.410156"/>
      <use xlink:href="#DejaVuSans-b0" x="159.033203"/>
      <use xlink:href="#DejaVuSans-43" x="209.033203"/>
      <use xlink:href="#DejaVuSans-20" x="278.857422"/>
      <use xlink:href="#DejaVuSans-28" x="310.644531"/>
      <use xlink:href="#DejaVuSans-6e" x="349.658203"/>
      <use xlink:href="#DejaVuSans-3d" x="413.037109"/>
      <use xlink:href="#DejaVuSans-32" x="496.826172"/>
      <use xlink:href="#DejaVuSans-29" x="560.449219"/>
     </g>
    </g>
    <g id="line2d_19">
     <path d="M 616.971755 180.070688 
L 638.971755 180.070688 
L 660.971755 180.070688 
" style="fill: none; stroke: #f47100; stroke-opacity: 0.5; stroke-width: 6; stroke-linecap: square"/>
    </g>
    <g id="text_17">
     <!-- 2.2C (n=14) -->
     <g transform="translate(678.571755 187.770688)scale(0.22 -0.22)">
      <use xlink:href="#DejaVuSans-32"/>
      <use xlink:href="#DejaVuSans-2e" x="63.623047"/>
      <use xlink:href="#DejaVuSans-32" x="95.410156"/>
      <use xlink:href="#DejaVuSans-b0" x="159.033203"/>
      <use xlink:href="#DejaVuSans-43" x="209.033203"/>
      <use xlink:href="#DejaVuSans-20" x="278.857422"/>
      <use xlink:href="#DejaVuSans-28" x="310.644531"/>
      <use xlink:href="#DejaVuSans-6e" x="349.658203"/>
      <use xlink:href="#DejaVuSans-3d" x="413.037109"/>
      <use xlink:href="#DejaVuSans-31" x="496.826172"/>
      <use xlink:href="#DejaVuSans-34" x="560.449219"/>
      <use xlink:href="#DejaVuSans-29" x="624.072266"/>
     </g>
    </g>
    <g id="line2d_20">
     <path d="M 616.971755 204.662563 
L 638.971755 204.662563 
L 660.971755 204.662563 
" style="fill: none; stroke: #d01e04; stroke-opacity: 0.5; stroke-width: 6; stroke-linecap: square"/>
    </g>
    <g id="text_18">
     <!-- 2.8C (n=12) -->
     <g transform="translate(678.571755 212.362563)scale(0.22 -0.22)">
      <use xlink:href="#DejaVuSans-32"/>
      <use xlink:href="#DejaVuSans-2e" x="63.623047"/>
      <use xlink:href="#DejaVuSans-38" x="95.410156"/>
      <use xlink:href="#DejaVuSans-b0" x="159.033203"/>
      <use xlink:href="#DejaVuSans-43" x="209.033203"/>
      <use xlink:href="#DejaVuSans-20" x="278.857422"/>
      <use xlink:href="#DejaVuSans-28" x="310.644531"/>
      <use xlink:href="#DejaVuSans-6e" x="349.658203"/>
      <use xlink:href="#DejaVuSans-3d" x="413.037109"/>
      <use xlink:href="#DejaVuSans-31" x="496.826172"/>
      <use xlink:href="#DejaVuSans-32" x="560.449219"/>
      <use xlink:href="#DejaVuSans-29" x="624.072266"/>
     </g>
    </g>
   </g>
  </g>
 </g>
 <defs>
  <clipPath id="pec88938f64">
   <rect x="109.64" y="52.8" width="749.280192" height="462.76"/>
  </clipPath>
 </defs>
</svg>
