<?xml version="1.0" encoding="utf-8" standalone="no"?>
<!DOCTYPE svg PUBLIC "-//W3C//DTD SVG 1.1//EN"
  "http://www.w3.org/Graphics/SVG/1.1/DTD/svg11.dtd">
<svg xmlns:xlink="http://www.w3.org/1999/xlink" width="900pt" height="600pt" viewBox="0 0 900 600" xmlns="http://www.w3.org/2000/svg" version="1.1">
 <metadata>
  <rdf:RDF xmlns:dc="http://purl.org/dc/elements/1.1/" xmlns:cc="http://creativecommons.org/ns#" xmlns:rdf="http://www.w3.org/1999/02/22-rdf-syntax-ns#">
   <cc:Work>
    <dc:type rdf:resource="http://purl.org/dc/dcmitype/StillImage"/>
    <dc:date>2024-10-31T18:28:32.353509</dc:date>
    <dc:format>image/svg+xml</dc:format>
    <dc:creator>
     <cc:Agent>
      <dc:title>Matplotlib v3.5.3, https://matplotlib.org/</dc:title>
     </cc:Agent>
    </dc:creator>
   </cc:Work>
  </rdf:RDF>
 </metadata>
 <defs>
  <style type="text/css">*{stroke-linejoin: round; stroke-linecap: butt}</style>
 </defs>
 <g id="figure_1">
  <g id="patch_1">
   <path d="M 0 600 
L 900 600 
L 900 0 
L 0 0 
z
" style="fill: #ffffff"/>
  </g>
  <g id="axes_1">
   <g id="patch_2">
    <path d="M 109.64 515.56 
L 858.920192 515.56 
L 858.920192 52.8 
L 109.64 52.8 
z
" style="fill: #ffffff"/>
   </g>
   <g id="PolyCollection_1">
    <defs>
     <path id="mb31fae6fce" d="M 167.276938 -453.434839 
L 167.276938 -453.277867 
L 169.678477 -451.892336 
L 172.080016 -450.453349 
L 174.481555 -448.939405 
L 176.883094 -447.405796 
L 179.284633 -445.803064 
L 181.686172 -444.148747 
L 184.087711 -442.504284 
L 186.48925 -440.83423 
L 188.89079 -439.073704 
L 191.292329 -437.302256 
L 193.693868 -435.513731 
L 196.095407 -433.70889 
L 198.496946 -431.874986 
L 200.898485 -430.032993 
L 203.300024 -428.134627 
L 205.701563 -426.191277 
L 208.103102 -424.173785 
L 210.504641 -422.194763 
L 212.90618 -420.243946 
L 215.307719 -418.260467 
L 217.709259 -416.24484 
L 220.110798 -414.189776 
L 222.512337 -412.146889 
L 224.913876 -410.086262 
L 227.315415 -408.072849 
L 229.716954 -406.067422 
L 232.118493 -404.044594 
L 234.520032 -402.055769 
L 236.921571 -400.113387 
L 239.32311 -398.181414 
L 241.724649 -396.218551 
L 244.126188 -394.267414 
L 246.527727 -392.323982 
L 248.929267 -390.415151 
L 251.330806 -388.5566 
L 253.732345 -386.715055 
L 256.133884 -384.919572 
L 258.535423 -383.116343 
L 260.936962 -381.333081 
L 263.338501 -379.574511 
L 265.74004 -377.816359 
L 268.141579 -376.133411 
L 270.543118 -374.491818 
L 272.944657 -372.874277 
L 275.346196 -371.259712 
L 277.747735 -369.632515 
L 280.149275 -368.006931 
L 282.550814 -366.362881 
L 284.952353 -364.724226 
L 287.353892 -363.129492 
L 289.755431 -361.55617 
L 292.15697 -360.012421 
L 294.558509 -358.496083 
L 296.960048 -356.941801 
L 299.361587 -355.421038 
L 301.763126 -353.888325 
L 304.164665 -352.346745 
L 306.566204 -350.842907 
L 308.967743 -349.377102 
L 311.369283 -347.927602 
L 313.770822 -346.488048 
L 316.172361 -345.066006 
L 318.5739 -343.667879 
L 320.975439 -342.278966 
L 323.376978 -340.956219 
L 325.778517 -339.671312 
L 328.180056 -338.413142 
L 330.581595 -337.176237 
L 332.983134 -335.980763 
L 335.384673 -334.806737 
L 337.786212 -333.644869 
L 340.187751 -332.488932 
L 342.589291 -331.355616 
L 344.99083 -330.27444 
L 347.392369 -329.163918 
L 349.793908 -328.103141 
L 352.195447 -327.073541 
L 354.596986 -326.057369 
L 356.998525 -325.012858 
L 359.400064 -323.975582 
L 361.801603 -322.924279 
L 364.203142 -321.895254 
L 366.604681 -320.876725 
L 369.00622 -319.869785 
L 371.407759 -318.839282 
L 373.809299 -317.802146 
L 376.210838 -316.769861 
L 378.612377 -315.739433 
L 381.013916 -314.713352 
L 383.415455 -313.681192 
L 385.816994 -312.67599 
L 388.218533 -311.636464 
L 390.620072 -310.606353 
L 393.021611 -309.604083 
L 395.42315 -308.624878 
L 397.824689 -307.661349 
L 400.226228 -306.719616 
L 402.627768 -305.784141 
L 405.029307 -304.867168 
L 407.430846 -303.94397 
L 409.832385 -303.037089 
L 412.233924 -302.147472 
L 414.635463 -301.243522 
L 417.037002 -300.345009 
L 419.438541 -299.486784 
L 421.84008 -298.676801 
L 424.241619 -297.866523 
L 426.643158 -297.058881 
L 429.044697 -296.283092 
L 431.446236 -295.523697 
L 433.847776 -294.768215 
L 436.249315 -293.948395 
L 438.650854 -293.144033 
L 441.052393 -292.330983 
L 443.453932 -291.548551 
L 445.855471 -290.775301 
L 448.25701 -290.021785 
L 450.658549 -289.277615 
L 453.060088 -288.559238 
L 455.461627 -287.857327 
L 457.863166 -287.164396 
L 460.264705 -286.460987 
L 462.666244 -285.749164 
L 465.067784 -285.041781 
L 467.469323 -284.335802 
L 469.870862 -283.616708 
L 472.272401 -282.930426 
L 474.67394 -282.27588 
L 477.075479 -281.614893 
L 479.477018 -280.947937 
L 481.878557 -280.301946 
L 484.280096 -279.670866 
L 486.681635 -279.021584 
L 489.083174 -278.382533 
L 491.484713 -277.744485 
L 493.886252 -277.109825 
L 496.287792 -276.478153 
L 498.689331 -275.851391 
L 501.09087 -275.22109 
L 503.492409 -274.591886 
L 505.893948 -273.970293 
L 508.295487 -273.34366 
L 510.697026 -272.744376 
L 513.098565 -272.151759 
L 515.500104 -271.555953 
L 517.901643 -270.980654 
L 520.303182 -270.3844 
L 522.704721 -269.790837 
L 525.10626 -269.193314 
L 527.5078 -268.598174 
L 529.909339 -268.025545 
L 532.310878 -267.462521 
L 534.712417 -266.910635 
L 537.113956 -266.362781 
L 539.515495 -265.834589 
L 541.917034 -265.315904 
L 544.318573 -264.787231 
L 546.720112 -264.26347 
L 549.121651 -263.7476 
L 551.52319 -263.244193 
L 553.924729 -262.751961 
L 556.326268 -262.282279 
L 558.727808 -261.815626 
L 561.129347 -261.354473 
L 563.530886 -260.90944 
L 565.932425 -260.457145 
L 568.333964 -260.013673 
L 570.735503 -259.585302 
L 573.137042 -259.172058 
L 575.538581 -258.779363 
L 577.94012 -258.374571 
L 580.341659 -257.969437 
L 582.743198 -257.586835 
L 585.144737 -257.217236 
L 587.546277 -256.837199 
L 589.947816 -256.459747 
L 592.349355 -256.105333 
L 594.750894 -255.763187 
L 597.152433 -255.430536 
L 599.553972 -255.109629 
L 601.955511 -254.79108 
L 604.35705 -254.480556 
L 606.758589 -254.17869 
L 609.160128 -253.902739 
L 611.561667 -253.623386 
L 613.963206 -253.369103 
L 616.364745 -253.120556 
L 618.766285 -252.869737 
L 621.167824 -252.616441 
L 623.569363 -252.361463 
L 625.970902 -252.117591 
L 628.372441 -251.870732 
L 630.77398 -251.606989 
L 633.175519 -251.332899 
L 635.577058 -251.079114 
L 637.978597 -250.831272 
L 640.380136 -250.606711 
L 642.781675 -250.387692 
L 645.183214 -250.175185 
L 647.584753 -249.96672 
L 649.986293 -249.76949 
L 652.387832 -249.58496 
L 654.789371 -249.399733 
L 657.19091 -249.201569 
L 659.592449 -249.007889 
L 661.993988 -248.808615 
L 664.395527 -248.596964 
L 666.797066 -248.390429 
L 669.198605 -248.163088 
L 671.600144 -247.923704 
L 674.001683 -247.676372 
L 676.403222 -247.432936 
L 678.804761 -247.179279 
L 681.206301 -246.927365 
L 683.60784 -246.677797 
L 686.009379 -246.423216 
L 688.410918 -246.151999 
L 690.812457 -245.87103 
L 693.213996 -245.583607 
L 695.615535 -245.2941 
L 698.017074 -245.007027 
L 700.418613 -244.701443 
L 702.820152 -244.404618 
L 705.221691 -244.102554 
L 707.62323 -243.805763 
L 710.024769 -243.498522 
L 712.426309 -243.204697 
L 714.827848 -242.901176 
L 717.229387 -242.606827 
L 719.630926 -242.308423 
L 722.032465 -242.005848 
L 724.434004 -241.700503 
L 726.835543 -241.42332 
L 729.237082 -241.15974 
L 731.638621 -240.897725 
L 734.04016 -240.644806 
L 736.441699 -240.389654 
L 738.843238 -240.142071 
L 741.244777 -239.896963 
L 743.646317 -239.653066 
L 746.047856 -239.404151 
L 748.449395 -239.14927 
L 750.850934 -238.890387 
L 753.252473 -238.626073 
L 755.654012 -238.360003 
L 758.055551 -238.105368 
L 760.45709 -237.850462 
L 762.858629 -237.604903 
L 765.260168 -237.367951 
L 767.661707 -237.15309 
L 770.063246 -236.947341 
L 772.464786 -236.750576 
L 774.866325 -236.556301 
L 777.267864 -236.354996 
L 779.669403 -236.122204 
L 782.070942 -235.887767 
L 784.472481 -235.661496 
L 786.87402 -235.439444 
L 789.275559 -235.214256 
L 791.677098 -234.987296 
L 794.078637 -234.781535 
L 796.480176 -234.584569 
L 798.881715 -234.385702 
L 801.283254 -234.197483 
L 803.684794 -234.014135 
L 806.086333 -233.823541 
L 808.487872 -233.632404 
L 810.889411 -233.432169 
L 813.29095 -233.224754 
L 815.692489 -233.0193 
L 818.094028 -232.917963 
L 820.495567 -232.810582 
L 822.897106 -232.689825 
L 825.298645 -232.569526 
L 827.700184 -232.479885 
L 830.101723 -232.399539 
L 832.503262 -232.316076 
L 834.904802 -232.23048 
L 837.306341 -232.152673 
L 837.306341 -250.561796 
L 837.306341 -250.561796 
L 834.904802 -250.580624 
L 832.503262 -250.619203 
L 830.101723 -250.65792 
L 827.700184 -250.70319 
L 825.298645 -250.766901 
L 822.897106 -250.858314 
L 820.495567 -250.939594 
L 818.094028 -251.005151 
L 815.692489 -251.063672 
L 813.29095 -251.20555 
L 810.889411 -251.343005 
L 808.487872 -251.474586 
L 806.086333 -251.574435 
L 803.684794 -251.676447 
L 801.283254 -251.751188 
L 798.881715 -251.832359 
L 796.480176 -251.924146 
L 794.078637 -252.011018 
L 791.677098 -252.089067 
L 789.275559 -252.208455 
L 786.87402 -252.312192 
L 784.472481 -252.406191 
L 782.070942 -252.504508 
L 779.669403 -252.599365 
L 777.267864 -252.678799 
L 774.866325 -252.723213 
L 772.464786 -252.767276 
L 770.063246 -252.802118 
L 767.661707 -252.850231 
L 765.260168 -252.901649 
L 762.858629 -252.99111 
L 760.45709 -253.086689 
L 758.055551 -253.206292 
L 755.654012 -253.330223 
L 753.252473 -253.476423 
L 750.850934 -253.606273 
L 748.449395 -253.725451 
L 746.047856 -253.8462 
L 743.646317 -253.981505 
L 741.244777 -254.117199 
L 738.843238 -254.266329 
L 736.441699 -254.419853 
L 734.04016 -254.577817 
L 731.638621 -254.736591 
L 729.237082 -254.916198 
L 726.835543 -255.10092 
L 724.434004 -255.304393 
L 722.032465 -255.559117 
L 719.630926 -255.816531 
L 717.229387 -256.064824 
L 714.827848 -256.302607 
L 712.426309 -256.560095 
L 710.024769 -256.801018 
L 707.62323 -257.052771 
L 705.221691 -257.292493 
L 702.820152 -257.546378 
L 700.418613 -257.790304 
L 698.017074 -258.037417 
L 695.615535 -258.247039 
L 693.213996 -258.458465 
L 690.812457 -258.676326 
L 688.410918 -258.892034 
L 686.009379 -259.101565 
L 683.60784 -259.292938 
L 681.206301 -259.473599 
L 678.804761 -259.652344 
L 676.403222 -259.832766 
L 674.001683 -259.987676 
L 671.600144 -260.13551 
L 669.198605 -260.274745 
L 666.797066 -260.397127 
L 664.395527 -260.47399 
L 661.993988 -260.560079 
L 659.592449 -260.623726 
L 657.19091 -260.674868 
L 654.789371 -260.723506 
L 652.387832 -260.753382 
L 649.986293 -260.791214 
L 647.584753 -260.847948 
L 645.183214 -260.916411 
L 642.781675 -260.982551 
L 640.380136 -261.051489 
L 637.978597 -261.121383 
L 635.577058 -261.217257 
L 633.175519 -261.323916 
L 630.77398 -261.468059 
L 628.372441 -261.593531 
L 625.970902 -261.69938 
L 623.569363 -261.798805 
L 621.167824 -261.916466 
L 618.766285 -262.027442 
L 616.364745 -262.157608 
L 613.963206 -262.275354 
L 611.561667 -262.410444 
L 609.160128 -262.58512 
L 606.758589 -262.764968 
L 604.35705 -262.983463 
L 601.955511 -263.201401 
L 599.553972 -263.432463 
L 597.152433 -263.665358 
L 594.750894 -263.902678 
L 592.349355 -264.14915 
L 589.947816 -264.406959 
L 587.546277 -264.692137 
L 585.144737 -264.975501 
L 582.743198 -265.226815 
L 580.341659 -265.493119 
L 577.94012 -265.791933 
L 575.538581 -266.088946 
L 573.137042 -266.3569 
L 570.735503 -266.659037 
L 568.333964 -266.968337 
L 565.932425 -267.30528 
L 563.530886 -267.65307 
L 561.129347 -267.9832 
L 558.727808 -268.310607 
L 556.326268 -268.646207 
L 553.924729 -268.985178 
L 551.52319 -269.343891 
L 549.121651 -269.724468 
L 546.720112 -270.122138 
L 544.318573 -270.51392 
L 541.917034 -270.912332 
L 539.515495 -271.297176 
L 537.113956 -271.698841 
L 534.712417 -272.132717 
L 532.310878 -272.567485 
L 529.909339 -273.00496 
L 527.5078 -273.447896 
L 525.10626 -273.923507 
L 522.704721 -274.390594 
L 520.303182 -274.853248 
L 517.901643 -275.308556 
L 515.500104 -275.731449 
L 513.098565 -276.185012 
L 510.697026 -276.648581 
L 508.295487 -277.111667 
L 505.893948 -277.60151 
L 503.492409 -278.092726 
L 501.09087 -278.577388 
L 498.689331 -279.053907 
L 496.287792 -279.530489 
L 493.886252 -280.012171 
L 491.484713 -280.500377 
L 489.083174 -280.988076 
L 486.681635 -281.471754 
L 484.280096 -281.979203 
L 481.878557 -282.463683 
L 479.477018 -282.975473 
L 477.075479 -283.505093 
L 474.67394 -284.039177 
L 472.272401 -284.55091 
L 469.870862 -285.110536 
L 467.469323 -285.718354 
L 465.067784 -286.3093 
L 462.666244 -286.902812 
L 460.264705 -287.509617 
L 457.863166 -288.12028 
L 455.461627 -288.711899 
L 453.060088 -289.314019 
L 450.658549 -289.945885 
L 448.25701 -290.61471 
L 445.855471 -291.291698 
L 443.453932 -291.983409 
L 441.052393 -292.671054 
L 438.650854 -293.376124 
L 436.249315 -294.058287 
L 433.847776 -294.770635 
L 431.446236 -295.62896 
L 429.044697 -296.479321 
L 426.643158 -297.333948 
L 424.241619 -298.212711 
L 421.84008 -299.091776 
L 419.438541 -299.977764 
L 417.037002 -300.89792 
L 414.635463 -301.852978 
L 412.233924 -302.816955 
L 409.832385 -303.777122 
L 407.430846 -304.751085 
L 405.029307 -305.726465 
L 402.627768 -306.70383 
L 400.226228 -307.701756 
L 397.824689 -308.708655 
L 395.42315 -309.726232 
L 393.021611 -310.744337 
L 390.620072 -311.765219 
L 388.218533 -312.814832 
L 385.816994 -313.873371 
L 383.415455 -314.914624 
L 381.013916 -315.985167 
L 378.612377 -317.069691 
L 376.210838 -318.153328 
L 373.809299 -319.243815 
L 371.407759 -320.342372 
L 369.00622 -321.443277 
L 366.604681 -322.529683 
L 364.203142 -323.619171 
L 361.801603 -324.715295 
L 359.400064 -325.827881 
L 356.998525 -326.938536 
L 354.596986 -328.047477 
L 352.195447 -329.141533 
L 349.793908 -330.245536 
L 347.392369 -331.375614 
L 344.99083 -332.559687 
L 342.589291 -333.721697 
L 340.187751 -334.922749 
L 337.786212 -336.149869 
L 335.384673 -337.373366 
L 332.983134 -338.610314 
L 330.581595 -339.859065 
L 328.180056 -341.131892 
L 325.778517 -342.416267 
L 323.376978 -343.719641 
L 320.975439 -345.05834 
L 318.5739 -346.446174 
L 316.172361 -347.847218 
L 313.770822 -349.273361 
L 311.369283 -350.711167 
L 308.967743 -352.152929 
L 306.566204 -353.614434 
L 304.164665 -355.102932 
L 301.763126 -356.614308 
L 299.361587 -358.117125 
L 296.960048 -359.594897 
L 294.558509 -361.09928 
L 292.15697 -362.571866 
L 289.755431 -364.0587 
L 287.353892 -365.573835 
L 284.952353 -367.111245 
L 282.550814 -368.681905 
L 280.149275 -370.26859 
L 277.747735 -371.848006 
L 275.346196 -373.434477 
L 272.944657 -375.019306 
L 270.543118 -376.604336 
L 268.141579 -378.206791 
L 265.74004 -379.821492 
L 263.338501 -381.501811 
L 260.936962 -383.200433 
L 258.535423 -384.905713 
L 256.133884 -386.619051 
L 253.732345 -388.323284 
L 251.330806 -390.078002 
L 248.929267 -391.869651 
L 246.527727 -393.706823 
L 244.126188 -395.574297 
L 241.724649 -397.441783 
L 239.32311 -399.317595 
L 236.921571 -401.158538 
L 234.520032 -403.008971 
L 232.118493 -404.906404 
L 229.716954 -406.834219 
L 227.315415 -408.742823 
L 224.913876 -410.635094 
L 222.512337 -412.55808 
L 220.110798 -414.464173 
L 217.709259 -416.40439 
L 215.307719 -418.317036 
L 212.90618 -420.307589 
L 210.504641 -422.368259 
L 208.103102 -424.451103 
L 205.701563 -426.565135 
L 203.300024 -428.587755 
L 200.898485 -430.570516 
L 198.496946 -432.500284 
L 196.095407 -434.406598 
L 193.693868 -436.270273 
L 191.292329 -438.115669 
L 188.89079 -439.944995 
L 186.48925 -441.764306 
L 184.087711 -443.445946 
L 181.686172 -445.059356 
L 179.284633 -446.667198 
L 176.883094 -448.17838 
L 174.481555 -449.588048 
L 172.080016 -450.946931 
L 169.678477 -452.222358 
L 167.276938 -453.434839 
z
" style="stroke: #74b8f8; stroke-opacity: 0.2"/>
    </defs>
    <g clip-path="url(#p76d4f28d2c)">
     <use xlink:href="#mb31fae6fce" x="0" y="600" style="fill: #74b8f8; fill-opacity: 0.2; stroke: #74b8f8; stroke-opacity: 0.2"/>
    </g>
   </g>
   <g id="PolyCollection_2">
    <defs>
     <path id="ma4bf8c47ea" d="M 116.844617 -472.417307 
L 116.844617 -471.1303 
L 119.246156 -470.484336 
L 121.647695 -469.79453 
L 124.049234 -469.139342 
L 126.450774 -468.52489 
L 128.852313 -467.955566 
L 131.253852 -467.396428 
L 133.655391 -466.903141 
L 136.05693 -466.406469 
L 138.458469 -465.921694 
L 140.860008 -465.506621 
L 143.261547 -464.461457 
L 145.663086 -463.396323 
L 148.064625 -462.295819 
L 150.466164 -461.221595 
L 152.867703 -460.188999 
L 155.269242 -459.140737 
L 157.670782 -458.076147 
L 160.072321 -456.998532 
L 162.47386 -455.853207 
L 164.875399 -454.648 
L 164.875399 -454.648 
L 164.875399 -454.648 
L 162.47386 -455.990656 
L 160.072321 -457.262183 
L 157.670782 -458.469227 
L 155.269242 -459.682728 
L 152.867703 -460.870302 
L 150.466164 -462.050279 
L 148.064625 -463.219187 
L 145.663086 -464.405387 
L 143.261547 -465.558353 
L 140.860008 -466.698428 
L 138.458469 -467.240613 
L 136.05693 -467.812372 
L 133.655391 -468.363041 
L 131.253852 -468.894911 
L 128.852313 -469.461038 
L 126.450774 -470.026995 
L 124.049234 -470.604942 
L 121.647695 -471.205045 
L 119.246156 -471.82233 
L 116.844617 -472.417307 
z
" style="stroke: #000000; stroke-opacity: 0.2"/>
    </defs>
    <g clip-path="url(#p76d4f28d2c)">
     <use xlink:href="#ma4bf8c47ea" x="0" y="600" style="fill-opacity: 0.2; stroke: #000000; stroke-opacity: 0.2"/>
    </g>
   </g>
   <g id="PolyCollection_3">
    <defs>
     <path id="me907692201" d="M 167.276938 -453.52653 
L 167.276938 -453.205359 
L 169.678477 -451.754778 
L 172.080016 -450.30036 
L 174.481555 -448.815057 
L 176.883094 -447.31498 
L 179.284633 -445.794367 
L 181.686172 -444.239642 
L 184.087711 -442.696084 
L 186.48925 -441.061322 
L 188.89079 -439.391568 
L 191.292329 -437.634769 
L 193.693868 -435.849596 
L 196.095407 -434.051528 
L 198.496946 -432.213245 
L 200.898485 -430.378632 
L 203.300024 -428.532873 
L 205.701563 -426.658657 
L 208.103102 -424.718688 
L 210.504641 -422.71126 
L 212.90618 -420.618663 
L 215.307719 -418.621633 
L 217.709259 -416.850189 
L 220.110798 -415.066944 
L 222.512337 -413.269528 
L 224.913876 -411.448132 
L 227.315415 -409.604857 
L 229.716954 -407.707522 
L 232.118493 -405.669401 
L 234.520032 -403.551191 
L 236.921571 -401.423346 
L 239.32311 -399.145154 
L 241.724649 -396.780539 
L 244.126188 -394.373975 
L 246.527727 -391.999448 
L 248.929267 -389.465964 
L 251.330806 -386.93557 
L 253.732345 -384.423829 
L 256.133884 -381.933505 
L 258.535423 -379.431196 
L 260.936962 -376.942549 
L 263.338501 -374.444876 
L 265.74004 -371.973782 
L 268.141579 -369.514746 
L 270.543118 -367.025151 
L 272.944657 -364.534177 
L 275.346196 -362.008772 
L 277.747735 -359.483656 
L 280.149275 -356.981213 
L 282.550814 -354.508559 
L 284.952353 -352.051988 
L 287.353892 -349.588575 
L 289.755431 -347.169595 
L 292.15697 -344.79484 
L 294.558509 -342.363118 
L 296.960048 -339.958563 
L 299.361587 -337.529455 
L 301.763126 -335.12243 
L 304.164665 -332.73935 
L 306.566204 -330.37109 
L 308.967743 -328.036301 
L 311.369283 -325.74009 
L 313.770822 -323.449625 
L 316.172361 -321.119553 
L 318.5739 -318.791516 
L 320.975439 -316.526492 
L 323.376978 -314.288433 
L 325.778517 -312.046133 
L 328.180056 -309.806217 
L 330.581595 -307.582792 
L 332.983134 -305.393146 
L 335.384673 -303.253833 
L 337.786212 -301.162224 
L 340.187751 -299.095283 
L 342.589291 -297.037654 
L 344.99083 -295.03832 
L 347.392369 -293.125496 
L 349.793908 -291.242257 
L 352.195447 -289.320304 
L 354.596986 -287.415764 
L 356.998525 -285.528451 
L 359.400064 -283.665069 
L 361.801603 -281.813974 
L 364.203142 -279.970145 
L 366.604681 -278.143361 
L 369.00622 -276.301878 
L 371.407759 -274.454894 
L 373.809299 -272.646863 
L 376.210838 -270.874921 
L 378.612377 -269.117455 
L 381.013916 -267.369018 
L 383.415455 -265.614999 
L 385.816994 -263.819984 
L 388.218533 -262.025641 
L 390.620072 -260.26965 
L 393.021611 -258.519168 
L 395.42315 -256.799526 
L 397.824689 -255.065821 
L 400.226228 -253.372869 
L 402.627768 -251.705648 
L 405.029307 -250.049164 
L 407.430846 -248.426218 
L 409.832385 -246.818212 
L 412.233924 -245.226585 
L 414.635463 -243.656748 
L 417.037002 -242.10865 
L 419.438541 -240.539949 
L 421.84008 -238.968746 
L 424.241619 -237.711685 
L 426.643158 -236.444817 
L 429.044697 -235.179849 
L 431.446236 -233.907088 
L 433.847776 -232.635072 
L 436.249315 -231.377662 
L 438.650854 -230.155806 
L 441.052393 -228.940197 
L 443.453932 -227.734243 
L 445.855471 -226.514399 
L 448.25701 -225.294778 
L 450.658549 -224.090128 
L 453.060088 -222.871994 
L 455.461627 -221.660436 
L 457.863166 -220.484459 
L 460.264705 -219.344041 
L 462.666244 -218.231068 
L 465.067784 -217.125576 
L 467.469323 -216.031933 
L 469.870862 -214.927812 
L 472.272401 -213.835833 
L 474.67394 -212.763798 
L 477.075479 -211.724747 
L 479.477018 -210.71132 
L 481.878557 -209.725226 
L 484.280096 -208.755693 
L 486.681635 -207.810358 
L 489.083174 -206.888145 
L 491.484713 -205.979735 
L 493.886252 -205.103462 
L 496.287792 -204.232366 
L 498.689331 -203.370028 
L 501.09087 -202.522046 
L 503.492409 -201.681357 
L 505.893948 -200.847898 
L 508.295487 -200.023999 
L 510.697026 -199.215085 
L 513.098565 -198.424211 
L 515.500104 -197.647539 
L 517.901643 -196.866448 
L 520.303182 -196.097015 
L 522.704721 -195.35018 
L 525.10626 -194.618995 
L 527.5078 -193.905081 
L 529.909339 -193.200033 
L 532.310878 -192.500714 
L 534.712417 -191.786641 
L 537.113956 -191.069709 
L 539.515495 -190.346291 
L 541.917034 -189.6186 
L 544.318573 -188.893717 
L 546.720112 -188.176328 
L 549.121651 -187.479385 
L 551.52319 -186.806338 
L 553.924729 -186.138051 
L 556.326268 -185.460018 
L 558.727808 -184.774483 
L 561.129347 -184.073466 
L 563.530886 -183.38257 
L 565.932425 -182.733864 
L 568.333964 -182.075262 
L 570.735503 -181.409094 
L 573.137042 -180.743572 
L 575.538581 -180.062492 
L 577.94012 -179.397335 
L 580.341659 -178.737764 
L 582.743198 -178.096365 
L 585.144737 -177.460245 
L 587.546277 -176.842181 
L 589.947816 -176.226163 
L 592.349355 -175.62265 
L 594.750894 -175.022552 
L 597.152433 -174.424624 
L 599.553972 -173.824896 
L 601.955511 -173.243581 
L 604.35705 -172.674258 
L 606.758589 -172.124189 
L 609.160128 -171.591152 
L 611.561667 -171.068774 
L 613.963206 -170.541806 
L 616.364745 -170.035801 
L 618.766285 -169.545909 
L 621.167824 -169.054231 
L 623.569363 -168.582136 
L 625.970902 -168.106162 
L 628.372441 -167.639054 
L 630.77398 -167.175004 
L 633.175519 -166.722822 
L 635.577058 -166.281543 
L 637.978597 -165.855322 
L 640.380136 -165.434002 
L 642.781675 -165.01226 
L 645.183214 -164.591016 
L 647.584753 -164.173886 
L 649.986293 -163.751561 
L 652.387832 -163.33869 
L 654.789371 -162.935029 
L 657.19091 -162.549281 
L 659.592449 -162.172784 
L 661.993988 -161.804726 
L 664.395527 -161.439858 
L 666.797066 -161.082696 
L 669.198605 -160.733396 
L 671.600144 -160.404348 
L 674.001683 -160.087526 
L 676.403222 -159.782431 
L 678.804761 -159.479269 
L 681.206301 -159.172922 
L 683.60784 -158.857638 
L 686.009379 -158.53502 
L 688.410918 -158.207305 
L 690.812457 -157.88841 
L 693.213996 -157.583486 
L 695.615535 -157.285133 
L 698.017074 -156.986282 
L 700.418613 -156.691587 
L 702.820152 -156.380209 
L 705.221691 -156.003744 
L 707.62323 -155.624423 
L 710.024769 -155.244496 
L 712.426309 -154.864608 
L 714.827848 -154.485114 
L 717.229387 -154.116837 
L 719.630926 -153.758031 
L 722.032465 -153.393155 
L 724.434004 -153.02446 
L 726.835543 -152.661612 
L 729.237082 -152.296677 
L 731.638621 -151.935589 
L 734.04016 -151.583794 
L 736.441699 -151.239171 
L 738.843238 -150.887838 
L 741.244777 -150.532705 
L 743.646317 -150.182622 
L 746.047856 -149.832576 
L 748.449395 -149.500039 
L 750.850934 -149.159558 
L 753.252473 -148.819285 
L 755.654012 -148.486804 
L 758.055551 -148.169961 
L 760.45709 -147.863442 
L 762.858629 -147.568813 
L 765.260168 -147.283167 
L 767.661707 -146.987836 
L 770.063246 -146.687544 
L 772.464786 -146.385543 
L 774.866325 -146.100984 
L 777.267864 -145.822706 
L 779.669403 -145.553701 
L 782.070942 -145.29099 
L 784.472481 -145.027566 
L 786.87402 -144.771733 
L 789.275559 -144.53141 
L 791.677098 -144.290471 
L 794.078637 -144.050092 
L 796.480176 -143.805453 
L 798.881715 -143.571418 
L 801.283254 -143.334768 
L 803.684794 -143.100213 
L 806.086333 -142.930152 
L 808.487872 -142.759881 
L 810.889411 -142.587151 
L 813.29095 -142.41507 
L 815.692489 -142.232878 
L 818.094028 -142.147076 
L 820.495567 -142.062881 
L 822.897106 -141.97522 
L 825.298645 -141.885744 
L 827.700184 -141.791525 
L 830.101723 -141.695561 
L 832.503262 -141.58991 
L 834.904802 -141.501387 
L 837.306341 -141.414519 
L 837.306341 -231.215331 
L 837.306341 -231.215331 
L 834.904802 -231.287287 
L 832.503262 -231.354341 
L 830.101723 -231.445198 
L 827.700184 -231.541217 
L 825.298645 -231.634689 
L 822.897106 -231.735967 
L 820.495567 -231.824476 
L 818.094028 -231.900833 
L 815.692489 -231.956796 
L 813.29095 -232.091459 
L 810.889411 -232.264749 
L 808.487872 -232.453685 
L 806.086333 -232.659218 
L 803.684794 -232.83711 
L 801.283254 -233.036574 
L 798.881715 -233.250143 
L 796.480176 -233.488694 
L 794.078637 -233.712446 
L 791.677098 -233.946322 
L 789.275559 -234.176594 
L 786.87402 -234.401232 
L 784.472481 -234.631695 
L 782.070942 -234.83014 
L 779.669403 -235.034023 
L 777.267864 -235.259135 
L 774.866325 -235.494573 
L 772.464786 -235.761241 
L 770.063246 -236.038214 
L 767.661707 -236.351749 
L 765.260168 -236.659606 
L 762.858629 -236.943048 
L 760.45709 -237.246127 
L 758.055551 -237.56013 
L 755.654012 -237.874116 
L 753.252473 -238.182497 
L 750.850934 -238.480179 
L 748.449395 -238.772684 
L 746.047856 -239.0808 
L 743.646317 -239.382447 
L 741.244777 -239.684219 
L 738.843238 -239.993089 
L 736.441699 -240.302075 
L 734.04016 -240.629179 
L 731.638621 -240.946714 
L 729.237082 -241.239755 
L 726.835543 -241.53032 
L 724.434004 -241.812706 
L 722.032465 -242.107887 
L 719.630926 -242.406905 
L 717.229387 -242.705339 
L 714.827848 -243.01295 
L 712.426309 -243.331231 
L 710.024769 -243.651502 
L 707.62323 -243.972181 
L 705.221691 -244.291276 
L 702.820152 -244.617196 
L 700.418613 -244.952256 
L 698.017074 -245.282269 
L 695.615535 -245.624123 
L 693.213996 -245.96518 
L 690.812457 -246.296124 
L 688.410918 -246.629982 
L 686.009379 -246.961957 
L 683.60784 -247.311822 
L 681.206301 -247.67121 
L 678.804761 -248.034572 
L 676.403222 -248.412151 
L 674.001683 -248.779404 
L 671.600144 -249.147819 
L 669.198605 -249.515037 
L 666.797066 -249.882872 
L 664.395527 -250.237648 
L 661.993988 -250.604566 
L 659.592449 -250.989902 
L 657.19091 -251.385601 
L 654.789371 -251.785144 
L 652.387832 -252.176685 
L 649.986293 -252.583638 
L 647.584753 -252.987331 
L 645.183214 -253.397825 
L 642.781675 -253.81765 
L 640.380136 -254.241393 
L 637.978597 -254.68173 
L 635.577058 -255.123679 
L 633.175519 -255.578246 
L 630.77398 -256.051724 
L 628.372441 -256.532681 
L 625.970902 -257.018754 
L 623.569363 -257.511987 
L 621.167824 -258.01021 
L 618.766285 -258.498568 
L 616.364745 -258.999222 
L 613.963206 -259.50004 
L 611.561667 -259.992689 
L 609.160128 -260.470934 
L 606.758589 -260.956486 
L 604.35705 -261.451578 
L 601.955511 -261.945866 
L 599.553972 -262.448374 
L 597.152433 -262.954596 
L 594.750894 -263.475174 
L 592.349355 -264.011217 
L 589.947816 -264.545094 
L 587.546277 -265.072448 
L 585.144737 -265.593255 
L 582.743198 -266.110827 
L 580.341659 -266.621296 
L 577.94012 -267.133626 
L 575.538581 -267.655068 
L 573.137042 -268.196208 
L 570.735503 -268.729984 
L 568.333964 -269.24842 
L 565.932425 -269.775701 
L 563.530886 -270.297174 
L 561.129347 -270.848998 
L 558.727808 -271.41727 
L 556.326268 -271.97914 
L 553.924729 -272.535877 
L 551.52319 -273.088248 
L 549.121651 -273.639101 
L 546.720112 -274.208302 
L 544.318573 -274.767412 
L 541.917034 -275.336763 
L 539.515495 -275.932077 
L 537.113956 -276.522576 
L 534.712417 -277.090869 
L 532.310878 -277.653275 
L 529.909339 -278.208585 
L 527.5078 -278.746681 
L 525.10626 -279.277548 
L 522.704721 -279.828995 
L 520.303182 -280.398752 
L 517.901643 -280.967635 
L 515.500104 -281.543122 
L 513.098565 -282.093101 
L 510.697026 -282.658716 
L 508.295487 -283.226999 
L 505.893948 -283.796021 
L 503.492409 -284.378499 
L 501.09087 -284.967053 
L 498.689331 -285.552632 
L 496.287792 -286.135344 
L 493.886252 -286.704661 
L 491.484713 -287.255682 
L 489.083174 -287.828183 
L 486.681635 -288.421728 
L 484.280096 -289.014971 
L 481.878557 -289.621281 
L 479.477018 -290.267375 
L 477.075479 -290.939244 
L 474.67394 -291.624319 
L 472.272401 -292.321808 
L 469.870862 -293.038171 
L 467.469323 -293.77021 
L 465.067784 -294.52532 
L 462.666244 -295.250629 
L 460.264705 -296.015893 
L 457.863166 -296.798456 
L 455.461627 -297.597391 
L 453.060088 -298.418437 
L 450.658549 -299.219217 
L 448.25701 -300.025645 
L 445.855471 -300.856328 
L 443.453932 -301.703408 
L 441.052393 -302.557081 
L 438.650854 -303.416503 
L 436.249315 -304.313382 
L 433.847776 -305.256902 
L 431.446236 -306.183417 
L 429.044697 -307.086265 
L 426.643158 -308.00491 
L 424.241619 -308.944302 
L 421.84008 -309.910806 
L 419.438541 -310.873194 
L 417.037002 -311.830435 
L 414.635463 -312.82793 
L 412.233924 -313.828424 
L 409.832385 -314.827442 
L 407.430846 -315.835133 
L 405.029307 -316.845744 
L 402.627768 -317.884408 
L 400.226228 -318.940685 
L 397.824689 -319.993983 
L 395.42315 -321.013283 
L 393.021611 -322.027069 
L 390.620072 -323.042966 
L 388.218533 -324.06552 
L 385.816994 -325.078406 
L 383.415455 -326.097616 
L 381.013916 -327.153308 
L 378.612377 -328.217759 
L 376.210838 -329.260948 
L 373.809299 -330.29537 
L 371.407759 -331.367042 
L 369.00622 -332.473176 
L 366.604681 -333.556492 
L 364.203142 -334.613513 
L 361.801603 -335.710632 
L 359.400064 -336.77399 
L 356.998525 -337.821981 
L 354.596986 -338.888724 
L 352.195447 -339.978542 
L 349.793908 -341.098471 
L 347.392369 -342.276194 
L 344.99083 -343.498731 
L 342.589291 -344.751542 
L 340.187751 -345.999432 
L 337.786212 -347.268061 
L 335.384673 -348.544051 
L 332.983134 -349.85007 
L 330.581595 -351.145517 
L 328.180056 -352.499398 
L 325.778517 -353.866253 
L 323.376978 -355.265395 
L 320.975439 -356.6478 
L 318.5739 -358.07226 
L 316.172361 -359.504685 
L 313.770822 -360.976623 
L 311.369283 -362.510286 
L 308.967743 -364.090147 
L 306.566204 -365.690853 
L 304.164665 -367.308615 
L 301.763126 -368.922942 
L 299.361587 -370.542049 
L 296.960048 -372.168412 
L 294.558509 -373.795516 
L 292.15697 -375.454087 
L 289.755431 -377.122727 
L 287.353892 -378.794336 
L 284.952353 -380.426991 
L 282.550814 -382.074752 
L 280.149275 -383.714216 
L 277.747735 -385.339582 
L 275.346196 -386.926692 
L 272.944657 -388.518538 
L 270.543118 -390.090896 
L 268.141579 -391.693098 
L 265.74004 -393.276075 
L 263.338501 -394.848641 
L 260.936962 -396.433785 
L 258.535423 -398.000703 
L 256.133884 -399.53423 
L 253.732345 -401.090591 
L 251.330806 -402.641214 
L 248.929267 -404.164775 
L 246.527727 -405.684424 
L 244.126188 -407.226883 
L 241.724649 -408.726096 
L 239.32311 -410.236875 
L 236.921571 -411.746901 
L 234.520032 -413.243565 
L 232.118493 -414.730835 
L 229.716954 -416.32227 
L 227.315415 -417.882913 
L 224.913876 -419.503445 
L 222.512337 -421.148397 
L 220.110798 -422.788522 
L 217.709259 -424.239765 
L 215.307719 -425.612625 
L 212.90618 -426.96697 
L 210.504641 -428.373126 
L 208.103102 -429.955071 
L 205.701563 -431.536978 
L 203.300024 -433.073871 
L 200.898485 -434.612281 
L 198.496946 -436.139126 
L 196.095407 -437.604369 
L 193.693868 -439.09003 
L 191.292329 -440.577793 
L 188.89079 -442.098473 
L 186.48925 -443.650609 
L 184.087711 -444.954339 
L 181.686172 -446.148117 
L 179.284633 -447.57419 
L 176.883094 -448.881895 
L 174.481555 -450.153277 
L 172.080016 -451.318245 
L 169.678477 -452.428136 
L 167.276938 -453.52653 
z
" style="stroke: #f47100; stroke-opacity: 0.2"/>
    </defs>
    <g clip-path="url(#p76d4f28d2c)">
     <use xlink:href="#me907692201" x="0" y="600" style="fill: #f47100; fill-opacity: 0.2; stroke: #f47100; stroke-opacity: 0.2"/>
    </g>
   </g>
   <g id="PolyCollection_4">
    <defs>
     <path id="mc58b2810fb" d="M 116.844617 -473.471843 
L 116.844617 -470.887456 
L 119.246156 -470.215302 
L 121.647695 -469.488482 
L 124.049234 -468.805042 
L 126.450774 -468.171682 
L 128.852313 -467.600082 
L 131.253852 -467.043862 
L 133.655391 -466.569375 
L 136.05693 -466.099214 
L 138.458469 -465.657472 
L 140.860008 -465.30559 
L 143.261547 -464.306846 
L 145.663086 -463.266012 
L 148.064625 -462.208823 
L 150.466164 -461.167366 
L 152.867703 -460.151843 
L 155.269242 -459.09671 
L 157.670782 -457.979971 
L 160.072321 -456.885238 
L 162.47386 -455.753113 
L 164.875399 -454.648 
L 164.875399 -454.648 
L 164.875399 -454.648 
L 162.47386 -456.042893 
L 160.072321 -457.446608 
L 157.670782 -458.815159 
L 155.269242 -460.157109 
L 152.867703 -461.435113 
L 150.466164 -462.619482 
L 148.064625 -463.8593 
L 145.663086 -465.072556 
L 143.261547 -466.248999 
L 140.860008 -467.404307 
L 138.458469 -468.022035 
L 136.05693 -468.735728 
L 133.655391 -469.362533 
L 131.253852 -469.979117 
L 128.852313 -470.594668 
L 126.450774 -471.180238 
L 124.049234 -471.760844 
L 121.647695 -472.308633 
L 119.246156 -472.895952 
L 116.844617 -473.471843 
z
" style="stroke: #000000; stroke-opacity: 0.2"/>
    </defs>
    <g clip-path="url(#p76d4f28d2c)">
     <use xlink:href="#mc58b2810fb" x="0" y="600" style="fill-opacity: 0.2; stroke: #000000; stroke-opacity: 0.2"/>
    </g>
   </g>
   <g id="PolyCollection_5">
    <defs>
     <path id="m1a380c3a71" d="M 167.276938 -453.553665 
L 167.276938 -453.158887 
L 169.678477 -451.637477 
L 172.080016 -450.14122 
L 174.481555 -448.571247 
L 176.883094 -446.826568 
L 179.284633 -445.025979 
L 181.686172 -443.272974 
L 184.087711 -441.510736 
L 186.48925 -439.697574 
L 188.89079 -437.88179 
L 191.292329 -435.898514 
L 193.693868 -433.795478 
L 196.095407 -431.549189 
L 198.496946 -429.24888 
L 200.898485 -426.893512 
L 203.300024 -424.472038 
L 205.701563 -422.022837 
L 208.103102 -419.595329 
L 210.504641 -417.172127 
L 212.90618 -414.739483 
L 215.307719 -412.31007 
L 217.709259 -409.910444 
L 220.110798 -407.499577 
L 222.512337 -405.072623 
L 224.913876 -402.66651 
L 227.315415 -400.230685 
L 229.716954 -397.813749 
L 232.118493 -395.418575 
L 234.520032 -393.02955 
L 236.921571 -390.641578 
L 239.32311 -388.222937 
L 241.724649 -385.788947 
L 244.126188 -383.441581 
L 246.527727 -381.101489 
L 248.929267 -378.768494 
L 251.330806 -376.510472 
L 253.732345 -374.237352 
L 256.133884 -371.947015 
L 258.535423 -369.660214 
L 260.936962 -367.383759 
L 263.338501 -365.106745 
L 265.74004 -362.838513 
L 268.141579 -360.560723 
L 270.543118 -358.336153 
L 272.944657 -356.093052 
L 275.346196 -353.840956 
L 277.747735 -351.591231 
L 280.149275 -349.399364 
L 282.550814 -347.219807 
L 284.952353 -345.094915 
L 287.353892 -343.073919 
L 289.755431 -341.094888 
L 292.15697 -339.192462 
L 294.558509 -337.304574 
L 296.960048 -335.379267 
L 299.361587 -333.257795 
L 301.763126 -331.19343 
L 304.164665 -329.121203 
L 306.566204 -327.048237 
L 308.967743 -324.99223 
L 311.369283 -323.018303 
L 313.770822 -321.093787 
L 316.172361 -319.192261 
L 318.5739 -317.335619 
L 320.975439 -315.550314 
L 323.376978 -313.8474 
L 325.778517 -312.185146 
L 328.180056 -310.538093 
L 330.581595 -308.982107 
L 332.983134 -307.494452 
L 335.384673 -305.990879 
L 337.786212 -304.526751 
L 340.187751 -303.082362 
L 342.589291 -301.695572 
L 344.99083 -300.369951 
L 347.392369 -299.09804 
L 349.793908 -297.925765 
L 352.195447 -296.780527 
L 354.596986 -295.656054 
L 356.998525 -294.544696 
L 359.400064 -293.412323 
L 361.801603 -292.315376 
L 364.203142 -291.263487 
L 366.604681 -290.186918 
L 369.00622 -289.115401 
L 371.407759 -288.067161 
L 373.809299 -287.06165 
L 376.210838 -286.134127 
L 378.612377 -285.158993 
L 381.013916 -284.173714 
L 383.415455 -283.209818 
L 385.816994 -282.268517 
L 388.218533 -281.34722 
L 390.620072 -280.412017 
L 393.021611 -279.4829 
L 395.42315 -278.548612 
L 397.824689 -277.504036 
L 400.226228 -276.205301 
L 402.627768 -274.930161 
L 405.029307 -273.685879 
L 407.430846 -272.456425 
L 409.832385 -271.23302 
L 412.233924 -270.041461 
L 414.635463 -268.893349 
L 417.037002 -267.742098 
L 419.438541 -266.578869 
L 421.84008 -265.361807 
L 424.241619 -263.899689 
L 426.643158 -262.404914 
L 429.044697 -260.887738 
L 431.446236 -259.17753 
L 433.847776 -257.487655 
L 436.249315 -255.809613 
L 438.650854 -254.144225 
L 441.052393 -252.48897 
L 443.453932 -250.88233 
L 445.855471 -249.348738 
L 448.25701 -247.836031 
L 450.658549 -246.317774 
L 453.060088 -244.822153 
L 455.461627 -243.340966 
L 457.863166 -241.898409 
L 460.264705 -240.481236 
L 462.666244 -239.121152 
L 465.067784 -238.174565 
L 467.469323 -237.28031 
L 469.870862 -236.196803 
L 472.272401 -234.785335 
L 474.67394 -233.41959 
L 477.075479 -232.099757 
L 479.477018 -230.826582 
L 481.878557 -229.561483 
L 484.280096 -228.314681 
L 486.681635 -227.072728 
L 489.083174 -225.832217 
L 491.484713 -224.563513 
L 493.886252 -223.308626 
L 496.287792 -222.079942 
L 498.689331 -220.861981 
L 501.09087 -219.654804 
L 503.492409 -218.444533 
L 505.893948 -217.248632 
L 508.295487 -216.065647 
L 510.697026 -214.870957 
L 513.098565 -213.659088 
L 515.500104 -212.424758 
L 517.901643 -211.17959 
L 520.303182 -209.92502 
L 522.704721 -208.663711 
L 525.10626 -207.406118 
L 527.5078 -206.115609 
L 529.909339 -204.8436 
L 532.310878 -203.586092 
L 534.712417 -202.373291 
L 537.113956 -201.186934 
L 539.515495 -200.006871 
L 541.917034 -198.835941 
L 544.318573 -197.670134 
L 546.720112 -196.552178 
L 549.121651 -195.470286 
L 551.52319 -194.391105 
L 553.924729 -193.31999 
L 556.326268 -192.267184 
L 558.727808 -191.230026 
L 561.129347 -190.224476 
L 563.530886 -189.276507 
L 565.932425 -188.387311 
L 568.333964 -187.525052 
L 570.735503 -186.708024 
L 573.137042 -185.926405 
L 575.538581 -185.175399 
L 577.94012 -184.422199 
L 580.341659 -183.681854 
L 582.743198 -182.946835 
L 585.144737 -182.205907 
L 587.546277 -181.506721 
L 589.947816 -180.832375 
L 592.349355 -180.180443 
L 594.750894 -179.503703 
L 597.152433 -178.828922 
L 599.553972 -178.192573 
L 601.955511 -177.568762 
L 604.35705 -176.930896 
L 606.758589 -176.338643 
L 609.160128 -175.760518 
L 611.561667 -175.162901 
L 613.963206 -174.593161 
L 616.364745 -174.006987 
L 618.766285 -173.382951 
L 621.167824 -172.733633 
L 623.569363 -172.101219 
L 625.970902 -171.469064 
L 628.372441 -170.85749 
L 630.77398 -170.261169 
L 633.175519 -169.685521 
L 635.577058 -169.120122 
L 637.978597 -168.541936 
L 640.380136 -167.97843 
L 642.781675 -167.454763 
L 645.183214 -166.921181 
L 647.584753 -166.397504 
L 649.986293 -165.871015 
L 652.387832 -165.374041 
L 654.789371 -164.85833 
L 657.19091 -164.344154 
L 659.592449 -163.838582 
L 661.993988 -163.314608 
L 664.395527 -162.805283 
L 666.797066 -162.307621 
L 669.198605 -161.820364 
L 671.600144 -161.333674 
L 674.001683 -160.854096 
L 676.403222 -160.37825 
L 678.804761 -159.896839 
L 681.206301 -159.414182 
L 683.60784 -158.920852 
L 686.009379 -158.418956 
L 688.410918 -157.903217 
L 690.812457 -157.380512 
L 693.213996 -156.884757 
L 695.615535 -156.403431 
L 698.017074 -155.931793 
L 700.418613 -155.453063 
L 702.820152 -155.001231 
L 705.221691 -154.530693 
L 707.62323 -154.097552 
L 710.024769 -153.692743 
L 712.426309 -153.310621 
L 714.827848 -152.929253 
L 717.229387 -152.546314 
L 719.630926 -152.16998 
L 722.032465 -151.795941 
L 724.434004 -151.409156 
L 726.835543 -151.02364 
L 729.237082 -150.656305 
L 731.638621 -150.284367 
L 734.04016 -149.929484 
L 736.441699 -149.576087 
L 738.843238 -149.233772 
L 741.244777 -148.883292 
L 743.646317 -148.521198 
L 746.047856 -148.156356 
L 748.449395 -147.78532 
L 750.850934 -147.408727 
L 753.252473 -147.046729 
L 755.654012 -146.673316 
L 758.055551 -146.27923 
L 760.45709 -145.866362 
L 762.858629 -145.474873 
L 765.260168 -145.093618 
L 767.661707 -144.719471 
L 770.063246 -144.346042 
L 772.464786 -143.993558 
L 774.866325 -143.655319 
L 777.267864 -143.321178 
L 779.669403 -143.000449 
L 782.070942 -142.689215 
L 784.472481 -142.387938 
L 786.87402 -142.08802 
L 789.275559 -141.793561 
L 791.677098 -141.494595 
L 794.078637 -141.20994 
L 796.480176 -140.950596 
L 798.881715 -140.684605 
L 801.283254 -140.432477 
L 803.684794 -140.185227 
L 806.086333 -139.965239 
L 808.487872 -139.76305 
L 810.889411 -139.537655 
L 813.29095 -139.326244 
L 815.692489 -139.114085 
L 818.094028 -139.016401 
L 820.495567 -138.920826 
L 822.897106 -138.823037 
L 825.298645 -138.716222 
L 827.700184 -138.605603 
L 830.101723 -138.476918 
L 832.503262 -138.36021 
L 834.904802 -138.234842 
L 837.306341 -138.120219 
L 837.306341 -225.736964 
L 837.306341 -225.736964 
L 834.904802 -225.801847 
L 832.503262 -225.885146 
L 830.101723 -225.994226 
L 827.700184 -226.114319 
L 825.298645 -226.226052 
L 822.897106 -226.336686 
L 820.495567 -226.461883 
L 818.094028 -226.602558 
L 815.692489 -226.75472 
L 813.29095 -227.042283 
L 810.889411 -227.312475 
L 808.487872 -227.58745 
L 806.086333 -227.893369 
L 803.684794 -228.209702 
L 801.283254 -228.5245 
L 798.881715 -228.851006 
L 796.480176 -229.186293 
L 794.078637 -229.526595 
L 791.677098 -229.903238 
L 789.275559 -230.342271 
L 786.87402 -230.813816 
L 784.472481 -231.28336 
L 782.070942 -231.733032 
L 779.669403 -232.189153 
L 777.267864 -232.658402 
L 774.866325 -233.13966 
L 772.464786 -233.610186 
L 770.063246 -234.051037 
L 767.661707 -234.489512 
L 765.260168 -234.905078 
L 762.858629 -235.27533 
L 760.45709 -235.643876 
L 758.055551 -235.994876 
L 755.654012 -236.356673 
L 753.252473 -236.723811 
L 750.850934 -237.070701 
L 748.449395 -237.413596 
L 746.047856 -237.774416 
L 743.646317 -238.119124 
L 741.244777 -238.439231 
L 738.843238 -238.744166 
L 736.441699 -239.073891 
L 734.04016 -239.395359 
L 731.638621 -239.719353 
L 729.237082 -240.064148 
L 726.835543 -240.432488 
L 724.434004 -240.818217 
L 722.032465 -241.241584 
L 719.630926 -241.65866 
L 717.229387 -242.088515 
L 714.827848 -242.573288 
L 712.426309 -243.045663 
L 710.024769 -243.516961 
L 707.62323 -244.010631 
L 705.221691 -244.468793 
L 702.820152 -244.937929 
L 700.418613 -245.422407 
L 698.017074 -245.907991 
L 695.615535 -246.410064 
L 693.213996 -246.874529 
L 690.812457 -247.30339 
L 688.410918 -247.710068 
L 686.009379 -248.145574 
L 683.60784 -248.580258 
L 681.206301 -249.001732 
L 678.804761 -249.38744 
L 676.403222 -249.75704 
L 674.001683 -250.11614 
L 671.600144 -250.501996 
L 669.198605 -250.924346 
L 666.797066 -251.362106 
L 664.395527 -251.805353 
L 661.993988 -252.250435 
L 659.592449 -252.68476 
L 657.19091 -253.195374 
L 654.789371 -253.719956 
L 652.387832 -254.234709 
L 649.986293 -254.759051 
L 647.584753 -255.257039 
L 645.183214 -255.775469 
L 642.781675 -256.318888 
L 640.380136 -256.889251 
L 637.978597 -257.457509 
L 635.577058 -257.847102 
L 633.175519 -258.143107 
L 630.77398 -258.491434 
L 628.372441 -258.75666 
L 625.970902 -258.928497 
L 623.569363 -259.051722 
L 621.167824 -259.189324 
L 618.766285 -259.337662 
L 616.364745 -259.461121 
L 613.963206 -259.591929 
L 611.561667 -259.690373 
L 609.160128 -259.769789 
L 606.758589 -259.864336 
L 604.35705 -259.975512 
L 601.955511 -260.06158 
L 599.553972 -260.163053 
L 597.152433 -260.264513 
L 594.750894 -260.391588 
L 592.349355 -260.503536 
L 589.947816 -260.656506 
L 587.546277 -260.822694 
L 585.144737 -260.99288 
L 582.743198 -261.147789 
L 580.341659 -261.309092 
L 577.94012 -261.473887 
L 575.538581 -261.633486 
L 573.137042 -261.798571 
L 570.735503 -261.953856 
L 568.333964 -262.114865 
L 565.932425 -262.257703 
L 563.530886 -262.413209 
L 561.129347 -262.535591 
L 558.727808 -262.66273 
L 556.326268 -262.778694 
L 553.924729 -262.904242 
L 551.52319 -263.0253 
L 549.121651 -263.149068 
L 546.720112 -263.244703 
L 544.318573 -263.355378 
L 541.917034 -263.45162 
L 539.515495 -263.543248 
L 537.113956 -263.624591 
L 534.712417 -263.708332 
L 532.310878 -263.741731 
L 529.909339 -263.773446 
L 527.5078 -263.818338 
L 525.10626 -263.860014 
L 522.704721 -263.918075 
L 520.303182 -264.507495 
L 517.901643 -265.253902 
L 515.500104 -266.013874 
L 513.098565 -266.574329 
L 510.697026 -266.977983 
L 508.295487 -267.374212 
L 505.893948 -267.786835 
L 503.492409 -268.199172 
L 501.09087 -268.63225 
L 498.689331 -269.056712 
L 496.287792 -269.493923 
L 493.886252 -269.957888 
L 491.484713 -270.43185 
L 489.083174 -270.920698 
L 486.681635 -271.422231 
L 484.280096 -271.964436 
L 481.878557 -272.525715 
L 479.477018 -273.100702 
L 477.075479 -273.696696 
L 474.67394 -274.288636 
L 472.272401 -274.888782 
L 469.870862 -275.484553 
L 467.469323 -276.088166 
L 465.067784 -276.697709 
L 462.666244 -277.343776 
L 460.264705 -278.006944 
L 457.863166 -278.666206 
L 455.461627 -279.358933 
L 453.060088 -280.035407 
L 450.658549 -280.726101 
L 448.25701 -281.408132 
L 445.855471 -282.094887 
L 443.453932 -282.804299 
L 441.052393 -283.517523 
L 438.650854 -284.243143 
L 436.249315 -284.956769 
L 433.847776 -285.676453 
L 431.446236 -286.398166 
L 429.044697 -287.140828 
L 426.643158 -287.888006 
L 424.241619 -288.648667 
L 421.84008 -289.427589 
L 419.438541 -290.182549 
L 417.037002 -290.937748 
L 414.635463 -291.618287 
L 412.233924 -292.2903 
L 409.832385 -292.99551 
L 407.430846 -293.712593 
L 405.029307 -294.445826 
L 402.627768 -295.219282 
L 400.226228 -296.040639 
L 397.824689 -296.87783 
L 395.42315 -298.020193 
L 393.021611 -299.573958 
L 390.620072 -301.17202 
L 388.218533 -302.765974 
L 385.816994 -304.388352 
L 383.415455 -305.999536 
L 381.013916 -307.603349 
L 378.612377 -309.183803 
L 376.210838 -310.787777 
L 373.809299 -312.423668 
L 371.407759 -314.110496 
L 369.00622 -315.815424 
L 366.604681 -317.525856 
L 364.203142 -319.315213 
L 361.801603 -321.091192 
L 359.400064 -322.924517 
L 356.998525 -324.759951 
L 354.596986 -326.581432 
L 352.195447 -328.381451 
L 349.793908 -330.172758 
L 347.392369 -331.992089 
L 344.99083 -333.794944 
L 342.589291 -335.609753 
L 340.187751 -337.46282 
L 337.786212 -339.301347 
L 335.384673 -341.202508 
L 332.983134 -343.100014 
L 330.581595 -345.014995 
L 328.180056 -346.941766 
L 325.778517 -348.912978 
L 323.376978 -350.90419 
L 320.975439 -352.912675 
L 318.5739 -354.894849 
L 316.172361 -356.80503 
L 313.770822 -358.483229 
L 311.369283 -359.959829 
L 308.967743 -361.435228 
L 306.566204 -362.964448 
L 304.164665 -364.463536 
L 301.763126 -365.976978 
L 299.361587 -367.49811 
L 296.960048 -369.054029 
L 294.558509 -370.607798 
L 292.15697 -372.172409 
L 289.755431 -373.777762 
L 287.353892 -375.530956 
L 284.952353 -377.651067 
L 282.550814 -379.712016 
L 280.149275 -381.630319 
L 277.747735 -383.512189 
L 275.346196 -385.406638 
L 272.944657 -387.277848 
L 270.543118 -389.161781 
L 268.141579 -391.082804 
L 265.74004 -393.015203 
L 263.338501 -394.952896 
L 260.936962 -396.865519 
L 258.535423 -398.765675 
L 256.133884 -400.652216 
L 253.732345 -402.524999 
L 251.330806 -404.350894 
L 248.929267 -406.138514 
L 246.527727 -407.896387 
L 244.126188 -409.643209 
L 241.724649 -411.362466 
L 239.32311 -413.084158 
L 236.921571 -414.749778 
L 234.520032 -416.407594 
L 232.118493 -418.082164 
L 229.716954 -419.72658 
L 227.315415 -421.269602 
L 224.913876 -422.719479 
L 222.512337 -424.161289 
L 220.110798 -425.625059 
L 217.709259 -427.064572 
L 215.307719 -428.478034 
L 212.90618 -429.876909 
L 210.504641 -431.270663 
L 208.103102 -432.648603 
L 205.701563 -433.93573 
L 203.300024 -435.205863 
L 200.898485 -436.484091 
L 198.496946 -437.750739 
L 196.095407 -439.015383 
L 193.693868 -440.28199 
L 191.292329 -441.518953 
L 188.89079 -442.799239 
L 186.48925 -444.034471 
L 184.087711 -445.261715 
L 181.686172 -446.494013 
L 179.284633 -447.724307 
L 176.883094 -448.973131 
L 174.481555 -450.202372 
L 172.080016 -451.364368 
L 169.678477 -452.461609 
L 167.276938 -453.553665 
z
" style="stroke: #d01e04; stroke-opacity: 0.2"/>
    </defs>
    <g clip-path="url(#p76d4f28d2c)">
     <use xlink:href="#m1a380c3a71" x="0" y="600" style="fill: #d01e04; fill-opacity: 0.2; stroke: #d01e04; stroke-opacity: 0.2"/>
    </g>
   </g>
   <g id="PolyCollection_6">
    <defs>
     <path id="mf327aa077a" d="M 116.844617 -474.274997 
L 116.844617 -470.613285 
L 119.246156 -469.941607 
L 121.647695 -469.215303 
L 124.049234 -468.532348 
L 126.450774 -467.899437 
L 128.852313 -467.328243 
L 131.253852 -466.772417 
L 133.655391 -466.298267 
L 136.05693 -465.828439 
L 138.458469 -465.387011 
L 140.860008 -465.035379 
L 143.261547 -464.037343 
L 145.663086 -462.983763 
L 148.064625 -461.883761 
L 150.466164 -460.826781 
L 152.867703 -459.89399 
L 155.269242 -458.918339 
L 157.670782 -457.861392 
L 160.072321 -456.804656 
L 162.47386 -455.747274 
L 164.875399 -454.648 
L 164.875399 -454.648 
L 164.875399 -454.648 
L 162.47386 -456.072598 
L 160.072321 -457.483515 
L 157.670782 -458.85033 
L 155.269242 -460.187287 
L 152.867703 -461.502374 
L 150.466164 -462.795292 
L 148.064625 -464.085608 
L 145.663086 -465.354885 
L 143.261547 -466.566829 
L 140.860008 -467.709755 
L 138.458469 -468.302324 
L 136.05693 -468.964181 
L 133.655391 -469.678143 
L 131.253852 -470.318477 
L 128.852313 -470.942361 
L 126.450774 -471.692242 
L 124.049234 -472.517934 
L 121.647695 -473.142082 
L 119.246156 -473.697286 
L 116.844617 -474.274997 
z
" style="stroke: #000000; stroke-opacity: 0.2"/>
    </defs>
    <g clip-path="url(#p76d4f28d2c)">
     <use xlink:href="#mf327aa077a" x="0" y="600" style="fill-opacity: 0.2; stroke: #000000; stroke-opacity: 0.2"/>
    </g>
   </g>
   <g id="matplotlib.axis_1">
    <g id="xtick_1">
     <g id="line2d_1">
      <defs>
       <path id="mcc4a1ed3b6" d="M 0 0 
L 0 3.5 
" style="stroke: #000000; stroke-width: 0.8"/>
      </defs>
      <g>
       <use xlink:href="#mcc4a1ed3b6" x="164.875399" y="515.56" style="stroke: #000000; stroke-width: 0.8"/>
      </g>
     </g>
     <g id="text_1">
      <!-- 2020 -->
      <g transform="translate(131.790399 542.315938)scale(0.26 -0.26)">
       <defs>
        <path id="DejaVuSans-32" d="M 1228 531 
L 3431 531 
L 3431 0 
L 469 0 
L 469 531 
Q 828 903 1448 1529 
Q 2069 2156 2228 2338 
Q 2531 2678 2651 2914 
Q 2772 3150 2772 3378 
Q 2772 3750 2511 3984 
Q 2250 4219 1831 4219 
Q 1534 4219 1204 4116 
Q 875 4013 500 3803 
L 500 4441 
Q 881 4594 1212 4672 
Q 1544 4750 1819 4750 
Q 2544 4750 2975 4387 
Q 3406 4025 3406 3419 
Q 3406 3131 3298 2873 
Q 3191 2616 2906 2266 
Q 2828 2175 2409 1742 
Q 1991 1309 1228 531 
z
" transform="scale(0.015625)"/>
        <path id="DejaVuSans-30" d="M 2034 4250 
Q 1547 4250 1301 3770 
Q 1056 3291 1056 2328 
Q 1056 1369 1301 889 
Q 1547 409 2034 409 
Q 2525 409 2770 889 
Q 3016 1369 3016 2328 
Q 3016 3291 2770 3770 
Q 2525 4250 2034 4250 
z
M 2034 4750 
Q 2819 4750 3233 4129 
Q 3647 3509 3647 2328 
Q 3647 1150 3233 529 
Q 2819 -91 2034 -91 
Q 1250 -91 836 529 
Q 422 1150 422 2328 
Q 422 3509 836 4129 
Q 1250 4750 2034 4750 
z
" transform="scale(0.015625)"/>
       </defs>
       <use xlink:href="#DejaVuSans-32"/>
       <use xlink:href="#DejaVuSans-30" x="63.623047"/>
       <use xlink:href="#DejaVuSans-32" x="127.246094"/>
       <use xlink:href="#DejaVuSans-30" x="190.869141"/>
      </g>
     </g>
    </g>
    <g id="xtick_2">
     <g id="line2d_2">
      <g>
       <use xlink:href="#mcc4a1ed3b6" x="356.998525" y="515.56" style="stroke: #000000; stroke-width: 0.8"/>
      </g>
     </g>
     <g id="text_2">
      <!-- 2100 -->
      <g transform="translate(323.913525 542.315938)scale(0.26 -0.26)">
       <defs>
        <path id="DejaVuSans-31" d="M 794 531 
L 1825 531 
L 1825 4091 
L 703 3866 
L 703 4441 
L 1819 4666 
L 2450 4666 
L 2450 531 
L 3481 531 
L 3481 0 
L 794 0 
L 794 531 
z
" transform="scale(0.015625)"/>
       </defs>
       <use xlink:href="#DejaVuSans-32"/>
       <use xlink:href="#DejaVuSans-31" x="63.623047"/>
       <use xlink:href="#DejaVuSans-30" x="127.246094"/>
       <use xlink:href="#DejaVuSans-30" x="190.869141"/>
      </g>
     </g>
    </g>
    <g id="xtick_3">
     <g id="line2d_3">
      <g>
       <use xlink:href="#mcc4a1ed3b6" x="597.152433" y="515.56" style="stroke: #000000; stroke-width: 0.8"/>
      </g>
     </g>
     <g id="text_3">
      <!-- 2200 -->
      <g transform="translate(564.067433 542.315938)scale(0.26 -0.26)">
       <use xlink:href="#DejaVuSans-32"/>
       <use xlink:href="#DejaVuSans-32" x="63.623047"/>
       <use xlink:href="#DejaVuSans-30" x="127.246094"/>
       <use xlink:href="#DejaVuSans-30" x="190.869141"/>
      </g>
     </g>
    </g>
    <g id="xtick_4">
     <g id="line2d_4">
      <g>
       <use xlink:href="#mcc4a1ed3b6" x="837.306341" y="515.56" style="stroke: #000000; stroke-width: 0.8"/>
      </g>
     </g>
     <g id="text_4">
      <!-- 2300 -->
      <g transform="translate(804.221341 542.315938)scale(0.26 -0.26)">
       <defs>
        <path id="DejaVuSans-33" d="M 2597 2516 
Q 3050 2419 3304 2112 
Q 3559 1806 3559 1356 
Q 3559 666 3084 287 
Q 2609 -91 1734 -91 
Q 1441 -91 1130 -33 
Q 819 25 488 141 
L 488 750 
Q 750 597 1062 519 
Q 1375 441 1716 441 
Q 2309 441 2620 675 
Q 2931 909 2931 1356 
Q 2931 1769 2642 2001 
Q 2353 2234 1838 2234 
L 1294 2234 
L 1294 2753 
L 1863 2753 
Q 2328 2753 2575 2939 
Q 2822 3125 2822 3475 
Q 2822 3834 2567 4026 
Q 2313 4219 1838 4219 
Q 1578 4219 1281 4162 
Q 984 4106 628 3988 
L 628 4550 
Q 988 4650 1302 4700 
Q 1616 4750 1894 4750 
Q 2613 4750 3031 4423 
Q 3450 4097 3450 3541 
Q 3450 3153 3228 2886 
Q 3006 2619 2597 2516 
z
" transform="scale(0.015625)"/>
       </defs>
       <use xlink:href="#DejaVuSans-32"/>
       <use xlink:href="#DejaVuSans-33" x="63.623047"/>
       <use xlink:href="#DejaVuSans-30" x="127.246094"/>
       <use xlink:href="#DejaVuSans-30" x="190.869141"/>
      </g>
     </g>
    </g>
    <g id="text_5">
     <!-- Year -->
     <g transform="translate(457.010409 568.439687)scale(0.22 -0.22)">
      <defs>
       <path id="DejaVuSans-Bold-59" d="M -63 4666 
L 1253 4666 
L 2316 3003 
L 3378 4666 
L 4697 4666 
L 2919 1966 
L 2919 0 
L 1716 0 
L 1716 1966 
L -63 4666 
z
" transform="scale(0.015625)"/>
       <path id="DejaVuSans-Bold-65" d="M 4031 1759 
L 4031 1441 
L 1416 1441 
Q 1456 1047 1700 850 
Q 1944 653 2381 653 
Q 2734 653 3104 758 
Q 3475 863 3866 1075 
L 3866 213 
Q 3469 63 3072 -14 
Q 2675 -91 2278 -91 
Q 1328 -91 801 392 
Q 275 875 275 1747 
Q 275 2603 792 3093 
Q 1309 3584 2216 3584 
Q 3041 3584 3536 3087 
Q 4031 2591 4031 1759 
z
M 2881 2131 
Q 2881 2450 2695 2645 
Q 2509 2841 2209 2841 
Q 1884 2841 1681 2658 
Q 1478 2475 1428 2131 
L 2881 2131 
z
" transform="scale(0.015625)"/>
       <path id="DejaVuSans-Bold-61" d="M 2106 1575 
Q 1756 1575 1579 1456 
Q 1403 1338 1403 1106 
Q 1403 894 1545 773 
Q 1688 653 1941 653 
Q 2256 653 2472 879 
Q 2688 1106 2688 1447 
L 2688 1575 
L 2106 1575 
z
M 3816 1997 
L 3816 0 
L 2688 0 
L 2688 519 
Q 2463 200 2181 54 
Q 1900 -91 1497 -91 
Q 953 -91 614 226 
Q 275 544 275 1050 
Q 275 1666 698 1953 
Q 1122 2241 2028 2241 
L 2688 2241 
L 2688 2328 
Q 2688 2594 2478 2717 
Q 2269 2841 1825 2841 
Q 1466 2841 1156 2769 
Q 847 2697 581 2553 
L 581 3406 
Q 941 3494 1303 3539 
Q 1666 3584 2028 3584 
Q 2975 3584 3395 3211 
Q 3816 2838 3816 1997 
z
" transform="scale(0.015625)"/>
       <path id="DejaVuSans-Bold-72" d="M 3138 2547 
Q 2991 2616 2845 2648 
Q 2700 2681 2553 2681 
Q 2122 2681 1889 2404 
Q 1656 2128 1656 1613 
L 1656 0 
L 538 0 
L 538 3500 
L 1656 3500 
L 1656 2925 
Q 1872 3269 2151 3426 
Q 2431 3584 2822 3584 
Q 2878 3584 2943 3579 
Q 3009 3575 3134 3559 
L 3138 2547 
z
" transform="scale(0.015625)"/>
      </defs>
      <use xlink:href="#DejaVuSans-Bold-59"/>
      <use xlink:href="#DejaVuSans-Bold-65" x="63.287109"/>
      <use xlink:href="#DejaVuSans-Bold-61" x="131.109375"/>
      <use xlink:href="#DejaVuSans-Bold-72" x="198.589844"/>
     </g>
    </g>
   </g>
   <g id="matplotlib.axis_2">
    <g id="ytick_1">
     <g id="line2d_5">
      <defs>
       <path id="mbb231468f6" d="M 0 0 
L -3.5 0 
" style="stroke: #000000; stroke-width: 0.8"/>
      </defs>
      <g>
       <use xlink:href="#mbb231468f6" x="109.64" y="515.56" style="stroke: #000000; stroke-width: 0.8"/>
      </g>
     </g>
     <g id="text_6">
      <!-- 0 -->
      <g transform="translate(86.0975 525.437969)scale(0.26 -0.26)">
       <use xlink:href="#DejaVuSans-30"/>
      </g>
     </g>
    </g>
    <g id="ytick_2">
     <g id="line2d_6">
      <g>
       <use xlink:href="#mbb231468f6" x="109.64" y="441.5184" style="stroke: #000000; stroke-width: 0.8"/>
      </g>
     </g>
     <g id="text_7">
      <!-- 20 -->
      <g transform="translate(69.555 451.396369)scale(0.26 -0.26)">
       <use xlink:href="#DejaVuSans-32"/>
       <use xlink:href="#DejaVuSans-30" x="63.623047"/>
      </g>
     </g>
    </g>
    <g id="ytick_3">
     <g id="line2d_7">
      <g>
       <use xlink:href="#mbb231468f6" x="109.64" y="367.4768" style="stroke: #000000; stroke-width: 0.8"/>
      </g>
     </g>
     <g id="text_8">
      <!-- 40 -->
      <g transform="translate(69.555 377.354769)scale(0.26 -0.26)">
       <defs>
        <path id="DejaVuSans-34" d="M 2419 4116 
L 825 1625 
L 2419 1625 
L 2419 4116 
z
M 2253 4666 
L 3047 4666 
L 3047 1625 
L 3713 1625 
L 3713 1100 
L 3047 1100 
L 3047 0 
L 2419 0 
L 2419 1100 
L 313 1100 
L 313 1709 
L 2253 4666 
z
" transform="scale(0.015625)"/>
       </defs>
       <use xlink:href="#DejaVuSans-34"/>
       <use xlink:href="#DejaVuSans-30" x="63.623047"/>
      </g>
     </g>
    </g>
    <g id="ytick_4">
     <g id="line2d_8">
      <g>
       <use xlink:href="#mbb231468f6" x="109.64" y="293.4352" style="stroke: #000000; stroke-width: 0.8"/>
      </g>
     </g>
     <g id="text_9">
      <!-- 60 -->
      <g transform="translate(69.555 303.313169)scale(0.26 -0.26)">
       <defs>
        <path id="DejaVuSans-36" d="M 2113 2584 
Q 1688 2584 1439 2293 
Q 1191 2003 1191 1497 
Q 1191 994 1439 701 
Q 1688 409 2113 409 
Q 2538 409 2786 701 
Q 3034 994 3034 1497 
Q 3034 2003 2786 2293 
Q 2538 2584 2113 2584 
z
M 3366 4563 
L 3366 3988 
Q 3128 4100 2886 4159 
Q 2644 4219 2406 4219 
Q 1781 4219 1451 3797 
Q 1122 3375 1075 2522 
Q 1259 2794 1537 2939 
Q 1816 3084 2150 3084 
Q 2853 3084 3261 2657 
Q 3669 2231 3669 1497 
Q 3669 778 3244 343 
Q 2819 -91 2113 -91 
Q 1303 -91 875 529 
Q 447 1150 447 2328 
Q 447 3434 972 4092 
Q 1497 4750 2381 4750 
Q 2619 4750 2861 4703 
Q 3103 4656 3366 4563 
z
" transform="scale(0.015625)"/>
       </defs>
       <use xlink:href="#DejaVuSans-36"/>
       <use xlink:href="#DejaVuSans-30" x="63.623047"/>
      </g>
     </g>
    </g>
    <g id="ytick_5">
     <g id="line2d_9">
      <g>
       <use xlink:href="#mbb231468f6" x="109.64" y="219.3936" style="stroke: #000000; stroke-width: 0.8"/>
      </g>
     </g>
     <g id="text_10">
      <!-- 80 -->
      <g transform="translate(69.555 229.271569)scale(0.26 -0.26)">
       <defs>
        <path id="DejaVuSans-38" d="M 2034 2216 
Q 1584 2216 1326 1975 
Q 1069 1734 1069 1313 
Q 1069 891 1326 650 
Q 1584 409 2034 409 
Q 2484 409 2743 651 
Q 3003 894 3003 1313 
Q 3003 1734 2745 1975 
Q 2488 2216 2034 2216 
z
M 1403 2484 
Q 997 2584 770 2862 
Q 544 3141 544 3541 
Q 544 4100 942 4425 
Q 1341 4750 2034 4750 
Q 2731 4750 3128 4425 
Q 3525 4100 3525 3541 
Q 3525 3141 3298 2862 
Q 3072 2584 2669 2484 
Q 3125 2378 3379 2068 
Q 3634 1759 3634 1313 
Q 3634 634 3220 271 
Q 2806 -91 2034 -91 
Q 1263 -91 848 271 
Q 434 634 434 1313 
Q 434 1759 690 2068 
Q 947 2378 1403 2484 
z
M 1172 3481 
Q 1172 3119 1398 2916 
Q 1625 2713 2034 2713 
Q 2441 2713 2670 2916 
Q 2900 3119 2900 3481 
Q 2900 3844 2670 4047 
Q 2441 4250 2034 4250 
Q 1625 4250 1398 4047 
Q 1172 3844 1172 3481 
z
" transform="scale(0.015625)"/>
       </defs>
       <use xlink:href="#DejaVuSans-38"/>
       <use xlink:href="#DejaVuSans-30" x="63.623047"/>
      </g>
     </g>
    </g>
    <g id="ytick_6">
     <g id="line2d_10">
      <g>
       <use xlink:href="#mbb231468f6" x="109.64" y="145.352" style="stroke: #000000; stroke-width: 0.8"/>
      </g>
     </g>
     <g id="text_11">
      <!-- 100 -->
      <g transform="translate(53.0125 155.229969)scale(0.26 -0.26)">
       <use xlink:href="#DejaVuSans-31"/>
       <use xlink:href="#DejaVuSans-30" x="63.623047"/>
       <use xlink:href="#DejaVuSans-30" x="127.246094"/>
      </g>
     </g>
    </g>
    <g id="ytick_7">
     <g id="line2d_11">
      <g>
       <use xlink:href="#mbb231468f6" x="109.64" y="71.3104" style="stroke: #000000; stroke-width: 0.8"/>
      </g>
     </g>
     <g id="text_12">
      <!-- 120 -->
      <g transform="translate(53.0125 81.188369)scale(0.26 -0.26)">
       <use xlink:href="#DejaVuSans-31"/>
       <use xlink:href="#DejaVuSans-32" x="63.623047"/>
       <use xlink:href="#DejaVuSans-30" x="127.246094"/>
      </g>
     </g>
    </g>
    <g id="text_13">
     <!-- % of Remaining Glacier Mass -->
     <g transform="translate(44.265313 463.619219)rotate(-90)scale(0.22 -0.22)">
      <defs>
       <path id="DejaVuSans-Bold-25" d="M 4959 1925 
Q 4738 1925 4616 1733 
Q 4494 1541 4494 1184 
Q 4494 825 4614 633 
Q 4734 441 4959 441 
Q 5184 441 5303 633 
Q 5422 825 5422 1184 
Q 5422 1541 5301 1733 
Q 5181 1925 4959 1925 
z
M 4959 2450 
Q 5541 2450 5875 2112 
Q 6209 1775 6209 1184 
Q 6209 594 5875 251 
Q 5541 -91 4959 -91 
Q 4378 -91 4042 251 
Q 3706 594 3706 1184 
Q 3706 1772 4042 2111 
Q 4378 2450 4959 2450 
z
M 2094 -91 
L 1403 -91 
L 4319 4750 
L 5013 4750 
L 2094 -91 
z
M 1453 4750 
Q 2034 4750 2367 4411 
Q 2700 4072 2700 3481 
Q 2700 2891 2367 2550 
Q 2034 2209 1453 2209 
Q 872 2209 539 2550 
Q 206 2891 206 3481 
Q 206 4072 539 4411 
Q 872 4750 1453 4750 
z
M 1453 4225 
Q 1228 4225 1106 4031 
Q 984 3838 984 3481 
Q 984 3122 1106 2926 
Q 1228 2731 1453 2731 
Q 1678 2731 1798 2926 
Q 1919 3122 1919 3481 
Q 1919 3838 1797 4031 
Q 1675 4225 1453 4225 
z
" transform="scale(0.015625)"/>
       <path id="DejaVuSans-Bold-20" transform="scale(0.015625)"/>
       <path id="DejaVuSans-Bold-6f" d="M 2203 2784 
Q 1831 2784 1636 2517 
Q 1441 2250 1441 1747 
Q 1441 1244 1636 976 
Q 1831 709 2203 709 
Q 2569 709 2762 976 
Q 2956 1244 2956 1747 
Q 2956 2250 2762 2517 
Q 2569 2784 2203 2784 
z
M 2203 3584 
Q 3106 3584 3614 3096 
Q 4122 2609 4122 1747 
Q 4122 884 3614 396 
Q 3106 -91 2203 -91 
Q 1297 -91 786 396 
Q 275 884 275 1747 
Q 275 2609 786 3096 
Q 1297 3584 2203 3584 
z
" transform="scale(0.015625)"/>
       <path id="DejaVuSans-Bold-66" d="M 2841 4863 
L 2841 4128 
L 2222 4128 
Q 1984 4128 1890 4042 
Q 1797 3956 1797 3744 
L 1797 3500 
L 2753 3500 
L 2753 2700 
L 1797 2700 
L 1797 0 
L 678 0 
L 678 2700 
L 122 2700 
L 122 3500 
L 678 3500 
L 678 3744 
Q 678 4316 997 4589 
Q 1316 4863 1984 4863 
L 2841 4863 
z
" transform="scale(0.015625)"/>
       <path id="DejaVuSans-Bold-52" d="M 2297 2597 
Q 2675 2597 2839 2737 
Q 3003 2878 3003 3200 
Q 3003 3519 2839 3656 
Q 2675 3794 2297 3794 
L 1791 3794 
L 1791 2597 
L 2297 2597 
z
M 1791 1766 
L 1791 0 
L 588 0 
L 588 4666 
L 2425 4666 
Q 3347 4666 3776 4356 
Q 4206 4047 4206 3378 
Q 4206 2916 3982 2619 
Q 3759 2322 3309 2181 
Q 3556 2125 3751 1926 
Q 3947 1728 4147 1325 
L 4800 0 
L 3519 0 
L 2950 1159 
Q 2778 1509 2601 1637 
Q 2425 1766 2131 1766 
L 1791 1766 
z
" transform="scale(0.015625)"/>
       <path id="DejaVuSans-Bold-6d" d="M 3781 2919 
Q 3994 3244 4286 3414 
Q 4578 3584 4928 3584 
Q 5531 3584 5847 3212 
Q 6163 2841 6163 2131 
L 6163 0 
L 5038 0 
L 5038 1825 
Q 5041 1866 5042 1909 
Q 5044 1953 5044 2034 
Q 5044 2406 4934 2573 
Q 4825 2741 4581 2741 
Q 4263 2741 4089 2478 
Q 3916 2216 3909 1719 
L 3909 0 
L 2784 0 
L 2784 1825 
Q 2784 2406 2684 2573 
Q 2584 2741 2328 2741 
Q 2006 2741 1831 2477 
Q 1656 2213 1656 1722 
L 1656 0 
L 531 0 
L 531 3500 
L 1656 3500 
L 1656 2988 
Q 1863 3284 2130 3434 
Q 2397 3584 2719 3584 
Q 3081 3584 3359 3409 
Q 3638 3234 3781 2919 
z
" transform="scale(0.015625)"/>
       <path id="DejaVuSans-Bold-69" d="M 538 3500 
L 1656 3500 
L 1656 0 
L 538 0 
L 538 3500 
z
M 538 4863 
L 1656 4863 
L 1656 3950 
L 538 3950 
L 538 4863 
z
" transform="scale(0.015625)"/>
       <path id="DejaVuSans-Bold-6e" d="M 4056 2131 
L 4056 0 
L 2931 0 
L 2931 347 
L 2931 1631 
Q 2931 2084 2911 2256 
Q 2891 2428 2841 2509 
Q 2775 2619 2662 2680 
Q 2550 2741 2406 2741 
Q 2056 2741 1856 2470 
Q 1656 2200 1656 1722 
L 1656 0 
L 538 0 
L 538 3500 
L 1656 3500 
L 1656 2988 
Q 1909 3294 2193 3439 
Q 2478 3584 2822 3584 
Q 3428 3584 3742 3212 
Q 4056 2841 4056 2131 
z
" transform="scale(0.015625)"/>
       <path id="DejaVuSans-Bold-67" d="M 2919 594 
Q 2688 288 2409 144 
Q 2131 0 1766 0 
Q 1125 0 706 504 
Q 288 1009 288 1791 
Q 288 2575 706 3076 
Q 1125 3578 1766 3578 
Q 2131 3578 2409 3434 
Q 2688 3291 2919 2981 
L 2919 3500 
L 4044 3500 
L 4044 353 
Q 4044 -491 3511 -936 
Q 2978 -1381 1966 -1381 
Q 1638 -1381 1331 -1331 
Q 1025 -1281 716 -1178 
L 716 -306 
Q 1009 -475 1290 -558 
Q 1572 -641 1856 -641 
Q 2406 -641 2662 -400 
Q 2919 -159 2919 353 
L 2919 594 
z
M 2181 2772 
Q 1834 2772 1640 2515 
Q 1447 2259 1447 1791 
Q 1447 1309 1634 1061 
Q 1822 813 2181 813 
Q 2531 813 2725 1069 
Q 2919 1325 2919 1791 
Q 2919 2259 2725 2515 
Q 2531 2772 2181 2772 
z
" transform="scale(0.015625)"/>
       <path id="DejaVuSans-Bold-47" d="M 4781 347 
Q 4331 128 3847 18 
Q 3363 -91 2847 -91 
Q 1681 -91 1000 561 
Q 319 1213 319 2328 
Q 319 3456 1012 4103 
Q 1706 4750 2913 4750 
Q 3378 4750 3804 4662 
Q 4231 4575 4609 4403 
L 4609 3438 
Q 4219 3659 3833 3768 
Q 3447 3878 3059 3878 
Q 2341 3878 1952 3476 
Q 1563 3075 1563 2328 
Q 1563 1588 1938 1184 
Q 2313 781 3003 781 
Q 3191 781 3352 804 
Q 3513 828 3641 878 
L 3641 1784 
L 2906 1784 
L 2906 2591 
L 4781 2591 
L 4781 347 
z
" transform="scale(0.015625)"/>
       <path id="DejaVuSans-Bold-6c" d="M 538 4863 
L 1656 4863 
L 1656 0 
L 538 0 
L 538 4863 
z
" transform="scale(0.015625)"/>
       <path id="DejaVuSans-Bold-63" d="M 3366 3391 
L 3366 2478 
Q 3138 2634 2908 2709 
Q 2678 2784 2431 2784 
Q 1963 2784 1702 2511 
Q 1441 2238 1441 1747 
Q 1441 1256 1702 982 
Q 1963 709 2431 709 
Q 2694 709 2930 787 
Q 3166 866 3366 1019 
L 3366 103 
Q 3103 6 2833 -42 
Q 2563 -91 2291 -91 
Q 1344 -91 809 395 
Q 275 881 275 1747 
Q 275 2613 809 3098 
Q 1344 3584 2291 3584 
Q 2566 3584 2833 3536 
Q 3100 3488 3366 3391 
z
" transform="scale(0.015625)"/>
       <path id="DejaVuSans-Bold-4d" d="M 588 4666 
L 2119 4666 
L 3181 2169 
L 4250 4666 
L 5778 4666 
L 5778 0 
L 4641 0 
L 4641 3413 
L 3566 897 
L 2803 897 
L 1728 3413 
L 1728 0 
L 588 0 
L 588 4666 
z
" transform="scale(0.015625)"/>
       <path id="DejaVuSans-Bold-73" d="M 3272 3391 
L 3272 2541 
Q 2913 2691 2578 2766 
Q 2244 2841 1947 2841 
Q 1628 2841 1473 2761 
Q 1319 2681 1319 2516 
Q 1319 2381 1436 2309 
Q 1553 2238 1856 2203 
L 2053 2175 
Q 2913 2066 3209 1816 
Q 3506 1566 3506 1031 
Q 3506 472 3093 190 
Q 2681 -91 1863 -91 
Q 1516 -91 1145 -36 
Q 775 19 384 128 
L 384 978 
Q 719 816 1070 734 
Q 1422 653 1784 653 
Q 2113 653 2278 743 
Q 2444 834 2444 1013 
Q 2444 1163 2330 1236 
Q 2216 1309 1875 1350 
L 1678 1375 
Q 931 1469 631 1722 
Q 331 1975 331 2491 
Q 331 3047 712 3315 
Q 1094 3584 1881 3584 
Q 2191 3584 2531 3537 
Q 2872 3491 3272 3391 
z
" transform="scale(0.015625)"/>
      </defs>
      <use xlink:href="#DejaVuSans-Bold-25"/>
      <use xlink:href="#DejaVuSans-Bold-20" x="100.195312"/>
      <use xlink:href="#DejaVuSans-Bold-6f" x="135.009766"/>
      <use xlink:href="#DejaVuSans-Bold-66" x="203.710938"/>
      <use xlink:href="#DejaVuSans-Bold-20" x="247.216797"/>
      <use xlink:href="#DejaVuSans-Bold-52" x="282.03125"/>
      <use xlink:href="#DejaVuSans-Bold-65" x="359.033203"/>
      <use xlink:href="#DejaVuSans-Bold-6d" x="426.855469"/>
      <use xlink:href="#DejaVuSans-Bold-61" x="531.054688"/>
      <use xlink:href="#DejaVuSans-Bold-69" x="598.535156"/>
      <use xlink:href="#DejaVuSans-Bold-6e" x="632.8125"/>
      <use xlink:href="#DejaVuSans-Bold-69" x="704.003906"/>
      <use xlink:href="#DejaVuSans-Bold-6e" x="738.28125"/>
      <use xlink:href="#DejaVuSans-Bold-67" x="809.472656"/>
      <use xlink:href="#DejaVuSans-Bold-20" x="881.054688"/>
      <use xlink:href="#DejaVuSans-Bold-47" x="915.869141"/>
      <use xlink:href="#DejaVuSans-Bold-6c" x="997.949219"/>
      <use xlink:href="#DejaVuSans-Bold-61" x="1032.226562"/>
      <use xlink:href="#DejaVuSans-Bold-63" x="1099.707031"/>
      <use xlink:href="#DejaVuSans-Bold-69" x="1158.984375"/>
      <use xlink:href="#DejaVuSans-Bold-65" x="1193.261719"/>
      <use xlink:href="#DejaVuSans-Bold-72" x="1261.083984"/>
      <use xlink:href="#DejaVuSans-Bold-20" x="1310.400391"/>
      <use xlink:href="#DejaVuSans-Bold-4d" x="1345.214844"/>
      <use xlink:href="#DejaVuSans-Bold-61" x="1444.726562"/>
      <use xlink:href="#DejaVuSans-Bold-73" x="1512.207031"/>
      <use xlink:href="#DejaVuSans-Bold-73" x="1571.728516"/>
     </g>
    </g>
   </g>
   <g id="line2d_12">
    <path d="M 167.276938 146.643647 
L 172.080016 149.29986 
L 176.883094 152.207912 
L 181.686172 155.395948 
L 186.48925 158.700732 
L 196.095407 165.942256 
L 203.300024 171.638809 
L 210.504641 177.718489 
L 224.913876 189.639322 
L 241.724649 203.169833 
L 251.330806 210.682699 
L 258.535423 215.988972 
L 268.141579 222.829899 
L 284.952353 234.082265 
L 292.15697 238.707856 
L 316.172361 253.543388 
L 323.376978 257.66207 
L 330.581595 261.482349 
L 340.187751 266.294159 
L 347.392369 269.730234 
L 359.400064 275.098268 
L 373.809299 281.477019 
L 390.620072 288.814214 
L 402.627768 293.756015 
L 419.438541 300.267726 
L 431.446236 304.423671 
L 438.650854 306.739921 
L 448.25701 309.681753 
L 455.461627 311.715387 
L 479.477018 318.038295 
L 496.287792 321.995679 
L 517.901643 326.855395 
L 537.113956 330.969189 
L 553.924729 334.131431 
L 570.735503 336.87783 
L 582.743198 338.593175 
L 601.955511 341.00376 
L 611.561667 341.983085 
L 637.978597 344.023672 
L 652.387832 344.830829 
L 664.395527 345.464523 
L 671.600144 345.970393 
L 686.009379 347.237609 
L 702.820152 349.024502 
L 726.835543 351.73788 
L 741.244777 352.992919 
L 767.661707 354.99834 
L 786.87402 356.124182 
L 801.283254 357.025664 
L 810.889411 357.612413 
L 818.094028 358.038443 
L 837.306341 358.642766 
L 837.306341 358.642766 
" clip-path="url(#p76d4f28d2c)" style="fill: none; stroke: #74b8f8; stroke-opacity: 0.5; stroke-width: 6; stroke-linecap: square"/>
   </g>
   <g id="line2d_13">
    <path d="M 116.844617 128.226197 
L 119.246156 128.846667 
L 121.647695 129.500213 
L 124.049234 130.127858 
L 126.450774 130.724058 
L 128.852313 131.291698 
L 131.253852 131.85433 
L 133.655391 132.366909 
L 136.05693 132.890579 
L 138.458469 133.418847 
L 140.860008 133.897476 
L 143.261547 134.990095 
L 145.663086 136.099145 
L 148.064625 137.242497 
L 150.466164 138.364063 
L 152.867703 139.470349 
L 155.269242 140.588268 
L 157.670782 141.727313 
L 160.072321 142.869642 
L 162.47386 144.078068 
L 164.875399 145.352 
" clip-path="url(#p76d4f28d2c)" style="fill: none; stroke: #000000; stroke-opacity: 0.5; stroke-width: 6; stroke-linecap: square"/>
   </g>
   <g id="line2d_14">
    <path d="M 167.276938 146.679961 
L 179.284633 153.195709 
L 186.48925 157.702455 
L 193.693868 162.604647 
L 200.898485 167.581552 
L 208.103102 172.746981 
L 217.709259 180.191046 
L 227.315415 188.395243 
L 232.118493 192.657199 
L 241.724649 200.484681 
L 258.535423 214.613308 
L 265.74004 220.63443 
L 272.944657 226.367431 
L 280.149275 232.007061 
L 287.353892 238.069481 
L 304.164665 251.621501 
L 316.172361 260.928365 
L 325.778517 268.009163 
L 332.983134 273.013977 
L 340.187751 277.854941 
L 349.793908 283.91632 
L 359.400064 289.60396 
L 369.00622 294.921964 
L 383.415455 302.636708 
L 393.021611 307.586964 
L 400.226228 310.976448 
L 421.84008 320.486792 
L 433.847776 325.025692 
L 469.870862 337.933588 
L 477.075479 340.54412 
L 486.681635 343.834424 
L 496.287792 346.996198 
L 508.295487 350.666414 
L 513.098565 351.984762 
L 520.303182 353.634308 
L 553.924729 361.048181 
L 561.129347 362.623992 
L 575.538581 365.925831 
L 592.349355 369.382897 
L 601.955511 371.165239 
L 618.766285 374.239521 
L 630.77398 376.328239 
L 657.19091 380.614842 
L 700.418613 387.127494 
L 717.229387 389.429956 
L 729.237082 390.809342 
L 765.260168 394.736719 
L 789.275559 397.727027 
L 810.889411 400.206195 
L 815.692489 400.667614 
L 837.306341 401.679444 
L 837.306341 401.679444 
" clip-path="url(#p76d4f28d2c)" style="fill: none; stroke: #f47100; stroke-opacity: 0.5; stroke-width: 6; stroke-linecap: square"/>
   </g>
   <g id="line2d_15">
    <path d="M 116.844617 126.928376 
L 119.246156 127.518704 
L 121.647695 128.099313 
L 124.049234 128.677769 
L 126.450774 129.359525 
L 128.852313 130.023754 
L 131.253852 130.675679 
L 133.655391 131.307142 
L 136.05693 131.947961 
L 138.458469 132.474843 
L 140.860008 132.954554 
L 143.261547 134.084362 
L 145.663086 135.382031 
L 148.064625 136.642964 
L 150.466164 137.844967 
L 152.867703 139.037953 
L 155.269242 140.258173 
L 157.670782 141.484484 
L 160.072321 142.742313 
L 162.47386 144.043351 
L 164.875399 145.352 
" clip-path="url(#p76d4f28d2c)" style="fill: none; stroke: #000000; stroke-opacity: 0.5; stroke-width: 6; stroke-linecap: square"/>
   </g>
   <g id="line2d_16">
    <path d="M 167.276938 146.592536 
L 181.686172 154.155051 
L 186.48925 156.969316 
L 191.292329 160.285604 
L 196.095407 163.854017 
L 200.898485 167.642592 
L 205.701563 171.574745 
L 212.90618 177.401081 
L 222.512337 185.353258 
L 227.315415 189.631879 
L 232.118493 194.152525 
L 241.724649 203.404239 
L 253.732345 214.652932 
L 260.936962 221.072276 
L 268.141579 227.336479 
L 272.944657 231.324374 
L 280.149275 236.934387 
L 304.164665 254.860494 
L 316.172361 263.531797 
L 325.778517 270.263796 
L 337.786212 278.722347 
L 354.596986 289.959479 
L 364.203142 296.259534 
L 369.00622 299.516117 
L 371.407759 301.031669 
L 378.612377 304.564811 
L 385.816994 307.849226 
L 388.218533 309.186103 
L 405.029307 319.325314 
L 407.430846 320.478192 
L 412.233924 322.287475 
L 417.037002 325.225186 
L 424.241619 329.734361 
L 433.847776 334.5784 
L 443.453932 339.174134 
L 450.658549 342.461749 
L 457.863166 345.52842 
L 465.067784 348.325591 
L 477.075479 352.458508 
L 486.681635 355.375908 
L 493.886252 357.490981 
L 513.098565 362.880975 
L 529.909339 367.569022 
L 544.318573 371.487222 
L 556.326268 374.5103 
L 565.932425 376.672826 
L 577.94012 379.418306 
L 589.947816 382.091345 
L 597.152433 383.538674 
L 623.569363 387.849966 
L 654.789371 392.03262 
L 657.19091 392.377882 
L 674.001683 395.732088 
L 726.835543 405.185851 
L 743.646317 407.796198 
L 789.275559 414.912241 
L 798.881715 416.174229 
L 815.692489 418.301127 
L 832.503262 419.260611 
L 837.306341 419.518632 
L 837.306341 419.518632 
" clip-path="url(#p76d4f28d2c)" style="fill: none; stroke: #d01e04; stroke-opacity: 0.5; stroke-width: 6; stroke-linecap: square"/>
   </g>
   <g id="line2d_17">
    <path d="M 116.844617 127.844983 
L 119.246156 128.491862 
L 121.647695 129.084309 
L 124.049234 129.68846 
L 126.450774 130.305152 
L 128.852313 130.908274 
L 131.253852 131.501454 
L 133.655391 132.074478 
L 136.05693 132.648077 
L 138.458469 133.218918 
L 140.860008 133.787774 
L 143.261547 134.925295 
L 145.663086 136.044378 
L 148.064625 137.185654 
L 150.466164 138.304804 
L 152.867703 139.385702 
L 155.269242 140.498452 
L 157.670782 141.687789 
L 160.072321 142.907326 
L 162.47386 144.133786 
L 164.875399 145.352 
" clip-path="url(#p76d4f28d2c)" style="fill: none; stroke: #000000; stroke-opacity: 0.5; stroke-width: 6; stroke-linecap: square"/>
   </g>
   <g id="patch_3">
    <path d="M 109.64 515.56 
L 109.64 52.8 
" style="fill: none; stroke: #000000; stroke-width: 0.8; stroke-linejoin: miter; stroke-linecap: square"/>
   </g>
   <g id="patch_4">
    <path d="M 109.64 515.56 
L 858.920192 515.56 
" style="fill: none; stroke: #000000; stroke-width: 0.8; stroke-linejoin: miter; stroke-linecap: square"/>
   </g>
   <g id="text_14">
    <!-- Greenland Periphery -->
    <g transform="translate(344.193221 46.8)scale(0.24 -0.24)">
     <defs>
      <path id="DejaVuSans-Bold-64" d="M 2919 2988 
L 2919 4863 
L 4044 4863 
L 4044 0 
L 2919 0 
L 2919 506 
Q 2688 197 2409 53 
Q 2131 -91 1766 -91 
Q 1119 -91 703 423 
Q 288 938 288 1747 
Q 288 2556 703 3070 
Q 1119 3584 1766 3584 
Q 2128 3584 2408 3439 
Q 2688 3294 2919 2988 
z
M 2181 722 
Q 2541 722 2730 984 
Q 2919 1247 2919 1747 
Q 2919 2247 2730 2509 
Q 2541 2772 2181 2772 
Q 1825 2772 1636 2509 
Q 1447 2247 1447 1747 
Q 1447 1247 1636 984 
Q 1825 722 2181 722 
z
" transform="scale(0.015625)"/>
      <path id="DejaVuSans-Bold-50" d="M 588 4666 
L 2584 4666 
Q 3475 4666 3951 4270 
Q 4428 3875 4428 3144 
Q 4428 2409 3951 2014 
Q 3475 1619 2584 1619 
L 1791 1619 
L 1791 0 
L 588 0 
L 588 4666 
z
M 1791 3794 
L 1791 2491 
L 2456 2491 
Q 2806 2491 2997 2661 
Q 3188 2831 3188 3144 
Q 3188 3456 2997 3625 
Q 2806 3794 2456 3794 
L 1791 3794 
z
" transform="scale(0.015625)"/>
      <path id="DejaVuSans-Bold-70" d="M 1656 506 
L 1656 -1331 
L 538 -1331 
L 538 3500 
L 1656 3500 
L 1656 2988 
Q 1888 3294 2169 3439 
Q 2450 3584 2816 3584 
Q 3463 3584 3878 3070 
Q 4294 2556 4294 1747 
Q 4294 938 3878 423 
Q 3463 -91 2816 -91 
Q 2450 -91 2169 54 
Q 1888 200 1656 506 
z
M 2400 2772 
Q 2041 2772 1848 2508 
Q 1656 2244 1656 1747 
Q 1656 1250 1848 986 
Q 2041 722 2400 722 
Q 2759 722 2948 984 
Q 3138 1247 3138 1747 
Q 3138 2247 2948 2509 
Q 2759 2772 2400 2772 
z
" transform="scale(0.015625)"/>
      <path id="DejaVuSans-Bold-68" d="M 4056 2131 
L 4056 0 
L 2931 0 
L 2931 347 
L 2931 1625 
Q 2931 2084 2911 2256 
Q 2891 2428 2841 2509 
Q 2775 2619 2662 2680 
Q 2550 2741 2406 2741 
Q 2056 2741 1856 2470 
Q 1656 2200 1656 1722 
L 1656 0 
L 538 0 
L 538 4863 
L 1656 4863 
L 1656 2988 
Q 1909 3294 2193 3439 
Q 2478 3584 2822 3584 
Q 3428 3584 3742 3212 
Q 4056 2841 4056 2131 
z
" transform="scale(0.015625)"/>
      <path id="DejaVuSans-Bold-79" d="M 78 3500 
L 1197 3500 
L 2138 1125 
L 2938 3500 
L 4056 3500 
L 2584 -331 
Q 2363 -916 2067 -1148 
Q 1772 -1381 1288 -1381 
L 641 -1381 
L 641 -647 
L 991 -647 
Q 1275 -647 1404 -556 
Q 1534 -466 1606 -231 
L 1638 -134 
L 78 3500 
z
" transform="scale(0.015625)"/>
     </defs>
     <use xlink:href="#DejaVuSans-Bold-47"/>
     <use xlink:href="#DejaVuSans-Bold-72" x="82.080078"/>
     <use xlink:href="#DejaVuSans-Bold-65" x="131.396484"/>
     <use xlink:href="#DejaVuSans-Bold-65" x="199.21875"/>
     <use xlink:href="#DejaVuSans-Bold-6e" x="267.041016"/>
     <use xlink:href="#DejaVuSans-Bold-6c" x="338.232422"/>
     <use xlink:href="#DejaVuSans-Bold-61" x="372.509766"/>
     <use xlink:href="#DejaVuSans-Bold-6e" x="439.990234"/>
     <use xlink:href="#DejaVuSans-Bold-64" x="511.181641"/>
     <use xlink:href="#DejaVuSans-Bold-20" x="582.763672"/>
     <use xlink:href="#DejaVuSans-Bold-50" x="617.578125"/>
     <use xlink:href="#DejaVuSans-Bold-65" x="690.869141"/>
     <use xlink:href="#DejaVuSans-Bold-72" x="758.691406"/>
     <use xlink:href="#DejaVuSans-Bold-69" x="808.007812"/>
     <use xlink:href="#DejaVuSans-Bold-70" x="842.285156"/>
     <use xlink:href="#DejaVuSans-Bold-68" x="913.867188"/>
     <use xlink:href="#DejaVuSans-Bold-65" x="985.058594"/>
     <use xlink:href="#DejaVuSans-Bold-72" x="1052.880859"/>
     <use xlink:href="#DejaVuSans-Bold-79" x="1102.197266"/>
    </g>
   </g>
   <g id="legend_1">
    <g id="patch_5">
     <path d="M 597.903942 225.737875 
L 843.520192 225.737875 
Q 847.920192 225.737875 847.920192 221.337875 
L 847.920192 68.2 
Q 847.920192 63.8 843.520192 63.8 
L 597.903942 63.8 
Q 593.503942 63.8 593.503942 68.2 
L 593.503942 221.337875 
Q 593.503942 225.737875 597.903942 225.737875 
z
" style="fill: #ffffff; opacity: 0.6; stroke: #cccccc; stroke-linejoin: miter"/>
    </g>
    <g id="text_15">
     <!-- Global mean -->
     <g transform="translate(602.303942 89.316563)scale(0.22 -0.22)">
      <defs>
       <path id="DejaVuSans-47" d="M 3809 666 
L 3809 1919 
L 2778 1919 
L 2778 2438 
L 4434 2438 
L 4434 434 
Q 4069 175 3628 42 
Q 3188 -91 2688 -91 
Q 1594 -91 976 548 
Q 359 1188 359 2328 
Q 359 3472 976 4111 
Q 1594 4750 2688 4750 
Q 3144 4750 3555 4637 
Q 3966 4525 4313 4306 
L 4313 3634 
Q 3963 3931 3569 4081 
Q 3175 4231 2741 4231 
Q 1884 4231 1454 3753 
Q 1025 3275 1025 2328 
Q 1025 1384 1454 906 
Q 1884 428 2741 428 
Q 3075 428 3337 486 
Q 3600 544 3809 666 
z
" transform="scale(0.015625)"/>
       <path id="DejaVuSans-6c" d="M 603 4863 
L 1178 4863 
L 1178 0 
L 603 0 
L 603 4863 
z
" transform="scale(0.015625)"/>
       <path id="DejaVuSans-6f" d="M 1959 3097 
Q 1497 3097 1228 2736 
Q 959 2375 959 1747 
Q 959 1119 1226 758 
Q 1494 397 1959 397 
Q 2419 397 2687 759 
Q 2956 1122 2956 1747 
Q 2956 2369 2687 2733 
Q 2419 3097 1959 3097 
z
M 1959 3584 
Q 2709 3584 3137 3096 
Q 3566 2609 3566 1747 
Q 3566 888 3137 398 
Q 2709 -91 1959 -91 
Q 1206 -91 779 398 
Q 353 888 353 1747 
Q 353 2609 779 3096 
Q 1206 3584 1959 3584 
z
" transform="scale(0.015625)"/>
       <path id="DejaVuSans-62" d="M 3116 1747 
Q 3116 2381 2855 2742 
Q 2594 3103 2138 3103 
Q 1681 3103 1420 2742 
Q 1159 2381 1159 1747 
Q 1159 1113 1420 752 
Q 1681 391 2138 391 
Q 2594 391 2855 752 
Q 3116 1113 3116 1747 
z
M 1159 2969 
Q 1341 3281 1617 3432 
Q 1894 3584 2278 3584 
Q 2916 3584 3314 3078 
Q 3713 2572 3713 1747 
Q 3713 922 3314 415 
Q 2916 -91 2278 -91 
Q 1894 -91 1617 61 
Q 1341 213 1159 525 
L 1159 0 
L 581 0 
L 581 4863 
L 1159 4863 
L 1159 2969 
z
" transform="scale(0.015625)"/>
       <path id="DejaVuSans-61" d="M 2194 1759 
Q 1497 1759 1228 1600 
Q 959 1441 959 1056 
Q 959 750 1161 570 
Q 1363 391 1709 391 
Q 2188 391 2477 730 
Q 2766 1069 2766 1631 
L 2766 1759 
L 2194 1759 
z
M 3341 1997 
L 3341 0 
L 2766 0 
L 2766 531 
Q 2569 213 2275 61 
Q 1981 -91 1556 -91 
Q 1019 -91 701 211 
Q 384 513 384 1019 
Q 384 1609 779 1909 
Q 1175 2209 1959 2209 
L 2766 2209 
L 2766 2266 
Q 2766 2663 2505 2880 
Q 2244 3097 1772 3097 
Q 1472 3097 1187 3025 
Q 903 2953 641 2809 
L 641 3341 
Q 956 3463 1253 3523 
Q 1550 3584 1831 3584 
Q 2591 3584 2966 3190 
Q 3341 2797 3341 1997 
z
" transform="scale(0.015625)"/>
       <path id="DejaVuSans-20" transform="scale(0.015625)"/>
       <path id="DejaVuSans-6d" d="M 3328 2828 
Q 3544 3216 3844 3400 
Q 4144 3584 4550 3584 
Q 5097 3584 5394 3201 
Q 5691 2819 5691 2113 
L 5691 0 
L 5113 0 
L 5113 2094 
Q 5113 2597 4934 2840 
Q 4756 3084 4391 3084 
Q 3944 3084 3684 2787 
Q 3425 2491 3425 1978 
L 3425 0 
L 2847 0 
L 2847 2094 
Q 2847 2600 2669 2842 
Q 2491 3084 2119 3084 
Q 1678 3084 1418 2786 
Q 1159 2488 1159 1978 
L 1159 0 
L 581 0 
L 581 3500 
L 1159 3500 
L 1159 2956 
Q 1356 3278 1631 3431 
Q 1906 3584 2284 3584 
Q 2666 3584 2933 3390 
Q 3200 3197 3328 2828 
z
" transform="scale(0.015625)"/>
       <path id="DejaVuSans-65" d="M 3597 1894 
L 3597 1613 
L 953 1613 
Q 991 1019 1311 708 
Q 1631 397 2203 397 
Q 2534 397 2845 478 
Q 3156 559 3463 722 
L 3463 178 
Q 3153 47 2828 -22 
Q 2503 -91 2169 -91 
Q 1331 -91 842 396 
Q 353 884 353 1716 
Q 353 2575 817 3079 
Q 1281 3584 2069 3584 
Q 2775 3584 3186 3129 
Q 3597 2675 3597 1894 
z
M 3022 2063 
Q 3016 2534 2758 2815 
Q 2500 3097 2075 3097 
Q 1594 3097 1305 2825 
Q 1016 2553 972 2059 
L 3022 2063 
z
" transform="scale(0.015625)"/>
       <path id="DejaVuSans-6e" d="M 3513 2113 
L 3513 0 
L 2938 0 
L 2938 2094 
Q 2938 2591 2744 2837 
Q 2550 3084 2163 3084 
Q 1697 3084 1428 2787 
Q 1159 2491 1159 1978 
L 1159 0 
L 581 0 
L 581 3500 
L 1159 3500 
L 1159 2956 
Q 1366 3272 1645 3428 
Q 1925 3584 2291 3584 
Q 2894 3584 3203 3211 
Q 3513 2838 3513 2113 
z
" transform="scale(0.015625)"/>
      </defs>
      <use xlink:href="#DejaVuSans-47"/>
      <use xlink:href="#DejaVuSans-6c" x="77.490234"/>
      <use xlink:href="#DejaVuSans-6f" x="105.273438"/>
      <use xlink:href="#DejaVuSans-62" x="166.455078"/>
      <use xlink:href="#DejaVuSans-61" x="229.931641"/>
      <use xlink:href="#DejaVuSans-6c" x="291.210938"/>
      <use xlink:href="#DejaVuSans-20" x="318.994141"/>
      <use xlink:href="#DejaVuSans-6d" x="350.78125"/>
      <use xlink:href="#DejaVuSans-65" x="448.193359"/>
      <use xlink:href="#DejaVuSans-61" x="509.716797"/>
      <use xlink:href="#DejaVuSans-6e" x="570.996094"/>
     </g>
     <!-- temperature above -->
     <g transform="translate(602.303942 113.95175)scale(0.22 -0.22)">
      <defs>
       <path id="DejaVuSans-74" d="M 1172 4494 
L 1172 3500 
L 2356 3500 
L 2356 3053 
L 1172 3053 
L 1172 1153 
Q 1172 725 1289 603 
Q 1406 481 1766 481 
L 2356 481 
L 2356 0 
L 1766 0 
Q 1100 0 847 248 
Q 594 497 594 1153 
L 594 3053 
L 172 3053 
L 172 3500 
L 594 3500 
L 594 4494 
L 1172 4494 
z
" transform="scale(0.015625)"/>
       <path id="DejaVuSans-70" d="M 1159 525 
L 1159 -1331 
L 581 -1331 
L 581 3500 
L 1159 3500 
L 1159 2969 
Q 1341 3281 1617 3432 
Q 1894 3584 2278 3584 
Q 2916 3584 3314 3078 
Q 3713 2572 3713 1747 
Q 3713 922 3314 415 
Q 2916 -91 2278 -91 
Q 1894 -91 1617 61 
Q 1341 213 1159 525 
z
M 3116 1747 
Q 3116 2381 2855 2742 
Q 2594 3103 2138 3103 
Q 1681 3103 1420 2742 
Q 1159 2381 1159 1747 
Q 1159 1113 1420 752 
Q 1681 391 2138 391 
Q 2594 391 2855 752 
Q 3116 1113 3116 1747 
z
" transform="scale(0.015625)"/>
       <path id="DejaVuSans-72" d="M 2631 2963 
Q 2534 3019 2420 3045 
Q 2306 3072 2169 3072 
Q 1681 3072 1420 2755 
Q 1159 2438 1159 1844 
L 1159 0 
L 581 0 
L 581 3500 
L 1159 3500 
L 1159 2956 
Q 1341 3275 1631 3429 
Q 1922 3584 2338 3584 
Q 2397 3584 2469 3576 
Q 2541 3569 2628 3553 
L 2631 2963 
z
" transform="scale(0.015625)"/>
       <path id="DejaVuSans-75" d="M 544 1381 
L 544 3500 
L 1119 3500 
L 1119 1403 
Q 1119 906 1312 657 
Q 1506 409 1894 409 
Q 2359 409 2629 706 
Q 2900 1003 2900 1516 
L 2900 3500 
L 3475 3500 
L 3475 0 
L 2900 0 
L 2900 538 
Q 2691 219 2414 64 
Q 2138 -91 1772 -91 
Q 1169 -91 856 284 
Q 544 659 544 1381 
z
M 1991 3584 
L 1991 3584 
z
" transform="scale(0.015625)"/>
       <path id="DejaVuSans-76" d="M 191 3500 
L 800 3500 
L 1894 563 
L 2988 3500 
L 3597 3500 
L 2284 0 
L 1503 0 
L 191 3500 
z
" transform="scale(0.015625)"/>
      </defs>
      <use xlink:href="#DejaVuSans-74"/>
      <use xlink:href="#DejaVuSans-65" x="39.208984"/>
      <use xlink:href="#DejaVuSans-6d" x="100.732422"/>
      <use xlink:href="#DejaVuSans-70" x="198.144531"/>
      <use xlink:href="#DejaVuSans-65" x="261.621094"/>
      <use xlink:href="#DejaVuSans-72" x="323.144531"/>
      <use xlink:href="#DejaVuSans-61" x="364.257812"/>
      <use xlink:href="#DejaVuSans-74" x="425.537109"/>
      <use xlink:href="#DejaVuSans-75" x="464.746094"/>
      <use xlink:href="#DejaVuSans-72" x="528.125"/>
      <use xlink:href="#DejaVuSans-65" x="566.988281"/>
      <use xlink:href="#DejaVuSans-20" x="628.511719"/>
      <use xlink:href="#DejaVuSans-61" x="660.298828"/>
      <use xlink:href="#DejaVuSans-62" x="721.578125"/>
      <use xlink:href="#DejaVuSans-6f" x="785.054688"/>
      <use xlink:href="#DejaVuSans-76" x="846.236328"/>
      <use xlink:href="#DejaVuSans-65" x="905.416016"/>
     </g>
     <!-- pre-industrial in 2100 -->
     <g transform="translate(602.303942 138.586938)scale(0.22 -0.22)">
      <defs>
       <path id="DejaVuSans-2d" d="M 313 2009 
L 1997 2009 
L 1997 1497 
L 313 1497 
L 313 2009 
z
" transform="scale(0.015625)"/>
       <path id="DejaVuSans-69" d="M 603 3500 
L 1178 3500 
L 1178 0 
L 603 0 
L 603 3500 
z
M 603 4863 
L 1178 4863 
L 1178 4134 
L 603 4134 
L 603 4863 
z
" transform="scale(0.015625)"/>
       <path id="DejaVuSans-64" d="M 2906 2969 
L 2906 4863 
L 3481 4863 
L 3481 0 
L 2906 0 
L 2906 525 
Q 2725 213 2448 61 
Q 2172 -91 1784 -91 
Q 1150 -91 751 415 
Q 353 922 353 1747 
Q 353 2572 751 3078 
Q 1150 3584 1784 3584 
Q 2172 3584 2448 3432 
Q 2725 3281 2906 2969 
z
M 947 1747 
Q 947 1113 1208 752 
Q 1469 391 1925 391 
Q 2381 391 2643 752 
Q 2906 1113 2906 1747 
Q 2906 2381 2643 2742 
Q 2381 3103 1925 3103 
Q 1469 3103 1208 2742 
Q 947 2381 947 1747 
z
" transform="scale(0.015625)"/>
       <path id="DejaVuSans-73" d="M 2834 3397 
L 2834 2853 
Q 2591 2978 2328 3040 
Q 2066 3103 1784 3103 
Q 1356 3103 1142 2972 
Q 928 2841 928 2578 
Q 928 2378 1081 2264 
Q 1234 2150 1697 2047 
L 1894 2003 
Q 2506 1872 2764 1633 
Q 3022 1394 3022 966 
Q 3022 478 2636 193 
Q 2250 -91 1575 -91 
Q 1294 -91 989 -36 
Q 684 19 347 128 
L 347 722 
Q 666 556 975 473 
Q 1284 391 1588 391 
Q 1994 391 2212 530 
Q 2431 669 2431 922 
Q 2431 1156 2273 1281 
Q 2116 1406 1581 1522 
L 1381 1569 
Q 847 1681 609 1914 
Q 372 2147 372 2553 
Q 372 3047 722 3315 
Q 1072 3584 1716 3584 
Q 2034 3584 2315 3537 
Q 2597 3491 2834 3397 
z
" transform="scale(0.015625)"/>
      </defs>
      <use xlink:href="#DejaVuSans-70"/>
      <use xlink:href="#DejaVuSans-72" x="63.476562"/>
      <use xlink:href="#DejaVuSans-65" x="102.339844"/>
      <use xlink:href="#DejaVuSans-2d" x="163.863281"/>
      <use xlink:href="#DejaVuSans-69" x="199.947266"/>
      <use xlink:href="#DejaVuSans-6e" x="227.730469"/>
      <use xlink:href="#DejaVuSans-64" x="291.109375"/>
      <use xlink:href="#DejaVuSans-75" x="354.585938"/>
      <use xlink:href="#DejaVuSans-73" x="417.964844"/>
      <use xlink:href="#DejaVuSans-74" x="470.064453"/>
      <use xlink:href="#DejaVuSans-72" x="509.273438"/>
      <use xlink:href="#DejaVuSans-69" x="550.386719"/>
      <use xlink:href="#DejaVuSans-61" x="578.169922"/>
      <use xlink:href="#DejaVuSans-6c" x="639.449219"/>
      <use xlink:href="#DejaVuSans-20" x="667.232422"/>
      <use xlink:href="#DejaVuSans-69" x="699.019531"/>
      <use xlink:href="#DejaVuSans-6e" x="726.802734"/>
      <use xlink:href="#DejaVuSans-20" x="790.181641"/>
      <use xlink:href="#DejaVuSans-32" x="821.96875"/>
      <use xlink:href="#DejaVuSans-31" x="885.591797"/>
      <use xlink:href="#DejaVuSans-30" x="949.214844"/>
      <use xlink:href="#DejaVuSans-30" x="1012.837891"/>
     </g>
    </g>
    <g id="line2d_18">
     <path d="M 616.971755 155.478813 
L 638.971755 155.478813 
L 660.971755 155.478813 
" style="fill: none; stroke: #74b8f8; stroke-opacity: 0.5; stroke-width: 6; stroke-linecap: square"/>
    </g>
    <g id="text_16">
     <!-- 1.5C (n=2) -->
     <g transform="translate(678.571755 163.178813)scale(0.22 -0.22)">
      <defs>
       <path id="DejaVuSans-2e" d="M 684 794 
L 1344 794 
L 1344 0 
L 684 0 
L 684 794 
z
" transform="scale(0.015625)"/>
       <path id="DejaVuSans-35" d="M 691 4666 
L 3169 4666 
L 3169 4134 
L 1269 4134 
L 1269 2991 
Q 1406 3038 1543 3061 
Q 1681 3084 1819 3084 
Q 2600 3084 3056 2656 
Q 3513 2228 3513 1497 
Q 3513 744 3044 326 
Q 2575 -91 1722 -91 
Q 1428 -91 1123 -41 
Q 819 9 494 109 
L 494 744 
Q 775 591 1075 516 
Q 1375 441 1709 441 
Q 2250 441 2565 725 
Q 2881 1009 2881 1497 
Q 2881 1984 2565 2268 
Q 2250 2553 1709 2553 
Q 1456 2553 1204 2497 
Q 953 2441 691 2322 
L 691 4666 
z
" transform="scale(0.015625)"/>
       <path id="DejaVuSans-b0" d="M 1600 4347 
Q 1350 4347 1178 4173 
Q 1006 4000 1006 3750 
Q 1006 3503 1178 3333 
Q 1350 3163 1600 3163 
Q 1850 3163 2022 3333 
Q 2194 3503 2194 3750 
Q 2194 3997 2020 4172 
Q 1847 4347 1600 4347 
z
M 1600 4750 
Q 1800 4750 1984 4673 
Q 2169 4597 2303 4453 
Q 2447 4313 2519 4134 
Q 2591 3956 2591 3750 
Q 2591 3338 2302 3052 
Q 2013 2766 1594 2766 
Q 1172 2766 890 3047 
Q 609 3328 609 3750 
Q 609 4169 896 4459 
Q 1184 4750 1600 4750 
z
" transform="scale(0.015625)"/>
       <path id="DejaVuSans-43" d="M 4122 4306 
L 4122 3641 
Q 3803 3938 3442 4084 
Q 3081 4231 2675 4231 
Q 1875 4231 1450 3742 
Q 1025 3253 1025 2328 
Q 1025 1406 1450 917 
Q 1875 428 2675 428 
Q 3081 428 3442 575 
Q 3803 722 4122 1019 
L 4122 359 
Q 3791 134 3420 21 
Q 3050 -91 2638 -91 
Q 1578 -91 968 557 
Q 359 1206 359 2328 
Q 359 3453 968 4101 
Q 1578 4750 2638 4750 
Q 3056 4750 3426 4639 
Q 3797 4528 4122 4306 
z
" transform="scale(0.015625)"/>
       <path id="DejaVuSans-28" d="M 1984 4856 
Q 1566 4138 1362 3434 
Q 1159 2731 1159 2009 
Q 1159 1288 1364 580 
Q 1569 -128 1984 -844 
L 1484 -844 
Q 1016 -109 783 600 
Q 550 1309 550 2009 
Q 550 2706 781 3412 
Q 1013 4119 1484 4856 
L 1984 4856 
z
" transform="scale(0.015625)"/>
       <path id="DejaVuSans-3d" d="M 678 2906 
L 4684 2906 
L 4684 2381 
L 678 2381 
L 678 2906 
z
M 678 1631 
L 4684 1631 
L 4684 1100 
L 678 1100 
L 678 1631 
z
" transform="scale(0.015625)"/>
       <path id="DejaVuSans-29" d="M 513 4856 
L 1013 4856 
Q 1481 4119 1714 3412 
Q 1947 2706 1947 2009 
Q 1947 1309 1714 600 
Q 1481 -109 1013 -844 
L 513 -844 
Q 928 -128 1133 580 
Q 1338 1288 1338 2009 
Q 1338 2731 1133 3434 
Q 928 4138 513 4856 
z
" transform="scale(0.015625)"/>
      </defs>
      <use xlink:href="#DejaVuSans-31"/>
      <use xlink:href="#DejaVuSans-2e" x="63.623047"/>
      <use xlink:href="#DejaVuSans-35" x="95.410156"/>
      <use xlink:href="#DejaVuSans-b0" x="159.033203"/>
      <use xlink:href="#DejaVuSans-43" x="209.033203"/>
      <use xlink:href="#DejaVuSans-20" x="278.857422"/>
      <use xlink:href="#DejaVuSans-28" x="310.644531"/>
      <use xlink:href="#DejaVuSans-6e" x="349.658203"/>
      <use xlink:href="#DejaVuSans-3d" x="413.037109"/>
      <use xlink:href="#DejaVuSans-32" x="496.826172"/>
      <use xlink:href="#DejaVuSans-29" x="560.449219"/>
     </g>
    </g>
    <g id="line2d_19">
     <path d="M 616.971755 180.070688 
L 638.971755 180.070688 
L 660.971755 180.070688 
" style="fill: none; stroke: #f47100; stroke-opacity: 0.5; stroke-width: 6; stroke-linecap: square"/>
    </g>
    <g id="text_17">
     <!-- 2.2C (n=14) -->
     <g transform="translate(678.571755 187.770688)scale(0.22 -0.22)">
      <use xlink:href="#DejaVuSans-32"/>
      <use xlink:href="#DejaVuSans-2e" x="63.623047"/>
      <use xlink:href="#DejaVuSans-32" x="95.410156"/>
      <use xlink:href="#DejaVuSans-b0" x="159.033203"/>
      <use xlink:href="#DejaVuSans-43" x="209.033203"/>
      <use xlink:href="#DejaVuSans-20" x="278.857422"/>
      <use xlink:href="#DejaVuSans-28" x="310.644531"/>
      <use xlink:href="#DejaVuSans-6e" x="349.658203"/>
      <use xlink:href="#DejaVuSans-3d" x="413.037109"/>
      <use xlink:href="#DejaVuSans-31" x="496.826172"/>
      <use xlink:href="#DejaVuSans-34" x="560.449219"/>
      <use xlink:href="#DejaVuSans-29" x="624.072266"/>
     </g>
    </g>
    <g id="line2d_20">
     <path d="M 616.971755 204.662563 
L 638.971755 204.662563 
L 660.971755 204.662563 
" style="fill: none; stroke: #d01e04; stroke-opacity: 0.5; stroke-width: 6; stroke-linecap: square"/>
    </g>
    <g id="text_18">
     <!-- 2.8C (n=12) -->
     <g transform="translate(678.571755 212.362563)scale(0.22 -0.22)">
      <use xlink:href="#DejaVuSans-32"/>
      <use xlink:href="#DejaVuSans-2e" x="63.623047"/>
      <use xlink:href="#DejaVuSans-38" x="95.410156"/>
      <use xlink:href="#DejaVuSans-b0" x="159.033203"/>
      <use xlink:href="#DejaVuSans-43" x="209.033203"/>
      <use xlink:href="#DejaVuSans-20" x="278.857422"/>
      <use xlink:href="#DejaVuSans-28" x="310.644531"/>
      <use xlink:href="#DejaVuSans-6e" x="349.658203"/>
      <use xlink:href="#DejaVuSans-3d" x="413.037109"/>
      <use xlink:href="#DejaVuSans-31" x="496.826172"/>
      <use xlink:href="#DejaVuSans-32" x="560.449219"/>
      <use xlink:href="#DejaVuSans-29" x="624.072266"/>
     </g>
    </g>
   </g>
  </g>
 </g>
 <defs>
  <clipPath id="p76d4f28d2c">
   <rect x="109.64" y="52.8" width="749.280192" height="462.76"/>
  </clipPath>
 </defs>
</svg>
