<?xml version="1.0" encoding="utf-8" standalone="no"?>
<!DOCTYPE svg PUBLIC "-//W3C//DTD SVG 1.1//EN"
  "http://www.w3.org/Graphics/SVG/1.1/DTD/svg11.dtd">
<svg xmlns:xlink="http://www.w3.org/1999/xlink" width="900pt" height="600pt" viewBox="0 0 900 600" xmlns="http://www.w3.org/2000/svg" version="1.1">
 <metadata>
  <rdf:RDF xmlns:dc="http://purl.org/dc/elements/1.1/" xmlns:cc="http://creativecommons.org/ns#" xmlns:rdf="http://www.w3.org/1999/02/22-rdf-syntax-ns#">
   <cc:Work>
    <dc:type rdf:resource="http://purl.org/dc/dcmitype/StillImage"/>
    <dc:date>2024-10-31T18:28:34.634897</dc:date>
    <dc:format>image/svg+xml</dc:format>
    <dc:creator>
     <cc:Agent>
      <dc:title>Matplotlib v3.5.3, https://matplotlib.org/</dc:title>
     </cc:Agent>
    </dc:creator>
   </cc:Work>
  </rdf:RDF>
 </metadata>
 <defs>
  <style type="text/css">*{stroke-linejoin: round; stroke-linecap: butt}</style>
 </defs>
 <g id="figure_1">
  <g id="patch_1">
   <path d="M 0 600 
L 900 600 
L 900 0 
L 0 0 
z
" style="fill: #ffffff"/>
  </g>
  <g id="axes_1">
   <g id="patch_2">
    <path d="M 109.64 515.56 
L 858.920192 515.56 
L 858.920192 52.8 
L 109.64 52.8 
z
" style="fill: #ffffff"/>
   </g>
   <g id="PolyCollection_1">
    <defs>
     <path id="m8316261ea8" d="M 167.276938 -453.985652 
L 167.276938 -453.794757 
L 169.678477 -452.923823 
L 172.080016 -452.036314 
L 174.481555 -451.145601 
L 176.883094 -450.251354 
L 179.284633 -449.354003 
L 181.686172 -448.448698 
L 184.087711 -447.529731 
L 186.48925 -446.605223 
L 188.89079 -445.673432 
L 191.292329 -444.75052 
L 193.693868 -443.841136 
L 196.095407 -442.949431 
L 198.496946 -442.04222 
L 200.898485 -441.128696 
L 203.300024 -440.205441 
L 205.701563 -439.291864 
L 208.103102 -438.385691 
L 210.504641 -437.458052 
L 212.90618 -436.514486 
L 215.307719 -435.55776 
L 217.709259 -434.606538 
L 220.110798 -433.64714 
L 222.512337 -432.67603 
L 224.913876 -431.689646 
L 227.315415 -430.6957 
L 229.716954 -429.70607 
L 232.118493 -428.721916 
L 234.520032 -427.726977 
L 236.921571 -426.721917 
L 239.32311 -425.705156 
L 241.724649 -424.662722 
L 244.126188 -423.635942 
L 246.527727 -422.618032 
L 248.929267 -421.624668 
L 251.330806 -420.626681 
L 253.732345 -419.643946 
L 256.133884 -418.677701 
L 258.535423 -417.759319 
L 260.936962 -416.852744 
L 263.338501 -415.974193 
L 265.74004 -415.110054 
L 268.141579 -414.264152 
L 270.543118 -413.421729 
L 272.944657 -412.58144 
L 275.346196 -411.729892 
L 277.747735 -410.84229 
L 280.149275 -409.940614 
L 282.550814 -409.039903 
L 284.952353 -408.156795 
L 287.353892 -407.295073 
L 289.755431 -406.439808 
L 292.15697 -405.595334 
L 294.558509 -404.751034 
L 296.960048 -403.907457 
L 299.361587 -403.084578 
L 301.763126 -402.260604 
L 304.164665 -401.420916 
L 306.566204 -400.59522 
L 308.967743 -399.783505 
L 311.369283 -398.974967 
L 313.770822 -398.136492 
L 316.172361 -397.286382 
L 318.5739 -396.429973 
L 320.975439 -395.592129 
L 323.376978 -394.7707 
L 325.778517 -393.978748 
L 328.180056 -393.169459 
L 330.581595 -392.355457 
L 332.983134 -391.528851 
L 335.384673 -390.686844 
L 337.786212 -389.84334 
L 340.187751 -388.984495 
L 342.589291 -388.141552 
L 344.99083 -387.277696 
L 347.392369 -386.401522 
L 349.793908 -385.519485 
L 352.195447 -384.644611 
L 354.596986 -383.762956 
L 356.998525 -382.883656 
L 359.400064 -382.004373 
L 361.801603 -381.144173 
L 364.203142 -380.299923 
L 366.604681 -379.470238 
L 369.00622 -378.628258 
L 371.407759 -377.791776 
L 373.809299 -376.941643 
L 376.210838 -376.105249 
L 378.612377 -375.280294 
L 381.013916 -374.471745 
L 383.415455 -373.670797 
L 385.816994 -372.875169 
L 388.218533 -372.093983 
L 390.620072 -371.306838 
L 393.021611 -370.535401 
L 395.42315 -369.766368 
L 397.824689 -369.000466 
L 400.226228 -368.221849 
L 402.627768 -367.422679 
L 405.029307 -366.626727 
L 407.430846 -365.823562 
L 409.832385 -365.025418 
L 412.233924 -364.224236 
L 414.635463 -363.438093 
L 417.037002 -362.680292 
L 419.438541 -361.927359 
L 421.84008 -361.183725 
L 424.241619 -360.46474 
L 426.643158 -359.751341 
L 429.044697 -359.039272 
L 431.446236 -358.348676 
L 433.847776 -357.660118 
L 436.249315 -356.976276 
L 438.650854 -356.298865 
L 441.052393 -355.641245 
L 443.453932 -354.982296 
L 445.855471 -354.321033 
L 448.25701 -353.681439 
L 450.658549 -353.069173 
L 453.060088 -352.428903 
L 455.461627 -351.790753 
L 457.863166 -351.164327 
L 460.264705 -350.540488 
L 462.666244 -349.890701 
L 465.067784 -349.229633 
L 467.469323 -348.571111 
L 469.870862 -347.910223 
L 472.272401 -347.268383 
L 474.67394 -346.626031 
L 477.075479 -345.988601 
L 479.477018 -345.343216 
L 481.878557 -344.721508 
L 484.280096 -344.093743 
L 486.681635 -343.436232 
L 489.083174 -342.761594 
L 491.484713 -342.091684 
L 493.886252 -341.442495 
L 496.287792 -340.802713 
L 498.689331 -340.178947 
L 501.09087 -339.59956 
L 503.492409 -339.038963 
L 505.893948 -338.48024 
L 508.295487 -337.927559 
L 510.697026 -337.40124 
L 513.098565 -336.867772 
L 515.500104 -336.306205 
L 517.901643 -335.743813 
L 520.303182 -335.154208 
L 522.704721 -334.559896 
L 525.10626 -333.952499 
L 527.5078 -333.328765 
L 529.909339 -332.67117 
L 532.310878 -332.017328 
L 534.712417 -331.390719 
L 537.113956 -330.781754 
L 539.515495 -330.192923 
L 541.917034 -329.574139 
L 544.318573 -328.938149 
L 546.720112 -328.259063 
L 549.121651 -327.554325 
L 551.52319 -326.835055 
L 553.924729 -326.095016 
L 556.326268 -325.355341 
L 558.727808 -324.599575 
L 561.129347 -323.857598 
L 563.530886 -323.147178 
L 565.932425 -322.44694 
L 568.333964 -321.773229 
L 570.735503 -321.117954 
L 573.137042 -320.473365 
L 575.538581 -319.847477 
L 577.94012 -319.250368 
L 580.341659 -318.665078 
L 582.743198 -318.085202 
L 585.144737 -317.516214 
L 587.546277 -316.946203 
L 589.947816 -316.405342 
L 592.349355 -315.895729 
L 594.750894 -315.427165 
L 597.152433 -314.973472 
L 599.553972 -314.516207 
L 601.955511 -314.067306 
L 604.35705 -313.600543 
L 606.758589 -313.146818 
L 609.160128 -312.685509 
L 611.561667 -312.229891 
L 613.963206 -311.778389 
L 616.364745 -311.320669 
L 618.766285 -310.849199 
L 621.167824 -310.379858 
L 623.569363 -309.891443 
L 625.970902 -309.39481 
L 628.372441 -308.911667 
L 630.77398 -308.391857 
L 633.175519 -307.860952 
L 635.577058 -307.322516 
L 637.978597 -306.779085 
L 640.380136 -306.238861 
L 642.781675 -305.682482 
L 645.183214 -305.137632 
L 647.584753 -304.614255 
L 649.986293 -304.117828 
L 652.387832 -303.655375 
L 654.789371 -303.195349 
L 657.19091 -302.757839 
L 659.592449 -302.327249 
L 661.993988 -301.899653 
L 664.395527 -301.482936 
L 666.797066 -301.085764 
L 669.198605 -300.694647 
L 671.600144 -300.334814 
L 674.001683 -299.996266 
L 676.403222 -299.640848 
L 678.804761 -299.321631 
L 681.206301 -299.010272 
L 683.60784 -298.702017 
L 686.009379 -298.415908 
L 688.410918 -298.116051 
L 690.812457 -297.82989 
L 693.213996 -297.553721 
L 695.615535 -297.273849 
L 698.017074 -296.996941 
L 700.418613 -296.723725 
L 702.820152 -296.451816 
L 705.221691 -296.175936 
L 707.62323 -295.889459 
L 710.024769 -295.61553 
L 712.426309 -295.347687 
L 714.827848 -295.074239 
L 717.229387 -294.791408 
L 719.630926 -294.496637 
L 722.032465 -294.190929 
L 724.434004 -293.893574 
L 726.835543 -293.598438 
L 729.237082 -293.307071 
L 731.638621 -293.021571 
L 734.04016 -292.705365 
L 736.441699 -292.39328 
L 738.843238 -292.073032 
L 741.244777 -291.741713 
L 743.646317 -291.415783 
L 746.047856 -291.073836 
L 748.449395 -290.719552 
L 750.850934 -290.367244 
L 753.252473 -290.007295 
L 755.654012 -289.655141 
L 758.055551 -289.275872 
L 760.45709 -288.87862 
L 762.858629 -288.48686 
L 765.260168 -288.105621 
L 767.661707 -287.715547 
L 770.063246 -287.333792 
L 772.464786 -286.924474 
L 774.866325 -286.52297 
L 777.267864 -286.119408 
L 779.669403 -285.720646 
L 782.070942 -285.350657 
L 784.472481 -284.986115 
L 786.87402 -284.610618 
L 789.275559 -284.221118 
L 791.677098 -283.832912 
L 794.078637 -283.448575 
L 796.480176 -283.076042 
L 798.881715 -282.710584 
L 801.283254 -282.34841 
L 803.684794 -281.996013 
L 806.086333 -281.669798 
L 808.487872 -281.365421 
L 810.889411 -281.072149 
L 813.29095 -280.791169 
L 815.692489 -280.530967 
L 818.094028 -280.373873 
L 820.495567 -280.245382 
L 822.897106 -280.114839 
L 825.298645 -279.979255 
L 827.700184 -279.836473 
L 830.101723 -279.683884 
L 832.503262 -279.530166 
L 834.904802 -279.411148 
L 837.306341 -279.314826 
L 837.306341 -281.749783 
L 837.306341 -281.749783 
L 834.904802 -281.837099 
L 832.503262 -281.941504 
L 830.101723 -282.074991 
L 827.700184 -282.206387 
L 825.298645 -282.332562 
L 822.897106 -282.450669 
L 820.495567 -282.567739 
L 818.094028 -282.682708 
L 815.692489 -282.823673 
L 813.29095 -283.058486 
L 810.889411 -283.312305 
L 808.487872 -283.581982 
L 806.086333 -283.859557 
L 803.684794 -284.160866 
L 801.283254 -284.484733 
L 798.881715 -284.82049 
L 796.480176 -285.159099 
L 794.078637 -285.503922 
L 791.677098 -285.860419 
L 789.275559 -286.224967 
L 786.87402 -286.593475 
L 784.472481 -286.95266 
L 782.070942 -287.309024 
L 779.669403 -287.67419 
L 777.267864 -288.062798 
L 774.866325 -288.45526 
L 772.464786 -288.842288 
L 770.063246 -289.237102 
L 767.661707 -289.60738 
L 765.260168 -289.98698 
L 762.858629 -290.36013 
L 760.45709 -290.742498 
L 758.055551 -291.132568 
L 755.654012 -291.503631 
L 753.252473 -291.851738 
L 750.850934 -292.209543 
L 748.449395 -292.56123 
L 746.047856 -292.913599 
L 743.646317 -293.257629 
L 741.244777 -293.580574 
L 738.843238 -293.908829 
L 736.441699 -294.224728 
L 734.04016 -294.533056 
L 731.638621 -294.841201 
L 729.237082 -295.121063 
L 726.835543 -295.409509 
L 724.434004 -295.7056 
L 722.032465 -296.006386 
L 719.630926 -296.320752 
L 717.229387 -296.62001 
L 714.827848 -296.904101 
L 712.426309 -297.179633 
L 710.024769 -297.448226 
L 707.62323 -297.725702 
L 705.221691 -298.016622 
L 702.820152 -298.294728 
L 700.418613 -298.566715 
L 698.017074 -298.84473 
L 695.615535 -299.123287 
L 693.213996 -299.40836 
L 690.812457 -299.687007 
L 688.410918 -299.978317 
L 686.009379 -300.277622 
L 683.60784 -300.569265 
L 681.206301 -300.887748 
L 678.804761 -301.210962 
L 676.403222 -301.540565 
L 674.001683 -301.906104 
L 671.600144 -302.246964 
L 669.198605 -302.615225 
L 666.797066 -303.016703 
L 664.395527 -303.424821 
L 661.993988 -303.853151 
L 659.592449 -304.289277 
L 657.19091 -304.727029 
L 654.789371 -305.172906 
L 652.387832 -305.645751 
L 649.986293 -306.116121 
L 647.584753 -306.621625 
L 645.183214 -307.157195 
L 642.781675 -307.711783 
L 640.380136 -308.275508 
L 637.978597 -308.821279 
L 635.577058 -309.368783 
L 633.175519 -309.904034 
L 630.77398 -310.433627 
L 628.372441 -310.952996 
L 625.970902 -311.43547 
L 623.569363 -311.939135 
L 621.167824 -312.439956 
L 618.766285 -312.925476 
L 616.364745 -313.410447 
L 613.963206 -313.880227 
L 611.561667 -314.346329 
L 609.160128 -314.818023 
L 606.758589 -315.291183 
L 604.35705 -315.758848 
L 601.955511 -316.240654 
L 599.553972 -316.70245 
L 597.152433 -317.172026 
L 594.750894 -317.645238 
L 592.349355 -318.133418 
L 589.947816 -318.667352 
L 587.546277 -319.232334 
L 585.144737 -319.831991 
L 582.743198 -320.427842 
L 580.341659 -321.036918 
L 577.94012 -321.656706 
L 575.538581 -322.284434 
L 573.137042 -322.934088 
L 570.735503 -323.596462 
L 568.333964 -324.272562 
L 565.932425 -324.972431 
L 563.530886 -325.700443 
L 561.129347 -326.439601 
L 558.727808 -327.215115 
L 556.326268 -328.002819 
L 553.924729 -328.775265 
L 551.52319 -329.552762 
L 549.121651 -330.311282 
L 546.720112 -331.058533 
L 544.318573 -331.778647 
L 541.917034 -332.459104 
L 539.515495 -333.123975 
L 537.113956 -333.755946 
L 534.712417 -334.409754 
L 532.310878 -335.073525 
L 529.909339 -335.753498 
L 527.5078 -336.441849 
L 525.10626 -337.097937 
L 522.704721 -337.743876 
L 520.303182 -338.370757 
L 517.901643 -338.988828 
L 515.500104 -339.579637 
L 513.098565 -340.163721 
L 510.697026 -340.721121 
L 508.295487 -341.264914 
L 505.893948 -341.837567 
L 503.492409 -342.411594 
L 501.09087 -342.97815 
L 498.689331 -343.562509 
L 496.287792 -344.19026 
L 493.886252 -344.828841 
L 491.484713 -345.479492 
L 489.083174 -346.149886 
L 486.681635 -346.825089 
L 484.280096 -347.483354 
L 481.878557 -348.11998 
L 479.477018 -348.746371 
L 477.075479 -349.394215 
L 474.67394 -350.031162 
L 472.272401 -350.679302 
L 469.870862 -351.331098 
L 467.469323 -352.000394 
L 465.067784 -352.672773 
L 462.666244 -353.346513 
L 460.264705 -354.015256 
L 457.863166 -354.652099 
L 455.461627 -355.294311 
L 453.060088 -355.949285 
L 450.658549 -356.601749 
L 448.25701 -357.228369 
L 445.855471 -357.886913 
L 443.453932 -358.565298 
L 441.052393 -359.242882 
L 438.650854 -359.919775 
L 436.249315 -360.621049 
L 433.847776 -361.324283 
L 431.446236 -362.035499 
L 429.044697 -362.749243 
L 426.643158 -363.479962 
L 424.241619 -364.207393 
L 421.84008 -364.941029 
L 419.438541 -365.695205 
L 417.037002 -366.460875 
L 414.635463 -367.22569 
L 412.233924 -368.022927 
L 409.832385 -368.840985 
L 407.430846 -369.657286 
L 405.029307 -370.48537 
L 402.627768 -371.307972 
L 400.226228 -372.135774 
L 397.824689 -372.944058 
L 395.42315 -373.740081 
L 393.021611 -374.540255 
L 390.620072 -375.332364 
L 388.218533 -376.135926 
L 385.816994 -376.938115 
L 383.415455 -377.750149 
L 381.013916 -378.571815 
L 378.612377 -379.412321 
L 376.210838 -380.266153 
L 373.809299 -381.128401 
L 371.407759 -382.005626 
L 369.00622 -382.867979 
L 366.604681 -383.740626 
L 364.203142 -384.59703 
L 361.801603 -385.465398 
L 359.400064 -386.350369 
L 356.998525 -387.251117 
L 354.596986 -388.14827 
L 352.195447 -389.040669 
L 349.793908 -389.924969 
L 347.392369 -390.817328 
L 344.99083 -391.705514 
L 342.589291 -392.586179 
L 340.187751 -393.451502 
L 337.786212 -394.324145 
L 335.384673 -395.184176 
L 332.983134 -396.037275 
L 330.581595 -396.864508 
L 328.180056 -397.681404 
L 325.778517 -398.490177 
L 323.376978 -399.27837 
L 320.975439 -400.097791 
L 318.5739 -400.93166 
L 316.172361 -401.773296 
L 313.770822 -402.602662 
L 311.369283 -403.414587 
L 308.967743 -404.198004 
L 306.566204 -404.981105 
L 304.164665 -405.783577 
L 301.763126 -406.5953 
L 299.361587 -407.386112 
L 296.960048 -408.172774 
L 294.558509 -408.984332 
L 292.15697 -409.793033 
L 289.755431 -410.604944 
L 287.353892 -411.428779 
L 284.952353 -412.26424 
L 282.550814 -413.12284 
L 280.149275 -413.996755 
L 277.747735 -414.872266 
L 275.346196 -415.737723 
L 272.944657 -416.563402 
L 270.543118 -417.381086 
L 268.141579 -418.213136 
L 265.74004 -419.053117 
L 263.338501 -419.904773 
L 260.936962 -420.760269 
L 258.535423 -421.647184 
L 256.133884 -422.546041 
L 253.732345 -423.486336 
L 251.330806 -424.440545 
L 248.929267 -425.408937 
L 246.527727 -426.367308 
L 244.126188 -427.355379 
L 241.724649 -428.355121 
L 239.32311 -429.361736 
L 236.921571 -430.332446 
L 234.520032 -431.284531 
L 232.118493 -432.227658 
L 229.716954 -433.158307 
L 227.315415 -434.084182 
L 224.913876 -435.002269 
L 222.512337 -435.902819 
L 220.110798 -436.782546 
L 217.709259 -437.643206 
L 215.307719 -438.504062 
L 212.90618 -439.373151 
L 210.504641 -440.228404 
L 208.103102 -441.063159 
L 205.701563 -441.874656 
L 203.300024 -442.690403 
L 200.898485 -443.510094 
L 198.496946 -444.311833 
L 196.095407 -445.096829 
L 193.693868 -445.850848 
L 191.292329 -446.612992 
L 188.89079 -447.386964 
L 186.48925 -448.156348 
L 184.087711 -448.91667 
L 181.686172 -449.658534 
L 179.284633 -450.398734 
L 176.883094 -451.137999 
L 174.481555 -451.854279 
L 172.080016 -452.572956 
L 169.678477 -453.295339 
L 167.276938 -453.985652 
z
" style="stroke: #74b8f8; stroke-opacity: 0.2"/>
    </defs>
    <g clip-path="url(#p3458b6d5d7)">
     <use xlink:href="#m8316261ea8" x="0" y="600" style="fill: #74b8f8; fill-opacity: 0.2; stroke: #74b8f8; stroke-opacity: 0.2"/>
    </g>
   </g>
   <g id="PolyCollection_2">
    <defs>
     <path id="m9e389de6cb" d="M 116.844617 -465.373575 
L 116.844617 -461.845098 
L 119.246156 -461.655112 
L 121.647695 -461.471153 
L 124.049234 -461.296156 
L 126.450774 -461.102823 
L 128.852313 -460.884655 
L 131.253852 -460.689921 
L 133.655391 -460.495792 
L 136.05693 -460.277688 
L 138.458469 -460.065405 
L 140.860008 -459.84495 
L 143.261547 -459.407124 
L 145.663086 -458.970641 
L 148.064625 -458.499765 
L 150.466164 -458.031001 
L 152.867703 -457.528857 
L 155.269242 -457.020528 
L 157.670782 -456.478208 
L 160.072321 -455.906287 
L 162.47386 -455.287505 
L 164.875399 -454.648 
L 164.875399 -454.648 
L 164.875399 -454.648 
L 162.47386 -455.490389 
L 160.072321 -456.323432 
L 157.670782 -457.115363 
L 155.269242 -457.883089 
L 152.867703 -458.617058 
L 150.466164 -459.352639 
L 148.064625 -460.071558 
L 145.663086 -460.78983 
L 143.261547 -461.463176 
L 140.860008 -462.134051 
L 138.458469 -462.456346 
L 136.05693 -462.775966 
L 133.655391 -463.096676 
L 131.253852 -463.409346 
L 128.852313 -463.73276 
L 126.450774 -464.059576 
L 124.049234 -464.383434 
L 121.647695 -464.70729 
L 119.246156 -465.038098 
L 116.844617 -465.373575 
z
" style="stroke: #000000; stroke-opacity: 0.2"/>
    </defs>
    <g clip-path="url(#p3458b6d5d7)">
     <use xlink:href="#m9e389de6cb" x="0" y="600" style="fill-opacity: 0.2; stroke: #000000; stroke-opacity: 0.2"/>
    </g>
   </g>
   <g id="PolyCollection_3">
    <defs>
     <path id="mceabb0d66c" d="M 167.276938 -454.073089 
L 167.276938 -453.706823 
L 169.678477 -452.765191 
L 172.080016 -451.862304 
L 174.481555 -450.936274 
L 176.883094 -450.002758 
L 179.284633 -449.060271 
L 181.686172 -448.099324 
L 184.087711 -447.116734 
L 186.48925 -446.12274 
L 188.89079 -445.104098 
L 191.292329 -444.064421 
L 193.693868 -443.001979 
L 196.095407 -441.899677 
L 198.496946 -440.780332 
L 200.898485 -439.638374 
L 203.300024 -438.496384 
L 205.701563 -437.275152 
L 208.103102 -435.992528 
L 210.504641 -434.720139 
L 212.90618 -433.408135 
L 215.307719 -432.081489 
L 217.709259 -430.737719 
L 220.110798 -429.332674 
L 222.512337 -428.053783 
L 224.913876 -426.753892 
L 227.315415 -425.417245 
L 229.716954 -424.093954 
L 232.118493 -422.802189 
L 234.520032 -421.512178 
L 236.921571 -420.237353 
L 239.32311 -418.943253 
L 241.724649 -417.639089 
L 244.126188 -416.3355 
L 246.527727 -415.069168 
L 248.929267 -413.82173 
L 251.330806 -412.568446 
L 253.732345 -411.309521 
L 256.133884 -410.037351 
L 258.535423 -408.782257 
L 260.936962 -407.546642 
L 263.338501 -406.31159 
L 265.74004 -405.096429 
L 268.141579 -403.901458 
L 270.543118 -402.698339 
L 272.944657 -401.494264 
L 275.346196 -400.255189 
L 277.747735 -399.050088 
L 280.149275 -397.87018 
L 282.550814 -396.698739 
L 284.952353 -395.507958 
L 287.353892 -394.301469 
L 289.755431 -393.070275 
L 292.15697 -391.825812 
L 294.558509 -390.59556 
L 296.960048 -389.369006 
L 299.361587 -388.15498 
L 301.763126 -386.989637 
L 304.164665 -385.799004 
L 306.566204 -384.609337 
L 308.967743 -383.448157 
L 311.369283 -382.322787 
L 313.770822 -381.19188 
L 316.172361 -380.069192 
L 318.5739 -378.936193 
L 320.975439 -377.741687 
L 323.376978 -376.240556 
L 325.778517 -374.672649 
L 328.180056 -373.091551 
L 330.581595 -371.448034 
L 332.983134 -369.78754 
L 335.384673 -367.975929 
L 337.786212 -366.127072 
L 340.187751 -364.281669 
L 342.589291 -362.434641 
L 344.99083 -360.525131 
L 347.392369 -358.60242 
L 349.793908 -356.711415 
L 352.195447 -354.81459 
L 354.596986 -352.909768 
L 356.998525 -350.969334 
L 359.400064 -349.023687 
L 361.801603 -347.114242 
L 364.203142 -345.268462 
L 366.604681 -343.451545 
L 369.00622 -341.67781 
L 371.407759 -339.945704 
L 373.809299 -338.225463 
L 376.210838 -336.491716 
L 378.612377 -334.816138 
L 381.013916 -333.169368 
L 383.415455 -331.531468 
L 385.816994 -329.852265 
L 388.218533 -328.158211 
L 390.620072 -326.446894 
L 393.021611 -324.783279 
L 395.42315 -323.13938 
L 397.824689 -321.460788 
L 400.226228 -319.77236 
L 402.627768 -318.050663 
L 405.029307 -316.369372 
L 407.430846 -314.647812 
L 409.832385 -312.976374 
L 412.233924 -311.270923 
L 414.635463 -309.570654 
L 417.037002 -307.850792 
L 419.438541 -306.10758 
L 421.84008 -304.368429 
L 424.241619 -302.658041 
L 426.643158 -301.011068 
L 429.044697 -299.350082 
L 431.446236 -297.728667 
L 433.847776 -296.16338 
L 436.249315 -294.596939 
L 438.650854 -292.976964 
L 441.052393 -291.354346 
L 443.453932 -289.775142 
L 445.855471 -288.25141 
L 448.25701 -286.777013 
L 450.658549 -285.357456 
L 453.060088 -283.944205 
L 455.461627 -282.598659 
L 457.863166 -281.235018 
L 460.264705 -279.890833 
L 462.666244 -278.576116 
L 465.067784 -277.213244 
L 467.469323 -275.834771 
L 469.870862 -274.496959 
L 472.272401 -273.183499 
L 474.67394 -271.866056 
L 477.075479 -270.563757 
L 479.477018 -269.253656 
L 481.878557 -267.925763 
L 484.280096 -266.614631 
L 486.681635 -265.391962 
L 489.083174 -264.173054 
L 491.484713 -262.957017 
L 493.886252 -261.727833 
L 496.287792 -260.483748 
L 498.689331 -259.202104 
L 501.09087 -258.396906 
L 503.492409 -257.586644 
L 505.893948 -256.768815 
L 508.295487 -255.947921 
L 510.697026 -255.143753 
L 513.098565 -254.3584 
L 515.500104 -253.599674 
L 517.901643 -252.845902 
L 520.303182 -252.101067 
L 522.704721 -251.364387 
L 525.10626 -250.628293 
L 527.5078 -249.8794 
L 529.909339 -249.150472 
L 532.310878 -248.436881 
L 534.712417 -247.724396 
L 537.113956 -247.013743 
L 539.515495 -246.323708 
L 541.917034 -245.631938 
L 544.318573 -244.933473 
L 546.720112 -244.250096 
L 549.121651 -243.585906 
L 551.52319 -242.92065 
L 553.924729 -242.261681 
L 556.326268 -241.596311 
L 558.727808 -240.786832 
L 561.129347 -239.919172 
L 563.530886 -239.047097 
L 565.932425 -238.179083 
L 568.333964 -237.260981 
L 570.735503 -236.362411 
L 573.137042 -235.496183 
L 575.538581 -234.615928 
L 577.94012 -233.723539 
L 580.341659 -232.826517 
L 582.743198 -231.931472 
L 585.144737 -231.0566 
L 587.546277 -230.166312 
L 589.947816 -229.256007 
L 592.349355 -228.346221 
L 594.750894 -227.445047 
L 597.152433 -226.5228 
L 599.553972 -225.594852 
L 601.955511 -224.642359 
L 604.35705 -223.687247 
L 606.758589 -222.752546 
L 609.160128 -221.844234 
L 611.561667 -220.947699 
L 613.963206 -220.044484 
L 616.364745 -219.178933 
L 618.766285 -218.31643 
L 621.167824 -217.478715 
L 623.569363 -216.6607 
L 625.970902 -215.851206 
L 628.372441 -215.056833 
L 630.77398 -214.287079 
L 633.175519 -213.532557 
L 635.577058 -212.78769 
L 637.978597 -212.079745 
L 640.380136 -211.371548 
L 642.781675 -210.669593 
L 645.183214 -210.006177 
L 647.584753 -209.481867 
L 649.986293 -208.976883 
L 652.387832 -208.494943 
L 654.789371 -208.025231 
L 657.19091 -207.568787 
L 659.592449 -207.125079 
L 661.993988 -206.698988 
L 664.395527 -206.268659 
L 666.797066 -205.832659 
L 669.198605 -205.389648 
L 671.600144 -204.939059 
L 674.001683 -204.500473 
L 676.403222 -204.07217 
L 678.804761 -203.647262 
L 681.206301 -203.2141 
L 683.60784 -202.796793 
L 686.009379 -202.410809 
L 688.410918 -202.038467 
L 690.812457 -201.675201 
L 693.213996 -201.319998 
L 695.615535 -200.976028 
L 698.017074 -200.652809 
L 700.418613 -200.328237 
L 702.820152 -200.007035 
L 705.221691 -199.694694 
L 707.62323 -199.389297 
L 710.024769 -199.080016 
L 712.426309 -198.763593 
L 714.827848 -198.458796 
L 717.229387 -198.164825 
L 719.630926 -197.901505 
L 722.032465 -197.650569 
L 724.434004 -197.405907 
L 726.835543 -197.160553 
L 729.237082 -196.921834 
L 731.638621 -196.696287 
L 734.04016 -196.455907 
L 736.441699 -196.220287 
L 738.843238 -195.98464 
L 741.244777 -195.760168 
L 743.646317 -195.545264 
L 746.047856 -195.328996 
L 748.449395 -195.120689 
L 750.850934 -194.920392 
L 753.252473 -194.717374 
L 755.654012 -194.514219 
L 758.055551 -194.316604 
L 760.45709 -194.125643 
L 762.858629 -193.916351 
L 765.260168 -193.70842 
L 767.661707 -193.491781 
L 770.063246 -193.262724 
L 772.464786 -193.029944 
L 774.866325 -192.791335 
L 777.267864 -192.55546 
L 779.669403 -192.316703 
L 782.070942 -192.093066 
L 784.472481 -191.868672 
L 786.87402 -191.635012 
L 789.275559 -191.390333 
L 791.677098 -191.136174 
L 794.078637 -190.872102 
L 796.480176 -190.608007 
L 798.881715 -190.340019 
L 801.283254 -190.078772 
L 803.684794 -189.8267 
L 806.086333 -189.568134 
L 808.487872 -189.310691 
L 810.889411 -189.06 
L 813.29095 -188.809469 
L 815.692489 -188.54829 
L 818.094028 -188.426544 
L 820.495567 -188.300622 
L 822.897106 -188.177566 
L 825.298645 -188.05339 
L 827.700184 -187.92491 
L 830.101723 -187.785842 
L 832.503262 -187.637716 
L 834.904802 -187.493487 
L 837.306341 -187.358046 
L 837.306341 -224.47135 
L 837.306341 -224.47135 
L 834.904802 -224.658129 
L 832.503262 -224.854895 
L 830.101723 -225.043658 
L 827.700184 -225.229475 
L 825.298645 -225.411579 
L 822.897106 -225.605903 
L 820.495567 -225.795685 
L 818.094028 -225.989606 
L 815.692489 -226.183021 
L 813.29095 -226.577594 
L 810.889411 -226.96074 
L 808.487872 -227.343486 
L 806.086333 -227.725394 
L 803.684794 -228.117617 
L 801.283254 -228.515003 
L 798.881715 -228.921544 
L 796.480176 -229.317897 
L 794.078637 -229.726057 
L 791.677098 -230.148443 
L 789.275559 -230.579848 
L 786.87402 -231.019691 
L 784.472481 -231.459915 
L 782.070942 -231.914426 
L 779.669403 -232.37879 
L 777.267864 -232.854345 
L 774.866325 -233.325468 
L 772.464786 -233.814377 
L 770.063246 -234.36618 
L 767.661707 -234.916024 
L 765.260168 -235.466937 
L 762.858629 -236.032232 
L 760.45709 -236.59249 
L 758.055551 -237.147727 
L 755.654012 -237.688814 
L 753.252473 -238.228644 
L 750.850934 -238.765242 
L 748.449395 -239.316024 
L 746.047856 -239.860674 
L 743.646317 -240.395422 
L 741.244777 -240.933618 
L 738.843238 -241.462715 
L 736.441699 -241.98317 
L 734.04016 -242.483261 
L 731.638621 -242.972221 
L 729.237082 -243.454002 
L 726.835543 -243.934489 
L 724.434004 -244.408215 
L 722.032465 -244.891988 
L 719.630926 -245.380259 
L 717.229387 -245.881701 
L 714.827848 -246.390256 
L 712.426309 -246.903666 
L 710.024769 -247.429408 
L 707.62323 -247.980399 
L 705.221691 -248.538688 
L 702.820152 -249.109499 
L 700.418613 -249.674039 
L 698.017074 -250.247965 
L 695.615535 -250.825895 
L 693.213996 -251.406099 
L 690.812457 -251.990037 
L 688.410918 -252.581884 
L 686.009379 -253.176532 
L 683.60784 -253.764176 
L 681.206301 -254.360448 
L 678.804761 -254.965764 
L 676.403222 -255.577798 
L 674.001683 -256.182377 
L 671.600144 -256.779777 
L 669.198605 -257.362642 
L 666.797066 -257.951378 
L 664.395527 -258.54855 
L 661.993988 -259.145736 
L 659.592449 -259.717614 
L 657.19091 -260.280588 
L 654.789371 -260.846098 
L 652.387832 -261.418284 
L 649.986293 -261.997859 
L 647.584753 -262.587726 
L 645.183214 -263.170943 
L 642.781675 -263.762523 
L 640.380136 -264.36302 
L 637.978597 -264.985056 
L 635.577058 -265.621693 
L 633.175519 -266.259965 
L 630.77398 -266.91341 
L 628.372441 -267.575621 
L 625.970902 -268.238171 
L 623.569363 -268.913112 
L 621.167824 -269.608169 
L 618.766285 -270.288941 
L 616.364745 -270.963912 
L 613.963206 -271.655498 
L 611.561667 -272.36158 
L 609.160128 -273.083033 
L 606.758589 -273.813855 
L 604.35705 -274.537291 
L 601.955511 -275.2469 
L 599.553972 -275.945003 
L 597.152433 -276.652279 
L 594.750894 -277.371209 
L 592.349355 -278.077385 
L 589.947816 -278.785884 
L 587.546277 -279.499551 
L 585.144737 -280.216042 
L 582.743198 -280.934227 
L 580.341659 -281.656836 
L 577.94012 -282.393117 
L 575.538581 -283.14509 
L 573.137042 -283.899954 
L 570.735503 -284.668343 
L 568.333964 -285.445019 
L 565.932425 -286.231586 
L 563.530886 -287.00781 
L 561.129347 -287.776477 
L 558.727808 -288.552834 
L 556.326268 -289.373376 
L 553.924729 -290.226687 
L 551.52319 -291.105975 
L 549.121651 -291.988622 
L 546.720112 -292.86908 
L 544.318573 -293.792855 
L 541.917034 -294.712167 
L 539.515495 -295.639135 
L 537.113956 -296.580464 
L 534.712417 -297.370192 
L 532.310878 -298.006016 
L 529.909339 -298.641386 
L 527.5078 -299.291686 
L 525.10626 -299.940463 
L 522.704721 -300.599535 
L 520.303182 -301.274823 
L 517.901643 -301.955101 
L 515.500104 -302.632168 
L 513.098565 -303.30282 
L 510.697026 -303.973884 
L 508.295487 -304.690113 
L 505.893948 -305.608018 
L 503.492409 -306.622109 
L 501.09087 -307.665623 
L 498.689331 -308.730839 
L 496.287792 -309.581183 
L 493.886252 -310.126998 
L 491.484713 -310.646669 
L 489.083174 -311.166013 
L 486.681635 -311.621362 
L 484.280096 -312.055133 
L 481.878557 -312.498411 
L 479.477018 -312.967192 
L 477.075479 -313.547718 
L 474.67394 -314.260609 
L 472.272401 -315.010995 
L 469.870862 -315.850664 
L 467.469323 -316.862097 
L 465.067784 -317.960633 
L 462.666244 -319.115831 
L 460.264705 -320.312501 
L 457.863166 -321.603453 
L 455.461627 -322.962819 
L 453.060088 -324.349152 
L 450.658549 -325.764644 
L 448.25701 -327.230972 
L 445.855471 -328.701386 
L 443.453932 -330.20796 
L 441.052393 -331.707683 
L 438.650854 -333.184127 
L 436.249315 -334.380891 
L 433.847776 -335.609654 
L 431.446236 -336.859381 
L 429.044697 -338.057038 
L 426.643158 -339.235269 
L 424.241619 -340.402491 
L 421.84008 -341.558836 
L 419.438541 -342.703712 
L 417.037002 -343.824507 
L 414.635463 -344.934496 
L 412.233924 -346.041109 
L 409.832385 -347.144382 
L 407.430846 -348.219477 
L 405.029307 -349.26183 
L 402.627768 -350.300836 
L 400.226228 -351.298468 
L 397.824689 -352.267541 
L 395.42315 -353.229788 
L 393.021611 -354.219175 
L 390.620072 -355.221369 
L 388.218533 -356.219305 
L 385.816994 -357.183904 
L 383.415455 -358.126251 
L 381.013916 -359.10698 
L 378.612377 -360.117988 
L 376.210838 -361.165618 
L 373.809299 -362.221369 
L 371.407759 -363.285959 
L 369.00622 -364.339346 
L 366.604681 -365.405653 
L 364.203142 -366.482069 
L 361.801603 -367.568206 
L 359.400064 -368.676888 
L 356.998525 -369.848848 
L 354.596986 -371.034191 
L 352.195447 -372.232464 
L 349.793908 -373.444028 
L 347.392369 -374.645553 
L 344.99083 -375.812051 
L 342.589291 -376.966923 
L 340.187751 -378.094621 
L 337.786212 -379.247698 
L 335.384673 -380.434372 
L 332.983134 -381.611544 
L 330.581595 -382.808348 
L 328.180056 -383.978247 
L 325.778517 -385.161936 
L 323.376978 -386.325015 
L 320.975439 -387.50891 
L 318.5739 -388.731305 
L 316.172361 -389.948618 
L 313.770822 -391.159766 
L 311.369283 -392.393408 
L 308.967743 -393.604886 
L 306.566204 -395.033799 
L 304.164665 -396.613658 
L 301.763126 -398.332483 
L 299.361587 -400.113731 
L 296.960048 -401.893686 
L 294.558509 -403.63233 
L 292.15697 -405.344363 
L 289.755431 -407.038709 
L 287.353892 -408.499592 
L 284.952353 -409.623519 
L 282.550814 -410.748257 
L 280.149275 -411.88303 
L 277.747735 -413.011377 
L 275.346196 -414.106457 
L 272.944657 -415.156861 
L 270.543118 -416.199608 
L 268.141579 -417.214351 
L 265.74004 -418.223706 
L 263.338501 -419.202261 
L 260.936962 -420.151306 
L 258.535423 -421.071089 
L 256.133884 -421.968024 
L 253.732345 -422.858019 
L 251.330806 -423.718996 
L 248.929267 -424.585016 
L 246.527727 -425.439068 
L 244.126188 -426.315299 
L 241.724649 -427.182994 
L 239.32311 -428.076031 
L 236.921571 -428.987933 
L 234.520032 -429.878484 
L 232.118493 -430.93509 
L 229.716954 -432.04081 
L 227.315415 -433.135651 
L 224.913876 -434.192994 
L 222.512337 -435.26352 
L 220.110798 -436.324052 
L 217.709259 -437.349981 
L 215.307719 -438.378372 
L 212.90618 -439.362055 
L 210.504641 -440.323032 
L 208.103102 -441.18048 
L 205.701563 -442.012321 
L 203.300024 -442.85877 
L 200.898485 -443.693894 
L 198.496946 -444.532619 
L 196.095407 -445.40766 
L 193.693868 -446.255849 
L 191.292329 -447.100977 
L 188.89079 -447.914681 
L 186.48925 -448.713745 
L 184.087711 -449.494902 
L 181.686172 -450.207513 
L 179.284633 -450.897079 
L 176.883094 -451.574285 
L 174.481555 -452.210196 
L 172.080016 -452.843623 
L 169.678477 -453.468561 
L 167.276938 -454.073089 
z
" style="stroke: #f47100; stroke-opacity: 0.2"/>
    </defs>
    <g clip-path="url(#p3458b6d5d7)">
     <use xlink:href="#mceabb0d66c" x="0" y="600" style="fill: #f47100; fill-opacity: 0.2; stroke: #f47100; stroke-opacity: 0.2"/>
    </g>
   </g>
   <g id="PolyCollection_4">
    <defs>
     <path id="m867609f12f" d="M 116.844617 -467.221306 
L 116.844617 -460.206573 
L 119.246156 -460.089293 
L 121.647695 -459.978721 
L 124.049234 -459.87812 
L 126.450774 -459.750007 
L 128.852313 -459.586108 
L 131.253852 -459.455671 
L 133.655391 -459.320767 
L 136.05693 -459.15391 
L 138.458469 -458.995243 
L 140.860008 -458.825651 
L 143.261547 -458.504242 
L 145.663086 -458.177847 
L 148.064625 -457.828804 
L 150.466164 -457.466486 
L 152.867703 -457.074907 
L 155.269242 -456.648475 
L 157.670782 -456.208213 
L 160.072321 -455.729962 
L 162.47386 -455.207042 
L 164.875399 -454.648 
L 164.875399 -454.648 
L 164.875399 -454.648 
L 162.47386 -455.576309 
L 160.072321 -456.503446 
L 157.670782 -457.395771 
L 155.269242 -458.266145 
L 152.867703 -459.121579 
L 150.466164 -459.951576 
L 148.064625 -460.773055 
L 145.663086 -461.583344 
L 143.261547 -462.380387 
L 140.860008 -463.159989 
L 138.458469 -463.57537 
L 136.05693 -464.008016 
L 133.655391 -464.43534 
L 131.253852 -464.847362 
L 128.852313 -465.255632 
L 126.450774 -465.659016 
L 124.049234 -466.051083 
L 121.647695 -466.432747 
L 119.246156 -466.831136 
L 116.844617 -467.221306 
z
" style="stroke: #000000; stroke-opacity: 0.2"/>
    </defs>
    <g clip-path="url(#p3458b6d5d7)">
     <use xlink:href="#m867609f12f" x="0" y="600" style="fill-opacity: 0.2; stroke: #000000; stroke-opacity: 0.2"/>
    </g>
   </g>
   <g id="PolyCollection_5">
    <defs>
     <path id="mff912241da" d="M 167.276938 -453.956993 
L 167.276938 -453.663658 
L 169.678477 -452.635495 
L 172.080016 -451.559896 
L 174.481555 -450.432687 
L 176.883094 -449.233332 
L 179.284633 -447.991296 
L 181.686172 -446.689556 
L 184.087711 -445.358857 
L 186.48925 -443.972226 
L 188.89079 -442.527841 
L 191.292329 -441.040715 
L 193.693868 -439.501203 
L 196.095407 -437.922708 
L 198.496946 -436.322773 
L 200.898485 -434.643868 
L 203.300024 -432.925 
L 205.701563 -431.168067 
L 208.103102 -429.348015 
L 210.504641 -427.483393 
L 212.90618 -425.569377 
L 215.307719 -423.609545 
L 217.709259 -421.612791 
L 220.110798 -419.544349 
L 222.512337 -417.480687 
L 224.913876 -415.408521 
L 227.315415 -413.283903 
L 229.716954 -411.141904 
L 232.118493 -408.980859 
L 234.520032 -406.806283 
L 236.921571 -404.577562 
L 239.32311 -402.243236 
L 241.724649 -399.875685 
L 244.126188 -397.46504 
L 246.527727 -395.008826 
L 248.929267 -392.572487 
L 251.330806 -390.162606 
L 253.732345 -387.748157 
L 256.133884 -385.346276 
L 258.535423 -382.919775 
L 260.936962 -380.4836 
L 263.338501 -378.04864 
L 265.74004 -375.579527 
L 268.141579 -373.12385 
L 270.543118 -370.631102 
L 272.944657 -368.08753 
L 275.346196 -365.545596 
L 277.747735 -362.97054 
L 280.149275 -360.370073 
L 282.550814 -357.741792 
L 284.952353 -355.099499 
L 287.353892 -352.492008 
L 289.755431 -349.893788 
L 292.15697 -347.316675 
L 294.558509 -344.731018 
L 296.960048 -342.116357 
L 299.361587 -339.483973 
L 301.763126 -336.859375 
L 304.164665 -334.237672 
L 306.566204 -331.633313 
L 308.967743 -329.038893 
L 311.369283 -326.440053 
L 313.770822 -323.894329 
L 316.172361 -321.369401 
L 318.5739 -318.839363 
L 320.975439 -316.345172 
L 323.376978 -313.850563 
L 325.778517 -311.379446 
L 328.180056 -308.9073 
L 330.581595 -306.448704 
L 332.983134 -304.012816 
L 335.384673 -301.584751 
L 337.786212 -299.171404 
L 340.187751 -296.762639 
L 342.589291 -294.372412 
L 344.99083 -291.997657 
L 347.392369 -289.610166 
L 349.793908 -287.212244 
L 352.195447 -284.824127 
L 354.596986 -282.470809 
L 356.998525 -280.133625 
L 359.400064 -277.832224 
L 361.801603 -275.539083 
L 364.203142 -273.271164 
L 366.604681 -271.039928 
L 369.00622 -268.84808 
L 371.407759 -266.707225 
L 373.809299 -264.615099 
L 376.210838 -262.549944 
L 378.612377 -260.518542 
L 381.013916 -258.508575 
L 383.415455 -256.517196 
L 385.816994 -254.557666 
L 388.218533 -252.625753 
L 390.620072 -250.720723 
L 393.021611 -248.8466 
L 395.42315 -247.007508 
L 397.824689 -245.19583 
L 400.226228 -243.425954 
L 402.627768 -241.662096 
L 405.029307 -239.904425 
L 407.430846 -238.156924 
L 409.832385 -236.414779 
L 412.233924 -234.686245 
L 414.635463 -232.983633 
L 417.037002 -231.290841 
L 419.438541 -229.577756 
L 421.84008 -227.863995 
L 424.241619 -226.188422 
L 426.643158 -224.500981 
L 429.044697 -222.820853 
L 431.446236 -221.142989 
L 433.847776 -219.758808 
L 436.249315 -218.410648 
L 438.650854 -217.086436 
L 441.052393 -215.780436 
L 443.453932 -214.48488 
L 445.855471 -213.203667 
L 448.25701 -211.916488 
L 450.658549 -210.633285 
L 453.060088 -209.376296 
L 455.461627 -208.133477 
L 457.863166 -206.913978 
L 460.264705 -205.696971 
L 462.666244 -204.496666 
L 465.067784 -203.309996 
L 467.469323 -202.138555 
L 469.870862 -200.97693 
L 472.272401 -199.823227 
L 474.67394 -198.693919 
L 477.075479 -197.588692 
L 479.477018 -196.522155 
L 481.878557 -195.079954 
L 484.280096 -193.605058 
L 486.681635 -192.124545 
L 489.083174 -190.669307 
L 491.484713 -189.227045 
L 493.886252 -187.798749 
L 496.287792 -186.40418 
L 498.689331 -185.150661 
L 501.09087 -184.032225 
L 503.492409 -182.937241 
L 505.893948 -181.858918 
L 508.295487 -180.794163 
L 510.697026 -179.723689 
L 513.098565 -178.655375 
L 515.500104 -177.629321 
L 517.901643 -176.714957 
L 520.303182 -175.798402 
L 522.704721 -174.868834 
L 525.10626 -173.940917 
L 527.5078 -173.01165 
L 529.909339 -172.084679 
L 532.310878 -171.163703 
L 534.712417 -170.255473 
L 537.113956 -169.356667 
L 539.515495 -168.467202 
L 541.917034 -167.581146 
L 544.318573 -166.702379 
L 546.720112 -165.814401 
L 549.121651 -164.924704 
L 551.52319 -164.046186 
L 553.924729 -163.217841 
L 556.326268 -162.70272 
L 558.727808 -162.20601 
L 561.129347 -161.710466 
L 563.530886 -161.202539 
L 565.932425 -160.682159 
L 568.333964 -160.162956 
L 570.735503 -159.660007 
L 573.137042 -159.150951 
L 575.538581 -158.642715 
L 577.94012 -158.129104 
L 580.341659 -157.607771 
L 582.743198 -157.073943 
L 585.144737 -156.538147 
L 587.546277 -156.050821 
L 589.947816 -155.567336 
L 592.349355 -155.084572 
L 594.750894 -154.60287 
L 597.152433 -154.128232 
L 599.553972 -153.650002 
L 601.955511 -153.169819 
L 604.35705 -152.691939 
L 606.758589 -152.193297 
L 609.160128 -151.695028 
L 611.561667 -151.210617 
L 613.963206 -150.721448 
L 616.364745 -150.237198 
L 618.766285 -149.751629 
L 621.167824 -149.275198 
L 623.569363 -148.799806 
L 625.970902 -148.328549 
L 628.372441 -147.865843 
L 630.77398 -147.425399 
L 633.175519 -146.99343 
L 635.577058 -146.571924 
L 637.978597 -146.162599 
L 640.380136 -145.760838 
L 642.781675 -145.366356 
L 645.183214 -144.978646 
L 647.584753 -144.598571 
L 649.986293 -144.213218 
L 652.387832 -143.834317 
L 654.789371 -143.488029 
L 657.19091 -143.15259 
L 659.592449 -142.806224 
L 661.993988 -142.472696 
L 664.395527 -142.147722 
L 666.797066 -141.832234 
L 669.198605 -141.531836 
L 671.600144 -141.248373 
L 674.001683 -140.97618 
L 676.403222 -140.704108 
L 678.804761 -140.03129 
L 681.206301 -139.390512 
L 683.60784 -138.781577 
L 686.009379 -138.203631 
L 688.410918 -137.648876 
L 690.812457 -137.111322 
L 693.213996 -136.585478 
L 695.615535 -136.067126 
L 698.017074 -135.565303 
L 700.418613 -135.081677 
L 702.820152 -134.600835 
L 705.221691 -134.133208 
L 707.62323 -133.680438 
L 710.024769 -133.235541 
L 712.426309 -132.794986 
L 714.827848 -132.362791 
L 717.229387 -131.941522 
L 719.630926 -131.522009 
L 722.032465 -131.112738 
L 724.434004 -130.709618 
L 726.835543 -130.311966 
L 729.237082 -129.922147 
L 731.638621 -129.540421 
L 734.04016 -129.15001 
L 736.441699 -128.7683 
L 738.843238 -128.394566 
L 741.244777 -128.029098 
L 743.646317 -127.666682 
L 746.047856 -127.309155 
L 748.449395 -126.952552 
L 750.850934 -126.595036 
L 753.252473 -126.24539 
L 755.654012 -125.890047 
L 758.055551 -125.541746 
L 760.45709 -125.205371 
L 762.858629 -124.868747 
L 765.260168 -124.532564 
L 767.661707 -124.197437 
L 770.063246 -123.853403 
L 772.464786 -123.506461 
L 774.866325 -123.163717 
L 777.267864 -122.81484 
L 779.669403 -122.463583 
L 782.070942 -122.115069 
L 784.472481 -121.763465 
L 786.87402 -121.41468 
L 789.275559 -121.07182 
L 791.677098 -120.734936 
L 794.078637 -120.394279 
L 796.480176 -120.060455 
L 798.881715 -119.736021 
L 801.283254 -119.409866 
L 803.684794 -119.094972 
L 806.086333 -118.787016 
L 808.487872 -118.477397 
L 810.889411 -118.172371 
L 813.29095 -117.894556 
L 815.692489 -117.663291 
L 818.094028 -117.540706 
L 820.495567 -117.420773 
L 822.897106 -117.303294 
L 825.298645 -117.190191 
L 827.700184 -117.077656 
L 830.101723 -116.964785 
L 832.503262 -116.85121 
L 834.904802 -116.735124 
L 837.306341 -116.616785 
L 837.306341 -216.193402 
L 837.306341 -216.193402 
L 834.904802 -216.349516 
L 832.503262 -216.5343 
L 830.101723 -216.748827 
L 827.700184 -216.989911 
L 825.298645 -217.237502 
L 822.897106 -217.487238 
L 820.495567 -217.744178 
L 818.094028 -217.976348 
L 815.692489 -218.198495 
L 813.29095 -218.593259 
L 810.889411 -218.982225 
L 808.487872 -219.40036 
L 806.086333 -219.825166 
L 803.684794 -220.261903 
L 801.283254 -220.731499 
L 798.881715 -221.241557 
L 796.480176 -221.792949 
L 794.078637 -222.330156 
L 791.677098 -222.861535 
L 789.275559 -223.379724 
L 786.87402 -223.882746 
L 784.472481 -224.387789 
L 782.070942 -224.852694 
L 779.669403 -225.296499 
L 777.267864 -225.742069 
L 774.866325 -226.209332 
L 772.464786 -226.656693 
L 770.063246 -227.131293 
L 767.661707 -227.63925 
L 765.260168 -228.166576 
L 762.858629 -228.703061 
L 760.45709 -229.213918 
L 758.055551 -229.716619 
L 755.654012 -230.216994 
L 753.252473 -230.685366 
L 750.850934 -231.095524 
L 748.449395 -231.47494 
L 746.047856 -231.850442 
L 743.646317 -232.227731 
L 741.244777 -232.608542 
L 738.843238 -232.992035 
L 736.441699 -233.33178 
L 734.04016 -233.635907 
L 731.638621 -233.918677 
L 729.237082 -234.180577 
L 726.835543 -234.411643 
L 724.434004 -234.637301 
L 722.032465 -234.85114 
L 719.630926 -235.035212 
L 717.229387 -235.203149 
L 714.827848 -235.379356 
L 712.426309 -235.550801 
L 710.024769 -235.731851 
L 707.62323 -235.918849 
L 705.221691 -236.10374 
L 702.820152 -236.289094 
L 700.418613 -236.482286 
L 698.017074 -236.6947 
L 695.615535 -236.925941 
L 693.213996 -237.175515 
L 690.812457 -237.43771 
L 688.410918 -237.724842 
L 686.009379 -238.030625 
L 683.60784 -238.356623 
L 681.206301 -238.690155 
L 678.804761 -239.01891 
L 676.403222 -239.378201 
L 674.001683 -239.726969 
L 671.600144 -240.106154 
L 669.198605 -240.505378 
L 666.797066 -240.894994 
L 664.395527 -241.297065 
L 661.993988 -241.709321 
L 659.592449 -242.147443 
L 657.19091 -242.600561 
L 654.789371 -243.086204 
L 652.387832 -243.584554 
L 649.986293 -244.085043 
L 647.584753 -244.564713 
L 645.183214 -245.031348 
L 642.781675 -245.481646 
L 640.380136 -245.92677 
L 637.978597 -246.349556 
L 635.577058 -246.777246 
L 633.175519 -247.206511 
L 630.77398 -247.645664 
L 628.372441 -248.073573 
L 625.970902 -248.513063 
L 623.569363 -248.937401 
L 621.167824 -249.353329 
L 618.766285 -249.787662 
L 616.364745 -250.236086 
L 613.963206 -250.7159 
L 611.561667 -251.188426 
L 609.160128 -251.704068 
L 606.758589 -252.248468 
L 604.35705 -252.781931 
L 601.955511 -253.321219 
L 599.553972 -253.86655 
L 597.152433 -254.406836 
L 594.750894 -254.970642 
L 592.349355 -255.523356 
L 589.947816 -256.125717 
L 587.546277 -256.72822 
L 585.144737 -257.325795 
L 582.743198 -257.927769 
L 580.341659 -258.521503 
L 577.94012 -259.105047 
L 575.538581 -259.695991 
L 573.137042 -260.262808 
L 570.735503 -260.794858 
L 568.333964 -261.313689 
L 565.932425 -261.805471 
L 563.530886 -262.272613 
L 561.129347 -262.70733 
L 558.727808 -263.114447 
L 556.326268 -263.527721 
L 553.924729 -263.946564 
L 551.52319 -264.436702 
L 549.121651 -265.052811 
L 546.720112 -265.641907 
L 544.318573 -266.246463 
L 541.917034 -266.808303 
L 539.515495 -267.365675 
L 537.113956 -267.928054 
L 534.712417 -268.48571 
L 532.310878 -269.040761 
L 529.909339 -269.618911 
L 527.5078 -270.195322 
L 525.10626 -270.84884 
L 522.704721 -271.550233 
L 520.303182 -272.282879 
L 517.901643 -273.015974 
L 515.500104 -273.764546 
L 513.098565 -274.549806 
L 510.697026 -275.334624 
L 508.295487 -276.118862 
L 505.893948 -276.881499 
L 503.492409 -277.662929 
L 501.09087 -278.500844 
L 498.689331 -279.387478 
L 496.287792 -280.29346 
L 493.886252 -281.232042 
L 491.484713 -282.182788 
L 489.083174 -283.119389 
L 486.681635 -284.039413 
L 484.280096 -284.970373 
L 481.878557 -285.90857 
L 479.477018 -286.886555 
L 477.075479 -287.829409 
L 474.67394 -288.798698 
L 472.272401 -289.78445 
L 469.870862 -290.797283 
L 467.469323 -291.814293 
L 465.067784 -292.781603 
L 462.666244 -293.74083 
L 460.264705 -294.682885 
L 457.863166 -295.668131 
L 455.461627 -296.68723 
L 453.060088 -297.681762 
L 450.658549 -298.66219 
L 448.25701 -299.635814 
L 445.855471 -300.615632 
L 443.453932 -301.628912 
L 441.052393 -302.75412 
L 438.650854 -303.946963 
L 436.249315 -305.21376 
L 433.847776 -306.544579 
L 431.446236 -307.878669 
L 429.044697 -309.22121 
L 426.643158 -310.564977 
L 424.241619 -311.939231 
L 421.84008 -313.38524 
L 419.438541 -314.86064 
L 417.037002 -316.373997 
L 414.635463 -317.932069 
L 412.233924 -319.561321 
L 409.832385 -321.172727 
L 407.430846 -322.696847 
L 405.029307 -324.230509 
L 402.627768 -325.755235 
L 400.226228 -327.30479 
L 397.824689 -328.906779 
L 395.42315 -330.542905 
L 393.021611 -332.139981 
L 390.620072 -333.808115 
L 388.218533 -335.489783 
L 385.816994 -337.127163 
L 383.415455 -338.728766 
L 381.013916 -340.350895 
L 378.612377 -341.931845 
L 376.210838 -343.493795 
L 373.809299 -345.078553 
L 371.407759 -346.710194 
L 369.00622 -348.483801 
L 366.604681 -350.293248 
L 364.203142 -352.0668 
L 361.801603 -353.855155 
L 359.400064 -355.622621 
L 356.998525 -357.428164 
L 354.596986 -359.248459 
L 352.195447 -361.13391 
L 349.793908 -363.097843 
L 347.392369 -365.038361 
L 344.99083 -366.996734 
L 342.589291 -368.876773 
L 340.187751 -370.696665 
L 337.786212 -372.535359 
L 335.384673 -374.366272 
L 332.983134 -376.165941 
L 330.581595 -377.969834 
L 328.180056 -379.767188 
L 325.778517 -381.573553 
L 323.376978 -383.321505 
L 320.975439 -385.020591 
L 318.5739 -386.681343 
L 316.172361 -388.268791 
L 313.770822 -389.838454 
L 311.369283 -391.402658 
L 308.967743 -392.938492 
L 306.566204 -394.471587 
L 304.164665 -395.942508 
L 301.763126 -397.376488 
L 299.361587 -398.777491 
L 296.960048 -400.138126 
L 294.558509 -401.479063 
L 292.15697 -402.814714 
L 289.755431 -404.067532 
L 287.353892 -405.283672 
L 284.952353 -406.467575 
L 282.550814 -407.567794 
L 280.149275 -408.616946 
L 277.747735 -409.609144 
L 275.346196 -410.590181 
L 272.944657 -411.57971 
L 270.543118 -412.570127 
L 268.141579 -413.588321 
L 265.74004 -414.596962 
L 263.338501 -415.602092 
L 260.936962 -416.623922 
L 258.535423 -417.622653 
L 256.133884 -418.610891 
L 253.732345 -419.605559 
L 251.330806 -420.600523 
L 248.929267 -421.570837 
L 246.527727 -422.571335 
L 244.126188 -423.56596 
L 241.724649 -424.555084 
L 239.32311 -425.529633 
L 236.921571 -426.494041 
L 234.520032 -427.477958 
L 232.118493 -428.463557 
L 229.716954 -429.445947 
L 227.315415 -430.418278 
L 224.913876 -431.39374 
L 222.512337 -432.383015 
L 220.110798 -433.36676 
L 217.709259 -434.3989 
L 215.307719 -435.438924 
L 212.90618 -436.839964 
L 210.504641 -438.174215 
L 208.103102 -439.380683 
L 205.701563 -440.464837 
L 203.300024 -441.511433 
L 200.898485 -442.559646 
L 198.496946 -443.515828 
L 196.095407 -444.391606 
L 193.693868 -445.248843 
L 191.292329 -446.084393 
L 188.89079 -446.905663 
L 186.48925 -447.701922 
L 184.087711 -448.490045 
L 181.686172 -449.352302 
L 179.284633 -450.244676 
L 176.883094 -451.091809 
L 174.481555 -451.763476 
L 172.080016 -452.443903 
L 169.678477 -453.205255 
L 167.276938 -453.956993 
z
" style="stroke: #d01e04; stroke-opacity: 0.2"/>
    </defs>
    <g clip-path="url(#p3458b6d5d7)">
     <use xlink:href="#mff912241da" x="0" y="600" style="fill: #d01e04; fill-opacity: 0.2; stroke: #d01e04; stroke-opacity: 0.2"/>
    </g>
   </g>
   <g id="PolyCollection_6">
    <defs>
     <path id="m6229f273d0" d="M 116.844617 -466.92541 
L 116.844617 -460.857384 
L 119.246156 -460.7399 
L 121.647695 -460.629137 
L 124.049234 -460.528362 
L 126.450774 -460.400028 
L 128.852313 -460.235844 
L 131.253852 -460.105181 
L 133.655391 -459.970044 
L 136.05693 -459.802898 
L 138.458469 -459.643956 
L 140.860008 -459.47407 
L 143.261547 -459.152104 
L 145.663086 -458.794562 
L 148.064625 -458.415717 
L 150.466164 -457.993011 
L 152.867703 -457.544842 
L 155.269242 -457.034925 
L 157.670782 -456.500549 
L 160.072321 -455.91338 
L 162.47386 -455.288283 
L 164.875399 -454.648 
L 164.875399 -454.648 
L 164.875399 -454.648 
L 162.47386 -455.598513 
L 160.072321 -456.474179 
L 157.670782 -457.334187 
L 155.269242 -458.219439 
L 152.867703 -459.097711 
L 150.466164 -459.955638 
L 148.064625 -460.811656 
L 145.663086 -461.621257 
L 143.261547 -462.418658 
L 140.860008 -463.192303 
L 138.458469 -463.591666 
L 136.05693 -463.99384 
L 133.655391 -464.411809 
L 131.253852 -464.806805 
L 128.852313 -465.190355 
L 126.450774 -465.573039 
L 124.049234 -465.935734 
L 121.647695 -466.296026 
L 119.246156 -466.629012 
L 116.844617 -466.92541 
z
" style="stroke: #000000; stroke-opacity: 0.2"/>
    </defs>
    <g clip-path="url(#p3458b6d5d7)">
     <use xlink:href="#m6229f273d0" x="0" y="600" style="fill-opacity: 0.2; stroke: #000000; stroke-opacity: 0.2"/>
    </g>
   </g>
   <g id="matplotlib.axis_1">
    <g id="xtick_1">
     <g id="line2d_1">
      <defs>
       <path id="m5bcd849148" d="M 0 0 
L 0 3.5 
" style="stroke: #000000; stroke-width: 0.8"/>
      </defs>
      <g>
       <use xlink:href="#m5bcd849148" x="164.875399" y="515.56" style="stroke: #000000; stroke-width: 0.8"/>
      </g>
     </g>
     <g id="text_1">
      <!-- 2020 -->
      <g transform="translate(131.790399 542.315938)scale(0.26 -0.26)">
       <defs>
        <path id="DejaVuSans-32" d="M 1228 531 
L 3431 531 
L 3431 0 
L 469 0 
L 469 531 
Q 828 903 1448 1529 
Q 2069 2156 2228 2338 
Q 2531 2678 2651 2914 
Q 2772 3150 2772 3378 
Q 2772 3750 2511 3984 
Q 2250 4219 1831 4219 
Q 1534 4219 1204 4116 
Q 875 4013 500 3803 
L 500 4441 
Q 881 4594 1212 4672 
Q 1544 4750 1819 4750 
Q 2544 4750 2975 4387 
Q 3406 4025 3406 3419 
Q 3406 3131 3298 2873 
Q 3191 2616 2906 2266 
Q 2828 2175 2409 1742 
Q 1991 1309 1228 531 
z
" transform="scale(0.015625)"/>
        <path id="DejaVuSans-30" d="M 2034 4250 
Q 1547 4250 1301 3770 
Q 1056 3291 1056 2328 
Q 1056 1369 1301 889 
Q 1547 409 2034 409 
Q 2525 409 2770 889 
Q 3016 1369 3016 2328 
Q 3016 3291 2770 3770 
Q 2525 4250 2034 4250 
z
M 2034 4750 
Q 2819 4750 3233 4129 
Q 3647 3509 3647 2328 
Q 3647 1150 3233 529 
Q 2819 -91 2034 -91 
Q 1250 -91 836 529 
Q 422 1150 422 2328 
Q 422 3509 836 4129 
Q 1250 4750 2034 4750 
z
" transform="scale(0.015625)"/>
       </defs>
       <use xlink:href="#DejaVuSans-32"/>
       <use xlink:href="#DejaVuSans-30" x="63.623047"/>
       <use xlink:href="#DejaVuSans-32" x="127.246094"/>
       <use xlink:href="#DejaVuSans-30" x="190.869141"/>
      </g>
     </g>
    </g>
    <g id="xtick_2">
     <g id="line2d_2">
      <g>
       <use xlink:href="#m5bcd849148" x="356.998525" y="515.56" style="stroke: #000000; stroke-width: 0.8"/>
      </g>
     </g>
     <g id="text_2">
      <!-- 2100 -->
      <g transform="translate(323.913525 542.315938)scale(0.26 -0.26)">
       <defs>
        <path id="DejaVuSans-31" d="M 794 531 
L 1825 531 
L 1825 4091 
L 703 3866 
L 703 4441 
L 1819 4666 
L 2450 4666 
L 2450 531 
L 3481 531 
L 3481 0 
L 794 0 
L 794 531 
z
" transform="scale(0.015625)"/>
       </defs>
       <use xlink:href="#DejaVuSans-32"/>
       <use xlink:href="#DejaVuSans-31" x="63.623047"/>
       <use xlink:href="#DejaVuSans-30" x="127.246094"/>
       <use xlink:href="#DejaVuSans-30" x="190.869141"/>
      </g>
     </g>
    </g>
    <g id="xtick_3">
     <g id="line2d_3">
      <g>
       <use xlink:href="#m5bcd849148" x="597.152433" y="515.56" style="stroke: #000000; stroke-width: 0.8"/>
      </g>
     </g>
     <g id="text_3">
      <!-- 2200 -->
      <g transform="translate(564.067433 542.315938)scale(0.26 -0.26)">
       <use xlink:href="#DejaVuSans-32"/>
       <use xlink:href="#DejaVuSans-32" x="63.623047"/>
       <use xlink:href="#DejaVuSans-30" x="127.246094"/>
       <use xlink:href="#DejaVuSans-30" x="190.869141"/>
      </g>
     </g>
    </g>
    <g id="xtick_4">
     <g id="line2d_4">
      <g>
       <use xlink:href="#m5bcd849148" x="837.306341" y="515.56" style="stroke: #000000; stroke-width: 0.8"/>
      </g>
     </g>
     <g id="text_4">
      <!-- 2300 -->
      <g transform="translate(804.221341 542.315938)scale(0.26 -0.26)">
       <defs>
        <path id="DejaVuSans-33" d="M 2597 2516 
Q 3050 2419 3304 2112 
Q 3559 1806 3559 1356 
Q 3559 666 3084 287 
Q 2609 -91 1734 -91 
Q 1441 -91 1130 -33 
Q 819 25 488 141 
L 488 750 
Q 750 597 1062 519 
Q 1375 441 1716 441 
Q 2309 441 2620 675 
Q 2931 909 2931 1356 
Q 2931 1769 2642 2001 
Q 2353 2234 1838 2234 
L 1294 2234 
L 1294 2753 
L 1863 2753 
Q 2328 2753 2575 2939 
Q 2822 3125 2822 3475 
Q 2822 3834 2567 4026 
Q 2313 4219 1838 4219 
Q 1578 4219 1281 4162 
Q 984 4106 628 3988 
L 628 4550 
Q 988 4650 1302 4700 
Q 1616 4750 1894 4750 
Q 2613 4750 3031 4423 
Q 3450 4097 3450 3541 
Q 3450 3153 3228 2886 
Q 3006 2619 2597 2516 
z
" transform="scale(0.015625)"/>
       </defs>
       <use xlink:href="#DejaVuSans-32"/>
       <use xlink:href="#DejaVuSans-33" x="63.623047"/>
       <use xlink:href="#DejaVuSans-30" x="127.246094"/>
       <use xlink:href="#DejaVuSans-30" x="190.869141"/>
      </g>
     </g>
    </g>
    <g id="text_5">
     <!-- Year -->
     <g transform="translate(457.010409 568.439687)scale(0.22 -0.22)">
      <defs>
       <path id="DejaVuSans-Bold-59" d="M -63 4666 
L 1253 4666 
L 2316 3003 
L 3378 4666 
L 4697 4666 
L 2919 1966 
L 2919 0 
L 1716 0 
L 1716 1966 
L -63 4666 
z
" transform="scale(0.015625)"/>
       <path id="DejaVuSans-Bold-65" d="M 4031 1759 
L 4031 1441 
L 1416 1441 
Q 1456 1047 1700 850 
Q 1944 653 2381 653 
Q 2734 653 3104 758 
Q 3475 863 3866 1075 
L 3866 213 
Q 3469 63 3072 -14 
Q 2675 -91 2278 -91 
Q 1328 -91 801 392 
Q 275 875 275 1747 
Q 275 2603 792 3093 
Q 1309 3584 2216 3584 
Q 3041 3584 3536 3087 
Q 4031 2591 4031 1759 
z
M 2881 2131 
Q 2881 2450 2695 2645 
Q 2509 2841 2209 2841 
Q 1884 2841 1681 2658 
Q 1478 2475 1428 2131 
L 2881 2131 
z
" transform="scale(0.015625)"/>
       <path id="DejaVuSans-Bold-61" d="M 2106 1575 
Q 1756 1575 1579 1456 
Q 1403 1338 1403 1106 
Q 1403 894 1545 773 
Q 1688 653 1941 653 
Q 2256 653 2472 879 
Q 2688 1106 2688 1447 
L 2688 1575 
L 2106 1575 
z
M 3816 1997 
L 3816 0 
L 2688 0 
L 2688 519 
Q 2463 200 2181 54 
Q 1900 -91 1497 -91 
Q 953 -91 614 226 
Q 275 544 275 1050 
Q 275 1666 698 1953 
Q 1122 2241 2028 2241 
L 2688 2241 
L 2688 2328 
Q 2688 2594 2478 2717 
Q 2269 2841 1825 2841 
Q 1466 2841 1156 2769 
Q 847 2697 581 2553 
L 581 3406 
Q 941 3494 1303 3539 
Q 1666 3584 2028 3584 
Q 2975 3584 3395 3211 
Q 3816 2838 3816 1997 
z
" transform="scale(0.015625)"/>
       <path id="DejaVuSans-Bold-72" d="M 3138 2547 
Q 2991 2616 2845 2648 
Q 2700 2681 2553 2681 
Q 2122 2681 1889 2404 
Q 1656 2128 1656 1613 
L 1656 0 
L 538 0 
L 538 3500 
L 1656 3500 
L 1656 2925 
Q 1872 3269 2151 3426 
Q 2431 3584 2822 3584 
Q 2878 3584 2943 3579 
Q 3009 3575 3134 3559 
L 3138 2547 
z
" transform="scale(0.015625)"/>
      </defs>
      <use xlink:href="#DejaVuSans-Bold-59"/>
      <use xlink:href="#DejaVuSans-Bold-65" x="63.287109"/>
      <use xlink:href="#DejaVuSans-Bold-61" x="131.109375"/>
      <use xlink:href="#DejaVuSans-Bold-72" x="198.589844"/>
     </g>
    </g>
   </g>
   <g id="matplotlib.axis_2">
    <g id="ytick_1">
     <g id="line2d_5">
      <defs>
       <path id="mec99124faf" d="M 0 0 
L -3.5 0 
" style="stroke: #000000; stroke-width: 0.8"/>
      </defs>
      <g>
       <use xlink:href="#mec99124faf" x="109.64" y="515.56" style="stroke: #000000; stroke-width: 0.8"/>
      </g>
     </g>
     <g id="text_6">
      <!-- 0 -->
      <g transform="translate(86.0975 525.437969)scale(0.26 -0.26)">
       <use xlink:href="#DejaVuSans-30"/>
      </g>
     </g>
    </g>
    <g id="ytick_2">
     <g id="line2d_6">
      <g>
       <use xlink:href="#mec99124faf" x="109.64" y="441.5184" style="stroke: #000000; stroke-width: 0.8"/>
      </g>
     </g>
     <g id="text_7">
      <!-- 20 -->
      <g transform="translate(69.555 451.396369)scale(0.26 -0.26)">
       <use xlink:href="#DejaVuSans-32"/>
       <use xlink:href="#DejaVuSans-30" x="63.623047"/>
      </g>
     </g>
    </g>
    <g id="ytick_3">
     <g id="line2d_7">
      <g>
       <use xlink:href="#mec99124faf" x="109.64" y="367.4768" style="stroke: #000000; stroke-width: 0.8"/>
      </g>
     </g>
     <g id="text_8">
      <!-- 40 -->
      <g transform="translate(69.555 377.354769)scale(0.26 -0.26)">
       <defs>
        <path id="DejaVuSans-34" d="M 2419 4116 
L 825 1625 
L 2419 1625 
L 2419 4116 
z
M 2253 4666 
L 3047 4666 
L 3047 1625 
L 3713 1625 
L 3713 1100 
L 3047 1100 
L 3047 0 
L 2419 0 
L 2419 1100 
L 313 1100 
L 313 1709 
L 2253 4666 
z
" transform="scale(0.015625)"/>
       </defs>
       <use xlink:href="#DejaVuSans-34"/>
       <use xlink:href="#DejaVuSans-30" x="63.623047"/>
      </g>
     </g>
    </g>
    <g id="ytick_4">
     <g id="line2d_8">
      <g>
       <use xlink:href="#mec99124faf" x="109.64" y="293.4352" style="stroke: #000000; stroke-width: 0.8"/>
      </g>
     </g>
     <g id="text_9">
      <!-- 60 -->
      <g transform="translate(69.555 303.313169)scale(0.26 -0.26)">
       <defs>
        <path id="DejaVuSans-36" d="M 2113 2584 
Q 1688 2584 1439 2293 
Q 1191 2003 1191 1497 
Q 1191 994 1439 701 
Q 1688 409 2113 409 
Q 2538 409 2786 701 
Q 3034 994 3034 1497 
Q 3034 2003 2786 2293 
Q 2538 2584 2113 2584 
z
M 3366 4563 
L 3366 3988 
Q 3128 4100 2886 4159 
Q 2644 4219 2406 4219 
Q 1781 4219 1451 3797 
Q 1122 3375 1075 2522 
Q 1259 2794 1537 2939 
Q 1816 3084 2150 3084 
Q 2853 3084 3261 2657 
Q 3669 2231 3669 1497 
Q 3669 778 3244 343 
Q 2819 -91 2113 -91 
Q 1303 -91 875 529 
Q 447 1150 447 2328 
Q 447 3434 972 4092 
Q 1497 4750 2381 4750 
Q 2619 4750 2861 4703 
Q 3103 4656 3366 4563 
z
" transform="scale(0.015625)"/>
       </defs>
       <use xlink:href="#DejaVuSans-36"/>
       <use xlink:href="#DejaVuSans-30" x="63.623047"/>
      </g>
     </g>
    </g>
    <g id="ytick_5">
     <g id="line2d_9">
      <g>
       <use xlink:href="#mec99124faf" x="109.64" y="219.3936" style="stroke: #000000; stroke-width: 0.8"/>
      </g>
     </g>
     <g id="text_10">
      <!-- 80 -->
      <g transform="translate(69.555 229.271569)scale(0.26 -0.26)">
       <defs>
        <path id="DejaVuSans-38" d="M 2034 2216 
Q 1584 2216 1326 1975 
Q 1069 1734 1069 1313 
Q 1069 891 1326 650 
Q 1584 409 2034 409 
Q 2484 409 2743 651 
Q 3003 894 3003 1313 
Q 3003 1734 2745 1975 
Q 2488 2216 2034 2216 
z
M 1403 2484 
Q 997 2584 770 2862 
Q 544 3141 544 3541 
Q 544 4100 942 4425 
Q 1341 4750 2034 4750 
Q 2731 4750 3128 4425 
Q 3525 4100 3525 3541 
Q 3525 3141 3298 2862 
Q 3072 2584 2669 2484 
Q 3125 2378 3379 2068 
Q 3634 1759 3634 1313 
Q 3634 634 3220 271 
Q 2806 -91 2034 -91 
Q 1263 -91 848 271 
Q 434 634 434 1313 
Q 434 1759 690 2068 
Q 947 2378 1403 2484 
z
M 1172 3481 
Q 1172 3119 1398 2916 
Q 1625 2713 2034 2713 
Q 2441 2713 2670 2916 
Q 2900 3119 2900 3481 
Q 2900 3844 2670 4047 
Q 2441 4250 2034 4250 
Q 1625 4250 1398 4047 
Q 1172 3844 1172 3481 
z
" transform="scale(0.015625)"/>
       </defs>
       <use xlink:href="#DejaVuSans-38"/>
       <use xlink:href="#DejaVuSans-30" x="63.623047"/>
      </g>
     </g>
    </g>
    <g id="ytick_6">
     <g id="line2d_10">
      <g>
       <use xlink:href="#mec99124faf" x="109.64" y="145.352" style="stroke: #000000; stroke-width: 0.8"/>
      </g>
     </g>
     <g id="text_11">
      <!-- 100 -->
      <g transform="translate(53.0125 155.229969)scale(0.26 -0.26)">
       <use xlink:href="#DejaVuSans-31"/>
       <use xlink:href="#DejaVuSans-30" x="63.623047"/>
       <use xlink:href="#DejaVuSans-30" x="127.246094"/>
      </g>
     </g>
    </g>
    <g id="ytick_7">
     <g id="line2d_11">
      <g>
       <use xlink:href="#mec99124faf" x="109.64" y="71.3104" style="stroke: #000000; stroke-width: 0.8"/>
      </g>
     </g>
     <g id="text_12">
      <!-- 120 -->
      <g transform="translate(53.0125 81.188369)scale(0.26 -0.26)">
       <use xlink:href="#DejaVuSans-31"/>
       <use xlink:href="#DejaVuSans-32" x="63.623047"/>
       <use xlink:href="#DejaVuSans-30" x="127.246094"/>
      </g>
     </g>
    </g>
    <g id="text_13">
     <!-- % of Remaining Glacier Mass -->
     <g transform="translate(44.265313 463.619219)rotate(-90)scale(0.22 -0.22)">
      <defs>
       <path id="DejaVuSans-Bold-25" d="M 4959 1925 
Q 4738 1925 4616 1733 
Q 4494 1541 4494 1184 
Q 4494 825 4614 633 
Q 4734 441 4959 441 
Q 5184 441 5303 633 
Q 5422 825 5422 1184 
Q 5422 1541 5301 1733 
Q 5181 1925 4959 1925 
z
M 4959 2450 
Q 5541 2450 5875 2112 
Q 6209 1775 6209 1184 
Q 6209 594 5875 251 
Q 5541 -91 4959 -91 
Q 4378 -91 4042 251 
Q 3706 594 3706 1184 
Q 3706 1772 4042 2111 
Q 4378 2450 4959 2450 
z
M 2094 -91 
L 1403 -91 
L 4319 4750 
L 5013 4750 
L 2094 -91 
z
M 1453 4750 
Q 2034 4750 2367 4411 
Q 2700 4072 2700 3481 
Q 2700 2891 2367 2550 
Q 2034 2209 1453 2209 
Q 872 2209 539 2550 
Q 206 2891 206 3481 
Q 206 4072 539 4411 
Q 872 4750 1453 4750 
z
M 1453 4225 
Q 1228 4225 1106 4031 
Q 984 3838 984 3481 
Q 984 3122 1106 2926 
Q 1228 2731 1453 2731 
Q 1678 2731 1798 2926 
Q 1919 3122 1919 3481 
Q 1919 3838 1797 4031 
Q 1675 4225 1453 4225 
z
" transform="scale(0.015625)"/>
       <path id="DejaVuSans-Bold-20" transform="scale(0.015625)"/>
       <path id="DejaVuSans-Bold-6f" d="M 2203 2784 
Q 1831 2784 1636 2517 
Q 1441 2250 1441 1747 
Q 1441 1244 1636 976 
Q 1831 709 2203 709 
Q 2569 709 2762 976 
Q 2956 1244 2956 1747 
Q 2956 2250 2762 2517 
Q 2569 2784 2203 2784 
z
M 2203 3584 
Q 3106 3584 3614 3096 
Q 4122 2609 4122 1747 
Q 4122 884 3614 396 
Q 3106 -91 2203 -91 
Q 1297 -91 786 396 
Q 275 884 275 1747 
Q 275 2609 786 3096 
Q 1297 3584 2203 3584 
z
" transform="scale(0.015625)"/>
       <path id="DejaVuSans-Bold-66" d="M 2841 4863 
L 2841 4128 
L 2222 4128 
Q 1984 4128 1890 4042 
Q 1797 3956 1797 3744 
L 1797 3500 
L 2753 3500 
L 2753 2700 
L 1797 2700 
L 1797 0 
L 678 0 
L 678 2700 
L 122 2700 
L 122 3500 
L 678 3500 
L 678 3744 
Q 678 4316 997 4589 
Q 1316 4863 1984 4863 
L 2841 4863 
z
" transform="scale(0.015625)"/>
       <path id="DejaVuSans-Bold-52" d="M 2297 2597 
Q 2675 2597 2839 2737 
Q 3003 2878 3003 3200 
Q 3003 3519 2839 3656 
Q 2675 3794 2297 3794 
L 1791 3794 
L 1791 2597 
L 2297 2597 
z
M 1791 1766 
L 1791 0 
L 588 0 
L 588 4666 
L 2425 4666 
Q 3347 4666 3776 4356 
Q 4206 4047 4206 3378 
Q 4206 2916 3982 2619 
Q 3759 2322 3309 2181 
Q 3556 2125 3751 1926 
Q 3947 1728 4147 1325 
L 4800 0 
L 3519 0 
L 2950 1159 
Q 2778 1509 2601 1637 
Q 2425 1766 2131 1766 
L 1791 1766 
z
" transform="scale(0.015625)"/>
       <path id="DejaVuSans-Bold-6d" d="M 3781 2919 
Q 3994 3244 4286 3414 
Q 4578 3584 4928 3584 
Q 5531 3584 5847 3212 
Q 6163 2841 6163 2131 
L 6163 0 
L 5038 0 
L 5038 1825 
Q 5041 1866 5042 1909 
Q 5044 1953 5044 2034 
Q 5044 2406 4934 2573 
Q 4825 2741 4581 2741 
Q 4263 2741 4089 2478 
Q 3916 2216 3909 1719 
L 3909 0 
L 2784 0 
L 2784 1825 
Q 2784 2406 2684 2573 
Q 2584 2741 2328 2741 
Q 2006 2741 1831 2477 
Q 1656 2213 1656 1722 
L 1656 0 
L 531 0 
L 531 3500 
L 1656 3500 
L 1656 2988 
Q 1863 3284 2130 3434 
Q 2397 3584 2719 3584 
Q 3081 3584 3359 3409 
Q 3638 3234 3781 2919 
z
" transform="scale(0.015625)"/>
       <path id="DejaVuSans-Bold-69" d="M 538 3500 
L 1656 3500 
L 1656 0 
L 538 0 
L 538 3500 
z
M 538 4863 
L 1656 4863 
L 1656 3950 
L 538 3950 
L 538 4863 
z
" transform="scale(0.015625)"/>
       <path id="DejaVuSans-Bold-6e" d="M 4056 2131 
L 4056 0 
L 2931 0 
L 2931 347 
L 2931 1631 
Q 2931 2084 2911 2256 
Q 2891 2428 2841 2509 
Q 2775 2619 2662 2680 
Q 2550 2741 2406 2741 
Q 2056 2741 1856 2470 
Q 1656 2200 1656 1722 
L 1656 0 
L 538 0 
L 538 3500 
L 1656 3500 
L 1656 2988 
Q 1909 3294 2193 3439 
Q 2478 3584 2822 3584 
Q 3428 3584 3742 3212 
Q 4056 2841 4056 2131 
z
" transform="scale(0.015625)"/>
       <path id="DejaVuSans-Bold-67" d="M 2919 594 
Q 2688 288 2409 144 
Q 2131 0 1766 0 
Q 1125 0 706 504 
Q 288 1009 288 1791 
Q 288 2575 706 3076 
Q 1125 3578 1766 3578 
Q 2131 3578 2409 3434 
Q 2688 3291 2919 2981 
L 2919 3500 
L 4044 3500 
L 4044 353 
Q 4044 -491 3511 -936 
Q 2978 -1381 1966 -1381 
Q 1638 -1381 1331 -1331 
Q 1025 -1281 716 -1178 
L 716 -306 
Q 1009 -475 1290 -558 
Q 1572 -641 1856 -641 
Q 2406 -641 2662 -400 
Q 2919 -159 2919 353 
L 2919 594 
z
M 2181 2772 
Q 1834 2772 1640 2515 
Q 1447 2259 1447 1791 
Q 1447 1309 1634 1061 
Q 1822 813 2181 813 
Q 2531 813 2725 1069 
Q 2919 1325 2919 1791 
Q 2919 2259 2725 2515 
Q 2531 2772 2181 2772 
z
" transform="scale(0.015625)"/>
       <path id="DejaVuSans-Bold-47" d="M 4781 347 
Q 4331 128 3847 18 
Q 3363 -91 2847 -91 
Q 1681 -91 1000 561 
Q 319 1213 319 2328 
Q 319 3456 1012 4103 
Q 1706 4750 2913 4750 
Q 3378 4750 3804 4662 
Q 4231 4575 4609 4403 
L 4609 3438 
Q 4219 3659 3833 3768 
Q 3447 3878 3059 3878 
Q 2341 3878 1952 3476 
Q 1563 3075 1563 2328 
Q 1563 1588 1938 1184 
Q 2313 781 3003 781 
Q 3191 781 3352 804 
Q 3513 828 3641 878 
L 3641 1784 
L 2906 1784 
L 2906 2591 
L 4781 2591 
L 4781 347 
z
" transform="scale(0.015625)"/>
       <path id="DejaVuSans-Bold-6c" d="M 538 4863 
L 1656 4863 
L 1656 0 
L 538 0 
L 538 4863 
z
" transform="scale(0.015625)"/>
       <path id="DejaVuSans-Bold-63" d="M 3366 3391 
L 3366 2478 
Q 3138 2634 2908 2709 
Q 2678 2784 2431 2784 
Q 1963 2784 1702 2511 
Q 1441 2238 1441 1747 
Q 1441 1256 1702 982 
Q 1963 709 2431 709 
Q 2694 709 2930 787 
Q 3166 866 3366 1019 
L 3366 103 
Q 3103 6 2833 -42 
Q 2563 -91 2291 -91 
Q 1344 -91 809 395 
Q 275 881 275 1747 
Q 275 2613 809 3098 
Q 1344 3584 2291 3584 
Q 2566 3584 2833 3536 
Q 3100 3488 3366 3391 
z
" transform="scale(0.015625)"/>
       <path id="DejaVuSans-Bold-4d" d="M 588 4666 
L 2119 4666 
L 3181 2169 
L 4250 4666 
L 5778 4666 
L 5778 0 
L 4641 0 
L 4641 3413 
L 3566 897 
L 2803 897 
L 1728 3413 
L 1728 0 
L 588 0 
L 588 4666 
z
" transform="scale(0.015625)"/>
       <path id="DejaVuSans-Bold-73" d="M 3272 3391 
L 3272 2541 
Q 2913 2691 2578 2766 
Q 2244 2841 1947 2841 
Q 1628 2841 1473 2761 
Q 1319 2681 1319 2516 
Q 1319 2381 1436 2309 
Q 1553 2238 1856 2203 
L 2053 2175 
Q 2913 2066 3209 1816 
Q 3506 1566 3506 1031 
Q 3506 472 3093 190 
Q 2681 -91 1863 -91 
Q 1516 -91 1145 -36 
Q 775 19 384 128 
L 384 978 
Q 719 816 1070 734 
Q 1422 653 1784 653 
Q 2113 653 2278 743 
Q 2444 834 2444 1013 
Q 2444 1163 2330 1236 
Q 2216 1309 1875 1350 
L 1678 1375 
Q 931 1469 631 1722 
Q 331 1975 331 2491 
Q 331 3047 712 3315 
Q 1094 3584 1881 3584 
Q 2191 3584 2531 3537 
Q 2872 3491 3272 3391 
z
" transform="scale(0.015625)"/>
      </defs>
      <use xlink:href="#DejaVuSans-Bold-25"/>
      <use xlink:href="#DejaVuSans-Bold-20" x="100.195312"/>
      <use xlink:href="#DejaVuSans-Bold-6f" x="135.009766"/>
      <use xlink:href="#DejaVuSans-Bold-66" x="203.710938"/>
      <use xlink:href="#DejaVuSans-Bold-20" x="247.216797"/>
      <use xlink:href="#DejaVuSans-Bold-52" x="282.03125"/>
      <use xlink:href="#DejaVuSans-Bold-65" x="359.033203"/>
      <use xlink:href="#DejaVuSans-Bold-6d" x="426.855469"/>
      <use xlink:href="#DejaVuSans-Bold-61" x="531.054688"/>
      <use xlink:href="#DejaVuSans-Bold-69" x="598.535156"/>
      <use xlink:href="#DejaVuSans-Bold-6e" x="632.8125"/>
      <use xlink:href="#DejaVuSans-Bold-69" x="704.003906"/>
      <use xlink:href="#DejaVuSans-Bold-6e" x="738.28125"/>
      <use xlink:href="#DejaVuSans-Bold-67" x="809.472656"/>
      <use xlink:href="#DejaVuSans-Bold-20" x="881.054688"/>
      <use xlink:href="#DejaVuSans-Bold-47" x="915.869141"/>
      <use xlink:href="#DejaVuSans-Bold-6c" x="997.949219"/>
      <use xlink:href="#DejaVuSans-Bold-61" x="1032.226562"/>
      <use xlink:href="#DejaVuSans-Bold-63" x="1099.707031"/>
      <use xlink:href="#DejaVuSans-Bold-69" x="1158.984375"/>
      <use xlink:href="#DejaVuSans-Bold-65" x="1193.261719"/>
      <use xlink:href="#DejaVuSans-Bold-72" x="1261.083984"/>
      <use xlink:href="#DejaVuSans-Bold-20" x="1310.400391"/>
      <use xlink:href="#DejaVuSans-Bold-4d" x="1345.214844"/>
      <use xlink:href="#DejaVuSans-Bold-61" x="1444.726562"/>
      <use xlink:href="#DejaVuSans-Bold-73" x="1512.207031"/>
      <use xlink:href="#DejaVuSans-Bold-73" x="1571.728516"/>
     </g>
    </g>
   </g>
   <g id="line2d_12">
    <path d="M 167.276938 146.109795 
L 179.284633 150.123632 
L 198.496946 156.822973 
L 212.90618 162.056182 
L 227.315415 167.610059 
L 239.32311 172.466554 
L 248.929267 176.483197 
L 258.535423 180.296748 
L 265.74004 182.918414 
L 282.550814 188.918628 
L 292.15697 192.305817 
L 325.778517 203.765538 
L 337.786212 207.916257 
L 359.400064 215.822629 
L 376.210838 221.814299 
L 385.816994 225.093358 
L 424.241619 237.663934 
L 438.650854 241.89068 
L 455.461627 246.457468 
L 467.469323 249.714247 
L 479.477018 252.955207 
L 489.083174 255.54426 
L 498.689331 258.129272 
L 510.697026 260.938819 
L 517.901643 262.63368 
L 527.5078 265.114693 
L 537.113956 267.73115 
L 544.318573 269.641602 
L 551.52319 271.806091 
L 565.932425 276.290314 
L 575.538581 278.934044 
L 587.546277 281.910731 
L 594.750894 283.463799 
L 625.970902 289.58486 
L 633.175519 291.117507 
L 652.387832 295.349437 
L 661.993988 297.123598 
L 671.600144 298.709111 
L 686.009379 300.653235 
L 700.418613 302.35478 
L 722.032465 304.901343 
L 743.646317 307.663294 
L 758.055551 309.79578 
L 784.472481 314.030613 
L 806.086333 317.235322 
L 815.692489 318.32268 
L 832.503262 319.264165 
L 837.306341 319.467695 
L 837.306341 319.467695 
" clip-path="url(#p3458b6d5d7)" style="fill: none; stroke: #74b8f8; stroke-opacity: 0.5; stroke-width: 6; stroke-linecap: square"/>
   </g>
   <g id="line2d_13">
    <path d="M 116.844617 136.390663 
L 119.246156 136.653395 
L 121.647695 136.910778 
L 124.049234 137.160205 
L 126.450774 137.4188 
L 128.852313 137.691292 
L 131.253852 137.950367 
L 133.655391 138.203766 
L 136.05693 138.473173 
L 138.458469 138.739124 
L 140.860008 139.010499 
L 143.261547 139.56485 
L 145.663086 140.119764 
L 148.064625 140.714339 
L 150.466164 141.30818 
L 152.867703 141.927043 
L 155.269242 142.548192 
L 157.670782 143.203214 
L 160.072321 143.88514 
L 162.47386 144.611053 
L 164.875399 145.352 
" clip-path="url(#p3458b6d5d7)" style="fill: none; stroke: #000000; stroke-opacity: 0.5; stroke-width: 6; stroke-linecap: square"/>
   </g>
   <g id="line2d_14">
    <path d="M 167.276938 146.194338 
L 176.883094 149.468099 
L 188.89079 153.354977 
L 196.095407 156.052 
L 198.496946 157.064339 
L 200.898485 158.255178 
L 215.307719 164.388022 
L 217.709259 165.434963 
L 227.315415 169.152159 
L 232.118493 171.1399 
L 248.929267 179.148717 
L 263.338501 185.849839 
L 268.141579 188.294851 
L 272.944657 191.019086 
L 282.550814 196.755018 
L 296.960048 205.614609 
L 311.369283 214.791747 
L 313.770822 216.380279 
L 330.581595 225.179774 
L 335.384673 227.360052 
L 347.392369 232.77021 
L 376.210838 246.426407 
L 388.218533 252.036591 
L 417.037002 265.005373 
L 431.446236 271.295929 
L 441.052393 275.318346 
L 450.658549 280.122652 
L 462.666244 286.091229 
L 469.870862 289.579643 
L 477.075479 292.743808 
L 481.878557 294.646125 
L 493.886252 299.333289 
L 505.893948 304.139687 
L 527.5078 312.133211 
L 544.318573 318.305977 
L 558.727808 323.211133 
L 587.546277 333.605184 
L 606.758589 340.062801 
L 628.372441 346.478625 
L 652.387832 353.314388 
L 661.993988 355.754793 
L 671.600144 357.864449 
L 683.60784 360.359818 
L 693.213996 362.223345 
L 707.62323 365.272237 
L 734.04016 371.572451 
L 743.646317 373.512496 
L 750.850934 374.819896 
L 760.45709 376.282772 
L 772.464786 377.956547 
L 789.275559 380.227017 
L 815.692489 383.916659 
L 837.306341 385.480873 
L 837.306341 385.480873 
" clip-path="url(#p3458b6d5d7)" style="fill: none; stroke: #f47100; stroke-opacity: 0.5; stroke-width: 6; stroke-linecap: square"/>
   </g>
   <g id="line2d_15">
    <path d="M 116.844617 134.593211 
L 119.246156 134.826694 
L 121.647695 135.051434 
L 124.049234 135.327127 
L 126.450774 135.657444 
L 128.852313 136.011334 
L 131.253852 136.33934 
L 133.655391 136.678644 
L 136.05693 137.050304 
L 138.458469 137.444656 
L 140.860008 137.841171 
L 143.261547 138.503237 
L 145.663086 139.180691 
L 148.064625 139.872203 
L 150.466164 140.597784 
L 152.867703 141.346464 
L 155.269242 142.09091 
L 157.670782 142.848247 
L 160.072321 143.681449 
L 162.47386 144.513773 
L 164.875399 145.352 
" clip-path="url(#p3458b6d5d7)" style="fill: none; stroke: #000000; stroke-opacity: 0.5; stroke-width: 6; stroke-linecap: square"/>
   </g>
   <g id="line2d_16">
    <path d="M 167.276938 146.16531 
L 176.883094 149.465243 
L 181.686172 151.341953 
L 186.48925 153.399219 
L 196.095407 158.085048 
L 203.300024 161.519018 
L 210.504641 164.866871 
L 217.709259 168.740861 
L 224.913876 173.365511 
L 244.126188 185.502923 
L 256.133884 192.81128 
L 260.936962 195.386669 
L 268.141579 198.752758 
L 275.346196 202.006477 
L 282.550814 205.507748 
L 287.353892 208.000633 
L 294.558509 212.22267 
L 323.376978 229.987119 
L 328.180056 233.294539 
L 337.786212 240.483356 
L 344.99083 245.448073 
L 354.596986 252.668963 
L 373.809299 267.948093 
L 419.438541 303.038497 
L 426.643158 308.461524 
L 438.650854 318.433592 
L 455.461627 331.522981 
L 479.477018 349.60961 
L 489.083174 356.613165 
L 496.287792 361.613799 
L 508.295487 369.571399 
L 515.500104 374.15527 
L 522.704721 378.447791 
L 539.515495 387.986004 
L 561.129347 399.892921 
L 570.735503 404.943156 
L 577.94012 408.842427 
L 587.546277 413.714213 
L 597.152433 418.386304 
L 609.160128 423.823043 
L 618.766285 428.013115 
L 625.970902 430.867246 
L 664.395527 442.998064 
L 674.001683 445.739673 
L 681.206301 447.590077 
L 688.410918 449.1721 
L 698.017074 451.049776 
L 710.024769 453.118311 
L 719.630926 454.660804 
L 724.434004 455.107204 
L 750.850934 457.276686 
L 813.29095 462.901708 
L 818.094028 463.209177 
L 837.306341 464.039024 
L 837.306341 464.039024 
" clip-path="url(#p3458b6d5d7)" style="fill: none; stroke: #d01e04; stroke-opacity: 0.5; stroke-width: 6; stroke-linecap: square"/>
   </g>
   <g id="line2d_17">
    <path d="M 116.844617 135.141425 
L 119.246156 135.375982 
L 121.647695 135.585364 
L 124.049234 135.856508 
L 126.450774 136.200184 
L 128.852313 136.555026 
L 131.253852 136.871592 
L 133.655391 137.200519 
L 136.05693 137.577785 
L 138.458469 137.931767 
L 140.860008 138.29184 
L 143.261547 138.924552 
L 145.663086 139.580465 
L 148.064625 140.233847 
L 150.466164 140.87063 
L 152.867703 141.482147 
L 155.269242 142.133992 
L 157.670782 142.904532 
L 160.072321 143.722871 
L 162.47386 144.547573 
L 164.875399 145.352 
" clip-path="url(#p3458b6d5d7)" style="fill: none; stroke: #000000; stroke-opacity: 0.5; stroke-width: 6; stroke-linecap: square"/>
   </g>
   <g id="patch_3">
    <path d="M 109.64 515.56 
L 109.64 52.8 
" style="fill: none; stroke: #000000; stroke-width: 0.8; stroke-linejoin: miter; stroke-linecap: square"/>
   </g>
   <g id="patch_4">
    <path d="M 109.64 515.56 
L 858.920192 515.56 
" style="fill: none; stroke: #000000; stroke-width: 0.8; stroke-linejoin: miter; stroke-linecap: square"/>
   </g>
   <g id="text_14">
    <!-- Russian Arctic -->
    <g transform="translate(388.000721 46.8)scale(0.24 -0.24)">
     <defs>
      <path id="DejaVuSans-Bold-75" d="M 500 1363 
L 500 3500 
L 1625 3500 
L 1625 3150 
Q 1625 2866 1622 2436 
Q 1619 2006 1619 1863 
Q 1619 1441 1641 1255 
Q 1663 1069 1716 984 
Q 1784 875 1895 815 
Q 2006 756 2150 756 
Q 2500 756 2700 1025 
Q 2900 1294 2900 1772 
L 2900 3500 
L 4019 3500 
L 4019 0 
L 2900 0 
L 2900 506 
Q 2647 200 2364 54 
Q 2081 -91 1741 -91 
Q 1134 -91 817 281 
Q 500 653 500 1363 
z
" transform="scale(0.015625)"/>
      <path id="DejaVuSans-Bold-41" d="M 3419 850 
L 1538 850 
L 1241 0 
L 31 0 
L 1759 4666 
L 3194 4666 
L 4922 0 
L 3713 0 
L 3419 850 
z
M 1838 1716 
L 3116 1716 
L 2478 3572 
L 1838 1716 
z
" transform="scale(0.015625)"/>
      <path id="DejaVuSans-Bold-74" d="M 1759 4494 
L 1759 3500 
L 2913 3500 
L 2913 2700 
L 1759 2700 
L 1759 1216 
Q 1759 972 1856 886 
Q 1953 800 2241 800 
L 2816 800 
L 2816 0 
L 1856 0 
Q 1194 0 917 276 
Q 641 553 641 1216 
L 641 2700 
L 84 2700 
L 84 3500 
L 641 3500 
L 641 4494 
L 1759 4494 
z
" transform="scale(0.015625)"/>
     </defs>
     <use xlink:href="#DejaVuSans-Bold-52"/>
     <use xlink:href="#DejaVuSans-Bold-75" x="77.001953"/>
     <use xlink:href="#DejaVuSans-Bold-73" x="148.193359"/>
     <use xlink:href="#DejaVuSans-Bold-73" x="207.714844"/>
     <use xlink:href="#DejaVuSans-Bold-69" x="267.236328"/>
     <use xlink:href="#DejaVuSans-Bold-61" x="301.513672"/>
     <use xlink:href="#DejaVuSans-Bold-6e" x="368.994141"/>
     <use xlink:href="#DejaVuSans-Bold-20" x="440.185547"/>
     <use xlink:href="#DejaVuSans-Bold-41" x="475"/>
     <use xlink:href="#DejaVuSans-Bold-72" x="552.392578"/>
     <use xlink:href="#DejaVuSans-Bold-63" x="601.708984"/>
     <use xlink:href="#DejaVuSans-Bold-74" x="660.986328"/>
     <use xlink:href="#DejaVuSans-Bold-69" x="708.789062"/>
     <use xlink:href="#DejaVuSans-Bold-63" x="743.066406"/>
    </g>
   </g>
   <g id="legend_1">
    <g id="patch_5">
     <path d="M 597.903942 225.737875 
L 843.520192 225.737875 
Q 847.920192 225.737875 847.920192 221.337875 
L 847.920192 68.2 
Q 847.920192 63.8 843.520192 63.8 
L 597.903942 63.8 
Q 593.503942 63.8 593.503942 68.2 
L 593.503942 221.337875 
Q 593.503942 225.737875 597.903942 225.737875 
z
" style="fill: #ffffff; opacity: 0.6; stroke: #cccccc; stroke-linejoin: miter"/>
    </g>
    <g id="text_15">
     <!-- Global mean -->
     <g transform="translate(602.303942 89.316563)scale(0.22 -0.22)">
      <defs>
       <path id="DejaVuSans-47" d="M 3809 666 
L 3809 1919 
L 2778 1919 
L 2778 2438 
L 4434 2438 
L 4434 434 
Q 4069 175 3628 42 
Q 3188 -91 2688 -91 
Q 1594 -91 976 548 
Q 359 1188 359 2328 
Q 359 3472 976 4111 
Q 1594 4750 2688 4750 
Q 3144 4750 3555 4637 
Q 3966 4525 4313 4306 
L 4313 3634 
Q 3963 3931 3569 4081 
Q 3175 4231 2741 4231 
Q 1884 4231 1454 3753 
Q 1025 3275 1025 2328 
Q 1025 1384 1454 906 
Q 1884 428 2741 428 
Q 3075 428 3337 486 
Q 3600 544 3809 666 
z
" transform="scale(0.015625)"/>
       <path id="DejaVuSans-6c" d="M 603 4863 
L 1178 4863 
L 1178 0 
L 603 0 
L 603 4863 
z
" transform="scale(0.015625)"/>
       <path id="DejaVuSans-6f" d="M 1959 3097 
Q 1497 3097 1228 2736 
Q 959 2375 959 1747 
Q 959 1119 1226 758 
Q 1494 397 1959 397 
Q 2419 397 2687 759 
Q 2956 1122 2956 1747 
Q 2956 2369 2687 2733 
Q 2419 3097 1959 3097 
z
M 1959 3584 
Q 2709 3584 3137 3096 
Q 3566 2609 3566 1747 
Q 3566 888 3137 398 
Q 2709 -91 1959 -91 
Q 1206 -91 779 398 
Q 353 888 353 1747 
Q 353 2609 779 3096 
Q 1206 3584 1959 3584 
z
" transform="scale(0.015625)"/>
       <path id="DejaVuSans-62" d="M 3116 1747 
Q 3116 2381 2855 2742 
Q 2594 3103 2138 3103 
Q 1681 3103 1420 2742 
Q 1159 2381 1159 1747 
Q 1159 1113 1420 752 
Q 1681 391 2138 391 
Q 2594 391 2855 752 
Q 3116 1113 3116 1747 
z
M 1159 2969 
Q 1341 3281 1617 3432 
Q 1894 3584 2278 3584 
Q 2916 3584 3314 3078 
Q 3713 2572 3713 1747 
Q 3713 922 3314 415 
Q 2916 -91 2278 -91 
Q 1894 -91 1617 61 
Q 1341 213 1159 525 
L 1159 0 
L 581 0 
L 581 4863 
L 1159 4863 
L 1159 2969 
z
" transform="scale(0.015625)"/>
       <path id="DejaVuSans-61" d="M 2194 1759 
Q 1497 1759 1228 1600 
Q 959 1441 959 1056 
Q 959 750 1161 570 
Q 1363 391 1709 391 
Q 2188 391 2477 730 
Q 2766 1069 2766 1631 
L 2766 1759 
L 2194 1759 
z
M 3341 1997 
L 3341 0 
L 2766 0 
L 2766 531 
Q 2569 213 2275 61 
Q 1981 -91 1556 -91 
Q 1019 -91 701 211 
Q 384 513 384 1019 
Q 384 1609 779 1909 
Q 1175 2209 1959 2209 
L 2766 2209 
L 2766 2266 
Q 2766 2663 2505 2880 
Q 2244 3097 1772 3097 
Q 1472 3097 1187 3025 
Q 903 2953 641 2809 
L 641 3341 
Q 956 3463 1253 3523 
Q 1550 3584 1831 3584 
Q 2591 3584 2966 3190 
Q 3341 2797 3341 1997 
z
" transform="scale(0.015625)"/>
       <path id="DejaVuSans-20" transform="scale(0.015625)"/>
       <path id="DejaVuSans-6d" d="M 3328 2828 
Q 3544 3216 3844 3400 
Q 4144 3584 4550 3584 
Q 5097 3584 5394 3201 
Q 5691 2819 5691 2113 
L 5691 0 
L 5113 0 
L 5113 2094 
Q 5113 2597 4934 2840 
Q 4756 3084 4391 3084 
Q 3944 3084 3684 2787 
Q 3425 2491 3425 1978 
L 3425 0 
L 2847 0 
L 2847 2094 
Q 2847 2600 2669 2842 
Q 2491 3084 2119 3084 
Q 1678 3084 1418 2786 
Q 1159 2488 1159 1978 
L 1159 0 
L 581 0 
L 581 3500 
L 1159 3500 
L 1159 2956 
Q 1356 3278 1631 3431 
Q 1906 3584 2284 3584 
Q 2666 3584 2933 3390 
Q 3200 3197 3328 2828 
z
" transform="scale(0.015625)"/>
       <path id="DejaVuSans-65" d="M 3597 1894 
L 3597 1613 
L 953 1613 
Q 991 1019 1311 708 
Q 1631 397 2203 397 
Q 2534 397 2845 478 
Q 3156 559 3463 722 
L 3463 178 
Q 3153 47 2828 -22 
Q 2503 -91 2169 -91 
Q 1331 -91 842 396 
Q 353 884 353 1716 
Q 353 2575 817 3079 
Q 1281 3584 2069 3584 
Q 2775 3584 3186 3129 
Q 3597 2675 3597 1894 
z
M 3022 2063 
Q 3016 2534 2758 2815 
Q 2500 3097 2075 3097 
Q 1594 3097 1305 2825 
Q 1016 2553 972 2059 
L 3022 2063 
z
" transform="scale(0.015625)"/>
       <path id="DejaVuSans-6e" d="M 3513 2113 
L 3513 0 
L 2938 0 
L 2938 2094 
Q 2938 2591 2744 2837 
Q 2550 3084 2163 3084 
Q 1697 3084 1428 2787 
Q 1159 2491 1159 1978 
L 1159 0 
L 581 0 
L 581 3500 
L 1159 3500 
L 1159 2956 
Q 1366 3272 1645 3428 
Q 1925 3584 2291 3584 
Q 2894 3584 3203 3211 
Q 3513 2838 3513 2113 
z
" transform="scale(0.015625)"/>
      </defs>
      <use xlink:href="#DejaVuSans-47"/>
      <use xlink:href="#DejaVuSans-6c" x="77.490234"/>
      <use xlink:href="#DejaVuSans-6f" x="105.273438"/>
      <use xlink:href="#DejaVuSans-62" x="166.455078"/>
      <use xlink:href="#DejaVuSans-61" x="229.931641"/>
      <use xlink:href="#DejaVuSans-6c" x="291.210938"/>
      <use xlink:href="#DejaVuSans-20" x="318.994141"/>
      <use xlink:href="#DejaVuSans-6d" x="350.78125"/>
      <use xlink:href="#DejaVuSans-65" x="448.193359"/>
      <use xlink:href="#DejaVuSans-61" x="509.716797"/>
      <use xlink:href="#DejaVuSans-6e" x="570.996094"/>
     </g>
     <!-- temperature above -->
     <g transform="translate(602.303942 113.95175)scale(0.22 -0.22)">
      <defs>
       <path id="DejaVuSans-74" d="M 1172 4494 
L 1172 3500 
L 2356 3500 
L 2356 3053 
L 1172 3053 
L 1172 1153 
Q 1172 725 1289 603 
Q 1406 481 1766 481 
L 2356 481 
L 2356 0 
L 1766 0 
Q 1100 0 847 248 
Q 594 497 594 1153 
L 594 3053 
L 172 3053 
L 172 3500 
L 594 3500 
L 594 4494 
L 1172 4494 
z
" transform="scale(0.015625)"/>
       <path id="DejaVuSans-70" d="M 1159 525 
L 1159 -1331 
L 581 -1331 
L 581 3500 
L 1159 3500 
L 1159 2969 
Q 1341 3281 1617 3432 
Q 1894 3584 2278 3584 
Q 2916 3584 3314 3078 
Q 3713 2572 3713 1747 
Q 3713 922 3314 415 
Q 2916 -91 2278 -91 
Q 1894 -91 1617 61 
Q 1341 213 1159 525 
z
M 3116 1747 
Q 3116 2381 2855 2742 
Q 2594 3103 2138 3103 
Q 1681 3103 1420 2742 
Q 1159 2381 1159 1747 
Q 1159 1113 1420 752 
Q 1681 391 2138 391 
Q 2594 391 2855 752 
Q 3116 1113 3116 1747 
z
" transform="scale(0.015625)"/>
       <path id="DejaVuSans-72" d="M 2631 2963 
Q 2534 3019 2420 3045 
Q 2306 3072 2169 3072 
Q 1681 3072 1420 2755 
Q 1159 2438 1159 1844 
L 1159 0 
L 581 0 
L 581 3500 
L 1159 3500 
L 1159 2956 
Q 1341 3275 1631 3429 
Q 1922 3584 2338 3584 
Q 2397 3584 2469 3576 
Q 2541 3569 2628 3553 
L 2631 2963 
z
" transform="scale(0.015625)"/>
       <path id="DejaVuSans-75" d="M 544 1381 
L 544 3500 
L 1119 3500 
L 1119 1403 
Q 1119 906 1312 657 
Q 1506 409 1894 409 
Q 2359 409 2629 706 
Q 2900 1003 2900 1516 
L 2900 3500 
L 3475 3500 
L 3475 0 
L 2900 0 
L 2900 538 
Q 2691 219 2414 64 
Q 2138 -91 1772 -91 
Q 1169 -91 856 284 
Q 544 659 544 1381 
z
M 1991 3584 
L 1991 3584 
z
" transform="scale(0.015625)"/>
       <path id="DejaVuSans-76" d="M 191 3500 
L 800 3500 
L 1894 563 
L 2988 3500 
L 3597 3500 
L 2284 0 
L 1503 0 
L 191 3500 
z
" transform="scale(0.015625)"/>
      </defs>
      <use xlink:href="#DejaVuSans-74"/>
      <use xlink:href="#DejaVuSans-65" x="39.208984"/>
      <use xlink:href="#DejaVuSans-6d" x="100.732422"/>
      <use xlink:href="#DejaVuSans-70" x="198.144531"/>
      <use xlink:href="#DejaVuSans-65" x="261.621094"/>
      <use xlink:href="#DejaVuSans-72" x="323.144531"/>
      <use xlink:href="#DejaVuSans-61" x="364.257812"/>
      <use xlink:href="#DejaVuSans-74" x="425.537109"/>
      <use xlink:href="#DejaVuSans-75" x="464.746094"/>
      <use xlink:href="#DejaVuSans-72" x="528.125"/>
      <use xlink:href="#DejaVuSans-65" x="566.988281"/>
      <use xlink:href="#DejaVuSans-20" x="628.511719"/>
      <use xlink:href="#DejaVuSans-61" x="660.298828"/>
      <use xlink:href="#DejaVuSans-62" x="721.578125"/>
      <use xlink:href="#DejaVuSans-6f" x="785.054688"/>
      <use xlink:href="#DejaVuSans-76" x="846.236328"/>
      <use xlink:href="#DejaVuSans-65" x="905.416016"/>
     </g>
     <!-- pre-industrial in 2100 -->
     <g transform="translate(602.303942 138.586938)scale(0.22 -0.22)">
      <defs>
       <path id="DejaVuSans-2d" d="M 313 2009 
L 1997 2009 
L 1997 1497 
L 313 1497 
L 313 2009 
z
" transform="scale(0.015625)"/>
       <path id="DejaVuSans-69" d="M 603 3500 
L 1178 3500 
L 1178 0 
L 603 0 
L 603 3500 
z
M 603 4863 
L 1178 4863 
L 1178 4134 
L 603 4134 
L 603 4863 
z
" transform="scale(0.015625)"/>
       <path id="DejaVuSans-64" d="M 2906 2969 
L 2906 4863 
L 3481 4863 
L 3481 0 
L 2906 0 
L 2906 525 
Q 2725 213 2448 61 
Q 2172 -91 1784 -91 
Q 1150 -91 751 415 
Q 353 922 353 1747 
Q 353 2572 751 3078 
Q 1150 3584 1784 3584 
Q 2172 3584 2448 3432 
Q 2725 3281 2906 2969 
z
M 947 1747 
Q 947 1113 1208 752 
Q 1469 391 1925 391 
Q 2381 391 2643 752 
Q 2906 1113 2906 1747 
Q 2906 2381 2643 2742 
Q 2381 3103 1925 3103 
Q 1469 3103 1208 2742 
Q 947 2381 947 1747 
z
" transform="scale(0.015625)"/>
       <path id="DejaVuSans-73" d="M 2834 3397 
L 2834 2853 
Q 2591 2978 2328 3040 
Q 2066 3103 1784 3103 
Q 1356 3103 1142 2972 
Q 928 2841 928 2578 
Q 928 2378 1081 2264 
Q 1234 2150 1697 2047 
L 1894 2003 
Q 2506 1872 2764 1633 
Q 3022 1394 3022 966 
Q 3022 478 2636 193 
Q 2250 -91 1575 -91 
Q 1294 -91 989 -36 
Q 684 19 347 128 
L 347 722 
Q 666 556 975 473 
Q 1284 391 1588 391 
Q 1994 391 2212 530 
Q 2431 669 2431 922 
Q 2431 1156 2273 1281 
Q 2116 1406 1581 1522 
L 1381 1569 
Q 847 1681 609 1914 
Q 372 2147 372 2553 
Q 372 3047 722 3315 
Q 1072 3584 1716 3584 
Q 2034 3584 2315 3537 
Q 2597 3491 2834 3397 
z
" transform="scale(0.015625)"/>
      </defs>
      <use xlink:href="#DejaVuSans-70"/>
      <use xlink:href="#DejaVuSans-72" x="63.476562"/>
      <use xlink:href="#DejaVuSans-65" x="102.339844"/>
      <use xlink:href="#DejaVuSans-2d" x="163.863281"/>
      <use xlink:href="#DejaVuSans-69" x="199.947266"/>
      <use xlink:href="#DejaVuSans-6e" x="227.730469"/>
      <use xlink:href="#DejaVuSans-64" x="291.109375"/>
      <use xlink:href="#DejaVuSans-75" x="354.585938"/>
      <use xlink:href="#DejaVuSans-73" x="417.964844"/>
      <use xlink:href="#DejaVuSans-74" x="470.064453"/>
      <use xlink:href="#DejaVuSans-72" x="509.273438"/>
      <use xlink:href="#DejaVuSans-69" x="550.386719"/>
      <use xlink:href="#DejaVuSans-61" x="578.169922"/>
      <use xlink:href="#DejaVuSans-6c" x="639.449219"/>
      <use xlink:href="#DejaVuSans-20" x="667.232422"/>
      <use xlink:href="#DejaVuSans-69" x="699.019531"/>
      <use xlink:href="#DejaVuSans-6e" x="726.802734"/>
      <use xlink:href="#DejaVuSans-20" x="790.181641"/>
      <use xlink:href="#DejaVuSans-32" x="821.96875"/>
      <use xlink:href="#DejaVuSans-31" x="885.591797"/>
      <use xlink:href="#DejaVuSans-30" x="949.214844"/>
      <use xlink:href="#DejaVuSans-30" x="1012.837891"/>
     </g>
    </g>
    <g id="line2d_18">
     <path d="M 616.971755 155.478813 
L 638.971755 155.478813 
L 660.971755 155.478813 
" style="fill: none; stroke: #74b8f8; stroke-opacity: 0.5; stroke-width: 6; stroke-linecap: square"/>
    </g>
    <g id="text_16">
     <!-- 1.5C (n=2) -->
     <g transform="translate(678.571755 163.178813)scale(0.22 -0.22)">
      <defs>
       <path id="DejaVuSans-2e" d="M 684 794 
L 1344 794 
L 1344 0 
L 684 0 
L 684 794 
z
" transform="scale(0.015625)"/>
       <path id="DejaVuSans-35" d="M 691 4666 
L 3169 4666 
L 3169 4134 
L 1269 4134 
L 1269 2991 
Q 1406 3038 1543 3061 
Q 1681 3084 1819 3084 
Q 2600 3084 3056 2656 
Q 3513 2228 3513 1497 
Q 3513 744 3044 326 
Q 2575 -91 1722 -91 
Q 1428 -91 1123 -41 
Q 819 9 494 109 
L 494 744 
Q 775 591 1075 516 
Q 1375 441 1709 441 
Q 2250 441 2565 725 
Q 2881 1009 2881 1497 
Q 2881 1984 2565 2268 
Q 2250 2553 1709 2553 
Q 1456 2553 1204 2497 
Q 953 2441 691 2322 
L 691 4666 
z
" transform="scale(0.015625)"/>
       <path id="DejaVuSans-b0" d="M 1600 4347 
Q 1350 4347 1178 4173 
Q 1006 4000 1006 3750 
Q 1006 3503 1178 3333 
Q 1350 3163 1600 3163 
Q 1850 3163 2022 3333 
Q 2194 3503 2194 3750 
Q 2194 3997 2020 4172 
Q 1847 4347 1600 4347 
z
M 1600 4750 
Q 1800 4750 1984 4673 
Q 2169 4597 2303 4453 
Q 2447 4313 2519 4134 
Q 2591 3956 2591 3750 
Q 2591 3338 2302 3052 
Q 2013 2766 1594 2766 
Q 1172 2766 890 3047 
Q 609 3328 609 3750 
Q 609 4169 896 4459 
Q 1184 4750 1600 4750 
z
" transform="scale(0.015625)"/>
       <path id="DejaVuSans-43" d="M 4122 4306 
L 4122 3641 
Q 3803 3938 3442 4084 
Q 3081 4231 2675 4231 
Q 1875 4231 1450 3742 
Q 1025 3253 1025 2328 
Q 1025 1406 1450 917 
Q 1875 428 2675 428 
Q 3081 428 3442 575 
Q 3803 722 4122 1019 
L 4122 359 
Q 3791 134 3420 21 
Q 3050 -91 2638 -91 
Q 1578 -91 968 557 
Q 359 1206 359 2328 
Q 359 3453 968 4101 
Q 1578 4750 2638 4750 
Q 3056 4750 3426 4639 
Q 3797 4528 4122 4306 
z
" transform="scale(0.015625)"/>
       <path id="DejaVuSans-28" d="M 1984 4856 
Q 1566 4138 1362 3434 
Q 1159 2731 1159 2009 
Q 1159 1288 1364 580 
Q 1569 -128 1984 -844 
L 1484 -844 
Q 1016 -109 783 600 
Q 550 1309 550 2009 
Q 550 2706 781 3412 
Q 1013 4119 1484 4856 
L 1984 4856 
z
" transform="scale(0.015625)"/>
       <path id="DejaVuSans-3d" d="M 678 2906 
L 4684 2906 
L 4684 2381 
L 678 2381 
L 678 2906 
z
M 678 1631 
L 4684 1631 
L 4684 1100 
L 678 1100 
L 678 1631 
z
" transform="scale(0.015625)"/>
       <path id="DejaVuSans-29" d="M 513 4856 
L 1013 4856 
Q 1481 4119 1714 3412 
Q 1947 2706 1947 2009 
Q 1947 1309 1714 600 
Q 1481 -109 1013 -844 
L 513 -844 
Q 928 -128 1133 580 
Q 1338 1288 1338 2009 
Q 1338 2731 1133 3434 
Q 928 4138 513 4856 
z
" transform="scale(0.015625)"/>
      </defs>
      <use xlink:href="#DejaVuSans-31"/>
      <use xlink:href="#DejaVuSans-2e" x="63.623047"/>
      <use xlink:href="#DejaVuSans-35" x="95.410156"/>
      <use xlink:href="#DejaVuSans-b0" x="159.033203"/>
      <use xlink:href="#DejaVuSans-43" x="209.033203"/>
      <use xlink:href="#DejaVuSans-20" x="278.857422"/>
      <use xlink:href="#DejaVuSans-28" x="310.644531"/>
      <use xlink:href="#DejaVuSans-6e" x="349.658203"/>
      <use xlink:href="#DejaVuSans-3d" x="413.037109"/>
      <use xlink:href="#DejaVuSans-32" x="496.826172"/>
      <use xlink:href="#DejaVuSans-29" x="560.449219"/>
     </g>
    </g>
    <g id="line2d_19">
     <path d="M 616.971755 180.070688 
L 638.971755 180.070688 
L 660.971755 180.070688 
" style="fill: none; stroke: #f47100; stroke-opacity: 0.5; stroke-width: 6; stroke-linecap: square"/>
    </g>
    <g id="text_17">
     <!-- 2.2C (n=14) -->
     <g transform="translate(678.571755 187.770688)scale(0.22 -0.22)">
      <use xlink:href="#DejaVuSans-32"/>
      <use xlink:href="#DejaVuSans-2e" x="63.623047"/>
      <use xlink:href="#DejaVuSans-32" x="95.410156"/>
      <use xlink:href="#DejaVuSans-b0" x="159.033203"/>
      <use xlink:href="#DejaVuSans-43" x="209.033203"/>
      <use xlink:href="#DejaVuSans-20" x="278.857422"/>
      <use xlink:href="#DejaVuSans-28" x="310.644531"/>
      <use xlink:href="#DejaVuSans-6e" x="349.658203"/>
      <use xlink:href="#DejaVuSans-3d" x="413.037109"/>
      <use xlink:href="#DejaVuSans-31" x="496.826172"/>
      <use xlink:href="#DejaVuSans-34" x="560.449219"/>
      <use xlink:href="#DejaVuSans-29" x="624.072266"/>
     </g>
    </g>
    <g id="line2d_20">
     <path d="M 616.971755 204.662563 
L 638.971755 204.662563 
L 660.971755 204.662563 
" style="fill: none; stroke: #d01e04; stroke-opacity: 0.5; stroke-width: 6; stroke-linecap: square"/>
    </g>
    <g id="text_18">
     <!-- 2.8C (n=12) -->
     <g transform="translate(678.571755 212.362563)scale(0.22 -0.22)">
      <use xlink:href="#DejaVuSans-32"/>
      <use xlink:href="#DejaVuSans-2e" x="63.623047"/>
      <use xlink:href="#DejaVuSans-38" x="95.410156"/>
      <use xlink:href="#DejaVuSans-b0" x="159.033203"/>
      <use xlink:href="#DejaVuSans-43" x="209.033203"/>
      <use xlink:href="#DejaVuSans-20" x="278.857422"/>
      <use xlink:href="#DejaVuSans-28" x="310.644531"/>
      <use xlink:href="#DejaVuSans-6e" x="349.658203"/>
      <use xlink:href="#DejaVuSans-3d" x="413.037109"/>
      <use xlink:href="#DejaVuSans-31" x="496.826172"/>
      <use xlink:href="#DejaVuSans-32" x="560.449219"/>
      <use xlink:href="#DejaVuSans-29" x="624.072266"/>
     </g>
    </g>
   </g>
  </g>
 </g>
 <defs>
  <clipPath id="p3458b6d5d7">
   <rect x="109.64" y="52.8" width="749.280192" height="462.76"/>
  </clipPath>
 </defs>
</svg>
