<?xml version="1.0" encoding="utf-8" standalone="no"?>
<!DOCTYPE svg PUBLIC "-//W3C//DTD SVG 1.1//EN"
  "http://www.w3.org/Graphics/SVG/1.1/DTD/svg11.dtd">
<svg xmlns:xlink="http://www.w3.org/1999/xlink" width="900pt" height="600pt" viewBox="0 0 900 600" xmlns="http://www.w3.org/2000/svg" version="1.1">
 <metadata>
  <rdf:RDF xmlns:dc="http://purl.org/dc/elements/1.1/" xmlns:cc="http://creativecommons.org/ns#" xmlns:rdf="http://www.w3.org/1999/02/22-rdf-syntax-ns#">
   <cc:Work>
    <dc:type rdf:resource="http://purl.org/dc/dcmitype/StillImage"/>
    <dc:date>2024-10-31T18:28:32.884792</dc:date>
    <dc:format>image/svg+xml</dc:format>
    <dc:creator>
     <cc:Agent>
      <dc:title>Matplotlib v3.5.3, https://matplotlib.org/</dc:title>
     </cc:Agent>
    </dc:creator>
   </cc:Work>
  </rdf:RDF>
 </metadata>
 <defs>
  <style type="text/css">*{stroke-linejoin: round; stroke-linecap: butt}</style>
 </defs>
 <g id="figure_1">
  <g id="patch_1">
   <path d="M 0 600 
L 900 600 
L 900 0 
L 0 0 
z
" style="fill: #ffffff"/>
  </g>
  <g id="axes_1">
   <g id="patch_2">
    <path d="M 109.64 515.56 
L 858.920192 515.56 
L 858.920192 52.8 
L 109.64 52.8 
z
" style="fill: #ffffff"/>
   </g>
   <g id="PolyCollection_1">
    <defs>
     <path id="m06056f8d60" d="M 167.276938 -453.249367 
L 167.276938 -453.056161 
L 169.678477 -451.496299 
L 172.080016 -449.881201 
L 174.481555 -448.267543 
L 176.883094 -446.645397 
L 179.284633 -444.971968 
L 181.686172 -443.229223 
L 184.087711 -441.479505 
L 186.48925 -439.726075 
L 188.89079 -437.885372 
L 191.292329 -436.052288 
L 193.693868 -434.243194 
L 196.095407 -432.407455 
L 198.496946 -430.536172 
L 200.898485 -428.645401 
L 203.300024 -426.761937 
L 205.701563 -424.890588 
L 208.103102 -422.966092 
L 210.504641 -421.061998 
L 212.90618 -419.171543 
L 215.307719 -417.275894 
L 217.709259 -415.362908 
L 220.110798 -413.393843 
L 222.512337 -411.418032 
L 224.913876 -409.415514 
L 227.315415 -407.399387 
L 229.716954 -405.409249 
L 232.118493 -403.427872 
L 234.520032 -401.477335 
L 236.921571 -399.600109 
L 239.32311 -397.741279 
L 241.724649 -395.818935 
L 244.126188 -393.918153 
L 246.527727 -392.03427 
L 248.929267 -390.183913 
L 251.330806 -388.322844 
L 253.732345 -386.494366 
L 256.133884 -384.731317 
L 258.535423 -382.91213 
L 260.936962 -381.115322 
L 263.338501 -379.342118 
L 265.74004 -377.575898 
L 268.141579 -375.895467 
L 270.543118 -374.23944 
L 272.944657 -372.627643 
L 275.346196 -371.045591 
L 277.747735 -369.461539 
L 280.149275 -367.919935 
L 282.550814 -366.429378 
L 284.952353 -364.945031 
L 287.353892 -363.45526 
L 289.755431 -362.017112 
L 292.15697 -360.574243 
L 294.558509 -359.142861 
L 296.960048 -357.680299 
L 299.361587 -356.24772 
L 301.763126 -354.830991 
L 304.164665 -353.417994 
L 306.566204 -352.100825 
L 308.967743 -350.857671 
L 311.369283 -349.63786 
L 313.770822 -348.427759 
L 316.172361 -347.2201 
L 318.5739 -346.034508 
L 320.975439 -344.834097 
L 323.376978 -343.66775 
L 325.778517 -342.500161 
L 328.180056 -341.347244 
L 330.581595 -340.176382 
L 332.983134 -339.003809 
L 335.384673 -337.8538 
L 337.786212 -336.77336 
L 340.187751 -335.717072 
L 342.589291 -334.703495 
L 344.99083 -333.718768 
L 347.392369 -332.759668 
L 349.793908 -331.80477 
L 352.195447 -330.85751 
L 354.596986 -329.903872 
L 356.998525 -328.925233 
L 359.400064 -327.971081 
L 361.801603 -327.035757 
L 364.203142 -326.115758 
L 366.604681 -325.21192 
L 369.00622 -324.316908 
L 371.407759 -323.421251 
L 373.809299 -322.534751 
L 376.210838 -321.643645 
L 378.612377 -320.74093 
L 381.013916 -319.875979 
L 383.415455 -319.050702 
L 385.816994 -318.210473 
L 388.218533 -317.388672 
L 390.620072 -316.559603 
L 393.021611 -315.760521 
L 395.42315 -314.955921 
L 397.824689 -314.16723 
L 400.226228 -313.395862 
L 402.627768 -312.638919 
L 405.029307 -311.880477 
L 407.430846 -311.129363 
L 409.832385 -310.396656 
L 412.233924 -309.659434 
L 414.635463 -308.91935 
L 417.037002 -308.219438 
L 419.438541 -307.538133 
L 421.84008 -306.869913 
L 424.241619 -306.218678 
L 426.643158 -305.581519 
L 429.044697 -304.927029 
L 431.446236 -304.246832 
L 433.847776 -303.541869 
L 436.249315 -302.840988 
L 438.650854 -302.19024 
L 441.052393 -301.532538 
L 443.453932 -300.874838 
L 445.855471 -300.235111 
L 448.25701 -299.62035 
L 450.658549 -299.037356 
L 453.060088 -298.466954 
L 455.461627 -297.934358 
L 457.863166 -297.39306 
L 460.264705 -296.868228 
L 462.666244 -296.339559 
L 465.067784 -295.834607 
L 467.469323 -295.33683 
L 469.870862 -294.869892 
L 472.272401 -294.363784 
L 474.67394 -293.888922 
L 477.075479 -293.434079 
L 479.477018 -292.984454 
L 481.878557 -292.55704 
L 484.280096 -292.139082 
L 486.681635 -291.686095 
L 489.083174 -291.229699 
L 491.484713 -290.771194 
L 493.886252 -290.30947 
L 496.287792 -289.83452 
L 498.689331 -289.345473 
L 501.09087 -288.862648 
L 503.492409 -288.34547 
L 505.893948 -287.81385 
L 508.295487 -287.295543 
L 510.697026 -286.798127 
L 513.098565 -286.26837 
L 515.500104 -285.720242 
L 517.901643 -285.1529 
L 520.303182 -284.617751 
L 522.704721 -284.075441 
L 525.10626 -283.497482 
L 527.5078 -282.906777 
L 529.909339 -282.311623 
L 532.310878 -281.712099 
L 534.712417 -281.101124 
L 537.113956 -280.514554 
L 539.515495 -279.958461 
L 541.917034 -279.380823 
L 544.318573 -278.825624 
L 546.720112 -278.294115 
L 549.121651 -277.767116 
L 551.52319 -277.243988 
L 553.924729 -276.775432 
L 556.326268 -276.288772 
L 558.727808 -275.804043 
L 561.129347 -275.336294 
L 563.530886 -274.882202 
L 565.932425 -274.468384 
L 568.333964 -274.047665 
L 570.735503 -273.633023 
L 573.137042 -273.250785 
L 575.538581 -272.891044 
L 577.94012 -272.527332 
L 580.341659 -272.160945 
L 582.743198 -271.821364 
L 585.144737 -271.469254 
L 587.546277 -271.117829 
L 589.947816 -270.772818 
L 592.349355 -270.432533 
L 594.750894 -270.086762 
L 597.152433 -269.733346 
L 599.553972 -269.391828 
L 601.955511 -269.00614 
L 604.35705 -268.62458 
L 606.758589 -268.227151 
L 609.160128 -267.825116 
L 611.561667 -267.43803 
L 613.963206 -267.03562 
L 616.364745 -266.649759 
L 618.766285 -266.253166 
L 621.167824 -265.898101 
L 623.569363 -265.542968 
L 625.970902 -265.196697 
L 628.372441 -264.872715 
L 630.77398 -264.551812 
L 633.175519 -264.24671 
L 635.577058 -263.933224 
L 637.978597 -263.615215 
L 640.380136 -263.300779 
L 642.781675 -262.959075 
L 645.183214 -262.650063 
L 647.584753 -262.340741 
L 649.986293 -262.034276 
L 652.387832 -261.718941 
L 654.789371 -261.390573 
L 657.19091 -261.058469 
L 659.592449 -260.717662 
L 661.993988 -260.378126 
L 664.395527 -260.045801 
L 666.797066 -259.734001 
L 669.198605 -259.378601 
L 671.600144 -259.008298 
L 674.001683 -258.639265 
L 676.403222 -258.248327 
L 678.804761 -257.844189 
L 681.206301 -257.395225 
L 683.60784 -256.960714 
L 686.009379 -256.54362 
L 688.410918 -256.133032 
L 690.812457 -255.74281 
L 693.213996 -255.342143 
L 695.615535 -254.943828 
L 698.017074 -254.545334 
L 700.418613 -254.15844 
L 702.820152 -253.804354 
L 705.221691 -253.47349 
L 707.62323 -253.15964 
L 710.024769 -252.865694 
L 712.426309 -252.569745 
L 714.827848 -252.264435 
L 717.229387 -251.957387 
L 719.630926 -251.659326 
L 722.032465 -251.356185 
L 724.434004 -251.077588 
L 726.835543 -250.807267 
L 729.237082 -250.58156 
L 731.638621 -250.364773 
L 734.04016 -250.144825 
L 736.441699 -249.899792 
L 738.843238 -249.636816 
L 741.244777 -249.390996 
L 743.646317 -249.153385 
L 746.047856 -248.947484 
L 748.449395 -248.745147 
L 750.850934 -248.533983 
L 753.252473 -248.312434 
L 755.654012 -248.058039 
L 758.055551 -247.804243 
L 760.45709 -247.550363 
L 762.858629 -247.279116 
L 765.260168 -247.026564 
L 767.661707 -246.78424 
L 770.063246 -246.561536 
L 772.464786 -246.330823 
L 774.866325 -246.127615 
L 777.267864 -245.937563 
L 779.669403 -245.728576 
L 782.070942 -245.511759 
L 784.472481 -245.342268 
L 786.87402 -245.172046 
L 789.275559 -244.988048 
L 791.677098 -244.811531 
L 794.078637 -244.644821 
L 796.480176 -244.464212 
L 798.881715 -244.278018 
L 801.283254 -244.100055 
L 803.684794 -243.956376 
L 806.086333 -243.789781 
L 808.487872 -243.631882 
L 810.889411 -243.485467 
L 813.29095 -243.350002 
L 815.692489 -243.229219 
L 818.094028 -243.184031 
L 820.495567 -243.1504 
L 822.897106 -243.096281 
L 825.298645 -243.02301 
L 827.700184 -242.953025 
L 830.101723 -242.899942 
L 832.503262 -242.790541 
L 834.904802 -242.69457 
L 837.306341 -242.599853 
L 837.306341 -270.712492 
L 837.306341 -270.712492 
L 834.904802 -270.780431 
L 832.503262 -270.849738 
L 830.101723 -270.934995 
L 827.700184 -270.952709 
L 825.298645 -271.000133 
L 822.897106 -271.052863 
L 820.495567 -271.083229 
L 818.094028 -271.085496 
L 815.692489 -271.096665 
L 813.29095 -271.152511 
L 810.889411 -271.230572 
L 808.487872 -271.326439 
L 806.086333 -271.429973 
L 803.684794 -271.545353 
L 801.283254 -271.628357 
L 798.881715 -271.755664 
L 796.480176 -271.887229 
L 794.078637 -272.005566 
L 791.677098 -272.102595 
L 789.275559 -272.213161 
L 786.87402 -272.329393 
L 784.472481 -272.42737 
L 782.070942 -272.531313 
L 779.669403 -272.690181 
L 777.267864 -272.824984 
L 774.866325 -272.929784 
L 772.464786 -273.047816 
L 770.063246 -273.19889 
L 767.661707 -273.344241 
L 765.260168 -273.510504 
L 762.858629 -273.69191 
L 760.45709 -273.893122 
L 758.055551 -274.076353 
L 755.654012 -274.26066 
L 753.252473 -274.452416 
L 750.850934 -274.606778 
L 748.449395 -274.751595 
L 746.047856 -274.888468 
L 743.646317 -275.034428 
L 741.244777 -275.218472 
L 738.843238 -275.414434 
L 736.441699 -275.638678 
L 734.04016 -275.831234 
L 731.638621 -275.994972 
L 729.237082 -276.162843 
L 726.835543 -276.344343 
L 724.434004 -276.57663 
L 722.032465 -276.817225 
L 719.630926 -277.086323 
L 717.229387 -277.344627 
L 714.827848 -277.612048 
L 712.426309 -277.880348 
L 710.024769 -278.132544 
L 707.62323 -278.378948 
L 705.221691 -278.64037 
L 702.820152 -278.92077 
L 700.418613 -279.227806 
L 698.017074 -279.567315 
L 695.615535 -279.914057 
L 693.213996 -280.265211 
L 690.812457 -280.619504 
L 688.410918 -280.955863 
L 686.009379 -281.321802 
L 683.60784 -281.701292 
L 681.206301 -282.099855 
L 678.804761 -282.519277 
L 676.403222 -282.886236 
L 674.001683 -283.245143 
L 671.600144 -283.577587 
L 669.198605 -283.920622 
L 666.797066 -284.245224 
L 664.395527 -284.511889 
L 661.993988 -284.805766 
L 659.592449 -285.107857 
L 657.19091 -285.414753 
L 654.789371 -285.713196 
L 652.387832 -286.006212 
L 649.986293 -286.290729 
L 647.584753 -286.570489 
L 645.183214 -286.842456 
L 642.781675 -287.117651 
L 640.380136 -287.431624 
L 637.978597 -287.707505 
L 635.577058 -287.983777 
L 633.175519 -288.254995 
L 630.77398 -288.516944 
L 628.372441 -288.801719 
L 625.970902 -289.08502 
L 623.569363 -289.391355 
L 621.167824 -289.705598 
L 618.766285 -290.016097 
L 616.364745 -290.378503 
L 613.963206 -290.723666 
L 611.561667 -291.095824 
L 609.160128 -291.450384 
L 606.758589 -291.821856 
L 604.35705 -292.1947 
L 601.955511 -292.546995 
L 599.553972 -292.903536 
L 597.152433 -293.214493 
L 594.750894 -293.535657 
L 592.349355 -293.85039 
L 589.947816 -294.16265 
L 587.546277 -294.478907 
L 585.144737 -294.803192 
L 582.743198 -295.124816 
L 580.341659 -295.424805 
L 577.94012 -295.752274 
L 575.538581 -296.079565 
L 573.137042 -296.395957 
L 570.735503 -296.738016 
L 568.333964 -297.109012 
L 565.932425 -297.494517 
L 563.530886 -297.867657 
L 561.129347 -298.285942 
L 558.727808 -298.715292 
L 556.326268 -299.156772 
L 553.924729 -299.601601 
L 551.52319 -300.01856 
L 549.121651 -300.501958 
L 546.720112 -300.988647 
L 544.318573 -301.473327 
L 541.917034 -301.986926 
L 539.515495 -302.525486 
L 537.113956 -303.03709 
L 534.712417 -303.583296 
L 532.310878 -304.157715 
L 529.909339 -304.719924 
L 527.5078 -305.273658 
L 525.10626 -305.825142 
L 522.704721 -306.361002 
L 520.303182 -306.864302 
L 517.901643 -307.348135 
L 515.500104 -307.8621 
L 513.098565 -308.354075 
L 510.697026 -308.824841 
L 508.295487 -309.258981 
L 505.893948 -309.712184 
L 503.492409 -310.180408 
L 501.09087 -310.623238 
L 498.689331 -311.024843 
L 496.287792 -311.433408 
L 493.886252 -311.82453 
L 491.484713 -312.199626 
L 489.083174 -312.57358 
L 486.681635 -312.942375 
L 484.280096 -313.304757 
L 481.878557 -313.622383 
L 479.477018 -313.951055 
L 477.075479 -314.298791 
L 474.67394 -314.653037 
L 472.272401 -315.024506 
L 469.870862 -315.430679 
L 467.469323 -315.798405 
L 465.067784 -316.197333 
L 462.666244 -316.60284 
L 460.264705 -317.035451 
L 457.863166 -317.467088 
L 455.461627 -317.918558 
L 453.060088 -318.354992 
L 450.658549 -318.831951 
L 448.25701 -319.313629 
L 445.855471 -319.826769 
L 443.453932 -320.366392 
L 441.052393 -320.91917 
L 438.650854 -321.47105 
L 436.249315 -322.013722 
L 433.847776 -322.609105 
L 431.446236 -323.206941 
L 429.044697 -323.778942 
L 426.643158 -324.319743 
L 424.241619 -324.839715 
L 421.84008 -325.379692 
L 419.438541 -325.937495 
L 417.037002 -326.506327 
L 414.635463 -327.096992 
L 412.233924 -327.730864 
L 409.832385 -328.355374 
L 407.430846 -328.96678 
L 405.029307 -329.602638 
L 402.627768 -330.251819 
L 400.226228 -330.899117 
L 397.824689 -331.559195 
L 395.42315 -332.24034 
L 393.021611 -332.940555 
L 390.620072 -333.62929 
L 388.218533 -334.353006 
L 385.816994 -335.067416 
L 383.415455 -335.803629 
L 381.013916 -336.518131 
L 378.612377 -337.276759 
L 376.210838 -338.073993 
L 373.809299 -338.858728 
L 371.407759 -339.630789 
L 369.00622 -340.412261 
L 366.604681 -341.190816 
L 364.203142 -341.970576 
L 361.801603 -342.764052 
L 359.400064 -343.574827 
L 356.998525 -344.402607 
L 354.596986 -345.24618 
L 352.195447 -346.06026 
L 349.793908 -346.86095 
L 347.392369 -347.662589 
L 344.99083 -348.463813 
L 342.589291 -349.284198 
L 340.187751 -350.134154 
L 337.786212 -351.022733 
L 335.384673 -351.931487 
L 332.983134 -352.909186 
L 330.581595 -353.89895 
L 328.180056 -354.874003 
L 325.778517 -355.81546 
L 323.376978 -356.761593 
L 320.975439 -357.704855 
L 318.5739 -358.678468 
L 316.172361 -359.634744 
L 313.770822 -360.617429 
L 311.369283 -361.598852 
L 308.967743 -362.581276 
L 306.566204 -363.587427 
L 304.164665 -364.671109 
L 301.763126 -365.855173 
L 299.361587 -367.039118 
L 296.960048 -368.232576 
L 294.558509 -369.466171 
L 292.15697 -370.662275 
L 289.755431 -371.877406 
L 287.353892 -373.087148 
L 284.952353 -374.358524 
L 282.550814 -375.633635 
L 280.149275 -376.920615 
L 277.747735 -378.267039 
L 275.346196 -379.674682 
L 272.944657 -381.074132 
L 270.543118 -382.500213 
L 268.141579 -383.97287 
L 265.74004 -385.473525 
L 263.338501 -387.063587 
L 260.936962 -388.666674 
L 258.535423 -390.288023 
L 256.133884 -391.921749 
L 253.732345 -393.493576 
L 251.330806 -395.126826 
L 248.929267 -396.803849 
L 246.527727 -398.461908 
L 244.126188 -400.155007 
L 241.724649 -401.862584 
L 239.32311 -403.5886 
L 236.921571 -405.235222 
L 234.520032 -406.896332 
L 232.118493 -408.641012 
L 229.716954 -410.422194 
L 227.315415 -412.205644 
L 224.913876 -414.021163 
L 222.512337 -415.825852 
L 220.110798 -417.602051 
L 217.709259 -419.366259 
L 215.307719 -421.073682 
L 212.90618 -422.761092 
L 210.504641 -424.449842 
L 208.103102 -426.150541 
L 205.701563 -427.885067 
L 203.300024 -429.569199 
L 200.898485 -431.26123 
L 198.496946 -432.966096 
L 196.095407 -434.650342 
L 193.693868 -436.305853 
L 191.292329 -437.933332 
L 188.89079 -439.59614 
L 186.48925 -441.299472 
L 184.087711 -442.897437 
L 181.686172 -444.483957 
L 179.284633 -446.075031 
L 176.883094 -447.588635 
L 174.481555 -449.070593 
L 172.080016 -450.513452 
L 169.678477 -451.9155 
L 167.276938 -453.249367 
z
" style="stroke: #74b8f8; stroke-opacity: 0.2"/>
    </defs>
    <g clip-path="url(#p00b2460530)">
     <use xlink:href="#m06056f8d60" x="0" y="600" style="fill: #74b8f8; fill-opacity: 0.2; stroke: #74b8f8; stroke-opacity: 0.2"/>
    </g>
   </g>
   <g id="PolyCollection_2">
    <defs>
     <path id="m0917f3ac44" d="M 116.844617 -474.632332 
L 116.844617 -471.72151 
L 119.246156 -471.210447 
L 121.647695 -470.587226 
L 124.049234 -470.052457 
L 126.450774 -469.55386 
L 128.852313 -469.082902 
L 131.253852 -468.601005 
L 133.655391 -468.156181 
L 136.05693 -467.659039 
L 138.458469 -467.110183 
L 140.860008 -466.581153 
L 143.261547 -465.471437 
L 145.663086 -464.351259 
L 148.064625 -463.220831 
L 150.466164 -462.05786 
L 152.867703 -460.904412 
L 155.269242 -459.744472 
L 157.670782 -458.531826 
L 160.072321 -457.295784 
L 162.47386 -455.983615 
L 164.875399 -454.648 
L 164.875399 -454.648 
L 164.875399 -454.648 
L 162.47386 -456.1982 
L 160.072321 -457.68151 
L 157.670782 -459.11168 
L 155.269242 -460.523388 
L 152.867703 -461.880672 
L 150.466164 -463.208781 
L 148.064625 -464.539997 
L 145.663086 -465.872124 
L 143.261547 -467.16914 
L 140.860008 -468.423076 
L 138.458469 -469.073659 
L 136.05693 -469.735093 
L 133.655391 -470.344796 
L 131.253852 -470.919497 
L 128.852313 -471.529596 
L 126.450774 -472.163139 
L 124.049234 -472.788118 
L 121.647695 -473.384985 
L 119.246156 -474.039963 
L 116.844617 -474.632332 
z
" style="stroke: #000000; stroke-opacity: 0.2"/>
    </defs>
    <g clip-path="url(#p00b2460530)">
     <use xlink:href="#m0917f3ac44" x="0" y="600" style="fill-opacity: 0.2; stroke: #000000; stroke-opacity: 0.2"/>
    </g>
   </g>
   <g id="PolyCollection_3">
    <defs>
     <path id="mc8401b37aa" d="M 167.276938 -453.474609 
L 167.276938 -452.974695 
L 169.678477 -451.363007 
L 172.080016 -449.684432 
L 174.481555 -447.928536 
L 176.883094 -446.05603 
L 179.284633 -444.12048 
L 181.686172 -442.099491 
L 184.087711 -440.039065 
L 186.48925 -437.924818 
L 188.89079 -435.748846 
L 191.292329 -433.502743 
L 193.693868 -431.124009 
L 196.095407 -428.695537 
L 198.496946 -426.139837 
L 200.898485 -423.612162 
L 203.300024 -421.19767 
L 205.701563 -418.782181 
L 208.103102 -416.334911 
L 210.504641 -413.767179 
L 212.90618 -411.260212 
L 215.307719 -408.860019 
L 217.709259 -406.45436 
L 220.110798 -404.019235 
L 222.512337 -401.515164 
L 224.913876 -399.026073 
L 227.315415 -396.379479 
L 229.716954 -393.650516 
L 232.118493 -390.897074 
L 234.520032 -388.164147 
L 236.921571 -385.366943 
L 239.32311 -382.601054 
L 241.724649 -379.761852 
L 244.126188 -376.898464 
L 246.527727 -374.07518 
L 248.929267 -371.240023 
L 251.330806 -368.322928 
L 253.732345 -365.386684 
L 256.133884 -362.567031 
L 258.535423 -359.997354 
L 260.936962 -357.472833 
L 263.338501 -354.981155 
L 265.74004 -352.440728 
L 268.141579 -349.92391 
L 270.543118 -347.404606 
L 272.944657 -344.876705 
L 275.346196 -342.322564 
L 277.747735 -339.803738 
L 280.149275 -337.267572 
L 282.550814 -334.766445 
L 284.952353 -332.291502 
L 287.353892 -329.8214 
L 289.755431 -327.426528 
L 292.15697 -325.059834 
L 294.558509 -322.753034 
L 296.960048 -320.490154 
L 299.361587 -318.253583 
L 301.763126 -316.081312 
L 304.164665 -313.955355 
L 306.566204 -311.888437 
L 308.967743 -309.848535 
L 311.369283 -307.861665 
L 313.770822 -305.939233 
L 316.172361 -304.049386 
L 318.5739 -302.201778 
L 320.975439 -300.394452 
L 323.376978 -298.276685 
L 325.778517 -296.171004 
L 328.180056 -294.160712 
L 330.581595 -292.152279 
L 332.983134 -290.179953 
L 335.384673 -288.296426 
L 337.786212 -286.455479 
L 340.187751 -284.647585 
L 342.589291 -282.865974 
L 344.99083 -281.102265 
L 347.392369 -279.32794 
L 349.793908 -277.547398 
L 352.195447 -275.80187 
L 354.596986 -273.886619 
L 356.998525 -271.939063 
L 359.400064 -270.007766 
L 361.801603 -268.083881 
L 364.203142 -266.19854 
L 366.604681 -264.358654 
L 369.00622 -262.514186 
L 371.407759 -260.668561 
L 373.809299 -258.849734 
L 376.210838 -257.020351 
L 378.612377 -255.233633 
L 381.013916 -253.459789 
L 383.415455 -251.685733 
L 385.816994 -249.914027 
L 388.218533 -248.193279 
L 390.620072 -246.496658 
L 393.021611 -244.854043 
L 395.42315 -243.278115 
L 397.824689 -241.780426 
L 400.226228 -240.326938 
L 402.627768 -238.89639 
L 405.029307 -237.536461 
L 407.430846 -236.23087 
L 409.832385 -234.957977 
L 412.233924 -233.685873 
L 414.635463 -232.440713 
L 417.037002 -231.287939 
L 419.438541 -230.165436 
L 421.84008 -229.073297 
L 424.241619 -228.011101 
L 426.643158 -226.940675 
L 429.044697 -225.932848 
L 431.446236 -224.967585 
L 433.847776 -224.010605 
L 436.249315 -223.066707 
L 438.650854 -222.129407 
L 441.052393 -221.165484 
L 443.453932 -220.161589 
L 445.855471 -219.145382 
L 448.25701 -218.106313 
L 450.658549 -217.056667 
L 453.060088 -216.012277 
L 455.461627 -214.920225 
L 457.863166 -213.797069 
L 460.264705 -212.665566 
L 462.666244 -211.508068 
L 465.067784 -210.290797 
L 467.469323 -209.041809 
L 469.870862 -207.772358 
L 472.272401 -206.502968 
L 474.67394 -205.216332 
L 477.075479 -203.878765 
L 479.477018 -202.545852 
L 481.878557 -201.220638 
L 484.280096 -199.904759 
L 486.681635 -198.599214 
L 489.083174 -197.281556 
L 491.484713 -195.988779 
L 493.886252 -194.695256 
L 496.287792 -193.386167 
L 498.689331 -192.110125 
L 501.09087 -190.829962 
L 503.492409 -189.577135 
L 505.893948 -188.372798 
L 508.295487 -187.192697 
L 510.697026 -186.027276 
L 513.098565 -184.910729 
L 515.500104 -183.851767 
L 517.901643 -182.805092 
L 520.303182 -181.787774 
L 522.704721 -180.822467 
L 525.10626 -179.897227 
L 527.5078 -178.972016 
L 529.909339 -178.092965 
L 532.310878 -177.226765 
L 534.712417 -176.366294 
L 537.113956 -175.511553 
L 539.515495 -174.668117 
L 541.917034 -173.824836 
L 544.318573 -173.013949 
L 546.720112 -172.226507 
L 549.121651 -171.465992 
L 551.52319 -170.752865 
L 553.924729 -170.046517 
L 556.326268 -169.367347 
L 558.727808 -168.710097 
L 561.129347 -168.074711 
L 563.530886 -167.454473 
L 565.932425 -166.846461 
L 568.333964 -166.245158 
L 570.735503 -165.675903 
L 573.137042 -165.120499 
L 575.538581 -164.595447 
L 577.94012 -164.067727 
L 580.341659 -163.552168 
L 582.743198 -162.983849 
L 585.144737 -162.267402 
L 587.546277 -161.563521 
L 589.947816 -160.881814 
L 592.349355 -160.218592 
L 594.750894 -159.565486 
L 597.152433 -158.911705 
L 599.553972 -158.245895 
L 601.955511 -157.589338 
L 604.35705 -156.946735 
L 606.758589 -156.304923 
L 609.160128 -155.654861 
L 611.561667 -155.000059 
L 613.963206 -154.39247 
L 616.364745 -153.785458 
L 618.766285 -153.177404 
L 621.167824 -152.572856 
L 623.569363 -151.961705 
L 625.970902 -151.34956 
L 628.372441 -150.763988 
L 630.77398 -150.18553 
L 633.175519 -149.616797 
L 635.577058 -149.048249 
L 637.978597 -148.477379 
L 640.380136 -147.900105 
L 642.781675 -147.319961 
L 645.183214 -146.759193 
L 647.584753 -146.219619 
L 649.986293 -145.687597 
L 652.387832 -145.146083 
L 654.789371 -144.613737 
L 657.19091 -144.082556 
L 659.592449 -143.554029 
L 661.993988 -143.019487 
L 664.395527 -142.490915 
L 666.797066 -141.958781 
L 669.198605 -141.443406 
L 671.600144 -140.937868 
L 674.001683 -140.45118 
L 676.403222 -139.966823 
L 678.804761 -139.485345 
L 681.206301 -139.016825 
L 683.60784 -138.561642 
L 686.009379 -138.108692 
L 688.410918 -137.671566 
L 690.812457 -137.246774 
L 693.213996 -136.833493 
L 695.615535 -136.424761 
L 698.017074 -136.020433 
L 700.418613 -135.62573 
L 702.820152 -135.234383 
L 705.221691 -134.854345 
L 707.62323 -134.489965 
L 710.024769 -134.136006 
L 712.426309 -133.79816 
L 714.827848 -133.474828 
L 717.229387 -133.148835 
L 719.630926 -132.831694 
L 722.032465 -132.518856 
L 724.434004 -132.215034 
L 726.835543 -131.920606 
L 729.237082 -131.623632 
L 731.638621 -131.330881 
L 734.04016 -131.04577 
L 736.441699 -130.770551 
L 738.843238 -130.492378 
L 741.244777 -130.20169 
L 743.646317 -129.901917 
L 746.047856 -129.59857 
L 748.449395 -129.310972 
L 750.850934 -129.038261 
L 753.252473 -128.764622 
L 755.654012 -128.501582 
L 758.055551 -128.251045 
L 760.45709 -128.003187 
L 762.858629 -127.762594 
L 765.260168 -127.540333 
L 767.661707 -127.328952 
L 770.063246 -127.122878 
L 772.464786 -126.905969 
L 774.866325 -126.687729 
L 777.267864 -126.469321 
L 779.669403 -126.254194 
L 782.070942 -126.040498 
L 784.472481 -125.826181 
L 786.87402 -125.624354 
L 789.275559 -125.439884 
L 791.677098 -125.275366 
L 794.078637 -125.119085 
L 796.480176 -124.946355 
L 798.881715 -124.688394 
L 801.283254 -124.428603 
L 803.684794 -124.160709 
L 806.086333 -123.884563 
L 808.487872 -123.595998 
L 810.889411 -123.29971 
L 813.29095 -123.126441 
L 815.692489 -122.980558 
L 818.094028 -122.909828 
L 820.495567 -122.836066 
L 822.897106 -122.764841 
L 825.298645 -122.697995 
L 827.700184 -122.629476 
L 830.101723 -122.565912 
L 832.503262 -122.50594 
L 834.904802 -122.439191 
L 837.306341 -122.370539 
L 837.306341 -273.153407 
L 837.306341 -273.153407 
L 834.904802 -273.241224 
L 832.503262 -273.312474 
L 830.101723 -273.370011 
L 827.700184 -273.429806 
L 825.298645 -273.516626 
L 822.897106 -273.610575 
L 820.495567 -273.716794 
L 818.094028 -273.84957 
L 815.692489 -273.97676 
L 813.29095 -274.303861 
L 810.889411 -274.634875 
L 808.487872 -274.920566 
L 806.086333 -275.166285 
L 803.684794 -275.398491 
L 801.283254 -275.639819 
L 798.881715 -275.836222 
L 796.480176 -276.06255 
L 794.078637 -276.308373 
L 791.677098 -276.535771 
L 789.275559 -276.76331 
L 786.87402 -276.986143 
L 784.472481 -277.218235 
L 782.070942 -277.487702 
L 779.669403 -277.791964 
L 777.267864 -278.106731 
L 774.866325 -278.414563 
L 772.464786 -278.739747 
L 770.063246 -279.029528 
L 767.661707 -279.315877 
L 765.260168 -279.582463 
L 762.858629 -279.820186 
L 760.45709 -280.065836 
L 758.055551 -280.310894 
L 755.654012 -280.518135 
L 753.252473 -280.707881 
L 750.850934 -280.877579 
L 748.449395 -281.051222 
L 746.047856 -281.221429 
L 743.646317 -281.426842 
L 741.244777 -281.648823 
L 738.843238 -281.88199 
L 736.441699 -282.133779 
L 734.04016 -282.379005 
L 731.638621 -282.644508 
L 729.237082 -282.93287 
L 726.835543 -283.2249 
L 724.434004 -283.483135 
L 722.032465 -283.744675 
L 719.630926 -284.02797 
L 717.229387 -284.25945 
L 714.827848 -284.487043 
L 712.426309 -284.708627 
L 710.024769 -284.949727 
L 707.62323 -285.199667 
L 705.221691 -285.448571 
L 702.820152 -285.701191 
L 700.418613 -285.919469 
L 698.017074 -286.100889 
L 695.615535 -286.266533 
L 693.213996 -286.394641 
L 690.812457 -286.520579 
L 688.410918 -286.63817 
L 686.009379 -286.755679 
L 683.60784 -286.826733 
L 681.206301 -286.852512 
L 678.804761 -286.886203 
L 676.403222 -286.910468 
L 674.001683 -286.929202 
L 671.600144 -286.922108 
L 669.198605 -286.949023 
L 666.797066 -287.013924 
L 664.395527 -287.099412 
L 661.993988 -287.159679 
L 659.592449 -287.208719 
L 657.19091 -287.277198 
L 654.789371 -287.393196 
L 652.387832 -287.558495 
L 649.986293 -287.751127 
L 647.584753 -287.944829 
L 645.183214 -288.150414 
L 642.781675 -288.396737 
L 640.380136 -288.661432 
L 637.978597 -288.918191 
L 635.577058 -289.196738 
L 633.175519 -289.485389 
L 630.77398 -289.794223 
L 628.372441 -290.19257 
L 625.970902 -290.608875 
L 623.569363 -291.04442 
L 621.167824 -291.482008 
L 618.766285 -291.910049 
L 616.364745 -292.358728 
L 613.963206 -292.817172 
L 611.561667 -293.27987 
L 609.160128 -293.731352 
L 606.758589 -294.159815 
L 604.35705 -294.57571 
L 601.955511 -295.036473 
L 599.553972 -295.530068 
L 597.152433 -296.107846 
L 594.750894 -296.746398 
L 592.349355 -297.414842 
L 589.947816 -298.11036 
L 587.546277 -298.800955 
L 585.144737 -299.481506 
L 582.743198 -300.150167 
L 580.341659 -300.760082 
L 577.94012 -301.385009 
L 575.538581 -302.025914 
L 573.137042 -302.690979 
L 570.735503 -303.382069 
L 568.333964 -304.10021 
L 565.932425 -304.866475 
L 563.530886 -305.660506 
L 561.129347 -306.504869 
L 558.727808 -307.387798 
L 556.326268 -308.275411 
L 553.924729 -309.127877 
L 551.52319 -309.947139 
L 549.121651 -310.669818 
L 546.720112 -311.362508 
L 544.318573 -312.009281 
L 541.917034 -312.62409 
L 539.515495 -313.237636 
L 537.113956 -313.848374 
L 534.712417 -314.418227 
L 532.310878 -315.032176 
L 529.909339 -315.639086 
L 527.5078 -316.230623 
L 525.10626 -316.775944 
L 522.704721 -317.280145 
L 520.303182 -317.745781 
L 517.901643 -318.16961 
L 515.500104 -318.56417 
L 513.098565 -318.908489 
L 510.697026 -319.209354 
L 508.295487 -319.477774 
L 505.893948 -319.749382 
L 503.492409 -320.036431 
L 501.09087 -320.370343 
L 498.689331 -320.654175 
L 496.287792 -320.937644 
L 493.886252 -321.207353 
L 491.484713 -321.464061 
L 489.083174 -321.712864 
L 486.681635 -321.961615 
L 484.280096 -322.155957 
L 481.878557 -322.339587 
L 479.477018 -322.525596 
L 477.075479 -322.774857 
L 474.67394 -323.061976 
L 472.272401 -323.391723 
L 469.870862 -323.796373 
L 467.469323 -324.267406 
L 465.067784 -324.751036 
L 462.666244 -325.252494 
L 460.264705 -325.83299 
L 457.863166 -326.4603 
L 455.461627 -327.103511 
L 453.060088 -327.748441 
L 450.658549 -328.407424 
L 448.25701 -329.08535 
L 445.855471 -329.78883 
L 443.453932 -330.517148 
L 441.052393 -331.307843 
L 438.650854 -332.182774 
L 436.249315 -333.120913 
L 433.847776 -334.098747 
L 431.446236 -335.101939 
L 429.044697 -336.096979 
L 426.643158 -337.119467 
L 424.241619 -338.178705 
L 421.84008 -339.257725 
L 419.438541 -340.297865 
L 417.037002 -341.350758 
L 414.635463 -342.411697 
L 412.233924 -343.497011 
L 409.832385 -344.594717 
L 407.430846 -345.70893 
L 405.029307 -346.873846 
L 402.627768 -348.074458 
L 400.226228 -349.294659 
L 397.824689 -350.502232 
L 395.42315 -351.724586 
L 393.021611 -352.894113 
L 390.620072 -354.013596 
L 388.218533 -355.072692 
L 385.816994 -356.080224 
L 383.415455 -357.079228 
L 381.013916 -358.082286 
L 378.612377 -359.076397 
L 376.210838 -360.001391 
L 373.809299 -360.853886 
L 371.407759 -361.716397 
L 369.00622 -362.44691 
L 366.604681 -363.053586 
L 364.203142 -363.695805 
L 361.801603 -364.368872 
L 359.400064 -365.104579 
L 356.998525 -365.90461 
L 354.596986 -366.740422 
L 352.195447 -367.597448 
L 349.793908 -368.470017 
L 347.392369 -369.31761 
L 344.99083 -370.201752 
L 342.589291 -370.976115 
L 340.187751 -371.794225 
L 337.786212 -372.703671 
L 335.384673 -373.64244 
L 332.983134 -374.582886 
L 330.581595 -375.526345 
L 328.180056 -376.570483 
L 325.778517 -377.65787 
L 323.376978 -378.780636 
L 320.975439 -379.942505 
L 318.5739 -381.154107 
L 316.172361 -382.36374 
L 313.770822 -383.610757 
L 311.369283 -384.884569 
L 308.967743 -386.182092 
L 306.566204 -387.512651 
L 304.164665 -388.848919 
L 301.763126 -390.109988 
L 299.361587 -391.311062 
L 296.960048 -392.517238 
L 294.558509 -393.686779 
L 292.15697 -394.923248 
L 289.755431 -396.182429 
L 287.353892 -397.435615 
L 284.952353 -398.704238 
L 282.550814 -399.968009 
L 280.149275 -401.118345 
L 277.747735 -401.990936 
L 275.346196 -402.798455 
L 272.944657 -403.585606 
L 270.543118 -404.367223 
L 268.141579 -405.171169 
L 265.74004 -406.007261 
L 263.338501 -406.808651 
L 260.936962 -407.589375 
L 258.535423 -408.321455 
L 256.133884 -409.031442 
L 253.732345 -409.694548 
L 251.330806 -410.404824 
L 248.929267 -411.176044 
L 246.527727 -412.008113 
L 244.126188 -412.937365 
L 241.724649 -413.899551 
L 239.32311 -414.953628 
L 236.921571 -415.996487 
L 234.520032 -417.099876 
L 232.118493 -418.203474 
L 229.716954 -419.376728 
L 227.315415 -420.58427 
L 224.913876 -421.791028 
L 222.512337 -423.027343 
L 220.110798 -424.254525 
L 217.709259 -425.44718 
L 215.307719 -426.65122 
L 212.90618 -427.876515 
L 210.504641 -429.113235 
L 208.103102 -430.381051 
L 205.701563 -431.637222 
L 203.300024 -432.853993 
L 200.898485 -434.120059 
L 198.496946 -435.444128 
L 196.095407 -436.782465 
L 193.693868 -438.147684 
L 191.292329 -439.495378 
L 188.89079 -440.851186 
L 186.48925 -442.337352 
L 184.087711 -443.806691 
L 181.686172 -445.290682 
L 179.284633 -446.877209 
L 176.883094 -448.352254 
L 174.481555 -449.782858 
L 172.080016 -451.158781 
L 169.678477 -452.345415 
L 167.276938 -453.474609 
z
" style="stroke: #f47100; stroke-opacity: 0.2"/>
    </defs>
    <g clip-path="url(#p00b2460530)">
     <use xlink:href="#mc8401b37aa" x="0" y="600" style="fill: #f47100; fill-opacity: 0.2; stroke: #f47100; stroke-opacity: 0.2"/>
    </g>
   </g>
   <g id="PolyCollection_4">
    <defs>
     <path id="mb4e407bab4" d="M 116.844617 -475.842365 
L 116.844617 -470.113981 
L 119.246156 -469.644347 
L 121.647695 -469.040078 
L 124.049234 -468.527546 
L 126.450774 -468.080232 
L 128.852313 -467.673606 
L 131.253852 -467.227705 
L 133.655391 -466.823994 
L 136.05693 -466.36354 
L 138.458469 -465.849372 
L 140.860008 -465.323442 
L 143.261547 -464.310597 
L 145.663086 -463.360417 
L 148.064625 -462.397326 
L 150.466164 -461.425048 
L 152.867703 -460.404379 
L 155.269242 -459.35093 
L 157.670782 -458.196926 
L 160.072321 -457.024364 
L 162.47386 -455.828325 
L 164.875399 -454.648 
L 164.875399 -454.648 
L 164.875399 -454.648 
L 162.47386 -456.277933 
L 160.072321 -457.78678 
L 157.670782 -459.321535 
L 155.269242 -460.83498 
L 152.867703 -462.259156 
L 150.466164 -463.562455 
L 148.064625 -464.898473 
L 145.663086 -466.229264 
L 143.261547 -467.53426 
L 140.860008 -468.895542 
L 138.458469 -469.600613 
L 136.05693 -470.313584 
L 133.655391 -470.969457 
L 131.253852 -471.671251 
L 128.852313 -472.426866 
L 126.450774 -473.193723 
L 124.049234 -473.885516 
L 121.647695 -474.604719 
L 119.246156 -475.242693 
L 116.844617 -475.842365 
z
" style="stroke: #000000; stroke-opacity: 0.2"/>
    </defs>
    <g clip-path="url(#p00b2460530)">
     <use xlink:href="#mb4e407bab4" x="0" y="600" style="fill-opacity: 0.2; stroke: #000000; stroke-opacity: 0.2"/>
    </g>
   </g>
   <g id="PolyCollection_5">
    <defs>
     <path id="m364121dd6f" d="M 167.276938 -453.203531 
L 167.276938 -452.24877 
L 169.678477 -449.785024 
L 172.080016 -447.1308 
L 174.481555 -444.320211 
L 176.883094 -441.360706 
L 179.284633 -438.320185 
L 181.686172 -435.229796 
L 184.087711 -432.048795 
L 186.48925 -428.813005 
L 188.89079 -425.459005 
L 191.292329 -422.05081 
L 193.693868 -418.596762 
L 196.095407 -415.14136 
L 198.496946 -411.67942 
L 200.898485 -408.164681 
L 203.300024 -404.51154 
L 205.701563 -400.771456 
L 208.103102 -397.081292 
L 210.504641 -393.265849 
L 212.90618 -389.402874 
L 215.307719 -385.559741 
L 217.709259 -381.688642 
L 220.110798 -377.869829 
L 222.512337 -374.043764 
L 224.913876 -370.210906 
L 227.315415 -366.325373 
L 229.716954 -362.349507 
L 232.118493 -358.340062 
L 234.520032 -354.314346 
L 236.921571 -350.296845 
L 239.32311 -346.228678 
L 241.724649 -342.172427 
L 244.126188 -338.115151 
L 246.527727 -334.085693 
L 248.929267 -330.082758 
L 251.330806 -326.220125 
L 253.732345 -322.427573 
L 256.133884 -318.675695 
L 258.535423 -315.05403 
L 260.936962 -311.504901 
L 263.338501 -307.942646 
L 265.74004 -304.403687 
L 268.141579 -300.930741 
L 270.543118 -297.550515 
L 272.944657 -294.29824 
L 275.346196 -291.111227 
L 277.747735 -288.038007 
L 280.149275 -285.019358 
L 282.550814 -282.045918 
L 284.952353 -279.106715 
L 287.353892 -276.204885 
L 289.755431 -273.328207 
L 292.15697 -270.488587 
L 294.558509 -267.64993 
L 296.960048 -264.851013 
L 299.361587 -262.105781 
L 301.763126 -259.400227 
L 304.164665 -256.702265 
L 306.566204 -254.037568 
L 308.967743 -251.40678 
L 311.369283 -248.831706 
L 313.770822 -246.307505 
L 316.172361 -243.803328 
L 318.5739 -241.318708 
L 320.975439 -238.790591 
L 323.376978 -236.301682 
L 325.778517 -233.847932 
L 328.180056 -231.415455 
L 330.581595 -229.014918 
L 332.983134 -226.639674 
L 335.384673 -224.315995 
L 337.786212 -222.012006 
L 340.187751 -219.751742 
L 342.589291 -217.52443 
L 344.99083 -215.342566 
L 347.392369 -213.169835 
L 349.793908 -211.044665 
L 352.195447 -208.934085 
L 354.596986 -206.849052 
L 356.998525 -204.787804 
L 359.400064 -202.735201 
L 361.801603 -200.748655 
L 364.203142 -198.807535 
L 366.604681 -196.895103 
L 369.00622 -195.037912 
L 371.407759 -193.21458 
L 373.809299 -191.409833 
L 376.210838 -189.666732 
L 378.612377 -187.943925 
L 381.013916 -186.261444 
L 383.415455 -184.603671 
L 385.816994 -182.982076 
L 388.218533 -181.387121 
L 390.620072 -179.850527 
L 393.021611 -178.326486 
L 395.42315 -176.831389 
L 397.824689 -175.334242 
L 400.226228 -173.861836 
L 402.627768 -172.400711 
L 405.029307 -170.929327 
L 407.430846 -169.487244 
L 409.832385 -168.055037 
L 412.233924 -166.621595 
L 414.635463 -165.19643 
L 417.037002 -163.779134 
L 419.438541 -162.377506 
L 421.84008 -160.991854 
L 424.241619 -159.581039 
L 426.643158 -158.18558 
L 429.044697 -156.79877 
L 431.446236 -155.422125 
L 433.847776 -154.055203 
L 436.249315 -152.707634 
L 438.650854 -151.363678 
L 441.052393 -150.012459 
L 443.453932 -148.673768 
L 445.855471 -147.333637 
L 448.25701 -145.883553 
L 450.658549 -144.237626 
L 453.060088 -142.60485 
L 455.461627 -140.992772 
L 457.863166 -139.407796 
L 460.264705 -137.817623 
L 462.666244 -136.220532 
L 465.067784 -134.645248 
L 467.469323 -133.106822 
L 469.870862 -131.584772 
L 472.272401 -130.097856 
L 474.67394 -128.624358 
L 477.075479 -127.171206 
L 479.477018 -125.756866 
L 481.878557 -124.403824 
L 484.280096 -123.086966 
L 486.681635 -121.814065 
L 489.083174 -120.602581 
L 491.484713 -119.459949 
L 493.886252 -118.423121 
L 496.287792 -117.42283 
L 498.689331 -116.443605 
L 501.09087 -115.491135 
L 503.492409 -114.559384 
L 505.893948 -113.647389 
L 508.295487 -112.775542 
L 510.697026 -111.94894 
L 513.098565 -111.134374 
L 515.500104 -110.339731 
L 517.901643 -109.577306 
L 520.303182 -108.837777 
L 522.704721 -108.124213 
L 525.10626 -107.446891 
L 527.5078 -106.779872 
L 529.909339 -106.120188 
L 532.310878 -105.479976 
L 534.712417 -104.862535 
L 537.113956 -104.274516 
L 539.515495 -103.678898 
L 541.917034 -103.054654 
L 544.318573 -102.461928 
L 546.720112 -101.891726 
L 549.121651 -101.352432 
L 551.52319 -100.936139 
L 553.924729 -100.476024 
L 556.326268 -99.871981 
L 558.727808 -99.281378 
L 561.129347 -98.710625 
L 563.530886 -98.153985 
L 565.932425 -97.607659 
L 568.333964 -97.077437 
L 570.735503 -96.564691 
L 573.137042 -96.121957 
L 575.538581 -95.742164 
L 577.94012 -95.49525 
L 580.341659 -95.314277 
L 582.743198 -95.133749 
L 585.144737 -94.950546 
L 587.546277 -94.771985 
L 589.947816 -94.59477 
L 592.349355 -94.418809 
L 594.750894 -94.243121 
L 597.152433 -94.074547 
L 599.553972 -93.911884 
L 601.955511 -93.750399 
L 604.35705 -93.592559 
L 606.758589 -93.439274 
L 609.160128 -93.289557 
L 611.561667 -93.142006 
L 613.963206 -92.997104 
L 616.364745 -92.852448 
L 618.766285 -92.707806 
L 621.167824 -92.565061 
L 623.569363 -92.423439 
L 625.970902 -92.284303 
L 628.372441 -92.149207 
L 630.77398 -92.052229 
L 633.175519 -91.955432 
L 635.577058 -91.85848 
L 637.978597 -91.758387 
L 640.380136 -91.655494 
L 642.781675 -91.545637 
L 645.183214 -91.429639 
L 647.584753 -91.313839 
L 649.986293 -91.195668 
L 652.387832 -91.075646 
L 654.789371 -90.953102 
L 657.19091 -90.831469 
L 659.592449 -90.711268 
L 661.993988 -90.593268 
L 664.395527 -90.47449 
L 666.797066 -90.360334 
L 669.198605 -90.251176 
L 671.600144 -90.145127 
L 674.001683 -90.03942 
L 676.403222 -89.935867 
L 678.804761 -89.838715 
L 681.206301 -89.746872 
L 683.60784 -89.657566 
L 686.009379 -89.572928 
L 688.410918 -89.491943 
L 690.812457 -89.417274 
L 693.213996 -89.349953 
L 695.615535 -89.286682 
L 698.017074 -89.224442 
L 700.418613 -89.167385 
L 702.820152 -89.115739 
L 705.221691 -89.065789 
L 707.62323 -88.863764 
L 710.024769 -88.636719 
L 712.426309 -88.422933 
L 714.827848 -88.219165 
L 717.229387 -88.026379 
L 719.630926 -87.844456 
L 722.032465 -87.666023 
L 724.434004 -87.495961 
L 726.835543 -87.33374 
L 729.237082 -87.272865 
L 731.638621 -87.217211 
L 734.04016 -87.164912 
L 736.441699 -87.116869 
L 738.843238 -87.071052 
L 741.244777 -87.027266 
L 743.646317 -86.984925 
L 746.047856 -86.94728 
L 748.449395 -86.912083 
L 750.850934 -86.879086 
L 753.252473 -86.823984 
L 755.654012 -86.709087 
L 758.055551 -86.601779 
L 760.45709 -86.497469 
L 762.858629 -86.395566 
L 765.260168 -86.29779 
L 767.661707 -86.202743 
L 770.063246 -86.11025 
L 772.464786 -86.02073 
L 774.866325 -85.93476 
L 777.267864 -85.852778 
L 779.669403 -85.773946 
L 782.070942 -85.698232 
L 784.472481 -85.627482 
L 786.87402 -85.560745 
L 789.275559 -85.499215 
L 791.677098 -85.44109 
L 794.078637 -85.401413 
L 796.480176 -85.376456 
L 798.881715 -85.354385 
L 801.283254 -85.34214 
L 803.684794 -85.335723 
L 806.086333 -85.329738 
L 808.487872 -85.324517 
L 810.889411 -85.319912 
L 813.29095 -85.315134 
L 815.692489 -85.310731 
L 818.094028 -85.308377 
L 820.495567 -85.305955 
L 822.897106 -85.30358 
L 825.298645 -85.301251 
L 827.700184 -85.299539 
L 830.101723 -85.29793 
L 832.503262 -85.296367 
L 834.904802 -85.294623 
L 837.306341 -85.293078 
L 837.306341 -122.567132 
L 837.306341 -122.567132 
L 834.904802 -122.653011 
L 832.503262 -122.745365 
L 830.101723 -122.845189 
L 827.700184 -122.962005 
L 825.298645 -123.080909 
L 822.897106 -123.198635 
L 820.495567 -123.305093 
L 818.094028 -123.399332 
L 815.692489 -123.486912 
L 813.29095 -123.666424 
L 810.889411 -123.851932 
L 808.487872 -124.043761 
L 806.086333 -124.241855 
L 803.684794 -124.44567 
L 801.283254 -124.659854 
L 798.881715 -124.879382 
L 796.480176 -125.105625 
L 794.078637 -125.362641 
L 791.677098 -125.623646 
L 789.275559 -125.888036 
L 786.87402 -126.160148 
L 784.472481 -126.439535 
L 782.070942 -126.733881 
L 779.669403 -127.030034 
L 777.267864 -127.321312 
L 774.866325 -127.615485 
L 772.464786 -127.942646 
L 770.063246 -128.302408 
L 767.661707 -128.687994 
L 765.260168 -129.073105 
L 762.858629 -129.452437 
L 760.45709 -129.837021 
L 758.055551 -130.23849 
L 755.654012 -130.623589 
L 753.252473 -131.007999 
L 750.850934 -131.388604 
L 748.449395 -131.769037 
L 746.047856 -132.123099 
L 743.646317 -132.463799 
L 741.244777 -132.7873 
L 738.843238 -133.091879 
L 736.441699 -133.382155 
L 734.04016 -133.640863 
L 731.638621 -133.883115 
L 729.237082 -134.131988 
L 726.835543 -134.374906 
L 724.434004 -134.589049 
L 722.032465 -134.800814 
L 719.630926 -135.014184 
L 717.229387 -135.245628 
L 714.827848 -135.495317 
L 712.426309 -135.750919 
L 710.024769 -135.999553 
L 707.62323 -136.282357 
L 705.221691 -136.588244 
L 702.820152 -136.901546 
L 700.418613 -137.226706 
L 698.017074 -137.559571 
L 695.615535 -137.905225 
L 693.213996 -138.269296 
L 690.812457 -138.650683 
L 688.410918 -139.041059 
L 686.009379 -139.433788 
L 683.60784 -139.850211 
L 681.206301 -140.266092 
L 678.804761 -140.685617 
L 676.403222 -141.11778 
L 674.001683 -141.535953 
L 671.600144 -141.939141 
L 669.198605 -142.323909 
L 666.797066 -142.674657 
L 664.395527 -143.023057 
L 661.993988 -143.386623 
L 659.592449 -143.731307 
L 657.19091 -144.073149 
L 654.789371 -144.413379 
L 652.387832 -144.755945 
L 649.986293 -145.113533 
L 647.584753 -145.508667 
L 645.183214 -145.908921 
L 642.781675 -146.300547 
L 640.380136 -146.691981 
L 637.978597 -147.105213 
L 635.577058 -147.511148 
L 633.175519 -147.945524 
L 630.77398 -148.417194 
L 628.372441 -148.908698 
L 625.970902 -149.417659 
L 623.569363 -149.943379 
L 621.167824 -150.495487 
L 618.766285 -151.078787 
L 616.364745 -151.689774 
L 613.963206 -152.316175 
L 611.561667 -152.976987 
L 609.160128 -153.645421 
L 606.758589 -154.320495 
L 604.35705 -154.9993 
L 601.955511 -155.676768 
L 599.553972 -156.295563 
L 597.152433 -156.912202 
L 594.750894 -157.521692 
L 592.349355 -158.122204 
L 589.947816 -158.719678 
L 587.546277 -159.298183 
L 585.144737 -159.85075 
L 582.743198 -160.381205 
L 580.341659 -160.903943 
L 577.94012 -161.426588 
L 575.538581 -161.926377 
L 573.137042 -162.400087 
L 570.735503 -162.867666 
L 568.333964 -163.313013 
L 565.932425 -163.7351 
L 563.530886 -164.155744 
L 561.129347 -164.576062 
L 558.727808 -165.030183 
L 556.326268 -165.482897 
L 553.924729 -165.958989 
L 551.52319 -166.461779 
L 549.121651 -166.990972 
L 546.720112 -167.577592 
L 544.318573 -168.217278 
L 541.917034 -168.892618 
L 539.515495 -169.584323 
L 537.113956 -170.295599 
L 534.712417 -171.024812 
L 532.310878 -171.786572 
L 529.909339 -172.579786 
L 527.5078 -173.40836 
L 525.10626 -174.256665 
L 522.704721 -175.110491 
L 520.303182 -175.973334 
L 517.901643 -176.84595 
L 515.500104 -177.737467 
L 513.098565 -178.61576 
L 510.697026 -179.515243 
L 508.295487 -180.424587 
L 505.893948 -181.339603 
L 503.492409 -182.28164 
L 501.09087 -183.187888 
L 498.689331 -184.080818 
L 496.287792 -184.971154 
L 493.886252 -185.855834 
L 491.484713 -186.76032 
L 489.083174 -187.69708 
L 486.681635 -188.637419 
L 484.280096 -189.530484 
L 481.878557 -190.377063 
L 479.477018 -191.233355 
L 477.075479 -192.119256 
L 474.67394 -193.039522 
L 472.272401 -193.983013 
L 469.870862 -194.958735 
L 467.469323 -195.953922 
L 465.067784 -197.130238 
L 462.666244 -198.476136 
L 460.264705 -199.813708 
L 457.863166 -201.109914 
L 455.461627 -202.414211 
L 453.060088 -203.723959 
L 450.658549 -205.014918 
L 448.25701 -206.294946 
L 445.855471 -207.602832 
L 443.453932 -208.952882 
L 441.052393 -210.304226 
L 438.650854 -211.666934 
L 436.249315 -213.033709 
L 433.847776 -214.413877 
L 431.446236 -215.81287 
L 429.044697 -217.225809 
L 426.643158 -218.639334 
L 424.241619 -220.056582 
L 421.84008 -221.472837 
L 419.438541 -222.857983 
L 417.037002 -224.24629 
L 414.635463 -225.660858 
L 412.233924 -227.085046 
L 409.832385 -228.525098 
L 407.430846 -229.966899 
L 405.029307 -231.455572 
L 402.627768 -233.21945 
L 400.226228 -235.018925 
L 397.824689 -236.839505 
L 395.42315 -238.670915 
L 393.021611 -240.472203 
L 390.620072 -242.269244 
L 388.218533 -244.042728 
L 385.816994 -245.840676 
L 383.415455 -247.642853 
L 381.013916 -249.447824 
L 378.612377 -251.288006 
L 376.210838 -253.17603 
L 373.809299 -255.082609 
L 371.407759 -257.025396 
L 369.00622 -258.985558 
L 366.604681 -261.004619 
L 364.203142 -263.031444 
L 361.801603 -265.091948 
L 359.400064 -267.138201 
L 356.998525 -269.135709 
L 354.596986 -271.135241 
L 352.195447 -273.117132 
L 349.793908 -275.160736 
L 347.392369 -277.188176 
L 344.99083 -279.239448 
L 342.589291 -281.336453 
L 340.187751 -283.48208 
L 337.786212 -285.918642 
L 335.384673 -288.391366 
L 332.983134 -290.898675 
L 330.581595 -293.388712 
L 328.180056 -295.886853 
L 325.778517 -298.329797 
L 323.376978 -300.728402 
L 320.975439 -303.160133 
L 318.5739 -305.530377 
L 316.172361 -307.948039 
L 313.770822 -310.414597 
L 311.369283 -312.92334 
L 308.967743 -315.505162 
L 306.566204 -318.108701 
L 304.164665 -320.732702 
L 301.763126 -323.359732 
L 299.361587 -325.990678 
L 296.960048 -328.618504 
L 294.558509 -331.2935 
L 292.15697 -334.038393 
L 289.755431 -336.725485 
L 287.353892 -338.906223 
L 284.952353 -341.121252 
L 282.550814 -343.373226 
L 280.149275 -345.632333 
L 277.747735 -347.913527 
L 275.346196 -350.264741 
L 272.944657 -352.605809 
L 270.543118 -355.041697 
L 268.141579 -357.551064 
L 265.74004 -360.084976 
L 263.338501 -362.635658 
L 260.936962 -365.204744 
L 258.535423 -367.865437 
L 256.133884 -370.579465 
L 253.732345 -373.334232 
L 251.330806 -376.148725 
L 248.929267 -378.9567 
L 246.527727 -381.704618 
L 244.126188 -384.418786 
L 241.724649 -387.210922 
L 239.32311 -389.975248 
L 236.921571 -392.799316 
L 234.520032 -395.531001 
L 232.118493 -397.95651 
L 229.716954 -400.336854 
L 227.315415 -402.72961 
L 224.913876 -405.121553 
L 222.512337 -407.496575 
L 220.110798 -409.775475 
L 217.709259 -412.006312 
L 215.307719 -414.21436 
L 212.90618 -416.416532 
L 210.504641 -418.98199 
L 208.103102 -421.410863 
L 205.701563 -423.694084 
L 203.300024 -425.897871 
L 200.898485 -427.958965 
L 198.496946 -429.956077 
L 196.095407 -431.910745 
L 193.693868 -433.818225 
L 191.292329 -435.754638 
L 188.89079 -437.66154 
L 186.48925 -439.494168 
L 184.087711 -441.330065 
L 181.686172 -443.211757 
L 179.284633 -445.033656 
L 176.883094 -446.7845 
L 174.481555 -448.494961 
L 172.080016 -450.130917 
L 169.678477 -451.733852 
L 167.276938 -453.203531 
z
" style="stroke: #d01e04; stroke-opacity: 0.2"/>
    </defs>
    <g clip-path="url(#p00b2460530)">
     <use xlink:href="#m364121dd6f" x="0" y="600" style="fill: #d01e04; fill-opacity: 0.2; stroke: #d01e04; stroke-opacity: 0.2"/>
    </g>
   </g>
   <g id="PolyCollection_6">
    <defs>
     <path id="m2b27597a54" d="M 116.844617 -478.930156 
L 116.844617 -471.794909 
L 119.246156 -471.332176 
L 121.647695 -470.734397 
L 124.049234 -470.227751 
L 126.450774 -469.784515 
L 128.852313 -469.381017 
L 131.253852 -468.940685 
L 133.655391 -468.543041 
L 136.05693 -468.0885 
L 138.458469 -467.584736 
L 140.860008 -467.10438 
L 143.261547 -466.087226 
L 145.663086 -464.997694 
L 148.064625 -463.829212 
L 150.466164 -462.587518 
L 152.867703 -461.301867 
L 155.269242 -460.031195 
L 157.670782 -458.75177 
L 160.072321 -457.402274 
L 162.47386 -456.004902 
L 164.875399 -454.648 
L 164.875399 -454.648 
L 164.875399 -454.648 
L 162.47386 -456.986942 
L 160.072321 -459.229327 
L 157.670782 -461.319794 
L 155.269242 -463.233569 
L 152.867703 -465.031037 
L 150.466164 -466.727002 
L 148.064625 -468.33493 
L 145.663086 -469.74892 
L 143.261547 -471.009637 
L 140.860008 -472.166499 
L 138.458469 -472.73519 
L 136.05693 -473.342064 
L 133.655391 -474.118543 
L 131.253852 -474.889894 
L 128.852313 -475.653367 
L 126.450774 -476.374066 
L 124.049234 -477.100991 
L 121.647695 -477.788698 
L 119.246156 -478.376821 
L 116.844617 -478.930156 
z
" style="stroke: #000000; stroke-opacity: 0.2"/>
    </defs>
    <g clip-path="url(#p00b2460530)">
     <use xlink:href="#m2b27597a54" x="0" y="600" style="fill-opacity: 0.2; stroke: #000000; stroke-opacity: 0.2"/>
    </g>
   </g>
   <g id="matplotlib.axis_1">
    <g id="xtick_1">
     <g id="line2d_1">
      <defs>
       <path id="m625e3e968a" d="M 0 0 
L 0 3.5 
" style="stroke: #000000; stroke-width: 0.8"/>
      </defs>
      <g>
       <use xlink:href="#m625e3e968a" x="164.875399" y="515.56" style="stroke: #000000; stroke-width: 0.8"/>
      </g>
     </g>
     <g id="text_1">
      <!-- 2020 -->
      <g transform="translate(131.790399 542.315938)scale(0.26 -0.26)">
       <defs>
        <path id="DejaVuSans-32" d="M 1228 531 
L 3431 531 
L 3431 0 
L 469 0 
L 469 531 
Q 828 903 1448 1529 
Q 2069 2156 2228 2338 
Q 2531 2678 2651 2914 
Q 2772 3150 2772 3378 
Q 2772 3750 2511 3984 
Q 2250 4219 1831 4219 
Q 1534 4219 1204 4116 
Q 875 4013 500 3803 
L 500 4441 
Q 881 4594 1212 4672 
Q 1544 4750 1819 4750 
Q 2544 4750 2975 4387 
Q 3406 4025 3406 3419 
Q 3406 3131 3298 2873 
Q 3191 2616 2906 2266 
Q 2828 2175 2409 1742 
Q 1991 1309 1228 531 
z
" transform="scale(0.015625)"/>
        <path id="DejaVuSans-30" d="M 2034 4250 
Q 1547 4250 1301 3770 
Q 1056 3291 1056 2328 
Q 1056 1369 1301 889 
Q 1547 409 2034 409 
Q 2525 409 2770 889 
Q 3016 1369 3016 2328 
Q 3016 3291 2770 3770 
Q 2525 4250 2034 4250 
z
M 2034 4750 
Q 2819 4750 3233 4129 
Q 3647 3509 3647 2328 
Q 3647 1150 3233 529 
Q 2819 -91 2034 -91 
Q 1250 -91 836 529 
Q 422 1150 422 2328 
Q 422 3509 836 4129 
Q 1250 4750 2034 4750 
z
" transform="scale(0.015625)"/>
       </defs>
       <use xlink:href="#DejaVuSans-32"/>
       <use xlink:href="#DejaVuSans-30" x="63.623047"/>
       <use xlink:href="#DejaVuSans-32" x="127.246094"/>
       <use xlink:href="#DejaVuSans-30" x="190.869141"/>
      </g>
     </g>
    </g>
    <g id="xtick_2">
     <g id="line2d_2">
      <g>
       <use xlink:href="#m625e3e968a" x="356.998525" y="515.56" style="stroke: #000000; stroke-width: 0.8"/>
      </g>
     </g>
     <g id="text_2">
      <!-- 2100 -->
      <g transform="translate(323.913525 542.315938)scale(0.26 -0.26)">
       <defs>
        <path id="DejaVuSans-31" d="M 794 531 
L 1825 531 
L 1825 4091 
L 703 3866 
L 703 4441 
L 1819 4666 
L 2450 4666 
L 2450 531 
L 3481 531 
L 3481 0 
L 794 0 
L 794 531 
z
" transform="scale(0.015625)"/>
       </defs>
       <use xlink:href="#DejaVuSans-32"/>
       <use xlink:href="#DejaVuSans-31" x="63.623047"/>
       <use xlink:href="#DejaVuSans-30" x="127.246094"/>
       <use xlink:href="#DejaVuSans-30" x="190.869141"/>
      </g>
     </g>
    </g>
    <g id="xtick_3">
     <g id="line2d_3">
      <g>
       <use xlink:href="#m625e3e968a" x="597.152433" y="515.56" style="stroke: #000000; stroke-width: 0.8"/>
      </g>
     </g>
     <g id="text_3">
      <!-- 2200 -->
      <g transform="translate(564.067433 542.315938)scale(0.26 -0.26)">
       <use xlink:href="#DejaVuSans-32"/>
       <use xlink:href="#DejaVuSans-32" x="63.623047"/>
       <use xlink:href="#DejaVuSans-30" x="127.246094"/>
       <use xlink:href="#DejaVuSans-30" x="190.869141"/>
      </g>
     </g>
    </g>
    <g id="xtick_4">
     <g id="line2d_4">
      <g>
       <use xlink:href="#m625e3e968a" x="837.306341" y="515.56" style="stroke: #000000; stroke-width: 0.8"/>
      </g>
     </g>
     <g id="text_4">
      <!-- 2300 -->
      <g transform="translate(804.221341 542.315938)scale(0.26 -0.26)">
       <defs>
        <path id="DejaVuSans-33" d="M 2597 2516 
Q 3050 2419 3304 2112 
Q 3559 1806 3559 1356 
Q 3559 666 3084 287 
Q 2609 -91 1734 -91 
Q 1441 -91 1130 -33 
Q 819 25 488 141 
L 488 750 
Q 750 597 1062 519 
Q 1375 441 1716 441 
Q 2309 441 2620 675 
Q 2931 909 2931 1356 
Q 2931 1769 2642 2001 
Q 2353 2234 1838 2234 
L 1294 2234 
L 1294 2753 
L 1863 2753 
Q 2328 2753 2575 2939 
Q 2822 3125 2822 3475 
Q 2822 3834 2567 4026 
Q 2313 4219 1838 4219 
Q 1578 4219 1281 4162 
Q 984 4106 628 3988 
L 628 4550 
Q 988 4650 1302 4700 
Q 1616 4750 1894 4750 
Q 2613 4750 3031 4423 
Q 3450 4097 3450 3541 
Q 3450 3153 3228 2886 
Q 3006 2619 2597 2516 
z
" transform="scale(0.015625)"/>
       </defs>
       <use xlink:href="#DejaVuSans-32"/>
       <use xlink:href="#DejaVuSans-33" x="63.623047"/>
       <use xlink:href="#DejaVuSans-30" x="127.246094"/>
       <use xlink:href="#DejaVuSans-30" x="190.869141"/>
      </g>
     </g>
    </g>
    <g id="text_5">
     <!-- Year -->
     <g transform="translate(457.010409 568.439687)scale(0.22 -0.22)">
      <defs>
       <path id="DejaVuSans-Bold-59" d="M -63 4666 
L 1253 4666 
L 2316 3003 
L 3378 4666 
L 4697 4666 
L 2919 1966 
L 2919 0 
L 1716 0 
L 1716 1966 
L -63 4666 
z
" transform="scale(0.015625)"/>
       <path id="DejaVuSans-Bold-65" d="M 4031 1759 
L 4031 1441 
L 1416 1441 
Q 1456 1047 1700 850 
Q 1944 653 2381 653 
Q 2734 653 3104 758 
Q 3475 863 3866 1075 
L 3866 213 
Q 3469 63 3072 -14 
Q 2675 -91 2278 -91 
Q 1328 -91 801 392 
Q 275 875 275 1747 
Q 275 2603 792 3093 
Q 1309 3584 2216 3584 
Q 3041 3584 3536 3087 
Q 4031 2591 4031 1759 
z
M 2881 2131 
Q 2881 2450 2695 2645 
Q 2509 2841 2209 2841 
Q 1884 2841 1681 2658 
Q 1478 2475 1428 2131 
L 2881 2131 
z
" transform="scale(0.015625)"/>
       <path id="DejaVuSans-Bold-61" d="M 2106 1575 
Q 1756 1575 1579 1456 
Q 1403 1338 1403 1106 
Q 1403 894 1545 773 
Q 1688 653 1941 653 
Q 2256 653 2472 879 
Q 2688 1106 2688 1447 
L 2688 1575 
L 2106 1575 
z
M 3816 1997 
L 3816 0 
L 2688 0 
L 2688 519 
Q 2463 200 2181 54 
Q 1900 -91 1497 -91 
Q 953 -91 614 226 
Q 275 544 275 1050 
Q 275 1666 698 1953 
Q 1122 2241 2028 2241 
L 2688 2241 
L 2688 2328 
Q 2688 2594 2478 2717 
Q 2269 2841 1825 2841 
Q 1466 2841 1156 2769 
Q 847 2697 581 2553 
L 581 3406 
Q 941 3494 1303 3539 
Q 1666 3584 2028 3584 
Q 2975 3584 3395 3211 
Q 3816 2838 3816 1997 
z
" transform="scale(0.015625)"/>
       <path id="DejaVuSans-Bold-72" d="M 3138 2547 
Q 2991 2616 2845 2648 
Q 2700 2681 2553 2681 
Q 2122 2681 1889 2404 
Q 1656 2128 1656 1613 
L 1656 0 
L 538 0 
L 538 3500 
L 1656 3500 
L 1656 2925 
Q 1872 3269 2151 3426 
Q 2431 3584 2822 3584 
Q 2878 3584 2943 3579 
Q 3009 3575 3134 3559 
L 3138 2547 
z
" transform="scale(0.015625)"/>
      </defs>
      <use xlink:href="#DejaVuSans-Bold-59"/>
      <use xlink:href="#DejaVuSans-Bold-65" x="63.287109"/>
      <use xlink:href="#DejaVuSans-Bold-61" x="131.109375"/>
      <use xlink:href="#DejaVuSans-Bold-72" x="198.589844"/>
     </g>
    </g>
   </g>
   <g id="matplotlib.axis_2">
    <g id="ytick_1">
     <g id="line2d_5">
      <defs>
       <path id="md8f6b9aef1" d="M 0 0 
L -3.5 0 
" style="stroke: #000000; stroke-width: 0.8"/>
      </defs>
      <g>
       <use xlink:href="#md8f6b9aef1" x="109.64" y="515.56" style="stroke: #000000; stroke-width: 0.8"/>
      </g>
     </g>
     <g id="text_6">
      <!-- 0 -->
      <g transform="translate(86.0975 525.437969)scale(0.26 -0.26)">
       <use xlink:href="#DejaVuSans-30"/>
      </g>
     </g>
    </g>
    <g id="ytick_2">
     <g id="line2d_6">
      <g>
       <use xlink:href="#md8f6b9aef1" x="109.64" y="441.5184" style="stroke: #000000; stroke-width: 0.8"/>
      </g>
     </g>
     <g id="text_7">
      <!-- 20 -->
      <g transform="translate(69.555 451.396369)scale(0.26 -0.26)">
       <use xlink:href="#DejaVuSans-32"/>
       <use xlink:href="#DejaVuSans-30" x="63.623047"/>
      </g>
     </g>
    </g>
    <g id="ytick_3">
     <g id="line2d_7">
      <g>
       <use xlink:href="#md8f6b9aef1" x="109.64" y="367.4768" style="stroke: #000000; stroke-width: 0.8"/>
      </g>
     </g>
     <g id="text_8">
      <!-- 40 -->
      <g transform="translate(69.555 377.354769)scale(0.26 -0.26)">
       <defs>
        <path id="DejaVuSans-34" d="M 2419 4116 
L 825 1625 
L 2419 1625 
L 2419 4116 
z
M 2253 4666 
L 3047 4666 
L 3047 1625 
L 3713 1625 
L 3713 1100 
L 3047 1100 
L 3047 0 
L 2419 0 
L 2419 1100 
L 313 1100 
L 313 1709 
L 2253 4666 
z
" transform="scale(0.015625)"/>
       </defs>
       <use xlink:href="#DejaVuSans-34"/>
       <use xlink:href="#DejaVuSans-30" x="63.623047"/>
      </g>
     </g>
    </g>
    <g id="ytick_4">
     <g id="line2d_8">
      <g>
       <use xlink:href="#md8f6b9aef1" x="109.64" y="293.4352" style="stroke: #000000; stroke-width: 0.8"/>
      </g>
     </g>
     <g id="text_9">
      <!-- 60 -->
      <g transform="translate(69.555 303.313169)scale(0.26 -0.26)">
       <defs>
        <path id="DejaVuSans-36" d="M 2113 2584 
Q 1688 2584 1439 2293 
Q 1191 2003 1191 1497 
Q 1191 994 1439 701 
Q 1688 409 2113 409 
Q 2538 409 2786 701 
Q 3034 994 3034 1497 
Q 3034 2003 2786 2293 
Q 2538 2584 2113 2584 
z
M 3366 4563 
L 3366 3988 
Q 3128 4100 2886 4159 
Q 2644 4219 2406 4219 
Q 1781 4219 1451 3797 
Q 1122 3375 1075 2522 
Q 1259 2794 1537 2939 
Q 1816 3084 2150 3084 
Q 2853 3084 3261 2657 
Q 3669 2231 3669 1497 
Q 3669 778 3244 343 
Q 2819 -91 2113 -91 
Q 1303 -91 875 529 
Q 447 1150 447 2328 
Q 447 3434 972 4092 
Q 1497 4750 2381 4750 
Q 2619 4750 2861 4703 
Q 3103 4656 3366 4563 
z
" transform="scale(0.015625)"/>
       </defs>
       <use xlink:href="#DejaVuSans-36"/>
       <use xlink:href="#DejaVuSans-30" x="63.623047"/>
      </g>
     </g>
    </g>
    <g id="ytick_5">
     <g id="line2d_9">
      <g>
       <use xlink:href="#md8f6b9aef1" x="109.64" y="219.3936" style="stroke: #000000; stroke-width: 0.8"/>
      </g>
     </g>
     <g id="text_10">
      <!-- 80 -->
      <g transform="translate(69.555 229.271569)scale(0.26 -0.26)">
       <defs>
        <path id="DejaVuSans-38" d="M 2034 2216 
Q 1584 2216 1326 1975 
Q 1069 1734 1069 1313 
Q 1069 891 1326 650 
Q 1584 409 2034 409 
Q 2484 409 2743 651 
Q 3003 894 3003 1313 
Q 3003 1734 2745 1975 
Q 2488 2216 2034 2216 
z
M 1403 2484 
Q 997 2584 770 2862 
Q 544 3141 544 3541 
Q 544 4100 942 4425 
Q 1341 4750 2034 4750 
Q 2731 4750 3128 4425 
Q 3525 4100 3525 3541 
Q 3525 3141 3298 2862 
Q 3072 2584 2669 2484 
Q 3125 2378 3379 2068 
Q 3634 1759 3634 1313 
Q 3634 634 3220 271 
Q 2806 -91 2034 -91 
Q 1263 -91 848 271 
Q 434 634 434 1313 
Q 434 1759 690 2068 
Q 947 2378 1403 2484 
z
M 1172 3481 
Q 1172 3119 1398 2916 
Q 1625 2713 2034 2713 
Q 2441 2713 2670 2916 
Q 2900 3119 2900 3481 
Q 2900 3844 2670 4047 
Q 2441 4250 2034 4250 
Q 1625 4250 1398 4047 
Q 1172 3844 1172 3481 
z
" transform="scale(0.015625)"/>
       </defs>
       <use xlink:href="#DejaVuSans-38"/>
       <use xlink:href="#DejaVuSans-30" x="63.623047"/>
      </g>
     </g>
    </g>
    <g id="ytick_6">
     <g id="line2d_10">
      <g>
       <use xlink:href="#md8f6b9aef1" x="109.64" y="145.352" style="stroke: #000000; stroke-width: 0.8"/>
      </g>
     </g>
     <g id="text_11">
      <!-- 100 -->
      <g transform="translate(53.0125 155.229969)scale(0.26 -0.26)">
       <use xlink:href="#DejaVuSans-31"/>
       <use xlink:href="#DejaVuSans-30" x="63.623047"/>
       <use xlink:href="#DejaVuSans-30" x="127.246094"/>
      </g>
     </g>
    </g>
    <g id="ytick_7">
     <g id="line2d_11">
      <g>
       <use xlink:href="#md8f6b9aef1" x="109.64" y="71.3104" style="stroke: #000000; stroke-width: 0.8"/>
      </g>
     </g>
     <g id="text_12">
      <!-- 120 -->
      <g transform="translate(53.0125 81.188369)scale(0.26 -0.26)">
       <use xlink:href="#DejaVuSans-31"/>
       <use xlink:href="#DejaVuSans-32" x="63.623047"/>
       <use xlink:href="#DejaVuSans-30" x="127.246094"/>
      </g>
     </g>
    </g>
    <g id="text_13">
     <!-- % of Remaining Glacier Mass -->
     <g transform="translate(44.265313 463.619219)rotate(-90)scale(0.22 -0.22)">
      <defs>
       <path id="DejaVuSans-Bold-25" d="M 4959 1925 
Q 4738 1925 4616 1733 
Q 4494 1541 4494 1184 
Q 4494 825 4614 633 
Q 4734 441 4959 441 
Q 5184 441 5303 633 
Q 5422 825 5422 1184 
Q 5422 1541 5301 1733 
Q 5181 1925 4959 1925 
z
M 4959 2450 
Q 5541 2450 5875 2112 
Q 6209 1775 6209 1184 
Q 6209 594 5875 251 
Q 5541 -91 4959 -91 
Q 4378 -91 4042 251 
Q 3706 594 3706 1184 
Q 3706 1772 4042 2111 
Q 4378 2450 4959 2450 
z
M 2094 -91 
L 1403 -91 
L 4319 4750 
L 5013 4750 
L 2094 -91 
z
M 1453 4750 
Q 2034 4750 2367 4411 
Q 2700 4072 2700 3481 
Q 2700 2891 2367 2550 
Q 2034 2209 1453 2209 
Q 872 2209 539 2550 
Q 206 2891 206 3481 
Q 206 4072 539 4411 
Q 872 4750 1453 4750 
z
M 1453 4225 
Q 1228 4225 1106 4031 
Q 984 3838 984 3481 
Q 984 3122 1106 2926 
Q 1228 2731 1453 2731 
Q 1678 2731 1798 2926 
Q 1919 3122 1919 3481 
Q 1919 3838 1797 4031 
Q 1675 4225 1453 4225 
z
" transform="scale(0.015625)"/>
       <path id="DejaVuSans-Bold-20" transform="scale(0.015625)"/>
       <path id="DejaVuSans-Bold-6f" d="M 2203 2784 
Q 1831 2784 1636 2517 
Q 1441 2250 1441 1747 
Q 1441 1244 1636 976 
Q 1831 709 2203 709 
Q 2569 709 2762 976 
Q 2956 1244 2956 1747 
Q 2956 2250 2762 2517 
Q 2569 2784 2203 2784 
z
M 2203 3584 
Q 3106 3584 3614 3096 
Q 4122 2609 4122 1747 
Q 4122 884 3614 396 
Q 3106 -91 2203 -91 
Q 1297 -91 786 396 
Q 275 884 275 1747 
Q 275 2609 786 3096 
Q 1297 3584 2203 3584 
z
" transform="scale(0.015625)"/>
       <path id="DejaVuSans-Bold-66" d="M 2841 4863 
L 2841 4128 
L 2222 4128 
Q 1984 4128 1890 4042 
Q 1797 3956 1797 3744 
L 1797 3500 
L 2753 3500 
L 2753 2700 
L 1797 2700 
L 1797 0 
L 678 0 
L 678 2700 
L 122 2700 
L 122 3500 
L 678 3500 
L 678 3744 
Q 678 4316 997 4589 
Q 1316 4863 1984 4863 
L 2841 4863 
z
" transform="scale(0.015625)"/>
       <path id="DejaVuSans-Bold-52" d="M 2297 2597 
Q 2675 2597 2839 2737 
Q 3003 2878 3003 3200 
Q 3003 3519 2839 3656 
Q 2675 3794 2297 3794 
L 1791 3794 
L 1791 2597 
L 2297 2597 
z
M 1791 1766 
L 1791 0 
L 588 0 
L 588 4666 
L 2425 4666 
Q 3347 4666 3776 4356 
Q 4206 4047 4206 3378 
Q 4206 2916 3982 2619 
Q 3759 2322 3309 2181 
Q 3556 2125 3751 1926 
Q 3947 1728 4147 1325 
L 4800 0 
L 3519 0 
L 2950 1159 
Q 2778 1509 2601 1637 
Q 2425 1766 2131 1766 
L 1791 1766 
z
" transform="scale(0.015625)"/>
       <path id="DejaVuSans-Bold-6d" d="M 3781 2919 
Q 3994 3244 4286 3414 
Q 4578 3584 4928 3584 
Q 5531 3584 5847 3212 
Q 6163 2841 6163 2131 
L 6163 0 
L 5038 0 
L 5038 1825 
Q 5041 1866 5042 1909 
Q 5044 1953 5044 2034 
Q 5044 2406 4934 2573 
Q 4825 2741 4581 2741 
Q 4263 2741 4089 2478 
Q 3916 2216 3909 1719 
L 3909 0 
L 2784 0 
L 2784 1825 
Q 2784 2406 2684 2573 
Q 2584 2741 2328 2741 
Q 2006 2741 1831 2477 
Q 1656 2213 1656 1722 
L 1656 0 
L 531 0 
L 531 3500 
L 1656 3500 
L 1656 2988 
Q 1863 3284 2130 3434 
Q 2397 3584 2719 3584 
Q 3081 3584 3359 3409 
Q 3638 3234 3781 2919 
z
" transform="scale(0.015625)"/>
       <path id="DejaVuSans-Bold-69" d="M 538 3500 
L 1656 3500 
L 1656 0 
L 538 0 
L 538 3500 
z
M 538 4863 
L 1656 4863 
L 1656 3950 
L 538 3950 
L 538 4863 
z
" transform="scale(0.015625)"/>
       <path id="DejaVuSans-Bold-6e" d="M 4056 2131 
L 4056 0 
L 2931 0 
L 2931 347 
L 2931 1631 
Q 2931 2084 2911 2256 
Q 2891 2428 2841 2509 
Q 2775 2619 2662 2680 
Q 2550 2741 2406 2741 
Q 2056 2741 1856 2470 
Q 1656 2200 1656 1722 
L 1656 0 
L 538 0 
L 538 3500 
L 1656 3500 
L 1656 2988 
Q 1909 3294 2193 3439 
Q 2478 3584 2822 3584 
Q 3428 3584 3742 3212 
Q 4056 2841 4056 2131 
z
" transform="scale(0.015625)"/>
       <path id="DejaVuSans-Bold-67" d="M 2919 594 
Q 2688 288 2409 144 
Q 2131 0 1766 0 
Q 1125 0 706 504 
Q 288 1009 288 1791 
Q 288 2575 706 3076 
Q 1125 3578 1766 3578 
Q 2131 3578 2409 3434 
Q 2688 3291 2919 2981 
L 2919 3500 
L 4044 3500 
L 4044 353 
Q 4044 -491 3511 -936 
Q 2978 -1381 1966 -1381 
Q 1638 -1381 1331 -1331 
Q 1025 -1281 716 -1178 
L 716 -306 
Q 1009 -475 1290 -558 
Q 1572 -641 1856 -641 
Q 2406 -641 2662 -400 
Q 2919 -159 2919 353 
L 2919 594 
z
M 2181 2772 
Q 1834 2772 1640 2515 
Q 1447 2259 1447 1791 
Q 1447 1309 1634 1061 
Q 1822 813 2181 813 
Q 2531 813 2725 1069 
Q 2919 1325 2919 1791 
Q 2919 2259 2725 2515 
Q 2531 2772 2181 2772 
z
" transform="scale(0.015625)"/>
       <path id="DejaVuSans-Bold-47" d="M 4781 347 
Q 4331 128 3847 18 
Q 3363 -91 2847 -91 
Q 1681 -91 1000 561 
Q 319 1213 319 2328 
Q 319 3456 1012 4103 
Q 1706 4750 2913 4750 
Q 3378 4750 3804 4662 
Q 4231 4575 4609 4403 
L 4609 3438 
Q 4219 3659 3833 3768 
Q 3447 3878 3059 3878 
Q 2341 3878 1952 3476 
Q 1563 3075 1563 2328 
Q 1563 1588 1938 1184 
Q 2313 781 3003 781 
Q 3191 781 3352 804 
Q 3513 828 3641 878 
L 3641 1784 
L 2906 1784 
L 2906 2591 
L 4781 2591 
L 4781 347 
z
" transform="scale(0.015625)"/>
       <path id="DejaVuSans-Bold-6c" d="M 538 4863 
L 1656 4863 
L 1656 0 
L 538 0 
L 538 4863 
z
" transform="scale(0.015625)"/>
       <path id="DejaVuSans-Bold-63" d="M 3366 3391 
L 3366 2478 
Q 3138 2634 2908 2709 
Q 2678 2784 2431 2784 
Q 1963 2784 1702 2511 
Q 1441 2238 1441 1747 
Q 1441 1256 1702 982 
Q 1963 709 2431 709 
Q 2694 709 2930 787 
Q 3166 866 3366 1019 
L 3366 103 
Q 3103 6 2833 -42 
Q 2563 -91 2291 -91 
Q 1344 -91 809 395 
Q 275 881 275 1747 
Q 275 2613 809 3098 
Q 1344 3584 2291 3584 
Q 2566 3584 2833 3536 
Q 3100 3488 3366 3391 
z
" transform="scale(0.015625)"/>
       <path id="DejaVuSans-Bold-4d" d="M 588 4666 
L 2119 4666 
L 3181 2169 
L 4250 4666 
L 5778 4666 
L 5778 0 
L 4641 0 
L 4641 3413 
L 3566 897 
L 2803 897 
L 1728 3413 
L 1728 0 
L 588 0 
L 588 4666 
z
" transform="scale(0.015625)"/>
       <path id="DejaVuSans-Bold-73" d="M 3272 3391 
L 3272 2541 
Q 2913 2691 2578 2766 
Q 2244 2841 1947 2841 
Q 1628 2841 1473 2761 
Q 1319 2681 1319 2516 
Q 1319 2381 1436 2309 
Q 1553 2238 1856 2203 
L 2053 2175 
Q 2913 2066 3209 1816 
Q 3506 1566 3506 1031 
Q 3506 472 3093 190 
Q 2681 -91 1863 -91 
Q 1516 -91 1145 -36 
Q 775 19 384 128 
L 384 978 
Q 719 816 1070 734 
Q 1422 653 1784 653 
Q 2113 653 2278 743 
Q 2444 834 2444 1013 
Q 2444 1163 2330 1236 
Q 2216 1309 1875 1350 
L 1678 1375 
Q 931 1469 631 1722 
Q 331 1975 331 2491 
Q 331 3047 712 3315 
Q 1094 3584 1881 3584 
Q 2191 3584 2531 3537 
Q 2872 3491 3272 3391 
z
" transform="scale(0.015625)"/>
      </defs>
      <use xlink:href="#DejaVuSans-Bold-25"/>
      <use xlink:href="#DejaVuSans-Bold-20" x="100.195312"/>
      <use xlink:href="#DejaVuSans-Bold-6f" x="135.009766"/>
      <use xlink:href="#DejaVuSans-Bold-66" x="203.710938"/>
      <use xlink:href="#DejaVuSans-Bold-20" x="247.216797"/>
      <use xlink:href="#DejaVuSans-Bold-52" x="282.03125"/>
      <use xlink:href="#DejaVuSans-Bold-65" x="359.033203"/>
      <use xlink:href="#DejaVuSans-Bold-6d" x="426.855469"/>
      <use xlink:href="#DejaVuSans-Bold-61" x="531.054688"/>
      <use xlink:href="#DejaVuSans-Bold-69" x="598.535156"/>
      <use xlink:href="#DejaVuSans-Bold-6e" x="632.8125"/>
      <use xlink:href="#DejaVuSans-Bold-69" x="704.003906"/>
      <use xlink:href="#DejaVuSans-Bold-6e" x="738.28125"/>
      <use xlink:href="#DejaVuSans-Bold-67" x="809.472656"/>
      <use xlink:href="#DejaVuSans-Bold-20" x="881.054688"/>
      <use xlink:href="#DejaVuSans-Bold-47" x="915.869141"/>
      <use xlink:href="#DejaVuSans-Bold-6c" x="997.949219"/>
      <use xlink:href="#DejaVuSans-Bold-61" x="1032.226562"/>
      <use xlink:href="#DejaVuSans-Bold-63" x="1099.707031"/>
      <use xlink:href="#DejaVuSans-Bold-69" x="1158.984375"/>
      <use xlink:href="#DejaVuSans-Bold-65" x="1193.261719"/>
      <use xlink:href="#DejaVuSans-Bold-72" x="1261.083984"/>
      <use xlink:href="#DejaVuSans-Bold-20" x="1310.400391"/>
      <use xlink:href="#DejaVuSans-Bold-4d" x="1345.214844"/>
      <use xlink:href="#DejaVuSans-Bold-61" x="1444.726562"/>
      <use xlink:href="#DejaVuSans-Bold-73" x="1512.207031"/>
      <use xlink:href="#DejaVuSans-Bold-73" x="1571.728516"/>
     </g>
    </g>
   </g>
   <g id="line2d_12">
    <path d="M 167.276938 146.847236 
L 172.080016 149.802674 
L 179.284633 154.4765 
L 188.89079 161.259244 
L 205.701563 173.612172 
L 227.315415 190.197484 
L 234.520032 195.813166 
L 258.535423 213.399923 
L 265.74004 218.475289 
L 272.944657 223.149112 
L 280.149275 227.579725 
L 289.755431 233.052741 
L 304.164665 240.955448 
L 308.967743 243.280527 
L 323.376978 249.785329 
L 340.187751 257.074387 
L 347.392369 259.788871 
L 371.407759 268.47398 
L 385.816994 273.361055 
L 397.824689 277.136788 
L 409.832385 280.623985 
L 419.438541 283.262186 
L 448.25701 290.533011 
L 457.863166 292.569926 
L 469.870862 294.849715 
L 477.075479 296.133565 
L 498.689331 299.814842 
L 505.893948 301.236983 
L 520.303182 304.258973 
L 527.5078 305.909783 
L 544.318573 309.850524 
L 553.924729 311.811484 
L 563.530886 313.625071 
L 575.538581 315.514695 
L 597.152433 318.526081 
L 604.35705 319.59036 
L 621.167824 322.198151 
L 630.77398 323.465622 
L 649.986293 325.837498 
L 666.797066 328.010388 
L 678.804761 329.818267 
L 688.410918 331.455553 
L 705.221691 333.94307 
L 726.835543 336.424195 
L 777.267864 340.618727 
L 791.677098 341.542937 
L 815.692489 342.837058 
L 830.101723 343.082531 
L 837.306341 343.343827 
L 837.306341 343.343827 
" clip-path="url(#p00b2460530)" style="fill: none; stroke: #74b8f8; stroke-opacity: 0.5; stroke-width: 6; stroke-linecap: square"/>
   </g>
   <g id="line2d_13">
    <path d="M 116.844617 126.823079 
L 119.246156 127.374795 
L 121.647695 128.013894 
L 124.049234 128.579713 
L 126.450774 129.1415 
L 128.852313 129.693751 
L 131.253852 130.239749 
L 133.655391 130.749511 
L 136.05693 131.302934 
L 138.458469 131.908079 
L 140.860008 132.497885 
L 143.261547 133.679712 
L 145.663086 134.888309 
L 148.064625 136.119586 
L 150.466164 137.366679 
L 152.867703 138.607458 
L 155.269242 139.86607 
L 157.670782 141.178247 
L 160.072321 142.511353 
L 162.47386 143.909093 
L 164.875399 145.352 
" clip-path="url(#p00b2460530)" style="fill: none; stroke: #000000; stroke-opacity: 0.5; stroke-width: 6; stroke-linecap: square"/>
   </g>
   <g id="line2d_14">
    <path d="M 167.276938 146.787162 
L 174.481555 151.228469 
L 179.284633 154.334527 
L 188.89079 161.305455 
L 193.693868 165.019288 
L 198.496946 169.081144 
L 205.701563 175.667278 
L 212.90618 182.384889 
L 248.929267 213.644474 
L 256.133884 219.907287 
L 277.747735 238.128686 
L 292.15697 249.756512 
L 299.361587 255.298556 
L 306.566204 260.63748 
L 316.172361 267.36266 
L 325.778517 273.673633 
L 332.983134 278.053508 
L 342.589291 283.466391 
L 352.195447 288.502556 
L 359.400064 292.102304 
L 366.604681 295.374425 
L 376.210838 299.331927 
L 385.816994 303.128056 
L 395.42315 306.67872 
L 426.643158 317.508032 
L 453.060088 326.060614 
L 462.666244 328.860206 
L 479.477018 333.335657 
L 496.287792 337.14728 
L 508.295487 339.776771 
L 537.113956 345.777092 
L 551.52319 348.660898 
L 580.341659 354.264104 
L 621.167824 362.190288 
L 642.781675 365.798056 
L 676.403222 370.918402 
L 693.213996 373.268642 
L 707.62323 375.039877 
L 724.434004 376.89197 
L 736.441699 378.063995 
L 767.661707 381.087547 
L 808.487872 385.762675 
L 815.692489 386.65603 
L 832.503262 387.671286 
L 837.306341 387.966845 
L 837.306341 387.966845 
" clip-path="url(#p00b2460530)" style="fill: none; stroke: #f47100; stroke-opacity: 0.5; stroke-width: 6; stroke-linecap: square"/>
   </g>
   <g id="line2d_15">
    <path d="M 116.844617 128.003418 
L 119.246156 128.475937 
L 121.647695 129.086003 
L 124.049234 129.591983 
L 126.450774 130.029342 
L 128.852313 130.420755 
L 131.253852 130.840425 
L 133.655391 131.222014 
L 136.05693 131.664853 
L 138.458469 132.159629 
L 140.860008 132.629983 
L 143.261547 133.724544 
L 145.663086 134.941765 
L 148.064625 136.143376 
L 150.466164 137.354992 
L 152.867703 138.587259 
L 155.269242 139.846418 
L 157.670782 141.132141 
L 160.072321 142.488377 
L 162.47386 143.916792 
L 164.875399 145.352 
" clip-path="url(#p00b2460530)" style="fill: none; stroke: #000000; stroke-opacity: 0.5; stroke-width: 6; stroke-linecap: square"/>
   </g>
   <g id="line2d_16">
    <path d="M 167.276938 147.25675 
L 172.080016 151.232978 
L 176.883094 155.556725 
L 188.89079 166.97091 
L 196.095407 174.316605 
L 203.300024 182.03618 
L 210.504641 190.192223 
L 220.110798 201.532833 
L 224.913876 207.500623 
L 232.118493 216.674743 
L 270.543118 263.916317 
L 280.149275 275.336242 
L 299.361587 297.366285 
L 308.967743 307.955294 
L 313.770822 313.012746 
L 320.975439 320.299642 
L 332.983134 332.115481 
L 340.187751 339.045555 
L 349.793908 347.890888 
L 369.00622 364.873109 
L 371.407759 366.890807 
L 378.612377 373.413087 
L 385.816994 379.511228 
L 390.620072 383.378916 
L 402.627768 392.595005 
L 412.233924 399.446057 
L 429.044697 411.152656 
L 436.249315 416.410279 
L 443.453932 421.852433 
L 453.060088 428.338492 
L 465.067784 436.199766 
L 474.67394 442.343629 
L 481.878557 446.69187 
L 489.083174 450.742015 
L 496.287792 454.5107 
L 505.893948 459.268478 
L 513.098565 462.605112 
L 520.303182 465.717344 
L 529.909339 469.564149 
L 537.113956 472.253692 
L 544.318573 474.739031 
L 551.52319 476.983035 
L 561.129347 479.633365 
L 573.137042 482.65705 
L 597.152433 488.391904 
L 616.364745 492.864928 
L 625.970902 494.840917 
L 637.978597 497.062652 
L 642.781675 497.928459 
L 649.986293 499.716175 
L 654.789371 500.512126 
L 661.993988 501.497723 
L 678.804761 503.340761 
L 686.009379 504.111557 
L 698.017074 505.471201 
L 710.024769 506.6318 
L 724.434004 507.754225 
L 760.45709 509.033771 
L 784.472481 509.813184 
L 815.692489 510.533352 
L 837.306341 510.765649 
L 837.306341 510.765649 
" clip-path="url(#p00b2460530)" style="fill: none; stroke: #d01e04; stroke-opacity: 0.5; stroke-width: 6; stroke-linecap: square"/>
   </g>
   <g id="line2d_17">
    <path d="M 116.844617 124.080994 
L 119.246156 124.7277 
L 121.647695 125.3838 
L 124.049234 125.979914 
L 126.450774 126.526566 
L 128.852313 127.0292 
L 131.253852 127.523167 
L 133.655391 128.003495 
L 136.05693 128.591707 
L 138.458469 129.294577 
L 140.860008 130.01802 
L 143.261547 131.412734 
L 145.663086 132.868024 
L 148.064625 134.209938 
L 150.466164 135.598614 
L 152.867703 137.065912 
L 155.269242 138.607855 
L 157.670782 140.161691 
L 160.072321 141.826494 
L 162.47386 143.566052 
L 164.875399 145.352 
" clip-path="url(#p00b2460530)" style="fill: none; stroke: #000000; stroke-opacity: 0.5; stroke-width: 6; stroke-linecap: square"/>
   </g>
   <g id="patch_3">
    <path d="M 109.64 515.56 
L 109.64 52.8 
" style="fill: none; stroke: #000000; stroke-width: 0.8; stroke-linejoin: miter; stroke-linecap: square"/>
   </g>
   <g id="patch_4">
    <path d="M 109.64 515.56 
L 858.920192 515.56 
" style="fill: none; stroke: #000000; stroke-width: 0.8; stroke-linejoin: miter; stroke-linecap: square"/>
   </g>
   <g id="text_14">
    <!-- Iceland -->
    <g transform="translate(435.218846 46.8)scale(0.24 -0.24)">
     <defs>
      <path id="DejaVuSans-Bold-49" d="M 588 4666 
L 1791 4666 
L 1791 0 
L 588 0 
L 588 4666 
z
" transform="scale(0.015625)"/>
      <path id="DejaVuSans-Bold-64" d="M 2919 2988 
L 2919 4863 
L 4044 4863 
L 4044 0 
L 2919 0 
L 2919 506 
Q 2688 197 2409 53 
Q 2131 -91 1766 -91 
Q 1119 -91 703 423 
Q 288 938 288 1747 
Q 288 2556 703 3070 
Q 1119 3584 1766 3584 
Q 2128 3584 2408 3439 
Q 2688 3294 2919 2988 
z
M 2181 722 
Q 2541 722 2730 984 
Q 2919 1247 2919 1747 
Q 2919 2247 2730 2509 
Q 2541 2772 2181 2772 
Q 1825 2772 1636 2509 
Q 1447 2247 1447 1747 
Q 1447 1247 1636 984 
Q 1825 722 2181 722 
z
" transform="scale(0.015625)"/>
     </defs>
     <use xlink:href="#DejaVuSans-Bold-49"/>
     <use xlink:href="#DejaVuSans-Bold-63" x="37.207031"/>
     <use xlink:href="#DejaVuSans-Bold-65" x="96.484375"/>
     <use xlink:href="#DejaVuSans-Bold-6c" x="164.306641"/>
     <use xlink:href="#DejaVuSans-Bold-61" x="198.583984"/>
     <use xlink:href="#DejaVuSans-Bold-6e" x="266.064453"/>
     <use xlink:href="#DejaVuSans-Bold-64" x="337.255859"/>
    </g>
   </g>
   <g id="legend_1">
    <g id="patch_5">
     <path d="M 597.903942 225.737875 
L 843.520192 225.737875 
Q 847.920192 225.737875 847.920192 221.337875 
L 847.920192 68.2 
Q 847.920192 63.8 843.520192 63.8 
L 597.903942 63.8 
Q 593.503942 63.8 593.503942 68.2 
L 593.503942 221.337875 
Q 593.503942 225.737875 597.903942 225.737875 
z
" style="fill: #ffffff; opacity: 0.6; stroke: #cccccc; stroke-linejoin: miter"/>
    </g>
    <g id="text_15">
     <!-- Global mean -->
     <g transform="translate(602.303942 89.316563)scale(0.22 -0.22)">
      <defs>
       <path id="DejaVuSans-47" d="M 3809 666 
L 3809 1919 
L 2778 1919 
L 2778 2438 
L 4434 2438 
L 4434 434 
Q 4069 175 3628 42 
Q 3188 -91 2688 -91 
Q 1594 -91 976 548 
Q 359 1188 359 2328 
Q 359 3472 976 4111 
Q 1594 4750 2688 4750 
Q 3144 4750 3555 4637 
Q 3966 4525 4313 4306 
L 4313 3634 
Q 3963 3931 3569 4081 
Q 3175 4231 2741 4231 
Q 1884 4231 1454 3753 
Q 1025 3275 1025 2328 
Q 1025 1384 1454 906 
Q 1884 428 2741 428 
Q 3075 428 3337 486 
Q 3600 544 3809 666 
z
" transform="scale(0.015625)"/>
       <path id="DejaVuSans-6c" d="M 603 4863 
L 1178 4863 
L 1178 0 
L 603 0 
L 603 4863 
z
" transform="scale(0.015625)"/>
       <path id="DejaVuSans-6f" d="M 1959 3097 
Q 1497 3097 1228 2736 
Q 959 2375 959 1747 
Q 959 1119 1226 758 
Q 1494 397 1959 397 
Q 2419 397 2687 759 
Q 2956 1122 2956 1747 
Q 2956 2369 2687 2733 
Q 2419 3097 1959 3097 
z
M 1959 3584 
Q 2709 3584 3137 3096 
Q 3566 2609 3566 1747 
Q 3566 888 3137 398 
Q 2709 -91 1959 -91 
Q 1206 -91 779 398 
Q 353 888 353 1747 
Q 353 2609 779 3096 
Q 1206 3584 1959 3584 
z
" transform="scale(0.015625)"/>
       <path id="DejaVuSans-62" d="M 3116 1747 
Q 3116 2381 2855 2742 
Q 2594 3103 2138 3103 
Q 1681 3103 1420 2742 
Q 1159 2381 1159 1747 
Q 1159 1113 1420 752 
Q 1681 391 2138 391 
Q 2594 391 2855 752 
Q 3116 1113 3116 1747 
z
M 1159 2969 
Q 1341 3281 1617 3432 
Q 1894 3584 2278 3584 
Q 2916 3584 3314 3078 
Q 3713 2572 3713 1747 
Q 3713 922 3314 415 
Q 2916 -91 2278 -91 
Q 1894 -91 1617 61 
Q 1341 213 1159 525 
L 1159 0 
L 581 0 
L 581 4863 
L 1159 4863 
L 1159 2969 
z
" transform="scale(0.015625)"/>
       <path id="DejaVuSans-61" d="M 2194 1759 
Q 1497 1759 1228 1600 
Q 959 1441 959 1056 
Q 959 750 1161 570 
Q 1363 391 1709 391 
Q 2188 391 2477 730 
Q 2766 1069 2766 1631 
L 2766 1759 
L 2194 1759 
z
M 3341 1997 
L 3341 0 
L 2766 0 
L 2766 531 
Q 2569 213 2275 61 
Q 1981 -91 1556 -91 
Q 1019 -91 701 211 
Q 384 513 384 1019 
Q 384 1609 779 1909 
Q 1175 2209 1959 2209 
L 2766 2209 
L 2766 2266 
Q 2766 2663 2505 2880 
Q 2244 3097 1772 3097 
Q 1472 3097 1187 3025 
Q 903 2953 641 2809 
L 641 3341 
Q 956 3463 1253 3523 
Q 1550 3584 1831 3584 
Q 2591 3584 2966 3190 
Q 3341 2797 3341 1997 
z
" transform="scale(0.015625)"/>
       <path id="DejaVuSans-20" transform="scale(0.015625)"/>
       <path id="DejaVuSans-6d" d="M 3328 2828 
Q 3544 3216 3844 3400 
Q 4144 3584 4550 3584 
Q 5097 3584 5394 3201 
Q 5691 2819 5691 2113 
L 5691 0 
L 5113 0 
L 5113 2094 
Q 5113 2597 4934 2840 
Q 4756 3084 4391 3084 
Q 3944 3084 3684 2787 
Q 3425 2491 3425 1978 
L 3425 0 
L 2847 0 
L 2847 2094 
Q 2847 2600 2669 2842 
Q 2491 3084 2119 3084 
Q 1678 3084 1418 2786 
Q 1159 2488 1159 1978 
L 1159 0 
L 581 0 
L 581 3500 
L 1159 3500 
L 1159 2956 
Q 1356 3278 1631 3431 
Q 1906 3584 2284 3584 
Q 2666 3584 2933 3390 
Q 3200 3197 3328 2828 
z
" transform="scale(0.015625)"/>
       <path id="DejaVuSans-65" d="M 3597 1894 
L 3597 1613 
L 953 1613 
Q 991 1019 1311 708 
Q 1631 397 2203 397 
Q 2534 397 2845 478 
Q 3156 559 3463 722 
L 3463 178 
Q 3153 47 2828 -22 
Q 2503 -91 2169 -91 
Q 1331 -91 842 396 
Q 353 884 353 1716 
Q 353 2575 817 3079 
Q 1281 3584 2069 3584 
Q 2775 3584 3186 3129 
Q 3597 2675 3597 1894 
z
M 3022 2063 
Q 3016 2534 2758 2815 
Q 2500 3097 2075 3097 
Q 1594 3097 1305 2825 
Q 1016 2553 972 2059 
L 3022 2063 
z
" transform="scale(0.015625)"/>
       <path id="DejaVuSans-6e" d="M 3513 2113 
L 3513 0 
L 2938 0 
L 2938 2094 
Q 2938 2591 2744 2837 
Q 2550 3084 2163 3084 
Q 1697 3084 1428 2787 
Q 1159 2491 1159 1978 
L 1159 0 
L 581 0 
L 581 3500 
L 1159 3500 
L 1159 2956 
Q 1366 3272 1645 3428 
Q 1925 3584 2291 3584 
Q 2894 3584 3203 3211 
Q 3513 2838 3513 2113 
z
" transform="scale(0.015625)"/>
      </defs>
      <use xlink:href="#DejaVuSans-47"/>
      <use xlink:href="#DejaVuSans-6c" x="77.490234"/>
      <use xlink:href="#DejaVuSans-6f" x="105.273438"/>
      <use xlink:href="#DejaVuSans-62" x="166.455078"/>
      <use xlink:href="#DejaVuSans-61" x="229.931641"/>
      <use xlink:href="#DejaVuSans-6c" x="291.210938"/>
      <use xlink:href="#DejaVuSans-20" x="318.994141"/>
      <use xlink:href="#DejaVuSans-6d" x="350.78125"/>
      <use xlink:href="#DejaVuSans-65" x="448.193359"/>
      <use xlink:href="#DejaVuSans-61" x="509.716797"/>
      <use xlink:href="#DejaVuSans-6e" x="570.996094"/>
     </g>
     <!-- temperature above -->
     <g transform="translate(602.303942 113.95175)scale(0.22 -0.22)">
      <defs>
       <path id="DejaVuSans-74" d="M 1172 4494 
L 1172 3500 
L 2356 3500 
L 2356 3053 
L 1172 3053 
L 1172 1153 
Q 1172 725 1289 603 
Q 1406 481 1766 481 
L 2356 481 
L 2356 0 
L 1766 0 
Q 1100 0 847 248 
Q 594 497 594 1153 
L 594 3053 
L 172 3053 
L 172 3500 
L 594 3500 
L 594 4494 
L 1172 4494 
z
" transform="scale(0.015625)"/>
       <path id="DejaVuSans-70" d="M 1159 525 
L 1159 -1331 
L 581 -1331 
L 581 3500 
L 1159 3500 
L 1159 2969 
Q 1341 3281 1617 3432 
Q 1894 3584 2278 3584 
Q 2916 3584 3314 3078 
Q 3713 2572 3713 1747 
Q 3713 922 3314 415 
Q 2916 -91 2278 -91 
Q 1894 -91 1617 61 
Q 1341 213 1159 525 
z
M 3116 1747 
Q 3116 2381 2855 2742 
Q 2594 3103 2138 3103 
Q 1681 3103 1420 2742 
Q 1159 2381 1159 1747 
Q 1159 1113 1420 752 
Q 1681 391 2138 391 
Q 2594 391 2855 752 
Q 3116 1113 3116 1747 
z
" transform="scale(0.015625)"/>
       <path id="DejaVuSans-72" d="M 2631 2963 
Q 2534 3019 2420 3045 
Q 2306 3072 2169 3072 
Q 1681 3072 1420 2755 
Q 1159 2438 1159 1844 
L 1159 0 
L 581 0 
L 581 3500 
L 1159 3500 
L 1159 2956 
Q 1341 3275 1631 3429 
Q 1922 3584 2338 3584 
Q 2397 3584 2469 3576 
Q 2541 3569 2628 3553 
L 2631 2963 
z
" transform="scale(0.015625)"/>
       <path id="DejaVuSans-75" d="M 544 1381 
L 544 3500 
L 1119 3500 
L 1119 1403 
Q 1119 906 1312 657 
Q 1506 409 1894 409 
Q 2359 409 2629 706 
Q 2900 1003 2900 1516 
L 2900 3500 
L 3475 3500 
L 3475 0 
L 2900 0 
L 2900 538 
Q 2691 219 2414 64 
Q 2138 -91 1772 -91 
Q 1169 -91 856 284 
Q 544 659 544 1381 
z
M 1991 3584 
L 1991 3584 
z
" transform="scale(0.015625)"/>
       <path id="DejaVuSans-76" d="M 191 3500 
L 800 3500 
L 1894 563 
L 2988 3500 
L 3597 3500 
L 2284 0 
L 1503 0 
L 191 3500 
z
" transform="scale(0.015625)"/>
      </defs>
      <use xlink:href="#DejaVuSans-74"/>
      <use xlink:href="#DejaVuSans-65" x="39.208984"/>
      <use xlink:href="#DejaVuSans-6d" x="100.732422"/>
      <use xlink:href="#DejaVuSans-70" x="198.144531"/>
      <use xlink:href="#DejaVuSans-65" x="261.621094"/>
      <use xlink:href="#DejaVuSans-72" x="323.144531"/>
      <use xlink:href="#DejaVuSans-61" x="364.257812"/>
      <use xlink:href="#DejaVuSans-74" x="425.537109"/>
      <use xlink:href="#DejaVuSans-75" x="464.746094"/>
      <use xlink:href="#DejaVuSans-72" x="528.125"/>
      <use xlink:href="#DejaVuSans-65" x="566.988281"/>
      <use xlink:href="#DejaVuSans-20" x="628.511719"/>
      <use xlink:href="#DejaVuSans-61" x="660.298828"/>
      <use xlink:href="#DejaVuSans-62" x="721.578125"/>
      <use xlink:href="#DejaVuSans-6f" x="785.054688"/>
      <use xlink:href="#DejaVuSans-76" x="846.236328"/>
      <use xlink:href="#DejaVuSans-65" x="905.416016"/>
     </g>
     <!-- pre-industrial in 2100 -->
     <g transform="translate(602.303942 138.586938)scale(0.22 -0.22)">
      <defs>
       <path id="DejaVuSans-2d" d="M 313 2009 
L 1997 2009 
L 1997 1497 
L 313 1497 
L 313 2009 
z
" transform="scale(0.015625)"/>
       <path id="DejaVuSans-69" d="M 603 3500 
L 1178 3500 
L 1178 0 
L 603 0 
L 603 3500 
z
M 603 4863 
L 1178 4863 
L 1178 4134 
L 603 4134 
L 603 4863 
z
" transform="scale(0.015625)"/>
       <path id="DejaVuSans-64" d="M 2906 2969 
L 2906 4863 
L 3481 4863 
L 3481 0 
L 2906 0 
L 2906 525 
Q 2725 213 2448 61 
Q 2172 -91 1784 -91 
Q 1150 -91 751 415 
Q 353 922 353 1747 
Q 353 2572 751 3078 
Q 1150 3584 1784 3584 
Q 2172 3584 2448 3432 
Q 2725 3281 2906 2969 
z
M 947 1747 
Q 947 1113 1208 752 
Q 1469 391 1925 391 
Q 2381 391 2643 752 
Q 2906 1113 2906 1747 
Q 2906 2381 2643 2742 
Q 2381 3103 1925 3103 
Q 1469 3103 1208 2742 
Q 947 2381 947 1747 
z
" transform="scale(0.015625)"/>
       <path id="DejaVuSans-73" d="M 2834 3397 
L 2834 2853 
Q 2591 2978 2328 3040 
Q 2066 3103 1784 3103 
Q 1356 3103 1142 2972 
Q 928 2841 928 2578 
Q 928 2378 1081 2264 
Q 1234 2150 1697 2047 
L 1894 2003 
Q 2506 1872 2764 1633 
Q 3022 1394 3022 966 
Q 3022 478 2636 193 
Q 2250 -91 1575 -91 
Q 1294 -91 989 -36 
Q 684 19 347 128 
L 347 722 
Q 666 556 975 473 
Q 1284 391 1588 391 
Q 1994 391 2212 530 
Q 2431 669 2431 922 
Q 2431 1156 2273 1281 
Q 2116 1406 1581 1522 
L 1381 1569 
Q 847 1681 609 1914 
Q 372 2147 372 2553 
Q 372 3047 722 3315 
Q 1072 3584 1716 3584 
Q 2034 3584 2315 3537 
Q 2597 3491 2834 3397 
z
" transform="scale(0.015625)"/>
      </defs>
      <use xlink:href="#DejaVuSans-70"/>
      <use xlink:href="#DejaVuSans-72" x="63.476562"/>
      <use xlink:href="#DejaVuSans-65" x="102.339844"/>
      <use xlink:href="#DejaVuSans-2d" x="163.863281"/>
      <use xlink:href="#DejaVuSans-69" x="199.947266"/>
      <use xlink:href="#DejaVuSans-6e" x="227.730469"/>
      <use xlink:href="#DejaVuSans-64" x="291.109375"/>
      <use xlink:href="#DejaVuSans-75" x="354.585938"/>
      <use xlink:href="#DejaVuSans-73" x="417.964844"/>
      <use xlink:href="#DejaVuSans-74" x="470.064453"/>
      <use xlink:href="#DejaVuSans-72" x="509.273438"/>
      <use xlink:href="#DejaVuSans-69" x="550.386719"/>
      <use xlink:href="#DejaVuSans-61" x="578.169922"/>
      <use xlink:href="#DejaVuSans-6c" x="639.449219"/>
      <use xlink:href="#DejaVuSans-20" x="667.232422"/>
      <use xlink:href="#DejaVuSans-69" x="699.019531"/>
      <use xlink:href="#DejaVuSans-6e" x="726.802734"/>
      <use xlink:href="#DejaVuSans-20" x="790.181641"/>
      <use xlink:href="#DejaVuSans-32" x="821.96875"/>
      <use xlink:href="#DejaVuSans-31" x="885.591797"/>
      <use xlink:href="#DejaVuSans-30" x="949.214844"/>
      <use xlink:href="#DejaVuSans-30" x="1012.837891"/>
     </g>
    </g>
    <g id="line2d_18">
     <path d="M 616.971755 155.478813 
L 638.971755 155.478813 
L 660.971755 155.478813 
" style="fill: none; stroke: #74b8f8; stroke-opacity: 0.5; stroke-width: 6; stroke-linecap: square"/>
    </g>
    <g id="text_16">
     <!-- 1.5C (n=2) -->
     <g transform="translate(678.571755 163.178813)scale(0.22 -0.22)">
      <defs>
       <path id="DejaVuSans-2e" d="M 684 794 
L 1344 794 
L 1344 0 
L 684 0 
L 684 794 
z
" transform="scale(0.015625)"/>
       <path id="DejaVuSans-35" d="M 691 4666 
L 3169 4666 
L 3169 4134 
L 1269 4134 
L 1269 2991 
Q 1406 3038 1543 3061 
Q 1681 3084 1819 3084 
Q 2600 3084 3056 2656 
Q 3513 2228 3513 1497 
Q 3513 744 3044 326 
Q 2575 -91 1722 -91 
Q 1428 -91 1123 -41 
Q 819 9 494 109 
L 494 744 
Q 775 591 1075 516 
Q 1375 441 1709 441 
Q 2250 441 2565 725 
Q 2881 1009 2881 1497 
Q 2881 1984 2565 2268 
Q 2250 2553 1709 2553 
Q 1456 2553 1204 2497 
Q 953 2441 691 2322 
L 691 4666 
z
" transform="scale(0.015625)"/>
       <path id="DejaVuSans-b0" d="M 1600 4347 
Q 1350 4347 1178 4173 
Q 1006 4000 1006 3750 
Q 1006 3503 1178 3333 
Q 1350 3163 1600 3163 
Q 1850 3163 2022 3333 
Q 2194 3503 2194 3750 
Q 2194 3997 2020 4172 
Q 1847 4347 1600 4347 
z
M 1600 4750 
Q 1800 4750 1984 4673 
Q 2169 4597 2303 4453 
Q 2447 4313 2519 4134 
Q 2591 3956 2591 3750 
Q 2591 3338 2302 3052 
Q 2013 2766 1594 2766 
Q 1172 2766 890 3047 
Q 609 3328 609 3750 
Q 609 4169 896 4459 
Q 1184 4750 1600 4750 
z
" transform="scale(0.015625)"/>
       <path id="DejaVuSans-43" d="M 4122 4306 
L 4122 3641 
Q 3803 3938 3442 4084 
Q 3081 4231 2675 4231 
Q 1875 4231 1450 3742 
Q 1025 3253 1025 2328 
Q 1025 1406 1450 917 
Q 1875 428 2675 428 
Q 3081 428 3442 575 
Q 3803 722 4122 1019 
L 4122 359 
Q 3791 134 3420 21 
Q 3050 -91 2638 -91 
Q 1578 -91 968 557 
Q 359 1206 359 2328 
Q 359 3453 968 4101 
Q 1578 4750 2638 4750 
Q 3056 4750 3426 4639 
Q 3797 4528 4122 4306 
z
" transform="scale(0.015625)"/>
       <path id="DejaVuSans-28" d="M 1984 4856 
Q 1566 4138 1362 3434 
Q 1159 2731 1159 2009 
Q 1159 1288 1364 580 
Q 1569 -128 1984 -844 
L 1484 -844 
Q 1016 -109 783 600 
Q 550 1309 550 2009 
Q 550 2706 781 3412 
Q 1013 4119 1484 4856 
L 1984 4856 
z
" transform="scale(0.015625)"/>
       <path id="DejaVuSans-3d" d="M 678 2906 
L 4684 2906 
L 4684 2381 
L 678 2381 
L 678 2906 
z
M 678 1631 
L 4684 1631 
L 4684 1100 
L 678 1100 
L 678 1631 
z
" transform="scale(0.015625)"/>
       <path id="DejaVuSans-29" d="M 513 4856 
L 1013 4856 
Q 1481 4119 1714 3412 
Q 1947 2706 1947 2009 
Q 1947 1309 1714 600 
Q 1481 -109 1013 -844 
L 513 -844 
Q 928 -128 1133 580 
Q 1338 1288 1338 2009 
Q 1338 2731 1133 3434 
Q 928 4138 513 4856 
z
" transform="scale(0.015625)"/>
      </defs>
      <use xlink:href="#DejaVuSans-31"/>
      <use xlink:href="#DejaVuSans-2e" x="63.623047"/>
      <use xlink:href="#DejaVuSans-35" x="95.410156"/>
      <use xlink:href="#DejaVuSans-b0" x="159.033203"/>
      <use xlink:href="#DejaVuSans-43" x="209.033203"/>
      <use xlink:href="#DejaVuSans-20" x="278.857422"/>
      <use xlink:href="#DejaVuSans-28" x="310.644531"/>
      <use xlink:href="#DejaVuSans-6e" x="349.658203"/>
      <use xlink:href="#DejaVuSans-3d" x="413.037109"/>
      <use xlink:href="#DejaVuSans-32" x="496.826172"/>
      <use xlink:href="#DejaVuSans-29" x="560.449219"/>
     </g>
    </g>
    <g id="line2d_19">
     <path d="M 616.971755 180.070688 
L 638.971755 180.070688 
L 660.971755 180.070688 
" style="fill: none; stroke: #f47100; stroke-opacity: 0.5; stroke-width: 6; stroke-linecap: square"/>
    </g>
    <g id="text_17">
     <!-- 2.2C (n=14) -->
     <g transform="translate(678.571755 187.770688)scale(0.22 -0.22)">
      <use xlink:href="#DejaVuSans-32"/>
      <use xlink:href="#DejaVuSans-2e" x="63.623047"/>
      <use xlink:href="#DejaVuSans-32" x="95.410156"/>
      <use xlink:href="#DejaVuSans-b0" x="159.033203"/>
      <use xlink:href="#DejaVuSans-43" x="209.033203"/>
      <use xlink:href="#DejaVuSans-20" x="278.857422"/>
      <use xlink:href="#DejaVuSans-28" x="310.644531"/>
      <use xlink:href="#DejaVuSans-6e" x="349.658203"/>
      <use xlink:href="#DejaVuSans-3d" x="413.037109"/>
      <use xlink:href="#DejaVuSans-31" x="496.826172"/>
      <use xlink:href="#DejaVuSans-34" x="560.449219"/>
      <use xlink:href="#DejaVuSans-29" x="624.072266"/>
     </g>
    </g>
    <g id="line2d_20">
     <path d="M 616.971755 204.662563 
L 638.971755 204.662563 
L 660.971755 204.662563 
" style="fill: none; stroke: #d01e04; stroke-opacity: 0.5; stroke-width: 6; stroke-linecap: square"/>
    </g>
    <g id="text_18">
     <!-- 2.8C (n=12) -->
     <g transform="translate(678.571755 212.362563)scale(0.22 -0.22)">
      <use xlink:href="#DejaVuSans-32"/>
      <use xlink:href="#DejaVuSans-2e" x="63.623047"/>
      <use xlink:href="#DejaVuSans-38" x="95.410156"/>
      <use xlink:href="#DejaVuSans-b0" x="159.033203"/>
      <use xlink:href="#DejaVuSans-43" x="209.033203"/>
      <use xlink:href="#DejaVuSans-20" x="278.857422"/>
      <use xlink:href="#DejaVuSans-28" x="310.644531"/>
      <use xlink:href="#DejaVuSans-6e" x="349.658203"/>
      <use xlink:href="#DejaVuSans-3d" x="413.037109"/>
      <use xlink:href="#DejaVuSans-31" x="496.826172"/>
      <use xlink:href="#DejaVuSans-32" x="560.449219"/>
      <use xlink:href="#DejaVuSans-29" x="624.072266"/>
     </g>
    </g>
   </g>
  </g>
 </g>
 <defs>
  <clipPath id="p00b2460530">
   <rect x="109.64" y="52.8" width="749.280192" height="462.76"/>
  </clipPath>
 </defs>
</svg>
