<?xml version="1.0" encoding="utf-8" standalone="no"?>
<!DOCTYPE svg PUBLIC "-//W3C//DTD SVG 1.1//EN"
  "http://www.w3.org/Graphics/SVG/1.1/DTD/svg11.dtd">
<svg xmlns:xlink="http://www.w3.org/1999/xlink" width="900pt" height="600pt" viewBox="0 0 900 600" xmlns="http://www.w3.org/2000/svg" version="1.1">
 <metadata>
  <rdf:RDF xmlns:dc="http://purl.org/dc/elements/1.1/" xmlns:cc="http://creativecommons.org/ns#" xmlns:rdf="http://www.w3.org/1999/02/22-rdf-syntax-ns#">
   <cc:Work>
    <dc:type rdf:resource="http://purl.org/dc/dcmitype/StillImage"/>
    <dc:date>2024-10-31T18:28:34.106112</dc:date>
    <dc:format>image/svg+xml</dc:format>
    <dc:creator>
     <cc:Agent>
      <dc:title>Matplotlib v3.5.3, https://matplotlib.org/</dc:title>
     </cc:Agent>
    </dc:creator>
   </cc:Work>
  </rdf:RDF>
 </metadata>
 <defs>
  <style type="text/css">*{stroke-linejoin: round; stroke-linecap: butt}</style>
 </defs>
 <g id="figure_1">
  <g id="patch_1">
   <path d="M 0 600 
L 900 600 
L 900 0 
L 0 0 
z
" style="fill: #ffffff"/>
  </g>
  <g id="axes_1">
   <g id="patch_2">
    <path d="M 109.64 515.56 
L 858.920192 515.56 
L 858.920192 52.8 
L 109.64 52.8 
z
" style="fill: #ffffff"/>
   </g>
   <g id="PolyCollection_1">
    <defs>
     <path id="mdc812baac6" d="M 167.276938 -450.189699 
L 167.276938 -449.253027 
L 169.678477 -444.043574 
L 172.080016 -439.081422 
L 174.481555 -434.274791 
L 176.883094 -429.295642 
L 179.284633 -423.976851 
L 181.686172 -418.326729 
L 184.087711 -413.077286 
L 186.48925 -407.661862 
L 188.89079 -402.157003 
L 191.292329 -396.089263 
L 193.693868 -390.51664 
L 196.095407 -384.9997 
L 198.496946 -379.640099 
L 200.898485 -374.245578 
L 203.300024 -368.714908 
L 205.701563 -363.479607 
L 208.103102 -357.895781 
L 210.504641 -352.442929 
L 212.90618 -347.188913 
L 215.307719 -342.108608 
L 217.709259 -336.909434 
L 220.110798 -331.522862 
L 222.512337 -326.045027 
L 224.913876 -320.663246 
L 227.315415 -315.426019 
L 229.716954 -310.310103 
L 232.118493 -305.269865 
L 234.520032 -300.52595 
L 236.921571 -296.194874 
L 239.32311 -291.922844 
L 241.724649 -287.379435 
L 244.126188 -282.975851 
L 246.527727 -278.56915 
L 248.929267 -274.191385 
L 251.330806 -269.898491 
L 253.732345 -265.829546 
L 256.133884 -262.24661 
L 258.535423 -258.522127 
L 260.936962 -255.04884 
L 263.338501 -251.581484 
L 265.74004 -248.200868 
L 268.141579 -245.248491 
L 270.543118 -242.471014 
L 272.944657 -240.016774 
L 275.346196 -237.621112 
L 277.747735 -235.415946 
L 280.149275 -233.279952 
L 282.550814 -231.163518 
L 284.952353 -228.916014 
L 287.353892 -226.559865 
L 289.755431 -224.298002 
L 292.15697 -222.053634 
L 294.558509 -219.926339 
L 296.960048 -217.79178 
L 299.361587 -215.586755 
L 301.763126 -213.514081 
L 304.164665 -211.471273 
L 306.566204 -209.744201 
L 308.967743 -208.189454 
L 311.369283 -206.658886 
L 313.770822 -205.147799 
L 316.172361 -203.542441 
L 318.5739 -201.992344 
L 320.975439 -200.209265 
L 323.376978 -198.539126 
L 325.778517 -196.826626 
L 328.180056 -195.110928 
L 330.581595 -193.486543 
L 332.983134 -191.886432 
L 335.384673 -190.470063 
L 337.786212 -189.308505 
L 340.187751 -188.139014 
L 342.589291 -186.89242 
L 344.99083 -185.690189 
L 347.392369 -184.573298 
L 349.793908 -183.479586 
L 352.195447 -182.425102 
L 354.596986 -181.298611 
L 356.998525 -180.103521 
L 359.400064 -178.899633 
L 361.801603 -177.707382 
L 364.203142 -176.595833 
L 366.604681 -175.480121 
L 369.00622 -174.462701 
L 371.407759 -173.450902 
L 373.809299 -172.513342 
L 376.210838 -171.569497 
L 378.612377 -170.555917 
L 381.013916 -169.582985 
L 383.415455 -168.7143 
L 385.816994 -167.812843 
L 388.218533 -167.015462 
L 390.620072 -166.334879 
L 393.021611 -165.648287 
L 395.42315 -164.946703 
L 397.824689 -164.170597 
L 400.226228 -163.404246 
L 402.627768 -162.671113 
L 405.029307 -161.859559 
L 407.430846 -161.136791 
L 409.832385 -160.507843 
L 412.233924 -159.849913 
L 414.635463 -159.244591 
L 417.037002 -158.688865 
L 419.438541 -158.140548 
L 421.84008 -157.576398 
L 424.241619 -157.052747 
L 426.643158 -156.545491 
L 429.044697 -155.995051 
L 431.446236 -155.338145 
L 433.847776 -154.464771 
L 436.249315 -153.545669 
L 438.650854 -152.665236 
L 441.052393 -151.888559 
L 443.453932 -151.176852 
L 445.855471 -150.507394 
L 448.25701 -149.844631 
L 450.658549 -149.163756 
L 453.060088 -148.582406 
L 455.461627 -148.032535 
L 457.863166 -147.369952 
L 460.264705 -146.716515 
L 462.666244 -146.033216 
L 465.067784 -145.349813 
L 467.469323 -144.722091 
L 469.870862 -144.101002 
L 472.272401 -143.462602 
L 474.67394 -142.868926 
L 477.075479 -142.375795 
L 479.477018 -141.877801 
L 481.878557 -141.47347 
L 484.280096 -141.078438 
L 486.681635 -140.661983 
L 489.083174 -140.1684 
L 491.484713 -139.666035 
L 493.886252 -139.174725 
L 496.287792 -138.648077 
L 498.689331 -138.108222 
L 501.09087 -137.558679 
L 503.492409 -136.969253 
L 505.893948 -136.396955 
L 508.295487 -135.847284 
L 510.697026 -135.287164 
L 513.098565 -134.69682 
L 515.500104 -134.070717 
L 517.901643 -133.440627 
L 520.303182 -132.853729 
L 522.704721 -132.255857 
L 525.10626 -131.607946 
L 527.5078 -130.960906 
L 529.909339 -130.409371 
L 532.310878 -129.884832 
L 534.712417 -129.377987 
L 537.113956 -128.957355 
L 539.515495 -128.56768 
L 541.917034 -128.150586 
L 544.318573 -127.809487 
L 546.720112 -127.501823 
L 549.121651 -127.164681 
L 551.52319 -126.821253 
L 553.924729 -126.546688 
L 556.326268 -126.227992 
L 558.727808 -125.950908 
L 561.129347 -125.711393 
L 563.530886 -125.489672 
L 565.932425 -125.336499 
L 568.333964 -125.183917 
L 570.735503 -125.073023 
L 573.137042 -124.967723 
L 575.538581 -124.888486 
L 577.94012 -124.704695 
L 580.341659 -124.563619 
L 582.743198 -124.395215 
L 585.144737 -124.216306 
L 587.546277 -124.055062 
L 589.947816 -123.87992 
L 592.349355 -123.72649 
L 594.750894 -123.567209 
L 597.152433 -123.416669 
L 599.553972 -123.291143 
L 601.955511 -123.142214 
L 604.35705 -122.999531 
L 606.758589 -122.823639 
L 609.160128 -122.648421 
L 611.561667 -122.475399 
L 613.963206 -122.248519 
L 616.364745 -122.004635 
L 618.766285 -121.729322 
L 621.167824 -121.456009 
L 623.569363 -121.170482 
L 625.970902 -120.906194 
L 628.372441 -120.619834 
L 630.77398 -120.414166 
L 633.175519 -120.219699 
L 635.577058 -120.026435 
L 637.978597 -119.85616 
L 640.380136 -119.711491 
L 642.781675 -119.515862 
L 645.183214 -119.364366 
L 647.584753 -119.195934 
L 649.986293 -118.993145 
L 652.387832 -118.798339 
L 654.789371 -118.598294 
L 657.19091 -118.417466 
L 659.592449 -118.217048 
L 661.993988 -118.042227 
L 664.395527 -117.90134 
L 666.797066 -117.768161 
L 669.198605 -117.614317 
L 671.600144 -117.447949 
L 674.001683 -117.320221 
L 676.403222 -117.203206 
L 678.804761 -117.010691 
L 681.206301 -116.751551 
L 683.60784 -116.533634 
L 686.009379 -116.342727 
L 688.410918 -116.146327 
L 690.812457 -115.9848 
L 693.213996 -115.80196 
L 695.615535 -115.653099 
L 698.017074 -115.560792 
L 700.418613 -115.449285 
L 702.820152 -115.401216 
L 705.221691 -115.311468 
L 707.62323 -115.249991 
L 710.024769 -115.204318 
L 712.426309 -115.137758 
L 714.827848 -115.05681 
L 717.229387 -115.007295 
L 719.630926 -114.97656 
L 722.032465 -114.89774 
L 724.434004 -114.785091 
L 726.835543 -114.680348 
L 729.237082 -114.603941 
L 731.638621 -114.496143 
L 734.04016 -114.386004 
L 736.441699 -114.215646 
L 738.843238 -114.040899 
L 741.244777 -113.906844 
L 743.646317 -113.752942 
L 746.047856 -113.591655 
L 748.449395 -113.459449 
L 750.850934 -113.286069 
L 753.252473 -113.123353 
L 755.654012 -112.95652 
L 758.055551 -112.82577 
L 760.45709 -112.706279 
L 762.858629 -112.583109 
L 765.260168 -112.445102 
L 767.661707 -112.301268 
L 770.063246 -112.194335 
L 772.464786 -112.094286 
L 774.866325 -112.034638 
L 777.267864 -111.986524 
L 779.669403 -111.939111 
L 782.070942 -111.850766 
L 784.472481 -111.849148 
L 786.87402 -111.798221 
L 789.275559 -111.735668 
L 791.677098 -111.682616 
L 794.078637 -111.653371 
L 796.480176 -111.618937 
L 798.881715 -111.611323 
L 801.283254 -111.618792 
L 803.684794 -111.640544 
L 806.086333 -111.611176 
L 808.487872 -111.583779 
L 810.889411 -111.550261 
L 813.29095 -111.528522 
L 815.692489 -111.517506 
L 818.094028 -111.532289 
L 820.495567 -111.552046 
L 822.897106 -111.556637 
L 825.298645 -111.562989 
L 827.700184 -111.547508 
L 830.101723 -111.554408 
L 832.503262 -111.457425 
L 834.904802 -111.461247 
L 837.306341 -111.457747 
L 837.306341 -114.156705 
L 837.306341 -114.156705 
L 834.904802 -114.178327 
L 832.503262 -114.19312 
L 830.101723 -114.315299 
L 827.700184 -114.326619 
L 825.298645 -114.364571 
L 822.897106 -114.380882 
L 820.495567 -114.397591 
L 818.094028 -114.398637 
L 815.692489 -114.399619 
L 813.29095 -114.440155 
L 810.889411 -114.496357 
L 808.487872 -114.577742 
L 806.086333 -114.654734 
L 803.684794 -114.727609 
L 801.283254 -114.736418 
L 798.881715 -114.755253 
L 796.480176 -114.780978 
L 794.078637 -114.833963 
L 791.677098 -114.882341 
L 789.275559 -114.953565 
L 786.87402 -115.033477 
L 784.472481 -115.101094 
L 782.070942 -115.116899 
L 779.669403 -115.225117 
L 777.267864 -115.284576 
L 774.866325 -115.342678 
L 772.464786 -115.404661 
L 770.063246 -115.504493 
L 767.661707 -115.606645 
L 765.260168 -115.741602 
L 762.858629 -115.875425 
L 760.45709 -115.987073 
L 758.055551 -116.093612 
L 755.654012 -116.207492 
L 753.252473 -116.378314 
L 750.850934 -116.550214 
L 748.449395 -116.740118 
L 746.047856 -116.874769 
L 743.646317 -117.03302 
L 741.244777 -117.18949 
L 738.843238 -117.323325 
L 736.441699 -117.506195 
L 734.04016 -117.688178 
L 731.638621 -117.804901 
L 729.237082 -117.92142 
L 726.835543 -117.995621 
L 724.434004 -118.104099 
L 722.032465 -118.227333 
L 719.630926 -118.325859 
L 717.229387 -118.378545 
L 714.827848 -118.448192 
L 712.426309 -118.553378 
L 710.024769 -118.643829 
L 707.62323 -118.722878 
L 705.221691 -118.814115 
L 702.820152 -118.93061 
L 700.418613 -118.999605 
L 698.017074 -119.145725 
L 695.615535 -119.276196 
L 693.213996 -119.462629 
L 690.812457 -119.688933 
L 688.410918 -119.891814 
L 686.009379 -120.113183 
L 683.60784 -120.344508 
L 681.206301 -120.605931 
L 678.804761 -120.926338 
L 676.403222 -121.184518 
L 674.001683 -121.360189 
L 671.600144 -121.551504 
L 669.198605 -121.784854 
L 666.797066 -122.004522 
L 664.395527 -122.203033 
L 661.993988 -122.407903 
L 659.592449 -122.646985 
L 657.19091 -122.907876 
L 654.789371 -123.154196 
L 652.387832 -123.427039 
L 649.986293 -123.691062 
L 647.584753 -123.962937 
L 645.183214 -124.196995 
L 642.781675 -124.414543 
L 640.380136 -124.674227 
L 637.978597 -124.894178 
L 635.577058 -125.120622 
L 633.175519 -125.35914 
L 630.77398 -125.596479 
L 628.372441 -125.847668 
L 625.970902 -126.187361 
L 623.569363 -126.503363 
L 621.167824 -126.842034 
L 618.766285 -127.170488 
L 616.364745 -127.498822 
L 613.963206 -127.798733 
L 611.561667 -128.084319 
L 609.160128 -128.328884 
L 606.758589 -128.576366 
L 604.35705 -128.825777 
L 601.955511 -129.043146 
L 599.553972 -129.270146 
L 597.152433 -129.474103 
L 594.750894 -129.705558 
L 592.349355 -129.950587 
L 589.947816 -130.191329 
L 587.546277 -130.468383 
L 585.144737 -130.730586 
L 582.743198 -131.010594 
L 580.341659 -131.284515 
L 577.94012 -131.527194 
L 575.538581 -131.811242 
L 573.137042 -131.979602 
L 570.735503 -132.176016 
L 568.333964 -132.383355 
L 565.932425 -132.632341 
L 563.530886 -132.888859 
L 561.129347 -133.207138 
L 558.727808 -133.534862 
L 556.326268 -133.896591 
L 553.924729 -134.296012 
L 551.52319 -134.657487 
L 549.121651 -135.094406 
L 546.720112 -135.529427 
L 544.318573 -135.929251 
L 541.917034 -136.362316 
L 539.515495 -136.863821 
L 537.113956 -137.347346 
L 534.712417 -137.865368 
L 532.310878 -138.451135 
L 529.909339 -139.053619 
L 527.5078 -139.662053 
L 525.10626 -140.375227 
L 522.704721 -141.089539 
L 520.303182 -141.758848 
L 517.901643 -142.412925 
L 515.500104 -143.106501 
L 513.098565 -143.803583 
L 510.697026 -144.466319 
L 508.295487 -145.093412 
L 505.893948 -145.718088 
L 503.492409 -146.359746 
L 501.09087 -147.020097 
L 498.689331 -147.613581 
L 496.287792 -148.194318 
L 493.886252 -148.756806 
L 491.484713 -149.292567 
L 489.083174 -149.841218 
L 486.681635 -150.384631 
L 484.280096 -150.8669 
L 481.878557 -151.333627 
L 479.477018 -151.826892 
L 477.075479 -152.412005 
L 474.67394 -152.995016 
L 472.272401 -153.668796 
L 469.870862 -154.391656 
L 467.469323 -155.101012 
L 465.067784 -155.81108 
L 462.666244 -156.577004 
L 460.264705 -157.355512 
L 457.863166 -158.114008 
L 455.461627 -158.888079 
L 453.060088 -159.551425 
L 450.658549 -160.255616 
L 448.25701 -161.057285 
L 445.855471 -161.850792 
L 443.453932 -162.64603 
L 441.052393 -163.483286 
L 438.650854 -164.385014 
L 436.249315 -165.399099 
L 433.847776 -166.439782 
L 431.446236 -167.436489 
L 429.044697 -168.216823 
L 426.643158 -168.877899 
L 424.241619 -169.48812 
L 421.84008 -170.112897 
L 419.438541 -170.766613 
L 417.037002 -171.415149 
L 414.635463 -172.06359 
L 412.233924 -172.759671 
L 409.832385 -173.500138 
L 407.430846 -174.198447 
L 405.029307 -174.992387 
L 402.627768 -175.899292 
L 400.226228 -176.718479 
L 397.824689 -177.561916 
L 395.42315 -178.424081 
L 393.021611 -179.218221 
L 390.620072 -179.997395 
L 388.218533 -180.758593 
L 385.816994 -181.658065 
L 383.415455 -182.682368 
L 381.013916 -183.608175 
L 378.612377 -184.662115 
L 376.210838 -185.773556 
L 373.809299 -186.823263 
L 371.407759 -187.868345 
L 369.00622 -188.978391 
L 366.604681 -190.111488 
L 364.203142 -191.345671 
L 361.801603 -192.567078 
L 359.400064 -193.878293 
L 356.998525 -195.190814 
L 354.596986 -196.495654 
L 352.195447 -197.729404 
L 349.793908 -198.888706 
L 347.392369 -200.089444 
L 344.99083 -201.303656 
L 342.589291 -202.584418 
L 340.187751 -203.914293 
L 337.786212 -205.130452 
L 335.384673 -206.316609 
L 332.983134 -207.813662 
L 330.581595 -209.451573 
L 328.180056 -211.091226 
L 325.778517 -212.815225 
L 323.376978 -214.527233 
L 320.975439 -216.208876 
L 318.5739 -217.983852 
L 316.172361 -219.538792 
L 313.770822 -221.162502 
L 311.369283 -222.690349 
L 308.967743 -224.215602 
L 306.566204 -225.754931 
L 304.164665 -227.474038 
L 301.763126 -229.479928 
L 299.361587 -231.496359 
L 296.960048 -233.633914 
L 294.558509 -235.731139 
L 292.15697 -237.811125 
L 289.755431 -240.003181 
L 287.353892 -242.210195 
L 284.952353 -244.49275 
L 282.550814 -246.712957 
L 280.149275 -248.854491 
L 277.747735 -251.015255 
L 275.346196 -253.265445 
L 272.944657 -255.683675 
L 270.543118 -258.161393 
L 268.141579 -260.911238 
L 265.74004 -263.798905 
L 263.338501 -267.105443 
L 260.936962 -270.54214 
L 258.535423 -273.956348 
L 256.133884 -277.556769 
L 253.732345 -281.016436 
L 251.330806 -284.896099 
L 248.929267 -288.967743 
L 246.527727 -293.066917 
L 244.126188 -297.226688 
L 241.724649 -301.405716 
L 239.32311 -305.713442 
L 236.921571 -309.826812 
L 234.520032 -313.955232 
L 232.118493 -318.421029 
L 229.716954 -323.131478 
L 227.315415 -327.900788 
L 224.913876 -332.734078 
L 222.512337 -337.671613 
L 220.110798 -342.721379 
L 217.709259 -347.69464 
L 215.307719 -352.453532 
L 212.90618 -357.098589 
L 210.504641 -361.92875 
L 208.103102 -366.920097 
L 205.701563 -372.052834 
L 203.300024 -376.85236 
L 200.898485 -381.878495 
L 198.496946 -386.826639 
L 196.095407 -391.720022 
L 193.693868 -396.732366 
L 191.292329 -401.777154 
L 188.89079 -407.178303 
L 186.48925 -412.404994 
L 184.087711 -417.619059 
L 181.686172 -422.574974 
L 179.284633 -427.679642 
L 176.883094 -432.4166 
L 174.481555 -437.013367 
L 172.080016 -441.464388 
L 169.678477 -445.827578 
L 167.276938 -450.189699 
z
" style="stroke: #74b8f8; stroke-opacity: 0.2"/>
    </defs>
    <g clip-path="url(#pf4b7005f9a)">
     <use xlink:href="#mdc812baac6" x="0" y="600" style="fill: #74b8f8; fill-opacity: 0.2; stroke: #74b8f8; stroke-opacity: 0.2"/>
    </g>
   </g>
   <g id="PolyCollection_2">
    <defs>
     <path id="m4d5f7b2f81" d="M 116.844617 -514.632954 
L 116.844617 -504.215421 
L 119.246156 -502.91122 
L 121.647695 -501.507549 
L 124.049234 -500.030601 
L 126.450774 -498.630174 
L 128.852313 -497.166204 
L 131.253852 -495.642614 
L 133.655391 -494.373857 
L 136.05693 -492.847565 
L 138.458469 -491.383536 
L 140.860008 -489.739849 
L 143.261547 -487.004422 
L 145.663086 -483.786338 
L 148.064625 -480.437188 
L 150.466164 -477.044436 
L 152.867703 -473.746398 
L 155.269242 -470.479083 
L 157.670782 -466.704616 
L 160.072321 -463.003998 
L 162.47386 -459.049429 
L 164.875399 -454.648 
L 164.875399 -454.648 
L 164.875399 -454.648 
L 162.47386 -459.900745 
L 160.072321 -464.540052 
L 157.670782 -468.981706 
L 155.269242 -473.454821 
L 152.867703 -477.322477 
L 150.466164 -481.213894 
L 148.064625 -485.290936 
L 145.663086 -489.103368 
L 143.261547 -492.813438 
L 140.860008 -495.892559 
L 138.458469 -498.143718 
L 136.05693 -500.333355 
L 133.655391 -502.507705 
L 131.253852 -504.185718 
L 128.852313 -506.041259 
L 126.450774 -508.100588 
L 124.049234 -510.213899 
L 121.647695 -512.098511 
L 119.246156 -513.478244 
L 116.844617 -514.632954 
z
" style="stroke: #000000; stroke-opacity: 0.2"/>
    </defs>
    <g clip-path="url(#pf4b7005f9a)">
     <use xlink:href="#m4d5f7b2f81" x="0" y="600" style="fill-opacity: 0.2; stroke: #000000; stroke-opacity: 0.2"/>
    </g>
   </g>
   <g id="PolyCollection_3">
    <defs>
     <path id="m0ccdeda476" d="M 167.276938 -451.644374 
L 167.276938 -450.236047 
L 169.678477 -445.961576 
L 172.080016 -441.537251 
L 174.481555 -437.729161 
L 176.883094 -433.318117 
L 179.284633 -429.132226 
L 181.686172 -425.541049 
L 184.087711 -421.460485 
L 186.48925 -416.377951 
L 188.89079 -411.362879 
L 191.292329 -406.401374 
L 193.693868 -401.585608 
L 196.095407 -396.458225 
L 198.496946 -391.144065 
L 200.898485 -385.855022 
L 203.300024 -380.772385 
L 205.701563 -375.636243 
L 208.103102 -370.418118 
L 210.504641 -365.163514 
L 212.90618 -359.73791 
L 215.307719 -354.214235 
L 217.709259 -348.720664 
L 220.110798 -343.128093 
L 222.512337 -337.619937 
L 224.913876 -332.395107 
L 227.315415 -327.157582 
L 229.716954 -321.907973 
L 232.118493 -316.842669 
L 234.520032 -311.770673 
L 236.921571 -306.652401 
L 239.32311 -301.58559 
L 241.724649 -296.604747 
L 244.126188 -291.759616 
L 246.527727 -286.878353 
L 248.929267 -281.932736 
L 251.330806 -277.098646 
L 253.732345 -272.369985 
L 256.133884 -267.828412 
L 258.535423 -263.375015 
L 260.936962 -258.99481 
L 263.338501 -254.732569 
L 265.74004 -250.543679 
L 268.141579 -246.556755 
L 270.543118 -242.628684 
L 272.944657 -238.771631 
L 275.346196 -234.99761 
L 277.747735 -231.364432 
L 280.149275 -227.817886 
L 282.550814 -224.404504 
L 284.952353 -221.116382 
L 287.353892 -217.907004 
L 289.755431 -215.201324 
L 292.15697 -212.439306 
L 294.558509 -209.501886 
L 296.960048 -206.626306 
L 299.361587 -203.742202 
L 301.763126 -201.218003 
L 304.164665 -198.71143 
L 306.566204 -196.192894 
L 308.967743 -193.587128 
L 311.369283 -191.037544 
L 313.770822 -188.635467 
L 316.172361 -186.282953 
L 318.5739 -184.165998 
L 320.975439 -181.953069 
L 323.376978 -179.828414 
L 325.778517 -177.780962 
L 328.180056 -175.755049 
L 330.581595 -173.835895 
L 332.983134 -172.006175 
L 335.384673 -170.306271 
L 337.786212 -168.478621 
L 340.187751 -166.606818 
L 342.589291 -164.728756 
L 344.99083 -162.89596 
L 347.392369 -161.074755 
L 349.793908 -159.135756 
L 352.195447 -157.306086 
L 354.596986 -155.688682 
L 356.998525 -154.086284 
L 359.400064 -152.588225 
L 361.801603 -151.122042 
L 364.203142 -149.702562 
L 366.604681 -148.219134 
L 369.00622 -146.775419 
L 371.407759 -145.257431 
L 373.809299 -143.711127 
L 376.210838 -142.210972 
L 378.612377 -140.729711 
L 381.013916 -139.319138 
L 383.415455 -137.885816 
L 385.816994 -136.537299 
L 388.218533 -135.284774 
L 390.620072 -134.047785 
L 393.021611 -132.820226 
L 395.42315 -131.669618 
L 397.824689 -130.614902 
L 400.226228 -129.585457 
L 402.627768 -128.515054 
L 405.029307 -127.427128 
L 407.430846 -126.296614 
L 409.832385 -125.149956 
L 412.233924 -123.980885 
L 414.635463 -122.815683 
L 417.037002 -121.6679 
L 419.438541 -120.552056 
L 421.84008 -119.448368 
L 424.241619 -118.324087 
L 426.643158 -117.203514 
L 429.044697 -116.090151 
L 431.446236 -115.016478 
L 433.847776 -113.96143 
L 436.249315 -112.88562 
L 438.650854 -111.828868 
L 441.052393 -110.887629 
L 443.453932 -110.087776 
L 445.855471 -109.306698 
L 448.25701 -108.548018 
L 450.658549 -107.815929 
L 453.060088 -107.123651 
L 455.461627 -106.459059 
L 457.863166 -105.805937 
L 460.264705 -105.152735 
L 462.666244 -104.532205 
L 465.067784 -103.932508 
L 467.469323 -103.334375 
L 469.870862 -102.751642 
L 472.272401 -102.18022 
L 474.67394 -101.60925 
L 477.075479 -101.060598 
L 479.477018 -100.534948 
L 481.878557 -100.029872 
L 484.280096 -99.541787 
L 486.681635 -99.067717 
L 489.083174 -98.596389 
L 491.484713 -98.134747 
L 493.886252 -97.663615 
L 496.287792 -97.219978 
L 498.689331 -96.785262 
L 501.09087 -96.367408 
L 503.492409 -95.963446 
L 505.893948 -95.594539 
L 508.295487 -95.247092 
L 510.697026 -94.920518 
L 513.098565 -94.644612 
L 515.500104 -94.382932 
L 517.901643 -94.127423 
L 520.303182 -93.877846 
L 522.704721 -93.650706 
L 525.10626 -93.445879 
L 527.5078 -93.252854 
L 529.909339 -93.078475 
L 532.310878 -92.922543 
L 534.712417 -92.762535 
L 537.113956 -92.614943 
L 539.515495 -92.468535 
L 541.917034 -92.327457 
L 544.318573 -92.186536 
L 546.720112 -92.040382 
L 549.121651 -91.890239 
L 551.52319 -91.754558 
L 553.924729 -91.610065 
L 556.326268 -91.476785 
L 558.727808 -91.328853 
L 561.129347 -91.175551 
L 563.530886 -91.022841 
L 565.932425 -90.876158 
L 568.333964 -90.740567 
L 570.735503 -90.594279 
L 573.137042 -90.452412 
L 575.538581 -90.31481 
L 577.94012 -90.176931 
L 580.341659 -90.033616 
L 582.743198 -89.910547 
L 585.144737 -89.851418 
L 587.546277 -89.751274 
L 589.947816 -89.65838 
L 592.349355 -89.564695 
L 594.750894 -89.469132 
L 597.152433 -89.365851 
L 599.553972 -89.261596 
L 601.955511 -89.162172 
L 604.35705 -89.070104 
L 606.758589 -88.982659 
L 609.160128 -88.884958 
L 611.561667 -88.792154 
L 613.963206 -88.709454 
L 616.364745 -88.622426 
L 618.766285 -88.541866 
L 621.167824 -88.467214 
L 623.569363 -88.391664 
L 625.970902 -88.31718 
L 628.372441 -88.24721 
L 630.77398 -88.180043 
L 633.175519 -88.167448 
L 635.577058 -88.159661 
L 637.978597 -88.134913 
L 640.380136 -88.105011 
L 642.781675 -88.073778 
L 645.183214 -88.01558 
L 647.584753 -87.952914 
L 649.986293 -87.894471 
L 652.387832 -87.833326 
L 654.789371 -87.771826 
L 657.19091 -87.713522 
L 659.592449 -87.656482 
L 661.993988 -87.599911 
L 664.395527 -87.544174 
L 666.797066 -87.489434 
L 669.198605 -87.432365 
L 671.600144 -87.377266 
L 674.001683 -87.324505 
L 676.403222 -87.271388 
L 678.804761 -87.220073 
L 681.206301 -87.170681 
L 683.60784 -87.124686 
L 686.009379 -87.083268 
L 688.410918 -87.043822 
L 690.812457 -87.004474 
L 693.213996 -86.967009 
L 695.615535 -86.931773 
L 698.017074 -86.90038 
L 700.418613 -86.870133 
L 702.820152 -86.836752 
L 705.221691 -86.801848 
L 707.62323 -86.767026 
L 710.024769 -86.731499 
L 712.426309 -86.694204 
L 714.827848 -86.679518 
L 717.229387 -86.673964 
L 719.630926 -86.673098 
L 722.032465 -86.672534 
L 724.434004 -86.669194 
L 726.835543 -86.663897 
L 729.237082 -86.666956 
L 731.638621 -86.670441 
L 734.04016 -86.673656 
L 736.441699 -86.66718 
L 738.843238 -86.673307 
L 741.244777 -86.676731 
L 743.646317 -86.672169 
L 746.047856 -86.665488 
L 748.449395 -86.628648 
L 750.850934 -86.587385 
L 753.252473 -86.550082 
L 755.654012 -86.514048 
L 758.055551 -86.46867 
L 760.45709 -86.42511 
L 762.858629 -86.382918 
L 765.260168 -86.340967 
L 767.661707 -86.300462 
L 770.063246 -86.259204 
L 772.464786 -86.222141 
L 774.866325 -86.188256 
L 777.267864 -86.139539 
L 779.669403 -86.104491 
L 782.070942 -86.071681 
L 784.472481 -86.042282 
L 786.87402 -86.015364 
L 789.275559 -85.987643 
L 791.677098 -85.961664 
L 794.078637 -85.935773 
L 796.480176 -85.911713 
L 798.881715 -85.887789 
L 801.283254 -85.866367 
L 803.684794 -85.845469 
L 806.086333 -85.824354 
L 808.487872 -85.802891 
L 810.889411 -85.782521 
L 813.29095 -85.763605 
L 815.692489 -85.742515 
L 818.094028 -85.732622 
L 820.495567 -85.722062 
L 822.897106 -85.712292 
L 825.298645 -85.702958 
L 827.700184 -85.693424 
L 830.101723 -85.685158 
L 832.503262 -85.675849 
L 834.904802 -85.664794 
L 837.306341 -85.655634 
L 837.306341 -102.027642 
L 837.306341 -102.027642 
L 834.904802 -101.967888 
L 832.503262 -101.911467 
L 830.101723 -101.851389 
L 827.700184 -101.795082 
L 825.298645 -101.766323 
L 822.897106 -101.758706 
L 820.495567 -101.752269 
L 818.094028 -101.756222 
L 815.692489 -101.76061 
L 813.29095 -101.709187 
L 810.889411 -101.667314 
L 808.487872 -101.598443 
L 806.086333 -101.523359 
L 803.684794 -101.476255 
L 801.283254 -101.45728 
L 798.881715 -101.433854 
L 796.480176 -101.426956 
L 794.078637 -101.449377 
L 791.677098 -101.440561 
L 789.275559 -101.437974 
L 786.87402 -101.426465 
L 784.472481 -101.42763 
L 782.070942 -101.448918 
L 779.669403 -101.474573 
L 777.267864 -101.504723 
L 774.866325 -101.515843 
L 772.464786 -101.541088 
L 770.063246 -101.555343 
L 767.661707 -101.574777 
L 765.260168 -101.603491 
L 762.858629 -101.628052 
L 760.45709 -101.668316 
L 758.055551 -101.743704 
L 755.654012 -101.782761 
L 753.252473 -101.767444 
L 750.850934 -101.781716 
L 748.449395 -101.74462 
L 746.047856 -101.713741 
L 743.646317 -101.729009 
L 741.244777 -101.752033 
L 738.843238 -101.783823 
L 736.441699 -101.930822 
L 734.04016 -102.070218 
L 731.638621 -102.211118 
L 729.237082 -102.355589 
L 726.835543 -102.483189 
L 724.434004 -102.598612 
L 722.032465 -102.711569 
L 719.630926 -102.672018 
L 717.229387 -102.633484 
L 714.827848 -102.580847 
L 712.426309 -102.52828 
L 710.024769 -102.441764 
L 707.62323 -102.432443 
L 705.221691 -102.422398 
L 702.820152 -102.381291 
L 700.418613 -102.382786 
L 698.017074 -102.407007 
L 695.615535 -102.43719 
L 693.213996 -102.451696 
L 690.812457 -102.450066 
L 688.410918 -102.438377 
L 686.009379 -102.427578 
L 683.60784 -102.440308 
L 681.206301 -102.437647 
L 678.804761 -102.445508 
L 676.403222 -102.456728 
L 674.001683 -102.46804 
L 671.600144 -102.477175 
L 669.198605 -102.509469 
L 666.797066 -102.565395 
L 664.395527 -102.617332 
L 661.993988 -102.67766 
L 659.592449 -102.694365 
L 657.19091 -102.75189 
L 654.789371 -102.823255 
L 652.387832 -102.911113 
L 649.986293 -102.992144 
L 647.584753 -103.070679 
L 645.183214 -103.167711 
L 642.781675 -103.29872 
L 640.380136 -103.429512 
L 637.978597 -103.539233 
L 635.577058 -103.627397 
L 633.175519 -103.734872 
L 630.77398 -103.861762 
L 628.372441 -104.008348 
L 625.970902 -104.164161 
L 623.569363 -104.345749 
L 621.167824 -104.550419 
L 618.766285 -104.753839 
L 616.364745 -104.997297 
L 613.963206 -105.190942 
L 611.561667 -105.431298 
L 609.160128 -105.688254 
L 606.758589 -105.935887 
L 604.35705 -106.1877 
L 601.955511 -106.459763 
L 599.553972 -106.730015 
L 597.152433 -107.003467 
L 594.750894 -107.291442 
L 592.349355 -107.614405 
L 589.947816 -107.953845 
L 587.546277 -108.339414 
L 585.144737 -108.717793 
L 582.743198 -109.115762 
L 580.341659 -109.58345 
L 577.94012 -110.049181 
L 575.538581 -110.523352 
L 573.137042 -111.000571 
L 570.735503 -111.480431 
L 568.333964 -111.915409 
L 565.932425 -112.471552 
L 563.530886 -113.047673 
L 561.129347 -113.622988 
L 558.727808 -114.266564 
L 556.326268 -114.90959 
L 553.924729 -115.580461 
L 551.52319 -116.271919 
L 549.121651 -116.909056 
L 546.720112 -117.54685 
L 544.318573 -118.179164 
L 541.917034 -118.855217 
L 539.515495 -119.504548 
L 537.113956 -120.184384 
L 534.712417 -120.88819 
L 532.310878 -121.62419 
L 529.909339 -122.403307 
L 527.5078 -123.197491 
L 525.10626 -123.945845 
L 522.704721 -124.713671 
L 520.303182 -125.504999 
L 517.901643 -126.252814 
L 515.500104 -126.909201 
L 513.098565 -127.544856 
L 510.697026 -128.098733 
L 508.295487 -128.645047 
L 505.893948 -129.161542 
L 503.492409 -129.689004 
L 501.09087 -130.290503 
L 498.689331 -130.889872 
L 496.287792 -131.613926 
L 493.886252 -132.398637 
L 491.484713 -133.1842 
L 489.083174 -133.971663 
L 486.681635 -134.778142 
L 484.280096 -135.588842 
L 481.878557 -136.419919 
L 479.477018 -137.295796 
L 477.075479 -138.222058 
L 474.67394 -139.169568 
L 472.272401 -140.115709 
L 469.870862 -141.105915 
L 467.469323 -142.113316 
L 465.067784 -143.130782 
L 462.666244 -144.204994 
L 460.264705 -145.266605 
L 457.863166 -146.311067 
L 455.461627 -147.373468 
L 453.060088 -148.429713 
L 450.658549 -149.481618 
L 448.25701 -150.559595 
L 445.855471 -151.621723 
L 443.453932 -152.633912 
L 441.052393 -153.635284 
L 438.650854 -154.647919 
L 436.249315 -155.558144 
L 433.847776 -156.4856 
L 431.446236 -157.391495 
L 429.044697 -158.298683 
L 426.643158 -159.189205 
L 424.241619 -160.122769 
L 421.84008 -161.043015 
L 419.438541 -162.051498 
L 417.037002 -163.424159 
L 414.635463 -164.809202 
L 412.233924 -166.14193 
L 409.832385 -167.638368 
L 407.430846 -169.252574 
L 405.029307 -170.91828 
L 402.627768 -172.716426 
L 400.226228 -174.521591 
L 397.824689 -176.204554 
L 395.42315 -178.03742 
L 393.021611 -179.963657 
L 390.620072 -182.002447 
L 388.218533 -184.050942 
L 385.816994 -186.080012 
L 383.415455 -188.168321 
L 381.013916 -190.171618 
L 378.612377 -192.229025 
L 376.210838 -194.280866 
L 373.809299 -196.410148 
L 371.407759 -198.510806 
L 369.00622 -200.557602 
L 366.604681 -202.547543 
L 364.203142 -204.608838 
L 361.801603 -206.58074 
L 359.400064 -208.49872 
L 356.998525 -210.462528 
L 354.596986 -212.346721 
L 352.195447 -214.246536 
L 349.793908 -216.369558 
L 347.392369 -218.370086 
L 344.99083 -220.19926 
L 342.589291 -222.033159 
L 340.187751 -223.991037 
L 337.786212 -226.072622 
L 335.384673 -228.247065 
L 332.983134 -230.601091 
L 330.581595 -232.917926 
L 328.180056 -235.321987 
L 325.778517 -237.899053 
L 323.376978 -240.62907 
L 320.975439 -243.614568 
L 318.5739 -246.848298 
L 316.172361 -250.309881 
L 313.770822 -253.855343 
L 311.369283 -257.515097 
L 308.967743 -261.243808 
L 306.566204 -265.054056 
L 304.164665 -268.549433 
L 301.763126 -270.910327 
L 299.361587 -273.308128 
L 296.960048 -275.731613 
L 294.558509 -278.114437 
L 292.15697 -280.70361 
L 289.755431 -283.386005 
L 287.353892 -286.031102 
L 284.952353 -288.726984 
L 282.550814 -291.465096 
L 280.149275 -294.321742 
L 277.747735 -297.339221 
L 275.346196 -300.429335 
L 272.944657 -303.541995 
L 270.543118 -306.82068 
L 268.141579 -310.078832 
L 265.74004 -313.465442 
L 263.338501 -316.763514 
L 260.936962 -319.987725 
L 258.535423 -323.268958 
L 256.133884 -326.55767 
L 253.732345 -330.102764 
L 251.330806 -333.614833 
L 248.929267 -337.099251 
L 246.527727 -340.594506 
L 244.126188 -343.849484 
L 241.724649 -347.02391 
L 239.32311 -350.284954 
L 236.921571 -353.787554 
L 234.520032 -357.51837 
L 232.118493 -361.052441 
L 229.716954 -364.479158 
L 227.315415 -367.960989 
L 224.913876 -371.59603 
L 222.512337 -375.233882 
L 220.110798 -378.908011 
L 217.709259 -381.775144 
L 215.307719 -384.572356 
L 212.90618 -387.01712 
L 210.504641 -389.494873 
L 208.103102 -392.013613 
L 205.701563 -395.249579 
L 203.300024 -398.481745 
L 200.898485 -402.030574 
L 198.496946 -405.961056 
L 196.095407 -409.790991 
L 193.693868 -413.579754 
L 191.292329 -417.381371 
L 188.89079 -421.417234 
L 186.48925 -425.266099 
L 184.087711 -428.727114 
L 181.686172 -432.198196 
L 179.284633 -435.736631 
L 176.883094 -438.963258 
L 174.481555 -442.313822 
L 172.080016 -445.566356 
L 169.678477 -448.68838 
L 167.276938 -451.644374 
z
" style="stroke: #f47100; stroke-opacity: 0.2"/>
    </defs>
    <g clip-path="url(#pf4b7005f9a)">
     <use xlink:href="#m0ccdeda476" x="0" y="600" style="fill: #f47100; fill-opacity: 0.2; stroke: #f47100; stroke-opacity: 0.2"/>
    </g>
   </g>
   <g id="PolyCollection_4">
    <defs>
     <path id="ma611a968b8" d="M 116.844617 -510.041112 
L 116.844617 -493.711641 
L 119.246156 -492.350306 
L 121.647695 -490.952746 
L 124.049234 -489.695891 
L 126.450774 -488.665241 
L 128.852313 -487.513847 
L 131.253852 -486.173573 
L 133.655391 -485.123035 
L 136.05693 -483.936127 
L 138.458469 -482.848968 
L 140.860008 -481.526131 
L 143.261547 -478.995295 
L 145.663086 -476.259475 
L 148.064625 -473.506342 
L 150.466164 -471.040032 
L 152.867703 -468.631447 
L 155.269242 -466.102389 
L 157.670782 -463.427951 
L 160.072321 -460.719068 
L 162.47386 -457.794862 
L 164.875399 -454.648 
L 164.875399 -454.648 
L 164.875399 -454.648 
L 162.47386 -458.947977 
L 160.072321 -462.935228 
L 157.670782 -466.554035 
L 155.269242 -470.144071 
L 152.867703 -473.586671 
L 150.466164 -476.855227 
L 148.064625 -480.331591 
L 145.663086 -483.927815 
L 143.261547 -487.480673 
L 140.860008 -490.951832 
L 138.458469 -492.366079 
L 136.05693 -493.971471 
L 133.655391 -495.807073 
L 131.253852 -498.074653 
L 128.852313 -500.667186 
L 126.450774 -503.383726 
L 124.049234 -505.072668 
L 121.647695 -506.388432 
L 119.246156 -508.044478 
L 116.844617 -510.041112 
z
" style="stroke: #000000; stroke-opacity: 0.2"/>
    </defs>
    <g clip-path="url(#pf4b7005f9a)">
     <use xlink:href="#ma611a968b8" x="0" y="600" style="fill-opacity: 0.2; stroke: #000000; stroke-opacity: 0.2"/>
    </g>
   </g>
   <g id="PolyCollection_5">
    <defs>
     <path id="m3b95199c18" d="M 167.276938 -451.311415 
L 167.276938 -449.557087 
L 169.678477 -444.309539 
L 172.080016 -438.822779 
L 174.481555 -433.232875 
L 176.883094 -427.398749 
L 179.284633 -421.656641 
L 181.686172 -416.005987 
L 184.087711 -410.236578 
L 186.48925 -404.172483 
L 188.89079 -398.004208 
L 191.292329 -391.693221 
L 193.693868 -385.33928 
L 196.095407 -379.007093 
L 198.496946 -372.312203 
L 200.898485 -365.769961 
L 203.300024 -359.190865 
L 205.701563 -352.443336 
L 208.103102 -345.453701 
L 210.504641 -338.229964 
L 212.90618 -330.801427 
L 215.307719 -323.349736 
L 217.709259 -315.988273 
L 220.110798 -308.587021 
L 222.512337 -301.286908 
L 224.913876 -293.924728 
L 227.315415 -286.815955 
L 229.716954 -279.783903 
L 232.118493 -272.793347 
L 234.520032 -266.074036 
L 236.921571 -259.584496 
L 239.32311 -253.113919 
L 241.724649 -246.838843 
L 244.126188 -240.810903 
L 246.527727 -235.472492 
L 248.929267 -230.176481 
L 251.330806 -224.940904 
L 253.732345 -220.329921 
L 256.133884 -215.914531 
L 258.535423 -211.585809 
L 260.936962 -207.348617 
L 263.338501 -203.166252 
L 265.74004 -198.980322 
L 268.141579 -194.852276 
L 270.543118 -190.881422 
L 272.944657 -187.085808 
L 275.346196 -183.333904 
L 277.747735 -179.691582 
L 280.149275 -176.137402 
L 282.550814 -172.644831 
L 284.952353 -169.208296 
L 287.353892 -165.952453 
L 289.755431 -162.757504 
L 292.15697 -159.709247 
L 294.558509 -156.752267 
L 296.960048 -154.061431 
L 299.361587 -151.592248 
L 301.763126 -149.073906 
L 304.164665 -146.691323 
L 306.566204 -144.361097 
L 308.967743 -142.242059 
L 311.369283 -140.171236 
L 313.770822 -138.184217 
L 316.172361 -136.217906 
L 318.5739 -134.199131 
L 320.975439 -132.166049 
L 323.376978 -130.162455 
L 325.778517 -128.160609 
L 328.180056 -126.154616 
L 330.581595 -124.167996 
L 332.983134 -122.264713 
L 335.384673 -120.39179 
L 337.786212 -118.55275 
L 340.187751 -116.759958 
L 342.589291 -115.157722 
L 344.99083 -113.640508 
L 347.392369 -112.14116 
L 349.793908 -110.731717 
L 352.195447 -109.371804 
L 354.596986 -108.097852 
L 356.998525 -106.85217 
L 359.400064 -105.645453 
L 361.801603 -104.530507 
L 364.203142 -103.555017 
L 366.604681 -102.646381 
L 369.00622 -101.794507 
L 371.407759 -100.957617 
L 373.809299 -100.174604 
L 376.210838 -99.445399 
L 378.612377 -98.725922 
L 381.013916 -98.033215 
L 383.415455 -97.386673 
L 385.816994 -96.784277 
L 388.218533 -96.217007 
L 390.620072 -95.672347 
L 393.021611 -95.161582 
L 395.42315 -94.673894 
L 397.824689 -94.204757 
L 400.226228 -93.759159 
L 402.627768 -93.321006 
L 405.029307 -92.897279 
L 407.430846 -92.487413 
L 409.832385 -92.086557 
L 412.233924 -91.697355 
L 414.635463 -91.326204 
L 417.037002 -90.98067 
L 419.438541 -90.651955 
L 421.84008 -90.330811 
L 424.241619 -90.028383 
L 426.643158 -89.752028 
L 429.044697 -89.495164 
L 431.446236 -89.251356 
L 433.847776 -89.017902 
L 436.249315 -88.810685 
L 438.650854 -88.588869 
L 441.052393 -88.366396 
L 443.453932 -88.16161 
L 445.855471 -87.969907 
L 448.25701 -87.793826 
L 450.658549 -87.665408 
L 453.060088 -87.551695 
L 455.461627 -87.449536 
L 457.863166 -87.335745 
L 460.264705 -87.224238 
L 462.666244 -87.116044 
L 465.067784 -87.013584 
L 467.469323 -86.917084 
L 469.870862 -86.815341 
L 472.272401 -86.720083 
L 474.67394 -86.623404 
L 477.075479 -86.517842 
L 479.477018 -86.39562 
L 481.878557 -86.279831 
L 484.280096 -86.161496 
L 486.681635 -86.052873 
L 489.083174 -85.955255 
L 491.484713 -85.862525 
L 493.886252 -85.774019 
L 496.287792 -85.688987 
L 498.689331 -85.607746 
L 501.09087 -85.532045 
L 503.492409 -85.463509 
L 505.893948 -85.397723 
L 508.295487 -85.335634 
L 510.697026 -85.278175 
L 513.098565 -85.22524 
L 515.500104 -85.176794 
L 517.901643 -85.132377 
L 520.303182 -85.092579 
L 522.704721 -85.057656 
L 525.10626 -85.025781 
L 527.5078 -84.985677 
L 529.909339 -84.945423 
L 532.310878 -84.927866 
L 534.712417 -84.923508 
L 537.113956 -84.919499 
L 539.515495 -84.894579 
L 541.917034 -84.873489 
L 544.318573 -84.861042 
L 546.720112 -84.849975 
L 549.121651 -84.839933 
L 551.52319 -84.830427 
L 553.924729 -84.822148 
L 556.326268 -84.813049 
L 558.727808 -84.804831 
L 561.129347 -84.797161 
L 563.530886 -84.789966 
L 565.932425 -84.783579 
L 568.333964 -84.778234 
L 570.735503 -84.77333 
L 573.137042 -84.768938 
L 575.538581 -84.765209 
L 577.94012 -84.76163 
L 580.341659 -84.758388 
L 582.743198 -84.756023 
L 585.144737 -84.753883 
L 587.546277 -84.752158 
L 589.947816 -84.749317 
L 592.349355 -84.747387 
L 594.750894 -84.745321 
L 597.152433 -84.743422 
L 599.553972 -84.741583 
L 601.955511 -84.73981 
L 604.35705 -84.737777 
L 606.758589 -84.735748 
L 609.160128 -84.73379 
L 611.561667 -84.732291 
L 613.963206 -84.730747 
L 616.364745 -84.730572 
L 618.766285 -84.729197 
L 621.167824 -84.727966 
L 623.569363 -84.7265 
L 625.970902 -84.725156 
L 628.372441 -84.724364 
L 630.77398 -84.724096 
L 633.175519 -84.727845 
L 635.577058 -84.727856 
L 637.978597 -84.727646 
L 640.380136 -84.727383 
L 642.781675 -84.727215 
L 645.183214 -84.727143 
L 647.584753 -84.727241 
L 649.986293 -84.726952 
L 652.387832 -84.727037 
L 654.789371 -84.727193 
L 657.19091 -84.728038 
L 659.592449 -84.728674 
L 661.993988 -84.728975 
L 664.395527 -84.727869 
L 666.797066 -84.727896 
L 669.198605 -84.727835 
L 671.600144 -84.727995 
L 674.001683 -84.728174 
L 676.403222 -84.728324 
L 678.804761 -84.72814 
L 681.206301 -84.724259 
L 683.60784 -84.724267 
L 686.009379 -84.724048 
L 688.410918 -84.723436 
L 690.812457 -84.723546 
L 693.213996 -84.722771 
L 695.615535 -84.722491 
L 698.017074 -84.722171 
L 700.418613 -84.721973 
L 702.820152 -84.721984 
L 705.221691 -84.721892 
L 707.62323 -84.722045 
L 710.024769 -84.722248 
L 712.426309 -84.722436 
L 714.827848 -84.722685 
L 717.229387 -84.723196 
L 719.630926 -84.723595 
L 722.032465 -84.723688 
L 724.434004 -84.723446 
L 726.835543 -84.723363 
L 729.237082 -84.722991 
L 731.638621 -84.722622 
L 734.04016 -84.722733 
L 736.441699 -84.722905 
L 738.843238 -84.72201 
L 741.244777 -84.722256 
L 743.646317 -84.72167 
L 746.047856 -84.721474 
L 748.449395 -84.721537 
L 750.850934 -84.721622 
L 753.252473 -84.721403 
L 755.654012 -84.720868 
L 758.055551 -84.72024 
L 760.45709 -84.719486 
L 762.858629 -84.718761 
L 765.260168 -84.718479 
L 767.661707 -84.718345 
L 770.063246 -84.718324 
L 772.464786 -84.717377 
L 774.866325 -84.715831 
L 777.267864 -84.714336 
L 779.669403 -84.712774 
L 782.070942 -84.7112 
L 784.472481 -84.710174 
L 786.87402 -84.708924 
L 789.275559 -84.708009 
L 791.677098 -84.707052 
L 794.078637 -84.705955 
L 796.480176 -84.704537 
L 798.881715 -84.703655 
L 801.283254 -84.702792 
L 803.684794 -84.702241 
L 806.086333 -84.701701 
L 808.487872 -84.701334 
L 810.889411 -84.701437 
L 813.29095 -84.701273 
L 815.692489 -84.701302 
L 818.094028 -84.701288 
L 820.495567 -84.701403 
L 822.897106 -84.701088 
L 825.298645 -84.701065 
L 827.700184 -84.701298 
L 830.101723 -84.701316 
L 832.503262 -84.701047 
L 834.904802 -84.701139 
L 837.306341 -84.700953 
L 837.306341 -85.115465 
L 837.306341 -85.115465 
L 834.904802 -85.121622 
L 832.503262 -85.127976 
L 830.101723 -85.134433 
L 827.700184 -85.144057 
L 825.298645 -85.15787 
L 822.897106 -85.172298 
L 820.495567 -85.18531 
L 818.094028 -85.199105 
L 815.692489 -85.215377 
L 813.29095 -85.243475 
L 810.889411 -85.273365 
L 808.487872 -85.306007 
L 806.086333 -85.340926 
L 803.684794 -85.378462 
L 801.283254 -85.415093 
L 798.881715 -85.453389 
L 796.480176 -85.492975 
L 794.078637 -85.536421 
L 791.677098 -85.582044 
L 789.275559 -85.626934 
L 786.87402 -85.673083 
L 784.472481 -85.719691 
L 782.070942 -85.767018 
L 779.669403 -85.816964 
L 777.267864 -85.870553 
L 774.866325 -85.92604 
L 772.464786 -85.98213 
L 770.063246 -86.036905 
L 767.661707 -86.089942 
L 765.260168 -86.146706 
L 762.858629 -86.207256 
L 760.45709 -86.267759 
L 758.055551 -86.327124 
L 755.654012 -86.388177 
L 753.252473 -86.452202 
L 750.850934 -86.516998 
L 748.449395 -86.576805 
L 746.047856 -86.633181 
L 743.646317 -86.692449 
L 741.244777 -86.757147 
L 738.843238 -86.828397 
L 736.441699 -86.902013 
L 734.04016 -86.97706 
L 731.638621 -87.052243 
L 729.237082 -87.122287 
L 726.835543 -87.190164 
L 724.434004 -87.259175 
L 722.032465 -87.332624 
L 719.630926 -87.416873 
L 717.229387 -87.502927 
L 714.827848 -87.586706 
L 712.426309 -87.669219 
L 710.024769 -87.750218 
L 707.62323 -87.832616 
L 705.221691 -87.912816 
L 702.820152 -87.994259 
L 700.418613 -88.082599 
L 698.017074 -88.186314 
L 695.615535 -88.297269 
L 693.213996 -88.405706 
L 690.812457 -88.510268 
L 688.410918 -88.619206 
L 686.009379 -88.728867 
L 683.60784 -88.834566 
L 681.206301 -88.94365 
L 678.804761 -89.056836 
L 676.403222 -89.182352 
L 674.001683 -89.314085 
L 671.600144 -89.443287 
L 669.198605 -89.576527 
L 666.797066 -89.720804 
L 664.395527 -89.875462 
L 661.993988 -90.044045 
L 659.592449 -90.202315 
L 657.19091 -90.373326 
L 654.789371 -90.54622 
L 652.387832 -90.740804 
L 649.986293 -90.942662 
L 647.584753 -91.156538 
L 645.183214 -91.374712 
L 642.781675 -91.594427 
L 640.380136 -91.773943 
L 637.978597 -91.924111 
L 635.577058 -92.08409 
L 633.175519 -92.244294 
L 630.77398 -92.411407 
L 628.372441 -92.585013 
L 625.970902 -92.760558 
L 623.569363 -92.934913 
L 621.167824 -93.122399 
L 618.766285 -93.309811 
L 616.364745 -93.511637 
L 613.963206 -93.731659 
L 611.561667 -93.971323 
L 609.160128 -94.214013 
L 606.758589 -94.483391 
L 604.35705 -94.764526 
L 601.955511 -95.044713 
L 599.553972 -95.324928 
L 597.152433 -95.615035 
L 594.750894 -95.926379 
L 592.349355 -96.268677 
L 589.947816 -96.628833 
L 587.546277 -96.999405 
L 585.144737 -97.404145 
L 582.743198 -97.842122 
L 580.341659 -98.292043 
L 577.94012 -98.764635 
L 575.538581 -99.250797 
L 573.137042 -99.716218 
L 570.735503 -100.197773 
L 568.333964 -100.668468 
L 565.932425 -101.130022 
L 563.530886 -101.61378 
L 561.129347 -102.096748 
L 558.727808 -102.614028 
L 556.326268 -103.139 
L 553.924729 -103.672784 
L 551.52319 -104.233876 
L 549.121651 -104.810342 
L 546.720112 -105.412855 
L 544.318573 -106.004518 
L 541.917034 -106.606981 
L 539.515495 -107.204945 
L 537.113956 -107.675925 
L 534.712417 -108.135716 
L 532.310878 -108.572871 
L 529.909339 -108.998511 
L 527.5078 -109.422921 
L 525.10626 -109.882474 
L 522.704721 -110.340337 
L 520.303182 -110.823612 
L 517.901643 -111.297151 
L 515.500104 -111.781754 
L 513.098565 -112.27023 
L 510.697026 -112.738453 
L 508.295487 -113.19735 
L 505.893948 -113.659896 
L 503.492409 -114.130042 
L 501.09087 -114.609498 
L 498.689331 -115.077874 
L 496.287792 -115.559329 
L 493.886252 -116.067764 
L 491.484713 -116.611094 
L 489.083174 -117.173848 
L 486.681635 -117.758196 
L 484.280096 -118.386973 
L 481.878557 -119.006798 
L 479.477018 -119.659778 
L 477.075479 -120.299144 
L 474.67394 -120.95824 
L 472.272401 -121.609038 
L 469.870862 -122.334524 
L 467.469323 -123.097419 
L 465.067784 -123.915167 
L 462.666244 -124.747474 
L 460.264705 -125.633132 
L 457.863166 -126.562823 
L 455.461627 -127.35794 
L 453.060088 -128.18827 
L 450.658549 -129.04237 
L 448.25701 -129.90651 
L 445.855471 -130.788454 
L 443.453932 -131.705994 
L 441.052393 -132.665021 
L 438.650854 -133.67049 
L 436.249315 -134.737664 
L 433.847776 -135.845482 
L 431.446236 -136.978622 
L 429.044697 -138.144163 
L 426.643158 -139.284455 
L 424.241619 -140.420983 
L 421.84008 -141.53109 
L 419.438541 -142.653071 
L 417.037002 -143.763867 
L 414.635463 -144.956969 
L 412.233924 -146.18439 
L 409.832385 -147.398461 
L 407.430846 -148.66294 
L 405.029307 -149.905953 
L 402.627768 -151.163741 
L 400.226228 -152.410392 
L 397.824689 -153.698374 
L 395.42315 -154.994327 
L 393.021611 -156.127567 
L 390.620072 -157.140658 
L 388.218533 -158.172166 
L 385.816994 -159.205487 
L 383.415455 -160.283394 
L 381.013916 -161.393941 
L 378.612377 -162.572089 
L 376.210838 -163.770528 
L 373.809299 -164.982768 
L 371.407759 -166.281307 
L 369.00622 -167.66124 
L 366.604681 -168.997183 
L 364.203142 -170.375652 
L 361.801603 -171.81607 
L 359.400064 -173.324416 
L 356.998525 -174.960465 
L 354.596986 -176.610176 
L 352.195447 -178.290982 
L 349.793908 -180.063523 
L 347.392369 -181.908917 
L 344.99083 -183.796285 
L 342.589291 -185.662471 
L 340.187751 -187.561308 
L 337.786212 -189.53166 
L 335.384673 -191.448942 
L 332.983134 -193.388634 
L 330.581595 -195.333778 
L 328.180056 -197.397312 
L 325.778517 -199.478076 
L 323.376978 -201.506724 
L 320.975439 -203.56537 
L 318.5739 -205.756257 
L 316.172361 -207.939231 
L 313.770822 -210.157619 
L 311.369283 -212.84991 
L 308.967743 -215.87126 
L 306.566204 -218.875892 
L 304.164665 -221.860798 
L 301.763126 -225.067963 
L 299.361587 -228.331804 
L 296.960048 -231.585337 
L 294.558509 -234.898189 
L 292.15697 -238.284609 
L 289.755431 -241.534203 
L 287.353892 -243.556821 
L 284.952353 -245.682972 
L 282.550814 -248.102882 
L 280.149275 -250.639457 
L 277.747735 -253.308244 
L 275.346196 -256.112905 
L 272.944657 -258.748188 
L 270.543118 -261.322425 
L 268.141579 -264.448487 
L 265.74004 -267.896533 
L 263.338501 -271.351171 
L 260.936962 -274.633171 
L 258.535423 -278.241784 
L 256.133884 -283.032202 
L 253.732345 -287.526638 
L 251.330806 -291.978047 
L 248.929267 -296.414964 
L 246.527727 -300.713955 
L 244.126188 -305.039689 
L 241.724649 -309.509704 
L 239.32311 -313.732464 
L 236.921571 -318.099755 
L 234.520032 -322.477433 
L 232.118493 -326.933057 
L 229.716954 -331.221932 
L 227.315415 -335.292933 
L 224.913876 -339.323544 
L 222.512337 -343.477524 
L 220.110798 -347.803117 
L 217.709259 -351.973282 
L 215.307719 -356.047346 
L 212.90618 -360.827944 
L 210.504641 -366.722529 
L 208.103102 -372.437447 
L 205.701563 -378.140433 
L 203.300024 -383.565009 
L 200.898485 -388.822584 
L 198.496946 -394.022476 
L 196.095407 -399.238265 
L 193.693868 -404.190225 
L 191.292329 -409.114971 
L 188.89079 -413.921771 
L 186.48925 -418.614215 
L 184.087711 -423.314772 
L 181.686172 -427.732009 
L 179.284633 -432.076553 
L 176.883094 -436.123731 
L 174.481555 -440.15866 
L 172.080016 -444.138355 
L 169.678477 -447.794138 
L 167.276938 -451.311415 
z
" style="stroke: #d01e04; stroke-opacity: 0.2"/>
    </defs>
    <g clip-path="url(#pf4b7005f9a)">
     <use xlink:href="#m3b95199c18" x="0" y="600" style="fill: #d01e04; fill-opacity: 0.2; stroke: #d01e04; stroke-opacity: 0.2"/>
    </g>
   </g>
   <g id="PolyCollection_6">
    <defs>
     <path id="m5e599c3683" d="M 116.844617 -508.987746 
L 116.844617 -493.074427 
L 119.246156 -491.837151 
L 121.647695 -490.536694 
L 124.049234 -489.201689 
L 126.450774 -488.253723 
L 128.852313 -487.015077 
L 131.253852 -485.658606 
L 133.655391 -484.575822 
L 136.05693 -483.370413 
L 138.458469 -482.287912 
L 140.860008 -480.967845 
L 143.261547 -478.537527 
L 145.663086 -476.081719 
L 148.064625 -473.488667 
L 150.466164 -471.000936 
L 152.867703 -468.3375 
L 155.269242 -465.595774 
L 157.670782 -462.885048 
L 160.072321 -460.38599 
L 162.47386 -457.670811 
L 164.875399 -454.648 
L 164.875399 -454.648 
L 164.875399 -454.648 
L 162.47386 -459.648209 
L 160.072321 -464.259958 
L 157.670782 -468.624312 
L 155.269242 -472.986942 
L 152.867703 -477.110028 
L 150.466164 -481.056738 
L 148.064625 -484.754181 
L 145.663086 -488.197601 
L 143.261547 -491.693884 
L 140.860008 -495.244791 
L 138.458469 -497.089274 
L 136.05693 -498.840648 
L 133.655391 -500.749859 
L 131.253852 -502.567993 
L 128.852313 -504.312282 
L 126.450774 -505.852339 
L 124.049234 -507.058315 
L 121.647695 -508.14567 
L 119.246156 -508.810558 
L 116.844617 -508.987746 
z
" style="stroke: #000000; stroke-opacity: 0.2"/>
    </defs>
    <g clip-path="url(#pf4b7005f9a)">
     <use xlink:href="#m5e599c3683" x="0" y="600" style="fill-opacity: 0.2; stroke: #000000; stroke-opacity: 0.2"/>
    </g>
   </g>
   <g id="matplotlib.axis_1">
    <g id="xtick_1">
     <g id="line2d_1">
      <defs>
       <path id="m3774c8d3fa" d="M 0 0 
L 0 3.5 
" style="stroke: #000000; stroke-width: 0.8"/>
      </defs>
      <g>
       <use xlink:href="#m3774c8d3fa" x="164.875399" y="515.56" style="stroke: #000000; stroke-width: 0.8"/>
      </g>
     </g>
     <g id="text_1">
      <!-- 2020 -->
      <g transform="translate(131.790399 542.315938)scale(0.26 -0.26)">
       <defs>
        <path id="DejaVuSans-32" d="M 1228 531 
L 3431 531 
L 3431 0 
L 469 0 
L 469 531 
Q 828 903 1448 1529 
Q 2069 2156 2228 2338 
Q 2531 2678 2651 2914 
Q 2772 3150 2772 3378 
Q 2772 3750 2511 3984 
Q 2250 4219 1831 4219 
Q 1534 4219 1204 4116 
Q 875 4013 500 3803 
L 500 4441 
Q 881 4594 1212 4672 
Q 1544 4750 1819 4750 
Q 2544 4750 2975 4387 
Q 3406 4025 3406 3419 
Q 3406 3131 3298 2873 
Q 3191 2616 2906 2266 
Q 2828 2175 2409 1742 
Q 1991 1309 1228 531 
z
" transform="scale(0.015625)"/>
        <path id="DejaVuSans-30" d="M 2034 4250 
Q 1547 4250 1301 3770 
Q 1056 3291 1056 2328 
Q 1056 1369 1301 889 
Q 1547 409 2034 409 
Q 2525 409 2770 889 
Q 3016 1369 3016 2328 
Q 3016 3291 2770 3770 
Q 2525 4250 2034 4250 
z
M 2034 4750 
Q 2819 4750 3233 4129 
Q 3647 3509 3647 2328 
Q 3647 1150 3233 529 
Q 2819 -91 2034 -91 
Q 1250 -91 836 529 
Q 422 1150 422 2328 
Q 422 3509 836 4129 
Q 1250 4750 2034 4750 
z
" transform="scale(0.015625)"/>
       </defs>
       <use xlink:href="#DejaVuSans-32"/>
       <use xlink:href="#DejaVuSans-30" x="63.623047"/>
       <use xlink:href="#DejaVuSans-32" x="127.246094"/>
       <use xlink:href="#DejaVuSans-30" x="190.869141"/>
      </g>
     </g>
    </g>
    <g id="xtick_2">
     <g id="line2d_2">
      <g>
       <use xlink:href="#m3774c8d3fa" x="356.998525" y="515.56" style="stroke: #000000; stroke-width: 0.8"/>
      </g>
     </g>
     <g id="text_2">
      <!-- 2100 -->
      <g transform="translate(323.913525 542.315938)scale(0.26 -0.26)">
       <defs>
        <path id="DejaVuSans-31" d="M 794 531 
L 1825 531 
L 1825 4091 
L 703 3866 
L 703 4441 
L 1819 4666 
L 2450 4666 
L 2450 531 
L 3481 531 
L 3481 0 
L 794 0 
L 794 531 
z
" transform="scale(0.015625)"/>
       </defs>
       <use xlink:href="#DejaVuSans-32"/>
       <use xlink:href="#DejaVuSans-31" x="63.623047"/>
       <use xlink:href="#DejaVuSans-30" x="127.246094"/>
       <use xlink:href="#DejaVuSans-30" x="190.869141"/>
      </g>
     </g>
    </g>
    <g id="xtick_3">
     <g id="line2d_3">
      <g>
       <use xlink:href="#m3774c8d3fa" x="597.152433" y="515.56" style="stroke: #000000; stroke-width: 0.8"/>
      </g>
     </g>
     <g id="text_3">
      <!-- 2200 -->
      <g transform="translate(564.067433 542.315938)scale(0.26 -0.26)">
       <use xlink:href="#DejaVuSans-32"/>
       <use xlink:href="#DejaVuSans-32" x="63.623047"/>
       <use xlink:href="#DejaVuSans-30" x="127.246094"/>
       <use xlink:href="#DejaVuSans-30" x="190.869141"/>
      </g>
     </g>
    </g>
    <g id="xtick_4">
     <g id="line2d_4">
      <g>
       <use xlink:href="#m3774c8d3fa" x="837.306341" y="515.56" style="stroke: #000000; stroke-width: 0.8"/>
      </g>
     </g>
     <g id="text_4">
      <!-- 2300 -->
      <g transform="translate(804.221341 542.315938)scale(0.26 -0.26)">
       <defs>
        <path id="DejaVuSans-33" d="M 2597 2516 
Q 3050 2419 3304 2112 
Q 3559 1806 3559 1356 
Q 3559 666 3084 287 
Q 2609 -91 1734 -91 
Q 1441 -91 1130 -33 
Q 819 25 488 141 
L 488 750 
Q 750 597 1062 519 
Q 1375 441 1716 441 
Q 2309 441 2620 675 
Q 2931 909 2931 1356 
Q 2931 1769 2642 2001 
Q 2353 2234 1838 2234 
L 1294 2234 
L 1294 2753 
L 1863 2753 
Q 2328 2753 2575 2939 
Q 2822 3125 2822 3475 
Q 2822 3834 2567 4026 
Q 2313 4219 1838 4219 
Q 1578 4219 1281 4162 
Q 984 4106 628 3988 
L 628 4550 
Q 988 4650 1302 4700 
Q 1616 4750 1894 4750 
Q 2613 4750 3031 4423 
Q 3450 4097 3450 3541 
Q 3450 3153 3228 2886 
Q 3006 2619 2597 2516 
z
" transform="scale(0.015625)"/>
       </defs>
       <use xlink:href="#DejaVuSans-32"/>
       <use xlink:href="#DejaVuSans-33" x="63.623047"/>
       <use xlink:href="#DejaVuSans-30" x="127.246094"/>
       <use xlink:href="#DejaVuSans-30" x="190.869141"/>
      </g>
     </g>
    </g>
    <g id="text_5">
     <!-- Year -->
     <g transform="translate(457.010409 568.439687)scale(0.22 -0.22)">
      <defs>
       <path id="DejaVuSans-Bold-59" d="M -63 4666 
L 1253 4666 
L 2316 3003 
L 3378 4666 
L 4697 4666 
L 2919 1966 
L 2919 0 
L 1716 0 
L 1716 1966 
L -63 4666 
z
" transform="scale(0.015625)"/>
       <path id="DejaVuSans-Bold-65" d="M 4031 1759 
L 4031 1441 
L 1416 1441 
Q 1456 1047 1700 850 
Q 1944 653 2381 653 
Q 2734 653 3104 758 
Q 3475 863 3866 1075 
L 3866 213 
Q 3469 63 3072 -14 
Q 2675 -91 2278 -91 
Q 1328 -91 801 392 
Q 275 875 275 1747 
Q 275 2603 792 3093 
Q 1309 3584 2216 3584 
Q 3041 3584 3536 3087 
Q 4031 2591 4031 1759 
z
M 2881 2131 
Q 2881 2450 2695 2645 
Q 2509 2841 2209 2841 
Q 1884 2841 1681 2658 
Q 1478 2475 1428 2131 
L 2881 2131 
z
" transform="scale(0.015625)"/>
       <path id="DejaVuSans-Bold-61" d="M 2106 1575 
Q 1756 1575 1579 1456 
Q 1403 1338 1403 1106 
Q 1403 894 1545 773 
Q 1688 653 1941 653 
Q 2256 653 2472 879 
Q 2688 1106 2688 1447 
L 2688 1575 
L 2106 1575 
z
M 3816 1997 
L 3816 0 
L 2688 0 
L 2688 519 
Q 2463 200 2181 54 
Q 1900 -91 1497 -91 
Q 953 -91 614 226 
Q 275 544 275 1050 
Q 275 1666 698 1953 
Q 1122 2241 2028 2241 
L 2688 2241 
L 2688 2328 
Q 2688 2594 2478 2717 
Q 2269 2841 1825 2841 
Q 1466 2841 1156 2769 
Q 847 2697 581 2553 
L 581 3406 
Q 941 3494 1303 3539 
Q 1666 3584 2028 3584 
Q 2975 3584 3395 3211 
Q 3816 2838 3816 1997 
z
" transform="scale(0.015625)"/>
       <path id="DejaVuSans-Bold-72" d="M 3138 2547 
Q 2991 2616 2845 2648 
Q 2700 2681 2553 2681 
Q 2122 2681 1889 2404 
Q 1656 2128 1656 1613 
L 1656 0 
L 538 0 
L 538 3500 
L 1656 3500 
L 1656 2925 
Q 1872 3269 2151 3426 
Q 2431 3584 2822 3584 
Q 2878 3584 2943 3579 
Q 3009 3575 3134 3559 
L 3138 2547 
z
" transform="scale(0.015625)"/>
      </defs>
      <use xlink:href="#DejaVuSans-Bold-59"/>
      <use xlink:href="#DejaVuSans-Bold-65" x="63.287109"/>
      <use xlink:href="#DejaVuSans-Bold-61" x="131.109375"/>
      <use xlink:href="#DejaVuSans-Bold-72" x="198.589844"/>
     </g>
    </g>
   </g>
   <g id="matplotlib.axis_2">
    <g id="ytick_1">
     <g id="line2d_5">
      <defs>
       <path id="mca63e0fc41" d="M 0 0 
L -3.5 0 
" style="stroke: #000000; stroke-width: 0.8"/>
      </defs>
      <g>
       <use xlink:href="#mca63e0fc41" x="109.64" y="515.56" style="stroke: #000000; stroke-width: 0.8"/>
      </g>
     </g>
     <g id="text_6">
      <!-- 0 -->
      <g transform="translate(86.0975 525.437969)scale(0.26 -0.26)">
       <use xlink:href="#DejaVuSans-30"/>
      </g>
     </g>
    </g>
    <g id="ytick_2">
     <g id="line2d_6">
      <g>
       <use xlink:href="#mca63e0fc41" x="109.64" y="441.5184" style="stroke: #000000; stroke-width: 0.8"/>
      </g>
     </g>
     <g id="text_7">
      <!-- 20 -->
      <g transform="translate(69.555 451.396369)scale(0.26 -0.26)">
       <use xlink:href="#DejaVuSans-32"/>
       <use xlink:href="#DejaVuSans-30" x="63.623047"/>
      </g>
     </g>
    </g>
    <g id="ytick_3">
     <g id="line2d_7">
      <g>
       <use xlink:href="#mca63e0fc41" x="109.64" y="367.4768" style="stroke: #000000; stroke-width: 0.8"/>
      </g>
     </g>
     <g id="text_8">
      <!-- 40 -->
      <g transform="translate(69.555 377.354769)scale(0.26 -0.26)">
       <defs>
        <path id="DejaVuSans-34" d="M 2419 4116 
L 825 1625 
L 2419 1625 
L 2419 4116 
z
M 2253 4666 
L 3047 4666 
L 3047 1625 
L 3713 1625 
L 3713 1100 
L 3047 1100 
L 3047 0 
L 2419 0 
L 2419 1100 
L 313 1100 
L 313 1709 
L 2253 4666 
z
" transform="scale(0.015625)"/>
       </defs>
       <use xlink:href="#DejaVuSans-34"/>
       <use xlink:href="#DejaVuSans-30" x="63.623047"/>
      </g>
     </g>
    </g>
    <g id="ytick_4">
     <g id="line2d_8">
      <g>
       <use xlink:href="#mca63e0fc41" x="109.64" y="293.4352" style="stroke: #000000; stroke-width: 0.8"/>
      </g>
     </g>
     <g id="text_9">
      <!-- 60 -->
      <g transform="translate(69.555 303.313169)scale(0.26 -0.26)">
       <defs>
        <path id="DejaVuSans-36" d="M 2113 2584 
Q 1688 2584 1439 2293 
Q 1191 2003 1191 1497 
Q 1191 994 1439 701 
Q 1688 409 2113 409 
Q 2538 409 2786 701 
Q 3034 994 3034 1497 
Q 3034 2003 2786 2293 
Q 2538 2584 2113 2584 
z
M 3366 4563 
L 3366 3988 
Q 3128 4100 2886 4159 
Q 2644 4219 2406 4219 
Q 1781 4219 1451 3797 
Q 1122 3375 1075 2522 
Q 1259 2794 1537 2939 
Q 1816 3084 2150 3084 
Q 2853 3084 3261 2657 
Q 3669 2231 3669 1497 
Q 3669 778 3244 343 
Q 2819 -91 2113 -91 
Q 1303 -91 875 529 
Q 447 1150 447 2328 
Q 447 3434 972 4092 
Q 1497 4750 2381 4750 
Q 2619 4750 2861 4703 
Q 3103 4656 3366 4563 
z
" transform="scale(0.015625)"/>
       </defs>
       <use xlink:href="#DejaVuSans-36"/>
       <use xlink:href="#DejaVuSans-30" x="63.623047"/>
      </g>
     </g>
    </g>
    <g id="ytick_5">
     <g id="line2d_9">
      <g>
       <use xlink:href="#mca63e0fc41" x="109.64" y="219.3936" style="stroke: #000000; stroke-width: 0.8"/>
      </g>
     </g>
     <g id="text_10">
      <!-- 80 -->
      <g transform="translate(69.555 229.271569)scale(0.26 -0.26)">
       <defs>
        <path id="DejaVuSans-38" d="M 2034 2216 
Q 1584 2216 1326 1975 
Q 1069 1734 1069 1313 
Q 1069 891 1326 650 
Q 1584 409 2034 409 
Q 2484 409 2743 651 
Q 3003 894 3003 1313 
Q 3003 1734 2745 1975 
Q 2488 2216 2034 2216 
z
M 1403 2484 
Q 997 2584 770 2862 
Q 544 3141 544 3541 
Q 544 4100 942 4425 
Q 1341 4750 2034 4750 
Q 2731 4750 3128 4425 
Q 3525 4100 3525 3541 
Q 3525 3141 3298 2862 
Q 3072 2584 2669 2484 
Q 3125 2378 3379 2068 
Q 3634 1759 3634 1313 
Q 3634 634 3220 271 
Q 2806 -91 2034 -91 
Q 1263 -91 848 271 
Q 434 634 434 1313 
Q 434 1759 690 2068 
Q 947 2378 1403 2484 
z
M 1172 3481 
Q 1172 3119 1398 2916 
Q 1625 2713 2034 2713 
Q 2441 2713 2670 2916 
Q 2900 3119 2900 3481 
Q 2900 3844 2670 4047 
Q 2441 4250 2034 4250 
Q 1625 4250 1398 4047 
Q 1172 3844 1172 3481 
z
" transform="scale(0.015625)"/>
       </defs>
       <use xlink:href="#DejaVuSans-38"/>
       <use xlink:href="#DejaVuSans-30" x="63.623047"/>
      </g>
     </g>
    </g>
    <g id="ytick_6">
     <g id="line2d_10">
      <g>
       <use xlink:href="#mca63e0fc41" x="109.64" y="145.352" style="stroke: #000000; stroke-width: 0.8"/>
      </g>
     </g>
     <g id="text_11">
      <!-- 100 -->
      <g transform="translate(53.0125 155.229969)scale(0.26 -0.26)">
       <use xlink:href="#DejaVuSans-31"/>
       <use xlink:href="#DejaVuSans-30" x="63.623047"/>
       <use xlink:href="#DejaVuSans-30" x="127.246094"/>
      </g>
     </g>
    </g>
    <g id="ytick_7">
     <g id="line2d_11">
      <g>
       <use xlink:href="#mca63e0fc41" x="109.64" y="71.3104" style="stroke: #000000; stroke-width: 0.8"/>
      </g>
     </g>
     <g id="text_12">
      <!-- 120 -->
      <g transform="translate(53.0125 81.188369)scale(0.26 -0.26)">
       <use xlink:href="#DejaVuSans-31"/>
       <use xlink:href="#DejaVuSans-32" x="63.623047"/>
       <use xlink:href="#DejaVuSans-30" x="127.246094"/>
      </g>
     </g>
    </g>
    <g id="text_13">
     <!-- % of Remaining Glacier Mass -->
     <g transform="translate(44.265313 463.619219)rotate(-90)scale(0.22 -0.22)">
      <defs>
       <path id="DejaVuSans-Bold-25" d="M 4959 1925 
Q 4738 1925 4616 1733 
Q 4494 1541 4494 1184 
Q 4494 825 4614 633 
Q 4734 441 4959 441 
Q 5184 441 5303 633 
Q 5422 825 5422 1184 
Q 5422 1541 5301 1733 
Q 5181 1925 4959 1925 
z
M 4959 2450 
Q 5541 2450 5875 2112 
Q 6209 1775 6209 1184 
Q 6209 594 5875 251 
Q 5541 -91 4959 -91 
Q 4378 -91 4042 251 
Q 3706 594 3706 1184 
Q 3706 1772 4042 2111 
Q 4378 2450 4959 2450 
z
M 2094 -91 
L 1403 -91 
L 4319 4750 
L 5013 4750 
L 2094 -91 
z
M 1453 4750 
Q 2034 4750 2367 4411 
Q 2700 4072 2700 3481 
Q 2700 2891 2367 2550 
Q 2034 2209 1453 2209 
Q 872 2209 539 2550 
Q 206 2891 206 3481 
Q 206 4072 539 4411 
Q 872 4750 1453 4750 
z
M 1453 4225 
Q 1228 4225 1106 4031 
Q 984 3838 984 3481 
Q 984 3122 1106 2926 
Q 1228 2731 1453 2731 
Q 1678 2731 1798 2926 
Q 1919 3122 1919 3481 
Q 1919 3838 1797 4031 
Q 1675 4225 1453 4225 
z
" transform="scale(0.015625)"/>
       <path id="DejaVuSans-Bold-20" transform="scale(0.015625)"/>
       <path id="DejaVuSans-Bold-6f" d="M 2203 2784 
Q 1831 2784 1636 2517 
Q 1441 2250 1441 1747 
Q 1441 1244 1636 976 
Q 1831 709 2203 709 
Q 2569 709 2762 976 
Q 2956 1244 2956 1747 
Q 2956 2250 2762 2517 
Q 2569 2784 2203 2784 
z
M 2203 3584 
Q 3106 3584 3614 3096 
Q 4122 2609 4122 1747 
Q 4122 884 3614 396 
Q 3106 -91 2203 -91 
Q 1297 -91 786 396 
Q 275 884 275 1747 
Q 275 2609 786 3096 
Q 1297 3584 2203 3584 
z
" transform="scale(0.015625)"/>
       <path id="DejaVuSans-Bold-66" d="M 2841 4863 
L 2841 4128 
L 2222 4128 
Q 1984 4128 1890 4042 
Q 1797 3956 1797 3744 
L 1797 3500 
L 2753 3500 
L 2753 2700 
L 1797 2700 
L 1797 0 
L 678 0 
L 678 2700 
L 122 2700 
L 122 3500 
L 678 3500 
L 678 3744 
Q 678 4316 997 4589 
Q 1316 4863 1984 4863 
L 2841 4863 
z
" transform="scale(0.015625)"/>
       <path id="DejaVuSans-Bold-52" d="M 2297 2597 
Q 2675 2597 2839 2737 
Q 3003 2878 3003 3200 
Q 3003 3519 2839 3656 
Q 2675 3794 2297 3794 
L 1791 3794 
L 1791 2597 
L 2297 2597 
z
M 1791 1766 
L 1791 0 
L 588 0 
L 588 4666 
L 2425 4666 
Q 3347 4666 3776 4356 
Q 4206 4047 4206 3378 
Q 4206 2916 3982 2619 
Q 3759 2322 3309 2181 
Q 3556 2125 3751 1926 
Q 3947 1728 4147 1325 
L 4800 0 
L 3519 0 
L 2950 1159 
Q 2778 1509 2601 1637 
Q 2425 1766 2131 1766 
L 1791 1766 
z
" transform="scale(0.015625)"/>
       <path id="DejaVuSans-Bold-6d" d="M 3781 2919 
Q 3994 3244 4286 3414 
Q 4578 3584 4928 3584 
Q 5531 3584 5847 3212 
Q 6163 2841 6163 2131 
L 6163 0 
L 5038 0 
L 5038 1825 
Q 5041 1866 5042 1909 
Q 5044 1953 5044 2034 
Q 5044 2406 4934 2573 
Q 4825 2741 4581 2741 
Q 4263 2741 4089 2478 
Q 3916 2216 3909 1719 
L 3909 0 
L 2784 0 
L 2784 1825 
Q 2784 2406 2684 2573 
Q 2584 2741 2328 2741 
Q 2006 2741 1831 2477 
Q 1656 2213 1656 1722 
L 1656 0 
L 531 0 
L 531 3500 
L 1656 3500 
L 1656 2988 
Q 1863 3284 2130 3434 
Q 2397 3584 2719 3584 
Q 3081 3584 3359 3409 
Q 3638 3234 3781 2919 
z
" transform="scale(0.015625)"/>
       <path id="DejaVuSans-Bold-69" d="M 538 3500 
L 1656 3500 
L 1656 0 
L 538 0 
L 538 3500 
z
M 538 4863 
L 1656 4863 
L 1656 3950 
L 538 3950 
L 538 4863 
z
" transform="scale(0.015625)"/>
       <path id="DejaVuSans-Bold-6e" d="M 4056 2131 
L 4056 0 
L 2931 0 
L 2931 347 
L 2931 1631 
Q 2931 2084 2911 2256 
Q 2891 2428 2841 2509 
Q 2775 2619 2662 2680 
Q 2550 2741 2406 2741 
Q 2056 2741 1856 2470 
Q 1656 2200 1656 1722 
L 1656 0 
L 538 0 
L 538 3500 
L 1656 3500 
L 1656 2988 
Q 1909 3294 2193 3439 
Q 2478 3584 2822 3584 
Q 3428 3584 3742 3212 
Q 4056 2841 4056 2131 
z
" transform="scale(0.015625)"/>
       <path id="DejaVuSans-Bold-67" d="M 2919 594 
Q 2688 288 2409 144 
Q 2131 0 1766 0 
Q 1125 0 706 504 
Q 288 1009 288 1791 
Q 288 2575 706 3076 
Q 1125 3578 1766 3578 
Q 2131 3578 2409 3434 
Q 2688 3291 2919 2981 
L 2919 3500 
L 4044 3500 
L 4044 353 
Q 4044 -491 3511 -936 
Q 2978 -1381 1966 -1381 
Q 1638 -1381 1331 -1331 
Q 1025 -1281 716 -1178 
L 716 -306 
Q 1009 -475 1290 -558 
Q 1572 -641 1856 -641 
Q 2406 -641 2662 -400 
Q 2919 -159 2919 353 
L 2919 594 
z
M 2181 2772 
Q 1834 2772 1640 2515 
Q 1447 2259 1447 1791 
Q 1447 1309 1634 1061 
Q 1822 813 2181 813 
Q 2531 813 2725 1069 
Q 2919 1325 2919 1791 
Q 2919 2259 2725 2515 
Q 2531 2772 2181 2772 
z
" transform="scale(0.015625)"/>
       <path id="DejaVuSans-Bold-47" d="M 4781 347 
Q 4331 128 3847 18 
Q 3363 -91 2847 -91 
Q 1681 -91 1000 561 
Q 319 1213 319 2328 
Q 319 3456 1012 4103 
Q 1706 4750 2913 4750 
Q 3378 4750 3804 4662 
Q 4231 4575 4609 4403 
L 4609 3438 
Q 4219 3659 3833 3768 
Q 3447 3878 3059 3878 
Q 2341 3878 1952 3476 
Q 1563 3075 1563 2328 
Q 1563 1588 1938 1184 
Q 2313 781 3003 781 
Q 3191 781 3352 804 
Q 3513 828 3641 878 
L 3641 1784 
L 2906 1784 
L 2906 2591 
L 4781 2591 
L 4781 347 
z
" transform="scale(0.015625)"/>
       <path id="DejaVuSans-Bold-6c" d="M 538 4863 
L 1656 4863 
L 1656 0 
L 538 0 
L 538 4863 
z
" transform="scale(0.015625)"/>
       <path id="DejaVuSans-Bold-63" d="M 3366 3391 
L 3366 2478 
Q 3138 2634 2908 2709 
Q 2678 2784 2431 2784 
Q 1963 2784 1702 2511 
Q 1441 2238 1441 1747 
Q 1441 1256 1702 982 
Q 1963 709 2431 709 
Q 2694 709 2930 787 
Q 3166 866 3366 1019 
L 3366 103 
Q 3103 6 2833 -42 
Q 2563 -91 2291 -91 
Q 1344 -91 809 395 
Q 275 881 275 1747 
Q 275 2613 809 3098 
Q 1344 3584 2291 3584 
Q 2566 3584 2833 3536 
Q 3100 3488 3366 3391 
z
" transform="scale(0.015625)"/>
       <path id="DejaVuSans-Bold-4d" d="M 588 4666 
L 2119 4666 
L 3181 2169 
L 4250 4666 
L 5778 4666 
L 5778 0 
L 4641 0 
L 4641 3413 
L 3566 897 
L 2803 897 
L 1728 3413 
L 1728 0 
L 588 0 
L 588 4666 
z
" transform="scale(0.015625)"/>
       <path id="DejaVuSans-Bold-73" d="M 3272 3391 
L 3272 2541 
Q 2913 2691 2578 2766 
Q 2244 2841 1947 2841 
Q 1628 2841 1473 2761 
Q 1319 2681 1319 2516 
Q 1319 2381 1436 2309 
Q 1553 2238 1856 2203 
L 2053 2175 
Q 2913 2066 3209 1816 
Q 3506 1566 3506 1031 
Q 3506 472 3093 190 
Q 2681 -91 1863 -91 
Q 1516 -91 1145 -36 
Q 775 19 384 128 
L 384 978 
Q 719 816 1070 734 
Q 1422 653 1784 653 
Q 2113 653 2278 743 
Q 2444 834 2444 1013 
Q 2444 1163 2330 1236 
Q 2216 1309 1875 1350 
L 1678 1375 
Q 931 1469 631 1722 
Q 331 1975 331 2491 
Q 331 3047 712 3315 
Q 1094 3584 1881 3584 
Q 2191 3584 2531 3537 
Q 2872 3491 3272 3391 
z
" transform="scale(0.015625)"/>
      </defs>
      <use xlink:href="#DejaVuSans-Bold-25"/>
      <use xlink:href="#DejaVuSans-Bold-20" x="100.195312"/>
      <use xlink:href="#DejaVuSans-Bold-6f" x="135.009766"/>
      <use xlink:href="#DejaVuSans-Bold-66" x="203.710938"/>
      <use xlink:href="#DejaVuSans-Bold-20" x="247.216797"/>
      <use xlink:href="#DejaVuSans-Bold-52" x="282.03125"/>
      <use xlink:href="#DejaVuSans-Bold-65" x="359.033203"/>
      <use xlink:href="#DejaVuSans-Bold-6d" x="426.855469"/>
      <use xlink:href="#DejaVuSans-Bold-61" x="531.054688"/>
      <use xlink:href="#DejaVuSans-Bold-69" x="598.535156"/>
      <use xlink:href="#DejaVuSans-Bold-6e" x="632.8125"/>
      <use xlink:href="#DejaVuSans-Bold-69" x="704.003906"/>
      <use xlink:href="#DejaVuSans-Bold-6e" x="738.28125"/>
      <use xlink:href="#DejaVuSans-Bold-67" x="809.472656"/>
      <use xlink:href="#DejaVuSans-Bold-20" x="881.054688"/>
      <use xlink:href="#DejaVuSans-Bold-47" x="915.869141"/>
      <use xlink:href="#DejaVuSans-Bold-6c" x="997.949219"/>
      <use xlink:href="#DejaVuSans-Bold-61" x="1032.226562"/>
      <use xlink:href="#DejaVuSans-Bold-63" x="1099.707031"/>
      <use xlink:href="#DejaVuSans-Bold-69" x="1158.984375"/>
      <use xlink:href="#DejaVuSans-Bold-65" x="1193.261719"/>
      <use xlink:href="#DejaVuSans-Bold-72" x="1261.083984"/>
      <use xlink:href="#DejaVuSans-Bold-20" x="1310.400391"/>
      <use xlink:href="#DejaVuSans-Bold-4d" x="1345.214844"/>
      <use xlink:href="#DejaVuSans-Bold-61" x="1444.726562"/>
      <use xlink:href="#DejaVuSans-Bold-73" x="1512.207031"/>
      <use xlink:href="#DejaVuSans-Bold-73" x="1571.728516"/>
     </g>
    </g>
   </g>
   <g id="line2d_12">
    <path d="M 167.276938 150.278637 
L 172.080016 159.727095 
L 176.883094 169.143879 
L 179.284633 174.171754 
L 181.686172 179.549148 
L 186.48925 189.966572 
L 188.89079 195.332347 
L 191.292329 201.066792 
L 198.496946 216.766631 
L 215.307719 252.71893 
L 220.110798 262.877879 
L 224.913876 273.301338 
L 232.118493 288.154553 
L 234.520032 292.759409 
L 244.126188 309.89873 
L 251.330806 322.602705 
L 253.732345 326.577009 
L 265.74004 344.000114 
L 270.543118 349.683796 
L 275.346196 354.556722 
L 280.149275 358.932779 
L 284.952353 363.295618 
L 289.755431 367.849409 
L 294.558509 372.171261 
L 304.164665 380.527345 
L 306.566204 382.250434 
L 318.5739 390.011902 
L 323.376978 393.466821 
L 330.581595 398.530942 
L 332.983134 400.149953 
L 335.384673 401.606664 
L 340.187751 403.973347 
L 344.99083 406.503077 
L 359.400064 413.611037 
L 364.203142 416.029248 
L 369.00622 418.279454 
L 373.809299 420.331697 
L 385.816994 425.264546 
L 388.218533 426.112973 
L 395.42315 428.314608 
L 407.430846 432.332381 
L 419.438541 435.54642 
L 431.446236 438.612683 
L 441.052393 442.314077 
L 448.25701 444.549042 
L 453.060088 445.933085 
L 457.863166 447.25802 
L 472.272401 451.434301 
L 477.075479 452.6061 
L 481.878557 453.596452 
L 489.083174 454.995191 
L 501.09087 457.710612 
L 534.712417 466.378323 
L 541.917034 467.743549 
L 553.924729 469.57865 
L 558.727808 470.257115 
L 565.932425 471.01558 
L 573.137042 471.526337 
L 577.94012 471.884056 
L 587.546277 472.738278 
L 597.152433 473.554614 
L 606.758589 474.299998 
L 616.364745 475.248272 
L 630.77398 476.994677 
L 664.395527 479.947813 
L 678.804761 481.031486 
L 683.60784 481.560929 
L 695.615535 482.535352 
L 707.62323 483.013565 
L 724.434004 483.555405 
L 736.441699 484.13908 
L 746.047856 484.766788 
L 753.252473 485.249166 
L 760.45709 485.653324 
L 777.267864 486.36445 
L 801.283254 486.822395 
L 806.086333 486.867045 
L 818.094028 487.034537 
L 830.101723 487.065147 
L 834.904802 487.180213 
L 837.306341 487.192774 
L 837.306341 487.192774 
" clip-path="url(#pf4b7005f9a)" style="fill: none; stroke: #74b8f8; stroke-opacity: 0.5; stroke-width: 6; stroke-linecap: square"/>
   </g>
   <g id="line2d_13">
    <path d="M 116.844617 90.575812 
L 119.246156 91.805268 
L 121.647695 93.19697 
L 124.049234 94.87775 
L 126.450774 96.634619 
L 128.852313 98.396268 
L 131.253852 100.085834 
L 133.655391 101.559219 
L 136.05693 103.40954 
L 138.458469 105.236373 
L 140.860008 107.183796 
L 143.261547 110.09107 
L 145.663086 113.555147 
L 148.064625 117.135938 
L 150.466164 120.870835 
L 152.867703 124.465562 
L 155.269242 128.033048 
L 157.670782 132.156839 
L 160.072321 136.227975 
L 162.47386 140.524913 
L 164.875399 145.352 
" clip-path="url(#pf4b7005f9a)" style="fill: none; stroke: #000000; stroke-opacity: 0.5; stroke-width: 6; stroke-linecap: square"/>
   </g>
   <g id="line2d_14">
    <path d="M 167.276938 148.787037 
L 172.080016 155.293221 
L 179.284633 165.649887 
L 184.087711 173.963135 
L 186.48925 178.38296 
L 188.89079 183.078156 
L 191.292329 188.100873 
L 193.693868 192.617565 
L 200.898485 205.216351 
L 203.300024 210.080863 
L 208.103102 220.576847 
L 210.504641 225.606401 
L 217.709259 239.205964 
L 222.512337 248.350787 
L 234.520032 271.423331 
L 241.724649 284.742312 
L 251.330806 301.251703 
L 256.133884 308.998998 
L 258.535423 312.76218 
L 270.543118 330.144517 
L 275.346196 336.623562 
L 294.558509 360.36107 
L 306.566204 373.867867 
L 316.172361 384.916482 
L 323.376978 392.32981 
L 328.180056 397.132954 
L 330.581595 399.470314 
L 340.187751 408.023168 
L 352.195447 418.724036 
L 356.998525 422.584189 
L 364.203142 427.889537 
L 383.415455 441.829147 
L 388.218533 445.07034 
L 393.021611 448.083637 
L 397.824689 450.801065 
L 405.029307 454.507259 
L 409.832385 456.92138 
L 421.84008 463.711125 
L 429.044697 467.617894 
L 443.453932 474.95589 
L 450.658549 478.369899 
L 460.264705 482.388557 
L 472.272401 486.954872 
L 484.280096 491.273003 
L 493.886252 494.359363 
L 503.492409 497.284264 
L 510.697026 499.229951 
L 515.500104 500.387946 
L 522.704721 501.827203 
L 529.909339 503.051537 
L 541.917034 504.791164 
L 556.326268 506.5114 
L 568.333964 507.705593 
L 582.743198 508.862735 
L 604.35705 510.088101 
L 621.167824 510.604358 
L 695.615535 512.194949 
L 717.229387 512.260043 
L 758.055551 512.511223 
L 837.306341 512.90968 
L 837.306341 512.90968 
" clip-path="url(#pf4b7005f9a)" style="fill: none; stroke: #f47100; stroke-opacity: 0.5; stroke-width: 6; stroke-linecap: square"/>
   </g>
   <g id="line2d_15">
    <path d="M 116.844617 102.449388 
L 119.246156 103.823492 
L 121.647695 105.234161 
L 124.049234 106.502805 
L 126.450774 107.543123 
L 128.852313 108.705317 
L 131.253852 110.058163 
L 133.655391 111.118555 
L 136.05693 112.316596 
L 138.458469 113.413953 
L 140.860008 114.749198 
L 143.261547 117.303773 
L 145.663086 120.196537 
L 148.064625 123.139935 
L 150.466164 126.087513 
L 152.867703 129.001546 
L 155.269242 131.970664 
L 157.670782 135.276162 
L 160.072321 138.392258 
L 162.47386 141.869547 
L 164.875399 145.352 
" clip-path="url(#pf4b7005f9a)" style="fill: none; stroke: #000000; stroke-opacity: 0.5; stroke-width: 6; stroke-linecap: square"/>
   </g>
   <g id="line2d_16">
    <path d="M 167.276938 149.273193 
L 172.080016 157.710006 
L 174.481555 162.297908 
L 181.686172 177.20784 
L 186.48925 187.29762 
L 188.89079 192.588518 
L 193.693868 203.892673 
L 198.496946 215.695097 
L 205.701563 234.419124 
L 210.504641 245.621742 
L 215.307719 256.653586 
L 222.512337 272.559853 
L 232.118493 298.452464 
L 234.520032 303.760834 
L 241.724649 318.476632 
L 246.527727 327.756045 
L 251.330806 336.160513 
L 256.133884 343.763572 
L 258.535423 347.545416 
L 263.338501 354.383092 
L 265.74004 358.486776 
L 270.543118 367.494483 
L 280.149275 384.464367 
L 284.952353 392.167979 
L 289.755431 399.381254 
L 304.164665 420.089933 
L 308.967743 426.427603 
L 313.770822 432.293231 
L 318.5739 437.767546 
L 330.581595 450.881662 
L 335.384673 455.894766 
L 340.187751 460.572394 
L 347.392369 467.111204 
L 352.195447 471.024298 
L 356.998525 474.719911 
L 361.801603 478.069002 
L 366.604681 481.227865 
L 371.407759 484.189702 
L 376.210838 486.889607 
L 381.013916 489.326522 
L 388.218533 492.706404 
L 393.021611 494.703262 
L 402.627768 498.339906 
L 412.233924 501.60284 
L 419.438541 503.763956 
L 426.643158 505.70764 
L 436.249315 507.890172 
L 443.453932 509.313112 
L 450.658549 510.495264 
L 457.863166 511.484085 
L 465.067784 512.293749 
L 472.272401 512.917072 
L 489.083174 513.616678 
L 501.09087 513.952684 
L 520.303182 514.452172 
L 534.712417 514.754022 
L 556.326268 514.898891 
L 623.569363 515.092938 
L 736.441699 515.136543 
L 837.306341 515.165809 
L 837.306341 515.165809 
" clip-path="url(#pf4b7005f9a)" style="fill: none; stroke: #d01e04; stroke-opacity: 0.5; stroke-width: 6; stroke-linecap: square"/>
   </g>
   <g id="line2d_17">
    <path d="M 116.844617 97.575061 
L 119.246156 99.21078 
L 121.647695 100.751059 
L 124.049234 102.314387 
L 126.450774 103.609909 
L 128.852313 104.800966 
L 131.253852 106.221979 
L 133.655391 107.595655 
L 136.05693 109.237734 
L 138.458469 110.874769 
L 140.860008 112.520801 
L 143.261547 115.688627 
L 145.663086 118.892508 
L 148.064625 122.039911 
L 150.466164 125.072638 
L 152.867703 128.192639 
L 155.269242 131.408393 
L 157.670782 134.723665 
L 160.072321 138.106391 
L 162.47386 141.617798 
L 164.875399 145.352 
" clip-path="url(#pf4b7005f9a)" style="fill: none; stroke: #000000; stroke-opacity: 0.5; stroke-width: 6; stroke-linecap: square"/>
   </g>
   <g id="patch_3">
    <path d="M 109.64 515.56 
L 109.64 52.8 
" style="fill: none; stroke: #000000; stroke-width: 0.8; stroke-linejoin: miter; stroke-linecap: square"/>
   </g>
   <g id="patch_4">
    <path d="M 109.64 515.56 
L 858.920192 515.56 
" style="fill: none; stroke: #000000; stroke-width: 0.8; stroke-linejoin: miter; stroke-linecap: square"/>
   </g>
   <g id="text_14">
    <!-- Scandinavia -->
    <g transform="translate(402.505721 46.8)scale(0.24 -0.24)">
     <defs>
      <path id="DejaVuSans-Bold-53" d="M 3834 4519 
L 3834 3531 
Q 3450 3703 3084 3790 
Q 2719 3878 2394 3878 
Q 1963 3878 1756 3759 
Q 1550 3641 1550 3391 
Q 1550 3203 1689 3098 
Q 1828 2994 2194 2919 
L 2706 2816 
Q 3484 2659 3812 2340 
Q 4141 2022 4141 1434 
Q 4141 663 3683 286 
Q 3225 -91 2284 -91 
Q 1841 -91 1394 -6 
Q 947 78 500 244 
L 500 1259 
Q 947 1022 1364 901 
Q 1781 781 2169 781 
Q 2563 781 2772 912 
Q 2981 1044 2981 1288 
Q 2981 1506 2839 1625 
Q 2697 1744 2272 1838 
L 1806 1941 
Q 1106 2091 782 2419 
Q 459 2747 459 3303 
Q 459 4000 909 4375 
Q 1359 4750 2203 4750 
Q 2588 4750 2994 4692 
Q 3400 4634 3834 4519 
z
" transform="scale(0.015625)"/>
      <path id="DejaVuSans-Bold-64" d="M 2919 2988 
L 2919 4863 
L 4044 4863 
L 4044 0 
L 2919 0 
L 2919 506 
Q 2688 197 2409 53 
Q 2131 -91 1766 -91 
Q 1119 -91 703 423 
Q 288 938 288 1747 
Q 288 2556 703 3070 
Q 1119 3584 1766 3584 
Q 2128 3584 2408 3439 
Q 2688 3294 2919 2988 
z
M 2181 722 
Q 2541 722 2730 984 
Q 2919 1247 2919 1747 
Q 2919 2247 2730 2509 
Q 2541 2772 2181 2772 
Q 1825 2772 1636 2509 
Q 1447 2247 1447 1747 
Q 1447 1247 1636 984 
Q 1825 722 2181 722 
z
" transform="scale(0.015625)"/>
      <path id="DejaVuSans-Bold-76" d="M 97 3500 
L 1216 3500 
L 2088 1081 
L 2956 3500 
L 4078 3500 
L 2700 0 
L 1472 0 
L 97 3500 
z
" transform="scale(0.015625)"/>
     </defs>
     <use xlink:href="#DejaVuSans-Bold-53"/>
     <use xlink:href="#DejaVuSans-Bold-63" x="72.021484"/>
     <use xlink:href="#DejaVuSans-Bold-61" x="131.298828"/>
     <use xlink:href="#DejaVuSans-Bold-6e" x="198.779297"/>
     <use xlink:href="#DejaVuSans-Bold-64" x="269.970703"/>
     <use xlink:href="#DejaVuSans-Bold-69" x="341.552734"/>
     <use xlink:href="#DejaVuSans-Bold-6e" x="375.830078"/>
     <use xlink:href="#DejaVuSans-Bold-61" x="447.021484"/>
     <use xlink:href="#DejaVuSans-Bold-76" x="514.501953"/>
     <use xlink:href="#DejaVuSans-Bold-69" x="579.6875"/>
     <use xlink:href="#DejaVuSans-Bold-61" x="613.964844"/>
    </g>
   </g>
   <g id="legend_1">
    <g id="patch_5">
     <path d="M 597.903942 225.737875 
L 843.520192 225.737875 
Q 847.920192 225.737875 847.920192 221.337875 
L 847.920192 68.2 
Q 847.920192 63.8 843.520192 63.8 
L 597.903942 63.8 
Q 593.503942 63.8 593.503942 68.2 
L 593.503942 221.337875 
Q 593.503942 225.737875 597.903942 225.737875 
z
" style="fill: #ffffff; opacity: 0.6; stroke: #cccccc; stroke-linejoin: miter"/>
    </g>
    <g id="text_15">
     <!-- Global mean -->
     <g transform="translate(602.303942 89.316563)scale(0.22 -0.22)">
      <defs>
       <path id="DejaVuSans-47" d="M 3809 666 
L 3809 1919 
L 2778 1919 
L 2778 2438 
L 4434 2438 
L 4434 434 
Q 4069 175 3628 42 
Q 3188 -91 2688 -91 
Q 1594 -91 976 548 
Q 359 1188 359 2328 
Q 359 3472 976 4111 
Q 1594 4750 2688 4750 
Q 3144 4750 3555 4637 
Q 3966 4525 4313 4306 
L 4313 3634 
Q 3963 3931 3569 4081 
Q 3175 4231 2741 4231 
Q 1884 4231 1454 3753 
Q 1025 3275 1025 2328 
Q 1025 1384 1454 906 
Q 1884 428 2741 428 
Q 3075 428 3337 486 
Q 3600 544 3809 666 
z
" transform="scale(0.015625)"/>
       <path id="DejaVuSans-6c" d="M 603 4863 
L 1178 4863 
L 1178 0 
L 603 0 
L 603 4863 
z
" transform="scale(0.015625)"/>
       <path id="DejaVuSans-6f" d="M 1959 3097 
Q 1497 3097 1228 2736 
Q 959 2375 959 1747 
Q 959 1119 1226 758 
Q 1494 397 1959 397 
Q 2419 397 2687 759 
Q 2956 1122 2956 1747 
Q 2956 2369 2687 2733 
Q 2419 3097 1959 3097 
z
M 1959 3584 
Q 2709 3584 3137 3096 
Q 3566 2609 3566 1747 
Q 3566 888 3137 398 
Q 2709 -91 1959 -91 
Q 1206 -91 779 398 
Q 353 888 353 1747 
Q 353 2609 779 3096 
Q 1206 3584 1959 3584 
z
" transform="scale(0.015625)"/>
       <path id="DejaVuSans-62" d="M 3116 1747 
Q 3116 2381 2855 2742 
Q 2594 3103 2138 3103 
Q 1681 3103 1420 2742 
Q 1159 2381 1159 1747 
Q 1159 1113 1420 752 
Q 1681 391 2138 391 
Q 2594 391 2855 752 
Q 3116 1113 3116 1747 
z
M 1159 2969 
Q 1341 3281 1617 3432 
Q 1894 3584 2278 3584 
Q 2916 3584 3314 3078 
Q 3713 2572 3713 1747 
Q 3713 922 3314 415 
Q 2916 -91 2278 -91 
Q 1894 -91 1617 61 
Q 1341 213 1159 525 
L 1159 0 
L 581 0 
L 581 4863 
L 1159 4863 
L 1159 2969 
z
" transform="scale(0.015625)"/>
       <path id="DejaVuSans-61" d="M 2194 1759 
Q 1497 1759 1228 1600 
Q 959 1441 959 1056 
Q 959 750 1161 570 
Q 1363 391 1709 391 
Q 2188 391 2477 730 
Q 2766 1069 2766 1631 
L 2766 1759 
L 2194 1759 
z
M 3341 1997 
L 3341 0 
L 2766 0 
L 2766 531 
Q 2569 213 2275 61 
Q 1981 -91 1556 -91 
Q 1019 -91 701 211 
Q 384 513 384 1019 
Q 384 1609 779 1909 
Q 1175 2209 1959 2209 
L 2766 2209 
L 2766 2266 
Q 2766 2663 2505 2880 
Q 2244 3097 1772 3097 
Q 1472 3097 1187 3025 
Q 903 2953 641 2809 
L 641 3341 
Q 956 3463 1253 3523 
Q 1550 3584 1831 3584 
Q 2591 3584 2966 3190 
Q 3341 2797 3341 1997 
z
" transform="scale(0.015625)"/>
       <path id="DejaVuSans-20" transform="scale(0.015625)"/>
       <path id="DejaVuSans-6d" d="M 3328 2828 
Q 3544 3216 3844 3400 
Q 4144 3584 4550 3584 
Q 5097 3584 5394 3201 
Q 5691 2819 5691 2113 
L 5691 0 
L 5113 0 
L 5113 2094 
Q 5113 2597 4934 2840 
Q 4756 3084 4391 3084 
Q 3944 3084 3684 2787 
Q 3425 2491 3425 1978 
L 3425 0 
L 2847 0 
L 2847 2094 
Q 2847 2600 2669 2842 
Q 2491 3084 2119 3084 
Q 1678 3084 1418 2786 
Q 1159 2488 1159 1978 
L 1159 0 
L 581 0 
L 581 3500 
L 1159 3500 
L 1159 2956 
Q 1356 3278 1631 3431 
Q 1906 3584 2284 3584 
Q 2666 3584 2933 3390 
Q 3200 3197 3328 2828 
z
" transform="scale(0.015625)"/>
       <path id="DejaVuSans-65" d="M 3597 1894 
L 3597 1613 
L 953 1613 
Q 991 1019 1311 708 
Q 1631 397 2203 397 
Q 2534 397 2845 478 
Q 3156 559 3463 722 
L 3463 178 
Q 3153 47 2828 -22 
Q 2503 -91 2169 -91 
Q 1331 -91 842 396 
Q 353 884 353 1716 
Q 353 2575 817 3079 
Q 1281 3584 2069 3584 
Q 2775 3584 3186 3129 
Q 3597 2675 3597 1894 
z
M 3022 2063 
Q 3016 2534 2758 2815 
Q 2500 3097 2075 3097 
Q 1594 3097 1305 2825 
Q 1016 2553 972 2059 
L 3022 2063 
z
" transform="scale(0.015625)"/>
       <path id="DejaVuSans-6e" d="M 3513 2113 
L 3513 0 
L 2938 0 
L 2938 2094 
Q 2938 2591 2744 2837 
Q 2550 3084 2163 3084 
Q 1697 3084 1428 2787 
Q 1159 2491 1159 1978 
L 1159 0 
L 581 0 
L 581 3500 
L 1159 3500 
L 1159 2956 
Q 1366 3272 1645 3428 
Q 1925 3584 2291 3584 
Q 2894 3584 3203 3211 
Q 3513 2838 3513 2113 
z
" transform="scale(0.015625)"/>
      </defs>
      <use xlink:href="#DejaVuSans-47"/>
      <use xlink:href="#DejaVuSans-6c" x="77.490234"/>
      <use xlink:href="#DejaVuSans-6f" x="105.273438"/>
      <use xlink:href="#DejaVuSans-62" x="166.455078"/>
      <use xlink:href="#DejaVuSans-61" x="229.931641"/>
      <use xlink:href="#DejaVuSans-6c" x="291.210938"/>
      <use xlink:href="#DejaVuSans-20" x="318.994141"/>
      <use xlink:href="#DejaVuSans-6d" x="350.78125"/>
      <use xlink:href="#DejaVuSans-65" x="448.193359"/>
      <use xlink:href="#DejaVuSans-61" x="509.716797"/>
      <use xlink:href="#DejaVuSans-6e" x="570.996094"/>
     </g>
     <!-- temperature above -->
     <g transform="translate(602.303942 113.95175)scale(0.22 -0.22)">
      <defs>
       <path id="DejaVuSans-74" d="M 1172 4494 
L 1172 3500 
L 2356 3500 
L 2356 3053 
L 1172 3053 
L 1172 1153 
Q 1172 725 1289 603 
Q 1406 481 1766 481 
L 2356 481 
L 2356 0 
L 1766 0 
Q 1100 0 847 248 
Q 594 497 594 1153 
L 594 3053 
L 172 3053 
L 172 3500 
L 594 3500 
L 594 4494 
L 1172 4494 
z
" transform="scale(0.015625)"/>
       <path id="DejaVuSans-70" d="M 1159 525 
L 1159 -1331 
L 581 -1331 
L 581 3500 
L 1159 3500 
L 1159 2969 
Q 1341 3281 1617 3432 
Q 1894 3584 2278 3584 
Q 2916 3584 3314 3078 
Q 3713 2572 3713 1747 
Q 3713 922 3314 415 
Q 2916 -91 2278 -91 
Q 1894 -91 1617 61 
Q 1341 213 1159 525 
z
M 3116 1747 
Q 3116 2381 2855 2742 
Q 2594 3103 2138 3103 
Q 1681 3103 1420 2742 
Q 1159 2381 1159 1747 
Q 1159 1113 1420 752 
Q 1681 391 2138 391 
Q 2594 391 2855 752 
Q 3116 1113 3116 1747 
z
" transform="scale(0.015625)"/>
       <path id="DejaVuSans-72" d="M 2631 2963 
Q 2534 3019 2420 3045 
Q 2306 3072 2169 3072 
Q 1681 3072 1420 2755 
Q 1159 2438 1159 1844 
L 1159 0 
L 581 0 
L 581 3500 
L 1159 3500 
L 1159 2956 
Q 1341 3275 1631 3429 
Q 1922 3584 2338 3584 
Q 2397 3584 2469 3576 
Q 2541 3569 2628 3553 
L 2631 2963 
z
" transform="scale(0.015625)"/>
       <path id="DejaVuSans-75" d="M 544 1381 
L 544 3500 
L 1119 3500 
L 1119 1403 
Q 1119 906 1312 657 
Q 1506 409 1894 409 
Q 2359 409 2629 706 
Q 2900 1003 2900 1516 
L 2900 3500 
L 3475 3500 
L 3475 0 
L 2900 0 
L 2900 538 
Q 2691 219 2414 64 
Q 2138 -91 1772 -91 
Q 1169 -91 856 284 
Q 544 659 544 1381 
z
M 1991 3584 
L 1991 3584 
z
" transform="scale(0.015625)"/>
       <path id="DejaVuSans-76" d="M 191 3500 
L 800 3500 
L 1894 563 
L 2988 3500 
L 3597 3500 
L 2284 0 
L 1503 0 
L 191 3500 
z
" transform="scale(0.015625)"/>
      </defs>
      <use xlink:href="#DejaVuSans-74"/>
      <use xlink:href="#DejaVuSans-65" x="39.208984"/>
      <use xlink:href="#DejaVuSans-6d" x="100.732422"/>
      <use xlink:href="#DejaVuSans-70" x="198.144531"/>
      <use xlink:href="#DejaVuSans-65" x="261.621094"/>
      <use xlink:href="#DejaVuSans-72" x="323.144531"/>
      <use xlink:href="#DejaVuSans-61" x="364.257812"/>
      <use xlink:href="#DejaVuSans-74" x="425.537109"/>
      <use xlink:href="#DejaVuSans-75" x="464.746094"/>
      <use xlink:href="#DejaVuSans-72" x="528.125"/>
      <use xlink:href="#DejaVuSans-65" x="566.988281"/>
      <use xlink:href="#DejaVuSans-20" x="628.511719"/>
      <use xlink:href="#DejaVuSans-61" x="660.298828"/>
      <use xlink:href="#DejaVuSans-62" x="721.578125"/>
      <use xlink:href="#DejaVuSans-6f" x="785.054688"/>
      <use xlink:href="#DejaVuSans-76" x="846.236328"/>
      <use xlink:href="#DejaVuSans-65" x="905.416016"/>
     </g>
     <!-- pre-industrial in 2100 -->
     <g transform="translate(602.303942 138.586938)scale(0.22 -0.22)">
      <defs>
       <path id="DejaVuSans-2d" d="M 313 2009 
L 1997 2009 
L 1997 1497 
L 313 1497 
L 313 2009 
z
" transform="scale(0.015625)"/>
       <path id="DejaVuSans-69" d="M 603 3500 
L 1178 3500 
L 1178 0 
L 603 0 
L 603 3500 
z
M 603 4863 
L 1178 4863 
L 1178 4134 
L 603 4134 
L 603 4863 
z
" transform="scale(0.015625)"/>
       <path id="DejaVuSans-64" d="M 2906 2969 
L 2906 4863 
L 3481 4863 
L 3481 0 
L 2906 0 
L 2906 525 
Q 2725 213 2448 61 
Q 2172 -91 1784 -91 
Q 1150 -91 751 415 
Q 353 922 353 1747 
Q 353 2572 751 3078 
Q 1150 3584 1784 3584 
Q 2172 3584 2448 3432 
Q 2725 3281 2906 2969 
z
M 947 1747 
Q 947 1113 1208 752 
Q 1469 391 1925 391 
Q 2381 391 2643 752 
Q 2906 1113 2906 1747 
Q 2906 2381 2643 2742 
Q 2381 3103 1925 3103 
Q 1469 3103 1208 2742 
Q 947 2381 947 1747 
z
" transform="scale(0.015625)"/>
       <path id="DejaVuSans-73" d="M 2834 3397 
L 2834 2853 
Q 2591 2978 2328 3040 
Q 2066 3103 1784 3103 
Q 1356 3103 1142 2972 
Q 928 2841 928 2578 
Q 928 2378 1081 2264 
Q 1234 2150 1697 2047 
L 1894 2003 
Q 2506 1872 2764 1633 
Q 3022 1394 3022 966 
Q 3022 478 2636 193 
Q 2250 -91 1575 -91 
Q 1294 -91 989 -36 
Q 684 19 347 128 
L 347 722 
Q 666 556 975 473 
Q 1284 391 1588 391 
Q 1994 391 2212 530 
Q 2431 669 2431 922 
Q 2431 1156 2273 1281 
Q 2116 1406 1581 1522 
L 1381 1569 
Q 847 1681 609 1914 
Q 372 2147 372 2553 
Q 372 3047 722 3315 
Q 1072 3584 1716 3584 
Q 2034 3584 2315 3537 
Q 2597 3491 2834 3397 
z
" transform="scale(0.015625)"/>
      </defs>
      <use xlink:href="#DejaVuSans-70"/>
      <use xlink:href="#DejaVuSans-72" x="63.476562"/>
      <use xlink:href="#DejaVuSans-65" x="102.339844"/>
      <use xlink:href="#DejaVuSans-2d" x="163.863281"/>
      <use xlink:href="#DejaVuSans-69" x="199.947266"/>
      <use xlink:href="#DejaVuSans-6e" x="227.730469"/>
      <use xlink:href="#DejaVuSans-64" x="291.109375"/>
      <use xlink:href="#DejaVuSans-75" x="354.585938"/>
      <use xlink:href="#DejaVuSans-73" x="417.964844"/>
      <use xlink:href="#DejaVuSans-74" x="470.064453"/>
      <use xlink:href="#DejaVuSans-72" x="509.273438"/>
      <use xlink:href="#DejaVuSans-69" x="550.386719"/>
      <use xlink:href="#DejaVuSans-61" x="578.169922"/>
      <use xlink:href="#DejaVuSans-6c" x="639.449219"/>
      <use xlink:href="#DejaVuSans-20" x="667.232422"/>
      <use xlink:href="#DejaVuSans-69" x="699.019531"/>
      <use xlink:href="#DejaVuSans-6e" x="726.802734"/>
      <use xlink:href="#DejaVuSans-20" x="790.181641"/>
      <use xlink:href="#DejaVuSans-32" x="821.96875"/>
      <use xlink:href="#DejaVuSans-31" x="885.591797"/>
      <use xlink:href="#DejaVuSans-30" x="949.214844"/>
      <use xlink:href="#DejaVuSans-30" x="1012.837891"/>
     </g>
    </g>
    <g id="line2d_18">
     <path d="M 616.971755 155.478813 
L 638.971755 155.478813 
L 660.971755 155.478813 
" style="fill: none; stroke: #74b8f8; stroke-opacity: 0.5; stroke-width: 6; stroke-linecap: square"/>
    </g>
    <g id="text_16">
     <!-- 1.5C (n=2) -->
     <g transform="translate(678.571755 163.178813)scale(0.22 -0.22)">
      <defs>
       <path id="DejaVuSans-2e" d="M 684 794 
L 1344 794 
L 1344 0 
L 684 0 
L 684 794 
z
" transform="scale(0.015625)"/>
       <path id="DejaVuSans-35" d="M 691 4666 
L 3169 4666 
L 3169 4134 
L 1269 4134 
L 1269 2991 
Q 1406 3038 1543 3061 
Q 1681 3084 1819 3084 
Q 2600 3084 3056 2656 
Q 3513 2228 3513 1497 
Q 3513 744 3044 326 
Q 2575 -91 1722 -91 
Q 1428 -91 1123 -41 
Q 819 9 494 109 
L 494 744 
Q 775 591 1075 516 
Q 1375 441 1709 441 
Q 2250 441 2565 725 
Q 2881 1009 2881 1497 
Q 2881 1984 2565 2268 
Q 2250 2553 1709 2553 
Q 1456 2553 1204 2497 
Q 953 2441 691 2322 
L 691 4666 
z
" transform="scale(0.015625)"/>
       <path id="DejaVuSans-b0" d="M 1600 4347 
Q 1350 4347 1178 4173 
Q 1006 4000 1006 3750 
Q 1006 3503 1178 3333 
Q 1350 3163 1600 3163 
Q 1850 3163 2022 3333 
Q 2194 3503 2194 3750 
Q 2194 3997 2020 4172 
Q 1847 4347 1600 4347 
z
M 1600 4750 
Q 1800 4750 1984 4673 
Q 2169 4597 2303 4453 
Q 2447 4313 2519 4134 
Q 2591 3956 2591 3750 
Q 2591 3338 2302 3052 
Q 2013 2766 1594 2766 
Q 1172 2766 890 3047 
Q 609 3328 609 3750 
Q 609 4169 896 4459 
Q 1184 4750 1600 4750 
z
" transform="scale(0.015625)"/>
       <path id="DejaVuSans-43" d="M 4122 4306 
L 4122 3641 
Q 3803 3938 3442 4084 
Q 3081 4231 2675 4231 
Q 1875 4231 1450 3742 
Q 1025 3253 1025 2328 
Q 1025 1406 1450 917 
Q 1875 428 2675 428 
Q 3081 428 3442 575 
Q 3803 722 4122 1019 
L 4122 359 
Q 3791 134 3420 21 
Q 3050 -91 2638 -91 
Q 1578 -91 968 557 
Q 359 1206 359 2328 
Q 359 3453 968 4101 
Q 1578 4750 2638 4750 
Q 3056 4750 3426 4639 
Q 3797 4528 4122 4306 
z
" transform="scale(0.015625)"/>
       <path id="DejaVuSans-28" d="M 1984 4856 
Q 1566 4138 1362 3434 
Q 1159 2731 1159 2009 
Q 1159 1288 1364 580 
Q 1569 -128 1984 -844 
L 1484 -844 
Q 1016 -109 783 600 
Q 550 1309 550 2009 
Q 550 2706 781 3412 
Q 1013 4119 1484 4856 
L 1984 4856 
z
" transform="scale(0.015625)"/>
       <path id="DejaVuSans-3d" d="M 678 2906 
L 4684 2906 
L 4684 2381 
L 678 2381 
L 678 2906 
z
M 678 1631 
L 4684 1631 
L 4684 1100 
L 678 1100 
L 678 1631 
z
" transform="scale(0.015625)"/>
       <path id="DejaVuSans-29" d="M 513 4856 
L 1013 4856 
Q 1481 4119 1714 3412 
Q 1947 2706 1947 2009 
Q 1947 1309 1714 600 
Q 1481 -109 1013 -844 
L 513 -844 
Q 928 -128 1133 580 
Q 1338 1288 1338 2009 
Q 1338 2731 1133 3434 
Q 928 4138 513 4856 
z
" transform="scale(0.015625)"/>
      </defs>
      <use xlink:href="#DejaVuSans-31"/>
      <use xlink:href="#DejaVuSans-2e" x="63.623047"/>
      <use xlink:href="#DejaVuSans-35" x="95.410156"/>
      <use xlink:href="#DejaVuSans-b0" x="159.033203"/>
      <use xlink:href="#DejaVuSans-43" x="209.033203"/>
      <use xlink:href="#DejaVuSans-20" x="278.857422"/>
      <use xlink:href="#DejaVuSans-28" x="310.644531"/>
      <use xlink:href="#DejaVuSans-6e" x="349.658203"/>
      <use xlink:href="#DejaVuSans-3d" x="413.037109"/>
      <use xlink:href="#DejaVuSans-32" x="496.826172"/>
      <use xlink:href="#DejaVuSans-29" x="560.449219"/>
     </g>
    </g>
    <g id="line2d_19">
     <path d="M 616.971755 180.070688 
L 638.971755 180.070688 
L 660.971755 180.070688 
" style="fill: none; stroke: #f47100; stroke-opacity: 0.5; stroke-width: 6; stroke-linecap: square"/>
    </g>
    <g id="text_17">
     <!-- 2.2C (n=14) -->
     <g transform="translate(678.571755 187.770688)scale(0.22 -0.22)">
      <use xlink:href="#DejaVuSans-32"/>
      <use xlink:href="#DejaVuSans-2e" x="63.623047"/>
      <use xlink:href="#DejaVuSans-32" x="95.410156"/>
      <use xlink:href="#DejaVuSans-b0" x="159.033203"/>
      <use xlink:href="#DejaVuSans-43" x="209.033203"/>
      <use xlink:href="#DejaVuSans-20" x="278.857422"/>
      <use xlink:href="#DejaVuSans-28" x="310.644531"/>
      <use xlink:href="#DejaVuSans-6e" x="349.658203"/>
      <use xlink:href="#DejaVuSans-3d" x="413.037109"/>
      <use xlink:href="#DejaVuSans-31" x="496.826172"/>
      <use xlink:href="#DejaVuSans-34" x="560.449219"/>
      <use xlink:href="#DejaVuSans-29" x="624.072266"/>
     </g>
    </g>
    <g id="line2d_20">
     <path d="M 616.971755 204.662563 
L 638.971755 204.662563 
L 660.971755 204.662563 
" style="fill: none; stroke: #d01e04; stroke-opacity: 0.5; stroke-width: 6; stroke-linecap: square"/>
    </g>
    <g id="text_18">
     <!-- 2.8C (n=12) -->
     <g transform="translate(678.571755 212.362563)scale(0.22 -0.22)">
      <use xlink:href="#DejaVuSans-32"/>
      <use xlink:href="#DejaVuSans-2e" x="63.623047"/>
      <use xlink:href="#DejaVuSans-38" x="95.410156"/>
      <use xlink:href="#DejaVuSans-b0" x="159.033203"/>
      <use xlink:href="#DejaVuSans-43" x="209.033203"/>
      <use xlink:href="#DejaVuSans-20" x="278.857422"/>
      <use xlink:href="#DejaVuSans-28" x="310.644531"/>
      <use xlink:href="#DejaVuSans-6e" x="349.658203"/>
      <use xlink:href="#DejaVuSans-3d" x="413.037109"/>
      <use xlink:href="#DejaVuSans-31" x="496.826172"/>
      <use xlink:href="#DejaVuSans-32" x="560.449219"/>
      <use xlink:href="#DejaVuSans-29" x="624.072266"/>
     </g>
    </g>
   </g>
  </g>
 </g>
 <defs>
  <clipPath id="pf4b7005f9a">
   <rect x="109.64" y="52.8" width="749.280192" height="462.76"/>
  </clipPath>
 </defs>
</svg>
