<?xml version="1.0" encoding="utf-8" standalone="no"?>
<!DOCTYPE svg PUBLIC "-//W3C//DTD SVG 1.1//EN"
  "http://www.w3.org/Graphics/SVG/1.1/DTD/svg11.dtd">
<svg xmlns:xlink="http://www.w3.org/1999/xlink" width="900pt" height="600pt" viewBox="0 0 900 600" xmlns="http://www.w3.org/2000/svg" version="1.1">
 <metadata>
  <rdf:RDF xmlns:dc="http://purl.org/dc/elements/1.1/" xmlns:cc="http://creativecommons.org/ns#" xmlns:rdf="http://www.w3.org/1999/02/22-rdf-syntax-ns#">
   <cc:Work>
    <dc:type rdf:resource="http://purl.org/dc/dcmitype/StillImage"/>
    <dc:date>2024-10-31T18:28:30.760491</dc:date>
    <dc:format>image/svg+xml</dc:format>
    <dc:creator>
     <cc:Agent>
      <dc:title>Matplotlib v3.5.3, https://matplotlib.org/</dc:title>
     </cc:Agent>
    </dc:creator>
   </cc:Work>
  </rdf:RDF>
 </metadata>
 <defs>
  <style type="text/css">*{stroke-linejoin: round; stroke-linecap: butt}</style>
 </defs>
 <g id="figure_1">
  <g id="patch_1">
   <path d="M 0 600 
L 900 600 
L 900 0 
L 0 0 
z
" style="fill: #ffffff"/>
  </g>
  <g id="axes_1">
   <g id="patch_2">
    <path d="M 109.64 515.56 
L 858.920192 515.56 
L 858.920192 52.8 
L 109.64 52.8 
z
" style="fill: #ffffff"/>
   </g>
   <g id="PolyCollection_1">
    <defs>
     <path id="m101ee008d9" d="M 167.276938 -449.13019 
L 167.276938 -448.708867 
L 169.678477 -442.912301 
L 172.080016 -436.848251 
L 174.481555 -430.828442 
L 176.883094 -425.223738 
L 179.284633 -419.651704 
L 181.686172 -414.363187 
L 184.087711 -408.662395 
L 186.48925 -402.818178 
L 188.89079 -396.585727 
L 191.292329 -390.248755 
L 193.693868 -384.122396 
L 196.095407 -378.427657 
L 198.496946 -372.712571 
L 200.898485 -367.091171 
L 203.300024 -361.063369 
L 205.701563 -355.159593 
L 208.103102 -349.506202 
L 210.504641 -343.886415 
L 212.90618 -338.51457 
L 215.307719 -333.186622 
L 217.709259 -327.832857 
L 220.110798 -322.543322 
L 222.512337 -317.405198 
L 224.913876 -312.170927 
L 227.315415 -307.113661 
L 229.716954 -302.170994 
L 232.118493 -297.492944 
L 234.520032 -292.883797 
L 236.921571 -288.925935 
L 239.32311 -284.878063 
L 241.724649 -280.92918 
L 244.126188 -276.782124 
L 246.527727 -272.59985 
L 248.929267 -268.689529 
L 251.330806 -265.013606 
L 253.732345 -261.323881 
L 256.133884 -257.986038 
L 258.535423 -254.743437 
L 260.936962 -251.560652 
L 263.338501 -248.397702 
L 265.74004 -245.445106 
L 268.141579 -242.645554 
L 270.543118 -239.729062 
L 272.944657 -236.852847 
L 275.346196 -234.004383 
L 277.747735 -231.375116 
L 280.149275 -228.798604 
L 282.550814 -226.307295 
L 284.952353 -223.778609 
L 287.353892 -221.38188 
L 289.755431 -218.96164 
L 292.15697 -216.786813 
L 294.558509 -214.885429 
L 296.960048 -213.067754 
L 299.361587 -211.306746 
L 301.763126 -209.713016 
L 304.164665 -208.022058 
L 306.566204 -206.523441 
L 308.967743 -204.960221 
L 311.369283 -203.504091 
L 313.770822 -202.141099 
L 316.172361 -200.719276 
L 318.5739 -199.41007 
L 320.975439 -198.243233 
L 323.376978 -197.087136 
L 325.778517 -195.818936 
L 328.180056 -194.607902 
L 330.581595 -193.29204 
L 332.983134 -191.942791 
L 335.384673 -190.73612 
L 337.786212 -189.636999 
L 340.187751 -188.68076 
L 342.589291 -187.733358 
L 344.99083 -186.87814 
L 347.392369 -185.986223 
L 349.793908 -185.170165 
L 352.195447 -184.480854 
L 354.596986 -183.907621 
L 356.998525 -183.468822 
L 359.400064 -183.023209 
L 361.801603 -182.456607 
L 364.203142 -181.978357 
L 366.604681 -181.543794 
L 369.00622 -181.100854 
L 371.407759 -180.631842 
L 373.809299 -180.190289 
L 376.210838 -179.737613 
L 378.612377 -179.463452 
L 381.013916 -179.259873 
L 383.415455 -179.170842 
L 385.816994 -179.093239 
L 388.218533 -179.013801 
L 390.620072 -178.887341 
L 393.021611 -178.695527 
L 395.42315 -178.601916 
L 397.824689 -178.419622 
L 400.226228 -178.324098 
L 402.627768 -178.185067 
L 405.029307 -178.04999 
L 407.430846 -177.886544 
L 409.832385 -177.851434 
L 412.233924 -177.742756 
L 414.635463 -177.695723 
L 417.037002 -177.525009 
L 419.438541 -177.403037 
L 421.84008 -177.385442 
L 424.241619 -177.30615 
L 426.643158 -177.196788 
L 429.044697 -176.846166 
L 431.446236 -176.383606 
L 433.847776 -176.011667 
L 436.249315 -175.603035 
L 438.650854 -175.247277 
L 441.052393 -174.90205 
L 443.453932 -174.632745 
L 445.855471 -174.371581 
L 448.25701 -174.003549 
L 450.658549 -173.88589 
L 453.060088 -173.756828 
L 455.461627 -173.572231 
L 457.863166 -173.330574 
L 460.264705 -173.224928 
L 462.666244 -173.150155 
L 465.067784 -173.2203 
L 467.469323 -173.373927 
L 469.870862 -173.511261 
L 472.272401 -173.750087 
L 474.67394 -174.169765 
L 477.075479 -174.777294 
L 479.477018 -175.382265 
L 481.878557 -175.991542 
L 484.280096 -176.56198 
L 486.681635 -177.182829 
L 489.083174 -177.887427 
L 491.484713 -178.410446 
L 493.886252 -178.936603 
L 496.287792 -179.531143 
L 498.689331 -179.953071 
L 501.09087 -180.282965 
L 503.492409 -180.819233 
L 505.893948 -181.325231 
L 508.295487 -181.808457 
L 510.697026 -182.224146 
L 513.098565 -182.543107 
L 515.500104 -182.791814 
L 517.901643 -182.965663 
L 520.303182 -183.208911 
L 522.704721 -183.22099 
L 525.10626 -183.235691 
L 527.5078 -183.249728 
L 529.909339 -183.269547 
L 532.310878 -183.244089 
L 534.712417 -183.1276 
L 537.113956 -183.034618 
L 539.515495 -183.018568 
L 541.917034 -183.036212 
L 544.318573 -183.033482 
L 546.720112 -183.140676 
L 549.121651 -183.289108 
L 551.52319 -183.277283 
L 553.924729 -183.307811 
L 556.326268 -183.203608 
L 558.727808 -183.223652 
L 561.129347 -183.3695 
L 563.530886 -183.513735 
L 565.932425 -183.816752 
L 568.333964 -184.326979 
L 570.735503 -184.804189 
L 573.137042 -185.370425 
L 575.538581 -185.910559 
L 577.94012 -186.405922 
L 580.341659 -186.900673 
L 582.743198 -187.499261 
L 585.144737 -188.152895 
L 587.546277 -188.932538 
L 589.947816 -189.780547 
L 592.349355 -190.520771 
L 594.750894 -191.249216 
L 597.152433 -192.115163 
L 599.553972 -193.084226 
L 601.955511 -194.023849 
L 604.35705 -195.171945 
L 606.758589 -196.355194 
L 609.160128 -197.47017 
L 611.561667 -198.457024 
L 613.963206 -199.417781 
L 616.364745 -200.070863 
L 618.766285 -200.704905 
L 621.167824 -201.05148 
L 623.569363 -201.515957 
L 625.970902 -201.927986 
L 628.372441 -202.380376 
L 630.77398 -202.687944 
L 633.175519 -202.857052 
L 635.577058 -202.902505 
L 637.978597 -202.872615 
L 640.380136 -202.966886 
L 642.781675 -202.990867 
L 645.183214 -202.932627 
L 647.584753 -202.771803 
L 649.986293 -202.540718 
L 652.387832 -202.090513 
L 654.789371 -201.514285 
L 657.19091 -200.91282 
L 659.592449 -200.509802 
L 661.993988 -200.112537 
L 664.395527 -199.888728 
L 666.797066 -199.753078 
L 669.198605 -199.773149 
L 671.600144 -199.825558 
L 674.001683 -200.065618 
L 676.403222 -200.346064 
L 678.804761 -200.742167 
L 681.206301 -201.288499 
L 683.60784 -201.852235 
L 686.009379 -202.590309 
L 688.410918 -203.236052 
L 690.812457 -203.866555 
L 693.213996 -204.483405 
L 695.615535 -205.159816 
L 698.017074 -205.834794 
L 700.418613 -206.721789 
L 702.820152 -207.625827 
L 705.221691 -208.600962 
L 707.62323 -209.59326 
L 710.024769 -210.572537 
L 712.426309 -211.382459 
L 714.827848 -212.233085 
L 717.229387 -213.122964 
L 719.630926 -213.830774 
L 722.032465 -214.332912 
L 724.434004 -214.946296 
L 726.835543 -215.772909 
L 729.237082 -216.45565 
L 731.638621 -217.273235 
L 734.04016 -217.990058 
L 736.441699 -218.771214 
L 738.843238 -219.556272 
L 741.244777 -220.532104 
L 743.646317 -221.498367 
L 746.047856 -222.522332 
L 748.449395 -223.332682 
L 750.850934 -224.142426 
L 753.252473 -224.944655 
L 755.654012 -225.608506 
L 758.055551 -226.165965 
L 760.45709 -226.798137 
L 762.858629 -227.446109 
L 765.260168 -228.111744 
L 767.661707 -228.743878 
L 770.063246 -229.309807 
L 772.464786 -229.601843 
L 774.866325 -229.445353 
L 777.267864 -229.331181 
L 779.669403 -229.233183 
L 782.070942 -229.116177 
L 784.472481 -229.081321 
L 786.87402 -228.969661 
L 789.275559 -228.610411 
L 791.677098 -228.328313 
L 794.078637 -228.122694 
L 796.480176 -227.98354 
L 798.881715 -227.895423 
L 801.283254 -227.740649 
L 803.684794 -227.590981 
L 806.086333 -227.509993 
L 808.487872 -227.459115 
L 810.889411 -227.171384 
L 813.29095 -226.883168 
L 815.692489 -226.696046 
L 818.094028 -226.621189 
L 820.495567 -226.664936 
L 822.897106 -226.925614 
L 825.298645 -227.184496 
L 827.700184 -227.3123 
L 830.101723 -227.441923 
L 832.503262 -227.446565 
L 834.904802 -227.541843 
L 837.306341 -227.771566 
L 837.306341 -239.700383 
L 837.306341 -239.700383 
L 834.904802 -239.518374 
L 832.503262 -239.443402 
L 830.101723 -239.457241 
L 827.700184 -239.354416 
L 825.298645 -239.243043 
L 822.897106 -239.026383 
L 820.495567 -238.817498 
L 818.094028 -238.81243 
L 815.692489 -238.905203 
L 813.29095 -239.0902 
L 810.889411 -239.387376 
L 808.487872 -239.693716 
L 806.086333 -239.806582 
L 803.684794 -239.917362 
L 801.283254 -240.084241 
L 798.881715 -240.257672 
L 796.480176 -240.384818 
L 794.078637 -240.521805 
L 791.677098 -240.717194 
L 789.275559 -240.976201 
L 786.87402 -241.289497 
L 784.472481 -241.369091 
L 782.070942 -241.375017 
L 779.669403 -241.460316 
L 777.267864 -241.524266 
L 774.866325 -241.587852 
L 772.464786 -241.679399 
L 770.063246 -241.340799 
L 767.661707 -240.748215 
L 765.260168 -240.075569 
L 762.858629 -239.367727 
L 760.45709 -238.684743 
L 758.055551 -238.020645 
L 755.654012 -237.437941 
L 753.252473 -236.751133 
L 750.850934 -235.930603 
L 748.449395 -235.08098 
L 746.047856 -234.246519 
L 743.646317 -233.207025 
L 741.244777 -232.224066 
L 738.843238 -231.233868 
L 736.441699 -230.420151 
L 734.04016 -229.594857 
L 731.638621 -228.804559 
L 729.237082 -227.923854 
L 726.835543 -227.133147 
L 724.434004 -226.196747 
L 722.032465 -225.468885 
L 719.630926 -224.86469 
L 717.229387 -224.071929 
L 714.827848 -223.106302 
L 712.426309 -222.164581 
L 710.024769 -221.241788 
L 707.62323 -220.160808 
L 705.221691 -219.069784 
L 702.820152 -218.000835 
L 700.418613 -216.987709 
L 698.017074 -215.999763 
L 695.615535 -215.209861 
L 693.213996 -214.406403 
L 690.812457 -213.665998 
L 688.410918 -212.929799 
L 686.009379 -212.205789 
L 683.60784 -211.402476 
L 681.206301 -210.747365 
L 678.804761 -210.147804 
L 676.403222 -209.677539 
L 674.001683 -209.306038 
L 671.600144 -208.974353 
L 669.198605 -208.802575 
L 666.797066 -208.654921 
L 664.395527 -208.653973 
L 661.993988 -208.741497 
L 659.592449 -208.983425 
L 657.19091 -209.253342 
L 654.789371 -209.703494 
L 652.387832 -210.135541 
L 649.986293 -210.450196 
L 647.584753 -210.581554 
L 645.183214 -210.648461 
L 642.781675 -210.626737 
L 640.380136 -210.529464 
L 637.978597 -210.364621 
L 635.577058 -210.316958 
L 633.175519 -210.221359 
L 630.77398 -210.00098 
L 628.372441 -209.676453 
L 625.970902 -209.209077 
L 623.569363 -208.758958 
L 621.167824 -208.281497 
L 618.766285 -207.91454 
L 616.364745 -207.290214 
L 613.963206 -206.660464 
L 611.561667 -205.756068 
L 609.160128 -204.803243 
L 606.758589 -203.717633 
L 604.35705 -202.590267 
L 601.955511 -201.488731 
L 599.553972 -200.55131 
L 597.152433 -199.593157 
L 594.750894 -198.723772 
L 592.349355 -197.952567 
L 589.947816 -197.164036 
L 587.546277 -196.287257 
L 585.144737 -195.473376 
L 582.743198 -194.777663 
L 580.341659 -194.13456 
L 577.94012 -193.584302 
L 575.538581 -193.049889 
L 573.137042 -192.48123 
L 570.735503 -191.894435 
L 568.333964 -191.398738 
L 565.932425 -190.853286 
L 563.530886 -190.503764 
L 561.129347 -190.30777 
L 558.727808 -190.124834 
L 556.326268 -190.038765 
L 553.924729 -190.068372 
L 551.52319 -189.993075 
L 549.121651 -189.952369 
L 546.720112 -189.771444 
L 544.318573 -189.647471 
L 541.917034 -189.616591 
L 539.515495 -189.567159 
L 537.113956 -189.547653 
L 534.712417 -189.595288 
L 532.310878 -189.660252 
L 529.909339 -189.659595 
L 527.5078 -189.609627 
L 525.10626 -189.567427 
L 522.704721 -189.532513 
L 520.303182 -189.481305 
L 517.901643 -189.23269 
L 515.500104 -189.044163 
L 513.098565 -188.797061 
L 510.697026 -188.494511 
L 508.295487 -188.106351 
L 505.893948 -187.667778 
L 503.492409 -187.194926 
L 501.09087 -186.691939 
L 498.689331 -186.374869 
L 496.287792 -185.978853 
L 493.886252 -185.435436 
L 491.484713 -184.951174 
L 489.083174 -184.472702 
L 486.681635 -183.849944 
L 484.280096 -183.291453 
L 481.878557 -182.774902 
L 479.477018 -182.222239 
L 477.075479 -181.677515 
L 474.67394 -181.123389 
L 472.272401 -180.739885 
L 469.870862 -180.511306 
L 467.469323 -180.374328 
L 465.067784 -180.220639 
L 462.666244 -180.128578 
L 460.264705 -180.17711 
L 457.863166 -180.246582 
L 455.461627 -180.440766 
L 453.060088 -180.611974 
L 450.658549 -180.735124 
L 448.25701 -180.847712 
L 445.855471 -181.178313 
L 443.453932 -181.42238 
L 441.052393 -181.667085 
L 438.650854 -181.972691 
L 436.249315 -182.300088 
L 433.847776 -182.664278 
L 431.446236 -183.008889 
L 429.044697 -183.42689 
L 426.643158 -183.768251 
L 424.241619 -183.904942 
L 421.84008 -184.021225 
L 419.438541 -184.076339 
L 417.037002 -184.223516 
L 414.635463 -184.426157 
L 412.233924 -184.505635 
L 409.832385 -184.618132 
L 407.430846 -184.678092 
L 405.029307 -184.855284 
L 402.627768 -185.00612 
L 400.226228 -185.176096 
L 397.824689 -185.316258 
L 395.42315 -185.548563 
L 393.021611 -185.709466 
L 390.620072 -185.957867 
L 388.218533 -186.153211 
L 385.816994 -186.330839 
L 383.415455 -186.503651 
L 381.013916 -186.698412 
L 378.612377 -186.984397 
L 376.210838 -187.343523 
L 373.809299 -187.876547 
L 371.407759 -188.403345 
L 369.00622 -188.964484 
L 366.604681 -189.51368 
L 364.203142 -190.070065 
L 361.801603 -190.678387 
L 359.400064 -191.373023 
L 356.998525 -191.951511 
L 354.596986 -192.53274 
L 352.195447 -193.223253 
L 349.793908 -194.007951 
L 347.392369 -194.870513 
L 344.99083 -195.804208 
L 342.589291 -196.699831 
L 340.187751 -197.663007 
L 337.786212 -198.643483 
L 335.384673 -199.740485 
L 332.983134 -200.930271 
L 330.581595 -202.237036 
L 328.180056 -203.515074 
L 325.778517 -204.703603 
L 323.376978 -205.951315 
L 320.975439 -207.093599 
L 318.5739 -208.230191 
L 316.172361 -209.487865 
L 313.770822 -210.850722 
L 311.369283 -212.164391 
L 308.967743 -213.577414 
L 306.566204 -215.082572 
L 304.164665 -216.533104 
L 301.763126 -218.165538 
L 299.361587 -219.741101 
L 296.960048 -221.470616 
L 294.558509 -223.26573 
L 292.15697 -225.151009 
L 289.755431 -227.279489 
L 287.353892 -229.613144 
L 284.952353 -231.903378 
L 282.550814 -234.338495 
L 280.149275 -236.754342 
L 277.747735 -239.248718 
L 275.346196 -241.783309 
L 272.944657 -244.523033 
L 270.543118 -247.31089 
L 268.141579 -250.162242 
L 265.74004 -252.942407 
L 263.338501 -255.854059 
L 260.936962 -258.952138 
L 258.535423 -262.084873 
L 256.133884 -265.302581 
L 253.732345 -268.575317 
L 251.330806 -272.18009 
L 248.929267 -275.776611 
L 246.527727 -279.576587 
L 244.126188 -283.640411 
L 241.724649 -287.653404 
L 239.32311 -291.520788 
L 236.921571 -295.510539 
L 234.520032 -299.409358 
L 232.118493 -303.859354 
L 229.716954 -308.391434 
L 227.315415 -313.179909 
L 224.913876 -318.086281 
L 222.512337 -323.183138 
L 220.110798 -328.223516 
L 217.709259 -333.357604 
L 215.307719 -338.559383 
L 212.90618 -343.692126 
L 210.504641 -348.886476 
L 208.103102 -354.249674 
L 205.701563 -359.6597 
L 203.300024 -365.244147 
L 200.898485 -370.914685 
L 198.496946 -376.234949 
L 196.095407 -381.623594 
L 193.693868 -386.981439 
L 191.292329 -392.679291 
L 188.89079 -398.563481 
L 186.48925 -404.534579 
L 184.087711 -410.162528 
L 181.686172 -415.747998 
L 179.284633 -421.096302 
L 176.883094 -426.568599 
L 174.481555 -432.052219 
L 172.080016 -437.875606 
L 169.678477 -443.640356 
L 167.276938 -449.13019 
z
" style="stroke: #74b8f8; stroke-opacity: 0.2"/>
    </defs>
    <g clip-path="url(#pede17bfeac)">
     <use xlink:href="#m101ee008d9" x="0" y="600" style="fill: #74b8f8; fill-opacity: 0.2; stroke: #74b8f8; stroke-opacity: 0.2"/>
    </g>
   </g>
   <g id="PolyCollection_2">
    <defs>
     <path id="ma23cf65bcc" d="M 116.844617 -526.552352 
L 116.844617 -519.736275 
L 119.246156 -518.147528 
L 121.647695 -516.503875 
L 124.049234 -515.17348 
L 126.450774 -513.816205 
L 128.852313 -512.023757 
L 131.253852 -510.081865 
L 133.655391 -507.835713 
L 136.05693 -505.651695 
L 138.458469 -503.521739 
L 140.860008 -501.435958 
L 143.261547 -497.556104 
L 145.663086 -493.422744 
L 148.064625 -488.966905 
L 150.466164 -484.484707 
L 152.867703 -479.679792 
L 155.269242 -475.264922 
L 157.670782 -470.630995 
L 160.072321 -465.642572 
L 162.47386 -460.251469 
L 164.875399 -454.648 
L 164.875399 -454.648 
L 164.875399 -454.648 
L 162.47386 -460.606722 
L 160.072321 -466.261726 
L 157.670782 -471.633168 
L 155.269242 -476.495943 
L 152.867703 -481.117469 
L 150.466164 -486.342831 
L 148.064625 -491.213329 
L 145.663086 -495.970904 
L 143.261547 -500.481379 
L 140.860008 -504.745227 
L 138.458469 -506.993036 
L 136.05693 -509.281917 
L 133.655391 -511.792127 
L 131.253852 -514.587652 
L 128.852313 -516.937798 
L 126.450774 -519.200297 
L 124.049234 -521.06264 
L 121.647695 -522.752592 
L 119.246156 -524.797237 
L 116.844617 -526.552352 
z
" style="stroke: #000000; stroke-opacity: 0.2"/>
    </defs>
    <g clip-path="url(#pede17bfeac)">
     <use xlink:href="#ma23cf65bcc" x="0" y="600" style="fill-opacity: 0.2; stroke: #000000; stroke-opacity: 0.2"/>
    </g>
   </g>
   <g id="PolyCollection_3">
    <defs>
     <path id="m6fe2663d34" d="M 167.276938 -449.39392 
L 167.276938 -448.589174 
L 169.678477 -442.430127 
L 172.080016 -436.099154 
L 174.481555 -429.646177 
L 176.883094 -422.628981 
L 179.284633 -415.167691 
L 181.686172 -407.208818 
L 184.087711 -399.139913 
L 186.48925 -391.09576 
L 188.89079 -383.075924 
L 191.292329 -375.299934 
L 193.693868 -367.086096 
L 196.095407 -358.583242 
L 198.496946 -350.060231 
L 200.898485 -341.816695 
L 203.300024 -333.433537 
L 205.701563 -325.227917 
L 208.103102 -317.303875 
L 210.504641 -309.232803 
L 212.90618 -301.534915 
L 215.307719 -293.922736 
L 217.709259 -286.18771 
L 220.110798 -278.598226 
L 222.512337 -271.506868 
L 224.913876 -264.721224 
L 227.315415 -258.221337 
L 229.716954 -252.208682 
L 232.118493 -247.313035 
L 234.520032 -242.08457 
L 236.921571 -237.091028 
L 239.32311 -232.084628 
L 241.724649 -227.705966 
L 244.126188 -223.616835 
L 246.527727 -218.511756 
L 248.929267 -213.303668 
L 251.330806 -208.286925 
L 253.732345 -203.701666 
L 256.133884 -199.724845 
L 258.535423 -195.897499 
L 260.936962 -192.247894 
L 263.338501 -188.772384 
L 265.74004 -185.385197 
L 268.141579 -182.147511 
L 270.543118 -178.946517 
L 272.944657 -175.748855 
L 275.346196 -172.788334 
L 277.747735 -169.820861 
L 280.149275 -166.948705 
L 282.550814 -163.848619 
L 284.952353 -160.919464 
L 287.353892 -158.150026 
L 289.755431 -155.363923 
L 292.15697 -152.621714 
L 294.558509 -150.029475 
L 296.960048 -147.56362 
L 299.361587 -145.104068 
L 301.763126 -142.664314 
L 304.164665 -140.314884 
L 306.566204 -138.112645 
L 308.967743 -136.163446 
L 311.369283 -134.287299 
L 313.770822 -132.465186 
L 316.172361 -130.727431 
L 318.5739 -129.075851 
L 320.975439 -127.493702 
L 323.376978 -125.929208 
L 325.778517 -124.417507 
L 328.180056 -123.082549 
L 330.581595 -121.860079 
L 332.983134 -120.662339 
L 335.384673 -119.546211 
L 337.786212 -118.50714 
L 340.187751 -117.534324 
L 342.589291 -116.598187 
L 344.99083 -115.749943 
L 347.392369 -114.967579 
L 349.793908 -114.243329 
L 352.195447 -113.686974 
L 354.596986 -113.201024 
L 356.998525 -112.743034 
L 359.400064 -112.315885 
L 361.801603 -111.967083 
L 364.203142 -111.683829 
L 366.604681 -111.377996 
L 369.00622 -111.085498 
L 371.407759 -110.79415 
L 373.809299 -110.505283 
L 376.210838 -110.179127 
L 378.612377 -109.861853 
L 381.013916 -109.570072 
L 383.415455 -109.306698 
L 385.816994 -109.083043 
L 388.218533 -108.884711 
L 390.620072 -108.609651 
L 393.021611 -108.33024 
L 395.42315 -108.025372 
L 397.824689 -107.5982 
L 400.226228 -107.179812 
L 402.627768 -106.720863 
L 405.029307 -106.206112 
L 407.430846 -105.713236 
L 409.832385 -105.271977 
L 412.233924 -105.022084 
L 414.635463 -104.792768 
L 417.037002 -104.57276 
L 419.438541 -104.371524 
L 421.84008 -104.181823 
L 424.241619 -104.014287 
L 426.643158 -103.874341 
L 429.044697 -103.721058 
L 431.446236 -103.536726 
L 433.847776 -103.263135 
L 436.249315 -102.960482 
L 438.650854 -102.683159 
L 441.052393 -102.411667 
L 443.453932 -102.196951 
L 445.855471 -102.005353 
L 448.25701 -101.812305 
L 450.658549 -101.612334 
L 453.060088 -101.453363 
L 455.461627 -101.35597 
L 457.863166 -101.273223 
L 460.264705 -101.221434 
L 462.666244 -101.189515 
L 465.067784 -101.174569 
L 467.469323 -101.163277 
L 469.870862 -101.188047 
L 472.272401 -101.242795 
L 474.67394 -101.313424 
L 477.075479 -101.34168 
L 479.477018 -101.37294 
L 481.878557 -101.401617 
L 484.280096 -101.437618 
L 486.681635 -101.499867 
L 489.083174 -101.586512 
L 491.484713 -101.665242 
L 493.886252 -101.732039 
L 496.287792 -101.607361 
L 498.689331 -101.434541 
L 501.09087 -101.268706 
L 503.492409 -101.141179 
L 505.893948 -101.004773 
L 508.295487 -100.81803 
L 510.697026 -100.607409 
L 513.098565 -100.38096 
L 515.500104 -100.160015 
L 517.901643 -99.932753 
L 520.303182 -99.730474 
L 522.704721 -99.527127 
L 525.10626 -99.340574 
L 527.5078 -99.189375 
L 529.909339 -99.016632 
L 532.310878 -98.852894 
L 534.712417 -98.702248 
L 537.113956 -98.582849 
L 539.515495 -98.472119 
L 541.917034 -98.37405 
L 544.318573 -98.26574 
L 546.720112 -98.246863 
L 549.121651 -98.281476 
L 551.52319 -98.319539 
L 553.924729 -98.356352 
L 556.326268 -98.408136 
L 558.727808 -98.477754 
L 561.129347 -98.559647 
L 563.530886 -98.640304 
L 565.932425 -98.714015 
L 568.333964 -98.752655 
L 570.735503 -98.778246 
L 573.137042 -98.790931 
L 575.538581 -98.800482 
L 577.94012 -98.802568 
L 580.341659 -98.807368 
L 582.743198 -98.814302 
L 585.144737 -98.820761 
L 587.546277 -98.830277 
L 589.947816 -98.851588 
L 592.349355 -98.887539 
L 594.750894 -98.903393 
L 597.152433 -98.915302 
L 599.553972 -98.948828 
L 601.955511 -99.022135 
L 604.35705 -99.127169 
L 606.758589 -99.222888 
L 609.160128 -99.328246 
L 611.561667 -99.436066 
L 613.963206 -99.535012 
L 616.364745 -99.669775 
L 618.766285 -99.811062 
L 621.167824 -99.961071 
L 623.569363 -100.11004 
L 625.970902 -100.272385 
L 628.372441 -100.43093 
L 630.77398 -100.593841 
L 633.175519 -100.740215 
L 635.577058 -100.898949 
L 637.978597 -101.071857 
L 640.380136 -101.232478 
L 642.781675 -101.385273 
L 645.183214 -101.539819 
L 647.584753 -101.688033 
L 649.986293 -101.846968 
L 652.387832 -102.001913 
L 654.789371 -102.177034 
L 657.19091 -102.335351 
L 659.592449 -102.496076 
L 661.993988 -102.660369 
L 664.395527 -102.806847 
L 666.797066 -102.947326 
L 669.198605 -103.066397 
L 671.600144 -103.17589 
L 674.001683 -103.272907 
L 676.403222 -103.378835 
L 678.804761 -103.496332 
L 681.206301 -103.613654 
L 683.60784 -103.7209 
L 686.009379 -103.820266 
L 688.410918 -103.942699 
L 690.812457 -104.074979 
L 693.213996 -104.203372 
L 695.615535 -104.332483 
L 698.017074 -104.483791 
L 700.418613 -104.633052 
L 702.820152 -104.766842 
L 705.221691 -104.905507 
L 707.62323 -105.031508 
L 710.024769 -105.156967 
L 712.426309 -105.286371 
L 714.827848 -105.412526 
L 717.229387 -105.561128 
L 719.630926 -105.731058 
L 722.032465 -105.897366 
L 724.434004 -106.060385 
L 726.835543 -106.222797 
L 729.237082 -106.398677 
L 731.638621 -106.585263 
L 734.04016 -106.770916 
L 736.441699 -106.965633 
L 738.843238 -107.159365 
L 741.244777 -107.330343 
L 743.646317 -107.430002 
L 746.047856 -107.521498 
L 748.449395 -107.623161 
L 750.850934 -107.624539 
L 753.252473 -107.502615 
L 755.654012 -107.386836 
L 758.055551 -107.253166 
L 760.45709 -107.147178 
L 762.858629 -107.041751 
L 765.260168 -106.938457 
L 767.661707 -106.869942 
L 770.063246 -106.830062 
L 772.464786 -106.762175 
L 774.866325 -106.693898 
L 777.267864 -106.629717 
L 779.669403 -106.590565 
L 782.070942 -106.601904 
L 784.472481 -106.651134 
L 786.87402 -106.674409 
L 789.275559 -106.703176 
L 791.677098 -106.769199 
L 794.078637 -106.819418 
L 796.480176 -106.86373 
L 798.881715 -106.938771 
L 801.283254 -107.000743 
L 803.684794 -107.100244 
L 806.086333 -107.230322 
L 808.487872 -107.302311 
L 810.889411 -107.304131 
L 813.29095 -107.261678 
L 815.692489 -107.204672 
L 818.094028 -107.182105 
L 820.495567 -107.184305 
L 822.897106 -107.192733 
L 825.298645 -107.198817 
L 827.700184 -107.201423 
L 830.101723 -107.158019 
L 832.503262 -107.068598 
L 834.904802 -107.003673 
L 837.306341 -106.961202 
L 837.306341 -119.415103 
L 837.306341 -119.415103 
L 834.904802 -119.396742 
L 832.503262 -119.329503 
L 830.101723 -119.289879 
L 827.700184 -119.300429 
L 825.298645 -119.25514 
L 822.897106 -119.200231 
L 820.495567 -119.173088 
L 818.094028 -119.173843 
L 815.692489 -119.164188 
L 813.29095 -119.067307 
L 810.889411 -118.945001 
L 808.487872 -118.79932 
L 806.086333 -118.65707 
L 803.684794 -118.54288 
L 801.283254 -118.476317 
L 798.881715 -118.456417 
L 796.480176 -118.456325 
L 794.078637 -118.386671 
L 791.677098 -118.38755 
L 789.275559 -118.319425 
L 786.87402 -118.224274 
L 784.472481 -118.200424 
L 782.070942 -118.141823 
L 779.669403 -117.98887 
L 777.267864 -117.845375 
L 774.866325 -117.707645 
L 772.464786 -117.570956 
L 770.063246 -117.390348 
L 767.661707 -117.197744 
L 765.260168 -117.036503 
L 762.858629 -116.8491 
L 760.45709 -116.6504 
L 758.055551 -116.427799 
L 755.654012 -116.205645 
L 753.252473 -115.955125 
L 750.850934 -115.724953 
L 748.449395 -115.445178 
L 746.047856 -115.195858 
L 743.646317 -114.943629 
L 741.244777 -114.734514 
L 738.843238 -114.515005 
L 736.441699 -114.299095 
L 734.04016 -114.143014 
L 731.638621 -113.971188 
L 729.237082 -113.77232 
L 726.835543 -113.565603 
L 724.434004 -113.354211 
L 722.032465 -113.187185 
L 719.630926 -113.156147 
L 717.229387 -113.143928 
L 714.827848 -113.148817 
L 712.426309 -113.192717 
L 710.024769 -113.211871 
L 707.62323 -113.198113 
L 705.221691 -113.154863 
L 702.820152 -113.142221 
L 700.418613 -113.178129 
L 698.017074 -113.241949 
L 695.615535 -113.307835 
L 693.213996 -113.3846 
L 690.812457 -113.422881 
L 688.410918 -113.504553 
L 686.009379 -113.624625 
L 683.60784 -113.607855 
L 681.206301 -113.572306 
L 678.804761 -113.523831 
L 676.403222 -113.466335 
L 674.001683 -113.412449 
L 671.600144 -113.393886 
L 669.198605 -113.343088 
L 666.797066 -113.274811 
L 664.395527 -113.134488 
L 661.993988 -113.054362 
L 659.592449 -113.092583 
L 657.19091 -113.122191 
L 654.789371 -113.117722 
L 652.387832 -113.130355 
L 649.986293 -113.120611 
L 647.584753 -113.089004 
L 645.183214 -113.048672 
L 642.781675 -113.062925 
L 640.380136 -113.076808 
L 637.978597 -113.082213 
L 635.577058 -113.096567 
L 633.175519 -113.143711 
L 630.77398 -113.238322 
L 628.372441 -113.397956 
L 625.970902 -113.570284 
L 623.569363 -113.739412 
L 621.167824 -113.946303 
L 618.766285 -114.163187 
L 616.364745 -114.372059 
L 613.963206 -114.529751 
L 611.561667 -114.655235 
L 609.160128 -114.77518 
L 606.758589 -114.913918 
L 604.35705 -115.029113 
L 601.955511 -115.148967 
L 599.553972 -115.284884 
L 597.152433 -115.402887 
L 594.750894 -115.499357 
L 592.349355 -115.606038 
L 589.947816 -115.660688 
L 587.546277 -115.703766 
L 585.144737 -115.7669 
L 582.743198 -115.853498 
L 580.341659 -115.906609 
L 577.94012 -115.890595 
L 575.538581 -115.87801 
L 573.137042 -115.872564 
L 570.735503 -115.835678 
L 568.333964 -115.798041 
L 565.932425 -115.856589 
L 563.530886 -115.919274 
L 561.129347 -115.997575 
L 558.727808 -116.11039 
L 556.326268 -116.23447 
L 553.924729 -116.341476 
L 551.52319 -116.442048 
L 549.121651 -116.617181 
L 546.720112 -116.811278 
L 544.318573 -117.003795 
L 541.917034 -117.286832 
L 539.515495 -117.57929 
L 537.113956 -117.840426 
L 534.712417 -118.10861 
L 532.310878 -118.387811 
L 529.909339 -118.708168 
L 527.5078 -119.071788 
L 525.10626 -119.472288 
L 522.704721 -119.940186 
L 520.303182 -120.385275 
L 517.901643 -120.799422 
L 515.500104 -121.329449 
L 513.098565 -121.811655 
L 510.697026 -122.266097 
L 508.295487 -122.736123 
L 505.893948 -123.269884 
L 503.492409 -123.786025 
L 501.09087 -124.253286 
L 498.689331 -124.676378 
L 496.287792 -125.065183 
L 493.886252 -125.407689 
L 491.484713 -125.758552 
L 489.083174 -126.127457 
L 486.681635 -126.490754 
L 484.280096 -126.80105 
L 481.878557 -127.097563 
L 479.477018 -127.302361 
L 477.075479 -127.456438 
L 474.67394 -127.593609 
L 472.272401 -127.751137 
L 469.870862 -127.831895 
L 467.469323 -127.811937 
L 465.067784 -127.905927 
L 462.666244 -127.996631 
L 460.264705 -128.181419 
L 457.863166 -128.365694 
L 455.461627 -128.538845 
L 453.060088 -128.684781 
L 450.658549 -128.918091 
L 448.25701 -129.194239 
L 445.855471 -129.479049 
L 443.453932 -129.726759 
L 441.052393 -129.919546 
L 438.650854 -130.104168 
L 436.249315 -130.265039 
L 433.847776 -130.445141 
L 431.446236 -130.687869 
L 429.044697 -130.908628 
L 426.643158 -131.137009 
L 424.241619 -131.460866 
L 421.84008 -131.917322 
L 419.438541 -132.41747 
L 417.037002 -132.847432 
L 414.635463 -133.350846 
L 412.233924 -133.803573 
L 409.832385 -134.346935 
L 407.430846 -134.377122 
L 405.029307 -134.368995 
L 402.627768 -134.366359 
L 400.226228 -134.361142 
L 397.824689 -134.380229 
L 395.42315 -134.440007 
L 393.021611 -134.55669 
L 390.620072 -134.666326 
L 388.218533 -134.794664 
L 385.816994 -134.910519 
L 383.415455 -135.055482 
L 381.013916 -135.216036 
L 378.612377 -135.519119 
L 376.210838 -135.872373 
L 373.809299 -136.31411 
L 371.407759 -136.74617 
L 369.00622 -137.210189 
L 366.604681 -137.757948 
L 364.203142 -138.366614 
L 361.801603 -138.979246 
L 359.400064 -139.653129 
L 356.998525 -140.406885 
L 354.596986 -141.24763 
L 352.195447 -142.143529 
L 349.793908 -143.129494 
L 347.392369 -144.150657 
L 344.99083 -145.206955 
L 342.589291 -146.310502 
L 340.187751 -147.42195 
L 337.786212 -148.567238 
L 335.384673 -149.727063 
L 332.983134 -150.782215 
L 330.581595 -151.983093 
L 328.180056 -153.226952 
L 325.778517 -154.545828 
L 323.376978 -155.875203 
L 320.975439 -157.23063 
L 318.5739 -158.539781 
L 316.172361 -159.810038 
L 313.770822 -161.093135 
L 311.369283 -162.399239 
L 308.967743 -163.816717 
L 306.566204 -165.260553 
L 304.164665 -166.739157 
L 301.763126 -168.249307 
L 299.361587 -169.841665 
L 296.960048 -171.455769 
L 294.558509 -173.180424 
L 292.15697 -174.94194 
L 289.755431 -176.630143 
L 287.353892 -178.379962 
L 284.952353 -180.445603 
L 282.550814 -182.735309 
L 280.149275 -185.340864 
L 277.747735 -188.286225 
L 275.346196 -191.336022 
L 272.944657 -194.387828 
L 270.543118 -197.647436 
L 268.141579 -200.910456 
L 265.74004 -204.220687 
L 263.338501 -207.681392 
L 260.936962 -211.26192 
L 258.535423 -214.960719 
L 256.133884 -218.803114 
L 253.732345 -222.823304 
L 251.330806 -226.524023 
L 248.929267 -230.012465 
L 246.527727 -234.116357 
L 244.126188 -239.43823 
L 241.724649 -244.522922 
L 239.32311 -249.518211 
L 236.921571 -254.750459 
L 234.520032 -260.033246 
L 232.118493 -265.42427 
L 229.716954 -270.962532 
L 227.315415 -276.816626 
L 224.913876 -283.238665 
L 222.512337 -289.967498 
L 220.110798 -296.913616 
L 217.709259 -304.124225 
L 215.307719 -311.416132 
L 212.90618 -318.788333 
L 210.504641 -326.041592 
L 208.103102 -333.425795 
L 205.701563 -340.906743 
L 203.300024 -348.427382 
L 200.898485 -355.949882 
L 198.496946 -363.327913 
L 196.095407 -370.933104 
L 193.693868 -378.271457 
L 191.292329 -385.50402 
L 188.89079 -392.44329 
L 186.48925 -399.482824 
L 184.087711 -406.404397 
L 181.686172 -413.001757 
L 179.284633 -419.442448 
L 176.883094 -425.852647 
L 174.481555 -432.12503 
L 172.080016 -438.074777 
L 169.678477 -443.933119 
L 167.276938 -449.39392 
z
" style="stroke: #f47100; stroke-opacity: 0.2"/>
    </defs>
    <g clip-path="url(#pede17bfeac)">
     <use xlink:href="#m6fe2663d34" x="0" y="600" style="fill: #f47100; fill-opacity: 0.2; stroke: #f47100; stroke-opacity: 0.2"/>
    </g>
   </g>
   <g id="PolyCollection_4">
    <defs>
     <path id="m2b0bb328ac" d="M 116.844617 -522.826233 
L 116.844617 -513.705228 
L 119.246156 -512.402827 
L 121.647695 -511.092757 
L 124.049234 -509.949017 
L 126.450774 -508.767131 
L 128.852313 -507.24301 
L 131.253852 -505.573307 
L 133.655391 -503.612579 
L 136.05693 -501.778546 
L 138.458469 -499.790035 
L 140.860008 -497.71322 
L 143.261547 -493.902452 
L 145.663086 -490.009649 
L 148.064625 -485.946416 
L 150.466164 -482.084351 
L 152.867703 -477.977883 
L 155.269242 -473.784783 
L 157.670782 -469.404184 
L 160.072321 -464.756498 
L 162.47386 -459.905423 
L 164.875399 -454.648 
L 164.875399 -454.648 
L 164.875399 -454.648 
L 162.47386 -460.594236 
L 160.072321 -465.763355 
L 157.670782 -470.939015 
L 155.269242 -475.936406 
L 152.867703 -480.904349 
L 150.466164 -485.648566 
L 148.064625 -490.122191 
L 145.663086 -494.982128 
L 143.261547 -499.245354 
L 140.860008 -502.783681 
L 138.458469 -505.133691 
L 136.05693 -507.498307 
L 133.655391 -509.959052 
L 131.253852 -512.534141 
L 128.852313 -514.627664 
L 126.450774 -516.404536 
L 124.049234 -517.997808 
L 121.647695 -519.693808 
L 119.246156 -521.307013 
L 116.844617 -522.826233 
z
" style="stroke: #000000; stroke-opacity: 0.2"/>
    </defs>
    <g clip-path="url(#pede17bfeac)">
     <use xlink:href="#m2b0bb328ac" x="0" y="600" style="fill-opacity: 0.2; stroke: #000000; stroke-opacity: 0.2"/>
    </g>
   </g>
   <g id="PolyCollection_5">
    <defs>
     <path id="mbe37bee9b4" d="M 167.276938 -450.293876 
L 167.276938 -447.911646 
L 169.678477 -440.6324 
L 172.080016 -432.978769 
L 174.481555 -425.014959 
L 176.883094 -417.198892 
L 179.284633 -409.473921 
L 181.686172 -401.690238 
L 184.087711 -393.691878 
L 186.48925 -385.506803 
L 188.89079 -377.05618 
L 191.292329 -368.947663 
L 193.693868 -360.745427 
L 196.095407 -352.849992 
L 198.496946 -345.169197 
L 200.898485 -337.545259 
L 203.300024 -329.972746 
L 205.701563 -322.527708 
L 208.103102 -315.173713 
L 210.504641 -307.88662 
L 212.90618 -300.644903 
L 215.307719 -293.716268 
L 217.709259 -287.098443 
L 220.110798 -280.679449 
L 222.512337 -274.486196 
L 224.913876 -268.36127 
L 227.315415 -262.348975 
L 229.716954 -256.494653 
L 232.118493 -250.648945 
L 234.520032 -245.004225 
L 236.921571 -239.558218 
L 239.32311 -234.235572 
L 241.724649 -229.102757 
L 244.126188 -224.191708 
L 246.527727 -219.377432 
L 248.929267 -214.629384 
L 251.330806 -208.85855 
L 253.732345 -203.107925 
L 256.133884 -197.641351 
L 258.535423 -192.375595 
L 260.936962 -187.252465 
L 263.338501 -182.331261 
L 265.74004 -177.554185 
L 268.141579 -173.296682 
L 270.543118 -169.108055 
L 272.944657 -165.036067 
L 275.346196 -161.271331 
L 277.747735 -157.701985 
L 280.149275 -154.122667 
L 282.550814 -150.63466 
L 284.952353 -147.344162 
L 287.353892 -144.448815 
L 289.755431 -141.816827 
L 292.15697 -139.273089 
L 294.558509 -136.767594 
L 296.960048 -134.381624 
L 299.361587 -131.740135 
L 301.763126 -129.150782 
L 304.164665 -126.99962 
L 306.566204 -125.194937 
L 308.967743 -123.530042 
L 311.369283 -121.985542 
L 313.770822 -120.519296 
L 316.172361 -119.20867 
L 318.5739 -118.074688 
L 320.975439 -116.785112 
L 323.376978 -115.45906 
L 325.778517 -114.19923 
L 328.180056 -112.986704 
L 330.581595 -111.834023 
L 332.983134 -110.498371 
L 335.384673 -109.063517 
L 337.786212 -107.680845 
L 340.187751 -106.423858 
L 342.589291 -105.281113 
L 344.99083 -104.21685 
L 347.392369 -103.196003 
L 349.793908 -102.230778 
L 352.195447 -101.333795 
L 354.596986 -100.49446 
L 356.998525 -99.714268 
L 359.400064 -99.035113 
L 361.801603 -98.449707 
L 364.203142 -97.90388 
L 366.604681 -97.442627 
L 369.00622 -96.972286 
L 371.407759 -96.570769 
L 373.809299 -96.258746 
L 376.210838 -95.957081 
L 378.612377 -95.677377 
L 381.013916 -95.37689 
L 383.415455 -95.098814 
L 385.816994 -94.844043 
L 388.218533 -94.576204 
L 390.620072 -94.341518 
L 393.021611 -94.142705 
L 395.42315 -93.946569 
L 397.824689 -93.764826 
L 400.226228 -93.508463 
L 402.627768 -93.189738 
L 405.029307 -92.914755 
L 407.430846 -92.659271 
L 409.832385 -92.419691 
L 412.233924 -92.203277 
L 414.635463 -92.009625 
L 417.037002 -91.831452 
L 419.438541 -91.661301 
L 421.84008 -91.493696 
L 424.241619 -91.328315 
L 426.643158 -91.184434 
L 429.044697 -91.060925 
L 431.446236 -90.922222 
L 433.847776 -90.778307 
L 436.249315 -90.649421 
L 438.650854 -90.538258 
L 441.052393 -90.444954 
L 443.453932 -90.356424 
L 445.855471 -90.278085 
L 448.25701 -90.20072 
L 450.658549 -90.128917 
L 453.060088 -90.05181 
L 455.461627 -89.983558 
L 457.863166 -89.922847 
L 460.264705 -89.860637 
L 462.666244 -89.797796 
L 465.067784 -89.735402 
L 467.469323 -89.681373 
L 469.870862 -89.636635 
L 472.272401 -89.565947 
L 474.67394 -89.390196 
L 477.075479 -89.229013 
L 479.477018 -89.084482 
L 481.878557 -88.963407 
L 484.280096 -88.84882 
L 486.681635 -88.738421 
L 489.083174 -88.638491 
L 491.484713 -88.585841 
L 493.886252 -88.547609 
L 496.287792 -88.520835 
L 498.689331 -88.492834 
L 501.09087 -88.468581 
L 503.492409 -88.443999 
L 505.893948 -88.40976 
L 508.295487 -88.379569 
L 510.697026 -88.32114 
L 513.098565 -88.262058 
L 515.500104 -88.224114 
L 517.901643 -88.188605 
L 520.303182 -88.157528 
L 522.704721 -88.12445 
L 525.10626 -88.084386 
L 527.5078 -88.045196 
L 529.909339 -87.999179 
L 532.310878 -87.947317 
L 534.712417 -87.902893 
L 537.113956 -87.856369 
L 539.515495 -87.809075 
L 541.917034 -87.767952 
L 544.318573 -87.720504 
L 546.720112 -87.676876 
L 549.121651 -87.629526 
L 551.52319 -87.581472 
L 553.924729 -87.536729 
L 556.326268 -87.493597 
L 558.727808 -87.451806 
L 561.129347 -87.411045 
L 563.530886 -87.370925 
L 565.932425 -87.338534 
L 568.333964 -87.309417 
L 570.735503 -87.287762 
L 573.137042 -87.261683 
L 575.538581 -87.235423 
L 577.94012 -87.211141 
L 580.341659 -87.187885 
L 582.743198 -87.157258 
L 585.144737 -87.129812 
L 587.546277 -87.100696 
L 589.947816 -87.073741 
L 592.349355 -87.051466 
L 594.750894 -87.026942 
L 597.152433 -86.999561 
L 599.553972 -86.977679 
L 601.955511 -86.963763 
L 604.35705 -86.954523 
L 606.758589 -86.942179 
L 609.160128 -86.932864 
L 611.561667 -86.929708 
L 613.963206 -86.925362 
L 616.364745 -86.920304 
L 618.766285 -86.909425 
L 621.167824 -86.90186 
L 623.569363 -86.899193 
L 625.970902 -86.896201 
L 628.372441 -86.886599 
L 630.77398 -86.872067 
L 633.175519 -86.857579 
L 635.577058 -86.843341 
L 637.978597 -86.827609 
L 640.380136 -86.812906 
L 642.781675 -86.802919 
L 645.183214 -86.798117 
L 647.584753 -86.786814 
L 649.986293 -86.769287 
L 652.387832 -86.75402 
L 654.789371 -86.74408 
L 657.19091 -86.732635 
L 659.592449 -86.722053 
L 661.993988 -86.710165 
L 664.395527 -86.69917 
L 666.797066 -86.686637 
L 669.198605 -86.674277 
L 671.600144 -86.662426 
L 674.001683 -86.649286 
L 676.403222 -86.637434 
L 678.804761 -86.624376 
L 681.206301 -86.61399 
L 683.60784 -86.606048 
L 686.009379 -86.600285 
L 688.410918 -86.596267 
L 690.812457 -86.590624 
L 693.213996 -86.580095 
L 695.615535 -86.573511 
L 698.017074 -86.568975 
L 700.418613 -86.563659 
L 702.820152 -86.557594 
L 705.221691 -86.558027 
L 707.62323 -86.557918 
L 710.024769 -86.558058 
L 712.426309 -86.55795 
L 714.827848 -86.554017 
L 717.229387 -86.553074 
L 719.630926 -86.550211 
L 722.032465 -86.548358 
L 724.434004 -86.545114 
L 726.835543 -86.541474 
L 729.237082 -86.539227 
L 731.638621 -86.538284 
L 734.04016 -86.542401 
L 736.441699 -86.537726 
L 738.843238 -86.531404 
L 741.244777 -86.527955 
L 743.646317 -86.522958 
L 746.047856 -86.516748 
L 748.449395 -86.512321 
L 750.850934 -86.509028 
L 753.252473 -86.505818 
L 755.654012 -86.502358 
L 758.055551 -86.498572 
L 760.45709 -86.495407 
L 762.858629 -86.491369 
L 765.260168 -86.487054 
L 767.661707 -86.482704 
L 770.063246 -86.482273 
L 772.464786 -86.483222 
L 774.866325 -86.485723 
L 777.267864 -86.485176 
L 779.669403 -86.48672 
L 782.070942 -86.491605 
L 784.472481 -86.493775 
L 786.87402 -86.482821 
L 789.275559 -86.461181 
L 791.677098 -86.43745 
L 794.078637 -86.415383 
L 796.480176 -86.393278 
L 798.881715 -86.368322 
L 801.283254 -86.34273 
L 803.684794 -86.320051 
L 806.086333 -86.296633 
L 808.487872 -86.274202 
L 810.889411 -86.255817 
L 813.29095 -86.241485 
L 815.692489 -86.22977 
L 818.094028 -86.219758 
L 820.495567 -86.210513 
L 822.897106 -86.204395 
L 825.298645 -86.199141 
L 827.700184 -86.189849 
L 830.101723 -86.179095 
L 832.503262 -86.16829 
L 834.904802 -86.157444 
L 837.306341 -86.153749 
L 837.306341 -101.36761 
L 837.306341 -101.36761 
L 834.904802 -101.35323 
L 832.503262 -101.316964 
L 830.101723 -101.285124 
L 827.700184 -101.254176 
L 825.298645 -101.235711 
L 822.897106 -101.221124 
L 820.495567 -101.209257 
L 818.094028 -101.20903 
L 815.692489 -101.2196 
L 813.29095 -101.203059 
L 810.889411 -101.159071 
L 808.487872 -101.113898 
L 806.086333 -101.068946 
L 803.684794 -101.032617 
L 801.283254 -100.974062 
L 798.881715 -100.916502 
L 796.480176 -100.865169 
L 794.078637 -100.811895 
L 791.677098 -100.763818 
L 789.275559 -100.719422 
L 786.87402 -100.688372 
L 784.472481 -100.662223 
L 782.070942 -100.639472 
L 779.669403 -100.623725 
L 777.267864 -100.609043 
L 774.866325 -100.586853 
L 772.464786 -100.564068 
L 770.063246 -100.530302 
L 767.661707 -100.490632 
L 765.260168 -100.462038 
L 762.858629 -100.428821 
L 760.45709 -100.405483 
L 758.055551 -100.37995 
L 755.654012 -100.344951 
L 753.252473 -100.328617 
L 750.850934 -100.306287 
L 748.449395 -100.295134 
L 746.047856 -100.284297 
L 743.646317 -100.270014 
L 741.244777 -100.256896 
L 738.843238 -100.235219 
L 736.441699 -100.21257 
L 734.04016 -100.181898 
L 731.638621 -100.140834 
L 729.237082 -100.091238 
L 726.835543 -100.047582 
L 724.434004 -99.995399 
L 722.032465 -99.9448 
L 719.630926 -99.890609 
L 717.229387 -99.830559 
L 714.827848 -99.763735 
L 712.426309 -99.681682 
L 710.024769 -99.603711 
L 707.62323 -99.530107 
L 705.221691 -99.458728 
L 702.820152 -99.396444 
L 700.418613 -99.315327 
L 698.017074 -99.229813 
L 695.615535 -99.148791 
L 693.213996 -99.062077 
L 690.812457 -98.982578 
L 688.410918 -98.902429 
L 686.009379 -98.830929 
L 683.60784 -98.770907 
L 681.206301 -98.713855 
L 678.804761 -98.663885 
L 676.403222 -98.62235 
L 674.001683 -98.59095 
L 671.600144 -98.564765 
L 669.198605 -98.541213 
L 666.797066 -98.511531 
L 664.395527 -98.494092 
L 661.993988 -98.471715 
L 659.592449 -98.453453 
L 657.19091 -98.433752 
L 654.789371 -98.413266 
L 652.387832 -98.40491 
L 649.986293 -98.404278 
L 647.584753 -98.399353 
L 645.183214 -98.403856 
L 642.781675 -98.404688 
L 640.380136 -98.407915 
L 637.978597 -98.409551 
L 635.577058 -98.407233 
L 633.175519 -98.411748 
L 630.77398 -98.416004 
L 628.372441 -98.422369 
L 625.970902 -98.421921 
L 623.569363 -98.416056 
L 621.167824 -98.406179 
L 618.766285 -98.414774 
L 616.364745 -98.41938 
L 613.963206 -98.42045 
L 611.561667 -98.425623 
L 609.160128 -98.432238 
L 606.758589 -98.4386 
L 604.35705 -98.424295 
L 601.955511 -98.409257 
L 599.553972 -98.392735 
L 597.152433 -98.370095 
L 594.750894 -98.352624 
L 592.349355 -98.332051 
L 589.947816 -98.306189 
L 587.546277 -98.282395 
L 585.144737 -98.242509 
L 582.743198 -98.199165 
L 580.341659 -98.146571 
L 577.94012 -98.086273 
L 575.538581 -98.03357 
L 573.137042 -97.982538 
L 570.735503 -97.916672 
L 568.333964 -97.854085 
L 565.932425 -97.787214 
L 563.530886 -97.713038 
L 561.129347 -97.632503 
L 558.727808 -97.558988 
L 556.326268 -97.50191 
L 553.924729 -97.438556 
L 551.52319 -97.37649 
L 549.121651 -97.315662 
L 546.720112 -97.239193 
L 544.318573 -97.171941 
L 541.917034 -97.092725 
L 539.515495 -97.004477 
L 537.113956 -96.929538 
L 534.712417 -96.850202 
L 532.310878 -96.780772 
L 529.909339 -96.713439 
L 527.5078 -96.637553 
L 525.10626 -96.561682 
L 522.704721 -96.506126 
L 520.303182 -96.454223 
L 517.901643 -96.417918 
L 515.500104 -96.367732 
L 513.098565 -96.323346 
L 510.697026 -96.27754 
L 508.295487 -96.235315 
L 505.893948 -96.204331 
L 503.492409 -96.183623 
L 501.09087 -96.176767 
L 498.689331 -96.230676 
L 496.287792 -96.316428 
L 493.886252 -96.423215 
L 491.484713 -96.53729 
L 489.083174 -96.646288 
L 486.681635 -96.764812 
L 484.280096 -96.878021 
L 481.878557 -96.993059 
L 479.477018 -97.118963 
L 477.075479 -97.259329 
L 474.67394 -97.414041 
L 472.272401 -97.572461 
L 469.870862 -97.739711 
L 467.469323 -97.936435 
L 465.067784 -98.138039 
L 462.666244 -98.345235 
L 460.264705 -98.538032 
L 457.863166 -98.746238 
L 455.461627 -98.941229 
L 453.060088 -99.134696 
L 450.658549 -99.3041 
L 448.25701 -99.489459 
L 445.855471 -99.678196 
L 443.453932 -99.898241 
L 441.052393 -100.144126 
L 438.650854 -100.396022 
L 436.249315 -100.658215 
L 433.847776 -100.946132 
L 431.446236 -101.248382 
L 429.044697 -101.556014 
L 426.643158 -101.848629 
L 424.241619 -102.113719 
L 421.84008 -102.374711 
L 419.438541 -102.663399 
L 417.037002 -102.950146 
L 414.635463 -103.244536 
L 412.233924 -103.530801 
L 409.832385 -103.841356 
L 407.430846 -104.197285 
L 405.029307 -104.546962 
L 402.627768 -104.965836 
L 400.226228 -105.415207 
L 397.824689 -105.908696 
L 395.42315 -106.392516 
L 393.021611 -106.677278 
L 390.620072 -106.91889 
L 388.218533 -107.364981 
L 385.816994 -108.216654 
L 383.415455 -108.921277 
L 381.013916 -109.663337 
L 378.612377 -110.120434 
L 376.210838 -110.558005 
L 373.809299 -111.088372 
L 371.407759 -111.850641 
L 369.00622 -112.671123 
L 366.604681 -113.541599 
L 364.203142 -114.45322 
L 361.801603 -115.428413 
L 359.400064 -116.438773 
L 356.998525 -117.526517 
L 354.596986 -118.759723 
L 352.195447 -120.164214 
L 349.793908 -121.673757 
L 347.392369 -123.294826 
L 344.99083 -125.052356 
L 342.589291 -126.903257 
L 340.187751 -128.784995 
L 337.786212 -130.702644 
L 335.384673 -132.713018 
L 332.983134 -134.68871 
L 330.581595 -136.713668 
L 328.180056 -138.850558 
L 325.778517 -141.049799 
L 323.376978 -143.293861 
L 320.975439 -145.522349 
L 318.5739 -147.168619 
L 316.172361 -148.844156 
L 313.770822 -150.621176 
L 311.369283 -152.515508 
L 308.967743 -154.42216 
L 306.566204 -156.258623 
L 304.164665 -158.195598 
L 301.763126 -160.192479 
L 299.361587 -162.237213 
L 296.960048 -164.320748 
L 294.558509 -166.523013 
L 292.15697 -168.887745 
L 289.755431 -171.293683 
L 287.353892 -173.807699 
L 284.952353 -176.540798 
L 282.550814 -179.311321 
L 280.149275 -182.151865 
L 277.747735 -185.144455 
L 275.346196 -188.42589 
L 272.944657 -192.884243 
L 270.543118 -197.487396 
L 268.141579 -201.867246 
L 265.74004 -206.105009 
L 263.338501 -210.354291 
L 260.936962 -214.658692 
L 258.535423 -219.005205 
L 256.133884 -223.370291 
L 253.732345 -229.131471 
L 251.330806 -235.155077 
L 248.929267 -241.20897 
L 246.527727 -247.344816 
L 244.126188 -253.70221 
L 241.724649 -260.042757 
L 239.32311 -266.351895 
L 236.921571 -272.789034 
L 234.520032 -278.991078 
L 232.118493 -285.108777 
L 229.716954 -291.439562 
L 227.315415 -298.396089 
L 224.913876 -305.989425 
L 222.512337 -313.705596 
L 220.110798 -321.290711 
L 217.709259 -328.846797 
L 215.307719 -336.166061 
L 212.90618 -343.334655 
L 210.504641 -350.440074 
L 208.103102 -357.505705 
L 205.701563 -364.146264 
L 203.300024 -370.240016 
L 200.898485 -376.201563 
L 198.496946 -382.229792 
L 196.095407 -388.019962 
L 193.693868 -393.74115 
L 191.292329 -399.320446 
L 188.89079 -404.811844 
L 186.48925 -409.924539 
L 184.087711 -415.29742 
L 181.686172 -420.446074 
L 179.284633 -425.564946 
L 176.883094 -430.613641 
L 174.481555 -435.420857 
L 172.080016 -440.411489 
L 169.678477 -445.55511 
L 167.276938 -450.293876 
z
" style="stroke: #d01e04; stroke-opacity: 0.2"/>
    </defs>
    <g clip-path="url(#pede17bfeac)">
     <use xlink:href="#mbe37bee9b4" x="0" y="600" style="fill: #d01e04; fill-opacity: 0.2; stroke: #d01e04; stroke-opacity: 0.2"/>
    </g>
   </g>
   <g id="PolyCollection_6">
    <defs>
     <path id="mf023a25a85" d="M 116.844617 -523.506216 
L 116.844617 -511.845112 
L 119.246156 -509.703532 
L 121.647695 -508.047469 
L 124.049234 -506.772943 
L 126.450774 -505.682629 
L 128.852313 -504.145205 
L 131.253852 -502.429894 
L 133.655391 -500.483802 
L 136.05693 -498.488961 
L 138.458469 -496.465014 
L 140.860008 -494.486275 
L 143.261547 -490.846153 
L 145.663086 -487.018475 
L 148.064625 -482.90849 
L 150.466164 -478.71443 
L 152.867703 -474.768822 
L 155.269242 -470.887134 
L 157.670782 -466.868279 
L 160.072321 -462.950562 
L 162.47386 -458.902843 
L 164.875399 -454.648 
L 164.875399 -454.648 
L 164.875399 -454.648 
L 162.47386 -461.306617 
L 160.072321 -467.76099 
L 157.670782 -473.762441 
L 155.269242 -479.584622 
L 152.867703 -485.344283 
L 150.466164 -490.777337 
L 148.064625 -495.707707 
L 145.663086 -500.043811 
L 143.261547 -504.048128 
L 140.860008 -507.512218 
L 138.458469 -509.854942 
L 136.05693 -512.167428 
L 133.655391 -514.421302 
L 131.253852 -516.405601 
L 128.852313 -518.152231 
L 126.450774 -519.282179 
L 124.049234 -519.975175 
L 121.647695 -520.727316 
L 119.246156 -522.022359 
L 116.844617 -523.506216 
z
" style="stroke: #000000; stroke-opacity: 0.2"/>
    </defs>
    <g clip-path="url(#pede17bfeac)">
     <use xlink:href="#mf023a25a85" x="0" y="600" style="fill-opacity: 0.2; stroke: #000000; stroke-opacity: 0.2"/>
    </g>
   </g>
   <g id="matplotlib.axis_1">
    <g id="xtick_1">
     <g id="line2d_1">
      <defs>
       <path id="mad86e9749d" d="M 0 0 
L 0 3.5 
" style="stroke: #000000; stroke-width: 0.8"/>
      </defs>
      <g>
       <use xlink:href="#mad86e9749d" x="164.875399" y="515.56" style="stroke: #000000; stroke-width: 0.8"/>
      </g>
     </g>
     <g id="text_1">
      <!-- 2020 -->
      <g transform="translate(131.790399 542.315938)scale(0.26 -0.26)">
       <defs>
        <path id="DejaVuSans-32" d="M 1228 531 
L 3431 531 
L 3431 0 
L 469 0 
L 469 531 
Q 828 903 1448 1529 
Q 2069 2156 2228 2338 
Q 2531 2678 2651 2914 
Q 2772 3150 2772 3378 
Q 2772 3750 2511 3984 
Q 2250 4219 1831 4219 
Q 1534 4219 1204 4116 
Q 875 4013 500 3803 
L 500 4441 
Q 881 4594 1212 4672 
Q 1544 4750 1819 4750 
Q 2544 4750 2975 4387 
Q 3406 4025 3406 3419 
Q 3406 3131 3298 2873 
Q 3191 2616 2906 2266 
Q 2828 2175 2409 1742 
Q 1991 1309 1228 531 
z
" transform="scale(0.015625)"/>
        <path id="DejaVuSans-30" d="M 2034 4250 
Q 1547 4250 1301 3770 
Q 1056 3291 1056 2328 
Q 1056 1369 1301 889 
Q 1547 409 2034 409 
Q 2525 409 2770 889 
Q 3016 1369 3016 2328 
Q 3016 3291 2770 3770 
Q 2525 4250 2034 4250 
z
M 2034 4750 
Q 2819 4750 3233 4129 
Q 3647 3509 3647 2328 
Q 3647 1150 3233 529 
Q 2819 -91 2034 -91 
Q 1250 -91 836 529 
Q 422 1150 422 2328 
Q 422 3509 836 4129 
Q 1250 4750 2034 4750 
z
" transform="scale(0.015625)"/>
       </defs>
       <use xlink:href="#DejaVuSans-32"/>
       <use xlink:href="#DejaVuSans-30" x="63.623047"/>
       <use xlink:href="#DejaVuSans-32" x="127.246094"/>
       <use xlink:href="#DejaVuSans-30" x="190.869141"/>
      </g>
     </g>
    </g>
    <g id="xtick_2">
     <g id="line2d_2">
      <g>
       <use xlink:href="#mad86e9749d" x="356.998525" y="515.56" style="stroke: #000000; stroke-width: 0.8"/>
      </g>
     </g>
     <g id="text_2">
      <!-- 2100 -->
      <g transform="translate(323.913525 542.315938)scale(0.26 -0.26)">
       <defs>
        <path id="DejaVuSans-31" d="M 794 531 
L 1825 531 
L 1825 4091 
L 703 3866 
L 703 4441 
L 1819 4666 
L 2450 4666 
L 2450 531 
L 3481 531 
L 3481 0 
L 794 0 
L 794 531 
z
" transform="scale(0.015625)"/>
       </defs>
       <use xlink:href="#DejaVuSans-32"/>
       <use xlink:href="#DejaVuSans-31" x="63.623047"/>
       <use xlink:href="#DejaVuSans-30" x="127.246094"/>
       <use xlink:href="#DejaVuSans-30" x="190.869141"/>
      </g>
     </g>
    </g>
    <g id="xtick_3">
     <g id="line2d_3">
      <g>
       <use xlink:href="#mad86e9749d" x="597.152433" y="515.56" style="stroke: #000000; stroke-width: 0.8"/>
      </g>
     </g>
     <g id="text_3">
      <!-- 2200 -->
      <g transform="translate(564.067433 542.315938)scale(0.26 -0.26)">
       <use xlink:href="#DejaVuSans-32"/>
       <use xlink:href="#DejaVuSans-32" x="63.623047"/>
       <use xlink:href="#DejaVuSans-30" x="127.246094"/>
       <use xlink:href="#DejaVuSans-30" x="190.869141"/>
      </g>
     </g>
    </g>
    <g id="xtick_4">
     <g id="line2d_4">
      <g>
       <use xlink:href="#mad86e9749d" x="837.306341" y="515.56" style="stroke: #000000; stroke-width: 0.8"/>
      </g>
     </g>
     <g id="text_4">
      <!-- 2300 -->
      <g transform="translate(804.221341 542.315938)scale(0.26 -0.26)">
       <defs>
        <path id="DejaVuSans-33" d="M 2597 2516 
Q 3050 2419 3304 2112 
Q 3559 1806 3559 1356 
Q 3559 666 3084 287 
Q 2609 -91 1734 -91 
Q 1441 -91 1130 -33 
Q 819 25 488 141 
L 488 750 
Q 750 597 1062 519 
Q 1375 441 1716 441 
Q 2309 441 2620 675 
Q 2931 909 2931 1356 
Q 2931 1769 2642 2001 
Q 2353 2234 1838 2234 
L 1294 2234 
L 1294 2753 
L 1863 2753 
Q 2328 2753 2575 2939 
Q 2822 3125 2822 3475 
Q 2822 3834 2567 4026 
Q 2313 4219 1838 4219 
Q 1578 4219 1281 4162 
Q 984 4106 628 3988 
L 628 4550 
Q 988 4650 1302 4700 
Q 1616 4750 1894 4750 
Q 2613 4750 3031 4423 
Q 3450 4097 3450 3541 
Q 3450 3153 3228 2886 
Q 3006 2619 2597 2516 
z
" transform="scale(0.015625)"/>
       </defs>
       <use xlink:href="#DejaVuSans-32"/>
       <use xlink:href="#DejaVuSans-33" x="63.623047"/>
       <use xlink:href="#DejaVuSans-30" x="127.246094"/>
       <use xlink:href="#DejaVuSans-30" x="190.869141"/>
      </g>
     </g>
    </g>
    <g id="text_5">
     <!-- Year -->
     <g transform="translate(457.010409 568.439687)scale(0.22 -0.22)">
      <defs>
       <path id="DejaVuSans-Bold-59" d="M -63 4666 
L 1253 4666 
L 2316 3003 
L 3378 4666 
L 4697 4666 
L 2919 1966 
L 2919 0 
L 1716 0 
L 1716 1966 
L -63 4666 
z
" transform="scale(0.015625)"/>
       <path id="DejaVuSans-Bold-65" d="M 4031 1759 
L 4031 1441 
L 1416 1441 
Q 1456 1047 1700 850 
Q 1944 653 2381 653 
Q 2734 653 3104 758 
Q 3475 863 3866 1075 
L 3866 213 
Q 3469 63 3072 -14 
Q 2675 -91 2278 -91 
Q 1328 -91 801 392 
Q 275 875 275 1747 
Q 275 2603 792 3093 
Q 1309 3584 2216 3584 
Q 3041 3584 3536 3087 
Q 4031 2591 4031 1759 
z
M 2881 2131 
Q 2881 2450 2695 2645 
Q 2509 2841 2209 2841 
Q 1884 2841 1681 2658 
Q 1478 2475 1428 2131 
L 2881 2131 
z
" transform="scale(0.015625)"/>
       <path id="DejaVuSans-Bold-61" d="M 2106 1575 
Q 1756 1575 1579 1456 
Q 1403 1338 1403 1106 
Q 1403 894 1545 773 
Q 1688 653 1941 653 
Q 2256 653 2472 879 
Q 2688 1106 2688 1447 
L 2688 1575 
L 2106 1575 
z
M 3816 1997 
L 3816 0 
L 2688 0 
L 2688 519 
Q 2463 200 2181 54 
Q 1900 -91 1497 -91 
Q 953 -91 614 226 
Q 275 544 275 1050 
Q 275 1666 698 1953 
Q 1122 2241 2028 2241 
L 2688 2241 
L 2688 2328 
Q 2688 2594 2478 2717 
Q 2269 2841 1825 2841 
Q 1466 2841 1156 2769 
Q 847 2697 581 2553 
L 581 3406 
Q 941 3494 1303 3539 
Q 1666 3584 2028 3584 
Q 2975 3584 3395 3211 
Q 3816 2838 3816 1997 
z
" transform="scale(0.015625)"/>
       <path id="DejaVuSans-Bold-72" d="M 3138 2547 
Q 2991 2616 2845 2648 
Q 2700 2681 2553 2681 
Q 2122 2681 1889 2404 
Q 1656 2128 1656 1613 
L 1656 0 
L 538 0 
L 538 3500 
L 1656 3500 
L 1656 2925 
Q 1872 3269 2151 3426 
Q 2431 3584 2822 3584 
Q 2878 3584 2943 3579 
Q 3009 3575 3134 3559 
L 3138 2547 
z
" transform="scale(0.015625)"/>
      </defs>
      <use xlink:href="#DejaVuSans-Bold-59"/>
      <use xlink:href="#DejaVuSans-Bold-65" x="63.287109"/>
      <use xlink:href="#DejaVuSans-Bold-61" x="131.109375"/>
      <use xlink:href="#DejaVuSans-Bold-72" x="198.589844"/>
     </g>
    </g>
   </g>
   <g id="matplotlib.axis_2">
    <g id="ytick_1">
     <g id="line2d_5">
      <defs>
       <path id="mcb4e8b6ace" d="M 0 0 
L -3.5 0 
" style="stroke: #000000; stroke-width: 0.8"/>
      </defs>
      <g>
       <use xlink:href="#mcb4e8b6ace" x="109.64" y="515.56" style="stroke: #000000; stroke-width: 0.8"/>
      </g>
     </g>
     <g id="text_6">
      <!-- 0 -->
      <g transform="translate(86.0975 525.437969)scale(0.26 -0.26)">
       <use xlink:href="#DejaVuSans-30"/>
      </g>
     </g>
    </g>
    <g id="ytick_2">
     <g id="line2d_6">
      <g>
       <use xlink:href="#mcb4e8b6ace" x="109.64" y="441.5184" style="stroke: #000000; stroke-width: 0.8"/>
      </g>
     </g>
     <g id="text_7">
      <!-- 20 -->
      <g transform="translate(69.555 451.396369)scale(0.26 -0.26)">
       <use xlink:href="#DejaVuSans-32"/>
       <use xlink:href="#DejaVuSans-30" x="63.623047"/>
      </g>
     </g>
    </g>
    <g id="ytick_3">
     <g id="line2d_7">
      <g>
       <use xlink:href="#mcb4e8b6ace" x="109.64" y="367.4768" style="stroke: #000000; stroke-width: 0.8"/>
      </g>
     </g>
     <g id="text_8">
      <!-- 40 -->
      <g transform="translate(69.555 377.354769)scale(0.26 -0.26)">
       <defs>
        <path id="DejaVuSans-34" d="M 2419 4116 
L 825 1625 
L 2419 1625 
L 2419 4116 
z
M 2253 4666 
L 3047 4666 
L 3047 1625 
L 3713 1625 
L 3713 1100 
L 3047 1100 
L 3047 0 
L 2419 0 
L 2419 1100 
L 313 1100 
L 313 1709 
L 2253 4666 
z
" transform="scale(0.015625)"/>
       </defs>
       <use xlink:href="#DejaVuSans-34"/>
       <use xlink:href="#DejaVuSans-30" x="63.623047"/>
      </g>
     </g>
    </g>
    <g id="ytick_4">
     <g id="line2d_8">
      <g>
       <use xlink:href="#mcb4e8b6ace" x="109.64" y="293.4352" style="stroke: #000000; stroke-width: 0.8"/>
      </g>
     </g>
     <g id="text_9">
      <!-- 60 -->
      <g transform="translate(69.555 303.313169)scale(0.26 -0.26)">
       <defs>
        <path id="DejaVuSans-36" d="M 2113 2584 
Q 1688 2584 1439 2293 
Q 1191 2003 1191 1497 
Q 1191 994 1439 701 
Q 1688 409 2113 409 
Q 2538 409 2786 701 
Q 3034 994 3034 1497 
Q 3034 2003 2786 2293 
Q 2538 2584 2113 2584 
z
M 3366 4563 
L 3366 3988 
Q 3128 4100 2886 4159 
Q 2644 4219 2406 4219 
Q 1781 4219 1451 3797 
Q 1122 3375 1075 2522 
Q 1259 2794 1537 2939 
Q 1816 3084 2150 3084 
Q 2853 3084 3261 2657 
Q 3669 2231 3669 1497 
Q 3669 778 3244 343 
Q 2819 -91 2113 -91 
Q 1303 -91 875 529 
Q 447 1150 447 2328 
Q 447 3434 972 4092 
Q 1497 4750 2381 4750 
Q 2619 4750 2861 4703 
Q 3103 4656 3366 4563 
z
" transform="scale(0.015625)"/>
       </defs>
       <use xlink:href="#DejaVuSans-36"/>
       <use xlink:href="#DejaVuSans-30" x="63.623047"/>
      </g>
     </g>
    </g>
    <g id="ytick_5">
     <g id="line2d_9">
      <g>
       <use xlink:href="#mcb4e8b6ace" x="109.64" y="219.3936" style="stroke: #000000; stroke-width: 0.8"/>
      </g>
     </g>
     <g id="text_10">
      <!-- 80 -->
      <g transform="translate(69.555 229.271569)scale(0.26 -0.26)">
       <defs>
        <path id="DejaVuSans-38" d="M 2034 2216 
Q 1584 2216 1326 1975 
Q 1069 1734 1069 1313 
Q 1069 891 1326 650 
Q 1584 409 2034 409 
Q 2484 409 2743 651 
Q 3003 894 3003 1313 
Q 3003 1734 2745 1975 
Q 2488 2216 2034 2216 
z
M 1403 2484 
Q 997 2584 770 2862 
Q 544 3141 544 3541 
Q 544 4100 942 4425 
Q 1341 4750 2034 4750 
Q 2731 4750 3128 4425 
Q 3525 4100 3525 3541 
Q 3525 3141 3298 2862 
Q 3072 2584 2669 2484 
Q 3125 2378 3379 2068 
Q 3634 1759 3634 1313 
Q 3634 634 3220 271 
Q 2806 -91 2034 -91 
Q 1263 -91 848 271 
Q 434 634 434 1313 
Q 434 1759 690 2068 
Q 947 2378 1403 2484 
z
M 1172 3481 
Q 1172 3119 1398 2916 
Q 1625 2713 2034 2713 
Q 2441 2713 2670 2916 
Q 2900 3119 2900 3481 
Q 2900 3844 2670 4047 
Q 2441 4250 2034 4250 
Q 1625 4250 1398 4047 
Q 1172 3844 1172 3481 
z
" transform="scale(0.015625)"/>
       </defs>
       <use xlink:href="#DejaVuSans-38"/>
       <use xlink:href="#DejaVuSans-30" x="63.623047"/>
      </g>
     </g>
    </g>
    <g id="ytick_6">
     <g id="line2d_10">
      <g>
       <use xlink:href="#mcb4e8b6ace" x="109.64" y="145.352" style="stroke: #000000; stroke-width: 0.8"/>
      </g>
     </g>
     <g id="text_11">
      <!-- 100 -->
      <g transform="translate(53.0125 155.229969)scale(0.26 -0.26)">
       <use xlink:href="#DejaVuSans-31"/>
       <use xlink:href="#DejaVuSans-30" x="63.623047"/>
       <use xlink:href="#DejaVuSans-30" x="127.246094"/>
      </g>
     </g>
    </g>
    <g id="ytick_7">
     <g id="line2d_11">
      <g>
       <use xlink:href="#mcb4e8b6ace" x="109.64" y="71.3104" style="stroke: #000000; stroke-width: 0.8"/>
      </g>
     </g>
     <g id="text_12">
      <!-- 120 -->
      <g transform="translate(53.0125 81.188369)scale(0.26 -0.26)">
       <use xlink:href="#DejaVuSans-31"/>
       <use xlink:href="#DejaVuSans-32" x="63.623047"/>
       <use xlink:href="#DejaVuSans-30" x="127.246094"/>
      </g>
     </g>
    </g>
    <g id="text_13">
     <!-- % of Remaining Glacier Mass -->
     <g transform="translate(44.265313 463.619219)rotate(-90)scale(0.22 -0.22)">
      <defs>
       <path id="DejaVuSans-Bold-25" d="M 4959 1925 
Q 4738 1925 4616 1733 
Q 4494 1541 4494 1184 
Q 4494 825 4614 633 
Q 4734 441 4959 441 
Q 5184 441 5303 633 
Q 5422 825 5422 1184 
Q 5422 1541 5301 1733 
Q 5181 1925 4959 1925 
z
M 4959 2450 
Q 5541 2450 5875 2112 
Q 6209 1775 6209 1184 
Q 6209 594 5875 251 
Q 5541 -91 4959 -91 
Q 4378 -91 4042 251 
Q 3706 594 3706 1184 
Q 3706 1772 4042 2111 
Q 4378 2450 4959 2450 
z
M 2094 -91 
L 1403 -91 
L 4319 4750 
L 5013 4750 
L 2094 -91 
z
M 1453 4750 
Q 2034 4750 2367 4411 
Q 2700 4072 2700 3481 
Q 2700 2891 2367 2550 
Q 2034 2209 1453 2209 
Q 872 2209 539 2550 
Q 206 2891 206 3481 
Q 206 4072 539 4411 
Q 872 4750 1453 4750 
z
M 1453 4225 
Q 1228 4225 1106 4031 
Q 984 3838 984 3481 
Q 984 3122 1106 2926 
Q 1228 2731 1453 2731 
Q 1678 2731 1798 2926 
Q 1919 3122 1919 3481 
Q 1919 3838 1797 4031 
Q 1675 4225 1453 4225 
z
" transform="scale(0.015625)"/>
       <path id="DejaVuSans-Bold-20" transform="scale(0.015625)"/>
       <path id="DejaVuSans-Bold-6f" d="M 2203 2784 
Q 1831 2784 1636 2517 
Q 1441 2250 1441 1747 
Q 1441 1244 1636 976 
Q 1831 709 2203 709 
Q 2569 709 2762 976 
Q 2956 1244 2956 1747 
Q 2956 2250 2762 2517 
Q 2569 2784 2203 2784 
z
M 2203 3584 
Q 3106 3584 3614 3096 
Q 4122 2609 4122 1747 
Q 4122 884 3614 396 
Q 3106 -91 2203 -91 
Q 1297 -91 786 396 
Q 275 884 275 1747 
Q 275 2609 786 3096 
Q 1297 3584 2203 3584 
z
" transform="scale(0.015625)"/>
       <path id="DejaVuSans-Bold-66" d="M 2841 4863 
L 2841 4128 
L 2222 4128 
Q 1984 4128 1890 4042 
Q 1797 3956 1797 3744 
L 1797 3500 
L 2753 3500 
L 2753 2700 
L 1797 2700 
L 1797 0 
L 678 0 
L 678 2700 
L 122 2700 
L 122 3500 
L 678 3500 
L 678 3744 
Q 678 4316 997 4589 
Q 1316 4863 1984 4863 
L 2841 4863 
z
" transform="scale(0.015625)"/>
       <path id="DejaVuSans-Bold-52" d="M 2297 2597 
Q 2675 2597 2839 2737 
Q 3003 2878 3003 3200 
Q 3003 3519 2839 3656 
Q 2675 3794 2297 3794 
L 1791 3794 
L 1791 2597 
L 2297 2597 
z
M 1791 1766 
L 1791 0 
L 588 0 
L 588 4666 
L 2425 4666 
Q 3347 4666 3776 4356 
Q 4206 4047 4206 3378 
Q 4206 2916 3982 2619 
Q 3759 2322 3309 2181 
Q 3556 2125 3751 1926 
Q 3947 1728 4147 1325 
L 4800 0 
L 3519 0 
L 2950 1159 
Q 2778 1509 2601 1637 
Q 2425 1766 2131 1766 
L 1791 1766 
z
" transform="scale(0.015625)"/>
       <path id="DejaVuSans-Bold-6d" d="M 3781 2919 
Q 3994 3244 4286 3414 
Q 4578 3584 4928 3584 
Q 5531 3584 5847 3212 
Q 6163 2841 6163 2131 
L 6163 0 
L 5038 0 
L 5038 1825 
Q 5041 1866 5042 1909 
Q 5044 1953 5044 2034 
Q 5044 2406 4934 2573 
Q 4825 2741 4581 2741 
Q 4263 2741 4089 2478 
Q 3916 2216 3909 1719 
L 3909 0 
L 2784 0 
L 2784 1825 
Q 2784 2406 2684 2573 
Q 2584 2741 2328 2741 
Q 2006 2741 1831 2477 
Q 1656 2213 1656 1722 
L 1656 0 
L 531 0 
L 531 3500 
L 1656 3500 
L 1656 2988 
Q 1863 3284 2130 3434 
Q 2397 3584 2719 3584 
Q 3081 3584 3359 3409 
Q 3638 3234 3781 2919 
z
" transform="scale(0.015625)"/>
       <path id="DejaVuSans-Bold-69" d="M 538 3500 
L 1656 3500 
L 1656 0 
L 538 0 
L 538 3500 
z
M 538 4863 
L 1656 4863 
L 1656 3950 
L 538 3950 
L 538 4863 
z
" transform="scale(0.015625)"/>
       <path id="DejaVuSans-Bold-6e" d="M 4056 2131 
L 4056 0 
L 2931 0 
L 2931 347 
L 2931 1631 
Q 2931 2084 2911 2256 
Q 2891 2428 2841 2509 
Q 2775 2619 2662 2680 
Q 2550 2741 2406 2741 
Q 2056 2741 1856 2470 
Q 1656 2200 1656 1722 
L 1656 0 
L 538 0 
L 538 3500 
L 1656 3500 
L 1656 2988 
Q 1909 3294 2193 3439 
Q 2478 3584 2822 3584 
Q 3428 3584 3742 3212 
Q 4056 2841 4056 2131 
z
" transform="scale(0.015625)"/>
       <path id="DejaVuSans-Bold-67" d="M 2919 594 
Q 2688 288 2409 144 
Q 2131 0 1766 0 
Q 1125 0 706 504 
Q 288 1009 288 1791 
Q 288 2575 706 3076 
Q 1125 3578 1766 3578 
Q 2131 3578 2409 3434 
Q 2688 3291 2919 2981 
L 2919 3500 
L 4044 3500 
L 4044 353 
Q 4044 -491 3511 -936 
Q 2978 -1381 1966 -1381 
Q 1638 -1381 1331 -1331 
Q 1025 -1281 716 -1178 
L 716 -306 
Q 1009 -475 1290 -558 
Q 1572 -641 1856 -641 
Q 2406 -641 2662 -400 
Q 2919 -159 2919 353 
L 2919 594 
z
M 2181 2772 
Q 1834 2772 1640 2515 
Q 1447 2259 1447 1791 
Q 1447 1309 1634 1061 
Q 1822 813 2181 813 
Q 2531 813 2725 1069 
Q 2919 1325 2919 1791 
Q 2919 2259 2725 2515 
Q 2531 2772 2181 2772 
z
" transform="scale(0.015625)"/>
       <path id="DejaVuSans-Bold-47" d="M 4781 347 
Q 4331 128 3847 18 
Q 3363 -91 2847 -91 
Q 1681 -91 1000 561 
Q 319 1213 319 2328 
Q 319 3456 1012 4103 
Q 1706 4750 2913 4750 
Q 3378 4750 3804 4662 
Q 4231 4575 4609 4403 
L 4609 3438 
Q 4219 3659 3833 3768 
Q 3447 3878 3059 3878 
Q 2341 3878 1952 3476 
Q 1563 3075 1563 2328 
Q 1563 1588 1938 1184 
Q 2313 781 3003 781 
Q 3191 781 3352 804 
Q 3513 828 3641 878 
L 3641 1784 
L 2906 1784 
L 2906 2591 
L 4781 2591 
L 4781 347 
z
" transform="scale(0.015625)"/>
       <path id="DejaVuSans-Bold-6c" d="M 538 4863 
L 1656 4863 
L 1656 0 
L 538 0 
L 538 4863 
z
" transform="scale(0.015625)"/>
       <path id="DejaVuSans-Bold-63" d="M 3366 3391 
L 3366 2478 
Q 3138 2634 2908 2709 
Q 2678 2784 2431 2784 
Q 1963 2784 1702 2511 
Q 1441 2238 1441 1747 
Q 1441 1256 1702 982 
Q 1963 709 2431 709 
Q 2694 709 2930 787 
Q 3166 866 3366 1019 
L 3366 103 
Q 3103 6 2833 -42 
Q 2563 -91 2291 -91 
Q 1344 -91 809 395 
Q 275 881 275 1747 
Q 275 2613 809 3098 
Q 1344 3584 2291 3584 
Q 2566 3584 2833 3536 
Q 3100 3488 3366 3391 
z
" transform="scale(0.015625)"/>
       <path id="DejaVuSans-Bold-4d" d="M 588 4666 
L 2119 4666 
L 3181 2169 
L 4250 4666 
L 5778 4666 
L 5778 0 
L 4641 0 
L 4641 3413 
L 3566 897 
L 2803 897 
L 1728 3413 
L 1728 0 
L 588 0 
L 588 4666 
z
" transform="scale(0.015625)"/>
       <path id="DejaVuSans-Bold-73" d="M 3272 3391 
L 3272 2541 
Q 2913 2691 2578 2766 
Q 2244 2841 1947 2841 
Q 1628 2841 1473 2761 
Q 1319 2681 1319 2516 
Q 1319 2381 1436 2309 
Q 1553 2238 1856 2203 
L 2053 2175 
Q 2913 2066 3209 1816 
Q 3506 1566 3506 1031 
Q 3506 472 3093 190 
Q 2681 -91 1863 -91 
Q 1516 -91 1145 -36 
Q 775 19 384 128 
L 384 978 
Q 719 816 1070 734 
Q 1422 653 1784 653 
Q 2113 653 2278 743 
Q 2444 834 2444 1013 
Q 2444 1163 2330 1236 
Q 2216 1309 1875 1350 
L 1678 1375 
Q 931 1469 631 1722 
Q 331 1975 331 2491 
Q 331 3047 712 3315 
Q 1094 3584 1881 3584 
Q 2191 3584 2531 3537 
Q 2872 3491 3272 3391 
z
" transform="scale(0.015625)"/>
      </defs>
      <use xlink:href="#DejaVuSans-Bold-25"/>
      <use xlink:href="#DejaVuSans-Bold-20" x="100.195312"/>
      <use xlink:href="#DejaVuSans-Bold-6f" x="135.009766"/>
      <use xlink:href="#DejaVuSans-Bold-66" x="203.710938"/>
      <use xlink:href="#DejaVuSans-Bold-20" x="247.216797"/>
      <use xlink:href="#DejaVuSans-Bold-52" x="282.03125"/>
      <use xlink:href="#DejaVuSans-Bold-65" x="359.033203"/>
      <use xlink:href="#DejaVuSans-Bold-6d" x="426.855469"/>
      <use xlink:href="#DejaVuSans-Bold-61" x="531.054688"/>
      <use xlink:href="#DejaVuSans-Bold-69" x="598.535156"/>
      <use xlink:href="#DejaVuSans-Bold-6e" x="632.8125"/>
      <use xlink:href="#DejaVuSans-Bold-69" x="704.003906"/>
      <use xlink:href="#DejaVuSans-Bold-6e" x="738.28125"/>
      <use xlink:href="#DejaVuSans-Bold-67" x="809.472656"/>
      <use xlink:href="#DejaVuSans-Bold-20" x="881.054688"/>
      <use xlink:href="#DejaVuSans-Bold-47" x="915.869141"/>
      <use xlink:href="#DejaVuSans-Bold-6c" x="997.949219"/>
      <use xlink:href="#DejaVuSans-Bold-61" x="1032.226562"/>
      <use xlink:href="#DejaVuSans-Bold-63" x="1099.707031"/>
      <use xlink:href="#DejaVuSans-Bold-69" x="1158.984375"/>
      <use xlink:href="#DejaVuSans-Bold-65" x="1193.261719"/>
      <use xlink:href="#DejaVuSans-Bold-72" x="1261.083984"/>
      <use xlink:href="#DejaVuSans-Bold-20" x="1310.400391"/>
      <use xlink:href="#DejaVuSans-Bold-4d" x="1345.214844"/>
      <use xlink:href="#DejaVuSans-Bold-61" x="1444.726562"/>
      <use xlink:href="#DejaVuSans-Bold-73" x="1512.207031"/>
      <use xlink:href="#DejaVuSans-Bold-73" x="1571.728516"/>
     </g>
    </g>
   </g>
   <g id="line2d_12">
    <path d="M 167.276938 151.080472 
L 172.080016 162.638072 
L 174.481555 168.55967 
L 186.48925 196.323621 
L 193.693868 214.448082 
L 200.898485 230.997072 
L 205.701563 242.590353 
L 210.504641 253.613554 
L 220.110798 274.616581 
L 229.716954 294.718786 
L 234.520032 303.853422 
L 241.724649 315.708708 
L 248.929267 327.76693 
L 253.732345 335.050401 
L 258.535423 341.585845 
L 263.338501 347.87412 
L 268.141579 353.596102 
L 275.346196 362.106154 
L 280.149275 367.223527 
L 289.755431 376.879435 
L 292.15697 379.031089 
L 296.960048 382.730815 
L 299.361587 384.476076 
L 308.967743 390.731182 
L 313.770822 393.504089 
L 318.5739 396.179869 
L 325.778517 399.73873 
L 330.581595 402.235462 
L 332.983134 403.563469 
L 337.786212 405.859759 
L 344.99083 408.658826 
L 349.793908 410.410942 
L 354.596986 411.77982 
L 359.400064 412.801884 
L 364.203142 413.975789 
L 376.210838 416.459432 
L 381.013916 417.020857 
L 395.42315 417.924761 
L 400.226228 418.249903 
L 409.832385 418.765217 
L 426.643158 419.517481 
L 433.847776 420.662028 
L 441.052393 421.715432 
L 450.658549 422.689493 
L 455.461627 422.993501 
L 457.863166 423.211422 
L 462.666244 423.360634 
L 467.469323 423.125873 
L 472.272401 422.755014 
L 474.67394 422.353423 
L 493.886252 417.813981 
L 496.287792 417.245002 
L 505.893948 415.503496 
L 510.697026 414.640671 
L 515.500104 414.082011 
L 522.704721 413.623249 
L 532.310878 413.54783 
L 537.113956 413.708865 
L 544.318573 413.659524 
L 551.52319 413.364821 
L 553.924729 413.311908 
L 556.326268 413.378814 
L 558.727808 413.325757 
L 563.530886 412.99125 
L 565.932425 412.664981 
L 582.743198 408.861538 
L 585.144737 408.186865 
L 597.152433 404.14584 
L 601.955511 402.24371 
L 609.160128 398.863293 
L 613.963206 396.960877 
L 618.766285 395.690277 
L 621.167824 395.333511 
L 628.372441 393.971586 
L 630.77398 393.655538 
L 633.175519 393.460795 
L 645.183214 393.209456 
L 649.986293 393.504543 
L 652.387832 393.886973 
L 657.19091 394.916919 
L 661.993988 395.572983 
L 666.797066 395.796001 
L 671.600144 395.600044 
L 676.403222 394.988198 
L 678.804761 394.555014 
L 683.60784 393.372645 
L 688.410918 391.917074 
L 698.017074 389.082722 
L 705.221691 386.164627 
L 710.024769 384.092837 
L 719.630926 380.652268 
L 722.032465 380.099102 
L 724.434004 379.428479 
L 726.835543 378.546972 
L 731.638621 376.961103 
L 738.843238 374.60493 
L 746.047856 371.615574 
L 753.252473 369.152106 
L 758.055551 367.906695 
L 770.063246 364.674697 
L 772.464786 364.359379 
L 782.070942 364.754403 
L 786.87402 364.870421 
L 791.677098 365.477247 
L 796.480176 365.815821 
L 808.487872 366.423584 
L 813.29095 367.013316 
L 818.094028 367.283191 
L 820.495567 367.258783 
L 825.298645 366.78623 
L 830.101723 366.550418 
L 834.904802 366.469892 
L 837.306341 366.264026 
L 837.306341 366.264026 
" clip-path="url(#pede17bfeac)" style="fill: none; stroke: #74b8f8; stroke-opacity: 0.5; stroke-width: 6; stroke-linecap: square"/>
   </g>
   <g id="line2d_13">
    <path d="M 116.844617 76.855686 
L 119.246156 78.527617 
L 121.647695 80.371767 
L 124.049234 81.88194 
L 126.450774 83.491749 
L 128.852313 85.519223 
L 131.253852 87.665241 
L 133.655391 90.18608 
L 136.05693 92.533194 
L 138.458469 94.742613 
L 140.860008 96.909407 
L 143.261547 100.981258 
L 145.663086 105.303176 
L 148.064625 109.909883 
L 150.466164 114.586231 
L 152.867703 119.60137 
L 155.269242 124.119567 
L 157.670782 128.867918 
L 160.072321 134.047851 
L 162.47386 139.570904 
L 164.875399 145.352 
" clip-path="url(#pede17bfeac)" style="fill: none; stroke: #000000; stroke-opacity: 0.5; stroke-width: 6; stroke-linecap: square"/>
   </g>
   <g id="line2d_14">
    <path d="M 167.276938 151.037086 
L 169.678477 156.7202 
L 172.080016 162.810145 
L 176.883094 175.938671 
L 181.686172 189.788703 
L 193.693868 227.595364 
L 200.898485 251.599625 
L 208.103102 274.691422 
L 212.90618 289.489298 
L 222.512337 317.742622 
L 236.921571 356.004725 
L 241.724649 367.774581 
L 244.126188 372.799238 
L 246.527727 377.446689 
L 248.929267 381.445765 
L 258.535423 396.253913 
L 263.338501 403.0213 
L 265.74004 406.701281 
L 270.543118 413.383576 
L 275.346196 419.599417 
L 280.149275 425.290828 
L 284.952353 430.304203 
L 299.361587 444.037089 
L 306.566204 450.659779 
L 311.369283 454.884502 
L 316.172361 458.846916 
L 318.5739 460.773518 
L 323.376978 464.024146 
L 328.180056 466.999609 
L 335.384673 471.169233 
L 340.187751 473.459588 
L 344.99083 475.448878 
L 349.793908 477.22 
L 359.400064 480.117739 
L 376.210838 484.709989 
L 383.415455 486.127571 
L 397.824689 488.849293 
L 414.635463 491.951987 
L 421.84008 492.784196 
L 426.643158 493.343946 
L 436.249315 494.485237 
L 445.855471 495.51738 
L 453.060088 496.298321 
L 460.264705 496.739562 
L 467.469323 496.805783 
L 481.878557 496.683791 
L 493.886252 496.388423 
L 503.492409 496.073624 
L 508.295487 496.279632 
L 515.500104 495.98396 
L 517.901643 495.840754 
L 525.10626 496.06449 
L 539.515495 496.428641 
L 553.924729 496.470654 
L 563.530886 496.270282 
L 580.341659 495.748639 
L 597.152433 494.905554 
L 618.766285 493.343316 
L 628.372441 492.084202 
L 649.986293 491.179184 
L 657.19091 491.025805 
L 661.993988 490.815318 
L 666.797066 490.434069 
L 671.600144 490.046701 
L 678.804761 489.651099 
L 695.615535 488.441456 
L 722.032465 488.178634 
L 726.835543 488.260402 
L 734.04016 488.68044 
L 753.252473 490.201116 
L 755.654012 490.290686 
L 762.858629 490.075983 
L 767.661707 489.859999 
L 777.267864 489.172453 
L 822.897106 487.312176 
L 837.306341 486.90865 
L 837.306341 486.90865 
" clip-path="url(#pede17bfeac)" style="fill: none; stroke: #f47100; stroke-opacity: 0.5; stroke-width: 6; stroke-linecap: square"/>
   </g>
   <g id="line2d_15">
    <path d="M 116.844617 83.58179 
L 119.246156 85.024654 
L 121.647695 86.616116 
L 124.049234 88.06148 
L 126.450774 89.378238 
L 128.852313 91.146182 
L 131.253852 92.823916 
L 133.655391 94.421688 
L 136.05693 95.96928 
L 138.458469 97.749656 
L 140.860008 99.771131 
L 143.261547 103.631455 
L 145.663086 107.800092 
L 148.064625 111.924267 
L 150.466164 115.98575 
L 152.867703 120.541635 
L 155.269242 125.124275 
L 157.670782 129.953963 
L 160.072321 134.716264 
L 162.47386 139.85597 
L 164.875399 145.352 
" clip-path="url(#pede17bfeac)" style="fill: none; stroke: #000000; stroke-opacity: 0.5; stroke-width: 6; stroke-linecap: square"/>
   </g>
   <g id="line2d_16">
    <path d="M 167.276938 151.109464 
L 169.678477 157.059825 
L 172.080016 163.319523 
L 176.883094 176.906191 
L 186.48925 205.185501 
L 196.095407 233.995053 
L 205.701563 261.332778 
L 210.504641 275.911097 
L 215.307719 290.485347 
L 224.913876 317.387601 
L 232.118493 335.505486 
L 234.520032 341.175874 
L 239.32311 350.945878 
L 244.126188 360.123675 
L 246.527727 365.145568 
L 251.330806 376.156311 
L 256.133884 386.641296 
L 260.936962 396.422959 
L 268.141579 410.262106 
L 272.944657 418.661266 
L 277.747735 426.4439 
L 282.550814 433.78208 
L 287.353892 440.422389 
L 294.558509 449.587333 
L 299.361587 455.294651 
L 304.164665 460.575088 
L 308.967743 465.41704 
L 311.369283 467.69044 
L 316.172361 472.631031 
L 318.5739 474.906417 
L 323.376978 478.967067 
L 325.778517 480.87602 
L 328.180056 482.259612 
L 332.983134 484.52142 
L 337.786212 486.51848 
L 344.99083 489.164401 
L 349.793908 490.646901 
L 361.801603 493.762448 
L 369.00622 495.418548 
L 373.809299 496.199836 
L 381.013916 497.062671 
L 385.816994 497.524215 
L 393.021611 498.912647 
L 407.430846 501.482993 
L 417.037002 503.000428 
L 426.643158 504.290986 
L 438.650854 505.674787 
L 448.25701 507.111406 
L 469.870862 508.604614 
L 479.477018 509.095207 
L 484.280096 509.197065 
L 515.500104 509.443608 
L 587.546277 509.685582 
L 609.160128 509.832534 
L 688.410918 510.270354 
L 738.843238 510.1338 
L 779.669403 510.436557 
L 803.684794 510.594811 
L 822.897106 510.704902 
L 837.306341 510.667621 
L 837.306341 510.667621 
" clip-path="url(#pede17bfeac)" style="fill: none; stroke: #d01e04; stroke-opacity: 0.5; stroke-width: 6; stroke-linecap: square"/>
   </g>
   <g id="line2d_17">
    <path d="M 116.844617 78.050469 
L 119.246156 79.709831 
L 121.647695 81.804381 
L 124.049234 83.493783 
L 126.450774 85.068819 
L 128.852313 86.702215 
L 131.253852 88.522636 
L 133.655391 90.503063 
L 136.05693 92.457606 
L 138.458469 94.527548 
L 140.860008 96.672045 
L 143.261547 100.658699 
L 145.663086 104.983369 
L 148.064625 109.598776 
L 150.466164 114.432954 
L 152.867703 119.378994 
L 155.269242 124.392246 
L 157.670782 129.637076 
L 160.072321 134.57379 
L 162.47386 139.905421 
L 164.875399 145.352 
" clip-path="url(#pede17bfeac)" style="fill: none; stroke: #000000; stroke-opacity: 0.5; stroke-width: 6; stroke-linecap: square"/>
   </g>
   <g id="patch_3">
    <path d="M 109.64 515.56 
L 109.64 52.8 
" style="fill: none; stroke: #000000; stroke-width: 0.8; stroke-linejoin: miter; stroke-linecap: square"/>
   </g>
   <g id="patch_4">
    <path d="M 109.64 515.56 
L 858.920192 515.56 
" style="fill: none; stroke: #000000; stroke-width: 0.8; stroke-linejoin: miter; stroke-linecap: square"/>
   </g>
   <g id="text_14">
    <!-- Western Canada &amp; USA -->
    <g transform="translate(326.960096 46.8)scale(0.24 -0.24)">
     <defs>
      <path id="DejaVuSans-Bold-57" d="M 191 4666 
L 1344 4666 
L 2150 1275 
L 2950 4666 
L 4109 4666 
L 4909 1275 
L 5716 4666 
L 6859 4666 
L 5759 0 
L 4372 0 
L 3525 3547 
L 2688 0 
L 1300 0 
L 191 4666 
z
" transform="scale(0.015625)"/>
      <path id="DejaVuSans-Bold-74" d="M 1759 4494 
L 1759 3500 
L 2913 3500 
L 2913 2700 
L 1759 2700 
L 1759 1216 
Q 1759 972 1856 886 
Q 1953 800 2241 800 
L 2816 800 
L 2816 0 
L 1856 0 
Q 1194 0 917 276 
Q 641 553 641 1216 
L 641 2700 
L 84 2700 
L 84 3500 
L 641 3500 
L 641 4494 
L 1759 4494 
z
" transform="scale(0.015625)"/>
      <path id="DejaVuSans-Bold-43" d="M 4288 256 
Q 3956 84 3597 -3 
Q 3238 -91 2847 -91 
Q 1681 -91 1000 561 
Q 319 1213 319 2328 
Q 319 3447 1000 4098 
Q 1681 4750 2847 4750 
Q 3238 4750 3597 4662 
Q 3956 4575 4288 4403 
L 4288 3438 
Q 3953 3666 3628 3772 
Q 3303 3878 2944 3878 
Q 2300 3878 1931 3465 
Q 1563 3053 1563 2328 
Q 1563 1606 1931 1193 
Q 2300 781 2944 781 
Q 3303 781 3628 887 
Q 3953 994 4288 1222 
L 4288 256 
z
" transform="scale(0.015625)"/>
      <path id="DejaVuSans-Bold-64" d="M 2919 2988 
L 2919 4863 
L 4044 4863 
L 4044 0 
L 2919 0 
L 2919 506 
Q 2688 197 2409 53 
Q 2131 -91 1766 -91 
Q 1119 -91 703 423 
Q 288 938 288 1747 
Q 288 2556 703 3070 
Q 1119 3584 1766 3584 
Q 2128 3584 2408 3439 
Q 2688 3294 2919 2988 
z
M 2181 722 
Q 2541 722 2730 984 
Q 2919 1247 2919 1747 
Q 2919 2247 2730 2509 
Q 2541 2772 2181 2772 
Q 1825 2772 1636 2509 
Q 1447 2247 1447 1747 
Q 1447 1247 1636 984 
Q 1825 722 2181 722 
z
" transform="scale(0.015625)"/>
      <path id="DejaVuSans-Bold-26" d="M 2497 3097 
L 3775 1691 
Q 3941 1909 4027 2181 
Q 4113 2453 4128 2797 
L 5100 2797 
Q 5053 2228 4879 1784 
Q 4706 1341 4397 1006 
L 5313 0 
L 3988 0 
L 3681 341 
Q 3353 122 2990 15 
Q 2628 -91 2222 -91 
Q 1400 -91 892 342 
Q 384 775 384 1459 
Q 384 1916 607 2267 
Q 831 2619 1338 2950 
Q 1206 3116 1143 3281 
Q 1081 3447 1081 3628 
Q 1081 4138 1478 4444 
Q 1875 4750 2534 4750 
Q 2819 4750 3126 4704 
Q 3434 4659 3769 4569 
L 3769 3700 
Q 3475 3850 3212 3922 
Q 2950 3994 2700 3994 
Q 2459 3994 2326 3901 
Q 2194 3809 2194 3641 
Q 2194 3534 2270 3398 
Q 2347 3263 2497 3097 
z
M 1875 2322 
Q 1672 2175 1569 1989 
Q 1466 1803 1466 1581 
Q 1466 1222 1731 969 
Q 1997 716 2369 716 
Q 2578 716 2759 780 
Q 2941 844 3097 972 
L 1875 2322 
z
" transform="scale(0.015625)"/>
      <path id="DejaVuSans-Bold-55" d="M 588 4666 
L 1791 4666 
L 1791 1869 
Q 1791 1291 1980 1042 
Q 2169 794 2597 794 
Q 3028 794 3217 1042 
Q 3406 1291 3406 1869 
L 3406 4666 
L 4609 4666 
L 4609 1869 
Q 4609 878 4112 393 
Q 3616 -91 2597 -91 
Q 1581 -91 1084 393 
Q 588 878 588 1869 
L 588 4666 
z
" transform="scale(0.015625)"/>
      <path id="DejaVuSans-Bold-53" d="M 3834 4519 
L 3834 3531 
Q 3450 3703 3084 3790 
Q 2719 3878 2394 3878 
Q 1963 3878 1756 3759 
Q 1550 3641 1550 3391 
Q 1550 3203 1689 3098 
Q 1828 2994 2194 2919 
L 2706 2816 
Q 3484 2659 3812 2340 
Q 4141 2022 4141 1434 
Q 4141 663 3683 286 
Q 3225 -91 2284 -91 
Q 1841 -91 1394 -6 
Q 947 78 500 244 
L 500 1259 
Q 947 1022 1364 901 
Q 1781 781 2169 781 
Q 2563 781 2772 912 
Q 2981 1044 2981 1288 
Q 2981 1506 2839 1625 
Q 2697 1744 2272 1838 
L 1806 1941 
Q 1106 2091 782 2419 
Q 459 2747 459 3303 
Q 459 4000 909 4375 
Q 1359 4750 2203 4750 
Q 2588 4750 2994 4692 
Q 3400 4634 3834 4519 
z
" transform="scale(0.015625)"/>
      <path id="DejaVuSans-Bold-41" d="M 3419 850 
L 1538 850 
L 1241 0 
L 31 0 
L 1759 4666 
L 3194 4666 
L 4922 0 
L 3713 0 
L 3419 850 
z
M 1838 1716 
L 3116 1716 
L 2478 3572 
L 1838 1716 
z
" transform="scale(0.015625)"/>
     </defs>
     <use xlink:href="#DejaVuSans-Bold-57"/>
     <use xlink:href="#DejaVuSans-Bold-65" x="106.677734"/>
     <use xlink:href="#DejaVuSans-Bold-73" x="174.5"/>
     <use xlink:href="#DejaVuSans-Bold-74" x="234.021484"/>
     <use xlink:href="#DejaVuSans-Bold-65" x="281.824219"/>
     <use xlink:href="#DejaVuSans-Bold-72" x="349.646484"/>
     <use xlink:href="#DejaVuSans-Bold-6e" x="398.962891"/>
     <use xlink:href="#DejaVuSans-Bold-20" x="470.154297"/>
     <use xlink:href="#DejaVuSans-Bold-43" x="504.96875"/>
     <use xlink:href="#DejaVuSans-Bold-61" x="578.357422"/>
     <use xlink:href="#DejaVuSans-Bold-6e" x="645.837891"/>
     <use xlink:href="#DejaVuSans-Bold-61" x="717.029297"/>
     <use xlink:href="#DejaVuSans-Bold-64" x="784.509766"/>
     <use xlink:href="#DejaVuSans-Bold-61" x="856.091797"/>
     <use xlink:href="#DejaVuSans-Bold-20" x="923.572266"/>
     <use xlink:href="#DejaVuSans-Bold-26" x="958.386719"/>
     <use xlink:href="#DejaVuSans-Bold-20" x="1045.59375"/>
     <use xlink:href="#DejaVuSans-Bold-55" x="1080.408203"/>
     <use xlink:href="#DejaVuSans-Bold-53" x="1161.609375"/>
     <use xlink:href="#DejaVuSans-Bold-41" x="1233.630859"/>
    </g>
   </g>
   <g id="legend_1">
    <g id="patch_5">
     <path d="M 597.903942 225.737875 
L 843.520192 225.737875 
Q 847.920192 225.737875 847.920192 221.337875 
L 847.920192 68.2 
Q 847.920192 63.8 843.520192 63.8 
L 597.903942 63.8 
Q 593.503942 63.8 593.503942 68.2 
L 593.503942 221.337875 
Q 593.503942 225.737875 597.903942 225.737875 
z
" style="fill: #ffffff; opacity: 0.6; stroke: #cccccc; stroke-linejoin: miter"/>
    </g>
    <g id="text_15">
     <!-- Global mean -->
     <g transform="translate(602.303942 89.316563)scale(0.22 -0.22)">
      <defs>
       <path id="DejaVuSans-47" d="M 3809 666 
L 3809 1919 
L 2778 1919 
L 2778 2438 
L 4434 2438 
L 4434 434 
Q 4069 175 3628 42 
Q 3188 -91 2688 -91 
Q 1594 -91 976 548 
Q 359 1188 359 2328 
Q 359 3472 976 4111 
Q 1594 4750 2688 4750 
Q 3144 4750 3555 4637 
Q 3966 4525 4313 4306 
L 4313 3634 
Q 3963 3931 3569 4081 
Q 3175 4231 2741 4231 
Q 1884 4231 1454 3753 
Q 1025 3275 1025 2328 
Q 1025 1384 1454 906 
Q 1884 428 2741 428 
Q 3075 428 3337 486 
Q 3600 544 3809 666 
z
" transform="scale(0.015625)"/>
       <path id="DejaVuSans-6c" d="M 603 4863 
L 1178 4863 
L 1178 0 
L 603 0 
L 603 4863 
z
" transform="scale(0.015625)"/>
       <path id="DejaVuSans-6f" d="M 1959 3097 
Q 1497 3097 1228 2736 
Q 959 2375 959 1747 
Q 959 1119 1226 758 
Q 1494 397 1959 397 
Q 2419 397 2687 759 
Q 2956 1122 2956 1747 
Q 2956 2369 2687 2733 
Q 2419 3097 1959 3097 
z
M 1959 3584 
Q 2709 3584 3137 3096 
Q 3566 2609 3566 1747 
Q 3566 888 3137 398 
Q 2709 -91 1959 -91 
Q 1206 -91 779 398 
Q 353 888 353 1747 
Q 353 2609 779 3096 
Q 1206 3584 1959 3584 
z
" transform="scale(0.015625)"/>
       <path id="DejaVuSans-62" d="M 3116 1747 
Q 3116 2381 2855 2742 
Q 2594 3103 2138 3103 
Q 1681 3103 1420 2742 
Q 1159 2381 1159 1747 
Q 1159 1113 1420 752 
Q 1681 391 2138 391 
Q 2594 391 2855 752 
Q 3116 1113 3116 1747 
z
M 1159 2969 
Q 1341 3281 1617 3432 
Q 1894 3584 2278 3584 
Q 2916 3584 3314 3078 
Q 3713 2572 3713 1747 
Q 3713 922 3314 415 
Q 2916 -91 2278 -91 
Q 1894 -91 1617 61 
Q 1341 213 1159 525 
L 1159 0 
L 581 0 
L 581 4863 
L 1159 4863 
L 1159 2969 
z
" transform="scale(0.015625)"/>
       <path id="DejaVuSans-61" d="M 2194 1759 
Q 1497 1759 1228 1600 
Q 959 1441 959 1056 
Q 959 750 1161 570 
Q 1363 391 1709 391 
Q 2188 391 2477 730 
Q 2766 1069 2766 1631 
L 2766 1759 
L 2194 1759 
z
M 3341 1997 
L 3341 0 
L 2766 0 
L 2766 531 
Q 2569 213 2275 61 
Q 1981 -91 1556 -91 
Q 1019 -91 701 211 
Q 384 513 384 1019 
Q 384 1609 779 1909 
Q 1175 2209 1959 2209 
L 2766 2209 
L 2766 2266 
Q 2766 2663 2505 2880 
Q 2244 3097 1772 3097 
Q 1472 3097 1187 3025 
Q 903 2953 641 2809 
L 641 3341 
Q 956 3463 1253 3523 
Q 1550 3584 1831 3584 
Q 2591 3584 2966 3190 
Q 3341 2797 3341 1997 
z
" transform="scale(0.015625)"/>
       <path id="DejaVuSans-20" transform="scale(0.015625)"/>
       <path id="DejaVuSans-6d" d="M 3328 2828 
Q 3544 3216 3844 3400 
Q 4144 3584 4550 3584 
Q 5097 3584 5394 3201 
Q 5691 2819 5691 2113 
L 5691 0 
L 5113 0 
L 5113 2094 
Q 5113 2597 4934 2840 
Q 4756 3084 4391 3084 
Q 3944 3084 3684 2787 
Q 3425 2491 3425 1978 
L 3425 0 
L 2847 0 
L 2847 2094 
Q 2847 2600 2669 2842 
Q 2491 3084 2119 3084 
Q 1678 3084 1418 2786 
Q 1159 2488 1159 1978 
L 1159 0 
L 581 0 
L 581 3500 
L 1159 3500 
L 1159 2956 
Q 1356 3278 1631 3431 
Q 1906 3584 2284 3584 
Q 2666 3584 2933 3390 
Q 3200 3197 3328 2828 
z
" transform="scale(0.015625)"/>
       <path id="DejaVuSans-65" d="M 3597 1894 
L 3597 1613 
L 953 1613 
Q 991 1019 1311 708 
Q 1631 397 2203 397 
Q 2534 397 2845 478 
Q 3156 559 3463 722 
L 3463 178 
Q 3153 47 2828 -22 
Q 2503 -91 2169 -91 
Q 1331 -91 842 396 
Q 353 884 353 1716 
Q 353 2575 817 3079 
Q 1281 3584 2069 3584 
Q 2775 3584 3186 3129 
Q 3597 2675 3597 1894 
z
M 3022 2063 
Q 3016 2534 2758 2815 
Q 2500 3097 2075 3097 
Q 1594 3097 1305 2825 
Q 1016 2553 972 2059 
L 3022 2063 
z
" transform="scale(0.015625)"/>
       <path id="DejaVuSans-6e" d="M 3513 2113 
L 3513 0 
L 2938 0 
L 2938 2094 
Q 2938 2591 2744 2837 
Q 2550 3084 2163 3084 
Q 1697 3084 1428 2787 
Q 1159 2491 1159 1978 
L 1159 0 
L 581 0 
L 581 3500 
L 1159 3500 
L 1159 2956 
Q 1366 3272 1645 3428 
Q 1925 3584 2291 3584 
Q 2894 3584 3203 3211 
Q 3513 2838 3513 2113 
z
" transform="scale(0.015625)"/>
      </defs>
      <use xlink:href="#DejaVuSans-47"/>
      <use xlink:href="#DejaVuSans-6c" x="77.490234"/>
      <use xlink:href="#DejaVuSans-6f" x="105.273438"/>
      <use xlink:href="#DejaVuSans-62" x="166.455078"/>
      <use xlink:href="#DejaVuSans-61" x="229.931641"/>
      <use xlink:href="#DejaVuSans-6c" x="291.210938"/>
      <use xlink:href="#DejaVuSans-20" x="318.994141"/>
      <use xlink:href="#DejaVuSans-6d" x="350.78125"/>
      <use xlink:href="#DejaVuSans-65" x="448.193359"/>
      <use xlink:href="#DejaVuSans-61" x="509.716797"/>
      <use xlink:href="#DejaVuSans-6e" x="570.996094"/>
     </g>
     <!-- temperature above -->
     <g transform="translate(602.303942 113.95175)scale(0.22 -0.22)">
      <defs>
       <path id="DejaVuSans-74" d="M 1172 4494 
L 1172 3500 
L 2356 3500 
L 2356 3053 
L 1172 3053 
L 1172 1153 
Q 1172 725 1289 603 
Q 1406 481 1766 481 
L 2356 481 
L 2356 0 
L 1766 0 
Q 1100 0 847 248 
Q 594 497 594 1153 
L 594 3053 
L 172 3053 
L 172 3500 
L 594 3500 
L 594 4494 
L 1172 4494 
z
" transform="scale(0.015625)"/>
       <path id="DejaVuSans-70" d="M 1159 525 
L 1159 -1331 
L 581 -1331 
L 581 3500 
L 1159 3500 
L 1159 2969 
Q 1341 3281 1617 3432 
Q 1894 3584 2278 3584 
Q 2916 3584 3314 3078 
Q 3713 2572 3713 1747 
Q 3713 922 3314 415 
Q 2916 -91 2278 -91 
Q 1894 -91 1617 61 
Q 1341 213 1159 525 
z
M 3116 1747 
Q 3116 2381 2855 2742 
Q 2594 3103 2138 3103 
Q 1681 3103 1420 2742 
Q 1159 2381 1159 1747 
Q 1159 1113 1420 752 
Q 1681 391 2138 391 
Q 2594 391 2855 752 
Q 3116 1113 3116 1747 
z
" transform="scale(0.015625)"/>
       <path id="DejaVuSans-72" d="M 2631 2963 
Q 2534 3019 2420 3045 
Q 2306 3072 2169 3072 
Q 1681 3072 1420 2755 
Q 1159 2438 1159 1844 
L 1159 0 
L 581 0 
L 581 3500 
L 1159 3500 
L 1159 2956 
Q 1341 3275 1631 3429 
Q 1922 3584 2338 3584 
Q 2397 3584 2469 3576 
Q 2541 3569 2628 3553 
L 2631 2963 
z
" transform="scale(0.015625)"/>
       <path id="DejaVuSans-75" d="M 544 1381 
L 544 3500 
L 1119 3500 
L 1119 1403 
Q 1119 906 1312 657 
Q 1506 409 1894 409 
Q 2359 409 2629 706 
Q 2900 1003 2900 1516 
L 2900 3500 
L 3475 3500 
L 3475 0 
L 2900 0 
L 2900 538 
Q 2691 219 2414 64 
Q 2138 -91 1772 -91 
Q 1169 -91 856 284 
Q 544 659 544 1381 
z
M 1991 3584 
L 1991 3584 
z
" transform="scale(0.015625)"/>
       <path id="DejaVuSans-76" d="M 191 3500 
L 800 3500 
L 1894 563 
L 2988 3500 
L 3597 3500 
L 2284 0 
L 1503 0 
L 191 3500 
z
" transform="scale(0.015625)"/>
      </defs>
      <use xlink:href="#DejaVuSans-74"/>
      <use xlink:href="#DejaVuSans-65" x="39.208984"/>
      <use xlink:href="#DejaVuSans-6d" x="100.732422"/>
      <use xlink:href="#DejaVuSans-70" x="198.144531"/>
      <use xlink:href="#DejaVuSans-65" x="261.621094"/>
      <use xlink:href="#DejaVuSans-72" x="323.144531"/>
      <use xlink:href="#DejaVuSans-61" x="364.257812"/>
      <use xlink:href="#DejaVuSans-74" x="425.537109"/>
      <use xlink:href="#DejaVuSans-75" x="464.746094"/>
      <use xlink:href="#DejaVuSans-72" x="528.125"/>
      <use xlink:href="#DejaVuSans-65" x="566.988281"/>
      <use xlink:href="#DejaVuSans-20" x="628.511719"/>
      <use xlink:href="#DejaVuSans-61" x="660.298828"/>
      <use xlink:href="#DejaVuSans-62" x="721.578125"/>
      <use xlink:href="#DejaVuSans-6f" x="785.054688"/>
      <use xlink:href="#DejaVuSans-76" x="846.236328"/>
      <use xlink:href="#DejaVuSans-65" x="905.416016"/>
     </g>
     <!-- pre-industrial in 2100 -->
     <g transform="translate(602.303942 138.586938)scale(0.22 -0.22)">
      <defs>
       <path id="DejaVuSans-2d" d="M 313 2009 
L 1997 2009 
L 1997 1497 
L 313 1497 
L 313 2009 
z
" transform="scale(0.015625)"/>
       <path id="DejaVuSans-69" d="M 603 3500 
L 1178 3500 
L 1178 0 
L 603 0 
L 603 3500 
z
M 603 4863 
L 1178 4863 
L 1178 4134 
L 603 4134 
L 603 4863 
z
" transform="scale(0.015625)"/>
       <path id="DejaVuSans-64" d="M 2906 2969 
L 2906 4863 
L 3481 4863 
L 3481 0 
L 2906 0 
L 2906 525 
Q 2725 213 2448 61 
Q 2172 -91 1784 -91 
Q 1150 -91 751 415 
Q 353 922 353 1747 
Q 353 2572 751 3078 
Q 1150 3584 1784 3584 
Q 2172 3584 2448 3432 
Q 2725 3281 2906 2969 
z
M 947 1747 
Q 947 1113 1208 752 
Q 1469 391 1925 391 
Q 2381 391 2643 752 
Q 2906 1113 2906 1747 
Q 2906 2381 2643 2742 
Q 2381 3103 1925 3103 
Q 1469 3103 1208 2742 
Q 947 2381 947 1747 
z
" transform="scale(0.015625)"/>
       <path id="DejaVuSans-73" d="M 2834 3397 
L 2834 2853 
Q 2591 2978 2328 3040 
Q 2066 3103 1784 3103 
Q 1356 3103 1142 2972 
Q 928 2841 928 2578 
Q 928 2378 1081 2264 
Q 1234 2150 1697 2047 
L 1894 2003 
Q 2506 1872 2764 1633 
Q 3022 1394 3022 966 
Q 3022 478 2636 193 
Q 2250 -91 1575 -91 
Q 1294 -91 989 -36 
Q 684 19 347 128 
L 347 722 
Q 666 556 975 473 
Q 1284 391 1588 391 
Q 1994 391 2212 530 
Q 2431 669 2431 922 
Q 2431 1156 2273 1281 
Q 2116 1406 1581 1522 
L 1381 1569 
Q 847 1681 609 1914 
Q 372 2147 372 2553 
Q 372 3047 722 3315 
Q 1072 3584 1716 3584 
Q 2034 3584 2315 3537 
Q 2597 3491 2834 3397 
z
" transform="scale(0.015625)"/>
      </defs>
      <use xlink:href="#DejaVuSans-70"/>
      <use xlink:href="#DejaVuSans-72" x="63.476562"/>
      <use xlink:href="#DejaVuSans-65" x="102.339844"/>
      <use xlink:href="#DejaVuSans-2d" x="163.863281"/>
      <use xlink:href="#DejaVuSans-69" x="199.947266"/>
      <use xlink:href="#DejaVuSans-6e" x="227.730469"/>
      <use xlink:href="#DejaVuSans-64" x="291.109375"/>
      <use xlink:href="#DejaVuSans-75" x="354.585938"/>
      <use xlink:href="#DejaVuSans-73" x="417.964844"/>
      <use xlink:href="#DejaVuSans-74" x="470.064453"/>
      <use xlink:href="#DejaVuSans-72" x="509.273438"/>
      <use xlink:href="#DejaVuSans-69" x="550.386719"/>
      <use xlink:href="#DejaVuSans-61" x="578.169922"/>
      <use xlink:href="#DejaVuSans-6c" x="639.449219"/>
      <use xlink:href="#DejaVuSans-20" x="667.232422"/>
      <use xlink:href="#DejaVuSans-69" x="699.019531"/>
      <use xlink:href="#DejaVuSans-6e" x="726.802734"/>
      <use xlink:href="#DejaVuSans-20" x="790.181641"/>
      <use xlink:href="#DejaVuSans-32" x="821.96875"/>
      <use xlink:href="#DejaVuSans-31" x="885.591797"/>
      <use xlink:href="#DejaVuSans-30" x="949.214844"/>
      <use xlink:href="#DejaVuSans-30" x="1012.837891"/>
     </g>
    </g>
    <g id="line2d_18">
     <path d="M 616.971755 155.478813 
L 638.971755 155.478813 
L 660.971755 155.478813 
" style="fill: none; stroke: #74b8f8; stroke-opacity: 0.5; stroke-width: 6; stroke-linecap: square"/>
    </g>
    <g id="text_16">
     <!-- 1.5C (n=2) -->
     <g transform="translate(678.571755 163.178813)scale(0.22 -0.22)">
      <defs>
       <path id="DejaVuSans-2e" d="M 684 794 
L 1344 794 
L 1344 0 
L 684 0 
L 684 794 
z
" transform="scale(0.015625)"/>
       <path id="DejaVuSans-35" d="M 691 4666 
L 3169 4666 
L 3169 4134 
L 1269 4134 
L 1269 2991 
Q 1406 3038 1543 3061 
Q 1681 3084 1819 3084 
Q 2600 3084 3056 2656 
Q 3513 2228 3513 1497 
Q 3513 744 3044 326 
Q 2575 -91 1722 -91 
Q 1428 -91 1123 -41 
Q 819 9 494 109 
L 494 744 
Q 775 591 1075 516 
Q 1375 441 1709 441 
Q 2250 441 2565 725 
Q 2881 1009 2881 1497 
Q 2881 1984 2565 2268 
Q 2250 2553 1709 2553 
Q 1456 2553 1204 2497 
Q 953 2441 691 2322 
L 691 4666 
z
" transform="scale(0.015625)"/>
       <path id="DejaVuSans-b0" d="M 1600 4347 
Q 1350 4347 1178 4173 
Q 1006 4000 1006 3750 
Q 1006 3503 1178 3333 
Q 1350 3163 1600 3163 
Q 1850 3163 2022 3333 
Q 2194 3503 2194 3750 
Q 2194 3997 2020 4172 
Q 1847 4347 1600 4347 
z
M 1600 4750 
Q 1800 4750 1984 4673 
Q 2169 4597 2303 4453 
Q 2447 4313 2519 4134 
Q 2591 3956 2591 3750 
Q 2591 3338 2302 3052 
Q 2013 2766 1594 2766 
Q 1172 2766 890 3047 
Q 609 3328 609 3750 
Q 609 4169 896 4459 
Q 1184 4750 1600 4750 
z
" transform="scale(0.015625)"/>
       <path id="DejaVuSans-43" d="M 4122 4306 
L 4122 3641 
Q 3803 3938 3442 4084 
Q 3081 4231 2675 4231 
Q 1875 4231 1450 3742 
Q 1025 3253 1025 2328 
Q 1025 1406 1450 917 
Q 1875 428 2675 428 
Q 3081 428 3442 575 
Q 3803 722 4122 1019 
L 4122 359 
Q 3791 134 3420 21 
Q 3050 -91 2638 -91 
Q 1578 -91 968 557 
Q 359 1206 359 2328 
Q 359 3453 968 4101 
Q 1578 4750 2638 4750 
Q 3056 4750 3426 4639 
Q 3797 4528 4122 4306 
z
" transform="scale(0.015625)"/>
       <path id="DejaVuSans-28" d="M 1984 4856 
Q 1566 4138 1362 3434 
Q 1159 2731 1159 2009 
Q 1159 1288 1364 580 
Q 1569 -128 1984 -844 
L 1484 -844 
Q 1016 -109 783 600 
Q 550 1309 550 2009 
Q 550 2706 781 3412 
Q 1013 4119 1484 4856 
L 1984 4856 
z
" transform="scale(0.015625)"/>
       <path id="DejaVuSans-3d" d="M 678 2906 
L 4684 2906 
L 4684 2381 
L 678 2381 
L 678 2906 
z
M 678 1631 
L 4684 1631 
L 4684 1100 
L 678 1100 
L 678 1631 
z
" transform="scale(0.015625)"/>
       <path id="DejaVuSans-29" d="M 513 4856 
L 1013 4856 
Q 1481 4119 1714 3412 
Q 1947 2706 1947 2009 
Q 1947 1309 1714 600 
Q 1481 -109 1013 -844 
L 513 -844 
Q 928 -128 1133 580 
Q 1338 1288 1338 2009 
Q 1338 2731 1133 3434 
Q 928 4138 513 4856 
z
" transform="scale(0.015625)"/>
      </defs>
      <use xlink:href="#DejaVuSans-31"/>
      <use xlink:href="#DejaVuSans-2e" x="63.623047"/>
      <use xlink:href="#DejaVuSans-35" x="95.410156"/>
      <use xlink:href="#DejaVuSans-b0" x="159.033203"/>
      <use xlink:href="#DejaVuSans-43" x="209.033203"/>
      <use xlink:href="#DejaVuSans-20" x="278.857422"/>
      <use xlink:href="#DejaVuSans-28" x="310.644531"/>
      <use xlink:href="#DejaVuSans-6e" x="349.658203"/>
      <use xlink:href="#DejaVuSans-3d" x="413.037109"/>
      <use xlink:href="#DejaVuSans-32" x="496.826172"/>
      <use xlink:href="#DejaVuSans-29" x="560.449219"/>
     </g>
    </g>
    <g id="line2d_19">
     <path d="M 616.971755 180.070688 
L 638.971755 180.070688 
L 660.971755 180.070688 
" style="fill: none; stroke: #f47100; stroke-opacity: 0.5; stroke-width: 6; stroke-linecap: square"/>
    </g>
    <g id="text_17">
     <!-- 2.2C (n=14) -->
     <g transform="translate(678.571755 187.770688)scale(0.22 -0.22)">
      <use xlink:href="#DejaVuSans-32"/>
      <use xlink:href="#DejaVuSans-2e" x="63.623047"/>
      <use xlink:href="#DejaVuSans-32" x="95.410156"/>
      <use xlink:href="#DejaVuSans-b0" x="159.033203"/>
      <use xlink:href="#DejaVuSans-43" x="209.033203"/>
      <use xlink:href="#DejaVuSans-20" x="278.857422"/>
      <use xlink:href="#DejaVuSans-28" x="310.644531"/>
      <use xlink:href="#DejaVuSans-6e" x="349.658203"/>
      <use xlink:href="#DejaVuSans-3d" x="413.037109"/>
      <use xlink:href="#DejaVuSans-31" x="496.826172"/>
      <use xlink:href="#DejaVuSans-34" x="560.449219"/>
      <use xlink:href="#DejaVuSans-29" x="624.072266"/>
     </g>
    </g>
    <g id="line2d_20">
     <path d="M 616.971755 204.662563 
L 638.971755 204.662563 
L 660.971755 204.662563 
" style="fill: none; stroke: #d01e04; stroke-opacity: 0.5; stroke-width: 6; stroke-linecap: square"/>
    </g>
    <g id="text_18">
     <!-- 2.8C (n=12) -->
     <g transform="translate(678.571755 212.362563)scale(0.22 -0.22)">
      <use xlink:href="#DejaVuSans-32"/>
      <use xlink:href="#DejaVuSans-2e" x="63.623047"/>
      <use xlink:href="#DejaVuSans-38" x="95.410156"/>
      <use xlink:href="#DejaVuSans-b0" x="159.033203"/>
      <use xlink:href="#DejaVuSans-43" x="209.033203"/>
      <use xlink:href="#DejaVuSans-20" x="278.857422"/>
      <use xlink:href="#DejaVuSans-28" x="310.644531"/>
      <use xlink:href="#DejaVuSans-6e" x="349.658203"/>
      <use xlink:href="#DejaVuSans-3d" x="413.037109"/>
      <use xlink:href="#DejaVuSans-31" x="496.826172"/>
      <use xlink:href="#DejaVuSans-32" x="560.449219"/>
      <use xlink:href="#DejaVuSans-29" x="624.072266"/>
     </g>
    </g>
   </g>
  </g>
 </g>
 <defs>
  <clipPath id="pede17bfeac">
   <rect x="109.64" y="52.8" width="749.280192" height="462.76"/>
  </clipPath>
 </defs>
</svg>
