<?xml version="1.0" encoding="utf-8" standalone="no"?>
<!DOCTYPE svg PUBLIC "-//W3C//DTD SVG 1.1//EN"
  "http://www.w3.org/Graphics/SVG/1.1/DTD/svg11.dtd">
<svg xmlns:xlink="http://www.w3.org/1999/xlink" width="900pt" height="600pt" viewBox="0 0 900 600" xmlns="http://www.w3.org/2000/svg" version="1.1">
 <metadata>
  <rdf:RDF xmlns:dc="http://purl.org/dc/elements/1.1/" xmlns:cc="http://creativecommons.org/ns#" xmlns:rdf="http://www.w3.org/1999/02/22-rdf-syntax-ns#">
   <cc:Work>
    <dc:type rdf:resource="http://purl.org/dc/dcmitype/StillImage"/>
    <dc:date>2024-10-31T18:28:40.802961</dc:date>
    <dc:format>image/svg+xml</dc:format>
    <dc:creator>
     <cc:Agent>
      <dc:title>Matplotlib v3.5.3, https://matplotlib.org/</dc:title>
     </cc:Agent>
    </dc:creator>
   </cc:Work>
  </rdf:RDF>
 </metadata>
 <defs>
  <style type="text/css">*{stroke-linejoin: round; stroke-linecap: butt}</style>
 </defs>
 <g id="figure_1">
  <g id="patch_1">
   <path d="M 0 600 
L 900 600 
L 900 0 
L 0 0 
z
" style="fill: #ffffff"/>
  </g>
  <g id="axes_1">
   <g id="patch_2">
    <path d="M 109.64 515.56 
L 858.920192 515.56 
L 858.920192 52.8 
L 109.64 52.8 
z
" style="fill: #ffffff"/>
   </g>
   <g id="PolyCollection_1">
    <defs>
     <path id="m271f7b042f" d="M 167.276938 -454.391179 
L 167.276938 -454.333201 
L 169.678477 -454.018898 
L 172.080016 -453.696973 
L 174.481555 -453.377442 
L 176.883094 -453.054218 
L 179.284633 -452.716275 
L 181.686172 -452.371966 
L 184.087711 -452.008565 
L 186.48925 -451.639176 
L 188.89079 -451.268328 
L 191.292329 -450.904106 
L 193.693868 -450.531928 
L 196.095407 -450.163137 
L 198.496946 -449.778919 
L 200.898485 -449.394022 
L 203.300024 -448.99924 
L 205.701563 -448.592521 
L 208.103102 -448.188039 
L 210.504641 -447.774362 
L 212.90618 -447.358301 
L 215.307719 -446.928163 
L 217.709259 -446.505607 
L 220.110798 -446.088455 
L 222.512337 -445.661315 
L 224.913876 -445.255909 
L 227.315415 -444.857725 
L 229.716954 -444.478998 
L 232.118493 -444.118871 
L 234.520032 -443.794806 
L 236.921571 -443.485074 
L 239.32311 -443.175372 
L 241.724649 -442.873731 
L 244.126188 -442.569484 
L 246.527727 -442.286756 
L 248.929267 -442.014291 
L 251.330806 -441.741305 
L 253.732345 -441.474645 
L 256.133884 -441.227778 
L 258.535423 -440.980413 
L 260.936962 -440.727404 
L 263.338501 -440.486074 
L 265.74004 -440.233387 
L 268.141579 -439.976963 
L 270.543118 -439.735124 
L 272.944657 -439.481065 
L 275.346196 -439.221584 
L 277.747735 -438.955739 
L 280.149275 -438.689319 
L 282.550814 -438.389796 
L 284.952353 -438.083662 
L 287.353892 -437.77635 
L 289.755431 -437.471863 
L 292.15697 -437.176563 
L 294.558509 -436.877835 
L 296.960048 -436.562391 
L 299.361587 -436.25747 
L 301.763126 -435.966224 
L 304.164665 -435.667965 
L 306.566204 -435.389586 
L 308.967743 -435.123649 
L 311.369283 -434.862704 
L 313.770822 -434.608448 
L 316.172361 -434.367967 
L 318.5739 -434.112643 
L 320.975439 -433.873303 
L 323.376978 -433.637531 
L 325.778517 -433.389813 
L 328.180056 -433.122359 
L 330.581595 -432.864666 
L 332.983134 -432.587248 
L 335.384673 -432.300959 
L 337.786212 -431.998958 
L 340.187751 -431.687526 
L 342.589291 -431.373873 
L 344.99083 -431.055394 
L 347.392369 -430.728335 
L 349.793908 -430.389063 
L 352.195447 -430.030521 
L 354.596986 -429.661641 
L 356.998525 -429.293344 
L 359.400064 -428.919886 
L 361.801603 -428.550064 
L 364.203142 -428.169269 
L 366.604681 -427.80421 
L 369.00622 -427.441184 
L 371.407759 -427.093111 
L 373.809299 -426.754724 
L 376.210838 -426.433602 
L 378.612377 -426.115597 
L 381.013916 -425.811694 
L 383.415455 -425.520811 
L 385.816994 -425.258554 
L 388.218533 -425.009444 
L 390.620072 -424.764588 
L 393.021611 -424.543816 
L 395.42315 -424.33212 
L 397.824689 -424.139044 
L 400.226228 -423.958662 
L 402.627768 -423.775364 
L 405.029307 -423.593967 
L 407.430846 -423.424316 
L 409.832385 -423.262723 
L 412.233924 -423.112516 
L 414.635463 -422.954366 
L 417.037002 -422.772496 
L 419.438541 -422.580149 
L 421.84008 -422.377556 
L 424.241619 -422.173051 
L 426.643158 -421.959292 
L 429.044697 -421.753455 
L 431.446236 -421.544019 
L 433.847776 -421.328554 
L 436.249315 -421.109454 
L 438.650854 -420.879354 
L 441.052393 -420.640008 
L 443.453932 -420.399037 
L 445.855471 -420.154828 
L 448.25701 -419.920412 
L 450.658549 -419.693973 
L 453.060088 -419.464247 
L 455.461627 -419.224203 
L 457.863166 -418.991075 
L 460.264705 -418.765752 
L 462.666244 -418.547492 
L 465.067784 -418.347575 
L 467.469323 -418.145004 
L 469.870862 -417.955361 
L 472.272401 -417.782263 
L 474.67394 -417.629578 
L 477.075479 -417.480524 
L 479.477018 -417.329197 
L 481.878557 -417.173658 
L 484.280096 -417.015142 
L 486.681635 -416.859926 
L 489.083174 -416.71311 
L 491.484713 -416.567273 
L 493.886252 -416.406917 
L 496.287792 -416.241217 
L 498.689331 -416.085599 
L 501.09087 -415.920052 
L 503.492409 -415.757306 
L 505.893948 -415.595209 
L 508.295487 -415.421496 
L 510.697026 -415.236891 
L 513.098565 -415.046881 
L 515.500104 -414.850046 
L 517.901643 -414.652629 
L 520.303182 -414.44656 
L 522.704721 -414.25079 
L 525.10626 -414.056349 
L 527.5078 -413.876119 
L 529.909339 -413.701363 
L 532.310878 -413.542753 
L 534.712417 -413.402703 
L 537.113956 -413.270774 
L 539.515495 -413.143883 
L 541.917034 -413.033774 
L 544.318573 -412.932683 
L 546.720112 -412.822459 
L 549.121651 -412.724338 
L 551.52319 -412.643363 
L 553.924729 -412.560885 
L 556.326268 -412.483444 
L 558.727808 -412.412954 
L 561.129347 -412.341182 
L 563.530886 -412.272655 
L 565.932425 -412.207004 
L 568.333964 -412.155864 
L 570.735503 -412.095521 
L 573.137042 -412.028144 
L 575.538581 -411.958579 
L 577.94012 -411.895181 
L 580.341659 -411.827004 
L 582.743198 -411.746676 
L 585.144737 -411.664146 
L 587.546277 -411.564802 
L 589.947816 -411.462982 
L 592.349355 -411.360446 
L 594.750894 -411.262771 
L 597.152433 -411.172012 
L 599.553972 -411.071845 
L 601.955511 -410.974573 
L 604.35705 -410.876217 
L 606.758589 -410.772753 
L 609.160128 -410.676895 
L 611.561667 -410.589894 
L 613.963206 -410.503879 
L 616.364745 -410.408739 
L 618.766285 -410.316512 
L 621.167824 -410.228742 
L 623.569363 -410.137819 
L 625.970902 -410.045657 
L 628.372441 -409.963105 
L 630.77398 -409.892071 
L 633.175519 -409.822604 
L 635.577058 -409.769173 
L 637.978597 -409.715844 
L 640.380136 -409.661678 
L 642.781675 -409.622696 
L 645.183214 -409.583302 
L 647.584753 -409.558668 
L 649.986293 -409.53711 
L 652.387832 -409.518176 
L 654.789371 -409.520387 
L 657.19091 -409.516276 
L 659.592449 -409.502397 
L 661.993988 -409.471114 
L 664.395527 -409.427841 
L 666.797066 -409.379507 
L 669.198605 -409.32908 
L 671.600144 -409.275491 
L 674.001683 -409.230567 
L 676.403222 -409.177089 
L 678.804761 -409.122041 
L 681.206301 -409.060391 
L 683.60784 -408.995394 
L 686.009379 -408.916732 
L 688.410918 -408.835758 
L 690.812457 -408.738271 
L 693.213996 -408.633109 
L 695.615535 -408.507601 
L 698.017074 -408.373368 
L 700.418613 -408.2376 
L 702.820152 -408.098211 
L 705.221691 -407.97196 
L 707.62323 -407.866734 
L 710.024769 -407.77933 
L 712.426309 -407.701356 
L 714.827848 -407.621706 
L 717.229387 -407.544268 
L 719.630926 -407.462639 
L 722.032465 -407.36734 
L 724.434004 -407.2635 
L 726.835543 -407.154088 
L 729.237082 -407.056226 
L 731.638621 -406.970216 
L 734.04016 -406.910035 
L 736.441699 -406.857342 
L 738.843238 -406.798801 
L 741.244777 -406.735158 
L 743.646317 -406.668521 
L 746.047856 -406.584327 
L 748.449395 -406.487531 
L 750.850934 -406.386271 
L 753.252473 -406.28556 
L 755.654012 -406.191744 
L 758.055551 -406.108655 
L 760.45709 -406.036599 
L 762.858629 -405.962967 
L 765.260168 -405.891802 
L 767.661707 -405.827079 
L 770.063246 -405.75931 
L 772.464786 -405.694962 
L 774.866325 -405.635522 
L 777.267864 -405.581014 
L 779.669403 -405.526064 
L 782.070942 -405.458874 
L 784.472481 -405.385263 
L 786.87402 -405.317382 
L 789.275559 -405.265407 
L 791.677098 -405.231681 
L 794.078637 -405.197229 
L 796.480176 -405.178455 
L 798.881715 -405.153961 
L 801.283254 -405.11755 
L 803.684794 -405.054455 
L 806.086333 -404.96813 
L 808.487872 -404.867556 
L 810.889411 -404.774008 
L 813.29095 -404.668594 
L 815.692489 -404.550768 
L 818.094028 -404.520277 
L 820.495567 -404.496236 
L 822.897106 -404.469159 
L 825.298645 -404.424271 
L 827.700184 -404.366931 
L 830.101723 -404.312764 
L 832.503262 -404.253958 
L 834.904802 -404.192663 
L 837.306341 -404.113913 
L 837.306341 -441.238493 
L 837.306341 -441.238493 
L 834.904802 -441.254095 
L 832.503262 -441.23879 
L 830.101723 -441.221266 
L 827.700184 -441.197258 
L 825.298645 -441.185282 
L 822.897106 -441.15095 
L 820.495567 -441.082095 
L 818.094028 -441.0062 
L 815.692489 -440.939759 
L 813.29095 -440.902216 
L 810.889411 -440.839934 
L 808.487872 -440.753174 
L 806.086333 -440.680848 
L 803.684794 -440.589396 
L 801.283254 -440.457383 
L 798.881715 -440.268961 
L 796.480176 -440.058268 
L 794.078637 -439.836196 
L 791.677098 -439.63699 
L 789.275559 -439.438255 
L 786.87402 -439.271247 
L 784.472481 -439.132402 
L 782.070942 -439.001575 
L 779.669403 -438.855971 
L 777.267864 -438.683636 
L 774.866325 -438.508159 
L 772.464786 -438.340385 
L 770.063246 -438.182423 
L 767.661707 -438.032694 
L 765.260168 -437.877601 
L 762.858629 -437.744405 
L 760.45709 -437.618295 
L 758.055551 -437.487992 
L 755.654012 -437.376161 
L 753.252473 -437.284564 
L 750.850934 -437.210053 
L 748.449395 -437.136486 
L 746.047856 -437.05392 
L 743.646317 -436.952341 
L 741.244777 -436.818609 
L 738.843238 -436.685104 
L 736.441699 -436.542509 
L 734.04016 -436.388627 
L 731.638621 -436.253441 
L 729.237082 -436.163114 
L 726.835543 -436.097866 
L 724.434004 -436.055279 
L 722.032465 -436.000643 
L 719.630926 -435.930513 
L 717.229387 -435.836954 
L 714.827848 -435.730218 
L 712.426309 -435.630641 
L 710.024769 -435.528353 
L 707.62323 -435.442606 
L 705.221691 -435.386263 
L 702.820152 -435.365793 
L 700.418613 -435.367146 
L 698.017074 -435.363476 
L 695.615535 -435.356814 
L 693.213996 -435.333859 
L 690.812457 -435.270586 
L 688.410918 -435.194885 
L 686.009379 -435.088716 
L 683.60784 -434.971756 
L 681.206301 -434.831971 
L 678.804761 -434.684062 
L 676.403222 -434.522095 
L 674.001683 -434.359335 
L 671.600144 -434.180704 
L 669.198605 -434.02059 
L 666.797066 -433.856834 
L 664.395527 -433.688484 
L 661.993988 -433.511174 
L 659.592449 -433.30894 
L 657.19091 -433.074137 
L 654.789371 -432.828386 
L 652.387832 -432.573759 
L 649.986293 -432.359143 
L 647.584753 -432.150558 
L 645.183214 -431.943146 
L 642.781675 -431.764842 
L 640.380136 -431.585693 
L 637.978597 -431.436901 
L 635.577058 -431.28489 
L 633.175519 -431.12954 
L 630.77398 -431.0009 
L 628.372441 -430.877918 
L 625.970902 -430.777426 
L 623.569363 -430.694943 
L 621.167824 -430.607515 
L 618.766285 -430.513016 
L 616.364745 -430.422592 
L 613.963206 -430.337599 
L 611.561667 -430.239245 
L 609.160128 -430.14206 
L 606.758589 -430.062291 
L 604.35705 -429.991723 
L 601.955511 -429.911715 
L 599.553972 -429.829454 
L 597.152433 -429.760897 
L 594.750894 -429.671716 
L 592.349355 -429.594929 
L 589.947816 -429.531016 
L 587.546277 -429.467935 
L 585.144737 -429.40023 
L 582.743198 -429.304994 
L 580.341659 -429.208912 
L 577.94012 -429.087116 
L 575.538581 -428.95698 
L 573.137042 -428.840443 
L 570.735503 -428.718726 
L 568.333964 -428.587289 
L 565.932425 -428.439536 
L 563.530886 -428.315243 
L 561.129347 -428.19604 
L 558.727808 -428.073936 
L 556.326268 -427.952289 
L 553.924729 -427.834735 
L 551.52319 -427.72792 
L 549.121651 -427.614724 
L 546.720112 -427.530754 
L 544.318573 -427.466027 
L 541.917034 -427.379566 
L 539.515495 -427.308864 
L 537.113956 -427.272213 
L 534.712417 -427.245082 
L 532.310878 -427.230337 
L 529.909339 -427.247969 
L 527.5078 -427.290991 
L 525.10626 -427.340129 
L 522.704721 -427.418374 
L 520.303182 -427.499734 
L 517.901643 -427.601032 
L 515.500104 -427.686173 
L 513.098565 -427.771435 
L 510.697026 -427.851485 
L 508.295487 -427.924722 
L 505.893948 -427.982235 
L 503.492409 -428.017826 
L 501.09087 -428.054811 
L 498.689331 -428.10301 
L 496.287792 -428.134262 
L 493.886252 -428.185745 
L 491.484713 -428.232235 
L 489.083174 -428.251713 
L 486.681635 -428.271263 
L 484.280096 -428.301356 
L 481.878557 -428.339329 
L 479.477018 -428.373286 
L 477.075479 -428.405706 
L 474.67394 -428.429864 
L 472.272401 -428.454279 
L 469.870862 -428.510012 
L 467.469323 -428.592751 
L 465.067784 -428.698928 
L 462.666244 -428.795543 
L 460.264705 -428.917429 
L 457.863166 -429.0529 
L 455.461627 -429.204368 
L 453.060088 -429.371239 
L 450.658549 -429.510857 
L 448.25701 -429.644049 
L 445.855471 -429.787768 
L 443.453932 -429.945091 
L 441.052393 -430.092994 
L 438.650854 -430.236037 
L 436.249315 -430.363377 
L 433.847776 -430.46865 
L 431.446236 -430.566408 
L 429.044697 -430.648513 
L 426.643158 -430.723791 
L 424.241619 -430.819391 
L 421.84008 -430.905517 
L 419.438541 -430.985808 
L 417.037002 -431.041924 
L 414.635463 -431.074912 
L 412.233924 -431.069492 
L 409.832385 -431.048999 
L 407.430846 -431.046099 
L 405.029307 -431.051172 
L 402.627768 -431.080567 
L 400.226228 -431.113657 
L 397.824689 -431.135685 
L 395.42315 -431.175577 
L 393.021611 -431.253424 
L 390.620072 -431.346526 
L 388.218533 -431.483626 
L 385.816994 -431.631576 
L 383.415455 -431.801779 
L 381.013916 -432.02184 
L 378.612377 -432.258968 
L 376.210838 -432.513468 
L 373.809299 -432.766382 
L 371.407759 -433.053402 
L 369.00622 -433.361291 
L 366.604681 -433.702467 
L 364.203142 -434.043057 
L 361.801603 -434.409477 
L 359.400064 -434.754276 
L 356.998525 -435.109948 
L 354.596986 -435.454885 
L 352.195447 -435.798831 
L 349.793908 -436.128784 
L 347.392369 -436.423355 
L 344.99083 -436.695187 
L 342.589291 -436.952445 
L 340.187751 -437.200312 
L 337.786212 -437.437246 
L 335.384673 -437.659398 
L 332.983134 -437.854719 
L 330.581595 -438.03565 
L 328.180056 -438.186049 
L 325.778517 -438.355097 
L 323.376978 -438.489786 
L 320.975439 -438.603117 
L 318.5739 -438.712474 
L 316.172361 -438.851777 
L 313.770822 -438.963454 
L 311.369283 -439.096169 
L 308.967743 -439.236383 
L 306.566204 -439.387429 
L 304.164665 -439.559316 
L 301.763126 -439.765372 
L 299.361587 -439.96158 
L 296.960048 -440.17838 
L 294.558509 -440.416037 
L 292.15697 -440.6224 
L 289.755431 -440.826484 
L 287.353892 -441.046142 
L 284.952353 -441.264759 
L 282.550814 -441.483483 
L 280.149275 -441.686489 
L 277.747735 -441.834417 
L 275.346196 -441.979747 
L 272.944657 -442.112787 
L 270.543118 -442.247394 
L 268.141579 -442.35896 
L 265.74004 -442.496 
L 263.338501 -442.628799 
L 260.936962 -442.743557 
L 258.535423 -442.880406 
L 256.133884 -443.006266 
L 253.732345 -443.127918 
L 251.330806 -443.290157 
L 248.929267 -443.464827 
L 246.527727 -443.629517 
L 244.126188 -443.807476 
L 241.724649 -444.020997 
L 239.32311 -444.224371 
L 236.921571 -444.447015 
L 234.520032 -444.675203 
L 232.118493 -444.926468 
L 229.716954 -445.234461 
L 227.315415 -445.572868 
L 224.913876 -445.941623 
L 222.512337 -446.316708 
L 220.110798 -446.741096 
L 217.709259 -447.148785 
L 215.307719 -447.567798 
L 212.90618 -448.001293 
L 210.504641 -448.405016 
L 208.103102 -448.80458 
L 205.701563 -449.195279 
L 203.300024 -449.587082 
L 200.898485 -449.956503 
L 198.496946 -450.31296 
L 196.095407 -450.674828 
L 193.693868 -451.013133 
L 191.292329 -451.358613 
L 188.89079 -451.688931 
L 186.48925 -452.022687 
L 184.087711 -452.359051 
L 181.686172 -452.706047 
L 179.284633 -453.020161 
L 176.883094 -453.331286 
L 174.481555 -453.601537 
L 172.080016 -453.864954 
L 169.678477 -454.128911 
L 167.276938 -454.391179 
z
" style="stroke: #74b8f8; stroke-opacity: 0.2"/>
    </defs>
    <g clip-path="url(#pb60415a0ba)">
     <use xlink:href="#m271f7b042f" x="0" y="600" style="fill: #74b8f8; fill-opacity: 0.2; stroke: #74b8f8; stroke-opacity: 0.2"/>
    </g>
   </g>
   <g id="PolyCollection_2">
    <defs>
     <path id="m9a3ffaad3d" d="M 116.844617 -459.423237 
L 116.844617 -459.226135 
L 119.246156 -459.043441 
L 121.647695 -458.869052 
L 124.049234 -458.68704 
L 126.450774 -458.527426 
L 128.852313 -458.342059 
L 131.253852 -458.206487 
L 133.655391 -458.072082 
L 136.05693 -457.952904 
L 138.458469 -457.796843 
L 140.860008 -457.640248 
L 143.261547 -457.341228 
L 145.663086 -457.031654 
L 148.064625 -456.703922 
L 150.466164 -456.408656 
L 152.867703 -456.11 
L 155.269242 -455.825827 
L 157.670782 -455.518007 
L 160.072321 -455.219789 
L 162.47386 -454.931136 
L 164.875399 -454.648 
L 164.875399 -454.648 
L 164.875399 -454.648 
L 162.47386 -454.976318 
L 160.072321 -455.305903 
L 157.670782 -455.63969 
L 155.269242 -455.968405 
L 152.867703 -456.286445 
L 150.466164 -456.60724 
L 148.064625 -456.919929 
L 145.663086 -457.242912 
L 143.261547 -457.55153 
L 140.860008 -457.851378 
L 138.458469 -458.009536 
L 136.05693 -458.166099 
L 133.655391 -458.311798 
L 131.253852 -458.463336 
L 128.852313 -458.617029 
L 126.450774 -458.784216 
L 124.049234 -458.939794 
L 121.647695 -459.099315 
L 119.246156 -459.263791 
L 116.844617 -459.423237 
z
" style="stroke: #000000; stroke-opacity: 0.2"/>
    </defs>
    <g clip-path="url(#pb60415a0ba)">
     <use xlink:href="#m9a3ffaad3d" x="0" y="600" style="fill-opacity: 0.2; stroke: #000000; stroke-opacity: 0.2"/>
    </g>
   </g>
   <g id="PolyCollection_3">
    <defs>
     <path id="m484f02a19e" d="M 167.276938 -454.224397 
L 167.276938 -454.121834 
L 169.678477 -453.583241 
L 172.080016 -452.963994 
L 174.481555 -452.349343 
L 176.883094 -451.719977 
L 179.284633 -451.025985 
L 181.686172 -450.311983 
L 184.087711 -449.552474 
L 186.48925 -448.808151 
L 188.89079 -448.052965 
L 191.292329 -447.253929 
L 193.693868 -446.484768 
L 196.095407 -445.628192 
L 198.496946 -444.742377 
L 200.898485 -443.864193 
L 203.300024 -442.976502 
L 205.701563 -442.166815 
L 208.103102 -441.374963 
L 210.504641 -440.592114 
L 212.90618 -439.841179 
L 215.307719 -439.046772 
L 217.709259 -438.241389 
L 220.110798 -437.419409 
L 222.512337 -436.421311 
L 224.913876 -435.397081 
L 227.315415 -434.345152 
L 229.716954 -433.254233 
L 232.118493 -432.14752 
L 234.520032 -431.019796 
L 236.921571 -429.862496 
L 239.32311 -428.672372 
L 241.724649 -427.459003 
L 244.126188 -426.269733 
L 246.527727 -425.091985 
L 248.929267 -423.904472 
L 251.330806 -422.735249 
L 253.732345 -421.537212 
L 256.133884 -420.344219 
L 258.535423 -419.14519 
L 260.936962 -417.941351 
L 263.338501 -416.783928 
L 265.74004 -415.625334 
L 268.141579 -414.455958 
L 270.543118 -413.276461 
L 272.944657 -412.079832 
L 275.346196 -410.847092 
L 277.747735 -409.617665 
L 280.149275 -408.358382 
L 282.550814 -407.082445 
L 284.952353 -405.821698 
L 287.353892 -404.718409 
L 289.755431 -403.762646 
L 292.15697 -402.84853 
L 294.558509 -401.976559 
L 296.960048 -401.105677 
L 299.361587 -400.247426 
L 301.763126 -399.447084 
L 304.164665 -398.650145 
L 306.566204 -397.904275 
L 308.967743 -397.188304 
L 311.369283 -396.431575 
L 313.770822 -395.697427 
L 316.172361 -394.935903 
L 318.5739 -394.185694 
L 320.975439 -393.412209 
L 323.376978 -392.607541 
L 325.778517 -391.790954 
L 328.180056 -390.977464 
L 330.581595 -390.141448 
L 332.983134 -389.277028 
L 335.384673 -388.371682 
L 337.786212 -387.450495 
L 340.187751 -386.507729 
L 342.589291 -385.518862 
L 344.99083 -384.536234 
L 347.392369 -383.554769 
L 349.793908 -382.579877 
L 352.195447 -381.630701 
L 354.596986 -380.647797 
L 356.998525 -379.659171 
L 359.400064 -378.69233 
L 361.801603 -377.722179 
L 364.203142 -376.763264 
L 366.604681 -375.809377 
L 369.00622 -374.885826 
L 371.407759 -373.948018 
L 373.809299 -372.996506 
L 376.210838 -372.032627 
L 378.612377 -371.081636 
L 381.013916 -370.130092 
L 383.415455 -369.217588 
L 385.816994 -368.318379 
L 388.218533 -367.409417 
L 390.620072 -366.542201 
L 393.021611 -365.67041 
L 395.42315 -364.778732 
L 397.824689 -363.877209 
L 400.226228 -362.969081 
L 402.627768 -362.060777 
L 405.029307 -361.165615 
L 407.430846 -360.24814 
L 409.832385 -359.34201 
L 412.233924 -358.472121 
L 414.635463 -357.633115 
L 417.037002 -356.811497 
L 419.438541 -356.038338 
L 421.84008 -355.296056 
L 424.241619 -354.534913 
L 426.643158 -353.760114 
L 429.044697 -353.004428 
L 431.446236 -352.241609 
L 433.847776 -351.500156 
L 436.249315 -350.768346 
L 438.650854 -350.018317 
L 441.052393 -349.309988 
L 443.453932 -348.656029 
L 445.855471 -348.003821 
L 448.25701 -347.36568 
L 450.658549 -346.754686 
L 453.060088 -346.151314 
L 455.461627 -345.579788 
L 457.863166 -345.026796 
L 460.264705 -344.465062 
L 462.666244 -343.911779 
L 465.067784 -343.375595 
L 467.469323 -342.816772 
L 469.870862 -342.223476 
L 472.272401 -341.669963 
L 474.67394 -341.14751 
L 477.075479 -340.630591 
L 479.477018 -340.1219 
L 481.878557 -339.615138 
L 484.280096 -339.116574 
L 486.681635 -338.627372 
L 489.083174 -338.105909 
L 491.484713 -337.509777 
L 493.886252 -336.941541 
L 496.287792 -336.337176 
L 498.689331 -335.728791 
L 501.09087 -335.108353 
L 503.492409 -334.494887 
L 505.893948 -333.893636 
L 508.295487 -333.23783 
L 510.697026 -332.449104 
L 513.098565 -331.659401 
L 515.500104 -330.924388 
L 517.901643 -330.209614 
L 520.303182 -329.497756 
L 522.704721 -328.785289 
L 525.10626 -328.071667 
L 527.5078 -327.37468 
L 529.909339 -326.686378 
L 532.310878 -325.996202 
L 534.712417 -325.304533 
L 537.113956 -324.621281 
L 539.515495 -323.951586 
L 541.917034 -323.277517 
L 544.318573 -322.644876 
L 546.720112 -322.013669 
L 549.121651 -321.38405 
L 551.52319 -320.767493 
L 553.924729 -320.157105 
L 556.326268 -319.577251 
L 558.727808 -318.980475 
L 561.129347 -318.415896 
L 563.530886 -317.832262 
L 565.932425 -317.222224 
L 568.333964 -316.623831 
L 570.735503 -315.994477 
L 573.137042 -315.35629 
L 575.538581 -314.703163 
L 577.94012 -314.06505 
L 580.341659 -313.419366 
L 582.743198 -312.803518 
L 585.144737 -312.191961 
L 587.546277 -311.580135 
L 589.947816 -310.957913 
L 592.349355 -310.29787 
L 594.750894 -309.650073 
L 597.152433 -309.003263 
L 599.553972 -308.341019 
L 601.955511 -307.657851 
L 604.35705 -306.958115 
L 606.758589 -306.251495 
L 609.160128 -305.533684 
L 611.561667 -304.838037 
L 613.963206 -304.177215 
L 616.364745 -303.52674 
L 618.766285 -302.901264 
L 621.167824 -302.281207 
L 623.569363 -301.689431 
L 625.970902 -301.111766 
L 628.372441 -300.535834 
L 630.77398 -299.918564 
L 633.175519 -299.26855 
L 635.577058 -298.613956 
L 637.978597 -297.95804 
L 640.380136 -297.281906 
L 642.781675 -296.589218 
L 645.183214 -295.903362 
L 647.584753 -295.22118 
L 649.986293 -294.560228 
L 652.387832 -293.89746 
L 654.789371 -293.253998 
L 657.19091 -292.617418 
L 659.592449 -291.979575 
L 661.993988 -291.330598 
L 664.395527 -290.690005 
L 666.797066 -290.069055 
L 669.198605 -289.474137 
L 671.600144 -288.851187 
L 674.001683 -288.200763 
L 676.403222 -287.556455 
L 678.804761 -286.934697 
L 681.206301 -286.345109 
L 683.60784 -285.763207 
L 686.009379 -285.1905 
L 688.410918 -284.638254 
L 690.812457 -283.981695 
L 693.213996 -283.306976 
L 695.615535 -282.639902 
L 698.017074 -281.978661 
L 700.418613 -281.305508 
L 702.820152 -280.62105 
L 705.221691 -279.949135 
L 707.62323 -279.282164 
L 710.024769 -278.623952 
L 712.426309 -277.957161 
L 714.827848 -277.29167 
L 717.229387 -276.610531 
L 719.630926 -275.925379 
L 722.032465 -275.236537 
L 724.434004 -274.547574 
L 726.835543 -273.890279 
L 729.237082 -273.233254 
L 731.638621 -272.578821 
L 734.04016 -271.940174 
L 736.441699 -271.304312 
L 738.843238 -270.666424 
L 741.244777 -270.326248 
L 743.646317 -270.052828 
L 746.047856 -269.78846 
L 748.449395 -269.540756 
L 750.850934 -269.324654 
L 753.252473 -269.140715 
L 755.654012 -268.957275 
L 758.055551 -268.783344 
L 760.45709 -268.607537 
L 762.858629 -268.414868 
L 765.260168 -268.219448 
L 767.661707 -268.019626 
L 770.063246 -267.825503 
L 772.464786 -267.616914 
L 774.866325 -267.416448 
L 777.267864 -267.21624 
L 779.669403 -266.999791 
L 782.070942 -266.77928 
L 784.472481 -266.557478 
L 786.87402 -266.338718 
L 789.275559 -266.13358 
L 791.677098 -265.917971 
L 794.078637 -265.685624 
L 796.480176 -265.466206 
L 798.881715 -265.23707 
L 801.283254 -264.998519 
L 803.684794 -264.747794 
L 806.086333 -264.480847 
L 808.487872 -264.204854 
L 810.889411 -263.93582 
L 813.29095 -263.673562 
L 815.692489 -263.412114 
L 818.094028 -263.27714 
L 820.495567 -263.150308 
L 822.897106 -263.014477 
L 825.298645 -262.875832 
L 827.700184 -262.741317 
L 830.101723 -262.625226 
L 832.503262 -262.501061 
L 834.904802 -262.391859 
L 837.306341 -262.257939 
L 837.306341 -324.216439 
L 837.306341 -324.216439 
L 834.904802 -324.374058 
L 832.503262 -324.521431 
L 830.101723 -324.673198 
L 827.700184 -324.827527 
L 825.298645 -324.989756 
L 822.897106 -325.149107 
L 820.495567 -325.308904 
L 818.094028 -325.46624 
L 815.692489 -325.626751 
L 813.29095 -325.937204 
L 810.889411 -326.252976 
L 808.487872 -326.570493 
L 806.086333 -326.891542 
L 803.684794 -327.216848 
L 801.283254 -327.537608 
L 798.881715 -327.851982 
L 796.480176 -328.160034 
L 794.078637 -328.461509 
L 791.677098 -328.767607 
L 789.275559 -329.068978 
L 786.87402 -329.367507 
L 784.472481 -329.673044 
L 782.070942 -329.981013 
L 779.669403 -330.284304 
L 777.267864 -330.588287 
L 774.866325 -330.890827 
L 772.464786 -331.190222 
L 770.063246 -331.490196 
L 767.661707 -331.783172 
L 765.260168 -332.079794 
L 762.858629 -332.36938 
L 760.45709 -332.657719 
L 758.055551 -332.936888 
L 755.654012 -333.209049 
L 753.252473 -333.482289 
L 750.850934 -333.758144 
L 748.449395 -334.041427 
L 746.047856 -334.337498 
L 743.646317 -334.643924 
L 741.244777 -334.956114 
L 738.843238 -335.276912 
L 736.441699 -335.604104 
L 734.04016 -335.941577 
L 731.638621 -336.287348 
L 729.237082 -336.627573 
L 726.835543 -336.96899 
L 724.434004 -337.314439 
L 722.032465 -337.674372 
L 719.630926 -338.042992 
L 717.229387 -338.420752 
L 714.827848 -338.808309 
L 712.426309 -339.201781 
L 710.024769 -339.60255 
L 707.62323 -340.00909 
L 705.221691 -340.42247 
L 702.820152 -340.846885 
L 700.418613 -341.270686 
L 698.017074 -341.690423 
L 695.615535 -342.103457 
L 693.213996 -342.530158 
L 690.812457 -342.962414 
L 688.410918 -343.387907 
L 686.009379 -343.793687 
L 683.60784 -344.186107 
L 681.206301 -344.582321 
L 678.804761 -345.029415 
L 676.403222 -345.4761 
L 674.001683 -345.905562 
L 671.600144 -346.34263 
L 669.198605 -346.775907 
L 666.797066 -347.212204 
L 664.395527 -347.635937 
L 661.993988 -348.046637 
L 659.592449 -348.448989 
L 657.19091 -348.846014 
L 654.789371 -349.232313 
L 652.387832 -349.60944 
L 649.986293 -350.028214 
L 647.584753 -350.450694 
L 645.183214 -350.846716 
L 642.781675 -351.235904 
L 640.380136 -351.628231 
L 637.978597 -352.029582 
L 635.577058 -352.443277 
L 633.175519 -352.863712 
L 630.77398 -353.281767 
L 628.372441 -353.701796 
L 625.970902 -354.126676 
L 623.569363 -354.532035 
L 621.167824 -354.935488 
L 618.766285 -355.33499 
L 616.364745 -355.741752 
L 613.963206 -356.160947 
L 611.561667 -356.608346 
L 609.160128 -357.07535 
L 606.758589 -357.548723 
L 604.35705 -358.02171 
L 601.955511 -358.497772 
L 599.553972 -358.974225 
L 597.152433 -359.441524 
L 594.750894 -359.899502 
L 592.349355 -360.362118 
L 589.947816 -360.825018 
L 587.546277 -361.267033 
L 585.144737 -361.704835 
L 582.743198 -362.145264 
L 580.341659 -362.589007 
L 577.94012 -363.032855 
L 575.538581 -363.482637 
L 573.137042 -363.937838 
L 570.735503 -364.393136 
L 568.333964 -364.846791 
L 565.932425 -365.295412 
L 563.530886 -365.74611 
L 561.129347 -366.184176 
L 558.727808 -366.620875 
L 556.326268 -367.075469 
L 553.924729 -367.517903 
L 551.52319 -367.968106 
L 549.121651 -368.431692 
L 546.720112 -368.899469 
L 544.318573 -369.363782 
L 541.917034 -369.829338 
L 539.515495 -370.308624 
L 537.113956 -370.786019 
L 534.712417 -371.262181 
L 532.310878 -371.747753 
L 529.909339 -372.242819 
L 527.5078 -372.659291 
L 525.10626 -373.076156 
L 522.704721 -373.478771 
L 520.303182 -373.876894 
L 517.901643 -374.274159 
L 515.500104 -374.655256 
L 513.098565 -375.038199 
L 510.697026 -375.430408 
L 508.295487 -375.824374 
L 505.893948 -376.201998 
L 503.492409 -376.577759 
L 501.09087 -376.955328 
L 498.689331 -377.331057 
L 496.287792 -377.702987 
L 493.886252 -378.073367 
L 491.484713 -378.434829 
L 489.083174 -378.804648 
L 486.681635 -379.172002 
L 484.280096 -379.535979 
L 481.878557 -379.901961 
L 479.477018 -380.279082 
L 477.075479 -380.678315 
L 474.67394 -381.082551 
L 472.272401 -381.475816 
L 469.870862 -381.887617 
L 467.469323 -382.313141 
L 465.067784 -382.732928 
L 462.666244 -383.137758 
L 460.264705 -383.555896 
L 457.863166 -383.979721 
L 455.461627 -384.409876 
L 453.060088 -384.852446 
L 450.658549 -385.309662 
L 448.25701 -385.767324 
L 445.855471 -386.232746 
L 443.453932 -386.699438 
L 441.052393 -387.160595 
L 438.650854 -387.636186 
L 436.249315 -388.119167 
L 433.847776 -388.591463 
L 431.446236 -389.067552 
L 429.044697 -389.560467 
L 426.643158 -390.06597 
L 424.241619 -390.587687 
L 421.84008 -391.116746 
L 419.438541 -391.64162 
L 417.037002 -392.170293 
L 414.635463 -392.719299 
L 412.233924 -393.281717 
L 409.832385 -393.850654 
L 407.430846 -394.41885 
L 405.029307 -394.999051 
L 402.627768 -395.569999 
L 400.226228 -396.153993 
L 397.824689 -396.731945 
L 395.42315 -397.313962 
L 393.021611 -397.895792 
L 390.620072 -398.469218 
L 388.218533 -399.037149 
L 385.816994 -399.607156 
L 383.415455 -400.173108 
L 381.013916 -400.7446 
L 378.612377 -401.321794 
L 376.210838 -401.912708 
L 373.809299 -402.496149 
L 371.407759 -403.0665 
L 369.00622 -403.638765 
L 366.604681 -404.216867 
L 364.203142 -404.779258 
L 361.801603 -405.346659 
L 359.400064 -405.931592 
L 356.998525 -406.504759 
L 354.596986 -407.097426 
L 352.195447 -407.700893 
L 349.793908 -408.311216 
L 347.392369 -408.930776 
L 344.99083 -409.546256 
L 342.589291 -410.163314 
L 340.187751 -410.787138 
L 337.786212 -411.41641 
L 335.384673 -412.043975 
L 332.983134 -412.66063 
L 330.581595 -413.281168 
L 328.180056 -413.914085 
L 325.778517 -414.542815 
L 323.376978 -415.152967 
L 320.975439 -415.718447 
L 318.5739 -416.272749 
L 316.172361 -416.851931 
L 313.770822 -417.387094 
L 311.369283 -417.917356 
L 308.967743 -418.454209 
L 306.566204 -418.991913 
L 304.164665 -419.552021 
L 301.763126 -420.159154 
L 299.361587 -420.773683 
L 296.960048 -421.41176 
L 294.558509 -422.054041 
L 292.15697 -422.697187 
L 289.755431 -423.339177 
L 287.353892 -423.968605 
L 284.952353 -424.584931 
L 282.550814 -425.205071 
L 280.149275 -425.820262 
L 277.747735 -426.456809 
L 275.346196 -427.101574 
L 272.944657 -427.759244 
L 270.543118 -428.419416 
L 268.141579 -429.087216 
L 265.74004 -429.74686 
L 263.338501 -430.400338 
L 260.936962 -431.058207 
L 258.535423 -431.731901 
L 256.133884 -432.401762 
L 253.732345 -433.071399 
L 251.330806 -433.742975 
L 248.929267 -434.40231 
L 246.527727 -435.069849 
L 244.126188 -435.728553 
L 241.724649 -436.396876 
L 239.32311 -437.076317 
L 236.921571 -437.72014 
L 234.520032 -438.285055 
L 232.118493 -438.855418 
L 229.716954 -439.430601 
L 227.315415 -440.000944 
L 224.913876 -440.583978 
L 222.512337 -441.187471 
L 220.110798 -441.818317 
L 217.709259 -442.476991 
L 215.307719 -443.113551 
L 212.90618 -443.737915 
L 210.504641 -444.360246 
L 208.103102 -444.976422 
L 205.701563 -445.592565 
L 203.300024 -446.180057 
L 200.898485 -446.767788 
L 198.496946 -447.348901 
L 196.095407 -447.906584 
L 193.693868 -448.465585 
L 191.292329 -449.039963 
L 188.89079 -449.614083 
L 186.48925 -450.186171 
L 184.087711 -450.743749 
L 181.686172 -451.284139 
L 179.284633 -451.808582 
L 176.883094 -452.333405 
L 174.481555 -452.831135 
L 172.080016 -453.321255 
L 169.678477 -453.776639 
L 167.276938 -454.224397 
z
" style="stroke: #f47100; stroke-opacity: 0.2"/>
    </defs>
    <g clip-path="url(#pb60415a0ba)">
     <use xlink:href="#m484f02a19e" x="0" y="600" style="fill: #f47100; fill-opacity: 0.2; stroke: #f47100; stroke-opacity: 0.2"/>
    </g>
   </g>
   <g id="PolyCollection_4">
    <defs>
     <path id="m1213053b10" d="M 116.844617 -460.267872 
L 116.844617 -459.905347 
L 119.246156 -459.776271 
L 121.647695 -459.638325 
L 124.049234 -459.500832 
L 126.450774 -459.360167 
L 128.852313 -459.191071 
L 131.253852 -459.022182 
L 133.655391 -458.866791 
L 136.05693 -458.715035 
L 138.458469 -458.536084 
L 140.860008 -458.367087 
L 143.261547 -458.016757 
L 145.663086 -457.677523 
L 148.064625 -457.312203 
L 150.466164 -456.933922 
L 152.867703 -456.586804 
L 155.269242 -456.22665 
L 157.670782 -455.823675 
L 160.072321 -455.429801 
L 162.47386 -455.056047 
L 164.875399 -454.648 
L 164.875399 -454.648 
L 164.875399 -454.648 
L 162.47386 -455.184091 
L 160.072321 -455.65648 
L 157.670782 -456.108657 
L 155.269242 -456.526619 
L 152.867703 -456.903976 
L 150.466164 -457.292096 
L 148.064625 -457.66168 
L 145.663086 -458.013351 
L 143.261547 -458.352075 
L 140.860008 -458.663865 
L 138.458469 -458.841974 
L 136.05693 -459.018938 
L 133.655391 -459.125068 
L 131.253852 -459.25431 
L 128.852313 -459.390341 
L 126.450774 -459.580016 
L 124.049234 -459.741971 
L 121.647695 -459.928679 
L 119.246156 -460.108472 
L 116.844617 -460.267872 
z
" style="stroke: #000000; stroke-opacity: 0.2"/>
    </defs>
    <g clip-path="url(#pb60415a0ba)">
     <use xlink:href="#m1213053b10" x="0" y="600" style="fill-opacity: 0.2; stroke: #000000; stroke-opacity: 0.2"/>
    </g>
   </g>
   <g id="PolyCollection_5">
    <defs>
     <path id="mbef933feaa" d="M 167.276938 -454.219057 
L 167.276938 -454.140498 
L 169.678477 -453.596816 
L 172.080016 -453.032143 
L 174.481555 -452.435037 
L 176.883094 -451.829879 
L 179.284633 -451.181282 
L 181.686172 -450.497119 
L 184.087711 -449.762118 
L 186.48925 -448.998114 
L 188.89079 -448.201673 
L 191.292329 -447.36204 
L 193.693868 -446.522192 
L 196.095407 -445.652675 
L 198.496946 -444.746933 
L 200.898485 -443.828111 
L 203.300024 -442.887555 
L 205.701563 -441.96244 
L 208.103102 -441.049598 
L 210.504641 -440.095162 
L 212.90618 -439.108999 
L 215.307719 -438.104649 
L 217.709259 -437.026909 
L 220.110798 -435.887963 
L 222.512337 -434.744304 
L 224.913876 -433.619553 
L 227.315415 -432.505654 
L 229.716954 -431.381296 
L 232.118493 -430.263 
L 234.520032 -429.121763 
L 236.921571 -427.946581 
L 239.32311 -426.737333 
L 241.724649 -425.531765 
L 244.126188 -424.31344 
L 246.527727 -423.10887 
L 248.929267 -421.890701 
L 251.330806 -420.688273 
L 253.732345 -419.472726 
L 256.133884 -418.222707 
L 258.535423 -417.015388 
L 260.936962 -415.793086 
L 263.338501 -414.579468 
L 265.74004 -413.41425 
L 268.141579 -412.269734 
L 270.543118 -411.127097 
L 272.944657 -409.573351 
L 275.346196 -407.977898 
L 277.747735 -406.377882 
L 280.149275 -404.766894 
L 282.550814 -403.137579 
L 284.952353 -401.532535 
L 287.353892 -399.92537 
L 289.755431 -398.362071 
L 292.15697 -396.811804 
L 294.558509 -395.270911 
L 296.960048 -393.680627 
L 299.361587 -392.067764 
L 301.763126 -390.436164 
L 304.164665 -388.813792 
L 306.566204 -387.128582 
L 308.967743 -385.437512 
L 311.369283 -383.740076 
L 313.770822 -381.945102 
L 316.172361 -380.093061 
L 318.5739 -378.200289 
L 320.975439 -376.249646 
L 323.376978 -374.328279 
L 325.778517 -372.385277 
L 328.180056 -370.37168 
L 330.581595 -368.265234 
L 332.983134 -366.135059 
L 335.384673 -364.061013 
L 337.786212 -362.215316 
L 340.187751 -360.320459 
L 342.589291 -358.407049 
L 344.99083 -356.478634 
L 347.392369 -354.543355 
L 349.793908 -352.544294 
L 352.195447 -350.552196 
L 354.596986 -348.601757 
L 356.998525 -346.63259 
L 359.400064 -344.692506 
L 361.801603 -342.820648 
L 364.203142 -340.976262 
L 366.604681 -339.173779 
L 369.00622 -337.392691 
L 371.407759 -335.654277 
L 373.809299 -333.918677 
L 376.210838 -332.258982 
L 378.612377 -330.598662 
L 381.013916 -328.923196 
L 383.415455 -327.227496 
L 385.816994 -325.543925 
L 388.218533 -323.931908 
L 390.620072 -322.32255 
L 393.021611 -320.723867 
L 395.42315 -319.128366 
L 397.824689 -317.554369 
L 400.226228 -315.968588 
L 402.627768 -314.402866 
L 405.029307 -312.892246 
L 407.430846 -311.358569 
L 409.832385 -309.827843 
L 412.233924 -308.307505 
L 414.635463 -306.775976 
L 417.037002 -305.262575 
L 419.438541 -303.693638 
L 421.84008 -302.113273 
L 424.241619 -300.553705 
L 426.643158 -299.042603 
L 429.044697 -297.550443 
L 431.446236 -296.064188 
L 433.847776 -294.564112 
L 436.249315 -293.007015 
L 438.650854 -291.466764 
L 441.052393 -289.935255 
L 443.453932 -288.403877 
L 445.855471 -286.918163 
L 448.25701 -285.465284 
L 450.658549 -284.022187 
L 453.060088 -282.552156 
L 455.461627 -281.07486 
L 457.863166 -279.584942 
L 460.264705 -278.108154 
L 462.666244 -276.660728 
L 465.067784 -275.225794 
L 467.469323 -273.93449 
L 469.870862 -272.696337 
L 472.272401 -271.462412 
L 474.67394 -270.245204 
L 477.075479 -269.024505 
L 479.477018 -267.809247 
L 481.878557 -266.606744 
L 484.280096 -265.430878 
L 486.681635 -264.23656 
L 489.083174 -263.076087 
L 491.484713 -261.923181 
L 493.886252 -260.780543 
L 496.287792 -259.637843 
L 498.689331 -258.513938 
L 501.09087 -257.441919 
L 503.492409 -256.389455 
L 505.893948 -255.360306 
L 508.295487 -254.336919 
L 510.697026 -253.321287 
L 513.098565 -252.312094 
L 515.500104 -251.271072 
L 517.901643 -250.265731 
L 520.303182 -249.262295 
L 522.704721 -248.242902 
L 525.10626 -247.228657 
L 527.5078 -246.22626 
L 529.909339 -245.231074 
L 532.310878 -244.255088 
L 534.712417 -243.305679 
L 537.113956 -242.337063 
L 539.515495 -241.374071 
L 541.917034 -240.43263 
L 544.318573 -239.51351 
L 546.720112 -238.598381 
L 549.121651 -237.643367 
L 551.52319 -236.716821 
L 553.924729 -235.797309 
L 556.326268 -234.896358 
L 558.727808 -233.99272 
L 561.129347 -233.076086 
L 563.530886 -232.197387 
L 565.932425 -231.324066 
L 568.333964 -230.481008 
L 570.735503 -229.624855 
L 573.137042 -228.774095 
L 575.538581 -227.924562 
L 577.94012 -227.084093 
L 580.341659 -226.233866 
L 582.743198 -225.404755 
L 585.144737 -224.574358 
L 587.546277 -223.762929 
L 589.947816 -222.933183 
L 592.349355 -221.798138 
L 594.750894 -220.666603 
L 597.152433 -219.539751 
L 599.553972 -218.400364 
L 601.955511 -217.261512 
L 604.35705 -216.122434 
L 606.758589 -214.994575 
L 609.160128 -213.855225 
L 611.561667 -212.708094 
L 613.963206 -211.562592 
L 616.364745 -210.428048 
L 618.766285 -209.299264 
L 621.167824 -208.164211 
L 623.569363 -207.032752 
L 625.970902 -205.889789 
L 628.372441 -204.735834 
L 630.77398 -203.579252 
L 633.175519 -202.416176 
L 635.577058 -201.245754 
L 637.978597 -200.079975 
L 640.380136 -198.91955 
L 642.781675 -197.747308 
L 645.183214 -196.586303 
L 647.584753 -195.428192 
L 649.986293 -194.288628 
L 652.387832 -193.148761 
L 654.789371 -192.012178 
L 657.19091 -190.887362 
L 659.592449 -189.780337 
L 661.993988 -188.685223 
L 664.395527 -187.59556 
L 666.797066 -186.517277 
L 669.198605 -185.445404 
L 671.600144 -184.369521 
L 674.001683 -183.303411 
L 676.403222 -182.253207 
L 678.804761 -181.219933 
L 681.206301 -180.220726 
L 683.60784 -179.231687 
L 686.009379 -178.250297 
L 688.410918 -177.285525 
L 690.812457 -176.35613 
L 693.213996 -175.440664 
L 695.615535 -174.550977 
L 698.017074 -173.669536 
L 700.418613 -172.800989 
L 702.820152 -171.94764 
L 705.221691 -171.11528 
L 707.62323 -170.297057 
L 710.024769 -169.503795 
L 712.426309 -168.722903 
L 714.827848 -167.951001 
L 717.229387 -167.201092 
L 719.630926 -166.477452 
L 722.032465 -165.767796 
L 724.434004 -165.073779 
L 726.835543 -164.374973 
L 729.237082 -163.670391 
L 731.638621 -162.98208 
L 734.04016 -162.303379 
L 736.441699 -161.627234 
L 738.843238 -160.95915 
L 741.244777 -160.303676 
L 743.646317 -159.646593 
L 746.047856 -158.999158 
L 748.449395 -158.354662 
L 750.850934 -157.703293 
L 753.252473 -157.056484 
L 755.654012 -156.414016 
L 758.055551 -155.772403 
L 760.45709 -155.137058 
L 762.858629 -154.520841 
L 765.260168 -153.910062 
L 767.661707 -153.300347 
L 770.063246 -152.69397 
L 772.464786 -152.08273 
L 774.866325 -151.482722 
L 777.267864 -150.88781 
L 779.669403 -150.29619 
L 782.070942 -149.710574 
L 784.472481 -149.127015 
L 786.87402 -148.542142 
L 789.275559 -147.952935 
L 791.677098 -147.372046 
L 794.078637 -146.791848 
L 796.480176 -146.228767 
L 798.881715 -145.67156 
L 801.283254 -145.113261 
L 803.684794 -144.559936 
L 806.086333 -144.010534 
L 808.487872 -143.471806 
L 810.889411 -142.930589 
L 813.29095 -142.390191 
L 815.692489 -141.856426 
L 818.094028 -141.573686 
L 820.495567 -141.297029 
L 822.897106 -141.022172 
L 825.298645 -140.752385 
L 827.700184 -140.483607 
L 830.101723 -140.22115 
L 832.503262 -139.964365 
L 834.904802 -139.703445 
L 837.306341 -139.442548 
L 837.306341 -294.720337 
L 837.306341 -294.720337 
L 834.904802 -294.89482 
L 832.503262 -295.065071 
L 830.101723 -295.232598 
L 827.700184 -295.397229 
L 825.298645 -295.563255 
L 822.897106 -295.723105 
L 820.495567 -295.875616 
L 818.094028 -296.025367 
L 815.692489 -296.181141 
L 813.29095 -296.509139 
L 810.889411 -296.83331 
L 808.487872 -297.150449 
L 806.086333 -297.467231 
L 803.684794 -297.790361 
L 801.283254 -298.112742 
L 798.881715 -298.452295 
L 796.480176 -298.795032 
L 794.078637 -299.132771 
L 791.677098 -299.481109 
L 789.275559 -299.827036 
L 786.87402 -300.179444 
L 784.472481 -300.533931 
L 782.070942 -300.885469 
L 779.669403 -301.235778 
L 777.267864 -301.595337 
L 774.866325 -301.970872 
L 772.464786 -302.368649 
L 770.063246 -302.787719 
L 767.661707 -303.202169 
L 765.260168 -303.620357 
L 762.858629 -304.041579 
L 760.45709 -304.485022 
L 758.055551 -304.948633 
L 755.654012 -305.417158 
L 753.252473 -305.889504 
L 750.850934 -306.36116 
L 748.449395 -306.828887 
L 746.047856 -307.292519 
L 743.646317 -307.759468 
L 741.244777 -308.233147 
L 738.843238 -308.700348 
L 736.441699 -309.166039 
L 734.04016 -309.633409 
L 731.638621 -310.10234 
L 729.237082 -310.557966 
L 726.835543 -311.017543 
L 724.434004 -311.466949 
L 722.032465 -311.89997 
L 719.630926 -312.334664 
L 717.229387 -312.779349 
L 714.827848 -313.223164 
L 712.426309 -313.659592 
L 710.024769 -314.079432 
L 707.62323 -314.486549 
L 705.221691 -314.890838 
L 702.820152 -315.279838 
L 700.418613 -315.665058 
L 698.017074 -316.055128 
L 695.615535 -316.444484 
L 693.213996 -316.829304 
L 690.812457 -317.233322 
L 688.410918 -317.638555 
L 686.009379 -318.058601 
L 683.60784 -318.480118 
L 681.206301 -318.904078 
L 678.804761 -319.319394 
L 676.403222 -319.733897 
L 674.001683 -320.162669 
L 671.600144 -320.598473 
L 669.198605 -321.03133 
L 666.797066 -321.468582 
L 664.395527 -321.900591 
L 661.993988 -322.3369 
L 659.592449 -322.784749 
L 657.19091 -323.233147 
L 654.789371 -323.695697 
L 652.387832 -324.166178 
L 649.986293 -324.634792 
L 647.584753 -325.111311 
L 645.183214 -325.60471 
L 642.781675 -326.095391 
L 640.380136 -326.60015 
L 637.978597 -327.116267 
L 635.577058 -327.646657 
L 633.175519 -328.194093 
L 630.77398 -328.747587 
L 628.372441 -329.311175 
L 625.970902 -329.865161 
L 623.569363 -330.434493 
L 621.167824 -330.995776 
L 618.766285 -331.572516 
L 616.364745 -332.166661 
L 613.963206 -332.775424 
L 611.561667 -333.375909 
L 609.160128 -333.978218 
L 606.758589 -334.583807 
L 604.35705 -335.199178 
L 601.955511 -335.829063 
L 599.553972 -336.449125 
L 597.152433 -337.054288 
L 594.750894 -337.651798 
L 592.349355 -338.252799 
L 589.947816 -338.844375 
L 587.546277 -339.432016 
L 585.144737 -340.004242 
L 582.743198 -340.574683 
L 580.341659 -341.146417 
L 577.94012 -341.725951 
L 575.538581 -342.289924 
L 573.137042 -342.863534 
L 570.735503 -343.428424 
L 568.333964 -343.988229 
L 565.932425 -344.541465 
L 563.530886 -345.106069 
L 561.129347 -345.66759 
L 558.727808 -346.233693 
L 556.326268 -346.792433 
L 553.924729 -347.342385 
L 551.52319 -347.901895 
L 549.121651 -348.467581 
L 546.720112 -349.03895 
L 544.318573 -349.595097 
L 541.917034 -350.154796 
L 539.515495 -350.723795 
L 537.113956 -351.305239 
L 534.712417 -351.884795 
L 532.310878 -352.450487 
L 529.909339 -353.02887 
L 527.5078 -353.614341 
L 525.10626 -354.19908 
L 522.704721 -354.785565 
L 520.303182 -355.363979 
L 517.901643 -355.932118 
L 515.500104 -356.495879 
L 513.098565 -357.07379 
L 510.697026 -357.639656 
L 508.295487 -358.204391 
L 505.893948 -358.768581 
L 503.492409 -359.330964 
L 501.09087 -359.906012 
L 498.689331 -360.491581 
L 496.287792 -361.093562 
L 493.886252 -361.68951 
L 491.484713 -362.278788 
L 489.083174 -362.870335 
L 486.681635 -363.468806 
L 484.280096 -364.075294 
L 481.878557 -364.668493 
L 479.477018 -365.271232 
L 477.075479 -365.881725 
L 474.67394 -366.48572 
L 472.272401 -367.087834 
L 469.870862 -367.692045 
L 467.469323 -368.299989 
L 465.067784 -368.914328 
L 462.666244 -369.548761 
L 460.264705 -370.192928 
L 457.863166 -370.854459 
L 455.461627 -371.515801 
L 453.060088 -372.170942 
L 450.658549 -372.814648 
L 448.25701 -373.446385 
L 445.855471 -374.080708 
L 443.453932 -374.725399 
L 441.052393 -375.372356 
L 438.650854 -376.02041 
L 436.249315 -376.677733 
L 433.847776 -377.337437 
L 431.446236 -377.973583 
L 429.044697 -378.596176 
L 426.643158 -379.218912 
L 424.241619 -379.841344 
L 421.84008 -380.471398 
L 419.438541 -381.106753 
L 417.037002 -381.732598 
L 414.635463 -382.341436 
L 412.233924 -382.953657 
L 409.832385 -383.56114 
L 407.430846 -384.176766 
L 405.029307 -384.78779 
L 402.627768 -385.398874 
L 400.226228 -386.042027 
L 397.824689 -386.698646 
L 395.42315 -387.356361 
L 393.021611 -388.026109 
L 390.620072 -388.692986 
L 388.218533 -389.358444 
L 385.816994 -390.029626 
L 383.415455 -390.721904 
L 381.013916 -391.419847 
L 378.612377 -392.118372 
L 376.210838 -392.823428 
L 373.809299 -393.524006 
L 371.407759 -394.257768 
L 369.00622 -395.005494 
L 366.604681 -395.775529 
L 364.203142 -396.54549 
L 361.801603 -397.320846 
L 359.400064 -398.10363 
L 356.998525 -398.908011 
L 354.596986 -399.728265 
L 352.195447 -400.543138 
L 349.793908 -401.372912 
L 347.392369 -402.201849 
L 344.99083 -403.08983 
L 342.589291 -404.104891 
L 340.187751 -405.118708 
L 337.786212 -406.118631 
L 335.384673 -407.108286 
L 332.983134 -408.070694 
L 330.581595 -409.023276 
L 328.180056 -409.970652 
L 325.778517 -410.874057 
L 323.376978 -411.758807 
L 320.975439 -412.642696 
L 318.5739 -413.531241 
L 316.172361 -414.366214 
L 313.770822 -415.180824 
L 311.369283 -415.986456 
L 308.967743 -416.778665 
L 306.566204 -417.568068 
L 304.164665 -418.348373 
L 301.763126 -419.094426 
L 299.361587 -419.820535 
L 296.960048 -420.542001 
L 294.558509 -421.265958 
L 292.15697 -421.987802 
L 289.755431 -422.704021 
L 287.353892 -423.40739 
L 284.952353 -424.097773 
L 282.550814 -424.790312 
L 280.149275 -425.48937 
L 277.747735 -426.189291 
L 275.346196 -426.89492 
L 272.944657 -427.580178 
L 270.543118 -428.2524 
L 268.141579 -428.914841 
L 265.74004 -429.577353 
L 263.338501 -430.253105 
L 260.936962 -430.945334 
L 258.535423 -431.630004 
L 256.133884 -432.309796 
L 253.732345 -433.010663 
L 251.330806 -433.70266 
L 248.929267 -434.391667 
L 246.527727 -435.077312 
L 244.126188 -435.750051 
L 241.724649 -436.424559 
L 239.32311 -437.104729 
L 236.921571 -437.805685 
L 234.520032 -438.487275 
L 232.118493 -439.165712 
L 229.716954 -439.83171 
L 227.315415 -440.486491 
L 224.913876 -441.147395 
L 222.512337 -441.802818 
L 220.110798 -442.450032 
L 217.709259 -443.061933 
L 215.307719 -443.6659 
L 212.90618 -444.282466 
L 210.504641 -444.883283 
L 208.103102 -445.480545 
L 205.701563 -446.075005 
L 203.300024 -446.659117 
L 200.898485 -447.223611 
L 198.496946 -447.782971 
L 196.095407 -448.320523 
L 193.693868 -448.844977 
L 191.292329 -449.367492 
L 188.89079 -449.892006 
L 186.48925 -450.407246 
L 184.087711 -450.899556 
L 181.686172 -451.393343 
L 179.284633 -451.887895 
L 176.883094 -452.372899 
L 174.481555 -452.84552 
L 172.080016 -453.312517 
L 169.678477 -453.771469 
L 167.276938 -454.219057 
z
" style="stroke: #d01e04; stroke-opacity: 0.2"/>
    </defs>
    <g clip-path="url(#pb60415a0ba)">
     <use xlink:href="#mbef933feaa" x="0" y="600" style="fill: #d01e04; fill-opacity: 0.2; stroke: #d01e04; stroke-opacity: 0.2"/>
    </g>
   </g>
   <g id="PolyCollection_6">
    <defs>
     <path id="m084c4a07ea" d="M 116.844617 -460.113699 
L 116.844617 -459.842837 
L 119.246156 -459.704872 
L 121.647695 -459.560583 
L 124.049234 -459.394899 
L 126.450774 -459.240908 
L 128.852313 -459.071595 
L 131.253852 -458.931422 
L 133.655391 -458.791253 
L 136.05693 -458.631395 
L 138.458469 -458.462028 
L 140.860008 -458.292881 
L 143.261547 -457.981053 
L 145.663086 -457.656771 
L 148.064625 -457.314673 
L 150.466164 -456.956373 
L 152.867703 -456.596501 
L 155.269242 -456.227968 
L 157.670782 -455.845725 
L 160.072321 -455.463522 
L 162.47386 -455.061872 
L 164.875399 -454.648 
L 164.875399 -454.648 
L 164.875399 -454.648 
L 162.47386 -455.147768 
L 160.072321 -455.623831 
L 157.670782 -456.072799 
L 155.269242 -456.486157 
L 152.867703 -456.859172 
L 150.466164 -457.215553 
L 148.064625 -457.540559 
L 145.663086 -457.873074 
L 143.261547 -458.202715 
L 140.860008 -458.501863 
L 138.458469 -458.657966 
L 136.05693 -458.814062 
L 133.655391 -458.97105 
L 131.253852 -459.13634 
L 128.852313 -459.28886 
L 126.450774 -459.462 
L 124.049234 -459.625948 
L 121.647695 -459.794915 
L 119.246156 -459.956837 
L 116.844617 -460.113699 
z
" style="stroke: #000000; stroke-opacity: 0.2"/>
    </defs>
    <g clip-path="url(#pb60415a0ba)">
     <use xlink:href="#m084c4a07ea" x="0" y="600" style="fill-opacity: 0.2; stroke: #000000; stroke-opacity: 0.2"/>
    </g>
   </g>
   <g id="matplotlib.axis_1">
    <g id="xtick_1">
     <g id="line2d_1">
      <defs>
       <path id="mf46ec9560c" d="M 0 0 
L 0 3.5 
" style="stroke: #000000; stroke-width: 0.8"/>
      </defs>
      <g>
       <use xlink:href="#mf46ec9560c" x="164.875399" y="515.56" style="stroke: #000000; stroke-width: 0.8"/>
      </g>
     </g>
     <g id="text_1">
      <!-- 2020 -->
      <g transform="translate(131.790399 542.315938)scale(0.26 -0.26)">
       <defs>
        <path id="DejaVuSans-32" d="M 1228 531 
L 3431 531 
L 3431 0 
L 469 0 
L 469 531 
Q 828 903 1448 1529 
Q 2069 2156 2228 2338 
Q 2531 2678 2651 2914 
Q 2772 3150 2772 3378 
Q 2772 3750 2511 3984 
Q 2250 4219 1831 4219 
Q 1534 4219 1204 4116 
Q 875 4013 500 3803 
L 500 4441 
Q 881 4594 1212 4672 
Q 1544 4750 1819 4750 
Q 2544 4750 2975 4387 
Q 3406 4025 3406 3419 
Q 3406 3131 3298 2873 
Q 3191 2616 2906 2266 
Q 2828 2175 2409 1742 
Q 1991 1309 1228 531 
z
" transform="scale(0.015625)"/>
        <path id="DejaVuSans-30" d="M 2034 4250 
Q 1547 4250 1301 3770 
Q 1056 3291 1056 2328 
Q 1056 1369 1301 889 
Q 1547 409 2034 409 
Q 2525 409 2770 889 
Q 3016 1369 3016 2328 
Q 3016 3291 2770 3770 
Q 2525 4250 2034 4250 
z
M 2034 4750 
Q 2819 4750 3233 4129 
Q 3647 3509 3647 2328 
Q 3647 1150 3233 529 
Q 2819 -91 2034 -91 
Q 1250 -91 836 529 
Q 422 1150 422 2328 
Q 422 3509 836 4129 
Q 1250 4750 2034 4750 
z
" transform="scale(0.015625)"/>
       </defs>
       <use xlink:href="#DejaVuSans-32"/>
       <use xlink:href="#DejaVuSans-30" x="63.623047"/>
       <use xlink:href="#DejaVuSans-32" x="127.246094"/>
       <use xlink:href="#DejaVuSans-30" x="190.869141"/>
      </g>
     </g>
    </g>
    <g id="xtick_2">
     <g id="line2d_2">
      <g>
       <use xlink:href="#mf46ec9560c" x="356.998525" y="515.56" style="stroke: #000000; stroke-width: 0.8"/>
      </g>
     </g>
     <g id="text_2">
      <!-- 2100 -->
      <g transform="translate(323.913525 542.315938)scale(0.26 -0.26)">
       <defs>
        <path id="DejaVuSans-31" d="M 794 531 
L 1825 531 
L 1825 4091 
L 703 3866 
L 703 4441 
L 1819 4666 
L 2450 4666 
L 2450 531 
L 3481 531 
L 3481 0 
L 794 0 
L 794 531 
z
" transform="scale(0.015625)"/>
       </defs>
       <use xlink:href="#DejaVuSans-32"/>
       <use xlink:href="#DejaVuSans-31" x="63.623047"/>
       <use xlink:href="#DejaVuSans-30" x="127.246094"/>
       <use xlink:href="#DejaVuSans-30" x="190.869141"/>
      </g>
     </g>
    </g>
    <g id="xtick_3">
     <g id="line2d_3">
      <g>
       <use xlink:href="#mf46ec9560c" x="597.152433" y="515.56" style="stroke: #000000; stroke-width: 0.8"/>
      </g>
     </g>
     <g id="text_3">
      <!-- 2200 -->
      <g transform="translate(564.067433 542.315938)scale(0.26 -0.26)">
       <use xlink:href="#DejaVuSans-32"/>
       <use xlink:href="#DejaVuSans-32" x="63.623047"/>
       <use xlink:href="#DejaVuSans-30" x="127.246094"/>
       <use xlink:href="#DejaVuSans-30" x="190.869141"/>
      </g>
     </g>
    </g>
    <g id="xtick_4">
     <g id="line2d_4">
      <g>
       <use xlink:href="#mf46ec9560c" x="837.306341" y="515.56" style="stroke: #000000; stroke-width: 0.8"/>
      </g>
     </g>
     <g id="text_4">
      <!-- 2300 -->
      <g transform="translate(804.221341 542.315938)scale(0.26 -0.26)">
       <defs>
        <path id="DejaVuSans-33" d="M 2597 2516 
Q 3050 2419 3304 2112 
Q 3559 1806 3559 1356 
Q 3559 666 3084 287 
Q 2609 -91 1734 -91 
Q 1441 -91 1130 -33 
Q 819 25 488 141 
L 488 750 
Q 750 597 1062 519 
Q 1375 441 1716 441 
Q 2309 441 2620 675 
Q 2931 909 2931 1356 
Q 2931 1769 2642 2001 
Q 2353 2234 1838 2234 
L 1294 2234 
L 1294 2753 
L 1863 2753 
Q 2328 2753 2575 2939 
Q 2822 3125 2822 3475 
Q 2822 3834 2567 4026 
Q 2313 4219 1838 4219 
Q 1578 4219 1281 4162 
Q 984 4106 628 3988 
L 628 4550 
Q 988 4650 1302 4700 
Q 1616 4750 1894 4750 
Q 2613 4750 3031 4423 
Q 3450 4097 3450 3541 
Q 3450 3153 3228 2886 
Q 3006 2619 2597 2516 
z
" transform="scale(0.015625)"/>
       </defs>
       <use xlink:href="#DejaVuSans-32"/>
       <use xlink:href="#DejaVuSans-33" x="63.623047"/>
       <use xlink:href="#DejaVuSans-30" x="127.246094"/>
       <use xlink:href="#DejaVuSans-30" x="190.869141"/>
      </g>
     </g>
    </g>
    <g id="text_5">
     <!-- Year -->
     <g transform="translate(457.010409 568.439687)scale(0.22 -0.22)">
      <defs>
       <path id="DejaVuSans-Bold-59" d="M -63 4666 
L 1253 4666 
L 2316 3003 
L 3378 4666 
L 4697 4666 
L 2919 1966 
L 2919 0 
L 1716 0 
L 1716 1966 
L -63 4666 
z
" transform="scale(0.015625)"/>
       <path id="DejaVuSans-Bold-65" d="M 4031 1759 
L 4031 1441 
L 1416 1441 
Q 1456 1047 1700 850 
Q 1944 653 2381 653 
Q 2734 653 3104 758 
Q 3475 863 3866 1075 
L 3866 213 
Q 3469 63 3072 -14 
Q 2675 -91 2278 -91 
Q 1328 -91 801 392 
Q 275 875 275 1747 
Q 275 2603 792 3093 
Q 1309 3584 2216 3584 
Q 3041 3584 3536 3087 
Q 4031 2591 4031 1759 
z
M 2881 2131 
Q 2881 2450 2695 2645 
Q 2509 2841 2209 2841 
Q 1884 2841 1681 2658 
Q 1478 2475 1428 2131 
L 2881 2131 
z
" transform="scale(0.015625)"/>
       <path id="DejaVuSans-Bold-61" d="M 2106 1575 
Q 1756 1575 1579 1456 
Q 1403 1338 1403 1106 
Q 1403 894 1545 773 
Q 1688 653 1941 653 
Q 2256 653 2472 879 
Q 2688 1106 2688 1447 
L 2688 1575 
L 2106 1575 
z
M 3816 1997 
L 3816 0 
L 2688 0 
L 2688 519 
Q 2463 200 2181 54 
Q 1900 -91 1497 -91 
Q 953 -91 614 226 
Q 275 544 275 1050 
Q 275 1666 698 1953 
Q 1122 2241 2028 2241 
L 2688 2241 
L 2688 2328 
Q 2688 2594 2478 2717 
Q 2269 2841 1825 2841 
Q 1466 2841 1156 2769 
Q 847 2697 581 2553 
L 581 3406 
Q 941 3494 1303 3539 
Q 1666 3584 2028 3584 
Q 2975 3584 3395 3211 
Q 3816 2838 3816 1997 
z
" transform="scale(0.015625)"/>
       <path id="DejaVuSans-Bold-72" d="M 3138 2547 
Q 2991 2616 2845 2648 
Q 2700 2681 2553 2681 
Q 2122 2681 1889 2404 
Q 1656 2128 1656 1613 
L 1656 0 
L 538 0 
L 538 3500 
L 1656 3500 
L 1656 2925 
Q 1872 3269 2151 3426 
Q 2431 3584 2822 3584 
Q 2878 3584 2943 3579 
Q 3009 3575 3134 3559 
L 3138 2547 
z
" transform="scale(0.015625)"/>
      </defs>
      <use xlink:href="#DejaVuSans-Bold-59"/>
      <use xlink:href="#DejaVuSans-Bold-65" x="63.287109"/>
      <use xlink:href="#DejaVuSans-Bold-61" x="131.109375"/>
      <use xlink:href="#DejaVuSans-Bold-72" x="198.589844"/>
     </g>
    </g>
   </g>
   <g id="matplotlib.axis_2">
    <g id="ytick_1">
     <g id="line2d_5">
      <defs>
       <path id="m9bd5508846" d="M 0 0 
L -3.5 0 
" style="stroke: #000000; stroke-width: 0.8"/>
      </defs>
      <g>
       <use xlink:href="#m9bd5508846" x="109.64" y="515.56" style="stroke: #000000; stroke-width: 0.8"/>
      </g>
     </g>
     <g id="text_6">
      <!-- 0 -->
      <g transform="translate(86.0975 525.437969)scale(0.26 -0.26)">
       <use xlink:href="#DejaVuSans-30"/>
      </g>
     </g>
    </g>
    <g id="ytick_2">
     <g id="line2d_6">
      <g>
       <use xlink:href="#m9bd5508846" x="109.64" y="441.5184" style="stroke: #000000; stroke-width: 0.8"/>
      </g>
     </g>
     <g id="text_7">
      <!-- 20 -->
      <g transform="translate(69.555 451.396369)scale(0.26 -0.26)">
       <use xlink:href="#DejaVuSans-32"/>
       <use xlink:href="#DejaVuSans-30" x="63.623047"/>
      </g>
     </g>
    </g>
    <g id="ytick_3">
     <g id="line2d_7">
      <g>
       <use xlink:href="#m9bd5508846" x="109.64" y="367.4768" style="stroke: #000000; stroke-width: 0.8"/>
      </g>
     </g>
     <g id="text_8">
      <!-- 40 -->
      <g transform="translate(69.555 377.354769)scale(0.26 -0.26)">
       <defs>
        <path id="DejaVuSans-34" d="M 2419 4116 
L 825 1625 
L 2419 1625 
L 2419 4116 
z
M 2253 4666 
L 3047 4666 
L 3047 1625 
L 3713 1625 
L 3713 1100 
L 3047 1100 
L 3047 0 
L 2419 0 
L 2419 1100 
L 313 1100 
L 313 1709 
L 2253 4666 
z
" transform="scale(0.015625)"/>
       </defs>
       <use xlink:href="#DejaVuSans-34"/>
       <use xlink:href="#DejaVuSans-30" x="63.623047"/>
      </g>
     </g>
    </g>
    <g id="ytick_4">
     <g id="line2d_8">
      <g>
       <use xlink:href="#m9bd5508846" x="109.64" y="293.4352" style="stroke: #000000; stroke-width: 0.8"/>
      </g>
     </g>
     <g id="text_9">
      <!-- 60 -->
      <g transform="translate(69.555 303.313169)scale(0.26 -0.26)">
       <defs>
        <path id="DejaVuSans-36" d="M 2113 2584 
Q 1688 2584 1439 2293 
Q 1191 2003 1191 1497 
Q 1191 994 1439 701 
Q 1688 409 2113 409 
Q 2538 409 2786 701 
Q 3034 994 3034 1497 
Q 3034 2003 2786 2293 
Q 2538 2584 2113 2584 
z
M 3366 4563 
L 3366 3988 
Q 3128 4100 2886 4159 
Q 2644 4219 2406 4219 
Q 1781 4219 1451 3797 
Q 1122 3375 1075 2522 
Q 1259 2794 1537 2939 
Q 1816 3084 2150 3084 
Q 2853 3084 3261 2657 
Q 3669 2231 3669 1497 
Q 3669 778 3244 343 
Q 2819 -91 2113 -91 
Q 1303 -91 875 529 
Q 447 1150 447 2328 
Q 447 3434 972 4092 
Q 1497 4750 2381 4750 
Q 2619 4750 2861 4703 
Q 3103 4656 3366 4563 
z
" transform="scale(0.015625)"/>
       </defs>
       <use xlink:href="#DejaVuSans-36"/>
       <use xlink:href="#DejaVuSans-30" x="63.623047"/>
      </g>
     </g>
    </g>
    <g id="ytick_5">
     <g id="line2d_9">
      <g>
       <use xlink:href="#m9bd5508846" x="109.64" y="219.3936" style="stroke: #000000; stroke-width: 0.8"/>
      </g>
     </g>
     <g id="text_10">
      <!-- 80 -->
      <g transform="translate(69.555 229.271569)scale(0.26 -0.26)">
       <defs>
        <path id="DejaVuSans-38" d="M 2034 2216 
Q 1584 2216 1326 1975 
Q 1069 1734 1069 1313 
Q 1069 891 1326 650 
Q 1584 409 2034 409 
Q 2484 409 2743 651 
Q 3003 894 3003 1313 
Q 3003 1734 2745 1975 
Q 2488 2216 2034 2216 
z
M 1403 2484 
Q 997 2584 770 2862 
Q 544 3141 544 3541 
Q 544 4100 942 4425 
Q 1341 4750 2034 4750 
Q 2731 4750 3128 4425 
Q 3525 4100 3525 3541 
Q 3525 3141 3298 2862 
Q 3072 2584 2669 2484 
Q 3125 2378 3379 2068 
Q 3634 1759 3634 1313 
Q 3634 634 3220 271 
Q 2806 -91 2034 -91 
Q 1263 -91 848 271 
Q 434 634 434 1313 
Q 434 1759 690 2068 
Q 947 2378 1403 2484 
z
M 1172 3481 
Q 1172 3119 1398 2916 
Q 1625 2713 2034 2713 
Q 2441 2713 2670 2916 
Q 2900 3119 2900 3481 
Q 2900 3844 2670 4047 
Q 2441 4250 2034 4250 
Q 1625 4250 1398 4047 
Q 1172 3844 1172 3481 
z
" transform="scale(0.015625)"/>
       </defs>
       <use xlink:href="#DejaVuSans-38"/>
       <use xlink:href="#DejaVuSans-30" x="63.623047"/>
      </g>
     </g>
    </g>
    <g id="ytick_6">
     <g id="line2d_10">
      <g>
       <use xlink:href="#m9bd5508846" x="109.64" y="145.352" style="stroke: #000000; stroke-width: 0.8"/>
      </g>
     </g>
     <g id="text_11">
      <!-- 100 -->
      <g transform="translate(53.0125 155.229969)scale(0.26 -0.26)">
       <use xlink:href="#DejaVuSans-31"/>
       <use xlink:href="#DejaVuSans-30" x="63.623047"/>
       <use xlink:href="#DejaVuSans-30" x="127.246094"/>
      </g>
     </g>
    </g>
    <g id="ytick_7">
     <g id="line2d_11">
      <g>
       <use xlink:href="#m9bd5508846" x="109.64" y="71.3104" style="stroke: #000000; stroke-width: 0.8"/>
      </g>
     </g>
     <g id="text_12">
      <!-- 120 -->
      <g transform="translate(53.0125 81.188369)scale(0.26 -0.26)">
       <use xlink:href="#DejaVuSans-31"/>
       <use xlink:href="#DejaVuSans-32" x="63.623047"/>
       <use xlink:href="#DejaVuSans-30" x="127.246094"/>
      </g>
     </g>
    </g>
    <g id="text_13">
     <!-- % of Remaining Glacier Mass -->
     <g transform="translate(44.265313 463.619219)rotate(-90)scale(0.22 -0.22)">
      <defs>
       <path id="DejaVuSans-Bold-25" d="M 4959 1925 
Q 4738 1925 4616 1733 
Q 4494 1541 4494 1184 
Q 4494 825 4614 633 
Q 4734 441 4959 441 
Q 5184 441 5303 633 
Q 5422 825 5422 1184 
Q 5422 1541 5301 1733 
Q 5181 1925 4959 1925 
z
M 4959 2450 
Q 5541 2450 5875 2112 
Q 6209 1775 6209 1184 
Q 6209 594 5875 251 
Q 5541 -91 4959 -91 
Q 4378 -91 4042 251 
Q 3706 594 3706 1184 
Q 3706 1772 4042 2111 
Q 4378 2450 4959 2450 
z
M 2094 -91 
L 1403 -91 
L 4319 4750 
L 5013 4750 
L 2094 -91 
z
M 1453 4750 
Q 2034 4750 2367 4411 
Q 2700 4072 2700 3481 
Q 2700 2891 2367 2550 
Q 2034 2209 1453 2209 
Q 872 2209 539 2550 
Q 206 2891 206 3481 
Q 206 4072 539 4411 
Q 872 4750 1453 4750 
z
M 1453 4225 
Q 1228 4225 1106 4031 
Q 984 3838 984 3481 
Q 984 3122 1106 2926 
Q 1228 2731 1453 2731 
Q 1678 2731 1798 2926 
Q 1919 3122 1919 3481 
Q 1919 3838 1797 4031 
Q 1675 4225 1453 4225 
z
" transform="scale(0.015625)"/>
       <path id="DejaVuSans-Bold-20" transform="scale(0.015625)"/>
       <path id="DejaVuSans-Bold-6f" d="M 2203 2784 
Q 1831 2784 1636 2517 
Q 1441 2250 1441 1747 
Q 1441 1244 1636 976 
Q 1831 709 2203 709 
Q 2569 709 2762 976 
Q 2956 1244 2956 1747 
Q 2956 2250 2762 2517 
Q 2569 2784 2203 2784 
z
M 2203 3584 
Q 3106 3584 3614 3096 
Q 4122 2609 4122 1747 
Q 4122 884 3614 396 
Q 3106 -91 2203 -91 
Q 1297 -91 786 396 
Q 275 884 275 1747 
Q 275 2609 786 3096 
Q 1297 3584 2203 3584 
z
" transform="scale(0.015625)"/>
       <path id="DejaVuSans-Bold-66" d="M 2841 4863 
L 2841 4128 
L 2222 4128 
Q 1984 4128 1890 4042 
Q 1797 3956 1797 3744 
L 1797 3500 
L 2753 3500 
L 2753 2700 
L 1797 2700 
L 1797 0 
L 678 0 
L 678 2700 
L 122 2700 
L 122 3500 
L 678 3500 
L 678 3744 
Q 678 4316 997 4589 
Q 1316 4863 1984 4863 
L 2841 4863 
z
" transform="scale(0.015625)"/>
       <path id="DejaVuSans-Bold-52" d="M 2297 2597 
Q 2675 2597 2839 2737 
Q 3003 2878 3003 3200 
Q 3003 3519 2839 3656 
Q 2675 3794 2297 3794 
L 1791 3794 
L 1791 2597 
L 2297 2597 
z
M 1791 1766 
L 1791 0 
L 588 0 
L 588 4666 
L 2425 4666 
Q 3347 4666 3776 4356 
Q 4206 4047 4206 3378 
Q 4206 2916 3982 2619 
Q 3759 2322 3309 2181 
Q 3556 2125 3751 1926 
Q 3947 1728 4147 1325 
L 4800 0 
L 3519 0 
L 2950 1159 
Q 2778 1509 2601 1637 
Q 2425 1766 2131 1766 
L 1791 1766 
z
" transform="scale(0.015625)"/>
       <path id="DejaVuSans-Bold-6d" d="M 3781 2919 
Q 3994 3244 4286 3414 
Q 4578 3584 4928 3584 
Q 5531 3584 5847 3212 
Q 6163 2841 6163 2131 
L 6163 0 
L 5038 0 
L 5038 1825 
Q 5041 1866 5042 1909 
Q 5044 1953 5044 2034 
Q 5044 2406 4934 2573 
Q 4825 2741 4581 2741 
Q 4263 2741 4089 2478 
Q 3916 2216 3909 1719 
L 3909 0 
L 2784 0 
L 2784 1825 
Q 2784 2406 2684 2573 
Q 2584 2741 2328 2741 
Q 2006 2741 1831 2477 
Q 1656 2213 1656 1722 
L 1656 0 
L 531 0 
L 531 3500 
L 1656 3500 
L 1656 2988 
Q 1863 3284 2130 3434 
Q 2397 3584 2719 3584 
Q 3081 3584 3359 3409 
Q 3638 3234 3781 2919 
z
" transform="scale(0.015625)"/>
       <path id="DejaVuSans-Bold-69" d="M 538 3500 
L 1656 3500 
L 1656 0 
L 538 0 
L 538 3500 
z
M 538 4863 
L 1656 4863 
L 1656 3950 
L 538 3950 
L 538 4863 
z
" transform="scale(0.015625)"/>
       <path id="DejaVuSans-Bold-6e" d="M 4056 2131 
L 4056 0 
L 2931 0 
L 2931 347 
L 2931 1631 
Q 2931 2084 2911 2256 
Q 2891 2428 2841 2509 
Q 2775 2619 2662 2680 
Q 2550 2741 2406 2741 
Q 2056 2741 1856 2470 
Q 1656 2200 1656 1722 
L 1656 0 
L 538 0 
L 538 3500 
L 1656 3500 
L 1656 2988 
Q 1909 3294 2193 3439 
Q 2478 3584 2822 3584 
Q 3428 3584 3742 3212 
Q 4056 2841 4056 2131 
z
" transform="scale(0.015625)"/>
       <path id="DejaVuSans-Bold-67" d="M 2919 594 
Q 2688 288 2409 144 
Q 2131 0 1766 0 
Q 1125 0 706 504 
Q 288 1009 288 1791 
Q 288 2575 706 3076 
Q 1125 3578 1766 3578 
Q 2131 3578 2409 3434 
Q 2688 3291 2919 2981 
L 2919 3500 
L 4044 3500 
L 4044 353 
Q 4044 -491 3511 -936 
Q 2978 -1381 1966 -1381 
Q 1638 -1381 1331 -1331 
Q 1025 -1281 716 -1178 
L 716 -306 
Q 1009 -475 1290 -558 
Q 1572 -641 1856 -641 
Q 2406 -641 2662 -400 
Q 2919 -159 2919 353 
L 2919 594 
z
M 2181 2772 
Q 1834 2772 1640 2515 
Q 1447 2259 1447 1791 
Q 1447 1309 1634 1061 
Q 1822 813 2181 813 
Q 2531 813 2725 1069 
Q 2919 1325 2919 1791 
Q 2919 2259 2725 2515 
Q 2531 2772 2181 2772 
z
" transform="scale(0.015625)"/>
       <path id="DejaVuSans-Bold-47" d="M 4781 347 
Q 4331 128 3847 18 
Q 3363 -91 2847 -91 
Q 1681 -91 1000 561 
Q 319 1213 319 2328 
Q 319 3456 1012 4103 
Q 1706 4750 2913 4750 
Q 3378 4750 3804 4662 
Q 4231 4575 4609 4403 
L 4609 3438 
Q 4219 3659 3833 3768 
Q 3447 3878 3059 3878 
Q 2341 3878 1952 3476 
Q 1563 3075 1563 2328 
Q 1563 1588 1938 1184 
Q 2313 781 3003 781 
Q 3191 781 3352 804 
Q 3513 828 3641 878 
L 3641 1784 
L 2906 1784 
L 2906 2591 
L 4781 2591 
L 4781 347 
z
" transform="scale(0.015625)"/>
       <path id="DejaVuSans-Bold-6c" d="M 538 4863 
L 1656 4863 
L 1656 0 
L 538 0 
L 538 4863 
z
" transform="scale(0.015625)"/>
       <path id="DejaVuSans-Bold-63" d="M 3366 3391 
L 3366 2478 
Q 3138 2634 2908 2709 
Q 2678 2784 2431 2784 
Q 1963 2784 1702 2511 
Q 1441 2238 1441 1747 
Q 1441 1256 1702 982 
Q 1963 709 2431 709 
Q 2694 709 2930 787 
Q 3166 866 3366 1019 
L 3366 103 
Q 3103 6 2833 -42 
Q 2563 -91 2291 -91 
Q 1344 -91 809 395 
Q 275 881 275 1747 
Q 275 2613 809 3098 
Q 1344 3584 2291 3584 
Q 2566 3584 2833 3536 
Q 3100 3488 3366 3391 
z
" transform="scale(0.015625)"/>
       <path id="DejaVuSans-Bold-4d" d="M 588 4666 
L 2119 4666 
L 3181 2169 
L 4250 4666 
L 5778 4666 
L 5778 0 
L 4641 0 
L 4641 3413 
L 3566 897 
L 2803 897 
L 1728 3413 
L 1728 0 
L 588 0 
L 588 4666 
z
" transform="scale(0.015625)"/>
       <path id="DejaVuSans-Bold-73" d="M 3272 3391 
L 3272 2541 
Q 2913 2691 2578 2766 
Q 2244 2841 1947 2841 
Q 1628 2841 1473 2761 
Q 1319 2681 1319 2516 
Q 1319 2381 1436 2309 
Q 1553 2238 1856 2203 
L 2053 2175 
Q 2913 2066 3209 1816 
Q 3506 1566 3506 1031 
Q 3506 472 3093 190 
Q 2681 -91 1863 -91 
Q 1516 -91 1145 -36 
Q 775 19 384 128 
L 384 978 
Q 719 816 1070 734 
Q 1422 653 1784 653 
Q 2113 653 2278 743 
Q 2444 834 2444 1013 
Q 2444 1163 2330 1236 
Q 2216 1309 1875 1350 
L 1678 1375 
Q 931 1469 631 1722 
Q 331 1975 331 2491 
Q 331 3047 712 3315 
Q 1094 3584 1881 3584 
Q 2191 3584 2531 3537 
Q 2872 3491 3272 3391 
z
" transform="scale(0.015625)"/>
      </defs>
      <use xlink:href="#DejaVuSans-Bold-25"/>
      <use xlink:href="#DejaVuSans-Bold-20" x="100.195312"/>
      <use xlink:href="#DejaVuSans-Bold-6f" x="135.009766"/>
      <use xlink:href="#DejaVuSans-Bold-66" x="203.710938"/>
      <use xlink:href="#DejaVuSans-Bold-20" x="247.216797"/>
      <use xlink:href="#DejaVuSans-Bold-52" x="282.03125"/>
      <use xlink:href="#DejaVuSans-Bold-65" x="359.033203"/>
      <use xlink:href="#DejaVuSans-Bold-6d" x="426.855469"/>
      <use xlink:href="#DejaVuSans-Bold-61" x="531.054688"/>
      <use xlink:href="#DejaVuSans-Bold-69" x="598.535156"/>
      <use xlink:href="#DejaVuSans-Bold-6e" x="632.8125"/>
      <use xlink:href="#DejaVuSans-Bold-69" x="704.003906"/>
      <use xlink:href="#DejaVuSans-Bold-6e" x="738.28125"/>
      <use xlink:href="#DejaVuSans-Bold-67" x="809.472656"/>
      <use xlink:href="#DejaVuSans-Bold-20" x="881.054688"/>
      <use xlink:href="#DejaVuSans-Bold-47" x="915.869141"/>
      <use xlink:href="#DejaVuSans-Bold-6c" x="997.949219"/>
      <use xlink:href="#DejaVuSans-Bold-61" x="1032.226562"/>
      <use xlink:href="#DejaVuSans-Bold-63" x="1099.707031"/>
      <use xlink:href="#DejaVuSans-Bold-69" x="1158.984375"/>
      <use xlink:href="#DejaVuSans-Bold-65" x="1193.261719"/>
      <use xlink:href="#DejaVuSans-Bold-72" x="1261.083984"/>
      <use xlink:href="#DejaVuSans-Bold-20" x="1310.400391"/>
      <use xlink:href="#DejaVuSans-Bold-4d" x="1345.214844"/>
      <use xlink:href="#DejaVuSans-Bold-61" x="1444.726562"/>
      <use xlink:href="#DejaVuSans-Bold-73" x="1512.207031"/>
      <use xlink:href="#DejaVuSans-Bold-73" x="1571.728516"/>
     </g>
    </g>
   </g>
   <g id="line2d_12">
    <path d="M 167.276938 145.63781 
L 181.686172 147.460994 
L 205.701563 151.1061 
L 220.110798 153.585225 
L 227.315415 154.784704 
L 234.520032 155.764996 
L 246.527727 157.041863 
L 260.936962 158.26452 
L 277.747735 159.604922 
L 284.952353 160.325789 
L 306.566204 162.611493 
L 320.975439 163.76179 
L 330.581595 164.549842 
L 340.187751 165.556081 
L 349.793908 166.741077 
L 378.612377 170.812718 
L 385.816994 171.554935 
L 395.42315 172.246152 
L 409.832385 172.844139 
L 417.037002 173.09279 
L 431.446236 173.944786 
L 443.453932 174.827936 
L 462.666244 176.328482 
L 474.67394 176.970279 
L 503.492409 178.112434 
L 513.098565 178.590842 
L 532.310878 179.613455 
L 541.917034 179.79333 
L 558.727808 179.756555 
L 589.947816 179.503001 
L 611.561667 179.585431 
L 637.978597 179.423628 
L 647.584753 179.145387 
L 674.001683 178.205049 
L 688.410918 177.984679 
L 698.017074 178.131578 
L 707.62323 178.34533 
L 738.843238 178.258048 
L 748.449395 178.187991 
L 760.45709 178.172553 
L 774.866325 177.928159 
L 808.487872 177.189635 
L 837.306341 177.323797 
L 837.306341 177.323797 
" clip-path="url(#pb60415a0ba)" style="fill: none; stroke: #74b8f8; stroke-opacity: 0.5; stroke-width: 6; stroke-linecap: square"/>
   </g>
   <g id="line2d_13">
    <path d="M 116.844617 140.675314 
L 119.246156 140.846384 
L 121.647695 141.015816 
L 124.049234 141.186583 
L 126.450774 141.344179 
L 128.852313 141.520456 
L 131.253852 141.665088 
L 133.655391 141.80806 
L 136.05693 141.940499 
L 138.458469 142.09681 
L 140.860008 142.254187 
L 143.261547 142.553621 
L 145.663086 142.862717 
L 148.064625 143.188075 
L 150.466164 143.492052 
L 152.867703 143.801778 
L 155.269242 144.102884 
L 157.670782 144.421152 
L 160.072321 144.737154 
L 162.47386 145.046273 
L 164.875399 145.352 
" clip-path="url(#pb60415a0ba)" style="fill: none; stroke: #000000; stroke-opacity: 0.5; stroke-width: 6; stroke-linecap: square"/>
   </g>
   <g id="line2d_14">
    <path d="M 167.276938 145.812986 
L 174.481555 147.299789 
L 179.284633 148.431089 
L 188.89079 151.044256 
L 196.095407 153.114449 
L 205.701563 156.302821 
L 215.307719 159.673809 
L 227.315415 163.409738 
L 236.921571 166.345006 
L 248.929267 170.203443 
L 263.338501 174.8278 
L 275.346196 178.429896 
L 282.550814 180.642065 
L 296.960048 185.042563 
L 306.566204 187.795881 
L 313.770822 189.806282 
L 356.998525 203.80114 
L 369.00622 207.557255 
L 390.620072 213.962748 
L 409.832385 219.324586 
L 481.878557 239.219132 
L 493.886252 242.388219 
L 508.295487 246.126832 
L 529.909339 251.589915 
L 539.515495 253.877121 
L 553.924729 257.141374 
L 589.947816 264.945591 
L 604.35705 267.906122 
L 628.372441 272.457772 
L 652.387832 276.975275 
L 664.395527 279.400959 
L 702.820152 287.094361 
L 714.827848 289.267554 
L 750.850934 295.678358 
L 765.260168 298.331423 
L 782.070942 300.181357 
L 794.078637 301.444973 
L 818.094028 303.906648 
L 837.306341 304.961397 
L 837.306341 304.961397 
" clip-path="url(#pb60415a0ba)" style="fill: none; stroke: #f47100; stroke-opacity: 0.5; stroke-width: 6; stroke-linecap: square"/>
   </g>
   <g id="line2d_15">
    <path d="M 116.844617 139.850904 
L 119.246156 140.056378 
L 121.647695 140.234115 
L 124.049234 140.404136 
L 126.450774 140.560315 
L 128.852313 140.726007 
L 131.253852 140.882419 
L 133.655391 141.028337 
L 136.05693 141.166357 
L 138.458469 141.330922 
L 140.860008 141.493933 
L 143.261547 141.803438 
L 145.663086 142.15148 
L 148.064625 142.532144 
L 150.466164 142.90221 
L 152.867703 143.276442 
L 155.269242 143.657649 
L 157.670782 144.052095 
L 160.072321 144.462172 
L 162.47386 144.894401 
L 164.875399 145.352 
" clip-path="url(#pb60415a0ba)" style="fill: none; stroke: #000000; stroke-opacity: 0.5; stroke-width: 6; stroke-linecap: square"/>
   </g>
   <g id="line2d_16">
    <path d="M 167.276938 145.814768 
L 176.883094 147.772771 
L 188.89079 150.694043 
L 198.496946 153.320438 
L 210.504641 156.915395 
L 224.913876 161.665635 
L 232.118493 164.246638 
L 239.32311 167.031412 
L 248.929267 171.037114 
L 253.732345 173.009526 
L 268.141579 178.75021 
L 284.952353 185.46885 
L 296.960048 190.337809 
L 306.566204 194.568854 
L 325.778517 203.405603 
L 335.384673 208.009454 
L 397.824689 238.7157 
L 402.627768 241.072337 
L 412.233924 244.845856 
L 429.044697 252.214241 
L 438.650854 256.41613 
L 457.863166 264.768105 
L 491.484713 278.730164 
L 501.09087 282.654995 
L 510.697026 286.572325 
L 527.5078 293.406895 
L 537.113956 297.372041 
L 544.318573 300.194591 
L 556.326268 304.580962 
L 565.932425 307.883465 
L 599.553972 318.87529 
L 613.963206 325.417849 
L 633.175519 334.189619 
L 647.584753 340.773518 
L 695.615535 362.824185 
L 710.024769 369.049258 
L 712.426309 369.920356 
L 746.047856 378.811526 
L 774.866325 386.531189 
L 803.684794 393.541684 
L 815.692489 396.324507 
L 837.306341 398.836679 
L 837.306341 398.836679 
" clip-path="url(#pb60415a0ba)" style="fill: none; stroke: #d01e04; stroke-opacity: 0.5; stroke-width: 6; stroke-linecap: square"/>
   </g>
   <g id="line2d_17">
    <path d="M 116.844617 140.003942 
L 119.246156 140.197443 
L 121.647695 140.385104 
L 124.049234 140.574221 
L 126.450774 140.730921 
L 128.852313 140.884419 
L 131.253852 141.03462 
L 133.655391 141.169857 
L 136.05693 141.294085 
L 138.458469 141.450136 
L 140.860008 141.610541 
L 143.261547 141.929353 
L 145.663086 142.256811 
L 148.064625 142.599867 
L 150.466164 142.95369 
L 152.867703 143.305137 
L 155.269242 143.668994 
L 157.670782 144.0711 
L 160.072321 144.477976 
L 162.47386 144.90706 
L 164.875399 145.352 
" clip-path="url(#pb60415a0ba)" style="fill: none; stroke: #000000; stroke-opacity: 0.5; stroke-width: 6; stroke-linecap: square"/>
   </g>
   <g id="patch_3">
    <path d="M 109.64 515.56 
L 109.64 52.8 
" style="fill: none; stroke: #000000; stroke-width: 0.8; stroke-linejoin: miter; stroke-linecap: square"/>
   </g>
   <g id="patch_4">
    <path d="M 109.64 515.56 
L 858.920192 515.56 
" style="fill: none; stroke: #000000; stroke-width: 0.8; stroke-linejoin: miter; stroke-linecap: square"/>
   </g>
   <g id="text_14">
    <!-- Subantarctic &amp; Antarctic Islands -->
    <g transform="translate(265.291346 46.8)scale(0.24 -0.24)">
     <defs>
      <path id="DejaVuSans-Bold-53" d="M 3834 4519 
L 3834 3531 
Q 3450 3703 3084 3790 
Q 2719 3878 2394 3878 
Q 1963 3878 1756 3759 
Q 1550 3641 1550 3391 
Q 1550 3203 1689 3098 
Q 1828 2994 2194 2919 
L 2706 2816 
Q 3484 2659 3812 2340 
Q 4141 2022 4141 1434 
Q 4141 663 3683 286 
Q 3225 -91 2284 -91 
Q 1841 -91 1394 -6 
Q 947 78 500 244 
L 500 1259 
Q 947 1022 1364 901 
Q 1781 781 2169 781 
Q 2563 781 2772 912 
Q 2981 1044 2981 1288 
Q 2981 1506 2839 1625 
Q 2697 1744 2272 1838 
L 1806 1941 
Q 1106 2091 782 2419 
Q 459 2747 459 3303 
Q 459 4000 909 4375 
Q 1359 4750 2203 4750 
Q 2588 4750 2994 4692 
Q 3400 4634 3834 4519 
z
" transform="scale(0.015625)"/>
      <path id="DejaVuSans-Bold-75" d="M 500 1363 
L 500 3500 
L 1625 3500 
L 1625 3150 
Q 1625 2866 1622 2436 
Q 1619 2006 1619 1863 
Q 1619 1441 1641 1255 
Q 1663 1069 1716 984 
Q 1784 875 1895 815 
Q 2006 756 2150 756 
Q 2500 756 2700 1025 
Q 2900 1294 2900 1772 
L 2900 3500 
L 4019 3500 
L 4019 0 
L 2900 0 
L 2900 506 
Q 2647 200 2364 54 
Q 2081 -91 1741 -91 
Q 1134 -91 817 281 
Q 500 653 500 1363 
z
" transform="scale(0.015625)"/>
      <path id="DejaVuSans-Bold-62" d="M 2400 722 
Q 2759 722 2948 984 
Q 3138 1247 3138 1747 
Q 3138 2247 2948 2509 
Q 2759 2772 2400 2772 
Q 2041 2772 1848 2508 
Q 1656 2244 1656 1747 
Q 1656 1250 1848 986 
Q 2041 722 2400 722 
z
M 1656 2988 
Q 1888 3294 2169 3439 
Q 2450 3584 2816 3584 
Q 3463 3584 3878 3070 
Q 4294 2556 4294 1747 
Q 4294 938 3878 423 
Q 3463 -91 2816 -91 
Q 2450 -91 2169 54 
Q 1888 200 1656 506 
L 1656 0 
L 538 0 
L 538 4863 
L 1656 4863 
L 1656 2988 
z
" transform="scale(0.015625)"/>
      <path id="DejaVuSans-Bold-74" d="M 1759 4494 
L 1759 3500 
L 2913 3500 
L 2913 2700 
L 1759 2700 
L 1759 1216 
Q 1759 972 1856 886 
Q 1953 800 2241 800 
L 2816 800 
L 2816 0 
L 1856 0 
Q 1194 0 917 276 
Q 641 553 641 1216 
L 641 2700 
L 84 2700 
L 84 3500 
L 641 3500 
L 641 4494 
L 1759 4494 
z
" transform="scale(0.015625)"/>
      <path id="DejaVuSans-Bold-26" d="M 2497 3097 
L 3775 1691 
Q 3941 1909 4027 2181 
Q 4113 2453 4128 2797 
L 5100 2797 
Q 5053 2228 4879 1784 
Q 4706 1341 4397 1006 
L 5313 0 
L 3988 0 
L 3681 341 
Q 3353 122 2990 15 
Q 2628 -91 2222 -91 
Q 1400 -91 892 342 
Q 384 775 384 1459 
Q 384 1916 607 2267 
Q 831 2619 1338 2950 
Q 1206 3116 1143 3281 
Q 1081 3447 1081 3628 
Q 1081 4138 1478 4444 
Q 1875 4750 2534 4750 
Q 2819 4750 3126 4704 
Q 3434 4659 3769 4569 
L 3769 3700 
Q 3475 3850 3212 3922 
Q 2950 3994 2700 3994 
Q 2459 3994 2326 3901 
Q 2194 3809 2194 3641 
Q 2194 3534 2270 3398 
Q 2347 3263 2497 3097 
z
M 1875 2322 
Q 1672 2175 1569 1989 
Q 1466 1803 1466 1581 
Q 1466 1222 1731 969 
Q 1997 716 2369 716 
Q 2578 716 2759 780 
Q 2941 844 3097 972 
L 1875 2322 
z
" transform="scale(0.015625)"/>
      <path id="DejaVuSans-Bold-41" d="M 3419 850 
L 1538 850 
L 1241 0 
L 31 0 
L 1759 4666 
L 3194 4666 
L 4922 0 
L 3713 0 
L 3419 850 
z
M 1838 1716 
L 3116 1716 
L 2478 3572 
L 1838 1716 
z
" transform="scale(0.015625)"/>
      <path id="DejaVuSans-Bold-49" d="M 588 4666 
L 1791 4666 
L 1791 0 
L 588 0 
L 588 4666 
z
" transform="scale(0.015625)"/>
      <path id="DejaVuSans-Bold-64" d="M 2919 2988 
L 2919 4863 
L 4044 4863 
L 4044 0 
L 2919 0 
L 2919 506 
Q 2688 197 2409 53 
Q 2131 -91 1766 -91 
Q 1119 -91 703 423 
Q 288 938 288 1747 
Q 288 2556 703 3070 
Q 1119 3584 1766 3584 
Q 2128 3584 2408 3439 
Q 2688 3294 2919 2988 
z
M 2181 722 
Q 2541 722 2730 984 
Q 2919 1247 2919 1747 
Q 2919 2247 2730 2509 
Q 2541 2772 2181 2772 
Q 1825 2772 1636 2509 
Q 1447 2247 1447 1747 
Q 1447 1247 1636 984 
Q 1825 722 2181 722 
z
" transform="scale(0.015625)"/>
     </defs>
     <use xlink:href="#DejaVuSans-Bold-53"/>
     <use xlink:href="#DejaVuSans-Bold-75" x="72.021484"/>
     <use xlink:href="#DejaVuSans-Bold-62" x="143.212891"/>
     <use xlink:href="#DejaVuSans-Bold-61" x="214.794922"/>
     <use xlink:href="#DejaVuSans-Bold-6e" x="282.275391"/>
     <use xlink:href="#DejaVuSans-Bold-74" x="353.466797"/>
     <use xlink:href="#DejaVuSans-Bold-61" x="401.269531"/>
     <use xlink:href="#DejaVuSans-Bold-72" x="468.75"/>
     <use xlink:href="#DejaVuSans-Bold-63" x="518.066406"/>
     <use xlink:href="#DejaVuSans-Bold-74" x="577.34375"/>
     <use xlink:href="#DejaVuSans-Bold-69" x="625.146484"/>
     <use xlink:href="#DejaVuSans-Bold-63" x="659.423828"/>
     <use xlink:href="#DejaVuSans-Bold-20" x="718.701172"/>
     <use xlink:href="#DejaVuSans-Bold-26" x="753.515625"/>
     <use xlink:href="#DejaVuSans-Bold-20" x="840.722656"/>
     <use xlink:href="#DejaVuSans-Bold-41" x="875.537109"/>
     <use xlink:href="#DejaVuSans-Bold-6e" x="952.929688"/>
     <use xlink:href="#DejaVuSans-Bold-74" x="1024.121094"/>
     <use xlink:href="#DejaVuSans-Bold-61" x="1071.923828"/>
     <use xlink:href="#DejaVuSans-Bold-72" x="1139.404297"/>
     <use xlink:href="#DejaVuSans-Bold-63" x="1188.720703"/>
     <use xlink:href="#DejaVuSans-Bold-74" x="1247.998047"/>
     <use xlink:href="#DejaVuSans-Bold-69" x="1295.800781"/>
     <use xlink:href="#DejaVuSans-Bold-63" x="1330.078125"/>
     <use xlink:href="#DejaVuSans-Bold-20" x="1389.355469"/>
     <use xlink:href="#DejaVuSans-Bold-49" x="1424.169922"/>
     <use xlink:href="#DejaVuSans-Bold-73" x="1461.376953"/>
     <use xlink:href="#DejaVuSans-Bold-6c" x="1520.898438"/>
     <use xlink:href="#DejaVuSans-Bold-61" x="1555.175781"/>
     <use xlink:href="#DejaVuSans-Bold-6e" x="1622.65625"/>
     <use xlink:href="#DejaVuSans-Bold-64" x="1693.847656"/>
     <use xlink:href="#DejaVuSans-Bold-73" x="1765.429688"/>
    </g>
   </g>
   <g id="legend_1">
    <g id="patch_5">
     <path d="M 597.903942 225.737875 
L 843.520192 225.737875 
Q 847.920192 225.737875 847.920192 221.337875 
L 847.920192 68.2 
Q 847.920192 63.8 843.520192 63.8 
L 597.903942 63.8 
Q 593.503942 63.8 593.503942 68.2 
L 593.503942 221.337875 
Q 593.503942 225.737875 597.903942 225.737875 
z
" style="fill: #ffffff; opacity: 0.6; stroke: #cccccc; stroke-linejoin: miter"/>
    </g>
    <g id="text_15">
     <!-- Global mean -->
     <g transform="translate(602.303942 89.316563)scale(0.22 -0.22)">
      <defs>
       <path id="DejaVuSans-47" d="M 3809 666 
L 3809 1919 
L 2778 1919 
L 2778 2438 
L 4434 2438 
L 4434 434 
Q 4069 175 3628 42 
Q 3188 -91 2688 -91 
Q 1594 -91 976 548 
Q 359 1188 359 2328 
Q 359 3472 976 4111 
Q 1594 4750 2688 4750 
Q 3144 4750 3555 4637 
Q 3966 4525 4313 4306 
L 4313 3634 
Q 3963 3931 3569 4081 
Q 3175 4231 2741 4231 
Q 1884 4231 1454 3753 
Q 1025 3275 1025 2328 
Q 1025 1384 1454 906 
Q 1884 428 2741 428 
Q 3075 428 3337 486 
Q 3600 544 3809 666 
z
" transform="scale(0.015625)"/>
       <path id="DejaVuSans-6c" d="M 603 4863 
L 1178 4863 
L 1178 0 
L 603 0 
L 603 4863 
z
" transform="scale(0.015625)"/>
       <path id="DejaVuSans-6f" d="M 1959 3097 
Q 1497 3097 1228 2736 
Q 959 2375 959 1747 
Q 959 1119 1226 758 
Q 1494 397 1959 397 
Q 2419 397 2687 759 
Q 2956 1122 2956 1747 
Q 2956 2369 2687 2733 
Q 2419 3097 1959 3097 
z
M 1959 3584 
Q 2709 3584 3137 3096 
Q 3566 2609 3566 1747 
Q 3566 888 3137 398 
Q 2709 -91 1959 -91 
Q 1206 -91 779 398 
Q 353 888 353 1747 
Q 353 2609 779 3096 
Q 1206 3584 1959 3584 
z
" transform="scale(0.015625)"/>
       <path id="DejaVuSans-62" d="M 3116 1747 
Q 3116 2381 2855 2742 
Q 2594 3103 2138 3103 
Q 1681 3103 1420 2742 
Q 1159 2381 1159 1747 
Q 1159 1113 1420 752 
Q 1681 391 2138 391 
Q 2594 391 2855 752 
Q 3116 1113 3116 1747 
z
M 1159 2969 
Q 1341 3281 1617 3432 
Q 1894 3584 2278 3584 
Q 2916 3584 3314 3078 
Q 3713 2572 3713 1747 
Q 3713 922 3314 415 
Q 2916 -91 2278 -91 
Q 1894 -91 1617 61 
Q 1341 213 1159 525 
L 1159 0 
L 581 0 
L 581 4863 
L 1159 4863 
L 1159 2969 
z
" transform="scale(0.015625)"/>
       <path id="DejaVuSans-61" d="M 2194 1759 
Q 1497 1759 1228 1600 
Q 959 1441 959 1056 
Q 959 750 1161 570 
Q 1363 391 1709 391 
Q 2188 391 2477 730 
Q 2766 1069 2766 1631 
L 2766 1759 
L 2194 1759 
z
M 3341 1997 
L 3341 0 
L 2766 0 
L 2766 531 
Q 2569 213 2275 61 
Q 1981 -91 1556 -91 
Q 1019 -91 701 211 
Q 384 513 384 1019 
Q 384 1609 779 1909 
Q 1175 2209 1959 2209 
L 2766 2209 
L 2766 2266 
Q 2766 2663 2505 2880 
Q 2244 3097 1772 3097 
Q 1472 3097 1187 3025 
Q 903 2953 641 2809 
L 641 3341 
Q 956 3463 1253 3523 
Q 1550 3584 1831 3584 
Q 2591 3584 2966 3190 
Q 3341 2797 3341 1997 
z
" transform="scale(0.015625)"/>
       <path id="DejaVuSans-20" transform="scale(0.015625)"/>
       <path id="DejaVuSans-6d" d="M 3328 2828 
Q 3544 3216 3844 3400 
Q 4144 3584 4550 3584 
Q 5097 3584 5394 3201 
Q 5691 2819 5691 2113 
L 5691 0 
L 5113 0 
L 5113 2094 
Q 5113 2597 4934 2840 
Q 4756 3084 4391 3084 
Q 3944 3084 3684 2787 
Q 3425 2491 3425 1978 
L 3425 0 
L 2847 0 
L 2847 2094 
Q 2847 2600 2669 2842 
Q 2491 3084 2119 3084 
Q 1678 3084 1418 2786 
Q 1159 2488 1159 1978 
L 1159 0 
L 581 0 
L 581 3500 
L 1159 3500 
L 1159 2956 
Q 1356 3278 1631 3431 
Q 1906 3584 2284 3584 
Q 2666 3584 2933 3390 
Q 3200 3197 3328 2828 
z
" transform="scale(0.015625)"/>
       <path id="DejaVuSans-65" d="M 3597 1894 
L 3597 1613 
L 953 1613 
Q 991 1019 1311 708 
Q 1631 397 2203 397 
Q 2534 397 2845 478 
Q 3156 559 3463 722 
L 3463 178 
Q 3153 47 2828 -22 
Q 2503 -91 2169 -91 
Q 1331 -91 842 396 
Q 353 884 353 1716 
Q 353 2575 817 3079 
Q 1281 3584 2069 3584 
Q 2775 3584 3186 3129 
Q 3597 2675 3597 1894 
z
M 3022 2063 
Q 3016 2534 2758 2815 
Q 2500 3097 2075 3097 
Q 1594 3097 1305 2825 
Q 1016 2553 972 2059 
L 3022 2063 
z
" transform="scale(0.015625)"/>
       <path id="DejaVuSans-6e" d="M 3513 2113 
L 3513 0 
L 2938 0 
L 2938 2094 
Q 2938 2591 2744 2837 
Q 2550 3084 2163 3084 
Q 1697 3084 1428 2787 
Q 1159 2491 1159 1978 
L 1159 0 
L 581 0 
L 581 3500 
L 1159 3500 
L 1159 2956 
Q 1366 3272 1645 3428 
Q 1925 3584 2291 3584 
Q 2894 3584 3203 3211 
Q 3513 2838 3513 2113 
z
" transform="scale(0.015625)"/>
      </defs>
      <use xlink:href="#DejaVuSans-47"/>
      <use xlink:href="#DejaVuSans-6c" x="77.490234"/>
      <use xlink:href="#DejaVuSans-6f" x="105.273438"/>
      <use xlink:href="#DejaVuSans-62" x="166.455078"/>
      <use xlink:href="#DejaVuSans-61" x="229.931641"/>
      <use xlink:href="#DejaVuSans-6c" x="291.210938"/>
      <use xlink:href="#DejaVuSans-20" x="318.994141"/>
      <use xlink:href="#DejaVuSans-6d" x="350.78125"/>
      <use xlink:href="#DejaVuSans-65" x="448.193359"/>
      <use xlink:href="#DejaVuSans-61" x="509.716797"/>
      <use xlink:href="#DejaVuSans-6e" x="570.996094"/>
     </g>
     <!-- temperature above -->
     <g transform="translate(602.303942 113.95175)scale(0.22 -0.22)">
      <defs>
       <path id="DejaVuSans-74" d="M 1172 4494 
L 1172 3500 
L 2356 3500 
L 2356 3053 
L 1172 3053 
L 1172 1153 
Q 1172 725 1289 603 
Q 1406 481 1766 481 
L 2356 481 
L 2356 0 
L 1766 0 
Q 1100 0 847 248 
Q 594 497 594 1153 
L 594 3053 
L 172 3053 
L 172 3500 
L 594 3500 
L 594 4494 
L 1172 4494 
z
" transform="scale(0.015625)"/>
       <path id="DejaVuSans-70" d="M 1159 525 
L 1159 -1331 
L 581 -1331 
L 581 3500 
L 1159 3500 
L 1159 2969 
Q 1341 3281 1617 3432 
Q 1894 3584 2278 3584 
Q 2916 3584 3314 3078 
Q 3713 2572 3713 1747 
Q 3713 922 3314 415 
Q 2916 -91 2278 -91 
Q 1894 -91 1617 61 
Q 1341 213 1159 525 
z
M 3116 1747 
Q 3116 2381 2855 2742 
Q 2594 3103 2138 3103 
Q 1681 3103 1420 2742 
Q 1159 2381 1159 1747 
Q 1159 1113 1420 752 
Q 1681 391 2138 391 
Q 2594 391 2855 752 
Q 3116 1113 3116 1747 
z
" transform="scale(0.015625)"/>
       <path id="DejaVuSans-72" d="M 2631 2963 
Q 2534 3019 2420 3045 
Q 2306 3072 2169 3072 
Q 1681 3072 1420 2755 
Q 1159 2438 1159 1844 
L 1159 0 
L 581 0 
L 581 3500 
L 1159 3500 
L 1159 2956 
Q 1341 3275 1631 3429 
Q 1922 3584 2338 3584 
Q 2397 3584 2469 3576 
Q 2541 3569 2628 3553 
L 2631 2963 
z
" transform="scale(0.015625)"/>
       <path id="DejaVuSans-75" d="M 544 1381 
L 544 3500 
L 1119 3500 
L 1119 1403 
Q 1119 906 1312 657 
Q 1506 409 1894 409 
Q 2359 409 2629 706 
Q 2900 1003 2900 1516 
L 2900 3500 
L 3475 3500 
L 3475 0 
L 2900 0 
L 2900 538 
Q 2691 219 2414 64 
Q 2138 -91 1772 -91 
Q 1169 -91 856 284 
Q 544 659 544 1381 
z
M 1991 3584 
L 1991 3584 
z
" transform="scale(0.015625)"/>
       <path id="DejaVuSans-76" d="M 191 3500 
L 800 3500 
L 1894 563 
L 2988 3500 
L 3597 3500 
L 2284 0 
L 1503 0 
L 191 3500 
z
" transform="scale(0.015625)"/>
      </defs>
      <use xlink:href="#DejaVuSans-74"/>
      <use xlink:href="#DejaVuSans-65" x="39.208984"/>
      <use xlink:href="#DejaVuSans-6d" x="100.732422"/>
      <use xlink:href="#DejaVuSans-70" x="198.144531"/>
      <use xlink:href="#DejaVuSans-65" x="261.621094"/>
      <use xlink:href="#DejaVuSans-72" x="323.144531"/>
      <use xlink:href="#DejaVuSans-61" x="364.257812"/>
      <use xlink:href="#DejaVuSans-74" x="425.537109"/>
      <use xlink:href="#DejaVuSans-75" x="464.746094"/>
      <use xlink:href="#DejaVuSans-72" x="528.125"/>
      <use xlink:href="#DejaVuSans-65" x="566.988281"/>
      <use xlink:href="#DejaVuSans-20" x="628.511719"/>
      <use xlink:href="#DejaVuSans-61" x="660.298828"/>
      <use xlink:href="#DejaVuSans-62" x="721.578125"/>
      <use xlink:href="#DejaVuSans-6f" x="785.054688"/>
      <use xlink:href="#DejaVuSans-76" x="846.236328"/>
      <use xlink:href="#DejaVuSans-65" x="905.416016"/>
     </g>
     <!-- pre-industrial in 2100 -->
     <g transform="translate(602.303942 138.586938)scale(0.22 -0.22)">
      <defs>
       <path id="DejaVuSans-2d" d="M 313 2009 
L 1997 2009 
L 1997 1497 
L 313 1497 
L 313 2009 
z
" transform="scale(0.015625)"/>
       <path id="DejaVuSans-69" d="M 603 3500 
L 1178 3500 
L 1178 0 
L 603 0 
L 603 3500 
z
M 603 4863 
L 1178 4863 
L 1178 4134 
L 603 4134 
L 603 4863 
z
" transform="scale(0.015625)"/>
       <path id="DejaVuSans-64" d="M 2906 2969 
L 2906 4863 
L 3481 4863 
L 3481 0 
L 2906 0 
L 2906 525 
Q 2725 213 2448 61 
Q 2172 -91 1784 -91 
Q 1150 -91 751 415 
Q 353 922 353 1747 
Q 353 2572 751 3078 
Q 1150 3584 1784 3584 
Q 2172 3584 2448 3432 
Q 2725 3281 2906 2969 
z
M 947 1747 
Q 947 1113 1208 752 
Q 1469 391 1925 391 
Q 2381 391 2643 752 
Q 2906 1113 2906 1747 
Q 2906 2381 2643 2742 
Q 2381 3103 1925 3103 
Q 1469 3103 1208 2742 
Q 947 2381 947 1747 
z
" transform="scale(0.015625)"/>
       <path id="DejaVuSans-73" d="M 2834 3397 
L 2834 2853 
Q 2591 2978 2328 3040 
Q 2066 3103 1784 3103 
Q 1356 3103 1142 2972 
Q 928 2841 928 2578 
Q 928 2378 1081 2264 
Q 1234 2150 1697 2047 
L 1894 2003 
Q 2506 1872 2764 1633 
Q 3022 1394 3022 966 
Q 3022 478 2636 193 
Q 2250 -91 1575 -91 
Q 1294 -91 989 -36 
Q 684 19 347 128 
L 347 722 
Q 666 556 975 473 
Q 1284 391 1588 391 
Q 1994 391 2212 530 
Q 2431 669 2431 922 
Q 2431 1156 2273 1281 
Q 2116 1406 1581 1522 
L 1381 1569 
Q 847 1681 609 1914 
Q 372 2147 372 2553 
Q 372 3047 722 3315 
Q 1072 3584 1716 3584 
Q 2034 3584 2315 3537 
Q 2597 3491 2834 3397 
z
" transform="scale(0.015625)"/>
      </defs>
      <use xlink:href="#DejaVuSans-70"/>
      <use xlink:href="#DejaVuSans-72" x="63.476562"/>
      <use xlink:href="#DejaVuSans-65" x="102.339844"/>
      <use xlink:href="#DejaVuSans-2d" x="163.863281"/>
      <use xlink:href="#DejaVuSans-69" x="199.947266"/>
      <use xlink:href="#DejaVuSans-6e" x="227.730469"/>
      <use xlink:href="#DejaVuSans-64" x="291.109375"/>
      <use xlink:href="#DejaVuSans-75" x="354.585938"/>
      <use xlink:href="#DejaVuSans-73" x="417.964844"/>
      <use xlink:href="#DejaVuSans-74" x="470.064453"/>
      <use xlink:href="#DejaVuSans-72" x="509.273438"/>
      <use xlink:href="#DejaVuSans-69" x="550.386719"/>
      <use xlink:href="#DejaVuSans-61" x="578.169922"/>
      <use xlink:href="#DejaVuSans-6c" x="639.449219"/>
      <use xlink:href="#DejaVuSans-20" x="667.232422"/>
      <use xlink:href="#DejaVuSans-69" x="699.019531"/>
      <use xlink:href="#DejaVuSans-6e" x="726.802734"/>
      <use xlink:href="#DejaVuSans-20" x="790.181641"/>
      <use xlink:href="#DejaVuSans-32" x="821.96875"/>
      <use xlink:href="#DejaVuSans-31" x="885.591797"/>
      <use xlink:href="#DejaVuSans-30" x="949.214844"/>
      <use xlink:href="#DejaVuSans-30" x="1012.837891"/>
     </g>
    </g>
    <g id="line2d_18">
     <path d="M 616.971755 155.478813 
L 638.971755 155.478813 
L 660.971755 155.478813 
" style="fill: none; stroke: #74b8f8; stroke-opacity: 0.5; stroke-width: 6; stroke-linecap: square"/>
    </g>
    <g id="text_16">
     <!-- 1.5C (n=2) -->
     <g transform="translate(678.571755 163.178813)scale(0.22 -0.22)">
      <defs>
       <path id="DejaVuSans-2e" d="M 684 794 
L 1344 794 
L 1344 0 
L 684 0 
L 684 794 
z
" transform="scale(0.015625)"/>
       <path id="DejaVuSans-35" d="M 691 4666 
L 3169 4666 
L 3169 4134 
L 1269 4134 
L 1269 2991 
Q 1406 3038 1543 3061 
Q 1681 3084 1819 3084 
Q 2600 3084 3056 2656 
Q 3513 2228 3513 1497 
Q 3513 744 3044 326 
Q 2575 -91 1722 -91 
Q 1428 -91 1123 -41 
Q 819 9 494 109 
L 494 744 
Q 775 591 1075 516 
Q 1375 441 1709 441 
Q 2250 441 2565 725 
Q 2881 1009 2881 1497 
Q 2881 1984 2565 2268 
Q 2250 2553 1709 2553 
Q 1456 2553 1204 2497 
Q 953 2441 691 2322 
L 691 4666 
z
" transform="scale(0.015625)"/>
       <path id="DejaVuSans-b0" d="M 1600 4347 
Q 1350 4347 1178 4173 
Q 1006 4000 1006 3750 
Q 1006 3503 1178 3333 
Q 1350 3163 1600 3163 
Q 1850 3163 2022 3333 
Q 2194 3503 2194 3750 
Q 2194 3997 2020 4172 
Q 1847 4347 1600 4347 
z
M 1600 4750 
Q 1800 4750 1984 4673 
Q 2169 4597 2303 4453 
Q 2447 4313 2519 4134 
Q 2591 3956 2591 3750 
Q 2591 3338 2302 3052 
Q 2013 2766 1594 2766 
Q 1172 2766 890 3047 
Q 609 3328 609 3750 
Q 609 4169 896 4459 
Q 1184 4750 1600 4750 
z
" transform="scale(0.015625)"/>
       <path id="DejaVuSans-43" d="M 4122 4306 
L 4122 3641 
Q 3803 3938 3442 4084 
Q 3081 4231 2675 4231 
Q 1875 4231 1450 3742 
Q 1025 3253 1025 2328 
Q 1025 1406 1450 917 
Q 1875 428 2675 428 
Q 3081 428 3442 575 
Q 3803 722 4122 1019 
L 4122 359 
Q 3791 134 3420 21 
Q 3050 -91 2638 -91 
Q 1578 -91 968 557 
Q 359 1206 359 2328 
Q 359 3453 968 4101 
Q 1578 4750 2638 4750 
Q 3056 4750 3426 4639 
Q 3797 4528 4122 4306 
z
" transform="scale(0.015625)"/>
       <path id="DejaVuSans-28" d="M 1984 4856 
Q 1566 4138 1362 3434 
Q 1159 2731 1159 2009 
Q 1159 1288 1364 580 
Q 1569 -128 1984 -844 
L 1484 -844 
Q 1016 -109 783 600 
Q 550 1309 550 2009 
Q 550 2706 781 3412 
Q 1013 4119 1484 4856 
L 1984 4856 
z
" transform="scale(0.015625)"/>
       <path id="DejaVuSans-3d" d="M 678 2906 
L 4684 2906 
L 4684 2381 
L 678 2381 
L 678 2906 
z
M 678 1631 
L 4684 1631 
L 4684 1100 
L 678 1100 
L 678 1631 
z
" transform="scale(0.015625)"/>
       <path id="DejaVuSans-29" d="M 513 4856 
L 1013 4856 
Q 1481 4119 1714 3412 
Q 1947 2706 1947 2009 
Q 1947 1309 1714 600 
Q 1481 -109 1013 -844 
L 513 -844 
Q 928 -128 1133 580 
Q 1338 1288 1338 2009 
Q 1338 2731 1133 3434 
Q 928 4138 513 4856 
z
" transform="scale(0.015625)"/>
      </defs>
      <use xlink:href="#DejaVuSans-31"/>
      <use xlink:href="#DejaVuSans-2e" x="63.623047"/>
      <use xlink:href="#DejaVuSans-35" x="95.410156"/>
      <use xlink:href="#DejaVuSans-b0" x="159.033203"/>
      <use xlink:href="#DejaVuSans-43" x="209.033203"/>
      <use xlink:href="#DejaVuSans-20" x="278.857422"/>
      <use xlink:href="#DejaVuSans-28" x="310.644531"/>
      <use xlink:href="#DejaVuSans-6e" x="349.658203"/>
      <use xlink:href="#DejaVuSans-3d" x="413.037109"/>
      <use xlink:href="#DejaVuSans-32" x="496.826172"/>
      <use xlink:href="#DejaVuSans-29" x="560.449219"/>
     </g>
    </g>
    <g id="line2d_19">
     <path d="M 616.971755 180.070688 
L 638.971755 180.070688 
L 660.971755 180.070688 
" style="fill: none; stroke: #f47100; stroke-opacity: 0.5; stroke-width: 6; stroke-linecap: square"/>
    </g>
    <g id="text_17">
     <!-- 2.2C (n=14) -->
     <g transform="translate(678.571755 187.770688)scale(0.22 -0.22)">
      <use xlink:href="#DejaVuSans-32"/>
      <use xlink:href="#DejaVuSans-2e" x="63.623047"/>
      <use xlink:href="#DejaVuSans-32" x="95.410156"/>
      <use xlink:href="#DejaVuSans-b0" x="159.033203"/>
      <use xlink:href="#DejaVuSans-43" x="209.033203"/>
      <use xlink:href="#DejaVuSans-20" x="278.857422"/>
      <use xlink:href="#DejaVuSans-28" x="310.644531"/>
      <use xlink:href="#DejaVuSans-6e" x="349.658203"/>
      <use xlink:href="#DejaVuSans-3d" x="413.037109"/>
      <use xlink:href="#DejaVuSans-31" x="496.826172"/>
      <use xlink:href="#DejaVuSans-34" x="560.449219"/>
      <use xlink:href="#DejaVuSans-29" x="624.072266"/>
     </g>
    </g>
    <g id="line2d_20">
     <path d="M 616.971755 204.662563 
L 638.971755 204.662563 
L 660.971755 204.662563 
" style="fill: none; stroke: #d01e04; stroke-opacity: 0.5; stroke-width: 6; stroke-linecap: square"/>
    </g>
    <g id="text_18">
     <!-- 2.8C (n=12) -->
     <g transform="translate(678.571755 212.362563)scale(0.22 -0.22)">
      <use xlink:href="#DejaVuSans-32"/>
      <use xlink:href="#DejaVuSans-2e" x="63.623047"/>
      <use xlink:href="#DejaVuSans-38" x="95.410156"/>
      <use xlink:href="#DejaVuSans-b0" x="159.033203"/>
      <use xlink:href="#DejaVuSans-43" x="209.033203"/>
      <use xlink:href="#DejaVuSans-20" x="278.857422"/>
      <use xlink:href="#DejaVuSans-28" x="310.644531"/>
      <use xlink:href="#DejaVuSans-6e" x="349.658203"/>
      <use xlink:href="#DejaVuSans-3d" x="413.037109"/>
      <use xlink:href="#DejaVuSans-31" x="496.826172"/>
      <use xlink:href="#DejaVuSans-32" x="560.449219"/>
      <use xlink:href="#DejaVuSans-29" x="624.072266"/>
     </g>
    </g>
   </g>
  </g>
 </g>
 <defs>
  <clipPath id="pb60415a0ba">
   <rect x="109.64" y="52.8" width="749.280192" height="462.76"/>
  </clipPath>
 </defs>
</svg>
