<?xml version="1.0" encoding="utf-8" standalone="no"?>
<!DOCTYPE svg PUBLIC "-//W3C//DTD SVG 1.1//EN"
  "http://www.w3.org/Graphics/SVG/1.1/DTD/svg11.dtd">
<svg xmlns:xlink="http://www.w3.org/1999/xlink" width="900pt" height="600pt" viewBox="0 0 900 600" xmlns="http://www.w3.org/2000/svg" version="1.1">
 <metadata>
  <rdf:RDF xmlns:dc="http://purl.org/dc/elements/1.1/" xmlns:cc="http://creativecommons.org/ns#" xmlns:rdf="http://www.w3.org/1999/02/22-rdf-syntax-ns#">
   <cc:Work>
    <dc:type rdf:resource="http://purl.org/dc/dcmitype/StillImage"/>
    <dc:date>2024-10-31T18:28:33.414402</dc:date>
    <dc:format>image/svg+xml</dc:format>
    <dc:creator>
     <cc:Agent>
      <dc:title>Matplotlib v3.5.3, https://matplotlib.org/</dc:title>
     </cc:Agent>
    </dc:creator>
   </cc:Work>
  </rdf:RDF>
 </metadata>
 <defs>
  <style type="text/css">*{stroke-linejoin: round; stroke-linecap: butt}</style>
 </defs>
 <g id="figure_1">
  <g id="patch_1">
   <path d="M 0 600 
L 900 600 
L 900 0 
L 0 0 
z
" style="fill: #ffffff"/>
  </g>
  <g id="axes_1">
   <g id="patch_2">
    <path d="M 109.64 515.56 
L 858.920192 515.56 
L 858.920192 52.8 
L 109.64 52.8 
z
" style="fill: #ffffff"/>
   </g>
   <g id="PolyCollection_1">
    <defs>
     <path id="m6775c37f4b" d="M 167.276938 -453.657876 
L 167.276938 -453.615125 
L 169.678477 -452.550663 
L 172.080016 -451.460229 
L 174.481555 -450.353229 
L 176.883094 -449.232887 
L 179.284633 -448.105367 
L 181.686172 -446.968085 
L 184.087711 -445.840906 
L 186.48925 -444.611571 
L 188.89079 -443.25429 
L 191.292329 -441.915641 
L 193.693868 -440.544679 
L 196.095407 -439.148607 
L 198.496946 -437.749447 
L 200.898485 -436.312358 
L 203.300024 -434.849671 
L 205.701563 -433.363047 
L 208.103102 -431.891191 
L 210.504641 -430.438211 
L 212.90618 -428.979233 
L 215.307719 -427.538444 
L 217.709259 -426.069347 
L 220.110798 -424.586778 
L 222.512337 -423.067109 
L 224.913876 -421.567015 
L 227.315415 -420.012873 
L 229.716954 -418.411119 
L 232.118493 -416.781549 
L 234.520032 -415.228934 
L 236.921571 -413.715224 
L 239.32311 -412.164774 
L 241.724649 -410.601235 
L 244.126188 -409.085389 
L 246.527727 -407.558881 
L 248.929267 -406.074273 
L 251.330806 -404.607597 
L 253.732345 -403.169479 
L 256.133884 -401.757619 
L 258.535423 -400.389733 
L 260.936962 -399.043599 
L 263.338501 -397.71215 
L 265.74004 -396.398678 
L 268.141579 -395.077547 
L 270.543118 -393.781215 
L 272.944657 -392.491869 
L 275.346196 -391.22966 
L 277.747735 -389.974649 
L 280.149275 -388.70862 
L 282.550814 -387.423357 
L 284.952353 -386.152286 
L 287.353892 -384.912551 
L 289.755431 -383.700959 
L 292.15697 -382.432988 
L 294.558509 -381.18522 
L 296.960048 -379.913374 
L 299.361587 -378.649049 
L 301.763126 -377.422615 
L 304.164665 -376.196603 
L 306.566204 -374.953207 
L 308.967743 -373.749379 
L 311.369283 -372.561151 
L 313.770822 -371.392502 
L 316.172361 -370.251643 
L 318.5739 -369.103166 
L 320.975439 -367.961021 
L 323.376978 -366.843913 
L 325.778517 -365.74673 
L 328.180056 -364.64919 
L 330.581595 -363.536722 
L 332.983134 -362.419536 
L 335.384673 -361.305007 
L 337.786212 -360.211645 
L 340.187751 -359.169561 
L 342.589291 -358.135865 
L 344.99083 -357.156422 
L 347.392369 -356.190866 
L 349.793908 -355.226832 
L 352.195447 -354.256058 
L 354.596986 -353.27336 
L 356.998525 -352.234819 
L 359.400064 -351.181592 
L 361.801603 -350.108882 
L 364.203142 -349.02688 
L 366.604681 -347.958009 
L 369.00622 -346.873965 
L 371.407759 -345.813062 
L 373.809299 -344.749582 
L 376.210838 -343.712663 
L 378.612377 -342.687183 
L 381.013916 -341.658184 
L 383.415455 -340.657357 
L 385.816994 -339.636924 
L 388.218533 -338.594305 
L 390.620072 -337.537218 
L 393.021611 -336.450034 
L 395.42315 -335.339427 
L 397.824689 -334.214659 
L 400.226228 -333.097156 
L 402.627768 -331.990784 
L 405.029307 -330.930358 
L 407.430846 -329.858638 
L 409.832385 -328.828548 
L 412.233924 -327.820117 
L 414.635463 -326.80149 
L 417.037002 -325.843516 
L 419.438541 -324.895095 
L 421.84008 -323.951627 
L 424.241619 -322.997486 
L 426.643158 -322.044873 
L 429.044697 -321.073285 
L 431.446236 -320.089528 
L 433.847776 -319.116196 
L 436.249315 -318.154801 
L 438.650854 -317.207017 
L 441.052393 -316.255463 
L 443.453932 -315.33469 
L 445.855471 -314.423398 
L 448.25701 -313.525192 
L 450.658549 -312.625643 
L 453.060088 -311.709966 
L 455.461627 -310.817702 
L 457.863166 -309.91506 
L 460.264705 -309.013921 
L 462.666244 -308.111436 
L 465.067784 -307.172485 
L 467.469323 -306.214545 
L 469.870862 -305.294001 
L 472.272401 -304.412589 
L 474.67394 -303.554207 
L 477.075479 -302.703313 
L 479.477018 -301.864865 
L 481.878557 -301.052008 
L 484.280096 -300.256026 
L 486.681635 -299.429195 
L 489.083174 -298.606296 
L 491.484713 -297.770492 
L 493.886252 -296.940967 
L 496.287792 -296.118379 
L 498.689331 -295.33096 
L 501.09087 -294.538921 
L 503.492409 -293.739938 
L 505.893948 -292.930856 
L 508.295487 -292.130407 
L 510.697026 -291.348954 
L 513.098565 -290.591128 
L 515.500104 -289.804667 
L 517.901643 -289.008212 
L 520.303182 -288.203397 
L 522.704721 -287.391919 
L 525.10626 -286.618073 
L 527.5078 -285.822643 
L 529.909339 -285.004521 
L 532.310878 -284.214681 
L 534.712417 -283.487855 
L 537.113956 -282.788963 
L 539.515495 -282.092669 
L 541.917034 -281.397568 
L 544.318573 -280.716917 
L 546.720112 -280.037534 
L 549.121651 -279.365148 
L 551.52319 -278.70388 
L 553.924729 -278.094737 
L 556.326268 -277.496231 
L 558.727808 -276.875504 
L 561.129347 -276.260095 
L 563.530886 -275.68913 
L 565.932425 -275.122302 
L 568.333964 -274.56945 
L 570.735503 -274.030235 
L 573.137042 -273.505398 
L 575.538581 -273.008409 
L 577.94012 -272.534612 
L 580.341659 -272.043381 
L 582.743198 -271.545566 
L 585.144737 -271.06831 
L 587.546277 -270.608893 
L 589.947816 -270.150722 
L 592.349355 -269.69212 
L 594.750894 -269.247399 
L 597.152433 -268.823001 
L 599.553972 -268.398608 
L 601.955511 -267.957522 
L 604.35705 -267.499746 
L 606.758589 -267.069032 
L 609.160128 -266.629301 
L 611.561667 -266.187987 
L 613.963206 -265.764001 
L 616.364745 -265.33414 
L 618.766285 -264.893229 
L 621.167824 -264.422817 
L 623.569363 -263.954119 
L 625.970902 -263.484456 
L 628.372441 -263.041385 
L 630.77398 -262.588306 
L 633.175519 -262.119499 
L 635.577058 -261.663834 
L 637.978597 -261.220902 
L 640.380136 -260.816619 
L 642.781675 -260.396392 
L 645.183214 -259.977656 
L 647.584753 -259.59177 
L 649.986293 -259.230779 
L 652.387832 -258.917635 
L 654.789371 -258.602753 
L 657.19091 -258.324509 
L 659.592449 -258.060908 
L 661.993988 -257.791796 
L 664.395527 -257.54525 
L 666.797066 -257.32877 
L 669.198605 -257.125827 
L 671.600144 -256.948702 
L 674.001683 -256.795287 
L 676.403222 -256.613952 
L 678.804761 -256.442499 
L 681.206301 -256.292666 
L 683.60784 -256.135394 
L 686.009379 -255.991396 
L 688.410918 -255.84612 
L 690.812457 -255.707322 
L 693.213996 -255.566471 
L 695.615535 -255.411143 
L 698.017074 -255.255297 
L 700.418613 -255.067155 
L 702.820152 -254.901044 
L 705.221691 -254.713234 
L 707.62323 -254.526278 
L 710.024769 -254.34895 
L 712.426309 -254.180801 
L 714.827848 -254.023825 
L 717.229387 -253.892246 
L 719.630926 -253.733492 
L 722.032465 -253.550646 
L 724.434004 -253.375877 
L 726.835543 -253.198216 
L 729.237082 -253.043281 
L 731.638621 -252.906214 
L 734.04016 -252.764925 
L 736.441699 -252.595188 
L 738.843238 -252.429928 
L 741.244777 -252.255037 
L 743.646317 -252.112776 
L 746.047856 -251.963975 
L 748.449395 -251.823223 
L 750.850934 -251.671958 
L 753.252473 -251.532125 
L 755.654012 -251.382772 
L 758.055551 -251.239784 
L 760.45709 -251.090075 
L 762.858629 -250.929832 
L 765.260168 -250.749421 
L 767.661707 -250.562465 
L 770.063246 -250.39651 
L 772.464786 -250.260102 
L 774.866325 -250.124307 
L 777.267864 -249.968216 
L 779.669403 -249.819315 
L 782.070942 -249.668993 
L 784.472481 -249.560119 
L 786.87402 -249.46127 
L 789.275559 -249.379564 
L 791.677098 -249.284212 
L 794.078637 -249.2167 
L 796.480176 -249.154749 
L 798.881715 -249.116127 
L 801.283254 -249.086479 
L 803.684794 -249.092401 
L 806.086333 -249.124807 
L 808.487872 -249.156357 
L 810.889411 -249.18959 
L 813.29095 -249.257261 
L 815.692489 -249.355683 
L 818.094028 -249.396957 
L 820.495567 -249.42519 
L 822.897106 -249.46572 
L 825.298645 -249.516063 
L 827.700184 -249.566997 
L 830.101723 -249.637196 
L 832.503262 -249.684292 
L 834.904802 -249.74262 
L 837.306341 -249.823652 
L 837.306341 -257.512781 
L 837.306341 -257.512781 
L 834.904802 -257.498571 
L 832.503262 -257.507216 
L 830.101723 -257.530317 
L 827.700184 -257.530839 
L 825.298645 -257.540283 
L 822.897106 -257.550198 
L 820.495567 -257.567366 
L 818.094028 -257.588942 
L 815.692489 -257.604125 
L 813.29095 -257.615352 
L 810.889411 -257.651461 
L 808.487872 -257.711419 
L 806.086333 -257.776346 
L 803.684794 -257.842117 
L 801.283254 -257.93869 
L 798.881715 -258.060855 
L 796.480176 -258.190985 
L 794.078637 -258.334921 
L 791.677098 -258.481701 
L 789.275559 -258.649226 
L 786.87402 -258.804022 
L 784.472481 -258.965543 
L 782.070942 -259.124879 
L 779.669403 -259.321644 
L 777.267864 -259.521382 
L 774.866325 -259.72399 
L 772.464786 -259.909705 
L 770.063246 -260.105773 
L 767.661707 -260.316263 
L 765.260168 -260.547929 
L 762.858629 -260.776436 
L 760.45709 -260.992601 
L 758.055551 -261.199775 
L 755.654012 -261.401023 
L 753.252473 -261.59306 
L 750.850934 -261.778408 
L 748.449395 -261.973383 
L 746.047856 -262.153046 
L 743.646317 -262.328405 
L 741.244777 -262.495779 
L 738.843238 -262.696926 
L 736.441699 -262.889561 
L 734.04016 -263.090637 
L 731.638621 -263.270979 
L 729.237082 -263.444024 
L 726.835543 -263.631933 
L 724.434004 -263.839817 
L 722.032465 -264.036302 
L 719.630926 -264.244186 
L 717.229387 -264.429534 
L 714.827848 -264.587098 
L 712.426309 -264.758581 
L 710.024769 -264.947557 
L 707.62323 -265.146322 
L 705.221691 -265.359423 
L 702.820152 -265.572126 
L 700.418613 -265.775889 
L 698.017074 -265.997015 
L 695.615535 -266.203034 
L 693.213996 -266.410173 
L 690.812457 -266.602181 
L 688.410918 -266.7902 
L 686.009379 -266.984221 
L 683.60784 -267.173633 
L 681.206301 -267.376251 
L 678.804761 -267.572031 
L 676.403222 -267.779807 
L 674.001683 -268.004032 
L 671.600144 -268.205021 
L 669.198605 -268.423585 
L 666.797066 -268.667482 
L 664.395527 -268.94738 
L 661.993988 -269.245385 
L 659.592449 -269.561309 
L 657.19091 -269.868142 
L 654.789371 -270.188201 
L 652.387832 -270.529133 
L 649.986293 -270.877572 
L 647.584753 -271.272274 
L 645.183214 -271.69148 
L 642.781675 -272.134942 
L 640.380136 -272.587834 
L 637.978597 -273.02599 
L 635.577058 -273.496248 
L 633.175519 -273.978973 
L 630.77398 -274.471544 
L 628.372441 -274.951671 
L 625.970902 -275.42049 
L 623.569363 -275.911922 
L 621.167824 -276.400042 
L 618.766285 -276.883753 
L 616.364745 -277.321281 
L 613.963206 -277.755747 
L 611.561667 -278.188415 
L 609.160128 -278.635772 
L 606.758589 -279.076994 
L 604.35705 -279.509177 
L 601.955511 -279.958819 
L 599.553972 -280.384948 
L 597.152433 -280.795547 
L 594.750894 -281.208976 
L 592.349355 -281.637792 
L 589.947816 -282.083844 
L 587.546277 -282.522234 
L 585.144737 -282.970168 
L 582.743198 -283.434013 
L 580.341659 -283.917418 
L 577.94012 -284.399389 
L 575.538581 -284.870091 
L 573.137042 -285.373956 
L 570.735503 -285.910938 
L 568.333964 -286.458327 
L 565.932425 -287.010622 
L 563.530886 -287.566856 
L 561.129347 -288.130913 
L 558.727808 -288.741793 
L 556.326268 -289.362947 
L 553.924729 -289.972514 
L 551.52319 -290.580973 
L 549.121651 -291.228317 
L 546.720112 -291.878352 
L 544.318573 -292.535776 
L 541.917034 -293.18155 
L 539.515495 -293.841318 
L 537.113956 -294.488085 
L 534.712417 -295.136463 
L 532.310878 -295.814147 
L 529.909339 -296.540646 
L 527.5078 -297.284411 
L 525.10626 -297.996742 
L 522.704721 -298.689121 
L 520.303182 -299.439336 
L 517.901643 -300.188805 
L 515.500104 -300.93411 
L 513.098565 -301.670546 
L 510.697026 -302.374124 
L 508.295487 -303.09659 
L 505.893948 -303.829952 
L 503.492409 -304.56969 
L 501.09087 -305.307895 
L 498.689331 -306.043335 
L 496.287792 -306.77549 
L 493.886252 -307.544256 
L 491.484713 -308.32274 
L 489.083174 -309.123819 
L 486.681635 -309.924393 
L 484.280096 -310.723393 
L 481.878557 -311.493739 
L 479.477018 -312.274455 
L 477.075479 -313.082455 
L 474.67394 -313.8932 
L 472.272401 -314.688042 
L 469.870862 -315.497903 
L 467.469323 -316.342077 
L 465.067784 -317.216532 
L 462.666244 -318.085324 
L 460.264705 -318.921455 
L 457.863166 -319.752404 
L 455.461627 -320.592692 
L 453.060088 -321.421668 
L 450.658549 -322.272418 
L 448.25701 -323.113506 
L 445.855471 -323.955106 
L 443.453932 -324.808818 
L 441.052393 -325.667579 
L 438.650854 -326.548825 
L 436.249315 -327.424484 
L 433.847776 -328.318981 
L 431.446236 -329.225431 
L 429.044697 -330.140058 
L 426.643158 -331.046343 
L 424.241619 -331.942381 
L 421.84008 -332.835518 
L 419.438541 -333.725275 
L 417.037002 -334.612227 
L 414.635463 -335.509345 
L 412.233924 -336.460382 
L 409.832385 -337.411268 
L 407.430846 -338.383785 
L 405.029307 -339.387438 
L 402.627768 -340.379016 
L 400.226228 -341.397333 
L 397.824689 -342.416149 
L 395.42315 -343.434651 
L 393.021611 -344.427886 
L 390.620072 -345.401972 
L 388.218533 -346.360739 
L 385.816994 -347.295544 
L 383.415455 -348.224582 
L 381.013916 -349.128377 
L 378.612377 -350.057461 
L 376.210838 -350.983514 
L 373.809299 -351.917419 
L 371.407759 -352.877408 
L 369.00622 -353.84354 
L 366.604681 -354.819439 
L 364.203142 -355.770295 
L 361.801603 -356.737257 
L 359.400064 -357.698821 
L 356.998525 -358.65243 
L 354.596986 -359.597561 
L 352.195447 -360.521365 
L 349.793908 -361.439071 
L 347.392369 -362.355636 
L 344.99083 -363.275575 
L 342.589291 -364.213786 
L 340.187751 -365.189746 
L 337.786212 -366.189384 
L 335.384673 -367.219341 
L 332.983134 -368.281459 
L 330.581595 -369.357496 
L 328.180056 -370.426716 
L 325.778517 -371.490401 
L 323.376978 -372.554875 
L 320.975439 -373.638747 
L 318.5739 -374.735837 
L 316.172361 -375.849693 
L 313.770822 -376.951689 
L 311.369283 -378.066322 
L 308.967743 -379.197974 
L 306.566204 -380.343532 
L 304.164665 -381.511216 
L 301.763126 -382.662647 
L 299.361587 -383.813265 
L 296.960048 -384.996639 
L 294.558509 -386.183931 
L 292.15697 -387.349744 
L 289.755431 -388.532029 
L 287.353892 -389.673156 
L 284.952353 -390.838826 
L 282.550814 -392.045511 
L 280.149275 -393.265072 
L 277.747735 -394.480369 
L 275.346196 -395.673534 
L 272.944657 -396.86871 
L 270.543118 -398.097377 
L 268.141579 -399.318256 
L 265.74004 -400.553153 
L 263.338501 -401.784357 
L 260.936962 -403.046144 
L 258.535423 -404.317895 
L 256.133884 -405.599679 
L 253.732345 -406.936294 
L 251.330806 -408.297712 
L 248.929267 -409.681141 
L 246.527727 -411.074374 
L 244.126188 -412.496044 
L 241.724649 -413.893419 
L 239.32311 -415.330393 
L 236.921571 -416.7467 
L 234.520032 -418.108974 
L 232.118493 -419.505977 
L 229.716954 -420.950591 
L 227.315415 -422.382087 
L 224.913876 -423.770674 
L 222.512337 -425.111625 
L 220.110798 -426.472647 
L 217.709259 -427.819032 
L 215.307719 -429.160511 
L 212.90618 -430.460568 
L 210.504641 -431.7721 
L 208.103102 -433.083732 
L 205.701563 -434.395502 
L 203.300024 -435.715171 
L 200.898485 -437.031249 
L 198.496946 -438.32683 
L 196.095407 -439.603764 
L 193.693868 -440.887332 
L 191.292329 -442.15382 
L 188.89079 -443.39908 
L 186.48925 -444.652701 
L 184.087711 -445.867247 
L 181.686172 -447.040296 
L 179.284633 -448.190494 
L 176.883094 -449.318596 
L 174.481555 -450.420946 
L 172.080016 -451.525625 
L 169.678477 -452.606696 
L 167.276938 -453.657876 
z
" style="stroke: #74b8f8; stroke-opacity: 0.2"/>
    </defs>
    <g clip-path="url(#pee36b1268b)">
     <use xlink:href="#m6775c37f4b" x="0" y="600" style="fill: #74b8f8; fill-opacity: 0.2; stroke: #74b8f8; stroke-opacity: 0.2"/>
    </g>
   </g>
   <g id="PolyCollection_2">
    <defs>
     <path id="m2ae5db36c0" d="M 116.844617 -466.96397 
L 116.844617 -465.387559 
L 119.246156 -465.032748 
L 121.647695 -464.712055 
L 124.049234 -464.393834 
L 126.450774 -464.122443 
L 128.852313 -463.764912 
L 131.253852 -463.423396 
L 133.655391 -463.098241 
L 136.05693 -462.792952 
L 138.458469 -462.490423 
L 140.860008 -462.221272 
L 143.261547 -461.572372 
L 145.663086 -460.883975 
L 148.064625 -460.174176 
L 150.466164 -459.479561 
L 152.867703 -458.755936 
L 155.269242 -458.029948 
L 157.670782 -457.274555 
L 160.072321 -456.454724 
L 162.47386 -455.573824 
L 164.875399 -454.648 
L 164.875399 -454.648 
L 164.875399 -454.648 
L 162.47386 -455.648103 
L 160.072321 -456.633151 
L 157.670782 -457.566528 
L 155.269242 -458.459139 
L 152.867703 -459.290781 
L 150.466164 -460.119523 
L 148.064625 -460.912758 
L 145.663086 -461.704958 
L 143.261547 -462.464874 
L 140.860008 -463.214141 
L 138.458469 -463.576822 
L 136.05693 -463.95215 
L 133.655391 -464.334129 
L 131.253852 -464.699629 
L 128.852313 -465.078187 
L 126.450774 -465.45957 
L 124.049234 -465.810223 
L 121.647695 -466.185816 
L 119.246156 -466.573307 
L 116.844617 -466.96397 
z
" style="stroke: #000000; stroke-opacity: 0.2"/>
    </defs>
    <g clip-path="url(#pee36b1268b)">
     <use xlink:href="#m2ae5db36c0" x="0" y="600" style="fill-opacity: 0.2; stroke: #000000; stroke-opacity: 0.2"/>
    </g>
   </g>
   <g id="PolyCollection_3">
    <defs>
     <path id="meac051deac" d="M 167.276938 -453.846123 
L 167.276938 -453.644854 
L 169.678477 -452.573838 
L 172.080016 -451.49912 
L 174.481555 -450.390114 
L 176.883094 -449.29108 
L 179.284633 -448.167497 
L 181.686172 -446.997155 
L 184.087711 -445.7155 
L 186.48925 -444.424083 
L 188.89079 -443.079652 
L 191.292329 -441.673938 
L 193.693868 -440.193022 
L 196.095407 -438.644105 
L 198.496946 -437.053915 
L 200.898485 -435.387499 
L 203.300024 -433.655301 
L 205.701563 -431.764388 
L 208.103102 -429.811313 
L 210.504641 -427.802713 
L 212.90618 -425.728095 
L 215.307719 -423.582048 
L 217.709259 -421.434765 
L 220.110798 -419.241874 
L 222.512337 -417.003044 
L 224.913876 -414.638459 
L 227.315415 -412.221526 
L 229.716954 -409.747882 
L 232.118493 -407.25182 
L 234.520032 -404.735745 
L 236.921571 -402.397563 
L 239.32311 -400.179619 
L 241.724649 -398.015824 
L 244.126188 -395.767874 
L 246.527727 -393.45864 
L 248.929267 -391.21284 
L 251.330806 -388.973249 
L 253.732345 -386.772455 
L 256.133884 -384.593118 
L 258.535423 -382.415476 
L 260.936962 -380.297199 
L 263.338501 -378.231158 
L 265.74004 -376.095599 
L 268.141579 -373.971279 
L 270.543118 -371.852306 
L 272.944657 -369.77796 
L 275.346196 -367.770876 
L 277.747735 -365.790388 
L 280.149275 -363.81753 
L 282.550814 -361.844974 
L 284.952353 -359.869627 
L 287.353892 -357.928295 
L 289.755431 -356.023393 
L 292.15697 -354.119341 
L 294.558509 -352.259045 
L 296.960048 -350.366798 
L 299.361587 -348.494011 
L 301.763126 -346.658071 
L 304.164665 -344.839925 
L 306.566204 -343.019098 
L 308.967743 -341.19407 
L 311.369283 -339.405187 
L 313.770822 -337.663168 
L 316.172361 -335.932431 
L 318.5739 -334.214338 
L 320.975439 -332.320745 
L 323.376978 -330.442899 
L 325.778517 -328.575638 
L 328.180056 -326.542905 
L 330.581595 -324.516358 
L 332.983134 -322.259867 
L 335.384673 -320.012569 
L 337.786212 -317.702124 
L 340.187751 -315.366854 
L 342.589291 -312.999309 
L 344.99083 -310.570461 
L 347.392369 -308.150756 
L 349.793908 -305.721626 
L 352.195447 -303.275234 
L 354.596986 -300.809093 
L 356.998525 -298.30887 
L 359.400064 -296.102002 
L 361.801603 -294.452213 
L 364.203142 -292.814106 
L 366.604681 -291.200594 
L 369.00622 -289.578979 
L 371.407759 -287.969045 
L 373.809299 -286.364931 
L 376.210838 -284.777226 
L 378.612377 -283.207944 
L 381.013916 -281.628004 
L 383.415455 -279.996082 
L 385.816994 -278.399488 
L 388.218533 -276.800391 
L 390.620072 -275.231341 
L 393.021611 -273.648293 
L 395.42315 -272.08683 
L 397.824689 -270.541846 
L 400.226228 -269.013414 
L 402.627768 -267.515282 
L 405.029307 -266.028601 
L 407.430846 -264.531868 
L 409.832385 -263.043252 
L 412.233924 -261.604244 
L 414.635463 -260.195865 
L 417.037002 -258.810142 
L 419.438541 -257.477344 
L 421.84008 -256.179153 
L 424.241619 -254.89918 
L 426.643158 -253.639658 
L 429.044697 -252.383305 
L 431.446236 -251.169642 
L 433.847776 -249.949761 
L 436.249315 -248.761222 
L 438.650854 -247.582626 
L 441.052393 -246.460581 
L 443.453932 -245.379092 
L 445.855471 -244.319335 
L 448.25701 -243.271219 
L 450.658549 -242.223995 
L 453.060088 -241.185237 
L 455.461627 -240.158274 
L 457.863166 -239.145028 
L 460.264705 -238.103933 
L 462.666244 -237.082761 
L 465.067784 -236.076334 
L 467.469323 -235.039745 
L 469.870862 -234.008392 
L 472.272401 -233.015207 
L 474.67394 -232.039942 
L 477.075479 -231.094903 
L 479.477018 -230.175147 
L 481.878557 -229.285729 
L 484.280096 -228.395129 
L 486.681635 -227.272197 
L 489.083174 -226.153767 
L 491.484713 -225.036748 
L 493.886252 -223.949102 
L 496.287792 -222.896086 
L 498.689331 -221.870135 
L 501.09087 -220.868869 
L 503.492409 -219.877686 
L 505.893948 -218.932784 
L 508.295487 -218.019964 
L 510.697026 -217.130225 
L 513.098565 -216.307576 
L 515.500104 -215.504333 
L 517.901643 -214.695133 
L 520.303182 -213.891912 
L 522.704721 -213.07405 
L 525.10626 -212.268778 
L 527.5078 -211.51079 
L 529.909339 -210.759848 
L 532.310878 -210.044425 
L 534.712417 -209.32115 
L 537.113956 -208.595821 
L 539.515495 -207.886614 
L 541.917034 -207.165242 
L 544.318573 -206.452893 
L 546.720112 -205.741743 
L 549.121651 -205.040739 
L 551.52319 -204.359625 
L 553.924729 -203.670074 
L 556.326268 -203.002859 
L 558.727808 -202.314256 
L 561.129347 -201.595861 
L 563.530886 -200.883826 
L 565.932425 -200.191266 
L 568.333964 -199.495838 
L 570.735503 -198.798847 
L 573.137042 -198.102015 
L 575.538581 -197.397815 
L 577.94012 -196.714064 
L 580.341659 -196.040713 
L 582.743198 -195.390298 
L 585.144737 -194.743664 
L 587.546277 -194.101583 
L 589.947816 -193.467479 
L 592.349355 -192.852885 
L 594.750894 -192.243202 
L 597.152433 -191.62746 
L 599.553972 -191.010333 
L 601.955511 -190.415008 
L 604.35705 -189.813618 
L 606.758589 -189.238579 
L 609.160128 -188.696125 
L 611.561667 -188.166584 
L 613.963206 -187.633507 
L 616.364745 -187.125244 
L 618.766285 -186.654358 
L 621.167824 -186.202917 
L 623.569363 -185.7658 
L 625.970902 -185.343187 
L 628.372441 -184.928039 
L 630.77398 -184.520473 
L 633.175519 -184.096789 
L 635.577058 -183.680832 
L 637.978597 -183.28261 
L 640.380136 -182.87182 
L 642.781675 -182.476311 
L 645.183214 -182.088694 
L 647.584753 -181.72019 
L 649.986293 -181.354404 
L 652.387832 -180.998377 
L 654.789371 -180.640627 
L 657.19091 -180.289197 
L 659.592449 -179.935688 
L 661.993988 -179.596576 
L 664.395527 -179.251586 
L 666.797066 -178.926098 
L 669.198605 -178.612712 
L 671.600144 -178.293137 
L 674.001683 -177.958907 
L 676.403222 -177.608538 
L 678.804761 -177.267984 
L 681.206301 -176.936271 
L 683.60784 -176.602883 
L 686.009379 -176.27979 
L 688.410918 -175.9696 
L 690.812457 -175.670075 
L 693.213996 -175.377259 
L 695.615535 -175.089234 
L 698.017074 -174.800759 
L 700.418613 -174.518522 
L 702.820152 -174.248275 
L 705.221691 -173.983473 
L 707.62323 -173.728379 
L 710.024769 -173.475654 
L 712.426309 -173.239078 
L 714.827848 -173.006195 
L 717.229387 -172.777074 
L 719.630926 -172.561149 
L 722.032465 -172.345373 
L 724.434004 -172.140632 
L 726.835543 -171.923576 
L 729.237082 -171.707675 
L 731.638621 -171.51513 
L 734.04016 -171.317905 
L 736.441699 -171.122177 
L 738.843238 -170.922313 
L 741.244777 -170.727377 
L 743.646317 -170.537701 
L 746.047856 -170.351846 
L 748.449395 -170.165691 
L 750.850934 -169.984849 
L 753.252473 -169.804383 
L 755.654012 -169.61749 
L 758.055551 -169.424945 
L 760.45709 -169.233843 
L 762.858629 -169.043097 
L 765.260168 -168.855156 
L 767.661707 -168.669294 
L 770.063246 -168.49943 
L 772.464786 -168.332485 
L 774.866325 -168.17567 
L 777.267864 -168.023774 
L 779.669403 -167.863524 
L 782.070942 -167.70266 
L 784.472481 -167.533238 
L 786.87402 -167.369183 
L 789.275559 -167.206383 
L 791.677098 -167.030524 
L 794.078637 -166.852884 
L 796.480176 -166.678258 
L 798.881715 -166.501391 
L 801.283254 -166.321854 
L 803.684794 -166.149646 
L 806.086333 -165.983622 
L 808.487872 -165.811991 
L 810.889411 -165.636926 
L 813.29095 -165.451261 
L 815.692489 -165.276005 
L 818.094028 -165.182498 
L 820.495567 -165.086366 
L 822.897106 -164.994433 
L 825.298645 -164.896934 
L 827.700184 -164.800695 
L 830.101723 -164.702899 
L 832.503262 -164.615238 
L 834.904802 -164.51705 
L 837.306341 -164.412107 
L 837.306341 -242.971011 
L 837.306341 -242.971011 
L 834.904802 -243.032156 
L 832.503262 -243.084278 
L 830.101723 -243.125611 
L 827.700184 -243.158997 
L 825.298645 -243.207118 
L 822.897106 -243.258161 
L 820.495567 -243.312283 
L 818.094028 -243.35947 
L 815.692489 -243.394963 
L 813.29095 -243.517993 
L 810.889411 -243.631078 
L 808.487872 -243.74469 
L 806.086333 -243.850959 
L 803.684794 -243.943079 
L 801.283254 -244.041688 
L 798.881715 -244.159005 
L 796.480176 -244.293614 
L 794.078637 -244.413453 
L 791.677098 -244.53004 
L 789.275559 -244.644548 
L 786.87402 -244.76647 
L 784.472481 -244.895861 
L 782.070942 -245.019631 
L 779.669403 -245.14306 
L 777.267864 -245.270552 
L 774.866325 -245.394076 
L 772.464786 -245.505741 
L 770.063246 -245.62224 
L 767.661707 -245.742495 
L 765.260168 -245.857758 
L 762.858629 -245.973186 
L 760.45709 -246.074639 
L 758.055551 -246.157858 
L 755.654012 -246.240513 
L 753.252473 -246.333513 
L 750.850934 -246.411581 
L 748.449395 -246.495337 
L 746.047856 -246.584584 
L 743.646317 -246.682724 
L 741.244777 -246.768087 
L 738.843238 -246.866977 
L 736.441699 -246.98327 
L 734.04016 -247.12116 
L 731.638621 -247.260628 
L 729.237082 -247.389026 
L 726.835543 -247.52401 
L 724.434004 -247.67908 
L 722.032465 -247.82827 
L 719.630926 -247.977578 
L 717.229387 -248.110934 
L 714.827848 -248.260872 
L 712.426309 -248.418715 
L 710.024769 -248.590853 
L 707.62323 -248.759084 
L 705.221691 -248.925049 
L 702.820152 -249.102815 
L 700.418613 -249.268108 
L 698.017074 -249.435078 
L 695.615535 -249.596206 
L 693.213996 -249.783992 
L 690.812457 -249.960849 
L 688.410918 -250.113585 
L 686.009379 -250.256109 
L 683.60784 -250.42754 
L 681.206301 -250.601955 
L 678.804761 -250.777917 
L 676.403222 -250.947709 
L 674.001683 -251.119924 
L 671.600144 -251.300205 
L 669.198605 -251.48302 
L 666.797066 -251.645782 
L 664.395527 -251.821101 
L 661.993988 -251.993875 
L 659.592449 -252.169559 
L 657.19091 -252.361584 
L 654.789371 -252.557298 
L 652.387832 -252.771907 
L 649.986293 -252.987051 
L 647.584753 -253.216723 
L 645.183214 -253.442192 
L 642.781675 -253.682541 
L 640.380136 -253.947919 
L 637.978597 -254.226936 
L 635.577058 -254.497715 
L 633.175519 -254.789819 
L 630.77398 -255.11345 
L 628.372441 -255.436102 
L 625.970902 -255.772335 
L 623.569363 -256.115066 
L 621.167824 -256.472418 
L 618.766285 -256.843823 
L 616.364745 -257.224121 
L 613.963206 -257.653058 
L 611.561667 -258.094898 
L 609.160128 -258.523255 
L 606.758589 -258.947538 
L 604.35705 -259.399173 
L 601.955511 -259.883664 
L 599.553972 -260.390433 
L 597.152433 -260.927499 
L 594.750894 -261.47186 
L 592.349355 -262.005339 
L 589.947816 -262.548493 
L 587.546277 -263.098835 
L 585.144737 -263.632659 
L 582.743198 -264.132856 
L 580.341659 -264.634914 
L 577.94012 -265.154148 
L 575.538581 -265.716762 
L 573.137042 -266.308361 
L 570.735503 -266.912303 
L 568.333964 -267.521203 
L 565.932425 -268.078234 
L 563.530886 -268.619642 
L 561.129347 -269.183482 
L 558.727808 -269.763871 
L 556.326268 -270.305932 
L 553.924729 -270.815142 
L 551.52319 -271.301127 
L 549.121651 -271.759329 
L 546.720112 -272.180348 
L 544.318573 -272.610111 
L 541.917034 -273.04585 
L 539.515495 -273.487217 
L 537.113956 -273.911403 
L 534.712417 -274.354278 
L 532.310878 -274.796309 
L 529.909339 -275.249586 
L 527.5078 -275.674449 
L 525.10626 -276.059329 
L 522.704721 -276.41494 
L 520.303182 -276.752477 
L 517.901643 -277.110176 
L 515.500104 -277.482043 
L 513.098565 -277.839125 
L 510.697026 -278.19302 
L 508.295487 -278.554128 
L 505.893948 -278.92386 
L 503.492409 -279.334422 
L 501.09087 -279.770338 
L 498.689331 -280.233689 
L 496.287792 -280.718286 
L 493.886252 -281.224532 
L 491.484713 -281.849129 
L 489.083174 -282.497376 
L 486.681635 -283.142619 
L 484.280096 -283.791283 
L 481.878557 -284.459615 
L 479.477018 -285.129903 
L 477.075479 -285.840402 
L 474.67394 -286.600509 
L 472.272401 -287.394422 
L 469.870862 -288.194199 
L 467.469323 -289.016338 
L 465.067784 -289.84296 
L 462.666244 -290.648002 
L 460.264705 -291.475525 
L 457.863166 -292.339632 
L 455.461627 -293.170687 
L 453.060088 -293.993134 
L 450.658549 -294.842938 
L 448.25701 -295.867786 
L 445.855471 -296.944824 
L 443.453932 -298.261332 
L 441.052393 -299.749614 
L 438.650854 -301.344301 
L 436.249315 -302.960347 
L 433.847776 -304.601069 
L 431.446236 -306.239099 
L 429.044697 -307.873271 
L 426.643158 -309.445065 
L 424.241619 -311.023642 
L 421.84008 -312.562661 
L 419.438541 -314.092492 
L 417.037002 -315.583207 
L 414.635463 -317.047639 
L 412.233924 -318.487795 
L 409.832385 -319.933667 
L 407.430846 -321.328865 
L 405.029307 -322.675759 
L 402.627768 -323.986336 
L 400.226228 -325.309787 
L 397.824689 -326.609908 
L 395.42315 -327.893001 
L 393.021611 -329.137872 
L 390.620072 -330.433322 
L 388.218533 -331.725704 
L 385.816994 -332.985342 
L 383.415455 -334.263842 
L 381.013916 -335.528522 
L 378.612377 -336.80164 
L 376.210838 -338.067564 
L 373.809299 -339.363277 
L 371.407759 -340.66655 
L 369.00622 -341.938166 
L 366.604681 -343.216008 
L 364.203142 -344.497255 
L 361.801603 -345.757978 
L 359.400064 -347.011342 
L 356.998525 -348.265738 
L 354.596986 -349.557512 
L 352.195447 -350.836987 
L 349.793908 -352.143004 
L 347.392369 -353.45198 
L 344.99083 -354.794329 
L 342.589291 -356.096102 
L 340.187751 -357.40637 
L 337.786212 -358.749902 
L 335.384673 -360.133698 
L 332.983134 -361.54992 
L 330.581595 -362.992053 
L 328.180056 -364.458184 
L 325.778517 -365.951895 
L 323.376978 -367.460357 
L 320.975439 -369.038475 
L 318.5739 -370.668612 
L 316.172361 -372.321894 
L 313.770822 -374.025547 
L 311.369283 -375.798476 
L 308.967743 -377.632869 
L 306.566204 -379.517671 
L 304.164665 -381.434619 
L 301.763126 -383.403796 
L 299.361587 -385.065385 
L 296.960048 -386.809102 
L 294.558509 -388.528389 
L 292.15697 -390.276759 
L 289.755431 -392.016764 
L 287.353892 -393.70581 
L 284.952353 -395.916379 
L 282.550814 -397.363503 
L 280.149275 -398.789043 
L 277.747735 -400.150761 
L 275.346196 -401.525744 
L 272.944657 -402.979072 
L 270.543118 -404.409818 
L 268.141579 -405.889449 
L 265.74004 -407.309626 
L 263.338501 -408.721997 
L 260.936962 -410.136322 
L 258.535423 -411.572275 
L 256.133884 -413.015313 
L 253.732345 -414.452949 
L 251.330806 -415.857283 
L 248.929267 -417.208652 
L 246.527727 -418.573324 
L 244.126188 -419.843339 
L 241.724649 -421.194441 
L 239.32311 -422.562775 
L 236.921571 -423.969653 
L 234.520032 -425.312589 
L 232.118493 -426.649785 
L 229.716954 -427.961079 
L 227.315415 -429.270608 
L 224.913876 -430.479882 
L 222.512337 -431.679902 
L 220.110798 -432.812781 
L 217.709259 -433.937462 
L 215.307719 -435.007574 
L 212.90618 -436.015601 
L 210.504641 -437.001821 
L 208.103102 -437.973135 
L 205.701563 -438.926916 
L 203.300024 -439.886008 
L 200.898485 -440.878724 
L 198.496946 -441.958058 
L 196.095407 -443.067364 
L 193.693868 -444.142979 
L 191.292329 -445.18153 
L 188.89079 -446.180473 
L 186.48925 -447.196129 
L 184.087711 -448.061255 
L 181.686172 -448.975304 
L 179.284633 -449.859385 
L 176.883094 -450.647481 
L 174.481555 -451.417811 
L 172.080016 -452.21374 
L 169.678477 -453.006451 
L 167.276938 -453.846123 
z
" style="stroke: #f47100; stroke-opacity: 0.2"/>
    </defs>
    <g clip-path="url(#pee36b1268b)">
     <use xlink:href="#meac051deac" x="0" y="600" style="fill: #f47100; fill-opacity: 0.2; stroke: #f47100; stroke-opacity: 0.2"/>
    </g>
   </g>
   <g id="PolyCollection_4">
    <defs>
     <path id="m52cc638c0a" d="M 116.844617 -467.356033 
L 116.844617 -463.65871 
L 119.246156 -463.322658 
L 121.647695 -463.036076 
L 124.049234 -462.747256 
L 126.450774 -462.520267 
L 128.852313 -462.295815 
L 131.253852 -462.052415 
L 133.655391 -461.781404 
L 136.05693 -461.526775 
L 138.458469 -461.246805 
L 140.860008 -460.99326 
L 143.261547 -460.514608 
L 145.663086 -460.066787 
L 148.064625 -459.51142 
L 150.466164 -458.914958 
L 152.867703 -458.212063 
L 155.269242 -457.502662 
L 157.670782 -456.80909 
L 160.072321 -456.108334 
L 162.47386 -455.407354 
L 164.875399 -454.648 
L 164.875399 -454.648 
L 164.875399 -454.648 
L 162.47386 -455.583596 
L 160.072321 -456.467121 
L 157.670782 -457.314482 
L 155.269242 -458.150338 
L 152.867703 -458.996701 
L 150.466164 -459.851022 
L 148.064625 -460.71076 
L 145.663086 -461.544099 
L 143.261547 -462.346314 
L 140.860008 -463.175986 
L 138.458469 -463.595583 
L 136.05693 -464.023777 
L 133.655391 -464.442202 
L 131.253852 -464.837386 
L 128.852313 -465.242636 
L 126.450774 -465.646069 
L 124.049234 -466.063781 
L 121.647695 -466.481263 
L 119.246156 -466.912634 
L 116.844617 -467.356033 
z
" style="stroke: #000000; stroke-opacity: 0.2"/>
    </defs>
    <g clip-path="url(#pee36b1268b)">
     <use xlink:href="#m52cc638c0a" x="0" y="600" style="fill-opacity: 0.2; stroke: #000000; stroke-opacity: 0.2"/>
    </g>
   </g>
   <g id="PolyCollection_5">
    <defs>
     <path id="m3e7b961f34" d="M 167.276938 -453.817087 
L 167.276938 -453.224434 
L 169.678477 -451.711621 
L 172.080016 -450.073199 
L 174.481555 -448.389723 
L 176.883094 -446.583685 
L 179.284633 -444.728229 
L 181.686172 -442.78813 
L 184.087711 -440.780415 
L 186.48925 -438.657333 
L 188.89079 -436.285731 
L 191.292329 -433.750676 
L 193.693868 -431.110062 
L 196.095407 -428.357883 
L 198.496946 -425.508686 
L 200.898485 -422.518297 
L 203.300024 -419.326261 
L 205.701563 -416.062073 
L 208.103102 -412.754067 
L 210.504641 -409.28173 
L 212.90618 -405.703694 
L 215.307719 -402.047704 
L 217.709259 -398.302593 
L 220.110798 -394.406237 
L 222.512337 -390.409914 
L 224.913876 -386.398201 
L 227.315415 -382.277147 
L 229.716954 -378.043292 
L 232.118493 -373.736738 
L 234.520032 -369.352209 
L 236.921571 -364.922741 
L 239.32311 -360.425153 
L 241.724649 -355.813684 
L 244.126188 -351.088197 
L 246.527727 -346.294368 
L 248.929267 -341.509105 
L 251.330806 -336.810744 
L 253.732345 -332.11563 
L 256.133884 -327.371906 
L 258.535423 -322.603105 
L 260.936962 -317.831882 
L 263.338501 -313.048517 
L 265.74004 -308.227818 
L 268.141579 -303.443897 
L 270.543118 -298.646376 
L 272.944657 -293.782081 
L 275.346196 -288.86799 
L 277.747735 -283.928309 
L 280.149275 -278.988786 
L 282.550814 -274.073418 
L 284.952353 -269.169097 
L 287.353892 -264.312382 
L 289.755431 -259.545824 
L 292.15697 -254.896417 
L 294.558509 -250.242492 
L 296.960048 -245.573801 
L 299.361587 -240.868313 
L 301.763126 -236.112594 
L 304.164665 -232.237248 
L 306.566204 -228.529543 
L 308.967743 -224.929678 
L 311.369283 -221.432905 
L 313.770822 -218.035258 
L 316.172361 -214.739462 
L 318.5739 -211.526629 
L 320.975439 -208.352505 
L 323.376978 -205.256693 
L 325.778517 -202.741348 
L 328.180056 -200.368238 
L 330.581595 -198.055295 
L 332.983134 -195.783975 
L 335.384673 -193.569636 
L 337.786212 -191.377241 
L 340.187751 -188.49258 
L 342.589291 -185.494635 
L 344.99083 -182.677275 
L 347.392369 -179.946167 
L 349.793908 -177.352456 
L 352.195447 -174.849354 
L 354.596986 -172.413569 
L 356.998525 -170.034534 
L 359.400064 -167.849143 
L 361.801603 -166.050908 
L 364.203142 -164.293508 
L 366.604681 -162.589688 
L 369.00622 -160.950531 
L 371.407759 -159.376259 
L 373.809299 -157.867436 
L 376.210838 -156.41464 
L 378.612377 -155.006081 
L 381.013916 -153.643326 
L 383.415455 -152.320726 
L 385.816994 -151.051689 
L 388.218533 -149.844631 
L 390.620072 -148.680615 
L 393.021611 -147.552289 
L 395.42315 -146.471585 
L 397.824689 -145.43949 
L 400.226228 -144.446877 
L 402.627768 -143.462604 
L 405.029307 -142.383687 
L 407.430846 -141.336898 
L 409.832385 -140.319629 
L 412.233924 -139.326996 
L 414.635463 -138.351715 
L 417.037002 -137.400082 
L 419.438541 -136.449709 
L 421.84008 -135.512335 
L 424.241619 -134.589799 
L 426.643158 -133.673933 
L 429.044697 -132.773912 
L 431.446236 -131.883694 
L 433.847776 -130.997803 
L 436.249315 -130.137255 
L 438.650854 -129.300303 
L 441.052393 -128.482342 
L 443.453932 -127.694469 
L 445.855471 -126.93744 
L 448.25701 -126.207535 
L 450.658549 -125.483131 
L 453.060088 -124.769461 
L 455.461627 -124.064558 
L 457.863166 -123.385281 
L 460.264705 -122.726196 
L 462.666244 -122.091939 
L 465.067784 -121.501791 
L 467.469323 -120.93966 
L 469.870862 -120.392977 
L 472.272401 -119.869156 
L 474.67394 -119.367925 
L 477.075479 -118.883586 
L 479.477018 -118.425975 
L 481.878557 -117.999905 
L 484.280096 -117.592012 
L 486.681635 -117.201626 
L 489.083174 -116.830452 
L 491.484713 -116.528722 
L 493.886252 -116.289018 
L 496.287792 -116.060791 
L 498.689331 -115.854242 
L 501.09087 -115.659963 
L 503.492409 -115.477789 
L 505.893948 -115.313368 
L 508.295487 -115.169283 
L 510.697026 -115.032096 
L 513.098565 -114.898316 
L 515.500104 -114.773504 
L 517.901643 -114.661049 
L 520.303182 -114.553623 
L 522.704721 -114.456348 
L 525.10626 -114.374547 
L 527.5078 -114.301206 
L 529.909339 -114.234641 
L 532.310878 -114.169538 
L 534.712417 -114.107134 
L 537.113956 -114.047505 
L 539.515495 -113.986834 
L 541.917034 -113.930537 
L 544.318573 -113.881042 
L 546.720112 -113.830407 
L 549.121651 -113.778272 
L 551.52319 -113.725083 
L 553.924729 -113.669313 
L 556.326268 -113.602852 
L 558.727808 -113.532116 
L 561.129347 -113.451234 
L 563.530886 -113.363361 
L 565.932425 -113.270669 
L 568.333964 -112.993809 
L 570.735503 -112.577068 
L 573.137042 -112.157549 
L 575.538581 -111.751441 
L 577.94012 -111.361019 
L 580.341659 -110.973398 
L 582.743198 -110.597572 
L 585.144737 -110.22093 
L 587.546277 -109.849278 
L 589.947816 -109.467962 
L 592.349355 -109.089748 
L 594.750894 -108.717177 
L 597.152433 -108.351781 
L 599.553972 -107.994833 
L 601.955511 -107.640217 
L 604.35705 -107.280702 
L 606.758589 -106.921594 
L 609.160128 -106.563324 
L 611.561667 -106.20591 
L 613.963206 -105.83774 
L 616.364745 -105.471753 
L 618.766285 -105.116368 
L 621.167824 -104.771506 
L 623.569363 -104.423365 
L 625.970902 -104.074206 
L 628.372441 -103.726728 
L 630.77398 -103.377917 
L 633.175519 -103.03006 
L 635.577058 -102.682138 
L 637.978597 -102.337093 
L 640.380136 -101.985697 
L 642.781675 -101.635119 
L 645.183214 -101.165498 
L 647.584753 -100.597645 
L 649.986293 -100.050471 
L 652.387832 -99.527793 
L 654.789371 -99.019052 
L 657.19091 -98.511815 
L 659.592449 -98.003626 
L 661.993988 -97.508549 
L 664.395527 -97.026963 
L 666.797066 -96.548567 
L 669.198605 -96.08948 
L 671.600144 -95.654066 
L 674.001683 -95.237614 
L 676.403222 -94.839053 
L 678.804761 -94.45713 
L 681.206301 -94.109302 
L 683.60784 -93.970122 
L 686.009379 -93.842955 
L 688.410918 -93.726871 
L 690.812457 -93.622919 
L 693.213996 -93.529989 
L 695.615535 -93.444783 
L 698.017074 -93.365645 
L 700.418613 -93.292019 
L 702.820152 -93.218915 
L 705.221691 -93.150136 
L 707.62323 -93.087536 
L 710.024769 -93.03044 
L 712.426309 -92.975299 
L 714.827848 -92.922526 
L 717.229387 -92.87094 
L 719.630926 -92.788638 
L 722.032465 -92.633293 
L 724.434004 -92.481308 
L 726.835543 -92.3341 
L 729.237082 -92.188688 
L 731.638621 -92.048178 
L 734.04016 -91.914795 
L 736.441699 -91.783907 
L 738.843238 -91.656363 
L 741.244777 -91.533582 
L 743.646317 -91.412727 
L 746.047856 -91.298831 
L 748.449395 -91.189042 
L 750.850934 -91.080175 
L 753.252473 -90.974505 
L 755.654012 -90.872562 
L 758.055551 -90.773811 
L 760.45709 -90.675949 
L 762.858629 -90.575166 
L 765.260168 -90.475676 
L 767.661707 -90.375937 
L 770.063246 -90.272944 
L 772.464786 -90.170021 
L 774.866325 -90.06787 
L 777.267864 -89.96698 
L 779.669403 -89.868452 
L 782.070942 -89.769747 
L 784.472481 -89.672172 
L 786.87402 -89.577901 
L 789.275559 -89.486487 
L 791.677098 -89.396536 
L 794.078637 -89.306892 
L 796.480176 -89.216119 
L 798.881715 -89.130985 
L 801.283254 -89.044921 
L 803.684794 -88.958974 
L 806.086333 -88.874101 
L 808.487872 -88.79213 
L 810.889411 -88.715621 
L 813.29095 -88.638803 
L 815.692489 -88.563821 
L 818.094028 -88.524629 
L 820.495567 -88.4887 
L 822.897106 -88.455428 
L 825.298645 -88.421835 
L 827.700184 -88.387262 
L 830.101723 -88.351505 
L 832.503262 -88.316354 
L 834.904802 -88.280317 
L 837.306341 -88.244499 
L 837.306341 -136.962517 
L 837.306341 -136.962517 
L 834.904802 -137.063746 
L 832.503262 -137.178272 
L 830.101723 -137.281679 
L 827.700184 -137.381702 
L 825.298645 -137.483558 
L 822.897106 -137.582108 
L 820.495567 -137.683145 
L 818.094028 -137.778961 
L 815.692489 -137.878958 
L 813.29095 -138.078913 
L 810.889411 -138.286557 
L 808.487872 -138.506299 
L 806.086333 -138.71473 
L 803.684794 -138.918209 
L 801.283254 -139.114895 
L 798.881715 -139.305773 
L 796.480176 -139.486622 
L 794.078637 -139.675129 
L 791.677098 -139.862448 
L 789.275559 -140.047356 
L 786.87402 -140.232745 
L 784.472481 -140.410429 
L 782.070942 -140.601515 
L 779.669403 -140.808218 
L 777.267864 -141.011394 
L 774.866325 -141.220311 
L 772.464786 -141.426952 
L 770.063246 -141.652677 
L 767.661707 -141.885043 
L 765.260168 -142.12433 
L 762.858629 -142.36798 
L 760.45709 -142.603793 
L 758.055551 -142.834432 
L 755.654012 -143.065306 
L 753.252473 -143.292921 
L 750.850934 -143.521501 
L 748.449395 -143.751779 
L 746.047856 -143.975144 
L 743.646317 -144.199935 
L 741.244777 -144.425806 
L 738.843238 -144.649072 
L 736.441699 -144.863587 
L 734.04016 -145.065402 
L 731.638621 -145.243821 
L 729.237082 -145.420007 
L 726.835543 -145.581236 
L 724.434004 -145.738884 
L 722.032465 -145.884266 
L 719.630926 -146.01583 
L 717.229387 -146.061379 
L 714.827848 -146.104758 
L 712.426309 -146.150876 
L 710.024769 -146.198077 
L 707.62323 -146.248899 
L 705.221691 -146.307947 
L 702.820152 -146.365678 
L 700.418613 -146.421874 
L 698.017074 -146.473299 
L 695.615535 -146.527539 
L 693.213996 -146.5855 
L 690.812457 -146.643465 
L 688.410918 -146.705697 
L 686.009379 -146.774295 
L 683.60784 -146.844103 
L 681.206301 -146.913097 
L 678.804761 -146.988358 
L 676.403222 -147.054574 
L 674.001683 -147.11616 
L 671.600144 -147.181594 
L 669.198605 -147.246986 
L 666.797066 -147.302271 
L 664.395527 -147.355332 
L 661.993988 -147.411461 
L 659.592449 -147.45793 
L 657.19091 -147.537113 
L 654.789371 -147.64398 
L 652.387832 -147.74188 
L 649.986293 -147.839824 
L 647.584753 -147.932707 
L 645.183214 -148.01728 
L 642.781675 -148.093249 
L 640.380136 -148.166128 
L 637.978597 -148.244917 
L 635.577058 -148.336961 
L 633.175519 -148.438013 
L 630.77398 -148.554604 
L 628.372441 -148.711934 
L 625.970902 -148.867796 
L 623.569363 -149.02788 
L 621.167824 -149.200924 
L 618.766285 -149.378013 
L 616.364745 -149.569884 
L 613.963206 -149.814114 
L 611.561667 -150.106854 
L 609.160128 -150.455777 
L 606.758589 -150.829892 
L 604.35705 -151.242072 
L 601.955511 -151.647443 
L 599.553972 -152.055527 
L 597.152433 -152.469086 
L 594.750894 -152.901911 
L 592.349355 -153.339289 
L 589.947816 -153.784249 
L 587.546277 -154.233891 
L 585.144737 -154.681958 
L 582.743198 -155.145628 
L 580.341659 -155.581678 
L 577.94012 -156.015094 
L 575.538581 -156.44208 
L 573.137042 -156.853827 
L 570.735503 -157.262184 
L 568.333964 -157.659426 
L 565.932425 -158.016954 
L 563.530886 -158.33724 
L 561.129347 -158.612097 
L 558.727808 -158.843056 
L 556.326268 -159.045282 
L 553.924729 -159.245257 
L 551.52319 -159.455068 
L 549.121651 -159.707614 
L 546.720112 -159.954813 
L 544.318573 -160.206642 
L 541.917034 -160.453756 
L 539.515495 -160.694728 
L 537.113956 -160.957337 
L 534.712417 -161.204389 
L 532.310878 -161.450716 
L 529.909339 -161.727149 
L 527.5078 -162.024542 
L 525.10626 -162.341904 
L 522.704721 -162.680472 
L 520.303182 -163.069914 
L 517.901643 -164.037121 
L 515.500104 -165.203378 
L 513.098565 -166.385337 
L 510.697026 -167.618688 
L 508.295487 -168.85362 
L 505.893948 -170.085348 
L 503.492409 -171.333649 
L 501.09087 -172.620753 
L 498.689331 -174.006106 
L 496.287792 -175.404719 
L 493.886252 -176.868759 
L 491.484713 -178.384117 
L 489.083174 -180.005498 
L 486.681635 -181.671529 
L 484.280096 -183.3415 
L 481.878557 -185.002469 
L 479.477018 -186.72187 
L 477.075479 -188.520811 
L 474.67394 -190.343375 
L 472.272401 -192.172014 
L 469.870862 -194.011333 
L 467.469323 -195.871239 
L 465.067784 -197.769874 
L 462.666244 -199.67333 
L 460.264705 -201.568887 
L 457.863166 -203.483291 
L 455.461627 -205.403432 
L 453.060088 -207.327344 
L 450.658549 -209.21885 
L 448.25701 -211.138747 
L 445.855471 -213.093797 
L 443.453932 -215.076381 
L 441.052393 -216.821212 
L 438.650854 -218.392123 
L 436.249315 -220.106325 
L 433.847776 -221.900669 
L 431.446236 -223.711384 
L 429.044697 -225.568587 
L 426.643158 -227.464586 
L 424.241619 -229.416829 
L 421.84008 -231.372878 
L 419.438541 -233.435948 
L 417.037002 -235.515423 
L 414.635463 -237.612875 
L 412.233924 -239.78527 
L 409.832385 -241.97263 
L 407.430846 -244.174382 
L 405.029307 -246.358429 
L 402.627768 -248.526143 
L 400.226228 -250.696268 
L 397.824689 -252.893795 
L 395.42315 -255.096229 
L 393.021611 -257.322799 
L 390.620072 -259.558262 
L 388.218533 -261.743484 
L 385.816994 -263.914171 
L 383.415455 -266.09629 
L 381.013916 -268.321063 
L 378.612377 -270.55357 
L 376.210838 -272.760539 
L 373.809299 -274.985579 
L 371.407759 -277.241004 
L 369.00622 -279.559002 
L 366.604681 -282.043748 
L 364.203142 -285.098928 
L 361.801603 -288.082657 
L 359.400064 -291.038152 
L 356.998525 -294.050122 
L 354.596986 -297.068805 
L 352.195447 -300.101833 
L 349.793908 -303.17653 
L 347.392369 -306.278247 
L 344.99083 -309.384458 
L 342.589291 -312.403074 
L 340.187751 -315.392482 
L 337.786212 -318.398158 
L 335.384673 -321.424017 
L 332.983134 -324.425548 
L 330.581595 -327.464553 
L 328.180056 -330.476061 
L 325.778517 -333.447229 
L 323.376978 -336.197304 
L 320.975439 -338.87858 
L 318.5739 -341.52245 
L 316.172361 -344.15768 
L 313.770822 -346.795403 
L 311.369283 -349.391121 
L 308.967743 -351.9964 
L 306.566204 -354.643748 
L 304.164665 -357.262957 
L 301.763126 -359.915981 
L 299.361587 -362.483251 
L 296.960048 -365.001742 
L 294.558509 -366.993372 
L 292.15697 -369.015648 
L 289.755431 -371.045485 
L 287.353892 -373.055329 
L 284.952353 -375.087477 
L 282.550814 -377.083666 
L 280.149275 -379.082038 
L 277.747735 -381.075946 
L 275.346196 -383.051557 
L 272.944657 -385.049537 
L 270.543118 -387.051773 
L 268.141579 -389.053446 
L 265.74004 -391.07572 
L 263.338501 -393.014851 
L 260.936962 -394.847057 
L 258.535423 -396.660127 
L 256.133884 -398.462592 
L 253.732345 -400.176185 
L 251.330806 -401.878194 
L 248.929267 -403.558926 
L 246.527727 -405.234898 
L 244.126188 -406.982009 
L 241.724649 -408.763597 
L 239.32311 -410.583585 
L 236.921571 -412.419334 
L 234.520032 -414.291399 
L 232.118493 -416.154354 
L 229.716954 -418.009824 
L 227.315415 -419.831139 
L 224.913876 -421.580404 
L 222.512337 -423.303643 
L 220.110798 -425.036696 
L 217.709259 -426.758718 
L 215.307719 -428.466844 
L 212.90618 -430.138579 
L 210.504641 -431.792646 
L 208.103102 -433.397305 
L 205.701563 -434.986965 
L 203.300024 -436.538043 
L 200.898485 -438.076449 
L 198.496946 -439.552202 
L 196.095407 -440.889904 
L 193.693868 -442.09725 
L 191.292329 -443.331214 
L 188.89079 -444.692463 
L 186.48925 -445.97379 
L 184.087711 -447.151864 
L 181.686172 -448.216378 
L 179.284633 -449.211872 
L 176.883094 -450.170999 
L 174.481555 -451.101497 
L 172.080016 -452.006735 
L 169.678477 -452.917284 
L 167.276938 -453.817087 
z
" style="stroke: #d01e04; stroke-opacity: 0.2"/>
    </defs>
    <g clip-path="url(#pee36b1268b)">
     <use xlink:href="#m3e7b961f34" x="0" y="600" style="fill: #d01e04; fill-opacity: 0.2; stroke: #d01e04; stroke-opacity: 0.2"/>
    </g>
   </g>
   <g id="PolyCollection_6">
    <defs>
     <path id="ma39d36930a" d="M 116.844617 -467.86039 
L 116.844617 -464.389843 
L 119.246156 -464.053142 
L 121.647695 -463.766008 
L 124.049234 -463.476632 
L 126.450774 -463.244999 
L 128.852313 -462.899585 
L 131.253852 -462.576768 
L 133.655391 -462.271954 
L 136.05693 -462.005157 
L 138.458469 -461.739173 
L 140.860008 -461.51691 
L 143.261547 -460.918524 
L 145.663086 -460.243719 
L 148.064625 -459.5502 
L 150.466164 -458.882853 
L 152.867703 -458.206986 
L 155.269242 -457.539651 
L 157.670782 -456.890994 
L 160.072321 -456.186235 
L 162.47386 -455.436859 
L 164.875399 -454.648 
L 164.875399 -454.648 
L 164.875399 -454.648 
L 162.47386 -455.999639 
L 160.072321 -457.274466 
L 157.670782 -458.49496 
L 155.269242 -459.622113 
L 152.867703 -460.686784 
L 150.466164 -461.708605 
L 148.064625 -462.676148 
L 145.663086 -463.601137 
L 143.261547 -464.387993 
L 140.860008 -465.057717 
L 138.458469 -465.335086 
L 136.05693 -465.639558 
L 133.655391 -465.943194 
L 131.253852 -466.250348 
L 128.852313 -466.537244 
L 126.450774 -466.842492 
L 124.049234 -467.041649 
L 121.647695 -467.288282 
L 119.246156 -467.520449 
L 116.844617 -467.86039 
z
" style="stroke: #000000; stroke-opacity: 0.2"/>
    </defs>
    <g clip-path="url(#pee36b1268b)">
     <use xlink:href="#ma39d36930a" x="0" y="600" style="fill-opacity: 0.2; stroke: #000000; stroke-opacity: 0.2"/>
    </g>
   </g>
   <g id="matplotlib.axis_1">
    <g id="xtick_1">
     <g id="line2d_1">
      <defs>
       <path id="m050087d5d0" d="M 0 0 
L 0 3.5 
" style="stroke: #000000; stroke-width: 0.8"/>
      </defs>
      <g>
       <use xlink:href="#m050087d5d0" x="164.875399" y="515.56" style="stroke: #000000; stroke-width: 0.8"/>
      </g>
     </g>
     <g id="text_1">
      <!-- 2020 -->
      <g transform="translate(131.790399 542.315938)scale(0.26 -0.26)">
       <defs>
        <path id="DejaVuSans-32" d="M 1228 531 
L 3431 531 
L 3431 0 
L 469 0 
L 469 531 
Q 828 903 1448 1529 
Q 2069 2156 2228 2338 
Q 2531 2678 2651 2914 
Q 2772 3150 2772 3378 
Q 2772 3750 2511 3984 
Q 2250 4219 1831 4219 
Q 1534 4219 1204 4116 
Q 875 4013 500 3803 
L 500 4441 
Q 881 4594 1212 4672 
Q 1544 4750 1819 4750 
Q 2544 4750 2975 4387 
Q 3406 4025 3406 3419 
Q 3406 3131 3298 2873 
Q 3191 2616 2906 2266 
Q 2828 2175 2409 1742 
Q 1991 1309 1228 531 
z
" transform="scale(0.015625)"/>
        <path id="DejaVuSans-30" d="M 2034 4250 
Q 1547 4250 1301 3770 
Q 1056 3291 1056 2328 
Q 1056 1369 1301 889 
Q 1547 409 2034 409 
Q 2525 409 2770 889 
Q 3016 1369 3016 2328 
Q 3016 3291 2770 3770 
Q 2525 4250 2034 4250 
z
M 2034 4750 
Q 2819 4750 3233 4129 
Q 3647 3509 3647 2328 
Q 3647 1150 3233 529 
Q 2819 -91 2034 -91 
Q 1250 -91 836 529 
Q 422 1150 422 2328 
Q 422 3509 836 4129 
Q 1250 4750 2034 4750 
z
" transform="scale(0.015625)"/>
       </defs>
       <use xlink:href="#DejaVuSans-32"/>
       <use xlink:href="#DejaVuSans-30" x="63.623047"/>
       <use xlink:href="#DejaVuSans-32" x="127.246094"/>
       <use xlink:href="#DejaVuSans-30" x="190.869141"/>
      </g>
     </g>
    </g>
    <g id="xtick_2">
     <g id="line2d_2">
      <g>
       <use xlink:href="#m050087d5d0" x="356.998525" y="515.56" style="stroke: #000000; stroke-width: 0.8"/>
      </g>
     </g>
     <g id="text_2">
      <!-- 2100 -->
      <g transform="translate(323.913525 542.315938)scale(0.26 -0.26)">
       <defs>
        <path id="DejaVuSans-31" d="M 794 531 
L 1825 531 
L 1825 4091 
L 703 3866 
L 703 4441 
L 1819 4666 
L 2450 4666 
L 2450 531 
L 3481 531 
L 3481 0 
L 794 0 
L 794 531 
z
" transform="scale(0.015625)"/>
       </defs>
       <use xlink:href="#DejaVuSans-32"/>
       <use xlink:href="#DejaVuSans-31" x="63.623047"/>
       <use xlink:href="#DejaVuSans-30" x="127.246094"/>
       <use xlink:href="#DejaVuSans-30" x="190.869141"/>
      </g>
     </g>
    </g>
    <g id="xtick_3">
     <g id="line2d_3">
      <g>
       <use xlink:href="#m050087d5d0" x="597.152433" y="515.56" style="stroke: #000000; stroke-width: 0.8"/>
      </g>
     </g>
     <g id="text_3">
      <!-- 2200 -->
      <g transform="translate(564.067433 542.315938)scale(0.26 -0.26)">
       <use xlink:href="#DejaVuSans-32"/>
       <use xlink:href="#DejaVuSans-32" x="63.623047"/>
       <use xlink:href="#DejaVuSans-30" x="127.246094"/>
       <use xlink:href="#DejaVuSans-30" x="190.869141"/>
      </g>
     </g>
    </g>
    <g id="xtick_4">
     <g id="line2d_4">
      <g>
       <use xlink:href="#m050087d5d0" x="837.306341" y="515.56" style="stroke: #000000; stroke-width: 0.8"/>
      </g>
     </g>
     <g id="text_4">
      <!-- 2300 -->
      <g transform="translate(804.221341 542.315938)scale(0.26 -0.26)">
       <defs>
        <path id="DejaVuSans-33" d="M 2597 2516 
Q 3050 2419 3304 2112 
Q 3559 1806 3559 1356 
Q 3559 666 3084 287 
Q 2609 -91 1734 -91 
Q 1441 -91 1130 -33 
Q 819 25 488 141 
L 488 750 
Q 750 597 1062 519 
Q 1375 441 1716 441 
Q 2309 441 2620 675 
Q 2931 909 2931 1356 
Q 2931 1769 2642 2001 
Q 2353 2234 1838 2234 
L 1294 2234 
L 1294 2753 
L 1863 2753 
Q 2328 2753 2575 2939 
Q 2822 3125 2822 3475 
Q 2822 3834 2567 4026 
Q 2313 4219 1838 4219 
Q 1578 4219 1281 4162 
Q 984 4106 628 3988 
L 628 4550 
Q 988 4650 1302 4700 
Q 1616 4750 1894 4750 
Q 2613 4750 3031 4423 
Q 3450 4097 3450 3541 
Q 3450 3153 3228 2886 
Q 3006 2619 2597 2516 
z
" transform="scale(0.015625)"/>
       </defs>
       <use xlink:href="#DejaVuSans-32"/>
       <use xlink:href="#DejaVuSans-33" x="63.623047"/>
       <use xlink:href="#DejaVuSans-30" x="127.246094"/>
       <use xlink:href="#DejaVuSans-30" x="190.869141"/>
      </g>
     </g>
    </g>
    <g id="text_5">
     <!-- Year -->
     <g transform="translate(457.010409 568.439687)scale(0.22 -0.22)">
      <defs>
       <path id="DejaVuSans-Bold-59" d="M -63 4666 
L 1253 4666 
L 2316 3003 
L 3378 4666 
L 4697 4666 
L 2919 1966 
L 2919 0 
L 1716 0 
L 1716 1966 
L -63 4666 
z
" transform="scale(0.015625)"/>
       <path id="DejaVuSans-Bold-65" d="M 4031 1759 
L 4031 1441 
L 1416 1441 
Q 1456 1047 1700 850 
Q 1944 653 2381 653 
Q 2734 653 3104 758 
Q 3475 863 3866 1075 
L 3866 213 
Q 3469 63 3072 -14 
Q 2675 -91 2278 -91 
Q 1328 -91 801 392 
Q 275 875 275 1747 
Q 275 2603 792 3093 
Q 1309 3584 2216 3584 
Q 3041 3584 3536 3087 
Q 4031 2591 4031 1759 
z
M 2881 2131 
Q 2881 2450 2695 2645 
Q 2509 2841 2209 2841 
Q 1884 2841 1681 2658 
Q 1478 2475 1428 2131 
L 2881 2131 
z
" transform="scale(0.015625)"/>
       <path id="DejaVuSans-Bold-61" d="M 2106 1575 
Q 1756 1575 1579 1456 
Q 1403 1338 1403 1106 
Q 1403 894 1545 773 
Q 1688 653 1941 653 
Q 2256 653 2472 879 
Q 2688 1106 2688 1447 
L 2688 1575 
L 2106 1575 
z
M 3816 1997 
L 3816 0 
L 2688 0 
L 2688 519 
Q 2463 200 2181 54 
Q 1900 -91 1497 -91 
Q 953 -91 614 226 
Q 275 544 275 1050 
Q 275 1666 698 1953 
Q 1122 2241 2028 2241 
L 2688 2241 
L 2688 2328 
Q 2688 2594 2478 2717 
Q 2269 2841 1825 2841 
Q 1466 2841 1156 2769 
Q 847 2697 581 2553 
L 581 3406 
Q 941 3494 1303 3539 
Q 1666 3584 2028 3584 
Q 2975 3584 3395 3211 
Q 3816 2838 3816 1997 
z
" transform="scale(0.015625)"/>
       <path id="DejaVuSans-Bold-72" d="M 3138 2547 
Q 2991 2616 2845 2648 
Q 2700 2681 2553 2681 
Q 2122 2681 1889 2404 
Q 1656 2128 1656 1613 
L 1656 0 
L 538 0 
L 538 3500 
L 1656 3500 
L 1656 2925 
Q 1872 3269 2151 3426 
Q 2431 3584 2822 3584 
Q 2878 3584 2943 3579 
Q 3009 3575 3134 3559 
L 3138 2547 
z
" transform="scale(0.015625)"/>
      </defs>
      <use xlink:href="#DejaVuSans-Bold-59"/>
      <use xlink:href="#DejaVuSans-Bold-65" x="63.287109"/>
      <use xlink:href="#DejaVuSans-Bold-61" x="131.109375"/>
      <use xlink:href="#DejaVuSans-Bold-72" x="198.589844"/>
     </g>
    </g>
   </g>
   <g id="matplotlib.axis_2">
    <g id="ytick_1">
     <g id="line2d_5">
      <defs>
       <path id="m6719d25f22" d="M 0 0 
L -3.5 0 
" style="stroke: #000000; stroke-width: 0.8"/>
      </defs>
      <g>
       <use xlink:href="#m6719d25f22" x="109.64" y="515.56" style="stroke: #000000; stroke-width: 0.8"/>
      </g>
     </g>
     <g id="text_6">
      <!-- 0 -->
      <g transform="translate(86.0975 525.437969)scale(0.26 -0.26)">
       <use xlink:href="#DejaVuSans-30"/>
      </g>
     </g>
    </g>
    <g id="ytick_2">
     <g id="line2d_6">
      <g>
       <use xlink:href="#m6719d25f22" x="109.64" y="441.5184" style="stroke: #000000; stroke-width: 0.8"/>
      </g>
     </g>
     <g id="text_7">
      <!-- 20 -->
      <g transform="translate(69.555 451.396369)scale(0.26 -0.26)">
       <use xlink:href="#DejaVuSans-32"/>
       <use xlink:href="#DejaVuSans-30" x="63.623047"/>
      </g>
     </g>
    </g>
    <g id="ytick_3">
     <g id="line2d_7">
      <g>
       <use xlink:href="#m6719d25f22" x="109.64" y="367.4768" style="stroke: #000000; stroke-width: 0.8"/>
      </g>
     </g>
     <g id="text_8">
      <!-- 40 -->
      <g transform="translate(69.555 377.354769)scale(0.26 -0.26)">
       <defs>
        <path id="DejaVuSans-34" d="M 2419 4116 
L 825 1625 
L 2419 1625 
L 2419 4116 
z
M 2253 4666 
L 3047 4666 
L 3047 1625 
L 3713 1625 
L 3713 1100 
L 3047 1100 
L 3047 0 
L 2419 0 
L 2419 1100 
L 313 1100 
L 313 1709 
L 2253 4666 
z
" transform="scale(0.015625)"/>
       </defs>
       <use xlink:href="#DejaVuSans-34"/>
       <use xlink:href="#DejaVuSans-30" x="63.623047"/>
      </g>
     </g>
    </g>
    <g id="ytick_4">
     <g id="line2d_8">
      <g>
       <use xlink:href="#m6719d25f22" x="109.64" y="293.4352" style="stroke: #000000; stroke-width: 0.8"/>
      </g>
     </g>
     <g id="text_9">
      <!-- 60 -->
      <g transform="translate(69.555 303.313169)scale(0.26 -0.26)">
       <defs>
        <path id="DejaVuSans-36" d="M 2113 2584 
Q 1688 2584 1439 2293 
Q 1191 2003 1191 1497 
Q 1191 994 1439 701 
Q 1688 409 2113 409 
Q 2538 409 2786 701 
Q 3034 994 3034 1497 
Q 3034 2003 2786 2293 
Q 2538 2584 2113 2584 
z
M 3366 4563 
L 3366 3988 
Q 3128 4100 2886 4159 
Q 2644 4219 2406 4219 
Q 1781 4219 1451 3797 
Q 1122 3375 1075 2522 
Q 1259 2794 1537 2939 
Q 1816 3084 2150 3084 
Q 2853 3084 3261 2657 
Q 3669 2231 3669 1497 
Q 3669 778 3244 343 
Q 2819 -91 2113 -91 
Q 1303 -91 875 529 
Q 447 1150 447 2328 
Q 447 3434 972 4092 
Q 1497 4750 2381 4750 
Q 2619 4750 2861 4703 
Q 3103 4656 3366 4563 
z
" transform="scale(0.015625)"/>
       </defs>
       <use xlink:href="#DejaVuSans-36"/>
       <use xlink:href="#DejaVuSans-30" x="63.623047"/>
      </g>
     </g>
    </g>
    <g id="ytick_5">
     <g id="line2d_9">
      <g>
       <use xlink:href="#m6719d25f22" x="109.64" y="219.3936" style="stroke: #000000; stroke-width: 0.8"/>
      </g>
     </g>
     <g id="text_10">
      <!-- 80 -->
      <g transform="translate(69.555 229.271569)scale(0.26 -0.26)">
       <defs>
        <path id="DejaVuSans-38" d="M 2034 2216 
Q 1584 2216 1326 1975 
Q 1069 1734 1069 1313 
Q 1069 891 1326 650 
Q 1584 409 2034 409 
Q 2484 409 2743 651 
Q 3003 894 3003 1313 
Q 3003 1734 2745 1975 
Q 2488 2216 2034 2216 
z
M 1403 2484 
Q 997 2584 770 2862 
Q 544 3141 544 3541 
Q 544 4100 942 4425 
Q 1341 4750 2034 4750 
Q 2731 4750 3128 4425 
Q 3525 4100 3525 3541 
Q 3525 3141 3298 2862 
Q 3072 2584 2669 2484 
Q 3125 2378 3379 2068 
Q 3634 1759 3634 1313 
Q 3634 634 3220 271 
Q 2806 -91 2034 -91 
Q 1263 -91 848 271 
Q 434 634 434 1313 
Q 434 1759 690 2068 
Q 947 2378 1403 2484 
z
M 1172 3481 
Q 1172 3119 1398 2916 
Q 1625 2713 2034 2713 
Q 2441 2713 2670 2916 
Q 2900 3119 2900 3481 
Q 2900 3844 2670 4047 
Q 2441 4250 2034 4250 
Q 1625 4250 1398 4047 
Q 1172 3844 1172 3481 
z
" transform="scale(0.015625)"/>
       </defs>
       <use xlink:href="#DejaVuSans-38"/>
       <use xlink:href="#DejaVuSans-30" x="63.623047"/>
      </g>
     </g>
    </g>
    <g id="ytick_6">
     <g id="line2d_10">
      <g>
       <use xlink:href="#m6719d25f22" x="109.64" y="145.352" style="stroke: #000000; stroke-width: 0.8"/>
      </g>
     </g>
     <g id="text_11">
      <!-- 100 -->
      <g transform="translate(53.0125 155.229969)scale(0.26 -0.26)">
       <use xlink:href="#DejaVuSans-31"/>
       <use xlink:href="#DejaVuSans-30" x="63.623047"/>
       <use xlink:href="#DejaVuSans-30" x="127.246094"/>
      </g>
     </g>
    </g>
    <g id="ytick_7">
     <g id="line2d_11">
      <g>
       <use xlink:href="#m6719d25f22" x="109.64" y="71.3104" style="stroke: #000000; stroke-width: 0.8"/>
      </g>
     </g>
     <g id="text_12">
      <!-- 120 -->
      <g transform="translate(53.0125 81.188369)scale(0.26 -0.26)">
       <use xlink:href="#DejaVuSans-31"/>
       <use xlink:href="#DejaVuSans-32" x="63.623047"/>
       <use xlink:href="#DejaVuSans-30" x="127.246094"/>
      </g>
     </g>
    </g>
    <g id="text_13">
     <!-- % of Remaining Glacier Mass -->
     <g transform="translate(44.265313 463.619219)rotate(-90)scale(0.22 -0.22)">
      <defs>
       <path id="DejaVuSans-Bold-25" d="M 4959 1925 
Q 4738 1925 4616 1733 
Q 4494 1541 4494 1184 
Q 4494 825 4614 633 
Q 4734 441 4959 441 
Q 5184 441 5303 633 
Q 5422 825 5422 1184 
Q 5422 1541 5301 1733 
Q 5181 1925 4959 1925 
z
M 4959 2450 
Q 5541 2450 5875 2112 
Q 6209 1775 6209 1184 
Q 6209 594 5875 251 
Q 5541 -91 4959 -91 
Q 4378 -91 4042 251 
Q 3706 594 3706 1184 
Q 3706 1772 4042 2111 
Q 4378 2450 4959 2450 
z
M 2094 -91 
L 1403 -91 
L 4319 4750 
L 5013 4750 
L 2094 -91 
z
M 1453 4750 
Q 2034 4750 2367 4411 
Q 2700 4072 2700 3481 
Q 2700 2891 2367 2550 
Q 2034 2209 1453 2209 
Q 872 2209 539 2550 
Q 206 2891 206 3481 
Q 206 4072 539 4411 
Q 872 4750 1453 4750 
z
M 1453 4225 
Q 1228 4225 1106 4031 
Q 984 3838 984 3481 
Q 984 3122 1106 2926 
Q 1228 2731 1453 2731 
Q 1678 2731 1798 2926 
Q 1919 3122 1919 3481 
Q 1919 3838 1797 4031 
Q 1675 4225 1453 4225 
z
" transform="scale(0.015625)"/>
       <path id="DejaVuSans-Bold-20" transform="scale(0.015625)"/>
       <path id="DejaVuSans-Bold-6f" d="M 2203 2784 
Q 1831 2784 1636 2517 
Q 1441 2250 1441 1747 
Q 1441 1244 1636 976 
Q 1831 709 2203 709 
Q 2569 709 2762 976 
Q 2956 1244 2956 1747 
Q 2956 2250 2762 2517 
Q 2569 2784 2203 2784 
z
M 2203 3584 
Q 3106 3584 3614 3096 
Q 4122 2609 4122 1747 
Q 4122 884 3614 396 
Q 3106 -91 2203 -91 
Q 1297 -91 786 396 
Q 275 884 275 1747 
Q 275 2609 786 3096 
Q 1297 3584 2203 3584 
z
" transform="scale(0.015625)"/>
       <path id="DejaVuSans-Bold-66" d="M 2841 4863 
L 2841 4128 
L 2222 4128 
Q 1984 4128 1890 4042 
Q 1797 3956 1797 3744 
L 1797 3500 
L 2753 3500 
L 2753 2700 
L 1797 2700 
L 1797 0 
L 678 0 
L 678 2700 
L 122 2700 
L 122 3500 
L 678 3500 
L 678 3744 
Q 678 4316 997 4589 
Q 1316 4863 1984 4863 
L 2841 4863 
z
" transform="scale(0.015625)"/>
       <path id="DejaVuSans-Bold-52" d="M 2297 2597 
Q 2675 2597 2839 2737 
Q 3003 2878 3003 3200 
Q 3003 3519 2839 3656 
Q 2675 3794 2297 3794 
L 1791 3794 
L 1791 2597 
L 2297 2597 
z
M 1791 1766 
L 1791 0 
L 588 0 
L 588 4666 
L 2425 4666 
Q 3347 4666 3776 4356 
Q 4206 4047 4206 3378 
Q 4206 2916 3982 2619 
Q 3759 2322 3309 2181 
Q 3556 2125 3751 1926 
Q 3947 1728 4147 1325 
L 4800 0 
L 3519 0 
L 2950 1159 
Q 2778 1509 2601 1637 
Q 2425 1766 2131 1766 
L 1791 1766 
z
" transform="scale(0.015625)"/>
       <path id="DejaVuSans-Bold-6d" d="M 3781 2919 
Q 3994 3244 4286 3414 
Q 4578 3584 4928 3584 
Q 5531 3584 5847 3212 
Q 6163 2841 6163 2131 
L 6163 0 
L 5038 0 
L 5038 1825 
Q 5041 1866 5042 1909 
Q 5044 1953 5044 2034 
Q 5044 2406 4934 2573 
Q 4825 2741 4581 2741 
Q 4263 2741 4089 2478 
Q 3916 2216 3909 1719 
L 3909 0 
L 2784 0 
L 2784 1825 
Q 2784 2406 2684 2573 
Q 2584 2741 2328 2741 
Q 2006 2741 1831 2477 
Q 1656 2213 1656 1722 
L 1656 0 
L 531 0 
L 531 3500 
L 1656 3500 
L 1656 2988 
Q 1863 3284 2130 3434 
Q 2397 3584 2719 3584 
Q 3081 3584 3359 3409 
Q 3638 3234 3781 2919 
z
" transform="scale(0.015625)"/>
       <path id="DejaVuSans-Bold-69" d="M 538 3500 
L 1656 3500 
L 1656 0 
L 538 0 
L 538 3500 
z
M 538 4863 
L 1656 4863 
L 1656 3950 
L 538 3950 
L 538 4863 
z
" transform="scale(0.015625)"/>
       <path id="DejaVuSans-Bold-6e" d="M 4056 2131 
L 4056 0 
L 2931 0 
L 2931 347 
L 2931 1631 
Q 2931 2084 2911 2256 
Q 2891 2428 2841 2509 
Q 2775 2619 2662 2680 
Q 2550 2741 2406 2741 
Q 2056 2741 1856 2470 
Q 1656 2200 1656 1722 
L 1656 0 
L 538 0 
L 538 3500 
L 1656 3500 
L 1656 2988 
Q 1909 3294 2193 3439 
Q 2478 3584 2822 3584 
Q 3428 3584 3742 3212 
Q 4056 2841 4056 2131 
z
" transform="scale(0.015625)"/>
       <path id="DejaVuSans-Bold-67" d="M 2919 594 
Q 2688 288 2409 144 
Q 2131 0 1766 0 
Q 1125 0 706 504 
Q 288 1009 288 1791 
Q 288 2575 706 3076 
Q 1125 3578 1766 3578 
Q 2131 3578 2409 3434 
Q 2688 3291 2919 2981 
L 2919 3500 
L 4044 3500 
L 4044 353 
Q 4044 -491 3511 -936 
Q 2978 -1381 1966 -1381 
Q 1638 -1381 1331 -1331 
Q 1025 -1281 716 -1178 
L 716 -306 
Q 1009 -475 1290 -558 
Q 1572 -641 1856 -641 
Q 2406 -641 2662 -400 
Q 2919 -159 2919 353 
L 2919 594 
z
M 2181 2772 
Q 1834 2772 1640 2515 
Q 1447 2259 1447 1791 
Q 1447 1309 1634 1061 
Q 1822 813 2181 813 
Q 2531 813 2725 1069 
Q 2919 1325 2919 1791 
Q 2919 2259 2725 2515 
Q 2531 2772 2181 2772 
z
" transform="scale(0.015625)"/>
       <path id="DejaVuSans-Bold-47" d="M 4781 347 
Q 4331 128 3847 18 
Q 3363 -91 2847 -91 
Q 1681 -91 1000 561 
Q 319 1213 319 2328 
Q 319 3456 1012 4103 
Q 1706 4750 2913 4750 
Q 3378 4750 3804 4662 
Q 4231 4575 4609 4403 
L 4609 3438 
Q 4219 3659 3833 3768 
Q 3447 3878 3059 3878 
Q 2341 3878 1952 3476 
Q 1563 3075 1563 2328 
Q 1563 1588 1938 1184 
Q 2313 781 3003 781 
Q 3191 781 3352 804 
Q 3513 828 3641 878 
L 3641 1784 
L 2906 1784 
L 2906 2591 
L 4781 2591 
L 4781 347 
z
" transform="scale(0.015625)"/>
       <path id="DejaVuSans-Bold-6c" d="M 538 4863 
L 1656 4863 
L 1656 0 
L 538 0 
L 538 4863 
z
" transform="scale(0.015625)"/>
       <path id="DejaVuSans-Bold-63" d="M 3366 3391 
L 3366 2478 
Q 3138 2634 2908 2709 
Q 2678 2784 2431 2784 
Q 1963 2784 1702 2511 
Q 1441 2238 1441 1747 
Q 1441 1256 1702 982 
Q 1963 709 2431 709 
Q 2694 709 2930 787 
Q 3166 866 3366 1019 
L 3366 103 
Q 3103 6 2833 -42 
Q 2563 -91 2291 -91 
Q 1344 -91 809 395 
Q 275 881 275 1747 
Q 275 2613 809 3098 
Q 1344 3584 2291 3584 
Q 2566 3584 2833 3536 
Q 3100 3488 3366 3391 
z
" transform="scale(0.015625)"/>
       <path id="DejaVuSans-Bold-4d" d="M 588 4666 
L 2119 4666 
L 3181 2169 
L 4250 4666 
L 5778 4666 
L 5778 0 
L 4641 0 
L 4641 3413 
L 3566 897 
L 2803 897 
L 1728 3413 
L 1728 0 
L 588 0 
L 588 4666 
z
" transform="scale(0.015625)"/>
       <path id="DejaVuSans-Bold-73" d="M 3272 3391 
L 3272 2541 
Q 2913 2691 2578 2766 
Q 2244 2841 1947 2841 
Q 1628 2841 1473 2761 
Q 1319 2681 1319 2516 
Q 1319 2381 1436 2309 
Q 1553 2238 1856 2203 
L 2053 2175 
Q 2913 2066 3209 1816 
Q 3506 1566 3506 1031 
Q 3506 472 3093 190 
Q 2681 -91 1863 -91 
Q 1516 -91 1145 -36 
Q 775 19 384 128 
L 384 978 
Q 719 816 1070 734 
Q 1422 653 1784 653 
Q 2113 653 2278 743 
Q 2444 834 2444 1013 
Q 2444 1163 2330 1236 
Q 2216 1309 1875 1350 
L 1678 1375 
Q 931 1469 631 1722 
Q 331 1975 331 2491 
Q 331 3047 712 3315 
Q 1094 3584 1881 3584 
Q 2191 3584 2531 3537 
Q 2872 3491 3272 3391 
z
" transform="scale(0.015625)"/>
      </defs>
      <use xlink:href="#DejaVuSans-Bold-25"/>
      <use xlink:href="#DejaVuSans-Bold-20" x="100.195312"/>
      <use xlink:href="#DejaVuSans-Bold-6f" x="135.009766"/>
      <use xlink:href="#DejaVuSans-Bold-66" x="203.710938"/>
      <use xlink:href="#DejaVuSans-Bold-20" x="247.216797"/>
      <use xlink:href="#DejaVuSans-Bold-52" x="282.03125"/>
      <use xlink:href="#DejaVuSans-Bold-65" x="359.033203"/>
      <use xlink:href="#DejaVuSans-Bold-6d" x="426.855469"/>
      <use xlink:href="#DejaVuSans-Bold-61" x="531.054688"/>
      <use xlink:href="#DejaVuSans-Bold-69" x="598.535156"/>
      <use xlink:href="#DejaVuSans-Bold-6e" x="632.8125"/>
      <use xlink:href="#DejaVuSans-Bold-69" x="704.003906"/>
      <use xlink:href="#DejaVuSans-Bold-6e" x="738.28125"/>
      <use xlink:href="#DejaVuSans-Bold-67" x="809.472656"/>
      <use xlink:href="#DejaVuSans-Bold-20" x="881.054688"/>
      <use xlink:href="#DejaVuSans-Bold-47" x="915.869141"/>
      <use xlink:href="#DejaVuSans-Bold-6c" x="997.949219"/>
      <use xlink:href="#DejaVuSans-Bold-61" x="1032.226562"/>
      <use xlink:href="#DejaVuSans-Bold-63" x="1099.707031"/>
      <use xlink:href="#DejaVuSans-Bold-69" x="1158.984375"/>
      <use xlink:href="#DejaVuSans-Bold-65" x="1193.261719"/>
      <use xlink:href="#DejaVuSans-Bold-72" x="1261.083984"/>
      <use xlink:href="#DejaVuSans-Bold-20" x="1310.400391"/>
      <use xlink:href="#DejaVuSans-Bold-4d" x="1345.214844"/>
      <use xlink:href="#DejaVuSans-Bold-61" x="1444.726562"/>
      <use xlink:href="#DejaVuSans-Bold-73" x="1512.207031"/>
      <use xlink:href="#DejaVuSans-Bold-73" x="1571.728516"/>
     </g>
    </g>
   </g>
   <g id="line2d_12">
    <path d="M 167.276938 146.363499 
L 174.481555 149.612913 
L 184.087711 154.145924 
L 188.89079 156.673315 
L 198.496946 161.961862 
L 215.307719 171.650523 
L 227.315415 178.80252 
L 236.921571 184.769038 
L 251.330806 193.547345 
L 258.535423 197.646186 
L 268.141579 202.802098 
L 284.952353 211.504444 
L 313.770822 225.827904 
L 328.180056 232.462047 
L 340.187751 237.820346 
L 347.392369 240.726749 
L 356.998525 244.556376 
L 397.824689 261.684596 
L 407.430846 265.878789 
L 417.037002 269.772128 
L 453.060088 283.434183 
L 465.067784 287.805491 
L 472.272401 290.449685 
L 491.484713 296.953384 
L 501.09087 300.076592 
L 532.310878 309.985586 
L 541.917034 312.710441 
L 553.924729 315.966374 
L 568.333964 319.486111 
L 575.538581 321.06075 
L 594.750894 324.771812 
L 611.561667 327.811799 
L 621.167824 329.58857 
L 637.978597 332.876554 
L 649.986293 334.945824 
L 659.592449 336.188892 
L 666.797066 337.001874 
L 676.403222 337.80312 
L 690.812457 338.845249 
L 702.820152 339.763415 
L 714.827848 340.694538 
L 722.032465 341.206526 
L 743.646317 342.77941 
L 762.858629 344.146866 
L 774.866325 345.075852 
L 786.87402 345.867354 
L 801.283254 346.487416 
L 810.889411 346.579474 
L 837.306341 346.331783 
L 837.306341 346.331783 
" clip-path="url(#pee36b1268b)" style="fill: none; stroke: #74b8f8; stroke-opacity: 0.5; stroke-width: 6; stroke-linecap: square"/>
   </g>
   <g id="line2d_13">
    <path d="M 116.844617 133.824235 
L 119.246156 134.196973 
L 121.647695 134.551064 
L 124.049234 134.897971 
L 126.450774 135.208993 
L 128.852313 135.578451 
L 131.253852 135.938487 
L 133.655391 136.283815 
L 136.05693 136.627449 
L 138.458469 136.966378 
L 140.860008 137.282293 
L 143.261547 137.981377 
L 145.663086 138.705533 
L 148.064625 139.456533 
L 150.466164 140.200458 
L 152.867703 140.976641 
L 155.269242 141.755457 
L 157.670782 142.579458 
L 160.072321 143.456063 
L 162.47386 144.389037 
L 164.875399 145.352 
" clip-path="url(#pee36b1268b)" style="fill: none; stroke: #000000; stroke-opacity: 0.5; stroke-width: 6; stroke-linecap: square"/>
   </g>
   <g id="line2d_14">
    <path d="M 167.276938 146.218305 
L 176.883094 150.055953 
L 184.087711 153.289055 
L 188.89079 155.767719 
L 200.898485 162.152091 
L 205.701563 165.378253 
L 217.709259 174.000892 
L 222.512337 177.627152 
L 227.315415 181.374172 
L 236.921571 188.702691 
L 241.724649 192.492874 
L 251.330806 199.493407 
L 284.952353 223.439264 
L 292.15697 228.507581 
L 323.376978 250.646694 
L 330.581595 255.556266 
L 340.187751 261.85115 
L 352.195447 269.932486 
L 373.809299 284.194609 
L 407.430846 306.610751 
L 424.241619 318.409768 
L 441.052393 330.377627 
L 448.25701 335.273811 
L 455.461627 339.91119 
L 460.264705 342.75644 
L 467.469323 346.626394 
L 474.67394 350.08589 
L 479.477018 352.171866 
L 486.681635 354.933561 
L 498.689331 359.257525 
L 513.098565 364.116671 
L 539.515495 372.639997 
L 551.52319 375.946399 
L 558.727808 378.139735 
L 580.341659 385.134239 
L 599.553972 391.015909 
L 606.758589 392.983963 
L 625.970902 397.694076 
L 635.577058 399.663849 
L 645.183214 401.440536 
L 654.789371 402.925535 
L 664.395527 404.138283 
L 671.600144 404.825751 
L 690.812457 406.417731 
L 702.820152 407.680156 
L 719.630926 409.655213 
L 726.835543 410.125844 
L 765.260168 412.340059 
L 791.677098 413.953385 
L 818.094028 415.324983 
L 837.306341 415.783698 
L 837.306341 415.783698 
" clip-path="url(#pee36b1268b)" style="fill: none; stroke: #f47100; stroke-opacity: 0.5; stroke-width: 6; stroke-linecap: square"/>
   </g>
   <g id="line2d_15">
    <path d="M 116.844617 135.069256 
L 119.246156 135.406435 
L 121.647695 135.693979 
L 124.049234 135.983767 
L 126.450774 136.215729 
L 128.852313 136.561635 
L 131.253852 136.884911 
L 133.655391 137.190159 
L 136.05693 137.457336 
L 138.458469 137.723698 
L 140.860008 137.946279 
L 143.261547 138.545516 
L 145.663086 139.2596 
L 148.064625 139.986427 
L 150.466164 140.625215 
L 152.867703 141.325776 
L 155.269242 142.075858 
L 157.670782 142.862279 
L 160.072321 143.668254 
L 162.47386 144.50671 
L 164.875399 145.352 
" clip-path="url(#pee36b1268b)" style="fill: none; stroke: #000000; stroke-opacity: 0.5; stroke-width: 6; stroke-linecap: square"/>
   </g>
   <g id="line2d_16">
    <path d="M 167.276938 146.275649 
L 172.080016 148.259387 
L 181.686172 152.605614 
L 186.48925 155.205412 
L 191.292329 158.103081 
L 196.095407 161.29253 
L 200.898485 164.863977 
L 203.300024 166.833847 
L 208.103102 171.231239 
L 210.504641 173.581227 
L 215.307719 178.782606 
L 222.512337 187.04281 
L 236.921571 204.081986 
L 244.126188 212.149129 
L 258.535423 227.637072 
L 263.338501 232.291152 
L 280.149275 248.160113 
L 287.353892 254.998879 
L 294.558509 262.018038 
L 301.763126 268.82952 
L 308.967743 275.679318 
L 318.5739 284.628977 
L 323.376978 289.711277 
L 328.180056 295.115041 
L 347.392369 317.481775 
L 349.793908 320.345461 
L 354.596986 326.679514 
L 361.801603 336.271599 
L 366.604681 342.326741 
L 371.407759 347.9121 
L 385.816994 364.03174 
L 388.218533 366.717917 
L 407.430846 389.452868 
L 414.635463 397.694309 
L 421.84008 405.353161 
L 426.643158 410.08569 
L 433.847776 416.783168 
L 436.249315 418.937869 
L 438.650854 420.908203 
L 443.453932 424.469985 
L 448.25701 427.843443 
L 455.461627 432.521179 
L 462.666244 436.882433 
L 469.870862 440.957488 
L 477.075479 444.735863 
L 484.280096 448.24164 
L 491.484713 451.52747 
L 496.287792 453.507962 
L 501.09087 455.32572 
L 508.295487 457.755154 
L 515.500104 459.951949 
L 522.704721 461.928386 
L 532.310878 464.218339 
L 537.113956 465.219836 
L 541.917034 467.060807 
L 544.318573 468.012238 
L 556.326268 470.903257 
L 563.530886 472.447182 
L 592.349355 478.29236 
L 606.758589 481.179108 
L 611.561667 481.729817 
L 637.978597 484.207272 
L 652.387832 485.343441 
L 664.395527 486.007727 
L 676.403222 486.496153 
L 688.410918 486.796963 
L 702.820152 486.899419 
L 743.646317 487.099273 
L 798.881715 488.267531 
L 820.495567 488.641392 
L 837.306341 488.821808 
L 837.306341 488.821808 
" clip-path="url(#pee36b1268b)" style="fill: none; stroke: #d01e04; stroke-opacity: 0.5; stroke-width: 6; stroke-linecap: square"/>
   </g>
   <g id="line2d_17">
    <path d="M 116.844617 133.467155 
L 119.246156 133.827725 
L 121.647695 134.18129 
L 124.049234 134.528314 
L 126.450774 134.871133 
L 128.852313 135.234369 
L 131.253852 135.619427 
L 133.655391 136.017287 
L 136.05693 136.406728 
L 138.458469 136.7884 
L 140.860008 137.197839 
L 143.261547 137.937568 
L 145.663086 138.692717 
L 148.064625 139.478263 
L 150.466164 140.253854 
L 152.867703 141.048598 
L 155.269242 141.828952 
L 157.670782 142.673268 
L 160.072321 143.547408 
L 162.47386 144.452454 
L 164.875399 145.352 
" clip-path="url(#pee36b1268b)" style="fill: none; stroke: #000000; stroke-opacity: 0.5; stroke-width: 6; stroke-linecap: square"/>
   </g>
   <g id="patch_3">
    <path d="M 109.64 515.56 
L 109.64 52.8 
" style="fill: none; stroke: #000000; stroke-width: 0.8; stroke-linejoin: miter; stroke-linecap: square"/>
   </g>
   <g id="patch_4">
    <path d="M 109.64 515.56 
L 858.920192 515.56 
" style="fill: none; stroke: #000000; stroke-width: 0.8; stroke-linejoin: miter; stroke-linecap: square"/>
   </g>
   <g id="text_14">
    <!-- Svalbard &amp; Jan Mayen -->
    <g transform="translate(336.138221 46.8)scale(0.24 -0.24)">
     <defs>
      <path id="DejaVuSans-Bold-53" d="M 3834 4519 
L 3834 3531 
Q 3450 3703 3084 3790 
Q 2719 3878 2394 3878 
Q 1963 3878 1756 3759 
Q 1550 3641 1550 3391 
Q 1550 3203 1689 3098 
Q 1828 2994 2194 2919 
L 2706 2816 
Q 3484 2659 3812 2340 
Q 4141 2022 4141 1434 
Q 4141 663 3683 286 
Q 3225 -91 2284 -91 
Q 1841 -91 1394 -6 
Q 947 78 500 244 
L 500 1259 
Q 947 1022 1364 901 
Q 1781 781 2169 781 
Q 2563 781 2772 912 
Q 2981 1044 2981 1288 
Q 2981 1506 2839 1625 
Q 2697 1744 2272 1838 
L 1806 1941 
Q 1106 2091 782 2419 
Q 459 2747 459 3303 
Q 459 4000 909 4375 
Q 1359 4750 2203 4750 
Q 2588 4750 2994 4692 
Q 3400 4634 3834 4519 
z
" transform="scale(0.015625)"/>
      <path id="DejaVuSans-Bold-76" d="M 97 3500 
L 1216 3500 
L 2088 1081 
L 2956 3500 
L 4078 3500 
L 2700 0 
L 1472 0 
L 97 3500 
z
" transform="scale(0.015625)"/>
      <path id="DejaVuSans-Bold-62" d="M 2400 722 
Q 2759 722 2948 984 
Q 3138 1247 3138 1747 
Q 3138 2247 2948 2509 
Q 2759 2772 2400 2772 
Q 2041 2772 1848 2508 
Q 1656 2244 1656 1747 
Q 1656 1250 1848 986 
Q 2041 722 2400 722 
z
M 1656 2988 
Q 1888 3294 2169 3439 
Q 2450 3584 2816 3584 
Q 3463 3584 3878 3070 
Q 4294 2556 4294 1747 
Q 4294 938 3878 423 
Q 3463 -91 2816 -91 
Q 2450 -91 2169 54 
Q 1888 200 1656 506 
L 1656 0 
L 538 0 
L 538 4863 
L 1656 4863 
L 1656 2988 
z
" transform="scale(0.015625)"/>
      <path id="DejaVuSans-Bold-64" d="M 2919 2988 
L 2919 4863 
L 4044 4863 
L 4044 0 
L 2919 0 
L 2919 506 
Q 2688 197 2409 53 
Q 2131 -91 1766 -91 
Q 1119 -91 703 423 
Q 288 938 288 1747 
Q 288 2556 703 3070 
Q 1119 3584 1766 3584 
Q 2128 3584 2408 3439 
Q 2688 3294 2919 2988 
z
M 2181 722 
Q 2541 722 2730 984 
Q 2919 1247 2919 1747 
Q 2919 2247 2730 2509 
Q 2541 2772 2181 2772 
Q 1825 2772 1636 2509 
Q 1447 2247 1447 1747 
Q 1447 1247 1636 984 
Q 1825 722 2181 722 
z
" transform="scale(0.015625)"/>
      <path id="DejaVuSans-Bold-26" d="M 2497 3097 
L 3775 1691 
Q 3941 1909 4027 2181 
Q 4113 2453 4128 2797 
L 5100 2797 
Q 5053 2228 4879 1784 
Q 4706 1341 4397 1006 
L 5313 0 
L 3988 0 
L 3681 341 
Q 3353 122 2990 15 
Q 2628 -91 2222 -91 
Q 1400 -91 892 342 
Q 384 775 384 1459 
Q 384 1916 607 2267 
Q 831 2619 1338 2950 
Q 1206 3116 1143 3281 
Q 1081 3447 1081 3628 
Q 1081 4138 1478 4444 
Q 1875 4750 2534 4750 
Q 2819 4750 3126 4704 
Q 3434 4659 3769 4569 
L 3769 3700 
Q 3475 3850 3212 3922 
Q 2950 3994 2700 3994 
Q 2459 3994 2326 3901 
Q 2194 3809 2194 3641 
Q 2194 3534 2270 3398 
Q 2347 3263 2497 3097 
z
M 1875 2322 
Q 1672 2175 1569 1989 
Q 1466 1803 1466 1581 
Q 1466 1222 1731 969 
Q 1997 716 2369 716 
Q 2578 716 2759 780 
Q 2941 844 3097 972 
L 1875 2322 
z
" transform="scale(0.015625)"/>
      <path id="DejaVuSans-Bold-4a" d="M 588 4666 
L 1791 4666 
L 1791 453 
Q 1791 -419 1317 -850 
Q 844 -1281 -116 -1281 
L -359 -1281 
L -359 -372 
L -172 -372 
Q 203 -372 395 -162 
Q 588 47 588 453 
L 588 4666 
z
" transform="scale(0.015625)"/>
      <path id="DejaVuSans-Bold-79" d="M 78 3500 
L 1197 3500 
L 2138 1125 
L 2938 3500 
L 4056 3500 
L 2584 -331 
Q 2363 -916 2067 -1148 
Q 1772 -1381 1288 -1381 
L 641 -1381 
L 641 -647 
L 991 -647 
Q 1275 -647 1404 -556 
Q 1534 -466 1606 -231 
L 1638 -134 
L 78 3500 
z
" transform="scale(0.015625)"/>
     </defs>
     <use xlink:href="#DejaVuSans-Bold-53"/>
     <use xlink:href="#DejaVuSans-Bold-76" x="72.021484"/>
     <use xlink:href="#DejaVuSans-Bold-61" x="137.207031"/>
     <use xlink:href="#DejaVuSans-Bold-6c" x="204.6875"/>
     <use xlink:href="#DejaVuSans-Bold-62" x="238.964844"/>
     <use xlink:href="#DejaVuSans-Bold-61" x="310.546875"/>
     <use xlink:href="#DejaVuSans-Bold-72" x="378.027344"/>
     <use xlink:href="#DejaVuSans-Bold-64" x="427.34375"/>
     <use xlink:href="#DejaVuSans-Bold-20" x="498.925781"/>
     <use xlink:href="#DejaVuSans-Bold-26" x="533.740234"/>
     <use xlink:href="#DejaVuSans-Bold-20" x="620.947266"/>
     <use xlink:href="#DejaVuSans-Bold-4a" x="655.761719"/>
     <use xlink:href="#DejaVuSans-Bold-61" x="692.96875"/>
     <use xlink:href="#DejaVuSans-Bold-6e" x="760.449219"/>
     <use xlink:href="#DejaVuSans-Bold-20" x="831.640625"/>
     <use xlink:href="#DejaVuSans-Bold-4d" x="866.455078"/>
     <use xlink:href="#DejaVuSans-Bold-61" x="965.966797"/>
     <use xlink:href="#DejaVuSans-Bold-79" x="1030.322266"/>
     <use xlink:href="#DejaVuSans-Bold-65" x="1095.507812"/>
     <use xlink:href="#DejaVuSans-Bold-6e" x="1163.330078"/>
    </g>
   </g>
   <g id="legend_1">
    <g id="patch_5">
     <path d="M 597.903942 225.737875 
L 843.520192 225.737875 
Q 847.920192 225.737875 847.920192 221.337875 
L 847.920192 68.2 
Q 847.920192 63.8 843.520192 63.8 
L 597.903942 63.8 
Q 593.503942 63.8 593.503942 68.2 
L 593.503942 221.337875 
Q 593.503942 225.737875 597.903942 225.737875 
z
" style="fill: #ffffff; opacity: 0.6; stroke: #cccccc; stroke-linejoin: miter"/>
    </g>
    <g id="text_15">
     <!-- Global mean -->
     <g transform="translate(602.303942 89.316563)scale(0.22 -0.22)">
      <defs>
       <path id="DejaVuSans-47" d="M 3809 666 
L 3809 1919 
L 2778 1919 
L 2778 2438 
L 4434 2438 
L 4434 434 
Q 4069 175 3628 42 
Q 3188 -91 2688 -91 
Q 1594 -91 976 548 
Q 359 1188 359 2328 
Q 359 3472 976 4111 
Q 1594 4750 2688 4750 
Q 3144 4750 3555 4637 
Q 3966 4525 4313 4306 
L 4313 3634 
Q 3963 3931 3569 4081 
Q 3175 4231 2741 4231 
Q 1884 4231 1454 3753 
Q 1025 3275 1025 2328 
Q 1025 1384 1454 906 
Q 1884 428 2741 428 
Q 3075 428 3337 486 
Q 3600 544 3809 666 
z
" transform="scale(0.015625)"/>
       <path id="DejaVuSans-6c" d="M 603 4863 
L 1178 4863 
L 1178 0 
L 603 0 
L 603 4863 
z
" transform="scale(0.015625)"/>
       <path id="DejaVuSans-6f" d="M 1959 3097 
Q 1497 3097 1228 2736 
Q 959 2375 959 1747 
Q 959 1119 1226 758 
Q 1494 397 1959 397 
Q 2419 397 2687 759 
Q 2956 1122 2956 1747 
Q 2956 2369 2687 2733 
Q 2419 3097 1959 3097 
z
M 1959 3584 
Q 2709 3584 3137 3096 
Q 3566 2609 3566 1747 
Q 3566 888 3137 398 
Q 2709 -91 1959 -91 
Q 1206 -91 779 398 
Q 353 888 353 1747 
Q 353 2609 779 3096 
Q 1206 3584 1959 3584 
z
" transform="scale(0.015625)"/>
       <path id="DejaVuSans-62" d="M 3116 1747 
Q 3116 2381 2855 2742 
Q 2594 3103 2138 3103 
Q 1681 3103 1420 2742 
Q 1159 2381 1159 1747 
Q 1159 1113 1420 752 
Q 1681 391 2138 391 
Q 2594 391 2855 752 
Q 3116 1113 3116 1747 
z
M 1159 2969 
Q 1341 3281 1617 3432 
Q 1894 3584 2278 3584 
Q 2916 3584 3314 3078 
Q 3713 2572 3713 1747 
Q 3713 922 3314 415 
Q 2916 -91 2278 -91 
Q 1894 -91 1617 61 
Q 1341 213 1159 525 
L 1159 0 
L 581 0 
L 581 4863 
L 1159 4863 
L 1159 2969 
z
" transform="scale(0.015625)"/>
       <path id="DejaVuSans-61" d="M 2194 1759 
Q 1497 1759 1228 1600 
Q 959 1441 959 1056 
Q 959 750 1161 570 
Q 1363 391 1709 391 
Q 2188 391 2477 730 
Q 2766 1069 2766 1631 
L 2766 1759 
L 2194 1759 
z
M 3341 1997 
L 3341 0 
L 2766 0 
L 2766 531 
Q 2569 213 2275 61 
Q 1981 -91 1556 -91 
Q 1019 -91 701 211 
Q 384 513 384 1019 
Q 384 1609 779 1909 
Q 1175 2209 1959 2209 
L 2766 2209 
L 2766 2266 
Q 2766 2663 2505 2880 
Q 2244 3097 1772 3097 
Q 1472 3097 1187 3025 
Q 903 2953 641 2809 
L 641 3341 
Q 956 3463 1253 3523 
Q 1550 3584 1831 3584 
Q 2591 3584 2966 3190 
Q 3341 2797 3341 1997 
z
" transform="scale(0.015625)"/>
       <path id="DejaVuSans-20" transform="scale(0.015625)"/>
       <path id="DejaVuSans-6d" d="M 3328 2828 
Q 3544 3216 3844 3400 
Q 4144 3584 4550 3584 
Q 5097 3584 5394 3201 
Q 5691 2819 5691 2113 
L 5691 0 
L 5113 0 
L 5113 2094 
Q 5113 2597 4934 2840 
Q 4756 3084 4391 3084 
Q 3944 3084 3684 2787 
Q 3425 2491 3425 1978 
L 3425 0 
L 2847 0 
L 2847 2094 
Q 2847 2600 2669 2842 
Q 2491 3084 2119 3084 
Q 1678 3084 1418 2786 
Q 1159 2488 1159 1978 
L 1159 0 
L 581 0 
L 581 3500 
L 1159 3500 
L 1159 2956 
Q 1356 3278 1631 3431 
Q 1906 3584 2284 3584 
Q 2666 3584 2933 3390 
Q 3200 3197 3328 2828 
z
" transform="scale(0.015625)"/>
       <path id="DejaVuSans-65" d="M 3597 1894 
L 3597 1613 
L 953 1613 
Q 991 1019 1311 708 
Q 1631 397 2203 397 
Q 2534 397 2845 478 
Q 3156 559 3463 722 
L 3463 178 
Q 3153 47 2828 -22 
Q 2503 -91 2169 -91 
Q 1331 -91 842 396 
Q 353 884 353 1716 
Q 353 2575 817 3079 
Q 1281 3584 2069 3584 
Q 2775 3584 3186 3129 
Q 3597 2675 3597 1894 
z
M 3022 2063 
Q 3016 2534 2758 2815 
Q 2500 3097 2075 3097 
Q 1594 3097 1305 2825 
Q 1016 2553 972 2059 
L 3022 2063 
z
" transform="scale(0.015625)"/>
       <path id="DejaVuSans-6e" d="M 3513 2113 
L 3513 0 
L 2938 0 
L 2938 2094 
Q 2938 2591 2744 2837 
Q 2550 3084 2163 3084 
Q 1697 3084 1428 2787 
Q 1159 2491 1159 1978 
L 1159 0 
L 581 0 
L 581 3500 
L 1159 3500 
L 1159 2956 
Q 1366 3272 1645 3428 
Q 1925 3584 2291 3584 
Q 2894 3584 3203 3211 
Q 3513 2838 3513 2113 
z
" transform="scale(0.015625)"/>
      </defs>
      <use xlink:href="#DejaVuSans-47"/>
      <use xlink:href="#DejaVuSans-6c" x="77.490234"/>
      <use xlink:href="#DejaVuSans-6f" x="105.273438"/>
      <use xlink:href="#DejaVuSans-62" x="166.455078"/>
      <use xlink:href="#DejaVuSans-61" x="229.931641"/>
      <use xlink:href="#DejaVuSans-6c" x="291.210938"/>
      <use xlink:href="#DejaVuSans-20" x="318.994141"/>
      <use xlink:href="#DejaVuSans-6d" x="350.78125"/>
      <use xlink:href="#DejaVuSans-65" x="448.193359"/>
      <use xlink:href="#DejaVuSans-61" x="509.716797"/>
      <use xlink:href="#DejaVuSans-6e" x="570.996094"/>
     </g>
     <!-- temperature above -->
     <g transform="translate(602.303942 113.95175)scale(0.22 -0.22)">
      <defs>
       <path id="DejaVuSans-74" d="M 1172 4494 
L 1172 3500 
L 2356 3500 
L 2356 3053 
L 1172 3053 
L 1172 1153 
Q 1172 725 1289 603 
Q 1406 481 1766 481 
L 2356 481 
L 2356 0 
L 1766 0 
Q 1100 0 847 248 
Q 594 497 594 1153 
L 594 3053 
L 172 3053 
L 172 3500 
L 594 3500 
L 594 4494 
L 1172 4494 
z
" transform="scale(0.015625)"/>
       <path id="DejaVuSans-70" d="M 1159 525 
L 1159 -1331 
L 581 -1331 
L 581 3500 
L 1159 3500 
L 1159 2969 
Q 1341 3281 1617 3432 
Q 1894 3584 2278 3584 
Q 2916 3584 3314 3078 
Q 3713 2572 3713 1747 
Q 3713 922 3314 415 
Q 2916 -91 2278 -91 
Q 1894 -91 1617 61 
Q 1341 213 1159 525 
z
M 3116 1747 
Q 3116 2381 2855 2742 
Q 2594 3103 2138 3103 
Q 1681 3103 1420 2742 
Q 1159 2381 1159 1747 
Q 1159 1113 1420 752 
Q 1681 391 2138 391 
Q 2594 391 2855 752 
Q 3116 1113 3116 1747 
z
" transform="scale(0.015625)"/>
       <path id="DejaVuSans-72" d="M 2631 2963 
Q 2534 3019 2420 3045 
Q 2306 3072 2169 3072 
Q 1681 3072 1420 2755 
Q 1159 2438 1159 1844 
L 1159 0 
L 581 0 
L 581 3500 
L 1159 3500 
L 1159 2956 
Q 1341 3275 1631 3429 
Q 1922 3584 2338 3584 
Q 2397 3584 2469 3576 
Q 2541 3569 2628 3553 
L 2631 2963 
z
" transform="scale(0.015625)"/>
       <path id="DejaVuSans-75" d="M 544 1381 
L 544 3500 
L 1119 3500 
L 1119 1403 
Q 1119 906 1312 657 
Q 1506 409 1894 409 
Q 2359 409 2629 706 
Q 2900 1003 2900 1516 
L 2900 3500 
L 3475 3500 
L 3475 0 
L 2900 0 
L 2900 538 
Q 2691 219 2414 64 
Q 2138 -91 1772 -91 
Q 1169 -91 856 284 
Q 544 659 544 1381 
z
M 1991 3584 
L 1991 3584 
z
" transform="scale(0.015625)"/>
       <path id="DejaVuSans-76" d="M 191 3500 
L 800 3500 
L 1894 563 
L 2988 3500 
L 3597 3500 
L 2284 0 
L 1503 0 
L 191 3500 
z
" transform="scale(0.015625)"/>
      </defs>
      <use xlink:href="#DejaVuSans-74"/>
      <use xlink:href="#DejaVuSans-65" x="39.208984"/>
      <use xlink:href="#DejaVuSans-6d" x="100.732422"/>
      <use xlink:href="#DejaVuSans-70" x="198.144531"/>
      <use xlink:href="#DejaVuSans-65" x="261.621094"/>
      <use xlink:href="#DejaVuSans-72" x="323.144531"/>
      <use xlink:href="#DejaVuSans-61" x="364.257812"/>
      <use xlink:href="#DejaVuSans-74" x="425.537109"/>
      <use xlink:href="#DejaVuSans-75" x="464.746094"/>
      <use xlink:href="#DejaVuSans-72" x="528.125"/>
      <use xlink:href="#DejaVuSans-65" x="566.988281"/>
      <use xlink:href="#DejaVuSans-20" x="628.511719"/>
      <use xlink:href="#DejaVuSans-61" x="660.298828"/>
      <use xlink:href="#DejaVuSans-62" x="721.578125"/>
      <use xlink:href="#DejaVuSans-6f" x="785.054688"/>
      <use xlink:href="#DejaVuSans-76" x="846.236328"/>
      <use xlink:href="#DejaVuSans-65" x="905.416016"/>
     </g>
     <!-- pre-industrial in 2100 -->
     <g transform="translate(602.303942 138.586938)scale(0.22 -0.22)">
      <defs>
       <path id="DejaVuSans-2d" d="M 313 2009 
L 1997 2009 
L 1997 1497 
L 313 1497 
L 313 2009 
z
" transform="scale(0.015625)"/>
       <path id="DejaVuSans-69" d="M 603 3500 
L 1178 3500 
L 1178 0 
L 603 0 
L 603 3500 
z
M 603 4863 
L 1178 4863 
L 1178 4134 
L 603 4134 
L 603 4863 
z
" transform="scale(0.015625)"/>
       <path id="DejaVuSans-64" d="M 2906 2969 
L 2906 4863 
L 3481 4863 
L 3481 0 
L 2906 0 
L 2906 525 
Q 2725 213 2448 61 
Q 2172 -91 1784 -91 
Q 1150 -91 751 415 
Q 353 922 353 1747 
Q 353 2572 751 3078 
Q 1150 3584 1784 3584 
Q 2172 3584 2448 3432 
Q 2725 3281 2906 2969 
z
M 947 1747 
Q 947 1113 1208 752 
Q 1469 391 1925 391 
Q 2381 391 2643 752 
Q 2906 1113 2906 1747 
Q 2906 2381 2643 2742 
Q 2381 3103 1925 3103 
Q 1469 3103 1208 2742 
Q 947 2381 947 1747 
z
" transform="scale(0.015625)"/>
       <path id="DejaVuSans-73" d="M 2834 3397 
L 2834 2853 
Q 2591 2978 2328 3040 
Q 2066 3103 1784 3103 
Q 1356 3103 1142 2972 
Q 928 2841 928 2578 
Q 928 2378 1081 2264 
Q 1234 2150 1697 2047 
L 1894 2003 
Q 2506 1872 2764 1633 
Q 3022 1394 3022 966 
Q 3022 478 2636 193 
Q 2250 -91 1575 -91 
Q 1294 -91 989 -36 
Q 684 19 347 128 
L 347 722 
Q 666 556 975 473 
Q 1284 391 1588 391 
Q 1994 391 2212 530 
Q 2431 669 2431 922 
Q 2431 1156 2273 1281 
Q 2116 1406 1581 1522 
L 1381 1569 
Q 847 1681 609 1914 
Q 372 2147 372 2553 
Q 372 3047 722 3315 
Q 1072 3584 1716 3584 
Q 2034 3584 2315 3537 
Q 2597 3491 2834 3397 
z
" transform="scale(0.015625)"/>
      </defs>
      <use xlink:href="#DejaVuSans-70"/>
      <use xlink:href="#DejaVuSans-72" x="63.476562"/>
      <use xlink:href="#DejaVuSans-65" x="102.339844"/>
      <use xlink:href="#DejaVuSans-2d" x="163.863281"/>
      <use xlink:href="#DejaVuSans-69" x="199.947266"/>
      <use xlink:href="#DejaVuSans-6e" x="227.730469"/>
      <use xlink:href="#DejaVuSans-64" x="291.109375"/>
      <use xlink:href="#DejaVuSans-75" x="354.585938"/>
      <use xlink:href="#DejaVuSans-73" x="417.964844"/>
      <use xlink:href="#DejaVuSans-74" x="470.064453"/>
      <use xlink:href="#DejaVuSans-72" x="509.273438"/>
      <use xlink:href="#DejaVuSans-69" x="550.386719"/>
      <use xlink:href="#DejaVuSans-61" x="578.169922"/>
      <use xlink:href="#DejaVuSans-6c" x="639.449219"/>
      <use xlink:href="#DejaVuSans-20" x="667.232422"/>
      <use xlink:href="#DejaVuSans-69" x="699.019531"/>
      <use xlink:href="#DejaVuSans-6e" x="726.802734"/>
      <use xlink:href="#DejaVuSans-20" x="790.181641"/>
      <use xlink:href="#DejaVuSans-32" x="821.96875"/>
      <use xlink:href="#DejaVuSans-31" x="885.591797"/>
      <use xlink:href="#DejaVuSans-30" x="949.214844"/>
      <use xlink:href="#DejaVuSans-30" x="1012.837891"/>
     </g>
    </g>
    <g id="line2d_18">
     <path d="M 616.971755 155.478813 
L 638.971755 155.478813 
L 660.971755 155.478813 
" style="fill: none; stroke: #74b8f8; stroke-opacity: 0.5; stroke-width: 6; stroke-linecap: square"/>
    </g>
    <g id="text_16">
     <!-- 1.5C (n=2) -->
     <g transform="translate(678.571755 163.178813)scale(0.22 -0.22)">
      <defs>
       <path id="DejaVuSans-2e" d="M 684 794 
L 1344 794 
L 1344 0 
L 684 0 
L 684 794 
z
" transform="scale(0.015625)"/>
       <path id="DejaVuSans-35" d="M 691 4666 
L 3169 4666 
L 3169 4134 
L 1269 4134 
L 1269 2991 
Q 1406 3038 1543 3061 
Q 1681 3084 1819 3084 
Q 2600 3084 3056 2656 
Q 3513 2228 3513 1497 
Q 3513 744 3044 326 
Q 2575 -91 1722 -91 
Q 1428 -91 1123 -41 
Q 819 9 494 109 
L 494 744 
Q 775 591 1075 516 
Q 1375 441 1709 441 
Q 2250 441 2565 725 
Q 2881 1009 2881 1497 
Q 2881 1984 2565 2268 
Q 2250 2553 1709 2553 
Q 1456 2553 1204 2497 
Q 953 2441 691 2322 
L 691 4666 
z
" transform="scale(0.015625)"/>
       <path id="DejaVuSans-b0" d="M 1600 4347 
Q 1350 4347 1178 4173 
Q 1006 4000 1006 3750 
Q 1006 3503 1178 3333 
Q 1350 3163 1600 3163 
Q 1850 3163 2022 3333 
Q 2194 3503 2194 3750 
Q 2194 3997 2020 4172 
Q 1847 4347 1600 4347 
z
M 1600 4750 
Q 1800 4750 1984 4673 
Q 2169 4597 2303 4453 
Q 2447 4313 2519 4134 
Q 2591 3956 2591 3750 
Q 2591 3338 2302 3052 
Q 2013 2766 1594 2766 
Q 1172 2766 890 3047 
Q 609 3328 609 3750 
Q 609 4169 896 4459 
Q 1184 4750 1600 4750 
z
" transform="scale(0.015625)"/>
       <path id="DejaVuSans-43" d="M 4122 4306 
L 4122 3641 
Q 3803 3938 3442 4084 
Q 3081 4231 2675 4231 
Q 1875 4231 1450 3742 
Q 1025 3253 1025 2328 
Q 1025 1406 1450 917 
Q 1875 428 2675 428 
Q 3081 428 3442 575 
Q 3803 722 4122 1019 
L 4122 359 
Q 3791 134 3420 21 
Q 3050 -91 2638 -91 
Q 1578 -91 968 557 
Q 359 1206 359 2328 
Q 359 3453 968 4101 
Q 1578 4750 2638 4750 
Q 3056 4750 3426 4639 
Q 3797 4528 4122 4306 
z
" transform="scale(0.015625)"/>
       <path id="DejaVuSans-28" d="M 1984 4856 
Q 1566 4138 1362 3434 
Q 1159 2731 1159 2009 
Q 1159 1288 1364 580 
Q 1569 -128 1984 -844 
L 1484 -844 
Q 1016 -109 783 600 
Q 550 1309 550 2009 
Q 550 2706 781 3412 
Q 1013 4119 1484 4856 
L 1984 4856 
z
" transform="scale(0.015625)"/>
       <path id="DejaVuSans-3d" d="M 678 2906 
L 4684 2906 
L 4684 2381 
L 678 2381 
L 678 2906 
z
M 678 1631 
L 4684 1631 
L 4684 1100 
L 678 1100 
L 678 1631 
z
" transform="scale(0.015625)"/>
       <path id="DejaVuSans-29" d="M 513 4856 
L 1013 4856 
Q 1481 4119 1714 3412 
Q 1947 2706 1947 2009 
Q 1947 1309 1714 600 
Q 1481 -109 1013 -844 
L 513 -844 
Q 928 -128 1133 580 
Q 1338 1288 1338 2009 
Q 1338 2731 1133 3434 
Q 928 4138 513 4856 
z
" transform="scale(0.015625)"/>
      </defs>
      <use xlink:href="#DejaVuSans-31"/>
      <use xlink:href="#DejaVuSans-2e" x="63.623047"/>
      <use xlink:href="#DejaVuSans-35" x="95.410156"/>
      <use xlink:href="#DejaVuSans-b0" x="159.033203"/>
      <use xlink:href="#DejaVuSans-43" x="209.033203"/>
      <use xlink:href="#DejaVuSans-20" x="278.857422"/>
      <use xlink:href="#DejaVuSans-28" x="310.644531"/>
      <use xlink:href="#DejaVuSans-6e" x="349.658203"/>
      <use xlink:href="#DejaVuSans-3d" x="413.037109"/>
      <use xlink:href="#DejaVuSans-32" x="496.826172"/>
      <use xlink:href="#DejaVuSans-29" x="560.449219"/>
     </g>
    </g>
    <g id="line2d_19">
     <path d="M 616.971755 180.070688 
L 638.971755 180.070688 
L 660.971755 180.070688 
" style="fill: none; stroke: #f47100; stroke-opacity: 0.5; stroke-width: 6; stroke-linecap: square"/>
    </g>
    <g id="text_17">
     <!-- 2.2C (n=14) -->
     <g transform="translate(678.571755 187.770688)scale(0.22 -0.22)">
      <use xlink:href="#DejaVuSans-32"/>
      <use xlink:href="#DejaVuSans-2e" x="63.623047"/>
      <use xlink:href="#DejaVuSans-32" x="95.410156"/>
      <use xlink:href="#DejaVuSans-b0" x="159.033203"/>
      <use xlink:href="#DejaVuSans-43" x="209.033203"/>
      <use xlink:href="#DejaVuSans-20" x="278.857422"/>
      <use xlink:href="#DejaVuSans-28" x="310.644531"/>
      <use xlink:href="#DejaVuSans-6e" x="349.658203"/>
      <use xlink:href="#DejaVuSans-3d" x="413.037109"/>
      <use xlink:href="#DejaVuSans-31" x="496.826172"/>
      <use xlink:href="#DejaVuSans-34" x="560.449219"/>
      <use xlink:href="#DejaVuSans-29" x="624.072266"/>
     </g>
    </g>
    <g id="line2d_20">
     <path d="M 616.971755 204.662563 
L 638.971755 204.662563 
L 660.971755 204.662563 
" style="fill: none; stroke: #d01e04; stroke-opacity: 0.5; stroke-width: 6; stroke-linecap: square"/>
    </g>
    <g id="text_18">
     <!-- 2.8C (n=12) -->
     <g transform="translate(678.571755 212.362563)scale(0.22 -0.22)">
      <use xlink:href="#DejaVuSans-32"/>
      <use xlink:href="#DejaVuSans-2e" x="63.623047"/>
      <use xlink:href="#DejaVuSans-38" x="95.410156"/>
      <use xlink:href="#DejaVuSans-b0" x="159.033203"/>
      <use xlink:href="#DejaVuSans-43" x="209.033203"/>
      <use xlink:href="#DejaVuSans-20" x="278.857422"/>
      <use xlink:href="#DejaVuSans-28" x="310.644531"/>
      <use xlink:href="#DejaVuSans-6e" x="349.658203"/>
      <use xlink:href="#DejaVuSans-3d" x="413.037109"/>
      <use xlink:href="#DejaVuSans-31" x="496.826172"/>
      <use xlink:href="#DejaVuSans-32" x="560.449219"/>
      <use xlink:href="#DejaVuSans-29" x="624.072266"/>
     </g>
    </g>
   </g>
  </g>
 </g>
 <defs>
  <clipPath id="pee36b1268b">
   <rect x="109.64" y="52.8" width="749.280192" height="462.76"/>
  </clipPath>
 </defs>
</svg>
