<?xml version="1.0" encoding="utf-8" standalone="no"?>
<!DOCTYPE svg PUBLIC "-//W3C//DTD SVG 1.1//EN"
  "http://www.w3.org/Graphics/SVG/1.1/DTD/svg11.dtd">
<svg xmlns:xlink="http://www.w3.org/1999/xlink" width="900pt" height="600pt" viewBox="0 0 900 600" xmlns="http://www.w3.org/2000/svg" version="1.1">
 <metadata>
  <rdf:RDF xmlns:dc="http://purl.org/dc/elements/1.1/" xmlns:cc="http://creativecommons.org/ns#" xmlns:rdf="http://www.w3.org/1999/02/22-rdf-syntax-ns#">
   <cc:Work>
    <dc:type rdf:resource="http://purl.org/dc/dcmitype/StillImage"/>
    <dc:date>2024-10-31T18:28:29.525359</dc:date>
    <dc:format>image/svg+xml</dc:format>
    <dc:creator>
     <cc:Agent>
      <dc:title>Matplotlib v3.5.3, https://matplotlib.org/</dc:title>
     </cc:Agent>
    </dc:creator>
   </cc:Work>
  </rdf:RDF>
 </metadata>
 <defs>
  <style type="text/css">*{stroke-linejoin: round; stroke-linecap: butt}</style>
 </defs>
 <g id="figure_1">
  <g id="patch_1">
   <path d="M 0 600 
L 900 600 
L 900 0 
L 0 0 
z
" style="fill: #ffffff"/>
  </g>
  <g id="axes_1">
   <g id="patch_2">
    <path d="M 109.64 515.56 
L 858.920192 515.56 
L 858.920192 52.8 
L 109.64 52.8 
z
" style="fill: #ffffff"/>
   </g>
   <g id="PolyCollection_1">
    <defs>
     <path id="mefbdea5e40" d="M 167.276938 -453.597655 
L 167.276938 -453.490846 
L 169.678477 -452.329636 
L 172.080016 -451.138011 
L 174.481555 -449.92342 
L 176.883094 -448.705206 
L 179.284633 -447.473656 
L 181.686172 -446.22099 
L 184.087711 -444.96674 
L 186.48925 -443.696287 
L 188.89079 -442.386333 
L 191.292329 -441.055357 
L 193.693868 -439.714363 
L 196.095407 -438.373578 
L 198.496946 -437.038427 
L 200.898485 -435.691363 
L 203.300024 -434.298225 
L 205.701563 -432.886684 
L 208.103102 -431.463787 
L 210.504641 -430.05581 
L 212.90618 -428.675227 
L 215.307719 -427.292387 
L 217.709259 -425.922223 
L 220.110798 -424.567908 
L 222.512337 -423.224511 
L 224.913876 -421.876339 
L 227.315415 -420.527956 
L 229.716954 -419.199202 
L 232.118493 -417.882432 
L 234.520032 -416.598236 
L 236.921571 -415.360572 
L 239.32311 -414.147448 
L 241.724649 -412.928479 
L 244.126188 -411.718096 
L 246.527727 -410.508637 
L 248.929267 -409.316885 
L 251.330806 -408.177431 
L 253.732345 -407.06613 
L 256.133884 -405.988459 
L 258.535423 -404.90313 
L 260.936962 -403.823043 
L 263.338501 -402.762074 
L 265.74004 -401.707134 
L 268.141579 -400.668829 
L 270.543118 -399.644784 
L 272.944657 -398.634285 
L 275.346196 -397.627783 
L 277.747735 -396.620594 
L 280.149275 -395.618945 
L 282.550814 -394.621908 
L 284.952353 -393.633334 
L 287.353892 -392.645914 
L 289.755431 -391.683703 
L 292.15697 -390.744265 
L 294.558509 -389.821977 
L 296.960048 -388.905688 
L 299.361587 -388.007471 
L 301.763126 -387.111824 
L 304.164665 -386.209191 
L 306.566204 -385.349446 
L 308.967743 -384.521436 
L 311.369283 -383.700823 
L 313.770822 -382.887709 
L 316.172361 -382.092453 
L 318.5739 -381.31407 
L 320.975439 -380.553075 
L 323.376978 -379.81345 
L 325.778517 -379.100083 
L 328.180056 -378.387126 
L 330.581595 -377.672823 
L 332.983134 -376.95691 
L 335.384673 -376.255861 
L 337.786212 -375.564162 
L 340.187751 -374.87174 
L 342.589291 -374.196156 
L 344.99083 -373.528851 
L 347.392369 -372.845391 
L 349.793908 -372.177608 
L 352.195447 -371.52622 
L 354.596986 -370.854856 
L 356.998525 -370.173243 
L 359.400064 -369.488761 
L 361.801603 -368.805474 
L 364.203142 -368.123137 
L 366.604681 -367.445673 
L 369.00622 -366.766359 
L 371.407759 -366.096474 
L 373.809299 -365.423946 
L 376.210838 -364.761889 
L 378.612377 -364.101095 
L 381.013916 -363.441664 
L 383.415455 -362.796813 
L 385.816994 -362.167655 
L 388.218533 -361.546753 
L 390.620072 -360.925 
L 393.021611 -360.329513 
L 395.42315 -359.749228 
L 397.824689 -359.17481 
L 400.226228 -358.604795 
L 402.627768 -358.049491 
L 405.029307 -357.495875 
L 407.430846 -356.951478 
L 409.832385 -356.408271 
L 412.233924 -355.872275 
L 414.635463 -355.330198 
L 417.037002 -354.789287 
L 419.438541 -354.257746 
L 421.84008 -353.73478 
L 424.241619 -353.217603 
L 426.643158 -352.7066 
L 429.044697 -352.207716 
L 431.446236 -351.709403 
L 433.847776 -351.206356 
L 436.249315 -350.71178 
L 438.650854 -350.220018 
L 441.052393 -349.722943 
L 443.453932 -349.232869 
L 445.855471 -348.745482 
L 448.25701 -348.269809 
L 450.658549 -347.808346 
L 453.060088 -347.353366 
L 455.461627 -346.905805 
L 457.863166 -346.466272 
L 460.264705 -346.031433 
L 462.666244 -345.599935 
L 465.067784 -345.177422 
L 467.469323 -344.754048 
L 469.870862 -344.334778 
L 472.272401 -343.934343 
L 474.67394 -343.555335 
L 477.075479 -343.185816 
L 479.477018 -342.815406 
L 481.878557 -342.451378 
L 484.280096 -342.089096 
L 486.681635 -341.721334 
L 489.083174 -341.35688 
L 491.484713 -340.997523 
L 493.886252 -340.633598 
L 496.287792 -340.268779 
L 498.689331 -339.904403 
L 501.09087 -339.548329 
L 503.492409 -339.198078 
L 505.893948 -338.857636 
L 508.295487 -338.514199 
L 510.697026 -338.179597 
L 513.098565 -337.84919 
L 515.500104 -337.515604 
L 517.901643 -337.184953 
L 520.303182 -336.845159 
L 522.704721 -336.507842 
L 525.10626 -336.168154 
L 527.5078 -335.828285 
L 529.909339 -335.490136 
L 532.310878 -335.16557 
L 534.712417 -334.854281 
L 537.113956 -334.552058 
L 539.515495 -334.249671 
L 541.917034 -333.954855 
L 544.318573 -333.663138 
L 546.720112 -333.373347 
L 549.121651 -333.087804 
L 551.52319 -332.804576 
L 553.924729 -332.523407 
L 556.326268 -332.248075 
L 558.727808 -331.976386 
L 561.129347 -331.70319 
L 563.530886 -331.440292 
L 565.932425 -331.177301 
L 568.333964 -330.921453 
L 570.735503 -330.670576 
L 573.137042 -330.427242 
L 575.538581 -330.190204 
L 577.94012 -329.962616 
L 580.341659 -329.730343 
L 582.743198 -329.504806 
L 585.144737 -329.280294 
L 587.546277 -329.05719 
L 589.947816 -328.837187 
L 592.349355 -328.623847 
L 594.750894 -328.416544 
L 597.152433 -328.215716 
L 599.553972 -328.017816 
L 601.955511 -327.813037 
L 604.35705 -327.605914 
L 606.758589 -327.399888 
L 609.160128 -327.20678 
L 611.561667 -327.016238 
L 613.963206 -326.833339 
L 616.364745 -326.643301 
L 618.766285 -326.450746 
L 621.167824 -326.246774 
L 623.569363 -326.037071 
L 625.970902 -325.828975 
L 628.372441 -325.622676 
L 630.77398 -325.411025 
L 633.175519 -325.195941 
L 635.577058 -324.987293 
L 637.978597 -324.779013 
L 640.380136 -324.578478 
L 642.781675 -324.38465 
L 645.183214 -324.193766 
L 647.584753 -324.013286 
L 649.986293 -323.845126 
L 652.387832 -323.69345 
L 654.789371 -323.558867 
L 657.19091 -323.419393 
L 659.592449 -323.28068 
L 661.993988 -323.135855 
L 664.395527 -322.989132 
L 666.797066 -322.841198 
L 669.198605 -322.702824 
L 671.600144 -322.569228 
L 674.001683 -322.438171 
L 676.403222 -322.304764 
L 678.804761 -322.174118 
L 681.206301 -322.039418 
L 683.60784 -321.908618 
L 686.009379 -321.780553 
L 688.410918 -321.643143 
L 690.812457 -321.499101 
L 693.213996 -321.355249 
L 695.615535 -321.201585 
L 698.017074 -321.048249 
L 700.418613 -320.887024 
L 702.820152 -320.723624 
L 705.221691 -320.565259 
L 707.62323 -320.412947 
L 710.024769 -320.264352 
L 712.426309 -320.129172 
L 714.827848 -319.990279 
L 717.229387 -319.847183 
L 719.630926 -319.702534 
L 722.032465 -319.557551 
L 724.434004 -319.409057 
L 726.835543 -319.2641 
L 729.237082 -319.138162 
L 731.638621 -319.016497 
L 734.04016 -318.902893 
L 736.441699 -318.793345 
L 738.843238 -318.678743 
L 741.244777 -318.556897 
L 743.646317 -318.431174 
L 746.047856 -318.297617 
L 748.449395 -318.152772 
L 750.850934 -317.998517 
L 753.252473 -317.8475 
L 755.654012 -317.701127 
L 758.055551 -317.56036 
L 760.45709 -317.415708 
L 762.858629 -317.275228 
L 765.260168 -317.135976 
L 767.661707 -316.998518 
L 770.063246 -316.859731 
L 772.464786 -316.72298 
L 774.866325 -316.590013 
L 777.267864 -316.452797 
L 779.669403 -316.309773 
L 782.070942 -316.162295 
L 784.472481 -316.021613 
L 786.87402 -315.884252 
L 789.275559 -315.752802 
L 791.677098 -315.629345 
L 794.078637 -315.507886 
L 796.480176 -315.401256 
L 798.881715 -315.298598 
L 801.283254 -315.19383 
L 803.684794 -315.085692 
L 806.086333 -314.971574 
L 808.487872 -314.853313 
L 810.889411 -314.734309 
L 813.29095 -314.610145 
L 815.692489 -314.492002 
L 818.094028 -314.441333 
L 820.495567 -314.395608 
L 822.897106 -314.343689 
L 825.298645 -314.283942 
L 827.700184 -314.226351 
L 830.101723 -314.172122 
L 832.503262 -314.107687 
L 834.904802 -314.050453 
L 837.306341 -313.993452 
L 837.306341 -331.296338 
L 837.306341 -331.296338 
L 834.904802 -331.31342 
L 832.503262 -331.326131 
L 830.101723 -331.344044 
L 827.700184 -331.349683 
L 825.298645 -331.365291 
L 822.897106 -331.380401 
L 820.495567 -331.381217 
L 818.094028 -331.373012 
L 815.692489 -331.368499 
L 813.29095 -331.392136 
L 810.889411 -331.422071 
L 808.487872 -331.443686 
L 806.086333 -331.462201 
L 803.684794 -331.474483 
L 801.283254 -331.473803 
L 798.881715 -331.464384 
L 796.480176 -331.449654 
L 794.078637 -331.437766 
L 791.677098 -331.441543 
L 789.275559 -331.450485 
L 786.87402 -331.469908 
L 784.472481 -331.500314 
L 782.070942 -331.539445 
L 779.669403 -331.584753 
L 777.267864 -331.615495 
L 774.866325 -331.638669 
L 772.464786 -331.65847 
L 770.063246 -331.682437 
L 767.661707 -331.715322 
L 765.260168 -331.74522 
L 762.858629 -331.782124 
L 760.45709 -331.821247 
L 758.055551 -331.867769 
L 755.654012 -331.911495 
L 753.252473 -331.96543 
L 750.850934 -332.025891 
L 748.449395 -332.088445 
L 746.047856 -332.138052 
L 743.646317 -332.179654 
L 741.244777 -332.207185 
L 738.843238 -332.23228 
L 736.441699 -332.247338 
L 734.04016 -332.252011 
L 731.638621 -332.262443 
L 729.237082 -332.288482 
L 726.835543 -332.324091 
L 724.434004 -332.382868 
L 722.032465 -332.447329 
L 719.630926 -332.506005 
L 717.229387 -332.564586 
L 714.827848 -332.618086 
L 712.426309 -332.665949 
L 710.024769 -332.707422 
L 707.62323 -332.766233 
L 705.221691 -332.830454 
L 702.820152 -332.906384 
L 700.418613 -332.988913 
L 698.017074 -333.06711 
L 695.615535 -333.130763 
L 693.213996 -333.192841 
L 690.812457 -333.238759 
L 688.410918 -333.286283 
L 686.009379 -333.321124 
L 683.60784 -333.342812 
L 681.206301 -333.366938 
L 678.804761 -333.393349 
L 676.403222 -333.415362 
L 674.001683 -333.43649 
L 671.600144 -333.449461 
L 669.198605 -333.465805 
L 666.797066 -333.487583 
L 664.395527 -333.515297 
L 661.993988 -333.540493 
L 659.592449 -333.557141 
L 657.19091 -333.561836 
L 654.789371 -333.564867 
L 652.387832 -333.563 
L 649.986293 -333.587847 
L 647.584753 -333.632971 
L 645.183214 -333.691408 
L 642.781675 -333.765808 
L 640.380136 -333.841388 
L 637.978597 -333.92885 
L 635.577058 -334.025936 
L 633.175519 -334.122399 
L 630.77398 -334.230489 
L 628.372441 -334.334749 
L 625.970902 -334.438156 
L 623.569363 -334.54656 
L 621.167824 -334.656689 
L 618.766285 -334.759525 
L 616.364745 -334.855675 
L 613.963206 -334.950661 
L 611.561667 -335.04086 
L 609.160128 -335.143122 
L 606.758589 -335.252019 
L 604.35705 -335.375692 
L 601.955511 -335.49781 
L 599.553972 -335.618493 
L 597.152433 -335.733228 
L 594.750894 -335.848964 
L 592.349355 -335.973152 
L 589.947816 -336.10638 
L 587.546277 -336.248148 
L 585.144737 -336.390427 
L 582.743198 -336.531094 
L 580.341659 -336.673757 
L 577.94012 -336.822719 
L 575.538581 -336.963811 
L 573.137042 -337.115452 
L 570.735503 -337.270226 
L 568.333964 -337.432139 
L 565.932425 -337.599049 
L 563.530886 -337.775171 
L 561.129347 -337.949083 
L 558.727808 -338.128456 
L 556.326268 -338.307571 
L 553.924729 -338.487101 
L 551.52319 -338.675145 
L 549.121651 -338.867147 
L 546.720112 -339.065256 
L 544.318573 -339.266825 
L 541.917034 -339.470103 
L 539.515495 -339.675842 
L 537.113956 -339.896831 
L 534.712417 -340.116757 
L 532.310878 -340.348089 
L 529.909339 -340.592229 
L 527.5078 -340.85601 
L 525.10626 -341.125083 
L 522.704721 -341.400332 
L 520.303182 -341.6714 
L 517.901643 -341.946483 
L 515.500104 -342.20743 
L 513.098565 -342.471254 
L 510.697026 -342.736737 
L 508.295487 -343.005303 
L 505.893948 -343.285062 
L 503.492409 -343.559356 
L 501.09087 -343.842555 
L 498.689331 -344.132607 
L 496.287792 -344.432297 
L 493.886252 -344.735611 
L 491.484713 -345.04251 
L 489.083174 -345.339825 
L 486.681635 -345.644867 
L 484.280096 -345.955543 
L 481.878557 -346.26569 
L 479.477018 -346.579024 
L 477.075479 -346.899763 
L 474.67394 -347.21991 
L 472.272401 -347.548866 
L 469.870862 -347.905761 
L 467.469323 -348.288254 
L 465.067784 -348.68098 
L 462.666244 -349.070776 
L 460.264705 -349.473749 
L 457.863166 -349.884051 
L 455.461627 -350.301628 
L 453.060088 -350.729562 
L 450.658549 -351.159552 
L 448.25701 -351.595701 
L 445.855471 -352.046856 
L 443.453932 -352.509864 
L 441.052393 -352.974896 
L 438.650854 -353.443982 
L 436.249315 -353.903337 
L 433.847776 -354.363132 
L 431.446236 -354.831376 
L 429.044697 -355.287881 
L 426.643158 -355.743611 
L 424.241619 -356.219447 
L 421.84008 -356.703333 
L 419.438541 -357.191536 
L 417.037002 -357.686149 
L 414.635463 -358.187651 
L 412.233924 -358.686846 
L 409.832385 -359.175476 
L 407.430846 -359.673536 
L 405.029307 -360.177402 
L 402.627768 -360.697768 
L 400.226228 -361.22177 
L 397.824689 -361.759379 
L 395.42315 -362.303165 
L 393.021611 -362.858408 
L 390.620072 -363.431868 
L 388.218533 -364.039299 
L 385.816994 -364.646766 
L 383.415455 -365.261928 
L 381.013916 -365.903193 
L 378.612377 -366.561603 
L 376.210838 -367.219519 
L 373.809299 -367.875656 
L 371.407759 -368.545986 
L 369.00622 -369.215893 
L 366.604681 -369.900832 
L 364.203142 -370.585644 
L 361.801603 -371.276164 
L 359.400064 -371.96414 
L 356.998525 -372.650828 
L 354.596986 -373.332337 
L 352.195447 -373.995093 
L 349.793908 -374.63346 
L 347.392369 -375.283576 
L 344.99083 -375.944987 
L 342.589291 -376.587895 
L 340.187751 -377.239371 
L 337.786212 -377.904451 
L 335.384673 -378.569377 
L 332.983134 -379.238616 
L 330.581595 -379.919158 
L 328.180056 -380.595629 
L 325.778517 -381.27124 
L 323.376978 -381.944099 
L 320.975439 -382.642197 
L 318.5739 -383.359968 
L 316.172361 -384.092948 
L 313.770822 -384.841502 
L 311.369283 -385.611765 
L 308.967743 -386.391584 
L 306.566204 -387.180884 
L 304.164665 -388.008023 
L 301.763126 -388.885136 
L 299.361587 -389.754366 
L 296.960048 -390.632246 
L 294.558509 -391.530346 
L 292.15697 -392.429688 
L 289.755431 -393.348468 
L 287.353892 -394.288504 
L 284.952353 -395.252322 
L 282.550814 -396.218888 
L 280.149275 -397.191203 
L 277.747735 -398.162582 
L 275.346196 -399.137925 
L 272.944657 -400.107174 
L 270.543118 -401.084925 
L 268.141579 -402.077789 
L 265.74004 -403.090012 
L 263.338501 -404.120267 
L 260.936962 -405.1493 
L 258.535423 -406.201087 
L 256.133884 -407.260416 
L 253.732345 -408.306806 
L 251.330806 -409.391468 
L 248.929267 -410.505916 
L 246.527727 -411.672443 
L 244.126188 -412.857363 
L 241.724649 -414.048118 
L 239.32311 -415.247193 
L 236.921571 -416.443677 
L 234.520032 -417.668612 
L 232.118493 -418.942411 
L 229.716954 -420.252703 
L 227.315415 -421.573608 
L 224.913876 -422.916345 
L 222.512337 -424.257347 
L 220.110798 -425.598565 
L 217.709259 -426.947665 
L 215.307719 -428.311668 
L 212.90618 -429.691313 
L 210.504641 -431.061554 
L 208.103102 -432.458063 
L 205.701563 -433.870999 
L 203.300024 -435.268433 
L 200.898485 -436.638835 
L 198.496946 -437.958227 
L 196.095407 -439.262137 
L 193.693868 -440.564955 
L 191.292329 -441.864298 
L 188.89079 -443.148319 
L 186.48925 -444.41162 
L 184.087711 -445.629007 
L 181.686172 -446.825239 
L 179.284633 -448.021529 
L 176.883094 -449.19026 
L 174.481555 -450.324644 
L 172.080016 -451.445758 
L 169.678477 -452.538878 
L 167.276938 -453.597655 
z
" style="stroke: #74b8f8; stroke-opacity: 0.2"/>
    </defs>
    <g clip-path="url(#pfdbe6e7cdb)">
     <use xlink:href="#mefbdea5e40" x="0" y="600" style="fill: #74b8f8; fill-opacity: 0.2; stroke: #74b8f8; stroke-opacity: 0.2"/>
    </g>
   </g>
   <g id="PolyCollection_2">
    <defs>
     <path id="m38e4745a76" d="M 116.844617 -469.461011 
L 116.844617 -468.140718 
L 119.246156 -467.734205 
L 121.647695 -467.315564 
L 124.049234 -466.892059 
L 126.450774 -466.467421 
L 128.852313 -466.039663 
L 131.253852 -465.627365 
L 133.655391 -465.215661 
L 136.05693 -464.79061 
L 138.458469 -464.353659 
L 140.860008 -463.924014 
L 143.261547 -463.107373 
L 145.663086 -462.257451 
L 148.064625 -461.37466 
L 150.466164 -460.477079 
L 152.867703 -459.560618 
L 155.269242 -458.633865 
L 157.670782 -457.680398 
L 160.072321 -456.704286 
L 162.47386 -455.70332 
L 164.875399 -454.648 
L 164.875399 -454.648 
L 164.875399 -454.648 
L 162.47386 -455.799142 
L 160.072321 -456.893572 
L 157.670782 -457.961458 
L 155.269242 -459.005914 
L 152.867703 -460.023124 
L 150.466164 -461.03703 
L 148.064625 -462.026287 
L 145.663086 -462.997942 
L 143.261547 -463.938685 
L 140.860008 -464.854765 
L 138.458469 -465.342094 
L 136.05693 -465.832688 
L 133.655391 -466.311845 
L 131.253852 -466.780718 
L 128.852313 -467.24499 
L 126.450774 -467.705519 
L 124.049234 -468.158332 
L 121.647695 -468.603247 
L 119.246156 -469.043202 
L 116.844617 -469.461011 
z
" style="stroke: #000000; stroke-opacity: 0.2"/>
    </defs>
    <g clip-path="url(#pfdbe6e7cdb)">
     <use xlink:href="#m38e4745a76" x="0" y="600" style="fill-opacity: 0.2; stroke: #000000; stroke-opacity: 0.2"/>
    </g>
   </g>
   <g id="PolyCollection_3">
    <defs>
     <path id="m839644e618" d="M 167.276938 -453.565032 
L 167.276938 -453.406948 
L 169.678477 -452.160889 
L 172.080016 -450.901893 
L 174.481555 -449.617526 
L 176.883094 -448.318702 
L 179.284633 -447.007062 
L 181.686172 -445.659893 
L 184.087711 -444.297742 
L 186.48925 -442.916051 
L 188.89079 -441.512367 
L 191.292329 -440.074006 
L 193.693868 -438.619717 
L 196.095407 -437.149515 
L 198.496946 -435.561221 
L 200.898485 -433.921333 
L 203.300024 -432.404139 
L 205.701563 -430.891144 
L 208.103102 -429.358054 
L 210.504641 -427.755636 
L 212.90618 -426.134556 
L 215.307719 -424.491483 
L 217.709259 -422.834182 
L 220.110798 -421.163246 
L 222.512337 -419.467512 
L 224.913876 -417.719296 
L 227.315415 -416.001101 
L 229.716954 -414.288211 
L 232.118493 -412.566169 
L 234.520032 -410.763219 
L 236.921571 -408.881871 
L 239.32311 -406.996511 
L 241.724649 -405.102828 
L 244.126188 -403.216274 
L 246.527727 -401.357664 
L 248.929267 -399.484439 
L 251.330806 -397.623517 
L 253.732345 -395.762026 
L 256.133884 -393.8973 
L 258.535423 -392.037919 
L 260.936962 -390.186573 
L 263.338501 -388.469291 
L 265.74004 -386.752753 
L 268.141579 -385.023847 
L 270.543118 -383.289027 
L 272.944657 -381.557258 
L 275.346196 -379.813786 
L 277.747735 -378.077995 
L 280.149275 -376.347786 
L 282.550814 -374.625349 
L 284.952353 -372.913982 
L 287.353892 -371.235775 
L 289.755431 -369.547889 
L 292.15697 -367.864154 
L 294.558509 -366.170761 
L 296.960048 -364.504796 
L 299.361587 -362.854371 
L 301.763126 -361.23384 
L 304.164665 -359.636491 
L 306.566204 -358.050744 
L 308.967743 -356.467198 
L 311.369283 -354.8813 
L 313.770822 -353.320692 
L 316.172361 -351.787864 
L 318.5739 -350.366007 
L 320.975439 -348.954073 
L 323.376978 -347.555807 
L 325.778517 -346.17318 
L 328.180056 -344.7915 
L 330.581595 -343.416321 
L 332.983134 -342.046295 
L 335.384673 -340.699917 
L 337.786212 -339.371213 
L 340.187751 -338.044009 
L 342.589291 -336.713244 
L 344.99083 -335.376761 
L 347.392369 -334.034347 
L 349.793908 -332.697567 
L 352.195447 -331.355104 
L 354.596986 -330.020944 
L 356.998525 -328.688609 
L 359.400064 -327.372705 
L 361.801603 -326.067535 
L 364.203142 -324.782378 
L 366.604681 -323.52332 
L 369.00622 -322.285245 
L 371.407759 -321.058624 
L 373.809299 -319.837477 
L 376.210838 -318.6216 
L 378.612377 -317.427656 
L 381.013916 -316.253192 
L 383.415455 -315.080366 
L 385.816994 -313.909086 
L 388.218533 -312.759355 
L 390.620072 -311.626309 
L 393.021611 -310.525241 
L 395.42315 -309.43689 
L 397.824689 -308.358801 
L 400.226228 -307.372028 
L 402.627768 -306.378081 
L 405.029307 -305.394544 
L 407.430846 -304.418096 
L 409.832385 -303.459685 
L 412.233924 -302.504873 
L 414.635463 -301.542678 
L 417.037002 -300.587008 
L 419.438541 -299.651234 
L 421.84008 -298.704861 
L 424.241619 -297.760851 
L 426.643158 -296.820971 
L 429.044697 -295.909734 
L 431.446236 -294.999174 
L 433.847776 -294.104702 
L 436.249315 -293.215434 
L 438.650854 -292.33541 
L 441.052393 -291.464106 
L 443.453932 -290.6117 
L 445.855471 -289.771743 
L 448.25701 -288.949885 
L 450.658549 -288.156045 
L 453.060088 -287.370751 
L 455.461627 -286.604035 
L 457.863166 -285.85928 
L 460.264705 -285.142699 
L 462.666244 -284.447847 
L 465.067784 -283.767406 
L 467.469323 -283.087563 
L 469.870862 -282.362719 
L 472.272401 -281.611669 
L 474.67394 -280.871306 
L 477.075479 -280.140555 
L 479.477018 -279.408593 
L 481.878557 -278.680699 
L 484.280096 -277.962642 
L 486.681635 -277.256504 
L 489.083174 -276.557596 
L 491.484713 -275.868592 
L 493.886252 -275.178824 
L 496.287792 -274.488585 
L 498.689331 -273.795296 
L 501.09087 -273.101523 
L 503.492409 -272.406792 
L 505.893948 -271.717618 
L 508.295487 -271.024034 
L 510.697026 -270.332449 
L 513.098565 -269.651221 
L 515.500104 -268.977956 
L 517.901643 -268.312199 
L 520.303182 -267.656885 
L 522.704721 -267.004633 
L 525.10626 -266.357972 
L 527.5078 -265.694458 
L 529.909339 -264.995699 
L 532.310878 -264.302216 
L 534.712417 -263.610941 
L 537.113956 -262.927505 
L 539.515495 -262.252974 
L 541.917034 -261.583306 
L 544.318573 -260.925785 
L 546.720112 -260.279138 
L 549.121651 -259.639586 
L 551.52319 -259.007804 
L 553.924729 -258.385703 
L 556.326268 -257.779977 
L 558.727808 -257.168795 
L 561.129347 -256.560345 
L 563.530886 -255.957925 
L 565.932425 -255.352924 
L 568.333964 -254.743116 
L 570.735503 -254.138485 
L 573.137042 -253.54756 
L 575.538581 -252.958163 
L 577.94012 -252.371352 
L 580.341659 -251.781086 
L 582.743198 -251.19188 
L 585.144737 -250.60588 
L 587.546277 -250.017122 
L 589.947816 -249.419384 
L 592.349355 -248.820556 
L 594.750894 -248.226219 
L 597.152433 -247.638198 
L 599.553972 -247.052168 
L 601.955511 -246.467108 
L 604.35705 -245.878849 
L 606.758589 -245.298876 
L 609.160128 -244.734453 
L 611.561667 -244.174269 
L 613.963206 -243.623613 
L 616.364745 -243.086908 
L 618.766285 -242.549156 
L 621.167824 -242.013894 
L 623.569363 -241.475923 
L 625.970902 -240.941025 
L 628.372441 -240.473942 
L 630.77398 -240.049578 
L 633.175519 -239.629606 
L 635.577058 -239.210316 
L 637.978597 -238.793965 
L 640.380136 -238.374826 
L 642.781675 -237.952918 
L 645.183214 -237.528627 
L 647.584753 -237.108268 
L 649.986293 -236.69041 
L 652.387832 -236.275252 
L 654.789371 -235.868449 
L 657.19091 -235.459647 
L 659.592449 -235.048526 
L 661.993988 -234.638419 
L 664.395527 -234.229385 
L 666.797066 -233.828152 
L 669.198605 -233.429648 
L 671.600144 -233.033419 
L 674.001683 -232.633676 
L 676.403222 -232.234343 
L 678.804761 -231.840885 
L 681.206301 -231.451677 
L 683.60784 -231.073724 
L 686.009379 -230.703225 
L 688.410918 -230.338825 
L 690.812457 -229.982222 
L 693.213996 -229.588693 
L 695.615535 -229.164588 
L 698.017074 -228.737228 
L 700.418613 -228.316979 
L 702.820152 -227.899579 
L 705.221691 -227.495067 
L 707.62323 -227.087572 
L 710.024769 -226.679696 
L 712.426309 -226.27058 
L 714.827848 -225.863428 
L 717.229387 -225.456461 
L 719.630926 -225.057373 
L 722.032465 -224.662286 
L 724.434004 -224.263799 
L 726.835543 -223.873546 
L 729.237082 -223.479011 
L 731.638621 -223.081386 
L 734.04016 -222.686013 
L 736.441699 -222.297764 
L 738.843238 -221.907409 
L 741.244777 -221.518518 
L 743.646317 -221.134035 
L 746.047856 -220.754984 
L 748.449395 -220.376581 
L 750.850934 -219.997297 
L 753.252473 -219.611588 
L 755.654012 -219.234737 
L 758.055551 -218.865856 
L 760.45709 -218.505894 
L 762.858629 -218.143528 
L 765.260168 -217.789736 
L 767.661707 -217.445387 
L 770.063246 -217.112615 
L 772.464786 -216.788645 
L 774.866325 -216.467028 
L 777.267864 -216.150334 
L 779.669403 -215.841102 
L 782.070942 -215.535148 
L 784.472481 -215.22964 
L 786.87402 -214.938334 
L 789.275559 -214.650891 
L 791.677098 -214.364135 
L 794.078637 -214.071479 
L 796.480176 -213.789406 
L 798.881715 -213.508862 
L 801.283254 -213.229974 
L 803.684794 -212.954188 
L 806.086333 -212.671801 
L 808.487872 -212.38434 
L 810.889411 -212.098498 
L 813.29095 -211.808323 
L 815.692489 -211.509459 
L 818.094028 -211.361244 
L 820.495567 -211.211377 
L 822.897106 -211.059085 
L 825.298645 -210.910442 
L 827.700184 -210.764395 
L 830.101723 -210.615152 
L 832.503262 -210.4695 
L 834.904802 -210.315439 
L 837.306341 -210.162556 
L 837.306341 -259.892754 
L 837.306341 -259.892754 
L 834.904802 -259.969478 
L 832.503262 -260.051457 
L 830.101723 -260.126808 
L 827.700184 -260.198749 
L 825.298645 -260.281184 
L 822.897106 -260.354074 
L 820.495567 -260.425475 
L 818.094028 -260.492985 
L 815.692489 -260.565725 
L 813.29095 -260.806264 
L 810.889411 -261.047828 
L 808.487872 -261.287184 
L 806.086333 -261.52005 
L 803.684794 -261.747817 
L 801.283254 -261.976973 
L 798.881715 -262.216037 
L 796.480176 -262.451245 
L 794.078637 -262.686065 
L 791.677098 -262.927862 
L 789.275559 -263.168988 
L 786.87402 -263.40435 
L 784.472481 -263.638594 
L 782.070942 -263.870262 
L 779.669403 -264.101236 
L 777.267864 -264.32791 
L 774.866325 -264.55478 
L 772.464786 -264.782319 
L 770.063246 -265.006327 
L 767.661707 -265.240508 
L 765.260168 -265.467358 
L 762.858629 -265.698771 
L 760.45709 -265.935043 
L 758.055551 -266.171027 
L 755.654012 -266.418092 
L 753.252473 -266.677482 
L 750.850934 -266.9367 
L 748.449395 -267.209253 
L 746.047856 -267.494012 
L 743.646317 -267.78414 
L 741.244777 -268.07098 
L 738.843238 -268.369955 
L 736.441699 -268.674978 
L 734.04016 -268.996139 
L 731.638621 -269.325502 
L 729.237082 -269.657992 
L 726.835543 -269.994773 
L 724.434004 -270.333451 
L 722.032465 -270.68916 
L 719.630926 -271.047538 
L 717.229387 -271.409169 
L 714.827848 -271.766019 
L 712.426309 -272.126714 
L 710.024769 -272.494005 
L 707.62323 -272.849503 
L 705.221691 -273.193743 
L 702.820152 -273.537412 
L 700.418613 -273.879284 
L 698.017074 -274.217113 
L 695.615535 -274.539245 
L 693.213996 -274.885206 
L 690.812457 -275.231281 
L 688.410918 -275.569158 
L 686.009379 -275.900636 
L 683.60784 -276.230776 
L 681.206301 -276.578084 
L 678.804761 -276.92688 
L 676.403222 -277.278509 
L 674.001683 -277.614396 
L 671.600144 -277.959346 
L 669.198605 -278.302552 
L 666.797066 -278.662251 
L 664.395527 -279.017102 
L 661.993988 -279.372774 
L 659.592449 -279.744808 
L 657.19091 -280.127034 
L 654.789371 -280.510264 
L 652.387832 -280.895584 
L 649.986293 -281.289747 
L 647.584753 -281.690722 
L 645.183214 -282.080605 
L 642.781675 -282.475288 
L 640.380136 -282.883918 
L 637.978597 -283.304393 
L 635.577058 -283.731041 
L 633.175519 -284.156 
L 630.77398 -284.585108 
L 628.372441 -285.027261 
L 625.970902 -285.483438 
L 623.569363 -285.932998 
L 621.167824 -286.39029 
L 618.766285 -286.842838 
L 616.364745 -287.241842 
L 613.963206 -287.631393 
L 611.561667 -288.018023 
L 609.160128 -288.414049 
L 606.758589 -288.8137 
L 604.35705 -289.211734 
L 601.955511 -289.618392 
L 599.553972 -290.027411 
L 597.152433 -290.435893 
L 594.750894 -290.837527 
L 592.349355 -291.237482 
L 589.947816 -291.645267 
L 587.546277 -292.058428 
L 585.144737 -292.470308 
L 582.743198 -292.894213 
L 580.341659 -293.326216 
L 577.94012 -293.754935 
L 575.538581 -294.193886 
L 573.137042 -294.636265 
L 570.735503 -295.068083 
L 568.333964 -295.49925 
L 565.932425 -295.929878 
L 563.530886 -296.363693 
L 561.129347 -296.79566 
L 558.727808 -297.222227 
L 556.326268 -297.65157 
L 553.924729 -298.085712 
L 551.52319 -298.520258 
L 549.121651 -298.954729 
L 546.720112 -299.397402 
L 544.318573 -299.848084 
L 541.917034 -300.300503 
L 539.515495 -300.761837 
L 537.113956 -301.229704 
L 534.712417 -301.691944 
L 532.310878 -302.152715 
L 529.909339 -302.617317 
L 527.5078 -303.074262 
L 525.10626 -303.532995 
L 522.704721 -304.000178 
L 520.303182 -304.471332 
L 517.901643 -304.948789 
L 515.500104 -305.429656 
L 513.098565 -305.911682 
L 510.697026 -306.413815 
L 508.295487 -306.92014 
L 505.893948 -307.424242 
L 503.492409 -307.924028 
L 501.09087 -308.431507 
L 498.689331 -308.945096 
L 496.287792 -309.460278 
L 493.886252 -309.974986 
L 491.484713 -310.483582 
L 489.083174 -310.993486 
L 486.681635 -311.50883 
L 484.280096 -312.063416 
L 481.878557 -312.672173 
L 479.477018 -313.284151 
L 477.075479 -313.901496 
L 474.67394 -314.514199 
L 472.272401 -315.131607 
L 469.870862 -315.749797 
L 467.469323 -316.383256 
L 465.067784 -317.016875 
L 462.666244 -317.642386 
L 460.264705 -318.2728 
L 457.863166 -318.903515 
L 455.461627 -319.539712 
L 453.060088 -320.172096 
L 450.658549 -320.798568 
L 448.25701 -321.438612 
L 445.855471 -322.09136 
L 443.453932 -322.753895 
L 441.052393 -323.420554 
L 438.650854 -324.092852 
L 436.249315 -324.775848 
L 433.847776 -325.469925 
L 431.446236 -326.176662 
L 429.044697 -326.888764 
L 426.643158 -327.613293 
L 424.241619 -328.351522 
L 421.84008 -329.092512 
L 419.438541 -329.821589 
L 417.037002 -330.567234 
L 414.635463 -331.330011 
L 412.233924 -332.107396 
L 409.832385 -332.899966 
L 407.430846 -333.704511 
L 405.029307 -334.518481 
L 402.627768 -335.349616 
L 400.226228 -336.192433 
L 397.824689 -337.03678 
L 395.42315 -337.899374 
L 393.021611 -338.830673 
L 390.620072 -339.766242 
L 388.218533 -340.723622 
L 385.816994 -341.686532 
L 383.415455 -342.650751 
L 381.013916 -343.621692 
L 378.612377 -344.590728 
L 376.210838 -345.561834 
L 373.809299 -346.537693 
L 371.407759 -347.524276 
L 369.00622 -348.521359 
L 366.604681 -349.518114 
L 364.203142 -350.513276 
L 361.801603 -351.520005 
L 359.400064 -352.532968 
L 356.998525 -353.54722 
L 354.596986 -354.567768 
L 352.195447 -355.585599 
L 349.793908 -356.603873 
L 347.392369 -357.621742 
L 344.99083 -358.642398 
L 342.589291 -359.659351 
L 340.187751 -360.681699 
L 337.786212 -361.703835 
L 335.384673 -362.733538 
L 332.983134 -363.76921 
L 330.581595 -364.813239 
L 328.180056 -365.86906 
L 325.778517 -366.946166 
L 323.376978 -368.030252 
L 320.975439 -369.119118 
L 318.5739 -370.212217 
L 316.172361 -371.313375 
L 313.770822 -372.411136 
L 311.369283 -373.507341 
L 308.967743 -374.624269 
L 306.566204 -375.75137 
L 304.164665 -376.888429 
L 301.763126 -378.043615 
L 299.361587 -379.283831 
L 296.960048 -380.532312 
L 294.558509 -381.81459 
L 292.15697 -383.112622 
L 289.755431 -384.420244 
L 287.353892 -385.710054 
L 284.952353 -386.998623 
L 282.550814 -388.316496 
L 280.149275 -389.646829 
L 277.747735 -390.977232 
L 275.346196 -392.32696 
L 272.944657 -393.727007 
L 270.543118 -395.116331 
L 268.141579 -396.480169 
L 265.74004 -397.838122 
L 263.338501 -399.178156 
L 260.936962 -400.525965 
L 258.535423 -401.854687 
L 256.133884 -403.174382 
L 253.732345 -404.499783 
L 251.330806 -405.830635 
L 248.929267 -407.189381 
L 246.527727 -408.530342 
L 244.126188 -409.822964 
L 241.724649 -411.132514 
L 239.32311 -412.558164 
L 236.921571 -414.050041 
L 234.520032 -415.437145 
L 232.118493 -416.812806 
L 229.716954 -418.193233 
L 227.315415 -419.560138 
L 224.913876 -420.935136 
L 222.512337 -422.323566 
L 220.110798 -423.714107 
L 217.709259 -425.113676 
L 215.307719 -426.507465 
L 212.90618 -427.884148 
L 210.504641 -429.286476 
L 208.103102 -430.800191 
L 205.701563 -432.378236 
L 203.300024 -433.943913 
L 200.898485 -435.468244 
L 198.496946 -436.962567 
L 196.095407 -438.383818 
L 193.693868 -439.778732 
L 191.292329 -441.15997 
L 188.89079 -442.445808 
L 186.48925 -443.720885 
L 184.087711 -444.973391 
L 181.686172 -446.296476 
L 179.284633 -447.631801 
L 176.883094 -448.920737 
L 174.481555 -450.152607 
L 172.080016 -451.336539 
L 169.678477 -452.463258 
L 167.276938 -453.565032 
z
" style="stroke: #f47100; stroke-opacity: 0.2"/>
    </defs>
    <g clip-path="url(#pfdbe6e7cdb)">
     <use xlink:href="#m839644e618" x="0" y="600" style="fill: #f47100; fill-opacity: 0.2; stroke: #f47100; stroke-opacity: 0.2"/>
    </g>
   </g>
   <g id="PolyCollection_4">
    <defs>
     <path id="m37eb8db9ab" d="M 116.844617 -470.101699 
L 116.844617 -468.031619 
L 119.246156 -467.630199 
L 121.647695 -467.221645 
L 124.049234 -466.808241 
L 126.450774 -466.397081 
L 128.852313 -465.985107 
L 131.253852 -465.598255 
L 133.655391 -465.214616 
L 136.05693 -464.816084 
L 138.458469 -464.405399 
L 140.860008 -463.977811 
L 143.261547 -463.179952 
L 145.663086 -462.346001 
L 148.064625 -461.483682 
L 150.466164 -460.602127 
L 152.867703 -459.697293 
L 155.269242 -458.7477 
L 157.670782 -457.751109 
L 160.072321 -456.730388 
L 162.47386 -455.706479 
L 164.875399 -454.648 
L 164.875399 -454.648 
L 164.875399 -454.648 
L 162.47386 -455.84619 
L 160.072321 -457.006014 
L 157.670782 -458.14689 
L 155.269242 -459.249684 
L 152.867703 -460.306591 
L 150.466164 -461.342692 
L 148.064625 -462.363648 
L 145.663086 -463.370007 
L 143.261547 -464.349695 
L 140.860008 -465.305042 
L 138.458469 -465.794054 
L 136.05693 -466.28383 
L 133.655391 -466.774233 
L 131.253852 -467.255038 
L 128.852313 -467.736829 
L 126.450774 -468.221917 
L 124.049234 -468.704472 
L 121.647695 -469.180035 
L 119.246156 -469.645637 
L 116.844617 -470.101699 
z
" style="stroke: #000000; stroke-opacity: 0.2"/>
    </defs>
    <g clip-path="url(#pfdbe6e7cdb)">
     <use xlink:href="#m37eb8db9ab" x="0" y="600" style="fill-opacity: 0.2; stroke: #000000; stroke-opacity: 0.2"/>
    </g>
   </g>
   <g id="PolyCollection_5">
    <defs>
     <path id="mbbadd4b495" d="M 167.276938 -453.566932 
L 167.276938 -453.369879 
L 169.678477 -452.044657 
L 172.080016 -450.677494 
L 174.481555 -449.265219 
L 176.883094 -447.741625 
L 179.284633 -446.136808 
L 181.686172 -444.468788 
L 184.087711 -442.735078 
L 186.48925 -440.931186 
L 188.89079 -439.024255 
L 191.292329 -437.075765 
L 193.693868 -435.136353 
L 196.095407 -433.124081 
L 198.496946 -431.036961 
L 200.898485 -428.94676 
L 203.300024 -426.827588 
L 205.701563 -424.771232 
L 208.103102 -422.72478 
L 210.504641 -420.645751 
L 212.90618 -418.552883 
L 215.307719 -416.4571 
L 217.709259 -414.237171 
L 220.110798 -411.992647 
L 222.512337 -409.748465 
L 224.913876 -407.501637 
L 227.315415 -405.229988 
L 229.716954 -402.931941 
L 232.118493 -400.617361 
L 234.520032 -398.302264 
L 236.921571 -395.98683 
L 239.32311 -393.637872 
L 241.724649 -391.280636 
L 244.126188 -388.929541 
L 246.527727 -386.74414 
L 248.929267 -384.665879 
L 251.330806 -382.631915 
L 253.732345 -380.617327 
L 256.133884 -378.619768 
L 258.535423 -376.656382 
L 260.936962 -374.710338 
L 263.338501 -372.779341 
L 265.74004 -370.897759 
L 268.141579 -369.036594 
L 270.543118 -367.1877 
L 272.944657 -365.354485 
L 275.346196 -363.548768 
L 277.747735 -361.735844 
L 280.149275 -359.96877 
L 282.550814 -358.24404 
L 284.952353 -356.553475 
L 287.353892 -354.907758 
L 289.755431 -353.297698 
L 292.15697 -351.705778 
L 294.558509 -350.135275 
L 296.960048 -348.576171 
L 299.361587 -347.014218 
L 301.763126 -345.468967 
L 304.164665 -343.927398 
L 306.566204 -342.391367 
L 308.967743 -340.867432 
L 311.369283 -339.369627 
L 313.770822 -337.861717 
L 316.172361 -336.306753 
L 318.5739 -334.785805 
L 320.975439 -333.304075 
L 323.376978 -331.852494 
L 325.778517 -330.429646 
L 328.180056 -329.019897 
L 330.581595 -327.632997 
L 332.983134 -326.268741 
L 335.384673 -324.922137 
L 337.786212 -323.591579 
L 340.187751 -322.275423 
L 342.589291 -320.978512 
L 344.99083 -319.702157 
L 347.392369 -318.451629 
L 349.793908 -317.237544 
L 352.195447 -316.056569 
L 354.596986 -314.896933 
L 356.998525 -313.384524 
L 359.400064 -311.372633 
L 361.801603 -309.399116 
L 364.203142 -307.445563 
L 366.604681 -305.522596 
L 369.00622 -303.633882 
L 371.407759 -301.744406 
L 373.809299 -299.861517 
L 376.210838 -298.010028 
L 378.612377 -296.187177 
L 381.013916 -294.35718 
L 383.415455 -292.527904 
L 385.816994 -290.723473 
L 388.218533 -289.270433 
L 390.620072 -288.056366 
L 393.021611 -286.855471 
L 395.42315 -285.681104 
L 397.824689 -284.501836 
L 400.226228 -283.337013 
L 402.627768 -282.18733 
L 405.029307 -281.05312 
L 407.430846 -279.923898 
L 409.832385 -278.785808 
L 412.233924 -277.668405 
L 414.635463 -276.55875 
L 417.037002 -275.468121 
L 419.438541 -274.382965 
L 421.84008 -273.313504 
L 424.241619 -272.245682 
L 426.643158 -271.194771 
L 429.044697 -270.151939 
L 431.446236 -269.124805 
L 433.847776 -268.108536 
L 436.249315 -267.090618 
L 438.650854 -266.084392 
L 441.052393 -265.08723 
L 443.453932 -264.084238 
L 445.855471 -263.099795 
L 448.25701 -262.121876 
L 450.658549 -261.165313 
L 453.060088 -260.225946 
L 455.461627 -259.306993 
L 457.863166 -258.413044 
L 460.264705 -257.527038 
L 462.666244 -256.520715 
L 465.067784 -255.46185 
L 467.469323 -254.433435 
L 469.870862 -253.412132 
L 472.272401 -252.405024 
L 474.67394 -251.408826 
L 477.075479 -250.42725 
L 479.477018 -249.465417 
L 481.878557 -248.525756 
L 484.280096 -247.606511 
L 486.681635 -246.683777 
L 489.083174 -245.781508 
L 491.484713 -244.661815 
L 493.886252 -243.396522 
L 496.287792 -242.147801 
L 498.689331 -240.896122 
L 501.09087 -239.653416 
L 503.492409 -238.423267 
L 505.893948 -237.204777 
L 508.295487 -235.98649 
L 510.697026 -234.759637 
L 513.098565 -233.532068 
L 515.500104 -232.313039 
L 517.901643 -231.106818 
L 520.303182 -229.966511 
L 522.704721 -228.830744 
L 525.10626 -227.694221 
L 527.5078 -226.549873 
L 529.909339 -225.414072 
L 532.310878 -224.281287 
L 534.712417 -223.173926 
L 537.113956 -222.075501 
L 539.515495 -220.981885 
L 541.917034 -219.894454 
L 544.318573 -218.818535 
L 546.720112 -217.758835 
L 549.121651 -216.710684 
L 551.52319 -215.668521 
L 553.924729 -214.634602 
L 556.326268 -213.618672 
L 558.727808 -212.626613 
L 561.129347 -211.654265 
L 563.530886 -210.706453 
L 565.932425 -209.771045 
L 568.333964 -208.84446 
L 570.735503 -207.923017 
L 573.137042 -207.017885 
L 575.538581 -206.127837 
L 577.94012 -205.248394 
L 580.341659 -204.375541 
L 582.743198 -203.506556 
L 585.144737 -202.646826 
L 587.546277 -201.804883 
L 589.947816 -200.973804 
L 592.349355 -200.145718 
L 594.750894 -199.319356 
L 597.152433 -198.505676 
L 599.553972 -197.70938 
L 601.955511 -196.91412 
L 604.35705 -196.112055 
L 606.758589 -195.310124 
L 609.160128 -194.512322 
L 611.561667 -193.714358 
L 613.963206 -192.930349 
L 616.364745 -192.144477 
L 618.766285 -191.362822 
L 621.167824 -190.583036 
L 623.569363 -189.811114 
L 625.970902 -189.036825 
L 628.372441 -188.2709 
L 630.77398 -187.511465 
L 633.175519 -186.75488 
L 635.577058 -186.00389 
L 637.978597 -185.248844 
L 640.380136 -184.497731 
L 642.781675 -183.750529 
L 645.183214 -182.993193 
L 647.584753 -182.239652 
L 649.986293 -181.493004 
L 652.387832 -180.75173 
L 654.789371 -180.014866 
L 657.19091 -179.279469 
L 659.592449 -178.555148 
L 661.993988 -177.827491 
L 664.395527 -177.1082 
L 666.797066 -176.40694 
L 669.198605 -175.721987 
L 671.600144 -175.043708 
L 674.001683 -174.374905 
L 676.403222 -173.698882 
L 678.804761 -173.018403 
L 681.206301 -172.338858 
L 683.60784 -171.657343 
L 686.009379 -170.986919 
L 688.410918 -170.32538 
L 690.812457 -169.671193 
L 693.213996 -169.033161 
L 695.615535 -168.394569 
L 698.017074 -167.771111 
L 700.418613 -167.15911 
L 702.820152 -166.548892 
L 705.221691 -165.940244 
L 707.62323 -165.33037 
L 710.024769 -164.736306 
L 712.426309 -164.147097 
L 714.827848 -163.565467 
L 717.229387 -163.004422 
L 719.630926 -162.444235 
L 722.032465 -161.887241 
L 724.434004 -161.342467 
L 726.835543 -160.808613 
L 729.237082 -160.284102 
L 731.638621 -159.766606 
L 734.04016 -159.259084 
L 736.441699 -158.756492 
L 738.843238 -158.258723 
L 741.244777 -157.775835 
L 743.646317 -157.296387 
L 746.047856 -156.821918 
L 748.449395 -156.348196 
L 750.850934 -155.877446 
L 753.252473 -155.414294 
L 755.654012 -154.949187 
L 758.055551 -154.4849 
L 760.45709 -154.024864 
L 762.858629 -153.569801 
L 765.260168 -153.112565 
L 767.661707 -152.66102 
L 770.063246 -152.211954 
L 772.464786 -151.772195 
L 774.866325 -151.336546 
L 777.267864 -150.90419 
L 779.669403 -150.474597 
L 782.070942 -150.046851 
L 784.472481 -149.623824 
L 786.87402 -149.208715 
L 789.275559 -148.785901 
L 791.677098 -148.364711 
L 794.078637 -147.943069 
L 796.480176 -147.524128 
L 798.881715 -147.106739 
L 801.283254 -146.693881 
L 803.684794 -146.287959 
L 806.086333 -145.888853 
L 808.487872 -145.489166 
L 810.889411 -145.088219 
L 813.29095 -144.693705 
L 815.692489 -144.30153 
L 818.094028 -144.109888 
L 820.495567 -143.917594 
L 822.897106 -143.72371 
L 825.298645 -143.523519 
L 827.700184 -143.324937 
L 830.101723 -143.126459 
L 832.503262 -142.922064 
L 834.904802 -142.710172 
L 837.306341 -142.503737 
L 837.306341 -230.314802 
L 837.306341 -230.314802 
L 834.904802 -230.371603 
L 832.503262 -230.42324 
L 830.101723 -230.486344 
L 827.700184 -230.547955 
L 825.298645 -230.614311 
L 822.897106 -230.688949 
L 820.495567 -230.768111 
L 818.094028 -230.842516 
L 815.692489 -230.908756 
L 813.29095 -231.030904 
L 810.889411 -231.149813 
L 808.487872 -231.268931 
L 806.086333 -231.405779 
L 803.684794 -231.548199 
L 801.283254 -231.672512 
L 798.881715 -231.776832 
L 796.480176 -231.877825 
L 794.078637 -231.975458 
L 791.677098 -232.068851 
L 789.275559 -232.160194 
L 786.87402 -232.256635 
L 784.472481 -232.352614 
L 782.070942 -232.442061 
L 779.669403 -232.526155 
L 777.267864 -232.605979 
L 774.866325 -232.681152 
L 772.464786 -232.760506 
L 770.063246 -232.845951 
L 767.661707 -232.937769 
L 765.260168 -233.03787 
L 762.858629 -233.132101 
L 760.45709 -233.243251 
L 758.055551 -233.350484 
L 755.654012 -233.452726 
L 753.252473 -233.577453 
L 750.850934 -233.715316 
L 748.449395 -233.857327 
L 746.047856 -234.002756 
L 743.646317 -234.158022 
L 741.244777 -234.317944 
L 738.843238 -234.573644 
L 736.441699 -234.905624 
L 734.04016 -235.233722 
L 731.638621 -235.557579 
L 729.237082 -235.872648 
L 726.835543 -236.184467 
L 724.434004 -236.49286 
L 722.032465 -236.793301 
L 719.630926 -237.093103 
L 717.229387 -237.398102 
L 714.827848 -237.706915 
L 712.426309 -238.017082 
L 710.024769 -238.326554 
L 707.62323 -238.635112 
L 705.221691 -238.941346 
L 702.820152 -239.241025 
L 700.418613 -239.536791 
L 698.017074 -239.844503 
L 695.615535 -240.154096 
L 693.213996 -240.468325 
L 690.812457 -240.789019 
L 688.410918 -241.111536 
L 686.009379 -241.440995 
L 683.60784 -241.774668 
L 681.206301 -242.112646 
L 678.804761 -242.451577 
L 676.403222 -242.793313 
L 674.001683 -243.142629 
L 671.600144 -243.49404 
L 669.198605 -243.839683 
L 666.797066 -244.178786 
L 664.395527 -244.51661 
L 661.993988 -244.855809 
L 659.592449 -245.200626 
L 657.19091 -245.551398 
L 654.789371 -245.913368 
L 652.387832 -246.284131 
L 649.986293 -246.652621 
L 647.584753 -247.022633 
L 645.183214 -247.399006 
L 642.781675 -247.776333 
L 640.380136 -248.158727 
L 637.978597 -248.549193 
L 635.577058 -248.944586 
L 633.175519 -249.347119 
L 630.77398 -249.755352 
L 628.372441 -250.173118 
L 625.970902 -250.587953 
L 623.569363 -251.011611 
L 621.167824 -251.44298 
L 618.766285 -251.887825 
L 616.364745 -252.343677 
L 613.963206 -252.814651 
L 611.561667 -253.371064 
L 609.160128 -254.098941 
L 606.758589 -254.819173 
L 604.35705 -255.52428 
L 601.955511 -256.219453 
L 599.553972 -256.905831 
L 597.152433 -257.595877 
L 594.750894 -258.292085 
L 592.349355 -258.997358 
L 589.947816 -259.703466 
L 587.546277 -260.408459 
L 585.144737 -261.107776 
L 582.743198 -261.811301 
L 580.341659 -262.515163 
L 577.94012 -263.213118 
L 575.538581 -263.701576 
L 573.137042 -264.160509 
L 570.735503 -264.609183 
L 568.333964 -265.05596 
L 565.932425 -265.51212 
L 563.530886 -265.968186 
L 561.129347 -266.427349 
L 558.727808 -266.880007 
L 556.326268 -267.337679 
L 553.924729 -267.801766 
L 551.52319 -268.279482 
L 549.121651 -268.75342 
L 546.720112 -269.221853 
L 544.318573 -269.693079 
L 541.917034 -270.166381 
L 539.515495 -270.643391 
L 537.113956 -271.119706 
L 534.712417 -271.593513 
L 532.310878 -272.067989 
L 529.909339 -272.54011 
L 527.5078 -273.011303 
L 525.10626 -273.485776 
L 522.704721 -273.968991 
L 520.303182 -274.457702 
L 517.901643 -275.081938 
L 515.500104 -275.74118 
L 513.098565 -276.417797 
L 510.697026 -277.089592 
L 508.295487 -277.765276 
L 505.893948 -278.435657 
L 503.492409 -279.111674 
L 501.09087 -279.73493 
L 498.689331 -280.288845 
L 496.287792 -280.855434 
L 493.886252 -281.426198 
L 491.484713 -282.001603 
L 489.083174 -282.590752 
L 486.681635 -283.191913 
L 484.280096 -283.802648 
L 481.878557 -284.408516 
L 479.477018 -285.026544 
L 477.075479 -285.65778 
L 474.67394 -286.296823 
L 472.272401 -286.938127 
L 469.870862 -287.578031 
L 467.469323 -288.22464 
L 465.067784 -288.873765 
L 462.666244 -289.547279 
L 460.264705 -290.231347 
L 457.863166 -290.928975 
L 455.461627 -291.646702 
L 453.060088 -292.378419 
L 450.658549 -293.11531 
L 448.25701 -293.853454 
L 445.855471 -294.606866 
L 443.453932 -295.384129 
L 441.052393 -296.176816 
L 438.650854 -296.990826 
L 436.249315 -297.826959 
L 433.847776 -298.683218 
L 431.446236 -299.542476 
L 429.044697 -300.409735 
L 426.643158 -301.034021 
L 424.241619 -301.653353 
L 421.84008 -302.284954 
L 419.438541 -302.929142 
L 417.037002 -303.572326 
L 414.635463 -304.214896 
L 412.233924 -304.878759 
L 409.832385 -305.549584 
L 407.430846 -306.251733 
L 405.029307 -307.659555 
L 402.627768 -309.066886 
L 400.226228 -310.489427 
L 397.824689 -311.911322 
L 395.42315 -313.337806 
L 393.021611 -314.760232 
L 390.620072 -316.184816 
L 388.218533 -317.60273 
L 385.816994 -319.024865 
L 383.415455 -320.46464 
L 381.013916 -321.915064 
L 378.612377 -323.322324 
L 376.210838 -324.574817 
L 373.809299 -325.840923 
L 371.407759 -327.134925 
L 369.00622 -328.447098 
L 366.604681 -329.78799 
L 364.203142 -331.145563 
L 361.801603 -332.518192 
L 359.400064 -333.905182 
L 356.998525 -335.313583 
L 354.596986 -336.72986 
L 352.195447 -338.139937 
L 349.793908 -339.550545 
L 347.392369 -340.95594 
L 344.99083 -342.364418 
L 342.589291 -343.774178 
L 340.187751 -345.190681 
L 337.786212 -346.610933 
L 335.384673 -348.027029 
L 332.983134 -349.459474 
L 330.581595 -350.915352 
L 328.180056 -352.379285 
L 325.778517 -353.842247 
L 323.376978 -355.280344 
L 320.975439 -356.703663 
L 318.5739 -358.118725 
L 316.172361 -359.51544 
L 313.770822 -360.803699 
L 311.369283 -362.055938 
L 308.967743 -363.80075 
L 306.566204 -365.694435 
L 304.164665 -367.584181 
L 301.763126 -369.465586 
L 299.361587 -371.32769 
L 296.960048 -373.186557 
L 294.558509 -375.034241 
L 292.15697 -376.862578 
L 289.755431 -378.692053 
L 287.353892 -380.516684 
L 284.952353 -382.281022 
L 282.550814 -383.747271 
L 280.149275 -385.209022 
L 277.747735 -386.668599 
L 275.346196 -388.154826 
L 272.944657 -389.543551 
L 270.543118 -390.941493 
L 268.141579 -392.378572 
L 265.74004 -393.844129 
L 263.338501 -395.331109 
L 260.936962 -396.846556 
L 258.535423 -398.395911 
L 256.133884 -399.957207 
L 253.732345 -401.541534 
L 251.330806 -403.127437 
L 248.929267 -404.725646 
L 246.527727 -406.401882 
L 244.126188 -408.179456 
L 241.724649 -409.930188 
L 239.32311 -411.708141 
L 236.921571 -413.452083 
L 234.520032 -415.171875 
L 232.118493 -416.853103 
L 229.716954 -418.51391 
L 227.315415 -420.141796 
L 224.913876 -421.740434 
L 222.512337 -423.320285 
L 220.110798 -424.91603 
L 217.709259 -426.493347 
L 215.307719 -428.037035 
L 212.90618 -429.55018 
L 210.504641 -430.994227 
L 208.103102 -432.417779 
L 205.701563 -433.809492 
L 203.300024 -435.171813 
L 200.898485 -436.581664 
L 198.496946 -437.971693 
L 196.095407 -439.31836 
L 193.693868 -440.637299 
L 191.292329 -441.929352 
L 188.89079 -443.161575 
L 186.48925 -444.364374 
L 184.087711 -445.520471 
L 181.686172 -446.662512 
L 179.284633 -447.836634 
L 176.883094 -448.999356 
L 174.481555 -450.158505 
L 172.080016 -451.292213 
L 169.678477 -452.442879 
L 167.276938 -453.566932 
z
" style="stroke: #d01e04; stroke-opacity: 0.2"/>
    </defs>
    <g clip-path="url(#pfdbe6e7cdb)">
     <use xlink:href="#mbbadd4b495" x="0" y="600" style="fill: #d01e04; fill-opacity: 0.2; stroke: #d01e04; stroke-opacity: 0.2"/>
    </g>
   </g>
   <g id="PolyCollection_6">
    <defs>
     <path id="me3f001b30b" d="M 116.844617 -469.951236 
L 116.844617 -468.121402 
L 119.246156 -467.781371 
L 121.647695 -467.372656 
L 124.049234 -466.959089 
L 126.450774 -466.547766 
L 128.852313 -466.13563 
L 131.253852 -465.748626 
L 133.655391 -465.364835 
L 136.05693 -464.941578 
L 138.458469 -464.46762 
L 140.860008 -464.000782 
L 143.261547 -463.204624 
L 145.663086 -462.37794 
L 148.064625 -461.503588 
L 150.466164 -460.602481 
L 152.867703 -459.681147 
L 155.269242 -458.727395 
L 157.670782 -457.735035 
L 160.072321 -456.735895 
L 162.47386 -455.698446 
L 164.875399 -454.648 
L 164.875399 -454.648 
L 164.875399 -454.648 
L 162.47386 -455.881281 
L 160.072321 -457.084077 
L 157.670782 -458.241909 
L 155.269242 -459.373501 
L 152.867703 -460.467653 
L 150.466164 -461.535687 
L 148.064625 -462.582504 
L 145.663086 -463.592529 
L 143.261547 -464.575086 
L 140.860008 -465.518912 
L 138.458469 -466.023 
L 136.05693 -466.534751 
L 133.655391 -467.043052 
L 131.253852 -467.52564 
L 128.852313 -467.989967 
L 126.450774 -468.445738 
L 124.049234 -468.880154 
L 121.647695 -469.284606 
L 119.246156 -469.623178 
L 116.844617 -469.951236 
z
" style="stroke: #000000; stroke-opacity: 0.2"/>
    </defs>
    <g clip-path="url(#pfdbe6e7cdb)">
     <use xlink:href="#me3f001b30b" x="0" y="600" style="fill-opacity: 0.2; stroke: #000000; stroke-opacity: 0.2"/>
    </g>
   </g>
   <g id="matplotlib.axis_1">
    <g id="xtick_1">
     <g id="line2d_1">
      <defs>
       <path id="m535f2b03bb" d="M 0 0 
L 0 3.5 
" style="stroke: #000000; stroke-width: 0.8"/>
      </defs>
      <g>
       <use xlink:href="#m535f2b03bb" x="164.875399" y="515.56" style="stroke: #000000; stroke-width: 0.8"/>
      </g>
     </g>
     <g id="text_1">
      <!-- 2020 -->
      <g transform="translate(131.790399 542.315938)scale(0.26 -0.26)">
       <defs>
        <path id="DejaVuSans-32" d="M 1228 531 
L 3431 531 
L 3431 0 
L 469 0 
L 469 531 
Q 828 903 1448 1529 
Q 2069 2156 2228 2338 
Q 2531 2678 2651 2914 
Q 2772 3150 2772 3378 
Q 2772 3750 2511 3984 
Q 2250 4219 1831 4219 
Q 1534 4219 1204 4116 
Q 875 4013 500 3803 
L 500 4441 
Q 881 4594 1212 4672 
Q 1544 4750 1819 4750 
Q 2544 4750 2975 4387 
Q 3406 4025 3406 3419 
Q 3406 3131 3298 2873 
Q 3191 2616 2906 2266 
Q 2828 2175 2409 1742 
Q 1991 1309 1228 531 
z
" transform="scale(0.015625)"/>
        <path id="DejaVuSans-30" d="M 2034 4250 
Q 1547 4250 1301 3770 
Q 1056 3291 1056 2328 
Q 1056 1369 1301 889 
Q 1547 409 2034 409 
Q 2525 409 2770 889 
Q 3016 1369 3016 2328 
Q 3016 3291 2770 3770 
Q 2525 4250 2034 4250 
z
M 2034 4750 
Q 2819 4750 3233 4129 
Q 3647 3509 3647 2328 
Q 3647 1150 3233 529 
Q 2819 -91 2034 -91 
Q 1250 -91 836 529 
Q 422 1150 422 2328 
Q 422 3509 836 4129 
Q 1250 4750 2034 4750 
z
" transform="scale(0.015625)"/>
       </defs>
       <use xlink:href="#DejaVuSans-32"/>
       <use xlink:href="#DejaVuSans-30" x="63.623047"/>
       <use xlink:href="#DejaVuSans-32" x="127.246094"/>
       <use xlink:href="#DejaVuSans-30" x="190.869141"/>
      </g>
     </g>
    </g>
    <g id="xtick_2">
     <g id="line2d_2">
      <g>
       <use xlink:href="#m535f2b03bb" x="356.998525" y="515.56" style="stroke: #000000; stroke-width: 0.8"/>
      </g>
     </g>
     <g id="text_2">
      <!-- 2100 -->
      <g transform="translate(323.913525 542.315938)scale(0.26 -0.26)">
       <defs>
        <path id="DejaVuSans-31" d="M 794 531 
L 1825 531 
L 1825 4091 
L 703 3866 
L 703 4441 
L 1819 4666 
L 2450 4666 
L 2450 531 
L 3481 531 
L 3481 0 
L 794 0 
L 794 531 
z
" transform="scale(0.015625)"/>
       </defs>
       <use xlink:href="#DejaVuSans-32"/>
       <use xlink:href="#DejaVuSans-31" x="63.623047"/>
       <use xlink:href="#DejaVuSans-30" x="127.246094"/>
       <use xlink:href="#DejaVuSans-30" x="190.869141"/>
      </g>
     </g>
    </g>
    <g id="xtick_3">
     <g id="line2d_3">
      <g>
       <use xlink:href="#m535f2b03bb" x="597.152433" y="515.56" style="stroke: #000000; stroke-width: 0.8"/>
      </g>
     </g>
     <g id="text_3">
      <!-- 2200 -->
      <g transform="translate(564.067433 542.315938)scale(0.26 -0.26)">
       <use xlink:href="#DejaVuSans-32"/>
       <use xlink:href="#DejaVuSans-32" x="63.623047"/>
       <use xlink:href="#DejaVuSans-30" x="127.246094"/>
       <use xlink:href="#DejaVuSans-30" x="190.869141"/>
      </g>
     </g>
    </g>
    <g id="xtick_4">
     <g id="line2d_4">
      <g>
       <use xlink:href="#m535f2b03bb" x="837.306341" y="515.56" style="stroke: #000000; stroke-width: 0.8"/>
      </g>
     </g>
     <g id="text_4">
      <!-- 2300 -->
      <g transform="translate(804.221341 542.315938)scale(0.26 -0.26)">
       <defs>
        <path id="DejaVuSans-33" d="M 2597 2516 
Q 3050 2419 3304 2112 
Q 3559 1806 3559 1356 
Q 3559 666 3084 287 
Q 2609 -91 1734 -91 
Q 1441 -91 1130 -33 
Q 819 25 488 141 
L 488 750 
Q 750 597 1062 519 
Q 1375 441 1716 441 
Q 2309 441 2620 675 
Q 2931 909 2931 1356 
Q 2931 1769 2642 2001 
Q 2353 2234 1838 2234 
L 1294 2234 
L 1294 2753 
L 1863 2753 
Q 2328 2753 2575 2939 
Q 2822 3125 2822 3475 
Q 2822 3834 2567 4026 
Q 2313 4219 1838 4219 
Q 1578 4219 1281 4162 
Q 984 4106 628 3988 
L 628 4550 
Q 988 4650 1302 4700 
Q 1616 4750 1894 4750 
Q 2613 4750 3031 4423 
Q 3450 4097 3450 3541 
Q 3450 3153 3228 2886 
Q 3006 2619 2597 2516 
z
" transform="scale(0.015625)"/>
       </defs>
       <use xlink:href="#DejaVuSans-32"/>
       <use xlink:href="#DejaVuSans-33" x="63.623047"/>
       <use xlink:href="#DejaVuSans-30" x="127.246094"/>
       <use xlink:href="#DejaVuSans-30" x="190.869141"/>
      </g>
     </g>
    </g>
    <g id="text_5">
     <!-- Year -->
     <g transform="translate(457.010409 568.439687)scale(0.22 -0.22)">
      <defs>
       <path id="DejaVuSans-Bold-59" d="M -63 4666 
L 1253 4666 
L 2316 3003 
L 3378 4666 
L 4697 4666 
L 2919 1966 
L 2919 0 
L 1716 0 
L 1716 1966 
L -63 4666 
z
" transform="scale(0.015625)"/>
       <path id="DejaVuSans-Bold-65" d="M 4031 1759 
L 4031 1441 
L 1416 1441 
Q 1456 1047 1700 850 
Q 1944 653 2381 653 
Q 2734 653 3104 758 
Q 3475 863 3866 1075 
L 3866 213 
Q 3469 63 3072 -14 
Q 2675 -91 2278 -91 
Q 1328 -91 801 392 
Q 275 875 275 1747 
Q 275 2603 792 3093 
Q 1309 3584 2216 3584 
Q 3041 3584 3536 3087 
Q 4031 2591 4031 1759 
z
M 2881 2131 
Q 2881 2450 2695 2645 
Q 2509 2841 2209 2841 
Q 1884 2841 1681 2658 
Q 1478 2475 1428 2131 
L 2881 2131 
z
" transform="scale(0.015625)"/>
       <path id="DejaVuSans-Bold-61" d="M 2106 1575 
Q 1756 1575 1579 1456 
Q 1403 1338 1403 1106 
Q 1403 894 1545 773 
Q 1688 653 1941 653 
Q 2256 653 2472 879 
Q 2688 1106 2688 1447 
L 2688 1575 
L 2106 1575 
z
M 3816 1997 
L 3816 0 
L 2688 0 
L 2688 519 
Q 2463 200 2181 54 
Q 1900 -91 1497 -91 
Q 953 -91 614 226 
Q 275 544 275 1050 
Q 275 1666 698 1953 
Q 1122 2241 2028 2241 
L 2688 2241 
L 2688 2328 
Q 2688 2594 2478 2717 
Q 2269 2841 1825 2841 
Q 1466 2841 1156 2769 
Q 847 2697 581 2553 
L 581 3406 
Q 941 3494 1303 3539 
Q 1666 3584 2028 3584 
Q 2975 3584 3395 3211 
Q 3816 2838 3816 1997 
z
" transform="scale(0.015625)"/>
       <path id="DejaVuSans-Bold-72" d="M 3138 2547 
Q 2991 2616 2845 2648 
Q 2700 2681 2553 2681 
Q 2122 2681 1889 2404 
Q 1656 2128 1656 1613 
L 1656 0 
L 538 0 
L 538 3500 
L 1656 3500 
L 1656 2925 
Q 1872 3269 2151 3426 
Q 2431 3584 2822 3584 
Q 2878 3584 2943 3579 
Q 3009 3575 3134 3559 
L 3138 2547 
z
" transform="scale(0.015625)"/>
      </defs>
      <use xlink:href="#DejaVuSans-Bold-59"/>
      <use xlink:href="#DejaVuSans-Bold-65" x="63.287109"/>
      <use xlink:href="#DejaVuSans-Bold-61" x="131.109375"/>
      <use xlink:href="#DejaVuSans-Bold-72" x="198.589844"/>
     </g>
    </g>
   </g>
   <g id="matplotlib.axis_2">
    <g id="ytick_1">
     <g id="line2d_5">
      <defs>
       <path id="mf58ed2465a" d="M 0 0 
L -3.5 0 
" style="stroke: #000000; stroke-width: 0.8"/>
      </defs>
      <g>
       <use xlink:href="#mf58ed2465a" x="109.64" y="515.56" style="stroke: #000000; stroke-width: 0.8"/>
      </g>
     </g>
     <g id="text_6">
      <!-- 0 -->
      <g transform="translate(86.0975 525.437969)scale(0.26 -0.26)">
       <use xlink:href="#DejaVuSans-30"/>
      </g>
     </g>
    </g>
    <g id="ytick_2">
     <g id="line2d_6">
      <g>
       <use xlink:href="#mf58ed2465a" x="109.64" y="441.5184" style="stroke: #000000; stroke-width: 0.8"/>
      </g>
     </g>
     <g id="text_7">
      <!-- 20 -->
      <g transform="translate(69.555 451.396369)scale(0.26 -0.26)">
       <use xlink:href="#DejaVuSans-32"/>
       <use xlink:href="#DejaVuSans-30" x="63.623047"/>
      </g>
     </g>
    </g>
    <g id="ytick_3">
     <g id="line2d_7">
      <g>
       <use xlink:href="#mf58ed2465a" x="109.64" y="367.4768" style="stroke: #000000; stroke-width: 0.8"/>
      </g>
     </g>
     <g id="text_8">
      <!-- 40 -->
      <g transform="translate(69.555 377.354769)scale(0.26 -0.26)">
       <defs>
        <path id="DejaVuSans-34" d="M 2419 4116 
L 825 1625 
L 2419 1625 
L 2419 4116 
z
M 2253 4666 
L 3047 4666 
L 3047 1625 
L 3713 1625 
L 3713 1100 
L 3047 1100 
L 3047 0 
L 2419 0 
L 2419 1100 
L 313 1100 
L 313 1709 
L 2253 4666 
z
" transform="scale(0.015625)"/>
       </defs>
       <use xlink:href="#DejaVuSans-34"/>
       <use xlink:href="#DejaVuSans-30" x="63.623047"/>
      </g>
     </g>
    </g>
    <g id="ytick_4">
     <g id="line2d_8">
      <g>
       <use xlink:href="#mf58ed2465a" x="109.64" y="293.4352" style="stroke: #000000; stroke-width: 0.8"/>
      </g>
     </g>
     <g id="text_9">
      <!-- 60 -->
      <g transform="translate(69.555 303.313169)scale(0.26 -0.26)">
       <defs>
        <path id="DejaVuSans-36" d="M 2113 2584 
Q 1688 2584 1439 2293 
Q 1191 2003 1191 1497 
Q 1191 994 1439 701 
Q 1688 409 2113 409 
Q 2538 409 2786 701 
Q 3034 994 3034 1497 
Q 3034 2003 2786 2293 
Q 2538 2584 2113 2584 
z
M 3366 4563 
L 3366 3988 
Q 3128 4100 2886 4159 
Q 2644 4219 2406 4219 
Q 1781 4219 1451 3797 
Q 1122 3375 1075 2522 
Q 1259 2794 1537 2939 
Q 1816 3084 2150 3084 
Q 2853 3084 3261 2657 
Q 3669 2231 3669 1497 
Q 3669 778 3244 343 
Q 2819 -91 2113 -91 
Q 1303 -91 875 529 
Q 447 1150 447 2328 
Q 447 3434 972 4092 
Q 1497 4750 2381 4750 
Q 2619 4750 2861 4703 
Q 3103 4656 3366 4563 
z
" transform="scale(0.015625)"/>
       </defs>
       <use xlink:href="#DejaVuSans-36"/>
       <use xlink:href="#DejaVuSans-30" x="63.623047"/>
      </g>
     </g>
    </g>
    <g id="ytick_5">
     <g id="line2d_9">
      <g>
       <use xlink:href="#mf58ed2465a" x="109.64" y="219.3936" style="stroke: #000000; stroke-width: 0.8"/>
      </g>
     </g>
     <g id="text_10">
      <!-- 80 -->
      <g transform="translate(69.555 229.271569)scale(0.26 -0.26)">
       <defs>
        <path id="DejaVuSans-38" d="M 2034 2216 
Q 1584 2216 1326 1975 
Q 1069 1734 1069 1313 
Q 1069 891 1326 650 
Q 1584 409 2034 409 
Q 2484 409 2743 651 
Q 3003 894 3003 1313 
Q 3003 1734 2745 1975 
Q 2488 2216 2034 2216 
z
M 1403 2484 
Q 997 2584 770 2862 
Q 544 3141 544 3541 
Q 544 4100 942 4425 
Q 1341 4750 2034 4750 
Q 2731 4750 3128 4425 
Q 3525 4100 3525 3541 
Q 3525 3141 3298 2862 
Q 3072 2584 2669 2484 
Q 3125 2378 3379 2068 
Q 3634 1759 3634 1313 
Q 3634 634 3220 271 
Q 2806 -91 2034 -91 
Q 1263 -91 848 271 
Q 434 634 434 1313 
Q 434 1759 690 2068 
Q 947 2378 1403 2484 
z
M 1172 3481 
Q 1172 3119 1398 2916 
Q 1625 2713 2034 2713 
Q 2441 2713 2670 2916 
Q 2900 3119 2900 3481 
Q 2900 3844 2670 4047 
Q 2441 4250 2034 4250 
Q 1625 4250 1398 4047 
Q 1172 3844 1172 3481 
z
" transform="scale(0.015625)"/>
       </defs>
       <use xlink:href="#DejaVuSans-38"/>
       <use xlink:href="#DejaVuSans-30" x="63.623047"/>
      </g>
     </g>
    </g>
    <g id="ytick_6">
     <g id="line2d_10">
      <g>
       <use xlink:href="#mf58ed2465a" x="109.64" y="145.352" style="stroke: #000000; stroke-width: 0.8"/>
      </g>
     </g>
     <g id="text_11">
      <!-- 100 -->
      <g transform="translate(53.0125 155.229969)scale(0.26 -0.26)">
       <use xlink:href="#DejaVuSans-31"/>
       <use xlink:href="#DejaVuSans-30" x="63.623047"/>
       <use xlink:href="#DejaVuSans-30" x="127.246094"/>
      </g>
     </g>
    </g>
    <g id="ytick_7">
     <g id="line2d_11">
      <g>
       <use xlink:href="#mf58ed2465a" x="109.64" y="71.3104" style="stroke: #000000; stroke-width: 0.8"/>
      </g>
     </g>
     <g id="text_12">
      <!-- 120 -->
      <g transform="translate(53.0125 81.188369)scale(0.26 -0.26)">
       <use xlink:href="#DejaVuSans-31"/>
       <use xlink:href="#DejaVuSans-32" x="63.623047"/>
       <use xlink:href="#DejaVuSans-30" x="127.246094"/>
      </g>
     </g>
    </g>
    <g id="text_13">
     <!-- % of Remaining Glacier Mass -->
     <g transform="translate(44.265313 463.619219)rotate(-90)scale(0.22 -0.22)">
      <defs>
       <path id="DejaVuSans-Bold-25" d="M 4959 1925 
Q 4738 1925 4616 1733 
Q 4494 1541 4494 1184 
Q 4494 825 4614 633 
Q 4734 441 4959 441 
Q 5184 441 5303 633 
Q 5422 825 5422 1184 
Q 5422 1541 5301 1733 
Q 5181 1925 4959 1925 
z
M 4959 2450 
Q 5541 2450 5875 2112 
Q 6209 1775 6209 1184 
Q 6209 594 5875 251 
Q 5541 -91 4959 -91 
Q 4378 -91 4042 251 
Q 3706 594 3706 1184 
Q 3706 1772 4042 2111 
Q 4378 2450 4959 2450 
z
M 2094 -91 
L 1403 -91 
L 4319 4750 
L 5013 4750 
L 2094 -91 
z
M 1453 4750 
Q 2034 4750 2367 4411 
Q 2700 4072 2700 3481 
Q 2700 2891 2367 2550 
Q 2034 2209 1453 2209 
Q 872 2209 539 2550 
Q 206 2891 206 3481 
Q 206 4072 539 4411 
Q 872 4750 1453 4750 
z
M 1453 4225 
Q 1228 4225 1106 4031 
Q 984 3838 984 3481 
Q 984 3122 1106 2926 
Q 1228 2731 1453 2731 
Q 1678 2731 1798 2926 
Q 1919 3122 1919 3481 
Q 1919 3838 1797 4031 
Q 1675 4225 1453 4225 
z
" transform="scale(0.015625)"/>
       <path id="DejaVuSans-Bold-20" transform="scale(0.015625)"/>
       <path id="DejaVuSans-Bold-6f" d="M 2203 2784 
Q 1831 2784 1636 2517 
Q 1441 2250 1441 1747 
Q 1441 1244 1636 976 
Q 1831 709 2203 709 
Q 2569 709 2762 976 
Q 2956 1244 2956 1747 
Q 2956 2250 2762 2517 
Q 2569 2784 2203 2784 
z
M 2203 3584 
Q 3106 3584 3614 3096 
Q 4122 2609 4122 1747 
Q 4122 884 3614 396 
Q 3106 -91 2203 -91 
Q 1297 -91 786 396 
Q 275 884 275 1747 
Q 275 2609 786 3096 
Q 1297 3584 2203 3584 
z
" transform="scale(0.015625)"/>
       <path id="DejaVuSans-Bold-66" d="M 2841 4863 
L 2841 4128 
L 2222 4128 
Q 1984 4128 1890 4042 
Q 1797 3956 1797 3744 
L 1797 3500 
L 2753 3500 
L 2753 2700 
L 1797 2700 
L 1797 0 
L 678 0 
L 678 2700 
L 122 2700 
L 122 3500 
L 678 3500 
L 678 3744 
Q 678 4316 997 4589 
Q 1316 4863 1984 4863 
L 2841 4863 
z
" transform="scale(0.015625)"/>
       <path id="DejaVuSans-Bold-52" d="M 2297 2597 
Q 2675 2597 2839 2737 
Q 3003 2878 3003 3200 
Q 3003 3519 2839 3656 
Q 2675 3794 2297 3794 
L 1791 3794 
L 1791 2597 
L 2297 2597 
z
M 1791 1766 
L 1791 0 
L 588 0 
L 588 4666 
L 2425 4666 
Q 3347 4666 3776 4356 
Q 4206 4047 4206 3378 
Q 4206 2916 3982 2619 
Q 3759 2322 3309 2181 
Q 3556 2125 3751 1926 
Q 3947 1728 4147 1325 
L 4800 0 
L 3519 0 
L 2950 1159 
Q 2778 1509 2601 1637 
Q 2425 1766 2131 1766 
L 1791 1766 
z
" transform="scale(0.015625)"/>
       <path id="DejaVuSans-Bold-6d" d="M 3781 2919 
Q 3994 3244 4286 3414 
Q 4578 3584 4928 3584 
Q 5531 3584 5847 3212 
Q 6163 2841 6163 2131 
L 6163 0 
L 5038 0 
L 5038 1825 
Q 5041 1866 5042 1909 
Q 5044 1953 5044 2034 
Q 5044 2406 4934 2573 
Q 4825 2741 4581 2741 
Q 4263 2741 4089 2478 
Q 3916 2216 3909 1719 
L 3909 0 
L 2784 0 
L 2784 1825 
Q 2784 2406 2684 2573 
Q 2584 2741 2328 2741 
Q 2006 2741 1831 2477 
Q 1656 2213 1656 1722 
L 1656 0 
L 531 0 
L 531 3500 
L 1656 3500 
L 1656 2988 
Q 1863 3284 2130 3434 
Q 2397 3584 2719 3584 
Q 3081 3584 3359 3409 
Q 3638 3234 3781 2919 
z
" transform="scale(0.015625)"/>
       <path id="DejaVuSans-Bold-69" d="M 538 3500 
L 1656 3500 
L 1656 0 
L 538 0 
L 538 3500 
z
M 538 4863 
L 1656 4863 
L 1656 3950 
L 538 3950 
L 538 4863 
z
" transform="scale(0.015625)"/>
       <path id="DejaVuSans-Bold-6e" d="M 4056 2131 
L 4056 0 
L 2931 0 
L 2931 347 
L 2931 1631 
Q 2931 2084 2911 2256 
Q 2891 2428 2841 2509 
Q 2775 2619 2662 2680 
Q 2550 2741 2406 2741 
Q 2056 2741 1856 2470 
Q 1656 2200 1656 1722 
L 1656 0 
L 538 0 
L 538 3500 
L 1656 3500 
L 1656 2988 
Q 1909 3294 2193 3439 
Q 2478 3584 2822 3584 
Q 3428 3584 3742 3212 
Q 4056 2841 4056 2131 
z
" transform="scale(0.015625)"/>
       <path id="DejaVuSans-Bold-67" d="M 2919 594 
Q 2688 288 2409 144 
Q 2131 0 1766 0 
Q 1125 0 706 504 
Q 288 1009 288 1791 
Q 288 2575 706 3076 
Q 1125 3578 1766 3578 
Q 2131 3578 2409 3434 
Q 2688 3291 2919 2981 
L 2919 3500 
L 4044 3500 
L 4044 353 
Q 4044 -491 3511 -936 
Q 2978 -1381 1966 -1381 
Q 1638 -1381 1331 -1331 
Q 1025 -1281 716 -1178 
L 716 -306 
Q 1009 -475 1290 -558 
Q 1572 -641 1856 -641 
Q 2406 -641 2662 -400 
Q 2919 -159 2919 353 
L 2919 594 
z
M 2181 2772 
Q 1834 2772 1640 2515 
Q 1447 2259 1447 1791 
Q 1447 1309 1634 1061 
Q 1822 813 2181 813 
Q 2531 813 2725 1069 
Q 2919 1325 2919 1791 
Q 2919 2259 2725 2515 
Q 2531 2772 2181 2772 
z
" transform="scale(0.015625)"/>
       <path id="DejaVuSans-Bold-47" d="M 4781 347 
Q 4331 128 3847 18 
Q 3363 -91 2847 -91 
Q 1681 -91 1000 561 
Q 319 1213 319 2328 
Q 319 3456 1012 4103 
Q 1706 4750 2913 4750 
Q 3378 4750 3804 4662 
Q 4231 4575 4609 4403 
L 4609 3438 
Q 4219 3659 3833 3768 
Q 3447 3878 3059 3878 
Q 2341 3878 1952 3476 
Q 1563 3075 1563 2328 
Q 1563 1588 1938 1184 
Q 2313 781 3003 781 
Q 3191 781 3352 804 
Q 3513 828 3641 878 
L 3641 1784 
L 2906 1784 
L 2906 2591 
L 4781 2591 
L 4781 347 
z
" transform="scale(0.015625)"/>
       <path id="DejaVuSans-Bold-6c" d="M 538 4863 
L 1656 4863 
L 1656 0 
L 538 0 
L 538 4863 
z
" transform="scale(0.015625)"/>
       <path id="DejaVuSans-Bold-63" d="M 3366 3391 
L 3366 2478 
Q 3138 2634 2908 2709 
Q 2678 2784 2431 2784 
Q 1963 2784 1702 2511 
Q 1441 2238 1441 1747 
Q 1441 1256 1702 982 
Q 1963 709 2431 709 
Q 2694 709 2930 787 
Q 3166 866 3366 1019 
L 3366 103 
Q 3103 6 2833 -42 
Q 2563 -91 2291 -91 
Q 1344 -91 809 395 
Q 275 881 275 1747 
Q 275 2613 809 3098 
Q 1344 3584 2291 3584 
Q 2566 3584 2833 3536 
Q 3100 3488 3366 3391 
z
" transform="scale(0.015625)"/>
       <path id="DejaVuSans-Bold-4d" d="M 588 4666 
L 2119 4666 
L 3181 2169 
L 4250 4666 
L 5778 4666 
L 5778 0 
L 4641 0 
L 4641 3413 
L 3566 897 
L 2803 897 
L 1728 3413 
L 1728 0 
L 588 0 
L 588 4666 
z
" transform="scale(0.015625)"/>
       <path id="DejaVuSans-Bold-73" d="M 3272 3391 
L 3272 2541 
Q 2913 2691 2578 2766 
Q 2244 2841 1947 2841 
Q 1628 2841 1473 2761 
Q 1319 2681 1319 2516 
Q 1319 2381 1436 2309 
Q 1553 2238 1856 2203 
L 2053 2175 
Q 2913 2066 3209 1816 
Q 3506 1566 3506 1031 
Q 3506 472 3093 190 
Q 2681 -91 1863 -91 
Q 1516 -91 1145 -36 
Q 775 19 384 128 
L 384 978 
Q 719 816 1070 734 
Q 1422 653 1784 653 
Q 2113 653 2278 743 
Q 2444 834 2444 1013 
Q 2444 1163 2330 1236 
Q 2216 1309 1875 1350 
L 1678 1375 
Q 931 1469 631 1722 
Q 331 1975 331 2491 
Q 331 3047 712 3315 
Q 1094 3584 1881 3584 
Q 2191 3584 2531 3537 
Q 2872 3491 3272 3391 
z
" transform="scale(0.015625)"/>
      </defs>
      <use xlink:href="#DejaVuSans-Bold-25"/>
      <use xlink:href="#DejaVuSans-Bold-20" x="100.195312"/>
      <use xlink:href="#DejaVuSans-Bold-6f" x="135.009766"/>
      <use xlink:href="#DejaVuSans-Bold-66" x="203.710938"/>
      <use xlink:href="#DejaVuSans-Bold-20" x="247.216797"/>
      <use xlink:href="#DejaVuSans-Bold-52" x="282.03125"/>
      <use xlink:href="#DejaVuSans-Bold-65" x="359.033203"/>
      <use xlink:href="#DejaVuSans-Bold-6d" x="426.855469"/>
      <use xlink:href="#DejaVuSans-Bold-61" x="531.054688"/>
      <use xlink:href="#DejaVuSans-Bold-69" x="598.535156"/>
      <use xlink:href="#DejaVuSans-Bold-6e" x="632.8125"/>
      <use xlink:href="#DejaVuSans-Bold-69" x="704.003906"/>
      <use xlink:href="#DejaVuSans-Bold-6e" x="738.28125"/>
      <use xlink:href="#DejaVuSans-Bold-67" x="809.472656"/>
      <use xlink:href="#DejaVuSans-Bold-20" x="881.054688"/>
      <use xlink:href="#DejaVuSans-Bold-47" x="915.869141"/>
      <use xlink:href="#DejaVuSans-Bold-6c" x="997.949219"/>
      <use xlink:href="#DejaVuSans-Bold-61" x="1032.226562"/>
      <use xlink:href="#DejaVuSans-Bold-63" x="1099.707031"/>
      <use xlink:href="#DejaVuSans-Bold-69" x="1158.984375"/>
      <use xlink:href="#DejaVuSans-Bold-65" x="1193.261719"/>
      <use xlink:href="#DejaVuSans-Bold-72" x="1261.083984"/>
      <use xlink:href="#DejaVuSans-Bold-20" x="1310.400391"/>
      <use xlink:href="#DejaVuSans-Bold-4d" x="1345.214844"/>
      <use xlink:href="#DejaVuSans-Bold-61" x="1444.726562"/>
      <use xlink:href="#DejaVuSans-Bold-73" x="1512.207031"/>
      <use xlink:href="#DejaVuSans-Bold-73" x="1571.728516"/>
     </g>
    </g>
   </g>
   <g id="line2d_12">
    <path d="M 167.276938 146.455749 
L 174.481555 149.875968 
L 184.087711 154.702127 
L 191.292329 158.540173 
L 203.300024 165.216671 
L 217.709259 173.565056 
L 232.118493 181.587579 
L 239.32311 185.302679 
L 248.929267 190.088599 
L 256.133884 193.375562 
L 268.141579 198.626691 
L 282.550814 204.579602 
L 292.15697 208.413024 
L 304.164665 212.891393 
L 311.369283 215.343706 
L 320.975439 218.402364 
L 332.983134 221.902237 
L 349.793908 226.594466 
L 359.400064 229.27355 
L 378.612377 234.668651 
L 388.218533 237.206974 
L 395.42315 238.973803 
L 407.430846 241.687493 
L 426.643158 245.774895 
L 455.461627 251.396284 
L 469.870862 253.87973 
L 479.477018 255.302785 
L 505.893948 258.928651 
L 529.909339 261.958817 
L 541.917034 263.287521 
L 561.129347 265.173863 
L 577.94012 266.607332 
L 597.152433 268.025528 
L 645.183214 271.057413 
L 654.789371 271.438133 
L 688.410918 272.535287 
L 707.62323 273.41041 
L 731.638621 274.36053 
L 748.449395 274.879391 
L 767.661707 275.64308 
L 796.480176 276.574545 
L 810.889411 276.92181 
L 818.094028 277.092828 
L 834.904802 277.318064 
L 837.306341 277.355105 
L 837.306341 277.355105 
" clip-path="url(#pfdbe6e7cdb)" style="fill: none; stroke: #74b8f8; stroke-opacity: 0.5; stroke-width: 6; stroke-linecap: square"/>
   </g>
   <g id="line2d_13">
    <path d="M 116.844617 131.199135 
L 119.246156 131.611296 
L 121.647695 132.040595 
L 124.049234 132.474804 
L 126.450774 132.91353 
L 128.852313 133.357673 
L 131.253852 133.795958 
L 133.655391 134.236247 
L 136.05693 134.688351 
L 138.458469 135.152123 
L 140.860008 135.610611 
L 143.261547 136.476971 
L 145.663086 137.372304 
L 148.064625 138.299527 
L 150.466164 139.242946 
L 152.867703 140.208129 
L 155.269242 141.18011 
L 157.670782 142.179072 
L 160.072321 143.201071 
L 162.47386 144.248769 
L 164.875399 145.352 
" clip-path="url(#pfdbe6e7cdb)" style="fill: none; stroke: #000000; stroke-opacity: 0.5; stroke-width: 6; stroke-linecap: square"/>
   </g>
   <g id="line2d_14">
    <path d="M 167.276938 146.518359 
L 176.883094 151.330875 
L 181.686172 153.877323 
L 186.48925 156.616333 
L 205.701563 168.246157 
L 217.709259 176.13988 
L 222.512337 179.492921 
L 248.929267 196.268102 
L 260.936962 203.732299 
L 268.141579 208.086442 
L 275.346196 212.197102 
L 280.149275 214.938101 
L 289.755431 220.466547 
L 301.763126 227.069491 
L 311.369283 232.092617 
L 356.998525 255.367867 
L 369.00622 261.266161 
L 378.612377 265.833664 
L 390.620072 271.359364 
L 397.824689 274.523158 
L 412.233924 279.629884 
L 421.84008 282.731806 
L 436.249315 287.175428 
L 448.25701 290.655892 
L 460.264705 293.870098 
L 479.477018 298.759551 
L 498.689331 303.294737 
L 517.901643 307.655569 
L 532.310878 310.618766 
L 551.52319 314.295253 
L 561.129347 316.105067 
L 623.569363 328.42845 
L 645.183214 332.162982 
L 693.213996 340.032582 
L 712.426309 343.058228 
L 724.434004 344.779313 
L 750.850934 348.212509 
L 782.070942 351.943488 
L 801.283254 354.03649 
L 815.692489 355.035246 
L 832.503262 355.621951 
L 837.306341 355.801952 
L 837.306341 355.801952 
" clip-path="url(#pfdbe6e7cdb)" style="fill: none; stroke: #f47100; stroke-opacity: 0.5; stroke-width: 6; stroke-linecap: square"/>
   </g>
   <g id="line2d_15">
    <path d="M 116.844617 131.221566 
L 119.246156 131.58922 
L 121.647695 131.964725 
L 124.049234 132.357816 
L 126.450774 132.770599 
L 128.852313 133.189641 
L 131.253852 133.595356 
L 133.655391 134.001691 
L 136.05693 134.443574 
L 138.458469 134.904295 
L 140.860008 135.353319 
L 143.261547 136.148037 
L 145.663086 136.995324 
L 148.064625 137.898079 
L 150.466164 138.84391 
L 152.867703 139.809413 
L 155.269242 140.86552 
L 157.670782 141.955063 
L 160.072321 143.066567 
L 162.47386 144.200863 
L 164.875399 145.352 
" clip-path="url(#pfdbe6e7cdb)" style="fill: none; stroke: #000000; stroke-opacity: 0.5; stroke-width: 6; stroke-linecap: square"/>
   </g>
   <g id="line2d_16">
    <path d="M 167.276938 146.52186 
L 172.080016 148.981699 
L 181.686172 154.294282 
L 186.48925 157.082482 
L 193.693868 161.585317 
L 200.898485 166.367638 
L 208.103102 171.420002 
L 215.307719 176.733174 
L 222.512337 182.206985 
L 232.118493 189.801914 
L 244.126188 199.2705 
L 253.732345 206.60995 
L 263.338501 213.731243 
L 270.543118 218.809835 
L 277.747735 223.641749 
L 294.558509 234.401341 
L 306.566204 241.970341 
L 316.172361 248.52983 
L 325.778517 256.278073 
L 349.793908 276.002721 
L 352.195447 277.739522 
L 361.801603 282.806148 
L 369.00622 286.382515 
L 373.809299 288.238227 
L 381.013916 290.761871 
L 383.415455 291.554092 
L 388.218533 293.729333 
L 397.824689 298.112768 
L 407.430846 302.259246 
L 417.037002 306.149933 
L 429.044697 310.908134 
L 445.855471 320.107934 
L 462.666244 329.041442 
L 474.67394 335.045565 
L 479.477018 337.342449 
L 481.878557 338.296746 
L 491.484713 341.247764 
L 501.09087 344.009513 
L 513.098565 347.273767 
L 517.901643 348.5124 
L 529.909339 350.989376 
L 544.318573 353.721799 
L 558.727808 356.187664 
L 582.743198 359.977809 
L 633.175519 367.743824 
L 649.986293 370.10195 
L 659.592449 372.327776 
L 686.009379 377.924178 
L 700.418613 380.739463 
L 782.070942 396.137514 
L 803.684794 399.873165 
L 815.692489 401.84145 
L 837.306341 403.639936 
L 837.306341 403.639936 
" clip-path="url(#pfdbe6e7cdb)" style="fill: none; stroke: #d01e04; stroke-opacity: 0.5; stroke-width: 6; stroke-linecap: square"/>
   </g>
   <g id="line2d_17">
    <path d="M 116.844617 131.254676 
L 119.246156 131.681907 
L 121.647695 132.10544 
L 124.049234 132.528392 
L 126.450774 132.95834 
L 128.852313 133.391106 
L 131.253852 133.808257 
L 133.655391 134.223536 
L 136.05693 134.654238 
L 138.458469 135.103033 
L 140.860008 135.545246 
L 143.261547 136.413698 
L 145.663086 137.261043 
L 148.064625 138.105654 
L 150.466164 138.982471 
L 152.867703 139.961208 
L 155.269242 140.974305 
L 157.670782 142.02165 
L 160.072321 143.099602 
L 162.47386 144.20658 
L 164.875399 145.352 
" clip-path="url(#pfdbe6e7cdb)" style="fill: none; stroke: #000000; stroke-opacity: 0.5; stroke-width: 6; stroke-linecap: square"/>
   </g>
   <g id="patch_3">
    <path d="M 109.64 515.56 
L 109.64 52.8 
" style="fill: none; stroke: #000000; stroke-width: 0.8; stroke-linejoin: miter; stroke-linecap: square"/>
   </g>
   <g id="patch_4">
    <path d="M 109.64 515.56 
L 858.920192 515.56 
" style="fill: none; stroke: #000000; stroke-width: 0.8; stroke-linejoin: miter; stroke-linecap: square"/>
   </g>
   <g id="text_14">
    <!-- Global -->
    <g transform="translate(441.271346 46.8)scale(0.24 -0.24)">
     <defs>
      <path id="DejaVuSans-Bold-62" d="M 2400 722 
Q 2759 722 2948 984 
Q 3138 1247 3138 1747 
Q 3138 2247 2948 2509 
Q 2759 2772 2400 2772 
Q 2041 2772 1848 2508 
Q 1656 2244 1656 1747 
Q 1656 1250 1848 986 
Q 2041 722 2400 722 
z
M 1656 2988 
Q 1888 3294 2169 3439 
Q 2450 3584 2816 3584 
Q 3463 3584 3878 3070 
Q 4294 2556 4294 1747 
Q 4294 938 3878 423 
Q 3463 -91 2816 -91 
Q 2450 -91 2169 54 
Q 1888 200 1656 506 
L 1656 0 
L 538 0 
L 538 4863 
L 1656 4863 
L 1656 2988 
z
" transform="scale(0.015625)"/>
     </defs>
     <use xlink:href="#DejaVuSans-Bold-47"/>
     <use xlink:href="#DejaVuSans-Bold-6c" x="82.080078"/>
     <use xlink:href="#DejaVuSans-Bold-6f" x="116.357422"/>
     <use xlink:href="#DejaVuSans-Bold-62" x="185.058594"/>
     <use xlink:href="#DejaVuSans-Bold-61" x="256.640625"/>
     <use xlink:href="#DejaVuSans-Bold-6c" x="324.121094"/>
    </g>
   </g>
   <g id="legend_1">
    <g id="patch_5">
     <path d="M 597.903942 225.737875 
L 843.520192 225.737875 
Q 847.920192 225.737875 847.920192 221.337875 
L 847.920192 68.2 
Q 847.920192 63.8 843.520192 63.8 
L 597.903942 63.8 
Q 593.503942 63.8 593.503942 68.2 
L 593.503942 221.337875 
Q 593.503942 225.737875 597.903942 225.737875 
z
" style="fill: #ffffff; opacity: 0.6; stroke: #cccccc; stroke-linejoin: miter"/>
    </g>
    <g id="text_15">
     <!-- Global mean -->
     <g transform="translate(602.303942 89.316563)scale(0.22 -0.22)">
      <defs>
       <path id="DejaVuSans-47" d="M 3809 666 
L 3809 1919 
L 2778 1919 
L 2778 2438 
L 4434 2438 
L 4434 434 
Q 4069 175 3628 42 
Q 3188 -91 2688 -91 
Q 1594 -91 976 548 
Q 359 1188 359 2328 
Q 359 3472 976 4111 
Q 1594 4750 2688 4750 
Q 3144 4750 3555 4637 
Q 3966 4525 4313 4306 
L 4313 3634 
Q 3963 3931 3569 4081 
Q 3175 4231 2741 4231 
Q 1884 4231 1454 3753 
Q 1025 3275 1025 2328 
Q 1025 1384 1454 906 
Q 1884 428 2741 428 
Q 3075 428 3337 486 
Q 3600 544 3809 666 
z
" transform="scale(0.015625)"/>
       <path id="DejaVuSans-6c" d="M 603 4863 
L 1178 4863 
L 1178 0 
L 603 0 
L 603 4863 
z
" transform="scale(0.015625)"/>
       <path id="DejaVuSans-6f" d="M 1959 3097 
Q 1497 3097 1228 2736 
Q 959 2375 959 1747 
Q 959 1119 1226 758 
Q 1494 397 1959 397 
Q 2419 397 2687 759 
Q 2956 1122 2956 1747 
Q 2956 2369 2687 2733 
Q 2419 3097 1959 3097 
z
M 1959 3584 
Q 2709 3584 3137 3096 
Q 3566 2609 3566 1747 
Q 3566 888 3137 398 
Q 2709 -91 1959 -91 
Q 1206 -91 779 398 
Q 353 888 353 1747 
Q 353 2609 779 3096 
Q 1206 3584 1959 3584 
z
" transform="scale(0.015625)"/>
       <path id="DejaVuSans-62" d="M 3116 1747 
Q 3116 2381 2855 2742 
Q 2594 3103 2138 3103 
Q 1681 3103 1420 2742 
Q 1159 2381 1159 1747 
Q 1159 1113 1420 752 
Q 1681 391 2138 391 
Q 2594 391 2855 752 
Q 3116 1113 3116 1747 
z
M 1159 2969 
Q 1341 3281 1617 3432 
Q 1894 3584 2278 3584 
Q 2916 3584 3314 3078 
Q 3713 2572 3713 1747 
Q 3713 922 3314 415 
Q 2916 -91 2278 -91 
Q 1894 -91 1617 61 
Q 1341 213 1159 525 
L 1159 0 
L 581 0 
L 581 4863 
L 1159 4863 
L 1159 2969 
z
" transform="scale(0.015625)"/>
       <path id="DejaVuSans-61" d="M 2194 1759 
Q 1497 1759 1228 1600 
Q 959 1441 959 1056 
Q 959 750 1161 570 
Q 1363 391 1709 391 
Q 2188 391 2477 730 
Q 2766 1069 2766 1631 
L 2766 1759 
L 2194 1759 
z
M 3341 1997 
L 3341 0 
L 2766 0 
L 2766 531 
Q 2569 213 2275 61 
Q 1981 -91 1556 -91 
Q 1019 -91 701 211 
Q 384 513 384 1019 
Q 384 1609 779 1909 
Q 1175 2209 1959 2209 
L 2766 2209 
L 2766 2266 
Q 2766 2663 2505 2880 
Q 2244 3097 1772 3097 
Q 1472 3097 1187 3025 
Q 903 2953 641 2809 
L 641 3341 
Q 956 3463 1253 3523 
Q 1550 3584 1831 3584 
Q 2591 3584 2966 3190 
Q 3341 2797 3341 1997 
z
" transform="scale(0.015625)"/>
       <path id="DejaVuSans-20" transform="scale(0.015625)"/>
       <path id="DejaVuSans-6d" d="M 3328 2828 
Q 3544 3216 3844 3400 
Q 4144 3584 4550 3584 
Q 5097 3584 5394 3201 
Q 5691 2819 5691 2113 
L 5691 0 
L 5113 0 
L 5113 2094 
Q 5113 2597 4934 2840 
Q 4756 3084 4391 3084 
Q 3944 3084 3684 2787 
Q 3425 2491 3425 1978 
L 3425 0 
L 2847 0 
L 2847 2094 
Q 2847 2600 2669 2842 
Q 2491 3084 2119 3084 
Q 1678 3084 1418 2786 
Q 1159 2488 1159 1978 
L 1159 0 
L 581 0 
L 581 3500 
L 1159 3500 
L 1159 2956 
Q 1356 3278 1631 3431 
Q 1906 3584 2284 3584 
Q 2666 3584 2933 3390 
Q 3200 3197 3328 2828 
z
" transform="scale(0.015625)"/>
       <path id="DejaVuSans-65" d="M 3597 1894 
L 3597 1613 
L 953 1613 
Q 991 1019 1311 708 
Q 1631 397 2203 397 
Q 2534 397 2845 478 
Q 3156 559 3463 722 
L 3463 178 
Q 3153 47 2828 -22 
Q 2503 -91 2169 -91 
Q 1331 -91 842 396 
Q 353 884 353 1716 
Q 353 2575 817 3079 
Q 1281 3584 2069 3584 
Q 2775 3584 3186 3129 
Q 3597 2675 3597 1894 
z
M 3022 2063 
Q 3016 2534 2758 2815 
Q 2500 3097 2075 3097 
Q 1594 3097 1305 2825 
Q 1016 2553 972 2059 
L 3022 2063 
z
" transform="scale(0.015625)"/>
       <path id="DejaVuSans-6e" d="M 3513 2113 
L 3513 0 
L 2938 0 
L 2938 2094 
Q 2938 2591 2744 2837 
Q 2550 3084 2163 3084 
Q 1697 3084 1428 2787 
Q 1159 2491 1159 1978 
L 1159 0 
L 581 0 
L 581 3500 
L 1159 3500 
L 1159 2956 
Q 1366 3272 1645 3428 
Q 1925 3584 2291 3584 
Q 2894 3584 3203 3211 
Q 3513 2838 3513 2113 
z
" transform="scale(0.015625)"/>
      </defs>
      <use xlink:href="#DejaVuSans-47"/>
      <use xlink:href="#DejaVuSans-6c" x="77.490234"/>
      <use xlink:href="#DejaVuSans-6f" x="105.273438"/>
      <use xlink:href="#DejaVuSans-62" x="166.455078"/>
      <use xlink:href="#DejaVuSans-61" x="229.931641"/>
      <use xlink:href="#DejaVuSans-6c" x="291.210938"/>
      <use xlink:href="#DejaVuSans-20" x="318.994141"/>
      <use xlink:href="#DejaVuSans-6d" x="350.78125"/>
      <use xlink:href="#DejaVuSans-65" x="448.193359"/>
      <use xlink:href="#DejaVuSans-61" x="509.716797"/>
      <use xlink:href="#DejaVuSans-6e" x="570.996094"/>
     </g>
     <!-- temperature above -->
     <g transform="translate(602.303942 113.95175)scale(0.22 -0.22)">
      <defs>
       <path id="DejaVuSans-74" d="M 1172 4494 
L 1172 3500 
L 2356 3500 
L 2356 3053 
L 1172 3053 
L 1172 1153 
Q 1172 725 1289 603 
Q 1406 481 1766 481 
L 2356 481 
L 2356 0 
L 1766 0 
Q 1100 0 847 248 
Q 594 497 594 1153 
L 594 3053 
L 172 3053 
L 172 3500 
L 594 3500 
L 594 4494 
L 1172 4494 
z
" transform="scale(0.015625)"/>
       <path id="DejaVuSans-70" d="M 1159 525 
L 1159 -1331 
L 581 -1331 
L 581 3500 
L 1159 3500 
L 1159 2969 
Q 1341 3281 1617 3432 
Q 1894 3584 2278 3584 
Q 2916 3584 3314 3078 
Q 3713 2572 3713 1747 
Q 3713 922 3314 415 
Q 2916 -91 2278 -91 
Q 1894 -91 1617 61 
Q 1341 213 1159 525 
z
M 3116 1747 
Q 3116 2381 2855 2742 
Q 2594 3103 2138 3103 
Q 1681 3103 1420 2742 
Q 1159 2381 1159 1747 
Q 1159 1113 1420 752 
Q 1681 391 2138 391 
Q 2594 391 2855 752 
Q 3116 1113 3116 1747 
z
" transform="scale(0.015625)"/>
       <path id="DejaVuSans-72" d="M 2631 2963 
Q 2534 3019 2420 3045 
Q 2306 3072 2169 3072 
Q 1681 3072 1420 2755 
Q 1159 2438 1159 1844 
L 1159 0 
L 581 0 
L 581 3500 
L 1159 3500 
L 1159 2956 
Q 1341 3275 1631 3429 
Q 1922 3584 2338 3584 
Q 2397 3584 2469 3576 
Q 2541 3569 2628 3553 
L 2631 2963 
z
" transform="scale(0.015625)"/>
       <path id="DejaVuSans-75" d="M 544 1381 
L 544 3500 
L 1119 3500 
L 1119 1403 
Q 1119 906 1312 657 
Q 1506 409 1894 409 
Q 2359 409 2629 706 
Q 2900 1003 2900 1516 
L 2900 3500 
L 3475 3500 
L 3475 0 
L 2900 0 
L 2900 538 
Q 2691 219 2414 64 
Q 2138 -91 1772 -91 
Q 1169 -91 856 284 
Q 544 659 544 1381 
z
M 1991 3584 
L 1991 3584 
z
" transform="scale(0.015625)"/>
       <path id="DejaVuSans-76" d="M 191 3500 
L 800 3500 
L 1894 563 
L 2988 3500 
L 3597 3500 
L 2284 0 
L 1503 0 
L 191 3500 
z
" transform="scale(0.015625)"/>
      </defs>
      <use xlink:href="#DejaVuSans-74"/>
      <use xlink:href="#DejaVuSans-65" x="39.208984"/>
      <use xlink:href="#DejaVuSans-6d" x="100.732422"/>
      <use xlink:href="#DejaVuSans-70" x="198.144531"/>
      <use xlink:href="#DejaVuSans-65" x="261.621094"/>
      <use xlink:href="#DejaVuSans-72" x="323.144531"/>
      <use xlink:href="#DejaVuSans-61" x="364.257812"/>
      <use xlink:href="#DejaVuSans-74" x="425.537109"/>
      <use xlink:href="#DejaVuSans-75" x="464.746094"/>
      <use xlink:href="#DejaVuSans-72" x="528.125"/>
      <use xlink:href="#DejaVuSans-65" x="566.988281"/>
      <use xlink:href="#DejaVuSans-20" x="628.511719"/>
      <use xlink:href="#DejaVuSans-61" x="660.298828"/>
      <use xlink:href="#DejaVuSans-62" x="721.578125"/>
      <use xlink:href="#DejaVuSans-6f" x="785.054688"/>
      <use xlink:href="#DejaVuSans-76" x="846.236328"/>
      <use xlink:href="#DejaVuSans-65" x="905.416016"/>
     </g>
     <!-- pre-industrial in 2100 -->
     <g transform="translate(602.303942 138.586938)scale(0.22 -0.22)">
      <defs>
       <path id="DejaVuSans-2d" d="M 313 2009 
L 1997 2009 
L 1997 1497 
L 313 1497 
L 313 2009 
z
" transform="scale(0.015625)"/>
       <path id="DejaVuSans-69" d="M 603 3500 
L 1178 3500 
L 1178 0 
L 603 0 
L 603 3500 
z
M 603 4863 
L 1178 4863 
L 1178 4134 
L 603 4134 
L 603 4863 
z
" transform="scale(0.015625)"/>
       <path id="DejaVuSans-64" d="M 2906 2969 
L 2906 4863 
L 3481 4863 
L 3481 0 
L 2906 0 
L 2906 525 
Q 2725 213 2448 61 
Q 2172 -91 1784 -91 
Q 1150 -91 751 415 
Q 353 922 353 1747 
Q 353 2572 751 3078 
Q 1150 3584 1784 3584 
Q 2172 3584 2448 3432 
Q 2725 3281 2906 2969 
z
M 947 1747 
Q 947 1113 1208 752 
Q 1469 391 1925 391 
Q 2381 391 2643 752 
Q 2906 1113 2906 1747 
Q 2906 2381 2643 2742 
Q 2381 3103 1925 3103 
Q 1469 3103 1208 2742 
Q 947 2381 947 1747 
z
" transform="scale(0.015625)"/>
       <path id="DejaVuSans-73" d="M 2834 3397 
L 2834 2853 
Q 2591 2978 2328 3040 
Q 2066 3103 1784 3103 
Q 1356 3103 1142 2972 
Q 928 2841 928 2578 
Q 928 2378 1081 2264 
Q 1234 2150 1697 2047 
L 1894 2003 
Q 2506 1872 2764 1633 
Q 3022 1394 3022 966 
Q 3022 478 2636 193 
Q 2250 -91 1575 -91 
Q 1294 -91 989 -36 
Q 684 19 347 128 
L 347 722 
Q 666 556 975 473 
Q 1284 391 1588 391 
Q 1994 391 2212 530 
Q 2431 669 2431 922 
Q 2431 1156 2273 1281 
Q 2116 1406 1581 1522 
L 1381 1569 
Q 847 1681 609 1914 
Q 372 2147 372 2553 
Q 372 3047 722 3315 
Q 1072 3584 1716 3584 
Q 2034 3584 2315 3537 
Q 2597 3491 2834 3397 
z
" transform="scale(0.015625)"/>
      </defs>
      <use xlink:href="#DejaVuSans-70"/>
      <use xlink:href="#DejaVuSans-72" x="63.476562"/>
      <use xlink:href="#DejaVuSans-65" x="102.339844"/>
      <use xlink:href="#DejaVuSans-2d" x="163.863281"/>
      <use xlink:href="#DejaVuSans-69" x="199.947266"/>
      <use xlink:href="#DejaVuSans-6e" x="227.730469"/>
      <use xlink:href="#DejaVuSans-64" x="291.109375"/>
      <use xlink:href="#DejaVuSans-75" x="354.585938"/>
      <use xlink:href="#DejaVuSans-73" x="417.964844"/>
      <use xlink:href="#DejaVuSans-74" x="470.064453"/>
      <use xlink:href="#DejaVuSans-72" x="509.273438"/>
      <use xlink:href="#DejaVuSans-69" x="550.386719"/>
      <use xlink:href="#DejaVuSans-61" x="578.169922"/>
      <use xlink:href="#DejaVuSans-6c" x="639.449219"/>
      <use xlink:href="#DejaVuSans-20" x="667.232422"/>
      <use xlink:href="#DejaVuSans-69" x="699.019531"/>
      <use xlink:href="#DejaVuSans-6e" x="726.802734"/>
      <use xlink:href="#DejaVuSans-20" x="790.181641"/>
      <use xlink:href="#DejaVuSans-32" x="821.96875"/>
      <use xlink:href="#DejaVuSans-31" x="885.591797"/>
      <use xlink:href="#DejaVuSans-30" x="949.214844"/>
      <use xlink:href="#DejaVuSans-30" x="1012.837891"/>
     </g>
    </g>
    <g id="line2d_18">
     <path d="M 616.971755 155.478813 
L 638.971755 155.478813 
L 660.971755 155.478813 
" style="fill: none; stroke: #74b8f8; stroke-opacity: 0.5; stroke-width: 6; stroke-linecap: square"/>
    </g>
    <g id="text_16">
     <!-- 1.5C (n=2) -->
     <g transform="translate(678.571755 163.178813)scale(0.22 -0.22)">
      <defs>
       <path id="DejaVuSans-2e" d="M 684 794 
L 1344 794 
L 1344 0 
L 684 0 
L 684 794 
z
" transform="scale(0.015625)"/>
       <path id="DejaVuSans-35" d="M 691 4666 
L 3169 4666 
L 3169 4134 
L 1269 4134 
L 1269 2991 
Q 1406 3038 1543 3061 
Q 1681 3084 1819 3084 
Q 2600 3084 3056 2656 
Q 3513 2228 3513 1497 
Q 3513 744 3044 326 
Q 2575 -91 1722 -91 
Q 1428 -91 1123 -41 
Q 819 9 494 109 
L 494 744 
Q 775 591 1075 516 
Q 1375 441 1709 441 
Q 2250 441 2565 725 
Q 2881 1009 2881 1497 
Q 2881 1984 2565 2268 
Q 2250 2553 1709 2553 
Q 1456 2553 1204 2497 
Q 953 2441 691 2322 
L 691 4666 
z
" transform="scale(0.015625)"/>
       <path id="DejaVuSans-b0" d="M 1600 4347 
Q 1350 4347 1178 4173 
Q 1006 4000 1006 3750 
Q 1006 3503 1178 3333 
Q 1350 3163 1600 3163 
Q 1850 3163 2022 3333 
Q 2194 3503 2194 3750 
Q 2194 3997 2020 4172 
Q 1847 4347 1600 4347 
z
M 1600 4750 
Q 1800 4750 1984 4673 
Q 2169 4597 2303 4453 
Q 2447 4313 2519 4134 
Q 2591 3956 2591 3750 
Q 2591 3338 2302 3052 
Q 2013 2766 1594 2766 
Q 1172 2766 890 3047 
Q 609 3328 609 3750 
Q 609 4169 896 4459 
Q 1184 4750 1600 4750 
z
" transform="scale(0.015625)"/>
       <path id="DejaVuSans-43" d="M 4122 4306 
L 4122 3641 
Q 3803 3938 3442 4084 
Q 3081 4231 2675 4231 
Q 1875 4231 1450 3742 
Q 1025 3253 1025 2328 
Q 1025 1406 1450 917 
Q 1875 428 2675 428 
Q 3081 428 3442 575 
Q 3803 722 4122 1019 
L 4122 359 
Q 3791 134 3420 21 
Q 3050 -91 2638 -91 
Q 1578 -91 968 557 
Q 359 1206 359 2328 
Q 359 3453 968 4101 
Q 1578 4750 2638 4750 
Q 3056 4750 3426 4639 
Q 3797 4528 4122 4306 
z
" transform="scale(0.015625)"/>
       <path id="DejaVuSans-28" d="M 1984 4856 
Q 1566 4138 1362 3434 
Q 1159 2731 1159 2009 
Q 1159 1288 1364 580 
Q 1569 -128 1984 -844 
L 1484 -844 
Q 1016 -109 783 600 
Q 550 1309 550 2009 
Q 550 2706 781 3412 
Q 1013 4119 1484 4856 
L 1984 4856 
z
" transform="scale(0.015625)"/>
       <path id="DejaVuSans-3d" d="M 678 2906 
L 4684 2906 
L 4684 2381 
L 678 2381 
L 678 2906 
z
M 678 1631 
L 4684 1631 
L 4684 1100 
L 678 1100 
L 678 1631 
z
" transform="scale(0.015625)"/>
       <path id="DejaVuSans-29" d="M 513 4856 
L 1013 4856 
Q 1481 4119 1714 3412 
Q 1947 2706 1947 2009 
Q 1947 1309 1714 600 
Q 1481 -109 1013 -844 
L 513 -844 
Q 928 -128 1133 580 
Q 1338 1288 1338 2009 
Q 1338 2731 1133 3434 
Q 928 4138 513 4856 
z
" transform="scale(0.015625)"/>
      </defs>
      <use xlink:href="#DejaVuSans-31"/>
      <use xlink:href="#DejaVuSans-2e" x="63.623047"/>
      <use xlink:href="#DejaVuSans-35" x="95.410156"/>
      <use xlink:href="#DejaVuSans-b0" x="159.033203"/>
      <use xlink:href="#DejaVuSans-43" x="209.033203"/>
      <use xlink:href="#DejaVuSans-20" x="278.857422"/>
      <use xlink:href="#DejaVuSans-28" x="310.644531"/>
      <use xlink:href="#DejaVuSans-6e" x="349.658203"/>
      <use xlink:href="#DejaVuSans-3d" x="413.037109"/>
      <use xlink:href="#DejaVuSans-32" x="496.826172"/>
      <use xlink:href="#DejaVuSans-29" x="560.449219"/>
     </g>
    </g>
    <g id="line2d_19">
     <path d="M 616.971755 180.070688 
L 638.971755 180.070688 
L 660.971755 180.070688 
" style="fill: none; stroke: #f47100; stroke-opacity: 0.5; stroke-width: 6; stroke-linecap: square"/>
    </g>
    <g id="text_17">
     <!-- 2.2C (n=14) -->
     <g transform="translate(678.571755 187.770688)scale(0.22 -0.22)">
      <use xlink:href="#DejaVuSans-32"/>
      <use xlink:href="#DejaVuSans-2e" x="63.623047"/>
      <use xlink:href="#DejaVuSans-32" x="95.410156"/>
      <use xlink:href="#DejaVuSans-b0" x="159.033203"/>
      <use xlink:href="#DejaVuSans-43" x="209.033203"/>
      <use xlink:href="#DejaVuSans-20" x="278.857422"/>
      <use xlink:href="#DejaVuSans-28" x="310.644531"/>
      <use xlink:href="#DejaVuSans-6e" x="349.658203"/>
      <use xlink:href="#DejaVuSans-3d" x="413.037109"/>
      <use xlink:href="#DejaVuSans-31" x="496.826172"/>
      <use xlink:href="#DejaVuSans-34" x="560.449219"/>
      <use xlink:href="#DejaVuSans-29" x="624.072266"/>
     </g>
    </g>
    <g id="line2d_20">
     <path d="M 616.971755 204.662563 
L 638.971755 204.662563 
L 660.971755 204.662563 
" style="fill: none; stroke: #d01e04; stroke-opacity: 0.5; stroke-width: 6; stroke-linecap: square"/>
    </g>
    <g id="text_18">
     <!-- 2.8C (n=12) -->
     <g transform="translate(678.571755 212.362563)scale(0.22 -0.22)">
      <use xlink:href="#DejaVuSans-32"/>
      <use xlink:href="#DejaVuSans-2e" x="63.623047"/>
      <use xlink:href="#DejaVuSans-38" x="95.410156"/>
      <use xlink:href="#DejaVuSans-b0" x="159.033203"/>
      <use xlink:href="#DejaVuSans-43" x="209.033203"/>
      <use xlink:href="#DejaVuSans-20" x="278.857422"/>
      <use xlink:href="#DejaVuSans-28" x="310.644531"/>
      <use xlink:href="#DejaVuSans-6e" x="349.658203"/>
      <use xlink:href="#DejaVuSans-3d" x="413.037109"/>
      <use xlink:href="#DejaVuSans-31" x="496.826172"/>
      <use xlink:href="#DejaVuSans-32" x="560.449219"/>
      <use xlink:href="#DejaVuSans-29" x="624.072266"/>
     </g>
    </g>
   </g>
  </g>
 </g>
 <defs>
  <clipPath id="pfdbe6e7cdb">
   <rect x="109.64" y="52.8" width="749.280192" height="462.76"/>
  </clipPath>
 </defs>
</svg>
