<?xml version="1.0" encoding="utf-8" standalone="no"?>
<!DOCTYPE svg PUBLIC "-//W3C//DTD SVG 1.1//EN"
  "http://www.w3.org/Graphics/SVG/1.1/DTD/svg11.dtd">
<svg xmlns:xlink="http://www.w3.org/1999/xlink" width="900pt" height="600pt" viewBox="0 0 900 600" xmlns="http://www.w3.org/2000/svg" version="1.1">
 <metadata>
  <rdf:RDF xmlns:dc="http://purl.org/dc/elements/1.1/" xmlns:cc="http://creativecommons.org/ns#" xmlns:rdf="http://www.w3.org/1999/02/22-rdf-syntax-ns#">
   <cc:Work>
    <dc:type rdf:resource="http://purl.org/dc/dcmitype/StillImage"/>
    <dc:date>2024-10-31T18:28:31.820051</dc:date>
    <dc:format>image/svg+xml</dc:format>
    <dc:creator>
     <cc:Agent>
      <dc:title>Matplotlib v3.5.3, https://matplotlib.org/</dc:title>
     </cc:Agent>
    </dc:creator>
   </cc:Work>
  </rdf:RDF>
 </metadata>
 <defs>
  <style type="text/css">*{stroke-linejoin: round; stroke-linecap: butt}</style>
 </defs>
 <g id="figure_1">
  <g id="patch_1">
   <path d="M 0 600 
L 900 600 
L 900 0 
L 0 0 
z
" style="fill: #ffffff"/>
  </g>
  <g id="axes_1">
   <g id="patch_2">
    <path d="M 109.64 515.56 
L 858.920192 515.56 
L 858.920192 52.8 
L 109.64 52.8 
z
" style="fill: #ffffff"/>
   </g>
   <g id="PolyCollection_1">
    <defs>
     <path id="ma8647808fc" d="M 167.276938 -453.134883 
L 167.276938 -453.042288 
L 169.678477 -451.475692 
L 172.080016 -449.859987 
L 174.481555 -448.180842 
L 176.883094 -446.51291 
L 179.284633 -444.8225 
L 181.686172 -443.079092 
L 184.087711 -441.337997 
L 186.48925 -439.600568 
L 188.89079 -437.838129 
L 191.292329 -436.043839 
L 193.693868 -434.245766 
L 196.095407 -432.397194 
L 198.496946 -430.614384 
L 200.898485 -428.8145 
L 203.300024 -426.936155 
L 205.701563 -424.984948 
L 208.103102 -422.951232 
L 210.504641 -420.962008 
L 212.90618 -418.98482 
L 215.307719 -416.994462 
L 217.709259 -414.901367 
L 220.110798 -412.841659 
L 222.512337 -410.745791 
L 224.913876 -408.601862 
L 227.315415 -406.480176 
L 229.716954 -404.369554 
L 232.118493 -402.236717 
L 234.520032 -400.119097 
L 236.921571 -398.058778 
L 239.32311 -395.999398 
L 241.724649 -393.88925 
L 244.126188 -391.774825 
L 246.527727 -389.617958 
L 248.929267 -387.448853 
L 251.330806 -385.318822 
L 253.732345 -383.244445 
L 256.133884 -381.172742 
L 258.535423 -379.065435 
L 260.936962 -376.932665 
L 263.338501 -374.82323 
L 265.74004 -372.780111 
L 268.141579 -370.721482 
L 270.543118 -368.69627 
L 272.944657 -366.673473 
L 275.346196 -364.605982 
L 277.747735 -362.546939 
L 280.149275 -360.500709 
L 282.550814 -358.476183 
L 284.952353 -356.450623 
L 287.353892 -354.400431 
L 289.755431 -352.392012 
L 292.15697 -350.434528 
L 294.558509 -348.482248 
L 296.960048 -346.526329 
L 299.361587 -344.626775 
L 301.763126 -342.646114 
L 304.164665 -340.625633 
L 306.566204 -338.651099 
L 308.967743 -336.754702 
L 311.369283 -334.824465 
L 313.770822 -332.897735 
L 316.172361 -330.998061 
L 318.5739 -329.105147 
L 320.975439 -327.246952 
L 323.376978 -325.430645 
L 325.778517 -323.664267 
L 328.180056 -321.910003 
L 330.581595 -320.135441 
L 332.983134 -318.36854 
L 335.384673 -316.641882 
L 337.786212 -314.914694 
L 340.187751 -313.185867 
L 342.589291 -311.476537 
L 344.99083 -309.769446 
L 347.392369 -307.96647 
L 349.793908 -306.242684 
L 352.195447 -304.631468 
L 354.596986 -302.993036 
L 356.998525 -301.327412 
L 359.400064 -299.672341 
L 361.801603 -298.019207 
L 364.203142 -296.346606 
L 366.604681 -294.708925 
L 369.00622 -293.051082 
L 371.407759 -291.40933 
L 373.809299 -289.772626 
L 376.210838 -288.158588 
L 378.612377 -286.51588 
L 381.013916 -284.84563 
L 383.415455 -283.194972 
L 385.816994 -281.548146 
L 388.218533 -279.888772 
L 390.620072 -278.260364 
L 393.021611 -276.700743 
L 395.42315 -275.185157 
L 397.824689 -273.661921 
L 400.226228 -272.101365 
L 402.627768 -270.572549 
L 405.029307 -269.033121 
L 407.430846 -267.525126 
L 409.832385 -265.993975 
L 412.233924 -264.516847 
L 414.635463 -263.024064 
L 417.037002 -261.542378 
L 419.438541 -260.092016 
L 421.84008 -258.657125 
L 424.241619 -257.211008 
L 426.643158 -255.809973 
L 429.044697 -254.435317 
L 431.446236 -253.045007 
L 433.847776 -251.696623 
L 436.249315 -250.396508 
L 438.650854 -249.06001 
L 441.052393 -247.695659 
L 443.453932 -246.362107 
L 445.855471 -245.058566 
L 448.25701 -243.773479 
L 450.658549 -242.484336 
L 453.060088 -241.243431 
L 455.461627 -240.017276 
L 457.863166 -238.826884 
L 460.264705 -237.631236 
L 462.666244 -236.434412 
L 465.067784 -235.262006 
L 467.469323 -234.07923 
L 469.870862 -232.87333 
L 472.272401 -231.664035 
L 474.67394 -230.478449 
L 477.075479 -229.311523 
L 479.477018 -228.143341 
L 481.878557 -226.986357 
L 484.280096 -225.820291 
L 486.681635 -224.692429 
L 489.083174 -223.598816 
L 491.484713 -222.521677 
L 493.886252 -221.46435 
L 496.287792 -220.438961 
L 498.689331 -219.430134 
L 501.09087 -218.401687 
L 503.492409 -217.375858 
L 505.893948 -216.35666 
L 508.295487 -215.32184 
L 510.697026 -214.318996 
L 513.098565 -213.31949 
L 515.500104 -212.334179 
L 517.901643 -211.368494 
L 520.303182 -210.42962 
L 522.704721 -209.514666 
L 525.10626 -208.606792 
L 527.5078 -207.729755 
L 529.909339 -206.850667 
L 532.310878 -205.967718 
L 534.712417 -205.091162 
L 537.113956 -204.217792 
L 539.515495 -203.356564 
L 541.917034 -202.501477 
L 544.318573 -201.637345 
L 546.720112 -200.783164 
L 549.121651 -199.972736 
L 551.52319 -199.174296 
L 553.924729 -198.37121 
L 556.326268 -197.60964 
L 558.727808 -196.884472 
L 561.129347 -196.160677 
L 563.530886 -195.461979 
L 565.932425 -194.76857 
L 568.333964 -194.06582 
L 570.735503 -193.358468 
L 573.137042 -192.676626 
L 575.538581 -191.999854 
L 577.94012 -191.328622 
L 580.341659 -190.684488 
L 582.743198 -190.051154 
L 585.144737 -189.412107 
L 587.546277 -188.764883 
L 589.947816 -188.128139 
L 592.349355 -187.499165 
L 594.750894 -186.861816 
L 597.152433 -186.217822 
L 599.553972 -185.569652 
L 601.955511 -184.914852 
L 604.35705 -184.255441 
L 606.758589 -183.595949 
L 609.160128 -182.970402 
L 611.561667 -182.329138 
L 613.963206 -181.692303 
L 616.364745 -181.05485 
L 618.766285 -180.421556 
L 621.167824 -179.77895 
L 623.569363 -179.130061 
L 625.970902 -178.506603 
L 628.372441 -177.865111 
L 630.77398 -177.210226 
L 633.175519 -176.577066 
L 635.577058 -175.95415 
L 637.978597 -175.331182 
L 640.380136 -174.724755 
L 642.781675 -174.145993 
L 645.183214 -173.571305 
L 647.584753 -173.023557 
L 649.986293 -172.51048 
L 652.387832 -172.006126 
L 654.789371 -171.497977 
L 657.19091 -170.987159 
L 659.592449 -170.477532 
L 661.993988 -169.981014 
L 664.395527 -169.48482 
L 666.797066 -168.976381 
L 669.198605 -168.462912 
L 671.600144 -167.962685 
L 674.001683 -167.452702 
L 676.403222 -166.955931 
L 678.804761 -166.466801 
L 681.206301 -165.967898 
L 683.60784 -165.475469 
L 686.009379 -164.972217 
L 688.410918 -164.457375 
L 690.812457 -163.937659 
L 693.213996 -163.41412 
L 695.615535 -162.897878 
L 698.017074 -162.39064 
L 700.418613 -161.876179 
L 702.820152 -161.373423 
L 705.221691 -160.861226 
L 707.62323 -160.36439 
L 710.024769 -159.855976 
L 712.426309 -159.367015 
L 714.827848 -158.871344 
L 717.229387 -158.38087 
L 719.630926 -157.892189 
L 722.032465 -157.397983 
L 724.434004 -156.906038 
L 726.835543 -156.428326 
L 729.237082 -155.95369 
L 731.638621 -155.481953 
L 734.04016 -155.032413 
L 736.441699 -154.589439 
L 738.843238 -154.131636 
L 741.244777 -153.683256 
L 743.646317 -153.221432 
L 746.047856 -152.762664 
L 748.449395 -152.302427 
L 750.850934 -151.849252 
L 753.252473 -151.411184 
L 755.654012 -150.973904 
L 758.055551 -150.555201 
L 760.45709 -150.143348 
L 762.858629 -149.758718 
L 765.260168 -149.374665 
L 767.661707 -149.009979 
L 770.063246 -148.664919 
L 772.464786 -148.321542 
L 774.866325 -147.982731 
L 777.267864 -147.642737 
L 779.669403 -147.300293 
L 782.070942 -146.95354 
L 784.472481 -146.621389 
L 786.87402 -146.311945 
L 789.275559 -146.009985 
L 791.677098 -145.705322 
L 794.078637 -145.406005 
L 796.480176 -145.121149 
L 798.881715 -144.825342 
L 801.283254 -144.520493 
L 803.684794 -144.20905 
L 806.086333 -143.904222 
L 808.487872 -143.575278 
L 810.889411 -143.243386 
L 813.29095 -142.904866 
L 815.692489 -142.568012 
L 818.094028 -142.400218 
L 820.495567 -142.230338 
L 822.897106 -142.048 
L 825.298645 -141.871043 
L 827.700184 -141.703445 
L 830.101723 -141.538398 
L 832.503262 -141.373869 
L 834.904802 -141.206897 
L 837.306341 -141.033091 
L 837.306341 -161.354416 
L 837.306341 -161.354416 
L 834.904802 -161.537867 
L 832.503262 -161.707277 
L 830.101723 -161.875998 
L 827.700184 -162.041492 
L 825.298645 -162.20558 
L 822.897106 -162.376062 
L 820.495567 -162.550602 
L 818.094028 -162.711032 
L 815.692489 -162.86702 
L 813.29095 -163.19324 
L 810.889411 -163.516386 
L 808.487872 -163.831778 
L 806.086333 -164.149711 
L 803.684794 -164.444244 
L 801.283254 -164.741885 
L 798.881715 -165.037857 
L 796.480176 -165.322932 
L 794.078637 -165.59181 
L 791.677098 -165.86854 
L 789.275559 -166.148673 
L 786.87402 -166.421667 
L 784.472481 -166.706218 
L 782.070942 -167.005938 
L 779.669403 -167.316449 
L 777.267864 -167.625375 
L 774.866325 -167.935916 
L 772.464786 -168.244285 
L 770.063246 -168.56454 
L 767.661707 -168.887317 
L 765.260168 -169.22414 
L 762.858629 -169.584545 
L 760.45709 -169.944361 
L 758.055551 -170.323979 
L 755.654012 -170.710585 
L 753.252473 -171.114567 
L 750.850934 -171.517635 
L 748.449395 -171.935738 
L 746.047856 -172.364623 
L 743.646317 -172.794772 
L 741.244777 -173.226488 
L 738.843238 -173.649988 
L 736.441699 -174.075377 
L 734.04016 -174.489424 
L 731.638621 -174.911218 
L 729.237082 -175.352068 
L 726.835543 -175.79597 
L 724.434004 -176.23835 
L 722.032465 -176.686663 
L 719.630926 -177.136612 
L 717.229387 -177.58515 
L 714.827848 -178.030426 
L 712.426309 -178.480591 
L 710.024769 -178.926839 
L 707.62323 -179.381506 
L 705.221691 -179.823056 
L 702.820152 -180.275191 
L 700.418613 -180.717925 
L 698.017074 -181.16784 
L 695.615535 -181.612691 
L 693.213996 -182.058042 
L 690.812457 -182.508764 
L 688.410918 -182.96051 
L 686.009379 -183.407158 
L 683.60784 -183.844062 
L 681.206301 -184.271965 
L 678.804761 -184.698038 
L 676.403222 -185.11742 
L 674.001683 -185.539886 
L 671.600144 -185.974898 
L 669.198605 -186.396905 
L 666.797066 -186.834481 
L 664.395527 -187.267058 
L 661.993988 -187.691751 
L 659.592449 -188.127916 
L 657.19091 -188.570606 
L 654.789371 -189.015642 
L 652.387832 -189.464313 
L 649.986293 -189.910238 
L 647.584753 -190.36527 
L 645.183214 -190.847418 
L 642.781675 -191.355674 
L 640.380136 -191.862406 
L 637.978597 -192.396383 
L 635.577058 -192.946708 
L 633.175519 -193.4933 
L 630.77398 -194.051712 
L 628.372441 -194.627382 
L 625.970902 -195.196225 
L 623.569363 -195.757354 
L 621.167824 -196.33879 
L 618.766285 -196.917018 
L 616.364745 -197.489669 
L 613.963206 -198.065001 
L 611.561667 -198.636481 
L 609.160128 -199.219825 
L 606.758589 -199.788707 
L 604.35705 -200.382022 
L 601.955511 -200.979301 
L 599.553972 -201.570438 
L 597.152433 -202.154301 
L 594.750894 -202.72999 
L 592.349355 -203.310109 
L 589.947816 -203.886512 
L 587.546277 -204.470666 
L 585.144737 -205.066001 
L 582.743198 -205.65807 
L 580.341659 -206.24852 
L 577.94012 -206.847087 
L 575.538581 -207.466465 
L 573.137042 -208.099021 
L 570.735503 -208.728251 
L 568.333964 -209.379874 
L 565.932425 -210.034227 
L 563.530886 -210.680211 
L 561.129347 -211.335603 
L 558.727808 -212.015206 
L 556.326268 -212.699524 
L 553.924729 -213.417622 
L 551.52319 -214.17014 
L 549.121651 -214.928131 
L 546.720112 -215.700735 
L 544.318573 -216.502866 
L 541.917034 -217.313376 
L 539.515495 -218.110026 
L 537.113956 -218.918979 
L 534.712417 -219.727628 
L 532.310878 -220.548846 
L 529.909339 -221.376448 
L 527.5078 -222.20253 
L 525.10626 -223.023772 
L 522.704721 -223.875175 
L 520.303182 -224.730012 
L 517.901643 -225.605712 
L 515.500104 -226.501002 
L 513.098565 -227.403976 
L 510.697026 -228.323659 
L 508.295487 -229.246169 
L 505.893948 -230.189469 
L 503.492409 -231.133242 
L 501.09087 -232.082549 
L 498.689331 -233.036633 
L 496.287792 -233.979858 
L 493.886252 -234.937421 
L 491.484713 -235.931115 
L 489.083174 -236.936587 
L 486.681635 -237.962468 
L 484.280096 -239.014201 
L 481.878557 -240.106795 
L 479.477018 -241.195195 
L 477.075479 -242.303029 
L 474.67394 -243.41901 
L 472.272401 -244.558665 
L 469.870862 -245.712655 
L 467.469323 -246.872272 
L 465.067784 -248.027262 
L 462.666244 -249.172824 
L 460.264705 -250.338169 
L 457.863166 -251.508954 
L 455.461627 -252.669314 
L 453.060088 -253.861363 
L 450.658549 -255.064809 
L 448.25701 -256.305632 
L 445.855471 -257.535672 
L 443.453932 -258.780832 
L 441.052393 -260.062404 
L 438.650854 -261.380242 
L 436.249315 -262.685115 
L 433.847776 -263.963858 
L 431.446236 -265.282492 
L 429.044697 -266.621268 
L 426.643158 -267.947812 
L 424.241619 -269.298821 
L 421.84008 -270.687682 
L 419.438541 -272.078096 
L 417.037002 -273.475909 
L 414.635463 -274.900505 
L 412.233924 -276.342681 
L 409.832385 -277.774176 
L 407.430846 -279.257327 
L 405.029307 -280.734503 
L 402.627768 -282.241326 
L 400.226228 -283.749185 
L 397.824689 -285.292199 
L 395.42315 -286.806335 
L 393.021611 -288.306828 
L 390.620072 -289.83579 
L 388.218533 -291.408244 
L 385.816994 -292.998023 
L 383.415455 -294.563425 
L 381.013916 -296.136681 
L 378.612377 -297.726392 
L 376.210838 -299.301276 
L 373.809299 -300.848506 
L 371.407759 -302.410595 
L 369.00622 -303.985829 
L 366.604681 -305.583894 
L 364.203142 -307.167871 
L 361.801603 -308.782198 
L 359.400064 -310.371352 
L 356.998525 -311.955775 
L 354.596986 -313.547966 
L 352.195447 -315.11283 
L 349.793908 -316.663076 
L 347.392369 -318.284471 
L 344.99083 -319.963615 
L 342.589291 -321.575397 
L 340.187751 -323.196574 
L 337.786212 -324.838071 
L 335.384673 -326.492536 
L 332.983134 -328.149107 
L 330.581595 -329.82897 
L 328.180056 -331.510771 
L 325.778517 -333.191272 
L 323.376978 -334.881312 
L 320.975439 -336.599398 
L 318.5739 -338.331398 
L 316.172361 -340.094083 
L 313.770822 -341.856505 
L 311.369283 -343.649186 
L 308.967743 -345.4493 
L 306.566204 -347.225044 
L 304.164665 -349.05625 
L 301.763126 -350.922788 
L 299.361587 -352.780892 
L 296.960048 -354.594431 
L 294.558509 -356.445413 
L 292.15697 -358.297547 
L 289.755431 -360.151634 
L 287.353892 -362.04612 
L 284.952353 -363.965488 
L 282.550814 -365.870952 
L 280.149275 -367.783994 
L 277.747735 -369.70563 
L 275.346196 -371.625118 
L 272.944657 -373.56018 
L 270.543118 -375.476938 
L 268.141579 -377.396236 
L 265.74004 -379.343303 
L 263.338501 -381.276972 
L 260.936962 -383.254346 
L 258.535423 -385.252701 
L 256.133884 -387.225307 
L 253.732345 -389.170638 
L 251.330806 -391.090676 
L 248.929267 -393.039664 
L 246.527727 -395.032923 
L 244.126188 -397.01179 
L 241.724649 -398.965614 
L 239.32311 -400.905869 
L 236.921571 -402.81243 
L 234.520032 -404.725277 
L 232.118493 -406.67222 
L 229.716954 -408.627582 
L 227.315415 -410.569634 
L 224.913876 -412.508788 
L 222.512337 -414.460583 
L 220.110798 -416.364954 
L 217.709259 -418.240146 
L 215.307719 -420.138538 
L 212.90618 -421.951469 
L 210.504641 -423.740988 
L 208.103102 -425.561974 
L 205.701563 -427.396726 
L 203.300024 -429.181953 
L 200.898485 -430.907914 
L 198.496946 -432.555512 
L 196.095407 -434.196167 
L 193.693868 -435.876806 
L 191.292329 -437.529258 
L 188.89079 -439.175632 
L 186.48925 -440.805836 
L 184.087711 -442.39402 
L 181.686172 -443.957612 
L 179.284633 -445.540024 
L 176.883094 -447.095182 
L 174.481555 -448.637939 
L 172.080016 -450.180225 
L 169.678477 -451.675441 
L 167.276938 -453.134883 
z
" style="stroke: #74b8f8; stroke-opacity: 0.2"/>
    </defs>
    <g clip-path="url(#p47c74a6a5c)">
     <use xlink:href="#ma8647808fc" x="0" y="600" style="fill: #74b8f8; fill-opacity: 0.2; stroke: #74b8f8; stroke-opacity: 0.2"/>
    </g>
   </g>
   <g id="PolyCollection_2">
    <defs>
     <path id="m1bc6bfc309" d="M 116.844617 -477.672251 
L 116.844617 -476.460254 
L 119.246156 -475.766994 
L 121.647695 -475.037227 
L 124.049234 -474.304969 
L 126.450774 -473.596683 
L 128.852313 -472.907848 
L 131.253852 -472.193591 
L 133.655391 -471.465995 
L 136.05693 -470.727888 
L 138.458469 -470.000966 
L 140.860008 -469.272457 
L 143.261547 -467.887007 
L 145.663086 -466.480313 
L 148.064625 -465.067026 
L 150.466164 -463.60019 
L 152.867703 -462.11706 
L 155.269242 -460.643947 
L 157.670782 -459.135108 
L 160.072321 -457.653067 
L 162.47386 -456.163844 
L 164.875399 -454.648 
L 164.875399 -454.648 
L 164.875399 -454.648 
L 162.47386 -456.222801 
L 160.072321 -457.783226 
L 157.670782 -459.297917 
L 155.269242 -460.852637 
L 152.867703 -462.408725 
L 150.466164 -464.020459 
L 148.064625 -465.618026 
L 145.663086 -467.154003 
L 143.261547 -468.677086 
L 140.860008 -470.144635 
L 138.458469 -470.93941 
L 136.05693 -471.707874 
L 133.655391 -472.443723 
L 131.253852 -473.186838 
L 128.852313 -473.925101 
L 126.450774 -474.64535 
L 124.049234 -475.374036 
L 121.647695 -476.137996 
L 119.246156 -476.906485 
L 116.844617 -477.672251 
z
" style="stroke: #000000; stroke-opacity: 0.2"/>
    </defs>
    <g clip-path="url(#p47c74a6a5c)">
     <use xlink:href="#m1bc6bfc309" x="0" y="600" style="fill-opacity: 0.2; stroke: #000000; stroke-opacity: 0.2"/>
    </g>
   </g>
   <g id="PolyCollection_3">
    <defs>
     <path id="me72a3eceaf" d="M 167.276938 -452.994345 
L 167.276938 -452.773885 
L 169.678477 -450.910881 
L 172.080016 -449.047 
L 174.481555 -447.062491 
L 176.883094 -445.050328 
L 179.284633 -442.911039 
L 181.686172 -440.720046 
L 184.087711 -438.540431 
L 186.48925 -436.365415 
L 188.89079 -434.188568 
L 191.292329 -431.970145 
L 193.693868 -429.753997 
L 196.095407 -427.527112 
L 198.496946 -425.339489 
L 200.898485 -423.132003 
L 203.300024 -420.931991 
L 205.701563 -418.688046 
L 208.103102 -416.395962 
L 210.504641 -414.032256 
L 212.90618 -411.596634 
L 215.307719 -409.036875 
L 217.709259 -406.535906 
L 220.110798 -404.268483 
L 222.512337 -402.06485 
L 224.913876 -399.89422 
L 227.315415 -397.718319 
L 229.716954 -395.545052 
L 232.118493 -393.32009 
L 234.520032 -391.116479 
L 236.921571 -388.607869 
L 239.32311 -385.927047 
L 241.724649 -383.198349 
L 244.126188 -380.424597 
L 246.527727 -377.646321 
L 248.929267 -374.794883 
L 251.330806 -371.925199 
L 253.732345 -368.966759 
L 256.133884 -365.924429 
L 258.535423 -362.82283 
L 260.936962 -359.688947 
L 263.338501 -356.577073 
L 265.74004 -353.42681 
L 268.141579 -350.202234 
L 270.543118 -346.985859 
L 272.944657 -343.753521 
L 275.346196 -340.526299 
L 277.747735 -337.240798 
L 280.149275 -333.869976 
L 282.550814 -330.527407 
L 284.952353 -327.206691 
L 287.353892 -323.914851 
L 289.755431 -320.720226 
L 292.15697 -317.483522 
L 294.558509 -314.246311 
L 296.960048 -311.001989 
L 299.361587 -307.71939 
L 301.763126 -304.3218 
L 304.164665 -300.904547 
L 306.566204 -297.669975 
L 308.967743 -294.410997 
L 311.369283 -291.158464 
L 313.770822 -287.973356 
L 316.172361 -284.805004 
L 318.5739 -281.582202 
L 320.975439 -278.404956 
L 323.376978 -275.26163 
L 325.778517 -272.142195 
L 328.180056 -269.048188 
L 330.581595 -265.923948 
L 332.983134 -262.776989 
L 335.384673 -259.642364 
L 337.786212 -256.52922 
L 340.187751 -253.421821 
L 342.589291 -250.317111 
L 344.99083 -247.236819 
L 347.392369 -244.130281 
L 349.793908 -241.016295 
L 352.195447 -237.950232 
L 354.596986 -234.969396 
L 356.998525 -232.067241 
L 359.400064 -229.187564 
L 361.801603 -226.265203 
L 364.203142 -223.412273 
L 366.604681 -220.574133 
L 369.00622 -217.750395 
L 371.407759 -214.907868 
L 373.809299 -212.210437 
L 376.210838 -209.848852 
L 378.612377 -207.540914 
L 381.013916 -205.279732 
L 383.415455 -203.061228 
L 385.816994 -200.875704 
L 388.218533 -198.748052 
L 390.620072 -196.57006 
L 393.021611 -194.438064 
L 395.42315 -192.351714 
L 397.824689 -190.31321 
L 400.226228 -188.327027 
L 402.627768 -186.331672 
L 405.029307 -184.162936 
L 407.430846 -182.451916 
L 409.832385 -180.806784 
L 412.233924 -179.183662 
L 414.635463 -177.549499 
L 417.037002 -175.938155 
L 419.438541 -174.365845 
L 421.84008 -172.817379 
L 424.241619 -171.285742 
L 426.643158 -169.729801 
L 429.044697 -168.189224 
L 431.446236 -166.666515 
L 433.847776 -165.138583 
L 436.249315 -163.616033 
L 438.650854 -162.078892 
L 441.052393 -160.552849 
L 443.453932 -159.042458 
L 445.855471 -157.511188 
L 448.25701 -155.972576 
L 450.658549 -154.47069 
L 453.060088 -152.982032 
L 455.461627 -151.520537 
L 457.863166 -150.092426 
L 460.264705 -148.707092 
L 462.666244 -147.345014 
L 465.067784 -146.004859 
L 467.469323 -144.691859 
L 469.870862 -143.372171 
L 472.272401 -142.07963 
L 474.67394 -140.808648 
L 477.075479 -139.585538 
L 479.477018 -138.41656 
L 481.878557 -137.277417 
L 484.280096 -136.14022 
L 486.681635 -135.049665 
L 489.083174 -133.991164 
L 491.484713 -132.979606 
L 493.886252 -132.002573 
L 496.287792 -131.039642 
L 498.689331 -130.073935 
L 501.09087 -129.113866 
L 503.492409 -128.174011 
L 505.893948 -127.236203 
L 508.295487 -126.292083 
L 510.697026 -125.371431 
L 513.098565 -124.440906 
L 515.500104 -123.512862 
L 517.901643 -122.599252 
L 520.303182 -121.684909 
L 522.704721 -120.813115 
L 525.10626 -119.955884 
L 527.5078 -119.084699 
L 529.909339 -118.231431 
L 532.310878 -117.386677 
L 534.712417 -116.5645 
L 537.113956 -115.756152 
L 539.515495 -114.956124 
L 541.917034 -114.167036 
L 544.318573 -113.402704 
L 546.720112 -112.667904 
L 549.121651 -111.959732 
L 551.52319 -111.455534 
L 553.924729 -111.029122 
L 556.326268 -110.622661 
L 558.727808 -110.22087 
L 561.129347 -109.830213 
L 563.530886 -109.441422 
L 565.932425 -109.061357 
L 568.333964 -108.692094 
L 570.735503 -108.317984 
L 573.137042 -107.940021 
L 575.538581 -107.585225 
L 577.94012 -107.241356 
L 580.341659 -106.899512 
L 582.743198 -106.548876 
L 585.144737 -106.200896 
L 587.546277 -105.873396 
L 589.947816 -105.551886 
L 592.349355 -105.235006 
L 594.750894 -104.924928 
L 597.152433 -104.626055 
L 599.553972 -104.336234 
L 601.955511 -104.052317 
L 604.35705 -103.773813 
L 606.758589 -103.502066 
L 609.160128 -103.235936 
L 611.561667 -102.976247 
L 613.963206 -102.721989 
L 616.364745 -102.476302 
L 618.766285 -102.25037 
L 621.167824 -102.032198 
L 623.569363 -101.814673 
L 625.970902 -101.598998 
L 628.372441 -101.39099 
L 630.77398 -101.193052 
L 633.175519 -101.005445 
L 635.577058 -100.823157 
L 637.978597 -100.645389 
L 640.380136 -100.475818 
L 642.781675 -100.307838 
L 645.183214 -100.141791 
L 647.584753 -99.981292 
L 649.986293 -99.824913 
L 652.387832 -99.669983 
L 654.789371 -99.525799 
L 657.19091 -99.355566 
L 659.592449 -99.14731 
L 661.993988 -98.945874 
L 664.395527 -98.750015 
L 666.797066 -98.558792 
L 669.198605 -98.373428 
L 671.600144 -98.195961 
L 674.001683 -98.026102 
L 676.403222 -97.864485 
L 678.804761 -97.711251 
L 681.206301 -97.561027 
L 683.60784 -97.419474 
L 686.009379 -97.284238 
L 688.410918 -97.151927 
L 690.812457 -97.023026 
L 693.213996 -96.897966 
L 695.615535 -96.780846 
L 698.017074 -96.669151 
L 700.418613 -96.561243 
L 702.820152 -96.456756 
L 705.221691 -96.354942 
L 707.62323 -96.254725 
L 710.024769 -96.156014 
L 712.426309 -96.059389 
L 714.827848 -95.963993 
L 717.229387 -95.870107 
L 719.630926 -95.775481 
L 722.032465 -95.683952 
L 724.434004 -95.590167 
L 726.835543 -95.494673 
L 729.237082 -95.404166 
L 731.638621 -95.310616 
L 734.04016 -95.21689 
L 736.441699 -95.123765 
L 738.843238 -95.034072 
L 741.244777 -94.944712 
L 743.646317 -94.85273 
L 746.047856 -94.761814 
L 748.449395 -94.672566 
L 750.850934 -94.583347 
L 753.252473 -94.492725 
L 755.654012 -94.404499 
L 758.055551 -94.318457 
L 760.45709 -94.233946 
L 762.858629 -94.150701 
L 765.260168 -94.069619 
L 767.661707 -93.990634 
L 770.063246 -93.913344 
L 772.464786 -93.839306 
L 774.866325 -93.769016 
L 777.267864 -93.699874 
L 779.669403 -93.634192 
L 782.070942 -93.569746 
L 784.472481 -93.508173 
L 786.87402 -93.447419 
L 789.275559 -93.389024 
L 791.677098 -93.331186 
L 794.078637 -93.273568 
L 796.480176 -93.21744 
L 798.881715 -93.16336 
L 801.283254 -93.112715 
L 803.684794 -93.059752 
L 806.086333 -93.007303 
L 808.487872 -92.955325 
L 810.889411 -92.904976 
L 813.29095 -92.856369 
L 815.692489 -92.808137 
L 818.094028 -92.78332 
L 820.495567 -92.758652 
L 822.897106 -92.732942 
L 825.298645 -92.706979 
L 827.700184 -92.680966 
L 830.101723 -92.655965 
L 832.503262 -92.631023 
L 834.904802 -92.606188 
L 837.306341 -92.581486 
L 837.306341 -122.918394 
L 837.306341 -122.918394 
L 834.904802 -123.044446 
L 832.503262 -123.172627 
L 830.101723 -123.301107 
L 827.700184 -123.426651 
L 825.298645 -123.546844 
L 822.897106 -123.655092 
L 820.495567 -123.766582 
L 818.094028 -123.877229 
L 815.692489 -123.992546 
L 813.29095 -124.217735 
L 810.889411 -124.440569 
L 808.487872 -124.661165 
L 806.086333 -124.877461 
L 803.684794 -125.089914 
L 801.283254 -125.306988 
L 798.881715 -125.52687 
L 796.480176 -125.746378 
L 794.078637 -125.96229 
L 791.677098 -126.179388 
L 789.275559 -126.394714 
L 786.87402 -126.611287 
L 784.472481 -126.825524 
L 782.070942 -127.044416 
L 779.669403 -127.261931 
L 777.267864 -127.484258 
L 774.866325 -127.71799 
L 772.464786 -127.954878 
L 770.063246 -128.191616 
L 767.661707 -128.427815 
L 765.260168 -128.668462 
L 762.858629 -128.91758 
L 760.45709 -129.182694 
L 758.055551 -129.452033 
L 755.654012 -129.725676 
L 753.252473 -129.995288 
L 750.850934 -130.267638 
L 748.449395 -130.541134 
L 746.047856 -130.822172 
L 743.646317 -131.109148 
L 741.244777 -131.395821 
L 738.843238 -131.693338 
L 736.441699 -131.993883 
L 734.04016 -132.290314 
L 731.638621 -132.592728 
L 729.237082 -132.901176 
L 726.835543 -133.228506 
L 724.434004 -133.563005 
L 722.032465 -133.901331 
L 719.630926 -134.250002 
L 717.229387 -134.609987 
L 714.827848 -134.987559 
L 712.426309 -135.363752 
L 710.024769 -135.756382 
L 707.62323 -136.158999 
L 705.221691 -136.577748 
L 702.820152 -137.015075 
L 700.418613 -137.469522 
L 698.017074 -137.934108 
L 695.615535 -138.410736 
L 693.213996 -138.896873 
L 690.812457 -139.377495 
L 688.410918 -139.870678 
L 686.009379 -140.376159 
L 683.60784 -140.899221 
L 681.206301 -141.437007 
L 678.804761 -141.959988 
L 676.403222 -142.494145 
L 674.001683 -143.043423 
L 671.600144 -143.604394 
L 669.198605 -144.167307 
L 666.797066 -144.727782 
L 664.395527 -145.297922 
L 661.993988 -145.878595 
L 659.592449 -146.466455 
L 657.19091 -147.052518 
L 654.789371 -147.633267 
L 652.387832 -148.223557 
L 649.986293 -148.821357 
L 647.584753 -149.410574 
L 645.183214 -150.010833 
L 642.781675 -150.63124 
L 640.380136 -151.256846 
L 637.978597 -151.891564 
L 635.577058 -152.532773 
L 633.175519 -153.169018 
L 630.77398 -153.826722 
L 628.372441 -154.476634 
L 625.970902 -155.129227 
L 623.569363 -155.775765 
L 621.167824 -156.425543 
L 618.766285 -157.080157 
L 616.364745 -157.743148 
L 613.963206 -158.404096 
L 611.561667 -159.070432 
L 609.160128 -159.751721 
L 606.758589 -160.461342 
L 604.35705 -161.178079 
L 601.955511 -161.894773 
L 599.553972 -162.623171 
L 597.152433 -163.36335 
L 594.750894 -164.131645 
L 592.349355 -164.888985 
L 589.947816 -165.669617 
L 587.546277 -166.455302 
L 585.144737 -167.255182 
L 582.743198 -168.054957 
L 580.341659 -168.862756 
L 577.94012 -169.676883 
L 575.538581 -170.510174 
L 573.137042 -171.366359 
L 570.735503 -172.158634 
L 568.333964 -172.904405 
L 565.932425 -173.64262 
L 563.530886 -174.391396 
L 561.129347 -175.153429 
L 558.727808 -175.912321 
L 556.326268 -176.708764 
L 553.924729 -177.513662 
L 551.52319 -178.349781 
L 549.121651 -179.199913 
L 546.720112 -180.0829 
L 544.318573 -180.959177 
L 541.917034 -181.837928 
L 539.515495 -182.715432 
L 537.113956 -183.597689 
L 534.712417 -184.457929 
L 532.310878 -185.316843 
L 529.909339 -186.183664 
L 527.5078 -187.050606 
L 525.10626 -187.922537 
L 522.704721 -188.738952 
L 520.303182 -189.568234 
L 517.901643 -190.397913 
L 515.500104 -191.274896 
L 513.098565 -192.178122 
L 510.697026 -193.115152 
L 508.295487 -194.051414 
L 505.893948 -195.004817 
L 503.492409 -195.918212 
L 501.09087 -196.994844 
L 498.689331 -198.114378 
L 496.287792 -199.214549 
L 493.886252 -200.283993 
L 491.484713 -201.370204 
L 489.083174 -202.499257 
L 486.681635 -203.629628 
L 484.280096 -204.800696 
L 481.878557 -206.126813 
L 479.477018 -207.5171 
L 477.075479 -208.90816 
L 474.67394 -210.331131 
L 472.272401 -211.788991 
L 469.870862 -213.253522 
L 467.469323 -214.780123 
L 465.067784 -216.336791 
L 462.666244 -217.89486 
L 460.264705 -219.426839 
L 457.863166 -220.934824 
L 455.461627 -222.434889 
L 453.060088 -223.939002 
L 450.658549 -225.405527 
L 448.25701 -226.873383 
L 445.855471 -228.404602 
L 443.453932 -230.087303 
L 441.052393 -231.790025 
L 438.650854 -233.503172 
L 436.249315 -235.213919 
L 433.847776 -236.969464 
L 431.446236 -238.737552 
L 429.044697 -240.537401 
L 426.643158 -242.341135 
L 424.241619 -244.159553 
L 421.84008 -246.009498 
L 419.438541 -247.83052 
L 417.037002 -249.652864 
L 414.635463 -251.485229 
L 412.233924 -253.327761 
L 409.832385 -255.192108 
L 407.430846 -257.051745 
L 405.029307 -258.909593 
L 402.627768 -260.771064 
L 400.226228 -262.644447 
L 397.824689 -264.49329 
L 395.42315 -266.343868 
L 393.021611 -268.21811 
L 390.620072 -270.077091 
L 388.218533 -271.947656 
L 385.816994 -273.818983 
L 383.415455 -275.680298 
L 381.013916 -277.544773 
L 378.612377 -279.421183 
L 376.210838 -281.313637 
L 373.809299 -283.17926 
L 371.407759 -285.052119 
L 369.00622 -286.94701 
L 366.604681 -288.865728 
L 364.203142 -290.78186 
L 361.801603 -292.712855 
L 359.400064 -294.664829 
L 356.998525 -296.597065 
L 354.596986 -298.541454 
L 352.195447 -300.503218 
L 349.793908 -302.468028 
L 347.392369 -304.423453 
L 344.99083 -306.330656 
L 342.589291 -308.269428 
L 340.187751 -310.200637 
L 337.786212 -312.222018 
L 335.384673 -314.349996 
L 332.983134 -316.506882 
L 330.581595 -318.649755 
L 328.180056 -320.786284 
L 325.778517 -322.935372 
L 323.376978 -325.0946 
L 320.975439 -327.251377 
L 318.5739 -329.435923 
L 316.172361 -331.648583 
L 313.770822 -333.835129 
L 311.369283 -336.001356 
L 308.967743 -338.201561 
L 306.566204 -340.389965 
L 304.164665 -342.55181 
L 301.763126 -344.715832 
L 299.361587 -346.892498 
L 296.960048 -348.971548 
L 294.558509 -350.955881 
L 292.15697 -352.935425 
L 289.755431 -354.902926 
L 287.353892 -356.857639 
L 284.952353 -358.778619 
L 282.550814 -360.710564 
L 280.149275 -362.671556 
L 277.747735 -364.642818 
L 275.346196 -366.61554 
L 272.944657 -368.585827 
L 270.543118 -370.545591 
L 268.141579 -372.52243 
L 265.74004 -374.535067 
L 263.338501 -376.553073 
L 260.936962 -378.599501 
L 258.535423 -380.640375 
L 256.133884 -382.658553 
L 253.732345 -384.653518 
L 251.330806 -386.642948 
L 248.929267 -388.624565 
L 246.527727 -390.61354 
L 244.126188 -392.682173 
L 241.724649 -394.616101 
L 239.32311 -396.669174 
L 236.921571 -398.665253 
L 234.520032 -400.634746 
L 232.118493 -402.584428 
L 229.716954 -404.495756 
L 227.315415 -406.383975 
L 224.913876 -408.297449 
L 222.512337 -410.304519 
L 220.110798 -412.341528 
L 217.709259 -414.35228 
L 215.307719 -416.355237 
L 212.90618 -418.334376 
L 210.504641 -420.305007 
L 208.103102 -422.268373 
L 205.701563 -424.216128 
L 203.300024 -426.179845 
L 200.898485 -428.104963 
L 198.496946 -430.025955 
L 196.095407 -431.888474 
L 193.693868 -433.772502 
L 191.292329 -435.639562 
L 188.89079 -437.460988 
L 186.48925 -439.271633 
L 184.087711 -441.045121 
L 181.686172 -442.800067 
L 179.284633 -444.522941 
L 176.883094 -446.252133 
L 174.481555 -447.985091 
L 172.080016 -449.686881 
L 169.678477 -451.350924 
L 167.276938 -452.994345 
z
" style="stroke: #f47100; stroke-opacity: 0.2"/>
    </defs>
    <g clip-path="url(#p47c74a6a5c)">
     <use xlink:href="#me72a3eceaf" x="0" y="600" style="fill: #f47100; fill-opacity: 0.2; stroke: #f47100; stroke-opacity: 0.2"/>
    </g>
   </g>
   <g id="PolyCollection_4">
    <defs>
     <path id="m9112a9374b" d="M 116.844617 -479.839285 
L 116.844617 -477.066793 
L 119.246156 -476.40775 
L 121.647695 -475.695143 
L 124.049234 -474.976517 
L 126.450774 -474.276268 
L 128.852313 -473.601056 
L 131.253852 -472.896626 
L 133.655391 -472.174559 
L 136.05693 -471.433032 
L 138.458469 -470.724694 
L 140.860008 -470.027165 
L 143.261547 -468.678599 
L 145.663086 -467.286565 
L 148.064625 -465.811479 
L 150.466164 -464.235882 
L 152.867703 -462.771766 
L 155.269242 -461.219706 
L 157.670782 -459.590432 
L 160.072321 -457.962245 
L 162.47386 -456.304503 
L 164.875399 -454.648 
L 164.875399 -454.648 
L 164.875399 -454.648 
L 162.47386 -456.502984 
L 160.072321 -458.31284 
L 157.670782 -460.125723 
L 155.269242 -461.854553 
L 152.867703 -463.554626 
L 150.466164 -465.280425 
L 148.064625 -466.986022 
L 145.663086 -468.623735 
L 143.261547 -470.191469 
L 140.860008 -471.698359 
L 138.458469 -472.464893 
L 136.05693 -473.206887 
L 133.655391 -473.930577 
L 131.253852 -474.653787 
L 128.852313 -475.432101 
L 126.450774 -476.183289 
L 124.049234 -477.148649 
L 121.647695 -478.023523 
L 119.246156 -478.987977 
L 116.844617 -479.839285 
z
" style="stroke: #000000; stroke-opacity: 0.2"/>
    </defs>
    <g clip-path="url(#p47c74a6a5c)">
     <use xlink:href="#m9112a9374b" x="0" y="600" style="fill-opacity: 0.2; stroke: #000000; stroke-opacity: 0.2"/>
    </g>
   </g>
   <g id="PolyCollection_5">
    <defs>
     <path id="m3df8d2d5cc" d="M 167.276938 -453.173761 
L 167.276938 -452.679969 
L 169.678477 -450.677264 
L 172.080016 -448.633476 
L 174.481555 -446.434263 
L 176.883094 -444.156081 
L 179.284633 -441.835695 
L 181.686172 -439.382842 
L 184.087711 -436.751597 
L 186.48925 -434.01284 
L 188.89079 -431.180879 
L 191.292329 -428.286568 
L 193.693868 -425.285913 
L 196.095407 -422.188208 
L 198.496946 -419.032726 
L 200.898485 -415.807762 
L 203.300024 -412.556444 
L 205.701563 -409.299973 
L 208.103102 -405.942299 
L 210.504641 -402.575605 
L 212.90618 -399.177364 
L 215.307719 -395.83773 
L 217.709259 -392.387692 
L 220.110798 -388.949408 
L 222.512337 -385.518895 
L 224.913876 -382.064168 
L 227.315415 -378.55103 
L 229.716954 -375.097985 
L 232.118493 -371.702107 
L 234.520032 -368.289998 
L 236.921571 -364.884949 
L 239.32311 -361.413889 
L 241.724649 -357.931895 
L 244.126188 -354.486899 
L 246.527727 -351.066056 
L 248.929267 -347.690681 
L 251.330806 -344.360755 
L 253.732345 -340.954709 
L 256.133884 -337.508666 
L 258.535423 -334.103821 
L 260.936962 -330.660085 
L 263.338501 -327.248723 
L 265.74004 -323.851536 
L 268.141579 -320.455624 
L 270.543118 -317.087096 
L 272.944657 -313.720954 
L 275.346196 -310.3729 
L 277.747735 -307.006942 
L 280.149275 -303.689614 
L 282.550814 -300.428177 
L 284.952353 -297.15248 
L 287.353892 -293.983722 
L 289.755431 -290.87022 
L 292.15697 -287.78282 
L 294.558509 -284.68591 
L 296.960048 -281.570801 
L 299.361587 -278.445283 
L 301.763126 -275.426684 
L 304.164665 -272.469805 
L 306.566204 -269.538767 
L 308.967743 -266.669808 
L 311.369283 -263.828811 
L 313.770822 -261.01029 
L 316.172361 -258.158241 
L 318.5739 -255.305759 
L 320.975439 -252.477874 
L 323.376978 -249.723517 
L 325.778517 -247.023912 
L 328.180056 -244.349763 
L 330.581595 -241.704011 
L 332.983134 -239.112017 
L 335.384673 -236.503829 
L 337.786212 -233.938433 
L 340.187751 -231.429585 
L 342.589291 -228.983023 
L 344.99083 -226.619599 
L 347.392369 -224.321739 
L 349.793908 -222.050804 
L 352.195447 -219.843481 
L 354.596986 -217.671104 
L 356.998525 -215.547425 
L 359.400064 -213.47035 
L 361.801603 -211.459052 
L 364.203142 -209.533748 
L 366.604681 -207.674506 
L 369.00622 -205.823127 
L 371.407759 -204.017309 
L 373.809299 -202.258394 
L 376.210838 -200.581747 
L 378.612377 -198.921655 
L 381.013916 -197.293759 
L 383.415455 -195.713672 
L 385.816994 -194.188762 
L 388.218533 -192.672693 
L 390.620072 -191.196468 
L 393.021611 -189.711392 
L 395.42315 -188.253839 
L 397.824689 -186.815005 
L 400.226228 -185.406398 
L 402.627768 -184.012274 
L 405.029307 -182.622598 
L 407.430846 -181.226109 
L 409.832385 -179.845695 
L 412.233924 -178.490679 
L 414.635463 -177.123198 
L 417.037002 -175.797371 
L 419.438541 -174.456246 
L 421.84008 -173.130001 
L 424.241619 -171.779172 
L 426.643158 -170.465395 
L 429.044697 -169.175219 
L 431.446236 -167.875887 
L 433.847776 -166.576892 
L 436.249315 -165.288711 
L 438.650854 -164.009014 
L 441.052393 -162.720183 
L 443.453932 -161.43455 
L 445.855471 -160.181633 
L 448.25701 -158.929162 
L 450.658549 -157.702335 
L 453.060088 -156.486061 
L 455.461627 -155.28221 
L 457.863166 -154.094425 
L 460.264705 -152.924743 
L 462.666244 -151.792938 
L 465.067784 -150.69081 
L 467.469323 -149.619228 
L 469.870862 -148.578765 
L 472.272401 -147.564954 
L 474.67394 -146.544761 
L 477.075479 -145.51609 
L 479.477018 -144.539658 
L 481.878557 -143.574937 
L 484.280096 -142.620326 
L 486.681635 -141.669972 
L 489.083174 -140.763268 
L 491.484713 -139.876872 
L 493.886252 -139.013175 
L 496.287792 -138.164294 
L 498.689331 -137.321158 
L 501.09087 -136.48416 
L 503.492409 -135.661624 
L 505.893948 -134.862854 
L 508.295487 -134.059772 
L 510.697026 -133.275569 
L 513.098565 -132.500619 
L 515.500104 -131.75744 
L 517.901643 -130.587014 
L 520.303182 -129.312451 
L 522.704721 -128.077777 
L 525.10626 -126.871444 
L 527.5078 -125.68084 
L 529.909339 -124.518979 
L 532.310878 -123.382275 
L 534.712417 -122.271177 
L 537.113956 -121.214773 
L 539.515495 -120.17417 
L 541.917034 -119.151 
L 544.318573 -118.147211 
L 546.720112 -117.164342 
L 549.121651 -116.212516 
L 551.52319 -115.257962 
L 553.924729 -114.320579 
L 556.326268 -113.414949 
L 558.727808 -112.542995 
L 561.129347 -111.684314 
L 563.530886 -110.861762 
L 565.932425 -110.141723 
L 568.333964 -109.470235 
L 570.735503 -108.825913 
L 573.137042 -108.194837 
L 575.538581 -107.573521 
L 577.94012 -106.953705 
L 580.341659 -106.345046 
L 582.743198 -105.746087 
L 585.144737 -105.146743 
L 587.546277 -104.560858 
L 589.947816 -104.005772 
L 592.349355 -103.468583 
L 594.750894 -102.951295 
L 597.152433 -102.437796 
L 599.553972 -101.946717 
L 601.955511 -101.467262 
L 604.35705 -100.98632 
L 606.758589 -100.503455 
L 609.160128 -100.017766 
L 611.561667 -99.555481 
L 613.963206 -99.104574 
L 616.364745 -98.663031 
L 618.766285 -98.228181 
L 621.167824 -97.799058 
L 623.569363 -97.380491 
L 625.970902 -96.966923 
L 628.372441 -96.566868 
L 630.77398 -96.181402 
L 633.175519 -95.810072 
L 635.577058 -95.439777 
L 637.978597 -95.077713 
L 640.380136 -94.72186 
L 642.781675 -94.378469 
L 645.183214 -94.049399 
L 647.584753 -93.719701 
L 649.986293 -93.400608 
L 652.387832 -93.087419 
L 654.789371 -92.783052 
L 657.19091 -92.505819 
L 659.592449 -92.233004 
L 661.993988 -91.970942 
L 664.395527 -91.725324 
L 666.797066 -91.487241 
L 669.198605 -91.261491 
L 671.600144 -91.041214 
L 674.001683 -90.830849 
L 676.403222 -90.618551 
L 678.804761 -90.410407 
L 681.206301 -90.206179 
L 683.60784 -90.015299 
L 686.009379 -89.835755 
L 688.410918 -89.658048 
L 690.812457 -89.479492 
L 693.213996 -89.307589 
L 695.615535 -89.142993 
L 698.017074 -88.988081 
L 700.418613 -88.841568 
L 702.820152 -88.708228 
L 705.221691 -88.575967 
L 707.62323 -88.444927 
L 710.024769 -88.314904 
L 712.426309 -88.182728 
L 714.827848 -88.056669 
L 717.229387 -87.928907 
L 719.630926 -87.810785 
L 722.032465 -87.691208 
L 724.434004 -87.579683 
L 726.835543 -87.470101 
L 729.237082 -87.36332 
L 731.638621 -87.259737 
L 734.04016 -87.159478 
L 736.441699 -87.064776 
L 738.843238 -86.977098 
L 741.244777 -86.894232 
L 743.646317 -86.814951 
L 746.047856 -86.733669 
L 748.449395 -86.657266 
L 750.850934 -86.583522 
L 753.252473 -86.510969 
L 755.654012 -86.441762 
L 758.055551 -86.379111 
L 760.45709 -86.322247 
L 762.858629 -86.266482 
L 765.260168 -86.214347 
L 767.661707 -86.163817 
L 770.063246 -86.116094 
L 772.464786 -86.074779 
L 774.866325 -86.036686 
L 777.267864 -86.001067 
L 779.669403 -85.964525 
L 782.070942 -85.928657 
L 784.472481 -85.89361 
L 786.87402 -85.859937 
L 789.275559 -85.826929 
L 791.677098 -85.797292 
L 794.078637 -85.770254 
L 796.480176 -85.745156 
L 798.881715 -85.718817 
L 801.283254 -85.693131 
L 803.684794 -85.667524 
L 806.086333 -85.641909 
L 808.487872 -85.617346 
L 810.889411 -85.593501 
L 813.29095 -85.573072 
L 815.692489 -85.549692 
L 818.094028 -85.537778 
L 820.495567 -85.522881 
L 822.897106 -85.509496 
L 825.298645 -85.496868 
L 827.700184 -85.48644 
L 830.101723 -85.478042 
L 832.503262 -85.46953 
L 834.904802 -85.460464 
L 837.306341 -85.453211 
L 837.306341 -100.274124 
L 837.306341 -100.274124 
L 834.904802 -100.344554 
L 832.503262 -100.412176 
L 830.101723 -100.481073 
L 827.700184 -100.555243 
L 825.298645 -100.633856 
L 822.897106 -100.711516 
L 820.495567 -100.785898 
L 818.094028 -100.862846 
L 815.692489 -100.936047 
L 813.29095 -101.079477 
L 810.889411 -101.222079 
L 808.487872 -101.364568 
L 806.086333 -101.512579 
L 803.684794 -101.661222 
L 801.283254 -101.812796 
L 798.881715 -101.972279 
L 796.480176 -102.130718 
L 794.078637 -102.293836 
L 791.677098 -102.463247 
L 789.275559 -102.63703 
L 786.87402 -102.820284 
L 784.472481 -103.012929 
L 782.070942 -103.208936 
L 779.669403 -103.408388 
L 777.267864 -103.608533 
L 774.866325 -103.814872 
L 772.464786 -104.026162 
L 770.063246 -104.242125 
L 767.661707 -104.470138 
L 765.260168 -104.705813 
L 762.858629 -104.949042 
L 760.45709 -105.201021 
L 758.055551 -105.454874 
L 755.654012 -105.71529 
L 753.252473 -105.979915 
L 750.850934 -106.251331 
L 748.449395 -106.53592 
L 746.047856 -106.82293 
L 743.646317 -107.115376 
L 741.244777 -107.409195 
L 738.843238 -107.703751 
L 736.441699 -107.999016 
L 734.04016 -108.299566 
L 731.638621 -108.609282 
L 729.237082 -108.915976 
L 726.835543 -109.221522 
L 724.434004 -109.539667 
L 722.032465 -109.857192 
L 719.630926 -110.177582 
L 717.229387 -110.499951 
L 714.827848 -110.822828 
L 712.426309 -111.152046 
L 710.024769 -111.489622 
L 707.62323 -111.829914 
L 705.221691 -112.170296 
L 702.820152 -112.517758 
L 700.418613 -112.867648 
L 698.017074 -113.226854 
L 695.615535 -113.587364 
L 693.213996 -113.955544 
L 690.812457 -114.323666 
L 688.410918 -114.695851 
L 686.009379 -115.074771 
L 683.60784 -115.456539 
L 681.206301 -115.85454 
L 678.804761 -116.261119 
L 676.403222 -116.663498 
L 674.001683 -117.072158 
L 671.600144 -117.482556 
L 669.198605 -117.892906 
L 666.797066 -118.307977 
L 664.395527 -118.724011 
L 661.993988 -119.143402 
L 659.592449 -119.572149 
L 657.19091 -120.010068 
L 654.789371 -120.446461 
L 652.387832 -120.895779 
L 649.986293 -121.349357 
L 647.584753 -121.804504 
L 645.183214 -122.270849 
L 642.781675 -122.751727 
L 640.380136 -123.246446 
L 637.978597 -123.749045 
L 635.577058 -124.256114 
L 633.175519 -124.76422 
L 630.77398 -125.276749 
L 628.372441 -125.80533 
L 625.970902 -126.349355 
L 623.569363 -126.917276 
L 621.167824 -127.505217 
L 618.766285 -128.109438 
L 616.364745 -128.726033 
L 613.963206 -129.353789 
L 611.561667 -130.083396 
L 609.160128 -130.915578 
L 606.758589 -131.749694 
L 604.35705 -132.588309 
L 601.955511 -133.446296 
L 599.553972 -134.327727 
L 597.152433 -135.240907 
L 594.750894 -136.169398 
L 592.349355 -137.128742 
L 589.947816 -138.109238 
L 587.546277 -139.107248 
L 585.144737 -140.121384 
L 582.743198 -141.166752 
L 580.341659 -142.197891 
L 577.94012 -143.247284 
L 575.538581 -144.305524 
L 573.137042 -145.376059 
L 570.735503 -146.451676 
L 568.333964 -147.518303 
L 565.932425 -148.589865 
L 563.530886 -149.680279 
L 561.129347 -150.801485 
L 558.727808 -151.939811 
L 556.326268 -153.095767 
L 553.924729 -154.274894 
L 551.52319 -155.484823 
L 549.121651 -156.670096 
L 546.720112 -157.866711 
L 544.318573 -159.050135 
L 541.917034 -160.221126 
L 539.515495 -161.401459 
L 537.113956 -162.606331 
L 534.712417 -163.80195 
L 532.310878 -165.029324 
L 529.909339 -166.249096 
L 527.5078 -167.477295 
L 525.10626 -168.720578 
L 522.704721 -170.019249 
L 520.303182 -171.33912 
L 517.901643 -172.672309 
L 515.500104 -174.014891 
L 513.098565 -175.387677 
L 510.697026 -176.80546 
L 508.295487 -178.212234 
L 505.893948 -179.62237 
L 503.492409 -181.034548 
L 501.09087 -182.500026 
L 498.689331 -183.982645 
L 496.287792 -185.485655 
L 493.886252 -187.056598 
L 491.484713 -188.604123 
L 489.083174 -189.969676 
L 486.681635 -191.34562 
L 484.280096 -192.739612 
L 481.878557 -194.157376 
L 479.477018 -195.598151 
L 477.075479 -197.030249 
L 474.67394 -198.462618 
L 472.272401 -199.54974 
L 469.870862 -200.537785 
L 467.469323 -201.550101 
L 465.067784 -202.584018 
L 462.666244 -203.627905 
L 460.264705 -204.726236 
L 457.863166 -205.860923 
L 455.461627 -206.994306 
L 453.060088 -208.122816 
L 450.658549 -209.256274 
L 448.25701 -210.388883 
L 445.855471 -211.54616 
L 443.453932 -212.704297 
L 441.052393 -213.886332 
L 438.650854 -215.067257 
L 436.249315 -216.236835 
L 433.847776 -217.419647 
L 431.446236 -218.584233 
L 429.044697 -219.764871 
L 426.643158 -220.916263 
L 424.241619 -222.086976 
L 421.84008 -223.284365 
L 419.438541 -224.466676 
L 417.037002 -225.777218 
L 414.635463 -227.796073 
L 412.233924 -229.807744 
L 409.832385 -231.828906 
L 407.430846 -233.869422 
L 405.029307 -235.920224 
L 402.627768 -237.987805 
L 400.226228 -240.082443 
L 397.824689 -242.202393 
L 395.42315 -244.293904 
L 393.021611 -246.418798 
L 390.620072 -248.595783 
L 388.218533 -250.764724 
L 385.816994 -252.919004 
L 383.415455 -255.105609 
L 381.013916 -257.296783 
L 378.612377 -259.526316 
L 376.210838 -261.797968 
L 373.809299 -264.076089 
L 371.407759 -266.388593 
L 369.00622 -268.735537 
L 366.604681 -271.125761 
L 364.203142 -273.523782 
L 361.801603 -275.936144 
L 359.400064 -278.362399 
L 356.998525 -280.819758 
L 354.596986 -283.252104 
L 352.195447 -285.66563 
L 349.793908 -288.081555 
L 347.392369 -290.532108 
L 344.99083 -293.004211 
L 342.589291 -295.495215 
L 340.187751 -298.023304 
L 337.786212 -300.580555 
L 335.384673 -303.097801 
L 332.983134 -305.606908 
L 330.581595 -308.105552 
L 328.180056 -310.585635 
L 325.778517 -313.141339 
L 323.376978 -315.711158 
L 320.975439 -318.279585 
L 318.5739 -320.82617 
L 316.172361 -323.34636 
L 313.770822 -325.830033 
L 311.369283 -328.301856 
L 308.967743 -330.716346 
L 306.566204 -333.137729 
L 304.164665 -335.558421 
L 301.763126 -337.9733 
L 299.361587 -340.386159 
L 296.960048 -342.808837 
L 294.558509 -345.202683 
L 292.15697 -347.558337 
L 289.755431 -349.928479 
L 287.353892 -352.33843 
L 284.952353 -354.739945 
L 282.550814 -357.166312 
L 280.149275 -359.606411 
L 277.747735 -361.985869 
L 275.346196 -364.362238 
L 272.944657 -366.73753 
L 270.543118 -369.095255 
L 268.141579 -371.519036 
L 265.74004 -373.735648 
L 263.338501 -375.934235 
L 260.936962 -378.128971 
L 258.535423 -380.314392 
L 256.133884 -382.488564 
L 253.732345 -384.738849 
L 251.330806 -387.034881 
L 248.929267 -389.264695 
L 246.527727 -391.460796 
L 244.126188 -393.660775 
L 241.724649 -395.796338 
L 239.32311 -397.943988 
L 236.921571 -400.094994 
L 234.520032 -402.190468 
L 232.118493 -404.227029 
L 229.716954 -406.302748 
L 227.315415 -408.490058 
L 224.913876 -410.697354 
L 222.512337 -412.873842 
L 220.110798 -414.962523 
L 217.709259 -416.946719 
L 215.307719 -418.871081 
L 212.90618 -420.758226 
L 210.504641 -422.649448 
L 208.103102 -424.681774 
L 205.701563 -426.555454 
L 203.300024 -428.3744 
L 200.898485 -430.184483 
L 198.496946 -431.920452 
L 196.095407 -433.700568 
L 193.693868 -435.480876 
L 191.292329 -437.180001 
L 188.89079 -438.838086 
L 186.48925 -440.539126 
L 184.087711 -442.230552 
L 181.686172 -443.878288 
L 179.284633 -445.458401 
L 176.883094 -447.025831 
L 174.481555 -448.60539 
L 172.080016 -450.148865 
L 169.678477 -451.650394 
L 167.276938 -453.173761 
z
" style="stroke: #d01e04; stroke-opacity: 0.2"/>
    </defs>
    <g clip-path="url(#p47c74a6a5c)">
     <use xlink:href="#m3df8d2d5cc" x="0" y="600" style="fill: #d01e04; fill-opacity: 0.2; stroke: #d01e04; stroke-opacity: 0.2"/>
    </g>
   </g>
   <g id="PolyCollection_6">
    <defs>
     <path id="mf0145a3445" d="M 116.844617 -480.076423 
L 116.844617 -476.396665 
L 119.246156 -475.682182 
L 121.647695 -474.905118 
L 124.049234 -474.156995 
L 126.450774 -473.423142 
L 128.852313 -472.749408 
L 131.253852 -472.04652 
L 133.655391 -471.326033 
L 136.05693 -470.586129 
L 138.458469 -469.879341 
L 140.860008 -469.183338 
L 143.261547 -467.754208 
L 145.663086 -466.316212 
L 148.064625 -464.86159 
L 150.466164 -463.447202 
L 152.867703 -462.030018 
L 155.269242 -460.61234 
L 157.670782 -459.126328 
L 160.072321 -457.607426 
L 162.47386 -456.134743 
L 164.875399 -454.648 
L 164.875399 -454.648 
L 164.875399 -454.648 
L 162.47386 -456.540627 
L 160.072321 -458.450269 
L 157.670782 -460.29772 
L 155.269242 -462.203196 
L 152.867703 -463.989496 
L 150.466164 -465.632566 
L 148.064625 -467.274686 
L 145.663086 -468.758025 
L 143.261547 -470.185286 
L 140.860008 -471.658491 
L 138.458469 -472.485305 
L 136.05693 -473.327794 
L 133.655391 -474.160049 
L 131.253852 -474.987349 
L 128.852313 -475.818093 
L 126.450774 -476.614835 
L 124.049234 -477.524451 
L 121.647695 -478.400174 
L 119.246156 -479.266866 
L 116.844617 -480.076423 
z
" style="stroke: #000000; stroke-opacity: 0.2"/>
    </defs>
    <g clip-path="url(#p47c74a6a5c)">
     <use xlink:href="#mf0145a3445" x="0" y="600" style="fill-opacity: 0.2; stroke: #000000; stroke-opacity: 0.2"/>
    </g>
   </g>
   <g id="matplotlib.axis_1">
    <g id="xtick_1">
     <g id="line2d_1">
      <defs>
       <path id="m2bcbb978df" d="M 0 0 
L 0 3.5 
" style="stroke: #000000; stroke-width: 0.8"/>
      </defs>
      <g>
       <use xlink:href="#m2bcbb978df" x="164.875399" y="515.56" style="stroke: #000000; stroke-width: 0.8"/>
      </g>
     </g>
     <g id="text_1">
      <!-- 2020 -->
      <g transform="translate(131.790399 542.315938)scale(0.26 -0.26)">
       <defs>
        <path id="DejaVuSans-32" d="M 1228 531 
L 3431 531 
L 3431 0 
L 469 0 
L 469 531 
Q 828 903 1448 1529 
Q 2069 2156 2228 2338 
Q 2531 2678 2651 2914 
Q 2772 3150 2772 3378 
Q 2772 3750 2511 3984 
Q 2250 4219 1831 4219 
Q 1534 4219 1204 4116 
Q 875 4013 500 3803 
L 500 4441 
Q 881 4594 1212 4672 
Q 1544 4750 1819 4750 
Q 2544 4750 2975 4387 
Q 3406 4025 3406 3419 
Q 3406 3131 3298 2873 
Q 3191 2616 2906 2266 
Q 2828 2175 2409 1742 
Q 1991 1309 1228 531 
z
" transform="scale(0.015625)"/>
        <path id="DejaVuSans-30" d="M 2034 4250 
Q 1547 4250 1301 3770 
Q 1056 3291 1056 2328 
Q 1056 1369 1301 889 
Q 1547 409 2034 409 
Q 2525 409 2770 889 
Q 3016 1369 3016 2328 
Q 3016 3291 2770 3770 
Q 2525 4250 2034 4250 
z
M 2034 4750 
Q 2819 4750 3233 4129 
Q 3647 3509 3647 2328 
Q 3647 1150 3233 529 
Q 2819 -91 2034 -91 
Q 1250 -91 836 529 
Q 422 1150 422 2328 
Q 422 3509 836 4129 
Q 1250 4750 2034 4750 
z
" transform="scale(0.015625)"/>
       </defs>
       <use xlink:href="#DejaVuSans-32"/>
       <use xlink:href="#DejaVuSans-30" x="63.623047"/>
       <use xlink:href="#DejaVuSans-32" x="127.246094"/>
       <use xlink:href="#DejaVuSans-30" x="190.869141"/>
      </g>
     </g>
    </g>
    <g id="xtick_2">
     <g id="line2d_2">
      <g>
       <use xlink:href="#m2bcbb978df" x="356.998525" y="515.56" style="stroke: #000000; stroke-width: 0.8"/>
      </g>
     </g>
     <g id="text_2">
      <!-- 2100 -->
      <g transform="translate(323.913525 542.315938)scale(0.26 -0.26)">
       <defs>
        <path id="DejaVuSans-31" d="M 794 531 
L 1825 531 
L 1825 4091 
L 703 3866 
L 703 4441 
L 1819 4666 
L 2450 4666 
L 2450 531 
L 3481 531 
L 3481 0 
L 794 0 
L 794 531 
z
" transform="scale(0.015625)"/>
       </defs>
       <use xlink:href="#DejaVuSans-32"/>
       <use xlink:href="#DejaVuSans-31" x="63.623047"/>
       <use xlink:href="#DejaVuSans-30" x="127.246094"/>
       <use xlink:href="#DejaVuSans-30" x="190.869141"/>
      </g>
     </g>
    </g>
    <g id="xtick_3">
     <g id="line2d_3">
      <g>
       <use xlink:href="#m2bcbb978df" x="597.152433" y="515.56" style="stroke: #000000; stroke-width: 0.8"/>
      </g>
     </g>
     <g id="text_3">
      <!-- 2200 -->
      <g transform="translate(564.067433 542.315938)scale(0.26 -0.26)">
       <use xlink:href="#DejaVuSans-32"/>
       <use xlink:href="#DejaVuSans-32" x="63.623047"/>
       <use xlink:href="#DejaVuSans-30" x="127.246094"/>
       <use xlink:href="#DejaVuSans-30" x="190.869141"/>
      </g>
     </g>
    </g>
    <g id="xtick_4">
     <g id="line2d_4">
      <g>
       <use xlink:href="#m2bcbb978df" x="837.306341" y="515.56" style="stroke: #000000; stroke-width: 0.8"/>
      </g>
     </g>
     <g id="text_4">
      <!-- 2300 -->
      <g transform="translate(804.221341 542.315938)scale(0.26 -0.26)">
       <defs>
        <path id="DejaVuSans-33" d="M 2597 2516 
Q 3050 2419 3304 2112 
Q 3559 1806 3559 1356 
Q 3559 666 3084 287 
Q 2609 -91 1734 -91 
Q 1441 -91 1130 -33 
Q 819 25 488 141 
L 488 750 
Q 750 597 1062 519 
Q 1375 441 1716 441 
Q 2309 441 2620 675 
Q 2931 909 2931 1356 
Q 2931 1769 2642 2001 
Q 2353 2234 1838 2234 
L 1294 2234 
L 1294 2753 
L 1863 2753 
Q 2328 2753 2575 2939 
Q 2822 3125 2822 3475 
Q 2822 3834 2567 4026 
Q 2313 4219 1838 4219 
Q 1578 4219 1281 4162 
Q 984 4106 628 3988 
L 628 4550 
Q 988 4650 1302 4700 
Q 1616 4750 1894 4750 
Q 2613 4750 3031 4423 
Q 3450 4097 3450 3541 
Q 3450 3153 3228 2886 
Q 3006 2619 2597 2516 
z
" transform="scale(0.015625)"/>
       </defs>
       <use xlink:href="#DejaVuSans-32"/>
       <use xlink:href="#DejaVuSans-33" x="63.623047"/>
       <use xlink:href="#DejaVuSans-30" x="127.246094"/>
       <use xlink:href="#DejaVuSans-30" x="190.869141"/>
      </g>
     </g>
    </g>
    <g id="text_5">
     <!-- Year -->
     <g transform="translate(457.010409 568.439687)scale(0.22 -0.22)">
      <defs>
       <path id="DejaVuSans-Bold-59" d="M -63 4666 
L 1253 4666 
L 2316 3003 
L 3378 4666 
L 4697 4666 
L 2919 1966 
L 2919 0 
L 1716 0 
L 1716 1966 
L -63 4666 
z
" transform="scale(0.015625)"/>
       <path id="DejaVuSans-Bold-65" d="M 4031 1759 
L 4031 1441 
L 1416 1441 
Q 1456 1047 1700 850 
Q 1944 653 2381 653 
Q 2734 653 3104 758 
Q 3475 863 3866 1075 
L 3866 213 
Q 3469 63 3072 -14 
Q 2675 -91 2278 -91 
Q 1328 -91 801 392 
Q 275 875 275 1747 
Q 275 2603 792 3093 
Q 1309 3584 2216 3584 
Q 3041 3584 3536 3087 
Q 4031 2591 4031 1759 
z
M 2881 2131 
Q 2881 2450 2695 2645 
Q 2509 2841 2209 2841 
Q 1884 2841 1681 2658 
Q 1478 2475 1428 2131 
L 2881 2131 
z
" transform="scale(0.015625)"/>
       <path id="DejaVuSans-Bold-61" d="M 2106 1575 
Q 1756 1575 1579 1456 
Q 1403 1338 1403 1106 
Q 1403 894 1545 773 
Q 1688 653 1941 653 
Q 2256 653 2472 879 
Q 2688 1106 2688 1447 
L 2688 1575 
L 2106 1575 
z
M 3816 1997 
L 3816 0 
L 2688 0 
L 2688 519 
Q 2463 200 2181 54 
Q 1900 -91 1497 -91 
Q 953 -91 614 226 
Q 275 544 275 1050 
Q 275 1666 698 1953 
Q 1122 2241 2028 2241 
L 2688 2241 
L 2688 2328 
Q 2688 2594 2478 2717 
Q 2269 2841 1825 2841 
Q 1466 2841 1156 2769 
Q 847 2697 581 2553 
L 581 3406 
Q 941 3494 1303 3539 
Q 1666 3584 2028 3584 
Q 2975 3584 3395 3211 
Q 3816 2838 3816 1997 
z
" transform="scale(0.015625)"/>
       <path id="DejaVuSans-Bold-72" d="M 3138 2547 
Q 2991 2616 2845 2648 
Q 2700 2681 2553 2681 
Q 2122 2681 1889 2404 
Q 1656 2128 1656 1613 
L 1656 0 
L 538 0 
L 538 3500 
L 1656 3500 
L 1656 2925 
Q 1872 3269 2151 3426 
Q 2431 3584 2822 3584 
Q 2878 3584 2943 3579 
Q 3009 3575 3134 3559 
L 3138 2547 
z
" transform="scale(0.015625)"/>
      </defs>
      <use xlink:href="#DejaVuSans-Bold-59"/>
      <use xlink:href="#DejaVuSans-Bold-65" x="63.287109"/>
      <use xlink:href="#DejaVuSans-Bold-61" x="131.109375"/>
      <use xlink:href="#DejaVuSans-Bold-72" x="198.589844"/>
     </g>
    </g>
   </g>
   <g id="matplotlib.axis_2">
    <g id="ytick_1">
     <g id="line2d_5">
      <defs>
       <path id="ma115fb5f8e" d="M 0 0 
L -3.5 0 
" style="stroke: #000000; stroke-width: 0.8"/>
      </defs>
      <g>
       <use xlink:href="#ma115fb5f8e" x="109.64" y="515.56" style="stroke: #000000; stroke-width: 0.8"/>
      </g>
     </g>
     <g id="text_6">
      <!-- 0 -->
      <g transform="translate(86.0975 525.437969)scale(0.26 -0.26)">
       <use xlink:href="#DejaVuSans-30"/>
      </g>
     </g>
    </g>
    <g id="ytick_2">
     <g id="line2d_6">
      <g>
       <use xlink:href="#ma115fb5f8e" x="109.64" y="441.5184" style="stroke: #000000; stroke-width: 0.8"/>
      </g>
     </g>
     <g id="text_7">
      <!-- 20 -->
      <g transform="translate(69.555 451.396369)scale(0.26 -0.26)">
       <use xlink:href="#DejaVuSans-32"/>
       <use xlink:href="#DejaVuSans-30" x="63.623047"/>
      </g>
     </g>
    </g>
    <g id="ytick_3">
     <g id="line2d_7">
      <g>
       <use xlink:href="#ma115fb5f8e" x="109.64" y="367.4768" style="stroke: #000000; stroke-width: 0.8"/>
      </g>
     </g>
     <g id="text_8">
      <!-- 40 -->
      <g transform="translate(69.555 377.354769)scale(0.26 -0.26)">
       <defs>
        <path id="DejaVuSans-34" d="M 2419 4116 
L 825 1625 
L 2419 1625 
L 2419 4116 
z
M 2253 4666 
L 3047 4666 
L 3047 1625 
L 3713 1625 
L 3713 1100 
L 3047 1100 
L 3047 0 
L 2419 0 
L 2419 1100 
L 313 1100 
L 313 1709 
L 2253 4666 
z
" transform="scale(0.015625)"/>
       </defs>
       <use xlink:href="#DejaVuSans-34"/>
       <use xlink:href="#DejaVuSans-30" x="63.623047"/>
      </g>
     </g>
    </g>
    <g id="ytick_4">
     <g id="line2d_8">
      <g>
       <use xlink:href="#ma115fb5f8e" x="109.64" y="293.4352" style="stroke: #000000; stroke-width: 0.8"/>
      </g>
     </g>
     <g id="text_9">
      <!-- 60 -->
      <g transform="translate(69.555 303.313169)scale(0.26 -0.26)">
       <defs>
        <path id="DejaVuSans-36" d="M 2113 2584 
Q 1688 2584 1439 2293 
Q 1191 2003 1191 1497 
Q 1191 994 1439 701 
Q 1688 409 2113 409 
Q 2538 409 2786 701 
Q 3034 994 3034 1497 
Q 3034 2003 2786 2293 
Q 2538 2584 2113 2584 
z
M 3366 4563 
L 3366 3988 
Q 3128 4100 2886 4159 
Q 2644 4219 2406 4219 
Q 1781 4219 1451 3797 
Q 1122 3375 1075 2522 
Q 1259 2794 1537 2939 
Q 1816 3084 2150 3084 
Q 2853 3084 3261 2657 
Q 3669 2231 3669 1497 
Q 3669 778 3244 343 
Q 2819 -91 2113 -91 
Q 1303 -91 875 529 
Q 447 1150 447 2328 
Q 447 3434 972 4092 
Q 1497 4750 2381 4750 
Q 2619 4750 2861 4703 
Q 3103 4656 3366 4563 
z
" transform="scale(0.015625)"/>
       </defs>
       <use xlink:href="#DejaVuSans-36"/>
       <use xlink:href="#DejaVuSans-30" x="63.623047"/>
      </g>
     </g>
    </g>
    <g id="ytick_5">
     <g id="line2d_9">
      <g>
       <use xlink:href="#ma115fb5f8e" x="109.64" y="219.3936" style="stroke: #000000; stroke-width: 0.8"/>
      </g>
     </g>
     <g id="text_10">
      <!-- 80 -->
      <g transform="translate(69.555 229.271569)scale(0.26 -0.26)">
       <defs>
        <path id="DejaVuSans-38" d="M 2034 2216 
Q 1584 2216 1326 1975 
Q 1069 1734 1069 1313 
Q 1069 891 1326 650 
Q 1584 409 2034 409 
Q 2484 409 2743 651 
Q 3003 894 3003 1313 
Q 3003 1734 2745 1975 
Q 2488 2216 2034 2216 
z
M 1403 2484 
Q 997 2584 770 2862 
Q 544 3141 544 3541 
Q 544 4100 942 4425 
Q 1341 4750 2034 4750 
Q 2731 4750 3128 4425 
Q 3525 4100 3525 3541 
Q 3525 3141 3298 2862 
Q 3072 2584 2669 2484 
Q 3125 2378 3379 2068 
Q 3634 1759 3634 1313 
Q 3634 634 3220 271 
Q 2806 -91 2034 -91 
Q 1263 -91 848 271 
Q 434 634 434 1313 
Q 434 1759 690 2068 
Q 947 2378 1403 2484 
z
M 1172 3481 
Q 1172 3119 1398 2916 
Q 1625 2713 2034 2713 
Q 2441 2713 2670 2916 
Q 2900 3119 2900 3481 
Q 2900 3844 2670 4047 
Q 2441 4250 2034 4250 
Q 1625 4250 1398 4047 
Q 1172 3844 1172 3481 
z
" transform="scale(0.015625)"/>
       </defs>
       <use xlink:href="#DejaVuSans-38"/>
       <use xlink:href="#DejaVuSans-30" x="63.623047"/>
      </g>
     </g>
    </g>
    <g id="ytick_6">
     <g id="line2d_10">
      <g>
       <use xlink:href="#ma115fb5f8e" x="109.64" y="145.352" style="stroke: #000000; stroke-width: 0.8"/>
      </g>
     </g>
     <g id="text_11">
      <!-- 100 -->
      <g transform="translate(53.0125 155.229969)scale(0.26 -0.26)">
       <use xlink:href="#DejaVuSans-31"/>
       <use xlink:href="#DejaVuSans-30" x="63.623047"/>
       <use xlink:href="#DejaVuSans-30" x="127.246094"/>
      </g>
     </g>
    </g>
    <g id="ytick_7">
     <g id="line2d_11">
      <g>
       <use xlink:href="#ma115fb5f8e" x="109.64" y="71.3104" style="stroke: #000000; stroke-width: 0.8"/>
      </g>
     </g>
     <g id="text_12">
      <!-- 120 -->
      <g transform="translate(53.0125 81.188369)scale(0.26 -0.26)">
       <use xlink:href="#DejaVuSans-31"/>
       <use xlink:href="#DejaVuSans-32" x="63.623047"/>
       <use xlink:href="#DejaVuSans-30" x="127.246094"/>
      </g>
     </g>
    </g>
    <g id="text_13">
     <!-- % of Remaining Glacier Mass -->
     <g transform="translate(44.265313 463.619219)rotate(-90)scale(0.22 -0.22)">
      <defs>
       <path id="DejaVuSans-Bold-25" d="M 4959 1925 
Q 4738 1925 4616 1733 
Q 4494 1541 4494 1184 
Q 4494 825 4614 633 
Q 4734 441 4959 441 
Q 5184 441 5303 633 
Q 5422 825 5422 1184 
Q 5422 1541 5301 1733 
Q 5181 1925 4959 1925 
z
M 4959 2450 
Q 5541 2450 5875 2112 
Q 6209 1775 6209 1184 
Q 6209 594 5875 251 
Q 5541 -91 4959 -91 
Q 4378 -91 4042 251 
Q 3706 594 3706 1184 
Q 3706 1772 4042 2111 
Q 4378 2450 4959 2450 
z
M 2094 -91 
L 1403 -91 
L 4319 4750 
L 5013 4750 
L 2094 -91 
z
M 1453 4750 
Q 2034 4750 2367 4411 
Q 2700 4072 2700 3481 
Q 2700 2891 2367 2550 
Q 2034 2209 1453 2209 
Q 872 2209 539 2550 
Q 206 2891 206 3481 
Q 206 4072 539 4411 
Q 872 4750 1453 4750 
z
M 1453 4225 
Q 1228 4225 1106 4031 
Q 984 3838 984 3481 
Q 984 3122 1106 2926 
Q 1228 2731 1453 2731 
Q 1678 2731 1798 2926 
Q 1919 3122 1919 3481 
Q 1919 3838 1797 4031 
Q 1675 4225 1453 4225 
z
" transform="scale(0.015625)"/>
       <path id="DejaVuSans-Bold-20" transform="scale(0.015625)"/>
       <path id="DejaVuSans-Bold-6f" d="M 2203 2784 
Q 1831 2784 1636 2517 
Q 1441 2250 1441 1747 
Q 1441 1244 1636 976 
Q 1831 709 2203 709 
Q 2569 709 2762 976 
Q 2956 1244 2956 1747 
Q 2956 2250 2762 2517 
Q 2569 2784 2203 2784 
z
M 2203 3584 
Q 3106 3584 3614 3096 
Q 4122 2609 4122 1747 
Q 4122 884 3614 396 
Q 3106 -91 2203 -91 
Q 1297 -91 786 396 
Q 275 884 275 1747 
Q 275 2609 786 3096 
Q 1297 3584 2203 3584 
z
" transform="scale(0.015625)"/>
       <path id="DejaVuSans-Bold-66" d="M 2841 4863 
L 2841 4128 
L 2222 4128 
Q 1984 4128 1890 4042 
Q 1797 3956 1797 3744 
L 1797 3500 
L 2753 3500 
L 2753 2700 
L 1797 2700 
L 1797 0 
L 678 0 
L 678 2700 
L 122 2700 
L 122 3500 
L 678 3500 
L 678 3744 
Q 678 4316 997 4589 
Q 1316 4863 1984 4863 
L 2841 4863 
z
" transform="scale(0.015625)"/>
       <path id="DejaVuSans-Bold-52" d="M 2297 2597 
Q 2675 2597 2839 2737 
Q 3003 2878 3003 3200 
Q 3003 3519 2839 3656 
Q 2675 3794 2297 3794 
L 1791 3794 
L 1791 2597 
L 2297 2597 
z
M 1791 1766 
L 1791 0 
L 588 0 
L 588 4666 
L 2425 4666 
Q 3347 4666 3776 4356 
Q 4206 4047 4206 3378 
Q 4206 2916 3982 2619 
Q 3759 2322 3309 2181 
Q 3556 2125 3751 1926 
Q 3947 1728 4147 1325 
L 4800 0 
L 3519 0 
L 2950 1159 
Q 2778 1509 2601 1637 
Q 2425 1766 2131 1766 
L 1791 1766 
z
" transform="scale(0.015625)"/>
       <path id="DejaVuSans-Bold-6d" d="M 3781 2919 
Q 3994 3244 4286 3414 
Q 4578 3584 4928 3584 
Q 5531 3584 5847 3212 
Q 6163 2841 6163 2131 
L 6163 0 
L 5038 0 
L 5038 1825 
Q 5041 1866 5042 1909 
Q 5044 1953 5044 2034 
Q 5044 2406 4934 2573 
Q 4825 2741 4581 2741 
Q 4263 2741 4089 2478 
Q 3916 2216 3909 1719 
L 3909 0 
L 2784 0 
L 2784 1825 
Q 2784 2406 2684 2573 
Q 2584 2741 2328 2741 
Q 2006 2741 1831 2477 
Q 1656 2213 1656 1722 
L 1656 0 
L 531 0 
L 531 3500 
L 1656 3500 
L 1656 2988 
Q 1863 3284 2130 3434 
Q 2397 3584 2719 3584 
Q 3081 3584 3359 3409 
Q 3638 3234 3781 2919 
z
" transform="scale(0.015625)"/>
       <path id="DejaVuSans-Bold-69" d="M 538 3500 
L 1656 3500 
L 1656 0 
L 538 0 
L 538 3500 
z
M 538 4863 
L 1656 4863 
L 1656 3950 
L 538 3950 
L 538 4863 
z
" transform="scale(0.015625)"/>
       <path id="DejaVuSans-Bold-6e" d="M 4056 2131 
L 4056 0 
L 2931 0 
L 2931 347 
L 2931 1631 
Q 2931 2084 2911 2256 
Q 2891 2428 2841 2509 
Q 2775 2619 2662 2680 
Q 2550 2741 2406 2741 
Q 2056 2741 1856 2470 
Q 1656 2200 1656 1722 
L 1656 0 
L 538 0 
L 538 3500 
L 1656 3500 
L 1656 2988 
Q 1909 3294 2193 3439 
Q 2478 3584 2822 3584 
Q 3428 3584 3742 3212 
Q 4056 2841 4056 2131 
z
" transform="scale(0.015625)"/>
       <path id="DejaVuSans-Bold-67" d="M 2919 594 
Q 2688 288 2409 144 
Q 2131 0 1766 0 
Q 1125 0 706 504 
Q 288 1009 288 1791 
Q 288 2575 706 3076 
Q 1125 3578 1766 3578 
Q 2131 3578 2409 3434 
Q 2688 3291 2919 2981 
L 2919 3500 
L 4044 3500 
L 4044 353 
Q 4044 -491 3511 -936 
Q 2978 -1381 1966 -1381 
Q 1638 -1381 1331 -1331 
Q 1025 -1281 716 -1178 
L 716 -306 
Q 1009 -475 1290 -558 
Q 1572 -641 1856 -641 
Q 2406 -641 2662 -400 
Q 2919 -159 2919 353 
L 2919 594 
z
M 2181 2772 
Q 1834 2772 1640 2515 
Q 1447 2259 1447 1791 
Q 1447 1309 1634 1061 
Q 1822 813 2181 813 
Q 2531 813 2725 1069 
Q 2919 1325 2919 1791 
Q 2919 2259 2725 2515 
Q 2531 2772 2181 2772 
z
" transform="scale(0.015625)"/>
       <path id="DejaVuSans-Bold-47" d="M 4781 347 
Q 4331 128 3847 18 
Q 3363 -91 2847 -91 
Q 1681 -91 1000 561 
Q 319 1213 319 2328 
Q 319 3456 1012 4103 
Q 1706 4750 2913 4750 
Q 3378 4750 3804 4662 
Q 4231 4575 4609 4403 
L 4609 3438 
Q 4219 3659 3833 3768 
Q 3447 3878 3059 3878 
Q 2341 3878 1952 3476 
Q 1563 3075 1563 2328 
Q 1563 1588 1938 1184 
Q 2313 781 3003 781 
Q 3191 781 3352 804 
Q 3513 828 3641 878 
L 3641 1784 
L 2906 1784 
L 2906 2591 
L 4781 2591 
L 4781 347 
z
" transform="scale(0.015625)"/>
       <path id="DejaVuSans-Bold-6c" d="M 538 4863 
L 1656 4863 
L 1656 0 
L 538 0 
L 538 4863 
z
" transform="scale(0.015625)"/>
       <path id="DejaVuSans-Bold-63" d="M 3366 3391 
L 3366 2478 
Q 3138 2634 2908 2709 
Q 2678 2784 2431 2784 
Q 1963 2784 1702 2511 
Q 1441 2238 1441 1747 
Q 1441 1256 1702 982 
Q 1963 709 2431 709 
Q 2694 709 2930 787 
Q 3166 866 3366 1019 
L 3366 103 
Q 3103 6 2833 -42 
Q 2563 -91 2291 -91 
Q 1344 -91 809 395 
Q 275 881 275 1747 
Q 275 2613 809 3098 
Q 1344 3584 2291 3584 
Q 2566 3584 2833 3536 
Q 3100 3488 3366 3391 
z
" transform="scale(0.015625)"/>
       <path id="DejaVuSans-Bold-4d" d="M 588 4666 
L 2119 4666 
L 3181 2169 
L 4250 4666 
L 5778 4666 
L 5778 0 
L 4641 0 
L 4641 3413 
L 3566 897 
L 2803 897 
L 1728 3413 
L 1728 0 
L 588 0 
L 588 4666 
z
" transform="scale(0.015625)"/>
       <path id="DejaVuSans-Bold-73" d="M 3272 3391 
L 3272 2541 
Q 2913 2691 2578 2766 
Q 2244 2841 1947 2841 
Q 1628 2841 1473 2761 
Q 1319 2681 1319 2516 
Q 1319 2381 1436 2309 
Q 1553 2238 1856 2203 
L 2053 2175 
Q 2913 2066 3209 1816 
Q 3506 1566 3506 1031 
Q 3506 472 3093 190 
Q 2681 -91 1863 -91 
Q 1516 -91 1145 -36 
Q 775 19 384 128 
L 384 978 
Q 719 816 1070 734 
Q 1422 653 1784 653 
Q 2113 653 2278 743 
Q 2444 834 2444 1013 
Q 2444 1163 2330 1236 
Q 2216 1309 1875 1350 
L 1678 1375 
Q 931 1469 631 1722 
Q 331 1975 331 2491 
Q 331 3047 712 3315 
Q 1094 3584 1881 3584 
Q 2191 3584 2531 3537 
Q 2872 3491 3272 3391 
z
" transform="scale(0.015625)"/>
      </defs>
      <use xlink:href="#DejaVuSans-Bold-25"/>
      <use xlink:href="#DejaVuSans-Bold-20" x="100.195312"/>
      <use xlink:href="#DejaVuSans-Bold-6f" x="135.009766"/>
      <use xlink:href="#DejaVuSans-Bold-66" x="203.710938"/>
      <use xlink:href="#DejaVuSans-Bold-20" x="247.216797"/>
      <use xlink:href="#DejaVuSans-Bold-52" x="282.03125"/>
      <use xlink:href="#DejaVuSans-Bold-65" x="359.033203"/>
      <use xlink:href="#DejaVuSans-Bold-6d" x="426.855469"/>
      <use xlink:href="#DejaVuSans-Bold-61" x="531.054688"/>
      <use xlink:href="#DejaVuSans-Bold-69" x="598.535156"/>
      <use xlink:href="#DejaVuSans-Bold-6e" x="632.8125"/>
      <use xlink:href="#DejaVuSans-Bold-69" x="704.003906"/>
      <use xlink:href="#DejaVuSans-Bold-6e" x="738.28125"/>
      <use xlink:href="#DejaVuSans-Bold-67" x="809.472656"/>
      <use xlink:href="#DejaVuSans-Bold-20" x="881.054688"/>
      <use xlink:href="#DejaVuSans-Bold-47" x="915.869141"/>
      <use xlink:href="#DejaVuSans-Bold-6c" x="997.949219"/>
      <use xlink:href="#DejaVuSans-Bold-61" x="1032.226562"/>
      <use xlink:href="#DejaVuSans-Bold-63" x="1099.707031"/>
      <use xlink:href="#DejaVuSans-Bold-69" x="1158.984375"/>
      <use xlink:href="#DejaVuSans-Bold-65" x="1193.261719"/>
      <use xlink:href="#DejaVuSans-Bold-72" x="1261.083984"/>
      <use xlink:href="#DejaVuSans-Bold-20" x="1310.400391"/>
      <use xlink:href="#DejaVuSans-Bold-4d" x="1345.214844"/>
      <use xlink:href="#DejaVuSans-Bold-61" x="1444.726562"/>
      <use xlink:href="#DejaVuSans-Bold-73" x="1512.207031"/>
      <use xlink:href="#DejaVuSans-Bold-73" x="1571.728516"/>
     </g>
    </g>
   </g>
   <g id="line2d_12">
    <path d="M 167.276938 146.911414 
L 172.080016 149.979894 
L 184.087711 158.133992 
L 191.292329 163.213452 
L 203.300024 171.940946 
L 212.90618 179.531855 
L 217.709259 183.429243 
L 224.913876 189.444675 
L 270.543118 227.913396 
L 296.960048 249.43962 
L 301.763126 253.215549 
L 306.566204 257.061929 
L 323.376978 269.844021 
L 340.187751 281.808779 
L 356.998525 293.358406 
L 390.620072 315.951923 
L 405.029307 325.116188 
L 417.037002 332.490856 
L 426.643158 338.121108 
L 441.052393 346.120968 
L 450.658549 351.225427 
L 460.264705 356.015298 
L 477.075479 364.192724 
L 486.681635 368.672552 
L 496.287792 372.79059 
L 517.901643 381.512897 
L 527.5078 385.033858 
L 546.720112 391.758051 
L 556.326268 394.845418 
L 568.333964 398.277153 
L 577.94012 400.912146 
L 613.963206 410.121348 
L 640.380136 416.70642 
L 649.986293 418.789641 
L 726.835543 433.887852 
L 743.646317 436.991898 
L 758.055551 439.56041 
L 767.661707 441.051352 
L 786.87402 443.633194 
L 808.487872 446.296472 
L 815.692489 447.282484 
L 837.306341 448.806247 
L 837.306341 448.806247 
" clip-path="url(#p47c74a6a5c)" style="fill: none; stroke: #74b8f8; stroke-opacity: 0.5; stroke-width: 6; stroke-linecap: square"/>
   </g>
   <g id="line2d_13">
    <path d="M 116.844617 122.933747 
L 119.246156 123.66326 
L 121.647695 124.412389 
L 124.049234 125.160497 
L 126.450774 125.878983 
L 128.852313 126.583525 
L 131.253852 127.309786 
L 133.655391 128.045141 
L 136.05693 128.782119 
L 138.458469 129.529812 
L 140.860008 130.291454 
L 143.261547 131.717954 
L 145.663086 133.182842 
L 148.064625 134.657474 
L 150.466164 136.189676 
L 152.867703 137.737108 
L 155.269242 139.251708 
L 157.670782 140.783488 
L 160.072321 142.281853 
L 162.47386 143.806677 
L 164.875399 145.352 
" clip-path="url(#p47c74a6a5c)" style="fill: none; stroke: #000000; stroke-opacity: 0.5; stroke-width: 6; stroke-linecap: square"/>
   </g>
   <g id="line2d_14">
    <path d="M 167.276938 147.077927 
L 174.481555 152.528818 
L 179.284633 156.37427 
L 210.504641 182.729329 
L 220.110798 190.744601 
L 222.512337 192.744807 
L 227.315415 197.198192 
L 232.118493 201.756465 
L 236.921571 206.574868 
L 248.929267 219.120627 
L 258.535423 229.414298 
L 265.74004 236.344212 
L 304.164665 272.440259 
L 313.770822 281.027002 
L 325.778517 293.917503 
L 332.983134 301.213235 
L 337.786212 305.872649 
L 347.392369 314.546487 
L 356.998525 323.021785 
L 366.604681 330.98745 
L 378.612377 340.546091 
L 383.415455 344.748736 
L 400.226228 359.537711 
L 405.029307 363.569698 
L 414.635463 371.190238 
L 429.044697 382.205391 
L 436.249315 387.420992 
L 443.453932 392.284983 
L 460.264705 403.615049 
L 467.469323 408.478589 
L 489.083174 422.588216 
L 503.492409 431.653165 
L 513.098565 437.059462 
L 522.704721 442.214709 
L 529.909339 445.833303 
L 539.515495 450.492853 
L 549.121651 454.738834 
L 558.727808 458.719438 
L 573.137042 464.308304 
L 580.341659 466.897705 
L 589.947816 470.114007 
L 599.553972 473.087466 
L 606.758589 475.191801 
L 611.561667 476.154653 
L 633.175519 479.993181 
L 654.789371 483.493228 
L 669.198605 485.580139 
L 686.009379 487.753201 
L 698.017074 489.075196 
L 710.024769 490.174847 
L 722.032465 491.083061 
L 738.843238 492.080811 
L 765.260168 493.40522 
L 794.078637 494.779391 
L 815.692489 496.527843 
L 837.306341 497.434959 
L 837.306341 497.434959 
" clip-path="url(#p47c74a6a5c)" style="fill: none; stroke: #f47100; stroke-opacity: 0.5; stroke-width: 6; stroke-linecap: square"/>
   </g>
   <g id="line2d_15">
    <path d="M 116.844617 121.764563 
L 119.246156 122.536349 
L 121.647695 123.292449 
L 124.049234 124.001435 
L 126.450774 124.725452 
L 128.852313 125.547461 
L 131.253852 126.372097 
L 133.655391 127.138426 
L 136.05693 127.986502 
L 138.458469 128.813285 
L 140.860008 129.588345 
L 143.261547 131.086582 
L 145.663086 132.601681 
L 148.064625 134.056933 
L 150.466164 135.559538 
L 152.867703 137.048464 
L 155.269242 138.605753 
L 157.670782 140.243626 
L 160.072321 141.936926 
L 162.47386 143.635804 
L 164.875399 145.352 
" clip-path="url(#p47c74a6a5c)" style="fill: none; stroke: #000000; stroke-opacity: 0.5; stroke-width: 6; stroke-linecap: square"/>
   </g>
   <g id="line2d_16">
    <path d="M 167.276938 147.059155 
L 174.481555 152.24281 
L 184.087711 159.670741 
L 191.292329 165.555112 
L 198.496946 171.752511 
L 205.701563 178.337613 
L 215.307719 187.496248 
L 224.913876 197.176923 
L 229.716954 202.173328 
L 236.921571 210.164456 
L 256.133884 231.954039 
L 277.747735 256.796868 
L 287.353892 267.251244 
L 304.164665 285.551242 
L 313.770822 295.416188 
L 323.376978 305.282625 
L 328.180056 310.452538 
L 342.589291 326.063897 
L 364.203142 349.029527 
L 366.604681 351.180253 
L 371.407759 355.024721 
L 376.210838 358.624438 
L 383.415455 363.692013 
L 397.824689 373.390877 
L 400.226228 375.212714 
L 407.430846 381.421061 
L 417.037002 389.47285 
L 426.643158 397.559599 
L 433.847776 403.603582 
L 445.855471 412.934717 
L 455.461627 420.160466 
L 462.666244 425.307729 
L 469.870862 430.381505 
L 477.075479 434.950091 
L 491.484713 443.645091 
L 498.689331 447.811156 
L 508.295487 453.138203 
L 520.303182 459.203267 
L 522.704721 460.367325 
L 527.5078 462.324126 
L 537.113956 465.911121 
L 546.720112 469.235893 
L 558.727808 473.058701 
L 568.333964 475.833048 
L 582.743198 479.694191 
L 592.349355 482.052723 
L 604.35705 484.655024 
L 616.364745 487.024736 
L 628.372441 489.153381 
L 642.781675 491.469314 
L 659.592449 493.925832 
L 671.600144 495.443346 
L 686.009379 497.026602 
L 695.615535 498.080767 
L 707.62323 499.801314 
L 719.630926 501.2761 
L 734.04016 502.812462 
L 750.850934 504.317213 
L 772.464786 505.917793 
L 794.078637 507.208245 
L 815.692489 508.259683 
L 837.306341 508.733428 
L 837.306341 508.733428 
" clip-path="url(#p47c74a6a5c)" style="fill: none; stroke: #d01e04; stroke-opacity: 0.5; stroke-width: 6; stroke-linecap: square"/>
   </g>
   <g id="line2d_17">
    <path d="M 116.844617 122.655486 
L 119.246156 123.4194 
L 121.647695 124.180718 
L 124.049234 124.92408 
L 126.450774 125.63736 
L 128.852313 126.353991 
L 131.253852 127.070126 
L 133.655391 127.786753 
L 136.05693 128.521221 
L 138.458469 129.277282 
L 140.860008 130.003154 
L 143.261547 131.433956 
L 145.663086 132.801681 
L 148.064625 134.186289 
L 150.466164 135.653887 
L 152.867703 137.136849 
L 155.269242 138.723844 
L 157.670782 140.373896 
L 160.072321 142.003317 
L 162.47386 143.664115 
L 164.875399 145.352 
" clip-path="url(#p47c74a6a5c)" style="fill: none; stroke: #000000; stroke-opacity: 0.5; stroke-width: 6; stroke-linecap: square"/>
   </g>
   <g id="patch_3">
    <path d="M 109.64 515.56 
L 109.64 52.8 
" style="fill: none; stroke: #000000; stroke-width: 0.8; stroke-linejoin: miter; stroke-linecap: square"/>
   </g>
   <g id="patch_4">
    <path d="M 109.64 515.56 
L 858.920192 515.56 
" style="fill: none; stroke: #000000; stroke-width: 0.8; stroke-linejoin: miter; stroke-linecap: square"/>
   </g>
   <g id="text_14">
    <!-- Arctic Canada South -->
    <g transform="translate(346.703846 46.8)scale(0.24 -0.24)">
     <defs>
      <path id="DejaVuSans-Bold-41" d="M 3419 850 
L 1538 850 
L 1241 0 
L 31 0 
L 1759 4666 
L 3194 4666 
L 4922 0 
L 3713 0 
L 3419 850 
z
M 1838 1716 
L 3116 1716 
L 2478 3572 
L 1838 1716 
z
" transform="scale(0.015625)"/>
      <path id="DejaVuSans-Bold-74" d="M 1759 4494 
L 1759 3500 
L 2913 3500 
L 2913 2700 
L 1759 2700 
L 1759 1216 
Q 1759 972 1856 886 
Q 1953 800 2241 800 
L 2816 800 
L 2816 0 
L 1856 0 
Q 1194 0 917 276 
Q 641 553 641 1216 
L 641 2700 
L 84 2700 
L 84 3500 
L 641 3500 
L 641 4494 
L 1759 4494 
z
" transform="scale(0.015625)"/>
      <path id="DejaVuSans-Bold-43" d="M 4288 256 
Q 3956 84 3597 -3 
Q 3238 -91 2847 -91 
Q 1681 -91 1000 561 
Q 319 1213 319 2328 
Q 319 3447 1000 4098 
Q 1681 4750 2847 4750 
Q 3238 4750 3597 4662 
Q 3956 4575 4288 4403 
L 4288 3438 
Q 3953 3666 3628 3772 
Q 3303 3878 2944 3878 
Q 2300 3878 1931 3465 
Q 1563 3053 1563 2328 
Q 1563 1606 1931 1193 
Q 2300 781 2944 781 
Q 3303 781 3628 887 
Q 3953 994 4288 1222 
L 4288 256 
z
" transform="scale(0.015625)"/>
      <path id="DejaVuSans-Bold-64" d="M 2919 2988 
L 2919 4863 
L 4044 4863 
L 4044 0 
L 2919 0 
L 2919 506 
Q 2688 197 2409 53 
Q 2131 -91 1766 -91 
Q 1119 -91 703 423 
Q 288 938 288 1747 
Q 288 2556 703 3070 
Q 1119 3584 1766 3584 
Q 2128 3584 2408 3439 
Q 2688 3294 2919 2988 
z
M 2181 722 
Q 2541 722 2730 984 
Q 2919 1247 2919 1747 
Q 2919 2247 2730 2509 
Q 2541 2772 2181 2772 
Q 1825 2772 1636 2509 
Q 1447 2247 1447 1747 
Q 1447 1247 1636 984 
Q 1825 722 2181 722 
z
" transform="scale(0.015625)"/>
      <path id="DejaVuSans-Bold-53" d="M 3834 4519 
L 3834 3531 
Q 3450 3703 3084 3790 
Q 2719 3878 2394 3878 
Q 1963 3878 1756 3759 
Q 1550 3641 1550 3391 
Q 1550 3203 1689 3098 
Q 1828 2994 2194 2919 
L 2706 2816 
Q 3484 2659 3812 2340 
Q 4141 2022 4141 1434 
Q 4141 663 3683 286 
Q 3225 -91 2284 -91 
Q 1841 -91 1394 -6 
Q 947 78 500 244 
L 500 1259 
Q 947 1022 1364 901 
Q 1781 781 2169 781 
Q 2563 781 2772 912 
Q 2981 1044 2981 1288 
Q 2981 1506 2839 1625 
Q 2697 1744 2272 1838 
L 1806 1941 
Q 1106 2091 782 2419 
Q 459 2747 459 3303 
Q 459 4000 909 4375 
Q 1359 4750 2203 4750 
Q 2588 4750 2994 4692 
Q 3400 4634 3834 4519 
z
" transform="scale(0.015625)"/>
      <path id="DejaVuSans-Bold-75" d="M 500 1363 
L 500 3500 
L 1625 3500 
L 1625 3150 
Q 1625 2866 1622 2436 
Q 1619 2006 1619 1863 
Q 1619 1441 1641 1255 
Q 1663 1069 1716 984 
Q 1784 875 1895 815 
Q 2006 756 2150 756 
Q 2500 756 2700 1025 
Q 2900 1294 2900 1772 
L 2900 3500 
L 4019 3500 
L 4019 0 
L 2900 0 
L 2900 506 
Q 2647 200 2364 54 
Q 2081 -91 1741 -91 
Q 1134 -91 817 281 
Q 500 653 500 1363 
z
" transform="scale(0.015625)"/>
      <path id="DejaVuSans-Bold-68" d="M 4056 2131 
L 4056 0 
L 2931 0 
L 2931 347 
L 2931 1625 
Q 2931 2084 2911 2256 
Q 2891 2428 2841 2509 
Q 2775 2619 2662 2680 
Q 2550 2741 2406 2741 
Q 2056 2741 1856 2470 
Q 1656 2200 1656 1722 
L 1656 0 
L 538 0 
L 538 4863 
L 1656 4863 
L 1656 2988 
Q 1909 3294 2193 3439 
Q 2478 3584 2822 3584 
Q 3428 3584 3742 3212 
Q 4056 2841 4056 2131 
z
" transform="scale(0.015625)"/>
     </defs>
     <use xlink:href="#DejaVuSans-Bold-41"/>
     <use xlink:href="#DejaVuSans-Bold-72" x="77.392578"/>
     <use xlink:href="#DejaVuSans-Bold-63" x="126.708984"/>
     <use xlink:href="#DejaVuSans-Bold-74" x="185.986328"/>
     <use xlink:href="#DejaVuSans-Bold-69" x="233.789062"/>
     <use xlink:href="#DejaVuSans-Bold-63" x="268.066406"/>
     <use xlink:href="#DejaVuSans-Bold-20" x="327.34375"/>
     <use xlink:href="#DejaVuSans-Bold-43" x="362.158203"/>
     <use xlink:href="#DejaVuSans-Bold-61" x="435.546875"/>
     <use xlink:href="#DejaVuSans-Bold-6e" x="503.027344"/>
     <use xlink:href="#DejaVuSans-Bold-61" x="574.21875"/>
     <use xlink:href="#DejaVuSans-Bold-64" x="641.699219"/>
     <use xlink:href="#DejaVuSans-Bold-61" x="713.28125"/>
     <use xlink:href="#DejaVuSans-Bold-20" x="780.761719"/>
     <use xlink:href="#DejaVuSans-Bold-53" x="815.576172"/>
     <use xlink:href="#DejaVuSans-Bold-6f" x="887.597656"/>
     <use xlink:href="#DejaVuSans-Bold-75" x="956.298828"/>
     <use xlink:href="#DejaVuSans-Bold-74" x="1027.490234"/>
     <use xlink:href="#DejaVuSans-Bold-68" x="1075.292969"/>
    </g>
   </g>
   <g id="legend_1">
    <g id="patch_5">
     <path d="M 597.903942 225.737875 
L 843.520192 225.737875 
Q 847.920192 225.737875 847.920192 221.337875 
L 847.920192 68.2 
Q 847.920192 63.8 843.520192 63.8 
L 597.903942 63.8 
Q 593.503942 63.8 593.503942 68.2 
L 593.503942 221.337875 
Q 593.503942 225.737875 597.903942 225.737875 
z
" style="fill: #ffffff; opacity: 0.6; stroke: #cccccc; stroke-linejoin: miter"/>
    </g>
    <g id="text_15">
     <!-- Global mean -->
     <g transform="translate(602.303942 89.316563)scale(0.22 -0.22)">
      <defs>
       <path id="DejaVuSans-47" d="M 3809 666 
L 3809 1919 
L 2778 1919 
L 2778 2438 
L 4434 2438 
L 4434 434 
Q 4069 175 3628 42 
Q 3188 -91 2688 -91 
Q 1594 -91 976 548 
Q 359 1188 359 2328 
Q 359 3472 976 4111 
Q 1594 4750 2688 4750 
Q 3144 4750 3555 4637 
Q 3966 4525 4313 4306 
L 4313 3634 
Q 3963 3931 3569 4081 
Q 3175 4231 2741 4231 
Q 1884 4231 1454 3753 
Q 1025 3275 1025 2328 
Q 1025 1384 1454 906 
Q 1884 428 2741 428 
Q 3075 428 3337 486 
Q 3600 544 3809 666 
z
" transform="scale(0.015625)"/>
       <path id="DejaVuSans-6c" d="M 603 4863 
L 1178 4863 
L 1178 0 
L 603 0 
L 603 4863 
z
" transform="scale(0.015625)"/>
       <path id="DejaVuSans-6f" d="M 1959 3097 
Q 1497 3097 1228 2736 
Q 959 2375 959 1747 
Q 959 1119 1226 758 
Q 1494 397 1959 397 
Q 2419 397 2687 759 
Q 2956 1122 2956 1747 
Q 2956 2369 2687 2733 
Q 2419 3097 1959 3097 
z
M 1959 3584 
Q 2709 3584 3137 3096 
Q 3566 2609 3566 1747 
Q 3566 888 3137 398 
Q 2709 -91 1959 -91 
Q 1206 -91 779 398 
Q 353 888 353 1747 
Q 353 2609 779 3096 
Q 1206 3584 1959 3584 
z
" transform="scale(0.015625)"/>
       <path id="DejaVuSans-62" d="M 3116 1747 
Q 3116 2381 2855 2742 
Q 2594 3103 2138 3103 
Q 1681 3103 1420 2742 
Q 1159 2381 1159 1747 
Q 1159 1113 1420 752 
Q 1681 391 2138 391 
Q 2594 391 2855 752 
Q 3116 1113 3116 1747 
z
M 1159 2969 
Q 1341 3281 1617 3432 
Q 1894 3584 2278 3584 
Q 2916 3584 3314 3078 
Q 3713 2572 3713 1747 
Q 3713 922 3314 415 
Q 2916 -91 2278 -91 
Q 1894 -91 1617 61 
Q 1341 213 1159 525 
L 1159 0 
L 581 0 
L 581 4863 
L 1159 4863 
L 1159 2969 
z
" transform="scale(0.015625)"/>
       <path id="DejaVuSans-61" d="M 2194 1759 
Q 1497 1759 1228 1600 
Q 959 1441 959 1056 
Q 959 750 1161 570 
Q 1363 391 1709 391 
Q 2188 391 2477 730 
Q 2766 1069 2766 1631 
L 2766 1759 
L 2194 1759 
z
M 3341 1997 
L 3341 0 
L 2766 0 
L 2766 531 
Q 2569 213 2275 61 
Q 1981 -91 1556 -91 
Q 1019 -91 701 211 
Q 384 513 384 1019 
Q 384 1609 779 1909 
Q 1175 2209 1959 2209 
L 2766 2209 
L 2766 2266 
Q 2766 2663 2505 2880 
Q 2244 3097 1772 3097 
Q 1472 3097 1187 3025 
Q 903 2953 641 2809 
L 641 3341 
Q 956 3463 1253 3523 
Q 1550 3584 1831 3584 
Q 2591 3584 2966 3190 
Q 3341 2797 3341 1997 
z
" transform="scale(0.015625)"/>
       <path id="DejaVuSans-20" transform="scale(0.015625)"/>
       <path id="DejaVuSans-6d" d="M 3328 2828 
Q 3544 3216 3844 3400 
Q 4144 3584 4550 3584 
Q 5097 3584 5394 3201 
Q 5691 2819 5691 2113 
L 5691 0 
L 5113 0 
L 5113 2094 
Q 5113 2597 4934 2840 
Q 4756 3084 4391 3084 
Q 3944 3084 3684 2787 
Q 3425 2491 3425 1978 
L 3425 0 
L 2847 0 
L 2847 2094 
Q 2847 2600 2669 2842 
Q 2491 3084 2119 3084 
Q 1678 3084 1418 2786 
Q 1159 2488 1159 1978 
L 1159 0 
L 581 0 
L 581 3500 
L 1159 3500 
L 1159 2956 
Q 1356 3278 1631 3431 
Q 1906 3584 2284 3584 
Q 2666 3584 2933 3390 
Q 3200 3197 3328 2828 
z
" transform="scale(0.015625)"/>
       <path id="DejaVuSans-65" d="M 3597 1894 
L 3597 1613 
L 953 1613 
Q 991 1019 1311 708 
Q 1631 397 2203 397 
Q 2534 397 2845 478 
Q 3156 559 3463 722 
L 3463 178 
Q 3153 47 2828 -22 
Q 2503 -91 2169 -91 
Q 1331 -91 842 396 
Q 353 884 353 1716 
Q 353 2575 817 3079 
Q 1281 3584 2069 3584 
Q 2775 3584 3186 3129 
Q 3597 2675 3597 1894 
z
M 3022 2063 
Q 3016 2534 2758 2815 
Q 2500 3097 2075 3097 
Q 1594 3097 1305 2825 
Q 1016 2553 972 2059 
L 3022 2063 
z
" transform="scale(0.015625)"/>
       <path id="DejaVuSans-6e" d="M 3513 2113 
L 3513 0 
L 2938 0 
L 2938 2094 
Q 2938 2591 2744 2837 
Q 2550 3084 2163 3084 
Q 1697 3084 1428 2787 
Q 1159 2491 1159 1978 
L 1159 0 
L 581 0 
L 581 3500 
L 1159 3500 
L 1159 2956 
Q 1366 3272 1645 3428 
Q 1925 3584 2291 3584 
Q 2894 3584 3203 3211 
Q 3513 2838 3513 2113 
z
" transform="scale(0.015625)"/>
      </defs>
      <use xlink:href="#DejaVuSans-47"/>
      <use xlink:href="#DejaVuSans-6c" x="77.490234"/>
      <use xlink:href="#DejaVuSans-6f" x="105.273438"/>
      <use xlink:href="#DejaVuSans-62" x="166.455078"/>
      <use xlink:href="#DejaVuSans-61" x="229.931641"/>
      <use xlink:href="#DejaVuSans-6c" x="291.210938"/>
      <use xlink:href="#DejaVuSans-20" x="318.994141"/>
      <use xlink:href="#DejaVuSans-6d" x="350.78125"/>
      <use xlink:href="#DejaVuSans-65" x="448.193359"/>
      <use xlink:href="#DejaVuSans-61" x="509.716797"/>
      <use xlink:href="#DejaVuSans-6e" x="570.996094"/>
     </g>
     <!-- temperature above -->
     <g transform="translate(602.303942 113.95175)scale(0.22 -0.22)">
      <defs>
       <path id="DejaVuSans-74" d="M 1172 4494 
L 1172 3500 
L 2356 3500 
L 2356 3053 
L 1172 3053 
L 1172 1153 
Q 1172 725 1289 603 
Q 1406 481 1766 481 
L 2356 481 
L 2356 0 
L 1766 0 
Q 1100 0 847 248 
Q 594 497 594 1153 
L 594 3053 
L 172 3053 
L 172 3500 
L 594 3500 
L 594 4494 
L 1172 4494 
z
" transform="scale(0.015625)"/>
       <path id="DejaVuSans-70" d="M 1159 525 
L 1159 -1331 
L 581 -1331 
L 581 3500 
L 1159 3500 
L 1159 2969 
Q 1341 3281 1617 3432 
Q 1894 3584 2278 3584 
Q 2916 3584 3314 3078 
Q 3713 2572 3713 1747 
Q 3713 922 3314 415 
Q 2916 -91 2278 -91 
Q 1894 -91 1617 61 
Q 1341 213 1159 525 
z
M 3116 1747 
Q 3116 2381 2855 2742 
Q 2594 3103 2138 3103 
Q 1681 3103 1420 2742 
Q 1159 2381 1159 1747 
Q 1159 1113 1420 752 
Q 1681 391 2138 391 
Q 2594 391 2855 752 
Q 3116 1113 3116 1747 
z
" transform="scale(0.015625)"/>
       <path id="DejaVuSans-72" d="M 2631 2963 
Q 2534 3019 2420 3045 
Q 2306 3072 2169 3072 
Q 1681 3072 1420 2755 
Q 1159 2438 1159 1844 
L 1159 0 
L 581 0 
L 581 3500 
L 1159 3500 
L 1159 2956 
Q 1341 3275 1631 3429 
Q 1922 3584 2338 3584 
Q 2397 3584 2469 3576 
Q 2541 3569 2628 3553 
L 2631 2963 
z
" transform="scale(0.015625)"/>
       <path id="DejaVuSans-75" d="M 544 1381 
L 544 3500 
L 1119 3500 
L 1119 1403 
Q 1119 906 1312 657 
Q 1506 409 1894 409 
Q 2359 409 2629 706 
Q 2900 1003 2900 1516 
L 2900 3500 
L 3475 3500 
L 3475 0 
L 2900 0 
L 2900 538 
Q 2691 219 2414 64 
Q 2138 -91 1772 -91 
Q 1169 -91 856 284 
Q 544 659 544 1381 
z
M 1991 3584 
L 1991 3584 
z
" transform="scale(0.015625)"/>
       <path id="DejaVuSans-76" d="M 191 3500 
L 800 3500 
L 1894 563 
L 2988 3500 
L 3597 3500 
L 2284 0 
L 1503 0 
L 191 3500 
z
" transform="scale(0.015625)"/>
      </defs>
      <use xlink:href="#DejaVuSans-74"/>
      <use xlink:href="#DejaVuSans-65" x="39.208984"/>
      <use xlink:href="#DejaVuSans-6d" x="100.732422"/>
      <use xlink:href="#DejaVuSans-70" x="198.144531"/>
      <use xlink:href="#DejaVuSans-65" x="261.621094"/>
      <use xlink:href="#DejaVuSans-72" x="323.144531"/>
      <use xlink:href="#DejaVuSans-61" x="364.257812"/>
      <use xlink:href="#DejaVuSans-74" x="425.537109"/>
      <use xlink:href="#DejaVuSans-75" x="464.746094"/>
      <use xlink:href="#DejaVuSans-72" x="528.125"/>
      <use xlink:href="#DejaVuSans-65" x="566.988281"/>
      <use xlink:href="#DejaVuSans-20" x="628.511719"/>
      <use xlink:href="#DejaVuSans-61" x="660.298828"/>
      <use xlink:href="#DejaVuSans-62" x="721.578125"/>
      <use xlink:href="#DejaVuSans-6f" x="785.054688"/>
      <use xlink:href="#DejaVuSans-76" x="846.236328"/>
      <use xlink:href="#DejaVuSans-65" x="905.416016"/>
     </g>
     <!-- pre-industrial in 2100 -->
     <g transform="translate(602.303942 138.586938)scale(0.22 -0.22)">
      <defs>
       <path id="DejaVuSans-2d" d="M 313 2009 
L 1997 2009 
L 1997 1497 
L 313 1497 
L 313 2009 
z
" transform="scale(0.015625)"/>
       <path id="DejaVuSans-69" d="M 603 3500 
L 1178 3500 
L 1178 0 
L 603 0 
L 603 3500 
z
M 603 4863 
L 1178 4863 
L 1178 4134 
L 603 4134 
L 603 4863 
z
" transform="scale(0.015625)"/>
       <path id="DejaVuSans-64" d="M 2906 2969 
L 2906 4863 
L 3481 4863 
L 3481 0 
L 2906 0 
L 2906 525 
Q 2725 213 2448 61 
Q 2172 -91 1784 -91 
Q 1150 -91 751 415 
Q 353 922 353 1747 
Q 353 2572 751 3078 
Q 1150 3584 1784 3584 
Q 2172 3584 2448 3432 
Q 2725 3281 2906 2969 
z
M 947 1747 
Q 947 1113 1208 752 
Q 1469 391 1925 391 
Q 2381 391 2643 752 
Q 2906 1113 2906 1747 
Q 2906 2381 2643 2742 
Q 2381 3103 1925 3103 
Q 1469 3103 1208 2742 
Q 947 2381 947 1747 
z
" transform="scale(0.015625)"/>
       <path id="DejaVuSans-73" d="M 2834 3397 
L 2834 2853 
Q 2591 2978 2328 3040 
Q 2066 3103 1784 3103 
Q 1356 3103 1142 2972 
Q 928 2841 928 2578 
Q 928 2378 1081 2264 
Q 1234 2150 1697 2047 
L 1894 2003 
Q 2506 1872 2764 1633 
Q 3022 1394 3022 966 
Q 3022 478 2636 193 
Q 2250 -91 1575 -91 
Q 1294 -91 989 -36 
Q 684 19 347 128 
L 347 722 
Q 666 556 975 473 
Q 1284 391 1588 391 
Q 1994 391 2212 530 
Q 2431 669 2431 922 
Q 2431 1156 2273 1281 
Q 2116 1406 1581 1522 
L 1381 1569 
Q 847 1681 609 1914 
Q 372 2147 372 2553 
Q 372 3047 722 3315 
Q 1072 3584 1716 3584 
Q 2034 3584 2315 3537 
Q 2597 3491 2834 3397 
z
" transform="scale(0.015625)"/>
      </defs>
      <use xlink:href="#DejaVuSans-70"/>
      <use xlink:href="#DejaVuSans-72" x="63.476562"/>
      <use xlink:href="#DejaVuSans-65" x="102.339844"/>
      <use xlink:href="#DejaVuSans-2d" x="163.863281"/>
      <use xlink:href="#DejaVuSans-69" x="199.947266"/>
      <use xlink:href="#DejaVuSans-6e" x="227.730469"/>
      <use xlink:href="#DejaVuSans-64" x="291.109375"/>
      <use xlink:href="#DejaVuSans-75" x="354.585938"/>
      <use xlink:href="#DejaVuSans-73" x="417.964844"/>
      <use xlink:href="#DejaVuSans-74" x="470.064453"/>
      <use xlink:href="#DejaVuSans-72" x="509.273438"/>
      <use xlink:href="#DejaVuSans-69" x="550.386719"/>
      <use xlink:href="#DejaVuSans-61" x="578.169922"/>
      <use xlink:href="#DejaVuSans-6c" x="639.449219"/>
      <use xlink:href="#DejaVuSans-20" x="667.232422"/>
      <use xlink:href="#DejaVuSans-69" x="699.019531"/>
      <use xlink:href="#DejaVuSans-6e" x="726.802734"/>
      <use xlink:href="#DejaVuSans-20" x="790.181641"/>
      <use xlink:href="#DejaVuSans-32" x="821.96875"/>
      <use xlink:href="#DejaVuSans-31" x="885.591797"/>
      <use xlink:href="#DejaVuSans-30" x="949.214844"/>
      <use xlink:href="#DejaVuSans-30" x="1012.837891"/>
     </g>
    </g>
    <g id="line2d_18">
     <path d="M 616.971755 155.478813 
L 638.971755 155.478813 
L 660.971755 155.478813 
" style="fill: none; stroke: #74b8f8; stroke-opacity: 0.5; stroke-width: 6; stroke-linecap: square"/>
    </g>
    <g id="text_16">
     <!-- 1.5C (n=2) -->
     <g transform="translate(678.571755 163.178813)scale(0.22 -0.22)">
      <defs>
       <path id="DejaVuSans-2e" d="M 684 794 
L 1344 794 
L 1344 0 
L 684 0 
L 684 794 
z
" transform="scale(0.015625)"/>
       <path id="DejaVuSans-35" d="M 691 4666 
L 3169 4666 
L 3169 4134 
L 1269 4134 
L 1269 2991 
Q 1406 3038 1543 3061 
Q 1681 3084 1819 3084 
Q 2600 3084 3056 2656 
Q 3513 2228 3513 1497 
Q 3513 744 3044 326 
Q 2575 -91 1722 -91 
Q 1428 -91 1123 -41 
Q 819 9 494 109 
L 494 744 
Q 775 591 1075 516 
Q 1375 441 1709 441 
Q 2250 441 2565 725 
Q 2881 1009 2881 1497 
Q 2881 1984 2565 2268 
Q 2250 2553 1709 2553 
Q 1456 2553 1204 2497 
Q 953 2441 691 2322 
L 691 4666 
z
" transform="scale(0.015625)"/>
       <path id="DejaVuSans-b0" d="M 1600 4347 
Q 1350 4347 1178 4173 
Q 1006 4000 1006 3750 
Q 1006 3503 1178 3333 
Q 1350 3163 1600 3163 
Q 1850 3163 2022 3333 
Q 2194 3503 2194 3750 
Q 2194 3997 2020 4172 
Q 1847 4347 1600 4347 
z
M 1600 4750 
Q 1800 4750 1984 4673 
Q 2169 4597 2303 4453 
Q 2447 4313 2519 4134 
Q 2591 3956 2591 3750 
Q 2591 3338 2302 3052 
Q 2013 2766 1594 2766 
Q 1172 2766 890 3047 
Q 609 3328 609 3750 
Q 609 4169 896 4459 
Q 1184 4750 1600 4750 
z
" transform="scale(0.015625)"/>
       <path id="DejaVuSans-43" d="M 4122 4306 
L 4122 3641 
Q 3803 3938 3442 4084 
Q 3081 4231 2675 4231 
Q 1875 4231 1450 3742 
Q 1025 3253 1025 2328 
Q 1025 1406 1450 917 
Q 1875 428 2675 428 
Q 3081 428 3442 575 
Q 3803 722 4122 1019 
L 4122 359 
Q 3791 134 3420 21 
Q 3050 -91 2638 -91 
Q 1578 -91 968 557 
Q 359 1206 359 2328 
Q 359 3453 968 4101 
Q 1578 4750 2638 4750 
Q 3056 4750 3426 4639 
Q 3797 4528 4122 4306 
z
" transform="scale(0.015625)"/>
       <path id="DejaVuSans-28" d="M 1984 4856 
Q 1566 4138 1362 3434 
Q 1159 2731 1159 2009 
Q 1159 1288 1364 580 
Q 1569 -128 1984 -844 
L 1484 -844 
Q 1016 -109 783 600 
Q 550 1309 550 2009 
Q 550 2706 781 3412 
Q 1013 4119 1484 4856 
L 1984 4856 
z
" transform="scale(0.015625)"/>
       <path id="DejaVuSans-3d" d="M 678 2906 
L 4684 2906 
L 4684 2381 
L 678 2381 
L 678 2906 
z
M 678 1631 
L 4684 1631 
L 4684 1100 
L 678 1100 
L 678 1631 
z
" transform="scale(0.015625)"/>
       <path id="DejaVuSans-29" d="M 513 4856 
L 1013 4856 
Q 1481 4119 1714 3412 
Q 1947 2706 1947 2009 
Q 1947 1309 1714 600 
Q 1481 -109 1013 -844 
L 513 -844 
Q 928 -128 1133 580 
Q 1338 1288 1338 2009 
Q 1338 2731 1133 3434 
Q 928 4138 513 4856 
z
" transform="scale(0.015625)"/>
      </defs>
      <use xlink:href="#DejaVuSans-31"/>
      <use xlink:href="#DejaVuSans-2e" x="63.623047"/>
      <use xlink:href="#DejaVuSans-35" x="95.410156"/>
      <use xlink:href="#DejaVuSans-b0" x="159.033203"/>
      <use xlink:href="#DejaVuSans-43" x="209.033203"/>
      <use xlink:href="#DejaVuSans-20" x="278.857422"/>
      <use xlink:href="#DejaVuSans-28" x="310.644531"/>
      <use xlink:href="#DejaVuSans-6e" x="349.658203"/>
      <use xlink:href="#DejaVuSans-3d" x="413.037109"/>
      <use xlink:href="#DejaVuSans-32" x="496.826172"/>
      <use xlink:href="#DejaVuSans-29" x="560.449219"/>
     </g>
    </g>
    <g id="line2d_19">
     <path d="M 616.971755 180.070688 
L 638.971755 180.070688 
L 660.971755 180.070688 
" style="fill: none; stroke: #f47100; stroke-opacity: 0.5; stroke-width: 6; stroke-linecap: square"/>
    </g>
    <g id="text_17">
     <!-- 2.2C (n=14) -->
     <g transform="translate(678.571755 187.770688)scale(0.22 -0.22)">
      <use xlink:href="#DejaVuSans-32"/>
      <use xlink:href="#DejaVuSans-2e" x="63.623047"/>
      <use xlink:href="#DejaVuSans-32" x="95.410156"/>
      <use xlink:href="#DejaVuSans-b0" x="159.033203"/>
      <use xlink:href="#DejaVuSans-43" x="209.033203"/>
      <use xlink:href="#DejaVuSans-20" x="278.857422"/>
      <use xlink:href="#DejaVuSans-28" x="310.644531"/>
      <use xlink:href="#DejaVuSans-6e" x="349.658203"/>
      <use xlink:href="#DejaVuSans-3d" x="413.037109"/>
      <use xlink:href="#DejaVuSans-31" x="496.826172"/>
      <use xlink:href="#DejaVuSans-34" x="560.449219"/>
      <use xlink:href="#DejaVuSans-29" x="624.072266"/>
     </g>
    </g>
    <g id="line2d_20">
     <path d="M 616.971755 204.662563 
L 638.971755 204.662563 
L 660.971755 204.662563 
" style="fill: none; stroke: #d01e04; stroke-opacity: 0.5; stroke-width: 6; stroke-linecap: square"/>
    </g>
    <g id="text_18">
     <!-- 2.8C (n=12) -->
     <g transform="translate(678.571755 212.362563)scale(0.22 -0.22)">
      <use xlink:href="#DejaVuSans-32"/>
      <use xlink:href="#DejaVuSans-2e" x="63.623047"/>
      <use xlink:href="#DejaVuSans-38" x="95.410156"/>
      <use xlink:href="#DejaVuSans-b0" x="159.033203"/>
      <use xlink:href="#DejaVuSans-43" x="209.033203"/>
      <use xlink:href="#DejaVuSans-20" x="278.857422"/>
      <use xlink:href="#DejaVuSans-28" x="310.644531"/>
      <use xlink:href="#DejaVuSans-6e" x="349.658203"/>
      <use xlink:href="#DejaVuSans-3d" x="413.037109"/>
      <use xlink:href="#DejaVuSans-31" x="496.826172"/>
      <use xlink:href="#DejaVuSans-32" x="560.449219"/>
      <use xlink:href="#DejaVuSans-29" x="624.072266"/>
     </g>
    </g>
   </g>
  </g>
 </g>
 <defs>
  <clipPath id="p47c74a6a5c">
   <rect x="109.64" y="52.8" width="749.280192" height="462.76"/>
  </clipPath>
 </defs>
</svg>
