<?xml version="1.0" encoding="utf-8" standalone="no"?>
<!DOCTYPE svg PUBLIC "-//W3C//DTD SVG 1.1//EN"
  "http://www.w3.org/Graphics/SVG/1.1/DTD/svg11.dtd">
<svg xmlns:xlink="http://www.w3.org/1999/xlink" width="900pt" height="600pt" viewBox="0 0 900 600" xmlns="http://www.w3.org/2000/svg" version="1.1">
 <metadata>
  <rdf:RDF xmlns:dc="http://purl.org/dc/elements/1.1/" xmlns:cc="http://creativecommons.org/ns#" xmlns:rdf="http://www.w3.org/1999/02/22-rdf-syntax-ns#">
   <cc:Work>
    <dc:type rdf:resource="http://purl.org/dc/dcmitype/StillImage"/>
    <dc:date>2024-10-31T18:28:30.048856</dc:date>
    <dc:format>image/svg+xml</dc:format>
    <dc:creator>
     <cc:Agent>
      <dc:title>Matplotlib v3.5.3, https://matplotlib.org/</dc:title>
     </cc:Agent>
    </dc:creator>
   </cc:Work>
  </rdf:RDF>
 </metadata>
 <defs>
  <style type="text/css">*{stroke-linejoin: round; stroke-linecap: butt}</style>
 </defs>
 <g id="figure_1">
  <g id="patch_1">
   <path d="M 0 600 
L 900 600 
L 900 0 
L 0 0 
z
" style="fill: #ffffff"/>
  </g>
  <g id="axes_1">
   <g id="patch_2">
    <path d="M 109.64 515.56 
L 858.920192 515.56 
L 858.920192 52.8 
L 109.64 52.8 
z
" style="fill: #ffffff"/>
   </g>
   <g id="PolyCollection_1">
    <defs>
     <path id="m5536b43a06" d="M 167.276938 -451.984846 
L 167.276938 -451.596706 
L 169.678477 -448.467988 
L 172.080016 -445.195013 
L 174.481555 -441.858704 
L 176.883094 -438.506657 
L 179.284633 -435.208329 
L 181.686172 -431.841299 
L 184.087711 -428.466416 
L 186.48925 -425.011479 
L 188.89079 -421.394086 
L 191.292329 -417.683655 
L 193.693868 -413.887092 
L 196.095407 -410.11108 
L 198.496946 -406.354064 
L 200.898485 -402.5604 
L 203.300024 -398.627617 
L 205.701563 -394.6807 
L 208.103102 -390.783872 
L 210.504641 -386.896228 
L 212.90618 -383.191367 
L 215.307719 -379.479509 
L 217.709259 -375.943588 
L 220.110798 -372.525092 
L 222.512337 -369.12578 
L 224.913876 -365.740789 
L 227.315415 -362.286294 
L 229.716954 -358.918455 
L 232.118493 -355.603541 
L 234.520032 -352.401197 
L 236.921571 -349.378368 
L 239.32311 -346.477507 
L 241.724649 -343.637135 
L 244.126188 -340.807287 
L 246.527727 -337.971759 
L 248.929267 -335.159488 
L 251.330806 -332.580759 
L 253.732345 -330.03544 
L 256.133884 -327.559398 
L 258.535423 -325.044267 
L 260.936962 -322.480646 
L 263.338501 -320.008256 
L 265.74004 -317.539467 
L 268.141579 -315.090241 
L 270.543118 -312.657979 
L 272.944657 -310.239138 
L 275.346196 -307.877188 
L 277.747735 -305.564699 
L 280.149275 -303.291659 
L 282.550814 -301.05773 
L 284.952353 -298.834906 
L 287.353892 -296.621031 
L 289.755431 -294.475854 
L 292.15697 -292.425043 
L 294.558509 -290.500563 
L 296.960048 -288.706533 
L 299.361587 -286.933947 
L 301.763126 -285.207773 
L 304.164665 -283.484973 
L 306.566204 -281.938931 
L 308.967743 -280.510452 
L 311.369283 -279.11547 
L 313.770822 -277.730963 
L 316.172361 -276.415346 
L 318.5739 -275.1657 
L 320.975439 -274.005689 
L 323.376978 -272.900981 
L 325.778517 -271.869443 
L 328.180056 -270.885938 
L 330.581595 -269.923267 
L 332.983134 -268.993917 
L 335.384673 -268.121618 
L 337.786212 -267.298265 
L 340.187751 -266.482659 
L 342.589291 -265.667558 
L 344.99083 -264.842608 
L 347.392369 -264.016282 
L 349.793908 -263.206602 
L 352.195447 -262.469256 
L 354.596986 -261.660969 
L 356.998525 -260.81142 
L 359.400064 -259.926587 
L 361.801603 -259.045138 
L 364.203142 -258.152352 
L 366.604681 -257.287779 
L 369.00622 -256.39367 
L 371.407759 -255.513077 
L 373.809299 -254.615519 
L 376.210838 -253.688868 
L 378.612377 -252.746113 
L 381.013916 -251.79311 
L 383.415455 -250.859648 
L 385.816994 -249.931429 
L 388.218533 -249.044677 
L 390.620072 -248.163893 
L 393.021611 -247.324215 
L 395.42315 -246.52501 
L 397.824689 -245.723157 
L 400.226228 -244.940879 
L 402.627768 -244.211696 
L 405.029307 -243.494045 
L 407.430846 -242.802658 
L 409.832385 -242.124626 
L 412.233924 -241.455575 
L 414.635463 -240.781393 
L 417.037002 -240.160908 
L 419.438541 -239.562917 
L 421.84008 -238.999174 
L 424.241619 -238.458508 
L 426.643158 -237.931953 
L 429.044697 -237.428527 
L 431.446236 -236.945421 
L 433.847776 -236.459323 
L 436.249315 -235.975675 
L 438.650854 -235.483646 
L 441.052393 -234.998661 
L 443.453932 -234.551617 
L 445.855471 -234.132718 
L 448.25701 -233.725545 
L 450.658549 -233.380776 
L 453.060088 -233.063004 
L 455.461627 -232.781146 
L 457.863166 -232.491169 
L 460.264705 -232.208889 
L 462.666244 -231.97276 
L 465.067784 -231.775656 
L 467.469323 -231.566702 
L 469.870862 -231.354864 
L 472.272401 -231.189829 
L 474.67394 -231.096277 
L 477.075479 -231.024001 
L 479.477018 -230.971156 
L 481.878557 -230.914168 
L 484.280096 -230.876115 
L 486.681635 -230.839986 
L 489.083174 -230.789811 
L 491.484713 -230.744917 
L 493.886252 -230.726704 
L 496.287792 -230.657761 
L 498.689331 -230.568782 
L 501.09087 -230.511787 
L 503.492409 -230.460093 
L 505.893948 -230.441007 
L 508.295487 -230.442251 
L 510.697026 -230.450017 
L 513.098565 -230.449689 
L 515.500104 -230.487064 
L 517.901643 -230.536645 
L 520.303182 -230.578598 
L 522.704721 -230.589305 
L 525.10626 -230.59988 
L 527.5078 -230.604763 
L 529.909339 -230.613344 
L 532.310878 -230.629693 
L 534.712417 -230.678987 
L 537.113956 -230.736757 
L 539.515495 -230.757068 
L 541.917034 -230.761237 
L 544.318573 -230.80138 
L 546.720112 -230.865601 
L 549.121651 -230.923772 
L 551.52319 -230.973168 
L 553.924729 -231.013437 
L 556.326268 -231.059975 
L 558.727808 -231.080005 
L 561.129347 -231.10239 
L 563.530886 -231.118018 
L 565.932425 -231.099018 
L 568.333964 -231.080055 
L 570.735503 -231.102782 
L 573.137042 -231.141568 
L 575.538581 -231.164915 
L 577.94012 -231.193271 
L 580.341659 -231.196971 
L 582.743198 -231.21091 
L 585.144737 -231.237676 
L 587.546277 -231.270656 
L 589.947816 -231.314641 
L 592.349355 -231.401276 
L 594.750894 -231.469978 
L 597.152433 -231.573642 
L 599.553972 -231.700179 
L 601.955511 -231.819427 
L 604.35705 -231.925085 
L 606.758589 -232.011099 
L 609.160128 -232.108007 
L 611.561667 -232.223989 
L 613.963206 -232.364003 
L 616.364745 -232.474906 
L 618.766285 -232.55568 
L 621.167824 -232.578088 
L 623.569363 -232.576379 
L 625.970902 -232.569658 
L 628.372441 -232.553545 
L 630.77398 -232.526262 
L 633.175519 -232.443009 
L 635.577058 -232.358752 
L 637.978597 -232.230212 
L 640.380136 -232.045031 
L 642.781675 -231.867182 
L 645.183214 -231.667915 
L 647.584753 -231.449452 
L 649.986293 -231.240579 
L 652.387832 -231.080439 
L 654.789371 -230.993571 
L 657.19091 -230.89307 
L 659.592449 -230.789382 
L 661.993988 -230.697791 
L 664.395527 -230.617197 
L 666.797066 -230.524497 
L 669.198605 -230.481019 
L 671.600144 -230.458544 
L 674.001683 -230.445794 
L 676.403222 -230.450595 
L 678.804761 -230.463545 
L 681.206301 -230.507039 
L 683.60784 -230.56583 
L 686.009379 -230.674885 
L 688.410918 -230.813203 
L 690.812457 -230.941524 
L 693.213996 -231.060892 
L 695.615535 -231.177971 
L 698.017074 -231.306866 
L 700.418613 -231.384413 
L 702.820152 -231.450561 
L 705.221691 -231.517908 
L 707.62323 -231.574789 
L 710.024769 -231.614047 
L 712.426309 -231.675879 
L 714.827848 -231.727971 
L 717.229387 -231.779026 
L 719.630926 -231.861883 
L 722.032465 -232.01061 
L 724.434004 -232.132885 
L 726.835543 -232.237646 
L 729.237082 -232.391053 
L 731.638621 -232.560592 
L 734.04016 -232.70039 
L 736.441699 -232.855583 
L 738.843238 -232.979937 
L 741.244777 -233.10515 
L 743.646317 -233.197821 
L 746.047856 -233.284532 
L 748.449395 -233.418113 
L 750.850934 -233.509924 
L 753.252473 -233.608347 
L 755.654012 -233.734684 
L 758.055551 -233.895261 
L 760.45709 -234.038803 
L 762.858629 -234.210313 
L 765.260168 -234.382209 
L 767.661707 -234.498437 
L 770.063246 -234.547703 
L 772.464786 -234.59377 
L 774.866325 -234.665726 
L 777.267864 -234.749872 
L 779.669403 -234.828133 
L 782.070942 -234.914265 
L 784.472481 -234.98276 
L 786.87402 -235.064769 
L 789.275559 -235.141916 
L 791.677098 -235.234289 
L 794.078637 -235.326046 
L 796.480176 -235.378713 
L 798.881715 -235.461976 
L 801.283254 -235.551718 
L 803.684794 -235.636886 
L 806.086333 -235.699046 
L 808.487872 -235.75146 
L 810.889411 -235.806082 
L 813.29095 -235.833573 
L 815.692489 -235.877504 
L 818.094028 -235.917513 
L 820.495567 -235.988439 
L 822.897106 -236.045908 
L 825.298645 -236.061352 
L 827.700184 -236.072783 
L 830.101723 -236.082895 
L 832.503262 -236.066578 
L 834.904802 -236.08264 
L 837.306341 -236.120387 
L 837.306341 -238.727113 
L 837.306341 -238.727113 
L 834.904802 -238.699519 
L 832.503262 -238.691137 
L 830.101723 -238.714778 
L 827.700184 -238.710252 
L 825.298645 -238.705096 
L 822.897106 -238.697597 
L 820.495567 -238.634111 
L 818.094028 -238.557094 
L 815.692489 -238.516989 
L 813.29095 -238.484327 
L 810.889411 -238.477838 
L 808.487872 -238.433989 
L 806.086333 -238.385546 
L 803.684794 -238.323647 
L 801.283254 -238.233523 
L 798.881715 -238.139586 
L 796.480176 -238.049399 
L 794.078637 -237.996604 
L 791.677098 -237.89953 
L 789.275559 -237.802504 
L 786.87402 -237.721784 
L 784.472481 -237.639798 
L 782.070942 -237.579889 
L 779.669403 -237.496698 
L 777.267864 -237.419911 
L 774.866325 -237.338145 
L 772.464786 -237.277875 
L 770.063246 -237.24972 
L 767.661707 -237.22382 
L 765.260168 -237.11529 
L 762.858629 -236.941323 
L 760.45709 -236.76853 
L 758.055551 -236.631645 
L 755.654012 -236.472531 
L 753.252473 -236.352391 
L 750.850934 -236.257366 
L 748.449395 -236.168553 
L 746.047856 -236.025773 
L 743.646317 -235.943262 
L 741.244777 -235.853703 
L 738.843238 -235.725162 
L 736.441699 -235.596721 
L 734.04016 -235.430186 
L 731.638621 -235.282739 
L 729.237082 -235.093219 
L 726.835543 -234.917784 
L 724.434004 -234.79897 
L 722.032465 -234.655496 
L 719.630926 -234.475252 
L 717.229387 -234.377007 
L 714.827848 -234.311322 
L 712.426309 -234.242973 
L 710.024769 -234.160945 
L 707.62323 -234.10365 
L 705.221691 -234.028645 
L 702.820152 -233.950535 
L 700.418613 -233.877659 
L 698.017074 -233.788005 
L 695.615535 -233.637414 
L 693.213996 -233.500374 
L 690.812457 -233.354419 
L 688.410918 -233.199061 
L 686.009379 -233.029228 
L 683.60784 -232.889771 
L 681.206301 -232.81298 
L 678.804761 -232.75348 
L 676.403222 -232.728583 
L 674.001683 -232.714887 
L 671.600144 -232.718847 
L 669.198605 -232.732094 
L 666.797066 -232.769817 
L 664.395527 -232.860879 
L 661.993988 -232.931367 
L 659.592449 -233.012682 
L 657.19091 -233.106052 
L 654.789371 -233.185453 
L 652.387832 -233.245593 
L 649.986293 -233.400223 
L 647.584753 -233.609355 
L 645.183214 -233.830178 
L 642.781675 -234.033499 
L 640.380136 -234.212757 
L 637.978597 -234.401909 
L 635.577058 -234.528294 
L 633.175519 -234.605856 
L 630.77398 -234.684479 
L 628.372441 -234.697643 
L 625.970902 -234.696921 
L 623.569363 -234.680428 
L 621.167824 -234.658738 
L 618.766285 -234.610726 
L 616.364745 -234.503456 
L 613.963206 -234.369499 
L 611.561667 -234.205499 
L 609.160128 -234.066432 
L 606.758589 -233.954052 
L 604.35705 -233.850601 
L 601.955511 -233.725415 
L 599.553972 -233.584676 
L 597.152433 -233.436161 
L 594.750894 -233.320887 
L 592.349355 -233.24451 
L 589.947816 -233.145212 
L 587.546277 -233.097595 
L 585.144737 -233.064936 
L 582.743198 -233.03198 
L 580.341659 -233.014037 
L 577.94012 -233.01146 
L 575.538581 -232.983845 
L 573.137042 -232.963353 
L 570.735503 -232.926717 
L 568.333964 -232.90753 
L 565.932425 -232.937881 
L 563.530886 -232.971293 
L 561.129347 -232.967034 
L 558.727808 -232.952539 
L 556.326268 -232.946697 
L 553.924729 -232.904815 
L 551.52319 -232.871225 
L 549.121651 -232.826022 
L 546.720112 -232.763652 
L 544.318573 -232.692495 
L 541.917034 -232.651938 
L 539.515495 -232.650381 
L 537.113956 -232.627392 
L 534.712417 -232.568432 
L 532.310878 -232.522628 
L 529.909339 -232.505224 
L 527.5078 -232.503743 
L 525.10626 -232.511141 
L 522.704721 -232.49823 
L 520.303182 -232.487413 
L 517.901643 -232.441124 
L 515.500104 -232.386881 
L 513.098565 -232.34944 
L 510.697026 -232.361515 
L 508.295487 -232.366352 
L 505.893948 -232.382332 
L 503.492409 -232.422967 
L 501.09087 -232.5048 
L 498.689331 -232.596061 
L 496.287792 -232.725185 
L 493.886252 -232.833677 
L 491.484713 -232.88737 
L 489.083174 -232.975698 
L 486.681635 -233.073107 
L 484.280096 -233.154055 
L 481.878557 -233.238392 
L 479.477018 -233.346046 
L 477.075479 -233.443108 
L 474.67394 -233.577117 
L 472.272401 -233.7244 
L 469.870862 -233.953634 
L 467.469323 -234.237535 
L 465.067784 -234.51911 
L 462.666244 -234.790681 
L 460.264705 -235.104225 
L 457.863166 -235.475751 
L 455.461627 -235.852677 
L 453.060088 -236.214249 
L 450.658549 -236.619615 
L 448.25701 -237.057735 
L 445.855471 -237.573548 
L 443.453932 -238.10301 
L 441.052393 -238.667215 
L 438.650854 -239.278168 
L 436.249315 -239.89975 
L 433.847776 -240.524387 
L 431.446236 -241.153729 
L 429.044697 -241.781617 
L 426.643158 -242.429637 
L 424.241619 -243.115615 
L 421.84008 -243.820109 
L 419.438541 -244.554356 
L 417.037002 -245.32353 
L 414.635463 -246.119732 
L 412.233924 -246.97183 
L 409.832385 -247.814021 
L 407.430846 -248.674665 
L 405.029307 -249.560066 
L 402.627768 -250.473117 
L 400.226228 -251.39804 
L 397.824689 -252.35925 
L 395.42315 -253.336677 
L 393.021611 -254.311999 
L 390.620072 -255.32755 
L 388.218533 -256.392496 
L 385.816994 -257.463061 
L 383.415455 -258.575998 
L 381.013916 -259.697368 
L 378.612377 -260.85028 
L 376.210838 -261.987804 
L 373.809299 -263.097201 
L 371.407759 -264.169961 
L 369.00622 -265.223388 
L 366.604681 -266.285268 
L 364.203142 -267.321629 
L 361.801603 -268.390602 
L 359.400064 -269.435557 
L 356.998525 -270.476012 
L 354.596986 -271.472213 
L 352.195447 -272.417923 
L 349.793908 -273.298377 
L 347.392369 -274.251602 
L 344.99083 -275.205054 
L 342.589291 -276.151788 
L 340.187751 -277.069447 
L 337.786212 -277.975064 
L 335.384673 -278.881637 
L 332.983134 -279.836427 
L 330.581595 -280.838005 
L 328.180056 -281.859088 
L 325.778517 -282.899476 
L 323.376978 -283.98156 
L 320.975439 -285.141075 
L 318.5739 -286.349051 
L 316.172361 -287.63707 
L 313.770822 -288.983373 
L 311.369283 -290.405458 
L 308.967743 -291.835197 
L 306.566204 -293.296402 
L 304.164665 -294.874621 
L 301.763126 -296.614782 
L 299.361587 -298.354359 
L 296.960048 -300.148763 
L 294.558509 -301.951657 
L 292.15697 -303.890574 
L 289.755431 -305.956145 
L 287.353892 -308.097136 
L 284.952353 -310.285304 
L 282.550814 -312.479937 
L 280.149275 -314.689363 
L 277.747735 -316.94244 
L 275.346196 -319.223324 
L 272.944657 -321.528769 
L 270.543118 -323.894513 
L 268.141579 -326.265546 
L 265.74004 -328.632307 
L 263.338501 -331.002245 
L 260.936962 -333.358684 
L 258.535423 -335.800994 
L 256.133884 -338.188762 
L 253.732345 -340.544119 
L 251.330806 -342.963456 
L 248.929267 -345.411913 
L 246.527727 -348.088966 
L 244.126188 -350.769701 
L 241.724649 -353.438065 
L 239.32311 -356.128228 
L 236.921571 -358.879028 
L 234.520032 -361.743975 
L 232.118493 -364.763101 
L 229.716954 -367.864132 
L 227.315415 -370.999736 
L 224.913876 -374.205022 
L 222.512337 -377.320537 
L 220.110798 -380.438177 
L 217.709259 -383.576111 
L 215.307719 -386.823573 
L 212.90618 -390.244862 
L 210.504641 -393.638164 
L 208.103102 -397.198913 
L 205.701563 -400.74914 
L 203.300024 -404.332208 
L 200.898485 -407.885241 
L 198.496946 -411.293914 
L 196.095407 -414.666973 
L 193.693868 -418.049389 
L 191.292329 -421.428265 
L 188.89079 -424.715467 
L 186.48925 -427.948894 
L 184.087711 -431.070957 
L 181.686172 -434.13827 
L 179.284633 -437.244039 
L 176.883094 -440.260737 
L 174.481555 -443.295411 
L 172.080016 -446.301349 
L 169.678477 -449.21695 
L 167.276938 -451.984846 
z
" style="stroke: #74b8f8; stroke-opacity: 0.2"/>
    </defs>
    <g clip-path="url(#p20997783c6)">
     <use xlink:href="#m5536b43a06" x="0" y="600" style="fill: #74b8f8; fill-opacity: 0.2; stroke: #74b8f8; stroke-opacity: 0.2"/>
    </g>
   </g>
   <g id="PolyCollection_2">
    <defs>
     <path id="m15ed92bf9e" d="M 116.844617 -489.719909 
L 116.844617 -483.729956 
L 119.246156 -483.098816 
L 121.647695 -482.396784 
L 124.049234 -481.71559 
L 126.450774 -481.039103 
L 128.852313 -480.298522 
L 131.253852 -479.512403 
L 133.655391 -478.694108 
L 136.05693 -477.773402 
L 138.458469 -476.814669 
L 140.860008 -475.841583 
L 143.261547 -474.1227 
L 145.663086 -472.303999 
L 148.064625 -470.377012 
L 150.466164 -468.360583 
L 152.867703 -466.266588 
L 155.269242 -464.113054 
L 157.670782 -461.936397 
L 160.072321 -459.637894 
L 162.47386 -457.278907 
L 164.875399 -454.648 
L 164.875399 -454.648 
L 164.875399 -454.648 
L 162.47386 -457.637523 
L 160.072321 -460.366679 
L 157.670782 -463.032886 
L 155.269242 -465.568923 
L 152.867703 -468.043096 
L 150.466164 -470.489976 
L 148.064625 -472.847187 
L 145.663086 -475.130674 
L 143.261547 -477.320338 
L 140.860008 -479.455915 
L 138.458469 -480.61997 
L 136.05693 -481.813416 
L 133.655391 -482.993071 
L 131.253852 -484.125398 
L 128.852313 -485.193982 
L 126.450774 -486.187092 
L 124.049234 -487.10583 
L 121.647695 -488.002389 
L 119.246156 -488.918827 
L 116.844617 -489.719909 
z
" style="stroke: #000000; stroke-opacity: 0.2"/>
    </defs>
    <g clip-path="url(#p20997783c6)">
     <use xlink:href="#m15ed92bf9e" x="0" y="600" style="fill-opacity: 0.2; stroke: #000000; stroke-opacity: 0.2"/>
    </g>
   </g>
   <g id="PolyCollection_3">
    <defs>
     <path id="mad30eff8a5" d="M 167.276938 -452.376661 
L 167.276938 -451.736968 
L 169.678477 -448.774435 
L 172.080016 -445.700593 
L 174.481555 -442.592713 
L 176.883094 -439.451008 
L 179.284633 -436.263085 
L 181.686172 -432.981888 
L 184.087711 -429.655167 
L 186.48925 -426.380617 
L 188.89079 -423.00175 
L 191.292329 -419.630495 
L 193.693868 -416.078263 
L 196.095407 -412.40256 
L 198.496946 -408.998432 
L 200.898485 -405.759335 
L 203.300024 -402.46039 
L 205.701563 -399.213404 
L 208.103102 -395.9512 
L 210.504641 -392.626605 
L 212.90618 -389.007581 
L 215.307719 -385.243989 
L 217.709259 -381.336679 
L 220.110798 -377.209722 
L 222.512337 -373.049484 
L 224.913876 -369.236609 
L 227.315415 -365.864352 
L 229.716954 -362.353852 
L 232.118493 -358.690599 
L 234.520032 -355.045994 
L 236.921571 -351.498111 
L 239.32311 -348.045603 
L 241.724649 -344.676214 
L 244.126188 -341.350062 
L 246.527727 -338.195218 
L 248.929267 -335.030848 
L 251.330806 -331.892905 
L 253.732345 -328.871747 
L 256.133884 -325.763755 
L 258.535423 -322.78435 
L 260.936962 -319.845416 
L 263.338501 -316.875202 
L 265.74004 -313.951911 
L 268.141579 -311.061049 
L 270.543118 -308.213709 
L 272.944657 -305.397247 
L 275.346196 -302.594149 
L 277.747735 -299.764398 
L 280.149275 -296.972705 
L 282.550814 -294.265293 
L 284.952353 -291.577897 
L 287.353892 -288.985191 
L 289.755431 -286.589199 
L 292.15697 -284.206826 
L 294.558509 -281.906882 
L 296.960048 -279.652356 
L 299.361587 -277.376922 
L 301.763126 -275.026936 
L 304.164665 -272.710674 
L 306.566204 -270.435518 
L 308.967743 -268.267859 
L 311.369283 -266.219841 
L 313.770822 -264.243227 
L 316.172361 -262.298334 
L 318.5739 -260.352363 
L 320.975439 -258.61756 
L 323.376978 -256.878058 
L 325.778517 -255.218597 
L 328.180056 -253.653017 
L 330.581595 -252.16307 
L 332.983134 -250.734976 
L 335.384673 -249.106959 
L 337.786212 -247.354797 
L 340.187751 -245.6293 
L 342.589291 -243.942827 
L 344.99083 -242.744463 
L 347.392369 -241.428827 
L 349.793908 -240.092181 
L 352.195447 -238.78981 
L 354.596986 -237.421653 
L 356.998525 -235.799202 
L 359.400064 -234.703511 
L 361.801603 -233.618354 
L 364.203142 -232.552572 
L 366.604681 -231.510834 
L 369.00622 -230.497303 
L 371.407759 -229.534231 
L 373.809299 -228.633461 
L 376.210838 -227.735287 
L 378.612377 -226.857013 
L 381.013916 -226.005414 
L 383.415455 -225.185028 
L 385.816994 -224.352596 
L 388.218533 -223.435139 
L 390.620072 -222.551861 
L 393.021611 -221.735082 
L 395.42315 -220.940006 
L 397.824689 -220.141226 
L 400.226228 -219.318768 
L 402.627768 -218.491611 
L 405.029307 -217.708245 
L 407.430846 -216.986152 
L 409.832385 -216.307438 
L 412.233924 -215.56161 
L 414.635463 -214.778561 
L 417.037002 -214.02377 
L 419.438541 -213.251267 
L 421.84008 -212.526767 
L 424.241619 -211.83139 
L 426.643158 -211.175769 
L 429.044697 -210.536438 
L 431.446236 -209.798718 
L 433.847776 -209.067933 
L 436.249315 -208.291742 
L 438.650854 -207.517787 
L 441.052393 -206.732926 
L 443.453932 -205.930517 
L 445.855471 -205.152698 
L 448.25701 -204.42767 
L 450.658549 -203.761828 
L 453.060088 -203.117727 
L 455.461627 -202.416948 
L 457.863166 -201.684626 
L 460.264705 -200.969614 
L 462.666244 -200.254938 
L 465.067784 -199.533556 
L 467.469323 -198.828929 
L 469.870862 -198.159929 
L 472.272401 -197.491766 
L 474.67394 -196.819737 
L 477.075479 -196.165156 
L 479.477018 -195.546393 
L 481.878557 -194.953596 
L 484.280096 -194.401254 
L 486.681635 -193.92819 
L 489.083174 -193.490348 
L 491.484713 -193.058826 
L 493.886252 -192.653656 
L 496.287792 -192.226649 
L 498.689331 -191.812904 
L 501.09087 -191.366803 
L 503.492409 -190.995281 
L 505.893948 -190.701645 
L 508.295487 -190.408483 
L 510.697026 -190.126886 
L 513.098565 -189.870527 
L 515.500104 -189.665536 
L 517.901643 -189.46377 
L 520.303182 -189.291716 
L 522.704721 -189.129729 
L 525.10626 -188.968503 
L 527.5078 -188.815362 
L 529.909339 -188.676735 
L 532.310878 -188.609216 
L 534.712417 -188.539055 
L 537.113956 -188.468992 
L 539.515495 -188.426081 
L 541.917034 -188.384386 
L 544.318573 -188.346694 
L 546.720112 -188.336589 
L 549.121651 -188.351115 
L 551.52319 -188.327483 
L 553.924729 -188.261104 
L 556.326268 -188.184051 
L 558.727808 -188.11458 
L 561.129347 -188.060901 
L 563.530886 -188.021308 
L 565.932425 -187.978731 
L 568.333964 -187.873973 
L 570.735503 -187.736637 
L 573.137042 -187.61027 
L 575.538581 -187.497479 
L 577.94012 -187.370238 
L 580.341659 -187.201832 
L 582.743198 -187.024002 
L 585.144737 -186.840423 
L 587.546277 -186.647274 
L 589.947816 -186.457548 
L 592.349355 -186.282716 
L 594.750894 -186.092925 
L 597.152433 -185.92244 
L 599.553972 -185.784768 
L 601.955511 -185.677444 
L 604.35705 -185.607914 
L 606.758589 -185.55088 
L 609.160128 -185.51427 
L 611.561667 -185.426808 
L 613.963206 -185.377132 
L 616.364745 -185.399735 
L 618.766285 -185.475864 
L 621.167824 -185.583798 
L 623.569363 -185.693735 
L 625.970902 -185.799406 
L 628.372441 -185.874677 
L 630.77398 -185.920343 
L 633.175519 -186.000997 
L 635.577058 -186.078422 
L 637.978597 -186.152764 
L 640.380136 -186.24212 
L 642.781675 -186.334114 
L 645.183214 -186.402108 
L 647.584753 -186.473881 
L 649.986293 -186.537029 
L 652.387832 -186.601777 
L 654.789371 -186.665389 
L 657.19091 -186.705809 
L 659.592449 -186.743594 
L 661.993988 -186.761935 
L 664.395527 -186.790702 
L 666.797066 -186.796701 
L 669.198605 -186.783036 
L 671.600144 -186.768724 
L 674.001683 -186.758864 
L 676.403222 -186.791773 
L 678.804761 -186.855152 
L 681.206301 -186.898544 
L 683.60784 -186.945122 
L 686.009379 -186.972287 
L 688.410918 -186.962232 
L 690.812457 -186.979463 
L 693.213996 -187.05652 
L 695.615535 -187.130328 
L 698.017074 -187.210303 
L 700.418613 -187.295998 
L 702.820152 -187.41814 
L 705.221691 -187.576364 
L 707.62323 -187.595692 
L 710.024769 -187.510895 
L 712.426309 -187.396237 
L 714.827848 -187.312074 
L 717.229387 -187.251898 
L 719.630926 -187.203243 
L 722.032465 -187.166181 
L 724.434004 -187.103474 
L 726.835543 -187.044223 
L 729.237082 -186.958673 
L 731.638621 -186.853861 
L 734.04016 -186.746236 
L 736.441699 -186.65455 
L 738.843238 -186.576068 
L 741.244777 -186.469682 
L 743.646317 -186.363674 
L 746.047856 -186.26011 
L 748.449395 -186.144952 
L 750.850934 -186.045038 
L 753.252473 -185.916336 
L 755.654012 -185.811883 
L 758.055551 -185.693422 
L 760.45709 -185.578936 
L 762.858629 -185.439895 
L 765.260168 -185.296938 
L 767.661707 -185.152598 
L 770.063246 -185.006578 
L 772.464786 -184.881167 
L 774.866325 -184.734749 
L 777.267864 -184.583073 
L 779.669403 -184.447216 
L 782.070942 -184.323587 
L 784.472481 -184.196787 
L 786.87402 -184.083364 
L 789.275559 -183.992987 
L 791.677098 -183.915818 
L 794.078637 -183.833936 
L 796.480176 -183.747906 
L 798.881715 -183.656358 
L 801.283254 -183.576609 
L 803.684794 -183.51487 
L 806.086333 -183.458375 
L 808.487872 -183.412435 
L 810.889411 -183.380985 
L 813.29095 -183.329629 
L 815.692489 -183.239486 
L 818.094028 -183.19577 
L 820.495567 -183.142767 
L 822.897106 -183.107649 
L 825.298645 -183.103305 
L 827.700184 -183.118249 
L 830.101723 -183.132986 
L 832.503262 -183.162477 
L 834.904802 -183.179584 
L 837.306341 -183.185244 
L 837.306341 -224.830584 
L 837.306341 -224.830584 
L 834.904802 -224.781684 
L 832.503262 -224.754973 
L 830.101723 -224.726125 
L 827.700184 -224.701175 
L 825.298645 -224.630728 
L 822.897106 -224.556416 
L 820.495567 -224.491022 
L 818.094028 -224.429225 
L 815.692489 -224.354243 
L 813.29095 -224.209571 
L 810.889411 -224.050233 
L 808.487872 -223.879508 
L 806.086333 -223.687921 
L 803.684794 -223.508817 
L 801.283254 -223.355373 
L 798.881715 -223.263218 
L 796.480176 -223.161178 
L 794.078637 -223.079034 
L 791.677098 -223.002941 
L 789.275559 -222.924514 
L 786.87402 -222.816897 
L 784.472481 -222.682638 
L 782.070942 -222.529585 
L 779.669403 -222.342567 
L 777.267864 -222.183321 
L 774.866325 -222.048744 
L 772.464786 -221.927122 
L 770.063246 -221.779363 
L 767.661707 -221.612746 
L 765.260168 -221.472043 
L 762.858629 -221.355242 
L 760.45709 -221.25887 
L 758.055551 -221.169043 
L 755.654012 -221.054702 
L 753.252473 -220.939694 
L 750.850934 -220.831105 
L 748.449395 -220.710098 
L 746.047856 -220.573901 
L 743.646317 -220.447976 
L 741.244777 -220.317674 
L 738.843238 -220.230521 
L 736.441699 -220.134732 
L 734.04016 -220.064898 
L 731.638621 -220.052058 
L 729.237082 -220.060361 
L 726.835543 -220.06311 
L 724.434004 -220.059071 
L 722.032465 -220.074246 
L 719.630926 -220.116122 
L 717.229387 -220.170829 
L 714.827848 -220.226532 
L 712.426309 -220.280816 
L 710.024769 -220.325618 
L 707.62323 -220.383862 
L 705.221691 -220.435371 
L 702.820152 -220.52053 
L 700.418613 -220.624022 
L 698.017074 -220.706628 
L 695.615535 -220.790705 
L 693.213996 -220.859962 
L 690.812457 -220.89748 
L 688.410918 -220.950401 
L 686.009379 -220.976033 
L 683.60784 -220.984844 
L 681.206301 -220.981953 
L 678.804761 -220.998864 
L 676.403222 -221.023174 
L 674.001683 -221.065203 
L 671.600144 -221.100609 
L 669.198605 -221.097878 
L 666.797066 -221.096516 
L 664.395527 -221.099272 
L 661.993988 -221.111541 
L 659.592449 -221.145898 
L 657.19091 -221.181507 
L 654.789371 -221.190009 
L 652.387832 -221.220741 
L 649.986293 -221.282231 
L 647.584753 -221.328725 
L 645.183214 -221.377613 
L 642.781675 -221.444419 
L 640.380136 -221.550312 
L 637.978597 -221.670676 
L 635.577058 -221.779611 
L 633.175519 -221.902547 
L 630.77398 -221.973173 
L 628.372441 -222.047204 
L 625.970902 -222.11995 
L 623.569363 -222.195319 
L 621.167824 -222.302584 
L 618.766285 -222.404075 
L 616.364745 -222.525564 
L 613.963206 -222.621148 
L 611.561667 -222.71023 
L 609.160128 -222.801559 
L 606.758589 -222.868784 
L 604.35705 -222.908218 
L 601.955511 -222.913347 
L 599.553972 -222.942434 
L 597.152433 -222.990324 
L 594.750894 -223.046494 
L 592.349355 -223.076599 
L 589.947816 -223.109305 
L 587.546277 -223.111315 
L 585.144737 -223.088635 
L 582.743198 -223.11682 
L 580.341659 -223.142921 
L 577.94012 -223.165801 
L 575.538581 -223.20582 
L 573.137042 -223.251195 
L 570.735503 -223.296353 
L 568.333964 -223.284683 
L 565.932425 -223.279599 
L 563.530886 -223.266607 
L 561.129347 -223.22633 
L 558.727808 -223.222004 
L 556.326268 -223.216697 
L 553.924729 -223.245923 
L 551.52319 -223.299314 
L 549.121651 -223.332017 
L 546.720112 -223.344092 
L 544.318573 -223.370613 
L 541.917034 -223.413776 
L 539.515495 -223.494565 
L 537.113956 -223.593906 
L 534.712417 -223.66536 
L 532.310878 -223.748141 
L 529.909339 -223.832327 
L 527.5078 -223.920894 
L 525.10626 -223.99959 
L 522.704721 -224.091917 
L 520.303182 -224.237039 
L 517.901643 -224.415234 
L 515.500104 -224.596953 
L 513.098565 -224.79187 
L 510.697026 -224.975586 
L 508.295487 -225.264846 
L 505.893948 -225.5805 
L 503.492409 -225.888773 
L 501.09087 -226.198113 
L 498.689331 -226.495902 
L 496.287792 -226.748351 
L 493.886252 -226.994616 
L 491.484713 -227.239534 
L 489.083174 -227.468231 
L 486.681635 -227.750966 
L 484.280096 -227.992109 
L 481.878557 -228.326671 
L 479.477018 -228.7311 
L 477.075479 -229.148834 
L 474.67394 -229.567947 
L 472.272401 -229.97683 
L 469.870862 -230.368582 
L 467.469323 -230.753427 
L 465.067784 -231.1535 
L 462.666244 -231.560102 
L 460.264705 -231.971077 
L 457.863166 -232.429145 
L 455.461627 -232.996468 
L 453.060088 -233.688425 
L 450.658549 -234.473051 
L 448.25701 -235.280268 
L 445.855471 -236.143843 
L 443.453932 -237.022542 
L 441.052393 -237.905706 
L 438.650854 -238.902163 
L 436.249315 -239.485852 
L 433.847776 -239.841222 
L 431.446236 -240.198373 
L 429.044697 -240.56376 
L 426.643158 -240.969048 
L 424.241619 -241.380349 
L 421.84008 -241.78307 
L 419.438541 -242.263434 
L 417.037002 -242.761476 
L 414.635463 -243.28736 
L 412.233924 -243.812042 
L 409.832385 -244.288846 
L 407.430846 -244.746526 
L 405.029307 -245.195695 
L 402.627768 -245.666481 
L 400.226228 -246.225899 
L 397.824689 -246.800244 
L 395.42315 -247.384524 
L 393.021611 -248.033504 
L 390.620072 -248.677746 
L 388.218533 -249.414874 
L 385.816994 -250.225038 
L 383.415455 -251.063532 
L 381.013916 -251.980875 
L 378.612377 -252.884744 
L 376.210838 -253.861259 
L 373.809299 -254.932749 
L 371.407759 -255.97578 
L 369.00622 -256.98787 
L 366.604681 -258.059982 
L 364.203142 -259.178883 
L 361.801603 -260.360203 
L 359.400064 -261.560644 
L 356.998525 -262.812137 
L 354.596986 -264.103719 
L 352.195447 -265.416613 
L 349.793908 -266.756692 
L 347.392369 -268.165393 
L 344.99083 -269.522223 
L 342.589291 -270.901225 
L 340.187751 -272.231039 
L 337.786212 -273.644064 
L 335.384673 -275.079364 
L 332.983134 -276.566686 
L 330.581595 -278.143086 
L 328.180056 -279.754658 
L 325.778517 -281.454815 
L 323.376978 -283.278155 
L 320.975439 -285.224864 
L 318.5739 -287.158287 
L 316.172361 -289.107343 
L 313.770822 -291.069695 
L 311.369283 -293.087328 
L 308.967743 -295.213855 
L 306.566204 -297.35569 
L 304.164665 -298.699014 
L 301.763126 -300.150322 
L 299.361587 -301.796938 
L 296.960048 -303.931011 
L 294.558509 -306.159099 
L 292.15697 -308.512223 
L 289.755431 -310.825667 
L 287.353892 -313.213098 
L 284.952353 -315.561159 
L 282.550814 -317.953575 
L 280.149275 -320.391333 
L 277.747735 -323.06723 
L 275.346196 -325.825302 
L 272.944657 -328.542389 
L 270.543118 -331.251416 
L 268.141579 -333.962914 
L 265.74004 -336.771452 
L 263.338501 -339.574901 
L 260.936962 -342.362175 
L 258.535423 -345.095713 
L 256.133884 -347.876048 
L 253.732345 -350.771788 
L 251.330806 -353.58425 
L 248.929267 -356.47648 
L 246.527727 -359.378983 
L 244.126188 -362.236298 
L 241.724649 -365.271633 
L 239.32311 -368.305962 
L 236.921571 -371.451939 
L 234.520032 -374.689427 
L 232.118493 -377.961975 
L 229.716954 -381.260444 
L 227.315415 -384.547751 
L 224.913876 -387.849666 
L 222.512337 -391.251753 
L 220.110798 -394.586224 
L 217.709259 -397.48366 
L 215.307719 -400.366898 
L 212.90618 -403.218356 
L 210.504641 -406.064781 
L 208.103102 -408.891973 
L 205.701563 -411.636077 
L 203.300024 -414.371402 
L 200.898485 -417.084509 
L 198.496946 -419.758529 
L 196.095407 -422.377212 
L 193.693868 -424.785688 
L 191.292329 -427.266865 
L 188.89079 -429.746348 
L 186.48925 -432.282222 
L 184.087711 -434.826247 
L 181.686172 -437.419122 
L 179.284633 -440.096416 
L 176.883094 -442.662387 
L 174.481555 -445.253373 
L 172.080016 -447.750361 
L 169.678477 -450.091636 
L 167.276938 -452.376661 
z
" style="stroke: #f47100; stroke-opacity: 0.2"/>
    </defs>
    <g clip-path="url(#p20997783c6)">
     <use xlink:href="#mad30eff8a5" x="0" y="600" style="fill: #f47100; fill-opacity: 0.2; stroke: #f47100; stroke-opacity: 0.2"/>
    </g>
   </g>
   <g id="PolyCollection_4">
    <defs>
     <path id="m11c825e5f2" d="M 116.844617 -490.223342 
L 116.844617 -479.952719 
L 119.246156 -479.407629 
L 121.647695 -478.813974 
L 124.049234 -478.241595 
L 126.450774 -477.687329 
L 128.852313 -477.074225 
L 131.253852 -476.430613 
L 133.655391 -475.770639 
L 136.05693 -474.980969 
L 138.458469 -474.141253 
L 140.860008 -473.265383 
L 143.261547 -471.757829 
L 145.663086 -470.218106 
L 148.064625 -468.494889 
L 150.466164 -466.655323 
L 152.867703 -464.778527 
L 155.269242 -462.855492 
L 157.670782 -460.912542 
L 160.072321 -458.87467 
L 162.47386 -456.834106 
L 164.875399 -454.648 
L 164.875399 -454.648 
L 164.875399 -454.648 
L 162.47386 -457.397883 
L 160.072321 -459.892335 
L 157.670782 -462.403222 
L 155.269242 -464.910817 
L 152.867703 -467.411549 
L 150.466164 -469.872679 
L 148.064625 -472.273695 
L 145.663086 -474.619747 
L 143.261547 -476.990209 
L 140.860008 -479.261268 
L 138.458469 -480.408349 
L 136.05693 -481.513785 
L 133.655391 -482.581658 
L 131.253852 -483.662618 
L 128.852313 -484.782716 
L 126.450774 -485.966576 
L 124.049234 -487.098381 
L 121.647695 -488.147954 
L 119.246156 -489.157978 
L 116.844617 -490.223342 
z
" style="stroke: #000000; stroke-opacity: 0.2"/>
    </defs>
    <g clip-path="url(#p20997783c6)">
     <use xlink:href="#m11c825e5f2" x="0" y="600" style="fill-opacity: 0.2; stroke: #000000; stroke-opacity: 0.2"/>
    </g>
   </g>
   <g id="PolyCollection_5">
    <defs>
     <path id="med637fbedb" d="M 167.276938 -452.527687 
L 167.276938 -452.160825 
L 169.678477 -449.546846 
L 172.080016 -446.811678 
L 174.481555 -443.899394 
L 176.883094 -441.038468 
L 179.284633 -438.250862 
L 181.686172 -435.434027 
L 184.087711 -432.650559 
L 186.48925 -429.849264 
L 188.89079 -427.014271 
L 191.292329 -424.197745 
L 193.693868 -421.326212 
L 196.095407 -418.233479 
L 198.496946 -415.189768 
L 200.898485 -412.153427 
L 203.300024 -409.089919 
L 205.701563 -406.010596 
L 208.103102 -402.792164 
L 210.504641 -399.568557 
L 212.90618 -396.178472 
L 215.307719 -392.703342 
L 217.709259 -389.265323 
L 220.110798 -385.753613 
L 222.512337 -382.161013 
L 224.913876 -378.527658 
L 227.315415 -374.80597 
L 229.716954 -371.124531 
L 232.118493 -367.47357 
L 234.520032 -363.867968 
L 236.921571 -360.29045 
L 239.32311 -356.757962 
L 241.724649 -353.301972 
L 244.126188 -349.921592 
L 246.527727 -346.573736 
L 248.929267 -343.272039 
L 251.330806 -339.969243 
L 253.732345 -336.74912 
L 256.133884 -333.634588 
L 258.535423 -330.427562 
L 260.936962 -326.825272 
L 263.338501 -323.214621 
L 265.74004 -319.608647 
L 268.141579 -316.070186 
L 270.543118 -312.512549 
L 272.944657 -308.949462 
L 275.346196 -305.687016 
L 277.747735 -302.847371 
L 280.149275 -300.110831 
L 282.550814 -297.472213 
L 284.952353 -294.949818 
L 287.353892 -292.509517 
L 289.755431 -290.12256 
L 292.15697 -287.759497 
L 294.558509 -285.398727 
L 296.960048 -283.098354 
L 299.361587 -280.859828 
L 301.763126 -278.64523 
L 304.164665 -276.575746 
L 306.566204 -274.71278 
L 308.967743 -272.911565 
L 311.369283 -271.134369 
L 313.770822 -268.58308 
L 316.172361 -265.960696 
L 318.5739 -263.411733 
L 320.975439 -260.877779 
L 323.376978 -258.361414 
L 325.778517 -255.846798 
L 328.180056 -253.34395 
L 330.581595 -250.858574 
L 332.983134 -248.37488 
L 335.384673 -246.435039 
L 337.786212 -244.716944 
L 340.187751 -243.005031 
L 342.589291 -241.612351 
L 344.99083 -240.316757 
L 347.392369 -239.051778 
L 349.793908 -237.787689 
L 352.195447 -236.572887 
L 354.596986 -235.369963 
L 356.998525 -234.200829 
L 359.400064 -233.040108 
L 361.801603 -231.906437 
L 364.203142 -230.83401 
L 366.604681 -229.787654 
L 369.00622 -228.816695 
L 371.407759 -227.893883 
L 373.809299 -226.989634 
L 376.210838 -225.880657 
L 378.612377 -224.375692 
L 381.013916 -222.876264 
L 383.415455 -221.445269 
L 385.816994 -220.105398 
L 388.218533 -218.782169 
L 390.620072 -217.493275 
L 393.021611 -216.268341 
L 395.42315 -215.054613 
L 397.824689 -213.855593 
L 400.226228 -212.693838 
L 402.627768 -211.552499 
L 405.029307 -210.451393 
L 407.430846 -209.397099 
L 409.832385 -208.334434 
L 412.233924 -207.218501 
L 414.635463 -206.265168 
L 417.037002 -204.661226 
L 419.438541 -203.245365 
L 421.84008 -201.850675 
L 424.241619 -200.52012 
L 426.643158 -199.262485 
L 429.044697 -198.104687 
L 431.446236 -196.996746 
L 433.847776 -195.885189 
L 436.249315 -194.798137 
L 438.650854 -193.758947 
L 441.052393 -192.735939 
L 443.453932 -191.744511 
L 445.855471 -190.657343 
L 448.25701 -189.591002 
L 450.658549 -188.592313 
L 453.060088 -187.632266 
L 455.461627 -186.686155 
L 457.863166 -185.784875 
L 460.264705 -184.927799 
L 462.666244 -184.114651 
L 465.067784 -183.30979 
L 467.469323 -182.547109 
L 469.870862 -181.846132 
L 472.272401 -181.171941 
L 474.67394 -180.51067 
L 477.075479 -179.878562 
L 479.477018 -179.293141 
L 481.878557 -178.754083 
L 484.280096 -178.226389 
L 486.681635 -177.740269 
L 489.083174 -177.297318 
L 491.484713 -176.786148 
L 493.886252 -176.096533 
L 496.287792 -175.420516 
L 498.689331 -174.694268 
L 501.09087 -173.993294 
L 503.492409 -173.300572 
L 505.893948 -172.609141 
L 508.295487 -171.915285 
L 510.697026 -171.176552 
L 513.098565 -170.447469 
L 515.500104 -169.727884 
L 517.901643 -169.036356 
L 520.303182 -168.395014 
L 522.704721 -167.715439 
L 525.10626 -167.024911 
L 527.5078 -166.326085 
L 529.909339 -165.656076 
L 532.310878 -164.96892 
L 534.712417 -164.27876 
L 537.113956 -163.600905 
L 539.515495 -162.932635 
L 541.917034 -162.290442 
L 544.318573 -161.664044 
L 546.720112 -161.06367 
L 549.121651 -160.462683 
L 551.52319 -159.866383 
L 553.924729 -159.257233 
L 556.326268 -158.689569 
L 558.727808 -158.208716 
L 561.129347 -157.716859 
L 563.530886 -157.246694 
L 565.932425 -156.781787 
L 568.333964 -156.300198 
L 570.735503 -155.873747 
L 573.137042 -155.481213 
L 575.538581 -155.09976 
L 577.94012 -154.724433 
L 580.341659 -154.384938 
L 582.743198 -154.053425 
L 585.144737 -153.760151 
L 587.546277 -153.461072 
L 589.947816 -153.155705 
L 592.349355 -152.846645 
L 594.750894 -152.55794 
L 597.152433 -152.274209 
L 599.553972 -152.002348 
L 601.955511 -151.746758 
L 604.35705 -151.469425 
L 606.758589 -151.170528 
L 609.160128 -150.870327 
L 611.561667 -150.57584 
L 613.963206 -150.298884 
L 616.364745 -150.022873 
L 618.766285 -149.729221 
L 621.167824 -149.419712 
L 623.569363 -149.111088 
L 625.970902 -148.794386 
L 628.372441 -148.479343 
L 630.77398 -148.151889 
L 633.175519 -147.789182 
L 635.577058 -147.468752 
L 637.978597 -147.141632 
L 640.380136 -146.805407 
L 642.781675 -146.448012 
L 645.183214 -146.071025 
L 647.584753 -145.674685 
L 649.986293 -145.26927 
L 652.387832 -144.850167 
L 654.789371 -144.432322 
L 657.19091 -144.031012 
L 659.592449 -143.622503 
L 661.993988 -143.202397 
L 664.395527 -142.778793 
L 666.797066 -142.375578 
L 669.198605 -141.962385 
L 671.600144 -141.544074 
L 674.001683 -141.115408 
L 676.403222 -140.651651 
L 678.804761 -140.198327 
L 681.206301 -139.770948 
L 683.60784 -139.373818 
L 686.009379 -138.998548 
L 688.410918 -138.639602 
L 690.812457 -138.306086 
L 693.213996 -137.971186 
L 695.615535 -137.646872 
L 698.017074 -137.323095 
L 700.418613 -137.000746 
L 702.820152 -136.686134 
L 705.221691 -136.360839 
L 707.62323 -136.035829 
L 710.024769 -135.730767 
L 712.426309 -135.427059 
L 714.827848 -135.113156 
L 717.229387 -134.820508 
L 719.630926 -134.538177 
L 722.032465 -134.279164 
L 724.434004 -134.050166 
L 726.835543 -133.835962 
L 729.237082 -133.626076 
L 731.638621 -133.37697 
L 734.04016 -133.133151 
L 736.441699 -132.880532 
L 738.843238 -132.63943 
L 741.244777 -132.421094 
L 743.646317 -132.217956 
L 746.047856 -132.035429 
L 748.449395 -131.863756 
L 750.850934 -131.688171 
L 753.252473 -131.515814 
L 755.654012 -131.33036 
L 758.055551 -131.123154 
L 760.45709 -130.927602 
L 762.858629 -130.739258 
L 765.260168 -130.54093 
L 767.661707 -130.341822 
L 770.063246 -130.134273 
L 772.464786 -129.94052 
L 774.866325 -129.757703 
L 777.267864 -129.581136 
L 779.669403 -129.434152 
L 782.070942 -129.287361 
L 784.472481 -129.158381 
L 786.87402 -129.022265 
L 789.275559 -128.869464 
L 791.677098 -128.72118 
L 794.078637 -128.588201 
L 796.480176 -128.471905 
L 798.881715 -128.359811 
L 801.283254 -128.264902 
L 803.684794 -128.191612 
L 806.086333 -128.123907 
L 808.487872 -128.053524 
L 810.889411 -127.992262 
L 813.29095 -127.926138 
L 815.692489 -127.856991 
L 818.094028 -127.836671 
L 820.495567 -127.808249 
L 822.897106 -127.770637 
L 825.298645 -127.749504 
L 827.700184 -127.734178 
L 830.101723 -127.716839 
L 832.503262 -127.689617 
L 834.904802 -127.667093 
L 837.306341 -127.671917 
L 837.306341 -189.004952 
L 837.306341 -189.004952 
L 834.904802 -189.063293 
L 832.503262 -189.126451 
L 830.101723 -189.166305 
L 827.700184 -189.21362 
L 825.298645 -189.269963 
L 822.897106 -189.303923 
L 820.495567 -189.350664 
L 818.094028 -189.378437 
L 815.692489 -189.404828 
L 813.29095 -189.462685 
L 810.889411 -189.540791 
L 808.487872 -189.617602 
L 806.086333 -189.733546 
L 803.684794 -189.853752 
L 801.283254 -189.963031 
L 798.881715 -190.100842 
L 796.480176 -190.217145 
L 794.078637 -190.330209 
L 791.677098 -190.405848 
L 789.275559 -190.47997 
L 786.87402 -190.556874 
L 784.472481 -190.629064 
L 782.070942 -190.704568 
L 779.669403 -190.757861 
L 777.267864 -190.814169 
L 774.866325 -190.867658 
L 772.464786 -190.899628 
L 770.063246 -190.949523 
L 767.661707 -190.999563 
L 765.260168 -191.012106 
L 762.858629 -191.033768 
L 760.45709 -191.064339 
L 758.055551 -191.051071 
L 755.654012 -191.018859 
L 753.252473 -190.989699 
L 750.850934 -190.947103 
L 748.449395 -190.921775 
L 746.047856 -190.901402 
L 743.646317 -190.918422 
L 741.244777 -190.937269 
L 738.843238 -190.943959 
L 736.441699 -190.991915 
L 734.04016 -191.046183 
L 731.638621 -191.106163 
L 729.237082 -191.15293 
L 726.835543 -191.224015 
L 724.434004 -191.305256 
L 722.032465 -191.383405 
L 719.630926 -191.467524 
L 717.229387 -191.571306 
L 714.827848 -191.672741 
L 712.426309 -191.787254 
L 710.024769 -191.925267 
L 707.62323 -192.11123 
L 705.221691 -192.291967 
L 702.820152 -192.442356 
L 700.418613 -192.55866 
L 698.017074 -192.67857 
L 695.615535 -192.806159 
L 693.213996 -192.944761 
L 690.812457 -193.098878 
L 688.410918 -193.207097 
L 686.009379 -193.30389 
L 683.60784 -193.381194 
L 681.206301 -193.449715 
L 678.804761 -193.521259 
L 676.403222 -193.59676 
L 674.001683 -193.675356 
L 671.600144 -193.74778 
L 669.198605 -193.793815 
L 666.797066 -193.825936 
L 664.395527 -193.836105 
L 661.993988 -193.843907 
L 659.592449 -193.820457 
L 657.19091 -193.834484 
L 654.789371 -193.893879 
L 652.387832 -193.967094 
L 649.986293 -194.051378 
L 647.584753 -194.144927 
L 645.183214 -194.215723 
L 642.781675 -194.271177 
L 640.380136 -194.343944 
L 637.978597 -194.44249 
L 635.577058 -194.5561 
L 633.175519 -194.689178 
L 630.77398 -194.805328 
L 628.372441 -194.942061 
L 625.970902 -195.081352 
L 623.569363 -195.229685 
L 621.167824 -195.352751 
L 618.766285 -195.487811 
L 616.364745 -195.645601 
L 613.963206 -195.798058 
L 611.561667 -195.945267 
L 609.160128 -196.058765 
L 606.758589 -196.129327 
L 604.35705 -196.184323 
L 601.955511 -196.227433 
L 599.553972 -196.25667 
L 597.152433 -196.315698 
L 594.750894 -196.368033 
L 592.349355 -196.412178 
L 589.947816 -196.443054 
L 587.546277 -196.51316 
L 585.144737 -196.572801 
L 582.743198 -196.647839 
L 580.341659 -196.70241 
L 577.94012 -196.755813 
L 575.538581 -196.811964 
L 573.137042 -196.908736 
L 570.735503 -196.982313 
L 568.333964 -197.082839 
L 565.932425 -197.177111 
L 563.530886 -197.304499 
L 561.129347 -197.451744 
L 558.727808 -197.621717 
L 556.326268 -197.793199 
L 553.924729 -197.975748 
L 551.52319 -198.152477 
L 549.121651 -198.318777 
L 546.720112 -198.482507 
L 544.318573 -198.655614 
L 541.917034 -198.815136 
L 539.515495 -198.959669 
L 537.113956 -199.124077 
L 534.712417 -199.286274 
L 532.310878 -199.470485 
L 529.909339 -199.653528 
L 527.5078 -199.834002 
L 525.10626 -200.032542 
L 522.704721 -200.247956 
L 520.303182 -200.411597 
L 517.901643 -200.597664 
L 515.500104 -200.811377 
L 513.098565 -201.031258 
L 510.697026 -201.256414 
L 508.295487 -201.518586 
L 505.893948 -201.79082 
L 503.492409 -202.064316 
L 501.09087 -202.325553 
L 498.689331 -202.585917 
L 496.287792 -202.838624 
L 493.886252 -203.114318 
L 491.484713 -203.39966 
L 489.083174 -203.684856 
L 486.681635 -203.979177 
L 484.280096 -204.256469 
L 481.878557 -204.542355 
L 479.477018 -204.829818 
L 477.075479 -205.113153 
L 474.67394 -205.415674 
L 472.272401 -205.734141 
L 469.870862 -206.050942 
L 467.469323 -206.389411 
L 465.067784 -206.772933 
L 462.666244 -207.173426 
L 460.264705 -207.570097 
L 457.863166 -207.975974 
L 455.461627 -208.405382 
L 453.060088 -208.895967 
L 450.658549 -209.507431 
L 448.25701 -210.177301 
L 445.855471 -210.888789 
L 443.453932 -211.624559 
L 441.052393 -212.409019 
L 438.650854 -213.202495 
L 436.249315 -214.014618 
L 433.847776 -214.849713 
L 431.446236 -215.721501 
L 429.044697 -216.645175 
L 426.643158 -217.581919 
L 424.241619 -218.583963 
L 421.84008 -219.597297 
L 419.438541 -220.618465 
L 417.037002 -221.618337 
L 414.635463 -222.631481 
L 412.233924 -223.652239 
L 409.832385 -224.685816 
L 407.430846 -225.704639 
L 405.029307 -226.681459 
L 402.627768 -227.682818 
L 400.226228 -228.692077 
L 397.824689 -229.741572 
L 395.42315 -230.803563 
L 393.021611 -231.874878 
L 390.620072 -232.983278 
L 388.218533 -234.083443 
L 385.816994 -235.133162 
L 383.415455 -236.205713 
L 381.013916 -237.475589 
L 378.612377 -239.257533 
L 376.210838 -241.017209 
L 373.809299 -242.764858 
L 371.407759 -244.494653 
L 369.00622 -246.300651 
L 366.604681 -248.15678 
L 364.203142 -249.330271 
L 361.801603 -250.424669 
L 359.400064 -251.539744 
L 356.998525 -252.738705 
L 354.596986 -253.698292 
L 352.195447 -254.605189 
L 349.793908 -255.548796 
L 347.392369 -256.997128 
L 344.99083 -258.62223 
L 342.589291 -260.281962 
L 340.187751 -261.96186 
L 337.786212 -263.707325 
L 335.384673 -265.958968 
L 332.983134 -268.345431 
L 330.581595 -270.766455 
L 328.180056 -273.303021 
L 325.778517 -275.903491 
L 323.376978 -278.555517 
L 320.975439 -281.281017 
L 318.5739 -284.054681 
L 316.172361 -286.591749 
L 313.770822 -289.053186 
L 311.369283 -291.600367 
L 308.967743 -294.128957 
L 306.566204 -296.664019 
L 304.164665 -299.034548 
L 301.763126 -301.313797 
L 299.361587 -303.575452 
L 296.960048 -305.824923 
L 294.558509 -308.077204 
L 292.15697 -310.395096 
L 289.755431 -312.724648 
L 287.353892 -315.074799 
L 284.952353 -317.451803 
L 282.550814 -319.907225 
L 280.149275 -322.456373 
L 277.747735 -325.120895 
L 275.346196 -327.901086 
L 272.944657 -330.692032 
L 270.543118 -333.546372 
L 268.141579 -336.439123 
L 265.74004 -339.302085 
L 263.338501 -342.494385 
L 260.936962 -345.521361 
L 258.535423 -348.568581 
L 256.133884 -351.585368 
L 253.732345 -354.687669 
L 251.330806 -357.893336 
L 248.929267 -361.104285 
L 246.527727 -364.254111 
L 244.126188 -367.518754 
L 241.724649 -370.878511 
L 239.32311 -374.268059 
L 236.921571 -377.610534 
L 234.520032 -380.865593 
L 232.118493 -384.040389 
L 229.716954 -387.15009 
L 227.315415 -390.299975 
L 224.913876 -393.433414 
L 222.512337 -396.336154 
L 220.110798 -399.158705 
L 217.709259 -401.909958 
L 215.307719 -404.547163 
L 212.90618 -407.140664 
L 210.504641 -409.750936 
L 208.103102 -412.33603 
L 205.701563 -414.877701 
L 203.300024 -417.216435 
L 200.898485 -419.534877 
L 198.496946 -421.898981 
L 196.095407 -424.198629 
L 193.693868 -426.546325 
L 191.292329 -428.805177 
L 188.89079 -431.092468 
L 186.48925 -433.532535 
L 184.087711 -435.994074 
L 181.686172 -438.340998 
L 179.284633 -440.748078 
L 176.883094 -443.121854 
L 174.481555 -445.540744 
L 172.080016 -447.997988 
L 169.678477 -450.342835 
L 167.276938 -452.527687 
z
" style="stroke: #d01e04; stroke-opacity: 0.2"/>
    </defs>
    <g clip-path="url(#p20997783c6)">
     <use xlink:href="#med637fbedb" x="0" y="600" style="fill: #d01e04; fill-opacity: 0.2; stroke: #d01e04; stroke-opacity: 0.2"/>
    </g>
   </g>
   <g id="PolyCollection_6">
    <defs>
     <path id="md40eeaa956" d="M 116.844617 -487.351697 
L 116.844617 -478.29003 
L 119.246156 -477.74723 
L 121.647695 -477.156071 
L 124.049234 -476.586098 
L 126.450774 -476.034163 
L 128.852313 -475.423636 
L 131.253852 -474.782729 
L 133.655391 -474.12553 
L 136.05693 -473.33918 
L 138.458469 -472.502994 
L 140.860008 -471.630806 
L 143.261547 -470.310421 
L 145.663086 -468.943155 
L 148.064625 -467.377162 
L 150.466164 -465.718755 
L 152.867703 -463.998344 
L 155.269242 -462.227671 
L 157.670782 -460.391375 
L 160.072321 -458.541572 
L 162.47386 -456.662165 
L 164.875399 -454.648 
L 164.875399 -454.648 
L 164.875399 -454.648 
L 162.47386 -457.076465 
L 160.072321 -459.362191 
L 157.670782 -461.587842 
L 155.269242 -463.896662 
L 152.867703 -466.197754 
L 150.466164 -468.468303 
L 148.064625 -470.679866 
L 145.663086 -472.937405 
L 143.261547 -475.226274 
L 140.860008 -477.491598 
L 138.458469 -478.689331 
L 136.05693 -479.920582 
L 133.655391 -481.01162 
L 131.253852 -482.000885 
L 128.852313 -483.01802 
L 126.450774 -484.0047 
L 124.049234 -484.864152 
L 121.647695 -485.676615 
L 119.246156 -486.478435 
L 116.844617 -487.351697 
z
" style="stroke: #000000; stroke-opacity: 0.2"/>
    </defs>
    <g clip-path="url(#p20997783c6)">
     <use xlink:href="#md40eeaa956" x="0" y="600" style="fill-opacity: 0.2; stroke: #000000; stroke-opacity: 0.2"/>
    </g>
   </g>
   <g id="matplotlib.axis_1">
    <g id="xtick_1">
     <g id="line2d_1">
      <defs>
       <path id="m91cb8954a2" d="M 0 0 
L 0 3.5 
" style="stroke: #000000; stroke-width: 0.8"/>
      </defs>
      <g>
       <use xlink:href="#m91cb8954a2" x="164.875399" y="515.56" style="stroke: #000000; stroke-width: 0.8"/>
      </g>
     </g>
     <g id="text_1">
      <!-- 2020 -->
      <g transform="translate(131.790399 542.315938)scale(0.26 -0.26)">
       <defs>
        <path id="DejaVuSans-32" d="M 1228 531 
L 3431 531 
L 3431 0 
L 469 0 
L 469 531 
Q 828 903 1448 1529 
Q 2069 2156 2228 2338 
Q 2531 2678 2651 2914 
Q 2772 3150 2772 3378 
Q 2772 3750 2511 3984 
Q 2250 4219 1831 4219 
Q 1534 4219 1204 4116 
Q 875 4013 500 3803 
L 500 4441 
Q 881 4594 1212 4672 
Q 1544 4750 1819 4750 
Q 2544 4750 2975 4387 
Q 3406 4025 3406 3419 
Q 3406 3131 3298 2873 
Q 3191 2616 2906 2266 
Q 2828 2175 2409 1742 
Q 1991 1309 1228 531 
z
" transform="scale(0.015625)"/>
        <path id="DejaVuSans-30" d="M 2034 4250 
Q 1547 4250 1301 3770 
Q 1056 3291 1056 2328 
Q 1056 1369 1301 889 
Q 1547 409 2034 409 
Q 2525 409 2770 889 
Q 3016 1369 3016 2328 
Q 3016 3291 2770 3770 
Q 2525 4250 2034 4250 
z
M 2034 4750 
Q 2819 4750 3233 4129 
Q 3647 3509 3647 2328 
Q 3647 1150 3233 529 
Q 2819 -91 2034 -91 
Q 1250 -91 836 529 
Q 422 1150 422 2328 
Q 422 3509 836 4129 
Q 1250 4750 2034 4750 
z
" transform="scale(0.015625)"/>
       </defs>
       <use xlink:href="#DejaVuSans-32"/>
       <use xlink:href="#DejaVuSans-30" x="63.623047"/>
       <use xlink:href="#DejaVuSans-32" x="127.246094"/>
       <use xlink:href="#DejaVuSans-30" x="190.869141"/>
      </g>
     </g>
    </g>
    <g id="xtick_2">
     <g id="line2d_2">
      <g>
       <use xlink:href="#m91cb8954a2" x="356.998525" y="515.56" style="stroke: #000000; stroke-width: 0.8"/>
      </g>
     </g>
     <g id="text_2">
      <!-- 2100 -->
      <g transform="translate(323.913525 542.315938)scale(0.26 -0.26)">
       <defs>
        <path id="DejaVuSans-31" d="M 794 531 
L 1825 531 
L 1825 4091 
L 703 3866 
L 703 4441 
L 1819 4666 
L 2450 4666 
L 2450 531 
L 3481 531 
L 3481 0 
L 794 0 
L 794 531 
z
" transform="scale(0.015625)"/>
       </defs>
       <use xlink:href="#DejaVuSans-32"/>
       <use xlink:href="#DejaVuSans-31" x="63.623047"/>
       <use xlink:href="#DejaVuSans-30" x="127.246094"/>
       <use xlink:href="#DejaVuSans-30" x="190.869141"/>
      </g>
     </g>
    </g>
    <g id="xtick_3">
     <g id="line2d_3">
      <g>
       <use xlink:href="#m91cb8954a2" x="597.152433" y="515.56" style="stroke: #000000; stroke-width: 0.8"/>
      </g>
     </g>
     <g id="text_3">
      <!-- 2200 -->
      <g transform="translate(564.067433 542.315938)scale(0.26 -0.26)">
       <use xlink:href="#DejaVuSans-32"/>
       <use xlink:href="#DejaVuSans-32" x="63.623047"/>
       <use xlink:href="#DejaVuSans-30" x="127.246094"/>
       <use xlink:href="#DejaVuSans-30" x="190.869141"/>
      </g>
     </g>
    </g>
    <g id="xtick_4">
     <g id="line2d_4">
      <g>
       <use xlink:href="#m91cb8954a2" x="837.306341" y="515.56" style="stroke: #000000; stroke-width: 0.8"/>
      </g>
     </g>
     <g id="text_4">
      <!-- 2300 -->
      <g transform="translate(804.221341 542.315938)scale(0.26 -0.26)">
       <defs>
        <path id="DejaVuSans-33" d="M 2597 2516 
Q 3050 2419 3304 2112 
Q 3559 1806 3559 1356 
Q 3559 666 3084 287 
Q 2609 -91 1734 -91 
Q 1441 -91 1130 -33 
Q 819 25 488 141 
L 488 750 
Q 750 597 1062 519 
Q 1375 441 1716 441 
Q 2309 441 2620 675 
Q 2931 909 2931 1356 
Q 2931 1769 2642 2001 
Q 2353 2234 1838 2234 
L 1294 2234 
L 1294 2753 
L 1863 2753 
Q 2328 2753 2575 2939 
Q 2822 3125 2822 3475 
Q 2822 3834 2567 4026 
Q 2313 4219 1838 4219 
Q 1578 4219 1281 4162 
Q 984 4106 628 3988 
L 628 4550 
Q 988 4650 1302 4700 
Q 1616 4750 1894 4750 
Q 2613 4750 3031 4423 
Q 3450 4097 3450 3541 
Q 3450 3153 3228 2886 
Q 3006 2619 2597 2516 
z
" transform="scale(0.015625)"/>
       </defs>
       <use xlink:href="#DejaVuSans-32"/>
       <use xlink:href="#DejaVuSans-33" x="63.623047"/>
       <use xlink:href="#DejaVuSans-30" x="127.246094"/>
       <use xlink:href="#DejaVuSans-30" x="190.869141"/>
      </g>
     </g>
    </g>
    <g id="text_5">
     <!-- Year -->
     <g transform="translate(457.010409 568.439687)scale(0.22 -0.22)">
      <defs>
       <path id="DejaVuSans-Bold-59" d="M -63 4666 
L 1253 4666 
L 2316 3003 
L 3378 4666 
L 4697 4666 
L 2919 1966 
L 2919 0 
L 1716 0 
L 1716 1966 
L -63 4666 
z
" transform="scale(0.015625)"/>
       <path id="DejaVuSans-Bold-65" d="M 4031 1759 
L 4031 1441 
L 1416 1441 
Q 1456 1047 1700 850 
Q 1944 653 2381 653 
Q 2734 653 3104 758 
Q 3475 863 3866 1075 
L 3866 213 
Q 3469 63 3072 -14 
Q 2675 -91 2278 -91 
Q 1328 -91 801 392 
Q 275 875 275 1747 
Q 275 2603 792 3093 
Q 1309 3584 2216 3584 
Q 3041 3584 3536 3087 
Q 4031 2591 4031 1759 
z
M 2881 2131 
Q 2881 2450 2695 2645 
Q 2509 2841 2209 2841 
Q 1884 2841 1681 2658 
Q 1478 2475 1428 2131 
L 2881 2131 
z
" transform="scale(0.015625)"/>
       <path id="DejaVuSans-Bold-61" d="M 2106 1575 
Q 1756 1575 1579 1456 
Q 1403 1338 1403 1106 
Q 1403 894 1545 773 
Q 1688 653 1941 653 
Q 2256 653 2472 879 
Q 2688 1106 2688 1447 
L 2688 1575 
L 2106 1575 
z
M 3816 1997 
L 3816 0 
L 2688 0 
L 2688 519 
Q 2463 200 2181 54 
Q 1900 -91 1497 -91 
Q 953 -91 614 226 
Q 275 544 275 1050 
Q 275 1666 698 1953 
Q 1122 2241 2028 2241 
L 2688 2241 
L 2688 2328 
Q 2688 2594 2478 2717 
Q 2269 2841 1825 2841 
Q 1466 2841 1156 2769 
Q 847 2697 581 2553 
L 581 3406 
Q 941 3494 1303 3539 
Q 1666 3584 2028 3584 
Q 2975 3584 3395 3211 
Q 3816 2838 3816 1997 
z
" transform="scale(0.015625)"/>
       <path id="DejaVuSans-Bold-72" d="M 3138 2547 
Q 2991 2616 2845 2648 
Q 2700 2681 2553 2681 
Q 2122 2681 1889 2404 
Q 1656 2128 1656 1613 
L 1656 0 
L 538 0 
L 538 3500 
L 1656 3500 
L 1656 2925 
Q 1872 3269 2151 3426 
Q 2431 3584 2822 3584 
Q 2878 3584 2943 3579 
Q 3009 3575 3134 3559 
L 3138 2547 
z
" transform="scale(0.015625)"/>
      </defs>
      <use xlink:href="#DejaVuSans-Bold-59"/>
      <use xlink:href="#DejaVuSans-Bold-65" x="63.287109"/>
      <use xlink:href="#DejaVuSans-Bold-61" x="131.109375"/>
      <use xlink:href="#DejaVuSans-Bold-72" x="198.589844"/>
     </g>
    </g>
   </g>
   <g id="matplotlib.axis_2">
    <g id="ytick_1">
     <g id="line2d_5">
      <defs>
       <path id="maf56e2dd80" d="M 0 0 
L -3.5 0 
" style="stroke: #000000; stroke-width: 0.8"/>
      </defs>
      <g>
       <use xlink:href="#maf56e2dd80" x="109.64" y="515.56" style="stroke: #000000; stroke-width: 0.8"/>
      </g>
     </g>
     <g id="text_6">
      <!-- 0 -->
      <g transform="translate(86.0975 525.437969)scale(0.26 -0.26)">
       <use xlink:href="#DejaVuSans-30"/>
      </g>
     </g>
    </g>
    <g id="ytick_2">
     <g id="line2d_6">
      <g>
       <use xlink:href="#maf56e2dd80" x="109.64" y="441.5184" style="stroke: #000000; stroke-width: 0.8"/>
      </g>
     </g>
     <g id="text_7">
      <!-- 20 -->
      <g transform="translate(69.555 451.396369)scale(0.26 -0.26)">
       <use xlink:href="#DejaVuSans-32"/>
       <use xlink:href="#DejaVuSans-30" x="63.623047"/>
      </g>
     </g>
    </g>
    <g id="ytick_3">
     <g id="line2d_7">
      <g>
       <use xlink:href="#maf56e2dd80" x="109.64" y="367.4768" style="stroke: #000000; stroke-width: 0.8"/>
      </g>
     </g>
     <g id="text_8">
      <!-- 40 -->
      <g transform="translate(69.555 377.354769)scale(0.26 -0.26)">
       <defs>
        <path id="DejaVuSans-34" d="M 2419 4116 
L 825 1625 
L 2419 1625 
L 2419 4116 
z
M 2253 4666 
L 3047 4666 
L 3047 1625 
L 3713 1625 
L 3713 1100 
L 3047 1100 
L 3047 0 
L 2419 0 
L 2419 1100 
L 313 1100 
L 313 1709 
L 2253 4666 
z
" transform="scale(0.015625)"/>
       </defs>
       <use xlink:href="#DejaVuSans-34"/>
       <use xlink:href="#DejaVuSans-30" x="63.623047"/>
      </g>
     </g>
    </g>
    <g id="ytick_4">
     <g id="line2d_8">
      <g>
       <use xlink:href="#maf56e2dd80" x="109.64" y="293.4352" style="stroke: #000000; stroke-width: 0.8"/>
      </g>
     </g>
     <g id="text_9">
      <!-- 60 -->
      <g transform="translate(69.555 303.313169)scale(0.26 -0.26)">
       <defs>
        <path id="DejaVuSans-36" d="M 2113 2584 
Q 1688 2584 1439 2293 
Q 1191 2003 1191 1497 
Q 1191 994 1439 701 
Q 1688 409 2113 409 
Q 2538 409 2786 701 
Q 3034 994 3034 1497 
Q 3034 2003 2786 2293 
Q 2538 2584 2113 2584 
z
M 3366 4563 
L 3366 3988 
Q 3128 4100 2886 4159 
Q 2644 4219 2406 4219 
Q 1781 4219 1451 3797 
Q 1122 3375 1075 2522 
Q 1259 2794 1537 2939 
Q 1816 3084 2150 3084 
Q 2853 3084 3261 2657 
Q 3669 2231 3669 1497 
Q 3669 778 3244 343 
Q 2819 -91 2113 -91 
Q 1303 -91 875 529 
Q 447 1150 447 2328 
Q 447 3434 972 4092 
Q 1497 4750 2381 4750 
Q 2619 4750 2861 4703 
Q 3103 4656 3366 4563 
z
" transform="scale(0.015625)"/>
       </defs>
       <use xlink:href="#DejaVuSans-36"/>
       <use xlink:href="#DejaVuSans-30" x="63.623047"/>
      </g>
     </g>
    </g>
    <g id="ytick_5">
     <g id="line2d_9">
      <g>
       <use xlink:href="#maf56e2dd80" x="109.64" y="219.3936" style="stroke: #000000; stroke-width: 0.8"/>
      </g>
     </g>
     <g id="text_10">
      <!-- 80 -->
      <g transform="translate(69.555 229.271569)scale(0.26 -0.26)">
       <defs>
        <path id="DejaVuSans-38" d="M 2034 2216 
Q 1584 2216 1326 1975 
Q 1069 1734 1069 1313 
Q 1069 891 1326 650 
Q 1584 409 2034 409 
Q 2484 409 2743 651 
Q 3003 894 3003 1313 
Q 3003 1734 2745 1975 
Q 2488 2216 2034 2216 
z
M 1403 2484 
Q 997 2584 770 2862 
Q 544 3141 544 3541 
Q 544 4100 942 4425 
Q 1341 4750 2034 4750 
Q 2731 4750 3128 4425 
Q 3525 4100 3525 3541 
Q 3525 3141 3298 2862 
Q 3072 2584 2669 2484 
Q 3125 2378 3379 2068 
Q 3634 1759 3634 1313 
Q 3634 634 3220 271 
Q 2806 -91 2034 -91 
Q 1263 -91 848 271 
Q 434 634 434 1313 
Q 434 1759 690 2068 
Q 947 2378 1403 2484 
z
M 1172 3481 
Q 1172 3119 1398 2916 
Q 1625 2713 2034 2713 
Q 2441 2713 2670 2916 
Q 2900 3119 2900 3481 
Q 2900 3844 2670 4047 
Q 2441 4250 2034 4250 
Q 1625 4250 1398 4047 
Q 1172 3844 1172 3481 
z
" transform="scale(0.015625)"/>
       </defs>
       <use xlink:href="#DejaVuSans-38"/>
       <use xlink:href="#DejaVuSans-30" x="63.623047"/>
      </g>
     </g>
    </g>
    <g id="ytick_6">
     <g id="line2d_10">
      <g>
       <use xlink:href="#maf56e2dd80" x="109.64" y="145.352" style="stroke: #000000; stroke-width: 0.8"/>
      </g>
     </g>
     <g id="text_11">
      <!-- 100 -->
      <g transform="translate(53.0125 155.229969)scale(0.26 -0.26)">
       <use xlink:href="#DejaVuSans-31"/>
       <use xlink:href="#DejaVuSans-30" x="63.623047"/>
       <use xlink:href="#DejaVuSans-30" x="127.246094"/>
      </g>
     </g>
    </g>
    <g id="ytick_7">
     <g id="line2d_11">
      <g>
       <use xlink:href="#maf56e2dd80" x="109.64" y="71.3104" style="stroke: #000000; stroke-width: 0.8"/>
      </g>
     </g>
     <g id="text_12">
      <!-- 120 -->
      <g transform="translate(53.0125 81.188369)scale(0.26 -0.26)">
       <use xlink:href="#DejaVuSans-31"/>
       <use xlink:href="#DejaVuSans-32" x="63.623047"/>
       <use xlink:href="#DejaVuSans-30" x="127.246094"/>
      </g>
     </g>
    </g>
    <g id="text_13">
     <!-- % of Remaining Glacier Mass -->
     <g transform="translate(44.265313 463.619219)rotate(-90)scale(0.22 -0.22)">
      <defs>
       <path id="DejaVuSans-Bold-25" d="M 4959 1925 
Q 4738 1925 4616 1733 
Q 4494 1541 4494 1184 
Q 4494 825 4614 633 
Q 4734 441 4959 441 
Q 5184 441 5303 633 
Q 5422 825 5422 1184 
Q 5422 1541 5301 1733 
Q 5181 1925 4959 1925 
z
M 4959 2450 
Q 5541 2450 5875 2112 
Q 6209 1775 6209 1184 
Q 6209 594 5875 251 
Q 5541 -91 4959 -91 
Q 4378 -91 4042 251 
Q 3706 594 3706 1184 
Q 3706 1772 4042 2111 
Q 4378 2450 4959 2450 
z
M 2094 -91 
L 1403 -91 
L 4319 4750 
L 5013 4750 
L 2094 -91 
z
M 1453 4750 
Q 2034 4750 2367 4411 
Q 2700 4072 2700 3481 
Q 2700 2891 2367 2550 
Q 2034 2209 1453 2209 
Q 872 2209 539 2550 
Q 206 2891 206 3481 
Q 206 4072 539 4411 
Q 872 4750 1453 4750 
z
M 1453 4225 
Q 1228 4225 1106 4031 
Q 984 3838 984 3481 
Q 984 3122 1106 2926 
Q 1228 2731 1453 2731 
Q 1678 2731 1798 2926 
Q 1919 3122 1919 3481 
Q 1919 3838 1797 4031 
Q 1675 4225 1453 4225 
z
" transform="scale(0.015625)"/>
       <path id="DejaVuSans-Bold-20" transform="scale(0.015625)"/>
       <path id="DejaVuSans-Bold-6f" d="M 2203 2784 
Q 1831 2784 1636 2517 
Q 1441 2250 1441 1747 
Q 1441 1244 1636 976 
Q 1831 709 2203 709 
Q 2569 709 2762 976 
Q 2956 1244 2956 1747 
Q 2956 2250 2762 2517 
Q 2569 2784 2203 2784 
z
M 2203 3584 
Q 3106 3584 3614 3096 
Q 4122 2609 4122 1747 
Q 4122 884 3614 396 
Q 3106 -91 2203 -91 
Q 1297 -91 786 396 
Q 275 884 275 1747 
Q 275 2609 786 3096 
Q 1297 3584 2203 3584 
z
" transform="scale(0.015625)"/>
       <path id="DejaVuSans-Bold-66" d="M 2841 4863 
L 2841 4128 
L 2222 4128 
Q 1984 4128 1890 4042 
Q 1797 3956 1797 3744 
L 1797 3500 
L 2753 3500 
L 2753 2700 
L 1797 2700 
L 1797 0 
L 678 0 
L 678 2700 
L 122 2700 
L 122 3500 
L 678 3500 
L 678 3744 
Q 678 4316 997 4589 
Q 1316 4863 1984 4863 
L 2841 4863 
z
" transform="scale(0.015625)"/>
       <path id="DejaVuSans-Bold-52" d="M 2297 2597 
Q 2675 2597 2839 2737 
Q 3003 2878 3003 3200 
Q 3003 3519 2839 3656 
Q 2675 3794 2297 3794 
L 1791 3794 
L 1791 2597 
L 2297 2597 
z
M 1791 1766 
L 1791 0 
L 588 0 
L 588 4666 
L 2425 4666 
Q 3347 4666 3776 4356 
Q 4206 4047 4206 3378 
Q 4206 2916 3982 2619 
Q 3759 2322 3309 2181 
Q 3556 2125 3751 1926 
Q 3947 1728 4147 1325 
L 4800 0 
L 3519 0 
L 2950 1159 
Q 2778 1509 2601 1637 
Q 2425 1766 2131 1766 
L 1791 1766 
z
" transform="scale(0.015625)"/>
       <path id="DejaVuSans-Bold-6d" d="M 3781 2919 
Q 3994 3244 4286 3414 
Q 4578 3584 4928 3584 
Q 5531 3584 5847 3212 
Q 6163 2841 6163 2131 
L 6163 0 
L 5038 0 
L 5038 1825 
Q 5041 1866 5042 1909 
Q 5044 1953 5044 2034 
Q 5044 2406 4934 2573 
Q 4825 2741 4581 2741 
Q 4263 2741 4089 2478 
Q 3916 2216 3909 1719 
L 3909 0 
L 2784 0 
L 2784 1825 
Q 2784 2406 2684 2573 
Q 2584 2741 2328 2741 
Q 2006 2741 1831 2477 
Q 1656 2213 1656 1722 
L 1656 0 
L 531 0 
L 531 3500 
L 1656 3500 
L 1656 2988 
Q 1863 3284 2130 3434 
Q 2397 3584 2719 3584 
Q 3081 3584 3359 3409 
Q 3638 3234 3781 2919 
z
" transform="scale(0.015625)"/>
       <path id="DejaVuSans-Bold-69" d="M 538 3500 
L 1656 3500 
L 1656 0 
L 538 0 
L 538 3500 
z
M 538 4863 
L 1656 4863 
L 1656 3950 
L 538 3950 
L 538 4863 
z
" transform="scale(0.015625)"/>
       <path id="DejaVuSans-Bold-6e" d="M 4056 2131 
L 4056 0 
L 2931 0 
L 2931 347 
L 2931 1631 
Q 2931 2084 2911 2256 
Q 2891 2428 2841 2509 
Q 2775 2619 2662 2680 
Q 2550 2741 2406 2741 
Q 2056 2741 1856 2470 
Q 1656 2200 1656 1722 
L 1656 0 
L 538 0 
L 538 3500 
L 1656 3500 
L 1656 2988 
Q 1909 3294 2193 3439 
Q 2478 3584 2822 3584 
Q 3428 3584 3742 3212 
Q 4056 2841 4056 2131 
z
" transform="scale(0.015625)"/>
       <path id="DejaVuSans-Bold-67" d="M 2919 594 
Q 2688 288 2409 144 
Q 2131 0 1766 0 
Q 1125 0 706 504 
Q 288 1009 288 1791 
Q 288 2575 706 3076 
Q 1125 3578 1766 3578 
Q 2131 3578 2409 3434 
Q 2688 3291 2919 2981 
L 2919 3500 
L 4044 3500 
L 4044 353 
Q 4044 -491 3511 -936 
Q 2978 -1381 1966 -1381 
Q 1638 -1381 1331 -1331 
Q 1025 -1281 716 -1178 
L 716 -306 
Q 1009 -475 1290 -558 
Q 1572 -641 1856 -641 
Q 2406 -641 2662 -400 
Q 2919 -159 2919 353 
L 2919 594 
z
M 2181 2772 
Q 1834 2772 1640 2515 
Q 1447 2259 1447 1791 
Q 1447 1309 1634 1061 
Q 1822 813 2181 813 
Q 2531 813 2725 1069 
Q 2919 1325 2919 1791 
Q 2919 2259 2725 2515 
Q 2531 2772 2181 2772 
z
" transform="scale(0.015625)"/>
       <path id="DejaVuSans-Bold-47" d="M 4781 347 
Q 4331 128 3847 18 
Q 3363 -91 2847 -91 
Q 1681 -91 1000 561 
Q 319 1213 319 2328 
Q 319 3456 1012 4103 
Q 1706 4750 2913 4750 
Q 3378 4750 3804 4662 
Q 4231 4575 4609 4403 
L 4609 3438 
Q 4219 3659 3833 3768 
Q 3447 3878 3059 3878 
Q 2341 3878 1952 3476 
Q 1563 3075 1563 2328 
Q 1563 1588 1938 1184 
Q 2313 781 3003 781 
Q 3191 781 3352 804 
Q 3513 828 3641 878 
L 3641 1784 
L 2906 1784 
L 2906 2591 
L 4781 2591 
L 4781 347 
z
" transform="scale(0.015625)"/>
       <path id="DejaVuSans-Bold-6c" d="M 538 4863 
L 1656 4863 
L 1656 0 
L 538 0 
L 538 4863 
z
" transform="scale(0.015625)"/>
       <path id="DejaVuSans-Bold-63" d="M 3366 3391 
L 3366 2478 
Q 3138 2634 2908 2709 
Q 2678 2784 2431 2784 
Q 1963 2784 1702 2511 
Q 1441 2238 1441 1747 
Q 1441 1256 1702 982 
Q 1963 709 2431 709 
Q 2694 709 2930 787 
Q 3166 866 3366 1019 
L 3366 103 
Q 3103 6 2833 -42 
Q 2563 -91 2291 -91 
Q 1344 -91 809 395 
Q 275 881 275 1747 
Q 275 2613 809 3098 
Q 1344 3584 2291 3584 
Q 2566 3584 2833 3536 
Q 3100 3488 3366 3391 
z
" transform="scale(0.015625)"/>
       <path id="DejaVuSans-Bold-4d" d="M 588 4666 
L 2119 4666 
L 3181 2169 
L 4250 4666 
L 5778 4666 
L 5778 0 
L 4641 0 
L 4641 3413 
L 3566 897 
L 2803 897 
L 1728 3413 
L 1728 0 
L 588 0 
L 588 4666 
z
" transform="scale(0.015625)"/>
       <path id="DejaVuSans-Bold-73" d="M 3272 3391 
L 3272 2541 
Q 2913 2691 2578 2766 
Q 2244 2841 1947 2841 
Q 1628 2841 1473 2761 
Q 1319 2681 1319 2516 
Q 1319 2381 1436 2309 
Q 1553 2238 1856 2203 
L 2053 2175 
Q 2913 2066 3209 1816 
Q 3506 1566 3506 1031 
Q 3506 472 3093 190 
Q 2681 -91 1863 -91 
Q 1516 -91 1145 -36 
Q 775 19 384 128 
L 384 978 
Q 719 816 1070 734 
Q 1422 653 1784 653 
Q 2113 653 2278 743 
Q 2444 834 2444 1013 
Q 2444 1163 2330 1236 
Q 2216 1309 1875 1350 
L 1678 1375 
Q 931 1469 631 1722 
Q 331 1975 331 2491 
Q 331 3047 712 3315 
Q 1094 3584 1881 3584 
Q 2191 3584 2531 3537 
Q 2872 3491 3272 3391 
z
" transform="scale(0.015625)"/>
      </defs>
      <use xlink:href="#DejaVuSans-Bold-25"/>
      <use xlink:href="#DejaVuSans-Bold-20" x="100.195312"/>
      <use xlink:href="#DejaVuSans-Bold-6f" x="135.009766"/>
      <use xlink:href="#DejaVuSans-Bold-66" x="203.710938"/>
      <use xlink:href="#DejaVuSans-Bold-20" x="247.216797"/>
      <use xlink:href="#DejaVuSans-Bold-52" x="282.03125"/>
      <use xlink:href="#DejaVuSans-Bold-65" x="359.033203"/>
      <use xlink:href="#DejaVuSans-Bold-6d" x="426.855469"/>
      <use xlink:href="#DejaVuSans-Bold-61" x="531.054688"/>
      <use xlink:href="#DejaVuSans-Bold-69" x="598.535156"/>
      <use xlink:href="#DejaVuSans-Bold-6e" x="632.8125"/>
      <use xlink:href="#DejaVuSans-Bold-69" x="704.003906"/>
      <use xlink:href="#DejaVuSans-Bold-6e" x="738.28125"/>
      <use xlink:href="#DejaVuSans-Bold-67" x="809.472656"/>
      <use xlink:href="#DejaVuSans-Bold-20" x="881.054688"/>
      <use xlink:href="#DejaVuSans-Bold-47" x="915.869141"/>
      <use xlink:href="#DejaVuSans-Bold-6c" x="997.949219"/>
      <use xlink:href="#DejaVuSans-Bold-61" x="1032.226562"/>
      <use xlink:href="#DejaVuSans-Bold-63" x="1099.707031"/>
      <use xlink:href="#DejaVuSans-Bold-69" x="1158.984375"/>
      <use xlink:href="#DejaVuSans-Bold-65" x="1193.261719"/>
      <use xlink:href="#DejaVuSans-Bold-72" x="1261.083984"/>
      <use xlink:href="#DejaVuSans-Bold-20" x="1310.400391"/>
      <use xlink:href="#DejaVuSans-Bold-4d" x="1345.214844"/>
      <use xlink:href="#DejaVuSans-Bold-61" x="1444.726562"/>
      <use xlink:href="#DejaVuSans-Bold-73" x="1512.207031"/>
      <use xlink:href="#DejaVuSans-Bold-73" x="1571.728516"/>
     </g>
    </g>
   </g>
   <g id="line2d_12">
    <path d="M 167.276938 148.209224 
L 172.080016 154.251819 
L 184.087711 170.231314 
L 188.89079 176.945224 
L 196.095407 187.610974 
L 200.898485 194.77718 
L 210.504641 209.732804 
L 217.709259 220.240151 
L 232.118493 239.816679 
L 236.921571 245.871302 
L 244.126188 254.211506 
L 248.929267 259.7143 
L 256.133884 267.12592 
L 270.543118 281.723754 
L 277.747735 288.74643 
L 284.952353 295.439895 
L 289.755431 299.784001 
L 294.558509 303.77389 
L 301.763126 309.088723 
L 304.164665 310.820203 
L 308.967743 313.827176 
L 316.172361 317.973792 
L 320.975439 320.426618 
L 325.778517 322.615541 
L 332.983134 325.584828 
L 340.187751 328.223947 
L 356.998525 334.356284 
L 376.210838 342.161664 
L 388.218533 347.281413 
L 393.021611 349.181893 
L 402.627768 352.657593 
L 409.832385 355.030676 
L 419.438541 357.941364 
L 426.643158 359.819205 
L 441.052393 363.167062 
L 448.25701 364.60836 
L 455.461627 365.683088 
L 462.666244 366.61828 
L 472.272401 367.542886 
L 481.878557 367.92372 
L 510.697026 368.594234 
L 517.901643 368.511115 
L 527.5078 368.445747 
L 537.113956 368.317926 
L 551.52319 368.077803 
L 563.530886 367.955344 
L 570.735503 367.98525 
L 597.152433 367.495099 
L 609.160128 366.91278 
L 621.167824 366.381587 
L 630.77398 366.39463 
L 637.978597 366.68394 
L 654.789371 367.910488 
L 669.198605 368.393443 
L 678.804761 368.391488 
L 686.009379 368.147943 
L 698.017074 367.452565 
L 712.426309 367.040574 
L 719.630926 366.831432 
L 736.441699 365.773848 
L 750.850934 365.116355 
L 758.055551 364.736547 
L 770.063246 364.101288 
L 777.267864 363.915108 
L 813.29095 362.84105 
L 832.503262 362.621142 
L 837.306341 362.57625 
L 837.306341 362.57625 
" clip-path="url(#p20997783c6)" style="fill: none; stroke: #74b8f8; stroke-opacity: 0.5; stroke-width: 6; stroke-linecap: square"/>
   </g>
   <g id="line2d_13">
    <path d="M 116.844617 113.275067 
L 119.246156 113.991179 
L 121.647695 114.800414 
L 124.049234 115.58929 
L 126.450774 116.386902 
L 128.852313 117.253748 
L 131.253852 118.181099 
L 133.655391 119.15641 
L 136.05693 120.206591 
L 138.458469 121.28268 
L 140.860008 122.351251 
L 143.261547 124.278481 
L 145.663086 126.282663 
L 148.064625 128.387901 
L 150.466164 130.574721 
L 152.867703 132.845158 
L 155.269242 135.159011 
L 157.670782 137.515359 
L 160.072321 139.997713 
L 162.47386 142.541785 
L 164.875399 145.352 
" clip-path="url(#p20997783c6)" style="fill: none; stroke: #000000; stroke-opacity: 0.5; stroke-width: 6; stroke-linecap: square"/>
   </g>
   <g id="line2d_14">
    <path d="M 167.276938 147.850589 
L 172.080016 152.963469 
L 176.883094 158.41376 
L 184.087711 167.048455 
L 188.89079 173.227814 
L 193.693868 179.835598 
L 196.095407 183.265855 
L 203.300024 194.315838 
L 215.307719 213.016259 
L 217.709259 216.478827 
L 227.315415 228.787802 
L 239.32311 243.182179 
L 248.929267 254.325107 
L 253.732345 259.710734 
L 260.936962 268.647069 
L 268.141579 276.264157 
L 272.944657 281.00665 
L 277.747735 285.560623 
L 294.558509 302.550845 
L 299.361587 307.188936 
L 304.164665 311.564803 
L 308.967743 316.228367 
L 316.172361 322.710557 
L 323.376978 328.961879 
L 328.180056 332.912096 
L 332.983134 336.614465 
L 340.187751 341.823482 
L 347.392369 346.90722 
L 352.195447 349.998437 
L 359.400064 354.496109 
L 366.604681 358.939634 
L 371.407759 361.721664 
L 378.612377 365.699026 
L 383.415455 367.865905 
L 385.816994 368.848379 
L 390.620072 370.444191 
L 395.42315 371.811907 
L 407.430846 374.734415 
L 412.233924 375.739278 
L 424.241619 377.763465 
L 438.650854 379.879062 
L 445.855471 380.922652 
L 450.658549 382.10494 
L 455.461627 383.099826 
L 467.469323 385.108333 
L 479.477018 386.924506 
L 486.681635 387.935206 
L 493.886252 388.701492 
L 505.893948 389.696381 
L 515.500104 390.540794 
L 520.303182 390.856167 
L 527.5078 391.023297 
L 544.318573 389.352682 
L 549.121651 388.932313 
L 553.924729 389.056682 
L 568.333964 389.84755 
L 587.546277 391.1168 
L 601.955511 391.639485 
L 611.561667 391.997001 
L 637.978597 393.411121 
L 652.387832 394.468619 
L 664.395527 395.019816 
L 690.812457 395.704664 
L 710.024769 395.804804 
L 719.630926 396.055886 
L 729.237082 396.242062 
L 741.244777 396.623072 
L 777.267864 397.407817 
L 808.487872 397.625938 
L 818.094028 397.629406 
L 827.700184 397.594364 
L 837.306341 397.399939 
L 837.306341 397.399939 
" clip-path="url(#p20997783c6)" style="fill: none; stroke: #f47100; stroke-opacity: 0.5; stroke-width: 6; stroke-linecap: square"/>
   </g>
   <g id="line2d_15">
    <path d="M 116.844617 119.410842 
L 119.246156 119.95681 
L 121.647695 120.55142 
L 124.049234 121.124721 
L 126.450774 121.679878 
L 128.852313 122.293969 
L 131.253852 122.938617 
L 133.655391 123.599653 
L 136.05693 124.390593 
L 138.458469 125.23166 
L 140.860008 126.108939 
L 143.261547 127.618919 
L 145.663086 129.302301 
L 148.064625 131.043397 
L 150.466164 132.795531 
L 152.867703 134.569202 
L 155.269242 136.381588 
L 157.670782 138.311138 
L 160.072321 140.452829 
L 162.47386 142.824393 
L 164.875399 145.352 
" clip-path="url(#p20997783c6)" style="fill: none; stroke: #000000; stroke-opacity: 0.5; stroke-width: 6; stroke-linecap: square"/>
   </g>
   <g id="line2d_16">
    <path d="M 167.276938 147.681556 
L 172.080016 152.562528 
L 179.284633 160.369714 
L 191.292329 174.653961 
L 200.898485 186.155913 
L 205.701563 191.359016 
L 208.103102 194.170002 
L 227.315415 218.64035 
L 244.126188 240.37695 
L 248.929267 246.949666 
L 253.732345 253.716358 
L 263.338501 267.090297 
L 268.141579 273.426726 
L 272.944657 279.400156 
L 282.550814 290.374677 
L 289.755431 298.466197 
L 301.763126 312.033691 
L 311.369283 320.969261 
L 323.376978 331.809368 
L 328.180056 335.961626 
L 332.983134 339.29595 
L 342.589291 345.37962 
L 354.596986 355.979984 
L 361.801603 361.811832 
L 366.604681 365.430273 
L 369.00622 367.068876 
L 376.210838 371.469379 
L 378.612377 372.836916 
L 397.824689 381.761046 
L 414.635463 392.933586 
L 424.241619 397.110092 
L 433.847776 401.213201 
L 448.25701 406.901898 
L 455.461627 409.346366 
L 462.666244 411.477204 
L 469.870862 413.482716 
L 477.075479 415.146855 
L 489.083174 417.547885 
L 501.09087 419.914305 
L 532.310878 425.974861 
L 541.917034 427.629787 
L 549.121651 428.573261 
L 577.94012 432.140514 
L 589.947816 433.859551 
L 599.553972 435.5365 
L 616.364745 438.876394 
L 635.577058 442.755955 
L 642.781675 444.155146 
L 652.387832 445.426723 
L 659.592449 446.087762 
L 678.804761 447.055896 
L 686.009379 447.049798 
L 698.017074 446.900056 
L 705.221691 447.038346 
L 712.426309 447.386336 
L 719.630926 447.974615 
L 726.835543 448.740532 
L 765.260168 453.298035 
L 789.275559 454.837487 
L 803.684794 455.773685 
L 815.692489 456.520093 
L 832.503262 456.905972 
L 837.306341 457.122689 
L 837.306341 457.122689 
" clip-path="url(#p20997783c6)" style="fill: none; stroke: #d01e04; stroke-opacity: 0.5; stroke-width: 6; stroke-linecap: square"/>
   </g>
   <g id="line2d_17">
    <path d="M 116.844617 119.160299 
L 119.246156 119.706613 
L 121.647695 120.301598 
L 124.049234 120.875261 
L 126.450774 121.43077 
L 128.852313 122.045249 
L 131.253852 122.690305 
L 133.655391 123.351759 
L 136.05693 124.1432 
L 138.458469 124.984799 
L 140.860008 125.862632 
L 143.261547 127.373568 
L 145.663086 129.066831 
L 148.064625 130.913985 
L 150.466164 132.806266 
L 152.867703 134.786165 
L 155.269242 136.813569 
L 157.670782 138.719417 
L 160.072321 140.835764 
L 162.47386 143.044901 
L 164.875399 145.352 
" clip-path="url(#p20997783c6)" style="fill: none; stroke: #000000; stroke-opacity: 0.5; stroke-width: 6; stroke-linecap: square"/>
   </g>
   <g id="patch_3">
    <path d="M 109.64 515.56 
L 109.64 52.8 
" style="fill: none; stroke: #000000; stroke-width: 0.8; stroke-linejoin: miter; stroke-linecap: square"/>
   </g>
   <g id="patch_4">
    <path d="M 109.64 515.56 
L 858.920192 515.56 
" style="fill: none; stroke: #000000; stroke-width: 0.8; stroke-linejoin: miter; stroke-linecap: square"/>
   </g>
   <g id="text_14">
    <!-- Alaska -->
    <g transform="translate(439.561346 46.8)scale(0.24 -0.24)">
     <defs>
      <path id="DejaVuSans-Bold-41" d="M 3419 850 
L 1538 850 
L 1241 0 
L 31 0 
L 1759 4666 
L 3194 4666 
L 4922 0 
L 3713 0 
L 3419 850 
z
M 1838 1716 
L 3116 1716 
L 2478 3572 
L 1838 1716 
z
" transform="scale(0.015625)"/>
      <path id="DejaVuSans-Bold-6b" d="M 538 4863 
L 1656 4863 
L 1656 2216 
L 2944 3500 
L 4244 3500 
L 2534 1894 
L 4378 0 
L 3022 0 
L 1656 1459 
L 1656 0 
L 538 0 
L 538 4863 
z
" transform="scale(0.015625)"/>
     </defs>
     <use xlink:href="#DejaVuSans-Bold-41"/>
     <use xlink:href="#DejaVuSans-Bold-6c" x="77.392578"/>
     <use xlink:href="#DejaVuSans-Bold-61" x="111.669922"/>
     <use xlink:href="#DejaVuSans-Bold-73" x="179.150391"/>
     <use xlink:href="#DejaVuSans-Bold-6b" x="238.671875"/>
     <use xlink:href="#DejaVuSans-Bold-61" x="305.175781"/>
    </g>
   </g>
   <g id="legend_1">
    <g id="patch_5">
     <path d="M 597.903942 225.737875 
L 843.520192 225.737875 
Q 847.920192 225.737875 847.920192 221.337875 
L 847.920192 68.2 
Q 847.920192 63.8 843.520192 63.8 
L 597.903942 63.8 
Q 593.503942 63.8 593.503942 68.2 
L 593.503942 221.337875 
Q 593.503942 225.737875 597.903942 225.737875 
z
" style="fill: #ffffff; opacity: 0.6; stroke: #cccccc; stroke-linejoin: miter"/>
    </g>
    <g id="text_15">
     <!-- Global mean -->
     <g transform="translate(602.303942 89.316563)scale(0.22 -0.22)">
      <defs>
       <path id="DejaVuSans-47" d="M 3809 666 
L 3809 1919 
L 2778 1919 
L 2778 2438 
L 4434 2438 
L 4434 434 
Q 4069 175 3628 42 
Q 3188 -91 2688 -91 
Q 1594 -91 976 548 
Q 359 1188 359 2328 
Q 359 3472 976 4111 
Q 1594 4750 2688 4750 
Q 3144 4750 3555 4637 
Q 3966 4525 4313 4306 
L 4313 3634 
Q 3963 3931 3569 4081 
Q 3175 4231 2741 4231 
Q 1884 4231 1454 3753 
Q 1025 3275 1025 2328 
Q 1025 1384 1454 906 
Q 1884 428 2741 428 
Q 3075 428 3337 486 
Q 3600 544 3809 666 
z
" transform="scale(0.015625)"/>
       <path id="DejaVuSans-6c" d="M 603 4863 
L 1178 4863 
L 1178 0 
L 603 0 
L 603 4863 
z
" transform="scale(0.015625)"/>
       <path id="DejaVuSans-6f" d="M 1959 3097 
Q 1497 3097 1228 2736 
Q 959 2375 959 1747 
Q 959 1119 1226 758 
Q 1494 397 1959 397 
Q 2419 397 2687 759 
Q 2956 1122 2956 1747 
Q 2956 2369 2687 2733 
Q 2419 3097 1959 3097 
z
M 1959 3584 
Q 2709 3584 3137 3096 
Q 3566 2609 3566 1747 
Q 3566 888 3137 398 
Q 2709 -91 1959 -91 
Q 1206 -91 779 398 
Q 353 888 353 1747 
Q 353 2609 779 3096 
Q 1206 3584 1959 3584 
z
" transform="scale(0.015625)"/>
       <path id="DejaVuSans-62" d="M 3116 1747 
Q 3116 2381 2855 2742 
Q 2594 3103 2138 3103 
Q 1681 3103 1420 2742 
Q 1159 2381 1159 1747 
Q 1159 1113 1420 752 
Q 1681 391 2138 391 
Q 2594 391 2855 752 
Q 3116 1113 3116 1747 
z
M 1159 2969 
Q 1341 3281 1617 3432 
Q 1894 3584 2278 3584 
Q 2916 3584 3314 3078 
Q 3713 2572 3713 1747 
Q 3713 922 3314 415 
Q 2916 -91 2278 -91 
Q 1894 -91 1617 61 
Q 1341 213 1159 525 
L 1159 0 
L 581 0 
L 581 4863 
L 1159 4863 
L 1159 2969 
z
" transform="scale(0.015625)"/>
       <path id="DejaVuSans-61" d="M 2194 1759 
Q 1497 1759 1228 1600 
Q 959 1441 959 1056 
Q 959 750 1161 570 
Q 1363 391 1709 391 
Q 2188 391 2477 730 
Q 2766 1069 2766 1631 
L 2766 1759 
L 2194 1759 
z
M 3341 1997 
L 3341 0 
L 2766 0 
L 2766 531 
Q 2569 213 2275 61 
Q 1981 -91 1556 -91 
Q 1019 -91 701 211 
Q 384 513 384 1019 
Q 384 1609 779 1909 
Q 1175 2209 1959 2209 
L 2766 2209 
L 2766 2266 
Q 2766 2663 2505 2880 
Q 2244 3097 1772 3097 
Q 1472 3097 1187 3025 
Q 903 2953 641 2809 
L 641 3341 
Q 956 3463 1253 3523 
Q 1550 3584 1831 3584 
Q 2591 3584 2966 3190 
Q 3341 2797 3341 1997 
z
" transform="scale(0.015625)"/>
       <path id="DejaVuSans-20" transform="scale(0.015625)"/>
       <path id="DejaVuSans-6d" d="M 3328 2828 
Q 3544 3216 3844 3400 
Q 4144 3584 4550 3584 
Q 5097 3584 5394 3201 
Q 5691 2819 5691 2113 
L 5691 0 
L 5113 0 
L 5113 2094 
Q 5113 2597 4934 2840 
Q 4756 3084 4391 3084 
Q 3944 3084 3684 2787 
Q 3425 2491 3425 1978 
L 3425 0 
L 2847 0 
L 2847 2094 
Q 2847 2600 2669 2842 
Q 2491 3084 2119 3084 
Q 1678 3084 1418 2786 
Q 1159 2488 1159 1978 
L 1159 0 
L 581 0 
L 581 3500 
L 1159 3500 
L 1159 2956 
Q 1356 3278 1631 3431 
Q 1906 3584 2284 3584 
Q 2666 3584 2933 3390 
Q 3200 3197 3328 2828 
z
" transform="scale(0.015625)"/>
       <path id="DejaVuSans-65" d="M 3597 1894 
L 3597 1613 
L 953 1613 
Q 991 1019 1311 708 
Q 1631 397 2203 397 
Q 2534 397 2845 478 
Q 3156 559 3463 722 
L 3463 178 
Q 3153 47 2828 -22 
Q 2503 -91 2169 -91 
Q 1331 -91 842 396 
Q 353 884 353 1716 
Q 353 2575 817 3079 
Q 1281 3584 2069 3584 
Q 2775 3584 3186 3129 
Q 3597 2675 3597 1894 
z
M 3022 2063 
Q 3016 2534 2758 2815 
Q 2500 3097 2075 3097 
Q 1594 3097 1305 2825 
Q 1016 2553 972 2059 
L 3022 2063 
z
" transform="scale(0.015625)"/>
       <path id="DejaVuSans-6e" d="M 3513 2113 
L 3513 0 
L 2938 0 
L 2938 2094 
Q 2938 2591 2744 2837 
Q 2550 3084 2163 3084 
Q 1697 3084 1428 2787 
Q 1159 2491 1159 1978 
L 1159 0 
L 581 0 
L 581 3500 
L 1159 3500 
L 1159 2956 
Q 1366 3272 1645 3428 
Q 1925 3584 2291 3584 
Q 2894 3584 3203 3211 
Q 3513 2838 3513 2113 
z
" transform="scale(0.015625)"/>
      </defs>
      <use xlink:href="#DejaVuSans-47"/>
      <use xlink:href="#DejaVuSans-6c" x="77.490234"/>
      <use xlink:href="#DejaVuSans-6f" x="105.273438"/>
      <use xlink:href="#DejaVuSans-62" x="166.455078"/>
      <use xlink:href="#DejaVuSans-61" x="229.931641"/>
      <use xlink:href="#DejaVuSans-6c" x="291.210938"/>
      <use xlink:href="#DejaVuSans-20" x="318.994141"/>
      <use xlink:href="#DejaVuSans-6d" x="350.78125"/>
      <use xlink:href="#DejaVuSans-65" x="448.193359"/>
      <use xlink:href="#DejaVuSans-61" x="509.716797"/>
      <use xlink:href="#DejaVuSans-6e" x="570.996094"/>
     </g>
     <!-- temperature above -->
     <g transform="translate(602.303942 113.95175)scale(0.22 -0.22)">
      <defs>
       <path id="DejaVuSans-74" d="M 1172 4494 
L 1172 3500 
L 2356 3500 
L 2356 3053 
L 1172 3053 
L 1172 1153 
Q 1172 725 1289 603 
Q 1406 481 1766 481 
L 2356 481 
L 2356 0 
L 1766 0 
Q 1100 0 847 248 
Q 594 497 594 1153 
L 594 3053 
L 172 3053 
L 172 3500 
L 594 3500 
L 594 4494 
L 1172 4494 
z
" transform="scale(0.015625)"/>
       <path id="DejaVuSans-70" d="M 1159 525 
L 1159 -1331 
L 581 -1331 
L 581 3500 
L 1159 3500 
L 1159 2969 
Q 1341 3281 1617 3432 
Q 1894 3584 2278 3584 
Q 2916 3584 3314 3078 
Q 3713 2572 3713 1747 
Q 3713 922 3314 415 
Q 2916 -91 2278 -91 
Q 1894 -91 1617 61 
Q 1341 213 1159 525 
z
M 3116 1747 
Q 3116 2381 2855 2742 
Q 2594 3103 2138 3103 
Q 1681 3103 1420 2742 
Q 1159 2381 1159 1747 
Q 1159 1113 1420 752 
Q 1681 391 2138 391 
Q 2594 391 2855 752 
Q 3116 1113 3116 1747 
z
" transform="scale(0.015625)"/>
       <path id="DejaVuSans-72" d="M 2631 2963 
Q 2534 3019 2420 3045 
Q 2306 3072 2169 3072 
Q 1681 3072 1420 2755 
Q 1159 2438 1159 1844 
L 1159 0 
L 581 0 
L 581 3500 
L 1159 3500 
L 1159 2956 
Q 1341 3275 1631 3429 
Q 1922 3584 2338 3584 
Q 2397 3584 2469 3576 
Q 2541 3569 2628 3553 
L 2631 2963 
z
" transform="scale(0.015625)"/>
       <path id="DejaVuSans-75" d="M 544 1381 
L 544 3500 
L 1119 3500 
L 1119 1403 
Q 1119 906 1312 657 
Q 1506 409 1894 409 
Q 2359 409 2629 706 
Q 2900 1003 2900 1516 
L 2900 3500 
L 3475 3500 
L 3475 0 
L 2900 0 
L 2900 538 
Q 2691 219 2414 64 
Q 2138 -91 1772 -91 
Q 1169 -91 856 284 
Q 544 659 544 1381 
z
M 1991 3584 
L 1991 3584 
z
" transform="scale(0.015625)"/>
       <path id="DejaVuSans-76" d="M 191 3500 
L 800 3500 
L 1894 563 
L 2988 3500 
L 3597 3500 
L 2284 0 
L 1503 0 
L 191 3500 
z
" transform="scale(0.015625)"/>
      </defs>
      <use xlink:href="#DejaVuSans-74"/>
      <use xlink:href="#DejaVuSans-65" x="39.208984"/>
      <use xlink:href="#DejaVuSans-6d" x="100.732422"/>
      <use xlink:href="#DejaVuSans-70" x="198.144531"/>
      <use xlink:href="#DejaVuSans-65" x="261.621094"/>
      <use xlink:href="#DejaVuSans-72" x="323.144531"/>
      <use xlink:href="#DejaVuSans-61" x="364.257812"/>
      <use xlink:href="#DejaVuSans-74" x="425.537109"/>
      <use xlink:href="#DejaVuSans-75" x="464.746094"/>
      <use xlink:href="#DejaVuSans-72" x="528.125"/>
      <use xlink:href="#DejaVuSans-65" x="566.988281"/>
      <use xlink:href="#DejaVuSans-20" x="628.511719"/>
      <use xlink:href="#DejaVuSans-61" x="660.298828"/>
      <use xlink:href="#DejaVuSans-62" x="721.578125"/>
      <use xlink:href="#DejaVuSans-6f" x="785.054688"/>
      <use xlink:href="#DejaVuSans-76" x="846.236328"/>
      <use xlink:href="#DejaVuSans-65" x="905.416016"/>
     </g>
     <!-- pre-industrial in 2100 -->
     <g transform="translate(602.303942 138.586938)scale(0.22 -0.22)">
      <defs>
       <path id="DejaVuSans-2d" d="M 313 2009 
L 1997 2009 
L 1997 1497 
L 313 1497 
L 313 2009 
z
" transform="scale(0.015625)"/>
       <path id="DejaVuSans-69" d="M 603 3500 
L 1178 3500 
L 1178 0 
L 603 0 
L 603 3500 
z
M 603 4863 
L 1178 4863 
L 1178 4134 
L 603 4134 
L 603 4863 
z
" transform="scale(0.015625)"/>
       <path id="DejaVuSans-64" d="M 2906 2969 
L 2906 4863 
L 3481 4863 
L 3481 0 
L 2906 0 
L 2906 525 
Q 2725 213 2448 61 
Q 2172 -91 1784 -91 
Q 1150 -91 751 415 
Q 353 922 353 1747 
Q 353 2572 751 3078 
Q 1150 3584 1784 3584 
Q 2172 3584 2448 3432 
Q 2725 3281 2906 2969 
z
M 947 1747 
Q 947 1113 1208 752 
Q 1469 391 1925 391 
Q 2381 391 2643 752 
Q 2906 1113 2906 1747 
Q 2906 2381 2643 2742 
Q 2381 3103 1925 3103 
Q 1469 3103 1208 2742 
Q 947 2381 947 1747 
z
" transform="scale(0.015625)"/>
       <path id="DejaVuSans-73" d="M 2834 3397 
L 2834 2853 
Q 2591 2978 2328 3040 
Q 2066 3103 1784 3103 
Q 1356 3103 1142 2972 
Q 928 2841 928 2578 
Q 928 2378 1081 2264 
Q 1234 2150 1697 2047 
L 1894 2003 
Q 2506 1872 2764 1633 
Q 3022 1394 3022 966 
Q 3022 478 2636 193 
Q 2250 -91 1575 -91 
Q 1294 -91 989 -36 
Q 684 19 347 128 
L 347 722 
Q 666 556 975 473 
Q 1284 391 1588 391 
Q 1994 391 2212 530 
Q 2431 669 2431 922 
Q 2431 1156 2273 1281 
Q 2116 1406 1581 1522 
L 1381 1569 
Q 847 1681 609 1914 
Q 372 2147 372 2553 
Q 372 3047 722 3315 
Q 1072 3584 1716 3584 
Q 2034 3584 2315 3537 
Q 2597 3491 2834 3397 
z
" transform="scale(0.015625)"/>
      </defs>
      <use xlink:href="#DejaVuSans-70"/>
      <use xlink:href="#DejaVuSans-72" x="63.476562"/>
      <use xlink:href="#DejaVuSans-65" x="102.339844"/>
      <use xlink:href="#DejaVuSans-2d" x="163.863281"/>
      <use xlink:href="#DejaVuSans-69" x="199.947266"/>
      <use xlink:href="#DejaVuSans-6e" x="227.730469"/>
      <use xlink:href="#DejaVuSans-64" x="291.109375"/>
      <use xlink:href="#DejaVuSans-75" x="354.585938"/>
      <use xlink:href="#DejaVuSans-73" x="417.964844"/>
      <use xlink:href="#DejaVuSans-74" x="470.064453"/>
      <use xlink:href="#DejaVuSans-72" x="509.273438"/>
      <use xlink:href="#DejaVuSans-69" x="550.386719"/>
      <use xlink:href="#DejaVuSans-61" x="578.169922"/>
      <use xlink:href="#DejaVuSans-6c" x="639.449219"/>
      <use xlink:href="#DejaVuSans-20" x="667.232422"/>
      <use xlink:href="#DejaVuSans-69" x="699.019531"/>
      <use xlink:href="#DejaVuSans-6e" x="726.802734"/>
      <use xlink:href="#DejaVuSans-20" x="790.181641"/>
      <use xlink:href="#DejaVuSans-32" x="821.96875"/>
      <use xlink:href="#DejaVuSans-31" x="885.591797"/>
      <use xlink:href="#DejaVuSans-30" x="949.214844"/>
      <use xlink:href="#DejaVuSans-30" x="1012.837891"/>
     </g>
    </g>
    <g id="line2d_18">
     <path d="M 616.971755 155.478813 
L 638.971755 155.478813 
L 660.971755 155.478813 
" style="fill: none; stroke: #74b8f8; stroke-opacity: 0.5; stroke-width: 6; stroke-linecap: square"/>
    </g>
    <g id="text_16">
     <!-- 1.5C (n=2) -->
     <g transform="translate(678.571755 163.178813)scale(0.22 -0.22)">
      <defs>
       <path id="DejaVuSans-2e" d="M 684 794 
L 1344 794 
L 1344 0 
L 684 0 
L 684 794 
z
" transform="scale(0.015625)"/>
       <path id="DejaVuSans-35" d="M 691 4666 
L 3169 4666 
L 3169 4134 
L 1269 4134 
L 1269 2991 
Q 1406 3038 1543 3061 
Q 1681 3084 1819 3084 
Q 2600 3084 3056 2656 
Q 3513 2228 3513 1497 
Q 3513 744 3044 326 
Q 2575 -91 1722 -91 
Q 1428 -91 1123 -41 
Q 819 9 494 109 
L 494 744 
Q 775 591 1075 516 
Q 1375 441 1709 441 
Q 2250 441 2565 725 
Q 2881 1009 2881 1497 
Q 2881 1984 2565 2268 
Q 2250 2553 1709 2553 
Q 1456 2553 1204 2497 
Q 953 2441 691 2322 
L 691 4666 
z
" transform="scale(0.015625)"/>
       <path id="DejaVuSans-b0" d="M 1600 4347 
Q 1350 4347 1178 4173 
Q 1006 4000 1006 3750 
Q 1006 3503 1178 3333 
Q 1350 3163 1600 3163 
Q 1850 3163 2022 3333 
Q 2194 3503 2194 3750 
Q 2194 3997 2020 4172 
Q 1847 4347 1600 4347 
z
M 1600 4750 
Q 1800 4750 1984 4673 
Q 2169 4597 2303 4453 
Q 2447 4313 2519 4134 
Q 2591 3956 2591 3750 
Q 2591 3338 2302 3052 
Q 2013 2766 1594 2766 
Q 1172 2766 890 3047 
Q 609 3328 609 3750 
Q 609 4169 896 4459 
Q 1184 4750 1600 4750 
z
" transform="scale(0.015625)"/>
       <path id="DejaVuSans-43" d="M 4122 4306 
L 4122 3641 
Q 3803 3938 3442 4084 
Q 3081 4231 2675 4231 
Q 1875 4231 1450 3742 
Q 1025 3253 1025 2328 
Q 1025 1406 1450 917 
Q 1875 428 2675 428 
Q 3081 428 3442 575 
Q 3803 722 4122 1019 
L 4122 359 
Q 3791 134 3420 21 
Q 3050 -91 2638 -91 
Q 1578 -91 968 557 
Q 359 1206 359 2328 
Q 359 3453 968 4101 
Q 1578 4750 2638 4750 
Q 3056 4750 3426 4639 
Q 3797 4528 4122 4306 
z
" transform="scale(0.015625)"/>
       <path id="DejaVuSans-28" d="M 1984 4856 
Q 1566 4138 1362 3434 
Q 1159 2731 1159 2009 
Q 1159 1288 1364 580 
Q 1569 -128 1984 -844 
L 1484 -844 
Q 1016 -109 783 600 
Q 550 1309 550 2009 
Q 550 2706 781 3412 
Q 1013 4119 1484 4856 
L 1984 4856 
z
" transform="scale(0.015625)"/>
       <path id="DejaVuSans-3d" d="M 678 2906 
L 4684 2906 
L 4684 2381 
L 678 2381 
L 678 2906 
z
M 678 1631 
L 4684 1631 
L 4684 1100 
L 678 1100 
L 678 1631 
z
" transform="scale(0.015625)"/>
       <path id="DejaVuSans-29" d="M 513 4856 
L 1013 4856 
Q 1481 4119 1714 3412 
Q 1947 2706 1947 2009 
Q 1947 1309 1714 600 
Q 1481 -109 1013 -844 
L 513 -844 
Q 928 -128 1133 580 
Q 1338 1288 1338 2009 
Q 1338 2731 1133 3434 
Q 928 4138 513 4856 
z
" transform="scale(0.015625)"/>
      </defs>
      <use xlink:href="#DejaVuSans-31"/>
      <use xlink:href="#DejaVuSans-2e" x="63.623047"/>
      <use xlink:href="#DejaVuSans-35" x="95.410156"/>
      <use xlink:href="#DejaVuSans-b0" x="159.033203"/>
      <use xlink:href="#DejaVuSans-43" x="209.033203"/>
      <use xlink:href="#DejaVuSans-20" x="278.857422"/>
      <use xlink:href="#DejaVuSans-28" x="310.644531"/>
      <use xlink:href="#DejaVuSans-6e" x="349.658203"/>
      <use xlink:href="#DejaVuSans-3d" x="413.037109"/>
      <use xlink:href="#DejaVuSans-32" x="496.826172"/>
      <use xlink:href="#DejaVuSans-29" x="560.449219"/>
     </g>
    </g>
    <g id="line2d_19">
     <path d="M 616.971755 180.070688 
L 638.971755 180.070688 
L 660.971755 180.070688 
" style="fill: none; stroke: #f47100; stroke-opacity: 0.5; stroke-width: 6; stroke-linecap: square"/>
    </g>
    <g id="text_17">
     <!-- 2.2C (n=14) -->
     <g transform="translate(678.571755 187.770688)scale(0.22 -0.22)">
      <use xlink:href="#DejaVuSans-32"/>
      <use xlink:href="#DejaVuSans-2e" x="63.623047"/>
      <use xlink:href="#DejaVuSans-32" x="95.410156"/>
      <use xlink:href="#DejaVuSans-b0" x="159.033203"/>
      <use xlink:href="#DejaVuSans-43" x="209.033203"/>
      <use xlink:href="#DejaVuSans-20" x="278.857422"/>
      <use xlink:href="#DejaVuSans-28" x="310.644531"/>
      <use xlink:href="#DejaVuSans-6e" x="349.658203"/>
      <use xlink:href="#DejaVuSans-3d" x="413.037109"/>
      <use xlink:href="#DejaVuSans-31" x="496.826172"/>
      <use xlink:href="#DejaVuSans-34" x="560.449219"/>
      <use xlink:href="#DejaVuSans-29" x="624.072266"/>
     </g>
    </g>
    <g id="line2d_20">
     <path d="M 616.971755 204.662563 
L 638.971755 204.662563 
L 660.971755 204.662563 
" style="fill: none; stroke: #d01e04; stroke-opacity: 0.5; stroke-width: 6; stroke-linecap: square"/>
    </g>
    <g id="text_18">
     <!-- 2.8C (n=12) -->
     <g transform="translate(678.571755 212.362563)scale(0.22 -0.22)">
      <use xlink:href="#DejaVuSans-32"/>
      <use xlink:href="#DejaVuSans-2e" x="63.623047"/>
      <use xlink:href="#DejaVuSans-38" x="95.410156"/>
      <use xlink:href="#DejaVuSans-b0" x="159.033203"/>
      <use xlink:href="#DejaVuSans-43" x="209.033203"/>
      <use xlink:href="#DejaVuSans-20" x="278.857422"/>
      <use xlink:href="#DejaVuSans-28" x="310.644531"/>
      <use xlink:href="#DejaVuSans-6e" x="349.658203"/>
      <use xlink:href="#DejaVuSans-3d" x="413.037109"/>
      <use xlink:href="#DejaVuSans-31" x="496.826172"/>
      <use xlink:href="#DejaVuSans-32" x="560.449219"/>
      <use xlink:href="#DejaVuSans-29" x="624.072266"/>
     </g>
    </g>
   </g>
  </g>
 </g>
 <defs>
  <clipPath id="p20997783c6">
   <rect x="109.64" y="52.8" width="749.280192" height="462.76"/>
  </clipPath>
 </defs>
</svg>
