<?xml version="1.0" encoding="utf-8" standalone="no"?>
<!DOCTYPE svg PUBLIC "-//W3C//DTD SVG 1.1//EN"
  "http://www.w3.org/Graphics/SVG/1.1/DTD/svg11.dtd">
<svg xmlns:xlink="http://www.w3.org/1999/xlink" width="900pt" height="600pt" viewBox="0 0 900 600" xmlns="http://www.w3.org/2000/svg" version="1.1">
 <metadata>
  <rdf:RDF xmlns:dc="http://purl.org/dc/elements/1.1/" xmlns:cc="http://creativecommons.org/ns#" xmlns:rdf="http://www.w3.org/1999/02/22-rdf-syntax-ns#">
   <cc:Work>
    <dc:type rdf:resource="http://purl.org/dc/dcmitype/StillImage"/>
    <dc:date>2024-10-31T18:28:31.289296</dc:date>
    <dc:format>image/svg+xml</dc:format>
    <dc:creator>
     <cc:Agent>
      <dc:title>Matplotlib v3.5.3, https://matplotlib.org/</dc:title>
     </cc:Agent>
    </dc:creator>
   </cc:Work>
  </rdf:RDF>
 </metadata>
 <defs>
  <style type="text/css">*{stroke-linejoin: round; stroke-linecap: butt}</style>
 </defs>
 <g id="figure_1">
  <g id="patch_1">
   <path d="M 0 600 
L 900 600 
L 900 0 
L 0 0 
z
" style="fill: #ffffff"/>
  </g>
  <g id="axes_1">
   <g id="patch_2">
    <path d="M 109.64 515.56 
L 858.920192 515.56 
L 858.920192 52.8 
L 109.64 52.8 
z
" style="fill: #ffffff"/>
   </g>
   <g id="PolyCollection_1">
    <defs>
     <path id="m36e8f9b5f0" d="M 167.276938 -454.144954 
L 167.276938 -454.103934 
L 169.678477 -453.582173 
L 172.080016 -453.060434 
L 174.481555 -452.51027 
L 176.883094 -451.965306 
L 179.284633 -451.380616 
L 181.686172 -450.790389 
L 184.087711 -450.209972 
L 186.48925 -449.636504 
L 188.89079 -449.032357 
L 191.292329 -448.383421 
L 193.693868 -447.729247 
L 196.095407 -447.057665 
L 198.496946 -446.378466 
L 200.898485 -445.676231 
L 203.300024 -444.891496 
L 205.701563 -444.073142 
L 208.103102 -443.208622 
L 210.504641 -442.406154 
L 212.90618 -441.618742 
L 215.307719 -440.835865 
L 217.709259 -440.030337 
L 220.110798 -439.22325 
L 222.512337 -438.456274 
L 224.913876 -437.658114 
L 227.315415 -436.894397 
L 229.716954 -436.129843 
L 232.118493 -435.358285 
L 234.520032 -434.582156 
L 236.921571 -433.848427 
L 239.32311 -433.154634 
L 241.724649 -432.428897 
L 244.126188 -431.695389 
L 246.527727 -430.950604 
L 248.929267 -430.205052 
L 251.330806 -429.512782 
L 253.732345 -428.8505 
L 256.133884 -428.215719 
L 258.535423 -427.522436 
L 260.936962 -426.839227 
L 263.338501 -426.140506 
L 265.74004 -425.438547 
L 268.141579 -424.747 
L 270.543118 -424.036638 
L 272.944657 -423.354152 
L 275.346196 -422.636789 
L 277.747735 -421.914038 
L 280.149275 -421.188384 
L 282.550814 -420.483018 
L 284.952353 -419.781367 
L 287.353892 -419.052968 
L 289.755431 -418.350859 
L 292.15697 -417.646098 
L 294.558509 -416.93763 
L 296.960048 -416.229941 
L 299.361587 -415.524556 
L 301.763126 -414.782493 
L 304.164665 -414.007992 
L 306.566204 -413.254835 
L 308.967743 -412.500412 
L 311.369283 -411.728882 
L 313.770822 -410.978218 
L 316.172361 -410.241044 
L 318.5739 -409.557326 
L 320.975439 -408.851571 
L 323.376978 -408.180183 
L 325.778517 -407.551018 
L 328.180056 -406.910402 
L 330.581595 -406.240999 
L 332.983134 -405.567189 
L 335.384673 -404.921572 
L 337.786212 -404.286572 
L 340.187751 -403.654756 
L 342.589291 -403.071205 
L 344.99083 -402.519949 
L 347.392369 -401.922792 
L 349.793908 -401.377286 
L 352.195447 -400.880954 
L 354.596986 -400.346395 
L 356.998525 -399.805835 
L 359.400064 -399.271553 
L 361.801603 -398.724219 
L 364.203142 -398.200107 
L 366.604681 -397.630423 
L 369.00622 -397.08576 
L 371.407759 -396.537602 
L 373.809299 -395.98382 
L 376.210838 -395.4649 
L 378.612377 -394.956415 
L 381.013916 -394.419051 
L 383.415455 -393.879837 
L 385.816994 -393.355895 
L 388.218533 -392.838611 
L 390.620072 -392.308659 
L 393.021611 -391.828648 
L 395.42315 -391.373084 
L 397.824689 -390.915273 
L 400.226228 -390.435573 
L 402.627768 -390.022538 
L 405.029307 -389.594223 
L 407.430846 -389.137652 
L 409.832385 -388.669918 
L 412.233924 -388.201672 
L 414.635463 -387.72911 
L 417.037002 -387.208452 
L 419.438541 -386.710296 
L 421.84008 -386.224299 
L 424.241619 -385.726327 
L 426.643158 -385.242677 
L 429.044697 -384.80172 
L 431.446236 -384.374873 
L 433.847776 -383.927248 
L 436.249315 -383.502134 
L 438.650854 -383.066486 
L 441.052393 -382.601564 
L 443.453932 -382.1265 
L 445.855471 -381.62851 
L 448.25701 -381.135939 
L 450.658549 -380.607369 
L 453.060088 -380.095534 
L 455.461627 -379.60781 
L 457.863166 -379.109675 
L 460.264705 -378.623408 
L 462.666244 -378.126353 
L 465.067784 -377.657534 
L 467.469323 -377.198258 
L 469.870862 -376.724147 
L 472.272401 -376.262058 
L 474.67394 -375.810832 
L 477.075479 -375.362663 
L 479.477018 -374.886008 
L 481.878557 -374.409001 
L 484.280096 -373.921621 
L 486.681635 -373.440482 
L 489.083174 -372.957546 
L 491.484713 -372.488427 
L 493.886252 -371.992085 
L 496.287792 -371.494223 
L 498.689331 -370.997963 
L 501.09087 -370.496425 
L 503.492409 -370.010775 
L 505.893948 -369.568006 
L 508.295487 -369.107013 
L 510.697026 -368.66936 
L 513.098565 -368.239973 
L 515.500104 -367.798776 
L 517.901643 -367.379454 
L 520.303182 -366.95009 
L 522.704721 -366.534572 
L 525.10626 -366.100298 
L 527.5078 -365.671615 
L 529.909339 -365.257766 
L 532.310878 -364.864491 
L 534.712417 -364.4776 
L 537.113956 -364.095537 
L 539.515495 -363.695881 
L 541.917034 -363.317861 
L 544.318573 -362.946907 
L 546.720112 -362.596098 
L 549.121651 -362.273266 
L 551.52319 -361.960314 
L 553.924729 -361.633239 
L 556.326268 -361.307647 
L 558.727808 -360.991499 
L 561.129347 -360.650387 
L 563.530886 -360.326613 
L 565.932425 -359.988439 
L 568.333964 -359.642202 
L 570.735503 -359.283027 
L 573.137042 -358.950004 
L 575.538581 -358.626069 
L 577.94012 -358.315342 
L 580.341659 -357.996644 
L 582.743198 -357.682657 
L 585.144737 -357.369479 
L 587.546277 -357.06926 
L 589.947816 -356.770428 
L 592.349355 -356.47134 
L 594.750894 -356.162722 
L 597.152433 -355.851469 
L 599.553972 -355.53006 
L 601.955511 -355.196495 
L 604.35705 -354.858225 
L 606.758589 -354.53064 
L 609.160128 -354.228843 
L 611.561667 -353.909825 
L 613.963206 -353.602545 
L 616.364745 -353.295694 
L 618.766285 -352.993641 
L 621.167824 -352.651027 
L 623.569363 -352.310603 
L 625.970902 -351.984927 
L 628.372441 -351.647068 
L 630.77398 -351.294901 
L 633.175519 -350.944596 
L 635.577058 -350.618807 
L 637.978597 -350.301705 
L 640.380136 -350.006061 
L 642.781675 -349.751886 
L 645.183214 -349.489155 
L 647.584753 -349.241869 
L 649.986293 -349.008582 
L 652.387832 -348.799404 
L 654.789371 -348.587081 
L 657.19091 -348.379712 
L 659.592449 -348.171624 
L 661.993988 -347.955623 
L 664.395527 -347.727719 
L 666.797066 -347.497181 
L 669.198605 -347.292307 
L 671.600144 -347.080347 
L 674.001683 -346.843079 
L 676.403222 -346.594656 
L 678.804761 -346.352276 
L 681.206301 -346.08455 
L 683.60784 -345.81706 
L 686.009379 -345.541312 
L 688.410918 -345.247438 
L 690.812457 -344.917811 
L 693.213996 -344.595846 
L 695.615535 -344.2619 
L 698.017074 -343.935085 
L 700.418613 -343.613353 
L 702.820152 -343.287953 
L 705.221691 -342.953758 
L 707.62323 -342.62858 
L 710.024769 -342.302539 
L 712.426309 -342.004774 
L 714.827848 -341.703219 
L 717.229387 -341.397104 
L 719.630926 -341.098445 
L 722.032465 -340.803555 
L 724.434004 -340.517945 
L 726.835543 -340.225823 
L 729.237082 -339.958693 
L 731.638621 -339.682501 
L 734.04016 -339.421367 
L 736.441699 -339.151575 
L 738.843238 -338.895153 
L 741.244777 -338.637681 
L 743.646317 -338.380144 
L 746.047856 -338.112589 
L 748.449395 -337.79159 
L 750.850934 -337.470582 
L 753.252473 -337.157275 
L 755.654012 -336.849048 
L 758.055551 -336.535545 
L 760.45709 -336.203199 
L 762.858629 -335.877338 
L 765.260168 -335.542316 
L 767.661707 -335.220722 
L 770.063246 -334.9163 
L 772.464786 -334.640429 
L 774.866325 -334.369561 
L 777.267864 -334.07674 
L 779.669403 -333.763569 
L 782.070942 -333.443548 
L 784.472481 -333.145281 
L 786.87402 -332.848217 
L 789.275559 -332.564322 
L 791.677098 -332.290271 
L 794.078637 -332.00762 
L 796.480176 -331.785506 
L 798.881715 -331.560098 
L 801.283254 -331.332005 
L 803.684794 -331.111003 
L 806.086333 -330.887968 
L 808.487872 -330.654605 
L 810.889411 -330.414693 
L 813.29095 -330.166079 
L 815.692489 -329.932302 
L 818.094028 -329.815267 
L 820.495567 -329.676327 
L 822.897106 -329.534377 
L 825.298645 -329.407394 
L 827.700184 -329.308512 
L 830.101723 -329.212488 
L 832.503262 -329.112441 
L 834.904802 -329.016739 
L 837.306341 -328.897689 
L 837.306341 -341.010782 
L 837.306341 -341.010782 
L 834.904802 -341.075623 
L 832.503262 -341.112427 
L 830.101723 -341.154928 
L 827.700184 -341.194363 
L 825.298645 -341.23938 
L 822.897106 -341.314554 
L 820.495567 -341.407738 
L 818.094028 -341.497986 
L 815.692489 -341.553834 
L 813.29095 -341.670895 
L 810.889411 -341.809906 
L 808.487872 -341.93602 
L 806.086333 -342.05317 
L 803.684794 -342.155017 
L 801.283254 -342.255932 
L 798.881715 -342.369584 
L 796.480176 -342.483995 
L 794.078637 -342.591891 
L 791.677098 -342.784837 
L 789.275559 -342.972005 
L 786.87402 -343.168555 
L 784.472481 -343.379284 
L 782.070942 -343.593729 
L 779.669403 -343.833377 
L 777.267864 -344.059267 
L 774.866325 -344.26305 
L 772.464786 -344.44186 
L 770.063246 -344.627934 
L 767.661707 -344.855651 
L 765.260168 -345.103855 
L 762.858629 -345.363439 
L 760.45709 -345.61461 
L 758.055551 -345.876982 
L 755.654012 -346.116042 
L 753.252473 -346.349798 
L 750.850934 -346.591472 
L 748.449395 -346.844954 
L 746.047856 -347.095052 
L 743.646317 -347.272114 
L 741.244777 -347.430119 
L 738.843238 -347.592374 
L 736.441699 -347.751139 
L 734.04016 -347.928152 
L 731.638621 -348.088727 
L 729.237082 -348.268439 
L 726.835543 -348.439976 
L 724.434004 -348.63757 
L 722.032465 -348.828245 
L 719.630926 -349.030629 
L 717.229387 -349.242399 
L 714.827848 -349.468711 
L 712.426309 -349.689273 
L 710.024769 -349.90358 
L 707.62323 -350.15145 
L 705.221691 -350.39408 
L 702.820152 -350.64772 
L 700.418613 -350.882277 
L 698.017074 -351.114632 
L 695.615535 -351.35717 
L 693.213996 -351.604043 
L 690.812457 -351.834437 
L 688.410918 -352.079892 
L 686.009379 -352.275455 
L 683.60784 -352.453925 
L 681.206301 -352.625867 
L 678.804761 -352.799704 
L 676.403222 -352.94849 
L 674.001683 -353.103495 
L 671.600144 -353.246287 
L 669.198605 -353.349437 
L 666.797066 -353.44618 
L 664.395527 -353.566786 
L 661.993988 -353.685947 
L 659.592449 -353.787012 
L 657.19091 -353.878657 
L 654.789371 -353.963722 
L 652.387832 -354.06152 
L 649.986293 -354.156606 
L 647.584753 -354.277456 
L 645.183214 -354.418174 
L 642.781675 -354.580092 
L 640.380136 -354.729748 
L 637.978597 -354.927368 
L 635.577058 -355.151788 
L 633.175519 -355.38784 
L 630.77398 -355.655954 
L 628.372441 -355.923451 
L 625.970902 -356.170421 
L 623.569363 -356.405259 
L 621.167824 -356.659666 
L 618.766285 -356.913374 
L 616.364745 -357.124172 
L 613.963206 -357.343313 
L 611.561667 -357.56833 
L 609.160128 -357.811144 
L 606.758589 -358.033336 
L 604.35705 -358.280969 
L 601.955511 -358.538648 
L 599.553972 -358.796881 
L 597.152433 -359.038363 
L 594.750894 -359.266219 
L 592.349355 -359.491581 
L 589.947816 -359.712074 
L 587.546277 -359.928198 
L 585.144737 -360.143351 
L 582.743198 -360.374731 
L 580.341659 -360.605542 
L 577.94012 -360.849969 
L 575.538581 -361.08154 
L 573.137042 -361.33104 
L 570.735503 -361.590608 
L 568.333964 -361.883238 
L 565.932425 -362.159446 
L 563.530886 -362.428285 
L 561.129347 -362.678917 
L 558.727808 -362.950815 
L 556.326268 -363.195938 
L 553.924729 -363.448884 
L 551.52319 -363.702925 
L 549.121651 -363.945338 
L 546.720112 -364.20216 
L 544.318573 -364.486407 
L 541.917034 -364.792154 
L 539.515495 -365.106478 
L 537.113956 -365.448502 
L 534.712417 -365.761517 
L 532.310878 -366.089852 
L 529.909339 -366.419809 
L 527.5078 -366.778912 
L 525.10626 -367.159347 
L 522.704721 -367.556038 
L 520.303182 -367.926616 
L 517.901643 -368.314257 
L 515.500104 -368.689132 
L 513.098565 -369.087089 
L 510.697026 -369.473186 
L 508.295487 -369.869889 
L 505.893948 -370.300078 
L 503.492409 -370.704077 
L 501.09087 -371.154483 
L 498.689331 -371.6168 
L 496.287792 -372.080956 
L 493.886252 -372.550432 
L 491.484713 -373.027542 
L 489.083174 -373.469184 
L 486.681635 -373.930282 
L 484.280096 -374.385978 
L 481.878557 -374.856425 
L 479.477018 -375.311517 
L 477.075479 -375.76765 
L 474.67394 -376.179794 
L 472.272401 -376.599444 
L 469.870862 -377.030363 
L 467.469323 -377.471679 
L 465.067784 -377.896547 
L 462.666244 -378.333008 
L 460.264705 -378.805667 
L 457.863166 -379.262109 
L 455.461627 -379.734555 
L 453.060088 -380.19284 
L 450.658549 -380.68952 
L 448.25701 -381.200305 
L 445.855471 -381.662768 
L 443.453932 -382.128547 
L 441.052393 -382.623741 
L 438.650854 -383.114527 
L 436.249315 -383.58726 
L 433.847776 -384.054555 
L 431.446236 -384.543035 
L 429.044697 -385.017239 
L 426.643158 -385.503347 
L 424.241619 -386.022718 
L 421.84008 -386.554127 
L 419.438541 -387.075263 
L 417.037002 -387.605182 
L 414.635463 -388.151333 
L 412.233924 -388.658323 
L 409.832385 -389.161129 
L 407.430846 -389.662301 
L 405.029307 -390.147515 
L 402.627768 -390.609681 
L 400.226228 -391.055661 
L 397.824689 -391.55061 
L 395.42315 -392.029339 
L 393.021611 -392.511027 
L 390.620072 -393.013435 
L 388.218533 -393.553137 
L 385.816994 -394.088323 
L 383.415455 -394.624481 
L 381.013916 -395.171986 
L 378.612377 -395.716162 
L 376.210838 -396.239638 
L 373.809299 -396.76811 
L 371.407759 -397.324144 
L 369.00622 -397.872044 
L 366.604681 -398.417852 
L 364.203142 -398.985085 
L 361.801603 -399.515428 
L 359.400064 -400.067464 
L 356.998525 -400.610928 
L 354.596986 -401.162995 
L 352.195447 -401.713153 
L 349.793908 -402.237076 
L 347.392369 -402.800029 
L 344.99083 -403.409261 
L 342.589291 -403.98115 
L 340.187751 -404.580072 
L 337.786212 -405.20974 
L 335.384673 -405.841524 
L 332.983134 -406.482634 
L 330.581595 -407.148083 
L 328.180056 -407.80666 
L 325.778517 -408.446218 
L 323.376978 -409.070907 
L 320.975439 -409.733973 
L 318.5739 -410.426631 
L 316.172361 -411.101602 
L 313.770822 -411.818499 
L 311.369283 -412.542921 
L 308.967743 -413.282065 
L 306.566204 -414.002967 
L 304.164665 -414.723941 
L 301.763126 -415.455983 
L 299.361587 -416.16101 
L 296.960048 -416.827709 
L 294.558509 -417.497154 
L 292.15697 -418.163356 
L 289.755431 -418.830492 
L 287.353892 -419.500579 
L 284.952353 -420.192038 
L 282.550814 -420.859025 
L 280.149275 -421.534678 
L 277.747735 -422.226127 
L 275.346196 -422.920483 
L 272.944657 -423.607615 
L 270.543118 -424.269067 
L 268.141579 -424.953774 
L 265.74004 -425.621312 
L 263.338501 -426.292558 
L 260.936962 -426.959326 
L 258.535423 -427.615852 
L 256.133884 -428.275873 
L 253.732345 -428.893669 
L 251.330806 -429.537985 
L 248.929267 -430.207975 
L 246.527727 -430.979029 
L 244.126188 -431.755523 
L 241.724649 -432.516424 
L 239.32311 -433.267433 
L 236.921571 -433.976306 
L 234.520032 -434.729858 
L 232.118493 -435.5349 
L 229.716954 -436.331742 
L 227.315415 -437.119256 
L 224.913876 -437.908693 
L 222.512337 -438.746804 
L 220.110798 -439.54427 
L 217.709259 -440.39197 
L 215.307719 -441.232288 
L 212.90618 -442.032202 
L 210.504641 -442.839409 
L 208.103102 -443.667823 
L 205.701563 -444.569953 
L 203.300024 -445.419412 
L 200.898485 -446.224894 
L 198.496946 -446.93912 
L 196.095407 -447.619367 
L 193.693868 -448.293775 
L 191.292329 -448.949628 
L 188.89079 -449.601305 
L 186.48925 -450.188441 
L 184.087711 -450.718971 
L 181.686172 -451.240136 
L 179.284633 -451.76532 
L 176.883094 -452.298119 
L 174.481555 -452.778088 
L 172.080016 -453.236838 
L 169.678477 -453.691433 
L 167.276938 -454.144954 
z
" style="stroke: #74b8f8; stroke-opacity: 0.2"/>
    </defs>
    <g clip-path="url(#p1cad224ff9)">
     <use xlink:href="#m36e8f9b5f0" x="0" y="600" style="fill: #74b8f8; fill-opacity: 0.2; stroke: #74b8f8; stroke-opacity: 0.2"/>
    </g>
   </g>
   <g id="PolyCollection_2">
    <defs>
     <path id="m9e11f35771" d="M 116.844617 -463.141381 
L 116.844617 -462.837658 
L 119.246156 -462.578535 
L 121.647695 -462.318871 
L 124.049234 -462.022377 
L 126.450774 -461.717521 
L 128.852313 -461.422185 
L 131.253852 -461.106028 
L 133.655391 -460.765797 
L 136.05693 -460.449669 
L 138.458469 -460.143773 
L 140.860008 -459.862347 
L 143.261547 -459.369322 
L 145.663086 -458.858142 
L 148.064625 -458.357516 
L 150.466164 -457.844334 
L 152.867703 -457.326228 
L 155.269242 -456.791647 
L 157.670782 -456.265495 
L 160.072321 -455.737795 
L 162.47386 -455.199846 
L 164.875399 -454.648 
L 164.875399 -454.648 
L 164.875399 -454.648 
L 162.47386 -455.215364 
L 160.072321 -455.75573 
L 157.670782 -456.279033 
L 155.269242 -456.81655 
L 152.867703 -457.361902 
L 150.466164 -457.908053 
L 148.064625 -458.434189 
L 145.663086 -458.951174 
L 143.261547 -459.482104 
L 140.860008 -460.000225 
L 138.458469 -460.294608 
L 136.05693 -460.588063 
L 133.655391 -460.868421 
L 131.253852 -461.154588 
L 128.852313 -461.437043 
L 126.450774 -461.743523 
L 124.049234 -462.150444 
L 121.647695 -462.508518 
L 119.246156 -462.832683 
L 116.844617 -463.141381 
z
" style="stroke: #000000; stroke-opacity: 0.2"/>
    </defs>
    <g clip-path="url(#p1cad224ff9)">
     <use xlink:href="#m9e11f35771" x="0" y="600" style="fill-opacity: 0.2; stroke: #000000; stroke-opacity: 0.2"/>
    </g>
   </g>
   <g id="PolyCollection_3">
    <defs>
     <path id="mace536a4ba" d="M 167.276938 -454.019523 
L 167.276938 -453.920329 
L 169.678477 -453.209884 
L 172.080016 -452.493579 
L 174.481555 -451.816175 
L 176.883094 -451.090241 
L 179.284633 -450.34651 
L 181.686172 -449.579858 
L 184.087711 -448.826765 
L 186.48925 -448.069579 
L 188.89079 -447.27609 
L 191.292329 -446.470515 
L 193.693868 -445.692568 
L 196.095407 -444.936296 
L 198.496946 -444.176379 
L 200.898485 -443.392632 
L 203.300024 -442.597919 
L 205.701563 -441.803142 
L 208.103102 -440.999325 
L 210.504641 -440.203084 
L 212.90618 -439.417675 
L 215.307719 -438.592081 
L 217.709259 -437.791522 
L 220.110798 -436.918742 
L 222.512337 -436.131984 
L 224.913876 -435.391209 
L 227.315415 -434.621244 
L 229.716954 -433.833515 
L 232.118493 -432.97753 
L 234.520032 -432.143405 
L 236.921571 -431.288167 
L 239.32311 -430.419392 
L 241.724649 -429.461337 
L 244.126188 -428.463125 
L 246.527727 -427.486253 
L 248.929267 -426.523669 
L 251.330806 -425.494171 
L 253.732345 -424.415566 
L 256.133884 -423.326654 
L 258.535423 -422.246841 
L 260.936962 -421.178324 
L 263.338501 -420.055368 
L 265.74004 -418.905969 
L 268.141579 -417.741895 
L 270.543118 -416.577857 
L 272.944657 -415.408707 
L 275.346196 -414.184795 
L 277.747735 -412.926615 
L 280.149275 -411.660521 
L 282.550814 -410.38931 
L 284.952353 -409.1531 
L 287.353892 -407.92762 
L 289.755431 -406.767697 
L 292.15697 -405.592063 
L 294.558509 -404.388395 
L 296.960048 -403.190743 
L 299.361587 -401.984956 
L 301.763126 -400.806381 
L 304.164665 -399.623711 
L 306.566204 -398.478701 
L 308.967743 -397.334025 
L 311.369283 -396.136865 
L 313.770822 -394.924028 
L 316.172361 -393.776168 
L 318.5739 -392.61519 
L 320.975439 -391.512305 
L 323.376978 -390.433763 
L 325.778517 -389.328028 
L 328.180056 -388.243037 
L 330.581595 -387.143127 
L 332.983134 -386.045581 
L 335.384673 -384.963934 
L 337.786212 -383.930723 
L 340.187751 -382.871797 
L 342.589291 -381.801148 
L 344.99083 -380.785907 
L 347.392369 -379.7637 
L 349.793908 -378.76108 
L 352.195447 -377.803887 
L 354.596986 -376.82516 
L 356.998525 -375.852689 
L 359.400064 -374.919159 
L 361.801603 -373.98108 
L 364.203142 -373.039847 
L 366.604681 -372.149034 
L 369.00622 -371.248089 
L 371.407759 -370.326693 
L 373.809299 -369.453326 
L 376.210838 -368.560533 
L 378.612377 -367.690465 
L 381.013916 -366.776629 
L 383.415455 -365.833423 
L 385.816994 -364.845338 
L 388.218533 -363.858301 
L 390.620072 -362.895768 
L 393.021611 -361.925436 
L 395.42315 -360.97053 
L 397.824689 -360.02773 
L 400.226228 -359.096898 
L 402.627768 -358.118282 
L 405.029307 -357.154442 
L 407.430846 -356.120011 
L 409.832385 -355.049575 
L 412.233924 -353.979172 
L 414.635463 -352.905701 
L 417.037002 -351.835664 
L 419.438541 -350.767152 
L 421.84008 -349.685526 
L 424.241619 -348.592675 
L 426.643158 -347.514726 
L 429.044697 -346.460173 
L 431.446236 -345.404479 
L 433.847776 -344.367361 
L 436.249315 -343.360037 
L 438.650854 -342.391518 
L 441.052393 -341.414381 
L 443.453932 -340.454207 
L 445.855471 -339.479742 
L 448.25701 -338.501743 
L 450.658549 -337.557472 
L 453.060088 -336.613615 
L 455.461627 -335.669179 
L 457.863166 -334.722165 
L 460.264705 -333.803248 
L 462.666244 -332.86148 
L 465.067784 -331.934708 
L 467.469323 -331.017133 
L 469.870862 -330.107479 
L 472.272401 -329.198947 
L 474.67394 -328.281968 
L 477.075479 -327.346605 
L 479.477018 -326.420098 
L 481.878557 -325.444975 
L 484.280096 -324.441352 
L 486.681635 -323.451216 
L 489.083174 -322.475081 
L 491.484713 -321.496241 
L 493.886252 -320.520764 
L 496.287792 -319.532877 
L 498.689331 -318.537851 
L 501.09087 -317.53027 
L 503.492409 -316.539818 
L 505.893948 -315.568354 
L 508.295487 -314.594187 
L 510.697026 -313.630847 
L 513.098565 -312.650923 
L 515.500104 -311.68031 
L 517.901643 -310.722872 
L 520.303182 -309.767296 
L 522.704721 -308.816464 
L 525.10626 -307.87543 
L 527.5078 -306.925939 
L 529.909339 -305.984275 
L 532.310878 -305.039426 
L 534.712417 -304.069549 
L 537.113956 -303.095211 
L 539.515495 -302.140797 
L 541.917034 -301.215023 
L 544.318573 -300.304165 
L 546.720112 -299.41802 
L 549.121651 -298.552051 
L 551.52319 -297.685156 
L 553.924729 -296.831576 
L 556.326268 -295.972925 
L 558.727808 -295.126844 
L 561.129347 -294.301533 
L 563.530886 -293.482576 
L 565.932425 -292.670973 
L 568.333964 -291.867892 
L 570.735503 -291.074501 
L 573.137042 -290.304291 
L 575.538581 -289.543921 
L 577.94012 -288.783081 
L 580.341659 -288.036791 
L 582.743198 -287.307215 
L 585.144737 -286.576651 
L 587.546277 -285.826598 
L 589.947816 -285.05238 
L 592.349355 -284.281295 
L 594.750894 -283.50576 
L 597.152433 -282.723928 
L 599.553972 -281.955542 
L 601.955511 -281.202086 
L 604.35705 -280.432558 
L 606.758589 -279.668107 
L 609.160128 -278.918056 
L 611.561667 -278.17138 
L 613.963206 -277.431983 
L 616.364745 -276.709562 
L 618.766285 -275.99717 
L 621.167824 -275.281719 
L 623.569363 -274.551613 
L 625.970902 -273.828896 
L 628.372441 -273.10984 
L 630.77398 -272.396475 
L 633.175519 -271.688503 
L 635.577058 -270.988305 
L 637.978597 -270.313218 
L 640.380136 -269.641267 
L 642.781675 -268.977091 
L 645.183214 -268.330394 
L 647.584753 -267.682616 
L 649.986293 -267.035376 
L 652.387832 -266.419185 
L 654.789371 -265.80668 
L 657.19091 -265.170612 
L 659.592449 -264.545745 
L 661.993988 -263.922176 
L 664.395527 -263.28495 
L 666.797066 -262.657927 
L 669.198605 -262.027053 
L 671.600144 -261.391931 
L 674.001683 -260.752614 
L 676.403222 -260.120642 
L 678.804761 -259.48822 
L 681.206301 -258.859683 
L 683.60784 -258.239053 
L 686.009379 -257.620186 
L 688.410918 -256.994617 
L 690.812457 -256.367894 
L 693.213996 -255.732581 
L 695.615535 -255.108772 
L 698.017074 -254.488358 
L 700.418613 -253.867976 
L 702.820152 -253.271564 
L 705.221691 -252.693456 
L 707.62323 -252.102976 
L 710.024769 -251.508657 
L 712.426309 -250.920489 
L 714.827848 -250.318839 
L 717.229387 -249.730888 
L 719.630926 -249.166612 
L 722.032465 -248.62297 
L 724.434004 -248.0686 
L 726.835543 -247.526676 
L 729.237082 -246.997399 
L 731.638621 -246.468691 
L 734.04016 -245.936256 
L 736.441699 -245.424582 
L 738.843238 -244.92122 
L 741.244777 -244.437975 
L 743.646317 -243.965186 
L 746.047856 -243.500767 
L 748.449395 -243.0427 
L 750.850934 -242.563129 
L 753.252473 -242.096003 
L 755.654012 -241.64302 
L 758.055551 -241.215382 
L 760.45709 -240.791168 
L 762.858629 -240.380841 
L 765.260168 -239.979995 
L 767.661707 -239.590747 
L 770.063246 -239.214003 
L 772.464786 -238.850188 
L 774.866325 -238.48295 
L 777.267864 -238.113241 
L 779.669403 -237.744677 
L 782.070942 -237.374158 
L 784.472481 -236.967179 
L 786.87402 -236.460899 
L 789.275559 -235.964838 
L 791.677098 -235.474355 
L 794.078637 -234.983866 
L 796.480176 -234.501123 
L 798.881715 -234.032075 
L 801.283254 -233.552176 
L 803.684794 -233.068768 
L 806.086333 -232.576636 
L 808.487872 -232.098292 
L 810.889411 -231.629858 
L 813.29095 -231.170389 
L 815.692489 -230.691883 
L 818.094028 -230.434587 
L 820.495567 -230.180931 
L 822.897106 -229.91712 
L 825.298645 -229.655459 
L 827.700184 -229.410108 
L 830.101723 -229.192395 
L 832.503262 -228.989575 
L 834.904802 -228.782623 
L 837.306341 -228.566363 
L 837.306341 -291.951798 
L 837.306341 -291.951798 
L 834.904802 -292.094811 
L 832.503262 -292.244949 
L 830.101723 -292.403514 
L 827.700184 -292.559299 
L 825.298645 -292.718464 
L 822.897106 -292.87468 
L 820.495567 -293.02306 
L 818.094028 -293.157213 
L 815.692489 -293.290225 
L 813.29095 -293.578987 
L 810.889411 -293.879413 
L 808.487872 -294.173015 
L 806.086333 -294.468232 
L 803.684794 -294.761135 
L 801.283254 -295.087434 
L 798.881715 -295.419174 
L 796.480176 -295.741773 
L 794.078637 -296.069864 
L 791.677098 -296.409397 
L 789.275559 -296.742028 
L 786.87402 -297.075168 
L 784.472481 -297.391878 
L 782.070942 -297.694458 
L 779.669403 -298.003452 
L 777.267864 -298.326545 
L 774.866325 -298.659952 
L 772.464786 -299.005361 
L 770.063246 -299.363425 
L 767.661707 -299.736327 
L 765.260168 -300.100042 
L 762.858629 -300.458953 
L 760.45709 -300.815366 
L 758.055551 -301.172703 
L 755.654012 -301.529754 
L 753.252473 -301.845256 
L 750.850934 -302.147573 
L 748.449395 -302.47288 
L 746.047856 -302.830489 
L 743.646317 -303.186139 
L 741.244777 -303.533969 
L 738.843238 -303.88965 
L 736.441699 -304.253576 
L 734.04016 -304.623636 
L 731.638621 -304.988981 
L 729.237082 -305.337647 
L 726.835543 -305.679255 
L 724.434004 -306.03611 
L 722.032465 -306.397139 
L 719.630926 -306.754358 
L 717.229387 -307.111949 
L 714.827848 -307.47315 
L 712.426309 -307.842882 
L 710.024769 -308.221801 
L 707.62323 -308.596483 
L 705.221691 -308.979879 
L 702.820152 -309.371979 
L 700.418613 -309.77167 
L 698.017074 -310.176317 
L 695.615535 -310.589608 
L 693.213996 -311.01227 
L 690.812457 -311.426249 
L 688.410918 -311.840368 
L 686.009379 -312.256552 
L 683.60784 -312.687868 
L 681.206301 -313.155334 
L 678.804761 -313.621766 
L 676.403222 -314.078539 
L 674.001683 -314.523403 
L 671.600144 -314.97454 
L 669.198605 -315.433278 
L 666.797066 -315.894621 
L 664.395527 -316.350167 
L 661.993988 -316.808129 
L 659.592449 -317.30088 
L 657.19091 -317.787044 
L 654.789371 -318.268409 
L 652.387832 -318.751467 
L 649.986293 -319.220432 
L 647.584753 -319.702116 
L 645.183214 -320.195724 
L 642.781675 -320.698612 
L 640.380136 -321.219502 
L 637.978597 -321.763966 
L 635.577058 -322.289687 
L 633.175519 -322.799697 
L 630.77398 -323.315637 
L 628.372441 -323.827892 
L 625.970902 -324.351049 
L 623.569363 -324.880391 
L 621.167824 -325.413028 
L 618.766285 -325.947977 
L 616.364745 -326.486615 
L 613.963206 -327.010658 
L 611.561667 -327.498798 
L 609.160128 -327.993752 
L 606.758589 -328.50209 
L 604.35705 -329.00891 
L 601.955511 -329.514523 
L 599.553972 -330.017256 
L 597.152433 -330.512854 
L 594.750894 -331.00451 
L 592.349355 -331.475164 
L 589.947816 -331.946372 
L 587.546277 -332.430818 
L 585.144737 -332.930158 
L 582.743198 -333.430393 
L 580.341659 -333.927034 
L 577.94012 -334.420034 
L 575.538581 -334.923851 
L 573.137042 -335.450453 
L 570.735503 -335.964694 
L 568.333964 -336.478348 
L 565.932425 -337.018949 
L 563.530886 -337.566317 
L 561.129347 -338.119006 
L 558.727808 -338.675198 
L 556.326268 -339.252861 
L 553.924729 -339.848706 
L 551.52319 -340.429453 
L 549.121651 -341.010652 
L 546.720112 -341.615115 
L 544.318573 -342.232319 
L 541.917034 -342.855878 
L 539.515495 -343.501327 
L 537.113956 -344.13663 
L 534.712417 -344.775433 
L 532.310878 -345.406461 
L 529.909339 -346.032541 
L 527.5078 -346.629321 
L 525.10626 -347.206875 
L 522.704721 -347.832218 
L 520.303182 -348.464636 
L 517.901643 -349.089099 
L 515.500104 -349.713091 
L 513.098565 -350.323945 
L 510.697026 -350.94523 
L 508.295487 -351.557354 
L 505.893948 -352.170501 
L 503.492409 -352.788664 
L 501.09087 -353.404524 
L 498.689331 -354.018999 
L 496.287792 -354.623989 
L 493.886252 -355.216027 
L 491.484713 -355.789845 
L 489.083174 -356.350819 
L 486.681635 -356.913103 
L 484.280096 -357.488876 
L 481.878557 -358.112348 
L 479.477018 -358.775079 
L 477.075479 -359.435458 
L 474.67394 -360.081976 
L 472.272401 -360.725115 
L 469.870862 -361.364825 
L 467.469323 -362.049742 
L 465.067784 -362.764819 
L 462.666244 -363.466232 
L 460.264705 -364.165919 
L 457.863166 -364.862254 
L 455.461627 -365.56783 
L 453.060088 -366.278442 
L 450.658549 -366.973012 
L 448.25701 -367.671898 
L 445.855471 -368.377586 
L 443.453932 -369.080637 
L 441.052393 -369.782833 
L 438.650854 -370.476953 
L 436.249315 -371.194656 
L 433.847776 -371.925511 
L 431.446236 -372.659696 
L 429.044697 -373.389777 
L 426.643158 -374.119751 
L 424.241619 -374.839985 
L 421.84008 -375.589611 
L 419.438541 -376.309114 
L 417.037002 -377.007222 
L 414.635463 -377.733928 
L 412.233924 -378.472264 
L 409.832385 -379.196813 
L 407.430846 -379.91949 
L 405.029307 -380.642051 
L 402.627768 -381.37464 
L 400.226228 -382.111025 
L 397.824689 -382.837127 
L 395.42315 -383.549204 
L 393.021611 -384.282975 
L 390.620072 -385.007819 
L 388.218533 -385.742921 
L 385.816994 -386.484246 
L 383.415455 -387.202444 
L 381.013916 -387.945387 
L 378.612377 -388.671441 
L 376.210838 -389.396855 
L 373.809299 -390.086559 
L 371.407759 -390.777985 
L 369.00622 -391.480792 
L 366.604681 -392.165339 
L 364.203142 -392.850098 
L 361.801603 -393.580752 
L 359.400064 -394.30571 
L 356.998525 -395.018005 
L 354.596986 -395.743489 
L 352.195447 -396.491471 
L 349.793908 -397.240294 
L 347.392369 -397.999783 
L 344.99083 -398.756799 
L 342.589291 -399.525443 
L 340.187751 -400.259804 
L 337.786212 -400.969146 
L 335.384673 -401.694675 
L 332.983134 -402.426199 
L 330.581595 -403.176808 
L 328.180056 -403.953378 
L 325.778517 -404.737004 
L 323.376978 -405.556934 
L 320.975439 -406.361524 
L 318.5739 -407.172501 
L 316.172361 -407.95871 
L 313.770822 -408.724258 
L 311.369283 -409.49434 
L 308.967743 -410.268965 
L 306.566204 -411.016202 
L 304.164665 -411.760777 
L 301.763126 -412.510721 
L 299.361587 -413.276088 
L 296.960048 -414.033177 
L 294.558509 -414.819975 
L 292.15697 -415.626624 
L 289.755431 -416.444362 
L 287.353892 -417.245423 
L 284.952353 -418.00465 
L 282.550814 -418.77607 
L 280.149275 -419.567702 
L 277.747735 -420.363 
L 275.346196 -421.141923 
L 272.944657 -421.9717 
L 270.543118 -422.802596 
L 268.141579 -423.62632 
L 265.74004 -424.456464 
L 263.338501 -425.288165 
L 260.936962 -426.129821 
L 258.535423 -426.98878 
L 256.133884 -427.806743 
L 253.732345 -428.558575 
L 251.330806 -429.296356 
L 248.929267 -430.045941 
L 246.527727 -430.872209 
L 244.126188 -431.700936 
L 241.724649 -432.548493 
L 239.32311 -433.413509 
L 236.921571 -434.233784 
L 234.520032 -435.073294 
L 232.118493 -435.873416 
L 229.716954 -436.665992 
L 227.315415 -437.446686 
L 224.913876 -438.154551 
L 222.512337 -438.837418 
L 220.110798 -439.549078 
L 217.709259 -440.282391 
L 215.307719 -441.016964 
L 212.90618 -441.763706 
L 210.504641 -442.563376 
L 208.103102 -443.272922 
L 205.701563 -443.967612 
L 203.300024 -444.675421 
L 200.898485 -445.374908 
L 198.496946 -446.052153 
L 196.095407 -446.734112 
L 193.693868 -447.421039 
L 191.292329 -448.083939 
L 188.89079 -448.760572 
L 186.48925 -449.383673 
L 184.087711 -449.977466 
L 181.686172 -450.550875 
L 179.284633 -451.099886 
L 176.883094 -451.69601 
L 174.481555 -452.248045 
L 172.080016 -452.759986 
L 169.678477 -453.368401 
L 167.276938 -454.019523 
z
" style="stroke: #f47100; stroke-opacity: 0.2"/>
    </defs>
    <g clip-path="url(#p1cad224ff9)">
     <use xlink:href="#mace536a4ba" x="0" y="600" style="fill: #f47100; fill-opacity: 0.2; stroke: #f47100; stroke-opacity: 0.2"/>
    </g>
   </g>
   <g id="PolyCollection_4">
    <defs>
     <path id="me90793898c" d="M 116.844617 -464.774917 
L 116.844617 -463.392522 
L 119.246156 -463.130247 
L 121.647695 -462.842944 
L 124.049234 -462.554261 
L 126.450774 -462.152965 
L 128.852313 -461.834382 
L 131.253852 -461.55437 
L 133.655391 -461.31603 
L 136.05693 -461.055523 
L 138.458469 -460.795655 
L 140.860008 -460.539387 
L 143.261547 -460.056732 
L 145.663086 -459.558292 
L 148.064625 -459.042012 
L 150.466164 -458.498076 
L 152.867703 -457.92265 
L 155.269242 -457.280146 
L 157.670782 -456.599696 
L 160.072321 -455.934661 
L 162.47386 -455.295094 
L 164.875399 -454.648 
L 164.875399 -454.648 
L 164.875399 -454.648 
L 162.47386 -455.425688 
L 160.072321 -456.20141 
L 157.670782 -456.986497 
L 155.269242 -457.725127 
L 152.867703 -458.429005 
L 150.466164 -459.089729 
L 148.064625 -459.767814 
L 145.663086 -460.385638 
L 143.261547 -460.938377 
L 140.860008 -461.452988 
L 138.458469 -461.751884 
L 136.05693 -462.040472 
L 133.655391 -462.330599 
L 131.253852 -462.622987 
L 128.852313 -462.915188 
L 126.450774 -463.236053 
L 124.049234 -463.691933 
L 121.647695 -464.082318 
L 119.246156 -464.440128 
L 116.844617 -464.774917 
z
" style="stroke: #000000; stroke-opacity: 0.2"/>
    </defs>
    <g clip-path="url(#p1cad224ff9)">
     <use xlink:href="#me90793898c" x="0" y="600" style="fill-opacity: 0.2; stroke: #000000; stroke-opacity: 0.2"/>
    </g>
   </g>
   <g id="PolyCollection_5">
    <defs>
     <path id="mf7e4ee9027" d="M 167.276938 -454.11674 
L 167.276938 -453.956673 
L 169.678477 -453.313158 
L 172.080016 -452.792748 
L 174.481555 -452.17813 
L 176.883094 -451.521499 
L 179.284633 -450.865652 
L 181.686172 -450.202361 
L 184.087711 -449.523593 
L 186.48925 -448.845583 
L 188.89079 -448.143917 
L 191.292329 -447.420903 
L 193.693868 -446.500673 
L 196.095407 -445.593881 
L 198.496946 -444.651792 
L 200.898485 -443.617266 
L 203.300024 -442.539497 
L 205.701563 -441.555083 
L 208.103102 -440.59601 
L 210.504641 -439.61785 
L 212.90618 -438.620877 
L 215.307719 -437.627038 
L 217.709259 -436.59003 
L 220.110798 -435.576231 
L 222.512337 -434.588378 
L 224.913876 -433.623545 
L 227.315415 -432.628464 
L 229.716954 -431.649471 
L 232.118493 -430.669207 
L 234.520032 -429.651703 
L 236.921571 -428.642038 
L 239.32311 -427.588046 
L 241.724649 -426.525904 
L 244.126188 -425.417524 
L 246.527727 -424.299292 
L 248.929267 -423.205059 
L 251.330806 -422.191801 
L 253.732345 -421.132923 
L 256.133884 -420.053324 
L 258.535423 -418.945141 
L 260.936962 -417.806901 
L 263.338501 -416.670432 
L 265.74004 -415.597465 
L 268.141579 -414.415156 
L 270.543118 -413.140734 
L 272.944657 -411.887344 
L 275.346196 -410.61179 
L 277.747735 -409.346156 
L 280.149275 -407.992596 
L 282.550814 -406.601824 
L 284.952353 -405.205609 
L 287.353892 -403.809448 
L 289.755431 -402.452199 
L 292.15697 -401.252521 
L 294.558509 -400.077094 
L 296.960048 -398.869385 
L 299.361587 -397.542191 
L 301.763126 -396.258084 
L 304.164665 -394.9643 
L 306.566204 -393.690197 
L 308.967743 -392.471152 
L 311.369283 -391.253772 
L 313.770822 -390.003745 
L 316.172361 -388.747842 
L 318.5739 -387.484878 
L 320.975439 -386.253117 
L 323.376978 -385.049767 
L 325.778517 -383.832442 
L 328.180056 -382.63289 
L 330.581595 -381.462666 
L 332.983134 -380.298745 
L 335.384673 -379.124282 
L 337.786212 -377.904604 
L 340.187751 -376.723702 
L 342.589291 -375.543291 
L 344.99083 -374.407287 
L 347.392369 -373.325865 
L 349.793908 -372.253128 
L 352.195447 -371.207496 
L 354.596986 -370.155169 
L 356.998525 -369.066062 
L 359.400064 -367.988373 
L 361.801603 -366.901479 
L 364.203142 -365.804065 
L 366.604681 -364.689142 
L 369.00622 -363.521535 
L 371.407759 -362.338704 
L 373.809299 -361.201365 
L 376.210838 -360.121594 
L 378.612377 -359.060384 
L 381.013916 -358.0296 
L 383.415455 -357.031379 
L 385.816994 -356.030203 
L 388.218533 -355.005927 
L 390.620072 -353.983886 
L 393.021611 -352.944866 
L 395.42315 -351.940407 
L 397.824689 -350.899108 
L 400.226228 -349.852681 
L 402.627768 -348.566956 
L 405.029307 -347.326291 
L 407.430846 -346.08522 
L 409.832385 -344.860587 
L 412.233924 -343.668024 
L 414.635463 -342.485368 
L 417.037002 -341.216787 
L 419.438541 -340.041425 
L 421.84008 -338.863126 
L 424.241619 -337.609723 
L 426.643158 -336.269048 
L 429.044697 -334.883273 
L 431.446236 -333.541269 
L 433.847776 -332.259616 
L 436.249315 -330.970163 
L 438.650854 -329.686937 
L 441.052393 -328.407722 
L 443.453932 -327.097395 
L 445.855471 -325.818943 
L 448.25701 -324.498825 
L 450.658549 -323.149674 
L 453.060088 -321.729218 
L 455.461627 -320.375106 
L 457.863166 -319.041865 
L 460.264705 -317.72582 
L 462.666244 -316.453534 
L 465.067784 -315.257164 
L 467.469323 -313.993285 
L 469.870862 -312.731425 
L 472.272401 -311.538565 
L 474.67394 -310.399708 
L 477.075479 -309.299928 
L 479.477018 -308.175839 
L 481.878557 -307.010379 
L 484.280096 -305.858121 
L 486.681635 -304.713275 
L 489.083174 -303.548027 
L 491.484713 -302.390118 
L 493.886252 -301.218385 
L 496.287792 -300.074482 
L 498.689331 -298.945631 
L 501.09087 -297.83183 
L 503.492409 -296.685987 
L 505.893948 -295.543794 
L 508.295487 -294.396437 
L 510.697026 -293.200418 
L 513.098565 -291.994818 
L 515.500104 -290.795241 
L 517.901643 -289.593474 
L 520.303182 -288.377656 
L 522.704721 -287.185831 
L 525.10626 -286.005523 
L 527.5078 -284.802008 
L 529.909339 -283.637389 
L 532.310878 -282.481613 
L 534.712417 -281.349952 
L 537.113956 -280.260107 
L 539.515495 -279.14361 
L 541.917034 -277.979325 
L 544.318573 -276.844375 
L 546.720112 -275.736438 
L 549.121651 -274.675559 
L 551.52319 -273.599948 
L 553.924729 -272.499778 
L 556.326268 -271.400851 
L 558.727808 -270.350774 
L 561.129347 -269.300379 
L 563.530886 -268.295704 
L 565.932425 -267.275623 
L 568.333964 -266.260005 
L 570.735503 -265.249089 
L 573.137042 -264.242717 
L 575.538581 -263.306848 
L 577.94012 -262.383802 
L 580.341659 -261.453066 
L 582.743198 -260.533556 
L 585.144737 -259.62488 
L 587.546277 -258.790551 
L 589.947816 -258.022704 
L 592.349355 -257.274195 
L 594.750894 -256.513082 
L 597.152433 -255.750239 
L 599.553972 -255.036081 
L 601.955511 -254.342924 
L 604.35705 -253.630744 
L 606.758589 -252.892915 
L 609.160128 -252.194123 
L 611.561667 -251.481053 
L 613.963206 -250.83106 
L 616.364745 -250.151788 
L 618.766285 -249.455828 
L 621.167824 -248.752297 
L 623.569363 -248.021611 
L 625.970902 -247.258822 
L 628.372441 -246.504867 
L 630.77398 -245.769184 
L 633.175519 -245.043563 
L 635.577058 -244.316895 
L 637.978597 -243.591542 
L 640.380136 -242.844827 
L 642.781675 -242.125449 
L 645.183214 -241.390893 
L 647.584753 -240.667552 
L 649.986293 -239.929583 
L 652.387832 -239.216075 
L 654.789371 -238.487369 
L 657.19091 -237.720362 
L 659.592449 -236.994541 
L 661.993988 -236.231814 
L 664.395527 -235.475292 
L 666.797066 -234.706934 
L 669.198605 -233.941004 
L 671.600144 -233.187547 
L 674.001683 -232.450221 
L 676.403222 -231.721738 
L 678.804761 -230.974679 
L 681.206301 -230.202987 
L 683.60784 -229.411834 
L 686.009379 -228.588067 
L 688.410918 -227.776814 
L 690.812457 -226.955823 
L 693.213996 -226.160305 
L 695.615535 -225.368099 
L 698.017074 -224.6455 
L 700.418613 -223.941445 
L 702.820152 -223.25632 
L 705.221691 -222.582791 
L 707.62323 -221.893391 
L 710.024769 -221.247434 
L 712.426309 -220.617502 
L 714.827848 -220.002056 
L 717.229387 -219.40257 
L 719.630926 -218.803731 
L 722.032465 -218.19217 
L 724.434004 -217.570154 
L 726.835543 -216.965242 
L 729.237082 -216.382857 
L 731.638621 -215.810497 
L 734.04016 -215.279291 
L 736.441699 -214.742875 
L 738.843238 -214.196632 
L 741.244777 -213.659393 
L 743.646317 -213.111987 
L 746.047856 -212.527776 
L 748.449395 -211.935081 
L 750.850934 -211.35459 
L 753.252473 -210.791087 
L 755.654012 -210.222285 
L 758.055551 -209.640164 
L 760.45709 -209.062872 
L 762.858629 -208.516372 
L 765.260168 -207.955262 
L 767.661707 -207.411507 
L 770.063246 -206.887568 
L 772.464786 -206.37846 
L 774.866325 -205.864834 
L 777.267864 -205.367547 
L 779.669403 -204.859134 
L 782.070942 -204.355938 
L 784.472481 -203.88126 
L 786.87402 -203.423824 
L 789.275559 -202.962268 
L 791.677098 -202.500136 
L 794.078637 -202.031941 
L 796.480176 -201.572133 
L 798.881715 -201.089991 
L 801.283254 -200.606591 
L 803.684794 -200.12005 
L 806.086333 -199.64237 
L 808.487872 -199.166584 
L 810.889411 -198.675549 
L 813.29095 -198.213953 
L 815.692489 -197.739833 
L 818.094028 -197.525998 
L 820.495567 -197.30995 
L 822.897106 -197.096063 
L 825.298645 -196.85199 
L 827.700184 -196.619518 
L 830.101723 -196.372404 
L 832.503262 -196.08782 
L 834.904802 -195.790191 
L 837.306341 -195.487363 
L 837.306341 -275.56026 
L 837.306341 -275.56026 
L 834.904802 -275.686943 
L 832.503262 -275.851024 
L 830.101723 -276.037689 
L 827.700184 -276.196906 
L 825.298645 -276.345156 
L 822.897106 -276.510448 
L 820.495567 -276.667865 
L 818.094028 -276.818033 
L 815.692489 -276.935578 
L 813.29095 -277.22098 
L 810.889411 -277.473878 
L 808.487872 -277.736697 
L 806.086333 -278.015034 
L 803.684794 -278.28247 
L 801.283254 -278.499948 
L 798.881715 -278.695421 
L 796.480176 -278.87493 
L 794.078637 -279.034067 
L 791.677098 -279.211108 
L 789.275559 -279.397675 
L 786.87402 -279.599501 
L 784.472481 -279.776223 
L 782.070942 -280.209525 
L 779.669403 -280.722539 
L 777.267864 -281.170392 
L 774.866325 -281.554971 
L 772.464786 -281.94139 
L 770.063246 -282.306268 
L 767.661707 -282.671913 
L 765.260168 -283.026418 
L 762.858629 -283.386628 
L 760.45709 -283.755011 
L 758.055551 -284.13078 
L 755.654012 -284.497288 
L 753.252473 -284.851968 
L 750.850934 -285.20206 
L 748.449395 -285.584468 
L 746.047856 -285.984242 
L 743.646317 -286.355091 
L 741.244777 -286.722265 
L 738.843238 -287.05271 
L 736.441699 -287.374101 
L 734.04016 -287.67553 
L 731.638621 -287.968802 
L 729.237082 -288.236604 
L 726.835543 -288.502783 
L 724.434004 -288.802568 
L 722.032465 -289.122797 
L 719.630926 -289.445961 
L 717.229387 -289.778409 
L 714.827848 -290.119526 
L 712.426309 -290.472101 
L 710.024769 -290.835804 
L 707.62323 -291.210888 
L 705.221691 -291.577549 
L 702.820152 -291.975073 
L 700.418613 -292.360717 
L 698.017074 -292.747872 
L 695.615535 -293.135776 
L 693.213996 -293.531221 
L 690.812457 -293.897603 
L 688.410918 -294.244357 
L 686.009379 -294.624886 
L 683.60784 -295.015311 
L 681.206301 -295.443049 
L 678.804761 -295.858296 
L 676.403222 -296.274287 
L 674.001683 -296.711032 
L 671.600144 -297.140256 
L 669.198605 -297.552881 
L 666.797066 -297.952632 
L 664.395527 -298.372969 
L 661.993988 -298.831237 
L 659.592449 -299.494349 
L 657.19091 -300.213703 
L 654.789371 -300.943122 
L 652.387832 -301.7048 
L 649.986293 -302.480219 
L 647.584753 -303.247642 
L 645.183214 -304.027283 
L 642.781675 -304.834695 
L 640.380136 -305.670017 
L 637.978597 -306.459036 
L 635.577058 -307.244809 
L 633.175519 -308.037601 
L 630.77398 -308.844024 
L 628.372441 -309.632863 
L 625.970902 -310.441935 
L 623.569363 -311.326408 
L 621.167824 -312.177239 
L 618.766285 -313.008594 
L 616.364745 -313.823995 
L 613.963206 -314.679818 
L 611.561667 -315.514551 
L 609.160128 -316.295921 
L 606.758589 -317.045427 
L 604.35705 -317.767426 
L 601.955511 -318.474268 
L 599.553972 -319.170229 
L 597.152433 -319.884961 
L 594.750894 -320.612335 
L 592.349355 -321.371222 
L 589.947816 -322.139366 
L 587.546277 -322.90946 
L 585.144737 -323.654058 
L 582.743198 -324.417336 
L 580.341659 -325.177701 
L 577.94012 -325.900196 
L 575.538581 -326.565403 
L 573.137042 -327.261297 
L 570.735503 -327.947492 
L 568.333964 -328.636939 
L 565.932425 -329.277308 
L 563.530886 -329.935077 
L 561.129347 -330.598 
L 558.727808 -331.26512 
L 556.326268 -331.954365 
L 553.924729 -332.668177 
L 551.52319 -333.418735 
L 549.121651 -334.140457 
L 546.720112 -334.839617 
L 544.318573 -335.484156 
L 541.917034 -336.113365 
L 539.515495 -336.726001 
L 537.113956 -337.371187 
L 534.712417 -337.979022 
L 532.310878 -338.604688 
L 529.909339 -339.244267 
L 527.5078 -339.908808 
L 525.10626 -340.573542 
L 522.704721 -341.26129 
L 520.303182 -341.955895 
L 517.901643 -342.682273 
L 515.500104 -343.415863 
L 513.098565 -344.190083 
L 510.697026 -344.97594 
L 508.295487 -345.717739 
L 505.893948 -346.435571 
L 503.492409 -347.155705 
L 501.09087 -347.900075 
L 498.689331 -348.648987 
L 496.287792 -349.391309 
L 493.886252 -350.178425 
L 491.484713 -350.97831 
L 489.083174 -351.756707 
L 486.681635 -352.534394 
L 484.280096 -353.320111 
L 481.878557 -354.108777 
L 479.477018 -354.878735 
L 477.075479 -355.616361 
L 474.67394 -356.327511 
L 472.272401 -357.050912 
L 469.870862 -357.748527 
L 467.469323 -358.492572 
L 465.067784 -359.207514 
L 462.666244 -359.950531 
L 460.264705 -360.712076 
L 457.863166 -361.507837 
L 455.461627 -362.289875 
L 453.060088 -363.058428 
L 450.658549 -363.809806 
L 448.25701 -364.592121 
L 445.855471 -365.328847 
L 443.453932 -366.110973 
L 441.052393 -366.870326 
L 438.650854 -367.687126 
L 436.249315 -368.530534 
L 433.847776 -369.378027 
L 431.446236 -370.202517 
L 429.044697 -371.048145 
L 426.643158 -371.906894 
L 424.241619 -372.761182 
L 421.84008 -373.596365 
L 419.438541 -374.407816 
L 417.037002 -375.216127 
L 414.635463 -375.97657 
L 412.233924 -376.764665 
L 409.832385 -377.54183 
L 407.430846 -378.322932 
L 405.029307 -379.134157 
L 402.627768 -379.940849 
L 400.226228 -380.734253 
L 397.824689 -381.54203 
L 395.42315 -382.297167 
L 393.021611 -383.094544 
L 390.620072 -383.888931 
L 388.218533 -384.677521 
L 385.816994 -385.44308 
L 383.415455 -386.264131 
L 381.013916 -387.075134 
L 378.612377 -387.887413 
L 376.210838 -388.719727 
L 373.809299 -389.549516 
L 371.407759 -390.344122 
L 369.00622 -391.145648 
L 366.604681 -391.980605 
L 364.203142 -392.790002 
L 361.801603 -393.591631 
L 359.400064 -394.371353 
L 356.998525 -395.158693 
L 354.596986 -395.966366 
L 352.195447 -396.78541 
L 349.793908 -397.609858 
L 347.392369 -398.449129 
L 344.99083 -399.324959 
L 342.589291 -400.163927 
L 340.187751 -400.97824 
L 337.786212 -401.814471 
L 335.384673 -402.617054 
L 332.983134 -403.419925 
L 330.581595 -404.210349 
L 328.180056 -404.985799 
L 325.778517 -405.797326 
L 323.376978 -406.608857 
L 320.975439 -407.439798 
L 318.5739 -408.294596 
L 316.172361 -409.160514 
L 313.770822 -410.016637 
L 311.369283 -410.854432 
L 308.967743 -411.647719 
L 306.566204 -412.434404 
L 304.164665 -413.229229 
L 301.763126 -414.038922 
L 299.361587 -414.838995 
L 296.960048 -415.616164 
L 294.558509 -416.391364 
L 292.15697 -417.149375 
L 289.755431 -417.900426 
L 287.353892 -418.646267 
L 284.952353 -419.420818 
L 282.550814 -420.221931 
L 280.149275 -421.025983 
L 277.747735 -421.800747 
L 275.346196 -422.616391 
L 272.944657 -423.408902 
L 270.543118 -424.174612 
L 268.141579 -424.933064 
L 265.74004 -425.685867 
L 263.338501 -426.450149 
L 260.936962 -427.258876 
L 258.535423 -428.057461 
L 256.133884 -428.847264 
L 253.732345 -429.683047 
L 251.330806 -430.552917 
L 248.929267 -431.404108 
L 246.527727 -432.253918 
L 244.126188 -433.093348 
L 241.724649 -433.915486 
L 239.32311 -434.779268 
L 236.921571 -435.627138 
L 234.520032 -436.425672 
L 232.118493 -437.18598 
L 229.716954 -437.951081 
L 227.315415 -438.693904 
L 224.913876 -439.434918 
L 222.512337 -440.155524 
L 220.110798 -440.896025 
L 217.709259 -441.657847 
L 215.307719 -442.412145 
L 212.90618 -443.130458 
L 210.504641 -443.862915 
L 208.103102 -444.697362 
L 205.701563 -445.493284 
L 203.300024 -446.266596 
L 200.898485 -447.036233 
L 198.496946 -447.710015 
L 196.095407 -448.309442 
L 193.693868 -448.875889 
L 191.292329 -449.434274 
L 188.89079 -449.939541 
L 186.48925 -450.414614 
L 184.087711 -450.795745 
L 181.686172 -451.148289 
L 179.284633 -451.554394 
L 176.883094 -452.01799 
L 174.481555 -452.507986 
L 172.080016 -453.047161 
L 169.678477 -453.57509 
L 167.276938 -454.11674 
z
" style="stroke: #d01e04; stroke-opacity: 0.2"/>
    </defs>
    <g clip-path="url(#p1cad224ff9)">
     <use xlink:href="#mf7e4ee9027" x="0" y="600" style="fill: #d01e04; fill-opacity: 0.2; stroke: #d01e04; stroke-opacity: 0.2"/>
    </g>
   </g>
   <g id="PolyCollection_6">
    <defs>
     <path id="mb9d97bf09a" d="M 116.844617 -464.356901 
L 116.844617 -462.952233 
L 119.246156 -462.70905 
L 121.647695 -462.472318 
L 124.049234 -462.204537 
L 126.450774 -461.864931 
L 128.852313 -461.524078 
L 131.253852 -461.190973 
L 133.655391 -460.823603 
L 136.05693 -460.496999 
L 138.458469 -460.195247 
L 140.860008 -459.922033 
L 143.261547 -459.4327 
L 145.663086 -458.932963 
L 148.064625 -458.408433 
L 150.466164 -457.885971 
L 152.867703 -457.430941 
L 155.269242 -456.913999 
L 157.670782 -456.361469 
L 160.072321 -455.769178 
L 162.47386 -455.203548 
L 164.875399 -454.648 
L 164.875399 -454.648 
L 164.875399 -454.648 
L 162.47386 -455.376137 
L 160.072321 -456.142417 
L 157.670782 -456.963284 
L 155.269242 -457.757503 
L 152.867703 -458.55021 
L 150.466164 -459.279186 
L 148.064625 -459.941268 
L 145.663086 -460.559577 
L 143.261547 -461.10815 
L 140.860008 -461.616975 
L 138.458469 -461.898992 
L 136.05693 -462.169575 
L 133.655391 -462.455752 
L 131.253852 -462.719032 
L 128.852313 -462.965912 
L 126.450774 -463.223744 
L 124.049234 -463.530734 
L 121.647695 -463.824036 
L 119.246156 -464.10119 
L 116.844617 -464.356901 
z
" style="stroke: #000000; stroke-opacity: 0.2"/>
    </defs>
    <g clip-path="url(#p1cad224ff9)">
     <use xlink:href="#mb9d97bf09a" x="0" y="600" style="fill-opacity: 0.2; stroke: #000000; stroke-opacity: 0.2"/>
    </g>
   </g>
   <g id="matplotlib.axis_1">
    <g id="xtick_1">
     <g id="line2d_1">
      <defs>
       <path id="mbf6a728ae6" d="M 0 0 
L 0 3.5 
" style="stroke: #000000; stroke-width: 0.8"/>
      </defs>
      <g>
       <use xlink:href="#mbf6a728ae6" x="164.875399" y="515.56" style="stroke: #000000; stroke-width: 0.8"/>
      </g>
     </g>
     <g id="text_1">
      <!-- 2020 -->
      <g transform="translate(131.790399 542.315938)scale(0.26 -0.26)">
       <defs>
        <path id="DejaVuSans-32" d="M 1228 531 
L 3431 531 
L 3431 0 
L 469 0 
L 469 531 
Q 828 903 1448 1529 
Q 2069 2156 2228 2338 
Q 2531 2678 2651 2914 
Q 2772 3150 2772 3378 
Q 2772 3750 2511 3984 
Q 2250 4219 1831 4219 
Q 1534 4219 1204 4116 
Q 875 4013 500 3803 
L 500 4441 
Q 881 4594 1212 4672 
Q 1544 4750 1819 4750 
Q 2544 4750 2975 4387 
Q 3406 4025 3406 3419 
Q 3406 3131 3298 2873 
Q 3191 2616 2906 2266 
Q 2828 2175 2409 1742 
Q 1991 1309 1228 531 
z
" transform="scale(0.015625)"/>
        <path id="DejaVuSans-30" d="M 2034 4250 
Q 1547 4250 1301 3770 
Q 1056 3291 1056 2328 
Q 1056 1369 1301 889 
Q 1547 409 2034 409 
Q 2525 409 2770 889 
Q 3016 1369 3016 2328 
Q 3016 3291 2770 3770 
Q 2525 4250 2034 4250 
z
M 2034 4750 
Q 2819 4750 3233 4129 
Q 3647 3509 3647 2328 
Q 3647 1150 3233 529 
Q 2819 -91 2034 -91 
Q 1250 -91 836 529 
Q 422 1150 422 2328 
Q 422 3509 836 4129 
Q 1250 4750 2034 4750 
z
" transform="scale(0.015625)"/>
       </defs>
       <use xlink:href="#DejaVuSans-32"/>
       <use xlink:href="#DejaVuSans-30" x="63.623047"/>
       <use xlink:href="#DejaVuSans-32" x="127.246094"/>
       <use xlink:href="#DejaVuSans-30" x="190.869141"/>
      </g>
     </g>
    </g>
    <g id="xtick_2">
     <g id="line2d_2">
      <g>
       <use xlink:href="#mbf6a728ae6" x="356.998525" y="515.56" style="stroke: #000000; stroke-width: 0.8"/>
      </g>
     </g>
     <g id="text_2">
      <!-- 2100 -->
      <g transform="translate(323.913525 542.315938)scale(0.26 -0.26)">
       <defs>
        <path id="DejaVuSans-31" d="M 794 531 
L 1825 531 
L 1825 4091 
L 703 3866 
L 703 4441 
L 1819 4666 
L 2450 4666 
L 2450 531 
L 3481 531 
L 3481 0 
L 794 0 
L 794 531 
z
" transform="scale(0.015625)"/>
       </defs>
       <use xlink:href="#DejaVuSans-32"/>
       <use xlink:href="#DejaVuSans-31" x="63.623047"/>
       <use xlink:href="#DejaVuSans-30" x="127.246094"/>
       <use xlink:href="#DejaVuSans-30" x="190.869141"/>
      </g>
     </g>
    </g>
    <g id="xtick_3">
     <g id="line2d_3">
      <g>
       <use xlink:href="#mbf6a728ae6" x="597.152433" y="515.56" style="stroke: #000000; stroke-width: 0.8"/>
      </g>
     </g>
     <g id="text_3">
      <!-- 2200 -->
      <g transform="translate(564.067433 542.315938)scale(0.26 -0.26)">
       <use xlink:href="#DejaVuSans-32"/>
       <use xlink:href="#DejaVuSans-32" x="63.623047"/>
       <use xlink:href="#DejaVuSans-30" x="127.246094"/>
       <use xlink:href="#DejaVuSans-30" x="190.869141"/>
      </g>
     </g>
    </g>
    <g id="xtick_4">
     <g id="line2d_4">
      <g>
       <use xlink:href="#mbf6a728ae6" x="837.306341" y="515.56" style="stroke: #000000; stroke-width: 0.8"/>
      </g>
     </g>
     <g id="text_4">
      <!-- 2300 -->
      <g transform="translate(804.221341 542.315938)scale(0.26 -0.26)">
       <defs>
        <path id="DejaVuSans-33" d="M 2597 2516 
Q 3050 2419 3304 2112 
Q 3559 1806 3559 1356 
Q 3559 666 3084 287 
Q 2609 -91 1734 -91 
Q 1441 -91 1130 -33 
Q 819 25 488 141 
L 488 750 
Q 750 597 1062 519 
Q 1375 441 1716 441 
Q 2309 441 2620 675 
Q 2931 909 2931 1356 
Q 2931 1769 2642 2001 
Q 2353 2234 1838 2234 
L 1294 2234 
L 1294 2753 
L 1863 2753 
Q 2328 2753 2575 2939 
Q 2822 3125 2822 3475 
Q 2822 3834 2567 4026 
Q 2313 4219 1838 4219 
Q 1578 4219 1281 4162 
Q 984 4106 628 3988 
L 628 4550 
Q 988 4650 1302 4700 
Q 1616 4750 1894 4750 
Q 2613 4750 3031 4423 
Q 3450 4097 3450 3541 
Q 3450 3153 3228 2886 
Q 3006 2619 2597 2516 
z
" transform="scale(0.015625)"/>
       </defs>
       <use xlink:href="#DejaVuSans-32"/>
       <use xlink:href="#DejaVuSans-33" x="63.623047"/>
       <use xlink:href="#DejaVuSans-30" x="127.246094"/>
       <use xlink:href="#DejaVuSans-30" x="190.869141"/>
      </g>
     </g>
    </g>
    <g id="text_5">
     <!-- Year -->
     <g transform="translate(457.010409 568.439687)scale(0.22 -0.22)">
      <defs>
       <path id="DejaVuSans-Bold-59" d="M -63 4666 
L 1253 4666 
L 2316 3003 
L 3378 4666 
L 4697 4666 
L 2919 1966 
L 2919 0 
L 1716 0 
L 1716 1966 
L -63 4666 
z
" transform="scale(0.015625)"/>
       <path id="DejaVuSans-Bold-65" d="M 4031 1759 
L 4031 1441 
L 1416 1441 
Q 1456 1047 1700 850 
Q 1944 653 2381 653 
Q 2734 653 3104 758 
Q 3475 863 3866 1075 
L 3866 213 
Q 3469 63 3072 -14 
Q 2675 -91 2278 -91 
Q 1328 -91 801 392 
Q 275 875 275 1747 
Q 275 2603 792 3093 
Q 1309 3584 2216 3584 
Q 3041 3584 3536 3087 
Q 4031 2591 4031 1759 
z
M 2881 2131 
Q 2881 2450 2695 2645 
Q 2509 2841 2209 2841 
Q 1884 2841 1681 2658 
Q 1478 2475 1428 2131 
L 2881 2131 
z
" transform="scale(0.015625)"/>
       <path id="DejaVuSans-Bold-61" d="M 2106 1575 
Q 1756 1575 1579 1456 
Q 1403 1338 1403 1106 
Q 1403 894 1545 773 
Q 1688 653 1941 653 
Q 2256 653 2472 879 
Q 2688 1106 2688 1447 
L 2688 1575 
L 2106 1575 
z
M 3816 1997 
L 3816 0 
L 2688 0 
L 2688 519 
Q 2463 200 2181 54 
Q 1900 -91 1497 -91 
Q 953 -91 614 226 
Q 275 544 275 1050 
Q 275 1666 698 1953 
Q 1122 2241 2028 2241 
L 2688 2241 
L 2688 2328 
Q 2688 2594 2478 2717 
Q 2269 2841 1825 2841 
Q 1466 2841 1156 2769 
Q 847 2697 581 2553 
L 581 3406 
Q 941 3494 1303 3539 
Q 1666 3584 2028 3584 
Q 2975 3584 3395 3211 
Q 3816 2838 3816 1997 
z
" transform="scale(0.015625)"/>
       <path id="DejaVuSans-Bold-72" d="M 3138 2547 
Q 2991 2616 2845 2648 
Q 2700 2681 2553 2681 
Q 2122 2681 1889 2404 
Q 1656 2128 1656 1613 
L 1656 0 
L 538 0 
L 538 3500 
L 1656 3500 
L 1656 2925 
Q 1872 3269 2151 3426 
Q 2431 3584 2822 3584 
Q 2878 3584 2943 3579 
Q 3009 3575 3134 3559 
L 3138 2547 
z
" transform="scale(0.015625)"/>
      </defs>
      <use xlink:href="#DejaVuSans-Bold-59"/>
      <use xlink:href="#DejaVuSans-Bold-65" x="63.287109"/>
      <use xlink:href="#DejaVuSans-Bold-61" x="131.109375"/>
      <use xlink:href="#DejaVuSans-Bold-72" x="198.589844"/>
     </g>
    </g>
   </g>
   <g id="matplotlib.axis_2">
    <g id="ytick_1">
     <g id="line2d_5">
      <defs>
       <path id="mc2c63d5b2b" d="M 0 0 
L -3.5 0 
" style="stroke: #000000; stroke-width: 0.8"/>
      </defs>
      <g>
       <use xlink:href="#mc2c63d5b2b" x="109.64" y="515.56" style="stroke: #000000; stroke-width: 0.8"/>
      </g>
     </g>
     <g id="text_6">
      <!-- 0 -->
      <g transform="translate(86.0975 525.437969)scale(0.26 -0.26)">
       <use xlink:href="#DejaVuSans-30"/>
      </g>
     </g>
    </g>
    <g id="ytick_2">
     <g id="line2d_6">
      <g>
       <use xlink:href="#mc2c63d5b2b" x="109.64" y="441.5184" style="stroke: #000000; stroke-width: 0.8"/>
      </g>
     </g>
     <g id="text_7">
      <!-- 20 -->
      <g transform="translate(69.555 451.396369)scale(0.26 -0.26)">
       <use xlink:href="#DejaVuSans-32"/>
       <use xlink:href="#DejaVuSans-30" x="63.623047"/>
      </g>
     </g>
    </g>
    <g id="ytick_3">
     <g id="line2d_7">
      <g>
       <use xlink:href="#mc2c63d5b2b" x="109.64" y="367.4768" style="stroke: #000000; stroke-width: 0.8"/>
      </g>
     </g>
     <g id="text_8">
      <!-- 40 -->
      <g transform="translate(69.555 377.354769)scale(0.26 -0.26)">
       <defs>
        <path id="DejaVuSans-34" d="M 2419 4116 
L 825 1625 
L 2419 1625 
L 2419 4116 
z
M 2253 4666 
L 3047 4666 
L 3047 1625 
L 3713 1625 
L 3713 1100 
L 3047 1100 
L 3047 0 
L 2419 0 
L 2419 1100 
L 313 1100 
L 313 1709 
L 2253 4666 
z
" transform="scale(0.015625)"/>
       </defs>
       <use xlink:href="#DejaVuSans-34"/>
       <use xlink:href="#DejaVuSans-30" x="63.623047"/>
      </g>
     </g>
    </g>
    <g id="ytick_4">
     <g id="line2d_8">
      <g>
       <use xlink:href="#mc2c63d5b2b" x="109.64" y="293.4352" style="stroke: #000000; stroke-width: 0.8"/>
      </g>
     </g>
     <g id="text_9">
      <!-- 60 -->
      <g transform="translate(69.555 303.313169)scale(0.26 -0.26)">
       <defs>
        <path id="DejaVuSans-36" d="M 2113 2584 
Q 1688 2584 1439 2293 
Q 1191 2003 1191 1497 
Q 1191 994 1439 701 
Q 1688 409 2113 409 
Q 2538 409 2786 701 
Q 3034 994 3034 1497 
Q 3034 2003 2786 2293 
Q 2538 2584 2113 2584 
z
M 3366 4563 
L 3366 3988 
Q 3128 4100 2886 4159 
Q 2644 4219 2406 4219 
Q 1781 4219 1451 3797 
Q 1122 3375 1075 2522 
Q 1259 2794 1537 2939 
Q 1816 3084 2150 3084 
Q 2853 3084 3261 2657 
Q 3669 2231 3669 1497 
Q 3669 778 3244 343 
Q 2819 -91 2113 -91 
Q 1303 -91 875 529 
Q 447 1150 447 2328 
Q 447 3434 972 4092 
Q 1497 4750 2381 4750 
Q 2619 4750 2861 4703 
Q 3103 4656 3366 4563 
z
" transform="scale(0.015625)"/>
       </defs>
       <use xlink:href="#DejaVuSans-36"/>
       <use xlink:href="#DejaVuSans-30" x="63.623047"/>
      </g>
     </g>
    </g>
    <g id="ytick_5">
     <g id="line2d_9">
      <g>
       <use xlink:href="#mc2c63d5b2b" x="109.64" y="219.3936" style="stroke: #000000; stroke-width: 0.8"/>
      </g>
     </g>
     <g id="text_10">
      <!-- 80 -->
      <g transform="translate(69.555 229.271569)scale(0.26 -0.26)">
       <defs>
        <path id="DejaVuSans-38" d="M 2034 2216 
Q 1584 2216 1326 1975 
Q 1069 1734 1069 1313 
Q 1069 891 1326 650 
Q 1584 409 2034 409 
Q 2484 409 2743 651 
Q 3003 894 3003 1313 
Q 3003 1734 2745 1975 
Q 2488 2216 2034 2216 
z
M 1403 2484 
Q 997 2584 770 2862 
Q 544 3141 544 3541 
Q 544 4100 942 4425 
Q 1341 4750 2034 4750 
Q 2731 4750 3128 4425 
Q 3525 4100 3525 3541 
Q 3525 3141 3298 2862 
Q 3072 2584 2669 2484 
Q 3125 2378 3379 2068 
Q 3634 1759 3634 1313 
Q 3634 634 3220 271 
Q 2806 -91 2034 -91 
Q 1263 -91 848 271 
Q 434 634 434 1313 
Q 434 1759 690 2068 
Q 947 2378 1403 2484 
z
M 1172 3481 
Q 1172 3119 1398 2916 
Q 1625 2713 2034 2713 
Q 2441 2713 2670 2916 
Q 2900 3119 2900 3481 
Q 2900 3844 2670 4047 
Q 2441 4250 2034 4250 
Q 1625 4250 1398 4047 
Q 1172 3844 1172 3481 
z
" transform="scale(0.015625)"/>
       </defs>
       <use xlink:href="#DejaVuSans-38"/>
       <use xlink:href="#DejaVuSans-30" x="63.623047"/>
      </g>
     </g>
    </g>
    <g id="ytick_6">
     <g id="line2d_10">
      <g>
       <use xlink:href="#mc2c63d5b2b" x="109.64" y="145.352" style="stroke: #000000; stroke-width: 0.8"/>
      </g>
     </g>
     <g id="text_11">
      <!-- 100 -->
      <g transform="translate(53.0125 155.229969)scale(0.26 -0.26)">
       <use xlink:href="#DejaVuSans-31"/>
       <use xlink:href="#DejaVuSans-30" x="63.623047"/>
       <use xlink:href="#DejaVuSans-30" x="127.246094"/>
      </g>
     </g>
    </g>
    <g id="ytick_7">
     <g id="line2d_11">
      <g>
       <use xlink:href="#mc2c63d5b2b" x="109.64" y="71.3104" style="stroke: #000000; stroke-width: 0.8"/>
      </g>
     </g>
     <g id="text_12">
      <!-- 120 -->
      <g transform="translate(53.0125 81.188369)scale(0.26 -0.26)">
       <use xlink:href="#DejaVuSans-31"/>
       <use xlink:href="#DejaVuSans-32" x="63.623047"/>
       <use xlink:href="#DejaVuSans-30" x="127.246094"/>
      </g>
     </g>
    </g>
    <g id="text_13">
     <!-- % of Remaining Glacier Mass -->
     <g transform="translate(44.265313 463.619219)rotate(-90)scale(0.22 -0.22)">
      <defs>
       <path id="DejaVuSans-Bold-25" d="M 4959 1925 
Q 4738 1925 4616 1733 
Q 4494 1541 4494 1184 
Q 4494 825 4614 633 
Q 4734 441 4959 441 
Q 5184 441 5303 633 
Q 5422 825 5422 1184 
Q 5422 1541 5301 1733 
Q 5181 1925 4959 1925 
z
M 4959 2450 
Q 5541 2450 5875 2112 
Q 6209 1775 6209 1184 
Q 6209 594 5875 251 
Q 5541 -91 4959 -91 
Q 4378 -91 4042 251 
Q 3706 594 3706 1184 
Q 3706 1772 4042 2111 
Q 4378 2450 4959 2450 
z
M 2094 -91 
L 1403 -91 
L 4319 4750 
L 5013 4750 
L 2094 -91 
z
M 1453 4750 
Q 2034 4750 2367 4411 
Q 2700 4072 2700 3481 
Q 2700 2891 2367 2550 
Q 2034 2209 1453 2209 
Q 872 2209 539 2550 
Q 206 2891 206 3481 
Q 206 4072 539 4411 
Q 872 4750 1453 4750 
z
M 1453 4225 
Q 1228 4225 1106 4031 
Q 984 3838 984 3481 
Q 984 3122 1106 2926 
Q 1228 2731 1453 2731 
Q 1678 2731 1798 2926 
Q 1919 3122 1919 3481 
Q 1919 3838 1797 4031 
Q 1675 4225 1453 4225 
z
" transform="scale(0.015625)"/>
       <path id="DejaVuSans-Bold-20" transform="scale(0.015625)"/>
       <path id="DejaVuSans-Bold-6f" d="M 2203 2784 
Q 1831 2784 1636 2517 
Q 1441 2250 1441 1747 
Q 1441 1244 1636 976 
Q 1831 709 2203 709 
Q 2569 709 2762 976 
Q 2956 1244 2956 1747 
Q 2956 2250 2762 2517 
Q 2569 2784 2203 2784 
z
M 2203 3584 
Q 3106 3584 3614 3096 
Q 4122 2609 4122 1747 
Q 4122 884 3614 396 
Q 3106 -91 2203 -91 
Q 1297 -91 786 396 
Q 275 884 275 1747 
Q 275 2609 786 3096 
Q 1297 3584 2203 3584 
z
" transform="scale(0.015625)"/>
       <path id="DejaVuSans-Bold-66" d="M 2841 4863 
L 2841 4128 
L 2222 4128 
Q 1984 4128 1890 4042 
Q 1797 3956 1797 3744 
L 1797 3500 
L 2753 3500 
L 2753 2700 
L 1797 2700 
L 1797 0 
L 678 0 
L 678 2700 
L 122 2700 
L 122 3500 
L 678 3500 
L 678 3744 
Q 678 4316 997 4589 
Q 1316 4863 1984 4863 
L 2841 4863 
z
" transform="scale(0.015625)"/>
       <path id="DejaVuSans-Bold-52" d="M 2297 2597 
Q 2675 2597 2839 2737 
Q 3003 2878 3003 3200 
Q 3003 3519 2839 3656 
Q 2675 3794 2297 3794 
L 1791 3794 
L 1791 2597 
L 2297 2597 
z
M 1791 1766 
L 1791 0 
L 588 0 
L 588 4666 
L 2425 4666 
Q 3347 4666 3776 4356 
Q 4206 4047 4206 3378 
Q 4206 2916 3982 2619 
Q 3759 2322 3309 2181 
Q 3556 2125 3751 1926 
Q 3947 1728 4147 1325 
L 4800 0 
L 3519 0 
L 2950 1159 
Q 2778 1509 2601 1637 
Q 2425 1766 2131 1766 
L 1791 1766 
z
" transform="scale(0.015625)"/>
       <path id="DejaVuSans-Bold-6d" d="M 3781 2919 
Q 3994 3244 4286 3414 
Q 4578 3584 4928 3584 
Q 5531 3584 5847 3212 
Q 6163 2841 6163 2131 
L 6163 0 
L 5038 0 
L 5038 1825 
Q 5041 1866 5042 1909 
Q 5044 1953 5044 2034 
Q 5044 2406 4934 2573 
Q 4825 2741 4581 2741 
Q 4263 2741 4089 2478 
Q 3916 2216 3909 1719 
L 3909 0 
L 2784 0 
L 2784 1825 
Q 2784 2406 2684 2573 
Q 2584 2741 2328 2741 
Q 2006 2741 1831 2477 
Q 1656 2213 1656 1722 
L 1656 0 
L 531 0 
L 531 3500 
L 1656 3500 
L 1656 2988 
Q 1863 3284 2130 3434 
Q 2397 3584 2719 3584 
Q 3081 3584 3359 3409 
Q 3638 3234 3781 2919 
z
" transform="scale(0.015625)"/>
       <path id="DejaVuSans-Bold-69" d="M 538 3500 
L 1656 3500 
L 1656 0 
L 538 0 
L 538 3500 
z
M 538 4863 
L 1656 4863 
L 1656 3950 
L 538 3950 
L 538 4863 
z
" transform="scale(0.015625)"/>
       <path id="DejaVuSans-Bold-6e" d="M 4056 2131 
L 4056 0 
L 2931 0 
L 2931 347 
L 2931 1631 
Q 2931 2084 2911 2256 
Q 2891 2428 2841 2509 
Q 2775 2619 2662 2680 
Q 2550 2741 2406 2741 
Q 2056 2741 1856 2470 
Q 1656 2200 1656 1722 
L 1656 0 
L 538 0 
L 538 3500 
L 1656 3500 
L 1656 2988 
Q 1909 3294 2193 3439 
Q 2478 3584 2822 3584 
Q 3428 3584 3742 3212 
Q 4056 2841 4056 2131 
z
" transform="scale(0.015625)"/>
       <path id="DejaVuSans-Bold-67" d="M 2919 594 
Q 2688 288 2409 144 
Q 2131 0 1766 0 
Q 1125 0 706 504 
Q 288 1009 288 1791 
Q 288 2575 706 3076 
Q 1125 3578 1766 3578 
Q 2131 3578 2409 3434 
Q 2688 3291 2919 2981 
L 2919 3500 
L 4044 3500 
L 4044 353 
Q 4044 -491 3511 -936 
Q 2978 -1381 1966 -1381 
Q 1638 -1381 1331 -1331 
Q 1025 -1281 716 -1178 
L 716 -306 
Q 1009 -475 1290 -558 
Q 1572 -641 1856 -641 
Q 2406 -641 2662 -400 
Q 2919 -159 2919 353 
L 2919 594 
z
M 2181 2772 
Q 1834 2772 1640 2515 
Q 1447 2259 1447 1791 
Q 1447 1309 1634 1061 
Q 1822 813 2181 813 
Q 2531 813 2725 1069 
Q 2919 1325 2919 1791 
Q 2919 2259 2725 2515 
Q 2531 2772 2181 2772 
z
" transform="scale(0.015625)"/>
       <path id="DejaVuSans-Bold-47" d="M 4781 347 
Q 4331 128 3847 18 
Q 3363 -91 2847 -91 
Q 1681 -91 1000 561 
Q 319 1213 319 2328 
Q 319 3456 1012 4103 
Q 1706 4750 2913 4750 
Q 3378 4750 3804 4662 
Q 4231 4575 4609 4403 
L 4609 3438 
Q 4219 3659 3833 3768 
Q 3447 3878 3059 3878 
Q 2341 3878 1952 3476 
Q 1563 3075 1563 2328 
Q 1563 1588 1938 1184 
Q 2313 781 3003 781 
Q 3191 781 3352 804 
Q 3513 828 3641 878 
L 3641 1784 
L 2906 1784 
L 2906 2591 
L 4781 2591 
L 4781 347 
z
" transform="scale(0.015625)"/>
       <path id="DejaVuSans-Bold-6c" d="M 538 4863 
L 1656 4863 
L 1656 0 
L 538 0 
L 538 4863 
z
" transform="scale(0.015625)"/>
       <path id="DejaVuSans-Bold-63" d="M 3366 3391 
L 3366 2478 
Q 3138 2634 2908 2709 
Q 2678 2784 2431 2784 
Q 1963 2784 1702 2511 
Q 1441 2238 1441 1747 
Q 1441 1256 1702 982 
Q 1963 709 2431 709 
Q 2694 709 2930 787 
Q 3166 866 3366 1019 
L 3366 103 
Q 3103 6 2833 -42 
Q 2563 -91 2291 -91 
Q 1344 -91 809 395 
Q 275 881 275 1747 
Q 275 2613 809 3098 
Q 1344 3584 2291 3584 
Q 2566 3584 2833 3536 
Q 3100 3488 3366 3391 
z
" transform="scale(0.015625)"/>
       <path id="DejaVuSans-Bold-4d" d="M 588 4666 
L 2119 4666 
L 3181 2169 
L 4250 4666 
L 5778 4666 
L 5778 0 
L 4641 0 
L 4641 3413 
L 3566 897 
L 2803 897 
L 1728 3413 
L 1728 0 
L 588 0 
L 588 4666 
z
" transform="scale(0.015625)"/>
       <path id="DejaVuSans-Bold-73" d="M 3272 3391 
L 3272 2541 
Q 2913 2691 2578 2766 
Q 2244 2841 1947 2841 
Q 1628 2841 1473 2761 
Q 1319 2681 1319 2516 
Q 1319 2381 1436 2309 
Q 1553 2238 1856 2203 
L 2053 2175 
Q 2913 2066 3209 1816 
Q 3506 1566 3506 1031 
Q 3506 472 3093 190 
Q 2681 -91 1863 -91 
Q 1516 -91 1145 -36 
Q 775 19 384 128 
L 384 978 
Q 719 816 1070 734 
Q 1422 653 1784 653 
Q 2113 653 2278 743 
Q 2444 834 2444 1013 
Q 2444 1163 2330 1236 
Q 2216 1309 1875 1350 
L 1678 1375 
Q 931 1469 631 1722 
Q 331 1975 331 2491 
Q 331 3047 712 3315 
Q 1094 3584 1881 3584 
Q 2191 3584 2531 3537 
Q 2872 3491 3272 3391 
z
" transform="scale(0.015625)"/>
      </defs>
      <use xlink:href="#DejaVuSans-Bold-25"/>
      <use xlink:href="#DejaVuSans-Bold-20" x="100.195312"/>
      <use xlink:href="#DejaVuSans-Bold-6f" x="135.009766"/>
      <use xlink:href="#DejaVuSans-Bold-66" x="203.710938"/>
      <use xlink:href="#DejaVuSans-Bold-20" x="247.216797"/>
      <use xlink:href="#DejaVuSans-Bold-52" x="282.03125"/>
      <use xlink:href="#DejaVuSans-Bold-65" x="359.033203"/>
      <use xlink:href="#DejaVuSans-Bold-6d" x="426.855469"/>
      <use xlink:href="#DejaVuSans-Bold-61" x="531.054688"/>
      <use xlink:href="#DejaVuSans-Bold-69" x="598.535156"/>
      <use xlink:href="#DejaVuSans-Bold-6e" x="632.8125"/>
      <use xlink:href="#DejaVuSans-Bold-69" x="704.003906"/>
      <use xlink:href="#DejaVuSans-Bold-6e" x="738.28125"/>
      <use xlink:href="#DejaVuSans-Bold-67" x="809.472656"/>
      <use xlink:href="#DejaVuSans-Bold-20" x="881.054688"/>
      <use xlink:href="#DejaVuSans-Bold-47" x="915.869141"/>
      <use xlink:href="#DejaVuSans-Bold-6c" x="997.949219"/>
      <use xlink:href="#DejaVuSans-Bold-61" x="1032.226562"/>
      <use xlink:href="#DejaVuSans-Bold-63" x="1099.707031"/>
      <use xlink:href="#DejaVuSans-Bold-69" x="1158.984375"/>
      <use xlink:href="#DejaVuSans-Bold-65" x="1193.261719"/>
      <use xlink:href="#DejaVuSans-Bold-72" x="1261.083984"/>
      <use xlink:href="#DejaVuSans-Bold-20" x="1310.400391"/>
      <use xlink:href="#DejaVuSans-Bold-4d" x="1345.214844"/>
      <use xlink:href="#DejaVuSans-Bold-61" x="1444.726562"/>
      <use xlink:href="#DejaVuSans-Bold-73" x="1512.207031"/>
      <use xlink:href="#DejaVuSans-Bold-73" x="1571.728516"/>
     </g>
    </g>
   </g>
   <g id="line2d_12">
    <path d="M 167.276938 145.875556 
L 179.284633 148.427032 
L 188.89079 150.683169 
L 200.898485 154.049437 
L 205.701563 155.678452 
L 210.504641 157.377218 
L 236.921571 166.087634 
L 244.126188 168.274544 
L 251.330806 170.474617 
L 268.141579 175.149613 
L 308.967743 187.108761 
L 316.172361 189.328677 
L 332.983134 193.975088 
L 342.589291 196.473822 
L 361.801603 200.880176 
L 381.013916 205.204481 
L 393.021611 207.830163 
L 417.037002 212.593183 
L 429.044697 215.09052 
L 445.855471 218.354361 
L 474.67394 224.004687 
L 481.878557 225.367287 
L 505.893948 230.065958 
L 515.500104 231.756046 
L 537.113956 235.227981 
L 546.720112 236.600871 
L 594.750894 242.28553 
L 621.167824 245.344654 
L 640.380136 247.632096 
L 652.387832 248.569538 
L 676.403222 250.228427 
L 686.009379 251.091617 
L 693.213996 251.900055 
L 714.827848 254.414035 
L 726.835543 255.6671 
L 750.850934 257.968973 
L 782.070942 261.481362 
L 794.078637 262.700245 
L 822.897106 264.575535 
L 832.503262 264.887566 
L 837.306341 265.045764 
L 837.306341 265.045764 
" clip-path="url(#p1cad224ff9)" style="fill: none; stroke: #74b8f8; stroke-opacity: 0.5; stroke-width: 6; stroke-linecap: square"/>
   </g>
   <g id="line2d_13">
    <path d="M 116.844617 137.01048 
L 119.246156 137.294391 
L 121.647695 137.586306 
L 124.049234 137.913589 
L 126.450774 138.269478 
L 128.852313 138.570386 
L 131.253852 138.869692 
L 133.655391 139.182891 
L 136.05693 139.481134 
L 138.458469 139.78081 
L 140.860008 140.068714 
L 143.261547 140.574287 
L 145.663086 141.095342 
L 148.064625 141.604148 
L 150.466164 142.123806 
L 152.867703 142.655935 
L 155.269242 143.195901 
L 157.670782 143.727736 
L 160.072321 144.253238 
L 162.47386 144.792395 
L 164.875399 145.352 
" clip-path="url(#p1cad224ff9)" style="fill: none; stroke: #000000; stroke-opacity: 0.5; stroke-width: 6; stroke-linecap: square"/>
   </g>
   <g id="line2d_14">
    <path d="M 167.276938 146.040319 
L 184.087711 151.013424 
L 193.693868 153.937861 
L 210.504641 159.014629 
L 227.315415 163.713178 
L 234.520032 166.216653 
L 241.724649 168.956339 
L 248.929267 171.268034 
L 287.353892 185.731638 
L 299.361587 190.499789 
L 318.5739 198.554234 
L 347.392369 211.004766 
L 356.998525 215.134595 
L 381.013916 225.93923 
L 402.627768 234.245931 
L 421.84008 241.825627 
L 424.241619 242.780974 
L 429.044697 244.396949 
L 462.666244 254.967791 
L 489.083174 263.019201 
L 498.689331 265.820199 
L 525.10626 273.524242 
L 546.720112 279.248226 
L 558.727808 282.168016 
L 565.932425 283.932545 
L 577.94012 287.171538 
L 597.152433 291.955829 
L 611.561667 295.290539 
L 633.175519 299.941986 
L 647.584753 303.086731 
L 659.592449 305.26101 
L 671.600144 307.441349 
L 686.009379 310.14743 
L 717.229387 314.904613 
L 724.434004 315.77649 
L 738.843238 317.337507 
L 753.252473 319.098547 
L 784.472481 323.301224 
L 818.094028 327.61708 
L 837.306341 328.950788 
L 837.306341 328.950788 
" clip-path="url(#p1cad224ff9)" style="fill: none; stroke: #f47100; stroke-opacity: 0.5; stroke-width: 6; stroke-linecap: square"/>
   </g>
   <g id="line2d_15">
    <path d="M 116.844617 135.970272 
L 119.246156 136.209312 
L 121.647695 136.469655 
L 124.049234 136.81411 
L 126.450774 137.273239 
L 128.852313 137.615886 
L 131.253852 137.949264 
L 133.655391 138.258009 
L 136.05693 138.554331 
L 138.458469 138.843079 
L 140.860008 139.109216 
L 143.261547 139.608855 
L 145.663086 140.163153 
L 148.064625 140.7349 
L 150.466164 141.322327 
L 152.867703 141.945112 
L 155.269242 142.60298 
L 157.670782 143.266225 
L 160.072321 143.960068 
L 162.47386 144.647781 
L 164.875399 145.352 
" clip-path="url(#p1cad224ff9)" style="fill: none; stroke: #000000; stroke-opacity: 0.5; stroke-width: 6; stroke-linecap: square"/>
   </g>
   <g id="line2d_16">
    <path d="M 167.276938 145.957645 
L 172.080016 147.120381 
L 176.883094 148.108257 
L 184.087711 149.876788 
L 188.89079 151.152512 
L 196.095407 153.359529 
L 212.90618 158.854533 
L 220.110798 161.230414 
L 229.716954 164.790844 
L 244.126188 170.922169 
L 251.330806 173.837825 
L 277.747735 184.308269 
L 287.353892 187.935811 
L 294.558509 190.982924 
L 311.369283 198.448045 
L 318.5739 201.626317 
L 328.180056 206.208835 
L 344.99083 214.137414 
L 354.596986 218.432221 
L 361.801603 221.86479 
L 378.612377 228.610955 
L 407.430846 238.989162 
L 417.037002 242.399755 
L 450.658549 254.087193 
L 460.264705 257.233027 
L 484.280096 264.703075 
L 491.484713 266.792989 
L 525.10626 275.566285 
L 534.712417 277.860231 
L 558.727808 283.542215 
L 577.94012 287.645584 
L 613.963206 295.314274 
L 647.584753 302.827755 
L 659.592449 305.304733 
L 678.804761 308.532582 
L 695.615535 312.335554 
L 705.221691 314.067232 
L 741.244777 320.420273 
L 767.661707 325.232414 
L 782.070942 327.59364 
L 815.692489 332.909801 
L 830.101723 334.153994 
L 837.306341 334.806661 
L 837.306341 334.806661 
" clip-path="url(#p1cad224ff9)" style="fill: none; stroke: #d01e04; stroke-opacity: 0.5; stroke-width: 6; stroke-linecap: square"/>
   </g>
   <g id="line2d_17">
    <path d="M 116.844617 136.541398 
L 119.246156 136.875029 
L 121.647695 137.2316 
L 124.049234 137.620634 
L 126.450774 138.05674 
L 128.852313 138.352261 
L 131.253852 138.637369 
L 133.655391 138.919211 
L 136.05693 139.193494 
L 138.458469 139.485229 
L 140.860008 139.754913 
L 143.261547 140.252506 
L 145.663086 140.773355 
L 148.064625 141.324544 
L 150.466164 141.880642 
L 152.867703 142.42026 
L 155.269242 142.965366 
L 157.670782 143.548798 
L 160.072321 144.14839 
L 162.47386 144.748569 
L 164.875399 145.352 
" clip-path="url(#p1cad224ff9)" style="fill: none; stroke: #000000; stroke-opacity: 0.5; stroke-width: 6; stroke-linecap: square"/>
   </g>
   <g id="patch_3">
    <path d="M 109.64 515.56 
L 109.64 52.8 
" style="fill: none; stroke: #000000; stroke-width: 0.8; stroke-linejoin: miter; stroke-linecap: square"/>
   </g>
   <g id="patch_4">
    <path d="M 109.64 515.56 
L 858.920192 515.56 
" style="fill: none; stroke: #000000; stroke-width: 0.8; stroke-linejoin: miter; stroke-linecap: square"/>
   </g>
   <g id="text_14">
    <!-- Arctic Canada North -->
    <g transform="translate(347.928221 46.8)scale(0.24 -0.24)">
     <defs>
      <path id="DejaVuSans-Bold-41" d="M 3419 850 
L 1538 850 
L 1241 0 
L 31 0 
L 1759 4666 
L 3194 4666 
L 4922 0 
L 3713 0 
L 3419 850 
z
M 1838 1716 
L 3116 1716 
L 2478 3572 
L 1838 1716 
z
" transform="scale(0.015625)"/>
      <path id="DejaVuSans-Bold-74" d="M 1759 4494 
L 1759 3500 
L 2913 3500 
L 2913 2700 
L 1759 2700 
L 1759 1216 
Q 1759 972 1856 886 
Q 1953 800 2241 800 
L 2816 800 
L 2816 0 
L 1856 0 
Q 1194 0 917 276 
Q 641 553 641 1216 
L 641 2700 
L 84 2700 
L 84 3500 
L 641 3500 
L 641 4494 
L 1759 4494 
z
" transform="scale(0.015625)"/>
      <path id="DejaVuSans-Bold-43" d="M 4288 256 
Q 3956 84 3597 -3 
Q 3238 -91 2847 -91 
Q 1681 -91 1000 561 
Q 319 1213 319 2328 
Q 319 3447 1000 4098 
Q 1681 4750 2847 4750 
Q 3238 4750 3597 4662 
Q 3956 4575 4288 4403 
L 4288 3438 
Q 3953 3666 3628 3772 
Q 3303 3878 2944 3878 
Q 2300 3878 1931 3465 
Q 1563 3053 1563 2328 
Q 1563 1606 1931 1193 
Q 2300 781 2944 781 
Q 3303 781 3628 887 
Q 3953 994 4288 1222 
L 4288 256 
z
" transform="scale(0.015625)"/>
      <path id="DejaVuSans-Bold-64" d="M 2919 2988 
L 2919 4863 
L 4044 4863 
L 4044 0 
L 2919 0 
L 2919 506 
Q 2688 197 2409 53 
Q 2131 -91 1766 -91 
Q 1119 -91 703 423 
Q 288 938 288 1747 
Q 288 2556 703 3070 
Q 1119 3584 1766 3584 
Q 2128 3584 2408 3439 
Q 2688 3294 2919 2988 
z
M 2181 722 
Q 2541 722 2730 984 
Q 2919 1247 2919 1747 
Q 2919 2247 2730 2509 
Q 2541 2772 2181 2772 
Q 1825 2772 1636 2509 
Q 1447 2247 1447 1747 
Q 1447 1247 1636 984 
Q 1825 722 2181 722 
z
" transform="scale(0.015625)"/>
      <path id="DejaVuSans-Bold-4e" d="M 588 4666 
L 1931 4666 
L 3628 1466 
L 3628 4666 
L 4769 4666 
L 4769 0 
L 3425 0 
L 1728 3200 
L 1728 0 
L 588 0 
L 588 4666 
z
" transform="scale(0.015625)"/>
      <path id="DejaVuSans-Bold-68" d="M 4056 2131 
L 4056 0 
L 2931 0 
L 2931 347 
L 2931 1625 
Q 2931 2084 2911 2256 
Q 2891 2428 2841 2509 
Q 2775 2619 2662 2680 
Q 2550 2741 2406 2741 
Q 2056 2741 1856 2470 
Q 1656 2200 1656 1722 
L 1656 0 
L 538 0 
L 538 4863 
L 1656 4863 
L 1656 2988 
Q 1909 3294 2193 3439 
Q 2478 3584 2822 3584 
Q 3428 3584 3742 3212 
Q 4056 2841 4056 2131 
z
" transform="scale(0.015625)"/>
     </defs>
     <use xlink:href="#DejaVuSans-Bold-41"/>
     <use xlink:href="#DejaVuSans-Bold-72" x="77.392578"/>
     <use xlink:href="#DejaVuSans-Bold-63" x="126.708984"/>
     <use xlink:href="#DejaVuSans-Bold-74" x="185.986328"/>
     <use xlink:href="#DejaVuSans-Bold-69" x="233.789062"/>
     <use xlink:href="#DejaVuSans-Bold-63" x="268.066406"/>
     <use xlink:href="#DejaVuSans-Bold-20" x="327.34375"/>
     <use xlink:href="#DejaVuSans-Bold-43" x="362.158203"/>
     <use xlink:href="#DejaVuSans-Bold-61" x="435.546875"/>
     <use xlink:href="#DejaVuSans-Bold-6e" x="503.027344"/>
     <use xlink:href="#DejaVuSans-Bold-61" x="574.21875"/>
     <use xlink:href="#DejaVuSans-Bold-64" x="641.699219"/>
     <use xlink:href="#DejaVuSans-Bold-61" x="713.28125"/>
     <use xlink:href="#DejaVuSans-Bold-20" x="780.761719"/>
     <use xlink:href="#DejaVuSans-Bold-4e" x="815.576172"/>
     <use xlink:href="#DejaVuSans-Bold-6f" x="899.267578"/>
     <use xlink:href="#DejaVuSans-Bold-72" x="967.96875"/>
     <use xlink:href="#DejaVuSans-Bold-74" x="1017.285156"/>
     <use xlink:href="#DejaVuSans-Bold-68" x="1065.087891"/>
    </g>
   </g>
   <g id="legend_1">
    <g id="patch_5">
     <path d="M 597.903942 225.737875 
L 843.520192 225.737875 
Q 847.920192 225.737875 847.920192 221.337875 
L 847.920192 68.2 
Q 847.920192 63.8 843.520192 63.8 
L 597.903942 63.8 
Q 593.503942 63.8 593.503942 68.2 
L 593.503942 221.337875 
Q 593.503942 225.737875 597.903942 225.737875 
z
" style="fill: #ffffff; opacity: 0.6; stroke: #cccccc; stroke-linejoin: miter"/>
    </g>
    <g id="text_15">
     <!-- Global mean -->
     <g transform="translate(602.303942 89.316563)scale(0.22 -0.22)">
      <defs>
       <path id="DejaVuSans-47" d="M 3809 666 
L 3809 1919 
L 2778 1919 
L 2778 2438 
L 4434 2438 
L 4434 434 
Q 4069 175 3628 42 
Q 3188 -91 2688 -91 
Q 1594 -91 976 548 
Q 359 1188 359 2328 
Q 359 3472 976 4111 
Q 1594 4750 2688 4750 
Q 3144 4750 3555 4637 
Q 3966 4525 4313 4306 
L 4313 3634 
Q 3963 3931 3569 4081 
Q 3175 4231 2741 4231 
Q 1884 4231 1454 3753 
Q 1025 3275 1025 2328 
Q 1025 1384 1454 906 
Q 1884 428 2741 428 
Q 3075 428 3337 486 
Q 3600 544 3809 666 
z
" transform="scale(0.015625)"/>
       <path id="DejaVuSans-6c" d="M 603 4863 
L 1178 4863 
L 1178 0 
L 603 0 
L 603 4863 
z
" transform="scale(0.015625)"/>
       <path id="DejaVuSans-6f" d="M 1959 3097 
Q 1497 3097 1228 2736 
Q 959 2375 959 1747 
Q 959 1119 1226 758 
Q 1494 397 1959 397 
Q 2419 397 2687 759 
Q 2956 1122 2956 1747 
Q 2956 2369 2687 2733 
Q 2419 3097 1959 3097 
z
M 1959 3584 
Q 2709 3584 3137 3096 
Q 3566 2609 3566 1747 
Q 3566 888 3137 398 
Q 2709 -91 1959 -91 
Q 1206 -91 779 398 
Q 353 888 353 1747 
Q 353 2609 779 3096 
Q 1206 3584 1959 3584 
z
" transform="scale(0.015625)"/>
       <path id="DejaVuSans-62" d="M 3116 1747 
Q 3116 2381 2855 2742 
Q 2594 3103 2138 3103 
Q 1681 3103 1420 2742 
Q 1159 2381 1159 1747 
Q 1159 1113 1420 752 
Q 1681 391 2138 391 
Q 2594 391 2855 752 
Q 3116 1113 3116 1747 
z
M 1159 2969 
Q 1341 3281 1617 3432 
Q 1894 3584 2278 3584 
Q 2916 3584 3314 3078 
Q 3713 2572 3713 1747 
Q 3713 922 3314 415 
Q 2916 -91 2278 -91 
Q 1894 -91 1617 61 
Q 1341 213 1159 525 
L 1159 0 
L 581 0 
L 581 4863 
L 1159 4863 
L 1159 2969 
z
" transform="scale(0.015625)"/>
       <path id="DejaVuSans-61" d="M 2194 1759 
Q 1497 1759 1228 1600 
Q 959 1441 959 1056 
Q 959 750 1161 570 
Q 1363 391 1709 391 
Q 2188 391 2477 730 
Q 2766 1069 2766 1631 
L 2766 1759 
L 2194 1759 
z
M 3341 1997 
L 3341 0 
L 2766 0 
L 2766 531 
Q 2569 213 2275 61 
Q 1981 -91 1556 -91 
Q 1019 -91 701 211 
Q 384 513 384 1019 
Q 384 1609 779 1909 
Q 1175 2209 1959 2209 
L 2766 2209 
L 2766 2266 
Q 2766 2663 2505 2880 
Q 2244 3097 1772 3097 
Q 1472 3097 1187 3025 
Q 903 2953 641 2809 
L 641 3341 
Q 956 3463 1253 3523 
Q 1550 3584 1831 3584 
Q 2591 3584 2966 3190 
Q 3341 2797 3341 1997 
z
" transform="scale(0.015625)"/>
       <path id="DejaVuSans-20" transform="scale(0.015625)"/>
       <path id="DejaVuSans-6d" d="M 3328 2828 
Q 3544 3216 3844 3400 
Q 4144 3584 4550 3584 
Q 5097 3584 5394 3201 
Q 5691 2819 5691 2113 
L 5691 0 
L 5113 0 
L 5113 2094 
Q 5113 2597 4934 2840 
Q 4756 3084 4391 3084 
Q 3944 3084 3684 2787 
Q 3425 2491 3425 1978 
L 3425 0 
L 2847 0 
L 2847 2094 
Q 2847 2600 2669 2842 
Q 2491 3084 2119 3084 
Q 1678 3084 1418 2786 
Q 1159 2488 1159 1978 
L 1159 0 
L 581 0 
L 581 3500 
L 1159 3500 
L 1159 2956 
Q 1356 3278 1631 3431 
Q 1906 3584 2284 3584 
Q 2666 3584 2933 3390 
Q 3200 3197 3328 2828 
z
" transform="scale(0.015625)"/>
       <path id="DejaVuSans-65" d="M 3597 1894 
L 3597 1613 
L 953 1613 
Q 991 1019 1311 708 
Q 1631 397 2203 397 
Q 2534 397 2845 478 
Q 3156 559 3463 722 
L 3463 178 
Q 3153 47 2828 -22 
Q 2503 -91 2169 -91 
Q 1331 -91 842 396 
Q 353 884 353 1716 
Q 353 2575 817 3079 
Q 1281 3584 2069 3584 
Q 2775 3584 3186 3129 
Q 3597 2675 3597 1894 
z
M 3022 2063 
Q 3016 2534 2758 2815 
Q 2500 3097 2075 3097 
Q 1594 3097 1305 2825 
Q 1016 2553 972 2059 
L 3022 2063 
z
" transform="scale(0.015625)"/>
       <path id="DejaVuSans-6e" d="M 3513 2113 
L 3513 0 
L 2938 0 
L 2938 2094 
Q 2938 2591 2744 2837 
Q 2550 3084 2163 3084 
Q 1697 3084 1428 2787 
Q 1159 2491 1159 1978 
L 1159 0 
L 581 0 
L 581 3500 
L 1159 3500 
L 1159 2956 
Q 1366 3272 1645 3428 
Q 1925 3584 2291 3584 
Q 2894 3584 3203 3211 
Q 3513 2838 3513 2113 
z
" transform="scale(0.015625)"/>
      </defs>
      <use xlink:href="#DejaVuSans-47"/>
      <use xlink:href="#DejaVuSans-6c" x="77.490234"/>
      <use xlink:href="#DejaVuSans-6f" x="105.273438"/>
      <use xlink:href="#DejaVuSans-62" x="166.455078"/>
      <use xlink:href="#DejaVuSans-61" x="229.931641"/>
      <use xlink:href="#DejaVuSans-6c" x="291.210938"/>
      <use xlink:href="#DejaVuSans-20" x="318.994141"/>
      <use xlink:href="#DejaVuSans-6d" x="350.78125"/>
      <use xlink:href="#DejaVuSans-65" x="448.193359"/>
      <use xlink:href="#DejaVuSans-61" x="509.716797"/>
      <use xlink:href="#DejaVuSans-6e" x="570.996094"/>
     </g>
     <!-- temperature above -->
     <g transform="translate(602.303942 113.95175)scale(0.22 -0.22)">
      <defs>
       <path id="DejaVuSans-74" d="M 1172 4494 
L 1172 3500 
L 2356 3500 
L 2356 3053 
L 1172 3053 
L 1172 1153 
Q 1172 725 1289 603 
Q 1406 481 1766 481 
L 2356 481 
L 2356 0 
L 1766 0 
Q 1100 0 847 248 
Q 594 497 594 1153 
L 594 3053 
L 172 3053 
L 172 3500 
L 594 3500 
L 594 4494 
L 1172 4494 
z
" transform="scale(0.015625)"/>
       <path id="DejaVuSans-70" d="M 1159 525 
L 1159 -1331 
L 581 -1331 
L 581 3500 
L 1159 3500 
L 1159 2969 
Q 1341 3281 1617 3432 
Q 1894 3584 2278 3584 
Q 2916 3584 3314 3078 
Q 3713 2572 3713 1747 
Q 3713 922 3314 415 
Q 2916 -91 2278 -91 
Q 1894 -91 1617 61 
Q 1341 213 1159 525 
z
M 3116 1747 
Q 3116 2381 2855 2742 
Q 2594 3103 2138 3103 
Q 1681 3103 1420 2742 
Q 1159 2381 1159 1747 
Q 1159 1113 1420 752 
Q 1681 391 2138 391 
Q 2594 391 2855 752 
Q 3116 1113 3116 1747 
z
" transform="scale(0.015625)"/>
       <path id="DejaVuSans-72" d="M 2631 2963 
Q 2534 3019 2420 3045 
Q 2306 3072 2169 3072 
Q 1681 3072 1420 2755 
Q 1159 2438 1159 1844 
L 1159 0 
L 581 0 
L 581 3500 
L 1159 3500 
L 1159 2956 
Q 1341 3275 1631 3429 
Q 1922 3584 2338 3584 
Q 2397 3584 2469 3576 
Q 2541 3569 2628 3553 
L 2631 2963 
z
" transform="scale(0.015625)"/>
       <path id="DejaVuSans-75" d="M 544 1381 
L 544 3500 
L 1119 3500 
L 1119 1403 
Q 1119 906 1312 657 
Q 1506 409 1894 409 
Q 2359 409 2629 706 
Q 2900 1003 2900 1516 
L 2900 3500 
L 3475 3500 
L 3475 0 
L 2900 0 
L 2900 538 
Q 2691 219 2414 64 
Q 2138 -91 1772 -91 
Q 1169 -91 856 284 
Q 544 659 544 1381 
z
M 1991 3584 
L 1991 3584 
z
" transform="scale(0.015625)"/>
       <path id="DejaVuSans-76" d="M 191 3500 
L 800 3500 
L 1894 563 
L 2988 3500 
L 3597 3500 
L 2284 0 
L 1503 0 
L 191 3500 
z
" transform="scale(0.015625)"/>
      </defs>
      <use xlink:href="#DejaVuSans-74"/>
      <use xlink:href="#DejaVuSans-65" x="39.208984"/>
      <use xlink:href="#DejaVuSans-6d" x="100.732422"/>
      <use xlink:href="#DejaVuSans-70" x="198.144531"/>
      <use xlink:href="#DejaVuSans-65" x="261.621094"/>
      <use xlink:href="#DejaVuSans-72" x="323.144531"/>
      <use xlink:href="#DejaVuSans-61" x="364.257812"/>
      <use xlink:href="#DejaVuSans-74" x="425.537109"/>
      <use xlink:href="#DejaVuSans-75" x="464.746094"/>
      <use xlink:href="#DejaVuSans-72" x="528.125"/>
      <use xlink:href="#DejaVuSans-65" x="566.988281"/>
      <use xlink:href="#DejaVuSans-20" x="628.511719"/>
      <use xlink:href="#DejaVuSans-61" x="660.298828"/>
      <use xlink:href="#DejaVuSans-62" x="721.578125"/>
      <use xlink:href="#DejaVuSans-6f" x="785.054688"/>
      <use xlink:href="#DejaVuSans-76" x="846.236328"/>
      <use xlink:href="#DejaVuSans-65" x="905.416016"/>
     </g>
     <!-- pre-industrial in 2100 -->
     <g transform="translate(602.303942 138.586938)scale(0.22 -0.22)">
      <defs>
       <path id="DejaVuSans-2d" d="M 313 2009 
L 1997 2009 
L 1997 1497 
L 313 1497 
L 313 2009 
z
" transform="scale(0.015625)"/>
       <path id="DejaVuSans-69" d="M 603 3500 
L 1178 3500 
L 1178 0 
L 603 0 
L 603 3500 
z
M 603 4863 
L 1178 4863 
L 1178 4134 
L 603 4134 
L 603 4863 
z
" transform="scale(0.015625)"/>
       <path id="DejaVuSans-64" d="M 2906 2969 
L 2906 4863 
L 3481 4863 
L 3481 0 
L 2906 0 
L 2906 525 
Q 2725 213 2448 61 
Q 2172 -91 1784 -91 
Q 1150 -91 751 415 
Q 353 922 353 1747 
Q 353 2572 751 3078 
Q 1150 3584 1784 3584 
Q 2172 3584 2448 3432 
Q 2725 3281 2906 2969 
z
M 947 1747 
Q 947 1113 1208 752 
Q 1469 391 1925 391 
Q 2381 391 2643 752 
Q 2906 1113 2906 1747 
Q 2906 2381 2643 2742 
Q 2381 3103 1925 3103 
Q 1469 3103 1208 2742 
Q 947 2381 947 1747 
z
" transform="scale(0.015625)"/>
       <path id="DejaVuSans-73" d="M 2834 3397 
L 2834 2853 
Q 2591 2978 2328 3040 
Q 2066 3103 1784 3103 
Q 1356 3103 1142 2972 
Q 928 2841 928 2578 
Q 928 2378 1081 2264 
Q 1234 2150 1697 2047 
L 1894 2003 
Q 2506 1872 2764 1633 
Q 3022 1394 3022 966 
Q 3022 478 2636 193 
Q 2250 -91 1575 -91 
Q 1294 -91 989 -36 
Q 684 19 347 128 
L 347 722 
Q 666 556 975 473 
Q 1284 391 1588 391 
Q 1994 391 2212 530 
Q 2431 669 2431 922 
Q 2431 1156 2273 1281 
Q 2116 1406 1581 1522 
L 1381 1569 
Q 847 1681 609 1914 
Q 372 2147 372 2553 
Q 372 3047 722 3315 
Q 1072 3584 1716 3584 
Q 2034 3584 2315 3537 
Q 2597 3491 2834 3397 
z
" transform="scale(0.015625)"/>
      </defs>
      <use xlink:href="#DejaVuSans-70"/>
      <use xlink:href="#DejaVuSans-72" x="63.476562"/>
      <use xlink:href="#DejaVuSans-65" x="102.339844"/>
      <use xlink:href="#DejaVuSans-2d" x="163.863281"/>
      <use xlink:href="#DejaVuSans-69" x="199.947266"/>
      <use xlink:href="#DejaVuSans-6e" x="227.730469"/>
      <use xlink:href="#DejaVuSans-64" x="291.109375"/>
      <use xlink:href="#DejaVuSans-75" x="354.585938"/>
      <use xlink:href="#DejaVuSans-73" x="417.964844"/>
      <use xlink:href="#DejaVuSans-74" x="470.064453"/>
      <use xlink:href="#DejaVuSans-72" x="509.273438"/>
      <use xlink:href="#DejaVuSans-69" x="550.386719"/>
      <use xlink:href="#DejaVuSans-61" x="578.169922"/>
      <use xlink:href="#DejaVuSans-6c" x="639.449219"/>
      <use xlink:href="#DejaVuSans-20" x="667.232422"/>
      <use xlink:href="#DejaVuSans-69" x="699.019531"/>
      <use xlink:href="#DejaVuSans-6e" x="726.802734"/>
      <use xlink:href="#DejaVuSans-20" x="790.181641"/>
      <use xlink:href="#DejaVuSans-32" x="821.96875"/>
      <use xlink:href="#DejaVuSans-31" x="885.591797"/>
      <use xlink:href="#DejaVuSans-30" x="949.214844"/>
      <use xlink:href="#DejaVuSans-30" x="1012.837891"/>
     </g>
    </g>
    <g id="line2d_18">
     <path d="M 616.971755 155.478813 
L 638.971755 155.478813 
L 660.971755 155.478813 
" style="fill: none; stroke: #74b8f8; stroke-opacity: 0.5; stroke-width: 6; stroke-linecap: square"/>
    </g>
    <g id="text_16">
     <!-- 1.5C (n=2) -->
     <g transform="translate(678.571755 163.178813)scale(0.22 -0.22)">
      <defs>
       <path id="DejaVuSans-2e" d="M 684 794 
L 1344 794 
L 1344 0 
L 684 0 
L 684 794 
z
" transform="scale(0.015625)"/>
       <path id="DejaVuSans-35" d="M 691 4666 
L 3169 4666 
L 3169 4134 
L 1269 4134 
L 1269 2991 
Q 1406 3038 1543 3061 
Q 1681 3084 1819 3084 
Q 2600 3084 3056 2656 
Q 3513 2228 3513 1497 
Q 3513 744 3044 326 
Q 2575 -91 1722 -91 
Q 1428 -91 1123 -41 
Q 819 9 494 109 
L 494 744 
Q 775 591 1075 516 
Q 1375 441 1709 441 
Q 2250 441 2565 725 
Q 2881 1009 2881 1497 
Q 2881 1984 2565 2268 
Q 2250 2553 1709 2553 
Q 1456 2553 1204 2497 
Q 953 2441 691 2322 
L 691 4666 
z
" transform="scale(0.015625)"/>
       <path id="DejaVuSans-b0" d="M 1600 4347 
Q 1350 4347 1178 4173 
Q 1006 4000 1006 3750 
Q 1006 3503 1178 3333 
Q 1350 3163 1600 3163 
Q 1850 3163 2022 3333 
Q 2194 3503 2194 3750 
Q 2194 3997 2020 4172 
Q 1847 4347 1600 4347 
z
M 1600 4750 
Q 1800 4750 1984 4673 
Q 2169 4597 2303 4453 
Q 2447 4313 2519 4134 
Q 2591 3956 2591 3750 
Q 2591 3338 2302 3052 
Q 2013 2766 1594 2766 
Q 1172 2766 890 3047 
Q 609 3328 609 3750 
Q 609 4169 896 4459 
Q 1184 4750 1600 4750 
z
" transform="scale(0.015625)"/>
       <path id="DejaVuSans-43" d="M 4122 4306 
L 4122 3641 
Q 3803 3938 3442 4084 
Q 3081 4231 2675 4231 
Q 1875 4231 1450 3742 
Q 1025 3253 1025 2328 
Q 1025 1406 1450 917 
Q 1875 428 2675 428 
Q 3081 428 3442 575 
Q 3803 722 4122 1019 
L 4122 359 
Q 3791 134 3420 21 
Q 3050 -91 2638 -91 
Q 1578 -91 968 557 
Q 359 1206 359 2328 
Q 359 3453 968 4101 
Q 1578 4750 2638 4750 
Q 3056 4750 3426 4639 
Q 3797 4528 4122 4306 
z
" transform="scale(0.015625)"/>
       <path id="DejaVuSans-28" d="M 1984 4856 
Q 1566 4138 1362 3434 
Q 1159 2731 1159 2009 
Q 1159 1288 1364 580 
Q 1569 -128 1984 -844 
L 1484 -844 
Q 1016 -109 783 600 
Q 550 1309 550 2009 
Q 550 2706 781 3412 
Q 1013 4119 1484 4856 
L 1984 4856 
z
" transform="scale(0.015625)"/>
       <path id="DejaVuSans-3d" d="M 678 2906 
L 4684 2906 
L 4684 2381 
L 678 2381 
L 678 2906 
z
M 678 1631 
L 4684 1631 
L 4684 1100 
L 678 1100 
L 678 1631 
z
" transform="scale(0.015625)"/>
       <path id="DejaVuSans-29" d="M 513 4856 
L 1013 4856 
Q 1481 4119 1714 3412 
Q 1947 2706 1947 2009 
Q 1947 1309 1714 600 
Q 1481 -109 1013 -844 
L 513 -844 
Q 928 -128 1133 580 
Q 1338 1288 1338 2009 
Q 1338 2731 1133 3434 
Q 928 4138 513 4856 
z
" transform="scale(0.015625)"/>
      </defs>
      <use xlink:href="#DejaVuSans-31"/>
      <use xlink:href="#DejaVuSans-2e" x="63.623047"/>
      <use xlink:href="#DejaVuSans-35" x="95.410156"/>
      <use xlink:href="#DejaVuSans-b0" x="159.033203"/>
      <use xlink:href="#DejaVuSans-43" x="209.033203"/>
      <use xlink:href="#DejaVuSans-20" x="278.857422"/>
      <use xlink:href="#DejaVuSans-28" x="310.644531"/>
      <use xlink:href="#DejaVuSans-6e" x="349.658203"/>
      <use xlink:href="#DejaVuSans-3d" x="413.037109"/>
      <use xlink:href="#DejaVuSans-32" x="496.826172"/>
      <use xlink:href="#DejaVuSans-29" x="560.449219"/>
     </g>
    </g>
    <g id="line2d_19">
     <path d="M 616.971755 180.070688 
L 638.971755 180.070688 
L 660.971755 180.070688 
" style="fill: none; stroke: #f47100; stroke-opacity: 0.5; stroke-width: 6; stroke-linecap: square"/>
    </g>
    <g id="text_17">
     <!-- 2.2C (n=14) -->
     <g transform="translate(678.571755 187.770688)scale(0.22 -0.22)">
      <use xlink:href="#DejaVuSans-32"/>
      <use xlink:href="#DejaVuSans-2e" x="63.623047"/>
      <use xlink:href="#DejaVuSans-32" x="95.410156"/>
      <use xlink:href="#DejaVuSans-b0" x="159.033203"/>
      <use xlink:href="#DejaVuSans-43" x="209.033203"/>
      <use xlink:href="#DejaVuSans-20" x="278.857422"/>
      <use xlink:href="#DejaVuSans-28" x="310.644531"/>
      <use xlink:href="#DejaVuSans-6e" x="349.658203"/>
      <use xlink:href="#DejaVuSans-3d" x="413.037109"/>
      <use xlink:href="#DejaVuSans-31" x="496.826172"/>
      <use xlink:href="#DejaVuSans-34" x="560.449219"/>
      <use xlink:href="#DejaVuSans-29" x="624.072266"/>
     </g>
    </g>
    <g id="line2d_20">
     <path d="M 616.971755 204.662563 
L 638.971755 204.662563 
L 660.971755 204.662563 
" style="fill: none; stroke: #d01e04; stroke-opacity: 0.5; stroke-width: 6; stroke-linecap: square"/>
    </g>
    <g id="text_18">
     <!-- 2.8C (n=12) -->
     <g transform="translate(678.571755 212.362563)scale(0.22 -0.22)">
      <use xlink:href="#DejaVuSans-32"/>
      <use xlink:href="#DejaVuSans-2e" x="63.623047"/>
      <use xlink:href="#DejaVuSans-38" x="95.410156"/>
      <use xlink:href="#DejaVuSans-b0" x="159.033203"/>
      <use xlink:href="#DejaVuSans-43" x="209.033203"/>
      <use xlink:href="#DejaVuSans-20" x="278.857422"/>
      <use xlink:href="#DejaVuSans-28" x="310.644531"/>
      <use xlink:href="#DejaVuSans-6e" x="349.658203"/>
      <use xlink:href="#DejaVuSans-3d" x="413.037109"/>
      <use xlink:href="#DejaVuSans-31" x="496.826172"/>
      <use xlink:href="#DejaVuSans-32" x="560.449219"/>
      <use xlink:href="#DejaVuSans-29" x="624.072266"/>
     </g>
    </g>
   </g>
  </g>
 </g>
 <defs>
  <clipPath id="p1cad224ff9">
   <rect x="109.64" y="52.8" width="749.280192" height="462.76"/>
  </clipPath>
 </defs>
</svg>
