<?xml version="1.0" encoding="utf-8" standalone="no"?>
<!DOCTYPE svg PUBLIC "-//W3C//DTD SVG 1.1//EN"
  "http://www.w3.org/Graphics/SVG/1.1/DTD/svg11.dtd">
<svg xmlns:xlink="http://www.w3.org/1999/xlink" width="900pt" height="600pt" viewBox="0 0 900 600" xmlns="http://www.w3.org/2000/svg" version="1.1">
 <metadata>
  <rdf:RDF xmlns:dc="http://purl.org/dc/elements/1.1/" xmlns:cc="http://creativecommons.org/ns#" xmlns:rdf="http://www.w3.org/1999/02/22-rdf-syntax-ns#">
   <cc:Work>
    <dc:type rdf:resource="http://purl.org/dc/dcmitype/StillImage"/>
    <dc:date>2024-10-31T18:28:35.695172</dc:date>
    <dc:format>image/svg+xml</dc:format>
    <dc:creator>
     <cc:Agent>
      <dc:title>Matplotlib v3.5.3, https://matplotlib.org/</dc:title>
     </cc:Agent>
    </dc:creator>
   </cc:Work>
  </rdf:RDF>
 </metadata>
 <defs>
  <style type="text/css">*{stroke-linejoin: round; stroke-linecap: butt}</style>
 </defs>
 <g id="figure_1">
  <g id="patch_1">
   <path d="M 0 600 
L 900 600 
L 900 0 
L 0 0 
z
" style="fill: #ffffff"/>
  </g>
  <g id="axes_1">
   <g id="patch_2">
    <path d="M 109.64 515.56 
L 858.920192 515.56 
L 858.920192 52.8 
L 109.64 52.8 
z
" style="fill: #ffffff"/>
   </g>
   <g id="PolyCollection_1">
    <defs>
     <path id="m66558b5beb" d="M 167.276938 -446.364559 
L 167.276938 -446.138025 
L 169.678477 -437.431128 
L 172.080016 -428.794188 
L 174.481555 -420.62733 
L 176.883094 -411.666414 
L 179.284633 -402.542467 
L 181.686172 -393.678227 
L 184.087711 -384.882025 
L 186.48925 -376.363117 
L 188.89079 -368.603362 
L 191.292329 -360.878125 
L 193.693868 -353.526359 
L 196.095407 -346.709444 
L 198.496946 -339.391084 
L 200.898485 -331.692887 
L 203.300024 -323.99017 
L 205.701563 -316.677758 
L 208.103102 -310.172241 
L 210.504641 -303.306661 
L 212.90618 -296.455385 
L 215.307719 -289.569766 
L 217.709259 -282.921436 
L 220.110798 -276.882974 
L 222.512337 -270.729096 
L 224.913876 -265.086965 
L 227.315415 -259.827123 
L 229.716954 -254.660511 
L 232.118493 -249.684518 
L 234.520032 -244.512773 
L 236.921571 -239.211928 
L 239.32311 -234.417669 
L 241.724649 -230.496771 
L 244.126188 -226.767801 
L 246.527727 -223.220407 
L 248.929267 -220.069449 
L 251.330806 -217.445579 
L 253.732345 -215.233682 
L 256.133884 -212.996687 
L 258.535423 -211.088829 
L 260.936962 -209.174539 
L 263.338501 -207.5123 
L 265.74004 -205.837918 
L 268.141579 -203.79921 
L 270.543118 -201.710496 
L 272.944657 -199.952897 
L 275.346196 -198.011161 
L 277.747735 -196.269545 
L 280.149275 -194.445983 
L 282.550814 -192.919805 
L 284.952353 -191.582176 
L 287.353892 -190.376505 
L 289.755431 -188.976424 
L 292.15697 -187.680764 
L 294.558509 -186.606554 
L 296.960048 -185.795264 
L 299.361587 -185.078599 
L 301.763126 -184.12423 
L 304.164665 -183.14738 
L 306.566204 -182.454561 
L 308.967743 -181.689668 
L 311.369283 -181.009739 
L 313.770822 -180.430047 
L 316.172361 -179.888245 
L 318.5739 -179.454327 
L 320.975439 -179.273906 
L 323.376978 -179.183675 
L 325.778517 -179.412187 
L 328.180056 -179.630404 
L 330.581595 -179.830162 
L 332.983134 -180.083967 
L 335.384673 -180.301226 
L 337.786212 -180.495293 
L 340.187751 -180.603617 
L 342.589291 -180.651521 
L 344.99083 -180.571578 
L 347.392369 -180.629852 
L 349.793908 -180.596716 
L 352.195447 -180.671789 
L 354.596986 -180.720337 
L 356.998525 -180.921727 
L 359.400064 -181.130361 
L 361.801603 -181.21823 
L 364.203142 -181.343394 
L 366.604681 -181.5056 
L 369.00622 -181.644531 
L 371.407759 -181.96576 
L 373.809299 -181.973026 
L 376.210838 -182.153086 
L 378.612377 -182.52644 
L 381.013916 -182.913016 
L 383.415455 -183.0753 
L 385.816994 -183.274353 
L 388.218533 -183.375215 
L 390.620072 -183.196917 
L 393.021611 -183.157433 
L 395.42315 -183.198576 
L 397.824689 -183.36052 
L 400.226228 -183.303404 
L 402.627768 -183.271928 
L 405.029307 -183.32611 
L 407.430846 -183.234974 
L 409.832385 -183.177413 
L 412.233924 -183.297657 
L 414.635463 -183.345807 
L 417.037002 -183.297171 
L 419.438541 -183.121264 
L 421.84008 -183.002228 
L 424.241619 -182.952082 
L 426.643158 -182.725543 
L 429.044697 -182.504055 
L 431.446236 -182.43018 
L 433.847776 -182.477848 
L 436.249315 -182.710516 
L 438.650854 -183.129645 
L 441.052393 -183.397125 
L 443.453932 -183.407668 
L 445.855471 -183.589832 
L 448.25701 -183.807733 
L 450.658549 -183.947063 
L 453.060088 -184.002186 
L 455.461627 -184.068856 
L 457.863166 -184.323697 
L 460.264705 -184.387888 
L 462.666244 -184.400203 
L 465.067784 -184.295064 
L 467.469323 -184.092742 
L 469.870862 -183.989609 
L 472.272401 -183.991316 
L 474.67394 -183.806819 
L 477.075479 -183.467518 
L 479.477018 -183.308822 
L 481.878557 -183.21019 
L 484.280096 -183.010396 
L 486.681635 -182.753668 
L 489.083174 -182.713379 
L 491.484713 -182.633906 
L 493.886252 -182.394166 
L 496.287792 -182.266278 
L 498.689331 -182.195748 
L 501.09087 -182.22762 
L 503.492409 -182.328742 
L 505.893948 -182.736871 
L 508.295487 -183.30071 
L 510.697026 -184.03294 
L 513.098565 -184.927492 
L 515.500104 -185.840985 
L 517.901643 -186.718277 
L 520.303182 -187.383255 
L 522.704721 -188.159416 
L 525.10626 -189.01155 
L 527.5078 -189.74678 
L 529.909339 -190.280224 
L 532.310878 -190.792865 
L 534.712417 -191.175111 
L 537.113956 -191.465415 
L 539.515495 -191.868988 
L 541.917034 -192.345146 
L 544.318573 -192.984221 
L 546.720112 -193.58464 
L 549.121651 -194.095474 
L 551.52319 -194.684166 
L 553.924729 -195.006852 
L 556.326268 -195.395439 
L 558.727808 -195.740101 
L 561.129347 -195.900785 
L 563.530886 -196.017615 
L 565.932425 -196.189953 
L 568.333964 -196.367732 
L 570.735503 -196.700878 
L 573.137042 -197.107305 
L 575.538581 -197.571974 
L 577.94012 -198.468413 
L 580.341659 -199.459237 
L 582.743198 -200.596785 
L 585.144737 -201.617116 
L 587.546277 -202.466731 
L 589.947816 -203.147801 
L 592.349355 -203.510648 
L 594.750894 -203.745961 
L 597.152433 -204.042593 
L 599.553972 -204.334922 
L 601.955511 -204.351824 
L 604.35705 -204.164728 
L 606.758589 -204.020695 
L 609.160128 -203.9417 
L 611.561667 -203.877251 
L 613.963206 -203.543942 
L 616.364745 -203.303924 
L 618.766285 -203.16528 
L 621.167824 -202.990899 
L 623.569363 -202.891465 
L 625.970902 -202.538679 
L 628.372441 -202.329278 
L 630.77398 -201.984749 
L 633.175519 -201.749434 
L 635.577058 -201.555998 
L 637.978597 -201.616154 
L 640.380136 -202.079444 
L 642.781675 -202.710706 
L 645.183214 -203.172346 
L 647.584753 -203.648428 
L 649.986293 -204.436846 
L 652.387832 -205.3973 
L 654.789371 -206.253685 
L 657.19091 -206.974882 
L 659.592449 -207.863082 
L 661.993988 -208.767859 
L 664.395527 -209.70801 
L 666.797066 -210.530868 
L 669.198605 -211.403541 
L 671.600144 -212.217845 
L 674.001683 -212.973315 
L 676.403222 -213.503779 
L 678.804761 -214.302011 
L 681.206301 -215.154933 
L 683.60784 -215.763413 
L 686.009379 -216.327641 
L 688.410918 -216.468631 
L 690.812457 -216.595338 
L 693.213996 -216.875401 
L 695.615535 -216.95242 
L 698.017074 -217.036444 
L 700.418613 -217.105528 
L 702.820152 -217.271164 
L 705.221691 -217.679614 
L 707.62323 -218.060336 
L 710.024769 -218.788624 
L 712.426309 -219.439661 
L 714.827848 -219.93556 
L 717.229387 -220.459774 
L 719.630926 -220.841569 
L 722.032465 -221.100078 
L 724.434004 -221.404987 
L 726.835543 -221.643491 
L 729.237082 -221.719095 
L 731.638621 -222.027352 
L 734.04016 -222.242128 
L 736.441699 -222.619353 
L 738.843238 -222.99538 
L 741.244777 -223.289353 
L 743.646317 -223.901408 
L 746.047856 -224.426504 
L 748.449395 -224.867061 
L 750.850934 -225.065924 
L 753.252473 -225.296074 
L 755.654012 -225.639078 
L 758.055551 -225.467642 
L 760.45709 -225.304456 
L 762.858629 -225.185724 
L 765.260168 -225.007309 
L 767.661707 -224.994373 
L 770.063246 -225.00565 
L 772.464786 -224.967963 
L 774.866325 -224.896844 
L 777.267864 -224.943809 
L 779.669403 -225.20651 
L 782.070942 -225.67063 
L 784.472481 -226.181507 
L 786.87402 -226.733621 
L 789.275559 -227.269976 
L 791.677098 -227.530546 
L 794.078637 -227.614571 
L 796.480176 -227.887921 
L 798.881715 -228.553901 
L 801.283254 -229.398315 
L 803.684794 -230.05592 
L 806.086333 -231.130536 
L 808.487872 -232.348928 
L 810.889411 -233.549142 
L 813.29095 -235.055783 
L 815.692489 -236.251152 
L 818.094028 -236.855647 
L 820.495567 -237.643383 
L 822.897106 -238.516423 
L 825.298645 -239.404533 
L 827.700184 -240.181207 
L 830.101723 -240.818451 
L 832.503262 -241.413775 
L 834.904802 -241.885463 
L 837.306341 -242.545119 
L 837.306341 -264.941696 
L 837.306341 -264.941696 
L 834.904802 -264.077879 
L 832.503262 -263.485398 
L 830.101723 -262.769981 
L 827.700184 -262.013116 
L 825.298645 -261.10278 
L 822.897106 -260.059418 
L 820.495567 -259.039859 
L 818.094028 -258.111561 
L 815.692489 -257.406723 
L 813.29095 -255.970707 
L 810.889411 -254.137086 
L 808.487872 -252.687241 
L 806.086333 -251.222801 
L 803.684794 -249.934192 
L 801.283254 -249.188912 
L 798.881715 -248.195967 
L 796.480176 -247.414327 
L 794.078637 -247.134632 
L 791.677098 -247.146474 
L 789.275559 -246.921525 
L 786.87402 -246.364213 
L 784.472481 -245.780184 
L 782.070942 -245.234542 
L 779.669403 -244.722704 
L 777.267864 -244.426652 
L 774.866325 -244.373249 
L 772.464786 -244.461392 
L 770.063246 -244.518389 
L 767.661707 -244.526541 
L 765.260168 -244.577798 
L 762.858629 -244.831603 
L 760.45709 -245.030019 
L 758.055551 -245.295138 
L 755.654012 -245.578737 
L 753.252473 -245.199736 
L 750.850934 -244.962464 
L 748.449395 -244.767596 
L 746.047856 -244.277945 
L 743.646317 -243.666501 
L 741.244777 -242.937569 
L 738.843238 -242.598277 
L 736.441699 -242.124773 
L 734.04016 -241.657586 
L 731.638621 -241.392429 
L 729.237082 -241.026397 
L 726.835543 -240.960983 
L 724.434004 -240.692069 
L 722.032465 -240.33956 
L 719.630926 -240.04092 
L 717.229387 -239.575159 
L 714.827848 -238.923118 
L 712.426309 -238.293855 
L 710.024769 -237.468805 
L 707.62323 -236.543625 
L 705.221691 -236.045632 
L 702.820152 -235.529205 
L 700.418613 -235.313803 
L 698.017074 -235.22102 
L 695.615535 -235.116296 
L 693.213996 -235.038435 
L 690.812457 -234.693801 
L 688.410918 -234.573444 
L 686.009379 -234.426817 
L 683.60784 -233.74907 
L 681.206301 -233.035576 
L 678.804761 -232.003078 
L 676.403222 -231.040373 
L 674.001683 -230.414799 
L 671.600144 -229.487582 
L 669.198605 -228.496045 
L 666.797066 -227.470171 
L 664.395527 -226.496524 
L 661.993988 -225.397976 
L 659.592449 -224.340089 
L 657.19091 -223.297221 
L 654.789371 -222.424501 
L 652.387832 -221.395922 
L 649.986293 -220.271464 
L 647.584753 -219.35419 
L 645.183214 -218.810282 
L 642.781675 -218.305672 
L 640.380136 -217.559891 
L 637.978597 -217.033891 
L 635.577058 -217.033495 
L 633.175519 -217.310729 
L 630.77398 -217.666435 
L 628.372441 -218.139703 
L 625.970902 -218.473815 
L 623.569363 -219.005903 
L 621.167824 -219.203976 
L 618.766285 -219.470205 
L 616.364745 -219.688477 
L 613.963206 -220.027676 
L 611.561667 -220.489026 
L 609.160128 -220.631083 
L 606.758589 -220.818152 
L 604.35705 -221.074982 
L 601.955511 -221.354869 
L 599.553972 -221.384753 
L 597.152433 -221.077483 
L 594.750894 -220.76908 
L 592.349355 -220.54884 
L 589.947816 -220.182293 
L 587.546277 -219.389172 
L 585.144737 -218.421571 
L 582.743198 -217.245576 
L 580.341659 -215.951099 
L 577.94012 -214.78855 
L 575.538581 -213.746 
L 573.137042 -213.275205 
L 570.735503 -212.866672 
L 568.333964 -212.533151 
L 565.932425 -212.370842 
L 563.530886 -212.199376 
L 561.129347 -212.102709 
L 558.727808 -211.944374 
L 556.326268 -211.568043 
L 553.924729 -211.11578 
L 551.52319 -210.731895 
L 549.121651 -210.041811 
L 546.720112 -209.431384 
L 544.318573 -208.712784 
L 541.917034 -207.917578 
L 539.515495 -207.338669 
L 537.113956 -206.849391 
L 534.712417 -206.469969 
L 532.310878 -205.978281 
L 529.909339 -205.338796 
L 527.5078 -204.670178 
L 525.10626 -203.736092 
L 522.704721 -202.664554 
L 520.303182 -201.696229 
L 517.901643 -200.878166 
L 515.500104 -199.787437 
L 513.098565 -198.640423 
L 510.697026 -197.511142 
L 508.295487 -196.577685 
L 505.893948 -195.869319 
L 503.492409 -195.354903 
L 501.09087 -195.222243 
L 498.689331 -195.178444 
L 496.287792 -195.275488 
L 493.886252 -195.451676 
L 491.484713 -195.767095 
L 489.083174 -195.868811 
L 486.681635 -195.950392 
L 484.280096 -196.280735 
L 481.878557 -196.544392 
L 479.477018 -196.681806 
L 477.075479 -196.906499 
L 474.67394 -197.356443 
L 472.272401 -197.628491 
L 469.870862 -197.656166 
L 467.469323 -197.781927 
L 465.067784 -198.037171 
L 462.666244 -198.175869 
L 460.264705 -198.185144 
L 457.863166 -198.126489 
L 455.461627 -197.82705 
L 453.060088 -197.73437 
L 450.658549 -197.651057 
L 448.25701 -197.432191 
L 445.855471 -197.118206 
L 443.453932 -196.8631 
L 441.052393 -196.847723 
L 438.650854 -196.48887 
L 436.249315 -195.95392 
L 433.847776 -195.636555 
L 431.446236 -195.519621 
L 429.044697 -195.542025 
L 426.643158 -195.750882 
L 424.241619 -195.98045 
L 421.84008 -195.960345 
L 419.438541 -196.072069 
L 417.037002 -196.236604 
L 414.635463 -196.245285 
L 412.233924 -196.139812 
L 409.832385 -195.944599 
L 407.430846 -195.96632 
L 405.029307 -196.019115 
L 402.627768 -195.90952 
L 400.226228 -195.937737 
L 397.824689 -195.989664 
L 395.42315 -195.782124 
L 393.021611 -195.68629 
L 390.620072 -195.703333 
L 388.218533 -195.893953 
L 385.816994 -195.758264 
L 383.415455 -195.521697 
L 381.013916 -195.336989 
L 378.612377 -194.874509 
L 376.210838 -194.411055 
L 373.809299 -194.222075 
L 371.407759 -194.24173 
L 369.00622 -193.874801 
L 366.604681 -193.76123 
L 364.203142 -193.560117 
L 361.801603 -193.398293 
L 359.400064 -193.2629 
L 356.998525 -192.993299 
L 354.596986 -192.705248 
L 352.195447 -192.572266 
L 349.793908 -192.401275 
L 347.392369 -192.354042 
L 344.99083 -192.207677 
L 342.589291 -192.250498 
L 340.187751 -192.115172 
L 337.786212 -191.898687 
L 335.384673 -191.575311 
L 332.983134 -191.181559 
L 330.581595 -190.727145 
L 328.180056 -190.311357 
L 325.778517 -189.881408 
L 323.376978 -189.406036 
L 320.975439 -189.312964 
L 318.5739 -189.279323 
L 316.172361 -189.573904 
L 313.770822 -189.994763 
L 311.369283 -190.442461 
L 308.967743 -190.996491 
L 306.566204 -191.644983 
L 304.164665 -192.199087 
L 301.763126 -193.063941 
L 299.361587 -193.888986 
L 296.960048 -194.427735 
L 294.558509 -195.044307 
L 292.15697 -195.984076 
L 289.755431 -197.19398 
L 287.353892 -198.511573 
L 284.952353 -199.620017 
L 282.550814 -200.847771 
L 280.149275 -202.295773 
L 277.747735 -204.026039 
L 275.346196 -205.657043 
L 272.944657 -207.505811 
L 270.543118 -209.124859 
L 268.141579 -211.047785 
L 265.74004 -212.926621 
L 263.338501 -214.404254 
L 260.936962 -215.84461 
L 258.535423 -217.570316 
L 256.133884 -219.29292 
L 253.732345 -221.301283 
L 251.330806 -223.280479 
L 248.929267 -225.673141 
L 246.527727 -228.653783 
L 244.126188 -231.990825 
L 241.724649 -235.509989 
L 239.32311 -239.168922 
L 236.921571 -243.722533 
L 234.520032 -248.755745 
L 232.118493 -253.587147 
L 229.716954 -258.254987 
L 227.315415 -263.125043 
L 224.913876 -268.068755 
L 222.512337 -273.397283 
L 220.110798 -279.284208 
L 217.709259 -285.019328 
L 215.307719 -291.443207 
L 212.90618 -298.132927 
L 210.504641 -304.738787 
L 208.103102 -311.336267 
L 205.701563 -317.631929 
L 203.300024 -324.710111 
L 200.898485 -332.192289 
L 198.496946 -339.624932 
L 196.095407 -346.762283 
L 193.693868 -353.89511 
L 191.292329 -361.533923 
L 188.89079 -369.567784 
L 186.48925 -377.76517 
L 184.087711 -386.778767 
L 181.686172 -395.551433 
L 179.284633 -404.290527 
L 176.883094 -413.150741 
L 174.481555 -421.85653 
L 172.080016 -429.674661 
L 169.678477 -438.010467 
L 167.276938 -446.364559 
z
" style="stroke: #74b8f8; stroke-opacity: 0.2"/>
    </defs>
    <g clip-path="url(#pa2ca0fcf91)">
     <use xlink:href="#m66558b5beb" x="0" y="600" style="fill: #74b8f8; fill-opacity: 0.2; stroke: #74b8f8; stroke-opacity: 0.2"/>
    </g>
   </g>
   <g id="PolyCollection_2">
    <defs>
     <path id="ma77407c64c" d="M 116.844617 -577.062526 
L 116.844617 -574.135477 
L 119.246156 -570.295837 
L 121.647695 -566.582618 
L 124.049234 -562.731052 
L 126.450774 -558.793244 
L 128.852313 -555.306745 
L 131.253852 -552.013868 
L 133.655391 -548.490986 
L 136.05693 -545.086265 
L 138.458469 -542.250031 
L 140.860008 -538.799757 
L 143.261547 -530.600712 
L 145.663086 -522.475839 
L 148.064625 -513.764154 
L 150.466164 -505.348823 
L 152.867703 -497.195851 
L 155.269242 -489.002043 
L 157.670782 -480.885711 
L 160.072321 -471.767123 
L 162.47386 -463.038453 
L 164.875399 -454.648 
L 164.875399 -454.648 
L 164.875399 -454.648 
L 162.47386 -463.423444 
L 160.072321 -472.251795 
L 157.670782 -481.23067 
L 155.269242 -489.870768 
L 152.867703 -498.469028 
L 150.466164 -506.893218 
L 148.064625 -515.94796 
L 145.663086 -524.995785 
L 143.261547 -533.428601 
L 140.860008 -541.216855 
L 138.458469 -545.190051 
L 136.05693 -548.741503 
L 133.655391 -552.326857 
L 131.253852 -555.928816 
L 128.852313 -559.130467 
L 126.450774 -562.572542 
L 124.049234 -566.290002 
L 121.647695 -570.002101 
L 119.246156 -573.388708 
L 116.844617 -577.062526 
z
" style="stroke: #000000; stroke-opacity: 0.2"/>
    </defs>
    <g clip-path="url(#pa2ca0fcf91)">
     <use xlink:href="#ma77407c64c" x="0" y="600" style="fill-opacity: 0.2; stroke: #000000; stroke-opacity: 0.2"/>
    </g>
   </g>
   <g id="PolyCollection_3">
    <defs>
     <path id="ma7599c5637" d="M 167.276938 -447.882851 
L 167.276938 -444.64941 
L 169.678477 -435.024741 
L 172.080016 -426.156051 
L 174.481555 -417.05473 
L 176.883094 -407.389119 
L 179.284633 -397.325276 
L 181.686172 -387.642141 
L 184.087711 -377.788876 
L 186.48925 -367.859743 
L 188.89079 -358.209666 
L 191.292329 -348.740479 
L 193.693868 -338.985307 
L 196.095407 -329.930776 
L 198.496946 -321.248523 
L 200.898485 -312.786756 
L 203.300024 -304.201197 
L 205.701563 -295.515388 
L 208.103102 -286.679954 
L 210.504641 -278.125072 
L 212.90618 -270.006954 
L 215.307719 -262.280387 
L 217.709259 -254.521641 
L 220.110798 -246.933748 
L 222.512337 -239.536662 
L 224.913876 -232.240934 
L 227.315415 -225.790977 
L 229.716954 -219.891813 
L 232.118493 -214.422764 
L 234.520032 -209.026545 
L 236.921571 -203.943972 
L 239.32311 -199.279823 
L 241.724649 -194.905082 
L 244.126188 -191.250694 
L 246.527727 -187.66146 
L 248.929267 -184.129998 
L 251.330806 -180.950651 
L 253.732345 -177.78772 
L 256.133884 -174.76572 
L 258.535423 -171.792838 
L 260.936962 -168.872112 
L 263.338501 -166.071095 
L 265.74004 -163.200167 
L 268.141579 -160.671792 
L 270.543118 -158.903328 
L 272.944657 -157.704225 
L 275.346196 -156.67769 
L 277.747735 -155.909116 
L 280.149275 -155.293715 
L 282.550814 -154.78788 
L 284.952353 -153.891428 
L 287.353892 -152.492029 
L 289.755431 -150.962078 
L 292.15697 -149.584161 
L 294.558509 -148.267005 
L 296.960048 -146.986482 
L 299.361587 -145.695104 
L 301.763126 -144.611097 
L 304.164665 -143.530877 
L 306.566204 -142.463321 
L 308.967743 -141.533607 
L 311.369283 -140.605463 
L 313.770822 -139.813404 
L 316.172361 -139.064645 
L 318.5739 -138.310634 
L 320.975439 -137.574188 
L 323.376978 -136.821236 
L 325.778517 -136.068303 
L 328.180056 -135.230632 
L 330.581595 -134.351665 
L 332.983134 -133.449999 
L 335.384673 -132.646091 
L 337.786212 -131.585818 
L 340.187751 -130.548904 
L 342.589291 -129.558229 
L 344.99083 -128.685638 
L 347.392369 -127.951458 
L 349.793908 -127.164978 
L 352.195447 -126.409118 
L 354.596986 -125.696647 
L 356.998525 -124.976874 
L 359.400064 -124.382043 
L 361.801603 -124.306723 
L 364.203142 -124.223827 
L 366.604681 -124.129171 
L 369.00622 -124.068567 
L 371.407759 -123.732934 
L 373.809299 -123.370706 
L 376.210838 -123.087198 
L 378.612377 -122.829885 
L 381.013916 -122.515781 
L 383.415455 -122.217268 
L 385.816994 -121.844992 
L 388.218533 -121.588522 
L 390.620072 -121.56637 
L 393.021611 -121.560886 
L 395.42315 -121.534944 
L 397.824689 -121.524373 
L 400.226228 -121.598651 
L 402.627768 -121.749832 
L 405.029307 -121.944024 
L 407.430846 -122.201426 
L 409.832385 -122.429867 
L 412.233924 -122.661454 
L 414.635463 -122.884952 
L 417.037002 -123.142832 
L 419.438541 -123.279696 
L 421.84008 -123.40747 
L 424.241619 -123.515863 
L 426.643158 -123.663371 
L 429.044697 -123.797484 
L 431.446236 -123.906043 
L 433.847776 -124.003473 
L 436.249315 -124.082353 
L 438.650854 -124.183239 
L 441.052393 -124.250144 
L 443.453932 -124.310491 
L 445.855471 -124.406576 
L 448.25701 -124.402352 
L 450.658549 -124.301483 
L 453.060088 -124.14791 
L 455.461627 -123.940528 
L 457.863166 -123.705739 
L 460.264705 -123.478308 
L 462.666244 -123.252014 
L 465.067784 -122.956397 
L 467.469323 -122.675829 
L 469.870862 -122.436992 
L 472.272401 -122.201257 
L 474.67394 -122.125449 
L 477.075479 -122.018959 
L 479.477018 -121.901526 
L 481.878557 -121.541338 
L 484.280096 -121.160517 
L 486.681635 -121.359234 
L 489.083174 -121.712682 
L 491.484713 -121.956492 
L 493.886252 -122.165602 
L 496.287792 -122.342681 
L 498.689331 -122.622995 
L 501.09087 -122.89417 
L 503.492409 -123.165592 
L 505.893948 -123.543979 
L 508.295487 -123.888945 
L 510.697026 -124.257244 
L 513.098565 -124.666403 
L 515.500104 -125.117696 
L 517.901643 -125.557508 
L 520.303182 -126.050582 
L 522.704721 -126.51747 
L 525.10626 -126.913239 
L 527.5078 -127.269405 
L 529.909339 -127.548444 
L 532.310878 -127.894885 
L 534.712417 -128.309391 
L 537.113956 -128.744463 
L 539.515495 -129.290701 
L 541.917034 -129.872648 
L 544.318573 -130.398715 
L 546.720112 -130.886722 
L 549.121651 -131.340991 
L 551.52319 -131.781561 
L 553.924729 -132.211595 
L 556.326268 -132.58708 
L 558.727808 -132.824532 
L 561.129347 -132.85275 
L 563.530886 -132.672167 
L 565.932425 -132.456294 
L 568.333964 -132.256674 
L 570.735503 -131.982181 
L 573.137042 -131.748574 
L 575.538581 -131.643801 
L 577.94012 -131.619517 
L 580.341659 -131.549425 
L 582.743198 -131.427404 
L 585.144737 -131.331989 
L 587.546277 -131.295103 
L 589.947816 -131.204171 
L 592.349355 -131.17255 
L 594.750894 -131.125245 
L 597.152433 -130.965401 
L 599.553972 -130.726433 
L 601.955511 -130.379282 
L 604.35705 -130.089707 
L 606.758589 -129.708605 
L 609.160128 -129.267569 
L 611.561667 -128.869692 
L 613.963206 -128.545649 
L 616.364745 -128.145994 
L 618.766285 -127.729496 
L 621.167824 -127.219334 
L 623.569363 -126.647681 
L 625.970902 -126.012823 
L 628.372441 -125.517865 
L 630.77398 -124.995685 
L 633.175519 -124.324335 
L 635.577058 -123.565884 
L 637.978597 -122.790548 
L 640.380136 -122.055264 
L 642.781675 -121.327864 
L 645.183214 -120.689868 
L 647.584753 -120.05888 
L 649.986293 -119.426521 
L 652.387832 -118.84032 
L 654.789371 -118.277067 
L 657.19091 -117.826849 
L 659.592449 -117.345018 
L 661.993988 -116.844311 
L 664.395527 -116.372004 
L 666.797066 -115.96534 
L 669.198605 -115.63369 
L 671.600144 -115.343655 
L 674.001683 -115.056444 
L 676.403222 -114.975915 
L 678.804761 -114.91007 
L 681.206301 -114.877283 
L 683.60784 -114.857598 
L 686.009379 -114.861721 
L 688.410918 -114.849434 
L 690.812457 -114.776157 
L 693.213996 -114.698547 
L 695.615535 -114.625763 
L 698.017074 -114.573006 
L 700.418613 -114.516569 
L 702.820152 -114.483408 
L 705.221691 -114.47418 
L 707.62323 -114.43761 
L 710.024769 -114.366923 
L 712.426309 -114.304967 
L 714.827848 -114.208943 
L 717.229387 -114.104024 
L 719.630926 -114.045375 
L 722.032465 -114.056743 
L 724.434004 -114.093431 
L 726.835543 -114.036852 
L 729.237082 -113.996733 
L 731.638621 -113.987188 
L 734.04016 -113.95271 
L 736.441699 -113.956532 
L 738.843238 -113.9582 
L 741.244777 -113.901203 
L 743.646317 -113.879101 
L 746.047856 -113.85562 
L 748.449395 -113.799943 
L 750.850934 -113.813372 
L 753.252473 -113.865173 
L 755.654012 -113.892627 
L 758.055551 -113.913997 
L 760.45709 -113.954399 
L 762.858629 -114.034227 
L 765.260168 -114.105885 
L 767.661707 -114.206829 
L 770.063246 -114.390736 
L 772.464786 -114.644178 
L 774.866325 -114.899713 
L 777.267864 -115.213317 
L 779.669403 -115.500017 
L 782.070942 -115.794232 
L 784.472481 -116.046507 
L 786.87402 -116.34155 
L 789.275559 -116.6692 
L 791.677098 -116.939686 
L 794.078637 -117.201724 
L 796.480176 -117.555362 
L 798.881715 -117.818785 
L 801.283254 -118.132094 
L 803.684794 -118.464369 
L 806.086333 -118.769231 
L 808.487872 -119.025672 
L 810.889411 -119.209492 
L 813.29095 -119.390593 
L 815.692489 -119.680265 
L 818.094028 -119.863012 
L 820.495567 -119.989413 
L 822.897106 -120.106385 
L 825.298645 -120.153386 
L 827.700184 -120.201794 
L 830.101723 -120.25154 
L 832.503262 -120.30284 
L 834.904802 -120.319749 
L 837.306341 -120.31066 
L 837.306341 -193.559556 
L 837.306341 -193.559556 
L 834.904802 -193.398516 
L 832.503262 -193.298056 
L 830.101723 -193.345948 
L 827.700184 -193.351114 
L 825.298645 -193.250434 
L 822.897106 -193.050955 
L 820.495567 -192.76674 
L 818.094028 -192.539681 
L 815.692489 -192.405857 
L 813.29095 -192.049256 
L 810.889411 -191.472839 
L 808.487872 -190.995007 
L 806.086333 -190.421 
L 803.684794 -190.065742 
L 801.283254 -189.686766 
L 798.881715 -189.32442 
L 796.480176 -188.975068 
L 794.078637 -188.635268 
L 791.677098 -188.238943 
L 789.275559 -187.732421 
L 786.87402 -187.123857 
L 784.472481 -186.423942 
L 782.070942 -185.665465 
L 779.669403 -184.905635 
L 777.267864 -184.203179 
L 774.866325 -183.648921 
L 772.464786 -183.260223 
L 770.063246 -182.763829 
L 767.661707 -182.2514 
L 765.260168 -181.759549 
L 762.858629 -181.467709 
L 760.45709 -181.144182 
L 758.055551 -180.700076 
L 755.654012 -180.050853 
L 753.252473 -179.367377 
L 750.850934 -178.756396 
L 748.449395 -178.116557 
L 746.047856 -177.461973 
L 743.646317 -176.763077 
L 741.244777 -176.198822 
L 738.843238 -175.712307 
L 736.441699 -175.275255 
L 734.04016 -174.732286 
L 731.638621 -174.124441 
L 729.237082 -173.536265 
L 726.835543 -172.93713 
L 724.434004 -172.245897 
L 722.032465 -171.595066 
L 719.630926 -170.926428 
L 717.229387 -170.296529 
L 714.827848 -169.748116 
L 712.426309 -169.226909 
L 710.024769 -168.824068 
L 707.62323 -168.419733 
L 705.221691 -167.99031 
L 702.820152 -167.558802 
L 700.418613 -167.124448 
L 698.017074 -166.81207 
L 695.615535 -166.597725 
L 693.213996 -166.296322 
L 690.812457 -166.040206 
L 688.410918 -165.826946 
L 686.009379 -165.926013 
L 683.60784 -166.155613 
L 681.206301 -166.484715 
L 678.804761 -166.923487 
L 676.403222 -167.412014 
L 674.001683 -167.961698 
L 671.600144 -168.344842 
L 669.198605 -168.753948 
L 666.797066 -169.016014 
L 664.395527 -169.230402 
L 661.993988 -168.800285 
L 659.592449 -168.413095 
L 657.19091 -168.136448 
L 654.789371 -167.86652 
L 652.387832 -167.650641 
L 649.986293 -167.33499 
L 647.584753 -167.060133 
L 645.183214 -166.889357 
L 642.781675 -166.815838 
L 640.380136 -166.738792 
L 637.978597 -166.469772 
L 635.577058 -166.256989 
L 633.175519 -166.089784 
L 630.77398 -166.005468 
L 628.372441 -165.967801 
L 625.970902 -165.967688 
L 623.569363 -166.08979 
L 621.167824 -166.095097 
L 618.766285 -166.164115 
L 616.364745 -166.1369 
L 613.963206 -166.35718 
L 611.561667 -166.526284 
L 609.160128 -166.587294 
L 606.758589 -166.621103 
L 604.35705 -166.557903 
L 601.955511 -166.527262 
L 599.553972 -166.403113 
L 597.152433 -166.184876 
L 594.750894 -165.966876 
L 592.349355 -165.637715 
L 589.947816 -165.486507 
L 587.546277 -165.348798 
L 585.144737 -164.97198 
L 582.743198 -164.625506 
L 580.341659 -164.126531 
L 577.94012 -163.698379 
L 575.538581 -163.166442 
L 573.137042 -162.724673 
L 570.735503 -162.347941 
L 568.333964 -161.990214 
L 565.932425 -161.613441 
L 563.530886 -161.360183 
L 561.129347 -161.124705 
L 558.727808 -160.920502 
L 556.326268 -160.809074 
L 553.924729 -160.658291 
L 551.52319 -160.645799 
L 549.121651 -160.623272 
L 546.720112 -160.436279 
L 544.318573 -160.36147 
L 541.917034 -160.143837 
L 539.515495 -159.940258 
L 537.113956 -159.804168 
L 534.712417 -159.641695 
L 532.310878 -159.592736 
L 529.909339 -159.577447 
L 527.5078 -159.460371 
L 525.10626 -159.37106 
L 522.704721 -159.20501 
L 520.303182 -159.0934 
L 517.901643 -159.072048 
L 515.500104 -159.064467 
L 513.098565 -159.121812 
L 510.697026 -159.078996 
L 508.295487 -158.942423 
L 505.893948 -158.914763 
L 503.492409 -158.777591 
L 501.09087 -158.670033 
L 498.689331 -158.595387 
L 496.287792 -158.536149 
L 493.886252 -158.544299 
L 491.484713 -158.613931 
L 489.083174 -158.654503 
L 486.681635 -158.680215 
L 484.280096 -158.702347 
L 481.878557 -158.711073 
L 479.477018 -158.753335 
L 477.075479 -158.204654 
L 474.67394 -157.640794 
L 472.272401 -157.18235 
L 469.870862 -156.766167 
L 467.469323 -156.476454 
L 465.067784 -156.157666 
L 462.666244 -155.979531 
L 460.264705 -156.010876 
L 457.863166 -156.243982 
L 455.461627 -156.393047 
L 453.060088 -156.35175 
L 450.658549 -155.851662 
L 448.25701 -155.366844 
L 445.855471 -154.829191 
L 443.453932 -154.254385 
L 441.052393 -153.645595 
L 438.650854 -153.194305 
L 436.249315 -153.0318 
L 433.847776 -152.783435 
L 431.446236 -152.599316 
L 429.044697 -152.440702 
L 426.643158 -152.406843 
L 424.241619 -152.450813 
L 421.84008 -152.596257 
L 419.438541 -152.559792 
L 417.037002 -152.457648 
L 414.635463 -152.291076 
L 412.233924 -152.135831 
L 409.832385 -152.05384 
L 407.430846 -152.021031 
L 405.029307 -151.825339 
L 402.627768 -151.60726 
L 400.226228 -151.281711 
L 397.824689 -150.938122 
L 395.42315 -150.639301 
L 393.021611 -150.259448 
L 390.620072 -149.822455 
L 388.218533 -149.443421 
L 385.816994 -149.108372 
L 383.415455 -148.625479 
L 381.013916 -148.098602 
L 378.612377 -147.516323 
L 376.210838 -146.955013 
L 373.809299 -146.521166 
L 371.407759 -146.271605 
L 369.00622 -146.188633 
L 366.604681 -146.14966 
L 364.203142 -146.077686 
L 361.801603 -146.065974 
L 359.400064 -147.363074 
L 356.998525 -148.783193 
L 354.596986 -150.230795 
L 352.195447 -151.901683 
L 349.793908 -152.309763 
L 347.392369 -152.541248 
L 344.99083 -152.790806 
L 342.589291 -153.168303 
L 340.187751 -153.727529 
L 337.786212 -154.288428 
L 335.384673 -154.893402 
L 332.983134 -155.687253 
L 330.581595 -157.015351 
L 328.180056 -158.429931 
L 325.778517 -159.805104 
L 323.376978 -161.075428 
L 320.975439 -162.41048 
L 318.5739 -163.904903 
L 316.172361 -165.726443 
L 313.770822 -167.607139 
L 311.369283 -169.477631 
L 308.967743 -171.00039 
L 306.566204 -171.62569 
L 304.164665 -172.203969 
L 301.763126 -173.070217 
L 299.361587 -173.768171 
L 296.960048 -174.491269 
L 294.558509 -175.572252 
L 292.15697 -175.384499 
L 289.755431 -175.498846 
L 287.353892 -175.977489 
L 284.952353 -176.459828 
L 282.550814 -177.237996 
L 280.149275 -178.516554 
L 277.747735 -180.274327 
L 275.346196 -182.791712 
L 272.944657 -185.349015 
L 270.543118 -187.997838 
L 268.141579 -190.999367 
L 265.74004 -194.18517 
L 263.338501 -197.485279 
L 260.936962 -200.895807 
L 258.535423 -204.298694 
L 256.133884 -207.519687 
L 253.732345 -210.702596 
L 251.330806 -213.945849 
L 248.929267 -217.422934 
L 246.527727 -221.564422 
L 244.126188 -225.696258 
L 241.724649 -230.005902 
L 239.32311 -234.610592 
L 236.921571 -239.901038 
L 234.520032 -245.574329 
L 232.118493 -251.561587 
L 229.716954 -257.938366 
L 227.315415 -264.137553 
L 224.913876 -270.768696 
L 222.512337 -277.853478 
L 220.110798 -284.925298 
L 217.709259 -291.753601 
L 215.307719 -299.235365 
L 212.90618 -306.974171 
L 210.504641 -314.815108 
L 208.103102 -322.851922 
L 205.701563 -331.001867 
L 203.300024 -339.501705 
L 200.898485 -347.663143 
L 198.496946 -354.819816 
L 196.095407 -362.181655 
L 193.693868 -370.199087 
L 191.292329 -377.803626 
L 188.89079 -385.061145 
L 186.48925 -391.988593 
L 184.087711 -399.340755 
L 181.686172 -406.786487 
L 179.284633 -413.174017 
L 176.883094 -420.315212 
L 174.481555 -426.756542 
L 172.080016 -433.292929 
L 169.678477 -440.537445 
L 167.276938 -447.882851 
z
" style="stroke: #f47100; stroke-opacity: 0.2"/>
    </defs>
    <g clip-path="url(#pa2ca0fcf91)">
     <use xlink:href="#ma7599c5637" x="0" y="600" style="fill: #f47100; fill-opacity: 0.2; stroke: #f47100; stroke-opacity: 0.2"/>
    </g>
   </g>
   <g id="PolyCollection_4">
    <defs>
     <path id="m0ae6ae0e23" d="M 116.844617 -586.928203 
L 116.844617 -570.774596 
L 119.246156 -567.240024 
L 121.647695 -564.067291 
L 124.049234 -560.48207 
L 126.450774 -556.931376 
L 128.852313 -553.565166 
L 131.253852 -550.458642 
L 133.655391 -546.416645 
L 136.05693 -541.648704 
L 138.458469 -536.895307 
L 140.860008 -532.58715 
L 143.261547 -524.011948 
L 145.663086 -515.893344 
L 148.064625 -507.694437 
L 150.466164 -498.78723 
L 152.867703 -490.144711 
L 155.269242 -482.299999 
L 157.670782 -475.045453 
L 160.072321 -468.167625 
L 162.47386 -461.532094 
L 164.875399 -454.648 
L 164.875399 -454.648 
L 164.875399 -454.648 
L 162.47386 -464.470616 
L 160.072321 -474.29458 
L 157.670782 -483.410657 
L 155.269242 -492.358173 
L 152.867703 -501.328399 
L 150.466164 -510.87283 
L 148.064625 -520.880192 
L 145.663086 -530.086742 
L 143.261547 -538.830119 
L 140.860008 -547.295783 
L 138.458469 -551.377518 
L 136.05693 -555.67868 
L 133.655391 -560.090793 
L 131.253852 -564.430457 
L 128.852313 -568.610006 
L 126.450774 -572.958321 
L 124.049234 -577.357746 
L 121.647695 -580.937949 
L 119.246156 -583.725659 
L 116.844617 -586.928203 
z
" style="stroke: #000000; stroke-opacity: 0.2"/>
    </defs>
    <g clip-path="url(#pa2ca0fcf91)">
     <use xlink:href="#m0ae6ae0e23" x="0" y="600" style="fill-opacity: 0.2; stroke: #000000; stroke-opacity: 0.2"/>
    </g>
   </g>
   <g id="PolyCollection_5">
    <defs>
     <path id="m8bca5eb184" d="M 167.276938 -445.481796 
L 167.276938 -444.026624 
L 169.678477 -432.991336 
L 172.080016 -422.132447 
L 174.481555 -411.27161 
L 176.883094 -400.481832 
L 179.284633 -390.208636 
L 181.686172 -379.742361 
L 184.087711 -369.052465 
L 186.48925 -358.334047 
L 188.89079 -347.366272 
L 191.292329 -336.836975 
L 193.693868 -326.456689 
L 196.095407 -316.665312 
L 198.496946 -306.89764 
L 200.898485 -297.795713 
L 203.300024 -288.889462 
L 205.701563 -280.512473 
L 208.103102 -272.208762 
L 210.504641 -264.470804 
L 212.90618 -256.916838 
L 215.307719 -249.500007 
L 217.709259 -242.462483 
L 220.110798 -235.326033 
L 222.512337 -228.58086 
L 224.913876 -222.129548 
L 227.315415 -215.865234 
L 229.716954 -209.821424 
L 232.118493 -204.265379 
L 234.520032 -199.144772 
L 236.921571 -194.325013 
L 239.32311 -189.813243 
L 241.724649 -185.452333 
L 244.126188 -181.448649 
L 246.527727 -177.709121 
L 248.929267 -174.506329 
L 251.330806 -171.975926 
L 253.732345 -168.714896 
L 256.133884 -163.995068 
L 258.535423 -160.225203 
L 260.936962 -157.050101 
L 263.338501 -154.575552 
L 265.74004 -151.196884 
L 268.141579 -147.484649 
L 270.543118 -144.222307 
L 272.944657 -141.614024 
L 275.346196 -139.312326 
L 277.747735 -137.205559 
L 280.149275 -135.286285 
L 282.550814 -133.539309 
L 284.952353 -131.848419 
L 287.353892 -130.698634 
L 289.755431 -129.477827 
L 292.15697 -128.430894 
L 294.558509 -127.521716 
L 296.960048 -126.624637 
L 299.361587 -125.737773 
L 301.763126 -124.942669 
L 304.164665 -124.234802 
L 306.566204 -123.671168 
L 308.967743 -123.187658 
L 311.369283 -122.770029 
L 313.770822 -122.360005 
L 316.172361 -121.921522 
L 318.5739 -121.522802 
L 320.975439 -121.126408 
L 323.376978 -120.788488 
L 325.778517 -120.452453 
L 328.180056 -120.023143 
L 330.581595 -119.576185 
L 332.983134 -119.128796 
L 335.384673 -118.699003 
L 337.786212 -118.345856 
L 340.187751 -117.982033 
L 342.589291 -117.614365 
L 344.99083 -117.268012 
L 347.392369 -116.385249 
L 349.793908 -115.512447 
L 352.195447 -114.600662 
L 354.596986 -113.702046 
L 356.998525 -112.942283 
L 359.400064 -112.211202 
L 361.801603 -111.576821 
L 364.203142 -111.001553 
L 366.604681 -110.427465 
L 369.00622 -109.778064 
L 371.407759 -109.163876 
L 373.809299 -108.55096 
L 376.210838 -107.944279 
L 378.612377 -107.40661 
L 381.013916 -106.893978 
L 383.415455 -106.416525 
L 385.816994 -106.004736 
L 388.218533 -105.751261 
L 390.620072 -105.542684 
L 393.021611 -105.343064 
L 395.42315 -105.148408 
L 397.824689 -104.91479 
L 400.226228 -104.696327 
L 402.627768 -104.466461 
L 405.029307 -104.225935 
L 407.430846 -104.011578 
L 409.832385 -103.824183 
L 412.233924 -103.646464 
L 414.635463 -103.448739 
L 417.037002 -103.278772 
L 419.438541 -103.080381 
L 421.84008 -102.914577 
L 424.241619 -102.820852 
L 426.643158 -102.673413 
L 429.044697 -102.535953 
L 431.446236 -102.365157 
L 433.847776 -102.215601 
L 436.249315 -102.077868 
L 438.650854 -101.927454 
L 441.052393 -101.644602 
L 443.453932 -101.293318 
L 445.855471 -100.933045 
L 448.25701 -100.589747 
L 450.658549 -100.272243 
L 453.060088 -99.994458 
L 455.461627 -99.695693 
L 457.863166 -99.359128 
L 460.264705 -99.028303 
L 462.666244 -98.695092 
L 465.067784 -98.407325 
L 467.469323 -98.189075 
L 469.870862 -98.023119 
L 472.272401 -97.89737 
L 474.67394 -97.794306 
L 477.075479 -97.701346 
L 479.477018 -97.597301 
L 481.878557 -97.440071 
L 484.280096 -97.298405 
L 486.681635 -97.161702 
L 489.083174 -97.012963 
L 491.484713 -96.884692 
L 493.886252 -96.738834 
L 496.287792 -96.599438 
L 498.689331 -96.468872 
L 501.09087 -96.33723 
L 503.492409 -96.206441 
L 505.893948 -96.068409 
L 508.295487 -95.948182 
L 510.697026 -95.832316 
L 513.098565 -95.731043 
L 515.500104 -95.614396 
L 517.901643 -95.511215 
L 520.303182 -95.433876 
L 522.704721 -95.335503 
L 525.10626 -95.256345 
L 527.5078 -95.190377 
L 529.909339 -95.146687 
L 532.310878 -95.10856 
L 534.712417 -95.077366 
L 537.113956 -95.052451 
L 539.515495 -95.030838 
L 541.917034 -95.041395 
L 544.318573 -95.062143 
L 546.720112 -95.087321 
L 549.121651 -95.129284 
L 551.52319 -95.174824 
L 553.924729 -95.25265 
L 556.326268 -95.302705 
L 558.727808 -95.355797 
L 561.129347 -95.380495 
L 563.530886 -95.404382 
L 565.932425 -95.392167 
L 568.333964 -95.342166 
L 570.735503 -95.293749 
L 573.137042 -95.252259 
L 575.538581 -95.175304 
L 577.94012 -95.098893 
L 580.341659 -95.009321 
L 582.743198 -94.91014 
L 585.144737 -94.791419 
L 587.546277 -94.6523 
L 589.947816 -94.515814 
L 592.349355 -94.361724 
L 594.750894 -94.228511 
L 597.152433 -94.064398 
L 599.553972 -93.887839 
L 601.955511 -93.711204 
L 604.35705 -93.580715 
L 606.758589 -93.461577 
L 609.160128 -93.334283 
L 611.561667 -93.213354 
L 613.963206 -93.091415 
L 616.364745 -92.982713 
L 618.766285 -92.881609 
L 621.167824 -92.787156 
L 623.569363 -92.704857 
L 625.970902 -92.619246 
L 628.372441 -92.509111 
L 630.77398 -92.403892 
L 633.175519 -92.296586 
L 635.577058 -92.187427 
L 637.978597 -92.059434 
L 640.380136 -91.949601 
L 642.781675 -91.842897 
L 645.183214 -91.756483 
L 647.584753 -91.685105 
L 649.986293 -91.604981 
L 652.387832 -91.489026 
L 654.789371 -91.361959 
L 657.19091 -91.293267 
L 659.592449 -91.213225 
L 661.993988 -91.156945 
L 664.395527 -91.115919 
L 666.797066 -91.097836 
L 669.198605 -91.069189 
L 671.600144 -91.045642 
L 674.001683 -91.040122 
L 676.403222 -91.050816 
L 678.804761 -91.061692 
L 681.206301 -91.091519 
L 683.60784 -91.122816 
L 686.009379 -91.19106 
L 688.410918 -91.253842 
L 690.812457 -91.289484 
L 693.213996 -91.314932 
L 695.615535 -91.330047 
L 698.017074 -91.348492 
L 700.418613 -91.377053 
L 702.820152 -91.408846 
L 705.221691 -91.419688 
L 707.62323 -91.4381 
L 710.024769 -91.440871 
L 712.426309 -91.435824 
L 714.827848 -91.426081 
L 717.229387 -91.426686 
L 719.630926 -91.426945 
L 722.032465 -91.423602 
L 724.434004 -91.431002 
L 726.835543 -91.424171 
L 729.237082 -91.410462 
L 731.638621 -91.416782 
L 734.04016 -91.399619 
L 736.441699 -91.394127 
L 738.843238 -91.391579 
L 741.244777 -91.390563 
L 743.646317 -91.410877 
L 746.047856 -91.436393 
L 748.449395 -91.465944 
L 750.850934 -91.510098 
L 753.252473 -91.545034 
L 755.654012 -91.579936 
L 758.055551 -91.625621 
L 760.45709 -91.674545 
L 762.858629 -91.722945 
L 765.260168 -91.767853 
L 767.661707 -91.820947 
L 770.063246 -91.870195 
L 772.464786 -91.92014 
L 774.866325 -91.959918 
L 777.267864 -92.00969 
L 779.669403 -92.040025 
L 782.070942 -92.048796 
L 784.472481 -92.034695 
L 786.87402 -92.028747 
L 789.275559 -92.0284 
L 791.677098 -92.023498 
L 794.078637 -92.02366 
L 796.480176 -92.013452 
L 798.881715 -91.981657 
L 801.283254 -91.953257 
L 803.684794 -91.926897 
L 806.086333 -91.897039 
L 808.487872 -91.858507 
L 810.889411 -91.812664 
L 813.29095 -91.769801 
L 815.692489 -91.736217 
L 818.094028 -91.693015 
L 820.495567 -91.642746 
L 822.897106 -91.605771 
L 825.298645 -91.560303 
L 827.700184 -91.525275 
L 830.101723 -91.518992 
L 832.503262 -91.516455 
L 834.904802 -91.5094 
L 837.306341 -91.497886 
L 837.306341 -154.693773 
L 837.306341 -154.693773 
L 834.904802 -154.654869 
L 832.503262 -154.686756 
L 830.101723 -154.746714 
L 827.700184 -154.845858 
L 825.298645 -155.071919 
L 822.897106 -155.227422 
L 820.495567 -155.328725 
L 818.094028 -155.384 
L 815.692489 -155.441429 
L 813.29095 -155.428694 
L 810.889411 -155.421312 
L 808.487872 -155.427139 
L 806.086333 -155.461889 
L 803.684794 -155.616277 
L 801.283254 -155.822333 
L 798.881715 -156.06383 
L 796.480176 -156.406602 
L 794.078637 -156.748336 
L 791.677098 -157.099622 
L 789.275559 -157.410618 
L 786.87402 -157.715622 
L 784.472481 -157.973036 
L 782.070942 -158.100646 
L 779.669403 -158.197339 
L 777.267864 -158.211487 
L 774.866325 -158.217119 
L 772.464786 -158.212942 
L 770.063246 -158.212402 
L 767.661707 -158.176258 
L 765.260168 -158.13034 
L 762.858629 -158.116746 
L 760.45709 -158.069973 
L 758.055551 -157.927945 
L 755.654012 -157.773699 
L 753.252473 -157.593263 
L 750.850934 -157.44174 
L 748.449395 -157.179788 
L 746.047856 -156.900046 
L 743.646317 -156.597661 
L 741.244777 -156.260784 
L 738.843238 -155.930607 
L 736.441699 -155.552439 
L 734.04016 -155.233412 
L 731.638621 -154.886721 
L 729.237082 -154.452506 
L 726.835543 -154.057094 
L 724.434004 -153.709257 
L 722.032465 -153.331807 
L 719.630926 -152.967598 
L 717.229387 -152.638902 
L 714.827848 -152.372432 
L 712.426309 -152.090821 
L 710.024769 -151.858709 
L 707.62323 -151.553959 
L 705.221691 -151.218144 
L 702.820152 -150.855795 
L 700.418613 -150.491034 
L 698.017074 -150.141743 
L 695.615535 -149.811003 
L 693.213996 -149.478289 
L 690.812457 -149.133385 
L 688.410918 -148.819058 
L 686.009379 -148.570546 
L 683.60784 -148.301478 
L 681.206301 -148.074101 
L 678.804761 -147.895141 
L 676.403222 -147.663067 
L 674.001683 -147.435178 
L 671.600144 -147.160489 
L 669.198605 -146.874685 
L 666.797066 -146.49306 
L 664.395527 -146.089772 
L 661.993988 -145.677324 
L 659.592449 -145.315057 
L 657.19091 -144.93111 
L 654.789371 -144.519977 
L 652.387832 -144.137788 
L 649.986293 -143.89068 
L 647.584753 -143.623191 
L 645.183214 -143.361576 
L 642.781675 -143.150638 
L 640.380136 -142.956346 
L 637.978597 -142.65139 
L 635.577058 -142.371833 
L 633.175519 -142.086144 
L 630.77398 -141.710715 
L 628.372441 -141.348816 
L 625.970902 -141.040937 
L 623.569363 -140.825391 
L 621.167824 -140.503799 
L 618.766285 -140.205443 
L 616.364745 -139.946337 
L 613.963206 -139.683375 
L 611.561667 -139.363442 
L 609.160128 -139.112643 
L 606.758589 -138.908347 
L 604.35705 -138.743279 
L 601.955511 -138.503376 
L 599.553972 -138.331252 
L 597.152433 -138.251326 
L 594.750894 -138.159318 
L 592.349355 -138.101291 
L 589.947816 -138.167834 
L 587.546277 -138.219236 
L 585.144737 -138.284701 
L 582.743198 -138.353146 
L 580.341659 -138.453396 
L 577.94012 -138.569284 
L 575.538581 -138.582554 
L 573.137042 -138.628164 
L 570.735503 -138.680292 
L 568.333964 -138.674636 
L 565.932425 -138.681775 
L 563.530886 -138.66245 
L 561.129347 -138.603298 
L 558.727808 -138.494876 
L 556.326268 -138.356454 
L 553.924729 -138.274902 
L 551.52319 -138.168951 
L 549.121651 -137.986418 
L 546.720112 -137.740927 
L 544.318573 -137.461848 
L 541.917034 -137.109291 
L 539.515495 -136.775211 
L 537.113956 -136.358695 
L 534.712417 -135.946221 
L 532.310878 -135.467206 
L 529.909339 -134.941792 
L 527.5078 -134.446056 
L 525.10626 -133.932883 
L 522.704721 -133.429442 
L 520.303182 -133.020424 
L 517.901643 -132.585132 
L 515.500104 -132.186552 
L 513.098565 -131.750305 
L 510.697026 -131.339424 
L 508.295487 -130.915841 
L 505.893948 -130.477559 
L 503.492409 -130.07913 
L 501.09087 -129.708176 
L 498.689331 -129.379934 
L 496.287792 -129.002409 
L 493.886252 -128.593057 
L 491.484713 -128.197155 
L 489.083174 -127.770418 
L 486.681635 -127.359126 
L 484.280096 -127.057017 
L 481.878557 -126.783427 
L 479.477018 -126.545035 
L 477.075479 -126.35714 
L 474.67394 -126.215116 
L 472.272401 -126.041108 
L 469.870862 -125.875761 
L 467.469323 -125.676025 
L 465.067784 -125.470895 
L 462.666244 -125.221452 
L 460.264705 -124.971764 
L 457.863166 -124.743013 
L 455.461627 -124.494035 
L 453.060088 -124.19794 
L 450.658549 -123.867785 
L 448.25701 -123.534178 
L 445.855471 -123.273483 
L 443.453932 -122.956071 
L 441.052393 -122.77769 
L 438.650854 -122.62172 
L 436.249315 -122.427438 
L 433.847776 -122.278445 
L 431.446236 -122.137441 
L 429.044697 -121.983178 
L 426.643158 -121.864428 
L 424.241619 -121.771048 
L 421.84008 -121.720443 
L 419.438541 -121.771483 
L 417.037002 -121.811578 
L 414.635463 -121.891187 
L 412.233924 -121.960589 
L 409.832385 -122.090285 
L 407.430846 -122.181432 
L 405.029307 -122.34443 
L 402.627768 -122.543799 
L 400.226228 -122.8426 
L 397.824689 -123.129268 
L 395.42315 -123.519204 
L 393.021611 -123.859508 
L 390.620072 -124.216964 
L 388.218533 -124.553748 
L 385.816994 -124.914249 
L 383.415455 -125.240752 
L 381.013916 -125.576147 
L 378.612377 -125.88001 
L 376.210838 -126.207323 
L 373.809299 -126.55488 
L 371.407759 -126.87614 
L 369.00622 -127.195126 
L 366.604681 -127.54761 
L 364.203142 -128.031447 
L 361.801603 -128.474748 
L 359.400064 -128.998417 
L 356.998525 -129.509264 
L 354.596986 -130.03956 
L 352.195447 -130.484034 
L 349.793908 -130.865216 
L 347.392369 -131.157556 
L 344.99083 -131.431452 
L 342.589291 -131.924144 
L 340.187751 -132.740105 
L 337.786212 -133.785203 
L 335.384673 -134.801355 
L 332.983134 -135.978793 
L 330.581595 -137.222555 
L 328.180056 -138.516221 
L 325.778517 -139.816891 
L 323.376978 -141.082129 
L 320.975439 -142.430004 
L 318.5739 -143.860008 
L 316.172361 -145.286619 
L 313.770822 -146.799042 
L 311.369283 -147.988673 
L 308.967743 -148.975672 
L 306.566204 -149.99867 
L 304.164665 -151.133301 
L 301.763126 -152.444899 
L 299.361587 -153.864073 
L 296.960048 -155.119689 
L 294.558509 -155.947151 
L 292.15697 -156.785854 
L 289.755431 -157.700341 
L 287.353892 -158.613429 
L 284.952353 -160.502567 
L 282.550814 -162.728277 
L 280.149275 -164.969284 
L 277.747735 -167.430073 
L 275.346196 -169.941822 
L 272.944657 -172.643076 
L 270.543118 -175.482552 
L 268.141579 -178.167516 
L 265.74004 -180.781992 
L 263.338501 -183.55854 
L 260.936962 -186.387179 
L 258.535423 -189.518076 
L 256.133884 -192.978 
L 253.732345 -196.803692 
L 251.330806 -200.753242 
L 248.929267 -204.592553 
L 246.527727 -208.464502 
L 244.126188 -212.931459 
L 241.724649 -217.339881 
L 239.32311 -222.054996 
L 236.921571 -227.02386 
L 234.520032 -232.22634 
L 232.118493 -237.203834 
L 229.716954 -241.793818 
L 227.315415 -246.267127 
L 224.913876 -251.134789 
L 222.512337 -256.40229 
L 220.110798 -261.946454 
L 217.709259 -268.201505 
L 215.307719 -274.697734 
L 212.90618 -281.606981 
L 210.504641 -288.655811 
L 208.103102 -295.224731 
L 205.701563 -302.584473 
L 203.300024 -310.436105 
L 200.898485 -318.569288 
L 198.496946 -326.957875 
L 196.095407 -335.881648 
L 193.693868 -345.097798 
L 191.292329 -354.013697 
L 188.89079 -362.953791 
L 186.48925 -372.102132 
L 184.087711 -381.530917 
L 181.686172 -391.015329 
L 179.284633 -400.647429 
L 176.883094 -409.650185 
L 174.481555 -418.677908 
L 172.080016 -427.510692 
L 169.678477 -436.275605 
L 167.276938 -445.481796 
z
" style="stroke: #d01e04; stroke-opacity: 0.2"/>
    </defs>
    <g clip-path="url(#pa2ca0fcf91)">
     <use xlink:href="#m8bca5eb184" x="0" y="600" style="fill: #d01e04; fill-opacity: 0.2; stroke: #d01e04; stroke-opacity: 0.2"/>
    </g>
   </g>
   <g id="PolyCollection_6">
    <defs>
     <path id="m22c66c2b09" d="M 116.844617 -590.416504 
L 116.844617 -572.247921 
L 119.246156 -568.702641 
L 121.647695 -565.520296 
L 124.049234 -561.924214 
L 126.450774 -558.362763 
L 128.852313 -554.986355 
L 131.253852 -551.87042 
L 133.655391 -548.275194 
L 136.05693 -544.646228 
L 138.458469 -540.786837 
L 140.860008 -536.605989 
L 143.261547 -529.119482 
L 145.663086 -521.501491 
L 148.064625 -513.589857 
L 150.466164 -505.616654 
L 152.867703 -497.559843 
L 155.269242 -489.229359 
L 157.670782 -480.758818 
L 160.072321 -472.430868 
L 162.47386 -463.717133 
L 164.875399 -454.648 
L 164.875399 -454.648 
L 164.875399 -454.648 
L 162.47386 -464.870637 
L 160.072321 -475.430834 
L 157.670782 -485.070446 
L 155.269242 -494.479618 
L 152.867703 -503.909139 
L 150.466164 -512.89804 
L 148.064625 -521.817338 
L 145.663086 -530.598143 
L 143.261547 -539.117528 
L 140.860008 -548.1598 
L 138.458469 -552.497838 
L 136.05693 -556.871273 
L 133.655391 -561.159431 
L 131.253852 -565.522201 
L 128.852313 -570.022191 
L 126.450774 -574.101083 
L 124.049234 -578.243824 
L 121.647695 -582.615411 
L 119.246156 -586.583864 
L 116.844617 -590.416504 
z
" style="stroke: #000000; stroke-opacity: 0.2"/>
    </defs>
    <g clip-path="url(#pa2ca0fcf91)">
     <use xlink:href="#m22c66c2b09" x="0" y="600" style="fill-opacity: 0.2; stroke: #000000; stroke-opacity: 0.2"/>
    </g>
   </g>
   <g id="matplotlib.axis_1">
    <g id="xtick_1">
     <g id="line2d_1">
      <defs>
       <path id="mb124ae2abb" d="M 0 0 
L 0 3.5 
" style="stroke: #000000; stroke-width: 0.8"/>
      </defs>
      <g>
       <use xlink:href="#mb124ae2abb" x="164.875399" y="515.56" style="stroke: #000000; stroke-width: 0.8"/>
      </g>
     </g>
     <g id="text_1">
      <!-- 2020 -->
      <g transform="translate(131.790399 542.315938)scale(0.26 -0.26)">
       <defs>
        <path id="DejaVuSans-32" d="M 1228 531 
L 3431 531 
L 3431 0 
L 469 0 
L 469 531 
Q 828 903 1448 1529 
Q 2069 2156 2228 2338 
Q 2531 2678 2651 2914 
Q 2772 3150 2772 3378 
Q 2772 3750 2511 3984 
Q 2250 4219 1831 4219 
Q 1534 4219 1204 4116 
Q 875 4013 500 3803 
L 500 4441 
Q 881 4594 1212 4672 
Q 1544 4750 1819 4750 
Q 2544 4750 2975 4387 
Q 3406 4025 3406 3419 
Q 3406 3131 3298 2873 
Q 3191 2616 2906 2266 
Q 2828 2175 2409 1742 
Q 1991 1309 1228 531 
z
" transform="scale(0.015625)"/>
        <path id="DejaVuSans-30" d="M 2034 4250 
Q 1547 4250 1301 3770 
Q 1056 3291 1056 2328 
Q 1056 1369 1301 889 
Q 1547 409 2034 409 
Q 2525 409 2770 889 
Q 3016 1369 3016 2328 
Q 3016 3291 2770 3770 
Q 2525 4250 2034 4250 
z
M 2034 4750 
Q 2819 4750 3233 4129 
Q 3647 3509 3647 2328 
Q 3647 1150 3233 529 
Q 2819 -91 2034 -91 
Q 1250 -91 836 529 
Q 422 1150 422 2328 
Q 422 3509 836 4129 
Q 1250 4750 2034 4750 
z
" transform="scale(0.015625)"/>
       </defs>
       <use xlink:href="#DejaVuSans-32"/>
       <use xlink:href="#DejaVuSans-30" x="63.623047"/>
       <use xlink:href="#DejaVuSans-32" x="127.246094"/>
       <use xlink:href="#DejaVuSans-30" x="190.869141"/>
      </g>
     </g>
    </g>
    <g id="xtick_2">
     <g id="line2d_2">
      <g>
       <use xlink:href="#mb124ae2abb" x="356.998525" y="515.56" style="stroke: #000000; stroke-width: 0.8"/>
      </g>
     </g>
     <g id="text_2">
      <!-- 2100 -->
      <g transform="translate(323.913525 542.315938)scale(0.26 -0.26)">
       <defs>
        <path id="DejaVuSans-31" d="M 794 531 
L 1825 531 
L 1825 4091 
L 703 3866 
L 703 4441 
L 1819 4666 
L 2450 4666 
L 2450 531 
L 3481 531 
L 3481 0 
L 794 0 
L 794 531 
z
" transform="scale(0.015625)"/>
       </defs>
       <use xlink:href="#DejaVuSans-32"/>
       <use xlink:href="#DejaVuSans-31" x="63.623047"/>
       <use xlink:href="#DejaVuSans-30" x="127.246094"/>
       <use xlink:href="#DejaVuSans-30" x="190.869141"/>
      </g>
     </g>
    </g>
    <g id="xtick_3">
     <g id="line2d_3">
      <g>
       <use xlink:href="#mb124ae2abb" x="597.152433" y="515.56" style="stroke: #000000; stroke-width: 0.8"/>
      </g>
     </g>
     <g id="text_3">
      <!-- 2200 -->
      <g transform="translate(564.067433 542.315938)scale(0.26 -0.26)">
       <use xlink:href="#DejaVuSans-32"/>
       <use xlink:href="#DejaVuSans-32" x="63.623047"/>
       <use xlink:href="#DejaVuSans-30" x="127.246094"/>
       <use xlink:href="#DejaVuSans-30" x="190.869141"/>
      </g>
     </g>
    </g>
    <g id="xtick_4">
     <g id="line2d_4">
      <g>
       <use xlink:href="#mb124ae2abb" x="837.306341" y="515.56" style="stroke: #000000; stroke-width: 0.8"/>
      </g>
     </g>
     <g id="text_4">
      <!-- 2300 -->
      <g transform="translate(804.221341 542.315938)scale(0.26 -0.26)">
       <defs>
        <path id="DejaVuSans-33" d="M 2597 2516 
Q 3050 2419 3304 2112 
Q 3559 1806 3559 1356 
Q 3559 666 3084 287 
Q 2609 -91 1734 -91 
Q 1441 -91 1130 -33 
Q 819 25 488 141 
L 488 750 
Q 750 597 1062 519 
Q 1375 441 1716 441 
Q 2309 441 2620 675 
Q 2931 909 2931 1356 
Q 2931 1769 2642 2001 
Q 2353 2234 1838 2234 
L 1294 2234 
L 1294 2753 
L 1863 2753 
Q 2328 2753 2575 2939 
Q 2822 3125 2822 3475 
Q 2822 3834 2567 4026 
Q 2313 4219 1838 4219 
Q 1578 4219 1281 4162 
Q 984 4106 628 3988 
L 628 4550 
Q 988 4650 1302 4700 
Q 1616 4750 1894 4750 
Q 2613 4750 3031 4423 
Q 3450 4097 3450 3541 
Q 3450 3153 3228 2886 
Q 3006 2619 2597 2516 
z
" transform="scale(0.015625)"/>
       </defs>
       <use xlink:href="#DejaVuSans-32"/>
       <use xlink:href="#DejaVuSans-33" x="63.623047"/>
       <use xlink:href="#DejaVuSans-30" x="127.246094"/>
       <use xlink:href="#DejaVuSans-30" x="190.869141"/>
      </g>
     </g>
    </g>
    <g id="text_5">
     <!-- Year -->
     <g transform="translate(457.010409 568.439687)scale(0.22 -0.22)">
      <defs>
       <path id="DejaVuSans-Bold-59" d="M -63 4666 
L 1253 4666 
L 2316 3003 
L 3378 4666 
L 4697 4666 
L 2919 1966 
L 2919 0 
L 1716 0 
L 1716 1966 
L -63 4666 
z
" transform="scale(0.015625)"/>
       <path id="DejaVuSans-Bold-65" d="M 4031 1759 
L 4031 1441 
L 1416 1441 
Q 1456 1047 1700 850 
Q 1944 653 2381 653 
Q 2734 653 3104 758 
Q 3475 863 3866 1075 
L 3866 213 
Q 3469 63 3072 -14 
Q 2675 -91 2278 -91 
Q 1328 -91 801 392 
Q 275 875 275 1747 
Q 275 2603 792 3093 
Q 1309 3584 2216 3584 
Q 3041 3584 3536 3087 
Q 4031 2591 4031 1759 
z
M 2881 2131 
Q 2881 2450 2695 2645 
Q 2509 2841 2209 2841 
Q 1884 2841 1681 2658 
Q 1478 2475 1428 2131 
L 2881 2131 
z
" transform="scale(0.015625)"/>
       <path id="DejaVuSans-Bold-61" d="M 2106 1575 
Q 1756 1575 1579 1456 
Q 1403 1338 1403 1106 
Q 1403 894 1545 773 
Q 1688 653 1941 653 
Q 2256 653 2472 879 
Q 2688 1106 2688 1447 
L 2688 1575 
L 2106 1575 
z
M 3816 1997 
L 3816 0 
L 2688 0 
L 2688 519 
Q 2463 200 2181 54 
Q 1900 -91 1497 -91 
Q 953 -91 614 226 
Q 275 544 275 1050 
Q 275 1666 698 1953 
Q 1122 2241 2028 2241 
L 2688 2241 
L 2688 2328 
Q 2688 2594 2478 2717 
Q 2269 2841 1825 2841 
Q 1466 2841 1156 2769 
Q 847 2697 581 2553 
L 581 3406 
Q 941 3494 1303 3539 
Q 1666 3584 2028 3584 
Q 2975 3584 3395 3211 
Q 3816 2838 3816 1997 
z
" transform="scale(0.015625)"/>
       <path id="DejaVuSans-Bold-72" d="M 3138 2547 
Q 2991 2616 2845 2648 
Q 2700 2681 2553 2681 
Q 2122 2681 1889 2404 
Q 1656 2128 1656 1613 
L 1656 0 
L 538 0 
L 538 3500 
L 1656 3500 
L 1656 2925 
Q 1872 3269 2151 3426 
Q 2431 3584 2822 3584 
Q 2878 3584 2943 3579 
Q 3009 3575 3134 3559 
L 3138 2547 
z
" transform="scale(0.015625)"/>
      </defs>
      <use xlink:href="#DejaVuSans-Bold-59"/>
      <use xlink:href="#DejaVuSans-Bold-65" x="63.287109"/>
      <use xlink:href="#DejaVuSans-Bold-61" x="131.109375"/>
      <use xlink:href="#DejaVuSans-Bold-72" x="198.589844"/>
     </g>
    </g>
   </g>
   <g id="matplotlib.axis_2">
    <g id="ytick_1">
     <g id="line2d_5">
      <defs>
       <path id="m21d0d58c6a" d="M 0 0 
L -3.5 0 
" style="stroke: #000000; stroke-width: 0.8"/>
      </defs>
      <g>
       <use xlink:href="#m21d0d58c6a" x="109.64" y="515.56" style="stroke: #000000; stroke-width: 0.8"/>
      </g>
     </g>
     <g id="text_6">
      <!-- 0 -->
      <g transform="translate(86.0975 525.437969)scale(0.26 -0.26)">
       <use xlink:href="#DejaVuSans-30"/>
      </g>
     </g>
    </g>
    <g id="ytick_2">
     <g id="line2d_6">
      <g>
       <use xlink:href="#m21d0d58c6a" x="109.64" y="441.5184" style="stroke: #000000; stroke-width: 0.8"/>
      </g>
     </g>
     <g id="text_7">
      <!-- 20 -->
      <g transform="translate(69.555 451.396369)scale(0.26 -0.26)">
       <use xlink:href="#DejaVuSans-32"/>
       <use xlink:href="#DejaVuSans-30" x="63.623047"/>
      </g>
     </g>
    </g>
    <g id="ytick_3">
     <g id="line2d_7">
      <g>
       <use xlink:href="#m21d0d58c6a" x="109.64" y="367.4768" style="stroke: #000000; stroke-width: 0.8"/>
      </g>
     </g>
     <g id="text_8">
      <!-- 40 -->
      <g transform="translate(69.555 377.354769)scale(0.26 -0.26)">
       <defs>
        <path id="DejaVuSans-34" d="M 2419 4116 
L 825 1625 
L 2419 1625 
L 2419 4116 
z
M 2253 4666 
L 3047 4666 
L 3047 1625 
L 3713 1625 
L 3713 1100 
L 3047 1100 
L 3047 0 
L 2419 0 
L 2419 1100 
L 313 1100 
L 313 1709 
L 2253 4666 
z
" transform="scale(0.015625)"/>
       </defs>
       <use xlink:href="#DejaVuSans-34"/>
       <use xlink:href="#DejaVuSans-30" x="63.623047"/>
      </g>
     </g>
    </g>
    <g id="ytick_4">
     <g id="line2d_8">
      <g>
       <use xlink:href="#m21d0d58c6a" x="109.64" y="293.4352" style="stroke: #000000; stroke-width: 0.8"/>
      </g>
     </g>
     <g id="text_9">
      <!-- 60 -->
      <g transform="translate(69.555 303.313169)scale(0.26 -0.26)">
       <defs>
        <path id="DejaVuSans-36" d="M 2113 2584 
Q 1688 2584 1439 2293 
Q 1191 2003 1191 1497 
Q 1191 994 1439 701 
Q 1688 409 2113 409 
Q 2538 409 2786 701 
Q 3034 994 3034 1497 
Q 3034 2003 2786 2293 
Q 2538 2584 2113 2584 
z
M 3366 4563 
L 3366 3988 
Q 3128 4100 2886 4159 
Q 2644 4219 2406 4219 
Q 1781 4219 1451 3797 
Q 1122 3375 1075 2522 
Q 1259 2794 1537 2939 
Q 1816 3084 2150 3084 
Q 2853 3084 3261 2657 
Q 3669 2231 3669 1497 
Q 3669 778 3244 343 
Q 2819 -91 2113 -91 
Q 1303 -91 875 529 
Q 447 1150 447 2328 
Q 447 3434 972 4092 
Q 1497 4750 2381 4750 
Q 2619 4750 2861 4703 
Q 3103 4656 3366 4563 
z
" transform="scale(0.015625)"/>
       </defs>
       <use xlink:href="#DejaVuSans-36"/>
       <use xlink:href="#DejaVuSans-30" x="63.623047"/>
      </g>
     </g>
    </g>
    <g id="ytick_5">
     <g id="line2d_9">
      <g>
       <use xlink:href="#m21d0d58c6a" x="109.64" y="219.3936" style="stroke: #000000; stroke-width: 0.8"/>
      </g>
     </g>
     <g id="text_10">
      <!-- 80 -->
      <g transform="translate(69.555 229.271569)scale(0.26 -0.26)">
       <defs>
        <path id="DejaVuSans-38" d="M 2034 2216 
Q 1584 2216 1326 1975 
Q 1069 1734 1069 1313 
Q 1069 891 1326 650 
Q 1584 409 2034 409 
Q 2484 409 2743 651 
Q 3003 894 3003 1313 
Q 3003 1734 2745 1975 
Q 2488 2216 2034 2216 
z
M 1403 2484 
Q 997 2584 770 2862 
Q 544 3141 544 3541 
Q 544 4100 942 4425 
Q 1341 4750 2034 4750 
Q 2731 4750 3128 4425 
Q 3525 4100 3525 3541 
Q 3525 3141 3298 2862 
Q 3072 2584 2669 2484 
Q 3125 2378 3379 2068 
Q 3634 1759 3634 1313 
Q 3634 634 3220 271 
Q 2806 -91 2034 -91 
Q 1263 -91 848 271 
Q 434 634 434 1313 
Q 434 1759 690 2068 
Q 947 2378 1403 2484 
z
M 1172 3481 
Q 1172 3119 1398 2916 
Q 1625 2713 2034 2713 
Q 2441 2713 2670 2916 
Q 2900 3119 2900 3481 
Q 2900 3844 2670 4047 
Q 2441 4250 2034 4250 
Q 1625 4250 1398 4047 
Q 1172 3844 1172 3481 
z
" transform="scale(0.015625)"/>
       </defs>
       <use xlink:href="#DejaVuSans-38"/>
       <use xlink:href="#DejaVuSans-30" x="63.623047"/>
      </g>
     </g>
    </g>
    <g id="ytick_6">
     <g id="line2d_10">
      <g>
       <use xlink:href="#m21d0d58c6a" x="109.64" y="145.352" style="stroke: #000000; stroke-width: 0.8"/>
      </g>
     </g>
     <g id="text_11">
      <!-- 100 -->
      <g transform="translate(53.0125 155.229969)scale(0.26 -0.26)">
       <use xlink:href="#DejaVuSans-31"/>
       <use xlink:href="#DejaVuSans-30" x="63.623047"/>
       <use xlink:href="#DejaVuSans-30" x="127.246094"/>
      </g>
     </g>
    </g>
    <g id="ytick_7">
     <g id="line2d_11">
      <g>
       <use xlink:href="#m21d0d58c6a" x="109.64" y="71.3104" style="stroke: #000000; stroke-width: 0.8"/>
      </g>
     </g>
     <g id="text_12">
      <!-- 120 -->
      <g transform="translate(53.0125 81.188369)scale(0.26 -0.26)">
       <use xlink:href="#DejaVuSans-31"/>
       <use xlink:href="#DejaVuSans-32" x="63.623047"/>
       <use xlink:href="#DejaVuSans-30" x="127.246094"/>
      </g>
     </g>
    </g>
    <g id="text_13">
     <!-- % of Remaining Glacier Mass -->
     <g transform="translate(44.265313 463.619219)rotate(-90)scale(0.22 -0.22)">
      <defs>
       <path id="DejaVuSans-Bold-25" d="M 4959 1925 
Q 4738 1925 4616 1733 
Q 4494 1541 4494 1184 
Q 4494 825 4614 633 
Q 4734 441 4959 441 
Q 5184 441 5303 633 
Q 5422 825 5422 1184 
Q 5422 1541 5301 1733 
Q 5181 1925 4959 1925 
z
M 4959 2450 
Q 5541 2450 5875 2112 
Q 6209 1775 6209 1184 
Q 6209 594 5875 251 
Q 5541 -91 4959 -91 
Q 4378 -91 4042 251 
Q 3706 594 3706 1184 
Q 3706 1772 4042 2111 
Q 4378 2450 4959 2450 
z
M 2094 -91 
L 1403 -91 
L 4319 4750 
L 5013 4750 
L 2094 -91 
z
M 1453 4750 
Q 2034 4750 2367 4411 
Q 2700 4072 2700 3481 
Q 2700 2891 2367 2550 
Q 2034 2209 1453 2209 
Q 872 2209 539 2550 
Q 206 2891 206 3481 
Q 206 4072 539 4411 
Q 872 4750 1453 4750 
z
M 1453 4225 
Q 1228 4225 1106 4031 
Q 984 3838 984 3481 
Q 984 3122 1106 2926 
Q 1228 2731 1453 2731 
Q 1678 2731 1798 2926 
Q 1919 3122 1919 3481 
Q 1919 3838 1797 4031 
Q 1675 4225 1453 4225 
z
" transform="scale(0.015625)"/>
       <path id="DejaVuSans-Bold-20" transform="scale(0.015625)"/>
       <path id="DejaVuSans-Bold-6f" d="M 2203 2784 
Q 1831 2784 1636 2517 
Q 1441 2250 1441 1747 
Q 1441 1244 1636 976 
Q 1831 709 2203 709 
Q 2569 709 2762 976 
Q 2956 1244 2956 1747 
Q 2956 2250 2762 2517 
Q 2569 2784 2203 2784 
z
M 2203 3584 
Q 3106 3584 3614 3096 
Q 4122 2609 4122 1747 
Q 4122 884 3614 396 
Q 3106 -91 2203 -91 
Q 1297 -91 786 396 
Q 275 884 275 1747 
Q 275 2609 786 3096 
Q 1297 3584 2203 3584 
z
" transform="scale(0.015625)"/>
       <path id="DejaVuSans-Bold-66" d="M 2841 4863 
L 2841 4128 
L 2222 4128 
Q 1984 4128 1890 4042 
Q 1797 3956 1797 3744 
L 1797 3500 
L 2753 3500 
L 2753 2700 
L 1797 2700 
L 1797 0 
L 678 0 
L 678 2700 
L 122 2700 
L 122 3500 
L 678 3500 
L 678 3744 
Q 678 4316 997 4589 
Q 1316 4863 1984 4863 
L 2841 4863 
z
" transform="scale(0.015625)"/>
       <path id="DejaVuSans-Bold-52" d="M 2297 2597 
Q 2675 2597 2839 2737 
Q 3003 2878 3003 3200 
Q 3003 3519 2839 3656 
Q 2675 3794 2297 3794 
L 1791 3794 
L 1791 2597 
L 2297 2597 
z
M 1791 1766 
L 1791 0 
L 588 0 
L 588 4666 
L 2425 4666 
Q 3347 4666 3776 4356 
Q 4206 4047 4206 3378 
Q 4206 2916 3982 2619 
Q 3759 2322 3309 2181 
Q 3556 2125 3751 1926 
Q 3947 1728 4147 1325 
L 4800 0 
L 3519 0 
L 2950 1159 
Q 2778 1509 2601 1637 
Q 2425 1766 2131 1766 
L 1791 1766 
z
" transform="scale(0.015625)"/>
       <path id="DejaVuSans-Bold-6d" d="M 3781 2919 
Q 3994 3244 4286 3414 
Q 4578 3584 4928 3584 
Q 5531 3584 5847 3212 
Q 6163 2841 6163 2131 
L 6163 0 
L 5038 0 
L 5038 1825 
Q 5041 1866 5042 1909 
Q 5044 1953 5044 2034 
Q 5044 2406 4934 2573 
Q 4825 2741 4581 2741 
Q 4263 2741 4089 2478 
Q 3916 2216 3909 1719 
L 3909 0 
L 2784 0 
L 2784 1825 
Q 2784 2406 2684 2573 
Q 2584 2741 2328 2741 
Q 2006 2741 1831 2477 
Q 1656 2213 1656 1722 
L 1656 0 
L 531 0 
L 531 3500 
L 1656 3500 
L 1656 2988 
Q 1863 3284 2130 3434 
Q 2397 3584 2719 3584 
Q 3081 3584 3359 3409 
Q 3638 3234 3781 2919 
z
" transform="scale(0.015625)"/>
       <path id="DejaVuSans-Bold-69" d="M 538 3500 
L 1656 3500 
L 1656 0 
L 538 0 
L 538 3500 
z
M 538 4863 
L 1656 4863 
L 1656 3950 
L 538 3950 
L 538 4863 
z
" transform="scale(0.015625)"/>
       <path id="DejaVuSans-Bold-6e" d="M 4056 2131 
L 4056 0 
L 2931 0 
L 2931 347 
L 2931 1631 
Q 2931 2084 2911 2256 
Q 2891 2428 2841 2509 
Q 2775 2619 2662 2680 
Q 2550 2741 2406 2741 
Q 2056 2741 1856 2470 
Q 1656 2200 1656 1722 
L 1656 0 
L 538 0 
L 538 3500 
L 1656 3500 
L 1656 2988 
Q 1909 3294 2193 3439 
Q 2478 3584 2822 3584 
Q 3428 3584 3742 3212 
Q 4056 2841 4056 2131 
z
" transform="scale(0.015625)"/>
       <path id="DejaVuSans-Bold-67" d="M 2919 594 
Q 2688 288 2409 144 
Q 2131 0 1766 0 
Q 1125 0 706 504 
Q 288 1009 288 1791 
Q 288 2575 706 3076 
Q 1125 3578 1766 3578 
Q 2131 3578 2409 3434 
Q 2688 3291 2919 2981 
L 2919 3500 
L 4044 3500 
L 4044 353 
Q 4044 -491 3511 -936 
Q 2978 -1381 1966 -1381 
Q 1638 -1381 1331 -1331 
Q 1025 -1281 716 -1178 
L 716 -306 
Q 1009 -475 1290 -558 
Q 1572 -641 1856 -641 
Q 2406 -641 2662 -400 
Q 2919 -159 2919 353 
L 2919 594 
z
M 2181 2772 
Q 1834 2772 1640 2515 
Q 1447 2259 1447 1791 
Q 1447 1309 1634 1061 
Q 1822 813 2181 813 
Q 2531 813 2725 1069 
Q 2919 1325 2919 1791 
Q 2919 2259 2725 2515 
Q 2531 2772 2181 2772 
z
" transform="scale(0.015625)"/>
       <path id="DejaVuSans-Bold-47" d="M 4781 347 
Q 4331 128 3847 18 
Q 3363 -91 2847 -91 
Q 1681 -91 1000 561 
Q 319 1213 319 2328 
Q 319 3456 1012 4103 
Q 1706 4750 2913 4750 
Q 3378 4750 3804 4662 
Q 4231 4575 4609 4403 
L 4609 3438 
Q 4219 3659 3833 3768 
Q 3447 3878 3059 3878 
Q 2341 3878 1952 3476 
Q 1563 3075 1563 2328 
Q 1563 1588 1938 1184 
Q 2313 781 3003 781 
Q 3191 781 3352 804 
Q 3513 828 3641 878 
L 3641 1784 
L 2906 1784 
L 2906 2591 
L 4781 2591 
L 4781 347 
z
" transform="scale(0.015625)"/>
       <path id="DejaVuSans-Bold-6c" d="M 538 4863 
L 1656 4863 
L 1656 0 
L 538 0 
L 538 4863 
z
" transform="scale(0.015625)"/>
       <path id="DejaVuSans-Bold-63" d="M 3366 3391 
L 3366 2478 
Q 3138 2634 2908 2709 
Q 2678 2784 2431 2784 
Q 1963 2784 1702 2511 
Q 1441 2238 1441 1747 
Q 1441 1256 1702 982 
Q 1963 709 2431 709 
Q 2694 709 2930 787 
Q 3166 866 3366 1019 
L 3366 103 
Q 3103 6 2833 -42 
Q 2563 -91 2291 -91 
Q 1344 -91 809 395 
Q 275 881 275 1747 
Q 275 2613 809 3098 
Q 1344 3584 2291 3584 
Q 2566 3584 2833 3536 
Q 3100 3488 3366 3391 
z
" transform="scale(0.015625)"/>
       <path id="DejaVuSans-Bold-4d" d="M 588 4666 
L 2119 4666 
L 3181 2169 
L 4250 4666 
L 5778 4666 
L 5778 0 
L 4641 0 
L 4641 3413 
L 3566 897 
L 2803 897 
L 1728 3413 
L 1728 0 
L 588 0 
L 588 4666 
z
" transform="scale(0.015625)"/>
       <path id="DejaVuSans-Bold-73" d="M 3272 3391 
L 3272 2541 
Q 2913 2691 2578 2766 
Q 2244 2841 1947 2841 
Q 1628 2841 1473 2761 
Q 1319 2681 1319 2516 
Q 1319 2381 1436 2309 
Q 1553 2238 1856 2203 
L 2053 2175 
Q 2913 2066 3209 1816 
Q 3506 1566 3506 1031 
Q 3506 472 3093 190 
Q 2681 -91 1863 -91 
Q 1516 -91 1145 -36 
Q 775 19 384 128 
L 384 978 
Q 719 816 1070 734 
Q 1422 653 1784 653 
Q 2113 653 2278 743 
Q 2444 834 2444 1013 
Q 2444 1163 2330 1236 
Q 2216 1309 1875 1350 
L 1678 1375 
Q 931 1469 631 1722 
Q 331 1975 331 2491 
Q 331 3047 712 3315 
Q 1094 3584 1881 3584 
Q 2191 3584 2531 3537 
Q 2872 3491 3272 3391 
z
" transform="scale(0.015625)"/>
      </defs>
      <use xlink:href="#DejaVuSans-Bold-25"/>
      <use xlink:href="#DejaVuSans-Bold-20" x="100.195312"/>
      <use xlink:href="#DejaVuSans-Bold-6f" x="135.009766"/>
      <use xlink:href="#DejaVuSans-Bold-66" x="203.710938"/>
      <use xlink:href="#DejaVuSans-Bold-20" x="247.216797"/>
      <use xlink:href="#DejaVuSans-Bold-52" x="282.03125"/>
      <use xlink:href="#DejaVuSans-Bold-65" x="359.033203"/>
      <use xlink:href="#DejaVuSans-Bold-6d" x="426.855469"/>
      <use xlink:href="#DejaVuSans-Bold-61" x="531.054688"/>
      <use xlink:href="#DejaVuSans-Bold-69" x="598.535156"/>
      <use xlink:href="#DejaVuSans-Bold-6e" x="632.8125"/>
      <use xlink:href="#DejaVuSans-Bold-69" x="704.003906"/>
      <use xlink:href="#DejaVuSans-Bold-6e" x="738.28125"/>
      <use xlink:href="#DejaVuSans-Bold-67" x="809.472656"/>
      <use xlink:href="#DejaVuSans-Bold-20" x="881.054688"/>
      <use xlink:href="#DejaVuSans-Bold-47" x="915.869141"/>
      <use xlink:href="#DejaVuSans-Bold-6c" x="997.949219"/>
      <use xlink:href="#DejaVuSans-Bold-61" x="1032.226562"/>
      <use xlink:href="#DejaVuSans-Bold-63" x="1099.707031"/>
      <use xlink:href="#DejaVuSans-Bold-69" x="1158.984375"/>
      <use xlink:href="#DejaVuSans-Bold-65" x="1193.261719"/>
      <use xlink:href="#DejaVuSans-Bold-72" x="1261.083984"/>
      <use xlink:href="#DejaVuSans-Bold-20" x="1310.400391"/>
      <use xlink:href="#DejaVuSans-Bold-4d" x="1345.214844"/>
      <use xlink:href="#DejaVuSans-Bold-61" x="1444.726562"/>
      <use xlink:href="#DejaVuSans-Bold-73" x="1512.207031"/>
      <use xlink:href="#DejaVuSans-Bold-73" x="1571.728516"/>
     </g>
    </g>
   </g>
   <g id="line2d_12">
    <path d="M 167.276938 153.748708 
L 172.080016 170.765575 
L 174.481555 178.75807 
L 186.48925 222.935857 
L 191.292329 238.793976 
L 193.693868 246.289265 
L 198.496946 260.491992 
L 205.701563 282.845157 
L 208.103102 289.245746 
L 217.709259 316.029618 
L 224.913876 333.42214 
L 229.716954 343.542251 
L 234.520032 353.365741 
L 236.921571 358.53277 
L 239.32311 363.206705 
L 244.126188 370.620687 
L 246.527727 374.062905 
L 248.929267 377.128705 
L 251.330806 379.636971 
L 256.133884 383.855197 
L 260.936962 387.490426 
L 265.74004 390.617731 
L 270.543118 394.582322 
L 272.944657 396.270646 
L 275.346196 398.165898 
L 282.550814 403.116212 
L 292.15697 408.16758 
L 294.558509 409.174569 
L 301.763126 411.405915 
L 304.164665 412.326766 
L 313.770822 414.787595 
L 316.172361 415.268926 
L 318.5739 415.633175 
L 323.376978 415.705144 
L 332.983134 414.367237 
L 337.786212 413.80301 
L 342.589291 413.548991 
L 344.99083 413.610373 
L 356.998525 413.042487 
L 359.400064 412.803369 
L 366.604681 412.366585 
L 369.00622 412.240334 
L 371.407759 411.896255 
L 373.809299 411.90245 
L 376.210838 411.717929 
L 381.013916 410.874998 
L 388.218533 410.365416 
L 390.620072 410.549875 
L 395.42315 410.50965 
L 397.824689 410.324908 
L 402.627768 410.409276 
L 405.029307 410.327388 
L 409.832385 410.438994 
L 414.635463 410.204454 
L 417.037002 410.233113 
L 421.84008 410.518713 
L 424.241619 410.533734 
L 429.044697 410.97696 
L 431.446236 411.025099 
L 433.847776 410.942798 
L 436.249315 410.667782 
L 438.650854 410.190742 
L 441.052393 409.877576 
L 443.453932 409.864616 
L 450.658549 409.20094 
L 455.461627 409.052047 
L 457.863166 408.774907 
L 462.666244 408.711964 
L 474.67394 409.418369 
L 477.075479 409.812991 
L 489.083174 410.708905 
L 491.484713 410.799499 
L 493.886252 411.077079 
L 498.689331 411.312904 
L 503.492409 411.158177 
L 505.893948 410.696905 
L 508.295487 410.060802 
L 510.697026 409.227959 
L 517.901643 406.201778 
L 520.303182 405.460258 
L 527.5078 402.791521 
L 532.310878 401.614427 
L 541.917034 399.868638 
L 546.720112 398.491988 
L 551.52319 397.29197 
L 558.727808 396.157763 
L 568.333964 395.549558 
L 573.137042 394.808745 
L 575.538581 394.341013 
L 580.341659 392.294832 
L 585.144737 389.980656 
L 587.546277 389.072048 
L 589.947816 388.334953 
L 592.349355 387.970256 
L 597.152433 387.439962 
L 599.553972 387.140163 
L 601.955511 387.146654 
L 606.758589 387.580577 
L 611.561667 387.816861 
L 616.364745 388.503799 
L 623.569363 389.051316 
L 625.970902 389.493753 
L 628.372441 389.765509 
L 630.77398 390.174408 
L 635.577058 390.705254 
L 637.978597 390.674978 
L 640.380136 390.180332 
L 642.781675 389.491811 
L 647.584753 388.498691 
L 649.986293 387.645845 
L 654.789371 385.660907 
L 657.19091 384.863949 
L 671.600144 379.147287 
L 674.001683 378.305943 
L 676.403222 377.727924 
L 681.206301 375.904745 
L 686.009379 374.622771 
L 690.812457 374.35543 
L 693.213996 374.043082 
L 700.418613 373.790335 
L 702.820152 373.599815 
L 707.62323 372.69802 
L 712.426309 371.133242 
L 719.630926 369.558756 
L 726.835543 368.697763 
L 729.237082 368.627254 
L 741.244777 366.886539 
L 746.047856 365.647776 
L 748.449395 365.182672 
L 753.252473 364.752095 
L 755.654012 364.391093 
L 765.260168 365.207446 
L 777.267864 365.31477 
L 779.669403 365.035393 
L 784.472481 364.019154 
L 789.275559 362.904249 
L 791.677098 362.66149 
L 794.078637 362.625398 
L 796.480176 362.348876 
L 798.881715 361.625066 
L 801.283254 360.706386 
L 803.684794 360.004944 
L 806.086333 358.823331 
L 810.889411 356.156886 
L 813.29095 354.486755 
L 815.692489 353.171063 
L 818.094028 352.516396 
L 822.897106 350.712079 
L 825.298645 349.746343 
L 827.700184 348.902839 
L 832.503262 347.550413 
L 834.904802 347.018329 
L 837.306341 346.256592 
L 837.306341 346.256592 
" clip-path="url(#pa2ca0fcf91)" style="fill: none; stroke: #74b8f8; stroke-opacity: 0.5; stroke-width: 6; stroke-linecap: square"/>
   </g>
   <g id="line2d_13">
    <path d="M 116.844617 24.400998 
L 119.246156 28.157727 
L 121.647695 31.70764 
L 124.049234 35.489473 
L 126.450774 39.317107 
L 128.852313 42.781394 
L 131.253852 46.028658 
L 133.655391 49.591078 
L 136.05693 53.086116 
L 138.458469 56.279959 
L 140.860008 59.991694 
L 143.261547 67.985343 
L 145.663086 76.264188 
L 148.064625 85.143943 
L 150.466164 93.87898 
L 152.867703 102.16756 
L 155.269242 110.563594 
L 157.670782 118.94181 
L 160.072321 127.990541 
L 162.47386 136.769052 
L 164.875399 145.352 
" clip-path="url(#pa2ca0fcf91)" style="fill: none; stroke: #000000; stroke-opacity: 0.5; stroke-width: 6; stroke-linecap: square"/>
   </g>
   <g id="line2d_14">
    <path d="M 167.276938 154.320291 
L 174.481555 181.897615 
L 179.284633 199.772262 
L 184.087711 217.689488 
L 191.292329 243.936073 
L 193.693868 253.130679 
L 198.496946 269.997261 
L 200.898485 278.198832 
L 203.300024 286.87687 
L 205.701563 294.699679 
L 208.103102 302.0604 
L 212.90618 315.609066 
L 217.709259 330.741705 
L 224.913876 352.255744 
L 227.315415 358.373528 
L 234.520032 375.576092 
L 239.32311 386.113961 
L 246.527727 399.376918 
L 251.330806 407.79849 
L 253.732345 411.701278 
L 256.133884 415.288519 
L 258.535423 418.433423 
L 260.936962 420.806916 
L 263.338501 422.947421 
L 270.543118 430.306379 
L 272.944657 432.421474 
L 275.346196 434.361298 
L 277.747735 436.094798 
L 280.149275 437.674612 
L 284.952353 440.265617 
L 289.755431 442.630399 
L 292.15697 443.447393 
L 294.558509 443.721204 
L 299.361587 443.957005 
L 301.763126 444.324821 
L 318.5739 452.136083 
L 323.376978 454.138082 
L 325.778517 455.017211 
L 337.786212 457.415397 
L 344.99083 458.433845 
L 349.793908 460.088858 
L 354.596986 461.393962 
L 364.203142 463.497445 
L 371.407759 464.532224 
L 373.809299 464.860832 
L 381.013916 466.366633 
L 383.415455 466.530672 
L 385.816994 466.498545 
L 390.620072 466.221348 
L 397.824689 466.195803 
L 402.627768 465.996518 
L 424.241619 464.185697 
L 429.044697 463.639744 
L 441.052393 462.041904 
L 453.060088 461.555465 
L 462.666244 462.014388 
L 479.477018 463.984359 
L 493.886252 462.755818 
L 498.689331 462.383918 
L 508.295487 461.500635 
L 527.5078 459.246127 
L 532.310878 458.915776 
L 537.113956 458.342767 
L 541.917034 457.482592 
L 549.121651 456.291702 
L 563.530886 454.395296 
L 573.137042 453.431987 
L 585.144737 451.889844 
L 587.546277 451.635078 
L 589.947816 451.56137 
L 597.152433 451.003028 
L 601.955511 450.826082 
L 613.963206 450.909881 
L 621.167824 450.98152 
L 628.372441 451.475053 
L 633.175519 452.114541 
L 637.978597 452.919286 
L 642.781675 453.726622 
L 649.986293 454.312723 
L 652.387832 454.383988 
L 654.789371 454.290281 
L 659.592449 454.39244 
L 666.797066 454.78687 
L 669.198605 454.721802 
L 676.403222 454.189867 
L 690.812457 453.327713 
L 702.820152 452.494771 
L 712.426309 452.148701 
L 717.229387 451.987769 
L 722.032465 452.010234 
L 726.835543 451.762347 
L 736.441699 451.204154 
L 743.646317 450.35888 
L 750.850934 449.518195 
L 755.654012 448.802731 
L 760.45709 448.361799 
L 765.260168 447.594778 
L 772.464786 445.967049 
L 784.472481 443.235958 
L 794.078637 441.60247 
L 803.684794 439.991547 
L 806.086333 439.402171 
L 808.487872 438.937825 
L 815.692489 437.831403 
L 820.495567 437.606808 
L 825.298645 437.294209 
L 834.904802 436.837359 
L 837.306341 436.642057 
L 837.306341 436.642057 
" clip-path="url(#pa2ca0fcf91)" style="fill: none; stroke: #f47100; stroke-opacity: 0.5; stroke-width: 6; stroke-linecap: square"/>
   </g>
   <g id="line2d_15">
    <path d="M 116.844617 23.442373 
L 119.246156 27.018975 
L 121.647695 30.229435 
L 124.049234 33.97643 
L 126.450774 38.409763 
L 128.852313 42.986974 
L 131.253852 47.006469 
L 133.655391 50.610334 
L 136.05693 54.248019 
L 138.458469 58.116683 
L 140.860008 62.307577 
L 143.261547 69.812072 
L 145.663086 77.316431 
L 148.064625 85.176288 
L 150.466164 93.739052 
L 152.867703 101.878473 
L 155.269242 110.142292 
L 157.670782 118.946866 
L 160.072321 127.637862 
L 162.47386 136.360059 
L 164.875399 145.352 
" clip-path="url(#pa2ca0fcf91)" style="fill: none; stroke: #000000; stroke-opacity: 0.5; stroke-width: 6; stroke-linecap: square"/>
   </g>
   <g id="line2d_16">
    <path d="M 167.276938 155.11039 
L 176.883094 195.513171 
L 181.686172 216.302096 
L 186.48925 235.700223 
L 191.292329 254.010425 
L 203.300024 297.133918 
L 205.701563 304.957014 
L 215.307719 333.738902 
L 217.709259 340.421893 
L 220.110798 347.566259 
L 224.913876 359.932288 
L 229.716954 371.549497 
L 232.118493 377.017826 
L 234.520032 382.092546 
L 241.724649 398.563553 
L 244.126188 403.748694 
L 248.929267 413.109755 
L 256.133884 426.472452 
L 258.535423 430.416386 
L 260.936962 432.667699 
L 265.74004 436.674057 
L 270.543118 440.26899 
L 272.944657 441.921665 
L 275.346196 444.044192 
L 277.747735 446.466517 
L 280.149275 448.653986 
L 284.952353 452.591648 
L 292.15697 457.835103 
L 294.558509 458.90479 
L 299.361587 460.474413 
L 304.164665 461.749321 
L 313.770822 463.672151 
L 323.376978 468.009652 
L 325.778517 468.996092 
L 332.983134 471.544594 
L 335.384673 472.042361 
L 337.786212 472.345561 
L 340.187751 472.785423 
L 342.589291 473.441078 
L 356.998525 479.488389 
L 361.801603 481.053741 
L 369.00622 483.059337 
L 378.612377 485.777168 
L 381.013916 486.233646 
L 400.226228 488.534619 
L 409.832385 489.7331 
L 414.635463 490.257419 
L 424.241619 490.974691 
L 433.847776 491.215591 
L 443.453932 491.300423 
L 460.264705 490.663266 
L 486.681635 490.078442 
L 501.09087 489.281133 
L 510.697026 488.919993 
L 527.5078 488.501134 
L 539.515495 488.290475 
L 551.52319 488.48357 
L 594.750894 490.118549 
L 604.35705 490.490496 
L 637.978597 491.12066 
L 652.387832 490.927886 
L 666.797066 491.018486 
L 683.60784 491.151566 
L 698.017074 491.253976 
L 712.426309 490.968351 
L 726.835543 490.328036 
L 734.04016 489.964536 
L 750.850934 489.377801 
L 760.45709 489.494129 
L 770.063246 490.02689 
L 779.669403 490.667328 
L 784.472481 490.927525 
L 791.677098 491.637627 
L 808.487872 493.090756 
L 815.692489 493.464453 
L 825.298645 493.729535 
L 837.306341 494.40695 
L 837.306341 494.40695 
" clip-path="url(#pa2ca0fcf91)" style="fill: none; stroke: #d01e04; stroke-opacity: 0.5; stroke-width: 6; stroke-linecap: square"/>
   </g>
   <g id="line2d_17">
    <path d="M 116.844617 20.64157 
L 119.246156 24.238527 
L 121.647695 27.467259 
L 124.049234 31.11576 
L 126.450774 34.729124 
L 128.852313 38.154748 
L 131.253852 41.316102 
L 133.655391 44.963734 
L 136.05693 48.645597 
L 138.458469 52.561245 
L 140.860008 56.803035 
L 143.261547 64.398668 
L 145.663086 72.198068 
L 148.064625 80.546455 
L 150.466164 89.603287 
L 152.867703 98.268179 
L 155.269242 107.176916 
L 157.670782 116.413859 
L 160.072321 125.471491 
L 162.47386 135.293243 
L 164.875399 145.352 
" clip-path="url(#pa2ca0fcf91)" style="fill: none; stroke: #000000; stroke-opacity: 0.5; stroke-width: 6; stroke-linecap: square"/>
   </g>
   <g id="patch_3">
    <path d="M 109.64 515.56 
L 109.64 52.8 
" style="fill: none; stroke: #000000; stroke-width: 0.8; stroke-linejoin: miter; stroke-linecap: square"/>
   </g>
   <g id="patch_4">
    <path d="M 109.64 515.56 
L 858.920192 515.56 
" style="fill: none; stroke: #000000; stroke-width: 0.8; stroke-linejoin: miter; stroke-linecap: square"/>
   </g>
   <g id="text_14">
    <!-- Central Europe -->
    <g transform="translate(383.118221 46.8)scale(0.24 -0.24)">
     <defs>
      <path id="DejaVuSans-Bold-43" d="M 4288 256 
Q 3956 84 3597 -3 
Q 3238 -91 2847 -91 
Q 1681 -91 1000 561 
Q 319 1213 319 2328 
Q 319 3447 1000 4098 
Q 1681 4750 2847 4750 
Q 3238 4750 3597 4662 
Q 3956 4575 4288 4403 
L 4288 3438 
Q 3953 3666 3628 3772 
Q 3303 3878 2944 3878 
Q 2300 3878 1931 3465 
Q 1563 3053 1563 2328 
Q 1563 1606 1931 1193 
Q 2300 781 2944 781 
Q 3303 781 3628 887 
Q 3953 994 4288 1222 
L 4288 256 
z
" transform="scale(0.015625)"/>
      <path id="DejaVuSans-Bold-74" d="M 1759 4494 
L 1759 3500 
L 2913 3500 
L 2913 2700 
L 1759 2700 
L 1759 1216 
Q 1759 972 1856 886 
Q 1953 800 2241 800 
L 2816 800 
L 2816 0 
L 1856 0 
Q 1194 0 917 276 
Q 641 553 641 1216 
L 641 2700 
L 84 2700 
L 84 3500 
L 641 3500 
L 641 4494 
L 1759 4494 
z
" transform="scale(0.015625)"/>
      <path id="DejaVuSans-Bold-45" d="M 588 4666 
L 3834 4666 
L 3834 3756 
L 1791 3756 
L 1791 2888 
L 3713 2888 
L 3713 1978 
L 1791 1978 
L 1791 909 
L 3903 909 
L 3903 0 
L 588 0 
L 588 4666 
z
" transform="scale(0.015625)"/>
      <path id="DejaVuSans-Bold-75" d="M 500 1363 
L 500 3500 
L 1625 3500 
L 1625 3150 
Q 1625 2866 1622 2436 
Q 1619 2006 1619 1863 
Q 1619 1441 1641 1255 
Q 1663 1069 1716 984 
Q 1784 875 1895 815 
Q 2006 756 2150 756 
Q 2500 756 2700 1025 
Q 2900 1294 2900 1772 
L 2900 3500 
L 4019 3500 
L 4019 0 
L 2900 0 
L 2900 506 
Q 2647 200 2364 54 
Q 2081 -91 1741 -91 
Q 1134 -91 817 281 
Q 500 653 500 1363 
z
" transform="scale(0.015625)"/>
      <path id="DejaVuSans-Bold-70" d="M 1656 506 
L 1656 -1331 
L 538 -1331 
L 538 3500 
L 1656 3500 
L 1656 2988 
Q 1888 3294 2169 3439 
Q 2450 3584 2816 3584 
Q 3463 3584 3878 3070 
Q 4294 2556 4294 1747 
Q 4294 938 3878 423 
Q 3463 -91 2816 -91 
Q 2450 -91 2169 54 
Q 1888 200 1656 506 
z
M 2400 2772 
Q 2041 2772 1848 2508 
Q 1656 2244 1656 1747 
Q 1656 1250 1848 986 
Q 2041 722 2400 722 
Q 2759 722 2948 984 
Q 3138 1247 3138 1747 
Q 3138 2247 2948 2509 
Q 2759 2772 2400 2772 
z
" transform="scale(0.015625)"/>
     </defs>
     <use xlink:href="#DejaVuSans-Bold-43"/>
     <use xlink:href="#DejaVuSans-Bold-65" x="73.388672"/>
     <use xlink:href="#DejaVuSans-Bold-6e" x="141.210938"/>
     <use xlink:href="#DejaVuSans-Bold-74" x="212.402344"/>
     <use xlink:href="#DejaVuSans-Bold-72" x="260.205078"/>
     <use xlink:href="#DejaVuSans-Bold-61" x="309.521484"/>
     <use xlink:href="#DejaVuSans-Bold-6c" x="377.001953"/>
     <use xlink:href="#DejaVuSans-Bold-20" x="411.279297"/>
     <use xlink:href="#DejaVuSans-Bold-45" x="446.09375"/>
     <use xlink:href="#DejaVuSans-Bold-75" x="514.404297"/>
     <use xlink:href="#DejaVuSans-Bold-72" x="585.595703"/>
     <use xlink:href="#DejaVuSans-Bold-6f" x="634.912109"/>
     <use xlink:href="#DejaVuSans-Bold-70" x="703.613281"/>
     <use xlink:href="#DejaVuSans-Bold-65" x="775.195312"/>
    </g>
   </g>
   <g id="legend_1">
    <g id="patch_5">
     <path d="M 597.903942 225.737875 
L 843.520192 225.737875 
Q 847.920192 225.737875 847.920192 221.337875 
L 847.920192 68.2 
Q 847.920192 63.8 843.520192 63.8 
L 597.903942 63.8 
Q 593.503942 63.8 593.503942 68.2 
L 593.503942 221.337875 
Q 593.503942 225.737875 597.903942 225.737875 
z
" style="fill: #ffffff; opacity: 0.6; stroke: #cccccc; stroke-linejoin: miter"/>
    </g>
    <g id="text_15">
     <!-- Global mean -->
     <g transform="translate(602.303942 89.316563)scale(0.22 -0.22)">
      <defs>
       <path id="DejaVuSans-47" d="M 3809 666 
L 3809 1919 
L 2778 1919 
L 2778 2438 
L 4434 2438 
L 4434 434 
Q 4069 175 3628 42 
Q 3188 -91 2688 -91 
Q 1594 -91 976 548 
Q 359 1188 359 2328 
Q 359 3472 976 4111 
Q 1594 4750 2688 4750 
Q 3144 4750 3555 4637 
Q 3966 4525 4313 4306 
L 4313 3634 
Q 3963 3931 3569 4081 
Q 3175 4231 2741 4231 
Q 1884 4231 1454 3753 
Q 1025 3275 1025 2328 
Q 1025 1384 1454 906 
Q 1884 428 2741 428 
Q 3075 428 3337 486 
Q 3600 544 3809 666 
z
" transform="scale(0.015625)"/>
       <path id="DejaVuSans-6c" d="M 603 4863 
L 1178 4863 
L 1178 0 
L 603 0 
L 603 4863 
z
" transform="scale(0.015625)"/>
       <path id="DejaVuSans-6f" d="M 1959 3097 
Q 1497 3097 1228 2736 
Q 959 2375 959 1747 
Q 959 1119 1226 758 
Q 1494 397 1959 397 
Q 2419 397 2687 759 
Q 2956 1122 2956 1747 
Q 2956 2369 2687 2733 
Q 2419 3097 1959 3097 
z
M 1959 3584 
Q 2709 3584 3137 3096 
Q 3566 2609 3566 1747 
Q 3566 888 3137 398 
Q 2709 -91 1959 -91 
Q 1206 -91 779 398 
Q 353 888 353 1747 
Q 353 2609 779 3096 
Q 1206 3584 1959 3584 
z
" transform="scale(0.015625)"/>
       <path id="DejaVuSans-62" d="M 3116 1747 
Q 3116 2381 2855 2742 
Q 2594 3103 2138 3103 
Q 1681 3103 1420 2742 
Q 1159 2381 1159 1747 
Q 1159 1113 1420 752 
Q 1681 391 2138 391 
Q 2594 391 2855 752 
Q 3116 1113 3116 1747 
z
M 1159 2969 
Q 1341 3281 1617 3432 
Q 1894 3584 2278 3584 
Q 2916 3584 3314 3078 
Q 3713 2572 3713 1747 
Q 3713 922 3314 415 
Q 2916 -91 2278 -91 
Q 1894 -91 1617 61 
Q 1341 213 1159 525 
L 1159 0 
L 581 0 
L 581 4863 
L 1159 4863 
L 1159 2969 
z
" transform="scale(0.015625)"/>
       <path id="DejaVuSans-61" d="M 2194 1759 
Q 1497 1759 1228 1600 
Q 959 1441 959 1056 
Q 959 750 1161 570 
Q 1363 391 1709 391 
Q 2188 391 2477 730 
Q 2766 1069 2766 1631 
L 2766 1759 
L 2194 1759 
z
M 3341 1997 
L 3341 0 
L 2766 0 
L 2766 531 
Q 2569 213 2275 61 
Q 1981 -91 1556 -91 
Q 1019 -91 701 211 
Q 384 513 384 1019 
Q 384 1609 779 1909 
Q 1175 2209 1959 2209 
L 2766 2209 
L 2766 2266 
Q 2766 2663 2505 2880 
Q 2244 3097 1772 3097 
Q 1472 3097 1187 3025 
Q 903 2953 641 2809 
L 641 3341 
Q 956 3463 1253 3523 
Q 1550 3584 1831 3584 
Q 2591 3584 2966 3190 
Q 3341 2797 3341 1997 
z
" transform="scale(0.015625)"/>
       <path id="DejaVuSans-20" transform="scale(0.015625)"/>
       <path id="DejaVuSans-6d" d="M 3328 2828 
Q 3544 3216 3844 3400 
Q 4144 3584 4550 3584 
Q 5097 3584 5394 3201 
Q 5691 2819 5691 2113 
L 5691 0 
L 5113 0 
L 5113 2094 
Q 5113 2597 4934 2840 
Q 4756 3084 4391 3084 
Q 3944 3084 3684 2787 
Q 3425 2491 3425 1978 
L 3425 0 
L 2847 0 
L 2847 2094 
Q 2847 2600 2669 2842 
Q 2491 3084 2119 3084 
Q 1678 3084 1418 2786 
Q 1159 2488 1159 1978 
L 1159 0 
L 581 0 
L 581 3500 
L 1159 3500 
L 1159 2956 
Q 1356 3278 1631 3431 
Q 1906 3584 2284 3584 
Q 2666 3584 2933 3390 
Q 3200 3197 3328 2828 
z
" transform="scale(0.015625)"/>
       <path id="DejaVuSans-65" d="M 3597 1894 
L 3597 1613 
L 953 1613 
Q 991 1019 1311 708 
Q 1631 397 2203 397 
Q 2534 397 2845 478 
Q 3156 559 3463 722 
L 3463 178 
Q 3153 47 2828 -22 
Q 2503 -91 2169 -91 
Q 1331 -91 842 396 
Q 353 884 353 1716 
Q 353 2575 817 3079 
Q 1281 3584 2069 3584 
Q 2775 3584 3186 3129 
Q 3597 2675 3597 1894 
z
M 3022 2063 
Q 3016 2534 2758 2815 
Q 2500 3097 2075 3097 
Q 1594 3097 1305 2825 
Q 1016 2553 972 2059 
L 3022 2063 
z
" transform="scale(0.015625)"/>
       <path id="DejaVuSans-6e" d="M 3513 2113 
L 3513 0 
L 2938 0 
L 2938 2094 
Q 2938 2591 2744 2837 
Q 2550 3084 2163 3084 
Q 1697 3084 1428 2787 
Q 1159 2491 1159 1978 
L 1159 0 
L 581 0 
L 581 3500 
L 1159 3500 
L 1159 2956 
Q 1366 3272 1645 3428 
Q 1925 3584 2291 3584 
Q 2894 3584 3203 3211 
Q 3513 2838 3513 2113 
z
" transform="scale(0.015625)"/>
      </defs>
      <use xlink:href="#DejaVuSans-47"/>
      <use xlink:href="#DejaVuSans-6c" x="77.490234"/>
      <use xlink:href="#DejaVuSans-6f" x="105.273438"/>
      <use xlink:href="#DejaVuSans-62" x="166.455078"/>
      <use xlink:href="#DejaVuSans-61" x="229.931641"/>
      <use xlink:href="#DejaVuSans-6c" x="291.210938"/>
      <use xlink:href="#DejaVuSans-20" x="318.994141"/>
      <use xlink:href="#DejaVuSans-6d" x="350.78125"/>
      <use xlink:href="#DejaVuSans-65" x="448.193359"/>
      <use xlink:href="#DejaVuSans-61" x="509.716797"/>
      <use xlink:href="#DejaVuSans-6e" x="570.996094"/>
     </g>
     <!-- temperature above -->
     <g transform="translate(602.303942 113.95175)scale(0.22 -0.22)">
      <defs>
       <path id="DejaVuSans-74" d="M 1172 4494 
L 1172 3500 
L 2356 3500 
L 2356 3053 
L 1172 3053 
L 1172 1153 
Q 1172 725 1289 603 
Q 1406 481 1766 481 
L 2356 481 
L 2356 0 
L 1766 0 
Q 1100 0 847 248 
Q 594 497 594 1153 
L 594 3053 
L 172 3053 
L 172 3500 
L 594 3500 
L 594 4494 
L 1172 4494 
z
" transform="scale(0.015625)"/>
       <path id="DejaVuSans-70" d="M 1159 525 
L 1159 -1331 
L 581 -1331 
L 581 3500 
L 1159 3500 
L 1159 2969 
Q 1341 3281 1617 3432 
Q 1894 3584 2278 3584 
Q 2916 3584 3314 3078 
Q 3713 2572 3713 1747 
Q 3713 922 3314 415 
Q 2916 -91 2278 -91 
Q 1894 -91 1617 61 
Q 1341 213 1159 525 
z
M 3116 1747 
Q 3116 2381 2855 2742 
Q 2594 3103 2138 3103 
Q 1681 3103 1420 2742 
Q 1159 2381 1159 1747 
Q 1159 1113 1420 752 
Q 1681 391 2138 391 
Q 2594 391 2855 752 
Q 3116 1113 3116 1747 
z
" transform="scale(0.015625)"/>
       <path id="DejaVuSans-72" d="M 2631 2963 
Q 2534 3019 2420 3045 
Q 2306 3072 2169 3072 
Q 1681 3072 1420 2755 
Q 1159 2438 1159 1844 
L 1159 0 
L 581 0 
L 581 3500 
L 1159 3500 
L 1159 2956 
Q 1341 3275 1631 3429 
Q 1922 3584 2338 3584 
Q 2397 3584 2469 3576 
Q 2541 3569 2628 3553 
L 2631 2963 
z
" transform="scale(0.015625)"/>
       <path id="DejaVuSans-75" d="M 544 1381 
L 544 3500 
L 1119 3500 
L 1119 1403 
Q 1119 906 1312 657 
Q 1506 409 1894 409 
Q 2359 409 2629 706 
Q 2900 1003 2900 1516 
L 2900 3500 
L 3475 3500 
L 3475 0 
L 2900 0 
L 2900 538 
Q 2691 219 2414 64 
Q 2138 -91 1772 -91 
Q 1169 -91 856 284 
Q 544 659 544 1381 
z
M 1991 3584 
L 1991 3584 
z
" transform="scale(0.015625)"/>
       <path id="DejaVuSans-76" d="M 191 3500 
L 800 3500 
L 1894 563 
L 2988 3500 
L 3597 3500 
L 2284 0 
L 1503 0 
L 191 3500 
z
" transform="scale(0.015625)"/>
      </defs>
      <use xlink:href="#DejaVuSans-74"/>
      <use xlink:href="#DejaVuSans-65" x="39.208984"/>
      <use xlink:href="#DejaVuSans-6d" x="100.732422"/>
      <use xlink:href="#DejaVuSans-70" x="198.144531"/>
      <use xlink:href="#DejaVuSans-65" x="261.621094"/>
      <use xlink:href="#DejaVuSans-72" x="323.144531"/>
      <use xlink:href="#DejaVuSans-61" x="364.257812"/>
      <use xlink:href="#DejaVuSans-74" x="425.537109"/>
      <use xlink:href="#DejaVuSans-75" x="464.746094"/>
      <use xlink:href="#DejaVuSans-72" x="528.125"/>
      <use xlink:href="#DejaVuSans-65" x="566.988281"/>
      <use xlink:href="#DejaVuSans-20" x="628.511719"/>
      <use xlink:href="#DejaVuSans-61" x="660.298828"/>
      <use xlink:href="#DejaVuSans-62" x="721.578125"/>
      <use xlink:href="#DejaVuSans-6f" x="785.054688"/>
      <use xlink:href="#DejaVuSans-76" x="846.236328"/>
      <use xlink:href="#DejaVuSans-65" x="905.416016"/>
     </g>
     <!-- pre-industrial in 2100 -->
     <g transform="translate(602.303942 138.586938)scale(0.22 -0.22)">
      <defs>
       <path id="DejaVuSans-2d" d="M 313 2009 
L 1997 2009 
L 1997 1497 
L 313 1497 
L 313 2009 
z
" transform="scale(0.015625)"/>
       <path id="DejaVuSans-69" d="M 603 3500 
L 1178 3500 
L 1178 0 
L 603 0 
L 603 3500 
z
M 603 4863 
L 1178 4863 
L 1178 4134 
L 603 4134 
L 603 4863 
z
" transform="scale(0.015625)"/>
       <path id="DejaVuSans-64" d="M 2906 2969 
L 2906 4863 
L 3481 4863 
L 3481 0 
L 2906 0 
L 2906 525 
Q 2725 213 2448 61 
Q 2172 -91 1784 -91 
Q 1150 -91 751 415 
Q 353 922 353 1747 
Q 353 2572 751 3078 
Q 1150 3584 1784 3584 
Q 2172 3584 2448 3432 
Q 2725 3281 2906 2969 
z
M 947 1747 
Q 947 1113 1208 752 
Q 1469 391 1925 391 
Q 2381 391 2643 752 
Q 2906 1113 2906 1747 
Q 2906 2381 2643 2742 
Q 2381 3103 1925 3103 
Q 1469 3103 1208 2742 
Q 947 2381 947 1747 
z
" transform="scale(0.015625)"/>
       <path id="DejaVuSans-73" d="M 2834 3397 
L 2834 2853 
Q 2591 2978 2328 3040 
Q 2066 3103 1784 3103 
Q 1356 3103 1142 2972 
Q 928 2841 928 2578 
Q 928 2378 1081 2264 
Q 1234 2150 1697 2047 
L 1894 2003 
Q 2506 1872 2764 1633 
Q 3022 1394 3022 966 
Q 3022 478 2636 193 
Q 2250 -91 1575 -91 
Q 1294 -91 989 -36 
Q 684 19 347 128 
L 347 722 
Q 666 556 975 473 
Q 1284 391 1588 391 
Q 1994 391 2212 530 
Q 2431 669 2431 922 
Q 2431 1156 2273 1281 
Q 2116 1406 1581 1522 
L 1381 1569 
Q 847 1681 609 1914 
Q 372 2147 372 2553 
Q 372 3047 722 3315 
Q 1072 3584 1716 3584 
Q 2034 3584 2315 3537 
Q 2597 3491 2834 3397 
z
" transform="scale(0.015625)"/>
      </defs>
      <use xlink:href="#DejaVuSans-70"/>
      <use xlink:href="#DejaVuSans-72" x="63.476562"/>
      <use xlink:href="#DejaVuSans-65" x="102.339844"/>
      <use xlink:href="#DejaVuSans-2d" x="163.863281"/>
      <use xlink:href="#DejaVuSans-69" x="199.947266"/>
      <use xlink:href="#DejaVuSans-6e" x="227.730469"/>
      <use xlink:href="#DejaVuSans-64" x="291.109375"/>
      <use xlink:href="#DejaVuSans-75" x="354.585938"/>
      <use xlink:href="#DejaVuSans-73" x="417.964844"/>
      <use xlink:href="#DejaVuSans-74" x="470.064453"/>
      <use xlink:href="#DejaVuSans-72" x="509.273438"/>
      <use xlink:href="#DejaVuSans-69" x="550.386719"/>
      <use xlink:href="#DejaVuSans-61" x="578.169922"/>
      <use xlink:href="#DejaVuSans-6c" x="639.449219"/>
      <use xlink:href="#DejaVuSans-20" x="667.232422"/>
      <use xlink:href="#DejaVuSans-69" x="699.019531"/>
      <use xlink:href="#DejaVuSans-6e" x="726.802734"/>
      <use xlink:href="#DejaVuSans-20" x="790.181641"/>
      <use xlink:href="#DejaVuSans-32" x="821.96875"/>
      <use xlink:href="#DejaVuSans-31" x="885.591797"/>
      <use xlink:href="#DejaVuSans-30" x="949.214844"/>
      <use xlink:href="#DejaVuSans-30" x="1012.837891"/>
     </g>
    </g>
    <g id="line2d_18">
     <path d="M 616.971755 155.478813 
L 638.971755 155.478813 
L 660.971755 155.478813 
" style="fill: none; stroke: #74b8f8; stroke-opacity: 0.5; stroke-width: 6; stroke-linecap: square"/>
    </g>
    <g id="text_16">
     <!-- 1.5C (n=2) -->
     <g transform="translate(678.571755 163.178813)scale(0.22 -0.22)">
      <defs>
       <path id="DejaVuSans-2e" d="M 684 794 
L 1344 794 
L 1344 0 
L 684 0 
L 684 794 
z
" transform="scale(0.015625)"/>
       <path id="DejaVuSans-35" d="M 691 4666 
L 3169 4666 
L 3169 4134 
L 1269 4134 
L 1269 2991 
Q 1406 3038 1543 3061 
Q 1681 3084 1819 3084 
Q 2600 3084 3056 2656 
Q 3513 2228 3513 1497 
Q 3513 744 3044 326 
Q 2575 -91 1722 -91 
Q 1428 -91 1123 -41 
Q 819 9 494 109 
L 494 744 
Q 775 591 1075 516 
Q 1375 441 1709 441 
Q 2250 441 2565 725 
Q 2881 1009 2881 1497 
Q 2881 1984 2565 2268 
Q 2250 2553 1709 2553 
Q 1456 2553 1204 2497 
Q 953 2441 691 2322 
L 691 4666 
z
" transform="scale(0.015625)"/>
       <path id="DejaVuSans-b0" d="M 1600 4347 
Q 1350 4347 1178 4173 
Q 1006 4000 1006 3750 
Q 1006 3503 1178 3333 
Q 1350 3163 1600 3163 
Q 1850 3163 2022 3333 
Q 2194 3503 2194 3750 
Q 2194 3997 2020 4172 
Q 1847 4347 1600 4347 
z
M 1600 4750 
Q 1800 4750 1984 4673 
Q 2169 4597 2303 4453 
Q 2447 4313 2519 4134 
Q 2591 3956 2591 3750 
Q 2591 3338 2302 3052 
Q 2013 2766 1594 2766 
Q 1172 2766 890 3047 
Q 609 3328 609 3750 
Q 609 4169 896 4459 
Q 1184 4750 1600 4750 
z
" transform="scale(0.015625)"/>
       <path id="DejaVuSans-43" d="M 4122 4306 
L 4122 3641 
Q 3803 3938 3442 4084 
Q 3081 4231 2675 4231 
Q 1875 4231 1450 3742 
Q 1025 3253 1025 2328 
Q 1025 1406 1450 917 
Q 1875 428 2675 428 
Q 3081 428 3442 575 
Q 3803 722 4122 1019 
L 4122 359 
Q 3791 134 3420 21 
Q 3050 -91 2638 -91 
Q 1578 -91 968 557 
Q 359 1206 359 2328 
Q 359 3453 968 4101 
Q 1578 4750 2638 4750 
Q 3056 4750 3426 4639 
Q 3797 4528 4122 4306 
z
" transform="scale(0.015625)"/>
       <path id="DejaVuSans-28" d="M 1984 4856 
Q 1566 4138 1362 3434 
Q 1159 2731 1159 2009 
Q 1159 1288 1364 580 
Q 1569 -128 1984 -844 
L 1484 -844 
Q 1016 -109 783 600 
Q 550 1309 550 2009 
Q 550 2706 781 3412 
Q 1013 4119 1484 4856 
L 1984 4856 
z
" transform="scale(0.015625)"/>
       <path id="DejaVuSans-3d" d="M 678 2906 
L 4684 2906 
L 4684 2381 
L 678 2381 
L 678 2906 
z
M 678 1631 
L 4684 1631 
L 4684 1100 
L 678 1100 
L 678 1631 
z
" transform="scale(0.015625)"/>
       <path id="DejaVuSans-29" d="M 513 4856 
L 1013 4856 
Q 1481 4119 1714 3412 
Q 1947 2706 1947 2009 
Q 1947 1309 1714 600 
Q 1481 -109 1013 -844 
L 513 -844 
Q 928 -128 1133 580 
Q 1338 1288 1338 2009 
Q 1338 2731 1133 3434 
Q 928 4138 513 4856 
z
" transform="scale(0.015625)"/>
      </defs>
      <use xlink:href="#DejaVuSans-31"/>
      <use xlink:href="#DejaVuSans-2e" x="63.623047"/>
      <use xlink:href="#DejaVuSans-35" x="95.410156"/>
      <use xlink:href="#DejaVuSans-b0" x="159.033203"/>
      <use xlink:href="#DejaVuSans-43" x="209.033203"/>
      <use xlink:href="#DejaVuSans-20" x="278.857422"/>
      <use xlink:href="#DejaVuSans-28" x="310.644531"/>
      <use xlink:href="#DejaVuSans-6e" x="349.658203"/>
      <use xlink:href="#DejaVuSans-3d" x="413.037109"/>
      <use xlink:href="#DejaVuSans-32" x="496.826172"/>
      <use xlink:href="#DejaVuSans-29" x="560.449219"/>
     </g>
    </g>
    <g id="line2d_19">
     <path d="M 616.971755 180.070688 
L 638.971755 180.070688 
L 660.971755 180.070688 
" style="fill: none; stroke: #f47100; stroke-opacity: 0.5; stroke-width: 6; stroke-linecap: square"/>
    </g>
    <g id="text_17">
     <!-- 2.2C (n=14) -->
     <g transform="translate(678.571755 187.770688)scale(0.22 -0.22)">
      <use xlink:href="#DejaVuSans-32"/>
      <use xlink:href="#DejaVuSans-2e" x="63.623047"/>
      <use xlink:href="#DejaVuSans-32" x="95.410156"/>
      <use xlink:href="#DejaVuSans-b0" x="159.033203"/>
      <use xlink:href="#DejaVuSans-43" x="209.033203"/>
      <use xlink:href="#DejaVuSans-20" x="278.857422"/>
      <use xlink:href="#DejaVuSans-28" x="310.644531"/>
      <use xlink:href="#DejaVuSans-6e" x="349.658203"/>
      <use xlink:href="#DejaVuSans-3d" x="413.037109"/>
      <use xlink:href="#DejaVuSans-31" x="496.826172"/>
      <use xlink:href="#DejaVuSans-34" x="560.449219"/>
      <use xlink:href="#DejaVuSans-29" x="624.072266"/>
     </g>
    </g>
    <g id="line2d_20">
     <path d="M 616.971755 204.662563 
L 638.971755 204.662563 
L 660.971755 204.662563 
" style="fill: none; stroke: #d01e04; stroke-opacity: 0.5; stroke-width: 6; stroke-linecap: square"/>
    </g>
    <g id="text_18">
     <!-- 2.8C (n=12) -->
     <g transform="translate(678.571755 212.362563)scale(0.22 -0.22)">
      <use xlink:href="#DejaVuSans-32"/>
      <use xlink:href="#DejaVuSans-2e" x="63.623047"/>
      <use xlink:href="#DejaVuSans-38" x="95.410156"/>
      <use xlink:href="#DejaVuSans-b0" x="159.033203"/>
      <use xlink:href="#DejaVuSans-43" x="209.033203"/>
      <use xlink:href="#DejaVuSans-20" x="278.857422"/>
      <use xlink:href="#DejaVuSans-28" x="310.644531"/>
      <use xlink:href="#DejaVuSans-6e" x="349.658203"/>
      <use xlink:href="#DejaVuSans-3d" x="413.037109"/>
      <use xlink:href="#DejaVuSans-31" x="496.826172"/>
      <use xlink:href="#DejaVuSans-32" x="560.449219"/>
      <use xlink:href="#DejaVuSans-29" x="624.072266"/>
     </g>
    </g>
   </g>
  </g>
 </g>
 <defs>
  <clipPath id="pa2ca0fcf91">
   <rect x="109.64" y="52.8" width="749.280192" height="462.76"/>
  </clipPath>
 </defs>
</svg>
