<?xml version="1.0" encoding="utf-8" standalone="no"?>
<!DOCTYPE svg PUBLIC "-//W3C//DTD SVG 1.1//EN"
  "http://www.w3.org/Graphics/SVG/1.1/DTD/svg11.dtd">
<svg xmlns:xlink="http://www.w3.org/1999/xlink" width="900pt" height="600pt" viewBox="0 0 900 600" xmlns="http://www.w3.org/2000/svg" version="1.1">
 <metadata>
  <rdf:RDF xmlns:dc="http://purl.org/dc/elements/1.1/" xmlns:cc="http://creativecommons.org/ns#" xmlns:rdf="http://www.w3.org/1999/02/22-rdf-syntax-ns#">
   <cc:Work>
    <dc:type rdf:resource="http://purl.org/dc/dcmitype/StillImage"/>
    <dc:date>2024-10-31T18:28:37.443747</dc:date>
    <dc:format>image/svg+xml</dc:format>
    <dc:creator>
     <cc:Agent>
      <dc:title>Matplotlib v3.5.3, https://matplotlib.org/</dc:title>
     </cc:Agent>
    </dc:creator>
   </cc:Work>
  </rdf:RDF>
 </metadata>
 <defs>
  <style type="text/css">*{stroke-linejoin: round; stroke-linecap: butt}</style>
 </defs>
 <g id="figure_1">
  <g id="patch_1">
   <path d="M 0 600 
L 900 600 
L 900 0 
L 0 0 
z
" style="fill: #ffffff"/>
  </g>
  <g id="axes_1">
   <g id="patch_2">
    <path d="M 109.64 515.56 
L 858.920192 515.56 
L 858.920192 52.8 
L 109.64 52.8 
z
" style="fill: #ffffff"/>
   </g>
   <g id="PolyCollection_1">
    <defs>
     <path id="m7d04cf4a38" d="M 167.276938 -453.319795 
L 167.276938 -453.03971 
L 169.678477 -451.416923 
L 172.080016 -449.789824 
L 174.481555 -448.066619 
L 176.883094 -446.248775 
L 179.284633 -444.333554 
L 181.686172 -442.360238 
L 184.087711 -440.489908 
L 186.48925 -438.595385 
L 188.89079 -436.704266 
L 191.292329 -434.71379 
L 193.693868 -432.611209 
L 196.095407 -430.376234 
L 198.496946 -428.416919 
L 200.898485 -426.410636 
L 203.300024 -424.435974 
L 205.701563 -422.404885 
L 208.103102 -420.401615 
L 210.504641 -418.440151 
L 212.90618 -416.410492 
L 215.307719 -414.395344 
L 217.709259 -412.340144 
L 220.110798 -410.330364 
L 222.512337 -408.274316 
L 224.913876 -406.136185 
L 227.315415 -403.895512 
L 229.716954 -401.729938 
L 232.118493 -399.565221 
L 234.520032 -397.39537 
L 236.921571 -395.174359 
L 239.32311 -393.042087 
L 241.724649 -390.933512 
L 244.126188 -389.013319 
L 246.527727 -387.009885 
L 248.929267 -385.107495 
L 251.330806 -383.204479 
L 253.732345 -381.478963 
L 256.133884 -379.796055 
L 258.535423 -378.066168 
L 260.936962 -376.601116 
L 263.338501 -375.108172 
L 265.74004 -373.700599 
L 268.141579 -372.4309 
L 270.543118 -371.24394 
L 272.944657 -370.245046 
L 275.346196 -369.159555 
L 277.747735 -368.050832 
L 280.149275 -366.918224 
L 282.550814 -365.853713 
L 284.952353 -364.945813 
L 287.353892 -364.082401 
L 289.755431 -363.379533 
L 292.15697 -362.750587 
L 294.558509 -362.096275 
L 296.960048 -361.39464 
L 299.361587 -360.722787 
L 301.763126 -360.080538 
L 304.164665 -359.518711 
L 306.566204 -359.050611 
L 308.967743 -358.612791 
L 311.369283 -358.198819 
L 313.770822 -357.851644 
L 316.172361 -357.498016 
L 318.5739 -357.256329 
L 320.975439 -356.949623 
L 323.376978 -356.668971 
L 325.778517 -356.43901 
L 328.180056 -356.316228 
L 330.581595 -356.230733 
L 332.983134 -356.165027 
L 335.384673 -356.078812 
L 337.786212 -355.922286 
L 340.187751 -355.746774 
L 342.589291 -355.632341 
L 344.99083 -355.516166 
L 347.392369 -355.435768 
L 349.793908 -355.360972 
L 352.195447 -355.237111 
L 354.596986 -355.055394 
L 356.998525 -354.806639 
L 359.400064 -354.59068 
L 361.801603 -354.34114 
L 364.203142 -354.094813 
L 366.604681 -353.780812 
L 369.00622 -353.458711 
L 371.407759 -353.171037 
L 373.809299 -352.859473 
L 376.210838 -352.530056 
L 378.612377 -352.145008 
L 381.013916 -351.705151 
L 383.415455 -351.299741 
L 385.816994 -350.994677 
L 388.218533 -350.660141 
L 390.620072 -350.305303 
L 393.021611 -349.946499 
L 395.42315 -349.637678 
L 397.824689 -349.350822 
L 400.226228 -349.083655 
L 402.627768 -348.775755 
L 405.029307 -348.48417 
L 407.430846 -348.341949 
L 409.832385 -348.094522 
L 412.233924 -347.798882 
L 414.635463 -347.452125 
L 417.037002 -347.186876 
L 419.438541 -346.902892 
L 421.84008 -346.629998 
L 424.241619 -346.385279 
L 426.643158 -346.234679 
L 429.044697 -346.062192 
L 431.446236 -345.830565 
L 433.847776 -345.523583 
L 436.249315 -345.150467 
L 438.650854 -344.827492 
L 441.052393 -344.552679 
L 443.453932 -344.159219 
L 445.855471 -343.720526 
L 448.25701 -343.228626 
L 450.658549 -342.770201 
L 453.060088 -342.248476 
L 455.461627 -341.683228 
L 457.863166 -341.258663 
L 460.264705 -340.846116 
L 462.666244 -340.457773 
L 465.067784 -339.983255 
L 467.469323 -339.506374 
L 469.870862 -339.076753 
L 472.272401 -338.67463 
L 474.67394 -338.238568 
L 477.075479 -337.847436 
L 479.477018 -337.554839 
L 481.878557 -337.297292 
L 484.280096 -337.084266 
L 486.681635 -336.843424 
L 489.083174 -336.595664 
L 491.484713 -336.486145 
L 493.886252 -336.354822 
L 496.287792 -336.373726 
L 498.689331 -336.376921 
L 501.09087 -336.539382 
L 503.492409 -336.617781 
L 505.893948 -336.65787 
L 508.295487 -336.751559 
L 510.697026 -336.896694 
L 513.098565 -337.089504 
L 515.500104 -337.35846 
L 517.901643 -337.612047 
L 520.303182 -337.801944 
L 522.704721 -337.997587 
L 525.10626 -338.250137 
L 527.5078 -338.527493 
L 529.909339 -338.795477 
L 532.310878 -339.101934 
L 534.712417 -339.342371 
L 537.113956 -339.592967 
L 539.515495 -339.792406 
L 541.917034 -340.042414 
L 544.318573 -340.189003 
L 546.720112 -340.379029 
L 549.121651 -340.488707 
L 551.52319 -340.571719 
L 553.924729 -340.736551 
L 556.326268 -340.915755 
L 558.727808 -341.101445 
L 561.129347 -341.271336 
L 563.530886 -341.362543 
L 565.932425 -341.385129 
L 568.333964 -341.387415 
L 570.735503 -341.358918 
L 573.137042 -341.261059 
L 575.538581 -341.101197 
L 577.94012 -340.931025 
L 580.341659 -340.705986 
L 582.743198 -340.5646 
L 585.144737 -340.348829 
L 587.546277 -340.217511 
L 589.947816 -340.01547 
L 592.349355 -339.783515 
L 594.750894 -339.569086 
L 597.152433 -339.293976 
L 599.553972 -339.06787 
L 601.955511 -338.782638 
L 604.35705 -338.454688 
L 606.758589 -338.097795 
L 609.160128 -337.771861 
L 611.561667 -337.533946 
L 613.963206 -337.332673 
L 616.364745 -337.179752 
L 618.766285 -337.058468 
L 621.167824 -337.015682 
L 623.569363 -336.939193 
L 625.970902 -336.85697 
L 628.372441 -336.857204 
L 630.77398 -336.885055 
L 633.175519 -337.01973 
L 635.577058 -337.101758 
L 637.978597 -337.267025 
L 640.380136 -337.577182 
L 642.781675 -337.861354 
L 645.183214 -338.231494 
L 647.584753 -338.60756 
L 649.986293 -339.042769 
L 652.387832 -339.542161 
L 654.789371 -340.13513 
L 657.19091 -340.686002 
L 659.592449 -341.215428 
L 661.993988 -341.753262 
L 664.395527 -342.291053 
L 666.797066 -342.831712 
L 669.198605 -343.43083 
L 671.600144 -344.105955 
L 674.001683 -344.769857 
L 676.403222 -345.388619 
L 678.804761 -345.942974 
L 681.206301 -346.436622 
L 683.60784 -346.898455 
L 686.009379 -347.385657 
L 688.410918 -347.701626 
L 690.812457 -348.088249 
L 693.213996 -348.478898 
L 695.615535 -348.888385 
L 698.017074 -349.291496 
L 700.418613 -349.596258 
L 702.820152 -349.824277 
L 705.221691 -350.14737 
L 707.62323 -350.476267 
L 710.024769 -350.820044 
L 712.426309 -351.208716 
L 714.827848 -351.599596 
L 717.229387 -351.867337 
L 719.630926 -352.025902 
L 722.032465 -352.213344 
L 724.434004 -352.386116 
L 726.835543 -352.639867 
L 729.237082 -352.913035 
L 731.638621 -353.18851 
L 734.04016 -353.47208 
L 736.441699 -353.773172 
L 738.843238 -354.015121 
L 741.244777 -354.250275 
L 743.646317 -354.531284 
L 746.047856 -354.82749 
L 748.449395 -355.178331 
L 750.850934 -355.478058 
L 753.252473 -355.729646 
L 755.654012 -355.965126 
L 758.055551 -356.165206 
L 760.45709 -356.326799 
L 762.858629 -356.457592 
L 765.260168 -356.579546 
L 767.661707 -356.752488 
L 770.063246 -356.932202 
L 772.464786 -357.13742 
L 774.866325 -357.29983 
L 777.267864 -357.487553 
L 779.669403 -357.709109 
L 782.070942 -357.874014 
L 784.472481 -358.094021 
L 786.87402 -358.375584 
L 789.275559 -358.634245 
L 791.677098 -358.802149 
L 794.078637 -358.943065 
L 796.480176 -359.050679 
L 798.881715 -359.212341 
L 801.283254 -359.365766 
L 803.684794 -359.539733 
L 806.086333 -359.768638 
L 808.487872 -360.034609 
L 810.889411 -360.232791 
L 813.29095 -360.464432 
L 815.692489 -360.764733 
L 818.094028 -360.913583 
L 820.495567 -361.071305 
L 822.897106 -361.220569 
L 825.298645 -361.340237 
L 827.700184 -361.435401 
L 830.101723 -361.569262 
L 832.503262 -361.702355 
L 834.904802 -361.73943 
L 837.306341 -361.781193 
L 837.306341 -406.06005 
L 837.306341 -406.06005 
L 834.904802 -405.926314 
L 832.503262 -405.808657 
L 830.101723 -405.556767 
L 827.700184 -405.31179 
L 825.298645 -405.143773 
L 822.897106 -404.946932 
L 820.495567 -404.736909 
L 818.094028 -404.488253 
L 815.692489 -404.247392 
L 813.29095 -403.708253 
L 810.889411 -403.272835 
L 808.487872 -402.928409 
L 806.086333 -402.511348 
L 803.684794 -402.142208 
L 801.283254 -401.868836 
L 798.881715 -401.662945 
L 796.480176 -401.459528 
L 794.078637 -401.286973 
L 791.677098 -401.055918 
L 789.275559 -400.792848 
L 786.87402 -400.421055 
L 784.472481 -400.043495 
L 782.070942 -399.786947 
L 779.669403 -399.610266 
L 777.267864 -399.35243 
L 774.866325 -399.14017 
L 772.464786 -398.940735 
L 770.063246 -398.671947 
L 767.661707 -398.450041 
L 765.260168 -398.228204 
L 762.858629 -398.0726 
L 760.45709 -397.896959 
L 758.055551 -397.698609 
L 755.654012 -397.458202 
L 753.252473 -397.160737 
L 750.850934 -396.834028 
L 748.449395 -396.416952 
L 746.047856 -395.954971 
L 743.646317 -395.628992 
L 741.244777 -395.336361 
L 738.843238 -395.10855 
L 736.441699 -394.86025 
L 734.04016 -394.490145 
L 731.638621 -394.111742 
L 729.237082 -393.74937 
L 726.835543 -393.40481 
L 724.434004 -393.032927 
L 722.032465 -392.777249 
L 719.630926 -392.475252 
L 717.229387 -392.22045 
L 714.827848 -391.825114 
L 712.426309 -391.230199 
L 710.024769 -390.622668 
L 707.62323 -390.074691 
L 705.221691 -389.549294 
L 702.820152 -389.014994 
L 700.418613 -388.58109 
L 698.017074 -388.021798 
L 695.615535 -387.293475 
L 693.213996 -386.542232 
L 690.812457 -385.755323 
L 688.410918 -384.975413 
L 686.009379 -384.275798 
L 683.60784 -383.384277 
L 681.206301 -382.52345 
L 678.804761 -381.577436 
L 676.403222 -380.588427 
L 674.001683 -379.511934 
L 671.600144 -378.387545 
L 669.198605 -377.261682 
L 666.797066 -376.229551 
L 664.395527 -375.291284 
L 661.993988 -374.374659 
L 659.592449 -373.431438 
L 657.19091 -372.483629 
L 654.789371 -371.515041 
L 652.387832 -370.496692 
L 649.986293 -369.587352 
L 647.584753 -368.749314 
L 645.183214 -368.008518 
L 642.781675 -367.321624 
L 640.380136 -366.745766 
L 637.978597 -366.179391 
L 635.577058 -365.787231 
L 633.175519 -365.488995 
L 630.77398 -365.13256 
L 628.372441 -364.913594 
L 625.970902 -364.780949 
L 623.569363 -364.761837 
L 621.167824 -364.728971 
L 618.766285 -364.667376 
L 616.364745 -364.733763 
L 613.963206 -364.848062 
L 611.561667 -365.061419 
L 609.160128 -365.353845 
L 606.758589 -365.781297 
L 604.35705 -366.262745 
L 601.955511 -366.711877 
L 599.553972 -367.141254 
L 597.152433 -367.474781 
L 594.750894 -367.896277 
L 592.349355 -368.218893 
L 589.947816 -368.51085 
L 587.546277 -368.781774 
L 585.144737 -368.921671 
L 582.743198 -369.184143 
L 580.341659 -369.376318 
L 577.94012 -369.630795 
L 575.538581 -369.835944 
L 573.137042 -370.030005 
L 570.735503 -370.095689 
L 568.333964 -370.043275 
L 565.932425 -369.94199 
L 563.530886 -369.764571 
L 561.129347 -369.463016 
L 558.727808 -369.000715 
L 556.326268 -368.530552 
L 553.924729 -368.075003 
L 551.52319 -367.616608 
L 549.121651 -367.256067 
L 546.720112 -366.82271 
L 544.318573 -366.294691 
L 541.917034 -365.834342 
L 539.515495 -365.221902 
L 537.113956 -364.713123 
L 534.712417 -364.124211 
L 532.310878 -363.516708 
L 529.909339 -362.815673 
L 527.5078 -362.151169 
L 525.10626 -361.463896 
L 522.704721 -360.840912 
L 520.303182 -360.311962 
L 517.901643 -359.76892 
L 515.500104 -359.148487 
L 513.098565 -358.516208 
L 510.697026 -358.022492 
L 508.295487 -357.569289 
L 505.893948 -357.186047 
L 503.492409 -356.869206 
L 501.09087 -356.506913 
L 498.689331 -356.077578 
L 496.287792 -355.816446 
L 493.886252 -355.566717 
L 491.484713 -355.529697 
L 489.083174 -355.460433 
L 486.681635 -355.586448 
L 484.280096 -355.742413 
L 481.878557 -355.909591 
L 479.477018 -356.098502 
L 477.075479 -356.331001 
L 474.67394 -356.689149 
L 472.272401 -357.076638 
L 469.870862 -357.441865 
L 467.469323 -357.882319 
L 465.067784 -358.398832 
L 462.666244 -358.907377 
L 460.264705 -359.31135 
L 457.863166 -359.742283 
L 455.461627 -360.222913 
L 453.060088 -360.878319 
L 450.658549 -361.408706 
L 448.25701 -361.872128 
L 445.855471 -362.351678 
L 443.453932 -362.747071 
L 441.052393 -363.091588 
L 438.650854 -363.261801 
L 436.249315 -363.479815 
L 433.847776 -363.733128 
L 431.446236 -363.943407 
L 429.044697 -364.013399 
L 426.643158 -364.008314 
L 424.241619 -364.004466 
L 421.84008 -364.117046 
L 419.438541 -364.22368 
L 417.037002 -364.339213 
L 414.635463 -364.427041 
L 412.233924 -364.626755 
L 409.832385 -364.761982 
L 407.430846 -364.807285 
L 405.029307 -364.72783 
L 402.627768 -364.866505 
L 400.226228 -365.025987 
L 397.824689 -365.146074 
L 395.42315 -365.286358 
L 393.021611 -365.453543 
L 390.620072 -365.697635 
L 388.218533 -365.931985 
L 385.816994 -366.130929 
L 383.415455 -366.2434 
L 381.013916 -366.496206 
L 378.612377 -366.784539 
L 376.210838 -366.983983 
L 373.809299 -367.105702 
L 371.407759 -367.199299 
L 369.00622 -367.259062 
L 366.604681 -367.348268 
L 364.203142 -367.416077 
L 361.801603 -367.406286 
L 359.400064 -367.409496 
L 356.998525 -367.342174 
L 354.596986 -367.315356 
L 352.195447 -367.172475 
L 349.793908 -366.919603 
L 347.392369 -366.590138 
L 344.99083 -366.262977 
L 342.589291 -365.977883 
L 340.187751 -365.683714 
L 337.786212 -365.429309 
L 335.384673 -365.178867 
L 332.983134 -364.849209 
L 330.581595 -364.488785 
L 328.180056 -364.146998 
L 325.778517 -363.823923 
L 323.376978 -363.619713 
L 320.975439 -363.48852 
L 318.5739 -363.381797 
L 316.172361 -363.157247 
L 313.770822 -363.087473 
L 311.369283 -362.978069 
L 308.967743 -362.949492 
L 306.566204 -362.96765 
L 304.164665 -363.044748 
L 301.763126 -363.267073 
L 299.361587 -363.602223 
L 296.960048 -363.962767 
L 294.558509 -364.370891 
L 292.15697 -364.702065 
L 289.755431 -365.038068 
L 287.353892 -365.441426 
L 284.952353 -366.032877 
L 282.550814 -366.691207 
L 280.149275 -367.530423 
L 277.747735 -368.460222 
L 275.346196 -369.378739 
L 272.944657 -370.24666 
L 270.543118 -371.438136 
L 268.141579 -372.774339 
L 265.74004 -374.203443 
L 263.338501 -375.726164 
L 260.936962 -377.30091 
L 258.535423 -378.847238 
L 256.133884 -380.614075 
L 253.732345 -382.342841 
L 251.330806 -384.109912 
L 248.929267 -386.003343 
L 246.527727 -387.918875 
L 244.126188 -389.90994 
L 241.724649 -391.814514 
L 239.32311 -393.881812 
L 236.921571 -395.942078 
L 234.520032 -398.062751 
L 232.118493 -400.130198 
L 229.716954 -402.191067 
L 227.315415 -404.230089 
L 224.913876 -406.332704 
L 222.512337 -408.340547 
L 220.110798 -410.419845 
L 217.709259 -412.584998 
L 215.307719 -414.760846 
L 212.90618 -416.889052 
L 210.504641 -419.023084 
L 208.103102 -421.075924 
L 205.701563 -423.216348 
L 203.300024 -425.370381 
L 200.898485 -427.443393 
L 198.496946 -429.531351 
L 196.095407 -431.566825 
L 193.693868 -433.883029 
L 191.292329 -436.063479 
L 188.89079 -438.101751 
L 186.48925 -439.975391 
L 184.087711 -441.838247 
L 181.686172 -443.644441 
L 179.284633 -445.518732 
L 176.883094 -447.218136 
L 174.481555 -448.829696 
L 172.080016 -450.382579 
L 169.678477 -451.865076 
L 167.276938 -453.319795 
z
" style="stroke: #74b8f8; stroke-opacity: 0.2"/>
    </defs>
    <g clip-path="url(#pf5c5119a56)">
     <use xlink:href="#m7d04cf4a38" x="0" y="600" style="fill: #74b8f8; fill-opacity: 0.2; stroke: #74b8f8; stroke-opacity: 0.2"/>
    </g>
   </g>
   <g id="PolyCollection_2">
    <defs>
     <path id="md73a1694eb" d="M 116.844617 -471.148073 
L 116.844617 -467.566981 
L 119.246156 -467.202223 
L 121.647695 -466.959541 
L 124.049234 -466.61481 
L 126.450774 -466.178395 
L 128.852313 -465.722022 
L 131.253852 -465.336683 
L 133.655391 -465.104054 
L 136.05693 -464.723 
L 138.458469 -464.355943 
L 140.860008 -463.936186 
L 143.261547 -463.131374 
L 145.663086 -462.441184 
L 148.064625 -461.82112 
L 150.466164 -461.057596 
L 152.867703 -460.255124 
L 155.269242 -459.340564 
L 157.670782 -458.254632 
L 160.072321 -457.057058 
L 162.47386 -455.918406 
L 164.875399 -454.648 
L 164.875399 -454.648 
L 164.875399 -454.648 
L 162.47386 -456.211123 
L 160.072321 -457.642303 
L 157.670782 -459.144268 
L 155.269242 -460.486381 
L 152.867703 -461.698396 
L 150.466164 -462.754093 
L 148.064625 -463.79414 
L 145.663086 -464.646378 
L 143.261547 -465.544642 
L 140.860008 -466.562712 
L 138.458469 -467.141429 
L 136.05693 -467.678023 
L 133.655391 -468.203226 
L 131.253852 -468.579177 
L 128.852313 -468.967774 
L 126.450774 -469.444683 
L 124.049234 -469.97826 
L 121.647695 -470.489629 
L 119.246156 -470.853921 
L 116.844617 -471.148073 
z
" style="stroke: #000000; stroke-opacity: 0.2"/>
    </defs>
    <g clip-path="url(#pf5c5119a56)">
     <use xlink:href="#md73a1694eb" x="0" y="600" style="fill-opacity: 0.2; stroke: #000000; stroke-opacity: 0.2"/>
    </g>
   </g>
   <g id="PolyCollection_3">
    <defs>
     <path id="m9c0db00c3c" d="M 167.276938 -453.384208 
L 167.276938 -452.934736 
L 169.678477 -451.076478 
L 172.080016 -449.184602 
L 174.481555 -447.203669 
L 176.883094 -445.034967 
L 179.284633 -442.744474 
L 181.686172 -440.344051 
L 184.087711 -437.939569 
L 186.48925 -435.518225 
L 188.89079 -433.167395 
L 191.292329 -431.026751 
L 193.693868 -428.680185 
L 196.095407 -426.177776 
L 198.496946 -423.308949 
L 200.898485 -420.198523 
L 203.300024 -416.919045 
L 205.701563 -413.7443 
L 208.103102 -410.771893 
L 210.504641 -407.821688 
L 212.90618 -404.89295 
L 215.307719 -401.826671 
L 217.709259 -398.730398 
L 220.110798 -395.8377 
L 222.512337 -393.101334 
L 224.913876 -390.331463 
L 227.315415 -387.571865 
L 229.716954 -384.872053 
L 232.118493 -382.219889 
L 234.520032 -379.345204 
L 236.921571 -376.31456 
L 239.32311 -373.249085 
L 241.724649 -369.614245 
L 244.126188 -366.074061 
L 246.527727 -362.534342 
L 248.929267 -359.740402 
L 251.330806 -357.175437 
L 253.732345 -354.724791 
L 256.133884 -352.477824 
L 258.535423 -350.232506 
L 260.936962 -347.97788 
L 263.338501 -345.683522 
L 265.74004 -342.933738 
L 268.141579 -340.163823 
L 270.543118 -337.503187 
L 272.944657 -334.91079 
L 275.346196 -332.2977 
L 277.747735 -329.787661 
L 280.149275 -327.323082 
L 282.550814 -324.986473 
L 284.952353 -322.610915 
L 287.353892 -320.471642 
L 289.755431 -318.443734 
L 292.15697 -316.374045 
L 294.558509 -314.361574 
L 296.960048 -312.323133 
L 299.361587 -310.328901 
L 301.763126 -308.376288 
L 304.164665 -306.41455 
L 306.566204 -304.349827 
L 308.967743 -302.357247 
L 311.369283 -300.245571 
L 313.770822 -298.180348 
L 316.172361 -296.127543 
L 318.5739 -294.068153 
L 320.975439 -292.053263 
L 323.376978 -290.098801 
L 325.778517 -288.298872 
L 328.180056 -286.511207 
L 330.581595 -284.77327 
L 332.983134 -283.057182 
L 335.384673 -281.347806 
L 337.786212 -279.67659 
L 340.187751 -277.918486 
L 342.589291 -276.053999 
L 344.99083 -274.363278 
L 347.392369 -272.639567 
L 349.793908 -270.918555 
L 352.195447 -269.201118 
L 354.596986 -267.60271 
L 356.998525 -266.007883 
L 359.400064 -264.535685 
L 361.801603 -263.075237 
L 364.203142 -261.731885 
L 366.604681 -260.432165 
L 369.00622 -259.181188 
L 371.407759 -257.936046 
L 373.809299 -256.557411 
L 376.210838 -255.167479 
L 378.612377 -253.833866 
L 381.013916 -252.518468 
L 383.415455 -251.196169 
L 385.816994 -249.854154 
L 388.218533 -248.579182 
L 390.620072 -247.234783 
L 393.021611 -245.8196 
L 395.42315 -244.457088 
L 397.824689 -243.019779 
L 400.226228 -241.626419 
L 402.627768 -240.224764 
L 405.029307 -238.914849 
L 407.430846 -237.592367 
L 409.832385 -236.364788 
L 412.233924 -235.065689 
L 414.635463 -233.839369 
L 417.037002 -232.655468 
L 419.438541 -231.474949 
L 421.84008 -230.367268 
L 424.241619 -229.315041 
L 426.643158 -228.204467 
L 429.044697 -227.125581 
L 431.446236 -226.07829 
L 433.847776 -225.058268 
L 436.249315 -224.028316 
L 438.650854 -223.039024 
L 441.052393 -222.105323 
L 443.453932 -221.177786 
L 445.855471 -220.399672 
L 448.25701 -219.6505 
L 450.658549 -218.921088 
L 453.060088 -218.194547 
L 455.461627 -217.499684 
L 457.863166 -216.770331 
L 460.264705 -216.125072 
L 462.666244 -215.475835 
L 465.067784 -214.796947 
L 467.469323 -214.108925 
L 469.870862 -213.442571 
L 472.272401 -212.7999 
L 474.67394 -212.237086 
L 477.075479 -211.673557 
L 479.477018 -211.126694 
L 481.878557 -210.59823 
L 484.280096 -210.088425 
L 486.681635 -209.58566 
L 489.083174 -209.025019 
L 491.484713 -208.471922 
L 493.886252 -207.884576 
L 496.287792 -207.262827 
L 498.689331 -206.65605 
L 501.09087 -206.117378 
L 503.492409 -205.589925 
L 505.893948 -205.129066 
L 508.295487 -204.699312 
L 510.697026 -204.269422 
L 513.098565 -203.836931 
L 515.500104 -203.422123 
L 517.901643 -202.959867 
L 520.303182 -202.480639 
L 522.704721 -201.969671 
L 525.10626 -201.448983 
L 527.5078 -200.929575 
L 529.909339 -200.400595 
L 532.310878 -199.868089 
L 534.712417 -199.383911 
L 537.113956 -198.925907 
L 539.515495 -198.439918 
L 541.917034 -197.993148 
L 544.318573 -197.559319 
L 546.720112 -197.153806 
L 549.121651 -196.695052 
L 551.52319 -196.265465 
L 553.924729 -195.784178 
L 556.326268 -195.26404 
L 558.727808 -194.729853 
L 561.129347 -194.235784 
L 563.530886 -193.79541 
L 565.932425 -193.400901 
L 568.333964 -192.948799 
L 570.735503 -192.495045 
L 573.137042 -192.009041 
L 575.538581 -191.563322 
L 577.94012 -191.103501 
L 580.341659 -190.635176 
L 582.743198 -190.132832 
L 585.144737 -189.668135 
L 587.546277 -189.223123 
L 589.947816 -188.723501 
L 592.349355 -188.264056 
L 594.750894 -187.784291 
L 597.152433 -187.316445 
L 599.553972 -186.807068 
L 601.955511 -186.302834 
L 604.35705 -185.809234 
L 606.758589 -185.34237 
L 609.160128 -184.843347 
L 611.561667 -184.306353 
L 613.963206 -183.795417 
L 616.364745 -183.353121 
L 618.766285 -182.931727 
L 621.167824 -182.603216 
L 623.569363 -182.234129 
L 625.970902 -181.83309 
L 628.372441 -181.453838 
L 630.77398 -181.047563 
L 633.175519 -180.611772 
L 635.577058 -180.229237 
L 637.978597 -179.868222 
L 640.380136 -179.490775 
L 642.781675 -179.098316 
L 645.183214 -178.683949 
L 647.584753 -178.280148 
L 649.986293 -177.874955 
L 652.387832 -177.500528 
L 654.789371 -177.11594 
L 657.19091 -176.746707 
L 659.592449 -176.381929 
L 661.993988 -176.05878 
L 664.395527 -175.702199 
L 666.797066 -175.357805 
L 669.198605 -175.020716 
L 671.600144 -174.704896 
L 674.001683 -174.461611 
L 676.403222 -174.210335 
L 678.804761 -173.966123 
L 681.206301 -173.754328 
L 683.60784 -173.509507 
L 686.009379 -173.278604 
L 688.410918 -173.036628 
L 690.812457 -172.821362 
L 693.213996 -172.605583 
L 695.615535 -172.417951 
L 698.017074 -172.280842 
L 700.418613 -172.097444 
L 702.820152 -171.925556 
L 705.221691 -171.769769 
L 707.62323 -171.635739 
L 710.024769 -171.463019 
L 712.426309 -171.284982 
L 714.827848 -171.038409 
L 717.229387 -170.763688 
L 719.630926 -170.49508 
L 722.032465 -170.186163 
L 724.434004 -169.881633 
L 726.835543 -169.601904 
L 729.237082 -169.302756 
L 731.638621 -169.007035 
L 734.04016 -168.704366 
L 736.441699 -168.416325 
L 738.843238 -168.113311 
L 741.244777 -167.826104 
L 743.646317 -167.557347 
L 746.047856 -167.269706 
L 748.449395 -166.97476 
L 750.850934 -166.6905 
L 753.252473 -166.38881 
L 755.654012 -166.093308 
L 758.055551 -165.82563 
L 760.45709 -165.564724 
L 762.858629 -165.364629 
L 765.260168 -165.178285 
L 767.661707 -164.985188 
L 770.063246 -164.808703 
L 772.464786 -164.621066 
L 774.866325 -164.456562 
L 777.267864 -164.297332 
L 779.669403 -164.112779 
L 782.070942 -163.92691 
L 784.472481 -163.761735 
L 786.87402 -163.598091 
L 789.275559 -163.437191 
L 791.677098 -163.246549 
L 794.078637 -163.055134 
L 796.480176 -162.893918 
L 798.881715 -162.733489 
L 801.283254 -162.613418 
L 803.684794 -162.471987 
L 806.086333 -162.279624 
L 808.487872 -162.120811 
L 810.889411 -161.980257 
L 813.29095 -161.851411 
L 815.692489 -161.74082 
L 818.094028 -161.654111 
L 820.495567 -161.584235 
L 822.897106 -161.498809 
L 825.298645 -161.41268 
L 827.700184 -161.350694 
L 830.101723 -161.291479 
L 832.503262 -161.20945 
L 834.904802 -161.155464 
L 837.306341 -161.107029 
L 837.306341 -259.00166 
L 837.306341 -259.00166 
L 834.904802 -259.419337 
L 832.503262 -259.892165 
L 830.101723 -260.30324 
L 827.700184 -260.422146 
L 825.298645 -260.48107 
L 822.897106 -260.537727 
L 820.495567 -260.571946 
L 818.094028 -260.572898 
L 815.692489 -260.57868 
L 813.29095 -260.626966 
L 810.889411 -260.659662 
L 808.487872 -260.70387 
L 806.086333 -260.75724 
L 803.684794 -260.789187 
L 801.283254 -260.831279 
L 798.881715 -260.850392 
L 796.480176 -260.883861 
L 794.078637 -260.910704 
L 791.677098 -260.924674 
L 789.275559 -260.893449 
L 786.87402 -260.809916 
L 784.472481 -260.704916 
L 782.070942 -260.646472 
L 779.669403 -260.559597 
L 777.267864 -260.506778 
L 774.866325 -260.426382 
L 772.464786 -260.384254 
L 770.063246 -260.360312 
L 767.661707 -260.328076 
L 765.260168 -260.272494 
L 762.858629 -260.209513 
L 760.45709 -260.14549 
L 758.055551 -260.074303 
L 755.654012 -259.985169 
L 753.252473 -259.880151 
L 750.850934 -259.811058 
L 748.449395 -259.748335 
L 746.047856 -259.724974 
L 743.646317 -259.712237 
L 741.244777 -259.673692 
L 738.843238 -259.670626 
L 736.441699 -259.649931 
L 734.04016 -259.571813 
L 731.638621 -259.518294 
L 729.237082 -259.456766 
L 726.835543 -259.433027 
L 724.434004 -259.368215 
L 722.032465 -259.320494 
L 719.630926 -259.292379 
L 717.229387 -259.293975 
L 714.827848 -259.307465 
L 712.426309 -259.30846 
L 710.024769 -259.314989 
L 707.62323 -259.307492 
L 705.221691 -259.301586 
L 702.820152 -259.27965 
L 700.418613 -259.238267 
L 698.017074 -259.149586 
L 695.615535 -259.058381 
L 693.213996 -259.059792 
L 690.812457 -259.062369 
L 688.410918 -259.041221 
L 686.009379 -259.038393 
L 683.60784 -259.056908 
L 681.206301 -259.071159 
L 678.804761 -259.048934 
L 676.403222 -259.078012 
L 674.001683 -259.103253 
L 671.600144 -259.12311 
L 669.198605 -259.105991 
L 666.797066 -259.086464 
L 664.395527 -259.057154 
L 661.993988 -259.011579 
L 659.592449 -259.010617 
L 657.19091 -259.04068 
L 654.789371 -259.096523 
L 652.387832 -259.151485 
L 649.986293 -259.141672 
L 647.584753 -258.811894 
L 645.183214 -258.414791 
L 642.781675 -258.032284 
L 640.380136 -257.790848 
L 637.978597 -257.49708 
L 635.577058 -257.047437 
L 633.175519 -256.562422 
L 630.77398 -256.129081 
L 628.372441 -255.673217 
L 625.970902 -255.27689 
L 623.569363 -254.833772 
L 621.167824 -254.771662 
L 618.766285 -254.85216 
L 616.364745 -254.972558 
L 613.963206 -255.114169 
L 611.561667 -255.211639 
L 609.160128 -255.272251 
L 606.758589 -255.393008 
L 604.35705 -255.572517 
L 601.955511 -255.744787 
L 599.553972 -255.906152 
L 597.152433 -256.06489 
L 594.750894 -256.257252 
L 592.349355 -256.436382 
L 589.947816 -256.614115 
L 587.546277 -256.806518 
L 585.144737 -257.004771 
L 582.743198 -257.165344 
L 580.341659 -257.307699 
L 577.94012 -257.377811 
L 575.538581 -257.45256 
L 573.137042 -257.555118 
L 570.735503 -257.665509 
L 568.333964 -257.751436 
L 565.932425 -257.865921 
L 563.530886 -257.995434 
L 561.129347 -258.119259 
L 558.727808 -258.237167 
L 556.326268 -258.360733 
L 553.924729 -258.500658 
L 551.52319 -258.661665 
L 549.121651 -258.840899 
L 546.720112 -258.985768 
L 544.318573 -259.140687 
L 541.917034 -259.298183 
L 539.515495 -259.498702 
L 537.113956 -259.638023 
L 534.712417 -259.817407 
L 532.310878 -259.989661 
L 529.909339 -260.226646 
L 527.5078 -260.492135 
L 525.10626 -260.742029 
L 522.704721 -260.974737 
L 520.303182 -261.211105 
L 517.901643 -261.398704 
L 515.500104 -261.627828 
L 513.098565 -261.928467 
L 510.697026 -262.11444 
L 508.295487 -262.336714 
L 505.893948 -262.564395 
L 503.492409 -262.817128 
L 501.09087 -263.097982 
L 498.689331 -263.369128 
L 496.287792 -263.634636 
L 493.886252 -263.903276 
L 491.484713 -264.225174 
L 489.083174 -264.566334 
L 486.681635 -264.904614 
L 484.280096 -265.295959 
L 481.878557 -265.704976 
L 479.477018 -266.132071 
L 477.075479 -266.536766 
L 474.67394 -266.967912 
L 472.272401 -267.424384 
L 469.870862 -267.905838 
L 467.469323 -268.364874 
L 465.067784 -268.787287 
L 462.666244 -269.210472 
L 460.264705 -269.58676 
L 457.863166 -269.957686 
L 455.461627 -270.341266 
L 453.060088 -270.705606 
L 450.658549 -271.101293 
L 448.25701 -271.510164 
L 445.855471 -271.934122 
L 443.453932 -272.30254 
L 441.052393 -272.703587 
L 438.650854 -273.140239 
L 436.249315 -273.525685 
L 433.847776 -273.900594 
L 431.446236 -274.278459 
L 429.044697 -274.682028 
L 426.643158 -275.086968 
L 424.241619 -275.502655 
L 421.84008 -275.937103 
L 419.438541 -276.422127 
L 417.037002 -276.919468 
L 414.635463 -277.45202 
L 412.233924 -278.054858 
L 409.832385 -278.658152 
L 407.430846 -279.236316 
L 405.029307 -279.859541 
L 402.627768 -280.431337 
L 400.226228 -281.002274 
L 397.824689 -281.567022 
L 395.42315 -282.142474 
L 393.021611 -282.717627 
L 390.620072 -283.458671 
L 388.218533 -284.26477 
L 385.816994 -285.008902 
L 383.415455 -285.750613 
L 381.013916 -286.472 
L 378.612377 -287.249419 
L 376.210838 -288.107525 
L 373.809299 -289.048849 
L 371.407759 -289.996626 
L 369.00622 -290.952115 
L 366.604681 -291.809555 
L 364.203142 -292.637144 
L 361.801603 -293.47735 
L 359.400064 -294.161119 
L 356.998525 -294.745055 
L 354.596986 -295.356763 
L 352.195447 -296.012486 
L 349.793908 -296.796467 
L 347.392369 -297.720501 
L 344.99083 -298.676071 
L 342.589291 -299.695388 
L 340.187751 -300.714844 
L 337.786212 -301.863182 
L 335.384673 -303.117478 
L 332.983134 -304.564105 
L 330.581595 -306.026633 
L 328.180056 -307.569406 
L 325.778517 -309.191726 
L 323.376978 -310.786705 
L 320.975439 -312.644943 
L 318.5739 -314.537343 
L 316.172361 -316.453227 
L 313.770822 -318.368176 
L 311.369283 -320.250209 
L 308.967743 -322.168274 
L 306.566204 -324.091128 
L 304.164665 -325.994051 
L 301.763126 -327.908953 
L 299.361587 -329.836786 
L 296.960048 -331.804869 
L 294.558509 -333.785291 
L 292.15697 -335.878393 
L 289.755431 -337.952209 
L 287.353892 -339.992885 
L 284.952353 -342.082829 
L 282.550814 -344.19391 
L 280.149275 -346.186206 
L 277.747735 -348.196237 
L 275.346196 -350.177008 
L 272.944657 -352.202217 
L 270.543118 -354.208648 
L 268.141579 -356.203251 
L 265.74004 -358.252441 
L 263.338501 -360.281341 
L 260.936962 -362.396359 
L 258.535423 -364.595241 
L 256.133884 -366.867242 
L 253.732345 -369.166896 
L 251.330806 -371.433262 
L 248.929267 -373.655064 
L 246.527727 -375.978983 
L 244.126188 -378.241615 
L 241.724649 -380.623169 
L 239.32311 -382.977391 
L 236.921571 -385.329267 
L 234.520032 -387.739569 
L 232.118493 -390.182195 
L 229.716954 -392.628375 
L 227.315415 -395.068556 
L 224.913876 -397.843861 
L 222.512337 -400.694488 
L 220.110798 -403.655794 
L 217.709259 -406.693614 
L 215.307719 -409.138341 
L 212.90618 -411.507703 
L 210.504641 -413.762835 
L 208.103102 -416.112197 
L 205.701563 -418.640318 
L 203.300024 -421.278518 
L 200.898485 -423.834909 
L 198.496946 -426.31123 
L 196.095407 -428.848763 
L 193.693868 -431.320663 
L 191.292329 -433.831491 
L 188.89079 -436.013088 
L 186.48925 -438.26434 
L 184.087711 -440.621467 
L 181.686172 -442.854512 
L 179.284633 -445.085973 
L 176.883094 -446.934131 
L 174.481555 -448.590149 
L 172.080016 -450.206352 
L 169.678477 -451.83175 
L 167.276938 -453.384208 
z
" style="stroke: #f47100; stroke-opacity: 0.2"/>
    </defs>
    <g clip-path="url(#pf5c5119a56)">
     <use xlink:href="#m9c0db00c3c" x="0" y="600" style="fill: #f47100; fill-opacity: 0.2; stroke: #f47100; stroke-opacity: 0.2"/>
    </g>
   </g>
   <g id="PolyCollection_4">
    <defs>
     <path id="ma1235ec592" d="M 116.844617 -473.855004 
L 116.844617 -466.634556 
L 119.246156 -466.233896 
L 121.647695 -466.05204 
L 124.049234 -465.790456 
L 126.450774 -465.402154 
L 128.852313 -464.955378 
L 131.253852 -464.571123 
L 133.655391 -464.410359 
L 136.05693 -464.101111 
L 138.458469 -463.818626 
L 140.860008 -463.477967 
L 143.261547 -462.778955 
L 145.663086 -462.090929 
L 148.064625 -461.508738 
L 150.466164 -460.856823 
L 152.867703 -460.069052 
L 155.269242 -459.274481 
L 157.670782 -458.208358 
L 160.072321 -457.015118 
L 162.47386 -455.891654 
L 164.875399 -454.648 
L 164.875399 -454.648 
L 164.875399 -454.648 
L 162.47386 -456.268503 
L 160.072321 -457.874171 
L 157.670782 -459.52274 
L 155.269242 -460.978549 
L 152.867703 -462.345318 
L 150.466164 -463.659299 
L 148.064625 -464.912815 
L 145.663086 -466.133314 
L 143.261547 -467.666907 
L 140.860008 -468.937699 
L 138.458469 -469.51694 
L 136.05693 -470.140144 
L 133.655391 -470.796255 
L 131.253852 -471.335331 
L 128.852313 -471.89965 
L 126.450774 -472.433668 
L 124.049234 -472.824981 
L 121.647695 -473.21352 
L 119.246156 -473.547174 
L 116.844617 -473.855004 
z
" style="stroke: #000000; stroke-opacity: 0.2"/>
    </defs>
    <g clip-path="url(#pf5c5119a56)">
     <use xlink:href="#ma1235ec592" x="0" y="600" style="fill-opacity: 0.2; stroke: #000000; stroke-opacity: 0.2"/>
    </g>
   </g>
   <g id="PolyCollection_5">
    <defs>
     <path id="m21faeaa23c" d="M 167.276938 -453.292222 
L 167.276938 -452.664204 
L 169.678477 -450.472663 
L 172.080016 -448.357003 
L 174.481555 -446.139716 
L 176.883094 -443.811139 
L 179.284633 -441.479959 
L 181.686172 -439.027777 
L 184.087711 -436.4455 
L 186.48925 -433.795737 
L 188.89079 -431.094493 
L 191.292329 -428.330966 
L 193.693868 -425.71321 
L 196.095407 -423.056755 
L 198.496946 -420.339895 
L 200.898485 -417.389091 
L 203.300024 -414.217925 
L 205.701563 -411.624152 
L 208.103102 -408.65912 
L 210.504641 -405.593631 
L 212.90618 -402.515445 
L 215.307719 -399.271068 
L 217.709259 -395.983794 
L 220.110798 -392.662782 
L 222.512337 -389.23668 
L 224.913876 -385.855172 
L 227.315415 -382.457058 
L 229.716954 -378.969641 
L 232.118493 -375.385788 
L 234.520032 -371.789724 
L 236.921571 -368.113668 
L 239.32311 -364.450144 
L 241.724649 -360.815519 
L 244.126188 -357.23402 
L 246.527727 -353.709348 
L 248.929267 -350.26409 
L 251.330806 -346.904508 
L 253.732345 -343.570228 
L 256.133884 -340.122738 
L 258.535423 -336.63111 
L 260.936962 -333.627447 
L 263.338501 -330.963452 
L 265.74004 -328.432999 
L 268.141579 -325.425305 
L 270.543118 -322.21771 
L 272.944657 -319.002744 
L 275.346196 -315.752797 
L 277.747735 -312.921684 
L 280.149275 -310.425497 
L 282.550814 -308.147879 
L 284.952353 -306.194913 
L 287.353892 -304.259568 
L 289.755431 -302.40059 
L 292.15697 -300.544479 
L 294.558509 -298.796897 
L 296.960048 -297.000754 
L 299.361587 -295.405206 
L 301.763126 -293.945488 
L 304.164665 -292.532033 
L 306.566204 -291.13488 
L 308.967743 -289.784193 
L 311.369283 -288.136267 
L 313.770822 -286.181301 
L 316.172361 -284.253294 
L 318.5739 -282.565251 
L 320.975439 -281.132257 
L 323.376978 -279.660281 
L 325.778517 -278.262391 
L 328.180056 -276.894485 
L 330.581595 -275.523908 
L 332.983134 -274.182189 
L 335.384673 -272.95995 
L 337.786212 -271.499163 
L 340.187751 -269.567343 
L 342.589291 -267.648893 
L 344.99083 -265.73351 
L 347.392369 -263.822098 
L 349.793908 -262.027114 
L 352.195447 -260.302738 
L 354.596986 -258.633486 
L 356.998525 -256.917817 
L 359.400064 -255.173844 
L 361.801603 -253.498201 
L 364.203142 -251.562653 
L 366.604681 -249.681786 
L 369.00622 -248.197095 
L 371.407759 -246.74867 
L 373.809299 -245.35572 
L 376.210838 -243.961363 
L 378.612377 -242.567955 
L 381.013916 -241.048062 
L 383.415455 -239.484209 
L 385.816994 -237.89618 
L 388.218533 -236.367949 
L 390.620072 -234.833691 
L 393.021611 -233.351574 
L 395.42315 -231.944326 
L 397.824689 -230.583521 
L 400.226228 -229.223924 
L 402.627768 -227.832681 
L 405.029307 -226.479411 
L 407.430846 -225.185412 
L 409.832385 -223.854223 
L 412.233924 -222.494591 
L 414.635463 -221.22792 
L 417.037002 -219.952509 
L 419.438541 -218.66504 
L 421.84008 -217.309957 
L 424.241619 -216.007762 
L 426.643158 -214.704559 
L 429.044697 -213.397521 
L 431.446236 -212.209846 
L 433.847776 -211.069306 
L 436.249315 -209.92212 
L 438.650854 -208.876098 
L 441.052393 -207.807058 
L 443.453932 -206.76369 
L 445.855471 -205.73349 
L 448.25701 -204.705901 
L 450.658549 -203.663587 
L 453.060088 -202.649311 
L 455.461627 -201.630741 
L 457.863166 -200.625581 
L 460.264705 -199.691825 
L 462.666244 -198.823437 
L 465.067784 -198.124395 
L 467.469323 -197.483687 
L 469.870862 -196.884097 
L 472.272401 -196.212552 
L 474.67394 -195.623125 
L 477.075479 -195.031419 
L 479.477018 -194.036934 
L 481.878557 -193.302612 
L 484.280096 -192.624795 
L 486.681635 -191.905975 
L 489.083174 -191.223416 
L 491.484713 -190.59587 
L 493.886252 -189.987016 
L 496.287792 -189.356868 
L 498.689331 -188.734997 
L 501.09087 -188.172416 
L 503.492409 -187.637825 
L 505.893948 -187.117251 
L 508.295487 -186.61774 
L 510.697026 -186.080403 
L 513.098565 -185.584651 
L 515.500104 -185.115167 
L 517.901643 -184.657278 
L 520.303182 -184.147237 
L 522.704721 -183.535388 
L 525.10626 -182.854997 
L 527.5078 -182.163343 
L 529.909339 -181.492422 
L 532.310878 -180.812151 
L 534.712417 -180.118741 
L 537.113956 -179.424978 
L 539.515495 -178.712016 
L 541.917034 -177.998856 
L 544.318573 -177.312048 
L 546.720112 -176.612668 
L 549.121651 -175.987563 
L 551.52319 -175.406865 
L 553.924729 -174.904124 
L 556.326268 -174.420626 
L 558.727808 -173.965407 
L 561.129347 -173.498569 
L 563.530886 -173.069051 
L 565.932425 -172.643031 
L 568.333964 -172.2464 
L 570.735503 -171.864464 
L 573.137042 -171.571244 
L 575.538581 -171.245446 
L 577.94012 -170.882695 
L 580.341659 -170.50009 
L 582.743198 -170.149326 
L 585.144737 -169.789305 
L 587.546277 -169.459725 
L 589.947816 -169.160709 
L 592.349355 -168.917865 
L 594.750894 -168.67766 
L 597.152433 -168.377718 
L 599.553972 -168.089436 
L 601.955511 -167.778728 
L 604.35705 -167.401123 
L 606.758589 -166.799659 
L 609.160128 -166.193211 
L 611.561667 -165.616188 
L 613.963206 -165.016891 
L 616.364745 -164.408988 
L 618.766285 -163.838189 
L 621.167824 -163.292688 
L 623.569363 -162.774676 
L 625.970902 -162.257259 
L 628.372441 -161.696117 
L 630.77398 -161.130206 
L 633.175519 -160.587599 
L 635.577058 -160.074347 
L 637.978597 -159.528241 
L 640.380136 -158.979734 
L 642.781675 -158.468027 
L 645.183214 -157.936186 
L 647.584753 -157.383882 
L 649.986293 -156.844594 
L 652.387832 -156.372348 
L 654.789371 -155.889802 
L 657.19091 -155.405801 
L 659.592449 -154.948534 
L 661.993988 -154.532556 
L 664.395527 -154.112436 
L 666.797066 -153.684852 
L 669.198605 -153.270355 
L 671.600144 -152.885286 
L 674.001683 -152.521694 
L 676.403222 -152.186402 
L 678.804761 -151.828782 
L 681.206301 -151.496801 
L 683.60784 -151.19085 
L 686.009379 -150.901014 
L 688.410918 -150.63266 
L 690.812457 -150.36372 
L 693.213996 -150.125602 
L 695.615535 -149.912153 
L 698.017074 -149.719607 
L 700.418613 -149.513411 
L 702.820152 -149.316954 
L 705.221691 -149.113427 
L 707.62323 -148.90172 
L 710.024769 -148.698253 
L 712.426309 -148.497591 
L 714.827848 -148.320111 
L 717.229387 -148.143418 
L 719.630926 -147.964275 
L 722.032465 -147.821688 
L 724.434004 -147.677071 
L 726.835543 -147.546904 
L 729.237082 -147.41581 
L 731.638621 -147.285573 
L 734.04016 -147.146798 
L 736.441699 -147.002477 
L 738.843238 -146.862609 
L 741.244777 -146.746118 
L 743.646317 -146.661499 
L 746.047856 -146.577277 
L 748.449395 -146.479506 
L 750.850934 -146.395637 
L 753.252473 -146.339952 
L 755.654012 -146.326751 
L 758.055551 -146.291888 
L 760.45709 -146.288218 
L 762.858629 -146.296859 
L 765.260168 -146.302135 
L 767.661707 -146.314089 
L 770.063246 -146.314085 
L 772.464786 -146.321519 
L 774.866325 -146.351117 
L 777.267864 -146.386033 
L 779.669403 -146.430561 
L 782.070942 -146.527176 
L 784.472481 -146.608976 
L 786.87402 -146.691891 
L 789.275559 -146.757912 
L 791.677098 -146.8063 
L 794.078637 -146.865347 
L 796.480176 -146.959644 
L 798.881715 -147.052486 
L 801.283254 -147.211047 
L 803.684794 -147.330743 
L 806.086333 -147.447232 
L 808.487872 -147.553442 
L 810.889411 -147.634392 
L 813.29095 -147.727458 
L 815.692489 -147.797023 
L 818.094028 -147.836604 
L 820.495567 -147.885377 
L 822.897106 -147.948365 
L 825.298645 -148.006938 
L 827.700184 -148.062443 
L 830.101723 -148.093572 
L 832.503262 -148.148976 
L 834.904802 -148.209999 
L 837.306341 -148.305093 
L 837.306341 -217.075128 
L 837.306341 -217.075128 
L 834.904802 -217.189494 
L 832.503262 -217.227809 
L 830.101723 -217.249212 
L 827.700184 -217.276915 
L 825.298645 -217.312507 
L 822.897106 -217.370102 
L 820.495567 -217.383041 
L 818.094028 -217.345144 
L 815.692489 -217.310705 
L 813.29095 -217.330015 
L 810.889411 -217.343189 
L 808.487872 -217.374206 
L 806.086333 -217.372431 
L 803.684794 -217.336792 
L 801.283254 -217.342182 
L 798.881715 -217.323515 
L 796.480176 -217.266035 
L 794.078637 -217.205936 
L 791.677098 -217.129312 
L 789.275559 -217.02653 
L 786.87402 -216.910341 
L 784.472481 -216.837198 
L 782.070942 -216.744791 
L 779.669403 -216.663726 
L 777.267864 -216.559996 
L 774.866325 -216.463041 
L 772.464786 -216.447701 
L 770.063246 -216.518275 
L 767.661707 -216.613491 
L 765.260168 -216.688121 
L 762.858629 -216.775964 
L 760.45709 -216.824491 
L 758.055551 -216.917976 
L 755.654012 -217.030122 
L 753.252473 -217.161164 
L 750.850934 -217.262914 
L 748.449395 -217.359154 
L 746.047856 -217.480265 
L 743.646317 -217.620295 
L 741.244777 -217.748649 
L 738.843238 -217.920375 
L 736.441699 -218.065756 
L 734.04016 -218.283362 
L 731.638621 -218.482597 
L 729.237082 -218.710994 
L 726.835543 -218.884759 
L 724.434004 -219.008374 
L 722.032465 -219.113553 
L 719.630926 -219.172077 
L 717.229387 -219.218889 
L 714.827848 -219.289947 
L 712.426309 -219.4081 
L 710.024769 -219.493907 
L 707.62323 -219.567144 
L 705.221691 -219.555725 
L 702.820152 -219.577166 
L 700.418613 -219.6134 
L 698.017074 -219.661911 
L 695.615535 -219.642446 
L 693.213996 -219.643206 
L 690.812457 -219.606652 
L 688.410918 -219.624483 
L 686.009379 -219.594997 
L 683.60784 -219.570794 
L 681.206301 -219.512502 
L 678.804761 -219.462913 
L 676.403222 -219.412495 
L 674.001683 -219.351536 
L 671.600144 -219.277527 
L 669.198605 -219.243402 
L 666.797066 -219.165999 
L 664.395527 -219.059253 
L 661.993988 -218.950118 
L 659.592449 -218.84871 
L 657.19091 -218.794479 
L 654.789371 -218.704827 
L 652.387832 -218.608222 
L 649.986293 -218.448619 
L 647.584753 -218.317526 
L 645.183214 -218.199535 
L 642.781675 -218.053213 
L 640.380136 -217.862165 
L 637.978597 -217.658516 
L 635.577058 -217.452193 
L 633.175519 -217.262507 
L 630.77398 -217.11283 
L 628.372441 -216.968608 
L 625.970902 -216.8087 
L 623.569363 -216.718815 
L 621.167824 -216.602658 
L 618.766285 -216.501873 
L 616.364745 -216.398722 
L 613.963206 -216.29779 
L 611.561667 -216.199972 
L 609.160128 -216.087175 
L 606.758589 -215.996572 
L 604.35705 -215.93215 
L 601.955511 -215.906862 
L 599.553972 -215.968188 
L 597.152433 -216.027296 
L 594.750894 -216.09376 
L 592.349355 -216.191444 
L 589.947816 -216.290425 
L 587.546277 -216.363804 
L 585.144737 -216.48922 
L 582.743198 -216.603914 
L 580.341659 -216.729332 
L 577.94012 -216.843612 
L 575.538581 -216.929028 
L 573.137042 -217.079777 
L 570.735503 -217.217494 
L 568.333964 -217.354889 
L 565.932425 -217.478074 
L 563.530886 -217.617115 
L 561.129347 -217.734422 
L 558.727808 -217.82769 
L 556.326268 -217.878734 
L 553.924729 -217.954338 
L 551.52319 -218.041693 
L 549.121651 -218.152157 
L 546.720112 -218.283206 
L 544.318573 -218.388315 
L 541.917034 -218.515458 
L 539.515495 -218.667244 
L 537.113956 -218.779297 
L 534.712417 -218.909014 
L 532.310878 -219.029593 
L 529.909339 -219.16773 
L 527.5078 -219.321741 
L 525.10626 -219.414381 
L 522.704721 -219.546566 
L 520.303182 -219.70639 
L 517.901643 -219.885212 
L 515.500104 -220.071162 
L 513.098565 -220.272339 
L 510.697026 -220.483971 
L 508.295487 -220.710386 
L 505.893948 -220.92316 
L 503.492409 -221.122488 
L 501.09087 -221.324028 
L 498.689331 -221.53772 
L 496.287792 -221.789859 
L 493.886252 -222.051342 
L 491.484713 -222.300059 
L 489.083174 -222.567853 
L 486.681635 -222.835885 
L 484.280096 -223.137059 
L 481.878557 -223.422062 
L 479.477018 -223.719512 
L 477.075479 -224.060531 
L 474.67394 -224.375229 
L 472.272401 -224.687348 
L 469.870862 -225.018851 
L 467.469323 -225.354548 
L 465.067784 -225.723953 
L 462.666244 -226.158697 
L 460.264705 -226.658624 
L 457.863166 -227.154406 
L 455.461627 -227.71659 
L 453.060088 -228.296849 
L 450.658549 -228.844448 
L 448.25701 -229.411793 
L 445.855471 -229.980345 
L 443.453932 -230.568564 
L 441.052393 -231.164657 
L 438.650854 -231.800186 
L 436.249315 -232.443361 
L 433.847776 -233.155589 
L 431.446236 -233.881182 
L 429.044697 -234.631933 
L 426.643158 -235.417149 
L 424.241619 -236.227253 
L 421.84008 -237.148752 
L 419.438541 -238.077249 
L 417.037002 -239.030679 
L 414.635463 -240.001189 
L 412.233924 -241.020905 
L 409.832385 -242.126015 
L 407.430846 -243.203204 
L 405.029307 -244.288368 
L 402.627768 -245.392875 
L 400.226228 -246.524573 
L 397.824689 -247.623958 
L 395.42315 -248.68331 
L 393.021611 -249.79869 
L 390.620072 -251.045026 
L 388.218533 -252.255819 
L 385.816994 -253.561336 
L 383.415455 -254.76856 
L 381.013916 -255.99243 
L 378.612377 -257.097573 
L 376.210838 -258.059642 
L 373.809299 -259.038969 
L 371.407759 -260.046497 
L 369.00622 -260.985187 
L 366.604681 -262.435296 
L 364.203142 -264.131817 
L 361.801603 -265.317525 
L 359.400064 -266.48376 
L 356.998525 -267.706993 
L 354.596986 -268.941381 
L 352.195447 -270.131279 
L 349.793908 -271.383462 
L 347.392369 -272.712288 
L 344.99083 -274.082691 
L 342.589291 -275.355404 
L 340.187751 -277.687579 
L 337.786212 -280.119859 
L 335.384673 -282.336209 
L 332.983134 -284.54533 
L 330.581595 -286.748577 
L 328.180056 -289.013595 
L 325.778517 -291.263467 
L 323.376978 -292.819029 
L 320.975439 -294.354399 
L 318.5739 -295.891386 
L 316.172361 -298.663917 
L 313.770822 -301.468782 
L 311.369283 -304.232558 
L 308.967743 -306.984029 
L 306.566204 -309.779437 
L 304.164665 -312.561243 
L 301.763126 -315.304809 
L 299.361587 -317.851222 
L 296.960048 -320.307829 
L 294.558509 -322.715526 
L 292.15697 -325.224449 
L 289.755431 -327.935015 
L 287.353892 -330.657096 
L 284.952353 -333.354841 
L 282.550814 -336.088707 
L 280.149275 -338.920848 
L 277.747735 -341.787677 
L 275.346196 -344.660363 
L 272.944657 -347.425134 
L 270.543118 -350.250387 
L 268.141579 -353.165755 
L 265.74004 -356.125277 
L 263.338501 -359.068816 
L 260.936962 -362.000879 
L 258.535423 -365.012273 
L 256.133884 -368.137496 
L 253.732345 -371.174114 
L 251.330806 -374.2115 
L 248.929267 -377.376294 
L 246.527727 -380.555466 
L 244.126188 -383.724476 
L 241.724649 -386.805303 
L 239.32311 -389.893272 
L 236.921571 -393.044953 
L 234.520032 -395.956853 
L 232.118493 -398.917312 
L 229.716954 -401.78503 
L 227.315415 -404.622604 
L 224.913876 -407.357418 
L 222.512337 -410.093711 
L 220.110798 -412.735089 
L 217.709259 -415.352306 
L 215.307719 -417.994069 
L 212.90618 -420.425184 
L 210.504641 -422.702275 
L 208.103102 -424.837594 
L 205.701563 -427.118495 
L 203.300024 -429.397189 
L 200.898485 -431.544031 
L 198.496946 -433.43308 
L 196.095407 -435.269146 
L 193.693868 -437.047715 
L 191.292329 -438.735889 
L 188.89079 -440.520538 
L 186.48925 -442.27962 
L 184.087711 -443.890338 
L 181.686172 -445.421634 
L 179.284633 -446.845644 
L 176.883094 -448.21417 
L 174.481555 -449.469218 
L 172.080016 -450.763512 
L 169.678477 -452.045126 
L 167.276938 -453.292222 
z
" style="stroke: #d01e04; stroke-opacity: 0.2"/>
    </defs>
    <g clip-path="url(#pf5c5119a56)">
     <use xlink:href="#m21faeaa23c" x="0" y="600" style="fill: #d01e04; fill-opacity: 0.2; stroke: #d01e04; stroke-opacity: 0.2"/>
    </g>
   </g>
   <g id="PolyCollection_6">
    <defs>
     <path id="mdd1f08e34e" d="M 116.844617 -476.169623 
L 116.844617 -468.288475 
L 119.246156 -467.885842 
L 121.647695 -467.702899 
L 124.049234 -467.439853 
L 126.450774 -467.049508 
L 128.852313 -466.600473 
L 131.253852 -466.214273 
L 133.655391 -466.052463 
L 136.05693 -465.741493 
L 138.458469 -465.457406 
L 140.860008 -465.114886 
L 143.261547 -464.412196 
L 145.663086 -463.704999 
L 148.064625 -463.175474 
L 150.466164 -462.405932 
L 152.867703 -461.274957 
L 155.269242 -460.061998 
L 157.670782 -458.719078 
L 160.072321 -457.384617 
L 162.47386 -455.99481 
L 164.875399 -454.648 
L 164.875399 -454.648 
L 164.875399 -454.648 
L 162.47386 -456.5638 
L 160.072321 -458.58802 
L 157.670782 -460.439374 
L 155.269242 -462.198606 
L 152.867703 -463.805338 
L 150.466164 -465.368205 
L 148.064625 -466.795076 
L 145.663086 -468.096414 
L 143.261547 -469.252875 
L 140.860008 -470.29387 
L 138.458469 -470.896196 
L 136.05693 -471.438364 
L 133.655391 -472.032027 
L 131.253852 -472.63936 
L 128.852313 -473.26665 
L 126.450774 -473.80815 
L 124.049234 -474.370426 
L 121.647695 -475.065979 
L 119.246156 -475.594029 
L 116.844617 -476.169623 
z
" style="stroke: #000000; stroke-opacity: 0.2"/>
    </defs>
    <g clip-path="url(#pf5c5119a56)">
     <use xlink:href="#mdd1f08e34e" x="0" y="600" style="fill-opacity: 0.2; stroke: #000000; stroke-opacity: 0.2"/>
    </g>
   </g>
   <g id="matplotlib.axis_1">
    <g id="xtick_1">
     <g id="line2d_1">
      <defs>
       <path id="ma1bac3a90d" d="M 0 0 
L 0 3.5 
" style="stroke: #000000; stroke-width: 0.8"/>
      </defs>
      <g>
       <use xlink:href="#ma1bac3a90d" x="164.875399" y="515.56" style="stroke: #000000; stroke-width: 0.8"/>
      </g>
     </g>
     <g id="text_1">
      <!-- 2020 -->
      <g transform="translate(131.790399 542.315938)scale(0.26 -0.26)">
       <defs>
        <path id="DejaVuSans-32" d="M 1228 531 
L 3431 531 
L 3431 0 
L 469 0 
L 469 531 
Q 828 903 1448 1529 
Q 2069 2156 2228 2338 
Q 2531 2678 2651 2914 
Q 2772 3150 2772 3378 
Q 2772 3750 2511 3984 
Q 2250 4219 1831 4219 
Q 1534 4219 1204 4116 
Q 875 4013 500 3803 
L 500 4441 
Q 881 4594 1212 4672 
Q 1544 4750 1819 4750 
Q 2544 4750 2975 4387 
Q 3406 4025 3406 3419 
Q 3406 3131 3298 2873 
Q 3191 2616 2906 2266 
Q 2828 2175 2409 1742 
Q 1991 1309 1228 531 
z
" transform="scale(0.015625)"/>
        <path id="DejaVuSans-30" d="M 2034 4250 
Q 1547 4250 1301 3770 
Q 1056 3291 1056 2328 
Q 1056 1369 1301 889 
Q 1547 409 2034 409 
Q 2525 409 2770 889 
Q 3016 1369 3016 2328 
Q 3016 3291 2770 3770 
Q 2525 4250 2034 4250 
z
M 2034 4750 
Q 2819 4750 3233 4129 
Q 3647 3509 3647 2328 
Q 3647 1150 3233 529 
Q 2819 -91 2034 -91 
Q 1250 -91 836 529 
Q 422 1150 422 2328 
Q 422 3509 836 4129 
Q 1250 4750 2034 4750 
z
" transform="scale(0.015625)"/>
       </defs>
       <use xlink:href="#DejaVuSans-32"/>
       <use xlink:href="#DejaVuSans-30" x="63.623047"/>
       <use xlink:href="#DejaVuSans-32" x="127.246094"/>
       <use xlink:href="#DejaVuSans-30" x="190.869141"/>
      </g>
     </g>
    </g>
    <g id="xtick_2">
     <g id="line2d_2">
      <g>
       <use xlink:href="#ma1bac3a90d" x="356.998525" y="515.56" style="stroke: #000000; stroke-width: 0.8"/>
      </g>
     </g>
     <g id="text_2">
      <!-- 2100 -->
      <g transform="translate(323.913525 542.315938)scale(0.26 -0.26)">
       <defs>
        <path id="DejaVuSans-31" d="M 794 531 
L 1825 531 
L 1825 4091 
L 703 3866 
L 703 4441 
L 1819 4666 
L 2450 4666 
L 2450 531 
L 3481 531 
L 3481 0 
L 794 0 
L 794 531 
z
" transform="scale(0.015625)"/>
       </defs>
       <use xlink:href="#DejaVuSans-32"/>
       <use xlink:href="#DejaVuSans-31" x="63.623047"/>
       <use xlink:href="#DejaVuSans-30" x="127.246094"/>
       <use xlink:href="#DejaVuSans-30" x="190.869141"/>
      </g>
     </g>
    </g>
    <g id="xtick_3">
     <g id="line2d_3">
      <g>
       <use xlink:href="#ma1bac3a90d" x="597.152433" y="515.56" style="stroke: #000000; stroke-width: 0.8"/>
      </g>
     </g>
     <g id="text_3">
      <!-- 2200 -->
      <g transform="translate(564.067433 542.315938)scale(0.26 -0.26)">
       <use xlink:href="#DejaVuSans-32"/>
       <use xlink:href="#DejaVuSans-32" x="63.623047"/>
       <use xlink:href="#DejaVuSans-30" x="127.246094"/>
       <use xlink:href="#DejaVuSans-30" x="190.869141"/>
      </g>
     </g>
    </g>
    <g id="xtick_4">
     <g id="line2d_4">
      <g>
       <use xlink:href="#ma1bac3a90d" x="837.306341" y="515.56" style="stroke: #000000; stroke-width: 0.8"/>
      </g>
     </g>
     <g id="text_4">
      <!-- 2300 -->
      <g transform="translate(804.221341 542.315938)scale(0.26 -0.26)">
       <defs>
        <path id="DejaVuSans-33" d="M 2597 2516 
Q 3050 2419 3304 2112 
Q 3559 1806 3559 1356 
Q 3559 666 3084 287 
Q 2609 -91 1734 -91 
Q 1441 -91 1130 -33 
Q 819 25 488 141 
L 488 750 
Q 750 597 1062 519 
Q 1375 441 1716 441 
Q 2309 441 2620 675 
Q 2931 909 2931 1356 
Q 2931 1769 2642 2001 
Q 2353 2234 1838 2234 
L 1294 2234 
L 1294 2753 
L 1863 2753 
Q 2328 2753 2575 2939 
Q 2822 3125 2822 3475 
Q 2822 3834 2567 4026 
Q 2313 4219 1838 4219 
Q 1578 4219 1281 4162 
Q 984 4106 628 3988 
L 628 4550 
Q 988 4650 1302 4700 
Q 1616 4750 1894 4750 
Q 2613 4750 3031 4423 
Q 3450 4097 3450 3541 
Q 3450 3153 3228 2886 
Q 3006 2619 2597 2516 
z
" transform="scale(0.015625)"/>
       </defs>
       <use xlink:href="#DejaVuSans-32"/>
       <use xlink:href="#DejaVuSans-33" x="63.623047"/>
       <use xlink:href="#DejaVuSans-30" x="127.246094"/>
       <use xlink:href="#DejaVuSans-30" x="190.869141"/>
      </g>
     </g>
    </g>
    <g id="text_5">
     <!-- Year -->
     <g transform="translate(457.010409 568.439687)scale(0.22 -0.22)">
      <defs>
       <path id="DejaVuSans-Bold-59" d="M -63 4666 
L 1253 4666 
L 2316 3003 
L 3378 4666 
L 4697 4666 
L 2919 1966 
L 2919 0 
L 1716 0 
L 1716 1966 
L -63 4666 
z
" transform="scale(0.015625)"/>
       <path id="DejaVuSans-Bold-65" d="M 4031 1759 
L 4031 1441 
L 1416 1441 
Q 1456 1047 1700 850 
Q 1944 653 2381 653 
Q 2734 653 3104 758 
Q 3475 863 3866 1075 
L 3866 213 
Q 3469 63 3072 -14 
Q 2675 -91 2278 -91 
Q 1328 -91 801 392 
Q 275 875 275 1747 
Q 275 2603 792 3093 
Q 1309 3584 2216 3584 
Q 3041 3584 3536 3087 
Q 4031 2591 4031 1759 
z
M 2881 2131 
Q 2881 2450 2695 2645 
Q 2509 2841 2209 2841 
Q 1884 2841 1681 2658 
Q 1478 2475 1428 2131 
L 2881 2131 
z
" transform="scale(0.015625)"/>
       <path id="DejaVuSans-Bold-61" d="M 2106 1575 
Q 1756 1575 1579 1456 
Q 1403 1338 1403 1106 
Q 1403 894 1545 773 
Q 1688 653 1941 653 
Q 2256 653 2472 879 
Q 2688 1106 2688 1447 
L 2688 1575 
L 2106 1575 
z
M 3816 1997 
L 3816 0 
L 2688 0 
L 2688 519 
Q 2463 200 2181 54 
Q 1900 -91 1497 -91 
Q 953 -91 614 226 
Q 275 544 275 1050 
Q 275 1666 698 1953 
Q 1122 2241 2028 2241 
L 2688 2241 
L 2688 2328 
Q 2688 2594 2478 2717 
Q 2269 2841 1825 2841 
Q 1466 2841 1156 2769 
Q 847 2697 581 2553 
L 581 3406 
Q 941 3494 1303 3539 
Q 1666 3584 2028 3584 
Q 2975 3584 3395 3211 
Q 3816 2838 3816 1997 
z
" transform="scale(0.015625)"/>
       <path id="DejaVuSans-Bold-72" d="M 3138 2547 
Q 2991 2616 2845 2648 
Q 2700 2681 2553 2681 
Q 2122 2681 1889 2404 
Q 1656 2128 1656 1613 
L 1656 0 
L 538 0 
L 538 3500 
L 1656 3500 
L 1656 2925 
Q 1872 3269 2151 3426 
Q 2431 3584 2822 3584 
Q 2878 3584 2943 3579 
Q 3009 3575 3134 3559 
L 3138 2547 
z
" transform="scale(0.015625)"/>
      </defs>
      <use xlink:href="#DejaVuSans-Bold-59"/>
      <use xlink:href="#DejaVuSans-Bold-65" x="63.287109"/>
      <use xlink:href="#DejaVuSans-Bold-61" x="131.109375"/>
      <use xlink:href="#DejaVuSans-Bold-72" x="198.589844"/>
     </g>
    </g>
   </g>
   <g id="matplotlib.axis_2">
    <g id="ytick_1">
     <g id="line2d_5">
      <defs>
       <path id="mf615da1b86" d="M 0 0 
L -3.5 0 
" style="stroke: #000000; stroke-width: 0.8"/>
      </defs>
      <g>
       <use xlink:href="#mf615da1b86" x="109.64" y="515.56" style="stroke: #000000; stroke-width: 0.8"/>
      </g>
     </g>
     <g id="text_6">
      <!-- 0 -->
      <g transform="translate(86.0975 525.437969)scale(0.26 -0.26)">
       <use xlink:href="#DejaVuSans-30"/>
      </g>
     </g>
    </g>
    <g id="ytick_2">
     <g id="line2d_6">
      <g>
       <use xlink:href="#mf615da1b86" x="109.64" y="441.5184" style="stroke: #000000; stroke-width: 0.8"/>
      </g>
     </g>
     <g id="text_7">
      <!-- 20 -->
      <g transform="translate(69.555 451.396369)scale(0.26 -0.26)">
       <use xlink:href="#DejaVuSans-32"/>
       <use xlink:href="#DejaVuSans-30" x="63.623047"/>
      </g>
     </g>
    </g>
    <g id="ytick_3">
     <g id="line2d_7">
      <g>
       <use xlink:href="#mf615da1b86" x="109.64" y="367.4768" style="stroke: #000000; stroke-width: 0.8"/>
      </g>
     </g>
     <g id="text_8">
      <!-- 40 -->
      <g transform="translate(69.555 377.354769)scale(0.26 -0.26)">
       <defs>
        <path id="DejaVuSans-34" d="M 2419 4116 
L 825 1625 
L 2419 1625 
L 2419 4116 
z
M 2253 4666 
L 3047 4666 
L 3047 1625 
L 3713 1625 
L 3713 1100 
L 3047 1100 
L 3047 0 
L 2419 0 
L 2419 1100 
L 313 1100 
L 313 1709 
L 2253 4666 
z
" transform="scale(0.015625)"/>
       </defs>
       <use xlink:href="#DejaVuSans-34"/>
       <use xlink:href="#DejaVuSans-30" x="63.623047"/>
      </g>
     </g>
    </g>
    <g id="ytick_4">
     <g id="line2d_8">
      <g>
       <use xlink:href="#mf615da1b86" x="109.64" y="293.4352" style="stroke: #000000; stroke-width: 0.8"/>
      </g>
     </g>
     <g id="text_9">
      <!-- 60 -->
      <g transform="translate(69.555 303.313169)scale(0.26 -0.26)">
       <defs>
        <path id="DejaVuSans-36" d="M 2113 2584 
Q 1688 2584 1439 2293 
Q 1191 2003 1191 1497 
Q 1191 994 1439 701 
Q 1688 409 2113 409 
Q 2538 409 2786 701 
Q 3034 994 3034 1497 
Q 3034 2003 2786 2293 
Q 2538 2584 2113 2584 
z
M 3366 4563 
L 3366 3988 
Q 3128 4100 2886 4159 
Q 2644 4219 2406 4219 
Q 1781 4219 1451 3797 
Q 1122 3375 1075 2522 
Q 1259 2794 1537 2939 
Q 1816 3084 2150 3084 
Q 2853 3084 3261 2657 
Q 3669 2231 3669 1497 
Q 3669 778 3244 343 
Q 2819 -91 2113 -91 
Q 1303 -91 875 529 
Q 447 1150 447 2328 
Q 447 3434 972 4092 
Q 1497 4750 2381 4750 
Q 2619 4750 2861 4703 
Q 3103 4656 3366 4563 
z
" transform="scale(0.015625)"/>
       </defs>
       <use xlink:href="#DejaVuSans-36"/>
       <use xlink:href="#DejaVuSans-30" x="63.623047"/>
      </g>
     </g>
    </g>
    <g id="ytick_5">
     <g id="line2d_9">
      <g>
       <use xlink:href="#mf615da1b86" x="109.64" y="219.3936" style="stroke: #000000; stroke-width: 0.8"/>
      </g>
     </g>
     <g id="text_10">
      <!-- 80 -->
      <g transform="translate(69.555 229.271569)scale(0.26 -0.26)">
       <defs>
        <path id="DejaVuSans-38" d="M 2034 2216 
Q 1584 2216 1326 1975 
Q 1069 1734 1069 1313 
Q 1069 891 1326 650 
Q 1584 409 2034 409 
Q 2484 409 2743 651 
Q 3003 894 3003 1313 
Q 3003 1734 2745 1975 
Q 2488 2216 2034 2216 
z
M 1403 2484 
Q 997 2584 770 2862 
Q 544 3141 544 3541 
Q 544 4100 942 4425 
Q 1341 4750 2034 4750 
Q 2731 4750 3128 4425 
Q 3525 4100 3525 3541 
Q 3525 3141 3298 2862 
Q 3072 2584 2669 2484 
Q 3125 2378 3379 2068 
Q 3634 1759 3634 1313 
Q 3634 634 3220 271 
Q 2806 -91 2034 -91 
Q 1263 -91 848 271 
Q 434 634 434 1313 
Q 434 1759 690 2068 
Q 947 2378 1403 2484 
z
M 1172 3481 
Q 1172 3119 1398 2916 
Q 1625 2713 2034 2713 
Q 2441 2713 2670 2916 
Q 2900 3119 2900 3481 
Q 2900 3844 2670 4047 
Q 2441 4250 2034 4250 
Q 1625 4250 1398 4047 
Q 1172 3844 1172 3481 
z
" transform="scale(0.015625)"/>
       </defs>
       <use xlink:href="#DejaVuSans-38"/>
       <use xlink:href="#DejaVuSans-30" x="63.623047"/>
      </g>
     </g>
    </g>
    <g id="ytick_6">
     <g id="line2d_10">
      <g>
       <use xlink:href="#mf615da1b86" x="109.64" y="145.352" style="stroke: #000000; stroke-width: 0.8"/>
      </g>
     </g>
     <g id="text_11">
      <!-- 100 -->
      <g transform="translate(53.0125 155.229969)scale(0.26 -0.26)">
       <use xlink:href="#DejaVuSans-31"/>
       <use xlink:href="#DejaVuSans-30" x="63.623047"/>
       <use xlink:href="#DejaVuSans-30" x="127.246094"/>
      </g>
     </g>
    </g>
    <g id="ytick_7">
     <g id="line2d_11">
      <g>
       <use xlink:href="#mf615da1b86" x="109.64" y="71.3104" style="stroke: #000000; stroke-width: 0.8"/>
      </g>
     </g>
     <g id="text_12">
      <!-- 120 -->
      <g transform="translate(53.0125 81.188369)scale(0.26 -0.26)">
       <use xlink:href="#DejaVuSans-31"/>
       <use xlink:href="#DejaVuSans-32" x="63.623047"/>
       <use xlink:href="#DejaVuSans-30" x="127.246094"/>
      </g>
     </g>
    </g>
    <g id="text_13">
     <!-- % of Remaining Glacier Mass -->
     <g transform="translate(44.265313 463.619219)rotate(-90)scale(0.22 -0.22)">
      <defs>
       <path id="DejaVuSans-Bold-25" d="M 4959 1925 
Q 4738 1925 4616 1733 
Q 4494 1541 4494 1184 
Q 4494 825 4614 633 
Q 4734 441 4959 441 
Q 5184 441 5303 633 
Q 5422 825 5422 1184 
Q 5422 1541 5301 1733 
Q 5181 1925 4959 1925 
z
M 4959 2450 
Q 5541 2450 5875 2112 
Q 6209 1775 6209 1184 
Q 6209 594 5875 251 
Q 5541 -91 4959 -91 
Q 4378 -91 4042 251 
Q 3706 594 3706 1184 
Q 3706 1772 4042 2111 
Q 4378 2450 4959 2450 
z
M 2094 -91 
L 1403 -91 
L 4319 4750 
L 5013 4750 
L 2094 -91 
z
M 1453 4750 
Q 2034 4750 2367 4411 
Q 2700 4072 2700 3481 
Q 2700 2891 2367 2550 
Q 2034 2209 1453 2209 
Q 872 2209 539 2550 
Q 206 2891 206 3481 
Q 206 4072 539 4411 
Q 872 4750 1453 4750 
z
M 1453 4225 
Q 1228 4225 1106 4031 
Q 984 3838 984 3481 
Q 984 3122 1106 2926 
Q 1228 2731 1453 2731 
Q 1678 2731 1798 2926 
Q 1919 3122 1919 3481 
Q 1919 3838 1797 4031 
Q 1675 4225 1453 4225 
z
" transform="scale(0.015625)"/>
       <path id="DejaVuSans-Bold-20" transform="scale(0.015625)"/>
       <path id="DejaVuSans-Bold-6f" d="M 2203 2784 
Q 1831 2784 1636 2517 
Q 1441 2250 1441 1747 
Q 1441 1244 1636 976 
Q 1831 709 2203 709 
Q 2569 709 2762 976 
Q 2956 1244 2956 1747 
Q 2956 2250 2762 2517 
Q 2569 2784 2203 2784 
z
M 2203 3584 
Q 3106 3584 3614 3096 
Q 4122 2609 4122 1747 
Q 4122 884 3614 396 
Q 3106 -91 2203 -91 
Q 1297 -91 786 396 
Q 275 884 275 1747 
Q 275 2609 786 3096 
Q 1297 3584 2203 3584 
z
" transform="scale(0.015625)"/>
       <path id="DejaVuSans-Bold-66" d="M 2841 4863 
L 2841 4128 
L 2222 4128 
Q 1984 4128 1890 4042 
Q 1797 3956 1797 3744 
L 1797 3500 
L 2753 3500 
L 2753 2700 
L 1797 2700 
L 1797 0 
L 678 0 
L 678 2700 
L 122 2700 
L 122 3500 
L 678 3500 
L 678 3744 
Q 678 4316 997 4589 
Q 1316 4863 1984 4863 
L 2841 4863 
z
" transform="scale(0.015625)"/>
       <path id="DejaVuSans-Bold-52" d="M 2297 2597 
Q 2675 2597 2839 2737 
Q 3003 2878 3003 3200 
Q 3003 3519 2839 3656 
Q 2675 3794 2297 3794 
L 1791 3794 
L 1791 2597 
L 2297 2597 
z
M 1791 1766 
L 1791 0 
L 588 0 
L 588 4666 
L 2425 4666 
Q 3347 4666 3776 4356 
Q 4206 4047 4206 3378 
Q 4206 2916 3982 2619 
Q 3759 2322 3309 2181 
Q 3556 2125 3751 1926 
Q 3947 1728 4147 1325 
L 4800 0 
L 3519 0 
L 2950 1159 
Q 2778 1509 2601 1637 
Q 2425 1766 2131 1766 
L 1791 1766 
z
" transform="scale(0.015625)"/>
       <path id="DejaVuSans-Bold-6d" d="M 3781 2919 
Q 3994 3244 4286 3414 
Q 4578 3584 4928 3584 
Q 5531 3584 5847 3212 
Q 6163 2841 6163 2131 
L 6163 0 
L 5038 0 
L 5038 1825 
Q 5041 1866 5042 1909 
Q 5044 1953 5044 2034 
Q 5044 2406 4934 2573 
Q 4825 2741 4581 2741 
Q 4263 2741 4089 2478 
Q 3916 2216 3909 1719 
L 3909 0 
L 2784 0 
L 2784 1825 
Q 2784 2406 2684 2573 
Q 2584 2741 2328 2741 
Q 2006 2741 1831 2477 
Q 1656 2213 1656 1722 
L 1656 0 
L 531 0 
L 531 3500 
L 1656 3500 
L 1656 2988 
Q 1863 3284 2130 3434 
Q 2397 3584 2719 3584 
Q 3081 3584 3359 3409 
Q 3638 3234 3781 2919 
z
" transform="scale(0.015625)"/>
       <path id="DejaVuSans-Bold-69" d="M 538 3500 
L 1656 3500 
L 1656 0 
L 538 0 
L 538 3500 
z
M 538 4863 
L 1656 4863 
L 1656 3950 
L 538 3950 
L 538 4863 
z
" transform="scale(0.015625)"/>
       <path id="DejaVuSans-Bold-6e" d="M 4056 2131 
L 4056 0 
L 2931 0 
L 2931 347 
L 2931 1631 
Q 2931 2084 2911 2256 
Q 2891 2428 2841 2509 
Q 2775 2619 2662 2680 
Q 2550 2741 2406 2741 
Q 2056 2741 1856 2470 
Q 1656 2200 1656 1722 
L 1656 0 
L 538 0 
L 538 3500 
L 1656 3500 
L 1656 2988 
Q 1909 3294 2193 3439 
Q 2478 3584 2822 3584 
Q 3428 3584 3742 3212 
Q 4056 2841 4056 2131 
z
" transform="scale(0.015625)"/>
       <path id="DejaVuSans-Bold-67" d="M 2919 594 
Q 2688 288 2409 144 
Q 2131 0 1766 0 
Q 1125 0 706 504 
Q 288 1009 288 1791 
Q 288 2575 706 3076 
Q 1125 3578 1766 3578 
Q 2131 3578 2409 3434 
Q 2688 3291 2919 2981 
L 2919 3500 
L 4044 3500 
L 4044 353 
Q 4044 -491 3511 -936 
Q 2978 -1381 1966 -1381 
Q 1638 -1381 1331 -1331 
Q 1025 -1281 716 -1178 
L 716 -306 
Q 1009 -475 1290 -558 
Q 1572 -641 1856 -641 
Q 2406 -641 2662 -400 
Q 2919 -159 2919 353 
L 2919 594 
z
M 2181 2772 
Q 1834 2772 1640 2515 
Q 1447 2259 1447 1791 
Q 1447 1309 1634 1061 
Q 1822 813 2181 813 
Q 2531 813 2725 1069 
Q 2919 1325 2919 1791 
Q 2919 2259 2725 2515 
Q 2531 2772 2181 2772 
z
" transform="scale(0.015625)"/>
       <path id="DejaVuSans-Bold-47" d="M 4781 347 
Q 4331 128 3847 18 
Q 3363 -91 2847 -91 
Q 1681 -91 1000 561 
Q 319 1213 319 2328 
Q 319 3456 1012 4103 
Q 1706 4750 2913 4750 
Q 3378 4750 3804 4662 
Q 4231 4575 4609 4403 
L 4609 3438 
Q 4219 3659 3833 3768 
Q 3447 3878 3059 3878 
Q 2341 3878 1952 3476 
Q 1563 3075 1563 2328 
Q 1563 1588 1938 1184 
Q 2313 781 3003 781 
Q 3191 781 3352 804 
Q 3513 828 3641 878 
L 3641 1784 
L 2906 1784 
L 2906 2591 
L 4781 2591 
L 4781 347 
z
" transform="scale(0.015625)"/>
       <path id="DejaVuSans-Bold-6c" d="M 538 4863 
L 1656 4863 
L 1656 0 
L 538 0 
L 538 4863 
z
" transform="scale(0.015625)"/>
       <path id="DejaVuSans-Bold-63" d="M 3366 3391 
L 3366 2478 
Q 3138 2634 2908 2709 
Q 2678 2784 2431 2784 
Q 1963 2784 1702 2511 
Q 1441 2238 1441 1747 
Q 1441 1256 1702 982 
Q 1963 709 2431 709 
Q 2694 709 2930 787 
Q 3166 866 3366 1019 
L 3366 103 
Q 3103 6 2833 -42 
Q 2563 -91 2291 -91 
Q 1344 -91 809 395 
Q 275 881 275 1747 
Q 275 2613 809 3098 
Q 1344 3584 2291 3584 
Q 2566 3584 2833 3536 
Q 3100 3488 3366 3391 
z
" transform="scale(0.015625)"/>
       <path id="DejaVuSans-Bold-4d" d="M 588 4666 
L 2119 4666 
L 3181 2169 
L 4250 4666 
L 5778 4666 
L 5778 0 
L 4641 0 
L 4641 3413 
L 3566 897 
L 2803 897 
L 1728 3413 
L 1728 0 
L 588 0 
L 588 4666 
z
" transform="scale(0.015625)"/>
       <path id="DejaVuSans-Bold-73" d="M 3272 3391 
L 3272 2541 
Q 2913 2691 2578 2766 
Q 2244 2841 1947 2841 
Q 1628 2841 1473 2761 
Q 1319 2681 1319 2516 
Q 1319 2381 1436 2309 
Q 1553 2238 1856 2203 
L 2053 2175 
Q 2913 2066 3209 1816 
Q 3506 1566 3506 1031 
Q 3506 472 3093 190 
Q 2681 -91 1863 -91 
Q 1516 -91 1145 -36 
Q 775 19 384 128 
L 384 978 
Q 719 816 1070 734 
Q 1422 653 1784 653 
Q 2113 653 2278 743 
Q 2444 834 2444 1013 
Q 2444 1163 2330 1236 
Q 2216 1309 1875 1350 
L 1678 1375 
Q 931 1469 631 1722 
Q 331 1975 331 2491 
Q 331 3047 712 3315 
Q 1094 3584 1881 3584 
Q 2191 3584 2531 3537 
Q 2872 3491 3272 3391 
z
" transform="scale(0.015625)"/>
      </defs>
      <use xlink:href="#DejaVuSans-Bold-25"/>
      <use xlink:href="#DejaVuSans-Bold-20" x="100.195312"/>
      <use xlink:href="#DejaVuSans-Bold-6f" x="135.009766"/>
      <use xlink:href="#DejaVuSans-Bold-66" x="203.710938"/>
      <use xlink:href="#DejaVuSans-Bold-20" x="247.216797"/>
      <use xlink:href="#DejaVuSans-Bold-52" x="282.03125"/>
      <use xlink:href="#DejaVuSans-Bold-65" x="359.033203"/>
      <use xlink:href="#DejaVuSans-Bold-6d" x="426.855469"/>
      <use xlink:href="#DejaVuSans-Bold-61" x="531.054688"/>
      <use xlink:href="#DejaVuSans-Bold-69" x="598.535156"/>
      <use xlink:href="#DejaVuSans-Bold-6e" x="632.8125"/>
      <use xlink:href="#DejaVuSans-Bold-69" x="704.003906"/>
      <use xlink:href="#DejaVuSans-Bold-6e" x="738.28125"/>
      <use xlink:href="#DejaVuSans-Bold-67" x="809.472656"/>
      <use xlink:href="#DejaVuSans-Bold-20" x="881.054688"/>
      <use xlink:href="#DejaVuSans-Bold-47" x="915.869141"/>
      <use xlink:href="#DejaVuSans-Bold-6c" x="997.949219"/>
      <use xlink:href="#DejaVuSans-Bold-61" x="1032.226562"/>
      <use xlink:href="#DejaVuSans-Bold-63" x="1099.707031"/>
      <use xlink:href="#DejaVuSans-Bold-69" x="1158.984375"/>
      <use xlink:href="#DejaVuSans-Bold-65" x="1193.261719"/>
      <use xlink:href="#DejaVuSans-Bold-72" x="1261.083984"/>
      <use xlink:href="#DejaVuSans-Bold-20" x="1310.400391"/>
      <use xlink:href="#DejaVuSans-Bold-4d" x="1345.214844"/>
      <use xlink:href="#DejaVuSans-Bold-61" x="1444.726562"/>
      <use xlink:href="#DejaVuSans-Bold-73" x="1512.207031"/>
      <use xlink:href="#DejaVuSans-Bold-73" x="1571.728516"/>
     </g>
    </g>
   </g>
   <g id="line2d_12">
    <path d="M 167.276938 146.820247 
L 174.481555 151.551843 
L 179.284633 155.073857 
L 186.48925 160.714612 
L 191.292329 164.611366 
L 200.898485 173.072985 
L 210.504641 181.268383 
L 229.716954 198.039498 
L 241.724649 208.625987 
L 253.732345 218.089098 
L 258.535423 221.543297 
L 265.74004 226.047979 
L 270.543118 228.658962 
L 275.346196 230.730853 
L 282.550814 233.72754 
L 287.353892 235.238086 
L 292.15697 236.273674 
L 304.164665 238.718271 
L 308.967743 239.218858 
L 313.770822 239.530441 
L 316.172361 239.672368 
L 320.975439 239.780929 
L 325.778517 239.868533 
L 352.195447 238.795207 
L 356.998525 238.925594 
L 364.203142 239.244555 
L 376.210838 240.24298 
L 395.42315 242.537982 
L 405.029307 243.394 
L 407.430846 243.425383 
L 412.233924 243.787181 
L 417.037002 244.236956 
L 424.241619 244.805128 
L 431.446236 245.113014 
L 441.052393 246.177866 
L 445.855471 246.963898 
L 453.060088 248.436603 
L 455.461627 249.046929 
L 472.272401 252.124366 
L 477.075479 252.910782 
L 484.280096 253.586661 
L 489.083174 253.971951 
L 493.886252 254.039231 
L 498.689331 253.77275 
L 503.492409 253.256507 
L 508.295487 252.839576 
L 513.098565 252.197144 
L 520.303182 250.943047 
L 525.10626 250.142983 
L 534.712417 248.266709 
L 541.917034 247.061622 
L 563.530886 244.436443 
L 568.333964 244.284655 
L 573.137042 244.354468 
L 582.743198 245.125628 
L 599.553972 246.895438 
L 606.758589 248.060454 
L 611.561667 248.702318 
L 616.364745 249.043243 
L 621.167824 249.127674 
L 628.372441 249.114601 
L 630.77398 248.991193 
L 637.978597 248.276792 
L 645.183214 246.879994 
L 649.986293 245.684939 
L 654.789371 244.174914 
L 671.600144 238.75325 
L 676.403222 237.011477 
L 681.206301 235.519964 
L 686.009379 234.169272 
L 690.812457 233.078214 
L 698.017074 231.343353 
L 717.229387 227.956106 
L 724.434004 227.290479 
L 741.244777 225.206682 
L 746.047856 224.608769 
L 750.850934 223.843957 
L 758.055551 223.068092 
L 782.070942 221.169519 
L 786.87402 220.60168 
L 791.677098 220.070967 
L 806.086333 218.860007 
L 815.692489 217.493937 
L 827.700184 216.626404 
L 834.904802 216.167128 
L 837.306341 216.079379 
L 837.306341 216.079379 
" clip-path="url(#pf5c5119a56)" style="fill: none; stroke: #74b8f8; stroke-opacity: 0.5; stroke-width: 6; stroke-linecap: square"/>
   </g>
   <g id="line2d_13">
    <path d="M 116.844617 130.642473 
L 119.246156 130.971928 
L 121.647695 131.275415 
L 124.049234 131.703465 
L 126.450774 132.188461 
L 128.852313 132.655102 
L 131.253852 133.04207 
L 133.655391 133.34636 
L 136.05693 133.799488 
L 138.458469 134.251314 
L 140.860008 134.750551 
L 143.261547 135.661992 
L 145.663086 136.456219 
L 148.064625 137.19237 
L 150.466164 138.094156 
L 152.867703 139.02324 
L 155.269242 140.086528 
L 157.670782 141.30055 
L 160.072321 142.65032 
L 162.47386 143.935236 
L 164.875399 145.352 
" clip-path="url(#pf5c5119a56)" style="fill: none; stroke: #000000; stroke-opacity: 0.5; stroke-width: 6; stroke-linecap: square"/>
   </g>
   <g id="line2d_14">
    <path d="M 167.276938 146.93821 
L 172.080016 150.427991 
L 179.284633 155.993205 
L 181.686172 157.989496 
L 186.48925 162.49686 
L 191.292329 167.248629 
L 198.496946 175.192235 
L 200.898485 177.587273 
L 205.701563 183.079024 
L 215.307719 193.809815 
L 222.512337 202.058091 
L 229.716954 211.295374 
L 234.520032 217.911323 
L 239.32311 223.629344 
L 244.126188 229.04752 
L 251.330806 236.248216 
L 256.133884 240.651182 
L 263.338501 247.003511 
L 272.944657 255.781716 
L 280.149275 261.710546 
L 282.550814 263.634238 
L 296.960048 276.176319 
L 308.967743 285.674579 
L 313.770822 289.508685 
L 316.172361 291.164116 
L 323.376978 295.456687 
L 330.581595 299.695067 
L 332.983134 301.502109 
L 340.187751 306.369535 
L 347.392369 311.16284 
L 349.793908 312.908464 
L 352.195447 314.088322 
L 356.998525 316.026308 
L 369.00622 319.585485 
L 373.809299 321.003234 
L 376.210838 321.795993 
L 383.415455 324.728792 
L 400.226228 331.977661 
L 409.832385 335.642173 
L 414.635463 337.267708 
L 436.249315 343.853322 
L 445.855471 346.154432 
L 467.469323 350.915519 
L 474.67394 352.028083 
L 486.681635 353.709616 
L 513.098565 356.734895 
L 517.901643 357.253449 
L 529.909339 358.803018 
L 537.113956 359.66749 
L 553.924729 361.286731 
L 561.129347 362.08995 
L 568.333964 362.909164 
L 589.947816 365.022847 
L 599.553972 365.730384 
L 606.758589 366.156025 
L 623.569363 366.866734 
L 633.175519 367.206209 
L 652.387832 368.05435 
L 659.592449 368.205352 
L 676.403222 368.359182 
L 690.812457 368.375074 
L 700.418613 368.509167 
L 710.024769 368.655593 
L 722.032465 368.982048 
L 746.047856 369.168397 
L 755.654012 369.207044 
L 767.661707 369.328452 
L 779.669403 369.416438 
L 789.275559 369.306866 
L 796.480176 369.190896 
L 806.086333 368.705321 
L 815.692489 368.120702 
L 837.306341 367.285561 
L 837.306341 367.285561 
" clip-path="url(#pf5c5119a56)" style="fill: none; stroke: #f47100; stroke-opacity: 0.5; stroke-width: 6; stroke-linecap: square"/>
   </g>
   <g id="line2d_15">
    <path d="M 116.844617 129.777314 
L 119.246156 130.125481 
L 121.647695 130.450801 
L 124.049234 130.740161 
L 126.450774 131.055508 
L 128.852313 131.340087 
L 131.253852 131.608524 
L 133.655391 131.927367 
L 136.05693 132.317544 
L 138.458469 132.801828 
L 140.860008 133.306635 
L 143.261547 134.299229 
L 145.663086 135.293869 
L 148.064625 136.289815 
L 150.466164 137.401288 
L 152.867703 138.5148 
L 155.269242 139.749431 
L 157.670782 140.979179 
L 160.072321 142.359746 
L 162.47386 143.868779 
L 164.875399 145.352 
" clip-path="url(#pf5c5119a56)" style="fill: none; stroke: #000000; stroke-opacity: 0.5; stroke-width: 6; stroke-linecap: square"/>
   </g>
   <g id="line2d_16">
    <path d="M 167.276938 147.043994 
L 174.481555 152.695168 
L 176.883094 154.731996 
L 179.284633 156.930045 
L 188.89079 166.985215 
L 196.095407 175.716401 
L 200.898485 181.757735 
L 208.103102 190.391969 
L 212.90618 195.384317 
L 215.307719 198.129326 
L 224.913876 210.12281 
L 229.716954 216.254879 
L 234.520032 222.645886 
L 244.126188 236.131134 
L 246.527727 239.362918 
L 260.936962 257.227691 
L 265.74004 262.833791 
L 275.346196 273.727844 
L 282.550814 281.143845 
L 284.952353 283.246386 
L 292.15697 289.103183 
L 299.361587 294.853827 
L 304.164665 298.437949 
L 308.967743 301.976989 
L 313.770822 306.264442 
L 318.5739 310.470789 
L 325.778517 316.328796 
L 330.581595 320.295256 
L 340.187751 327.02209 
L 342.589291 328.322091 
L 344.99083 329.772555 
L 347.392369 331.554334 
L 352.195447 335.429207 
L 359.400064 341.007181 
L 364.203142 343.832679 
L 371.407759 347.956034 
L 381.013916 352.996842 
L 390.620072 359.096021 
L 395.42315 361.938517 
L 407.430846 368.44667 
L 417.037002 373.422108 
L 426.643158 377.636594 
L 431.446236 379.6524 
L 438.650854 382.366532 
L 457.863166 388.789937 
L 462.666244 390.146299 
L 477.075479 393.481742 
L 484.280096 394.933656 
L 493.886252 396.745363 
L 503.492409 399.553116 
L 513.098565 402.012709 
L 517.901643 403.324745 
L 522.704721 404.62219 
L 551.52319 411.443637 
L 570.735503 416.29084 
L 580.341659 418.144557 
L 597.152433 421.595558 
L 613.963206 424.537832 
L 623.569363 426.057067 
L 630.77398 427.059718 
L 635.577058 427.608542 
L 647.584753 428.969505 
L 654.789371 430.000117 
L 669.198605 431.479099 
L 698.017074 435.076677 
L 707.62323 436.501638 
L 717.229387 437.625519 
L 726.835543 438.575792 
L 731.638621 439.304588 
L 738.843238 440.372904 
L 746.047856 441.154044 
L 762.858629 442.722555 
L 774.866325 443.697757 
L 796.480176 444.083076 
L 813.29095 444.896676 
L 818.094028 445.085419 
L 825.298645 445.362457 
L 832.503262 445.479065 
L 834.904802 445.511042 
L 837.306341 445.403835 
L 837.306341 445.403835 
" clip-path="url(#pf5c5119a56)" style="fill: none; stroke: #d01e04; stroke-opacity: 0.5; stroke-width: 6; stroke-linecap: square"/>
   </g>
   <g id="line2d_17">
    <path d="M 116.844617 127.253973 
L 119.246156 127.830649 
L 121.647695 128.407871 
L 124.049234 128.964815 
L 126.450774 129.498431 
L 128.852313 130.079326 
L 131.253852 130.639297 
L 133.655391 131.214087 
L 136.05693 131.742618 
L 138.458469 132.235944 
L 140.860008 132.72835 
L 143.261547 133.785969 
L 145.663086 135.026423 
L 148.064625 136.211125 
L 150.466164 137.333795 
L 152.867703 138.352331 
L 155.269242 139.461899 
L 157.670782 140.764151 
L 160.072321 142.254531 
L 162.47386 143.740123 
L 164.875399 145.352 
" clip-path="url(#pf5c5119a56)" style="fill: none; stroke: #000000; stroke-opacity: 0.5; stroke-width: 6; stroke-linecap: square"/>
   </g>
   <g id="patch_3">
    <path d="M 109.64 515.56 
L 109.64 52.8 
" style="fill: none; stroke: #000000; stroke-width: 0.8; stroke-linejoin: miter; stroke-linecap: square"/>
   </g>
   <g id="patch_4">
    <path d="M 109.64 515.56 
L 858.920192 515.56 
" style="fill: none; stroke: #000000; stroke-width: 0.8; stroke-linejoin: miter; stroke-linecap: square"/>
   </g>
   <g id="text_14">
    <!-- South Asia West -->
    <g transform="translate(373.760096 46.8)scale(0.24 -0.24)">
     <defs>
      <path id="DejaVuSans-Bold-53" d="M 3834 4519 
L 3834 3531 
Q 3450 3703 3084 3790 
Q 2719 3878 2394 3878 
Q 1963 3878 1756 3759 
Q 1550 3641 1550 3391 
Q 1550 3203 1689 3098 
Q 1828 2994 2194 2919 
L 2706 2816 
Q 3484 2659 3812 2340 
Q 4141 2022 4141 1434 
Q 4141 663 3683 286 
Q 3225 -91 2284 -91 
Q 1841 -91 1394 -6 
Q 947 78 500 244 
L 500 1259 
Q 947 1022 1364 901 
Q 1781 781 2169 781 
Q 2563 781 2772 912 
Q 2981 1044 2981 1288 
Q 2981 1506 2839 1625 
Q 2697 1744 2272 1838 
L 1806 1941 
Q 1106 2091 782 2419 
Q 459 2747 459 3303 
Q 459 4000 909 4375 
Q 1359 4750 2203 4750 
Q 2588 4750 2994 4692 
Q 3400 4634 3834 4519 
z
" transform="scale(0.015625)"/>
      <path id="DejaVuSans-Bold-75" d="M 500 1363 
L 500 3500 
L 1625 3500 
L 1625 3150 
Q 1625 2866 1622 2436 
Q 1619 2006 1619 1863 
Q 1619 1441 1641 1255 
Q 1663 1069 1716 984 
Q 1784 875 1895 815 
Q 2006 756 2150 756 
Q 2500 756 2700 1025 
Q 2900 1294 2900 1772 
L 2900 3500 
L 4019 3500 
L 4019 0 
L 2900 0 
L 2900 506 
Q 2647 200 2364 54 
Q 2081 -91 1741 -91 
Q 1134 -91 817 281 
Q 500 653 500 1363 
z
" transform="scale(0.015625)"/>
      <path id="DejaVuSans-Bold-74" d="M 1759 4494 
L 1759 3500 
L 2913 3500 
L 2913 2700 
L 1759 2700 
L 1759 1216 
Q 1759 972 1856 886 
Q 1953 800 2241 800 
L 2816 800 
L 2816 0 
L 1856 0 
Q 1194 0 917 276 
Q 641 553 641 1216 
L 641 2700 
L 84 2700 
L 84 3500 
L 641 3500 
L 641 4494 
L 1759 4494 
z
" transform="scale(0.015625)"/>
      <path id="DejaVuSans-Bold-68" d="M 4056 2131 
L 4056 0 
L 2931 0 
L 2931 347 
L 2931 1625 
Q 2931 2084 2911 2256 
Q 2891 2428 2841 2509 
Q 2775 2619 2662 2680 
Q 2550 2741 2406 2741 
Q 2056 2741 1856 2470 
Q 1656 2200 1656 1722 
L 1656 0 
L 538 0 
L 538 4863 
L 1656 4863 
L 1656 2988 
Q 1909 3294 2193 3439 
Q 2478 3584 2822 3584 
Q 3428 3584 3742 3212 
Q 4056 2841 4056 2131 
z
" transform="scale(0.015625)"/>
      <path id="DejaVuSans-Bold-41" d="M 3419 850 
L 1538 850 
L 1241 0 
L 31 0 
L 1759 4666 
L 3194 4666 
L 4922 0 
L 3713 0 
L 3419 850 
z
M 1838 1716 
L 3116 1716 
L 2478 3572 
L 1838 1716 
z
" transform="scale(0.015625)"/>
      <path id="DejaVuSans-Bold-57" d="M 191 4666 
L 1344 4666 
L 2150 1275 
L 2950 4666 
L 4109 4666 
L 4909 1275 
L 5716 4666 
L 6859 4666 
L 5759 0 
L 4372 0 
L 3525 3547 
L 2688 0 
L 1300 0 
L 191 4666 
z
" transform="scale(0.015625)"/>
     </defs>
     <use xlink:href="#DejaVuSans-Bold-53"/>
     <use xlink:href="#DejaVuSans-Bold-6f" x="72.021484"/>
     <use xlink:href="#DejaVuSans-Bold-75" x="140.722656"/>
     <use xlink:href="#DejaVuSans-Bold-74" x="211.914062"/>
     <use xlink:href="#DejaVuSans-Bold-68" x="259.716797"/>
     <use xlink:href="#DejaVuSans-Bold-20" x="330.908203"/>
     <use xlink:href="#DejaVuSans-Bold-41" x="365.722656"/>
     <use xlink:href="#DejaVuSans-Bold-73" x="443.115234"/>
     <use xlink:href="#DejaVuSans-Bold-69" x="502.636719"/>
     <use xlink:href="#DejaVuSans-Bold-61" x="536.914062"/>
     <use xlink:href="#DejaVuSans-Bold-20" x="604.394531"/>
     <use xlink:href="#DejaVuSans-Bold-57" x="639.208984"/>
     <use xlink:href="#DejaVuSans-Bold-65" x="745.886719"/>
     <use xlink:href="#DejaVuSans-Bold-73" x="813.708984"/>
     <use xlink:href="#DejaVuSans-Bold-74" x="873.230469"/>
    </g>
   </g>
   <g id="legend_1">
    <g id="patch_5">
     <path d="M 597.903942 225.737875 
L 843.520192 225.737875 
Q 847.920192 225.737875 847.920192 221.337875 
L 847.920192 68.2 
Q 847.920192 63.8 843.520192 63.8 
L 597.903942 63.8 
Q 593.503942 63.8 593.503942 68.2 
L 593.503942 221.337875 
Q 593.503942 225.737875 597.903942 225.737875 
z
" style="fill: #ffffff; opacity: 0.6; stroke: #cccccc; stroke-linejoin: miter"/>
    </g>
    <g id="text_15">
     <!-- Global mean -->
     <g transform="translate(602.303942 89.316563)scale(0.22 -0.22)">
      <defs>
       <path id="DejaVuSans-47" d="M 3809 666 
L 3809 1919 
L 2778 1919 
L 2778 2438 
L 4434 2438 
L 4434 434 
Q 4069 175 3628 42 
Q 3188 -91 2688 -91 
Q 1594 -91 976 548 
Q 359 1188 359 2328 
Q 359 3472 976 4111 
Q 1594 4750 2688 4750 
Q 3144 4750 3555 4637 
Q 3966 4525 4313 4306 
L 4313 3634 
Q 3963 3931 3569 4081 
Q 3175 4231 2741 4231 
Q 1884 4231 1454 3753 
Q 1025 3275 1025 2328 
Q 1025 1384 1454 906 
Q 1884 428 2741 428 
Q 3075 428 3337 486 
Q 3600 544 3809 666 
z
" transform="scale(0.015625)"/>
       <path id="DejaVuSans-6c" d="M 603 4863 
L 1178 4863 
L 1178 0 
L 603 0 
L 603 4863 
z
" transform="scale(0.015625)"/>
       <path id="DejaVuSans-6f" d="M 1959 3097 
Q 1497 3097 1228 2736 
Q 959 2375 959 1747 
Q 959 1119 1226 758 
Q 1494 397 1959 397 
Q 2419 397 2687 759 
Q 2956 1122 2956 1747 
Q 2956 2369 2687 2733 
Q 2419 3097 1959 3097 
z
M 1959 3584 
Q 2709 3584 3137 3096 
Q 3566 2609 3566 1747 
Q 3566 888 3137 398 
Q 2709 -91 1959 -91 
Q 1206 -91 779 398 
Q 353 888 353 1747 
Q 353 2609 779 3096 
Q 1206 3584 1959 3584 
z
" transform="scale(0.015625)"/>
       <path id="DejaVuSans-62" d="M 3116 1747 
Q 3116 2381 2855 2742 
Q 2594 3103 2138 3103 
Q 1681 3103 1420 2742 
Q 1159 2381 1159 1747 
Q 1159 1113 1420 752 
Q 1681 391 2138 391 
Q 2594 391 2855 752 
Q 3116 1113 3116 1747 
z
M 1159 2969 
Q 1341 3281 1617 3432 
Q 1894 3584 2278 3584 
Q 2916 3584 3314 3078 
Q 3713 2572 3713 1747 
Q 3713 922 3314 415 
Q 2916 -91 2278 -91 
Q 1894 -91 1617 61 
Q 1341 213 1159 525 
L 1159 0 
L 581 0 
L 581 4863 
L 1159 4863 
L 1159 2969 
z
" transform="scale(0.015625)"/>
       <path id="DejaVuSans-61" d="M 2194 1759 
Q 1497 1759 1228 1600 
Q 959 1441 959 1056 
Q 959 750 1161 570 
Q 1363 391 1709 391 
Q 2188 391 2477 730 
Q 2766 1069 2766 1631 
L 2766 1759 
L 2194 1759 
z
M 3341 1997 
L 3341 0 
L 2766 0 
L 2766 531 
Q 2569 213 2275 61 
Q 1981 -91 1556 -91 
Q 1019 -91 701 211 
Q 384 513 384 1019 
Q 384 1609 779 1909 
Q 1175 2209 1959 2209 
L 2766 2209 
L 2766 2266 
Q 2766 2663 2505 2880 
Q 2244 3097 1772 3097 
Q 1472 3097 1187 3025 
Q 903 2953 641 2809 
L 641 3341 
Q 956 3463 1253 3523 
Q 1550 3584 1831 3584 
Q 2591 3584 2966 3190 
Q 3341 2797 3341 1997 
z
" transform="scale(0.015625)"/>
       <path id="DejaVuSans-20" transform="scale(0.015625)"/>
       <path id="DejaVuSans-6d" d="M 3328 2828 
Q 3544 3216 3844 3400 
Q 4144 3584 4550 3584 
Q 5097 3584 5394 3201 
Q 5691 2819 5691 2113 
L 5691 0 
L 5113 0 
L 5113 2094 
Q 5113 2597 4934 2840 
Q 4756 3084 4391 3084 
Q 3944 3084 3684 2787 
Q 3425 2491 3425 1978 
L 3425 0 
L 2847 0 
L 2847 2094 
Q 2847 2600 2669 2842 
Q 2491 3084 2119 3084 
Q 1678 3084 1418 2786 
Q 1159 2488 1159 1978 
L 1159 0 
L 581 0 
L 581 3500 
L 1159 3500 
L 1159 2956 
Q 1356 3278 1631 3431 
Q 1906 3584 2284 3584 
Q 2666 3584 2933 3390 
Q 3200 3197 3328 2828 
z
" transform="scale(0.015625)"/>
       <path id="DejaVuSans-65" d="M 3597 1894 
L 3597 1613 
L 953 1613 
Q 991 1019 1311 708 
Q 1631 397 2203 397 
Q 2534 397 2845 478 
Q 3156 559 3463 722 
L 3463 178 
Q 3153 47 2828 -22 
Q 2503 -91 2169 -91 
Q 1331 -91 842 396 
Q 353 884 353 1716 
Q 353 2575 817 3079 
Q 1281 3584 2069 3584 
Q 2775 3584 3186 3129 
Q 3597 2675 3597 1894 
z
M 3022 2063 
Q 3016 2534 2758 2815 
Q 2500 3097 2075 3097 
Q 1594 3097 1305 2825 
Q 1016 2553 972 2059 
L 3022 2063 
z
" transform="scale(0.015625)"/>
       <path id="DejaVuSans-6e" d="M 3513 2113 
L 3513 0 
L 2938 0 
L 2938 2094 
Q 2938 2591 2744 2837 
Q 2550 3084 2163 3084 
Q 1697 3084 1428 2787 
Q 1159 2491 1159 1978 
L 1159 0 
L 581 0 
L 581 3500 
L 1159 3500 
L 1159 2956 
Q 1366 3272 1645 3428 
Q 1925 3584 2291 3584 
Q 2894 3584 3203 3211 
Q 3513 2838 3513 2113 
z
" transform="scale(0.015625)"/>
      </defs>
      <use xlink:href="#DejaVuSans-47"/>
      <use xlink:href="#DejaVuSans-6c" x="77.490234"/>
      <use xlink:href="#DejaVuSans-6f" x="105.273438"/>
      <use xlink:href="#DejaVuSans-62" x="166.455078"/>
      <use xlink:href="#DejaVuSans-61" x="229.931641"/>
      <use xlink:href="#DejaVuSans-6c" x="291.210938"/>
      <use xlink:href="#DejaVuSans-20" x="318.994141"/>
      <use xlink:href="#DejaVuSans-6d" x="350.78125"/>
      <use xlink:href="#DejaVuSans-65" x="448.193359"/>
      <use xlink:href="#DejaVuSans-61" x="509.716797"/>
      <use xlink:href="#DejaVuSans-6e" x="570.996094"/>
     </g>
     <!-- temperature above -->
     <g transform="translate(602.303942 113.95175)scale(0.22 -0.22)">
      <defs>
       <path id="DejaVuSans-74" d="M 1172 4494 
L 1172 3500 
L 2356 3500 
L 2356 3053 
L 1172 3053 
L 1172 1153 
Q 1172 725 1289 603 
Q 1406 481 1766 481 
L 2356 481 
L 2356 0 
L 1766 0 
Q 1100 0 847 248 
Q 594 497 594 1153 
L 594 3053 
L 172 3053 
L 172 3500 
L 594 3500 
L 594 4494 
L 1172 4494 
z
" transform="scale(0.015625)"/>
       <path id="DejaVuSans-70" d="M 1159 525 
L 1159 -1331 
L 581 -1331 
L 581 3500 
L 1159 3500 
L 1159 2969 
Q 1341 3281 1617 3432 
Q 1894 3584 2278 3584 
Q 2916 3584 3314 3078 
Q 3713 2572 3713 1747 
Q 3713 922 3314 415 
Q 2916 -91 2278 -91 
Q 1894 -91 1617 61 
Q 1341 213 1159 525 
z
M 3116 1747 
Q 3116 2381 2855 2742 
Q 2594 3103 2138 3103 
Q 1681 3103 1420 2742 
Q 1159 2381 1159 1747 
Q 1159 1113 1420 752 
Q 1681 391 2138 391 
Q 2594 391 2855 752 
Q 3116 1113 3116 1747 
z
" transform="scale(0.015625)"/>
       <path id="DejaVuSans-72" d="M 2631 2963 
Q 2534 3019 2420 3045 
Q 2306 3072 2169 3072 
Q 1681 3072 1420 2755 
Q 1159 2438 1159 1844 
L 1159 0 
L 581 0 
L 581 3500 
L 1159 3500 
L 1159 2956 
Q 1341 3275 1631 3429 
Q 1922 3584 2338 3584 
Q 2397 3584 2469 3576 
Q 2541 3569 2628 3553 
L 2631 2963 
z
" transform="scale(0.015625)"/>
       <path id="DejaVuSans-75" d="M 544 1381 
L 544 3500 
L 1119 3500 
L 1119 1403 
Q 1119 906 1312 657 
Q 1506 409 1894 409 
Q 2359 409 2629 706 
Q 2900 1003 2900 1516 
L 2900 3500 
L 3475 3500 
L 3475 0 
L 2900 0 
L 2900 538 
Q 2691 219 2414 64 
Q 2138 -91 1772 -91 
Q 1169 -91 856 284 
Q 544 659 544 1381 
z
M 1991 3584 
L 1991 3584 
z
" transform="scale(0.015625)"/>
       <path id="DejaVuSans-76" d="M 191 3500 
L 800 3500 
L 1894 563 
L 2988 3500 
L 3597 3500 
L 2284 0 
L 1503 0 
L 191 3500 
z
" transform="scale(0.015625)"/>
      </defs>
      <use xlink:href="#DejaVuSans-74"/>
      <use xlink:href="#DejaVuSans-65" x="39.208984"/>
      <use xlink:href="#DejaVuSans-6d" x="100.732422"/>
      <use xlink:href="#DejaVuSans-70" x="198.144531"/>
      <use xlink:href="#DejaVuSans-65" x="261.621094"/>
      <use xlink:href="#DejaVuSans-72" x="323.144531"/>
      <use xlink:href="#DejaVuSans-61" x="364.257812"/>
      <use xlink:href="#DejaVuSans-74" x="425.537109"/>
      <use xlink:href="#DejaVuSans-75" x="464.746094"/>
      <use xlink:href="#DejaVuSans-72" x="528.125"/>
      <use xlink:href="#DejaVuSans-65" x="566.988281"/>
      <use xlink:href="#DejaVuSans-20" x="628.511719"/>
      <use xlink:href="#DejaVuSans-61" x="660.298828"/>
      <use xlink:href="#DejaVuSans-62" x="721.578125"/>
      <use xlink:href="#DejaVuSans-6f" x="785.054688"/>
      <use xlink:href="#DejaVuSans-76" x="846.236328"/>
      <use xlink:href="#DejaVuSans-65" x="905.416016"/>
     </g>
     <!-- pre-industrial in 2100 -->
     <g transform="translate(602.303942 138.586938)scale(0.22 -0.22)">
      <defs>
       <path id="DejaVuSans-2d" d="M 313 2009 
L 1997 2009 
L 1997 1497 
L 313 1497 
L 313 2009 
z
" transform="scale(0.015625)"/>
       <path id="DejaVuSans-69" d="M 603 3500 
L 1178 3500 
L 1178 0 
L 603 0 
L 603 3500 
z
M 603 4863 
L 1178 4863 
L 1178 4134 
L 603 4134 
L 603 4863 
z
" transform="scale(0.015625)"/>
       <path id="DejaVuSans-64" d="M 2906 2969 
L 2906 4863 
L 3481 4863 
L 3481 0 
L 2906 0 
L 2906 525 
Q 2725 213 2448 61 
Q 2172 -91 1784 -91 
Q 1150 -91 751 415 
Q 353 922 353 1747 
Q 353 2572 751 3078 
Q 1150 3584 1784 3584 
Q 2172 3584 2448 3432 
Q 2725 3281 2906 2969 
z
M 947 1747 
Q 947 1113 1208 752 
Q 1469 391 1925 391 
Q 2381 391 2643 752 
Q 2906 1113 2906 1747 
Q 2906 2381 2643 2742 
Q 2381 3103 1925 3103 
Q 1469 3103 1208 2742 
Q 947 2381 947 1747 
z
" transform="scale(0.015625)"/>
       <path id="DejaVuSans-73" d="M 2834 3397 
L 2834 2853 
Q 2591 2978 2328 3040 
Q 2066 3103 1784 3103 
Q 1356 3103 1142 2972 
Q 928 2841 928 2578 
Q 928 2378 1081 2264 
Q 1234 2150 1697 2047 
L 1894 2003 
Q 2506 1872 2764 1633 
Q 3022 1394 3022 966 
Q 3022 478 2636 193 
Q 2250 -91 1575 -91 
Q 1294 -91 989 -36 
Q 684 19 347 128 
L 347 722 
Q 666 556 975 473 
Q 1284 391 1588 391 
Q 1994 391 2212 530 
Q 2431 669 2431 922 
Q 2431 1156 2273 1281 
Q 2116 1406 1581 1522 
L 1381 1569 
Q 847 1681 609 1914 
Q 372 2147 372 2553 
Q 372 3047 722 3315 
Q 1072 3584 1716 3584 
Q 2034 3584 2315 3537 
Q 2597 3491 2834 3397 
z
" transform="scale(0.015625)"/>
      </defs>
      <use xlink:href="#DejaVuSans-70"/>
      <use xlink:href="#DejaVuSans-72" x="63.476562"/>
      <use xlink:href="#DejaVuSans-65" x="102.339844"/>
      <use xlink:href="#DejaVuSans-2d" x="163.863281"/>
      <use xlink:href="#DejaVuSans-69" x="199.947266"/>
      <use xlink:href="#DejaVuSans-6e" x="227.730469"/>
      <use xlink:href="#DejaVuSans-64" x="291.109375"/>
      <use xlink:href="#DejaVuSans-75" x="354.585938"/>
      <use xlink:href="#DejaVuSans-73" x="417.964844"/>
      <use xlink:href="#DejaVuSans-74" x="470.064453"/>
      <use xlink:href="#DejaVuSans-72" x="509.273438"/>
      <use xlink:href="#DejaVuSans-69" x="550.386719"/>
      <use xlink:href="#DejaVuSans-61" x="578.169922"/>
      <use xlink:href="#DejaVuSans-6c" x="639.449219"/>
      <use xlink:href="#DejaVuSans-20" x="667.232422"/>
      <use xlink:href="#DejaVuSans-69" x="699.019531"/>
      <use xlink:href="#DejaVuSans-6e" x="726.802734"/>
      <use xlink:href="#DejaVuSans-20" x="790.181641"/>
      <use xlink:href="#DejaVuSans-32" x="821.96875"/>
      <use xlink:href="#DejaVuSans-31" x="885.591797"/>
      <use xlink:href="#DejaVuSans-30" x="949.214844"/>
      <use xlink:href="#DejaVuSans-30" x="1012.837891"/>
     </g>
    </g>
    <g id="line2d_18">
     <path d="M 616.971755 155.478813 
L 638.971755 155.478813 
L 660.971755 155.478813 
" style="fill: none; stroke: #74b8f8; stroke-opacity: 0.5; stroke-width: 6; stroke-linecap: square"/>
    </g>
    <g id="text_16">
     <!-- 1.5C (n=2) -->
     <g transform="translate(678.571755 163.178813)scale(0.22 -0.22)">
      <defs>
       <path id="DejaVuSans-2e" d="M 684 794 
L 1344 794 
L 1344 0 
L 684 0 
L 684 794 
z
" transform="scale(0.015625)"/>
       <path id="DejaVuSans-35" d="M 691 4666 
L 3169 4666 
L 3169 4134 
L 1269 4134 
L 1269 2991 
Q 1406 3038 1543 3061 
Q 1681 3084 1819 3084 
Q 2600 3084 3056 2656 
Q 3513 2228 3513 1497 
Q 3513 744 3044 326 
Q 2575 -91 1722 -91 
Q 1428 -91 1123 -41 
Q 819 9 494 109 
L 494 744 
Q 775 591 1075 516 
Q 1375 441 1709 441 
Q 2250 441 2565 725 
Q 2881 1009 2881 1497 
Q 2881 1984 2565 2268 
Q 2250 2553 1709 2553 
Q 1456 2553 1204 2497 
Q 953 2441 691 2322 
L 691 4666 
z
" transform="scale(0.015625)"/>
       <path id="DejaVuSans-b0" d="M 1600 4347 
Q 1350 4347 1178 4173 
Q 1006 4000 1006 3750 
Q 1006 3503 1178 3333 
Q 1350 3163 1600 3163 
Q 1850 3163 2022 3333 
Q 2194 3503 2194 3750 
Q 2194 3997 2020 4172 
Q 1847 4347 1600 4347 
z
M 1600 4750 
Q 1800 4750 1984 4673 
Q 2169 4597 2303 4453 
Q 2447 4313 2519 4134 
Q 2591 3956 2591 3750 
Q 2591 3338 2302 3052 
Q 2013 2766 1594 2766 
Q 1172 2766 890 3047 
Q 609 3328 609 3750 
Q 609 4169 896 4459 
Q 1184 4750 1600 4750 
z
" transform="scale(0.015625)"/>
       <path id="DejaVuSans-43" d="M 4122 4306 
L 4122 3641 
Q 3803 3938 3442 4084 
Q 3081 4231 2675 4231 
Q 1875 4231 1450 3742 
Q 1025 3253 1025 2328 
Q 1025 1406 1450 917 
Q 1875 428 2675 428 
Q 3081 428 3442 575 
Q 3803 722 4122 1019 
L 4122 359 
Q 3791 134 3420 21 
Q 3050 -91 2638 -91 
Q 1578 -91 968 557 
Q 359 1206 359 2328 
Q 359 3453 968 4101 
Q 1578 4750 2638 4750 
Q 3056 4750 3426 4639 
Q 3797 4528 4122 4306 
z
" transform="scale(0.015625)"/>
       <path id="DejaVuSans-28" d="M 1984 4856 
Q 1566 4138 1362 3434 
Q 1159 2731 1159 2009 
Q 1159 1288 1364 580 
Q 1569 -128 1984 -844 
L 1484 -844 
Q 1016 -109 783 600 
Q 550 1309 550 2009 
Q 550 2706 781 3412 
Q 1013 4119 1484 4856 
L 1984 4856 
z
" transform="scale(0.015625)"/>
       <path id="DejaVuSans-3d" d="M 678 2906 
L 4684 2906 
L 4684 2381 
L 678 2381 
L 678 2906 
z
M 678 1631 
L 4684 1631 
L 4684 1100 
L 678 1100 
L 678 1631 
z
" transform="scale(0.015625)"/>
       <path id="DejaVuSans-29" d="M 513 4856 
L 1013 4856 
Q 1481 4119 1714 3412 
Q 1947 2706 1947 2009 
Q 1947 1309 1714 600 
Q 1481 -109 1013 -844 
L 513 -844 
Q 928 -128 1133 580 
Q 1338 1288 1338 2009 
Q 1338 2731 1133 3434 
Q 928 4138 513 4856 
z
" transform="scale(0.015625)"/>
      </defs>
      <use xlink:href="#DejaVuSans-31"/>
      <use xlink:href="#DejaVuSans-2e" x="63.623047"/>
      <use xlink:href="#DejaVuSans-35" x="95.410156"/>
      <use xlink:href="#DejaVuSans-b0" x="159.033203"/>
      <use xlink:href="#DejaVuSans-43" x="209.033203"/>
      <use xlink:href="#DejaVuSans-20" x="278.857422"/>
      <use xlink:href="#DejaVuSans-28" x="310.644531"/>
      <use xlink:href="#DejaVuSans-6e" x="349.658203"/>
      <use xlink:href="#DejaVuSans-3d" x="413.037109"/>
      <use xlink:href="#DejaVuSans-32" x="496.826172"/>
      <use xlink:href="#DejaVuSans-29" x="560.449219"/>
     </g>
    </g>
    <g id="line2d_19">
     <path d="M 616.971755 180.070688 
L 638.971755 180.070688 
L 660.971755 180.070688 
" style="fill: none; stroke: #f47100; stroke-opacity: 0.5; stroke-width: 6; stroke-linecap: square"/>
    </g>
    <g id="text_17">
     <!-- 2.2C (n=14) -->
     <g transform="translate(678.571755 187.770688)scale(0.22 -0.22)">
      <use xlink:href="#DejaVuSans-32"/>
      <use xlink:href="#DejaVuSans-2e" x="63.623047"/>
      <use xlink:href="#DejaVuSans-32" x="95.410156"/>
      <use xlink:href="#DejaVuSans-b0" x="159.033203"/>
      <use xlink:href="#DejaVuSans-43" x="209.033203"/>
      <use xlink:href="#DejaVuSans-20" x="278.857422"/>
      <use xlink:href="#DejaVuSans-28" x="310.644531"/>
      <use xlink:href="#DejaVuSans-6e" x="349.658203"/>
      <use xlink:href="#DejaVuSans-3d" x="413.037109"/>
      <use xlink:href="#DejaVuSans-31" x="496.826172"/>
      <use xlink:href="#DejaVuSans-34" x="560.449219"/>
      <use xlink:href="#DejaVuSans-29" x="624.072266"/>
     </g>
    </g>
    <g id="line2d_20">
     <path d="M 616.971755 204.662563 
L 638.971755 204.662563 
L 660.971755 204.662563 
" style="fill: none; stroke: #d01e04; stroke-opacity: 0.5; stroke-width: 6; stroke-linecap: square"/>
    </g>
    <g id="text_18">
     <!-- 2.8C (n=12) -->
     <g transform="translate(678.571755 212.362563)scale(0.22 -0.22)">
      <use xlink:href="#DejaVuSans-32"/>
      <use xlink:href="#DejaVuSans-2e" x="63.623047"/>
      <use xlink:href="#DejaVuSans-38" x="95.410156"/>
      <use xlink:href="#DejaVuSans-b0" x="159.033203"/>
      <use xlink:href="#DejaVuSans-43" x="209.033203"/>
      <use xlink:href="#DejaVuSans-20" x="278.857422"/>
      <use xlink:href="#DejaVuSans-28" x="310.644531"/>
      <use xlink:href="#DejaVuSans-6e" x="349.658203"/>
      <use xlink:href="#DejaVuSans-3d" x="413.037109"/>
      <use xlink:href="#DejaVuSans-31" x="496.826172"/>
      <use xlink:href="#DejaVuSans-32" x="560.449219"/>
      <use xlink:href="#DejaVuSans-29" x="624.072266"/>
     </g>
    </g>
   </g>
  </g>
 </g>
 <defs>
  <clipPath id="pf5c5119a56">
   <rect x="109.64" y="52.8" width="749.280192" height="462.76"/>
  </clipPath>
 </defs>
</svg>
