<?xml version="1.0" encoding="utf-8" standalone="no"?>
<!DOCTYPE svg PUBLIC "-//W3C//DTD SVG 1.1//EN"
  "http://www.w3.org/Graphics/SVG/1.1/DTD/svg11.dtd">
<svg xmlns:xlink="http://www.w3.org/1999/xlink" width="288pt" height="72pt" viewBox="0 0 288 72" xmlns="http://www.w3.org/2000/svg" version="1.1">
 <metadata>
  <rdf:RDF xmlns:dc="http://purl.org/dc/elements/1.1/" xmlns:cc="http://creativecommons.org/ns#" xmlns:rdf="http://www.w3.org/1999/02/22-rdf-syntax-ns#">
   <cc:Work>
    <dc:type rdf:resource="http://purl.org/dc/dcmitype/StillImage"/>
    <dc:date>2023-11-29T22:46:21.646589</dc:date>
    <dc:format>image/svg+xml</dc:format>
    <dc:creator>
     <cc:Agent>
      <dc:title>Matplotlib v3.7.1, https://matplotlib.org/</dc:title>
     </cc:Agent>
    </dc:creator>
   </cc:Work>
  </rdf:RDF>
 </metadata>
 <defs>
  <style type="text/css">*{stroke-linejoin: round; stroke-linecap: butt}</style>
 </defs>
 <g id="figure_1">
  <g id="patch_1">
   <path d="M 0 72 
L 288 72 
L 288 0 
L 0 0 
z
" style="fill: #ffffff"/>
  </g>
  <g id="axes_1">
   <g id="patch_2">
    <path d="M 36 64.08 
L 259.2 64.08 
L 259.2 8.64 
L 36 8.64 
z
" style="fill: #ffffff"/>
   </g>
   <g id="matplotlib.axis_1">
    <g id="xtick_1">
     <g id="line2d_1">
      <defs>
       <path id="mf5fc5a5aa5" d="M 0 0 
L 0 3.5 
" style="stroke: #000000; stroke-width: 0.8"/>
      </defs>
      <g>
       <use xlink:href="#mf5fc5a5aa5" x="59.236364" y="64.08" style="stroke: #000000; stroke-width: 0.8"/>
      </g>
     </g>
     <g id="text_1">
      <!-- 1.5 -->
      <g style="fill: #808080" transform="translate(47.30902 82.477656) scale(0.15 -0.15)">
       <defs>
        <path id="DejaVuSans-31" d="M 794 531 
L 1825 531 
L 1825 4091 
L 703 3866 
L 703 4441 
L 1819 4666 
L 2450 4666 
L 2450 531 
L 3481 531 
L 3481 0 
L 794 0 
L 794 531 
z
" transform="scale(0.015625)"/>
        <path id="DejaVuSans-2e" d="M 684 794 
L 1344 794 
L 1344 0 
L 684 0 
L 684 794 
z
" transform="scale(0.015625)"/>
        <path id="DejaVuSans-35" d="M 691 4666 
L 3169 4666 
L 3169 4134 
L 1269 4134 
L 1269 2991 
Q 1406 3038 1543 3061 
Q 1681 3084 1819 3084 
Q 2600 3084 3056 2656 
Q 3513 2228 3513 1497 
Q 3513 744 3044 326 
Q 2575 -91 1722 -91 
Q 1428 -91 1123 -41 
Q 819 9 494 109 
L 494 744 
Q 775 591 1075 516 
Q 1375 441 1709 441 
Q 2250 441 2565 725 
Q 2881 1009 2881 1497 
Q 2881 1984 2565 2268 
Q 2250 2553 1709 2553 
Q 1456 2553 1204 2497 
Q 953 2441 691 2322 
L 691 4666 
z
" transform="scale(0.015625)"/>
       </defs>
       <use xlink:href="#DejaVuSans-31"/>
       <use xlink:href="#DejaVuSans-2e" x="63.623047"/>
       <use xlink:href="#DejaVuSans-35" x="95.410156"/>
      </g>
     </g>
    </g>
    <g id="xtick_2">
     <g id="line2d_2">
      <g>
       <use xlink:href="#mf5fc5a5aa5" x="124.690909" y="64.08" style="stroke: #000000; stroke-width: 0.8"/>
      </g>
     </g>
     <g id="text_2">
      <!-- 2 -->
      <g style="fill: #808080" transform="translate(119.919034 82.477656) scale(0.15 -0.15)">
       <defs>
        <path id="DejaVuSans-32" d="M 1228 531 
L 3431 531 
L 3431 0 
L 469 0 
L 469 531 
Q 828 903 1448 1529 
Q 2069 2156 2228 2338 
Q 2531 2678 2651 2914 
Q 2772 3150 2772 3378 
Q 2772 3750 2511 3984 
Q 2250 4219 1831 4219 
Q 1534 4219 1204 4116 
Q 875 4013 500 3803 
L 500 4441 
Q 881 4594 1212 4672 
Q 1544 4750 1819 4750 
Q 2544 4750 2975 4387 
Q 3406 4025 3406 3419 
Q 3406 3131 3298 2873 
Q 3191 2616 2906 2266 
Q 2828 2175 2409 1742 
Q 1991 1309 1228 531 
z
" transform="scale(0.015625)"/>
       </defs>
       <use xlink:href="#DejaVuSans-32"/>
      </g>
     </g>
    </g>
    <g id="xtick_3">
     <g id="line2d_3">
      <g>
       <use xlink:href="#mf5fc5a5aa5" x="190.145455" y="64.08" style="stroke: #000000; stroke-width: 0.8"/>
      </g>
     </g>
     <g id="text_3">
      <!-- 2.5 -->
      <g style="fill: #808080" transform="translate(178.218111 82.477656) scale(0.15 -0.15)">
       <use xlink:href="#DejaVuSans-32"/>
       <use xlink:href="#DejaVuSans-2e" x="63.623047"/>
       <use xlink:href="#DejaVuSans-35" x="95.410156"/>
      </g>
     </g>
    </g>
    <g id="xtick_4">
     <g id="line2d_4">
      <g>
       <use xlink:href="#mf5fc5a5aa5" x="255.6" y="64.08" style="stroke: #000000; stroke-width: 0.8"/>
      </g>
     </g>
     <g id="text_4">
      <!-- 3 -->
      <g style="fill: #808080" transform="translate(250.828125 82.477656) scale(0.15 -0.15)">
       <defs>
        <path id="DejaVuSans-33" d="M 2597 2516 
Q 3050 2419 3304 2112 
Q 3559 1806 3559 1356 
Q 3559 666 3084 287 
Q 2609 -91 1734 -91 
Q 1441 -91 1130 -33 
Q 819 25 488 141 
L 488 750 
Q 750 597 1062 519 
Q 1375 441 1716 441 
Q 2309 441 2620 675 
Q 2931 909 2931 1356 
Q 2931 1769 2642 2001 
Q 2353 2234 1838 2234 
L 1294 2234 
L 1294 2753 
L 1863 2753 
Q 2328 2753 2575 2939 
Q 2822 3125 2822 3475 
Q 2822 3834 2567 4026 
Q 2313 4219 1838 4219 
Q 1578 4219 1281 4162 
Q 984 4106 628 3988 
L 628 4550 
Q 988 4650 1302 4700 
Q 1616 4750 1894 4750 
Q 2613 4750 3031 4423 
Q 3450 4097 3450 3541 
Q 3450 3153 3228 2886 
Q 3006 2619 2597 2516 
z
" transform="scale(0.015625)"/>
       </defs>
       <use xlink:href="#DejaVuSans-33"/>
      </g>
     </g>
    </g>
   </g>
   <g id="matplotlib.axis_2"/>
   <g id="LineCollection_1">
    <path d="M 176.605936 64.08 
L 176.605936 52.992 
" clip-path="url(#pe9e4420c33)" style="fill: none; stroke: #e34500"/>
   </g>
   <g id="LineCollection_2">
    <path d="M 150.806685 64.08 
L 150.806685 52.992 
" clip-path="url(#pe9e4420c33)" style="fill: none; stroke: #f76800"/>
   </g>
   <g id="LineCollection_3">
    <path d="M 219.172534 64.08 
L 219.172534 52.992 
" clip-path="url(#pe9e4420c33)" style="fill: none; stroke: #9d2800"/>
   </g>
   <g id="LineCollection_4">
    <path d="M 201.463334 64.08 
L 201.463334 52.992 
" clip-path="url(#pe9e4420c33)" style="fill: none; stroke: #c12a00"/>
   </g>
   <g id="LineCollection_5">
    <path d="M 142.32832 64.08 
L 142.32832 52.992 
" clip-path="url(#pe9e4420c33)" style="fill: none; stroke: #fa7500"/>
   </g>
   <g id="LineCollection_6">
    <path d="M 114.582485 64.08 
L 114.582485 52.992 
" clip-path="url(#pe9e4420c33)" style="fill: none; stroke: #fd9b00"/>
   </g>
   <g id="LineCollection_7">
    <path d="M 154.896146 64.08 
L 154.896146 52.992 
" clip-path="url(#pe9e4420c33)" style="fill: none; stroke: #f66200"/>
   </g>
   <g id="LineCollection_8">
    <path d="M 230.809967 64.08 
L 230.809967 52.992 
" clip-path="url(#pe9e4420c33)" style="fill: none; stroke: #822900"/>
   </g>
   <g id="LineCollection_9">
    <path d="M 150.749056 64.08 
L 150.749056 52.992 
" clip-path="url(#pe9e4420c33)" style="fill: none; stroke: #f76800"/>
   </g>
   <g id="LineCollection_10">
    <path d="M 243.448617 64.08 
L 243.448617 52.992 
" clip-path="url(#pe9e4420c33)" style="fill: none; stroke: #662b00"/>
   </g>
   <g id="LineCollection_11">
    <path d="M 209.362202 64.08 
L 209.362202 52.992 
" clip-path="url(#pe9e4420c33)" style="fill: none; stroke: #b32700"/>
   </g>
   <g id="LineCollection_12">
    <path d="M 49.746003 64.08 
L 49.746003 52.992 
" clip-path="url(#pe9e4420c33)" style="fill: none; stroke: #70b8ff"/>
   </g>
   <g id="LineCollection_13">
    <path d="M 140.432042 64.08 
L 140.432042 52.992 
" clip-path="url(#pe9e4420c33)" style="fill: none; stroke: #fb7800"/>
   </g>
   <g id="LineCollection_14">
    <path d="M 140.025242 64.08 
L 140.025242 52.992 
" clip-path="url(#pe9e4420c33)" style="fill: none; stroke: #fb7900"/>
   </g>
   <g id="LineCollection_15">
    <path d="M 46.145455 52.992 
L 46.145455 8.64 
" clip-path="url(#pe9e4420c33)" style="fill: none; stroke: #70b8ff; stroke-opacity: 0.5; stroke-width: 3"/>
   </g>
   <g id="LineCollection_16">
    <path d="M 52.690909 52.992 
L 52.690909 8.64 
" clip-path="url(#pe9e4420c33)" style="fill: none; stroke: #7ab8ec; stroke-opacity: 0.5; stroke-width: 3"/>
   </g>
   <g id="LineCollection_17">
    <path d="M 59.236364 52.992 
L 59.236364 8.64 
" clip-path="url(#pe9e4420c33)" style="fill: none; stroke: #92b9c1; stroke-opacity: 0.5; stroke-width: 3"/>
   </g>
   <g id="LineCollection_18">
    <path d="M 65.781818 52.992 
L 65.781818 8.64 
" clip-path="url(#pe9e4420c33)" style="fill: none; stroke: #a9b996; stroke-opacity: 0.5; stroke-width: 3"/>
   </g>
   <g id="LineCollection_19">
    <path d="M 72.327273 52.992 
L 72.327273 8.64 
" clip-path="url(#pe9e4420c33)" style="fill: none; stroke: #c0ba6a; stroke-opacity: 0.5; stroke-width: 3"/>
   </g>
   <g id="LineCollection_20">
    <path d="M 78.872727 52.992 
L 78.872727 8.64 
" clip-path="url(#pe9e4420c33)" style="fill: none; stroke: #d8ba3f; stroke-opacity: 0.5; stroke-width: 3"/>
   </g>
   <g id="LineCollection_21">
    <path d="M 85.418182 52.992 
L 85.418182 8.64 
" clip-path="url(#pe9e4420c33)" style="fill: none; stroke: #efbb14; stroke-opacity: 0.5; stroke-width: 3"/>
   </g>
   <g id="LineCollection_22">
    <path d="M 91.963636 52.992 
L 91.963636 8.64 
" clip-path="url(#pe9e4420c33)" style="fill: none; stroke: #fab700; stroke-opacity: 0.5; stroke-width: 3"/>
   </g>
   <g id="LineCollection_23">
    <path d="M 98.509091 52.992 
L 98.509091 8.64 
" clip-path="url(#pe9e4420c33)" style="fill: none; stroke: #fbaf00; stroke-opacity: 0.5; stroke-width: 3"/>
   </g>
   <g id="LineCollection_24">
    <path d="M 105.054545 52.992 
L 105.054545 8.64 
" clip-path="url(#pe9e4420c33)" style="fill: none; stroke: #fca700; stroke-opacity: 0.5; stroke-width: 3"/>
   </g>
   <g id="LineCollection_25">
    <path d="M 111.6 52.992 
L 111.6 8.64 
" clip-path="url(#pe9e4420c33)" style="fill: none; stroke: #fd9f00; stroke-opacity: 0.5; stroke-width: 3"/>
   </g>
   <g id="LineCollection_26">
    <path d="M 118.145455 52.992 
L 118.145455 8.64 
" clip-path="url(#pe9e4420c33)" style="fill: none; stroke: #fe9700; stroke-opacity: 0.5; stroke-width: 3"/>
   </g>
   <g id="LineCollection_27">
    <path d="M 124.690909 52.992 
L 124.690909 8.64 
" clip-path="url(#pe9e4420c33)" style="fill: none; stroke: #ff8f00; stroke-opacity: 0.5; stroke-width: 3"/>
   </g>
   <g id="LineCollection_28">
    <path d="M 131.236364 52.992 
L 131.236364 8.64 
" clip-path="url(#pe9e4420c33)" style="fill: none; stroke: #fe8600; stroke-opacity: 0.5; stroke-width: 3"/>
   </g>
   <g id="LineCollection_29">
    <path d="M 137.781818 52.992 
L 137.781818 8.64 
" clip-path="url(#pe9e4420c33)" style="fill: none; stroke: #fb7c00; stroke-opacity: 0.5; stroke-width: 3"/>
   </g>
   <g id="LineCollection_30">
    <path d="M 144.327273 52.992 
L 144.327273 8.64 
" clip-path="url(#pe9e4420c33)" style="fill: none; stroke: #f97200; stroke-opacity: 0.5; stroke-width: 3"/>
   </g>
   <g id="LineCollection_31">
    <path d="M 150.872727 52.992 
L 150.872727 8.64 
" clip-path="url(#pe9e4420c33)" style="fill: none; stroke: #f76800; stroke-opacity: 0.5; stroke-width: 3"/>
   </g>
   <g id="LineCollection_32">
    <path d="M 157.418182 52.992 
L 157.418182 8.64 
" clip-path="url(#pe9e4420c33)" style="fill: none; stroke: #f55e00; stroke-opacity: 0.5; stroke-width: 3"/>
   </g>
   <g id="LineCollection_33">
    <path d="M 163.963636 52.992 
L 163.963636 8.64 
" clip-path="url(#pe9e4420c33)" style="fill: none; stroke: #f35400; stroke-opacity: 0.5; stroke-width: 3"/>
   </g>
   <g id="LineCollection_34">
    <path d="M 170.509091 52.992 
L 170.509091 8.64 
" clip-path="url(#pe9e4420c33)" style="fill: none; stroke: #ec4c00; stroke-opacity: 0.5; stroke-width: 3"/>
   </g>
   <g id="LineCollection_35">
    <path d="M 177.054545 52.992 
L 177.054545 8.64 
" clip-path="url(#pe9e4420c33)" style="fill: none; stroke: #e34500; stroke-opacity: 0.5; stroke-width: 3"/>
   </g>
   <g id="LineCollection_36">
    <path d="M 183.6 52.992 
L 183.6 8.64 
" clip-path="url(#pe9e4420c33)" style="fill: none; stroke: #da3d00; stroke-opacity: 0.5; stroke-width: 3"/>
   </g>
   <g id="LineCollection_37">
    <path d="M 190.145455 52.992 
L 190.145455 8.64 
" clip-path="url(#pe9e4420c33)" style="fill: none; stroke: #d13600; stroke-opacity: 0.5; stroke-width: 3"/>
   </g>
   <g id="LineCollection_38">
    <path d="M 196.690909 52.992 
L 196.690909 8.64 
" clip-path="url(#pe9e4420c33)" style="fill: none; stroke: #c82f00; stroke-opacity: 0.5; stroke-width: 3"/>
   </g>
   <g id="LineCollection_39">
    <path d="M 203.236364 52.992 
L 203.236364 8.64 
" clip-path="url(#pe9e4420c33)" style="fill: none; stroke: #bf2800; stroke-opacity: 0.5; stroke-width: 3"/>
   </g>
   <g id="LineCollection_40">
    <path d="M 209.781818 52.992 
L 209.781818 8.64 
" clip-path="url(#pe9e4420c33)" style="fill: none; stroke: #b22700; stroke-opacity: 0.5; stroke-width: 3"/>
   </g>
   <g id="LineCollection_41">
    <path d="M 216.327273 52.992 
L 216.327273 8.64 
" clip-path="url(#pe9e4420c33)" style="fill: none; stroke: #a32700; stroke-opacity: 0.5; stroke-width: 3"/>
   </g>
   <g id="LineCollection_42">
    <path d="M 222.872727 52.992 
L 222.872727 8.64 
" clip-path="url(#pe9e4420c33)" style="fill: none; stroke: #942800; stroke-opacity: 0.5; stroke-width: 3"/>
   </g>
   <g id="LineCollection_43">
    <path d="M 229.418182 52.992 
L 229.418182 8.64 
" clip-path="url(#pe9e4420c33)" style="fill: none; stroke: #852900; stroke-opacity: 0.5; stroke-width: 3"/>
   </g>
   <g id="LineCollection_44">
    <path d="M 235.963636 52.992 
L 235.963636 8.64 
" clip-path="url(#pe9e4420c33)" style="fill: none; stroke: #772a00; stroke-opacity: 0.5; stroke-width: 3"/>
   </g>
   <g id="LineCollection_45">
    <path d="M 242.509091 52.992 
L 242.509091 8.64 
" clip-path="url(#pe9e4420c33)" style="fill: none; stroke: #682b00; stroke-opacity: 0.5; stroke-width: 3"/>
   </g>
   <g id="LineCollection_46">
    <path d="M 249.054545 52.992 
L 249.054545 8.64 
" clip-path="url(#pe9e4420c33)" style="fill: none; stroke: #662b00; stroke-opacity: 0.5; stroke-width: 3"/>
   </g>
  </g>
 </g>
 <defs>
  <clipPath id="pe9e4420c33">
   <rect x="36" y="8.64" width="223.2" height="55.44"/>
  </clipPath>
 </defs>
</svg>
